<svg width="55" height="119"><path d="M20.7 0l-.2.5v.3h-.1V1l-.1.1-.4.1h-.3v.1h-.2l-.1.1V1.6h-.1v.2l-.4.2-.1.1h-.1v.3l-.1.1-.2.2-.2.3.5.5v.1l-.1.2-.2.6-.2.6-.2.7-.2.6v.2l-.2.1h-.1v.1h-.1l-.4.2-.4.2-.3.1-.3.2H15.6l-.2.1-.2.1v.2l-.2.1h-.1l-.2.3v.1h-.2v.2l-.2.3V9h.1v.1h.2v.2h.1V9.7h.1v.2h-.2v.1h-.1l-.3.8v.2l.1.2V11.5l.1.1.1.1V12l.3.8v.2l-.4.3v.1l-.1.1V14l.1.2.1.1.5.8v.5h-.5v.1h-.1v.2H14l-.2-.1h-.2l-.2.2V16.3l-.1.3-.1.1h-.1V17l-.1.1v.2H13v.2l-.1.1-.2.7h-.1l-.2.1v.2h-.1l-.1.3-.1.2h-.2v.1l-.1.1-.1.2h-.2l-.1.2v.5h-.1v.2h-.1v.5l-.1.2v.2H11V22h-.2l-.1.1v.1h-.2v.2l-.1.1V23l.1.4v.2l.1.1V25h.2v.1l.1.2-.1.1V25.7h-.1v.2H10V26.1l-.1.2v.2l-.1.1V27h-.1v.1l-.1.2v.5l.1.1v.1h-.1l-.1.1v.2h-.2V28h-.1l-.2.2v.8h-.1v.5l.1.3.1.1V30.4l.1.1.1.1H9.6l.1.1v.1h.1v.4H9.4v.7h.2l.1.2V32.3h.2v1l.2.3h.1l.1.1v.4h-.2v.6l.1.2.1.2h.1l.1-.2H11V35.3l.1.2v.2l-.1.2-.1.1v.6l-.1.1v.6h.1v.7l.1.2-.2.1v.1h-.4v.4l-.1.1v.1l-.1.2-.2.1v.2l-.1.2v.1h-.1v.2l-.2.6v.7l-.5.1-.1.2v.1h.2l.2.1v.1l-.1.1v.3h.1v.6l.1.4.1.1-.2.2v.1h.1v.7l-.1.1-.1.1H8.8v.1h-.1l-.1.2h-.1v.1l-.1.1V45.4l-.2.1H8v-.1H8v.2h-.4V46.4h-.2v.2l-.1.2v.5h-.1l.1.1v.2h.1l.1.2h-.1v.4l-.2.1V48.5l.1.1v.2h.1v.5l-.1.1v.8l.2.2v.2l.1.1v.1l.1.1v.7l.1.6v.1H8v.1l.2.1v.2L8 53v.2H8v.2h-.5l-.1.1-.3.1-.1.1-.3.2v.1l-.1.3V55.5l-.1.1v.2l-.1.2-.1.1.1.1v.2H6l-.2-.2v1l.1.2v.4h-.1V58H5.6v.6l.1.1H6v.4H5.5l-.1.4V59.9l-.1.2-.2.2v.4l.2.2v1.6l-.1.1v.6h.1v.2l-.1.1v.2l.1.2V64l.1.1.1.1v.5l.1.1V65.2h-.1l-.2.1v.1h-.2l-.1-.1h-.2V65.6l-.1.1-.1.2.2.2v.5h-.1v.2h-.1V68.9H5l.1.1h.4l.3.2v.5H5.4l-.1.1v.2h-.1v.2h.1l.1.1v.2h.1v.1h.1v.1h.2v.5h-.2v.2h.1V71.6h.1l.2.3v.2l-.3.3-.1.1h-.1V73.8h1.1l.4.1h.2v.1h.1v.2h.1V74.5h-.1l-.1.1v.1H7v.5l-.2.1h-.2l-.2-.2h-.2l-.3.2-.3-.1h-.2v.1H5V75H4.7v.5H5.1l.1.1h.5l.1.2h.4v.1l.2.2v.2l.1.2.2.1.1.2v.1l.1.1v.1h-.1v.2h-.1l-.3.2V78l-.2.1h-.4v.1h-.1v.5l-.1.1v.2l.1.1V79.4H6v.1H6V79.8l-.2.4v.1h-.1v.1h-.4v.1l.2.2.1.1v.1l.1.1v.5l.2.5v.6l-.1.1-.1.1-.2.2h-.2l-.1.1V83.9L5 84v.1l.3.2v.1l.1.1V84.7h-.2l-.2-.1V85l-.1.1-.2.3h-.1v.1h-.4l-.1.1V86.4l-.3.5-.1.4v.1l-.1.1v.2l.2.1.1.1v.2h.2v.1l.1.5v.5H4l-.1.1v.2H3.6l-.1.1-.1.1-.1.2v1.3l-.2.2-.2.2-.2.1h-.3v.1l-.2.1-.2.3V92.5l-.2.2V93H2L2 93v.1H1v.4l-.1.1V94l-.2.1v.2h.1v.1H1v.4l.1.2V95.2l-.1.2v.2H.7v.1l.2.2v.2l-.1.3v.2l.3.3h.1l.1.1v.1l.1.2v.2l.1.1v.9l.2.2v.5h.5l.2-.3h.1l.3-.3H3l.2.2h.2l.2-.2H4l.1.1h.1V99l-.1.1v.1l.1.2.1.2v.7l-.1.1H4v.1l-.1.2v.2l.1.1.2.2v.1l-.1.2v.5l-.1.1v.2l-.2.2v.2H4l.1.1v.4h.1l.3.2h.2l.1.2.2.2v.1l.2.1v.5H8l.6.1h2.1l.3.2.5.2.5.2h.7l.6.2.4.2.6.2h.1l.3.1v.4h.1l.1-.1V105.9l-.3-.6-.4-.5-.3-.6-.2-.5v-.2l-.4-.5v-.1H13v.1l-.3.2h-.1l.1-.1v-.1l-.4-.2H12l-.6.2.2-.1.1-.1h.2l.1-.1H12.5l.3.1h.2l.1-.1h.2l.1-.1v-.2l-.3-.8v-.4l-.2-.2v-.7l-.1-.1H12.3l-.1.1-.2.2v.1-.1l.1-.2.3-.2.1-.2h.1v-.2l.1-.1v-.7l.1-.6.1-.1.1-.2h.1v-.3l.2-.2h.1v-.1l.7-.4.5-.1.1-.1V96.5l-.3-.2V96h-.1V96h-1.2l.3-.1H14.1l.2-.2V95.4l-.2-.2V95l-.2-.1h.2v.2l.1.2v.1l.2.2V96h.1l.1.1.1.2.2.2v.1h.5l.5-.3.4-.4v-.1h.1v-.1l.1-.1v-.1l.1-1v-.2l.1-.1v-.3l.1-.1V93.4l.1-.4v-.1h-.1l-.1.4v.1h-.3v-.2h.2V93l.2-.2v-.1h.1V92l.6-.7.1-.1.3-.2V91h.1v-.1l.3-.4v-.1l.5-.2.1-.1h.1l.1-.1.2-.2.1-.2h.1l.2-.1h.1l.2-.1v-.2h.4v-.4l.4-.3h.1v-.2h.1l.1-.1h.4v-.4l-.1-.1v-.1h.4v-.1l-.1-.1V87l-.2-.1h-.2l-.4.1h-.2l-.2.2h-.2.2v-.1l.2-.1h.3V87l.2-.2h.4l.1-.2.1-.3.1-.3V86l.1-.6v-.7h-.1v-.1l-.1-.1-.2-.2h-.1l-.1-.2h-.1l-.2.1h-.7l-.1-.1H19.4l-.2-.2-.1-.1-.2-.3-.2-.2-.1-.1h-.1l-.2-.3v-.1h-.1l-.1-.1-.1-.1-.1-.1-.2-.1-.2-.2-.3-.5v-.2l-.2-.3v-.6l-.1-.1v-.2l.1-.4.2-.1v-.2l.3-.4h.1v-.5l.1-.2v-.1h.1l.1-.2h.1l.2-.4.1-.1v-.1h.1l.2-.3V77h.2l.2-.2h.8l.1-.1-.1-.1h.3v-.1h-.2v-.2h.2l.2-.1V76H20.7l.1-.2h.6v.1h.7l.2.1h.1V76l.1-.1v-.2h.1v-.2H22.2v-.1H22v-.5l.1-.1.1-.2.2-.2h.2l.1-.1H23.1v-.1H23V74h.2v-.2H23v-.1l.2-.2V73h-.1v-.4h.2V72h-.1V71.7h-.1v-1h.1l.1-.2.2-.2.2-.3h.1v-.4h.1v-.1l.2-.1.5-.4.5-.1.3-.2.3-.2h.1v-.2H25v-.1l-.2-.1-.4-.3h-.2l-.2-.1V67.3h.1v-.1l.1-.1H24.5V67h.1l.1-.2h.2v-.1l.2-.1H25.7l.2.1v.1l.1.1h.1V67.8h.1v.2h.2v.2h.1l.2-.1h.2l.5-.2h.2l.2-.2v-1.8l-.1-.1v-.1h-.1v-.3l-.1-.1H27l-.4.2-.4.2h-.5l.1.2h.6l.1.2v.2l-.1.1-.1.1H25v-.2l.2-.3h.1v-.1H25l-.1-.1H24.6l-.1-.1h-.2l-.2-.2-.1-.1-.1-.1-.2-.4V64.5l.2-.3V63l-.1-.2-.1-.2V62.3l-.2-.4V60.7l.3-.3h.4-.1v-.1H24v-.1h.5v.2h.1v.1h-.4v.1h.7l.2.2.4.1.7.3H26.7v.1h.1l.1.1.3.3h2.1l.4-.1h.2v-.1h.1v-.1H30.3v-.1h.1l.2-.1.3-.2.4-.2.1-.1v-.2l.2-.2V60h.1v-.1h-.1l-.2.1v-.1h-.1v-.1l.2.1V59.6h-.1v-.2H31v-.1H31V59l-.2-.2v-.1l.1-.2h.2v-.2l.1-.2v-.7h.1V57l.1.1h.4v-.4l.1-.5v-.3h.1v-.1l-.2-.1-.2-.2v-.1h-.2v-.1H31.7l.2.2v.1h.1V55.2l-.3-.1h-.3l-.1-.1h.1V55l-.1-.1-.1-.1V54.1h.1V54h.1-.1V53.7h-.1l-.1-.2v-.1h.6v.1l.1.1v.1l.2.1.6.2h.4l.5.1h.2l.2-.1h1.3l.6-.1h.4l.4-.2 1.3-.2h.2l.5-.2 1.5-.3h.1l.2-.2.6-.2h.4l.2-.2h.5v-.1h.1l.4-.2.2-.2h.1l.5-.3.2-.1.2-.2.3-.2.1-.2V50.4l.1-.1V50h.2l.2-.4.2-.2.3-.3.3-.5.1-.2.4-.6.3-.5.2-.3V47l.1-.2v-1.5h-.1V45h-.1V45h-.1v.1H46v.1h-.1l-.1-.1h-.1l-.3-.2-.4-.4v-.1l-.1-.1v-.1l-.1-.2h-.1V43l.1-.1.3-.5.2-.2v-.5l-.3-.3-.2-.3-.4-.4h-.1l-.3-.2-.5-.4-.4-.1-.2-.2h-.1l-.4-.1v-.1l-.3-.1v-.2l-.1-.1h-.2v-.1l-.1-.1V39l-.1-.1v-.5h-.2v-.1H41.8l.1-.1V38l.2-.1v-.5h-.2v-.6l-.2-.2v-.2h-.1v-.9l.1-.2.1-.2h.1v-.7l.1-.1h.7v-.7l-.1-.1V33l-.1-.4v-.2l.1-.2.2-.3v-.2l-.2-.2V30.4l.1-.1h.2v-.1l.2-.5V29.5l-.2-.1v-.2l.2-.1V28.7h.1v-.1l.1-.1v-.4l.1-.1v-.5l.1-.1h.1V26.7l-.1-.1-.1-.2V26.2l.6-.5v-.1l.1-.1v-.2l.2-.1.1-.1.3-.3.2-.2v-.4l.1-.1V24h.4l.1-.1.2-.2v-.1h.1v-.2h.1l.1-.1.3-.3v-.2h.1v-.1h.2v-.1l.1-.2v-.2l.1-.2h.1l.1-.1h.1l.2-.1v-.2l.1-.2.2-.1v-.1l.1-.3h.2l.1-.1.2-.3.2-.2V20H48.7V19.6l.1-.1h.4v.1h.1l.1-.2v-.1h-.1l-.1-.1v-.1l.2-.1V19h.1v-.1H49.8v-.2h.2l.2-.1v-.2h.1v-.1h.2l.1-.1V18h.4V18h.1v-.1h-.1v-.1H51.3l.1-.1V17.4h.1l.1-.1V17h.4l.1-.1h.1v-.1h.5v-.2h.2v.1-.2h.1v.1h.2v-.1h.1v-.1l.1-.3h.1v.1h.2l.2-.2h.1v-.2h.4V15.5h.1l.2-.3v-.5h-.1V14h.1v-.5l.1-.2V13l-.2-.2v-.2l-.1-.2h-.1v-.6l-.1-.1V11.3H53.8v-.2h-.2V11h-.1v.1h-.1V11h-.2v.1h-.1v.1H53V11H52.7v.1l-.1.1v.2h-.1v-.1l-.1-.1h-.1v-.1h-.2v.2h-.1V11.7l.1.1v.5H52v1.1H52v.3l-.2.2-.1.1v.4H51.3l-.1.1v.2l-.1.1H51l-.2.2V15.4H50v.1l-.1.2v.1h-.2v.2h-.2v.6h-.2l-.1.2h-.4v-.2h-.4l-.2-.1H48l-.2.1-.2.1V17l-.1.1v.2H47.1L47 17l-.2-.2H46.6l-.2.2h-.2l-.2-.2h-.2l-.3.1H45l-.2-.1v-.1h-.6l-.5-.2-.3-.1H43.2v-.1h-1.8v.1-.2l-.1-.1-.1-.1v-.1h.1l.2-.1v-.2h.1v-.1h.1v-.2l.2-.1V15h.2v-.2h.1v-.1h.1v-.4h.2V14h-.1v-.4l.1-.2v-.2l.1-.1h.1V13h-.1V13h.1v-.2h.2l.1-.1.3-.2V12h.1V12h.1v-.2l.1-.1v-.2l.1-.1h.1v-.1h.2v-.1h.1v-.5l-.1-.1-.1-.3h-.1v-.1l-.2-.2v-.1h-.1l-.1-.2H43l-.1-.1h-.1l-.2-.1-.3-.2h-.2v.1H42l-.2-.2-.1-.1-.1-.1-.6-.1-.1-.1h-.2l-.5-.4h-.1l-.1-.1H40l-.1-.1h-.1l-.2-.1h-.1V8h-.2v-.2l-.2-.2-.1-.1h-.1v-.1H38.5v-.1l-.2-.2-1-.6h-1.1l-.1-.1H36v-.2h-.7V6L35 6h-.2v-.1h-.1v-.2h-.2v-.4h-.2v-.1h-.2V5H34V5l-.2-.1h-.1l-.1-.1h-.2v-.2h-.1l-.2-.2H33v-.1h-.1V4h-.1l-.1-.1-.1-.1-.3-.3h-.1v-.2H32v-.2l-.2-.1V3l-.1-.1v-.1h-.1V2.4h-.2V2.1h-.1V2l-.2-.1-.2-.1-.1-.1h-.1v-.1l-.1-.1h-.2v-.2h-.1v-.1l-.1-.1h-.1L30 1 30 1V.7h-3.1v.1h-.1V1l-.1.2-.1.2h-.1l-.2.6V2l-.2.1v.1l-.2.4v.5h-.1V2.7h-.1v-.1l-.1-.2h-.1V2h-.1v-.2h-.1v-.2h-.1v-.5h-.5l-.2-.2h-1.9l-.2-.1H21.8l-.3-.4-.3-.1V.2H21V0h-.3zm11 54.2h.2l.2.2h.1v-.1l-.2-.1h-.2zm.2.3v.1l.1.2h.1l.2.1.1.1h.1V54.7h-.1l-.1-.1H32v-.1h-.1zm-17.7 54.1V117.4h.2v.1h.6v-.2H15.4l.3.1v.1h.5l.7.2H17.7l.8.1.2.1h.4l.3.2v.1l.1.1.6.2v-.1h.1v-.2H21l.2-.1.2-.2v-.2h.6v.1l.1.1v.2h.2v-.1l.1-.1h.3v-.2h.2v.1l.1.1h.1v-.4h.2v-.2l.1-.2v-.3h.1l.1-.2-.4-.1h-.4l-.7.2-.2-.1h-.2v-.1h-.2l-1-.5-.2-.2h-.1l-.2-.2-.2-.1-.4-.6h-.1l-.5-.3h-.1l-.2-.3-.7-.5-.8-.6v-.4l-.2-.2h-.1v-.1h-.1l-.7-.7v-.1l-.1-.3v-.3h-.1V110.7l-.2-.4h-.7l-.2-.1-.1-.1v-.1l-.1-.2V109.6l.3-.3.1-.2.2-.1h.1v.1l.1.3v.1-.7l-.2-.2-.2-.2v-.1l-.2-.3-.2-.3-.1-.2h-.1v1.1zm11.5 8.3V117.3v-.1H25.3l-.1-.2h-.1v.1l.2.2h-.5l-.2.1v.2l.2.1v.1h.2l.2-.2H25.7v-.1l.2-.1v-.1h.2v.2h.4v-.1h.2l.1-.1v-.1h.1v.2h.2l.1-.1v-.1l.1-.1v-.1h-.5l-.1.2-.1-.2h-.2v.1h-.5v-.1zm-11.6.7v.1h.2v-.2l-.1-.2v.3z" fill="none" fill-rule="evenodd"/></svg>