<svg width="138" height="101"><path d="M85.9 0h-.1v.1H86.1L86 0zm1.5.4H87v.1h.4V.3h-.1zm-1.8 2.2v.1h.2V2.4l-.2.2zm.4 0v.1h-.1V3H86.3v-.2H86zM86 4v.2h.2V4H86zm-.2.1v.1h-.1V4.4h.4v-.2L86 4V4h-.1zm.8.4l-.1.2-.3.3h-.4v.8l-.1.4-.4 1.1-.1.3V8l.2.3-.4-.2-.3.3-.1.3-.2.3-.3.6.2-.2.2.2.2.2h.4l-.3.2.3.2v.6l-.1-.3v-.3l-.4.2-.1.2-.3.2v.7l.2.2-.1.3-.2.3-.1.3-.3.7v.3l.2.4.2.3v.3l-.2.5v.7l.2.8.2.2v.3l-.2.3v.3l-.3.6-.2.5v.6l-.1.3v.7l-.1.2-.1.3v.3l-.2.3-.1.3-.2.3-.3.4-.3.3v.4l-.1.2v.4l-.2.3-.3.1-.3.2-.3.2-.3.1-.6.1h-.7l-.2-.2-.3-.1-.4-.1-.3-.2-.3-.2-.5-.2-.3-.2-.1-.2V23l-.2-.3-.2-.3h-.5l-.3-.2-.3-.2h-.8l-.4-.1-.4-.3-.3-.3-.3-.2-.2-.2-.2-.2-.2-.3-.5-.1-.3-.1-.4-.2-.3-.3-.4-.2H70l-.3-.3-.2-.3-.4-.1-.4-.2-.2-.2-.1-.3-.3-.2-.3-.2-.3-.2-.4-.3-.3-.1-.3-.2-.4-.2-.1-.4-.1-.3.3-.2.2-.2.2-.4.3-.4.2-.3.3-.2v-.5l.3-.3.1-.4.1-.2-.3.2-.1-.2-.2-.3v-.3h.3l-.2-.3.1-.3.3.2v-.3l.3-.3v.3l.3-.2.2-.2.2.2v.3h.3l.1-.4v-.3h.4l-.2-.3-.3-.2.2-.3.2.2v-.2l.2-.3.3-.2-.1-.3.5-.2v-.5l-.4-.2-.1.3-.4-.2v-.2l-.2-.4.1-.2h-.3l-.3.2-.3.2-.1.3.3.1V9l-.2.3-.3.2-.3-.1-.2-.3.1-.2-.3-.1.2-.3h-.4l-.2.3-.2.2-.1-.3v-.3l.3-.2.3-.2H67l.2-.2.3-.2-.3.1-.3.2h-.4v.3l-.3.2h-.4l-.3.2.3.2H65l-.2-.1-.2-.2-.3-.3-.2-.2-.4.2H63l-.4-.2-.2.3-.2-.3v-.3h-.4l-.2.1-.3-.1.2-.3-.3-.1-.3.1-.3.2-.2-.2h-.4l-.2-.2h-.4l-.3-.3v-.2l-.3-.3-.2-.2-.3.1-.2.3-.4-.1-.2-.3-.2-.2h-.3l-.1-.4-.2.2-.2-.2v.5l-.1.3-.1-.3v-.3l-.4-.2-.1.3-.3-.2v.2l.2.2.1.3.3.3.3-.1h.4l.3-.1.3.2.1.2.4.2-.3.3.2.3v.7h-.3l-.3.2V9l-.2.2.1-.2-.1-.3-.4-.1-.2.2-.3.2-.4-.1H54l-.1-.4v-.3l-.2.3v.3l-.3-.2h-.3V9h-.4l-.3.2.2.2v.3h-.3v-.3l-.3-.2-.3.2v.5l.3.2h-.3l-.2-.3-.3.1-.1.3v.3l-.3.2h-.3l-.1.3v.4l.2.2.3.2-.3.2-.2.3-.4.2-.3-.2-.2.2v.2l-.1.4-.1.3v.2l-.1.3h-.4l-.3.1v.3l-.2.2-.1.3v.3l.2.2.2.2h.8l-.3.1-.2.2.1.3h.9l-.3.2h-.4l-.3.2v.4l.3.4h-.4v-.3l-.3-.3-.3-.2h-.4v1l-.2-.3v-.5l-.4-.2-.4-.2h-.3l-.4-.1-.3-.1-.4.1v.6l-.2.1v-.3l-.4.3v.5l.2.3v.3l-.1-.3-.2-.3-.2.3v.2l-.2.3V17.2l.1-.3.1-.3.2-.3.1-.2-.3-.2-.3-.3-.3-.2-.2-.2-.3-.4-.2-.2-.2-.2-.3-.2-.2-.2-.2-.2-.3-.1-.4.1-.2-.2-.1-.2-.3-.2-.2.2-.2.2.2.2-.3.1-.1.3-.2.2h-.4l-.2-.2.2-.3h-.4l-.2.3.1.3-.3.1-.1-.3v-.2l-.2-.2-.2-.3v.3l-.3.1.4.2.1.3-.2.2v.3l-.2.2.1.2-.4.1v.3l-.2-.1v-.3l-.3-.2v.2l-.2.4V15l.2-.2-.3-.2-.1.3v.5l-.3.2-.2.2v-.2h-.5v.3l-.3.2.1.3.4.2-.3.1.2.2h.4l-.1.3-.3.1-.2-.2-.2.3-.1-.3-.1-.3-.2.3-.3.1-.2.2v.2l.3-.1-.1.2h.3l.4.1-.2.3.3.3-.4-.2-.3-.1-.3-.2-.3-.2-.2.2v.3l-.2.2-.4-.1-.3.2.2.2-.1.3v.3l.2.2v.3l.3-.3.1-.2.2.2-.2.2v.4l-.3.3V20l-.3.2v.3l.2.3h.8l.4.1H33.4l-.4-.3h-.3l-.4-.2.1.3-.2.2-.1-.2-.4-.2.3-.2-.4-.1h-.3l-.1.3.3.2v.2h-.3l.3.3h-.4l.3.2-.3.2.4.2.2.3.1.2h.4l-.1.2-.1.3v.4l-.2-.2-.2-.3-.3.3.2.2-.1.2-.1.3v.7l-.2-.3-.1-.3-.3-.2v-.2l-.2-.3-.1-.3-.2-.3-.2-.2-.1-.3V22l-.2-.2-.1-.3.2-.2-.2-.3-.3.3-.1.2-.3.2v.3l.2.2h-.8v.6H28l-.5.3-.2.4-.2.3v1l.1.3v.7h.4l.1.2v.3l-.4.1-.2.2-.3.3-.4.3-.4.2v.3l-.3.2v.3l-.2.3-.2.3-.4.6-.3.4-.3.3-.7.5-.5.2-.4.2-.8.3-.4.1H21l-.5.1h-.4l-.4.3h-.6l-.4-.2H18l-.2.3-.3.3-.2.3-.4.1h-.3l-.5.1h-.7l-.6.4-.3.3-.3.2h-.4l-.3.2H13l-.4-.1-.1-.3-.6.3h-.4v-.4l-.3.2-.4.3-.3.2-.4.1h-.4l-.1.4-.3.1-.4.2-.2.2-.2.3-.4.2-.4.4-.2.2-.7.3-.4.2h-.3l-.6.3-.3.2-.2.2-.2.4-.1.2-.2.4-.1.3-.1.3h-.4l-.3.2v-.3l.1-.3-.2-.3V37.2l.2-.2h-.4l-.3.3v.3l-.4.8-.2.3v.3l-.2.3v.3l.3.2v.2l.2.5-.2.3V41.7l-.2.3-.2.2-.2.4-.2.3v.3l-.2.2v.4l-.1.3v.7l.5.4.1.3v.2l.2.3v.3l.1.3.3.1.2.3.2.6.3.3.2.3v.3l.4.2v.6l-.1.3V50.2l-.2.2-.5-.2v-.3l-.1-.3-.2-.4v.3l-.3.3-.2-.2v-1l-.3-.3-.1-.2-.2-.3-.2.3v.5l.2.3.2.5.3.3.3.2.2.2v.3l.1.2-.2.4-.3.1L2 51v-.2L2 51l-.1-.3v-.4l-.1-.3v.3l-.2-.3v-.2l-.3-.4v.7l-.2-.8v.6l-.4-.2.3.3v.2l.3.3.3.4.3.2.3.4.3.4.5.7.2.5.2.4.2.7v1.2l.3.2.4.3.1.4.3.2.2.5v.5l.7.8.2.4.1.3.1.3v2.3l.2.2.1.5.1.4.2.4v.3l.5.5.2.4.2.5.3.4.1.3.2.3.2.4v2.4l-.2.2.2.3-.3-.3.2-.4-.3.3v.3l.2.6v1-.3.3l-.2.2-.2.5-.3.2-.3.1h-.4l-.3-.1-.3-.2V73.5l.4.2.4-.1.7.2.3.2.4.3.4.4.2.2.2.2.7.2h.4l.3.1h-.3l.2.2h.4l.4.1H13.1l.4.2.3.1.2-.2h.4l.3.2-.2-.2.3-.1h.4l.3-.2.4-.1.2-.3.2-.3h.4l.4-.2v-.3l.4-.1.7-.1.3.1.2-.2.3-.2h.4l-.2-.2.2-.3.2-.2.3-.2.3-.2.4-.1.3-.1h1.4l.7-.1.3-.1h.8l.4-.1h1l.4.1h.4l.3-.1.3.2v.2l.4.1.3-.2h.5l.3-.1H30l.1.3.5-.2.4-.1h.4l.4-.2.1-.3.3-.3.3-.2v-.2l.1-.3.2-.3v-.3l.3-.3.4-.3.7-.1.5-.1.4-.2.5-.3.7-.3.7-.3.5-.3.4-.3.4-.1h.4l.3-.2.6.2h2.7l.7-.3.7-.2.7-.1.6-.2 1.3-.5.3-.2.5-.2.5-.1h.3l.5-.1h.5l.6-.1h.9l.6-.1H53l.3-.3.8.1.5.3.7.3.4.3.5.3.2.2.4.1h.3l.3-.2h.9l.4.3.4.1.2.2.4.2h.4l.1-.3.4.1.1-.2.2.2.2.2.4.2.2.3-.3.3h.4l.3-.1.4.2.2.4-.1.2h-.4v.2l-.1.2.3.2-.1.2.3.3.2.3.3-.2.5.2.3-.1v.2l.3.2.1.4v.5l.3.2.4.3.2.2.2.3.1.3v.2l.2.2.1.6.1.2v.3l-.2-.2-.3-.1-.2.2.4.1.1.3.4.1.4.5.3.2.1-.3.4.2.2.2.1-.3.2-.4-.4.2-.1-.3v-.3l.2-.2.3-.2.3-.2.2-.2.3-.4.1-.2.3-.3.3-.2.4-.2.3-.2.3-.1.1-.3h.8l.3-.6.2-.2v-.3l.2-.3.1-.3.4-.2.2-.3.3.1v-.2l.1-.4-.2-.2v-.3l.3.2.3.2v.8l.3.2-.3.2-.3.2v.2l.1.3.2.3v.2l-.4.4-.3.3-.2.2-.1.3-.2.2v.3l-.1.3v.3l-.3.4.3.2v.5l-.1.2v.4h-1.3l-.1.2v.3l-.2.2-.2.2.3.2.3-.2h.4l.4-.2.3-.1h.8l.1-.2.2-.4V75l.2-.4v-.3l.2-.4.2-.3v-.2l.1-.3.3.2.2.2.1.4.2.2.2.3.2.2.3.2-.2.4V76.2l-.1.3-.2.2-.3.3-.4.2-.1.2.3.2h.6l.4-.1.3-.2.4-.1h.4l-.4-.1h.5v-.3h.4l.3-.2.3.2.2.2-.4.1.3.3v.2l-.3-.1v-.3h-.5v.3l.3.2.6.4.3.2.3.3.2.5-.1-.2-.3-.4-.5-.4-1-.8.3.3.3.2.7.6.2.3.4.5.2.5.4.7v.4l-.1.3-.4.3.2.3v.2l.1.4.6.6.4.1.3.4.2.2.1.3.2.2.5.4.3.1h.8l.6.2.7.5v.2h.3l.5.1v-.3h.7l.6.2.3.1H86.8l.4.2.3.2.3.2.6.1.3.2.5.2h.3l.3.3.3-.2.2-.2.4-.1.2-.3.4-.3.4-.2.4-.2.2-.2h.8l.2-.2-.2-.3-.4.2-.4-.1.3-.2.5-.2.3-.2.4-.2.3.2.2.2.2.3-.2.2-.2.3-.3.2h-.5l.5.4h.4l.2-.2h.4l-.1-.3.1-.3h.4l.4.2.1.2-.4.2v.3l.3.1.2.3h.7v.3l.3.4.3-.2h.4l.3.3v.3l.2.2.3-.1v-.3l.1-.2v-.3l-.3.2-.2.1-.1-.3-.2-.1.4-.2h.9l.5-.1.5-.3.3-.3.3-.2.6-.5.6-.4.5-.3.4-.2.7-.2h.5l.9-.1h2.5l.4-.2.3-.3.1-.2h.4l.2-.4v-.3l.3-.2-.1-.3-.4-.1.2-.3v-.8l.2-.4.1-.4v-.2l.2-.3V79l.1-.5.1-.2v-.4l.4-.3.2-.2V77l.3-.2v-.3l.3-.3h.3v-.5l.3.2.1-.2-.2-.2-.1-.2.2-.3.2-.5-.2-.2.3-.1v-.3l.1-.3.2-.2.3-.2.2-.2.2-.2h-.4l.3-.2.2-.2V72l.1-.3v-.3l-.2-.2h.3l.3-.1.1-.3-.1-.2h.3l.2-.3.1-.3.2-.2.1-.3.2-.2.3-.2h.4l.3-.1-.2-.2h.3l.2-.3.2-.2.6-.3V67l.4-.5.3-.2v-.2l.2-.3.1-.3.2-.3V64.6l.2-.4V64l.2-.3-.2-.3v-1l.2-.3.1-.2.2-.4v-.3l.1-.3.1-.2v-.4l.2-.2v-.6l.1-.3v-.4l.2-.3v-.2l.1-.3.3-.3.1-.3v-.5l-.1-.3v-1l-.2-.2-.2-.4v-.5l-.2-.2-.2-.3v-.3l-.2-.2-.1-.2-.3-.2V52.5l.4-.1-.2-.5v-.5l-.1-.3v-.6l-.1-.2v-.6l.2-.3V49l-.2-.3-.2.3v-.4l-.1-.2-.3-.2V48l.2-.3-.1-.5-.2-.2h-.5l-.2-.2-.3-.5V46l-.1-.3-.4-.2-.6-.3-.1-.3-.3-.4-.2-.5v-.2l-.4-.2-.2-.2-.1.2-.3-.1-.3-.2-.4-.3-.2-.2-.4-.1v-.3l-.3-.3h-.4l-.3-.2V41l-.1-.3v-.3l-.1-.3.2-.2v-1l-.2.3-.1-.3.2-.2-.3-.2-.3-.2v.6l.1.2-.3-.2-.2-.1-.3-.2-.4-.1-.1-.3-.2-.3-.4.1v.5l.2.5v.3l-.1-.3-.3-.3-.2-.2-.2.2-.1-.2-.2-.2-.2-.3-.1-.4-.2-.4v-.2l-.1-.3v-.3l.2-.3-.3-.2-.2-.2-.1-.3-.1-.2-.2-.2v-.3l-.1-.3h-.4l-.2-.3h-.3v-.3l-.3-.2-.1-.2-.2-.3.2-.2h.3v-.5l-.2-.2-.3-.2-.3-.3h-.3v.2h-.3l-.2-.2v-.3l-.4-.1-.3-.2h-.4l-.2-.4-.2.3-.5-.2v-.3l-.1-.3-.2-.3-.1-.3-.5.2h-.4l-.3-.3v-.3l-.3.2-.4-.1-.2-.2-.5-.1-.3-.2-.2-.2-.2-.2-.2-.3v-.4l.2-.3v-.2h-.4V27l-.3-.3-.2-.2V26l.1-.3.1-.2v-.6l.1-.3-.1-.2V24l-.2-.3-.2-.3-.1-.5v-.6h-.3v.3l-.2-.2-.1-.3-.2-.2-.3-.3-.2-.3-.2-.2v-.4l.2-.2V20l-.2-.3-.1-.2v-.5l-.2-.3-.1-.3v-.6l.2-.3-.3-.2v-.2l.3-.4-.4-.2-.3-.2-.3-.1-.2-.3-.3-.2-.4-.2-.2-.2v-.2l-.2-.3v-.3l-.4.1-.4.2-.2-.2-.1.3-.3.3-.4.1h-.3l-.3-.4-.1-.4V14l-.3-.2-.1-.3-.1-.3v-.3l.2-.3v-.3l-.2-.2v-.5l-.1-.3v-.4l.1-.4-.3.1-.2-.3.1-.2v-.3l-.3-.2v-.3l-.3-.2-.3-.2v-.2l.3-.6-.2-.3-.4.1-.4-.2V6l-.2-.2v-.6l-.2-.2-.3-.3-.3.2v-.3l.3-.2-.2-.2h-.3zM46.4 20.3v-.1l.1-.1h.1l-.2.2h.2v.1-.1h.2v-.1h.5v.1h-.1v.1l-.1.1H47v.2h.1v.1H47v.1h-.1v.2H46.5v.4l-.1.1v.1h.1V22h-.1v.1h-.1v-.2H46v-.1H46v-.1H46v-.1h.1v-.1h-.1l.1-.1H45.7l.1-.1.3-.4V20.6l.1-.1v.1h.1v-.2H46v-.1h.2zm60.1 48.3v-.1l.1-.1v.2h.1v.1H106.3v.2h.1v.1h-.1v.1h.1v.4V69.1h-.2V69h-.1v-.1h-.1v-.1l.2-.1v-.1h.2zm-.6 3.9l.1-.1v.1h-.1v.2-.2h-.1v.1h-.1v-.1h.2zm-5.7 6.8l-.1-.2v-.2l.1-.3v-.1h.2v.1h.2l.1.1h-.4v.1h-.1V79.2H100.6v.1h-.2zm-3.1-.7v-.1h.4v.1h.1v.1h-.4l-.1-.1zM57.7 5v.1h-.2v.1h-.1V5.7l.1.2.1.2.1.2V6l.1-.1V5.7h-.1V5zm12.2.1v.2h-.1V5.7h-.2l-.1.2v.2h-.1v.1l-.2.1v.2h.1l.2-.3.1-.2.1-.1v-.1h.1v-.2h.1V5.2zm-18.7.5V6l.1.1V6.7l.2.1V7l.1.1h.1l.1.1h.1l.1.2h.1l.1.1h.1l.2.1h.1l.1.1.1.1.1.1.4-.3.3-.2h.2v-.1h.1l.1-.1.1-.3H54.5V6.5h.2V6.2h-.2V6l-.1-.1h-.4v-.1h-.2v.5l-.1-.2v-.2h-.1l-.2.1h-.1v.3H53v-.1H53V6H52.6l-.1.1h-.2l-.2.1v.1H52v-.2H52l-.1.1h-.1V6h-.2l-.2-.2-.1-.2zm-.1.4h-.2l-.1.2-.1.1-.2.2h.1V7h.1v.2h-.4v.2h-.1v.1l.2.1h.1l.3-.1h.6l.2.1H52v-.2l-.1-.1h-.1l-.1-.1h-.1v-.4h-.2v-.5h-.1V6H51zm9.2.4H60v.2H60.5v-.1l-.1-.1zm8.8 0v.1h-.2v.1h-.1l-.1.2h-.2l-.1.1h-.1v.1h.2V7H68.9v-.2l.2-.1.1-.1zM60 7H60v.2h.1V7h.2v-.1h-.1zm-2.6.1v.2H57.9V7h-.2zm10.2.1h-.1v.2h.1l.1-.1V7h-.1zm1.8.3h-.2v.1h.1l.1-.1zm-.4.2v.2-.2zm-4 .2H65l-.1.1h.2zm3.4.3h-.2l-.1.1H68v.1h.4V8h.1zm-4 0v.1h.2-.2zm-.1.2v.1h.1v-.1h-.2zm5.7 0v.2-.1zm-13 0H57l.1.2v-.2zm11 3.8v.5-.1h.1v-.1h.1l-.1-.2-.2-.1zm1.7.9h-.1v.1H69.3v.2h.1v.1H69v.1h-.2v1h-.2v.1H69l.6.2H70.4v-.1h.1v-.2h-.7V14.2h.1l.1-.1V13.7l.1-.1h.1v-.1h.1v-.2h.1v-.1H70v.2H69.7v-.2h-.1v-.1l.1-.1V13zm-1.5 0v.1h-.1v.1H68v.2l.2.1v-.2.1h.1v.1h.1v-.1h.1V13l-.1-.1h-.1zm1.8.4zm-30.2.2v.1h.2l-.2-.1zm-4 1.7l-.1.1v.4h.2v-.5h-.1zm12.8 1v.1l.1.2v.1h.1v.1V16.5l-.2-.2zm.2 0v.2h.1v-.1h-.1zm18 .2v.1h.1v-.1h-.1zm-21.6 0v.2l.2.3v-.2l-.1-.2h-.1zm-10 .2h-.1v.1H35v.1l.1.1v-.2zm9.3.4v.2l.1.1h.1v-.2l-.1-.1zm-10.5.5l-.1.1v.1h-.1v.2H34.3l-.1.1v.1l.3-.1-.1-.2h-.1v-.2zm-.4 0v.1h-.2v.1H33.8v-.1zm36.6.8h-.1V18.8h.1V18.3zm-.9 0h-.1v.2h-.1v.2h.2v-.2l.1-.1zm1.2.3v.1h-.1V19.2l.1.1h.1v.1h.2v-.5h-.2v-.1zm-.6.1h-.1V19.1h.1v-.2h.1v-.1H70zm-.4 0v.1l-.1.1v.1h.1v.1l.1-.1v-.2zm8.5 2.2l-.2.1h-.4l-.1.1-.1.1h-.1v.2H77V21.9h-.1V22.2l.1-.1v-.2l.1.1h.4l.1-.1h.2V21.4h.2v-.2h.2v.1H78.6v-.1h.1v-.1h-.2V21H78zm-1.3 1.3h.1zm1.1.5v.2h-.2v.2l.1-.1H78.2v-.2l-.1-.1zm19.8 3.6v.1h-.4v.1h.2v.1l.1.1v.2l.1.1h.2V27h.1v-.2l-.2-.1v-.2h.1v-.1h-.2v-.1zm1 1.3v.2H99h-.1v-.1h-.1zm.8 1.3h-.2v.1h.2V29zm38.4 0V29.7v-.2l.1-.1V29h-.1zm-33.7 2.6v.1-.2zm1.5.1h-.1v.1l-.1.1v.1h.1v.1-.2h.1v-.1zm0 .4V32.4h-.1.1v.1H106v-.1h-.1v-.2l-.1-.1zm.4.8v.1h-.1v.1l.1-.1v-.1zm-98.7.7L7 34v.2h.2l.1-.1v-.2h.1v-.2h-.1zm114.2 1zm-12.1 1.8v.1h.1v-.1h-.1zm.2.3h-.1.2zm-1.2 1h-.1v.4h.1v-.5zm1.6.4V38.5h.2V38h-.1zm-2.2.4v.2h.1v-.2zm3.9 3.2v.4h.1v.1l.2.2v.1h.1v.1H112.6v-.2l-.1-.1v-.5l-.1.1H112v-.1h-.2v-.1zm.8 1l.1.1v.2h.1V42.6h-.1v-.1zm5.7 2.7l-.2.1-.2.2h.1l.1.1v.1l.1.1v.4l-.1.1-.1.1-.4.2v.1h.1v.5h-.1V47.8l-.1.1h-.1v.2h.1v.4l.2.2.1-.1v-.2l.2-.7.3-.6.3-.5V46.1h-.1V46l-.1-.2v-.5zM.7 45.7l-.1.5.1-.1v-.5zm-.2.7v.6-.5h.1v-.2zm116.9.7l.1.2V47h-.1zM.1 47.7v.1L0 48V48.3l.2.2v.2l.2.3v.1l.2.2.1.2.1.1H1V49.2l-.1-.1V49H.6v-.2H.6V48.5l-.2-.1V48L.2 48v-.2H.1v-.1zm118.7 4.5h-.1l-.1.1v.6h.1v.2h.1v-.4l.1-.4v-.1zm0 1.1v.2h-.1v.7h.1l.2-.6v-.1l.1-.1h-.1l-.1-.1zM8 67.3v.2h.1v-.2zm52.8.2h-.2v.1h-.1v.1h.2v-.1h.2zm2.6 4.3h-.1v.2h.1v-.2zm8.2 2.4h.1V74zM68 75.5l.1.1v.2h.2v-.1l-.2-.2H68zm1 .6h.1zm3.4 1.3H71.5l-.4.1h-.2v.1l-.8.1h-.2l-.2.1h-.2l-.1.1v.2h-.1v.2l.1.1h.2l.1.2v.1H71.2v-.2h.5l.1.1.2.1v.1h.2l.2-.1h.1v-.4h.2l.3-.1h.6v.1H73.9v-.1h.1V78l-.1-.1v-.1h-.1l-.1-.1H73.3v.1h-.1l-.1.1H73v-.2h-.6v-.2h.1-.1v-.2zm22.6 8h-.1v.2h.1l.1.1.2-.2h.2v-.1H95v-.1zm-.1.4H94.6l-.2.2h.7v.1-.2H95v-.1h-.1zm3.5.8v.1h.5-.5zm-7.3 2.5H91v.2l-.2.1v.4l-.1.1v.2l.1.1v.4h.5v-.1h.2v-1.2h-.1v-.1h-.2V89H91zm11.5.5h-.1v.2h-.2v.1h-.1l.1.1h.2v.1l.1.1v.2h.1v.2h.2v.2l.2.1h-.1v.1h.1l.1.1h.2V91h.4v-.4h-.1l-.1.1.1-.2V90.2H103.5V90h-.1l-.6-.5zm1.2 1.6h-.1v.1h-.6l-.2.1v.1h.1v.1H103.9v.2h.2v-.1h.1l.1-.1h.1l-.2-.2-.2-.2zm-10 .2v.1h-.2v.1H94v-.1h-.1zm-.4.1v.2h-.1V92l.1-.2V91.5zm10 .3h-.2v.1h.1v.1h.2v-.1l.1-.1h-.2zm-9.6.3l-.1.2v.1H94.4l-.1-.1H94v-.1h-.1zm-.6.1v.7H93v.1H93v.4h.1v.5h.1l.2.3V94.5l.1.1.2.2.1.4v.1h.1l.1.1.2.2v.1h.1l.2.2.2.2.1.2v.5h.1v-.1l.1-.1h.1v.2l.1.1.2.2h.1l.1.1h.1v.2h-.2v.2l-.1-.2v-.1l-.3-.1V97H95V97h-.2v-.1l-.1-.1v.5l.1.1V97.7l.2.1-.1.1.1.1h.1v.2h.1V98.6l.1.2h.1v.2h.2v.1h.2l.1.2h.2v.2h.1v.1h.1v.1l.1.1v.1l.1.2H96.9h-.1V99.6h.2V100H97.3l.1.1h.1v-.2h.1v.1h.2v.2h-.2v.1h-.1v-.1H96.7l.2.1v.1l.1.1v.2h.2l.2-.1v.1h.1v-.1h1v-.1h.1v.2h.1l.2.1v.1h.4v.1H99.8V100.6h.1v-.2h.2-.2v-.1h.1l.1-.1.1-.1h-.3v-.1h.4v-.2l-.3-.2v-.2h.1v.1l.1.1h.1v-.1h.1v.2h.1v.1H100.8v-.4l.1-.1v-.2h-.1.2V99l.1-.1v-.1l-.1-.1-.1-.1v-.1l.2.2h.1v.2h.2v.2h-.1v.1H101.6v-.5l.2-.1v.1h.2v.1h.5V99.2h.2v.1H102V99h-.1v.1h-.1v.2h.1l.2.1v.1h-.1l.2.3h.2v-.2l.1-.1v.1h.1l.2.2V99h.1V98.7h-.2v-.1h-.1v.1h-.1V98.4l.1-.1h.1V98l-.1-.2v-.1h.1v.1h.1l.1-.1V97h-.1l.1-.1v-.1l.2-.1V96.4h.4-.1v-.1h-.1v-.2h.1V96h.1v.2h-.1l.1.1h.1v.1h.2v.1h-.1V97l.1.1.1-.1v-.4l-.1-.2v-.5l-.1-.1V95h.1V95l-.1-.2v-.2l.1-.4.1-.1-.3.2v-.1l.2-.1v-.2h-.1v-.6h.1V93l-.3-.2h-.2v-.1l-.1-.1h-.2v-.1h-.2v.1l-.1.1v.1h-.2v.1h-.5v-.1H101.6l-.2.3-.1.1h-.4V93h-.2l-.2.1h-.7l-.1.1H99.5V93.7h.2l.1.1h-.4v-.2h-.5v.1h-.2v.1h-1.1l-.2-.1h-.2l-.1-.1H96.8v-.1H96.4l-.1-.1-.1-.1V93h-.4l-.1-.1h-.2v-.2h-.5l-.2-.1v-.2.1h-.4v.1h-.2l-.1-.1H94v-.1h-.7v-.2h-.1v-.1h-.1zm4.3 6V97.8h.1l.1.1h.1v.2h.1v.2l.1.1h-.2v.1h-.2v-.1l-.1-.2H97V98h.1v.2h.1V98l.1-.1v.2h.2zm-.1.8l-.2-.1v-.2H97l-.1-.1v-.2h.2v.1l.2.1h.1v.1h-.1l.1.2h.1l.2-.1h.1v.1h.2v.2h-.4l-.1-.1h-.2zm6.2-2v.1h.1v.1h.1V97h-.2zm-.5 1h-.1V98.4h.2l-.1-.2H103.5l-.1-.1v-.1h-.2zm-2.1 1.4h-.1v.1h-.1v.1h.2V100h.2v-.4h-.2v-.2zm-.2.5l-.1.1v.2h-.2v.2H100.1h.1v.1h.2v-.1h.1v.1h.1v.1h.2v-.2h.1v-.2l-.1-.3h-.1z" fill="none" fill-rule="evenodd"/></svg>