
<svg width="142px" height="116px" viewBox="0 0 142 116" version="1.1" xmlns="http://www.w3.org/2000/svg" xmlns:xlink="http://www.w3.org/1999/xlink">
    <!-- Generator: Sketch 51.2 (57519) - http://www.bohemiancoding.com/sketch -->
    <desc>Created with Sketch.</desc>
    <defs></defs>
    <g id="Page-1" stroke="none" stroke-width="1" fill="none" fill-rule="evenodd">
        <g id="BE-EPS-01-0001" transform="translate(-214.000000, -151.000000)" >
            <polyline id="Fill-3" points="355.565254 218.907805 354.322353 216.697505 354.274419 216.048698 354.550404 215.267709 354.550404 215.176198 354.78136 213.884395 354.829294 213.101954 354.829294 212.916027 354.78136 212.824032 354.735846 212.732522 354.690333 212.732522 354.458893 212.687008 354.228906 212.320965 354.137395 212.133586 353.951952 211.536103 353.860926 211.120189 353.860926 211.02432 353.814928 210.796754 353.860926 210.65973 354.274419 210.243332 353.583973 210.197818 352.016185 209.828386 351.462762 209.552885 351.371252 209.462343 351.280225 209.415861 351.186777 209.462343 351.140296 209.507856 350.955822 209.552885 349.896911 209.873899 349.574445 209.873899 349.480513 209.781904 349.297491 209.64488 349.067504 209.184421 348.974056 208.951529 348.882062 208.905531 348.65159 208.722994 348.927575 208.215569 348.512145 208.169571 348.23616 208.032547 348.190647 207.800139 348.467116 207.388583 347.86818 206.603236 348.559595 205.543357 349.021022 205.173441 349.711469 204.575473 350.633355 203.744129 350.633355 203.561108 351.048785 203.054167 351.140296 202.91327 351.325738 202.547226 351.232291 202.223307 348.697587 202.17731 347.960175 201.76188 347.545714 200.885023 348.052654 200.564977 346.207913 197.797381 345.79442 197.202803 345.057008 196.508968 344.45662 196.46297 342.981311 196.875011 342.47437 196.829497 342.428857 196.645992 342.337346 196.325946 342.47437 195.723621 342.47437 195.586597 342.428857 195.174556 342.245351 195.079172 341.829437 194.846764 341.783924 194.80125 341.783924 194.572231 341.829437 194.526718 341.875435 194.481205 341.414007 194.572231 341.138022 194.618229 338.464842 194.526718 338.418361 194.526718 338.142376 194.435207 338.833306 195.312065 338.729691 195.478624 338.050381 194.618229 337.589922 194.481205 334.409801 194.572231 334.039884 194.298183 333.256959 193.55835 333.117998 193.512837 332.887042 193.421326 332.564576 193.649861 332.519062 193.741372 332.301664 194.085626 332.288591 194.065291 332.103148 194.343697 331.873161 194.389694 331.689655 194.435207 331.550694 194.435207 331.274709 194.389694 330.952243 194.206672 330.767769 194.065291 330.628808 194.019777 330.583295 194.019777 330.813282 193.192307 330.952243 192.681493 330.952243 192.452958 330.998725 191.991531 330.490816 191.850633 330.445302 191.850633 329.938362 191.576101 329.799401 191.530587 329.661408 191.48459 329.546173 191.415352 329.613958 191.347566 329.016475 190.932136 328.509535 190.146789 328.416087 190.009765 328.370574 189.594335 328.324092 188.716994 328.831033 188.16454 330.998725 185.766861 331.090235 185.720863 331.411734 185.583839 331.827163 185.446331 332.012122 185.309307 332.473549 184.615471 333.117998 183.235547 333.439496 182.724733 333.532944 182.541711 333.211446 182.313176 332.841529 182.313176 332.012122 182.541711 333.439496 180.238932 334.039884 178.805747 333.532944 178.119658 333.579425 177.654842 333.624455 177.380309 333.670936 177.151774 333.7639 176.777984 334.086366 176.594963 334.501312 176.964879 334.777297 176.594963 334.777297 176.548965 334.962739 176.183406 335.238724 175.39806 335.193695 175.352062 335.099763 175.169525 335.054734 174.98263 335.009221 174.704224 334.962739 174.5672 335.330719 174.612713 335.745665 174.5672 335.976621 174.475689 336.113645 174.429692 336.207092 174.384179 336.436111 174.24667 335.606704 173.369813 335.700636 172.676462 335.929171 172.447442 336.207092 172.17291 336.113645 171.894989 335.792146 171.113031 335.193695 171.113031 334.638336 171.25054 334.086366 171.387564 334.039884 171.34205 333.579425 170.972134 332.796016 169.912739 332.196596 169.542823 332.012122 169.496825 331.735169 169.451312 331.043754 169.588336 330.169317 169.775231 329.568445 169.775231 329.384455 169.634333 329.154468 169.451312 328.785519 169.039755 328.555048 168.85286 328.27761 168.665965 326.204819 168.071387 325.375411 167.377552 325.235482 166.043625 324.960466 164.888361 324.820536 164.70534 324.268082 164.015378 323.806655 163.736972 323.393646 163.504564 322.609268 163.413053 322.055362 163.641588 321.871856 163.736972 320.351034 164.796851 319.56714 165.075257 315.233209 164.888361 313.897829 165.212281 313.851832 165.212281 313.20593 165.075257 313.20593 163.001496 312.560997 162.170152 312.055025 162.079126 311.869582 162.079126 310.439787 162.21615 309.840851 161.892231 309.795822 161.892231 309.750309 161.846233 309.564866 161.522314 309.195918 160.2339 309.012412 159.72696 307.767091 158.343162 307.537588 157.790224 307.62813 157.008751 307.674612 156.497937 308.089558 155.575566 308.228518 154.561685 307.767091 153.688701 307.491106 153.18176 306.429775 152.441927 306.383777 152.396414 306.338264 152.304903 305.78581 152.441927 305.55437 152.76633 305.508857 152.952741 305.418314 153.318784 305.278385 153.642703 305.13894 154.01262 304.817442 154.561685 304.58697 154.934991 304.310501 155.301034 303.71205 156.08638 303.205109 156.639318 302.789195 157.054748 302.006269 157.283283 301.268373 156.91724 300.576474 156.589447 300.208494 156.497937 299.886028 156.406426 297.304358 156.315399 296.520464 155.994869 296.750936 155.301034 297.167334 155.25552 298.779667 155.994869 298.687672 155.575566 298.547743 154.980988 298.457201 154.657069 298.547743 154.058617 298.639738 153.734698 298.779667 153.18176 298.687672 152.304903 298.31824 151.797962 297.856328 151.473559 297.672822 151.382532 297.304358 151.245024 297.027889 151.153997 296.520464 151.108 295.322109 151.706451 292.464455 155.209523 292.096475 155.484055 291.589534 155.67095 290.943633 155.67095 289.838241 155.393029 289.053378 155.530053 288.775941 155.575566 288.545469 155.575566 288.269485 155.530053 287.80951 155.209523 287.580006 155.026501 287.62552 154.748095 287.670549 154.470174 287.993015 153.734698 287.993015 152.76633 287.717031 152.258905 287.255603 152.167395 287.118579 152.167395 286.150211 152.3509 285.457828 152.628822 284.213475 153.090249 282.27916 154.195642 282.737682 154.702582 282.64714 155.118496 282.4157 155.575566 282.4157 156.177891 282.601142 156.543934 282.692653 156.684832 283.521576 157.699197 283.70605 158.16014 283.752048 158.251651 283.615024 159.036998 283.56951 159.265532 282.876643 159.635449 282.601142 159.635449 281.171347 159.540065 280.895362 159.448554 280.479448 159.31153 279.559498 158.804105 279.1431 158.571697 278.083221 158.526183 278.637128 159.220019 278.912628 159.680962 279.052073 160.279898 279.004623 161.522314 279.1431 162.033128 279.420053 162.307661 280.663922 162.814601 280.156981 163.923867 279.880996 164.243913 279.741551 164.28991 279.465566 164.426934 279.789001 163.923867 279.880996 163.504564 279.834515 163.13852 279.696038 162.768604 279.235095 162.21615 278.590646 161.613825 277.989774 160.877865 277.714273 159.818471 277.437804 159.265532 276.747357 158.621568 276.699423 158.621568 276.699423 158.850103 276.423922 160.2339 276.377925 160.370925 276.240417 160.786839 274.811105 162.768604 272.966364 164.198399 268.45038 166.500694 267.021069 167.652084 266.790597 167.838979 266.514128 167.93049 265.96119 168.116901 261.629195 168.162898 261.581261 168.162898 261.167768 167.979876 260.615314 167.332038 260.567864 166.733103 260.615314 166.089138 260.430356 165.303791 259.738457 164.842364 255.267017 163.367539 254.346583 163.230031 253.515239 163.276029 253.423729 163.276029 251.94842 163.596074 251.349969 163.641588 250.843028 163.782969 250.797515 163.782969 250.382085 164.198399 250.336087 164.655469 250.336087 164.888361 250.427598 165.623837 250.382085 165.95163 250.336087 166.180649 250.059618 166.226162 248.584309 166.455181 248.214877 166.409184 247.38547 166.317673 246.878529 166.089138 246.417586 165.902243 246.280078 165.85673 245.40322 164.888361 245.218746 164.380937 244.89628 163.413053 244.89628 162.079126 245.035725 160.645457 244.942277 159.863984 244.711806 158.389159 236.508276 161.06476 229.133669 165.902243 221.526654 170.373682 216.55021 174.15516 215.166412 174.612713 214.429 175.123528 214.889943 176.274433 214.935941 176.411941 215.25986 178.531699 215.305373 178.992642 215.673353 180.147905 216.963703 181.573343 217.564092 182.4502 217.7016 183.60159 217.610089 183.738614 217.470644 183.971506 216.91819 184.477963 216.595724 184.798493 216.365252 185.309307 216.733232 186.597721 217.103148 187.840621 217.057151 188.259924 216.781166 188.903889 216.781166 189.182295 216.826679 189.227808 216.91819 189.365316 217.194659 189.502341 217.33362 189.548338 217.425131 189.639365 217.470644 189.776873 217.655602 190.196176 217.795047 190.516706 217.978069 190.836752 218.025519 190.836752 218.254054 190.932136 218.760994 191.06916 219.085398 191.06916 219.77536 190.978133 220.144792 190.978133 220.652217 191.210058 220.837176 191.530587 220.9742 191.946017 221.204671 192.361447 222.403511 193.512837 222.540535 193.649861 222.771491 194.065291 223.278431 195.220554 223.417876 195.449089 223.508903 195.586597 223.97033 196.002027 224.155289 196.188438 224.522784 196.371943 227.091381 197.516554 227.105422 197.568362 227.151419 197.568362 227.288928 197.61436 227.334441 197.61436 227.427404 197.659873 227.65836 197.70587 227.795384 197.751868 228.302809 197.385825 228.948711 196.280433 229.410138 195.495086 230.054103 194.755253 230.469533 194.526718 230.93096 194.252186 232.497779 193.787369 232.865759 193.695374 232.865759 193.649861 232.959207 193.512837 232.959207 193.55835 233.00472 193.55835 233.096231 193.512837 234.110112 193.192307 235.86189 192.63598 236.046848 192.681493 236.784261 192.914385 237.430646 193.466839 237.9831 194.435207 238.074611 194.572231 237.889653 194.70974 237.9831 194.892761 238.397078 195.63211 238.858021 196.737502 239.13449 197.061906 239.64143 197.107419 240.148371 197.248317 240.194369 197.294314 240.472774 197.797381 240.703246 198.582728 240.886268 199.135666 240.609799 199.596609 240.333329 200.10355 240.609799 201.76188 241.577682 204.98703 241.62368 206.831771 241.808638 207.480093 241.900149 207.57112 242.40709 208.215569 242.91403 208.58597 244.5283 209.415861 245.172749 209.599367 245.725203 209.552885 246.049606 209.507856 246.417586 209.370348 247.661939 208.905531 248.031855 208.631483 248.16888 208.539488 248.399351 208.310469 248.538312 208.169571 248.630307 208.124542 248.952289 207.937163 249.091734 207.937163 249.45923 207.89165 249.829147 208.032547 250.014105 208.078545 250.24264 208.402464 250.196642 208.860018 250.151613 208.905531 249.829147 209.507856 250.29009 209.828386 252.640319 209.828386 253.469726 210.010923 254.300586 210.430711 254.990548 211.2117 255.590936 212.320965 255.912919 214.532234 255.912919 217.204445 256.235385 219.556611 257.525736 220.752546 257.664697 220.386503 257.71021 220.341474 257.756207 220.386503 257.941166 220.246573 257.987163 220.155063 258.032192 220.059678 258.07819 219.967683 258.217635 219.648122 258.863536 218.541762 259.140005 218.218327 259.41599 218.081303 259.646946 217.985434 261.259279 217.84841 262.780585 218.031916 263.517997 218.450735 263.794466 218.633272 264.164383 218.862291 264.670839 219.09131 264.808348 219.141181 265.637271 219.141181 266.422617 218.816778 267.943923 218.171845 268.357417 218.126332 268.68182 218.077429 269.371298 218.405706 269.41778 218.405706 270.616135 219.739149 270.89212 219.92217 271.399061 220.246573 272.136957 220.890538 272.366944 221.401352 273.105325 223.055325 273.335797 223.150709 273.79674 223.333247 273.982182 223.196223 274.073209 223.101807 274.073209 222.365847 274.534636 222.18331 274.856619 222.319849 275.041093 222.415234 275.363559 222.597771 275.824987 222.964783 276.055943 223.379728 276.009945 223.65765 275.962979 223.932182 275.686026 224.302583 275.640513 224.348096 274.765592 225.038543 274.395676 225.594386 274.395676 225.639899 274.21217 226.052424 274.027696 227.111335 273.750742 227.942679 273.289799 229.372474 273.289799 229.558885 273.196352 230.431869 273.520755 230.57325 273.750742 230.664277 274.489123 230.339874 274.856619 230.29436 275.227019 230.48174 275.824987 232.967056 275.916498 233.195591 276.055943 233.522899 276.286414 233.980937 276.286414 234.35037 275.916498 234.537749 275.409073 234.7658 275.179085 234.949306 274.58015 235.364251 274.304649 235.59666 273.888735 235.962703 273.612266 236.287106 273.612266 236.332619 273.473305 236.702536 273.335797 237.346501 273.520755 237.392498 273.612266 237.85441 273.703777 238.269355 273.703777 238.593759 273.750742 239.096826 273.473305 239.096826 275.50252 240.202218 275.594999 240.247731 276.009945 240.388629 277.761723 240.110707 278.821117 239.973683 279.789001 240.247731 284.259472 241.494021 284.628905 241.589405 285.688784 241.403479 289.514806 239.466742 290.804672 238.822778 292.326947 238.593759 292.464455 238.498374 292.741408 238.315837 293.017393 237.762415 293.017393 237.715933 293.293862 236.794047 293.47882 235.59666 293.569847 234.994335 293.569847 234.583262 293.47882 234.396852 293.432823 234.258859 293.432823 234.163959 293.340828 233.935424 293.432823 233.382002 293.663295 232.920574 297.580343 228.95656 298.547743 228.49949 298.547743 228.545003 298.687672 229.325992 299.101165 229.512403 300.254007 229.280963 300.576474 229.742391 300.576474 230.755788 300.392 231.953175 300.345518 232.368605 300.300005 232.920574 299.932025 232.509502 299.701554 232.554531 299.194613 233.614894 299.00917 234.025967 299.00917 234.163959 298.963657 234.537749 299.00917 234.994335 298.963657 235.506117 298.963657 235.59666 298.547743 236.610541 297.53483 239.142339 297.396838 240.065194 297.811299 240.896538 298.547743 241.170586 299.562593 241.589405 300.116499 242.649768 300.162981 243.015811 300.208494 243.339246 300.116499 243.846187 300.02402 244.074722 299.932025 244.307614 299.793064 244.814555 299.748035 244.997092 299.65604 245.226596 299.65604 245.272109 299.331637 245.690928 299.241094 246.05794 299.331637 246.335861 299.701554 246.933828 299.793064 247.254358 299.793064 249.377021 300.115531 249.793419 300.484479 249.838933 301.037901 249.929475 301.268373 249.883962 301.867309 249.793419 302.743682 249.514529 303.481578 249.281637 303.943006 249.236124 304.310501 249.191094 304.356015 249.236124 304.402496 249.281637 304.909437 249.377021 306.247237 250.715306 306.984165 251.126862 307.999015 251.405752 308.275 251.497263 308.736427 251.912693 309.380392 252.881061 310.302279 254.16899 310.670258 254.538907 310.855701 254.680773 311.548084 255.18384 312.376523 255.416248 313.436402 255.137358 314.03679 254.954821 314.8202 254.954821 315.603125 255.739683 316.295024 256.612667 316.52598 257.444011 316.432532 257.581035 316.387019 257.676419 316.156063 257.813443 316.111034 257.813443 316.019039 258.640914 316.064553 258.918836 316.111034 259.193368 316.295024 259.425776 316.89396 259.516803 317.078434 259.47129 317.124431 259.47129 317.308906 259.193368 317.44593 258.873807 317.585859 258.735814 317.815846 258.735814 318.04777 258.873807 318.230308 259.010831 319.337637 259.422387 320.028567 260.024712 321.779377 263.203864 321.918337 263.760676 321.918337 264.309256 321.779377 264.865584 321.732895 265.368651 321.779377 265.464035 321.963367 265.878981 322.747745 266.108 322.977248 265.970976 323.716113 265.555546 324.222569 265.186114 324.683512 264.865584 324.913984 264.774557 325.375411 264.542149 326.526317 265.094119 326.85072 265.186114 327.127189 265.139632 327.355724 265.139632 327.448687 264.957095 327.494685 264.911581 327.58668 264.542149 328.048107 263.942245 328.969994 263.481786 329.799401 263.668197 330.583295 264.03424 331.36622 264.172232 331.41367 264.172232 331.827163 263.988727 332.288591 263.340888 332.703537 263.112353 333.117998 263.158351 333.947889 263.665292 333.994371 263.665292 334.407864 263.760676 335.238724 263.340888 336.068131 262.468389 336.252605 262.05199 336.436111 261.591531 336.207092 261.454507 335.83766 261.221615 336.252605 260.855572 336.52859 260.29876 336.714033 259.75018 336.990502 259.010831 337.267455 258.640914 337.635435 258.316511 337.819425 257.813443 337.728883 257.490009 337.635435 257.074094 337.357998 256.845075 336.620585 256.754533 336.390598 256.567154 336.3446 256.383648 336.252605 256.152208 336.299087 255.923189 336.390598 255.739683 336.390598 255.369767 336.438048 255.045363 336.620585 254.862826 336.714033 254.725802 336.760514 254.634291 336.714033 254.401399 336.714033 254.215472 336.483561 253.894458 336.252605 253.894458 336.207092 253.939971 336.068131 253.986453 335.83766 253.939971 335.745665 253.894458 335.46968 253.571507 334.962739 253.433031 334.777297 253.292133 334.777297 253.155109 334.686754 252.37412 334.638336 252.09523 333.994371 250.807301 333.7639 250.390902 333.718386 250.342 333.48743 250.067467 333.164964 249.883962 333.026003 249.793419 332.658023 249.747906 332.612994 249.747906 332.242109 249.560527 331.874129 248.916562 331.78165 248.592159 331.644626 248.267755 331.599113 247.577793 331.78165 247.025339 332.196596 246.751291 331.874129 246.426888 331.920611 246.239509 332.012122 246.103453 332.012122 246.05794 332.057635 245.96546 332.057635 245.645415 333.026003 245.73741 332.658023 245.226596 332.012122 244.72256 331.874129 244.632018 331.459184 244.399125 331.550694 244.074722 331.599113 243.846187 332.057635 243.06084 332.888979 241.680432 332.98049 241.403479 333.026003 241.311484 333.071516 241.124104 333.119451 241.032594 333.211446 240.850056 333.256959 240.713032 333.302956 240.621037 333.532944 240.343116 333.7639 240.155736 334.315869 240.018712 334.45483 239.881688 334.641241 239.699151 335.054734 238.91332 334.916258 238.639272 334.641241 238.315837 334.686754 237.530006 334.916258 237.251601 335.655122 236.931071 335.883657 236.702536 335.931107 236.657023 335.931107 236.610541 336.023102 236.191722 336.023102 235.455762 335.976621 234.994335 336.113645 234.7658 336.207092 234.628292 336.760514 234.117962 336.89657 233.935424 336.990502 233.7984 337.035531 233.614894 337.082013 233.382002 337.128494 233.012569 337.17546 232.509502 337.312968 232.135712 337.54344 231.906693 337.95887 231.541134 339.341215 230.893296 339.893669 230.339874 340.170623 229.512403 340.170623 229.417987 340.309583 228.774022 340.631082 228.2206 341.000998 228.175087 341.414007 228.126184 341.969366 227.667662 342.015848 227.713659 342.199838 227.942679 342.290864 228.49949 342.522304 228.911047 342.843803 229.048071 342.983248 229.093584 343.397225 229.139097 344.228569 229.002557 344.274082 228.95656 344.550067 228.819052 344.780539 228.545003 345.057008 228.545003 345.518435 228.95656 345.563948 229.002557 345.700972 229.512403 345.700972 230.061952 345.748907 230.339874 345.79442 230.527253 346.301361 230.755788 346.622859 230.386355 346.714854 230.108434 346.762788 230.016439 346.622859 229.650396 346.254879 229.372474 346.346874 229.093584 346.393356 228.819052 346.484866 228.453493 346.484866 228.403138 346.532316 228.357624 346.808301 228.2206 346.854783 228.171698 347.592195 228.126184 347.776669 227.988192 347.86818 227.942679 348.099136 227.390225 348.099136 226.745291 347.960175 226.238351 347.913693 226.097453 347.406753 225.548389 347.776669 225.038543 347.960175 224.90055 348.606077 224.442512 348.697587 224.256586 348.927575 223.841156 349.711469 223.475113 350.264891 223.379728 351.186777 223.150709 351.878192 222.552258 351.693718 222.041444 351.787166 221.493347 352.063151 220.890538 352.200659 220.752546 352.43113 220.478498 352.707599 220.292087 352.892558 220.155063 353.307988 220.200576 353.445012 220.246573 353.720997 220.3376 354.228906 220.432984 355.197274 220.246573 355.381748 220.059678 355.657733 219.739149 355.565254 218.907805"></polyline>
        </g>
    </g>
</svg>