<svg width="120" height="116"><path d="M119 53h-.2l-.2.3-.4-.2-.5-.6-1-.6-.7-1-.5-.5-.2-.3v-.7l-.3-.3h-.2l-.4.3-.2.1-.2-.2-.3-.3-1.3-1-.6-.6-.2-.5V46l-.4-.9-.6-.7-.5-.5h-.3l-1 .2h-.4l-.3-.1-.6-.3-1.3-.3-.6-.3-.5-.7-.7-1.4-.2-.9v-.8l.2-.9.4-.5.3-.7.1-1.1-.4-1.9v-.7l1.1-.3.2-.2.2-.3.2-.4v-1l.1-.2.2-.2.3-.2.2-.2 1.4-2.4.4-1.3.3-.4.3-.3.6-.5.2-.5.2-.7 1-5.2.2-.2h.1l.1-.1v-.5l-.1-.4-.1-.2-.2-.2-.3-.3h-.7l-.6-.6h-.2l-.3.1h-.3l-1.4-.2h-.3l-.5.3h-.3l-.2-.2v-.4l-.3-.2h-.3l-2.8 2-.5.2h-.6l-1 .4h-.2l-3.6.2-1-.4-.4-.2V18l-.3-.3-.3-.2-.6-.6-.5-.5-.3-1.2.1-.1.2-.3.4-.3.2-.2.1-.3V13.8l-.1-.2-.1-.2V13l-.1-.2-.1-.2v-.1h-.2l-.1-.1h-.3l-.6-.1-.3-.2-.1-.1-.3-.3-1.2-2.3-.1-.2H90.7V9.6l-.1.2v.1l-.2.2-.2.2-.3-.2-.2-.2v-.1l-.1-.3-.1-.1-.2-.4-.2-.3-.2-.1h-.2l-.4.2-.3.1h-.4l-.3-.1H87l-.5.2v.4l.1.3v.2l.1.5v.1h-.7l-.8-.3-.3-.2v.4h-.1V10l-.2-.1-.3-.2-.3-.3v-.2l-.6-.7-.3-.3-.2-.1h-.2l-.4-.3-2.2-.2-.5-.2-1-.7-.3-.3-.7-.3-.7.1-.4.5-.1.5V7.8l-.2.4-.3.2-.2.2h-.1l-.6.1h-1.4l-.7-.3L71.7 7l-.3-.3h-.1l-.4-.2h-.5l-.5.2L68.1 9l-.5.5-.3.1-.8.2-.4.1-.6.3h-.2L65 10l-.3-.2-.5-.4-1.8-2.3-.8-.8-.9-.5h-1l-.6.3L58 7.4l-.7.4h-1l-1.5.1-.2.1.1-.3.3-.8-.5.2-.2.1-.4.1-.4-.1V7l.2-.2.1-.2v-.3l-.2-.3-.2-.2-.2.2v.4H53l-1 .3h-.3l-.2.1-.2-.1-.2-.2-.3-.2-1-.7h-.2l-.4-.2-1.2-.7-.5 1.2-.1.2h-.2l-1.3.1-.3.2-1.7-.8-1-.4-1-.7-.3-.3L41 3l-.1.1-.3.2-.3.2-.2.1v-.2l.2-.1v-.6l-.2-.3-.3.5h-.1l-.2-.2-.4-.4-.2-.1h-.3l.1.2.1.3h-.6l-.4-.2v-.8l-.2-.5V.8l-.2-.1h-.1l-.9.6v.2l-.3.4-.3.4-.3.1v.1l-.1.4h-.1l-.2.2H35l-.2.1-.1.1-.3.3v.3l-.1.2v.7L34 5l-.3.1h-.5l-3-.8-3-1h-1.9l-1.3 1-1 2.2-.4.7-.4.2-.8.3-.3.2V8l-.2.1v.3l.1.3v.6l-.2.3-.1.3-.5.8-.2 1v.4l-.1.5-.8.2-1.1-.3-.8-.3-.4-.2-.3-.1-.5-.4-.6-.6-2.2-2.2-.6-.7-.3-1-.3-.7-.1-.2-.4-.6-.4-.3-.6-.1-.3-.2v-.2l.1-.3V4l-.2-.4-.4-.2v.1h-.3l-.7.2-2-.1h-1l-1.2.2H4l-.2.2-.8.7-.4 1V6l.1 2.5v.7l-.5 1-.3.8v1.1l.3 1v.7l-.8 1.3-.3.8.1.7v.4l.5 1 .5.7.2.7-.1.8-.6.3-.6.2-.4.5v.7l.4.8.7 1.2.2.2.1.1.6.5.2.2v.1l.1.1.2.4.2.2h.8l.5-.1.3-.1.2-.3.2-.4.2-.2h.4l.2.2v.4l.2.3v.5l.3.3.3-.1.2-.1h.2l.1.1.2.3.2.8v.3h.1l.4.6h.1l.2.2h.3v.1l.5.1h.3l.4.2.3.4v.3l.1.2v.3l.1.4-.3.1-.1.6-.5.6-.3.7.7.7h.6l.7-.3.4-.1h.7l.3.5.2.8.2.8.7 2.1.2.8v.7l-.2.3-.2.2-.3.2v.3l.1-.1h.4l.6.1v.1l.6.4.3.3.1.3v.8l-.2.4v.2l-.3.4v1.1l.2 1.4.3 1 .3.8.5.7 1.3 1.4.3.5.2.4.7 1.6.3.6.1.2.6.5.1.1.2.2.3.2h1.5l.3.5v.2l.1.2.1.5.2.4.2.1 1.2.4.1.1.4.3.5.6 1.2 1.8.8.8.7.6.6 1 .3.4 1.3 1.2.3.4.1.2v.3l.1.4.1.4.2.5.4.7 2.1 1.7 1.3 1 2.9 3 2 2 .3.4 1.1 1.3 1.7 1.4 1.7 1 3 .5.3.2.6.4.1.2.4 1-.2.8-.4 2.6.5 1.4.2.7 1.2 1.8 1 1 .3.2.6.4.3.2.2.5.1.4.1.4.4.8.2.3.2.3 4.5 2.9 1.1 1.4h.1l.7 1.8.3.5v1.2l-.3.2-.5.4-1.7.3.7.4.5.5-.5-.2-.9-.4H57l3 1.8.3-.6.3-.2.1-.2h.5l.2-.2.7.2 1.3.4h.2l.4.2.3-.2.2-.2h.3v.1l.3.4V103.4l.5.5.5 1 .4.2 1 .3.8.6 1 1.2.3.3.6.5h.1l.3.3 1.3.8 5.4 3.6.2.1.8.5 1.6.6h.8l.3.2.2.1.3.5.2.3.5.3h.8l.2.1.2.1.3.1.3-.3h.7l.3.2h.3l.1-.3v-.4l-.2-.3v-.1l.3-.3.5-.2.7-.7.3-.8v-1.2l-.3-1.2-.5-.7-.6-.6-.3-.5-.7-1.2-.4-.8v-.2l-.1-.3-.2-.7v-.8l.2-.4.4-.3.2-.4-.1-.8-.8-1.5-.2-.7v-.8l.6-1.7.9-.8 1.4-.4h2.1l1.2.1v-.1l-.5-3v-1.1l.3-1.4.5-1 .5-.8.8-1-.2-.1-.6-.3.2-.3.3-.4 3.2-2.3.7-.6h.2l.6-.2-.2-.2-.1-.4-.1-.2.4-.2h.2l.5-.1 1.3-.1h.3l.4.2.8.6.3.3V84.7l.3.5.6.8.1.2h.1l.2-.2.3-.4.2-.4.2-.3.4-.2h.8v-.2l-.3-.7-.5-1.1-.4-1-.6-1.5-.8-1.2-.2-.2-.2-.2-.7.2v-.2l.1-.2V78l-.2-.3-.1-.3h-.1l-.2-.1-.4-.1-.1-.1-.2-.2v-.4l.1-.3h.2l.1-.2h.2l.4-.3.7-.8.5-.3h.7l.2.1.2.2.1.3.2.3.2.2.2.4.5.2h.7l.6-.3.3-.3.5-.7h.8l1.4.2h.7l.4-.7.3-1 .4-.6.4-.2.7.2h.4l.3-.2.7-.6h.4l.5.2.4.7.5.8.2.7.3.4.2-.4.4-1h.4l1.2.5.2-.1v-.4l-.2-.2-.2-.4v-1.2l.2-.5.7-.8v-1.1l-.7-2.3-.7-1.4-3-3.4-1.7-2.6-1-1.3-1-.8-.3-.2.3-.3.1-.3-.1-.6v-.3l.1-.4.3-.2.6-.2h.5l.3.2.8.5.8.7.4.3h.4l.5-.2 1.6-.1 1.8.1h.7l.7-.3 1.3-.9.5-.6.3-.6-.2-.8-.4-.4" fill="none" fill-rule="evenodd"/></svg>