<svg width="93" height="115"><path d="M18.6 1.4L20.2 3h1l.7 1 1 .4.3 1.3 1 .6 2.5 2.6 1.8.4 1.9 1.5v.7l-.4.5 1 .7.5 1v.7l-.5.5h-.5v.5l.7.2 2.2 3.8v.8l.3.4v2.2l.7 1.9 1.2 2.3.5.1.6.6.3 1.3.6.6 1.4 2.7v1l.5.1.2.6 1.3 1.2 2.9 4v1l2.5 2.9.9.4.6 1.1.9 1.2.6.3.4.7 1.7 1 1.7.3 2.4 1h.8l1.6 1.2 1.8 2.2L62 54h2.5l.8.5.6.6v1.3l.4.3h1.1l1.2.3 1 1.2 1 .2 2.1 2.5h1.8l1-1 1.3-.2 2.7 3.2 1.1.2.1.5-.2.3.2.9.5 1 .6-.2.6.3.6 1.3 2 .3.4-.3 2-.3.4.8.9.2 1 1v1.4l.6.5 1.3.3-.4 1.5.7.5v1l-.3.7v1.3l-1.4 3-.6.3-.4 1.7-1 1-.6 2.3-1.7 2-2 2-1.2 2.9-1.2 1.1-.6.2-1 .7-.5.6-.7 2.3-1.9 2-1 .5-.5 1-.9.4h-.9l-.8.4-2.1 2.2-2.1 1.2-2.5 2.3-1.8-.1-.4.3-1.8.3-2.3 3.3-.3 1.7-.3.6h-1.6l-.7.6h-1l-1.7 1.4-1.7.3-.8-.3-1.4.6-1.2.1-1.5-.5-1.1-1.2-.6-1.8-.9-1.4-1-1.6-2.7-1h-.8l-.5-.4-4.2.3h-2l-1.1-1h-1.8l-5-2-1.7-.7-2.8.1-.5-.4-5.1-1.7-.2-.6 1-.9V98l.2-.5-.2-.7-1.3-1h-1.5l-1.4-.9-.9-.1-.5-.5-1.4-.5-.6-.5v-1.6l.7-.8v-.5l.6-.6-.6-1.5-.4-2.6-.8-1L7 83l-.4-1.5-.6-.9v-1l.2-.4-.6-.7V77l-.6-.8v-3.6l.3-.4.2-1.6v-2l-.2-.9.3-.5-.3-.8v-2l.2-.4-.8-2.8.2-3.4-.9-1.8-.4-.7v-1.4l.6-1.8.1-1.3.3-.5-.6-1.9v-1.2l-.5-.7.5-.7V45l-.4-.5v-2.8l-.2-.4.2-.3v-.6L3 39.2 2.8 36l.3-2.6-.4-1.2.4-1.5-.1-1 .3-.8-.9-2v-1.2l-.6-1.4-.2-1.4-.8-1.5v-7.8l-.4-.5v-1.8l2-2.7.7-1.1 1.6-1.7L6 3.4l1.5-.7h.8L9.3 2h.9l.7-.6h.5l1.3-.7 2.2-.3.3-.4.9.2.4.4 1.2.1.9.7" fill="none" fill-rule="evenodd"/></svg>