<svg width="33" height="114"><path d="M12.7 85.6v.7h.1v.2h.1l.1-.1.1-.1v-.1h.1V85.8l-.2-.1h.1v-.2h-.2v-.2h.1v-.1h-.1V85h-.1V84.6l-.1-.2v-.1h-.1v-.2h-.1l-.1.1h-.2l-.2.1V84.8h.1v.2h.2v-.1.2h-.1v.2h.1l.1-.1h.1v.1l-.1.1h-.2v.2H12.6v-.1l.1-.1v.2h.2v.1zM23.6 104h-.2v.3h-.1l-.2.2v.4h.1v.2h-.5v.8h.1v.2l.3.3h.2l.2.1V106.1l-.1-.1V105.7l-.2-.1V105.4h.1l.2.3.2.1h.1v-.4h-.1v-.2l-.1-.6v-.5zm-6.4-31H17l-.2.2v.2h.1v.1l.1.1h.4v.1H17v.2l.2.1v.1H17.6l.3-.3v-.1h.2l.2-.2v-.2l-.1-.1H18V73H18.3l.2-.2V72.6H18.1l-.2.2v-.4l-.1-.1h-.2v.2l.1.2v-.2h-.4l-.1.1v.1l.2.1v.1h-.2v.2h-.1zm-2.5.1v.2h.2l-.1.1v.1l.1.1h.5l.2-.2H15.9v-.1l-.1-.2h-1zm.5 1.7H15.6v.1l.1.1h.4v.1h.1v.1h.1V74.9h.1v-.2l-.1-.1v-.1l-.2-.2h-.4l-.1.1H15.2l-.1.1V74.8h.1zm-3.4 11.3l.1.1h.4-.1.1v.1H12v.2h.2l.4-.3v-.6H12.2l-.1.1H11.8v.4zm2-1.2v.4l.1.3h.1v.1h-.2v-.2H13.4l-.1.2-.1.1V86.1l.1.1h.5l.1.1h.1v.1H14.4l.1-.1V86v.1h-.1l-.1-.1v-.4l-.1-.1v-.1h.1v-.2l-.1-.1H14V84.8H14V84.5h-.1V85zm2 17.2h.1l.1.2h.1v.1l.1.1v-.1h.1v.2h.2v.2l.1.1h.1v.1h-.1l.2.1.1-.1.1.1h.1v.1h.5l-.1-.1-.2-.2H17v-.2l-.1-.1v-.2h-.2v.4h-.1v-.1l-.1-.1v-.4l-.1-.1h-.1v.2h.1v.1h-.1v-.1l-.2-.2H16v-.2h-.1v.1h-.2v-.2h-.1l-.1-.1h-.2.1v.1h-.1v-.1H15l-.2-.1h-.2v-.2l-.2-.1v-.1l-.2-.1-.1-.2H14v.1l.3.2v.4h.1v.1H14.8V102h.2v.2h.2v-.1l.1.1H15.5v-.1h.3zm13.4 9.8H29v-.2H29V111.3h-.2v-.2h-.1v-.1h-.2v-.1h-.1l-.1-.1h-.5v-.1h-.1v-.2h-.2.2v.1h1v-.1l-.2-.1-.1-.1v-.1H27.4l-.4-.3-.1-.1v-.1h-.2v-.2l.1.1h.1l.2.2.1.1h.2l.1.1H28v-.1l-.1-.1h.2v.1h.1l.1-.1v-.1h.2V109.4l-.1-.1h-.1l-.2-.1h-.5l-.2.2h-.8v.1h-.1l-.1-.1-.2.1v.1h-.4v.4V109.8h-.8l-.1.1v.1l-.2.1v.1h.4-.1v.1h.2v.1H24.7h.2v.2h.3v-.1h.1v-.1h.1l.2-.1h.1-.1l-.2.2v.1h.1-.1l-.2.1h-.1.1v.1h.2v.2h.2l.1-.1h.2l-.2.2h.1v.4h.1v-.4h.1V111.5h.1v.1h.4v-.2H26.3v-.5H26v-.1h-.2v-.2h.4V110.2H26 26.3v-.1h.1V110.5h.1v.1h.1v-.4.2l.1.1.1.2h.2v-.1h.2l.1-.2v.2l-.1.2v.1l-.1.1v.1H27l.4-.1v.1h.1H27.2l-.2.1v.2h.1v.1l.1.1h.2V111.2l.1.2H27.9v-.2h.1v.2l.2.1H28.5l.2.1v.4h.2v.2l.1.1h.1v.1h.1l.1-.2V111.8zM13.6 98.3V98h.1v-.2l.1-.2v-.2h.1v-.5h-.2v-.1h-.1v.2l.1.1v.6h-.1v-.1l-.1-.1-.1.3h-.1v.1h.1v.1h-.2v.2h.1v.1h.1V98.7v-.2.2l.2-.3zm6.3 8l.2.1h.2v.4h-.1v.1H20.6v-.2h.2v-.2h-.1v-.2l-.2-.1V105.8h-.1v-.2.1l.1.2.2.2v.1h.2l.1-.2v-.2l-.1.1v-.1h-.1l.1-.1v-.1h-.1v-.1h.1l.1-.2-.1-.1h-.1l-.1.1v.1h-.1V105.1H20.2v.1H20v.2H20v.1l-.1-.1-.3-.1v.2h.1v.4h.1v-.1h.1v.1h.1v.1h-.1.1v.1zm-1-.5v-.2h.2v.2H19.5v-.1l-.1-.1h-.1.1v-.2l-.1-.1h.2v-.1l-.1-.1h.2v.1h.1v-.2h.2v-.1l-.2-.1v-.2h-.2v-.1h-.1v.1h-.1v.1-.1H19v-.2h.1V104H18.8l-.2-.2v.5h-.1V104l-.1-.1v-.2h-.1v-.1h-.1v-.1h-.1v.2l.1.1V104.2h-.1v.2-.1H18V103.4h-.2v.2-.1h-.1V103.2h-.1v.1h-.2V103.8h.1v.1h.1-.4v-.1H17l.1.2h.2V104.3l.1.1h.2v-.1h.2v-.1.2h.2v.1h-.7v-.1h-.1v-.2H16.8v-.1l-.1.1H16.5v.2l.1.1h.1l.1.1v.1h-.2v.1l.5-.1h.2-.1v.1l.1.1v.1l-.1.1v.2h.1v.2h-.1v.2h.2l.2.1v.1h.1v-.1h.1v-.1l-.1-.1v-.5h.1v.1h.4l.1-.1v.1h.4v.1h-.2v.1h-.1l-.1.2h.1v.1h-.1l.1.1h-.2v.1h.2l-.1.1h-.4v.1h.2v.1h.4v-.1h.1v-.2h.1v.2h.2v-.2zm-5.6-20.2l.2-.1v-.1h.2V85h.1v-.2h-.1l-.1.1v-.2l-.3-.2H13v-.1H12.7v.2l.1.1v.2l.1.1h.1v.4h.1v.1l.1.1zm-.4 4.6v.1l.1.2h.1l.1.1h.1v-.2l.2-.2V90h-.1v-.4.1-.1l-.1-.1V89.2h.1v-.1.2h.1v-.1l.1-.1h.1l.1-.1h.1v-.2h-.1.1l.2-.1v.1l-.1.1h.1-.1V89.4l-.1-.1h-.1l-.1.1V89.7H14v.1h-.4v.1l.1.1h-.1v.4h.1v-.1h.1v.2h.2l-.1.1H13.5V90.9h.1l.2-.1h.1l.1.1H13.7l-.1.2v.1-.1h.1v.1h.1l.2-.1v.1H14.5V91l-.2-.3.2.1h.1V90.4l.1.1v-.4h-.1V90h.1v-.4h-.1v.1l-.1.1v.1h-.1V89.6h.1v-.5h.1v-.4l.1-.2v-.8l-.1-.1v-.5h-.1v-.6h-.1v.4h-.1v-.4H14v-.1h-.2v.1h-.1v-.1h-.1l-.3.2v.2h.1-.2v.1H13.6h-.1v.1h-.1V87.5H13.7v.2-.1h-.2l.3.4h-.1V88.9h-.1v-.1l-.1-.1-.1-.1-.2-.2V88.7H13v.1h.1v.1H13l-.2-.4h-.1v.5l.2.1v.2l-.2-.2v-.3h-.1v-.2h-.2v.6h.2v.1h.2l-.1.2h.1v.2h-.1v.1h.1v.2h.1v.2zm9.4 16.6h.1v-.4h-.1v-.4H22v.2-.2H22V106.3h-.1v-.2h-.1v-.5h-.2V106h-.1v-.2h-.1v-.2h-.1v.1h-.1v-.2H21l-.1.1v.6h-.1v.4h.1l.2-.1H21V106.8v-.1h.1v-.2h.1v-.2h.1v-.1h.1v.5h.1v-.1.1h.2v-.1h.1v.2h-.2v.1l.2.2h.1v.1h.2v-.1l-.1-.1h.2v-.1zm-7-7.3v.1h.2v-.1h.2V99.1l-.1-.1-.2-.2-.3-.3-.1-.1h-.1l-.2.1v.1h.4l.2.2h-.1l.1.1H15V99.4h.1v.2zm-.5-5v-.1h-.1V94h-.1v-.2l-.2-.1-.3-.1.1.1v.1l.1.1-.1.1v.1h.1v.2H14l-.5-.2v.2h-.1v.1h.2v.4h.1v-.2H14.2 14V95h.2v-.2h.2l.1-.2.1.1v.2h.1v-.2zm9.6 14.2v.2H24.8v-.6.5h.4v-.3h.1v.2h.1v-.3.2h.1v-.2h.1v.2l-.1.1v.1h.2v.1l.2.1.5.2.3.1h.8l.1-.2h-.1l-.1-.1v-.1l-.1-.1H27l.1-.1.4.3h.1v.1l.1-.1v-5.8.4-3.1l-.2-.3h-.1v.1h-.1l-.1.1-.1.1h-.2l-.2.2h-.2v-.2l-.2-.2h-.1v-.2l-.2-.2h-.2l-.2.1v.5l-.1.1-.1.2v.1h-.1v.1H25l-.1.2h-.2l-.2-.1v-.2h-.7v.1h.2v.4h.4v.4l-.1.1-.4.1V101.7h-.1v.1h-.1v.7h-.1v.7h.1v.1h.2v.2h.1l.1.1H24.5l.1-.1.1-.1.2-.2h1.3v.5l-1 .6H25l-.1.1-.2.2h-.2l-.1.2V105.4h.1V105.8l.1.2v.1l.1.1h.1l.1.1h.1l.6.3h.1l.1.1.6.3.1.1.1.1h.2l.1.1.2.1v.1h-.4v.5l-.1-.1-.1-.1h-.1v.2h-.1v.1H26V108.4v-.1l-.1-.1v-.2h.1v-.1h.1v-.1h.1v-.1h.1v-.2h-.1l-.5-.4h-.1V107.3l-.1-.1h-.1v-.2l-.1-.1h-.2v-.1H25v.2l.1.1v.2l.1.1v.4V107.4H25v.1V107.3h-.1v-.1h-.1v-.4h-.1l-.1-.1h-.2v.1h-.2v.1l.1.1h.2v.1h-.1v.2h-.2v-.2H24v-.1l-.3-.2-.2-.1-1-.6.1.1.1.1.1.1h-.1v.2l.2.1h.5l.1.2v.2h.1v.2h.1l.4.2.1.1.1.1H24l-.1-.1v.1h.1v.1l-.2-.1-.1-.2h-.1l-.1-.1h-.1v-.1h-.1v-.1h-.1l-.1.1v.1l-.1.2V107.9h.1v.1H23l-.1-.2v.2-.7l.3-.3H23v-.1H22.6l-.1.1V107.3h-.1v.2l-.1-.1H22l.1.2H22v-.2H22l-.3-.2h-.2.1v.2H21.2v-.2h-.1v.2l-.1-.2v.2h.1l.1.1H21v.1l-.2-.2h-.1v-.2H20.4v.2l.1.1h.2l.1.2h.2H20.8v.1h.1-.4V107.4h-.2v-.1H20v.1l.2.1h-.1v.2h.2v.2h-.2v.2h.4v-.1h.1v-.1h.2v.2l.1-.1v-.1h.1v.2l.1-.2h.1V108.4v-.1h.2v-.2h.1-.1v-.2h.1v-.1l.1.1h.1v.2h.1v.1h-.1v.2h.2l.2-.2v.1h.1v-.2h.2v.4h-.1v.2l.1-.1v-.2h.4-.2l-.1.1v.1h.6l.1-.1v-.1l.1-.2h.2l-.2.3-.1.1H23l-.2.1-.1.1v.2H23.2l.1-.1h.1v-.1h.2l.1.1h.2v.1-.2h.1v-.1l.1-.1.1-.1v.2H24V109l.1.1h.2v-.2h.1zm3.4-2v-.4.4zm0-3zM14.8 69h.1l.3.1.1.1h.4l.2.1h.1V69h.2V69h.1v-.2l-.1-.1v-.3h.5v-.1l-.2-.2h.2l-.1-.1h-.1v-.2l-.2-.2h.4v-.2l-.1-.1h-.1l-.1-.2V67h-.2v-.1H16v-.5.2h.4v-.1h-.1V66l.2-.1h.1l.2-.1h.1V65.5l-.1-.1h-.1V65l-.1-.2h-.1V64.5h.2v-.1h-.1v-.1h-.4l-.2.1v.1h-.4v-.1h.1v-.1h-.1l-.1-.1h-.1v.2l.1.1v.2h-.1v.6l-.2.2v.5l-.1.2v.5l.1.1v.4h-.1v.4l-.1.1v.2l-.1.2-.1.1v.2l-.1.2v.1zm14.7 41.6h.1v.1h.4V110.2h.5v.4h.5l.3-.4v-.5l-.1-.1v-.2H31v-.1l-.2-.1h-1.2l-.3-.1H28.4V109.6h.4V110.1l.1.1v.2h.4v-.1h.2l.2.1h-.2v.1zM11.9 80.2v.2h.1v.2h.4l.2-.1v-.2h-.2l.1-.2h-.2v-.2h.1v-.1H12v.2h-.2l.1-.1v-.1h.1l.3-.2h.4l.1-.1h.2l.1-.2v-.1h.2V79h.1v.2h-.1v.2h-.2v.2l.1.3h.2v.1h.1v.1H14l.1.2v.1h.6-.1v-.1H14V80h.4l-.2-.2h.2l.1.1h.4V80.4H15.4l-.1.1v.3H15.6l.2.1v.1l-.2.4h.1v.1l.1.1v.1-.2H15.3v.5l-.1-.1v-.3H15v.1h-.1l-.1.2h-.1v.1h-.1v.2h-.1v.2-.1h.2V82.6h.1v.2h.1v.1H15.3v-.1h.1l.2-.1-.1.1v.1h.1-.4v.1h.2v.1H15v.2h.3l-.1.1H15l-.1-.1h-.1V83h-.4.1l.2-.1v-.2h-.1v-.1h-.5v.2h.1v.1H14l-.1.1v.1l.1.1H14.4v.1h.2l.2-.1v.1H15.5v.1H16.2V83l.1-.1v-.4h.1V83.5h.3v.2h-.1v.1h.2v.2l.1.1h.5v.1h-.6v-.2h-.1l-.2-.1V84.1h.2V84.5h.1l.1.1.1.1H17.3v-.2V84.8H17v.1h-.2v-.1h-.1l-.1.1v.1h-.1V84.5h-.1v-.1H16.1v-.1.1H16v-.2l-.2.1v-.2h-.4l-.3-.1H14.8v.2l.1.1v.1h.1V84.9h.1v.1H15v-.1l-.1-.1V84.4l-.1-.2h-.1l-.1-.1h-.1l-.1-.1h-.2v.1h-.1V84.5h.2l.1-.2v.4l.1.1.1.1h.2v.1l.1.1v.2h.4H15.1v.1h.2v.1h.2v.1H15.9l-.2.1v.5-.1h-.2v-.2H15v.1h-.1l-.2.3v.2h.2v.1h.5l.1.1H14.7v.1l-.2.1v.4h.2l-.1.1v.2l-.1.1v.2h.1V89l.1.1.1.1.1.2h.2v-.6l.1-.1V88.2h-.1H15.6v-.7h.5v.1H15.6l-.2.1.1.1V88.6h.1l.1.1.2.1H15.7v-.2h-.2v.1l-.1.3V89.3h.4l.1.2v.4h.2l.1.1v.1h.1v.2-.1h-.1L16 90l-.2-.2v-.2h-.1v-.1h-.1l-.1.2V89.3H15v.1l-.2.1v.5H15.3l.2-.1v.1H15.1v.1h-.2v.4h.4v.2H15.7v-.1h.1l.1-.2v.2h.1-.2V91h.1v.2-.1h-.4V91h-.1l-.1-.1v-.1H14.8v.4h.2v.4l.1.1h.4v.2h.3v.1h-.2l-.3-.2h-.1l-.1.1v-.2H15v-.1h-.2V91.3h-.4v.1H14.1v.1H14v.2h.1v.1h.2v.1h.1v.2h.1v.1h.2V92l.1-.1h.1V92.4h-.1v.2H15.3l.2-.1v-.1h.2-.1v.1h-.1v.2h.2v.2h.2l.1.1h-.4l-.1-.2h-.1V93v-.1l-.1-.2H15v.2h.1V93.3l.1.2.1.2v-.1h.2v.1l-.2.1.2.2H15.8v-.1h.1l.1-.1v-.5l.1-.1v-.2l.1-.1h.1l.1-.1.1-.2h.1v.2h-.1v.1h-.2V93.2h.2v.1h.1v.1h.2l-.1.1v.1l-.1-.2h-.4v.6H15.8l.1.2.1.2v.1H16v-.2l-.1-.1h-.7l-.1.1v.4h.1l.2-.2v.1l-.1.2v.5h.2v.1-.4h.1V95.3h.1v.1h.1v.1h.1l.2-.2V95h.2v.5-.2h-.1v.5l.1.2v.1h.2v.1l-.1.1h.1v.5-.2l-.1-.1v-.2h-.1l-.1-.1-.1-.1V96h-.2v-.1h-.1v.5h.2v.2h-.1v.2H16.3v.1H16V97.3l.2.1v-.1l.1-.1h.2V97v.2l.1-.1h.2-.1l-.1.1h-.1v.2h.1V97.8h.1v.1l.2.3v.1h-.1V98l-.1-.1v-.1l-.1-.1v-.1l-.2-.2v.5l.1.1v.2l.3.2v.1h.1v.1h.2V97.3l-.1-.1V96.9v.2l.1.5v.7l.1.2h.2V98h.1v-.1h.1l.2-.1.1-.1v-.2h-.1l-.1.1v.1H17.4h.2v-.4h-.1.2l.1.1v-.2h-.5V96.8l-.2-.1H17.6V97.1h.4v.2h.4v.1l.2.1H18.9v-.1l.1-.1v-.1h-.1V97h-.2l-.2-.3v-.1h-.1l-.2-.1-.2-.1-.2.2v-.1l.1-.1v-.1h-.1l-.1-.1H17.2l.3-.1V96h.1v.2H18v.2h.2v.1h.4v.1l.1.2v.1h.2v.1h.1v.2l.1.1v.1H19v.2h.1v.2l-.1.1H18.6v.5h.1l.3.4v.4H19v.1l-.2.1v.2h.2v.1h-.2l-.2-.1H18.2l-.2.1h.1v-.1h.1v-.1h.2v-.1l.1-.1h.2V99h.1v-.4l-.1-.1h-.1v-.1h-.1V98h-.1l-.2-.2-.1.1v.4H18v.5h.1v-.4l.2-.1v.4l-.1.1v.2H18V99l-.2-.1-.2.1v-.2h.2v-.4h-.2v.1l-.1.1h-.2V99H17l-.2-.2h-.1v.1h-.1l-.1-.1h-.1v-.2l-.1-.1v-.1h-.1v.4h.1v.1l.1.1v.4h.1v.2h-.2v.2l.2.1v-.1h.1v.2l-.1.1h-.1v.1h.1v.1h-.1v.1h-.2v.2H16.7v.1h-.2V101h.1l.1-.2h.1v-.1h.1l.1-.1h.1V100.2v.1h.2V100.7h.1v-.1l.1-.1.1-.2v-.1l-.1-.1v-.2l.1.1h.5l.1.1v.1l-.2-.1h-.2v.2h.2H17.5V100.5h-.2v.2l-.1.1h-.1v.1h.1v.1h-.1v.1h-.5v.1h.3v.2h.2v.1h.2v.1h-.1v.1H17v.1h-.2v.1h.1v.2H17.4v.1h.1v-.2h.1v.2h.1l.3-.1.1-.1v-.5l-.1-.2.1-.2h.2v-.1h.1l.1-.1.1-.2h.1v-.2h-.2l-.1-.2-.1.1-.2.3v.1-.2l.1-.1V100.1h.1v-.2h.1v.1h.4l.1.1h.1l.1-.1h.2-.1v.1l-.2.1.1.1.1.1h.1l.1-.2v-.1h.1v-.1h1l.8.1.1.2v.1h-.1l-.2.2h-.6l-.1-.2h-.1v.1h-.4l-.1.1h-.1v.1l-.1.1-.2.1v.1h-.1v.2H19v-.1h-.5v.2-.2l.2-.2v-.1h-.1v-.1h-.1l-.1.2h-.2l-.1.2H18v.8h.1V102.4l.1.1H18.6v-.1h.1v.1h-.1v.1h-.1v.1l.1.1h.1v.2h-.2v-.1l-.2-.2H18v-.1H17.1h.1v.2h.1l.1.1.2.2.3.2h.1v.1h.2v.2h.1v-.1h.1v.2h.1v.1h.1l.2.1v.1h.4l-.2-.5h-.2l-.2-.2v-.1l.1.1h.2V102.9h.2v-.1H19v-.1h.1v-.1l.2.1h.1v-.1H19.8v-.1l-.3-.1v-.3h-.1v.1h-.4l.1-.1h.5v-.1h.1l.1.1v.1h.1v.1H20.2l.2-.3v-.1h.1l.1-.1v-.1h.2l.1-.1.4-.3h.1l.1-.1.1-.1v-.2.1h.1l.4.1v.1h.1v.2l-.1.3h-.1v.2l-.1.1v.2h-.1l-.1.1h-.2l-.2.2H21v.1H20.7v.1l-.1.4v.7H20.3v.1h-.2v.1-.1l.2-.2h.1l.1-.1v-.8h-.4V103.4H20l-.2.1h-.1l.1-.1v-.1h.1v-.4h-.1l-.3-.1-.2.2-.1.1v.6l.2.2h.1v.2h.1l.1.1.2.3H20.3v.1h.1l.1-.1v.1h.1v.1l.2.1v.1h.3l.3.1h.1l.3.2h.2l.4-.3h.1v-.5h.1V102.5l.2-.2v-.2l.1-.3V101.4h-.1v-.1h.1v-.2h.2v-.1h-.1v-.1l-.1-.1h.1v-.1h.5v-.2h.1v.1h.3v-.1h.1v-.1H24.3v-.1l.6-.3.2-.2.1.1.3.1h.1v-.1l.1-.1v-.2h.1l.1-.1v-.4h.1V99l.5-.2h.2l.1.1.2.2H27.5l.6.2v.1-.2H28v-.1h-.1l-.5-.1-.4-.3-.4-.1h-.7l-.4-.2-.3-.2-.3-.1H20.3v-.5l-.1-.1-.2-.2-.2-.2-.3-.1V96.7h-.1v-.1h-.2v-.2l.2-.2V95.6l.1-.2v-.1l-.1-.2h-.1v-.5h.1l.1-.1V93.8l-.1-.1v-.4l-.1-.1H19l-.2.2h-.1l-.2-.2h-.1l-.3.2-.2.2h-.1l-.1.1h-.2v-.4l-.2-.2V92l-.1-.2H17l-.1-.1-.3-.3v-.2l.1-.2V91l-.2-.2V90.4l.2-.2V90h-.1v-.5h-.1V89h.2v-.4h.8v-.1l-.1-.1v-.2l.1-.2v-.1l.1-.2.2-.2.2-.1h.2v-.1h.2l.1-.2.2-.2V85.6l.1-.1h.1l.2-.1v-.1h.1v-.1h.1v-.9h-.1v-.1l-.1-.1-.1-.1H19v-.7l.1-.1.2-.4v-.2l.1-.2V82.1H19.7l.1-.1.2-.3V81.4h.4V81.1l-.2-.1V81l.1-.2v-.6h.2V80l.1-.1.2-.2v-1l-.1-.1v-.5h-.2l-.1-.2h.2v-.1h.1v-.2l.3-.3V77.1H20.6v-.4h-.1v-.4h.1V76l.1-.1h.4l.1-.1V75.5h.2v-.1l.1-.1.1-.1V75h-.1v-.1l-.2-.1v-.1h-.1v-.2l-.1-.2h-.4v-.1l-.1-.1h-.5V74H20v-.4H21l.3-.1h.2l.2.1h.2V73h.1V73h.2v-.4H22v-.1h-.2l-.4-.1h-.9v-.2h.1V71.5l-.1-.1h.1v-.2l.3-.3v-.1l-.1-.2h-.1v-.2h-.1v-.2h.1v-.1h.1v-.3l-.1-.1h-.2V69.4h-.2V69h.4v-.4l-.2-.2H20l-.2-.1V66.6l.2-.1v-.1l-.1-.1V66l-.1-.2v-.2l.1-.1v-.1l.1-.1h.1l.1.1h.1v-.1h.2l.1-.1v-.7l-.1-.1-.1-.2V64l-.2-.2v-.1h.1V61.4l-.1-.4.1-.2.1-.2v-.1l.1-.3h.1l.2-.3v-.1h-.1l-.1-.1h-.1v-.5h.2l.1-.1V59l.1-.2v-.1l-.1-.1V58.2l-.1-.1v-.4h.4V57.4h.1V57.1h.1V57l.1-.3V55.8l.3-.2h.1l.2-.1.1-.1H22.5l.1-.1v-.1h.1v-.5l-.1-.1-.1-.2-.1-.4v-.7l-.1-.1V53h-.1v-.3l-.2-.3V52h.1v-.6l-.1-.2v-.5h.1v-.1h.1v-.1H22v-.2H22v-.1h.1V50H22v-.5h.2V49l.1-.2h.2l.1-.2h.5v-.4l.2-.2V48H23.7l.1-.1v-.1h.1v-1.6h-.1v-.4l-.1-.1h-.1l-.1-.2v-.1l.4-.1V44.7l.2-.5V44l.1-.1V43.7h.1l.1-.2v-.2h.1l.1-.1V42.8l.2-.1h.4v-.1l-.1-.2V42h-.1V40.8h.1V40.5l.1-.1V40h-.5V40h-.1v-.6h.1V39l-.1-.1-.1-.2-.1-.3V38l-.1-.1V37.6l-.1-.1H24v-.2l-.1-.1V36.8h-.1v-.1h.2v-.1h.1v-.2l-.1-.1h-.2l-.2-.1V36l-.1-.1-.1-.3v-1l.2-.3v.1h.2v-.1l.1-.1h.1v-1l.1-.1V32.8h.1v-.1h.1V32.3h.5v-.1h.1V32h.1v-.2l-.1-.1h-.1v-1.3l-.1-.3v-.2h-.1V29.5h.1v-.2h.1v-.1h.1l.1-.1h.1v-.6h.1V28l.1-.1v-.1h.1v-.5h.2V27l.2-.1v-.2h.2l.1-.2v-.2h.1v-.1h.2l.1-.1.2-.6v-.2l.1-.1V25h.1v-.2h.1v-.1l.2-.3v-.2l.1-.2h.6V24H28.3l.1-.1h.1v-.1l.1-.2v-.2l-.5-.6v-.2h-.1v-.7l.3-.2v-.2l-.1-.7v-.2l-.1-.1V20.1l-.2-.2v-.2l.2-.6H28.4V18.8h-.1V18.5l-.1-.1H28l-.1-.2v-.1l.1-.2v-.2h.2l.1-.3h.1l.2-.1v-.1h.1l.1-.1h.1l.2-.1.4-.2.2-.1.3-.2h.3v-.1h.2l.1-.1v-.1l.1-.2.2-.5.2-.5.1-.5.2-.6v-.2l-.4-.4-.7.2H29.6l-.1-.2h-.1v-.9l-.2-.2v-.7h-.1l-.1-.2H29v-.7l-.2-.3v-.7l-.5-.8H28l-.2-.1v-.5l.2-.2L28 8h-.1l-.3-.2-.1-.1v-.2l.2-.1-.1-.2V7h-.1v-.2H27.7v-.1h.1v-.5h-.1V6l-.2-.1v-.1l.1-.1.3-.4v-.1h.2v-.1L28 5l-.3-.2h-.1v-.2h-.1l-.2-.2h-.1l-.1-.1-.1-.2L27 4v-.6l-.1-.1V3l-.1-.2v-.4h-.1v-.1l-.1-.1V2h.1v-.2h-.2l-.1-.1h-.1l-.1-.2V1.3l-.2-.1L26 1l-.1-.1V.7l-.3.2-.1.1H25v.1l-.1.1V1.6h.1V2.2H25v.1h-.2v.2h-.2l-.2.2H23.7v.1l.1.1v1.4l.2.3v.7h.1v.5l.1.2V6.6h.1V7h-.1V8.6h-.1l.1.1V9.3h.1V9.6l.1.1V10.5h-.1v.7h-.2V12.4l-.1.2v.7H24v.6l-.1.1h-.1l-.1.1h-.1v-.1h-.2V15h-.1v.2h.1l.1-.1h.2v.6h-.1v.4l-.1.2V17.6h-.1v1h.1l.1.2V19.8h-.1v.2h-.1v.1h-.1l-.1.1v.4H23V21.2h.1V22.3H23V23H23V23.3h-.1v.6l-.1.1v.1h-.1v.1h-.2v.6l.1.1v.6h-.2v.2h-.1v.2h-.1V26.2H22V27l-.1.1v.4l-.1.1v.1h-.1v.1h-.1v.5h-.1v.1l-.2.1-.1.2v.8l.3.2v.2l.1.1V31.4h-.1v.1h-.1v.5l-.2.1v.1H21l-.1.2v.7h-.1V33.9h.1v.7l.1.7.1.2v.2l.2.5-.1.1V37.4l.1.1v.1l.1.1v.9h-.1v.2h-.1v.6l-.1.1H21l-.1.1v.1h-.2v.2l.1.2v.1l.1.1v.5l.1.1V41.2l-.1.1v.1h-.1v.1h-.2v.2l-.1.2v.1h-.1v.2h-.1v.2l-.2.1V44l-.2.2v.2h-.1v.2l-.1.4v.2l-.1.1h-.1l-.2.2-.1.1v.2H19V46l-.1.2-.3.1v.1l.1.3V47l-.2.1v.1l-.2.2V47.8h-.1v.8h-.1V48.9l-.1.2H18v.5H17.6v-.2h-.1V49.7h-.1v1.2l-.1.1h-.1l-.1.1h-.4l-.1-.1h-.1v-.1h-.1V51.2l-.1.2.1.2v.4h-.1v.6l.2.3.2.2v1.1h-.1v.7l.1.2V55.3l.1.1v-.2l.2.6.2.5v.4h.1V57.5h-.1v.2l-.1.1-.1.2H17v.7-.1h-.2l-.1.1h-.1l-.1.1h-.1v.1h-.1V59.2l.1.1-.1.2v.2h-.1v1H16v.1H16v.2l-.1.2v.2l-.1.1v.2h-.1V62.6l.1.1v.1l.1.1v.6l.1.1v.1h.2v.1h.4l.1-.1v-.1.2l-.1.1h-.2l-.1.2-.1.2h.2l.2.1H17.6V64h.1v-.5l.1-.1h.6v.2h.1v.1h.1v.2h.6v-.2h.1v-.5h.1V63 64h-.1v.1h-.1l-.1.1h-.4l-.1.2-.3.2v.1h-.1v.2l.1.1.2.1h.4v-.2h.2V65.7h.1-.1v.5l.1.1-.3-.7h-.5v.1l-.2.1.1.1.1.2h.1v.2l.1.1.2.1.1.1v.1h-.1v-.1h-.1l-.2-.1h-.2v.2h-.1V67.6h.1l.1.2V68.4 68h-.2l-.1.2v.5H18l-.2.1-.1.1V69.6l.1.2h.2l.1.1H18v.2h-.2v.2h.1v.1h.2v-.1h.1v-.1V70.6H17.8l-.1.2v.1h-.1v.1l-.1.1v.4h-.2v.1h-.1v.2h.2v-.1h.1v.2h-.1v.1h.3v.2h.2v.2l.2.1h.1v.1h.1v.1l.1.1h.1v-.2h.1v-.2h.1v.4h-.1v.2h-.1V73.3h-.1V73.6h-.2l-.2.3h-.2v.1l-.2.2H17v.1H17V74.6h.1v.2h.1v.1l-.1.1h-.2V75.2H17.3l.1-.1h.1v.1l.3.2.2.2H18.3v.1h-.4l-.1-.1-.1-.1h-.1v-.2H17.1v.2H17v.2h-.2v.2l-.1.1V76.3l-.1.1v.4-.1h.1l.1-.1.1-.2h.1l.1-.1h.1l.2.1-.3.1H17l-.3.4v.2h-.1v.1l-.1.1v.1h-.1V78.6l.1-.2v-.1l.3-.4v-.1h.1v-.1h.2l-.1.1-.2.3-.1.3v.2h-.1l-.1.1h-.1v.1l-.2.2V79.3H16v.2h-.4V79h.1l.2-.2.1-.2v-.5H16V78H15.6l-.1.1v.1h.1v.1l.3.3h-.2v-.1H15.5V78.3l-.3.1h-.5l-.1-.1V78v.2h.1l.1.1h.4l.3-.2V78l.2-.1V77.6h-.1v-.1h-.1V77.9h-.1v.1h-.1l.1-.1v-.2h-.1v-.1h.2v-.2h-.2v-.1h-.1V77h.1l.1-.1-.1-.1H14.5V77.3h.1V77.6h-.1v-.2h-.1v-.1h-.1V77H14l-.1.3V77.7H14l-.1.2v.2h.1v.2h-.1V78l-.1-.1h-.1v.1l-.1.1v.2h-.1v-.2h-.2v.2H13v.1l.1.1h.1-.2l-.1-.1-.1.1v.2l-.1-.1h-.1l-.1.1-.1.1v.1h-.1v.1H12v.1l.1.1H12l-.1.1v.1h-.1V80.3zm3.8-26v.1h.2l-.1-.2v.1zM2 22zm.4.2zm30.5 88.2h-.1l-.1-.1h-.1l-.2.1V110.7h.2l.1-.1.1-.1v-.1zm-1 .3v-.1h-.4v.1h-.1v.2h.5v-.1zm0-.9h-.1l-.2-.1h-.2l.2.1.1.1.2.2h.1v-.2zM16.6 66.4h.2v.1l.1.2v-.1l-.2-.3v-.1l-.2-.1v.2l.1.1zm0 .3h-.4v.2H16.6v-.1zm1-1v.1h-.1v.1h.2v-.2zm-2.8 6.4h.1V72h-.2zm1 .1h-.4v.1l.1.1h.1l.2.2V72.3zm0 .4H16.2v-.1H16v-.2h-.1v.2zM14 73h-.1v-.1h-.1V73.3h.1V73zm.1.2v.1h.5v-.1h-.1l-.1-.1h-.2v.1zm-1 .7v.1h.2V73.6l-.1-.1H13v.2zm1.6-.5h-.2V73.8h.1v.1H15v-.1h-.1v-.1l-.1-.1v-.1zm.3 1.8V75l-.1-.2h-.1l-.1.1v.2l.2.2v-.1zm-.1.2l-.1-.1v-.1H14.4v.2l.3.2h.1v-.1zm.4.7h.1V76h.6V75.6l-.1.1h-.1l-.1-.1h-.2l-.1.1v.2h-.1v.1zm-.9.1H14v.5h.2V76.4l.1-.2zm-.8 1H13.3V77h-.1V77.5h.1-.1.2l.2.2v-.1h-.2l-.2.1v.2h.4v-.1h.1l.1-.1.1-.1V77.2l.1-.1v-.2H13.6v.2h-.2l.1.1zm1 4.1h.1v-.1h.2V81H14.5V81.4zm.6 0H15.5V81l.2-.2h-.5v.4zm-2.5 6.4h.2v-.2l-.1-.2V87H12.4v.1h-.1V87v.1h-.1v.1h-.1V87h.1-.2v.1H12l-.1.1v.2h.4v.1h-.1v.1h.2v-.1h.1v-.1h.1l.1.3zm.5.4v.1l.1.1.2.2V88.2l.1-.2v-.2l-.2-.2v.2h-.2v-.1l-.1-.1v.1l-.2.2v.1h.2-.1v.1h.2zm-.5 5.7v-.6l-.1-.2h.2v.1h.1V93h.1l.1-.1v-.1H12.8l-.1-.1H12.3v.2l.1.1v.1h-.1v.2h-.1.1v.4h.2zm.4-.2v.2H13.5v-.4h-.2v.1zm1.4 1.1v.1h.1v-.1h-.1l-.2.1V95.1h.2v.1h.2V95h-.2v-.2zm-1.4 1.5V96l.1-.1h.1V95.7H13v.1V95.5H13v.1h-.1V96.3h-.1v.1h-.1v.4h.2V96.4l.1.1V96v.1h.1zm2.3.5h-.1v.2l-.1.1H15v.1l.4.3H15.8v-.1l-.1-.1V97l-.1-.1V96.5h-.1v-.1h-.1v.2zm.9 2l-.1-.2v-.1l-.4-.4h-.1l-.1-.1h-.1v.1h-.1v.1h.1v.1h-.1l.2.1h.1l.1.2h.1l.2.2v.2h.1v.1h.1v-.2zm.2 5.2h.1v-.1l.1.2H17V103.6h-.2v-.1l.2-.2h-.4v.1h-.1v.1h.1v.1h-.2l-.2-.2H16v.1h.2v.1l.1.1h.1zm3.8 4.5v-.1h-.1v-.2H20v.1h.1V108.6h.2v-.1zm6.2 1v-.1H26.1l-.1-.1h-.2v.1h-.1v-.1l-.4-.2h-.2v.1h.1v.2h-.1v-.1l-.1-.1h-.2v.1l.1.1h-.2v.2h.1v.2H25.6v-.1H25.9v-.1H26.2v-.1h.3zm-1 1.6h-.2l-.2-.1v.2h.4v-.1zM15 71.2h.2-.2zm1.5 2.3h-.2l-.1.1v.1H16.5v-.2zM16 78v.1h.2V78l.1-.1v-.2H16v-.1h-.2l-.1.1v.1l.2.1v.1zm-2.3-1.6l.1.1h.1v-.2h-.2zm-.5 10v-.1H13v.2H13v.1h-.1v.2l.1.1h.1v-.2l.1-.2v-.1zm0 1H13V87l-.2-.2h-.2v.1h.1v.4l.1.1H13.2v-.2zm.2 7.8h.2V95h-.2v.1zm1.1 3V97.8h-.1l-.2.2-.1.1-.1.2h.2l.3-.2zm2.3 3.3v.2h.2V101.4H16.6v-.1h-.5v.1l-.1.1h.7zm6.3 7.7H23.4l.1-.1h.2v-.1l-.2-.1H23l-.1.1v.1h.1zM13 83.2h-.1v.1h-.1l.2.1v.2h.2l.1-.1v-.1H13v-.2h-.2zm2.5 19.5h-.1l-.2.2v.2h.2l.1-.1v-.1h.1v-.2zM13.7 70v.1h.4v-.2l-.1-.1H13.6v.1zm3.2-2h-.1l-.2-.1.2.1v.1h.2v-.1zm-2.5 4.9h.4l.1-.1h.2v-.2l-.1-.1h-.2l-.1.2-.2-.1-.1.1v.1zm-2.3 15.6h.1v-.1h.1V88h.1V88v.1l.2-.1.1-.1v-.2h-.1v-.2h-.1l-.1.1v.2h-.1l-.1.2H12v.2h-.1v.1h.1zm1.9 11v-.2h.1V99l.1-.1h-.4l-.1-.1h-.1v.2l.2.1.1.1zm-.7-1.7v-.1l.1-.2v-.2h-.1l-.1.2v.2l-.1.1v.1h.1zM12 89.1v.2h.1v.1h.1v-.2H12zm.2 1.2l.2-.1V90v.4l.1.1v.1h.1v-.2h.1v.1l.1.1v-.3l-.1-.1V90h-.1v-.2h-.1v-.1H12l-.1.1v.2h.2v.1H12V90.5v-.1h.1zm4.8 10.6v-.1H17v.1zm-2.5-15.2v.2H15v-.2l-.2-.2h-.2v.2zm2-12.3v-.1h-.2v-.4H16v.2H16v.1l.1.2h.4zM15 85h-.2v.2h-.2v.1l.3.2h.2l-.1-.2V85zm1.2-13h.1v-.2h-.1v.1zm-1 13.5l.2.1h.1v-.1l-.1-.1-.1-.1H15v.2h.1zm-1.4 13.2H14.2v-.1l.1-.2v-.1H14l-.2.2v.2zm1-.4zm-1.4-11.8h.1l.2-.2-.1-.1H13.3v.1h.1v.1h-.1v.1h.1zm2.8-14.1h.1v-.1h.1v-.1h-.2v.2zm-.9 0l.2.1v.1h-.1v.1H15.8v-.2h-.4v-.1zm-.3.2h-.2v.2h.5v-.2H15zm-.6 3.4h.1v-.2l.1-.2h-.1l-.1.2v.2zm16.9 37V112.7h-.1l-.1.1v.2h.1v.1h.1v-.1zm-.2-.5H31v.1h.1zm-.1.4v-.1h-.1l-.2-.1h-.1v.1h.1v.1l.2.1h.1zM16 95.7h-.1v.1h.2V95.4h-.2v.1h.1v.1zm1.5 10.4v-.2h-.1l-.1-.1H17l-.1.1h.2v.2h.4zm2 .8H19v.4h.1v-.2H19.5v-.1zm.1-.7v-.1l-.1-.1h-.2l.2.1h-.2v.1h.1v.1h-.2l-.2.1v.2h.4v-.1h.1v-.2h.1v-.1zm-3.4-2.4l-.1-.1v-.1H16v.2h-.1v.1h.1v.2h.1v-.2h.2v-.1zm14.1 9h-.1v.1H29.9l-.2-.1h-.1v.2h.4v.1h.2v-.2h.1v-.1zm-7.9-3.5h.2l-.1-.1v-.2H22v-.1h-.6v.1h-.1V109.4h.1l.1-.1v.1h.1v-.2h.5v.1H22v.1H22.4zm7.7 2.4v-.1H30v-.1h-.1v.4h-.1v.1h.2v-.1h.1v-.2zm-6-1.8h-.2v-.1h.1v-.1H23v-.2h.4v-.1h.2l.3-.2H23.4l-.1.1.1.1H23v-.1h-.1v.2h-.1v-.2H22.4l-.1.1.1.1h.1-.1v.1l-.1.1h.1v.1h.5v.2h.1l.1-.1h.1v-.1l.1.1h.1v.1l-.1.1V110.5v-.2h.1v.2l.1-.1h.1l.1-.1v-.1h-.1v-.2h.1v.1H24.2zm6.5 2.6v.2h.2V112.3h-.1v-.5h-.2v.4l-.1-.1h-.2V112.5H30.6zm-5.9-1.8h-.2l.1.1v.2h.1v-.1l.1-.2zM14 95.8v-.2.1h.1v.2l.1.1.2-.1v-.2l-.2-.1v-.1h.2l-.1-.2h-.5v.2h-.1l-.1.1h-.1v.2l.3-.1v.1h-.1v.1l-.3.2v.1H13.8l.1-.1.2-.2zm-.8-3.7l.1-.1h.1v-.2h.4v-.4h-.1v.1h-.1v.1H13.2v-.2h.2v-.1h-.2v.1l-.1-.1H13V91h-.2l-.1.1V91h-.1V91l-.1.1h-.1v.2h.1v.1h.2v.1H13.2V91.8l-.1.1h-.2v-.1h-.2v-.1h.2v-.1H12.5V91.9h-.1v.3h.2V92h.1v.1l.1-.1h.1v.1h-.1v.1h-.1v.2h.2v-.1l.1-.1.1-.1.1-.1zm-.6-5.8l-.3.2h-.4V86.9h.4v-.1h.1v-.2h.1v.1h.2v-.2h-.1zM16.3 71l-.1.1V71.4h.1v.2h.1l.1-.1v-.2l-.1-.1h-.1V71zm.3 5v-.1h-.1l-.1-.1h-.1l-.2.2v.2l.1.1-.1.1v.1l.2.2v.1h.1l.1-.1v-.1l-.1-.1v-.1h.1V76zm-2.7 22.6V98.1h.1V98l.1-.2h.1v-.2.1H14v-.1l-.1.1-.2.4v.1h.2l-.2.2v.1h-.1v.1h.1v-.1h.1zM15 71.6h-.2v.1h.2v-.1zm-1.5 11.5H13.2v.2H13.6V83zm1.8-12.6v.2l.1.1h.2v.1h.2v-.1h-.1v-.1h.2v.1h.3v-.1l-.1-.1-.1-.2h-.1v.1l-.2.1h-.4zm-1.8 13.3V84.2l-.2-.1h-.4v.1l-.1.1H13.2V84h.2v.1h.2v.1H13.8V83.4h-.1l-.1.1v.1h-.1zm1.2 13.8v.1h.2v.1h.1v.1H15.4v-.1h.1-.1l-.2-.1h.1v-.1l-.1-.1H15v-.1h-.1v-.1h-.1l-.1-.1-.2-.1v.2h.1v.1h.1v.1zm1.2 1.9v.1h.2l.1-.1-.1-.1V99l-.2-.1h-.1v-.1h-.1v-.1h-.1v-.1h-.1v.4h.2v.1h.1v.1h.2v.1zm3-34l.1-.1v-.2h-.2v.1l.1.1zm4.7 40.8h-.1v.2h.1v.1H24l.2.1V106.3h-.2l-.3-.1zm-7.5-5.6l.1-.2v-.4h.1v-.4H16v.1l-.2.2-.2.2-.1.1v.2h.1l.2-.3h.1l-.2.2v.1h.2v-.1.2h-.1v.2h.2zm1.6-36.3v.1h.1V64.1h-.1v.2zm-.4 6.4V71.2h.1v.1h.1v-.4h-.1zm0 1.6h.2v-.2h-.2V72v.2zM16 74.2h.1v-.4l-.1-.2h-.2v.2l.1.1h-.1l.1.2zm0-2h.1V72h-.4v.1h.2zM16 97V97h-.2v.2h.1v.2h.1v.1-.1h.1v-.2H16V97zm-.6-1.2v-.1h-.1v-.2H15v.4h.1l.1.2V95.9zm.8-18.7l-.2.2v.1h.3v-.2h-.1v-.1zm-.3-5.6v-.2h-.2l-.1.2.1.1H16h-.1v-.1zm-.6 3.6v.1h.2l.1.1h.5v-.2h-.4l-.1-.1V75H15.2v.2zm-.4 8.4h-.2l-.1.2h-.1v.1h.2l.1.1h.8l.1-.1h.1v.1h.2V83.6h-.5l-.4-.2h-.2v.1h.1v.1l-.1-.1zm.9-6.2h.2v-.2h.1V77h.2v-.2H16l-.1.1h-.1v.1h-.1V77.5zm-.3-3.6h.1l.1-.1v-.1h-.4v.1h.1v.1zm.5 1.7h-.4v.1h.4v-.1zm-.2 1.2H15.4l-.1.1v.1l.1.1v.2h.1l.1-.1V76.7l.1-.1zm-.4-.4v.2h.1l.1.1h.2v-.4l-.1-.1h-.1V76h-.1v.1h-.1v.1zm0-4.6V72l.1.1h.2-.1V72l.2-.1-.1-.1-.2-.2v.1zm-2 22l.2.1h-.1.1v.1h-.1v.1h.2l.2.1h.2v-.2.1H14v-.1h-.1.1v-.4l-.2-.1v.1h-.2v-.1.1h.1v.1h-.2v.1zm2.1-19.5H15.9V74l-.1-.1h-.2l-.2-.1h-.1l-.1.2h-.2v.2H15.5v-.1zm-1.1 18.1H14v.1l-.1.2v.1h.1l.1-.1h.1v-.1h.1l.1-.1zm.7 2.5v-.2H15v-.2l-.1-.1V95.4l.1.1.2-.1V95l-.1-.2zm-.3-9.9h-.1v-.1h-.1l-.1-.2h-.2V85l.1-.1v.4h.2l.1-.1V85zm.2-8.4h.1v-.1l-.1-.1h.1v-.1H15v-.4H14.6l-.1.2v.5l-.1.1v.2h.2l.2-.2v-.1h.1zm-.2 16.8l.3.1v-.2H15V93h-.1v-.3l-.1-.1H14.4v-.2h-.2l-.1.1v.1h.1l.2.1h.1v.2h-.1v.1h-.2V93.5h.1v.2H14.8V94h.1l.1.1v-.1l.1-.1.1.2h.1v-.4H15v-.1l-.1-.1h-.2v-.1zm-.1-3.6v-.1l.3-.2-.2-.3h-.1V89v.1l-.1.1v.4zm-.5 3.4V93l.1-.1v-.1H14v.2zM4.8 41V41h-.4v.1h.4zm-4.3.2H.3v.1h.1v-.1zm27 74.4h.1zm.1 0v-.1zM15.8 54.4zm0 0zm0-.1zm0 0zm-.1-.3z" fill="none" fill-rule="evenodd"/></svg>