<svg width="100" height="116"><path d="M99.8 3.4v.4l.2 1.7-.2 1.9-.1.3v.1l-.1.2-.2.2-.5.3-.3.1-.1.3-.5 1.3-.2.3v.4l-.1.2-.3.3-.3.7v.2l-.1.3-.3 1-1 1.6v.1h-.2l-.8.8-.2.2v.2l-.2.8v.2l-.2.3-.1.2-.2.5-.2.2h-.2v.2l-.4.4v.1l-.6 1.4v.2l.1.4V24.1l-.1.5v4.2l-.8 1.7v.3l-.1.5-.5 1.5v.8l-.1.2-.6 1-.3.3-.2.5-.1.3.1.9v1l.4 1.7v.4l-.2 1v.4l.1.3.3.6.2.1.1.2.1.3v1.5l-.1.2-1.2 1.6-1 2.8-.3.5-.5 2.5v.6l.3 1.3.1 2.4v.1l-.2.3-.9.7v.1l-.1.1v.2l-.1.1-.2.1-.1.2-.3.2-2.5 3-.4.4-.3.3v.1l-.4.2-.3.3-.2.1-.6.2-.7.1h-.3l-.9.4-.6.2h-.4l-.1.1-.1.1h-.1v.1l-.4.4-.5.5-.4.4-.6.5-.3.2-.1.1-.2.5-.3.5-.2.5-.2.3-.5 1-.5.5-.3.7-.4.6-.1.3v.2l-.1.1v.9l-.3.3-1 1.4-.1.2v.1h-.1l-.3.3h-.2l-.2.2-.2.2-.8.9-.6.4-.7.7-.4.2-.3.3-.3.5-.2.2V78.8l-.2.6v.4l.1.2v.8L68 84l-.2 2-.4.9v.4l.1 1.2v2.3l.2.3v.3l-.1.6v.2l.2.2h.2v.8l-.2.4-.7 1.1-.2.7-.3.6-.9 1-.5 1v.4l-.3.2-.2.6-.4.7-.1.1v.1l-.3.8-.4.4-.5.3-.6.1-.6.1-.6.1-2 .6-.1.1-.2.2-.2.2-.4 1.3v.1l-.4.3v.1h-.2l-.3.3-.5.1-1.5.8-.2.1-.4.2-.3.2-.2.2v.2l-1.2 1.7-.3.3-.7.3-.1.2-.1.2-1 1-1.1 1.8-.1.2-.2.2-.2.1-.6.3-.9.6-.4.1h-.6l-.4-.3H46l-.2-.2h-.4v-.1l-.2-.2h-.5l-.1.2-.3.3H44l-.3.1v-.4l.2-1v-.1l-.1-.2v-1.1l-.1-.2-.2-.2-.2-.2-.1-.5-.1-.3V109.2l.3-.2.5-.2.1-.2.2-.2.2-.2.2-.3V107.6l-.5-.3-.3-.3-.2-.3V105.7h-.3l-.6.3-.6.1-.2.2-.5.5-.5.2-.5.2h-1.2l-.5.3-.4.5-.3.2-.2.3h-1.1l-.2-.2-.2-.3-.1-.2-.3-.2h-.3l-.8.3h-.2v.2l.1 1.3v.3l-.2.5v.3l.1.6h-.4v.5h-.6l-.3.2-.3.5h-.4l-.3-.3H32l-.5.2.2.2v.2h-.1l-.7.5-.4.5-.1.1-.3-.6-.1-.4v-.2l-.2-.1-.2-.1-.8-.3-.3-.2-.6-.5-.3-.2-.2-.2-.1-.4-.3-.3v-.2l-.4-.4h-.3l-.2.3v.5l-.6-.3-.9-1-.5-.5-.2-.3-.3-.6-.2-.3H22.5l-.3-.2H22l-.3.1-.2.4v.3l-.3.2-.2.1-.2.2-.2.2-.3.5-.1.2H20l-1.5.3-1 .3H17l-.1.2v.8l-.6 1.1-.1.2H16l-.5.1h-.2l-.2.1v.1l-.3-.3v-.1l-.2-.1h-.2l-.4 1.4-.4.6-1.5 1.3-.3-.1-.2-.2-.3-.5-.5-.6-.2-.5-.2-.2-.9-.8-.1-.3-.1-.3.1.2h.1l.2-.4-.1-.2-.8-.7V110.5l.2-.2.3-.4-.1-.4-1.3-1.5-1.4-1-1.2-1.1-.6-.6-.4-.2-.6-.6-.2-.3v-.6l-.1-.1-1.2-1.1-1.4-1.1-.3-.3-.2-.1 1-2.5.2-.4.3-.3.5-.3.3-.3.5-.3h.5l.5-.2.3-.4.3-.4.3-.3.7.1.5.4 1 1.7.3.2.3.1H8.7l.8.2h.3l.2-.1.3-.2.2-.3.1-.3V97l-.3-.1-.3-.1-.3-.2-.1-.3V96l.8-1.7.1-.4.6-.4.2-.3-.1-.4-.6-.2-.6-.2-.5-.2-.5-.5-.3-.1-.7-.3-.1-.1-.1-.1v-1.3l.2-.3.1-.1h.5l.4-.2v-.3l-.2-.3-1-1-.5-.7-.2-.3h-.7L6 87h-.2l-.1-.3.2-.6 1-1.5v-.4L7 84v-.6l-.2-.3-.3-.6-.1-.3V81l-.3-.8.1-.2h.6l.6.2h.2l.1.2.2.2.4.3.2.2h.3l.2-.1.4-.4.3-.2h.5l.6-.2.4-.2h.1l.3.2.4.6.4.2h.4l5.3-1-.2-.3.1-.4.2-.5.1-.4V77.5l.3-.4v-.2l-.5-.3-.3-.4v-.5l-.2-1.4V74h.2l.4.5h.4V74.2l.1-.2V74l.2-.1.7-.5H20.3l.5.1 1 .7.5.2.3.2.1.3.3 1 .1.2.1.1.2.2.1.4v.2h.3v.1l-.1.1v.1l-.1.2.2.2V78l.1.2h.2l.3-.2.1.1.3.4.1.2v.4h.1l.1.2h.1l.1.1-.1.1v.1l-.1.2v.2l-.1.1v.1l-.2.1v.2h.1l.4-.4h.5l.9.4H27.3l.2-.1h.1l2.3.9H31l.2.1h.2V81l.1-.1.2-.1.4-.3.1-.1.2-.3h.1l.2-.2h.3l.2-.2v-.4h.1l1-1 .2-.2V77.6l.2-.2.3-.4v-.1l.2.1.2.2.1.2.1.3.2.6.3.6.1.2.3.3.1.5h.1l.2.1v.1l.3.3-.2.1-.2.4-.3.2-.1.1v.5l.2.3H37.5l.2-.1h.4v.3h.2l.6-.2H39.2l.2.2h.2V82l.2-.4.1-.1.2-.1V81l.1-.1.1-.1.3-.2.1-.1h.1l.7-.2v-.4l-1-.9-.1-.4.2-.2.4-.1.2-.2v-.5l.2-.1.1-.1v-.2l.2-.7V76h-.1v-.1l-.1-.1V75.5l.1-.1v-.1l.2-.1 1.5-.6.4-.2V73.2l.1-1v-.4l.3-.1.3-.2-.1-.1H44l-.2-.1-.2-.6-.3-.1v-.2h.3l.2-.2h.1V70l.1-.1.1-.1.5-.1v-.2l-.2-.3-.2-.1.2-.4v-.5l.2-.1.2-.1v-.4l-.5-.3-.1-.2-.1-.3v-.1l.1-.1.1-.1.1-.1v-.2h.1v-.4l.1-.4v-.1l-.1-.2-.3-.3-.1-.1V64l-.1-.3-.4-1v-.2l.2-.3V61.4l.3-.3.2-.3.2-.3v-.4l-.2-.3v-.3l.1-.3.5-1.2.1-.4v-.4l-.4-.6-.2-.2-.5-.4-.3-.4-.4-.3-.5-.2h-.8l-.2.1h-.3l-.2-.1h-.4l-.3.2v-1.1l-.2-.5-.3-.4-.3-.4-.5-.2-.5-.1-.5.1-.1-.1H38l-.2-.1-.4-.1h-.1v.1l-.1.1-.2.1h-.2l-.6-.7v-.4l.1-.3.8-1 .1-.2.2-.1v-.2l-.1-.1V49.4l.2-.3V48.8H37v-.1l-.1-1-.1-.3-.1-.4v-.6l.4-.7.5-1 .3-.3 1-.6.2-.3V43l-.2-.3.4-.5.7-.1H41.7V42l1-1 .2-.2v-.7l.4-.5.6-.5.4-.6v-.8l.2-.2.1-.3-.4-.2-.3-.3-.2-.2-.2-.3-.1-.3-.2-.7-.2-.3-.6-.2-.2-.3-.2-.4v-1.3l-.2-.8v-.2h-.2l-.1-.1-.2-.1v-.2h-.2l-.1-.1-.2-.1-.5-.2h-.5l-.5.3h-.2l-.2-.2-.2-.2-.3-.1h-.2l-2.5-.3h-.2l-.1.4-.2.3-.2.1h-.5v.1h-.8l-.2.2-.2.2-.5.1-.3.4-.2.2H31.1l-.5-.2H30l-.1.2-.1.2h-.2l-.3.1-.2.3-.3.1h-1.1V33l-.2-.1h-.1l-.2-.2h.3v-.2l.1-.2H27.8l.2-.1.2-.2.2-.2v-.6l-.1-.6v-.1l-.2-.2-.2-.6-.3-.2V29h-.2l-.3-.3-.2-.4.2-.3v-1.4l.1-.2V26h.1l.1-.2.1-.2.2-.5v-.4h-.1l-.1-.3-.2-.3h.2v-.3l.2-.1v-.1l.2-.1V23h.1v-.1l.3-.3.6-.3.1-.3V20.8H40.5l1.4.1h.2l.5-.2h.9l.2.2.2.2H44.2l.3-.1 1-.2h.2v-.5l.2-.1h.3l.4.5.3.2v.2h.4l.2.2.3.2.2.1-.1-.3.4.1-.2.2h.4v.4h1.1v-.5l.2-.1.2.2.1.2v.2l.3.1-.1.4v.3H51.1v-.3h.2l.6.5h.5l.2.2h.2l.2-.3.1-.2H53.5l.2-.3.4.1h.2l.2-.1.3.1.1.3.1.1.5.2.2.2v.5h.1l.3.1h.2l.2-.1h.3l.7-.5h1.1l1.2.4 1.2.1.2.2h.5l.1.1.5.7h.2l.3.2.4.2.2.1V25.6h.4l.1-.1v.2l.3.1h.2l.3.1h.4l.1.1V26.6l.1.2.6.7.5-.9H67v-.2l-.3-1.4-.4-1.2-.3-.4-.2-.1v-.7l.2-.3v-.5l.1-.1V21l.1-.3.1-.3.2-.2h.3l.2.3.6-.4V19.8l1.2-2.7.4-1 .6-1.2.6-1.2.5-1 .4-.8v-.6l-.3-.2-.1-.2v-.6l.4-1 .1-.5v-.3l-.2-.2L71 8v-.3l.2-.3.4-.7V6.1l.4-.8.1-1.1.2-.6.5-.5.5-.3.6-.2h.6l1 .3h.4l.2-.2v-.4h.4l.2.2h.8v.1l.2.1h.5l.1-.1.2-.1v-.1l.3-.1h.6L80 2H80.8L81 2l.1-.2.1-.1.2-.2h.4l.3.1h.5l.3-.3.3-.3.7-.4.2-.1.2-.1h.3V.7H85l.6.5.5.2H87.9l.2.2h.6l.2.1.2.2V2l.2.3v.2h.5l.5-.3h.1l.5.3H91.2l.4-.2.5-.1h.4l.5.1.2.3.2.5.2.2h.2l.3-.1.3-.2.1-.2v-.2l.2-.4v-.2h1.8v-.2h.6l.3-.3.1-.2h.2l.3.3.3.2.5.9.2.5.2.1h.6" fill="none" fill-rule="evenodd"/></svg>