<svg width="117" height="116"><path d="M116.5 20.2l-.4-.2-.1-.2v-.3h-.9v-.2l-.3-.4h-.4v.1l-.2.2H114l-.1-.2h-.1V18.6h-.5l-.1-.1v-.2l.1-.2v-.5l.2-.3v-.1l.2-.6.1-.1h.1l.2-.5V16l-.1-.3-.1-.2-.1-.1-.3-.2-.1-.1v-.2l.4-1v-.3h.2v-.1l.2-.3.1-.2h.1V12h-.2v.1H113.7v-.5h-.2l-.1-.1v-.4h-.2l-.2.1H112.8l-.2.1-.2.1H112V10h-.1V10h-.4l-.3-.1-.2-.2-.3-.1-.4-.1h-.4l-.1-.1v-.2l-.1-.1-.2-.2V8.6h-.1l-.1-.2h-.3l-.2-.2-.1-.3h-.1l-.2-.2h-.2v-.4l-.1-.2H107.6l-.1-.2-.1-.2V5.9l.1-.1-.1-.1h-.2v-.1H106.9l-.2-.2-.3-.2h-.6l-.1-.1H105.4v.5l-.2.1V6l-.1.1v.1l-.4.3v.1l-.1.1-.1.2h-.4V7h-.1l-.2.1h-.1l-.4-.5-.3-.1-.1-.1-.3-.2h-1.2V5.9l-.2-.1h-.1l-.1.1h-.2l-.3.5v.1h-.2l-.2.1-.1.2h-.2l-.2.1h-.1l-.2.4H99v.2h-.4v-.2l-.1-.1-.2-.2h-.8l-.2-.2-.2-.2v-.1H96.8v.1l-.2-.3-.1-.1v-.4h-.4v-.1H96v.1h-.5l-.2-.2h-.2v-.2l-.1-.1v-.8l-.1-.1H94.6v-.1l-.1-.1v-.3l-.1-.1h-.1l-.6-.1h-.1l-.1-.2v-.1l-.1-.1-.2-.2h-.1L93 3v-.3l-.1-.1h-.2v-.1h-.2l-.2-.1-.1-.1H92l-.1-.1-.5-.3h-.8l-.2.1-.2.1-.2.2-.1.2-.1.2-.1.1h-.4l-.3-.3h-.5l-.2.1h-.4l-.1.1H87.1l-.2-.3h-.1l-.1-.1v-.1H86L86 2h-.1v-.2h-.2l-.1-.1v-.2l-.1.1h-.2v-.2H85v.1h-.2v.1h-.1v.1h-.2l-.1.1-.2-.2H84V2H83.8V2h-.1v-.2h-.5v-.2H83v-.1h-.4l-.2-.2-.2-.1h-.4V1h.1V1H82V.8l-.1-.1H81.4v.1H81.2l-.3.2h-.4v.2h-.1v.1l-.1.1v.2l-.1.1V2.1h.1v.4l-.1.1v.2L80 3h-.3V3H78.8v.1l-.1.1v.2h-.1l-.2-.1-.2-.1h-.7l-.2.2H77.1v.1h-.9v-.2H76l-.1-.1V3h-.1v-.1H75.4v-.2h-.1l-.1-.2h-.5v.1h-.1l-.1-.2h-.1l-.1.2v.1h.1V3l-.1.1h-.5v.1l-.1.2v.2h-.1v-.2H73.3l-.1.1-.2.2h-.5l-.2.1-.3.2H71.8v.2h-.5v.1h-.4l-.2.2h-.5l-.3.2h-.3l-.1.1-.4.3H69l-.1.1h-.1l-.1.1V5.5h-.8v-.1h-.2v-.1l-.1-.2h-.2V5h-.1l-.2-.3-.3.1H66.5l-.1-.1h-.2v-.1H66v-.2l-.1-.1V4h-.6v.1h-.1V4.6l-.1.2v.1h-.5l-.1.2v.1l-.1.1-.2.1v.5h-.1V6.2l-.2.1h-.4l-.1.2V6.7l.1.1V7h-.1l-.1.1-.2.4v.2l-.1.2-.2.2-.2.1-.1.1h-1.4l-.2-.1L61 8l-.2-.2h-.4l-.3-.2H59l-.2-.1v-.1h-.4l-.2-.1h-.6l-.6.3h-.2l-.1-.1h-.1v-.1H56l-.3-.3h-.4v.1h-.5v-.1h-.1l-.2-.1V7l-.2-.2h-.1l-.6-.3-.6-.1H52.7v.1h-.8l-.5.2h-.2v-.2l-.7-.6v-.5l-.1-.2h-.1l-.1-.1-.2-.4-.1-.1-.1-.1h-.1l-.2-.1-.2-.1h-.1L49 4l-.2-.3h-.2l-.4-.2-.2-.2H48l-.2-.2h-.5L47 3v-.2l-.2-.3-.2-.1-.2-.2h-1.1l-.2-.2H45l-.2.1H44v.2l-.2.1-.6.4-.3.1v.2l-.2.2h-.4l-.3.2v.1L42 4l-.1.2-.1.1-.1.3h-.1l-.1.2h-.1l-.2.4H41v.3l-.3.1-.1.2-.4.8-.1.2-.2.2h-.8l-.2.1v.2h-.1v.2l.2.1v.2l.3.4v.3l.2.5v.5l-.1.1-.1.3v.4l-.2.7.2 1.4v.2l.1.8v.8l-.1.2v.1l-.2.1-.2.1v.1l-.2.1-.2.6v.2l-.1.2-.2.2-.1.3v.3l-.2.4-.5.8-.4.3v.1l-.1.1v.4l-.1.1v.1l-.1.1-.1.3h-.2v.1l-.2.2-.3.7V20.6l.1.2V24l-.4.8V25.1l-.3.7v.5l-.3.4-.1.2-.2.2v1.1l.2.7v1l.1.3h.1v.1l.1.1V31.2l-.6.8-.5 1.3v.2l-.3 1.1V35l.1.6v1.3l-.4.3-.1.1v.1l-.1.1v.1l-.2.1-1.2 1.4-.1.1-.2.2-.2.1-.1.2-.4.1h-.4l-.4.2-.3.1h-.2l-.1.1-.2.2-.3.2-.2.3-.2.2h-.2v.1l-.1.2-.2.3v.2l-.1.2-.3.4-.2.3-.1.2-.2.4-.1.2v.4l-.1.2-.5.6v.2h-.2l-.1.1-.2.2-.4.4-.2.2-.4.3-.1.1-.2.1-.1.2-.1.2V47l-.1.3V48l.3 1.4-.2 1-.1.3V52.5l.1.2v.5l.2.1V53.7l-.1.2-.3.5-.2.4v.2l-.5.5-.2.5v.1l-.2.1v.3l-.2.3-.1.1-.1.4-.2.2h-.3l-.2.2h-.6l-.8.3h-.2v.2h-.1l-.2.7-.2.2-.2.1h-.2l-.7.4-.1.1h-.2l-.2.2v.2l-.6.7-.1.2-.4.1v.2l-.5.4-.5.9-.1.2H16l-.3.2-.4.2H14.6v-.2H14l-.2.1h-.2v-1.2l-.2-.2-.1-.3v-.4h.3v-.1l.2-.1v-.2h.1v-.2l-.2-.2-.1-.1-.1-.2v-.4h-.2l-.2.1-.3.1h-.1l-.3.3h-.2l-.2.2h-.6l-.2.1-.2.3-.2.2h-.5l-.2-.2v-.1l-.2-.1-.5.1V61.3l-.1.3v.4h-.1v.2h-.5l-.1.3H8.3l-.1-.1-.3.1.1.1-.4.3-.2.2-.1-.2v-.2h-.1v-.1H7l-.3-.2h-.2l-.2-.3-.2-.1-.1-.3-.1-.2-.2-.2h-.2v.4l-.1.1-.2.1-1.2.3h-.2l-.1.2v.1l-.1.2v.1h-.1l-.3.2v.1l-.1.1v.2h-.5v.2l-.1.3-.3.1-.5.2h-.1v.2l.4.2.1.3v2.4l-.1 1H.5l-.3.2.2.4.1.2.4.4.2.1v.1h.1v.2-.2h.4v.2l-.1.2h.1l.8-.3H3l.2-.2v-.3l.1-.1.1-.1h.2l.2-.2H4.9l.4.1h.1l.1.1h1.1l.3.1.2.1.2-.2H10l.8-.1h.3l.1.2h1.5l.6.1h4.4l.6-.1h5l.5-.1h1.7l.2.2H26.7l.2.2v.8h.2v.2h.1l.1.2h.2v.2l.2.1V72h-.1v.4h.1v.5h.1V73.9l.1.2v.2l.4.5v.2h.2v.1h.2l.2.1v.2l.1.3v.2h.1v.1l.1.2v.2H29V77.2h.1v.1h.1l.1.2v.2l.2.1.2.2h.2v.1l.1.1V78.5h.4l.1.1-.1.1-.1.1v.1h.1l.1.2.1.3.1.2.3.1h.1v.5h.2V80.6l.1.2h.2v.1h.1v.2h.1v.1h.1v.1l.1.1h.2v.1H32v.2l.2.1v.1l.1.1v.1l.2.1.1.2V82.6h.5l.6-.1h.1l.2.1h.1l.4-.2h.5l.3.3h.7v-.4h.1l.1-.1.3-.1H38.7v-.4H40l.1.2.1.2h3.6l-.2-.5V81.3l.1-.3v-.2l.2-.4V79.8l-.1-.2v-.1h.5l.1-.1v-.2l.1-.2.2-.1v-.2l-.1-.4V76.7l.1-.1.2-.2v-.1l-.1-.3h4.7v-.4h.1v-.1h1.8l-.4 1v.3l-.1.3v.6H58.6l.1.1.2.3V78.5l.1.1V79.7l-.1.1V80l-.2.2v.3l-.1.3v.1l-.1.3v.4h-.1v.5l.1.1.2.1V82.6l.2.2.1.2v.4l.1.3.1.1.2.2v.4l.1.2V86l-.1.1-.1.5v.4h-.1v.2l-.1.2v.8l-.2.7.1.6v.5l-.2.4v.2l-.1.1V91h.1l.1.3v.6l.1.2.2.3.4.4v.2h.2v.1l.1.2.4.4h.1l.2.1.2.2h.1v.2l.1.2.1.3v.3h.1v.6l.2.2.1.3.2.3v.2h.1v.4l-.2.3V97.5l.1.1v.2l.1.2v.5l.1.2v.4h-.4l-.2.2h-.1l-.2.2V99.8l.1.5v.2h.1v.2l.2.2v1.2h.1l.1-.1.3-.3h.1l.6-.3.2-.1.2-.5h.2l.5.2h.2l.2.1h.6l.1-.2h.5l.2.2H66.7l.5-.1.7-.4.4-.2h.3l.2-.1h.2l.4.1.5.2h1l.2.1h.2v-.1l.1-.2h.1l.1-.1v-.1l.1-.1v-.2l.1-.1H72.4l.3.1.1.1V100.9H74l.2.1.1.1.2.2v.5h.1V102.4l-.2.4h-.1l-.3.1v.2h.4l.2.2.2.1.2.1h.2l.3-.1h.2v-.2h.1v-.1H76v-.1l.2-.2.3-.2h.7l.4-.2.3-.1H79l.4-.1.5-.3H80.2v.5H80v.2h.1v.2H80v.4l.1.2v.5l.1.5v.2h.4v.1h.1l.4.3V105.3l.2.1h.2l.2-.1v-.1h.5l.2.2.3.2H83.5l.4.3h.2l.1.3h1.4l.1.1.1.1h.7l.2-.1h.4l.1.1h.1l.1.2h.7l.3.1v.1h.2v.1H88.9v-.2H89.5l.3-.1.2-.1.2-.2.1-.3v-.5l.1-.2.1-.2h.1V104.2l.1-.1h.7l.2-.1.1.1.1.3v.5l.2.5 1.1.7.3.5v.3l.3.8.1.2.4.3.2.2h.2l.3.1h.5v-.1l.1-.1H95.7l.4.2.1.1V109h.9v.2h.1l.1.2h.1l.1-.1h.4v.1h.6l.1.1.5.5h.1l.1.4.1.1.2.2v.4l-.1.1v.2l.1.2.1.1.1.2v.3H100.2l.2-.2h.3l.3.2.4.6.1.1v.3h.2V113.6h.1v.3h.2l.2.1.1 1 .1.2.2.2h.1l.1.1H103.5l.1.2h.2l.2-.1.2-.1.3-.3.9-.3h.1l.4-.4h.5v.2H106.8v.2l-.2.1V115.3h-.1v.4h.2v.1H107.5l.1-.1v-7.9h-.4l-.2.2-.3.1H106.3v-.1H106l-.1.2h-.3v.1l-.1.1v.2l-.1.2v.1l.2.3h.2v.4h-.5l-.2-.1-.2-.1h-.4v-.1h-.1l-.1-.2H103.4v.2l-.1-.2h-.1l-.1.1h-.2v-.1l-.1-.1-.5-1-.2-.1-.3-.2-.1-.2v-.1l-.1-.1h-.1l-.2-.2h-.1V106.6h-.5l-.3-.2v-.1l-.2-.2v-.1h-.2v-.1h-.1l-.1-.1h-.2v-.4h-.2l-.1-.1v-.5l-.2-.1v-.5H99l-.1-.2-.1-.2v-.2l-.1-.3v-.1l.3-.5.2-.1v-.5h.1l.1-.3v-.2l.1-.2v-.6l.1-.2V100.3l.2-.2v-.5l.1-.2v-.1l.2-.2.1-.1v-.2l.1-.1h.2l.1-.1.1-.1v-.2h.1v-.1l-.2-.1v-.4l-.1-.1v-.2l-.1-.2V96h-.1v-.2l-.3-.2v-.1l.2-.2.1-.2V94l.3-.4v-.4h.2l-.2-.2v-.1h-.1l-.1-.2v-.4l-.1-.2v-.1l-.2-.2.2-.1h-.2v-.2l-.1-.1v-.1l-.2-.2-.1-.1v-.4l-.1-.1-.2-.1H99l-.2-.2-.1-.2.1-.2.3-.2.5-.3.6-.4 1-1 .8-1 .2-.6v-.5l-.2-.5V85h.1l.8-.1 1-.2 1-.1 1.4-.3 1.6-.2 1.6-.2 1.2-.2 1.6-.3 1-.1-.1-.6-.5-1-1.3-2-.1-.7v-.4l-.3-.7-.5-1-.3-.6-.9-1-.5-.4-.8-.4-.9-.7-.1-.2-.2-.2-.3-.8-.4-.5-.2-.3v-.3l-.2-.7-.1-.7V69.5l.5-.6.2-.4v-1l-.6-1.3-.3-1-.5-.9-.2-.5v-.5l-.1-.5.1-.5.4-1v-.8L105 59l-.2-.7-.4-.7-.2-.2v-.2l-.1-.1-.1-.7.1-.7v-.5l-.1-1.6v-.2l.2-.2-.1-.2V52.4l.1-.1v-.4l-.2-.2H103.5v-.2l-.1-.2h-.2l-.1-.1V51l-.2-.2v-.2H102.6v-.1l-.1-.1V50h.2v-.2h-.2v-.1h-.3v-.1l-.3-.1v-.7h-.2v-.2l.1-.2v-.2h-.1v-.4h.1l.2-.1h.1l.1-.1h.1v-.2h.1v-.2H102.8l.3-.2.2-.1.2-.3v-.2l.1-.3V46l-.2-1v-.4l.2-.3.3-.6.2-.2v-.1l.3-.3h.1l.2-.4.1-.1h.5l.2-.3.2-.2.2-.2h.3V40.7l-.1-.1v-1.1l-.1-.1V39l.1-.1h.2v-1.1l.1-.5V37h.2v-.6l-.1-.2v-.1l.1-.9.2-.8v-.6l.2-.2v-.8l.3-.4h.2l.2-1v-.2h.1l.5-.6V28.7l.1-.3h.1l.2-.2.3-.1.6-.2h.2v-.3h.1l.2-.2V26.6h.1l.2-.3h.2l.1.1h.1v-.2h.4l.2-.1h.1l.2-.2 1.2-1.6.8-.6.9-.7.4-.4.6-.7.4-.5.3-.4.2-.3v-.5zM4.7 69h-.8l-.2.1-.2.2-.1.1v.1H3.7l.2-.2.1-.1H4.6l.2-.2h-.1z" fill="none" fill-rule="evenodd"/></svg>