<svg width="64" height="116"><path d="M61.3 66.7h.5l.2-.2 1.3-.3.1-.3.5-.2v-.5l-.5-.4.2-.9-.3-.3h-2.6l-.4-.3v-.5l.7-.4V62h.7l.4-.3.2-1.1-.7-.4.5-.5-.7-.6.2-.5-.4-.6.3-.6.3-.1v-.5l-.2-.2V56l-2-.2V55l1-1.6v-.9l.2-.4.3-.4h.6l.4-.3-.2-.9.6-.6.2-1.4h-.3V48l.5-.6.7-.3V47l-.9-.7v-.4l.5-.9-.3-.3-.8-.1V43l.2-.2v-.6l-.7-.7V41l.3-.2V40l-1-.6-.1-1.1-1.6-1.4.2-.8.3-.3v-2l.2-.2v-.4l-.6-.1-.2-.5-.7.5-.6-.5H57l-.7.5h-.8l-.4-.4-.2-1 .7-1.2V30l.2-.3-.2-.2.2-.4v-1.1l-.5-.5V27h-.7l-.2-.2h-2.7l-.7-1H51l-.5-.5V25l-1.1-1.3v-.5L49 23v-1l-.2-.3v-1.3l-.5-.2-.6-.5v-.5h-.3l-.1-.4-.5-.2v-1.1l.2-.2v-.7l.5-.4-.1-.8-1-.5h-1.2l-1.4-.6-.5.3-.1.3h-1.6l-.9-.4h-.4l-.2-.5h-.8l-.1-1.5h-.4l-.3-.2-.4.2h-.9l-.4-.4-.7.8h-.7l-.2.3h-2l-.6-1h-1l-.1-.4H31v-.6h-.3l-1.1.9h-.5l-.2-.3-1 1h-.5l-.3.1-.3-.5-.3-.1-.3.5-.2.4-.4-.7h-.4l-.3.2h-.6l-.2.2-.2-1-1-.8-.3-.7-.2-.7h-.6l-.5-.6-.4-1.6-.6-.5-.6-.4-.4-.8v-1l-.2-.4-1-1H18l-1-1V2l-.4-.3H16l-.4-.4V.8h-.7l-.3.2h-2.8l-.3-.2H9.1L9 1h-.7l-.2.2-.4-.2H6.2l-.4.2L5 2v.4l-.4.7v.7L3.9 5v2l-.2.2v.4L4.4 9l-.7.4L5 11.5v.4l-.6 1v.4l-.6.5h-2l-.2.3h-.4l-.4.3L1 16l1.2.3.6-.5h.4l.3-.2h.9l.2.2h.4l.6.6.9 2 .2 1-.5 1-.4.4v.4l-.5.7-.2 1.6L3.4 25h-.7l-.2.2-.7.3-1.4 1.6v1.6l.3.5.8.3.2 1.6.5.7v.4l.2.2.2 1.1.4.5.5 1.7.2.3v.4L3 37.8v1.6l.7.9.2 1 .7 1.4L5.7 44v.4l.2.3v1.5l1.1 2 1.6 1.6.2.4v.9l-.7 1v.8l.6.7.9.5 1 1h.3l.8.9v.4l.6 1.3v.5l1.6 1.7.2.5v.6l.2.3v2l-.2.2V65l.4.5v.2l.5.2v.9l.8.6.8.2 1.1.6.4.4v.4l.2.2v.5l1.1.8.7 1.8.2.9L22 75l.4.9v.4l.4.7.3 2.4.2.2v1.6l-.7.8v1.4l-.2.2v.7l.2.2v1l.4.6.6.3.3.3.3.4v1.1l-.3.3v1.7l-.2.3v.4l.5.7v.2l.5.5 1.8 1 1 1 .2.4v.4l.2.2v2.9l-.2.2v1.3l-.4 1v1.5l.4.9v.4l.2.2v.5l.5.6v1.1l.2.3v.6l.7.9.6.4v.3l.6.5.9.2.3.4-.2 1.7-1.1 2.5-.4.3h-1l-.5-.2-.1.3.3.4 1.6.4 1.3.7h.6l.3.2h2l.2-.2h.6l.3-.3h.6l.5.3.6-.7H39l.6-.5h.8v-.5l-.4-.2v-.7l.2-.4.8-.8h.2l.9-.7h.6l.2-.2h.7l.5-.2.3-.3v-.7l.2-.2.5-2.7.7-.7h.2l.3-.3.4.2h2.9l1.1 1h.7l.8-.7 2.7.2.2-.2h.7l3.2-2.4v-.8l.4-.5v-2.4l.2-.2v-1.4l.3-.2V98l.4-.7v-.4l.5-.5-.5-.6 1.2-1h1l.5-.4-.2-.4.2-.4-.7-.3.2-.4V92l-.6-.4.2-.3.2-.6-.2-.5.4-.8V88l.2-.2v-.9l.3-.2.2-1.5.4-1 .2-1.3-.2-.2V82l-.9-.8-.2-.5-.2-1.3-.7-.9v-.9l.3-.2-.3-.2-.2-1.8-.2-.2v-1.6l-.2-.2v-1.7l.5-.8 1-.2.2-.4v-1H62l-.2-.2H61l.2-1.4-.2-.2V67l.3-.3zm.6-11.2V55.8h.6v-.3l-.5-.1-.1.1zm-22-41.9h.2v-.4h-.4v.3l.2.1z" fill="none" fill-rule="evenodd"/></svg>