<svg width="96" height="116"><path d="M81.9 103.9l-.3-.3h-.4l-.4.1h-.4l-.3-.1-.7-.6-.2-.2v-.1l-.3-.7-.1-.2-.6.3h-.1v.3l.1.1-.2.2h-.3l-.3-.2-.2-.4v-.5l.3-.3.1-.4v-.7l.2-.1.1-.2h-.1v-.2l.7.1 1 1 .8.4.4-.1.7-.6h.3l.5-.1.4-.2.3-.3v-.7l-.7-1.6-.2-.1.2-.2.4-.2.2-.2h.1l.2-.2.1-.3-.2-.8-.7-.3-1.7-.2-.6-.4-.1-.2v-.3l.2-.1h.1l.1-.3.4-.3.4.2.2.5-.1.7.2.2h.2l.1-.1.2-.3-.1-.6.2-.8.4-.6.5-.3.3-.3 4.3-1 1-.8h.2l.3-.4-.3-1v-.5l-.1-.6-.2-.5-.5-.6-.8-.7-.4-.1-1.2-.1-.4-.2-1-.8-.5-1.9 1-2.1 1.7-1.7 1.5-.9h.4l.2.2.3.2.3.1.5-.2.2-.4v-.4l.8-.5.9-1.6.4-.6-.2-.4V72.7l.1-.5.1-.3-.2-.5-.3-.7-.2-.8-.1-.7-.2-.4-.3-.6-.5-.8v-.2l.2-.5.6-1.4.3-.6.8-1.1.3-.6-1-.9-.6-.2-.7-.7-.4-.2H88l-1.7-1h-1.7l-1.6.9-3.1 2.6-2 1.2-1 .9-.3.9.3.3.6-.1L79 66h.4l.4.2.3.5.5 1.9v1.8l.9 3.9v.8l-.5 1-.2.8-.7-.3-.3-.2-.1-.3V76l.7.2-.2-.5-.3-.3h-.6v.6l-.5.5-.6.3-.4-.1.3-.5.7-.7.1-.4.2-.6h.3l.8.2.5-.8v-1.3l-.4-1.5-.4-1-.2-.3v-.1l-.1-.2-.1-.4V68l-.1-.1-.4-.2-.7-.8h-.4l-.1.7.4 1 .4 1.2-.3 1-.3.2-.7.2-.4.3-.3.8-.1.5-.1.5.2.5v.3l-.9 2-.2.2-.4.4.2-.6.1-.2v-.2l-.1-.5-.5-.7-.3-.3-.2.1-.2.1H73l-.2-.2.1-.3.4-.1 1.6-.3v-.3l-.1-.6-.2-.5-.1-.3H74l-.4.1-.3.3H73l-1 .2-.3-.1V72h.4l.2-.2.4-.5.3-.1.6.1h.3l.3-.7-.4-1-1-1.8.2-.3.3-.1h.6v.3h-.1l.3.3h.4v-.3l-.1-.4.1-.4.6-.7V66l-.2-.3h-.4l-.7.5-1.4.4-.9.1-.3-.4L68 66h-.5l-2.6-1.1.2.6.4.4 1.7.6 1.3.1.5.2.7 1.2v1.5l-.7 1-.6-.2-.5.4-.4.2H67l-.5-.4v.3l.4.5.1.3v.2l-.1.5v.3l-.1.5-.3.3-.3.2-.7.2-.6.4-.4.2h-.7l-.3-.1-.2-.2-.3.2.8.8-.5.3-.6-.2-.5-.5-.3-.6.2-.1.2-.1h.4v-.2H62l-1.2.6H60l-3.2-.4v.2l.3.2h1.1l.3.3.2.2.1.2.2.4.5.3 1.3.5.3.6-3.2-.2v.2l2.2.6 1 .6 1 1.1.2.7v.7l-.2.5-.5.2h-.3l-.2.1-.1.3v.7l.3-.1.4-.3h.6l.3.3.2.3.3.4.4 1.3.2.8-.1.3.2.3v.4l-.1.4-.5.2h-.2l-.3.2-.2.2-.2.2-.2.1h-.8v.3l.3.8.1.1h.3l.2-.2v-.3l.2-.2h.8l.1.2v.4l-.2.1h-.3l-.2.1.2.4 1 1 .4.2.2.2v1.1h.5l.2-.1.2-.2-.1.5-.3.2h-.3l-.3-.2.2 1 .3.5.5.1h.7l-.4-.2v-.2h1.4l.3-.1.5-.3h.3l1.4.6.3-.2.3.2 1.5.4.8.4h.3l.2-.3.3-.4.4-.3h.4l.3.3v.4l-.1.4-.3.4.3.4h1.1l.5.3v.3l-.1.1-1.8.4.5.8 1.3 1 .4.8-1-.2-2.2-1-1-.3.3.4.3.3.4.2 1.2.1h.2l.3.4.4.2 1.4.6.2.4.4 1 .2.3v.2l-.4.4-.3.2-.1-.3-.5.5-.3.1h-.2l-.4-.6h-.5l-.8.6v.3l.4.2.2.3.1.5V104.5l.3.4.3.2.4.5.1.2v.7l.1.3.1.1 1 1 .2.4v.2h.3l-.2.7v.3l.4.2.4.1-.6.9-.2.5V112.4l.7 1.3.3.4.1.5.5.5h.4v-1.3l-.2-2v-1l.3-.5.2-.2.5-.7.2-.1.1-.3.7-1.5.4-.4 1.7-1.4v-.3l-.6-.7-.5-.8zm-48-3.2v-.5l-.4-.2-1-.4-.5-.3-.8-1-.5-.1h-.2l-.2.2-.1.2-.2.1h-.7l-1.1.5h-.3l-.1-.5.3-.3 1-.2.3-.2.4-.3.5-.7-.5-.8-.3-.3-.3-.1h-.8l-.2-.2.2-.2H29.3V95h-.4l-.1-.3v-.3l.1-.1h.3l.2-.2.5-.3.2-.2.1-.3.2-.1.3-.1 1.2.2h.3l.3-.1.3-.2V93l.1-.6.1-.3.2-.3v-1l-.2-.2h-.3l-.8-1.4-.2-.2v-.3l.3-.2V88l-.3-.3-.2-.2-.4-.3v-.6l.1-.4V86l-.3-.6-.1-.4.3-.1.6-.2.3-.2.2-.4.1-.5v-.4l-1.2-.6h-.2l-.2.1-1 .3h-.4l-.3-.2.3-.3.8-.3.3-.4-.1-.2h.2l.5.2h.6l.5-.4 1.3-.3v-.8l.2-.2h.5l.3-.2.5-.7 1-.9.4-.4H34l-.2-.4-.2-.3-.2-.5-1-1-.3-.2h-1.5l-.4-.2v-.5l.6.2H33l.7.7 1.3.5h.6l1-.6 2.2-.6.5.3.2-.2-.2-.7.3-.4.8-.5v-.2h-.8V73l.1-.7.4-.7v-.4l-.2-.1-2.8-.7-.6-.5.5-.2 1 .1.6-.2.2-.2v-.2l.2-.3.3-.1 2-.1h.2l.2.3v.5l.2.3.3.5.2.2h.4l.2-.2V70l.2-.3v-.3L43 69h-.1l.1-.3.3-.2.2-.2.2-.2.4-.7.1-.3v-1.9l.1-.4.5-1.1-.1-.3-.4.1-.4.2.3-.7.3-.6v-1.7l-.4-.6-.3-.5-.1-.6.2-.8.5-.7 1.1-.9.5-.6.6-1.2.1-.2h.3l.2-.2v-.3l.2-.5.2.3.6-.3.2.2.2.2.3.2.2.2h.3l-.6 1.1v.5l.3.6-.2.5-.4-.1-.3-.4-.3-.2-.4.1-.7.6h-.5l.5.6.3.5.3.3.6-.1.4-.3h.2l.9.2.1.2.2.4h-.2l-.3.3-.2.2.2.4.2.7.2.3H50.3l.3-.1.2-.3V60l-.3-.9-.2-.8.7-.8.4-.8.5-.6.5.2.3.2h.2l.2.2v.9l-.2.2h-.6l.5 1 .7.4h.7l.2-1.2v-1.6l.4-.5 1-.6 1.8-2.7.3-.8-.2-.7v-1l.3-.8.5-.5v-.2l-1.2-1.3-.7-1.1-.3-.4-.6-.4H55l-4.8.7-1.7-.2L47 45l-.6-.5v-.2l-.1-.2-.1-.8v-.2l-.5-.3-.3.2-.7 1-.8.6-.2.5-.1 1v1.3l-.2.2h-.6l.2-.3.2-.4.2-.6-.2-.4v-.3l.2-1.2.2-.1 1-1.1 1.4-1 .3-1.1v-1.2l-.4-.8-.5.1-.5.4H44l-1.3-.2V39l.1-.1-.6-.2h-.4l-.1.5v.3l-.3.2-.2.1h-.3l-.4-.2H40.2v.4l-.1.1h-.3l-.7.5-3 1-1-.2v-.3l2.8-.4 1-.6.7-.3.6-.5.3-.2h.3l.2-.1.5-.4.5-.2h.4l.4.3.3.4.4-.4H45l.4.2h.2l.3-.3v-.3l-.3-.2-.2-.2-.4-1.6-.2-.8v-1.4l-.3-2-.2-.5.1-.3.1-1 .1-.5.2-.3.5-.7-.3-.2h-1.7l-.4-.2-.8-.7-.7-.4-2-2-.4-.2-.3.1-.4.3-.4.6h-.4l.4-.2.6-1 .4-.2.5.2.7.7.8.3 1.3 1.4 1.7 1.1.3-.1h1.3l.2-.1.2-.2.2-.2.2-.6.5-1.8.3-1.6.3-1 .7-1.5.5-.6 1-.8.4-.5-.5-3.8v-2l.6-1.6-.7-1.9-1-1.5-.6-1.7.6-2.3 1.7-2.5 1-1 1.1-.5-.5-.4h-1.2l-.5.2-1.3 1L46.2 4l-1.5 1-1.6.8-1.8.3-1.9-.2-1 .2-.5.8-.2.2-.7 1.3-1.4 1.6-.8 1.1-4.3 8-1.6 1.7-1.7 1.2-1.8.7-1.9.2-5-.7-.4.1-1 1.1-.7.5-1.9.4h-1l-1.6-.7h-.7l-.6.6-1.7 2.6L7.8 28l-3.6 5.9-.5 1.1-.2 1.6v1.7l.2.7H4v-1.3l-.4-1.4H4l.5.4.3.1.1.2.3 1.4.2.5.5.5.4.5.3.1.5.1.6.4.5.4.1.5.2.5.6.6.5.5h.4l-.2-.1v-.2h.1l.3-.1.3-.2.2-.2.3-.6-.1-.3-.3-.5v-1.3l-.3-.1-1.4.6h-.2l-.5-.4-.3-.1-1 .3v-.3l.3-.1.4-.3.3-.1H8l.5.4h.5l.3-.1.1-.3-.1-.5h-1v-.2l.3-.3v-.6L8.5 36l.2-.5.3-.2.3-.1.2-.2V35h.3l.5-.1.6-1 .1-.1.1-.2V33l.2-1 .2-.5.4-.3.2-.4.1-.7.3-.3.4-.3h.5l.7.2 1-.6.8-.7-.3-.3.3-.2h.5l.4.1.2.5h.1l.4-.5.4-.4h.3l.3-.4.4-.3h.3l.4.2-.1.2h.3l.2-.1.5-.4.7-.3.2-.2-.2-.5 2.3 1.9.4.2h.4l4.6-1.7h1.8l.8-.4.7-.7h.4l.3.3.4.3.5-.2.3-.4.7-1h.4l.4.3.6.3 1.2 1-2.1.3-1-.2-.6.4-.8.3-.4.5-.3.7-.8 1.2-.2.2H31l-.3-.2-.2-.2v-.2l.3-.2v-.3l-2.4-1h-.6l-3 1v.2l-.2.5-.1.1H24.2l-.2.2-.6.6-.4.6-.4.7-.4 1 .3.3.2.1h.2l.2.3v.4l.1.5-.1.2v.1l-.5.8h-.1v1l.2.4v.2l.2.3.2.2.2.2.5.2v.7l-.3.6-1 .6-.2.4.2.5h.4l.5-.3.2-.3.8-.3h.5l.2.2.4 1-.2 1-.3 1.2v1.4l-.1.1v.2l.2.1H25.4l.7-.4.4.3v.4l-.2.3-.3-.3-.2.2-.2.6h-.2l-.1-.2V45l-.1-.1-.5-.3-.2-.2-.2-.3v-.4l-.3-.1.3-.5.4-.7v-.3l-.1-.5H24l-.3-.1H22l.2-.9H22v.5l-.2.3-.2.3-.1.4.2-.1H22l.2.4h-1l-.3 1.3-.3.4h-.3l-.2-.3V42l.1-.5.6-.6.2-.3v-.6l.5-.1.5-1 .6-.1-.3-.8-.2-.4-.3-.4-.3-.5-.2-.8-.1-.5-.4-.3-.5-.1h-.4l-.2.1v.2l-.2.2H19l-.3-.2H18l-1 1-.6.4-.2.4-.3.5-.2.7.2.2h1l.4.2-1.1.1-.9.3-.3.2-1.3 2.2h-.9l-.3.3v.3l.4.2v.7l.2.2H13.4l.7.6v.3l-.1.2-.1.2-.1.7v1.3l-.2.2v.2l-.2.1-1.2.3h-.4l-.2-.2-.4-.5-.3-.3-.2-.3v-.8l-.5-1.7H10l-.2.4-.2.4-.3.3-.3.1-1-.8H8l-.4-.4-1-.2h-1l-.5.2v.3l.1.3v.3H4.9l-.2-.4V43.2L5 43l-.3-.2-.8-.1-.1-.2-.1-.3-.1-.4-.1-.1h-.4v-.1l-.2-.1v-.3l.1-.3.5-1.2v-.3l-.2-.1V39l-.2-.1-.3.4-.4 1-1 3.2v.6l-.1.6.2 12.6v.8l-.6 2.3V63.8l.2.4v.4l.1.2h.3v-.7l.1-.9V61l.2-.3h.4l1.6.7.7.5.5.9.2 1.3v1l.8 1 .3.6.3.6.1.7-.1.5-.8.9-.8.6-.5.2-1 .7-.8.5h-.2l-.1-.6v-.4l.3-.4v-.8l-.4-1-.5-2.7-.1-.2-.1-.2-.2-.1v.5l.1.4 1 7v1.4l-.3 1.5-.4 1.4-1.1 3v.6l.3.3 1.2.2.5.3 2.4 2 .3-.1-.2-.6-.5-.5-.5-.4h-.5l.3-.4v-.1h.3l-.6-.7-.1-.3.2-.5.4-.3.4-.1h.5l.4.1v.3H5v.3L6.9 83l.8.8 1 .3H10l.7.2.6.4.2.7.2.7.2 1.6.2 1v.7l-.2.5v.4l.1 1.5.3 1.5.4 1.2v.7l-.4.1-1.1-.2-1.2-.2v-.4l.3-.5.2-.1.3-.1-.4-.5-.9-.2h-.8l-.4.8-.1.9-.1.8v.9l.2.9.3.3.3.1.3-.2.2-.4.3-.2h.2l.1-.3v-1.3l.2-.3h.2l2.1.3-.2 1-.3.8-.2 1v1l.1 1 .3.8.2.9-.3 1 .2.2-.2.6.7.2h.8l1.3-.5h.5l1.6.2 1.6.7 4.3 1 .3.3.2.3v.5l.2.4.3.2h1.8l.2-.3h.3l.2-.3h.4l.4.3h.6v-.7l.4-.5.8-.7.4-.4.2-.2h.5v-.1l.2-.3.2-.4.3-.7.1-.2.6-.2.5.3v.4l-.5.2-.1.1.1.3.4.6v.2l-.2.1v.2l.4.2h1.1l.1.1.3.7.2.1.3-.1.1-.4v-.4l-.1-.3-.1-.2-.2-.2-.3-.2h-.2l.1-.5h.3l.2.2h.3l.3-.1V103.3l-.5-2.6zm18-3H53.7l.3-.3.2-.3v-.4l.3-.4.5-.7V94.7l.1-.3.3-.7.2-.6v-1.5l-.2-.5-.5-.8-.2-.5.2-.6.3-.1.4.2.2.4h.2l-.1-.6-.6-1.5v-.3l-2-2.9-.4-.3-1.3-.3h-.4l-.2.3v.1l.1.2-.3.2h-.3l-.2-.3.1-.4.2-.2.4-.1 1.4.1 1-.4.5-.4.2-.2V82l-.5-.4v-.1l-.2-.2v-.8l-1-1.5-.6-.7h-.4v.3l.1.9v.6l-.3-.3v-.2.6l.3.6v.6l-.2.4-.1-.2-.3-.2-.3-.2v.5l.2.2.2.1h.2v.2l.2.2v.3l-.8.3-1.3.7H49l-.4.7H48l-.3-.5.8-1.1.2-.1H49l.1-.4v-.2l-.3-.2V81.3l.2-.2h.3l.4.1-.6-.4-.4-.1h-.3l-.2-.2-.2-.2-.3-.4-.3-.4-1.4-1-.6-.3h-.3l.1.8v.3h-.4v-.1l-.2-.5v-.1H44l-.5.2-1 .6-2.6 1-2 1.3-1 .4-1-.6-.1-.3v-.3l-.1-.2-.4-.1-1 .2-.8 1-.3.1-.2.1-.2.2-.1.3.7.2 2 1.8-.5.1-.6-.3-.6-.5-.5-.3v.2l.7.9.3.1.7.1.4.3.2.4h-.7l1.1.4-.2.4-.3.2H35l-.3.2.5.6.3.2.2.1H36.6l.2.2v1.4l.2.6V90.4l-.2.3v.4l.2.3v.2l.2.2.2.2.2.2.8.2.4.1v.3l-.1.4v.7l.2.8v.8l.7.2h.1V95l-.6-1v-.6l.2-.3h.2l.5.5h.6l.2-.1.3-.1.4.1.3.5.2.5.4.5-.3.6-1.6 1.1.4.2.8-.2h.4l.3.2.6.5.3.2V97l.1-.3h.6l1.6 1h1l.2.2.1.2h.2l.5.2 1.3.1.8.5h.4l.4-.3.2-.4.4-.2.4-.2.3-.1zM76.5 108l-.2-.4-1-.8-.3-.6.3-.3H75l-.4-.3-.4-.6-.2-.5-1.5-1.4v.4l-.1.4v.5l.2.4h-.2l-.5.2h-.5l-.5.4v.3l.3.4.2.6-3.6-2-.5-.2-.5-.3-.6-1.3-.4-.3-.3-.2-1-.8-.5-.2-2.9.6-.3-.2-.8 1-.3.6v.6l.1.3 1 1.3.4.2.3.1-.4.8H60l-.5.2-.1.6.2.5.4.4 1.1.3 1.1.5 1 .2 2.2 1.4 1.3 1 1.9 1.2h.4l.8-.6 1-.5 1-.2 3.1.7 1-.3.6-.8v-.7l-.7-.4.1-.4h.2l.2-.2.2-.2.2-.4v-.5l-.1-.5zM57.3 95.8l-.7 1.7-.2 1-1.1 1.6-.5.4-1.1 1.3-.4.7-.3.8.2.1H53.5l.2-.1v.4l.1.3-.5.2-.3-.2v.2l-.3.5-.3.5-.3.3-.3.2h-.4l.6.5.2.3.2.4.6 2 .2.4h.5l.3-.2.2-.4 2-6.4 1-2.2.3-1.1 1-4.4-.5-.2-.7 1.4zM9.6 36.9l-.2.1-.1.2-.1.2v.4h.1l.6-.2h.2l.5.2.5.6.2.3.5 1.2.2.1.6-.3 1.6-.4.1-.7.9-.7.2-.3.3-.5.3-.8.3-.4-.2-.2H16h.2l.1-.1h.1l.2-.3-.4-.1-.2-.4-.1-1.2-.1-.2-.1-.2V32.6l.1-.1.5-.4h.2l.1.2.1.3v.5l.2-.2v-.1l.2-.5.3-1.2v-.4l-.2-.5v-.4l.2-.5.1-.3h-.3l-.2.4-.3.4-.5-.3-.6 1.4-.4.5-.5-.1-.6.3-1.2.2-.5.2h-.5v1.1l-.1.3-.4.6-.1.3.2.2h.8l-.5.7-1.5.2-.5.4v.2l.1.3V37h-.3zm80.2 62.4l-1.7-.3-1.7-.1-.7-.3-.4-.8H85l-.2.1-.1.3v.3l.3.3.6.4v.3h-.2V100.5l-.2.2-.7.3h-.2l-.3-.1-.5-.3h-.3l.2.4-.2.3-.3-.2-.2.1-.5.5.1.1.2.3.1.1-.2.2-.2.2V103H82v.2l1.3.6.5.1.4-.2 1-1.4.8-.7.7-.3h.7l2.4.4h.8l.2-.3v-.3l-.3-1.2-.7-.7zM92 75.6V75.3l-.3.3-.4 1-.2.4-.2.2-.3.2-.2.4-.2.4v.8l.3 1 .4.6h.4l.2-.3.3-.3.4-.3h.3l.7-.9v-.1l-1.1-3v-.1zM49.3 105v-.6l-.3-.3-.4-.2-.3-.4.3.7v.2l-.4.1h-.4l-.2-.2-.3-1-.3-.4.2.5-.1.3-.3.1h-.3l-.3-.1-.2-.4-.5-.7-.5-.5-1.7-1-.3-.3.2.6.3.8L47 106l.4.2.3-.1.4-.5 1.6-.4h-.2l-.2-.2zm-10-4l-.4-.8-.5-.7-.7-.4-.9-.1-.6-.4-1.2-1.4-.7-.2-.8.2-1.7.8v.3l.3.2h.3l.4-.2h.3v.2l-.4.3-.1.2v.3h.3l.2.1.2.2h.3l1.6-.1v.2l-.3.4.2.2.8.6.2.2H36l-.1.2v.2l.2.2v.2h-.3l-.5-.3-.5-.6-.5-.3v.2h.2l-.1 1.1.4 1 .7.5h1l.2-.3.2-.1h.3l.9.3 1 .9v.2l-.6-.2-.7-.5-.6-.3-.5.3v.2l.3.3.9.3.3.3h.3l.4-.2.4-.3.3-.1H40.5v-.4l-.8-2.4-.3-.6zm13.2-31.6l.3-.5-.1-.3-.1.2-.2.4-.3.2-.3-.5-.2-.4v-.8l.2-.3-.5-.2-.5-.4-.3-.6-.1-1.5H50l-.3.2-.2.5v.9l.2.4.4.1.4.3.3.6v.6l-.1.6-.3.5-.4.2-.2.2-.3.3v.7l.1 1.3.6.8.7.2.7-.6.2-.6V70.1l.6-.7zm4.7-50.6l.8-.2.3.2.6.9.2.2.8-.3.5-.2.3-.2.3-.5.2-.6v-.5l-.4-.2 1.7-.7h.2l.2-.2h.5v-.4l-.2-.2h-.8L60 16h-.2l-.4.4-.3.1h-.9l-.6.5-.7.8-.5.2v.3l.4.3h.3zm12.8 21l.4.1h.8l.2-.3.2-.4.3-.4.3-.2.2-.2h.1V38l-.8.3-1.8.2-.2.2v.5l.3.4zM8.2 87.5l-.2-.7-.1-.4v-.3l.2-.8V85l-.3-.3h-.4l-.3-.1-.1-1-.7.1-.2.5.1.8.7 1.7.4.8.5.6.6-.2-.2-.3zm87.2-10.4v-.5l-.2-.3H95l-.2.2-.2.9v.1l.2.4.1.2h.1l.1.1v.2l.1.1h.2l.2-.3v-1.1zm-24.7 24v-.4l-.2-.2h-.6l-.4.2.7 1 .5-.5zm-25.4-29l-.2.7v.1l-1 .2-.1.2.1.2 1.4.2.1-.1.2-.6-.1-.6-.2-.3h-.2z" fill="none" fill-rule="evenodd"/></svg>