
<svg width="101px" height="100px" viewBox="0 0 101 100" version="1.1" xmlns="http://www.w3.org/2000/svg" xmlns:xlink="http://www.w3.org/1999/xlink">
    <!-- Generator: Sketch 51.2 (57519) - http://www.bohemiancoding.com/sketch -->
    <desc>Created with Sketch.</desc>
    <defs></defs>
    <g id="Page-1" stroke="none" stroke-width="1" fill="none" fill-rule="evenodd">
        <g id="Flag_of_Europe" transform="translate(-7.000000, -7.000000)" fill="#FFCC00" fill-rule="nonzero">
            <g id="Group">
                <g id="s-link" transform="translate(43.125000, 0.000000)">
                    <g id="s">
                        <g id="c" transform="translate(7.187500, 7.187500)">
                            <polygon id="t" transform="translate(9.494830, 4.528389) rotate(18.000000) translate(-9.494830, -4.528389) " points="5.90107953 0.934639179 5.90107953 8.12213918 9.49482953 8.12213918"></polygon>
                            <g id="t-link" transform="translate(7.187500, 7.187500) scale(-1, 1) translate(-7.187500, -7.187500) ">
                                <polygon id="t" transform="translate(9.494830, 4.528389) rotate(18.000000) translate(-9.494830, -4.528389) " points="5.90107953 0.934639179 5.90107953 8.12213918 9.49482953 8.12213918"></polygon>
                            </g>
                        </g>
                        <g id="a">
                            <g id="c-link" transform="translate(14.375000, 14.375000) rotate(72.000000) translate(-14.375000, -14.375000) translate(7.187500, 7.187500)">
                                <g id="c">
                                    <polygon id="t" transform="translate(9.494830, 4.528389) rotate(18.000000) translate(-9.494830, -4.528389) " points="5.90107953 0.934639179 5.90107953 8.12213918 9.49482953 8.12213918"></polygon>
                                    <g id="t-link" transform="translate(7.187500, 7.187500) scale(-1, 1) translate(-7.187500, -7.187500) ">
                                        <polygon id="t" transform="translate(9.494830, 4.528389) rotate(18.000000) translate(-9.494830, -4.528389) " points="5.90107953 0.934639179 5.90107953 8.12213918 9.49482953 8.12213918"></polygon>
                                    </g>
                                </g>
                            </g>
                            <g id="c-link" transform="translate(14.375000, 14.375000) rotate(144.000000) translate(-14.375000, -14.375000) translate(7.187500, 7.187500)">
                                <g id="c">
                                    <polygon id="t" transform="translate(9.494830, 4.528389) rotate(18.000000) translate(-9.494830, -4.528389) " points="5.90107953 0.934639179 5.90107953 8.12213918 9.49482953 8.12213918"></polygon>
                                    <g id="t-link" transform="translate(7.187500, 7.187500) scale(-1, 1) translate(-7.187500, -7.187500) ">
                                        <polygon id="t" transform="translate(9.494830, 4.528389) rotate(18.000000) translate(-9.494830, -4.528389) " points="5.90107953 0.934639179 5.90107953 8.12213918 9.49482953 8.12213918"></polygon>
                                    </g>
                                </g>
                            </g>
                        </g>
                        <g id="a-link" transform="translate(14.375000, 14.375000) scale(-1, 1) translate(-14.375000, -14.375000) ">
                            <g id="a">
                                <g id="c-link" transform="translate(14.375000, 14.375000) rotate(72.000000) translate(-14.375000, -14.375000) translate(7.187500, 7.187500)">
                                    <g id="c">
                                        <polygon id="t" transform="translate(9.494830, 4.528389) rotate(18.000000) translate(-9.494830, -4.528389) " points="5.90107953 0.934639179 5.90107953 8.12213918 9.49482953 8.12213918"></polygon>
                                        <g id="t-link" transform="translate(7.187500, 7.187500) scale(-1, 1) translate(-7.187500, -7.187500) ">
                                            <polygon id="t" transform="translate(9.494830, 4.528389) rotate(18.000000) translate(-9.494830, -4.528389) " points="5.90107953 0.934639179 5.90107953 8.12213918 9.49482953 8.12213918"></polygon>
                                        </g>
                                    </g>
                                </g>
                                <g id="c-link" transform="translate(14.375000, 14.375000) rotate(144.000000) translate(-14.375000, -14.375000) translate(7.187500, 7.187500)">
                                    <g id="c">
                                        <polygon id="t" transform="translate(9.494830, 4.528389) rotate(18.000000) translate(-9.494830, -4.528389) " points="5.90107953 0.934639179 5.90107953 8.12213918 9.49482953 8.12213918"></polygon>
                                        <g id="t-link" transform="translate(7.187500, 7.187500) scale(-1, 1) translate(-7.187500, -7.187500) ">
                                            <polygon id="t" transform="translate(9.494830, 4.528389) rotate(18.000000) translate(-9.494830, -4.528389) " points="5.90107953 0.934639179 5.90107953 8.12213918 9.49482953 8.12213918"></polygon>
                                        </g>
                                    </g>
                                </g>
                            </g>
                        </g>
                    </g>
                </g>
                <g id="s-link" transform="translate(43.125000, 86.250000)">
                    <g id="s">
                        <g id="c" transform="translate(7.187500, 7.187500)">
                            <polygon id="t" transform="translate(9.494830, 4.528389) rotate(18.000000) translate(-9.494830, -4.528389) " points="5.90107953 0.934639179 5.90107953 8.12213918 9.49482953 8.12213918"></polygon>
                            <g id="t-link" transform="translate(7.187500, 7.187500) scale(-1, 1) translate(-7.187500, -7.187500) ">
                                <polygon id="t" transform="translate(9.494830, 4.528389) rotate(18.000000) translate(-9.494830, -4.528389) " points="5.90107953 0.934639179 5.90107953 8.12213918 9.49482953 8.12213918"></polygon>
                            </g>
                        </g>
                        <g id="a">
                            <g id="c-link" transform="translate(14.375000, 14.375000) rotate(72.000000) translate(-14.375000, -14.375000) translate(7.187500, 7.187500)">
                                <g id="c">
                                    <polygon id="t" transform="translate(9.494830, 4.528389) rotate(18.000000) translate(-9.494830, -4.528389) " points="5.90107953 0.934639179 5.90107953 8.12213918 9.49482953 8.12213918"></polygon>
                                    <g id="t-link" transform="translate(7.187500, 7.187500) scale(-1, 1) translate(-7.187500, -7.187500) ">
                                        <polygon id="t" transform="translate(9.494830, 4.528389) rotate(18.000000) translate(-9.494830, -4.528389) " points="5.90107953 0.934639179 5.90107953 8.12213918 9.49482953 8.12213918"></polygon>
                                    </g>
                                </g>
                            </g>
                            <g id="c-link" transform="translate(14.375000, 14.375000) rotate(144.000000) translate(-14.375000, -14.375000) translate(7.187500, 7.187500)">
                                <g id="c">
                                    <polygon id="t" transform="translate(9.494830, 4.528389) rotate(18.000000) translate(-9.494830, -4.528389) " points="5.90107953 0.934639179 5.90107953 8.12213918 9.49482953 8.12213918"></polygon>
                                    <g id="t-link" transform="translate(7.187500, 7.187500) scale(-1, 1) translate(-7.187500, -7.187500) ">
                                        <polygon id="t" transform="translate(9.494830, 4.528389) rotate(18.000000) translate(-9.494830, -4.528389) " points="5.90107953 0.934639179 5.90107953 8.12213918 9.49482953 8.12213918"></polygon>
                                    </g>
                                </g>
                            </g>
                        </g>
                        <g id="a-link" transform="translate(14.375000, 14.375000) scale(-1, 1) translate(-14.375000, -14.375000) ">
                            <g id="a">
                                <g id="c-link" transform="translate(14.375000, 14.375000) rotate(72.000000) translate(-14.375000, -14.375000) translate(7.187500, 7.187500)">
                                    <g id="c">
                                        <polygon id="t" transform="translate(9.494830, 4.528389) rotate(18.000000) translate(-9.494830, -4.528389) " points="5.90107953 0.934639179 5.90107953 8.12213918 9.49482953 8.12213918"></polygon>
                                        <g id="t-link" transform="translate(7.187500, 7.187500) scale(-1, 1) translate(-7.187500, -7.187500) ">
                                            <polygon id="t" transform="translate(9.494830, 4.528389) rotate(18.000000) translate(-9.494830, -4.528389) " points="5.90107953 0.934639179 5.90107953 8.12213918 9.49482953 8.12213918"></polygon>
                                        </g>
                                    </g>
                                </g>
                                <g id="c-link" transform="translate(14.375000, 14.375000) rotate(144.000000) translate(-14.375000, -14.375000) translate(7.187500, 7.187500)">
                                    <g id="c">
                                        <polygon id="t" transform="translate(9.494830, 4.528389) rotate(18.000000) translate(-9.494830, -4.528389) " points="5.90107953 0.934639179 5.90107953 8.12213918 9.49482953 8.12213918"></polygon>
                                        <g id="t-link" transform="translate(7.187500, 7.187500) scale(-1, 1) translate(-7.187500, -7.187500) ">
                                            <polygon id="t" transform="translate(9.494830, 4.528389) rotate(18.000000) translate(-9.494830, -4.528389) " points="5.90107953 0.934639179 5.90107953 8.12213918 9.49482953 8.12213918"></polygon>
                                        </g>
                                    </g>
                                </g>
                            </g>
                        </g>
                    </g>
                </g>
                <g id="l">
                    <g id="s-link" transform="translate(0.000000, 43.125000)">
                        <g id="s">
                            <g id="c" transform="translate(7.187500, 7.187500)">
                                <polygon id="t" transform="translate(9.494830, 4.528389) rotate(18.000000) translate(-9.494830, -4.528389) " points="5.90107953 0.934639179 5.90107953 8.12213918 9.49482953 8.12213918"></polygon>
                                <g id="t-link" transform="translate(7.187500, 7.187500) scale(-1, 1) translate(-7.187500, -7.187500) ">
                                    <polygon id="t" transform="translate(9.494830, 4.528389) rotate(18.000000) translate(-9.494830, -4.528389) " points="5.90107953 0.934639179 5.90107953 8.12213918 9.49482953 8.12213918"></polygon>
                                </g>
                            </g>
                            <g id="a">
                                <g id="c-link" transform="translate(14.375000, 14.375000) rotate(72.000000) translate(-14.375000, -14.375000) translate(7.187500, 7.187500)">
                                    <g id="c">
                                        <polygon id="t" transform="translate(9.494830, 4.528389) rotate(18.000000) translate(-9.494830, -4.528389) " points="5.90107953 0.934639179 5.90107953 8.12213918 9.49482953 8.12213918"></polygon>
                                        <g id="t-link" transform="translate(7.187500, 7.187500) scale(-1, 1) translate(-7.187500, -7.187500) ">
                                            <polygon id="t" transform="translate(9.494830, 4.528389) rotate(18.000000) translate(-9.494830, -4.528389) " points="5.90107953 0.934639179 5.90107953 8.12213918 9.49482953 8.12213918"></polygon>
                                        </g>
                                    </g>
                                </g>
                                <g id="c-link" transform="translate(14.375000, 14.375000) rotate(144.000000) translate(-14.375000, -14.375000) translate(7.187500, 7.187500)">
                                    <g id="c">
                                        <polygon id="t" transform="translate(9.494830, 4.528389) rotate(18.000000) translate(-9.494830, -4.528389) " points="5.90107953 0.934639179 5.90107953 8.12213918 9.49482953 8.12213918"></polygon>
                                        <g id="t-link" transform="translate(7.187500, 7.187500) scale(-1, 1) translate(-7.187500, -7.187500) ">
                                            <polygon id="t" transform="translate(9.494830, 4.528389) rotate(18.000000) translate(-9.494830, -4.528389) " points="5.90107953 0.934639179 5.90107953 8.12213918 9.49482953 8.12213918"></polygon>
                                        </g>
                                    </g>
                                </g>
                            </g>
                            <g id="a-link" transform="translate(14.375000, 14.375000) scale(-1, 1) translate(-14.375000, -14.375000) ">
                                <g id="a">
                                    <g id="c-link" transform="translate(14.375000, 14.375000) rotate(72.000000) translate(-14.375000, -14.375000) translate(7.187500, 7.187500)">
                                        <g id="c">
                                            <polygon id="t" transform="translate(9.494830, 4.528389) rotate(18.000000) translate(-9.494830, -4.528389) " points="5.90107953 0.934639179 5.90107953 8.12213918 9.49482953 8.12213918"></polygon>
                                            <g id="t-link" transform="translate(7.187500, 7.187500) scale(-1, 1) translate(-7.187500, -7.187500) ">
                                                <polygon id="t" transform="translate(9.494830, 4.528389) rotate(18.000000) translate(-9.494830, -4.528389) " points="5.90107953 0.934639179 5.90107953 8.12213918 9.49482953 8.12213918"></polygon>
                                            </g>
                                        </g>
                                    </g>
                                    <g id="c-link" transform="translate(14.375000, 14.375000) rotate(144.000000) translate(-14.375000, -14.375000) translate(7.187500, 7.187500)">
                                        <g id="c">
                                            <polygon id="t" transform="translate(9.494830, 4.528389) rotate(18.000000) translate(-9.494830, -4.528389) " points="5.90107953 0.934639179 5.90107953 8.12213918 9.49482953 8.12213918"></polygon>
                                            <g id="t-link" transform="translate(7.187500, 7.187500) scale(-1, 1) translate(-7.187500, -7.187500) ">
                                                <polygon id="t" transform="translate(9.494830, 4.528389) rotate(18.000000) translate(-9.494830, -4.528389) " points="5.90107953 0.934639179 5.90107953 8.12213918 9.49482953 8.12213918"></polygon>
                                            </g>
                                        </g>
                                    </g>
                                </g>
                            </g>
                        </g>
                    </g>
                    <g id="s-link" transform="translate(35.937500, 20.152654) rotate(-144.000000) translate(-35.937500, -20.152654) translate(21.562500, 5.777654)">
                        <g id="s">
                            <g id="c" transform="translate(7.187500, 7.187500)">
                                <polygon id="t" transform="translate(9.494830, 4.528389) rotate(18.000000) translate(-9.494830, -4.528389) " points="5.90107953 0.934639179 5.90107953 8.12213918 9.49482953 8.12213918"></polygon>
                                <g id="t-link" transform="translate(7.187500, 7.187500) scale(-1, 1) translate(-7.187500, -7.187500) ">
                                    <polygon id="t" transform="translate(9.494830, 4.528389) rotate(18.000000) translate(-9.494830, -4.528389) " points="5.90107953 0.934639179 5.90107953 8.12213918 9.49482953 8.12213918"></polygon>
                                </g>
                            </g>
                            <g id="a">
                                <g id="c-link" transform="translate(14.375000, 14.375000) rotate(72.000000) translate(-14.375000, -14.375000) translate(7.187500, 7.187500)">
                                    <g id="c">
                                        <polygon id="t" transform="translate(9.494830, 4.528389) rotate(18.000000) translate(-9.494830, -4.528389) " points="5.90107953 0.934639179 5.90107953 8.12213918 9.49482953 8.12213918"></polygon>
                                        <g id="t-link" transform="translate(7.187500, 7.187500) scale(-1, 1) translate(-7.187500, -7.187500) ">
                                            <polygon id="t" transform="translate(9.494830, 4.528389) rotate(18.000000) translate(-9.494830, -4.528389) " points="5.90107953 0.934639179 5.90107953 8.12213918 9.49482953 8.12213918"></polygon>
                                        </g>
                                    </g>
                                </g>
                                <g id="c-link" transform="translate(14.375000, 14.375000) rotate(144.000000) translate(-14.375000, -14.375000) translate(7.187500, 7.187500)">
                                    <g id="c">
                                        <polygon id="t" transform="translate(9.494830, 4.528389) rotate(18.000000) translate(-9.494830, -4.528389) " points="5.90107953 0.934639179 5.90107953 8.12213918 9.49482953 8.12213918"></polygon>
                                        <g id="t-link" transform="translate(7.187500, 7.187500) scale(-1, 1) translate(-7.187500, -7.187500) ">
                                            <polygon id="t" transform="translate(9.494830, 4.528389) rotate(18.000000) translate(-9.494830, -4.528389) " points="5.90107953 0.934639179 5.90107953 8.12213918 9.49482953 8.12213918"></polygon>
                                        </g>
                                    </g>
                                </g>
                            </g>
                            <g id="a-link" transform="translate(14.375000, 14.375000) scale(-1, 1) translate(-14.375000, -14.375000) ">
                                <g id="a">
                                    <g id="c-link" transform="translate(14.375000, 14.375000) rotate(72.000000) translate(-14.375000, -14.375000) translate(7.187500, 7.187500)">
                                        <g id="c">
                                            <polygon id="t" transform="translate(9.494830, 4.528389) rotate(18.000000) translate(-9.494830, -4.528389) " points="5.90107953 0.934639179 5.90107953 8.12213918 9.49482953 8.12213918"></polygon>
                                            <g id="t-link" transform="translate(7.187500, 7.187500) scale(-1, 1) translate(-7.187500, -7.187500) ">
                                                <polygon id="t" transform="translate(9.494830, 4.528389) rotate(18.000000) translate(-9.494830, -4.528389) " points="5.90107953 0.934639179 5.90107953 8.12213918 9.49482953 8.12213918"></polygon>
                                            </g>
                                        </g>
                                    </g>
                                    <g id="c-link" transform="translate(14.375000, 14.375000) rotate(144.000000) translate(-14.375000, -14.375000) translate(7.187500, 7.187500)">
                                        <g id="c">
                                            <polygon id="t" transform="translate(9.494830, 4.528389) rotate(18.000000) translate(-9.494830, -4.528389) " points="5.90107953 0.934639179 5.90107953 8.12213918 9.49482953 8.12213918"></polygon>
                                            <g id="t-link" transform="translate(7.187500, 7.187500) scale(-1, 1) translate(-7.187500, -7.187500) ">
                                                <polygon id="t" transform="translate(9.494830, 4.528389) rotate(18.000000) translate(-9.494830, -4.528389) " points="5.90107953 0.934639179 5.90107953 8.12213918 9.49482953 8.12213918"></polygon>
                                            </g>
                                        </g>
                                    </g>
                                </g>
                            </g>
                        </g>
                    </g>
                    <g id="s-link" transform="translate(20.152654, 35.937500) rotate(144.000000) translate(-20.152654, -35.937500) translate(5.777654, 21.562500)">
                        <g id="s">
                            <g id="c" transform="translate(7.187500, 7.187500)">
                                <polygon id="t" transform="translate(9.494830, 4.528389) rotate(18.000000) translate(-9.494830, -4.528389) " points="5.90107953 0.934639179 5.90107953 8.12213918 9.49482953 8.12213918"></polygon>
                                <g id="t-link" transform="translate(7.187500, 7.187500) scale(-1, 1) translate(-7.187500, -7.187500) ">
                                    <polygon id="t" transform="translate(9.494830, 4.528389) rotate(18.000000) translate(-9.494830, -4.528389) " points="5.90107953 0.934639179 5.90107953 8.12213918 9.49482953 8.12213918"></polygon>
                                </g>
                            </g>
                            <g id="a">
                                <g id="c-link" transform="translate(14.375000, 14.375000) rotate(72.000000) translate(-14.375000, -14.375000) translate(7.187500, 7.187500)">
                                    <g id="c">
                                        <polygon id="t" transform="translate(9.494830, 4.528389) rotate(18.000000) translate(-9.494830, -4.528389) " points="5.90107953 0.934639179 5.90107953 8.12213918 9.49482953 8.12213918"></polygon>
                                        <g id="t-link" transform="translate(7.187500, 7.187500) scale(-1, 1) translate(-7.187500, -7.187500) ">
                                            <polygon id="t" transform="translate(9.494830, 4.528389) rotate(18.000000) translate(-9.494830, -4.528389) " points="5.90107953 0.934639179 5.90107953 8.12213918 9.49482953 8.12213918"></polygon>
                                        </g>
                                    </g>
                                </g>
                                <g id="c-link" transform="translate(14.375000, 14.375000) rotate(144.000000) translate(-14.375000, -14.375000) translate(7.187500, 7.187500)">
                                    <g id="c">
                                        <polygon id="t" transform="translate(9.494830, 4.528389) rotate(18.000000) translate(-9.494830, -4.528389) " points="5.90107953 0.934639179 5.90107953 8.12213918 9.49482953 8.12213918"></polygon>
                                        <g id="t-link" transform="translate(7.187500, 7.187500) scale(-1, 1) translate(-7.187500, -7.187500) ">
                                            <polygon id="t" transform="translate(9.494830, 4.528389) rotate(18.000000) translate(-9.494830, -4.528389) " points="5.90107953 0.934639179 5.90107953 8.12213918 9.49482953 8.12213918"></polygon>
                                        </g>
                                    </g>
                                </g>
                            </g>
                            <g id="a-link" transform="translate(14.375000, 14.375000) scale(-1, 1) translate(-14.375000, -14.375000) ">
                                <g id="a">
                                    <g id="c-link" transform="translate(14.375000, 14.375000) rotate(72.000000) translate(-14.375000, -14.375000) translate(7.187500, 7.187500)">
                                        <g id="c">
                                            <polygon id="t" transform="translate(9.494830, 4.528389) rotate(18.000000) translate(-9.494830, -4.528389) " points="5.90107953 0.934639179 5.90107953 8.12213918 9.49482953 8.12213918"></polygon>
                                            <g id="t-link" transform="translate(7.187500, 7.187500) scale(-1, 1) translate(-7.187500, -7.187500) ">
                                                <polygon id="t" transform="translate(9.494830, 4.528389) rotate(18.000000) translate(-9.494830, -4.528389) " points="5.90107953 0.934639179 5.90107953 8.12213918 9.49482953 8.12213918"></polygon>
                                            </g>
                                        </g>
                                    </g>
                                    <g id="c-link" transform="translate(14.375000, 14.375000) rotate(144.000000) translate(-14.375000, -14.375000) translate(7.187500, 7.187500)">
                                        <g id="c">
                                            <polygon id="t" transform="translate(9.494830, 4.528389) rotate(18.000000) translate(-9.494830, -4.528389) " points="5.90107953 0.934639179 5.90107953 8.12213918 9.49482953 8.12213918"></polygon>
                                            <g id="t-link" transform="translate(7.187500, 7.187500) scale(-1, 1) translate(-7.187500, -7.187500) ">
                                                <polygon id="t" transform="translate(9.494830, 4.528389) rotate(18.000000) translate(-9.494830, -4.528389) " points="5.90107953 0.934639179 5.90107953 8.12213918 9.49482953 8.12213918"></polygon>
                                            </g>
                                        </g>
                                    </g>
                                </g>
                            </g>
                        </g>
                    </g>
                    <g id="s-link" transform="translate(20.152654, 79.062500) rotate(72.000000) translate(-20.152654, -79.062500) translate(5.777654, 64.687500)">
                        <g id="s">
                            <g id="c" transform="translate(7.187500, 7.187500)">
                                <polygon id="t" transform="translate(9.494830, 4.528389) rotate(18.000000) translate(-9.494830, -4.528389) " points="5.90107953 0.934639179 5.90107953 8.12213918 9.49482953 8.12213918"></polygon>
                                <g id="t-link" transform="translate(7.187500, 7.187500) scale(-1, 1) translate(-7.187500, -7.187500) ">
                                    <polygon id="t" transform="translate(9.494830, 4.528389) rotate(18.000000) translate(-9.494830, -4.528389) " points="5.90107953 0.934639179 5.90107953 8.12213918 9.49482953 8.12213918"></polygon>
                                </g>
                            </g>
                            <g id="a">
                                <g id="c-link" transform="translate(14.375000, 14.375000) rotate(72.000000) translate(-14.375000, -14.375000) translate(7.187500, 7.187500)">
                                    <g id="c">
                                        <polygon id="t" transform="translate(9.494830, 4.528389) rotate(18.000000) translate(-9.494830, -4.528389) " points="5.90107953 0.934639179 5.90107953 8.12213918 9.49482953 8.12213918"></polygon>
                                        <g id="t-link" transform="translate(7.187500, 7.187500) scale(-1, 1) translate(-7.187500, -7.187500) ">
                                            <polygon id="t" transform="translate(9.494830, 4.528389) rotate(18.000000) translate(-9.494830, -4.528389) " points="5.90107953 0.934639179 5.90107953 8.12213918 9.49482953 8.12213918"></polygon>
                                        </g>
                                    </g>
                                </g>
                                <g id="c-link" transform="translate(14.375000, 14.375000) rotate(144.000000) translate(-14.375000, -14.375000) translate(7.187500, 7.187500)">
                                    <g id="c">
                                        <polygon id="t" transform="translate(9.494830, 4.528389) rotate(18.000000) translate(-9.494830, -4.528389) " points="5.90107953 0.934639179 5.90107953 8.12213918 9.49482953 8.12213918"></polygon>
                                        <g id="t-link" transform="translate(7.187500, 7.187500) scale(-1, 1) translate(-7.187500, -7.187500) ">
                                            <polygon id="t" transform="translate(9.494830, 4.528389) rotate(18.000000) translate(-9.494830, -4.528389) " points="5.90107953 0.934639179 5.90107953 8.12213918 9.49482953 8.12213918"></polygon>
                                        </g>
                                    </g>
                                </g>
                            </g>
                            <g id="a-link" transform="translate(14.375000, 14.375000) scale(-1, 1) translate(-14.375000, -14.375000) ">
                                <g id="a">
                                    <g id="c-link" transform="translate(14.375000, 14.375000) rotate(72.000000) translate(-14.375000, -14.375000) translate(7.187500, 7.187500)">
                                        <g id="c">
                                            <polygon id="t" transform="translate(9.494830, 4.528389) rotate(18.000000) translate(-9.494830, -4.528389) " points="5.90107953 0.934639179 5.90107953 8.12213918 9.49482953 8.12213918"></polygon>
                                            <g id="t-link" transform="translate(7.187500, 7.187500) scale(-1, 1) translate(-7.187500, -7.187500) ">
                                                <polygon id="t" transform="translate(9.494830, 4.528389) rotate(18.000000) translate(-9.494830, -4.528389) " points="5.90107953 0.934639179 5.90107953 8.12213918 9.49482953 8.12213918"></polygon>
                                            </g>
                                        </g>
                                    </g>
                                    <g id="c-link" transform="translate(14.375000, 14.375000) rotate(144.000000) translate(-14.375000, -14.375000) translate(7.187500, 7.187500)">
                                        <g id="c">
                                            <polygon id="t" transform="translate(9.494830, 4.528389) rotate(18.000000) translate(-9.494830, -4.528389) " points="5.90107953 0.934639179 5.90107953 8.12213918 9.49482953 8.12213918"></polygon>
                                            <g id="t-link" transform="translate(7.187500, 7.187500) scale(-1, 1) translate(-7.187500, -7.187500) ">
                                                <polygon id="t" transform="translate(9.494830, 4.528389) rotate(18.000000) translate(-9.494830, -4.528389) " points="5.90107953 0.934639179 5.90107953 8.12213918 9.49482953 8.12213918"></polygon>
                                            </g>
                                        </g>
                                    </g>
                                </g>
                            </g>
                        </g>
                    </g>
                    <g id="s-link" transform="translate(35.937500, 94.847346) rotate(72.000000) translate(-35.937500, -94.847346) translate(21.562500, 80.472346)">
                        <g id="s">
                            <g id="c" transform="translate(7.187500, 7.187500)">
                                <polygon id="t" transform="translate(9.494830, 4.528389) rotate(18.000000) translate(-9.494830, -4.528389) " points="5.90107953 0.934639179 5.90107953 8.12213918 9.49482953 8.12213918"></polygon>
                                <g id="t-link" transform="translate(7.187500, 7.187500) scale(-1, 1) translate(-7.187500, -7.187500) ">
                                    <polygon id="t" transform="translate(9.494830, 4.528389) rotate(18.000000) translate(-9.494830, -4.528389) " points="5.90107953 0.934639179 5.90107953 8.12213918 9.49482953 8.12213918"></polygon>
                                </g>
                            </g>
                            <g id="a">
                                <g id="c-link" transform="translate(14.375000, 14.375000) rotate(72.000000) translate(-14.375000, -14.375000) translate(7.187500, 7.187500)">
                                    <g id="c">
                                        <polygon id="t" transform="translate(9.494830, 4.528389) rotate(18.000000) translate(-9.494830, -4.528389) " points="5.90107953 0.934639179 5.90107953 8.12213918 9.49482953 8.12213918"></polygon>
                                        <g id="t-link" transform="translate(7.187500, 7.187500) scale(-1, 1) translate(-7.187500, -7.187500) ">
                                            <polygon id="t" transform="translate(9.494830, 4.528389) rotate(18.000000) translate(-9.494830, -4.528389) " points="5.90107953 0.934639179 5.90107953 8.12213918 9.49482953 8.12213918"></polygon>
                                        </g>
                                    </g>
                                </g>
                                <g id="c-link" transform="translate(14.375000, 14.375000) rotate(144.000000) translate(-14.375000, -14.375000) translate(7.187500, 7.187500)">
                                    <g id="c">
                                        <polygon id="t" transform="translate(9.494830, 4.528389) rotate(18.000000) translate(-9.494830, -4.528389) " points="5.90107953 0.934639179 5.90107953 8.12213918 9.49482953 8.12213918"></polygon>
                                        <g id="t-link" transform="translate(7.187500, 7.187500) scale(-1, 1) translate(-7.187500, -7.187500) ">
                                            <polygon id="t" transform="translate(9.494830, 4.528389) rotate(18.000000) translate(-9.494830, -4.528389) " points="5.90107953 0.934639179 5.90107953 8.12213918 9.49482953 8.12213918"></polygon>
                                        </g>
                                    </g>
                                </g>
                            </g>
                            <g id="a-link" transform="translate(14.375000, 14.375000) scale(-1, 1) translate(-14.375000, -14.375000) ">
                                <g id="a">
                                    <g id="c-link" transform="translate(14.375000, 14.375000) rotate(72.000000) translate(-14.375000, -14.375000) translate(7.187500, 7.187500)">
                                        <g id="c">
                                            <polygon id="t" transform="translate(9.494830, 4.528389) rotate(18.000000) translate(-9.494830, -4.528389) " points="5.90107953 0.934639179 5.90107953 8.12213918 9.49482953 8.12213918"></polygon>
                                            <g id="t-link" transform="translate(7.187500, 7.187500) scale(-1, 1) translate(-7.187500, -7.187500) ">
                                                <polygon id="t" transform="translate(9.494830, 4.528389) rotate(18.000000) translate(-9.494830, -4.528389) " points="5.90107953 0.934639179 5.90107953 8.12213918 9.49482953 8.12213918"></polygon>
                                            </g>
                                        </g>
                                    </g>
                                    <g id="c-link" transform="translate(14.375000, 14.375000) rotate(144.000000) translate(-14.375000, -14.375000) translate(7.187500, 7.187500)">
                                        <g id="c">
                                            <polygon id="t" transform="translate(9.494830, 4.528389) rotate(18.000000) translate(-9.494830, -4.528389) " points="5.90107953 0.934639179 5.90107953 8.12213918 9.49482953 8.12213918"></polygon>
                                            <g id="t-link" transform="translate(7.187500, 7.187500) scale(-1, 1) translate(-7.187500, -7.187500) ">
                                                <polygon id="t" transform="translate(9.494830, 4.528389) rotate(18.000000) translate(-9.494830, -4.528389) " points="5.90107953 0.934639179 5.90107953 8.12213918 9.49482953 8.12213918"></polygon>
                                            </g>
                                        </g>
                                    </g>
                                </g>
                            </g>
                        </g>
                    </g>
                </g>
                <g id="l-link" transform="translate(86.250000, 57.500000) scale(-1, 1) translate(-86.250000, -57.500000) translate(57.500000, 0.000000)">
                    <g id="l">
                        <g id="s-link" transform="translate(0.000000, 43.125000)">
                            <g id="s">
                                <g id="c" transform="translate(7.187500, 7.187500)">
                                    <polygon id="t" transform="translate(9.494830, 4.528389) rotate(18.000000) translate(-9.494830, -4.528389) " points="5.90107953 0.934639179 5.90107953 8.12213918 9.49482953 8.12213918"></polygon>
                                    <g id="t-link" transform="translate(7.187500, 7.187500) scale(-1, 1) translate(-7.187500, -7.187500) ">
                                        <polygon id="t" transform="translate(9.494830, 4.528389) rotate(18.000000) translate(-9.494830, -4.528389) " points="5.90107953 0.934639179 5.90107953 8.12213918 9.49482953 8.12213918"></polygon>
                                    </g>
                                </g>
                                <g id="a">
                                    <g id="c-link" transform="translate(14.375000, 14.375000) rotate(72.000000) translate(-14.375000, -14.375000) translate(7.187500, 7.187500)">
                                        <g id="c">
                                            <polygon id="t" transform="translate(9.494830, 4.528389) rotate(18.000000) translate(-9.494830, -4.528389) " points="5.90107953 0.934639179 5.90107953 8.12213918 9.49482953 8.12213918"></polygon>
                                            <g id="t-link" transform="translate(7.187500, 7.187500) scale(-1, 1) translate(-7.187500, -7.187500) ">
                                                <polygon id="t" transform="translate(9.494830, 4.528389) rotate(18.000000) translate(-9.494830, -4.528389) " points="5.90107953 0.934639179 5.90107953 8.12213918 9.49482953 8.12213918"></polygon>
                                            </g>
                                        </g>
                                    </g>
                                    <g id="c-link" transform="translate(14.375000, 14.375000) rotate(144.000000) translate(-14.375000, -14.375000) translate(7.187500, 7.187500)">
                                        <g id="c">
                                            <polygon id="t" transform="translate(9.494830, 4.528389) rotate(18.000000) translate(-9.494830, -4.528389) " points="5.90107953 0.934639179 5.90107953 8.12213918 9.49482953 8.12213918"></polygon>
                                            <g id="t-link" transform="translate(7.187500, 7.187500) scale(-1, 1) translate(-7.187500, -7.187500) ">
                                                <polygon id="t" transform="translate(9.494830, 4.528389) rotate(18.000000) translate(-9.494830, -4.528389) " points="5.90107953 0.934639179 5.90107953 8.12213918 9.49482953 8.12213918"></polygon>
                                            </g>
                                        </g>
                                    </g>
                                </g>
                                <g id="a-link" transform="translate(14.375000, 14.375000) scale(-1, 1) translate(-14.375000, -14.375000) ">
                                    <g id="a">
                                        <g id="c-link" transform="translate(14.375000, 14.375000) rotate(72.000000) translate(-14.375000, -14.375000) translate(7.187500, 7.187500)">
                                            <g id="c">
                                                <polygon id="t" transform="translate(9.494830, 4.528389) rotate(18.000000) translate(-9.494830, -4.528389) " points="5.90107953 0.934639179 5.90107953 8.12213918 9.49482953 8.12213918"></polygon>
                                                <g id="t-link" transform="translate(7.187500, 7.187500) scale(-1, 1) translate(-7.187500, -7.187500) ">
                                                    <polygon id="t" transform="translate(9.494830, 4.528389) rotate(18.000000) translate(-9.494830, -4.528389) " points="5.90107953 0.934639179 5.90107953 8.12213918 9.49482953 8.12213918"></polygon>
                                                </g>
                                            </g>
                                        </g>
                                        <g id="c-link" transform="translate(14.375000, 14.375000) rotate(144.000000) translate(-14.375000, -14.375000) translate(7.187500, 7.187500)">
                                            <g id="c">
                                                <polygon id="t" transform="translate(9.494830, 4.528389) rotate(18.000000) translate(-9.494830, -4.528389) " points="5.90107953 0.934639179 5.90107953 8.12213918 9.49482953 8.12213918"></polygon>
                                                <g id="t-link" transform="translate(7.187500, 7.187500) scale(-1, 1) translate(-7.187500, -7.187500) ">
                                                    <polygon id="t" transform="translate(9.494830, 4.528389) rotate(18.000000) translate(-9.494830, -4.528389) " points="5.90107953 0.934639179 5.90107953 8.12213918 9.49482953 8.12213918"></polygon>
                                                </g>
                                            </g>
                                        </g>
                                    </g>
                                </g>
                            </g>
                        </g>
                        <g id="s-link" transform="translate(35.937500, 20.152654) rotate(-144.000000) translate(-35.937500, -20.152654) translate(21.562500, 5.777654)">
                            <g id="s">
                                <g id="c" transform="translate(7.187500, 7.187500)">
                                    <polygon id="t" transform="translate(9.494830, 4.528389) rotate(18.000000) translate(-9.494830, -4.528389) " points="5.90107953 0.934639179 5.90107953 8.12213918 9.49482953 8.12213918"></polygon>
                                    <g id="t-link" transform="translate(7.187500, 7.187500) scale(-1, 1) translate(-7.187500, -7.187500) ">
                                        <polygon id="t" transform="translate(9.494830, 4.528389) rotate(18.000000) translate(-9.494830, -4.528389) " points="5.90107953 0.934639179 5.90107953 8.12213918 9.49482953 8.12213918"></polygon>
                                    </g>
                                </g>
                                <g id="a">
                                    <g id="c-link" transform="translate(14.375000, 14.375000) rotate(72.000000) translate(-14.375000, -14.375000) translate(7.187500, 7.187500)">
                                        <g id="c">
                                            <polygon id="t" transform="translate(9.494830, 4.528389) rotate(18.000000) translate(-9.494830, -4.528389) " points="5.90107953 0.934639179 5.90107953 8.12213918 9.49482953 8.12213918"></polygon>
                                            <g id="t-link" transform="translate(7.187500, 7.187500) scale(-1, 1) translate(-7.187500, -7.187500) ">
                                                <polygon id="t" transform="translate(9.494830, 4.528389) rotate(18.000000) translate(-9.494830, -4.528389) " points="5.90107953 0.934639179 5.90107953 8.12213918 9.49482953 8.12213918"></polygon>
                                            </g>
                                        </g>
                                    </g>
                                    <g id="c-link" transform="translate(14.375000, 14.375000) rotate(144.000000) translate(-14.375000, -14.375000) translate(7.187500, 7.187500)">
                                        <g id="c">
                                            <polygon id="t" transform="translate(9.494830, 4.528389) rotate(18.000000) translate(-9.494830, -4.528389) " points="5.90107953 0.934639179 5.90107953 8.12213918 9.49482953 8.12213918"></polygon>
                                            <g id="t-link" transform="translate(7.187500, 7.187500) scale(-1, 1) translate(-7.187500, -7.187500) ">
                                                <polygon id="t" transform="translate(9.494830, 4.528389) rotate(18.000000) translate(-9.494830, -4.528389) " points="5.90107953 0.934639179 5.90107953 8.12213918 9.49482953 8.12213918"></polygon>
                                            </g>
                                        </g>
                                    </g>
                                </g>
                                <g id="a-link" transform="translate(14.375000, 14.375000) scale(-1, 1) translate(-14.375000, -14.375000) ">
                                    <g id="a">
                                        <g id="c-link" transform="translate(14.375000, 14.375000) rotate(72.000000) translate(-14.375000, -14.375000) translate(7.187500, 7.187500)">
                                            <g id="c">
                                                <polygon id="t" transform="translate(9.494830, 4.528389) rotate(18.000000) translate(-9.494830, -4.528389) " points="5.90107953 0.934639179 5.90107953 8.12213918 9.49482953 8.12213918"></polygon>
                                                <g id="t-link" transform="translate(7.187500, 7.187500) scale(-1, 1) translate(-7.187500, -7.187500) ">
                                                    <polygon id="t" transform="translate(9.494830, 4.528389) rotate(18.000000) translate(-9.494830, -4.528389) " points="5.90107953 0.934639179 5.90107953 8.12213918 9.49482953 8.12213918"></polygon>
                                                </g>
                                            </g>
                                        </g>
                                        <g id="c-link" transform="translate(14.375000, 14.375000) rotate(144.000000) translate(-14.375000, -14.375000) translate(7.187500, 7.187500)">
                                            <g id="c">
                                                <polygon id="t" transform="translate(9.494830, 4.528389) rotate(18.000000) translate(-9.494830, -4.528389) " points="5.90107953 0.934639179 5.90107953 8.12213918 9.49482953 8.12213918"></polygon>
                                                <g id="t-link" transform="translate(7.187500, 7.187500) scale(-1, 1) translate(-7.187500, -7.187500) ">
                                                    <polygon id="t" transform="translate(9.494830, 4.528389) rotate(18.000000) translate(-9.494830, -4.528389) " points="5.90107953 0.934639179 5.90107953 8.12213918 9.49482953 8.12213918"></polygon>
                                                </g>
                                            </g>
                                        </g>
                                    </g>
                                </g>
                            </g>
                        </g>
                        <g id="s-link" transform="translate(20.152654, 35.937500) rotate(144.000000) translate(-20.152654, -35.937500) translate(5.777654, 21.562500)">
                            <g id="s">
                                <g id="c" transform="translate(7.187500, 7.187500)">
                                    <polygon id="t" transform="translate(9.494830, 4.528389) rotate(18.000000) translate(-9.494830, -4.528389) " points="5.90107953 0.934639179 5.90107953 8.12213918 9.49482953 8.12213918"></polygon>
                                    <g id="t-link" transform="translate(7.187500, 7.187500) scale(-1, 1) translate(-7.187500, -7.187500) ">
                                        <polygon id="t" transform="translate(9.494830, 4.528389) rotate(18.000000) translate(-9.494830, -4.528389) " points="5.90107953 0.934639179 5.90107953 8.12213918 9.49482953 8.12213918"></polygon>
                                    </g>
                                </g>
                                <g id="a">
                                    <g id="c-link" transform="translate(14.375000, 14.375000) rotate(72.000000) translate(-14.375000, -14.375000) translate(7.187500, 7.187500)">
                                        <g id="c">
                                            <polygon id="t" transform="translate(9.494830, 4.528389) rotate(18.000000) translate(-9.494830, -4.528389) " points="5.90107953 0.934639179 5.90107953 8.12213918 9.49482953 8.12213918"></polygon>
                                            <g id="t-link" transform="translate(7.187500, 7.187500) scale(-1, 1) translate(-7.187500, -7.187500) ">
                                                <polygon id="t" transform="translate(9.494830, 4.528389) rotate(18.000000) translate(-9.494830, -4.528389) " points="5.90107953 0.934639179 5.90107953 8.12213918 9.49482953 8.12213918"></polygon>
                                            </g>
                                        </g>
                                    </g>
                                    <g id="c-link" transform="translate(14.375000, 14.375000) rotate(144.000000) translate(-14.375000, -14.375000) translate(7.187500, 7.187500)">
                                        <g id="c">
                                            <polygon id="t" transform="translate(9.494830, 4.528389) rotate(18.000000) translate(-9.494830, -4.528389) " points="5.90107953 0.934639179 5.90107953 8.12213918 9.49482953 8.12213918"></polygon>
                                            <g id="t-link" transform="translate(7.187500, 7.187500) scale(-1, 1) translate(-7.187500, -7.187500) ">
                                                <polygon id="t" transform="translate(9.494830, 4.528389) rotate(18.000000) translate(-9.494830, -4.528389) " points="5.90107953 0.934639179 5.90107953 8.12213918 9.49482953 8.12213918"></polygon>
                                            </g>
                                        </g>
                                    </g>
                                </g>
                                <g id="a-link" transform="translate(14.375000, 14.375000) scale(-1, 1) translate(-14.375000, -14.375000) ">
                                    <g id="a">
                                        <g id="c-link" transform="translate(14.375000, 14.375000) rotate(72.000000) translate(-14.375000, -14.375000) translate(7.187500, 7.187500)">
                                            <g id="c">
                                                <polygon id="t" transform="translate(9.494830, 4.528389) rotate(18.000000) translate(-9.494830, -4.528389) " points="5.90107953 0.934639179 5.90107953 8.12213918 9.49482953 8.12213918"></polygon>
                                                <g id="t-link" transform="translate(7.187500, 7.187500) scale(-1, 1) translate(-7.187500, -7.187500) ">
                                                    <polygon id="t" transform="translate(9.494830, 4.528389) rotate(18.000000) translate(-9.494830, -4.528389) " points="5.90107953 0.934639179 5.90107953 8.12213918 9.49482953 8.12213918"></polygon>
                                                </g>
                                            </g>
                                        </g>
                                        <g id="c-link" transform="translate(14.375000, 14.375000) rotate(144.000000) translate(-14.375000, -14.375000) translate(7.187500, 7.187500)">
                                            <g id="c">
                                                <polygon id="t" transform="translate(9.494830, 4.528389) rotate(18.000000) translate(-9.494830, -4.528389) " points="5.90107953 0.934639179 5.90107953 8.12213918 9.49482953 8.12213918"></polygon>
                                                <g id="t-link" transform="translate(7.187500, 7.187500) scale(-1, 1) translate(-7.187500, -7.187500) ">
                                                    <polygon id="t" transform="translate(9.494830, 4.528389) rotate(18.000000) translate(-9.494830, -4.528389) " points="5.90107953 0.934639179 5.90107953 8.12213918 9.49482953 8.12213918"></polygon>
                                                </g>
                                            </g>
                                        </g>
                                    </g>
                                </g>
                            </g>
                        </g>
                        <g id="s-link" transform="translate(20.152654, 79.062500) rotate(72.000000) translate(-20.152654, -79.062500) translate(5.777654, 64.687500)">
                            <g id="s">
                                <g id="c" transform="translate(7.187500, 7.187500)">
                                    <polygon id="t" transform="translate(9.494830, 4.528389) rotate(18.000000) translate(-9.494830, -4.528389) " points="5.90107953 0.934639179 5.90107953 8.12213918 9.49482953 8.12213918"></polygon>
                                    <g id="t-link" transform="translate(7.187500, 7.187500) scale(-1, 1) translate(-7.187500, -7.187500) ">
                                        <polygon id="t" transform="translate(9.494830, 4.528389) rotate(18.000000) translate(-9.494830, -4.528389) " points="5.90107953 0.934639179 5.90107953 8.12213918 9.49482953 8.12213918"></polygon>
                                    </g>
                                </g>
                                <g id="a">
                                    <g id="c-link" transform="translate(14.375000, 14.375000) rotate(72.000000) translate(-14.375000, -14.375000) translate(7.187500, 7.187500)">
                                        <g id="c">
                                            <polygon id="t" transform="translate(9.494830, 4.528389) rotate(18.000000) translate(-9.494830, -4.528389) " points="5.90107953 0.934639179 5.90107953 8.12213918 9.49482953 8.12213918"></polygon>
                                            <g id="t-link" transform="translate(7.187500, 7.187500) scale(-1, 1) translate(-7.187500, -7.187500) ">
                                                <polygon id="t" transform="translate(9.494830, 4.528389) rotate(18.000000) translate(-9.494830, -4.528389) " points="5.90107953 0.934639179 5.90107953 8.12213918 9.49482953 8.12213918"></polygon>
                                            </g>
                                        </g>
                                    </g>
                                    <g id="c-link" transform="translate(14.375000, 14.375000) rotate(144.000000) translate(-14.375000, -14.375000) translate(7.187500, 7.187500)">
                                        <g id="c">
                                            <polygon id="t" transform="translate(9.494830, 4.528389) rotate(18.000000) translate(-9.494830, -4.528389) " points="5.90107953 0.934639179 5.90107953 8.12213918 9.49482953 8.12213918"></polygon>
                                            <g id="t-link" transform="translate(7.187500, 7.187500) scale(-1, 1) translate(-7.187500, -7.187500) ">
                                                <polygon id="t" transform="translate(9.494830, 4.528389) rotate(18.000000) translate(-9.494830, -4.528389) " points="5.90107953 0.934639179 5.90107953 8.12213918 9.49482953 8.12213918"></polygon>
                                            </g>
                                        </g>
                                    </g>
                                </g>
                                <g id="a-link" transform="translate(14.375000, 14.375000) scale(-1, 1) translate(-14.375000, -14.375000) ">
                                    <g id="a">
                                        <g id="c-link" transform="translate(14.375000, 14.375000) rotate(72.000000) translate(-14.375000, -14.375000) translate(7.187500, 7.187500)">
                                            <g id="c">
                                                <polygon id="t" transform="translate(9.494830, 4.528389) rotate(18.000000) translate(-9.494830, -4.528389) " points="5.90107953 0.934639179 5.90107953 8.12213918 9.49482953 8.12213918"></polygon>
                                                <g id="t-link" transform="translate(7.187500, 7.187500) scale(-1, 1) translate(-7.187500, -7.187500) ">
                                                    <polygon id="t" transform="translate(9.494830, 4.528389) rotate(18.000000) translate(-9.494830, -4.528389) " points="5.90107953 0.934639179 5.90107953 8.12213918 9.49482953 8.12213918"></polygon>
                                                </g>
                                            </g>
                                        </g>
                                        <g id="c-link" transform="translate(14.375000, 14.375000) rotate(144.000000) translate(-14.375000, -14.375000) translate(7.187500, 7.187500)">
                                            <g id="c">
                                                <polygon id="t" transform="translate(9.494830, 4.528389) rotate(18.000000) translate(-9.494830, -4.528389) " points="5.90107953 0.934639179 5.90107953 8.12213918 9.49482953 8.12213918"></polygon>
                                                <g id="t-link" transform="translate(7.187500, 7.187500) scale(-1, 1) translate(-7.187500, -7.187500) ">
                                                    <polygon id="t" transform="translate(9.494830, 4.528389) rotate(18.000000) translate(-9.494830, -4.528389) " points="5.90107953 0.934639179 5.90107953 8.12213918 9.49482953 8.12213918"></polygon>
                                                </g>
                                            </g>
                                        </g>
                                    </g>
                                </g>
                            </g>
                        </g>
                        <g id="s-link" transform="translate(35.937500, 94.847346) rotate(72.000000) translate(-35.937500, -94.847346) translate(21.562500, 80.472346)">
                            <g id="s">
                                <g id="c" transform="translate(7.187500, 7.187500)">
                                    <polygon id="t" transform="translate(9.494830, 4.528389) rotate(18.000000) translate(-9.494830, -4.528389) " points="5.90107953 0.934639179 5.90107953 8.12213918 9.49482953 8.12213918"></polygon>
                                    <g id="t-link" transform="translate(7.187500, 7.187500) scale(-1, 1) translate(-7.187500, -7.187500) ">
                                        <polygon id="t" transform="translate(9.494830, 4.528389) rotate(18.000000) translate(-9.494830, -4.528389) " points="5.90107953 0.934639179 5.90107953 8.12213918 9.49482953 8.12213918"></polygon>
                                    </g>
                                </g>
                                <g id="a">
                                    <g id="c-link" transform="translate(14.375000, 14.375000) rotate(72.000000) translate(-14.375000, -14.375000) translate(7.187500, 7.187500)">
                                        <g id="c">
                                            <polygon id="t" transform="translate(9.494830, 4.528389) rotate(18.000000) translate(-9.494830, -4.528389) " points="5.90107953 0.934639179 5.90107953 8.12213918 9.49482953 8.12213918"></polygon>
                                            <g id="t-link" transform="translate(7.187500, 7.187500) scale(-1, 1) translate(-7.187500, -7.187500) ">
                                                <polygon id="t" transform="translate(9.494830, 4.528389) rotate(18.000000) translate(-9.494830, -4.528389) " points="5.90107953 0.934639179 5.90107953 8.12213918 9.49482953 8.12213918"></polygon>
                                            </g>
                                        </g>
                                    </g>
                                    <g id="c-link" transform="translate(14.375000, 14.375000) rotate(144.000000) translate(-14.375000, -14.375000) translate(7.187500, 7.187500)">
                                        <g id="c">
                                            <polygon id="t" transform="translate(9.494830, 4.528389) rotate(18.000000) translate(-9.494830, -4.528389) " points="5.90107953 0.934639179 5.90107953 8.12213918 9.49482953 8.12213918"></polygon>
                                            <g id="t-link" transform="translate(7.187500, 7.187500) scale(-1, 1) translate(-7.187500, -7.187500) ">
                                                <polygon id="t" transform="translate(9.494830, 4.528389) rotate(18.000000) translate(-9.494830, -4.528389) " points="5.90107953 0.934639179 5.90107953 8.12213918 9.49482953 8.12213918"></polygon>
                                            </g>
                                        </g>
                                    </g>
                                </g>
                                <g id="a-link" transform="translate(14.375000, 14.375000) scale(-1, 1) translate(-14.375000, -14.375000) ">
                                    <g id="a">
                                        <g id="c-link" transform="translate(14.375000, 14.375000) rotate(72.000000) translate(-14.375000, -14.375000) translate(7.187500, 7.187500)">
                                            <g id="c">
                                                <polygon id="t" transform="translate(9.494830, 4.528389) rotate(18.000000) translate(-9.494830, -4.528389) " points="5.90107953 0.934639179 5.90107953 8.12213918 9.49482953 8.12213918"></polygon>
                                                <g id="t-link" transform="translate(7.187500, 7.187500) scale(-1, 1) translate(-7.187500, -7.187500) ">
                                                    <polygon id="t" transform="translate(9.494830, 4.528389) rotate(18.000000) translate(-9.494830, -4.528389) " points="5.90107953 0.934639179 5.90107953 8.12213918 9.49482953 8.12213918"></polygon>
                                                </g>
                                            </g>
                                        </g>
                                        <g id="c-link" transform="translate(14.375000, 14.375000) rotate(144.000000) translate(-14.375000, -14.375000) translate(7.187500, 7.187500)">
                                            <g id="c">
                                                <polygon id="t" transform="translate(9.494830, 4.528389) rotate(18.000000) translate(-9.494830, -4.528389) " points="5.90107953 0.934639179 5.90107953 8.12213918 9.49482953 8.12213918"></polygon>
                                                <g id="t-link" transform="translate(7.187500, 7.187500) scale(-1, 1) translate(-7.187500, -7.187500) ">
                                                    <polygon id="t" transform="translate(9.494830, 4.528389) rotate(18.000000) translate(-9.494830, -4.528389) " points="5.90107953 0.934639179 5.90107953 8.12213918 9.49482953 8.12213918"></polygon>
                                                </g>
                                            </g>
                                        </g>
                                    </g>
                                </g>
                            </g>
                        </g>
                    </g>
                </g>
            </g>
        </g>
    </g>
</svg>