<svg width="86" height="116"><path d="M84.6 5l-.4.8.6.2.1.4h.3l.1-.7.6-.2-.5-.5h-.8zM69.4 25.8l.4-.1v-.3l-.4-.4-1.2 1h1l.2-.2zm14.1 15.5l-.1.1v.6l.1.1h.6l.4-.4v-.3l-.1-.1h-.9zm-12.2-5.6v.5l.2.2v.3l.7.7.4-.1v-.9l-.4-.4-.9-.3zm1.4-22l.5-.5.2-1.4 1.4-2-.5-.5v-.5l-.6-.6v-.8l1.2-.1.5-.5-.2-1-1.4.4-.5-.6H73l-.5-.8h-.3l-.7.4V6l.5.8-.2.3v.6l-.5.4-.2-.3-.4.4-.3 1.1-1.7 1.7v.3l.7.7h1.1l1.7 1.6h.5zm2.3.2l-.3.3h-1.1l-.3.3h-1.4l-.4.4v1l.4.5h.6l.5.6h.6l.7-.5.1-1 .3.3h.7v-1.5L75 14zm8.7-8.1l-.6-.6-.1-1-1 .2-.5 1v1h1l.2-.2 1-.2v-.2zM83 3.5l-.5-.2-.2-.5h-.8l-.4.5v.5L83 4l.1-.5zm.6 3.6v-.5l-.2-.2h-.3v.2L83 7l.1.2h.3l.2-.2zm.4-1l-.2.2v.3l.2.1h.2l.2-.1v-.3l-.2-.1h-.2zM62 77.2l-.3-.2H61l.7.8h.2l.3.3.4-.2v-.2l-.4-.5H62zm-35.4 34.9l-.8-.4.3-.4-.2-.7h-1.2l.1 2 1.2 1.2h.6l.2-.2-.3-.3V112zM62.9 11.3l-.1-.2h-1.1l-.7.5v.5l.4.4 1.5-1.2zM5.3 113.6l-.8.5v1.2l.4.3 1-.8-.1-.8-.5-.4zm17-4.4l.2-.3-.7-.4-.6.4v.8l-.9.3-.3 1.1.2.3h.6l.5.3.8-.1.7-1.6-.5-.3v-.5zm44.6-98l.2-.2v-.3l-.5-.4h-.5l-.1.1.6.7h.3zm-56.5 99.7l-.4.7v.2l.2.2h.4l.4-.6-.3-.5h-.3zm55.4-76l.2-.1v-1.1l-.2-.2h-.5l-.4.7.4.7h.5zm16-32.3l.2-.2v-.3H82l-.5.3.2.2h.2zm-8.2.2l1-.6v-.3l-1-1.3h-1.2v1.5l.6.7h.6zM68 59.3H68v.4l.4.4.4-.4-.4-.4H68zm-8.4 28l.4.4.4-.4-.4-.4-.4.4zm1.2-1.5V86.1h.3l.1-.2h-.4zM63 78v.3l.2.1v-.5l-.2.1zm4.2-24.3l-.3-.3v-3l-.6-1.4.3-1.7.3-.5-.8-.9v-1l-.3-.3v-1.1l-.3-.6-1-1.4-.1-2 .6-1v-.6l1-.8v-.8l-.3-.2-1.2-1H64l-1.4-.9h-3.9l-.5.5h-.6l-.5.6h-.6l-.5.6-1.1-.6h-1.2l-.2.3-.3-.3h-.6l-3-2.8H49l-.3.3-2.2-.3-.5.5v.6l-1 .3-1.6 1.4-.8.3-1 1v.2l-.4.4-2.5.6-1 1-.2 1-.7.8h-.6l-1 .5-.2.7-.6.6-.8 1.6-1 1-1.6.8h-.6l-.3.3h-.5l-.8.8h-.3l-.4 1-1.7 1.4-.3.5v2l-.5.8v.5l-.3.6-.7.7h-.3l-.7 1v1.9l-.8 1.4v1l-.3.4v.5L21.3 62l-1 .2-.5 1v1.4l-.3.3-.5.9v.5l-1.2 1.1v.6l-.5.5v.9l-.6.8.9.8.5 1.1v.6l.6.5v.6l-1.1.8v.3l-.9 1.1v2.2l-.8.6-.4 1.5-1.4.2-.4.5.3.8-.9.3v.5l.7.7h.6l.8 1.1.9.3.6.7v1.4l-.2.2v.6l-.9.8v.6l-.2.3.2.5v.8l.3.3v3.3l.7.2.7-.7v-.3l.4-.1.1.7.6.3v.5l.5.5v.3l-.4.4H18l-.2-.6-.7-.2-.4.4v.3l-.5 1.1v.8l-.3.3v2l-.3.2v.9l-.7.6h-.5l-1.7.9h-1.4l-.2.2-1.4-.8H9v.7l.7.6v.3L8 105.2h-.3l-.5.5h-.6l-2.2 1.1H4l-1.1.9H1.7l-1.4.8v1l1.4.1.3.3.2-.3h.6l.3.3h2.7l.4-.4.3-1.1.4-.5.4 1.5.5.5h.5l.3 1 .5.7h.6l.5-.9h.4l.5.2.3.6-.3.7.5.4.6-.3.4-2.3.1-1.5.4.4v.5l.5.5h.5v1.2l-.5.6v.9l-.8 1.6.2.2.3.7h.3l1.1-.7.6-.6v-.3l.2.5.4.2h.3l.4-.6v-.8l.3-.5-.2-1.5.1-.8.3-1.2h1.2l.1.1-.6 1v1.2l.5.5 1-1v-.6l2.1-2v-1l-.2-.3.1-1 .5.9 1.2.5.2.6h1.1l.2 1.2.4.4.8.3.3-.3.8.6h.9l.6-1.3v-.5l-.5-.8v-.6l.7-.2 1.4 3.5.3 2.2.4.5 1-.8v-.8l.8-.3-.1-.8-.2-1.2h-.3l-.7-.7-.3-.9-.5-.2v-.6l.4-.1 1.7 1 1 .4.6.8h.3l.7-.7v-.8l-1.5-1-.3.3h-.9l-.4-.7v-.6l.5-.1.2.3H34l.8.5H36l.9-.8.8.5h1.1l.6 1.4h.8l.1-.4-.5-.5v-.9l-.3-.3.4-.4h.6l.4-.4v-.5l.4-.2.4.5v1.3l.7 1.3.4-.4-.2-.9.4-.4.7-.1v-.8l-.3-.3.1-.7h.6l.1.7.7.7h.3l.5-.6 1-.1.3-.6-.3-.5.2-.7.8.8.3-.5h.8l.3-.3.8.2.1-.6-.5-.6.1-.4.3.3h.8l.6-.6h.5l.4-.7v-.8l-1-.6.2-.3V97l.4-.1 1.1.8.4-.1.2-.7 1.1.5.4-.7v-.5l1.1-.3v-.3l-.8-.8v-.3l1.6-.3V94l-1-1-.4-.1 1-.7.6.3.4-.2v-.6l-.6-.5v-.6l-.2-.2.6-.2.6.6.7-.1-.3-.6 1-.1.1-.7.3-.3-.8-.6.2-2.2-.2-.3.7-.6 1.6.2.3-.2.7-.2v-.5l-.7-.5-.4-.6-.3-.6v-.8l-.3-.3v-1.1l-1-1.1.2-2.2.8-.9-1.6-1.3v-1.7l.8-1.1.3-1.7 1-1 1-.5.6.3 2.2-.3.9.8h.8l.1-.7.3-.2v-.6l-.7-.4-.6.3-.4-.4v-.6l-.2-.2v-5.3l.2-.3v-.8l.6-1.1v-3l.3-.4v-.5l1-1.4v-.8zm2.2-20L69 33h-.5l-.4.4v.6l1 1.2h.5l.4-.7-.4-.7-.4-.1zm-9.7 46l.1.1h.3l.2-.1v-.3l-.5-.4-.1.1v.6zM28.5 109l-.2.2v.5l.2.2h.3l.1-.2v-.3l-.4-.4zm8-3.6l-.1.2v.3h.1l.3.1.1-.1v-.3l-.1-.2h-.3zm-8.7 5.1l-.3.2-.1.5.2.5.3.2.4-.4-.1-.8-.4-.2zm17.6-6.4l-.2.1v.3l.2.1h.2l.2-.1v-.3l-.2-.1h-.2zm2.6-1.8v.2l.1.2.2-.2v-.2l-.2-.2-.1.2zM58 91v.1l.4.4v-.1l.1-.3-.1-.1H58zM48.9 102v.3l.4.4.2-.1v-.3l-.4-.5-.2.2z" fill="none" fill-rule="evenodd"/></svg>