<svg width="78" height="116"><path d="M47 26.2l.8-.2.9-.7-.7-.1h-.7l-.2.2-.2.2-.2.3V26.5l.3-.3zm30.6 77.2l-.1-.2h-.2l-.3-.2H77l-.1-.2-.1-.1-.6-.3h-1.5l-.5-.2-1.5-2.1v-.5l-.2-.3-.2-.7-.2-.3v-.1h-.5l-.1-.1v-.7l-.2-.4-.6-.5-.1-.3V96l.1-.1v-.2l-.3-.2-.1-.2V94.5l-.4.2h-.2V94l-.4-.5-.1-.2V93l.1-.2-.1-.2-.3.2-.2-.1V92l-.2-.2-.4-.5v-.5l.1-.2h-.7l-.1-.2.2-.6v-.1h-.2l-.4.2H66.6v-.2l-.1-.1-.1-.1-.1-.2-.2-.8.1-.1.3-.2.2-.2-.1-.3H66l-.2-.1v-.2l.2-.2V87l-.1-.2h.3v-.5h-.1l-.1-.4-.3-.3-.2-.3.3-.4-.1-.1h-.1l-.2.2H65.2L65 85v-.1l.2-.1v-.2l-.1-.4V83.1l-.1-.2V82.6h.1V81.6l-.4-.7-.5.3-.4.1-.4-.1-.5-.2v.2l-.1.2-.5.1-.1.2h-.1l-.1-.1h-.1l-.1-.1h-.2l-.2-.2h-.2l-.2.3H60.7l-.8-.5h-.4l-.1-.1h-.1v-.2l-.1-.1V79.8l.2-.5v-.2l-.2-.3-.3-.2h-.1l-.2-.1-.1-.1v-.1l-.2-.3v-.2l-.1-.1-.6-.4-.8-.3-.3-.2-.1-.3-.1-.3v-.7l-.1-.3-.4-.7-.8-1.2-.2-.3-1-.8-.4-.5-.2-.5-.2-1.3-.2-.7v-.3l.3-.4 1.3-1.4.2-.2.1-.3V65.7l-.1-.3v-.2l.2-.3.2-.2.1-.2.1-.5.3-.7.3-.4.2-.8.3-.4.1-.3v-.6l-.5-.5-.2-.6-.3-.2-.2-.2-.1-.2v-.5l.3-.3.3-.4.2-.2.3-.5.1-.2h.4l.1.1H57.4l.2-.1.2-.5.5-.4.5-.2h.6l.6.2.7-.3H61.5l.3.2h.5l1.3-.1.4-.1.1-.1h.1l.2-.1h.7l-.5-.6-.1-.1v-.4l.3-.5.1-.5.1-.2.2-.1h.5v.2l.2.3h.2l.3-.2.2-.2v-.5l-.6-.6-.1-.3v-.1H65.2v.2l.1.1.2.2-.2.2H65.1v-1.3L65 51h-.7v-.3l.2-.1.7-.8.2-.2V49l.1-.3.2-.3v-.1l.8-1.1.1-.4.1-.6V43.5l.2-.2.2-.3v-.8l.2-.6v-.8l-.4-.5h.2l-.1-.1V39l-.3-.6-.3-.4-1.8-1.7-.2-.1-.3-.3H64l-.2-.1h-.2l-.6-.4h-.3l-.3-.2-.2-.2H62l-.3.1-.1.3v.5l-.1.2h-.1l-.1-.7-.8-1-.3-.9-.2-.4-.3-.3-.3-.1-.2-.1-.6-.3-.9-.7-2.3-2.2-.7-1-.4-.3-.5-.3-.6-.2-1.7-.3h-.1v.3H51l-.1-.1-.1-.1-.3-.3-1-.5-.6-.2h-.6l-.7.1-.6.4-.4.6-1.7 3-.1.6v2l-.3.6v.1H44v.1l-.2.1-.5.5-.1-.1 1-1.5.1-.5v-3l.2-.2v-1.5l.4-1 .1-.5.1-.3.2-.4.2-.2.6-.5.2-.3.3-1.6v-2.7l-.1.1.1-.5v-.5l-.4-.5-1.3-1.3-.1-.2-.1-.3-.8-1-.2-.7-.2-.2-.2-.1-.4-.2-.3-.2v.4l.1.4-.2-.3-1-1.5-1.3-1.4-1.8-1.5-1.5-1.4h-.1l-.2-.5-.3-.3-.2-.2-.4-.2-2.9-1.7-1.6-1.1-1.5-.7-1-.6-.5-.4-.3-.2-.6-.2-.6-.5-.3-.1h-.3V3l.1.4.2.2 1 .5 1.3 1 1.2.5.7.4.5.5.4.6L30 5.8l-.2-.2-.1-.2-1-.1-.1-.2-.2-.2-.4-.1-.5-.3-.8-.6-.4-.2-.8-.2-.4-.2-.6-.6-1-1.4-.5-.5-.5-.4-.3-.1 1 1.4 1.6 1.8.6 1V5l-.2.3-.3.3h-.3l-.4.1-.7.2-.3.1-.2.2-.4.3V7.2l-.3.3V8l-.2.3-.3.1h-1l-.3.1-.3.2-.3.3-.2.2-.8.3-.2.2-.1.3-.3.2-.8.6-.3.3-.2.3-.3.3H14.7l-.3.2-.2.2-.3.6-.4.4V13.9l-.3.5v.4l-.1.1h-.3l-.2.2-.2.5-.3.3-.7.2-.2.4v.2l.1.3.4.6h.2l.2.1.2.2v.4l.1.2h.1l.2.1v.1l.2.2.2.4.1.3v.4l-.4.4-.2.4v.5l.2.4.2.2 1 .9h.3l.3-.7.2-.2.4-.1H15.8l.1.1.2.1h.7l.2.1.2.2.5.3.2.2.1.3v.5l-.1.3-.2.2-.2.2-.3.1-.2.2-.1.3-.2.8-.2-.2-.5.1-2 1.3-1 .2-.4.2-.2.2-.5.6-.2.3H11l-.6-.4H9.3l-.1-.1-.1-.1H9l-.4-.2h-.2v.2l.1.3V28.4l-.4.5H7l-.3.2-.3-.1H6l-.1.2H5l-.2.1-.5.6-.3.6-.2.5-.1.6v.3l.2.2H4l.2.3.1.2.2.5.2.2v.5l-.2.2v.3l-.1.7v.2l.1.4v.2l.4.1v.2h.1v.1l.1.2v.8l-.1.2H4.5l-.2.3-.2.4-.2.2h-.2l-.2.2H3l-.2.2-.2.2-.2.5-.7 1.2-.2.1-.6.3-.1.2.2.6.6.6 1.1 1.3L4 45l1.2 1.3 1.2 1.3L7.5 49l1.2 1.3 1.1 1.3 1.2 1.3.7-.2h1.4l.1.1.2.1.2.1.1.1h.3l.8-.1h.4v.1l.2.2h.4l.1-.4h.2l.3-.1.7.2h.3l.3-.2.6-.6.3-.1.7-.2h.2l.1.4.3.2.7-.2v.1l.6 1.2.2.3.4.2.6.4.5.2v.5l-.3.9V56.9l-.2.3v.4l-.1 1-.2.7v1.2l-.2.3-.5.6v.4l-.1.1v.2l-.2.1h-.5l-.5.5v.6l.2.2.2.2h.4v-.2l.2-.2h.1l.2.1.1.1v.3H22.8l.2.1.1-.2h.6l.3.4h.2l.3-.1h.2V64.3h.4l.3.2h.2v-.2l.3.3 1 .5.2.2.1.2h.4v.4l-.1.3-.5.6-.2.3.2.2v.2l-.2.2v.7l.2.4.2.2.7.2.4.2v.3l-.3.2v.4l.1.2.6.5.2.4v.1h.1v.5H29.2l.5.1h.2v.2l.1.2-.1.2h-.2l-.3.1-.2.3-.3.4V74.6l-.3.3-.7.2-.2.2V76.2l-.2.2h-.1l-.4.2-.6.6-1.2.4-.4.4v.5l.2.3.3.4.1.4-.3.6v.3l.3-.1-.1.7v.1l.1.2v.2H25l-.2.6-.4.7v.1l-.3.7v.2H24v.4l.1.2v.1l-.2.1V85l.1.1v.1h-.1l-.1.1h-.1l-.4.8-.2.3V88l-.4 1.3v2.9l.5.9-.1.3.2.2h.1l.1.3V94.2l.1.3.5 1V96.4l-.1.2v.2l.1.3.3.2.7.3.4.4h.2l.2.1h.4l.4.4v.6l-.1.6v.6l.1.4V101l-.2.3v.4l.2.3V102.6h-.1v.8l-.2.3-.1.2V104.8l.2.2h.2l.3-.1h.2l.6.2H28.1v.2l-.3.7-.2.3v.1l.3.4h.2l.2.2h.7l.3-.1h.3l.4.4.4.7.3.3.4.4.2.1.3.6.1.1h.1l.2.1.1.1.1.3h.8l.1.3v.3l.1.2.3.2.2.2.3.7.2.3.3.1 1 .3 2.6.5.7.3.3.1.3.3.2.3.1.4.2.3.4.3.3.2h.5l.3-.1.4-.1.3-.3.3-.2.4-.7h.2l.2-.1 1.6.1h.1l.2-.2h.2v.1h.1v.1h.1l.1.1h.2l.5-.7v-1l-.3-.6-.1-.3.2-.3 1.3-.3.5-.2v-.2l-.1-.3v-.2h.1l.4-.2v-.1l.2-.2v-.2l.2-.2.2-.2.2.3.1.1.3.2h.3l.4.1h.5v-.1h.5l.1.2.2.4v.1l.6.1h1.4l.2-.4.3-.4v-.3l.1-.3V108h.3l.4.2h.6l.5-.4 1.3-.6.5-.1h.5l1.3.3h.5l.7-.2.5-.4 1-1.3.2-.3.4-1 .2-.1.2-.1.3-.2.3-.2.2-.3.2-.2.3-.1h.4l.6.4h.3l1.3-.8.8-.3.5.4v.4l.2.3.3.3.5.2h1.3l.2.1v.1l.3.2.2.1 1.2.2h.4l.6-.6H74.5l.2-.1.2-.2h.6l.2.1.2.2.3.1h.2l.5-.3.7-.3v-.1z" fill="none" fill-rule="evenodd"/></svg>