<svg width="70" height="116"><path d="M6.3 10.5l-.4-.7-.1-.1h-.6l-.6-.2v-.3l-.3-.3h-.2v1.5l.2.4.7.2h.8l.5-.5zm53.4 67.6l-.5.8v.5l-.1.1-.2.6v.1l-.4.2v-1.6h-.2l-.4.3-.2.3-.1.9-.2.3-.6.1h-.7l.3-.3.7-.7.3-.2v-.7l-.3-.4-.6-.1-.3.1-.6.4h-.5l-.2-.2V78.3l.7-.1.9-.3h.6l-.2-.4-.1-.4v-.4l.5-.3v.5l.2.5.5.2h1.4l.3.2v.3zM47.9 55.9l-1.7 2v.2l-.3.1-.1.6-.1.1-.8.3-.5.4-.4.2-.4.2-.2.5-.1-.4.2-.5.3-.3.3-.2h.5l.4-.3.3-.3 2.5-3.8.2.3v.3l-.1.6zM38 76.3v.1l-.1.4v.5l-.4-.2-.3-.1-.4-.3.2.3.4.9-.3.6-.2.2-.3.2.4-.8-.2-.6-.5-.1-.3.5h-.8v-.1l-.1-.2-.2-.1h-.3l.2-.2.2-.1h.4l.4-.3.3.1V76.6H36l-.2-.1h-.2l-.8-.3-.6-.2-.4-.4-.2-.7.2.3.3.2.5.3 1.5.5h.2l.1-.3.2-.2.3.2.3.3.2.1v-.3l-.2-.3-.4-.3-.2-.3-.4-1 .2.1.2.1.1.2.1.2v.2h.4l.3.3h.2l.2.3v.5l.2-.2h.1v.4zm31.7 6.6l-.3-1v-7.5l-.7-2.4-.4-.7-.1-.7-.1-.2-.3-.2-.1-.1v.5l-.2.3-.1.3v.4l-.1.4h-.2v-.4l-.2-1.2h-.2l-.2.3h-.3v-.3l.3-.2-.2-.2-.1-.1v-.2l-.2-.2-.2-.3.1-.1.3-.2V68.6l-.1-.3v-.1l.1-.7v-.1l-.5-1.4-.1-.2-.7-.5-.4-.1.1.4-.1.2-.2-.3v-.4l.2-.1-.4-.6-.3-.3-.7-.7V63l-.2-.2-.3-.1-.3-.2-.3.3-.3.1h-.3l-.4-.2.3-.6.3-.3h.4l.5.1.3.3.8 1 .3.2.6-.2v-.6l-.5-.7-1.2-1.3-.3-.5-.2-.6h-.2l-.7.1-.6-.7-.3-1 .1-.6h.2l.1-.2h.1l-.2-.3-.6-.5-.2-.4v-.4l.1-.2V54.7l-.2.1-.3.2h-.2v-.1h-.1V54.2l-.1.1-.2.2-.2.1-.3-.8-.3-.4-.3-.3-.2-.4-.3-1.1-.2-.4H57l-.2.6h-.5l-.5-.3-.2-.7-.3-.1-.1-.1V49h.2l.5 1.3.3 1.3.5-.7-.2-1.3-.7-2.4v-.5l-.3-.9-.2-1.1-.3-.2h-.4l-.4-.1-.2-.4-.1-1v-.2l.3.1.4.8.4.3v-.8l-.5-1.5-.2-1.2-.3-.4-.3-.4-.3-.2H53l-.3.1-.8.4.4.6-.5.3h-1.4l-.6-.1-.5-.5-.4-.5-.4-.5-.6.5-.4.1-.2-.2.4-.6.5-.2.5.2.5.3.5.3.2-.4V39l-.3-.3v-.4l.2-.5h.3l.2.5-.2.4h.8l-.1-.8-.7-1.4-.1.1-.5.1.3-.3.3-.1.2-.3v-.5l-.2-.4-.9-1 .1-.2-.3-.2H49l-.1.1v.3l-.5-1.5-.4-.8-.7-.3-.3-.4-.7-1.5-.4-.3-.5-.2-.4-.4-1-1.6-1-1.3-.2.5-.3.5-.4.4h-.5L41 27l.3-.3.3-.3-.3-.3v-.5l-1.1-1-.4-.5.5.2.8.2.4.2.3.5v.1h.3l.2-.3v-.2h-.1l-.6-.4-.5-.9-.5-1-.1-.6-.2.1-.2.1v.2h-.3v-.7l-.5-.3H39l-.3-.1.2-.5h.4l.8.4-1.4-2.8-.3-1H37.8v.3l.1.3.2.4-.6-.3-1.5-1.5-.1-.3h.7l.2.1.3.4.2.1.4-.1-.4-.6-.6-.6-.4-.4-.2-.4L28 8.1l-1.2-.6-.6-.4-3.8-4.5-.3-.4-.3-1-.4-.3h-1.8l-.8.1-.6.3v.4l.5.3 1.7.4 1 .6 2.2 2.4 2.6 2.1 1 .6v.2l-2.1-1-1-.6L20.7 3l-.3-.2h-.3l-.3.2h-.3l-.1-.3h-.2l-.7-.2h-.2l-.3-.2v-.8l-.2-.4h-.5l-1.2.1-2.3-.2-.5.2-1.1 1.1-.7.3.2.4.4.5.2.3.1.4.1.3.1.3.3.2v-.2l.3.1.3.2.7.3 1.1.9 1.4.7.8.3.7.2-.4-.4-.5-.5-.4-.3.7.2 1 1 .6.3.2.1.2.1h.3l.2-.4-.2-.3-.3-.2-.2-.2-.1-.8h.3l.6.4 1.8.7 1 .6 2 1.8.3.1h1.1l.4.3h.1l.1-.2.2-.1H28.1l.2.1.5.4h.2l.6.2.7.3 2 1.4-1.4-.3L29 11l-1.5-.4h-.8l-2.6 1-1.5.3-.6-.4.2-.2-.1-.2-.1-.2.4-.2-.2-.3-.7-.6-.4-.3-1.7-.4-1.8-1-1-.4h-.9l.5.5 2.2 1.3.5.4.5.4.3.5.3.5h-.4l-.2.1-.2.2-.2.1-.7.9-.2.1h-.6l-.8.3-.6.3-.4.4v.4l.2.7.2.6.3.3.9.5h.3v2.2l-.3 1.2-1 2.4-.2 1-.3.7-.2.8-.4.3-.9.4-1.7 1.5-.2.1-.4.1-.3.1.1.3.2.3v.3l.1.7v2.5l.6 1.8-.2 2.9-.3.6v.2H12l-.4 1.1-.4.4-.4.4-.4.3-.2.6V41.1l-.2.2-.2.2-.2.3-.3 2.9-.3 1.2V46.8l-.5.5-.1.3v.5l.2.3V50l.2.2.1.2v.4l-.9 1.8v.4l.4.1.3.5.4.6v.5l-.6.5-1.4-.1-1-.7L7 53l-.7-.8v-.9l.5-1.6v-1.2h.2l.2-.2.3-.6.3-.8H7l-.2-.3-.1-.3.5-1 .5-1-1 1.3v.4l-.2.6-.3.6-.5.6-.5.3.2.6.2 1.7-.2.5v-.1h-.2v.9L6 55l.5 1.2.3 1.5.3.8.8 3.6V64l.3.4.1.4v.6l-.2.6v.5l-.2-.2h-.1l-.1.2.1.4 1.5 10.5v.2l-.2.2v.5h.3l.3.2h.2l.1.4.1.4v.9l-.2.1v.3h-.2l-.1-.2-.3-1L9 79l-.1-.2-.1-.3v-.4l-.2.7 1.4 5v.7l-.4.7v2.2l.4 2.4 3.2 8 .2 1.7H13.2V99.8l.1.1.2.1.5 2 .5 1 .3 1.3.2.5V105.4l.1.3 1.4 2.9.3.5h.1v.5h.1l.2.2 2.4 2.6.6.4.2-.2.4.2.7.5.8.2 1.5.5h.1l.2.3.1.1h.2l.2-.2h.4v.2l.2.1.1.1 1 .1h.5l.4-.3.3.3.1.4.3.2.5.1 1.7-.2.5.2.5.2.5.2h.4l.7-.6.4-.2.4-.2h1.7l.5-.6 2.3-1.7.8-.3.8.2.4-.6.8-.3 1.6-.3 1.5-.5 3-.7.7-.3.6-.3.3-.2h.3l.2-.3v-.4l.1-.3h.3l.2.1v.5l3.6-1.3 1-.6 5.5-4.2.8-.4.5-.2 1.8-1.2.9-1 2.8-4.3.3-.9-.2-.7.8-1.3.2-.5v-.4l.5-.8.1-.5v-.6l.1-.5 1.4-4.7.1-1.2V83zM10.7 6.7l.4.4h.4l.5-.4h.2l.3.2.4.2h.4l.2-.2-.1-.3-.4-.2-.4-.2-.4-.2v-.7h-.8L11 5l-.2-.3V3.5l.2-.3v-.3h-1l-.2.6V4l-.4.5.7 1.5.5.6zM65 63.2v.6l.3.6v.3l1 1.4.2.3.3.2V69.5l.2.2.4.3.4-.3V69l-.4-2.6-1-1.7-.4-.9-.3-.3-.4-.9-.3-.4.1.4v.3l-.1.2zM1 22.5v.2-.2zm4.4-.2l-.1.3.1.3.4.1h.6l.7.3 1.2.5 1.2 1 .3.2.2.2.4.4.4.3.7.1-.2-.4L9.9 24l.5.1.8.4.5.1-1-1-1.2-.6-1.2-.5-1.2-.3H5.8l-.4.1zM9.7 8.6h.3v-.2l.1-.6v-.4l-.4-.2h-.2v.1l.1.3-.1.1h-.2L9 7.7 8.8 7l-.1-.2-.1.1v1.2l.1.2 1 .2zm3.9 8.5l.1-.1.2-.3v-.2l-.2-.2-.2.2-.2.1.3.5zm-2 9.7v-.2l-.2.5.3-.3zm-8-3.8l-.3.3h.3v-.1h.7l-.1-.1h-.5z" fill="none" fill-rule="evenodd"/></svg>