<svg width="152" height="116"><path d="M151.2 53l-.6-.5-4.2-.7-1.6.4h-.4l-1.6-.6-.3-.3-.2-.5.3-.8.6-1.1.2-.5.3-1.6.3-.5.9-1v-.5l-.4-1v-1l.6-.9.6-.7.5-.8.3-1V37l-.3-1-1.3-.1-1.4-.4-3.6-1.8-1.6-1.2-1.3-2.4-.7-1.4-.6-1-2.6-2.3-1.5-1.8-3.8-2.5-2.7-3-1.5-1.1-.3-.3-.3-.5-.4-1.6-.2-.4-.4-.1-1.5.1h-.4l-1.3-.7-1.8.3-8.9-1.5-1-.7-.6-1.4-.5-1.5-.3-.4-.8-1-.3-.5-.3-.8-.6-2.9-.7-1.9-.5-.8-.5-.2-.4.4V1l-.1.6-.2.4h-.2l-.6-.2h-.2L97 3.2l-1 .9-2.1 2.8-.5.5-1.5.9-.8.4-.9-.2-1.6-1.2-.9-.4-.8.2-3 1.6-.8.1-.7-.2-1-.4-2.3-2-3.2-1H75l-1.7.4h-.8v-.9l-.3-.3h-2.7l-.9.2-1.5 1-1-.2-4.4-1.8-.5-.2-3 .8-.5.2.2.5-1.3 1.4-1.3.3-1.1-.9-1-2.3-.5-1.3-.9-.5-.9.2L49.2 3l-3.7 1.5h-.3l-.5-.1-1.1-1.2-.8-.4-1.6-.4-7.7.3-.5-.2-1-.7-.4-.3h-1.2l-10.5 5h-2.3l-1 .5L13 9.8l-.4.1h-1.1l-.8.5-1 .8-.9 1-.6 1-.5 1.5-.2 1.3-.4.8-1 .3H4.6l-1 .2.1 1.7v4.3l-.2.7-.1.5v2l.4 3.8.2 1 .1 1 .2.3.2.2.3.3 1 1.8.2.5v.9l.2.8 1 2.6.1.5v1.6l.3.4.3.3v.1l.1.4.3 1.3.3 1.9v1l-.4.6-.2.3-1 2.3v.5l1.6-1.5h.2V51l.3.2.2.2.2.5.2.5v.3l-.1.5H9v.4l.1 1v.3l2.1-1.8h.7l.7.7 1.6 2.8 1 .7 2.6.2 1 .5 1.9 1.5.4.5.5.4 1.7.4 1 .8.4.3 1 .3.5.4h.5l.7-.5.7-.1.3.2v1.2l.3.8.6.5.7.2h.6l.4-.4.3-.4.4-.4 2.7-.7 4.8.5 2.7-.8.6.4.4.4.3 1 .4 2 .4 1 .2.5.5.3h1.7l.1.2.2.3.3.3.4.2-.3.6.2.3 1.5.7.3.4.2.6.4 1.8.1.8v.8l-.4.7-.4.4-.8.6-.3.6-.3.2-.4.3-.3.2h-.2v.2l-.1.1v.7l-.5.8v1.8l.1.5-.1.8-.6 2-.2 3.5.2 1.7.7 1.5 1.5 2.8.5-.4.7-1.3.6-.2h.6l1.6.8h1.1l.2.3.2.3.1.4.2.3.3.2h.9l.1.3v.4l-.2.5v.5l.4.6h.6l.6-.2.5-.2.5.2 1.6 1.4 1 .6 2 .8 1 .8.3.4.4 1 .3.3.2.2.6.1.2.1.4.7.4.8.3 1 .1 1 .4 2v1l-.4.6-.3.3-.1.1-.1.2v.9l.3.3.2.2.2.2v.7l.9.3 2.2 1.4.5.1h.4l1.2-.6 1.7-.2.4-.3.4-.2h.2l.5.3h.4l2-1 .5-.2.4.2.7.5h2.1l.7-.1 1.6-.9.9-.1.8.3.7.8.4 1.3.3.4.5.1h.9l.8.2h1l.9-.5 3-2.6 1.2-.7 1.7-.4.6-.5h.2v.1l.4.9.4.4h.4l1.7-.3.5-.2.3-.8v-1.2l-.2-.8-.3-.7-.3-1-.2-.7h.2l.2-.4.5-.3v-.7l.1-.3.9-.6h2.3l2 .9 1.2-.2 1.2-.8 1-1.1.5-1 .5-2 .3-.6h.4l1.7.5 2-.1.7-.4 1-1.6.7-.3h.3l.1.2.2.3 1.8 2.5-.2.2h-.7l-.5.2v.4l.6.4.1.3-.1.3-.8.3-.2.3.2.8.6.5.7.4 2.3.4h.5l.3-.2.4-.6.3-.1 1 .1h.3l.6-.5.2-.7v-2l.1-.2.3-.4v-.4l-.1-.1h-.2v-.2l-.2-.5-.2-.4-.2-.3-.3-.3h-.5l-.1-.1-.3-.8v-.4l-.2-.4-.3-.2-.4.1-1.6.8h-1.1l-.6-.1-.3-.6V95l.5-1 1.2-1.4.4-1 .1-.8v-1l.1-1 .3-1 .4-.5 1.6-1 .5-.5.3-.7.2-.9-.2-.9-.6-1.5-.2-1v-.5l.2-.4v-.4l.2-.5V75.8l.3-.4.5-.5.3-.1h.2v-.1l.2-.4V74l-.2-1v-.3l.2-.8.5-.6.6-.4.5-.7.2-.4v-.4l.1-.3.3-.3 1-.4h.5l.9.2h.5l3.1-.6 1-.6.4-.4.8-1.4 1-2V61l.9-1.2 1.2-.2 2.8.7h.5l.2-.3.1-.2.2-.2h.4l2.7 1.2.6-.1.4-.7.3-1.3.1-1.2.2-.5.5-.6.7-.8.4-.2 1.6-.4.7-.5.2-.7-.2-.8zM5.2 34.5l-.8-1.1.2 1.2v2.9l.2.9-.2.4.2.2-.2.8-.3 3.8-1 3.7-1 2.7-2 3.3 1.6.4V53l1.3-1.7.4-.9.1-.9.4-1 .5-.9.3-.5v-.3l-.4-.6.1-.7.4-.7.3-.8v-2.2l.3-.8v-4.6l-.4-2z" fill="none" fill-rule="evenodd"/></svg>