<svg width="53" height="116"><path d="M52.6 44.6v-.4h-.1l-.1-.1v-.4h-.1l-.2-.1H52l-.1.1-.3.2h-.1l-.6.2-.2.1-.3.2-.2.4-.3.3-.2.1-.1.1-.2.1h-.3l-.1.1h-.5l-.1-.2-.2-.2h-.5l-.1.1v.1h-.2l-.1.1h-.1l-.2.2h-.2l-.2-.3h-.1v-.1l-.1-.2v-.5h.1v-.1h.1l.1-.1-.1-.2h-.8l-.2-.1v-.5l-.2-.2V43l.2-.4v-.5h-.1v-.2l-.4-.1H45v.2h-.2l-.4-.3h-.2v.1l-.1.1h-.2v-.2h-.1l-.6-.2H43l-.4-.1-.4.1H41.3l-.2-.2-.1-.1.1-.1v-.2l.2-.3v-.4h.1l.1-.2v-.2l.2-.2.4-.4V38.4l-.2-.7v-.2h.1l.1-.1.2-.3.1-.2h.1v-.5l.4.1H43.2v-.2L43 36v-.4h-.6v-.1l-.3-.3h-.2v.2H41.5l-.1.2h-.2v-.2h-.4v-.1h-.5V35l-.1-.1H40l-.3-.1h-.4v-.3l.3-.5V34h-.3v-.1h.1v-.1l.1-.1v-.5l-.2-.1V33H39l-.1-.3v-.2l.3-.2.1-.1-.3-.4v-.5l-.1-.1h-.3l-.1-.1h-.2l-.1-.1v-1.1H38.6l.3-.3.5-.4.1-.2v-.2h-.1l-.2.1h-.6l-.2.2h-.4v.1h-.4l-.2-.2H36.4l-.1.1H36l-.5-.1h-.2l-.4.1-1.2.5h-.1l-.3.3v.1H33l-.2.1-.3.3-.2.1h-.1v.2l-.1-.1v-.1l-.3-.2h-.2V30l1-1.1v-.2l.1-.1v-.1l-.1-.1v-.2h.1V28l-.5-.2v-.1h.1l.1-.1h.1v-.2l-.2-.1V27h-.8v-.2l.1-.8v-.9l.4-.3.2-.2h.6l.1-.1v-.2l-.2-.2V24l-.1-.2V23l.2-.1v-.2l.2-.2.1-.5.2-.2.2.1v.2H34l.4-.4.3-.1v-.1l.1-.3.1-.1h.2V20.1l.2-.1v-.5l.5.2h.1l.2.2h.2l.1-.1.1-.2.1-.3.3-.3v-.2l.1-.1v-.3h.1l.1-.1.1-.2h.2l.2.1h.2v.1h.2l.3-.3V17.8l-.1-.2-.2-.3h-.2l-.1-.1V17l-.1-.3v-.4H38v.1l.1.1.3-.2v-.1l.1-.1v-.2l-.1-.3H38v-.4l.3-.3v-.2l.1-.2v-1l.2-.2v-.5l-.1-.2v-.8l-.1-.2v-.1h.1v-.1l-.1-.6v-.2l.1-.2-.1-.2h-.1V10l-.2-.5v-.4l.2-.4v-.4h-.1V7l-.1-.1h-.5l-.2-.3H37.2l-.4-.2h-.1V7l-.1.2-.1.1-.2.1H36L36 7l-.2-.5v-.2l-.2-.3v-.6l-.3-.2-.1-.2.2-.1v-.2l-.2-.1-.2-.1v-.4l.1-.6v-.2l-.4-.4h-.4v-.5l-.2-.1-.3-.4H33l-.1-.2-.2-.6-.2-.2h-.2l-.1.2H32L32 .8h-.2l-.1.2v.1l-.2.3v.1l-.2.2v.7H30.9v.1h-.1l-.2.2-.1.1v.2l-.1.4v.4l.3.3v.2l-.1.2V5h-.1l-.2.1v-.2h-.4V5l-.1.1-.1.1-.3.3h-.1v.2H29L29 6l-.3.1h-.1l-.2.3-.1.1-.2.2H28l-.1.2v.6l.1.1v.4l.1.2 1 1.3v.1h.1V9.9h.1l.1.1v.3h-.6V10h-.1l-.8-.4-.2-.1v-.2l.1-.2-.2-.2-.2-.3-.1-.1-.2-.1h-.4v.1h-.2l-.2-.1-.1.2H26v.1h-.8l-1.5.3-.4.2-.3.2-.2.3-.2.4-.2.2-.1.2H22l-.3.1h-.2l-.2.4-.2.3h-.4v.1l-.1.1v.2h-.1l-.1.1H20l-.2.3-.1.3-.2.2-.5.2h-.2l-.1.1h-.2v-.1h-.2v.2H18l-.1.1v.3l-.1.1v.1l-.2.2h-.1l-.1.2v.1l.1.2v1.4h.1l.1.1v.6l.3.1V17l-.2.3-.3.2v.1h-.3v1.3H17v.1l-.6.8v.2h-.2l-.1.1-.2.3h-.2l-.2.1h-.1l-.2.2-.2.2v.2l-.4 1v.2l.1.2h.5l.2.2v.2l.1.2v.3l-.1.2-.1.1-.1.6-.1.1-.2.3v.5h-.1l-.1.1v.1H14.3v.1l-.2.5-.3.3-.1.1v.3h-.2v.2l-.1.3-.1.1v.2l-.1.1-.1.1-.1.2v.2l-.3.7-.1.3V29.3h-.1v.4l-.3.4-.1.1v.4l-.1.1H12l-.2-.2-.4-.2h-.1l-.2-.1h-.2l-.1-.1h-.6l-.2-.3-.2-.1H9v.1L9 30h-.5v.1h-.2v-.2l-.3-.2v-.1l-.2-.3H7.5v.8l.1.2h.1v.4l.1.8H8v.2h.1V32L8 33.1V33.8l-.1.2v1.2l-.3.4v.2h-.2l-.1.1H7l-.1-.2-.2-.1h-.1l-.1.2v.4l.2.3V36.9l-.3.3v.1l-.3.2v.7l.2.2V39.2l.3.3v1.1l-.2.1.1.3h-.2l-.2-.1h-.2v.5h-.2v.1h-.1l-.1.3v.4h-.1V42l-.2-.1-.1.2v.1l-.1.1-.1-.2V42l-.2-.1-.3-.4-.4-.3H4l-.1.1V42l-.1.1h-.2v.2h-.2v3.2l.1.3.2.6v.2l-.1.2H3.2v-.1l-.1-.3-.1-.2H2.4l-.2-.1-.1-.2v-.2H2l-.2-.2-.2.3H1.3v.1l-.1.3-.2.2v1l.2.2v.2l.3.2v.6l.1.1.1.2.3.9v.3l.1.1h.1l.2.2h.2v.1l.3.3v.4H3l.6.5.1.2.2.7H4l.1.2v-1.9H4l-.3-.4-.1-.3.2.1.2.4v.2l.2.1v.4l.2.2h-.1v.1h.2V51.2h.2v.7h.1v.1l.2.1v.1H5.4v.1h-.2l-.2.1-.4.3v.2h-.1v.2l.4.3v.1H5.2l.2-.5.4-.5v-.2l.1-.3v-.6l.2-.1v-.2l.1-.2V51.3l-.2.4v.4h.2v-.3h.2v.2l-.1.2H6v.1l-.2.5-.1.1v.5H6l.2-.3h.2l-.2.4v-.1H6l-.1.1-.4.1v.4l.2.1.1.2V54.6H6l.3.5.1.2h.1v-.1l-.1-.2-.1-.2v-.4h.2l.1.2.1.3.1.3.1.2h.2v-.1l-.4-.7-.1-.4-.1-.2v-.2.1l.1.1H7.5v-.1l.1-.2.1.4v.1h.1v-.4.2l.2.3v.2h.1v.1h.2v-.1H8.7l.1-.1V54.8l.2.2v.1h.4v-.1h.5v-.1h.1v.2H9.6l-.1.1-.3.5v.5-.1l.1-.2v.2h.4v-.1l.1-.1h.2l-.2.1v.4h.3l.2-.2v-.2l.1.2-.1.2v.1H10l-.1.2.3.2v.2h.2l.2.2.2.2h.2v.2H11.3V58.4h-.1v.2l-.2.1-.3.3h-.2l-.2.1H10l-.2-.2v-.2h-.2l-.3-.2v-.2l-.1-.2H9l-.1-.1H8.6l-.1.1v.5l.4.5.2.4.3.2V60h.1v.4h.2l.1.1.1.1v.1l.3.1h.2l.3.3.2.1v.1h.2V61l.2-.2v-.4l-.1-.2v-.7l-.3-.2v-.2h.1l.1.2.2.1h.1v-.2h.2v-.8l.2-.3v-.1V58.5l-.1.2v1.2h-.1l.1.1h.2l-.1.1V60.4l-.1.1V61.3h.1v.1h.2l.1.1h.1v-.2l.1.2.2.2.1.3h.4H12.3l.6.6v.8l.1.1.3.4.1.2.1.1h.2V64.6h.1v.2h-.4v-.1l-.1.1v.2h.5l.1.2v.2l.1.1V65.7l.2.2v.4l-.2.1v.1l.2.5v.5l.1.2.3.2V68.5h.1l.1.2v.1l.1.3-.2-.1v1.3l.1.4v-.1H14.4v.1h-.1v.4h.1v.2l-.1.1-.3-.1v.2h.1v.4l-.1.1v.6l-.1.1h.1l-.2.3H13.6v.2l.1.1V74h-.1V74.7h-.1l-.2.2h.1v.4H13v.9h-.1l-.1.1v.5l-.1.7V78.3l.1.2h.2v-.1h.4v-.2l.1-.1h.2l.2-.2.1-.2.3-.5.1-.2V76.7h.4l.1-.3h.1v.3l-.2.1v.1h.2l.1-.2v-.2l.2-.2v-1.1.1H15.7v.1h-.1v.7h.1v.1h-.1l-.1.4-.1.1V78l-.2.2-.3.3-.1.2v.1H15l.3-.3.2-.2V78l.2-.3.1-.2.2-.1v.1h-.1V77.9h-.1v.1h-.1v.4l-.2.2-.3.1-.2.1-.1.1v.1l.1.1h.1v.1l.1.1h.4l.1-.1.2-.4v-.1l.4-.2v-.1l.1-.2v-.2l-.1-.1v-.3l.1-.1.2-.3h.4V77h.1v-.1.2h-.2v.1H16.5v.2l-.2.1v.4l.1.3h.2v.1h-.2l-.1.1v.1h-.2v.2l.1.2v.4l.2-.1v.2l-.1.1-.1.1h.3l.2.2h.2l.1-.1v-.1h.2l.1-.2v-.1l.2-.8V78h.1l.2-.3v-.1H18.3v.1h.2v.1H18l-.2.3v.5l.1-.4V79.4l.1.2h.4v-.8l.1-.1.2-.4v.4l-.1.2v.2h.1l.2-.2v-.2l.2-.2V77.6l.1-.1v1.3l-.2.2v.2h-.1l-.1.1v.6l.2.1H19.6l.2-.2.4-.3.8-.8.1-.3V78l.2-.3V77v.1l.1.1v.2l.1.1h.2l.2-.2.4-.4v.2h.2v-.2h.1v.1h.2l.2-.2.3-.3v-.1l-.4-.3.5.1v.2h.5l.4-.3.4-.1v-.1l.1-.1v-.1h-.1l-.1-.3-.3-.3V74.5l-.2-.2V74l-.2-.2h.2l.3-.3h.2-.1l-.2.2-.1.1v.4l.2.3v.4l.2.1.4.3h1l.3-.1.1-.1.2-.2.2-.1v-.1h.1l.1-.2v-.1l.3-.2h.1l.1-.2v-.1l.1-.3v-.1l.2-.2v-.1l-.1-.1-.2-.1H27.8v-.1l-.1-.1h.2l.1-.3.1-.1V71.8l-.3-.4V71l.2-.1.1-.2v-.2l-.1-.1-.2-.1-.1-.2V70h.1v.1l.1-.3v-.1h.1v.4h.1l.6.5v.2h.2l.1.1.1.1v.2h.2v.1l-.1.1v.2l.1.2.1.1.1-.2H30.2l-.1.1H29.7l-.1.1v.2l.2.2v.4l-.1.2v.1h.2v.4-.2h.1V73.8h.1v.1l.2.3.1.1h.3l-.1.2v.1l.2.9v-.1l.2-.1h.4l.1-.1H32.4l.3-.3h.1v.1h.1-.2l-.2.2-.1.2v.1l-.2.3v.5l.1.2v1.1l-.1.1-.1.1H32v.5l.1.2.2.2.3.2.1.1v.2l.1.1v1h.1v.4l.2.4v.7h.1l-.1.2-.1.2h-.1v.5l.2.3H33.4l-.1.2V84.2H33v.1h.2v1l.2.6v.1H33.9v-.4.1l.1.1h.2v-.2.1h.1v.2h.1V86.2l.2.3-.2-.1V86l-.2-.2-.3.1v.5h.2l-.1.2v.2l.2.3v.3h.2v.7l.2.2.1.3.3.4h.1v.6l-.1.1-.1.2v.6h.1v.1h.1v.7H35V91.7h.2v.1l-.1.1h.2l.1.1V92.4h-.1v.6-.1h.1l.1.1v-.5l.1-.2V89.7v.2l.2.1V90.8l.1.3V92H36.2v.2l.2.3v.1l.1.1v.1h.1v.1h.2v.2l.1.2v.2l.1.1V93.9l.1-.1h.1v.6h.1v.3l.4.2.1.1v1l.1.2v.2h.1l-.1.2.2.2.1.5v.1H38v.1h.2v.1H38v.1h.2v.6h-.1l-.1.2v.1l-.1.1v.1H38.4v.1h.1v.1H38l-.1.1-.1.1V99.4l.2.2.2.1h.1v.2l-.1.1-.5.2h-.2l-.1.2v.2h.1v.1h.4v-.1l.2-.1h.2V100.9h-.2v.1l-.1.1-.1.1V101.5h.2v.1h.3V102.1h-.1l-.1.2h-.1l-.1.1h-.5v.2H38.3h-.1l-.1.2H38v.1l-.1.1h.1v.1l-.1.1V103.6l.2.1.2.1h.1v-.2l.1-.1.1-.1h.2l.1-.3h.1v-.2l.1.1v.1l-.2.2v.1l.1.1.4.1.1.2h-.1l-.1-.1H39v.1H38.7l-.2.1V104.6h.1v.4h.1-.2l-.1.1v.1l-.1.2v.1h.2v.5l.1.1v.2l-.1.2V106.8h-.2l-.2.1v.2h.2v.2h.1v.2h-.1v.2l.1.1v.4H38v.1h-.3v.2H38v.1h-.1v.2l-.2.2v.2H37.3v.2l-.2-.1H37v.6l.2.4v.5l.1.3.1.3V112h-.1l-.1.3v.1l.1.3V113.3h.1v.2h.2l.2-.2.3-.7.1-.2.1-.1.1-.3.1-.3v-.2h.1l.2-.4v-.3l.1-.2v-.5l-.2-.1v-.4l.3-.4.2-.1h.1l.1-.1v-.1h.1v-.1h.5v-.7l.1-.1H40.5l.1-.2.2-.2h.2l.1-.2v-.1l.1-.1h.2v-.1l.2-.5.1-.2.2-.2v-.1l.1-.3h.1l.2-.3V105.1l.1-.1.2-.2.1-.2v-.5h.1l.1-.1h.4v-.1l.4-.5v-.2l.1-.3v-.1l-.2-.1-.2-.2v-.2l.1-.3v-.2h-.2l-.1-.2v-.1l.1-.3v-.2h-.5v-.1l.1-.1v-.5l-.1-.1v-.1l-.1-.1v-.5h-.1l-.1-.3v-.8l-.3-.2-.1-.1-.1-.1h-.1V98h-.1v-.2h-.2v-.1l-.1-.1V97.3l-.1-.1-.1-.1V97l-.1-.2v-.6L41 96l-.1-.1h-.1l-.1-.2V95l.2-.1h.2l.1-.1V93.5l-.2-.9V91.8l-.2-.2v-.1l-.2-.3V90.9h-.1v-.1l-.1-.1-.2-.2v-.2H40L40 90v-.2l-.1-.1h-.1l-.2-.1h-.1l-.7-.6-.1-.1-.2-.3h-.2v-.1H38l-.1-.1h-.2v-.1l-.3-.3-.4-.9H37V86.8h-.1l-.1-.2-.7-.7-.3-.5v-.2h-.1v-.5l-.2-.3V84l-.1-.2V83H35.7l.1-.1.2-.3H36.4l.2.1h.1v-.5H37l.1-.1H37.3l.1.1v.2l.2-.2v-1.8l-.1-.3v-.2l.2-.6V78.3l-.2-.2V78h.5v-.2l.1-.1v-.1H39l.2-.1v-.4l.1-.2.2-.2V76l-.2-.1V75.6H39v.2l-.1.2v.1l-.4.3-.2.3h-.2v-.1L38 76 38 76v-.4l-.3-.5V74.7l-.2-.1-.2-.2v-.2l-.1-.1-.2-.1V73.8h.1l.2-.1v-.2l-.1-.2h.2v-.2h-.1l-.1-.1v-.2l-.2-.2v-.2h-.1l-.1-.2h-.5l-.1-.1-.2-.2V71.5h-.1l-.2-.4h-.2V71l-.5-.5V70.3l-.1-.1h-.2V70l-.1-.1-.1-.3-.1-.2-.1-.1-.2-.1-1-1-.1-.1V68h-.1l-.1-.2-.1-.1v-.1h-.1V67l.2-.3.1-.1v-.5h-.1l-.1-.1v-.2l-.1-.2v-.1l-.3-.5-.1-.1.1-.1V64.6l-.4-.2-.1.4h-.2l-.2-.1v-.1l-.2-.2V64.1l-.2-.3v-.3h-.1v-.2l-.2-.1h.1l.2.2h.1v.1h.5l.2-.1.4-.3h.4l.3-.1.1-.3v-.3l-.1-.2v-.4l-.1-.3V61.2l-.2-.1-.2-.2.2-.2.1-.2v-.2l.1-.1.4-.3.1-.2V59l-.2-.1v-.2h.1V58.4l-.1-.2V58l.1-.3.2-.2.1-.2V57h.2l.4-.2.1-.2h.2v-1H34.8l.1.1H35.2l.3.3h.2V56.4l.1.1h.2l.3-.2H37.3l.1.1h.1l.1-.1h.2l.1-.2h.2l.5-.2.4-.3.2.1.1.1.2.2.3-.2h.2v-.1l.1-.2v-.6h.1V54l.1-.2.2-.2H41.4l.3.2H42l.7-.2.1-.1h.1v-.1h.2V53l-.2-.2v-.4h-.1l-.2-.3V52h.1l.3.2.5.1H43.8v.1h.2l.2-.1h.4l.1-.2.2-.3.1-.1h.2l.3-.1h.1v.1l.1.1v.1H46v.1h.1v.1l.3.2v-.2l.1-.1v-.2l.1-.1v-.2l.1-.6v-.2l.2-.1v-.2l.1-.2V50h.1l.2-.2.1-.2h.1l.3-.1v-.2h.2v-.1h.6l.2.2h.1l.2-.1.2-.1.2-.1.1-.2H49v-.5l.1-.1V48l.3-.1h.2v-.2l.3-.5.2-.7v-.2h.8v-.1l.2-.2.6-.3.8-.7h.1v-.5zM36 109H36V108.7l-.1-.1h-.1v-.1l-.1-.1v-.4h-.1l-.1-.1H35.2v.1H35v.1l-.1.2v.1l.2-.1v-.1h.2v.2h.1v-.1h.1l.1.2v.1h.1v.4l.1.1V109.5h.1l.1-.1V109zm-.1 4.2h-.2l-.2.1-.2.1v.2h-.1l-.1.1-.1.2v.5h.1l.2-.3v-.2h.1l.2-.1.1-.1v-.1l.1-.1h.1V113.2zm-.6-8.2v.1h.2v-.2l.1-.1.1.1h.1l.1-.2v-.7l.1-.2v-.2l.1-.1V103.2l-.1-.1H36v.3l-.2.3V104l-.1.1v.1h-.1V104.6h-.1v.4zm2.8-2.8H38l-.2-.1-.2-.2H37.4v-.1l-.2-.2-.1-.2-.2-.1v.5l.1.1.1.1v.5h.4v-.2h.7v-.1zm-1.3 2.2h.4l.1.2V104.2l.1-.1V103H36.6h.1v.2h-.1v.2h.1l-.1.1v.2l.1.1V104.2h.1v.2zm-2-3.7h.1v-.1l.1-.2v-.1l-.2-.1h-.2v.2h-.1v.2l.1.2.1.1H35.2v.2-.3H35v-.1zm2.1-1.5v-.8h-.1v.4l-.2-.3V98h-.4l-.1-.1v.8l.1.2h-.1v.2l.1.1v.4l-.1.2v.1h.2l.2-.1.4-.6zm-5-22.4V76l.2-.2v-.2H31.8l-.3-.2h-.2v.2h-.1v.4l.1.2v.4l.1.3.2.1h.2zm-17.2 1.5l.2-.4.2-.3V77h-.3l-.3.5-.2.2-.1.2v.1l-.3.2h-.2l-.1.2v.5l.1.2v.2l.1-.2v-.2l.2-.1v-.2h.1v-.1l.4-.1h.1v-.1zm-6.9 11v.5-.5zm2-27.6v-.1l.1-.2v-.2h-.5l-.1-.1-.1-.1h-.1l-.2.1h-.5v.2l.6.7.1.2h.1v.1H10v-.1l.1-.2V61.7zm-1.2-5.9l-.1-.3V55l-.1-.1h-.1v-.1l-.1-.1-.2-.1H8v.1l.2.7.1.1.3.3zm.7 1.6v.3h.2l.2.1.1.2v.4l.2.2h.1v.1h.4v-.1h.2l.2-.1v-.2h.2v-.5l-.2-.1-.1-.1h-.2v-.1h-.4l-.3-.2v-.1l-.1-.1h-.2l-.3.2v.1zm24.1 39.8v.2h.1v-.2zm3.4 10.5v.2-.2zm-1.2 3v-.2h-.2v.2h.2zm-4.4-7.6h-.1.2zm3.4 11.4h-.2v.1l.1.1h.1v-.2zm2.7-5.7h-.1v.1h.2v-.4h-.1l-.2-.2v.4h.2v.1zm0-1.3h-.1l-.1.2v.2l.1.1v-.1h.2V107.3l-.1-.1V107.5zm-3.6 1v.1l.2-.2.1-.2H33.8V108.5zm1.6 4v.8l.1-.2v-.3h.1l.1-.1v-.2l-.2-.1v.1h-.1zm-1.4-1.7h-.1v-.2h-.1V111.3h.2v-.4zm1.9-8.3v.2h.1v-.2h-.1zm-1 1.5v-.1l-.2-.1v-.2h.1v-.1l-.1-.2v-.1l-.2-.2V102.7l-.1.1v.5h.1v.4l.2.1v.1l.2.1zm-2.4-1.6l-.2.2v.2h.2V102.5zm3.3 0l.1-.1v-.2h-.2l.1.2zm.2 4l.1-.1H36v-.2H35.7v.1l.1.2h.2zm-2.4-7.9l-.1-.1h-.1v.2h.1v.1-.1zm.9 1.1h-.3l-.2.1v.2h.1v-.1h.1v.1l-.1.1v.1h.1l.1.1v.1l.1-.2h.1l.1-.1.2-.2h.1v-.4h-.1v.1l-.2.1v.1h-.1zm2.7-.1h.1v-.6l-.1.1v.4zm-1-4H36l-.2-.6v-.1h-.1v.5l.1.4.1.4v.2l.1.1v.1V95.8h.1l.1-.2zm-.5 3.2v.2H36v-.3h-.2zM34 91v.4-.2h.1V91zm-1.4-9.8V80.8l-.1-.1v.5zM16.2 79v-.2H16l-.2.3-.1.2-.1.2h-.1l.1.2H16l.1-.3.1-.1V78.9zm-6.5 6v.1l-.1.1h.1l.1-.2v-.1l-.1.1zm-4-30l-.2-.7V54h-.1l-.1-.1h-.1V54.3l.4.6.1.1v.4l.1.1V55zm.9.5v.1zm25 47.6h-.2v.1h.2v-.1zm5.3-3.2v.1H37.3v-.2H37l-.1.1zm.4-5.1h-.1V95h.2V94.6zM7.1 90.2v.1-.1zm27.1 25.4v.2-.1zm.1-3v-.1l-.1.1v.1h.1v-.1zm.2-2.4v-.1.1H34v.1h.4zm1.7-2.7H36v.1h.1zm1.4-1.4v-.1l-.1-.1V106.2v-.1zm-2.4-.9l-.1.1H35l.1.2h.1v-.2zm-2.3-4.1h-.2l.1.1h.1v-.1zm3.8-.3l-.1.1v.1h.1v-.1zm-.4-3.3v.2h.1V97.5h-.1zm-3-8.4h-.1v.2h.1V89zm-.2-1.3zm-15.7-8v.1h-.1v.2h.2v-.2z" fill="none" fill-rule="evenodd"/></svg>