<svg width="97" height="116"><path d="M95.6 45l-.3-.2-2.8-1.4-.8-.6-1.8-1.3-1.4-.6H88l-2.4-.3-1.2-.4-4.8-4.9-3-2.1-.5-.5-.4-.7-.3-.7-.3-.6-.7-.1-.4.2L73 32l-.6.4-1.7.1-1.6-.1-1.2-.5-1.1-.8-1-1.2-1.4-2.7-.4-.1-.2.2-.2.2-.5.2h-.3l-.9-.1-1.5-.4-.7-.3-1-.6-.2-.2-.7-.6-1-1.2-.6-.8-1-.8-.9-.8-.5-.7-.9-2-.6-.9-2.6-2.7-.4-.3-2.1-3.2-.8-.6-6.9-3.1-.7-.7-.5-.5-.4-.7-.5-1v-2l1-1.6-2.3-.4-1.3.1-.9 1.1-.4.5-1 .4h-1.1l-.8-.3-.5-.5-.2-.3-.3-.6-.2-.4-.4-.4-.3-.3-1.1.2-.8.5-1.2 1.3-.6.4h-.3l-.3.3-.2.2-.2.4-.1.1v.6l.3.2.2.2.8.2h.2l.1.2.4.4.3.6v.5l-.2.5V8l1-.3.3.2.3.4 1.5 2 .8 2.4.7 1.7 1 1.8.5 1-.3.3-1.4.1-.6.4-.4.5-.3.6-.4.6-.3.2-.2.2v-.3l-.1-.1-1-1.4-.5-.7v-.3l-.1-.3v-1l-.4-.4-1.3-1-.6-.2-.6-.1-2.2.2h-.8l-.2.1-.7.4.2.3.3.6.1.2-1 .3-.3.2-1.2.8-5.2 3.8-.5.7-.3.5 1 .5h.2l-1.3 1.8L11 26l-.9 1.7-.4 2.2v1.7l.9 5v.3l-2-.4-3 .1h-.4l-2.4.6-1.5 1.5-1 2.7v1.4L.8 44 2 46.4l.3 1.2v.1l-.4.6-.6.5-.5.7v1.3L1 52l.2.5v.3L2 54l1.2 2 .5.8 1 1 1 1.2L6 61v1.8l-.6 1.4-1 1-.8.6-.7.4v.2l.3.5.2.6-.2.5h-.5l-.6-.4h-.6L1 68l-.5.4.2 1.1-.2 2.2v1.2l.3 1 .6 1 .6.7.4.3.8.5.3.7v1l.6.8 1 .3-.8-.6.5-2-1-.6v-.5l5.4.7 2.2-.5 1.7-2.1-.2 1v.6l1.1 2.6v.8l-.3 1.1-.8-.7-1.4-.8-4.7-1.6-.7.3-.2.7.4.7 1.2 1h-.2v.4l.4.2.7.4.6.5.3.4.2.1h1.9l.2-1.3h1l1 .8-.2 1v.5l.3.2.4.6.4.2v1l.7.9 1.6 1.4.5 1 .3.3.4-.2.4-.4.3-.3.9-.4v.3l.5.2.2.3.4-.6.7-.3h1l.6.5.5.9.3 2.2.6 1 2 1.5.7.8.7 1.4.3.3h.3l.3.2.1.7.5.7 1.8-.1.8 1.3.6.3.4.4-.4 1 .3 1 2.9 2.6.2 3.3v.3l-.3.2.4.6.5.4.2.1.2.7v.8l.3.7.4.2 1.2.5 1 .5 3.6 1.2.8.5 1.8 2 1 .7-.1-.7v-1.7l-.4-.7-.4-.5-.2-.2v-.7l.1-.3.2-.3.1-.5-.3-1.6.3-.2h.3l.3-.3.3-1.2-.4-.4-.4-1-.2-1.3V103l.3-1.1.7-1.7-6.2-3.7-1.1-1-.9-1.2-.7-3.1-1.2-.7-3.1-.1.7-.5-.5-.8-.2-.7.1-.6-.1-.7-.6-.6-.6-.4-.2-.4.7-.4.6.9 2 1.8.5-.4h.6l.5.2.3.7 1-.5h1.3l4.6 1.1h.9l.3-1.1h-.2l-.8.4-.3-1.4 1.5.4.6-.1.5-.7.4-1.3 1-1v-1.4l.1-.4.5-1.1.3-.4 2.6-3 .6-1 1-.7.9-1 .7-1 .6-1.3.3-1 .6-.5.7-.5.6-.7.3-.8.3-1.8.3-.9.8-1.4 1.3-1.6 1.4-1.2 1.2-.6 1.1.6.8 1.4.4 1.8V67l-.2.3-.4.8v.5l-.1 1v.4l.2.6.8 2.1 1.7 1.3.8.4 1 .1.6-.3 2-1.1.4-.5L74 72h2.5l1.2-.3 1.9-2.4 1-.8 1.3.8.6-1 .1-.8-.1-1v-1l.2-.6.5-1L84 62v-.3l-.4-.7-3-2.7-.5-1.1v-1.3l.5-.6 1.5-.9.5-.2 1.8.4 1.9 1.1 1.7.5 1.2-1.4.1-.6v-1.4l.4-.7.4-.3 2-.7 4-.7.5-2.7V46l-.9-1" fill="none" fill-rule="evenodd"/></svg>