<svg width="121" height="116"><path d="M104.1 7.1h.7l.2-.1h.2l.4-.1.4-.1h.4l.3-.2h.4l.4-.1.4-.1h.3l.4-.2h.4l.4-.1h.4l.3-.2h.4l.4-.1.4-.1H112.5l.4-.1H113.2l.4.1h.2l.2.2h.2l.1.1h.1l.2.1h.2l.2-.1.1-.1v-.1h1.3V6h.2V6h.3l.6.1.3.1v.2h.3l.2.1.1.1h.4V7h.2l.2.2v.3h.1l.2.1v.1H119.8V8l.2.1.1.2h.4v.1l.2.1v.1h-.9l-.3.2-.3.2h-.3v-.2l-.3.1H118.3l-.1-.1h-.1v-.2h-.1v.1h-.1v.1l-.7.2H116.9l-.3.2h-.1v.1l-.1.1h-.2v.1h-.1l-.3.4-.3.2-.2.1-.4.5v.1l-.2.2h-.5l-.1.1-.3-.3v-.1l-.2-.1-.2-.4h-.3l-.3-.1h-.1l-.2.2-.2.4v.1h-.2l-.1-.1h-.5l-.3.1-.4.5-.3.3h-.4l-.3.3-.3.2h-.1v.2h-.1V12h-.1l-.4.2v.3l-.1.2-.3.1v.1l-.2.3h-.2v.1l-1 1h-.2l-.2.3h-.1l-.4.2h-.1l-.1-.1-.1-.4-.1-.4-.1-.1.1-.2v-.2l-.4-.3.1-.2-.1-.1v-.1l-.1-.2H104.9l-.1-.1-.1-.2-.2-.1h-.2V12l-.1-.1-.3-.3v-.3l-.2-.1V10.8l-.2-.1V10.4H101.5l-1 .1-.8.2-.7.1-.8.2-.7.1-.8.2-.7.1-.8.2-.7.1-.8.1-.7.2-.8.1-.7.2-.7.1-.8.2-.7.1-.8.2-.7.1h-.5l-.1.1h-1.6l-.4.1h-2l-.5.1v27.2l.1.6v6.7H74v62.5H73.3l-.2.2-.4.3-.3.1H72l-.2.1-.2.2h-.1l-1 .1h-.1v.2h-.1l-.1.1v.1l-.1.2h-.2v.2l-.3.8v.1l-.2.1-.2.1-.7.2h-.2l-.2-.1h-.2l-.2.2-.1.3v.4l.3.6v.1l-.4.1-.1.2h-.1l-.5.3-.4.2h-.3l-.2-.2h-.1l-.3-.1-.2-.2-.2-.3-.1-.2-1.9-.2-1.7.2-.3.2H60.3l-.1.1h-.4l-.4-.1H58.5l-.3.2H58l-.8-.3-.3-.1-.5-.5-.3-.2-.4-.1-1.4-.3h-.4l-.2.2h-.5l-.2-.2V113.1l-.2-.1H52.5l-.2.1H52l-.4.2h-.4v-.4l.1-.4V111.9l-.3-.1-.1-.2v-.2l-.3-.3v-.5l.2-.1h.2l.1-.1.1-.3v-.5l-.2-.3V109l-.1-.1v-.1l-.1-.1V108.4h-.4l-.6.1h-.2l-.2-.2v-1l-.1-.1-.3-.1H49l-.1-.3-.1-.2-.2-.1H48l-.3.3-.3-.1-.2.2h-.1l-.2-.1h-.1l-.1.2-.1.8h-.4v.4h.1H46.1v.1l-.1.1v.2h.1v.2h-.5V109.4l.3.2V110l-.2.1V110.6l-.2.2-.1.2-.2.1H45V110.7h-.2l-.7.6-.3.1-.3.2-.2.1-.2.1-.1.1-.1.2h-.4l-.6-.5-.3-.3-.1-.2-1-1h-.1l-.6-.8-.6-.7-1.2-.8-.2-.3-.5-.5-.6-.5-.1-.2-.3-.4-.3-.3v-.8l-.3-.3-.9-1-.1-.1v-.8l-.1-.2-.9-1.3-.1-.3-.1-.2h-.2v-.2l-.3-.5-.4-.4v-.2l-.1-.7v-.1l-.1-.1-.1-.2V97l-.2-.4V96l-.1-.2-.1-.2H31.6l-.1-.2h-.1V95l-.1-.2-.3-.6V93.6l-.2-.2v-.1l-.1-.3V92.7H31l.1-.1h.1v.4-.1l.3-.6V92l-.3-.6V91l-.3-.3-.3-.4-.3-.2-.5-.2h-.1v-1.6l-.2-.3v-.2h.1l.2-.3V87l-.1-.4-.1-.3-.4-.7v-.7l-.5-.5-.1-.3v-1.3l.3-.5V81.7l-.2-.2v-.2l-.1-.5-.2-.6v-.4l-.2-.4v-.2l.3-.7v-.1l.1-.7v-.8l-.3-.6-.1-.4v-.8l-.2-.3-.5-1-.2-.3-.4-.4-.1-.3-.3-.4-.1-.2V72l.2-.2V71.3l-.2-.4-.2-.4-.5-1-.2-.6-.2-.4v-.4l-.1-.1V66.5l.1-.1h.2v-.1l.2-.3v-.7l-.2-.4V63l-.4-1.2-.1-.4v-.1l.3-.5v.1l.1.1.1-.3v-.3l-.2-1.1v-.4l-.2-.2-.1-.3-.1-.3-.1-.3V57l.1-.2v-.5h.1v.1l.1.1v.5h.2l-.1.4.1-.2.2-.3.1-.1.1-.1.1-.2v-2.1l-.2-1.3-.2-.3v-.5l-.4-.6-.2-.6-.2-.6h-.1l-.6-.7-.2-.3V49.2l-1.4-1.8-.6-.6v-.2l-.8-.7h-.2v-.2l.1-.3V45l-.7-1-.2-.7-.3-.6-.9-1.2-.5-1-.6-.7-.8-1.4-.3-.5-.2-.3v-.2l-.3-.2-.2-.3v-.3l-.2-.8-.2-.8-.8-1.5-.2-.8v-.4l-.2-.8-.3-.8-.2-.3-.3-.3-.6-.4-.1-.3-.4-1-.7-1.4V27l-.4-.5-.7-1.2V25l-.1-.2-.3-.4v-.1l-.4-.8-.1-.2V23l-.1-.5-.1-.2-.3-.3-.2-.4-.4-1-.2-.3L8 20l-.3-.3-.1-.1-.1-.7v-.2L6 17l-1.4-1v-.1h-.1l-.2-.3-.1-.1-.5-.6-.1-.2v-.1l-.2-.3v-.4l-.2-.3-.3-.9-.9-1-.2-.2v-.1l-.1-.2V11l-.3-.6v-.2l-.1-.8-.2-.5V7.6l-.2-.4L1 7V5.5l.3-1.8v-.1H2v-.1l.2-.1.4-.2L3 3l.4-.2.4-.1H5V3h.2l.1.1h.1l.1.2v.1H7L7 3h.1l.2.1h.2l.5.1.3.1h.2l.2-.1.4-.4h.4l.2-.2.3-.2.4-.2.3-.1.1-.2.2-.1h.1v-.1l.1-.1v-.1l.3-.2h.2l.2-.1.5-.3 1-.1.2-.1h.2l.1.1h.2l.2.1H14.6v.1L15 1h.2l.4-.1h.2l.3.3H16.3l.2.1.2.2v.3l.2.1v.5l.7.4.8.6.9.5.8.4.1.1.4.6h.1l.3.1h.2V5h.5l.2.1H22.3V5h.7v-.2h37.6V5h.1l.2.4v.1h.3l.3.7.1.1.5.4V7l.1.1.1.1h.2v.1l.6.6.1.2.2.1.3.1.8.4 1.1.2h.8l.3-.1h1.1l1.4.5h1.5l.5-.2h.4v.2h.2l.1.2h.4l.1-.2h1.5l.3.2H75.7l.2-.1h.5l.3-.2h.5l.4.3h.5l.2.3.1.1.1.1.3.2.3.2h1.1l.1.1h.2l.1.1.1-.1h.2l.2.2.2.1h.5l.3-.1.1-.3L84 10H85l.4.2.5.1.3.2.1.2h.2l.7-.2 2.2-.4 2.2-.4L94 9l2.3-.4 1.8-.3 1.8-.4 1.8-.4 1.8-.3.7-.2" fill="none" fill-rule="evenodd"/></svg>