<svg width="79" height="116"><path d="M78.8 77.7l-.6-1.1-.6-1.2-.7-1.1-2-3.5-.6-1-.6-1.2-.2-.3h-1.1l-.2-.2H71l-1.5.7-.2.1h-1l-.3-.1-.1-.2-.3-.3-.2-.1-.6.4V61.1l.1-.1h.1v-.1h.2v-.1l.1-.1v-.1l.1-.1v-.2h-.1l-.2-.2V60l-.1-.1v-.2l-.1-.1H67.3V59.3h.1v-.1l.1-.2.1-.2h-.5l-.1.1-.3.3v.1l-.5.3h-.1l-.2.3h-.2l-.3.3-.3.3-.2.2-.1.1v.2h-.1l-.1.1-.4.1-.4.2-.2.1V61.8l-.2.1-.3.1-.2.2h-.5v.1h-5.2v-.1l.1-.1V61.8l.1-.1V61.4l-.2-.3-.4-.3v-.7l-.2-.2v-.4l-.1-.1h-.2l-.1-.1-.2-.2H55.1L55 59l-.3-.1-.2-.1H54.2l-.8-.2h-2.5l.1-.2.4-.4.1-.1.1-.2v-.1h.1l.1-.1h.2V57.1l.3-.3h.1V56l-.2-.3v-.1l-.3-.2h-.1l-.5-.7v-.3l-.2-.1v-.1h-.2l-.3-.2h-.2v-.1l-.4-.4V52.6H49.6v-.1l-.2-.2-.5-.3h-.1v-.2l-.1-.2v-.2l-.2-.2-.1-.2v-.6l-.3-.3v-.1l-.1-.2-.3-.1-.2-.2-.2-.1-.1-.4V49h.5v-.5l-.2-.2h-.2l-.2-.1-.2-.2-.8-.8-.2-.1-.1-.2h.3V46.5l.1-.1V46.2l-.2-.3v-.1h.7l.2-.1h.6l.1-.1.1-.1v-.2l-.1-.3-.5-.6V44l.1-.2.2-.6v-.5l.3-.2h.1v-.2h.2l.1-.2.3-.2.5-.3.5-.4.2-.1.2-.2H50.5l.3-.1.2-.2.2-.1.1-.3.1-.2v-.5l-.1-.2v-.2l-.1-.5-.4-.4v-.7l.2-.2.4-.8.2-.2.6-.9.1-.1v-.2l.2-.6V34.3l-.1-.3v-.2l.2-.3v-.1l.1-.3.1-.2V32h.2l.1-.1v-.1h.4l.1-.1.1-.1.1-.1H54.5v-.2h.1l.2-.2.1-.1.1-.1h.4V30.5h.2l.2-.1v-.1l.1-.1V30l.1-.1h.3v-.2H57v-.1l.4-.2.3-.2.2-.1V29l.2-.2h.2l.2-.2h.2l.3-.3.1-.1h.1l.5-.1h.1V28h.7l.1.1h.2V28H61.5v-.2h.1l.2-.1h.6l.1.1h.1v-.1H62.9v-.4H63.2l.2.2h.1v-.2H63.8v.1h.2v-.1H64.6l.1-.2.1.1.1.2.2-.2v-.1l.1-.1.2-.2v-.2h.1l.1-.1h.1V26l.4-.2.4.1h.2v-.2h.1l.1-.1h.1V26l.3.2.1-.2v-.1h.2v.2h.2l.3-.2h.1v-.1h.2l.2.2h.1l.1-.2h.1v.1l.1.1v.5l.4.3h.1v.1l.1.1h.2l.1-.2v-.2h.5V27l.2.1h.4l.1-.2v-.4l-.1-.3-.1-.2-.1-.1-.2-.2-.6-.3-.2-.2V25l-.1-.2v-.2l-.2-.2-.2-.2-.3-.2h-.5l-.3.2-.1.1h-.5V24l-1-.4h-.2l.2-.4.5-.8.5-.7.5-.8.5-.7.4-.8.5-.7.5-.8.5-.7.1-.3-.1-.1v-.1l-.1-.3H70v.1l-.1.1h-.1v-.1l-.2-.2-.2.1h-.1v-.1l-.2-.3V16H68.6v-.1l.1-.2H68l-.1-.1v-.1h-.2v-.1h-.2v-.1h-.2v-.1h-.2v.1h-.4V15l-.3-.2v-.2h-.2l-.1-.1H66l-.2-.2-.4-.4H65l-.3-.2h-.2v.4H63.8l-.2.3-.1.1-.2.1H62.6l-.5.2H62v-.5l-.2-.2h-.1l-.1.3h-.1v-.3l-.1-.2h-.5v-.2h-.2l-.1-.1H60v-.2h-.2l-.4.2-.3.4-.3.3v.1l-.1.1H57.9l-.2.2-.3.3h-.7v.2H55.7v-.1h-.1l-.6-.2h-.2l-.2-.2-.1-.1h-.2l-.2.4-.2.1V15l-.1-.1h-.1v.2l-.3-.1H53v.2h-.5v-.1l-.2-.3-.1-.1-.4-.2-.1.2h-.1v-.1l-.4-.1v-.1l-.1-.2-.1-.1-.1-.2v-.2l.3-.2v-.1l.2-.3v-.2l-.1-.2v-.1l-.2-.2v-.5l-.1-.2v-.3l-.1-.1h-.1l-.2-.3-.1.2h-.4v.1H50l-.1-.1h-.4V11l-.4-.2-.2-.2v-.2l.1-.2V10l.2-.1v-.6H49l-.1-.2h-.1l-.2-.2h-.1l.1-.2v-.1h-.1V8.4h-.2V8h-.1L48 8v-.1H47.7l-.1-.1-.1-.1v-.1h-.2v.2h-.5v-.1h-.1l-.2-.3v-.2h-.4V6.8H46V7h-.2v-.1l-.2-.4v-.1l-.2.2h-.1l-.4-.2h-.4l-.1-.1-.2-.2v-.3H44l-.2-.2v-.1H44.2v-.2H44V5h-.2l-.2-.3V4.4l-.2-.7v-.1l-.1-.1h-.1v-.1l-.2-.1-.4-.3-.2-.1-.2-.3-.2-.3h-.5v-.1H41.3l-.2-.1.2-.2-.2-.4v-.2h-.2l-.2.2H40l-.1-.2-.2-.2H39.4V1l-.3-.4H39l-.2-.2h-.5v.2l-.2.1V1H38V1l-.2.1h-.1l-.1.1H37l-.5-.2h-.7v.2l.1.1.1.1h.2l.2.2h.2l.1.1.1.1.2.7.1.3.2.2.1.1h.2v.1l.3.2v.1h.2v.1l.1.1v.5H38v.1H38v.5l.2 1V6.2h.1v.1h-.7l-.1-.1-.2-.2-.1.4-.2.7-.2.7-.2.8-.2.7v.3l-.2.3-.1.1-.3.3-.3.3-.3.4-.3.4-.3.3-.3.4-.3.3-.4.4-.3.3-.3.4-.3.3-.4.3-.4.3-.4.2-.3.3-.4.3-.4.3-.3.3-.4.2-.4.3-.5.2-.8.2-1.6.6-.8.2-.7.3-.8.3-.8.3-.8.2-.4.2H22l-.5.4-.6.9-.3.2v.1l-.3.4-.3.2V21.2l.1.2h.1V21.7H20l-.1.1h-.1l-.1.1-.2-.5-.1-.1-.3-.1H19V21.8l-.2.3v.2l-.1.2v.5h-.1V23.7l-.2.2h-.1v.1l-.1.1v.2l-.1.4-.1.1H17.7V25.4l-.1.3-.4.8v.2l-.1.2H17v.7l.2.2-.1.2v.1l-.1.1v.4l-.3.1-.6.3-.2.1-.3.3-.1.1v.9h-.4v.2l-.2.3v.1l-.2.2-.1.1h-.1l-.1-.1H14l-.2-.1H13l-.1-.2v-.1l-.2-.1-.1-.1-.1-.1v-.1l-.2-.2h-.1l-.1-.1v-.1l-.1-.2-.2-.3v-.3l-.2-.3v-.1l.1-.3v-.1l-.1-.1h-.2V28h-.1l-.4-.3-.1-.1h-.2l-.3.1-.4.2h-.2l-.2-.2v-.2l-.3-.2H9l-.2-.1-.1-.1-.2-.2-.1-.1H8v-.1h-.5l-.1.1v.3h-.1l-.1.2-.5.3-.3.2h-.2l-.4-.2-.1-.2.8-1.2.1-.1h-.3l-.2.1h-.3l-.1-.3V25.7l-.1-.1v-.4l.1-.1V25l.2-.1h.5l.2.1H7v-.1l.2-.2.5-.3.1-.1v-.1l-.1-.1v-.2l-.1-.2-.1-.2V22.4h-.1v-.1h-.1v-.5h-.1v-.5l-.3-.1h-.1l-.2.2v.2h-.1l-.2.1h-.7v.1l-.1.1-.3.4-.1.2-1 .6-.3.2-.1.2-.1.2V24h-.1l-.1.2-.3.1-.2.2-.2.2-.3.5-.1.2H2l-.1.1-.1.1-.1.2-.2.2-.5.3v.1l-.2.2V27.6l-.1.1H.5v.1l-.1.1v.1l.1.2v.6l-.1.2H.4V29.4l.2.2v.1l.6.5V30.4l.2.1.2.2.2.2.2.3v.2l-.3.1h-.2V31.9l-.1.2v.2h-.1v.2l.1.2.2.2.1.1.4.2.1.2.5.5.2.2.3.7.1.5v.6l-.2.4-.2.2-.2.1h-.3l-.3-.2v-.1H2l-.2.2h-.2l-.1.2v1l.2.3.2.1.2.2.3.1h.2l.2.2H3l.3.3.2.1.1.1.1.2.5.2.6.4 1 .4 1.1.6 1 .5H8l.7.7h.1l.1.2v.3l.2.2v.1l.4.4.4.3.1.2.4.5h.1v.5l.2.1.2.3.2.2.1.2v.3l.1.3v.5l.8.9v.5l.1.1.6 1 .3.3.7.6h.1l.2.3.1.1.7.6v.2l.2.1v.2l.3.6V52.4h-.1l.1.2h.1l.2.1.1.2.3.2.2.2.1.3.1.2v.6l-.1.1v.1l.3.4.1.2.1.1v.1l.1.1v.4l.1.1v.3l.1.1.2.1.1.1.1.2v.1l-.1.1h-.2v.1l.1.1v.2h.1l.1-.1v-.1l.1-.1h.2l.1.1V57.5l-.1.1V58h.1l.2.2h.2v.3l.1.2.1.1h.1l-.1.2v.1l.1.2v.4l.2.3v.3l.7.7v.8l.1.1v.2l.1.1v.2l.1.1.2.3v.2H20v.2l.1.1.2.2v.1l.2.3.2.2v.2l.3.3v.1l.1.2.2.3v.2l.2.2.5 1h.1l.2.1v.2l.1.1h.1l.1.4.2.2.1.1v.1l.2.3v.2l.1.2V68.8l.2.2v.4l.1.2v.1l.1.2v.1H23.3v.4l.2.2h.1l1 .6.2.2h.2l.2.2v.1h.2v.1l.1.2.1.1v.2l.2.2h.1v.1l.2.1V73l.2.3v.1H26v.2l.1.3.2.2v.4l.1.5v.2h-.1l-.1.2h.3l.2.1.3.2v.5l.2.1.4.2.4.4.4.3v.2l.2.2v.2l-.1.2v.1h.1l.2.2.3.4.1.1V79h.1l.3.6.1.1.4.4h.1v.5l.2.5v.4l.1.1.7.7.3.5.1.1h.1l.1.1.2.4.3.5V85l-.1.2v.2l-.1.2V86l-.2.2v.3h-.2v-.2l-.1-.1H31.4l-.1.2v.2h-.1v.2l.1.1h.5v1.7h.2v-.1h.3v.1l.1.2.2.1.2.2v.4l-.2.1.2.2.2.1.2.1.1.2.3.2.1.2V91l.2.2v.4l.1.2h.1l.3.2.1.1.1.2h.2v.2H35.2l.3.3h.2v.1l.3.1.5.3.3.2V93.7l.3.2v.2l.4.4V94.8h.5l.1.1.3.3V95.6h-.1l.1.2h.3l.2.2v.2h-.2v.1h.1v.1l.1.1h.2l.2.1.2.3h.4l.1.2 1 .6.5.1.1.1.3.2 1.1.5h.1l.1.2h.1V99l.5.2v.1h.6l.2.2.2.1H45l.6.4h.1V100.3h.1l.1.1.5.4.4.3.2.1.5.2.2.1v.1l.1.1h.4l.4.1.6.3h.4l.4.3h.2l.1.4h.2l.2.1h.4l.3.2.2.2h.2l1.1.6.7.5h.2l1 .1.4.2h.2l.2.2h.1l.1.1h.1l.2.1v.1l.4.4.1.1v.2l.2.2h.3l.1.1v.1h.1l.3.2V106.8h.1l.5.1.2.1.4.2.1.2.3.3.2.2h.2l1 .3h.1l.1.1.1.1.2.1h.3l.2.2v.2l.3.1.2.3.1.3v.2l.1.1v.7l.1.1V111l-.1.1v.2h.5l.2.2.3.1.3.3.2.2.3.3h.1l.4.1h.1l.3.3h.1l.1.2.1.2.1.1h.2l.1.2.4.3h.1v.1h.1l.5.5.2.1.2.1h.2l.4.5.4.2.1.2.3-.2H70l.5-.3h.4l.1-.2.3-.3.3-.2.1-.1.1-.3.4-.8v-.4l-.2-.2V111.9l-.2-.2v-.5l.2-.2h.8l.3-.2.8-.8V109.1h-.2v-.2l-.3-.2h-.1l-.4-.1.1-.2.1-.3.1-.2h.1l.4-.3.2-.1.2-.1h.2l.1-.1.1-.2v-.2l.3-.2v-.1l.2-.4.7-.6v-.2l.2-.3v-.1h.4v-.1l.4-.2h.1l.1-.2.1-.1-.1-.2V103.3l.2-.3h.2l.7-.4.1-.2v-.2h-.2l-.3-.2-.3-.3H76v-.1l-.3-.3-.1-.4-.3-.6-.3-.7-.5-1.3V98l-.1-.2v-.2l.5-.6v-.4h.1v-.1h.3V96l.2-.1h.2v-.3h.4v-.2l-.1-.2-.1-.2h-.2l-.3-.3-.1-.1-.4-.6-.2-.2v-1.1l.1-.2h.2l.3-.1h.1l.1-.3v-.8l.1-.1h.4v-.5h.2l.3-.3.1-.1.4-.2.1-.2v-.2l-.1-.1V89l.2-.1h.2l.4-.1.1-.2v-.2l-.2-.4V87.8l-.1-.1-.3-.2-.1-.2V86.7l-.2-.2V86l-.1-.1-.3-.3-.2-.2.1-.1H76.8l.1-.1V84.8l.2-.2.1-.2V84.2l.1-1.2v-.5l-.1-.3v-1.9l.2-.1V80H77.8v-.2l.1-.2h.2l.5-.2.2-.3-.1-.1h-.2V78.6h.1l.2-.2.1-.2.1-.2h.1l-.2-.4" fill="none" fill-rule="evenodd"/></svg>