<svg width="67" height="114"><path d="M19.5 73.5l-.1-.1V73l-.2-.1v-.2h.2v-.2h-.2v.1H18.9v-1.1h-.4l-.1-.2v-1.1h.1l.2.1V70l-.2-.2-.1-.2v-.2l.2-.2.1-.3V68h-.2V68l-.1-.1v-.4h-.2v.4H18v.1l-.2.1v.1h-.1v.7l-.1.1-.1.1v.2l.1.1.1.2V69.9l-.1.1H17.3l-.2-.2v-.1H17v.3l.2.2v.2h-.1v-.2H17V70.8h.2v.5h.4l.1.1.1.1V71.9l.1.3v.2h-.1v-.1l-.1-.2h-.2l-.1-.2h-.2v-.2H17l-.1-.1V71.2h-.2V70.9h-.2v-.1h-.2v.2h.2v.2l-.2.2.2.1v.1l.1.1v.2l.1.1h.2l.1.1.1.1v.1l-.2 1-.1.2H16.6v.1l.1.1v.2h-.3v.2h-.2V74.5l-.3.2h-.1l-.1-.4V73.9l-.2.1v.2l.1.2h-.2v.2h-.2l-.1-.1h-.2l-.1.2v.2H15.1v.2h-.2v.1h-.2v.2h-.1v.4H14l-.2.2h-.2l-.1.1v.2l.2.3v.1h-.1v.1h-.1v.2h-.2l-.1-.2v-.4l-.3.6-.4.2V77.5l-.3.4-.1.2v.2l-.4.3v.2h-.1l-.6.5H11v.2h-.2l-.1.2h-.2l-.1.1V80.1l-.1.1-.2.2-.2.2-.4.3-.1.4h-.2l-.1.2H9V81.8l-.6.4-.2.2v.1H8v-.2l-.2.1h-.5l-.2.4h-.2l-.2.3h-.1v.2l-.1.3-.2.1h-.6v.2l-.1.1-.1.2-.6.5-.1.2-.5.7-.1.1-.1.1-.3.1-.1.1-.2.2h.1v.1l-.1.2h-.2v.1l-.1.2H3v.4l-.1.2v.1h-.1v.5l-.1.1-.1.2v.1l-.1.1v.2l.2-.2.2-.1H3v-.2h.3V88l.3-.2.2-.1.6-.2h.1v.1h.2V87.3l.3-.2V86.5H6v-.1H6.3l.2-.1h.1l.5-.6.4-.4.6-.3h.1l.3-.5.2-.3V84l.1-.1h.1v-.2l.1-.2v-.2l.3-.1.1-.1h.5l.2-.1h.5v-.1l.1-.2.4-.4h.2l.2-.2.3-.4v-.2h.1v-.2l.3-.2.5-.8.2-.1V80l.1-.1v-.2h.1v-.2h.2v-.2h-.3V78.7h.1v.2l.2.1h.2v-.5l-.2-.3v-.4l.1-.1.2-.1h.1l.2-.1.2-.1h.7v-.1h.1l.2-.1h.4l.2-.2h.4l.2-.2.2-.2v-.6l.2-.3.2-.3.5-.5h.2v-.1h.2l.2-.2h.9l.1-.2.3-.3.2-.2H19.7v-.1l.1-.2-.3-.2zm19 6.4l.2.4.2.1.2.4.1.1.2.2v.1h.2l.1.1.1.1h.2l.3.2h.6v.1h.2l.2.3v.2l.1.5.3.6.2.3.2.2.3.1H42.8l.2-.1h.3l.5-.4h.1v-.2l.4-.5.1-.3.1-.3v-.3l-.1-.1-.2-.1-.1-.2-.1-.3h-.1l-.2-.2-.1-.2v-.1l-.1-.1h-.2l-.1-.1v-.2h.2v.1-.2l-.2-.2v-.2h.1v-.1l.1-.2v-1.5l.3-.2v-.3h.1v-.1l.1-.2.3-.4v-.2l.1-.1V76.1l.3-.5v-.7l.3-.5v-.1l.6-.6v-.2l.3-.9.1-.3.2-.2v-.2l.1-.3H46l-.1-.2V71l-.2-.1-.1-.1H45.3v-.1H45l-.1.1h-.1v-.2H44.2v-.1H44v-.1h-.7l-.5.4H42.5l-.3.1-.3.3v.4l.1.5v.1l-.3.5-.1.4-.3.2v.1H41l-.1.1-.1.2v.2l.3.6V76l.1.3V76.6l-.2.2-.1.1H40.7l-.4.4h-.1l-.4.2h-.2l-.4-.1h-.6l-.1.1-.1.3-.3.5v1.1l.1-.1v.3H38.6V80zm-3.3-6.6l-.3.5v.3l.1.2h.5l.1-.2.4-.7.2-.2H36.5l.3-.3H37.2l.2-.1h.4v-.1h.1l.6-.1h.7l.3-.1V72.2l.1-.1.1-.1h.1l.1-.1.2-.1h.5l.2-.3v-.9l.2-.2.2-.1.1-.1v.1l.2-.1H41.8V70h.1v.2l.2-.1v-.2h.1l.2-.1v-.2l.2-.3h.4l.2-.2v-.2H43V68h.2v-.6l.1-.1V67h-.1V67H43l-.1-.1h.1l.1-.1v-.5.1l-.2.2-.2.1-.3.1-.3.2H42l-.1.1-.2.2h-.4v-.1l.1-.2.4-.2-.3-.1h-.1l-.1-.2-.1-.2H41l-.2-.1h-.5v.1l-.1.2H40v.2l-.2-.2-.1.1v.2H39.4l-.1-.2-.2-.2-.4-.1-.3-.4h-.1l-.1-.1-.3-.4h-.4v-.1l-.2-.2-.2-.1-.3-.1-.7-.2H36l-.2-.2-.2-.3h-.1l-.3-.1V64H35l-.2.2h-.1l-.1.2v.4l-.2.1v.2h.7l.2.2h.6l.1.3V67l-.1.1v.1l-.1.8v.2h-.1V70.4l-.5.8-.1.3v.2l-.2.2V72.1l.3.2v1zm12.4 2.4h.4l.1-.1.1-.2.2-.1.3-.2h.1v-.4h.1v.1h.2v-.2l.1-.5V73.3h.1V73l-.1-.6v-.7l.1-.1v-.1l.1-.2V70H49v-.1H49v-.1l.3-.3V69l.2-.2v-.2l-.2-.1-.2.1-.3.5-.1.2v.2l.1.4-.1-.1-.1.2h-.1v.8l-.5 1.3-.2.2-.2.3-.1.1-.1.2v.3l-.3.2v.6l-.1.1-.6.8-.1.1v.1l-.2.4-.3.5v.3l-.2.2-.2.2-.3.2v.5h-.2l-.1.3.1.1V78.1l-.2.7-.4 1.9v.5l.1.2h.2v-.1l.5-.5v-.1l.1-.1.2-.1.1-.2.1-.4v-.2l.7-1.5h.1V77.8l.2-.3v-.7l.1-.1h.1l.1-.1v-.1l.1-.1v-.2l.4-.4.2-.2zm9 .2l.3.1h-.1v-.6h.1l.5.1h.2v-.1l.1-.2v-.4l-.1-.1-.1-.1h-.1l-.2-.2v-.5l-.1-.2V73H57l-.3-.4v-.2h-.1l-.2-.1-.4-.2V72l-.1-.3v-.3l.3-.9v-.3l-.1-.6v-1 .1H56v-.1h-.1l-.1-.1h-.1v-.1l-.1-.1V68l.1-.2v-.2l-.2-.2H54.7l-.3.3-.3.3-.2.2h-.6l-.3-.1-.1-.2-.2-.4v-.1l-.3-.2-.1.1v.3l-.3-.4-.1-.1-.4-.4-.2-.2H51V67.3l.1.1v.2h.1v.2h.1l.1.1-.1.1v.2l.1.2H51.8V69.7l-.1.1v.4h.1v.4l-.1.1v.2H52v.2h.2l.3.2h.1v-.1l.2-.2v-.5l.2-.1H53.3v.2h.1l.3.2.2.3.1.2.3.3.2.7v.5l-.2.4v.4l-.2.2v.8l.2.1v.2l.1.2v.4l-.1.3v.5H55l.1.1v.1l.2.1h.1l.1.1v.1l.4.3h.2v-.4l-.1-.3-.2-.5v-1l-.1-.1v-.1h.4v.4l.1.1v.3l.2.2.2.2zM27 57l.1.2v1l.1.2v.1H27.4l.1.1.1.1.1.3.2.2v.1l.1.1v.7h.1l.3.6.3.2v.1l.2.2h.1l.1.1v-.1h.2v.2h.1-.2v-.1.5l.2.1h.5l.2.2.3-.4.1-.1h.2l.1-.2h.2l.2.2V60.9l.3.1v-.2l-.2-.2v-.2h.2v-.5h.1l.2-.2.4-.4v-.7H32l-.2-.3V57.7l-.1-.2V56.2l.1-.1.3-.2v-.4h-.7V55h-.2l-.1-.1H31l-.3-.5-.8-.7-.1-.2h-.1l-.1.1h-.1l-.1.1v.2h-.1v-.2h-.6l-.1-.1-.2-.3-.2-.1V53l.1-.1h-.2l-.1.1H27.7l-.6.2h-.8V53h-.7l-.1-.1H24.9l-.5-.1H24.1l-.1.1-.1.1v.2l-.1.1v.2l.1.2h.4v-.1h.1l.1-.1h.2l.1.1v.5l.2.2.1.2.2.2v.1h.2l.1.1.2.2h.3l.1.3.3.4.2.4.2.2v.4zm40 39h-.3V95h-.1V95l.1-.1h.1l.1-.2V94.4l-.1-.3-.1-.4V93l-.1-.1H66l-.1-.1-.2-.3-.3-.2v-.1l-.2-.2v-.5l.3-.2.1-.1V91l-.1-.3v-.2l.2-.1v-1l-.3.2h-.2v.1H65l-.1-.1v-.2l.2-.2.1-.2H65v-.1l-.1-.2v-.1l.2-.3V88h.3l-.1-.1v-.2l-.2-.1v-.1H65l-.5-.1h-.4v.1h-.5l-.2-.4-.1-.1v-.2l.2-.2h.2l.2-.2h.4l-.1-.1V86l.2-.2h.2l.1-.2v-.1l.1-.2.1-.1V85l-.1-.3-.1-.2-.5-.5v-.1l-.1-.2H63.8v-1l.1-.2.1-.2v-.2h-.2l-.3.3h-.2l-.1.1H63l-.4-.3v-.3l-.1-.2v-.3l-.2.1H62v-.2l.2-.1.1-.1v-.2.2l-.1-.1v-.1l-.1-.1H62l-.3-.2v-.1h-.5l-.1-.1-.1-.2h-.5V80h-.1l-.2-.1-.1-.2H60v-.3l-.1-.2V79h-.2l-.2-.1h-.2l-.1-.2H59v-.2l-.4.6v.4l.2 1v.1l.2.4v.4l.1.3.2.2V82.5l.1.1.1.2V84h-.2l-.3.3h-1.1l-.1-.1-.1-.1-.2-.3-.1-.2h-.2V84l-.2.1v.2h.1v.9l-.2.1h-.1l-.2.1h-.1l-.2-.3-.2-.2H56l-.5-.4h-.1v-.1h-.2v-.1h-.4l-.1-.1H54.4V86l-.1.1h-.1v.2l-.1.1v.2l.2.2v.2l-.1.1v.2l-.1.2v.1H54l-.1.1h-.4v.2l-.1.2v-.5l-.3-.1h-.2l-.2-.3h-.1V87H52.2v-.2l-.1-.2H52l-.2.2-.3.1-.2.3-.1.2-.1.3v.4l-.1.2h-.1V88.8l-.1.1v.5l-.2.2-.3.2H49l-.2.2-.2.1-.1.2H48.2v.1l-1 .7-.2.2h-.2v-.4h.2l.3-.1h.1l.7-.7h.1v-.2l-.1-.4v-1.2l-.2-.3v-.2l-.4-.4-.1-.3v-.1h-.1l-.1-.1H47v-.1l-.6-.1v-.1h-.2v.4h-.1v.1L46 87H46l-.1-.1h-.2V86.2h-.4l-.2-.1h-.2v.1l.2.3v.1H45v.1H44.6l-.1.4-.2.2-.2.1h-1.5v.1h-.2v.2h-.1v.2l-.2.3v.5H42v.1h-.2V89.2l.3.2V89.6l-.4.3-.1.1h-.4l-.1.1-.7.1h-.4V90h-.2l-.1.2h-.1l-.3.2-.5.1h-.2v.1h-.4l-.5.2-.3.1h-.2l-.2.2-.1.2-.2.3-.6.7-.1.3-.1.2.1.1V93.7l.2.1v.2h-.1l-.1.1-.1.1h-.1v.2l-.1.1-.1.2v.4l-.1.3v.2h.1v.2l-.3.2-.5.4-.3.5v.6l.3.5.2.2.5.2.3.2H36.2v-.1l.2-.1v-.2l.3-.6.3-.4v-.5l.2-.5v-.3l.2-.2h.2l.1-.1.1-.2.1-.2V95l-.1-.2V94.6l.3-.1v-.1h.1v-.2h.2v.3-.1l.1-.1.1-.1V93.9H38.3v-.2l.4-.4.1-.2.6-.4.2-.1.2-.1h.4l.1.2h.6v.4l-.1.2v.6l.2.1V94.3l-.1-.1h-.1V94.5l.1.1v.1h.4V94.3l.1-.2h.2l.2.3h.2v.1h.2V94.3l.1-.1.1-.2v-.2l.1-.2v-.2l.2-.3.2-.2v-.1h.2v.5l.1.1h.2v.4h-.1l-.2.1-.1.2v.1l.1.2.2.1H43.6l.1-.2h.4V94.7h.1l.1.2.2.2h.1l.2.2.2.1H45.3v-.5l-.2-.1v-.1h-.2v-.3l-.2-.2-.1-.1v-.2h.1l.1.1v-.2h.1l.3-.1.2-.1v-.1l.2-.4-.2-.2-.2-.2v-.2l.2-.2h1.3l.1.1h.2l.1.1.4.5v.1h.7l.1.1.4.2.4.2.3.3.2.2.4.7v.1h.1l.1.2h.3l.2.1-.2.3v.6l-.2.1v.2l-.2.1-.2.3-.3.1-.1.1h-.2l-.1.2-.3.7v1h-.1v.4h.1v.1h.1v-.1h.2v.5l.2.4v.8h-.2v.5l.2.3v.3l.3.2.4.5.1.1v.3h.2l.2.2v.1l1.3.5 1 .6h.1v.2h.1l.2.1.5.3h.4l.3.1h.2l.7.4h.8l.2-.1.4-1.1v-.1l.1-.1v-.2h.6l.1.1v.1l.1.2V105l-.3.4-.2.1V105.8l-.1.2v.2h.2v.2h.1v.1h.2l.1.1v.1l.1.1v.7h.2l.4.1h.2l.1-.2.1-.1.4-.7.7-1 .5-.6.1-.3v-.4l.1-.2v-.4l-.3-1V102.3l-.1-.1v-.1l-.3-.4v-.5l-.2-.1h-.2l-.2-.2-.3-.4-.2-.1v.2h-.2v-.2l-.2-.3v-.7l.2-.3.1-.3.3-.4h.1V98l.2-.2.2-.1h.2l.2-.2.3-.2V97l.1-.1V96l.2-.1.4-.2.4-.3H61.6V96.2l.3.7v.3l.2.2.4.4V98.4l.3.4h.1l.2.1.1.1v.4l.1.2V101.3l.1.1.2.4v.2l.2.2v.4l.1.1h.1v-.7l.2-.5v-1l.1-.6.1-.3v-.2h-.2l-.1-.2-.1-.3h-.1l-.1-.2v-.2.1h.1v-.2h.4l.2.2.1.5.2.1.2.1v-.4l-.3-.2v-.5l.2-.2.1-.1h.2l.3.1h.2l.1-.2v-.4l.2-.1.2-.2V97l.2-.4h.1l.1-.1v-.2l.2-.2V96zM33.2 50l.1-.1v-.1h.2l.2.1.2.1v.2h.2l.2.1.1.1.2.1h.1l.1.1h.1l.2.3H35.6l.1.1h.1l.3.1.2.2.3.6.1.1v.2h.4l.1.1v.1h.4l.1.1v.1l.3.1.1.2v.1l.8 1V54.9l.4.4h.4l.2-.2h.1V55h.1v-1.1l-.1-.3v-.1l-.2-.1-.3-.4-.1-.3.2.1.2.1v-.1l-.1-.1-.5-.3-.3-.3V52l-.1-.2v-.4h.1V50.7l-.4-.5-.2-.2v-.2l.1.1.2.1h.4l.1-.2v.1l.1.1h.1l.1.2h.2v.1l.3.2V50.9H40.5l.2.2h-.1v.1h.2l.2.2.3.4-.3.3h.1l.2.3h.1v.1l.5.3.2.2h.4l.2.1.4.3h.2l.1.1.1.2.1.2v.2l.2.2v.2l.2.2.2.2.1.1v.3l-.1.5v.5l.1.2h.2l.2-.1H45.2l.2.3h.1l.1.2h.1l.2.1.2.1.2.3H46.7v-.1h.1V57h.2v.1l-.1.1.1.2v-.2h.2V57.7h.1l.1-.2h.6l.2-.3V56.7H49.3v.4l-.2.2h-.4v.1l-.1.1h-.2l-.2-.1H48l-.1.2H47.6l.1.1h.1l.1.1v.6l.2.3v.2h.2l.1.2h.1l.2.3.2.2h.7V59l.2-.1v-.1l.2-.9-.1-.5v-.2h-.1V57l.1-.3v-.2h.1l.1-.2h.1V56H50L50 56h-.1v.1l-.2.3h-.1l-.3-.2V56L49 56l-.2-.1-.3-.1v-.1H48.2v-.2H48v.2l-.3.3-.2.2h-.2l-.1-.1v-.2h.1V55.6l-.1-.1V55.2l.1-.2H48v-.1l-.1-.1h-.1l-.1-.3-.1-.1h-.1l-.1-.1-.2-.1v-.5H47v-.1H47l-.2-.3v-.1l-.5-.3-.3-.3h-.1v-.2h-.1v-.2l.2-.6v-.1h.4l.2.1H47.3l.3.1H47.8v-.1l.2-.2h.6l.2.2v-.2l-.1-.1-.1-.2-.2-.1h-.2l-.5-.3-.3-.2-.2-.2-.2-.3-.2.4-.4-.1-.6-.2h-.3V50l-.2-.1h-.1v.2H45v.1L45 50V49.8l-.2-.2V49.3h-.1l-.1.2-.1-.1v-.1h.1V49l-.2-.1v.1h-.2v.1h.1v.1l-.2-.1h-.2v.2l-.1.1h.1v.1h-.2V49.9l.4.2h.2v-.2l.2-.1v.2h-.1v.1l-.3.2V50.5l.2.2V51l-.3.3-.3.1H43l-.1.1-.2-.1-.2-.1V51l-.1-.2v-.4h.1v-.1h.1V49.6l-.2-.2-.1-.1v-.6h-.2l-.3-.3v-.1l-.2-.2-.2-.1V48l-.2-.3h-.1l-.2-.1h-.1l-.2-.2h-.1v-.1h-.4V47l-.1.1H40V47.5H39.7l-.1-.1h-.1v-.1h-.2l-.4-.2h-.1v.2-.1h-.4l-.1.1h-.1v.1l-.1.1H38l-.2.2.1.2v.1h-.2v.2h-.1v.2h.1v.4h-.2l-.1.1V48.6h-.2v-.8H37V48.1h-.2l-.2.2h-.1v.2l-.1-.1v.2l.1.2.2.2h.2l.3.4h.2l-.1.1v.2l-.7-.1h-.1l.3.3V50.2l-1-.2-1-.4-.1-.1-.5-.5-.5-.3-.2-.4V48l.1-.2-.2-.1V47l-.3-.2-.1-.1v-.2l-.1-.2V46l-.3-.8v-.5l.1-.2h.7v-.2h-.1L33 44h-.1v-.1l-.3-.4h.1l-.1-.2-.1-.2V43l-.1-.2-.3-.4v-.1H32l-.2-.8v-.2l-.3-.1-.2-.2-.1-.2v-.8h.2l.3-.3v-.2l.1-.5h.1l.4-.4v-.2l.1-.2h.2l.2-.2h-.2l.3-.4V37.2h-.4V37l-.2-.3V36.1l.2-.1.4-.3.3-.3.5-.4h.2l.3-.1.2-.2.3-.1H35l.4-.3h.3l.1-.1V33.9l.1-.2h.4v.2l-.3.2V34.4h-.1l-.3.3-.1.2v.2l-.2.1v.1l.2-.1.2-.2.1-.2v-.2h.1l.2-.3.3-.2.2-.2h.1v-.2l.2-.3v-.1l-.2.2v-.2l.2-.5v-.2.1l-.2-.2v-.2h.2V32l.2-.2.2-.1v-.2l.3-.3V31l.1-.1.1-.3v-.2l.4-.6.2-.5.1-.2v-.7l.1-.2h.1v-.1l.1-.2h.1v-.5h-.4v.1h-.1l-.2-.2v-.9h.2v-.1l-.2-.2H38l-.2-.2h-.4l-.2-.1H37v-.2l-.1-.1v-.2l-.1-.2-.2-.1V24.8l-.2-.6v-.8h-.1l-.1-.1v-.5l.3-1.4v-.6l-.1-.1v-.2l.3-.2.2-.2.1-.1.2-.2.1-.3.1-.3v-.6l-.1-.2-.3-.2V18l-.1-.2v-.1l-.2-.1h-.4v.1l-.2.5v.3H36l-.1.1-.3.4-.3.3h-1l-1.2-.5-.2-.1V19l-.2-.2-.1-.2-.3-.1h-.1v-.1l-.1-.1H32l-.6-.4h-.2l-.1-.1H31l-.7-.4-.1-.2-.4-.2-.1-.1h-.2l-.1-.1H29l-.1.1h-.4l-.2.2h-.1l-.1.1h-.4l-.2-.3-.1-.1H27v.5h-.2v.1l-.4.1H26l-.2.1-.1.1v1.5l-.2.4v.1h-.1v.1l-.4.9v.6l-.1.4-.2.2V22.5l-.2.3v.2l.1.2v.2l-.2.1h-.1v.1l-.2.9v.1h.1l.3.2v.1l.3.5v.5l-.2.2v1l.2 1.3V28.7l-.6.8-.1.1-.1.1v.8l-.1.2v.4h-.1l-.1.1v.1l.1.2v.5l.1.3.2 1.2.1.1v-.1l.2.2.1.2v.5l-.1.2-.1.2-.3.2H24.3v.1H23.9v.2l-.2.1v-.2h-1.1l-.2-.2v-.6h-.1l-.2-.1H21.7v-.1l-.3-.2v-.1H21v-1l-.1-.1H20.7l-.1.1h-.2l-.1.2v.1l-.1.3-.2.5v.3l.2.2v.2l-.1.3V36h.2l.1-.2H20.7l.2.2v.3l.1.2V37.4h-.2v.2l.2.1.1.1V38.6h.2v.2h.1V39.2l-.1.1H21v.5l.4.4.2.3.1.2v.4l.1.1.3 1v1.2l.1.5h.1v.2h.2v.1l.2.1H23v-.7l.1-.1h.1v.1h.2v.1l.1.1h.2v.2h-.1l-.1.1-.1.1.1.2-.2.2.1.2.2.3H24l.3.2v.2l.1.2V46.2l.1.2h.4v.2h.2v-.1h.5l.2-.2V45l-.3-.4V43.7h.2v-.5h.2V43.9h.1V43.4v.4h.1v.2h.2l.5.1h.7v.1l.4.2v.1l.3.3v.4l.1.1.2.3V46l-.3.2v.1h-.4l-.6.6-.2.3h-.2v.2h-.1l-.1.1h-.1l-.3.1H26v.2l-.1.1-.1.1-.1.2h.1v.1h-.1V48.6h.1l.1.2V49.5h.1v.1l-.1.2h-.1l.1.2V51l.2.2h.1v-.5h.4v-.2l-.1-.1V50H27.7l.1.1.1.2v.5l.1.2v.1h-.1v.1l-.1.2v.2l.6-.6h.2l.2.1V52.1l.2.1h.2l.3-.1h.5l.2.2h.4l.3-.3.2-.1h.4l.2-.2h-.2V51l.3-.4H32.2l.2-.2h.2v-.1h.2l.2-.1.3-.1zm-12-16.8l-.1.1v.1l.2.3h.1v.1h.2V33h-.4zm10 71.5h-.6l-.3-.2h-.2v.2H30l-.1-.1-.2-.3v-.1h-.2l-.1-.1H28.7l-.2.2h-.2l-.2.2H28l-.1.2-.1.1v.4h.2v.2h.4l.2-.2h.4v.2h.4l.5-.3h.3l.1.2v.1l.1.2h.2l.3-.2.4-.1v-.2h.1l.1-.2v-.1l-.1-.1zM1.8 90.8v-.2h-.5v.2H1v-.1H1V91.8l.2.2V92.4h.2v-.2h.2V92l.1-.1h.1v-1.1zm19.8-17.2v-.1h.2l-.1-.2-.2-.1h-.1L21 73 21 73l-.2-.1h-.1l-.2.4h-.1l-.3.3h.1v.3l.1.1v.2H20.9V74l.1-.1h.2v-.5l.2.3v-.1h.2zm-.9-11.4v.1l.1-.1h.1V62l.2.1V62.4h.1V62.8l.1.2.2.2v.2l.2.1h.1l.2.1h.3l.1.2h.2v-.4h.4v.2h1l.1-.1v-.1h-.2v-.1h.1v-.4l-.3-.2h-.2v-.4l-.1-.1-.1-.1v.6H23v.1h-.2l-.4-.4h-.2v-.1h.1-.1V62h-.1l-.2-.2-.2-.2h-.2l-.2-.1h-.1v-.2l-.1-.1H20.9v.3h.3-.2l-.2.1v.5zm1.5 2.7l-.1-.1H22V64.5h.2l-.1-.1-.2-.2h-.2l.2-.1V64h-.4v-.1l-.3-.1v-.2H21V64h-.2l-.1-.1v.3l.1.1.1.1.2.2v.5h.1l.1.1h.2v-.2h.2v.2l-.2.2v.2-.1h-.1v.4l.2-.1h.2l.2-.2.2-.2-.1-.2.1-.2zm18.2 8v-.4l-.2-.3-.3-.2v.1l-.2.1v.1l-.1.3h-.2l-.1.1-.1.1-.1.2v.1l-.1.1v.2l.1.1-.1.1v.2h-.4v.1h.1v.1h.2V74.4l.1.1.2-.1.2-.2v.2h.3l.2-.2.1-.3.3-.5v-.4zM52.5 79h.5l.3-.4-.4-.3-.2-.1.2-.1V77.8h-.1v-.5h.2V77l-.3-.1v-.1h-.4l-.4-.4h-.1v-.2h-.2l-.1.2-.1-.2-.1-.1h-.8l-.2.1H50v.1l-.1.1-.2.1v.2l-.2.1-.1.2v.1l-.2.2-.2.2h-.4l-.2.1v.1l-.1.1h-.2v.2l-.3.2-.2.4V79l.1.1H48.1v.6l.2.1.3.1.8.2H51l.3-.2.3-.1.2-.1V79.4l.1-.1h.1v-.1h.1l.3-.3h.1v.1zm2 3.9v-.1l-.2-.1-.1-.1-.1-.2h-.5l-.2.2v.5l.2.1.4.2h.1l.1.1H54.5V83zm-7.6-.2V82.5l-.2-.2v-.1H46.3v.2h-.1l-.3.2-.1.1H45.6l-.2.1v.2l.6.4h.4v.1h.1v-.1h.4v-.1l.2-.1V83H47l-.1-.2v-.1zm-23.5 26.9h-.2v-.5h-.4l-.1.1-.2.1-.1.1-.1.2H22l-.2.2h-.4l-.1.1-.1.2-.2.2H21l-.2.1h-.3v.6h.5l.1-.2h.4v-.2h.2v-.2h.1l.2-.1h.4v-.3h.1l.1.1H23v.3l.1.1.2.1v-.2l.1-.3.1-.4v-.1zm14-9.3l-.3-.1-.1-.1h-.1l-.3-.1h-.1v-.1l-.1-.1H36v-.1l-.2-.1h-.4l-.2.1-.2.2H35l-.8.1-.1.2v.4H34.4l.1.2v.4l.5.4v.2h.7l.5-.2h.4l.1-.2v-.4l.1-.1v-.1l.2-.1h.4l.1-.1.1-.1-.2-.2zm25.1-22h.1v.1l.2.3v.1H63.8l.2-.1v-.2l-.1-.1-.1-.1-.2-.1h-.1l.2-.2v-.5l-.4-.7H63v.4l-.5.7v.1l.2.1v.1H62.4l.1.1zm-2.2-.3h.4v-.2l-.2-.2V77h.1V76.6l-.1-.2V76h-.2v-.4l-.1-.1v-.1h.1v-.2l.2-.5v-.3l-.1-.2v-.1H60v.5h-.4V75h-.2l-.1.1v.4h.1v.4h-.1v.2l-.1.2h-.1v.3h.1v.2h.5v-.1h.1l.1.2v.1h-.1l-.1.2v.1h.2V77.7h.2l.1.1V78zm-37-27.2l-.2-.1h-.2l-.2-.2h-.2l-.1-.1h-.1v.5l.1.1h.3v.2H23v.1h.1v.1l.2.1.1.1.1.1h.1v-.2h-.1V51.3l-.2-.4zM34 54.2l.2.2.1.2H34.8l.3.3.2.2h.2l.2-.2v-.2l.2-.2.4-.4v-.3l-.1-.1v-.4l-.1-.1h-.4V53h-.1v-.2l-.2-.1v.1h-.5v.1l-.2-.2-.1-.1h-.1V53l-.3.3V54.1zm2.2 5l.1-.1V59l-.3-.1v.1l-.2.1-.4.1-.2.2v1l-.1.2-.2.1-.1.1v.3l-.1.3.3.3h.2v.4h-.1l-.1-.2v.4h.2v.2l.1.3v-.4h.1l.1-.2h.2l-.1-.1-.1-.1v-.2l.3-.5.1-.5v-.5l.2-.5V59.2zm2 1.5h.2l.2.1h.1l.2.2.1.3h.2v.1l.2.1h.2l.1-.1.1-.1.1-.5V60.5h-.1v-.2l-.1-.1h-.1l-.3-.1h-1l-.2.2V60.6l.2.1zm5.8-2.9v-.4H44v-.2h-.5l-.1-.1-.1-.1-.1-.2v-.1l-.2-.2v-.1l-.2-.2-.1-.3-.1-.1-.2-.2h-.1l-.1-.1-.1.1H42l-.1.1h-.1v.5l.2.2.4.1.2.1v.1l.1.1.1.2h.1l.5.5h.1l.3.1v.1l.2.2.5.6.2.2v-.3l-.6-.6zm2.9 1.4l-.4-.3-.1-.1h-.2v.2h-.1v.2l1 1.5.2.2v.2h.1v-.9l-.2-.2v-.2l-.1-.2v-.2l-.1-.1h-.2v-.1zm-1 1.2l-.1-.1H45.6l-.2-.2-.2-.2H44.8l-.1.1v.2h-.2l-.1.2h-.1v-.2l.2-.1-.1-.3v-.1h.1-.1v-.1h-.1l-.1-.1H44l-.1-.1h-.1v.9h.1l.1.1V61.1l-.1.2-.2.3v.3h.5v.1H44v.4h-.2v.2h-.2v.4l-.1.2v.2h-.1l-.1.1V63.8l-.1.2h.2l.6-.6.4-.4v-.1h.1l.2-.2v-.2l.3-.3V62h.2l.1-.1H45.6l.3.1.1.2.2.2v.2l.2.2H46.8V63.3h.1l.1.1.1.1v.1h.1l.2.1H47v.2l.1.2H47.5l.3.1h.2l.1.2h.1l.3.2.1.1.2.1.2.2h.1l.2.4h.2V65l-.1-.1V64.4l-.2-.4-.1-.2V63.4H49h.1l.2.2v.1-.2l-.3-.4-.1-.3-.2-.1-.4-.6V62H48l-.2-.1-.2-.1v.4l-.2-.2-.4-.7v-.1h-.1l-.1-.1h-.2v-.2h-.2l-.2.1v-.1h.1v-.2H46v-.2zm3.3-8.4V52.3h.2l.3.2.4.3v.1h.2V52.5l.1-.1h.1l.1-.1H51l.2.2.2-.5V52h.2l.2-.1v-.1l-.1-.2V51l.1-.1V50.7h-.1v-.1l.1-.1-.4-.4h-.2v.1H51V49.8h-.2v-.5l-.2-.2-.1-.1-.1-.1h-.2l-.2.1h-.2v.5h-.1v.2l.1.3v1l-.2.2-.1.2-.2.2h-.2V52zM35 48.4l.1.2h.2l.3.3.4.3.3.2.1.1h.2V49.2l-.2-.1-.3-.3-1-.7V48h-.2v.4zm2-4h.1V44h-.4V43.6h-.4v-.1H36V44h.4l.5.5zm-2.3.3V45h.5l.2-.2.1-.3V44l-.1-.2v-.1h-.2v-.4l.2-.2V42.7h-.1v-.1l.2-.1.2.2v-.2l-.2-.1h-.1v-.2H35l-.2-.1h-.2v.2h-.2l-.2-.2v.1l-.1.2v.4l.1.1.2.3v.4h.2v.2l.2.3v.3h-.1v.2zM34.3 15V15.4h.1l.1-.1.1-.2.3-.2.2-.3h.2v-.2l-.2-.1v-.1L35 14H34.6v.1l-.2.2v.2l-.2.1.2.2-.1.1-.1.1zm-3.8.2h1l.1-.2h.2-.2V15l-.1-.1H30.9l-.3.1h-.2v.2h.1zm.7-3.4v.1h.2l.3.2.2.1h.1v-.1h.2V11.8H32v-.5h-.4l-.5-.1-.1.1h-.2v.1l.2.3.1.1zm3.5-1.5h.1l.2.2h.2v-.4h.1V10h-.6v.2zm.2-6h.2V4l.2-.1.2-.2v-.2h-.2l-.2.2-.3.4V4.4h.1zM34.2 2l.1-.1.1-.2.1-.2V1h-.2l-.2.3v.2l-.2.2v.2H34.2zm16.7 71.2l.1.1.6-.2v-.5l-.2-.1h-.2V72.7l-.1.1v.2H51v.1zm1-.7l-.1.2v.2l.3.2.4-.1v-.4l-.3-.1H52zm4.9 4.3v.1l.1.1.3.2.2.4.2.2v.1H58v-.3l-.1-.1v-.2h-.2V77l-.1-.5-.1-.1h-.1l-.3-.2-.1-.1h-.2v.5zM42 95.2l-.2-.2h-.2v-.1h-.2V95.2h-.1l-.1-.1-.1-.1H40.8v.7l.1.2h.2v-.2h.4l.2-.2h.1V95.1h.2zm19.2 3v-1.3H61l-.2-.1v-.1l-.1-.1h-.1l-.1.4-.1.1v.1l-.1.1v.1h.2l.1.1v.3l.2.2v.4l.2.2v-.2h.1V98zm-9.8-32.5l.2.2V66.2l.2.4v.1l.3.3v.1h1.1v-.5h-.1v-.2l-.2-.3-.1-.3h-.1l-.1-.1h-.2v-.1h-.5l-.4.1h-.1zm7.3 43l-.1-.1H58.3l-.1.2H58v.1h.1l.1.1h.4v-.3zM47.3 80.3h.4l.2-.3.2-.1v-.2H47.4l-.1.2h-.1l-.2.1.1.1v.2zm5.8-4v-.1H53l-.1.1h-.1l-.1.1h-.1V76.8h.2l.1-.1h.1V76.4h.1zm-2.7-21.2V55l-.2-.1h-.8v.1l.3.1h.4l.2.1h.1v-.1zm-2-.7v.2l.1.1.4.2h.4l.1-.1v-.1h.1l.1-.1h-.1l-.2-.1H48.3zm0-.2v-.1L48 54h-.1V54.7l.1.1.1.1h.2v-.4l.2-.2zm-10.3-9.9h-.2v.1h-.2l-.2.2.3.1H38l.1-.2v-.1H38zM23.6 63.8H23l.2.5.1.3.1.2V64h.1v-.2zm5.6 7.3H29l-.3.2v.3h.4v-.5zm1.8-8V63.5H31.4V63l-.3-.4v.4zm-12.8 49.5V112.2H18l-.1-.1h-.2l.1.2v.2l.1.4v.8l.3-.5v-.4l-.1-.3zM30 106l-.1-.1h-.4V106.1H30.1v-.1H30zM3.6 89.1V89l-.2-.2h-.2V89.1l-.1.1v.4l.1.2.2-.1h.2V89zm-.7-.3v-.1l-.4.3v.2h.2l.2-.1.1-.1v-.1zm17-21.4h.1v.1h.1v.1h.1v-.1H20.6v.2h.2l.1-.3v-.6h-.2v.4h-.2l-.1-.1V67v.2l-.1.1H20v-.1l-.2-.1V67.4zM47.6 69l-.2-.5v-.1h-.2l-.1.2-.1.1v.2l.2.4v.1h.5v-.2l-.1-.2zm-36 28.6H11V98l.3.1h.4l-.1-.2h.1v-.2zm14 5.3l.2-.5V102h-.2v.1l-.1.2-.1.1v.2l-.1.1H25v.2h.5zm11.6-43.7v.2H37v.7h.4v-.3l-.1-.3-.1-.2v-.1h-.1zm-7.3-45.4l.3.2v-.7L30 13H30l-.2.4V13.7l.1.1zm4.5-9.3h-.1V5h.1l.2-.2v-.2l-.2-.1zm-6.6 103.2h-.1l-.1-.1h-.2v.1l-.1.1v.2h.2l.2.1h.1l.1-.1v-.2h-.1zm7-3.3h-.5l-.4-.2.1.2.4.3.3-.1.2-.1v-.1zm27.3-24.5l.1.1v.1h.1v.2h.2v-.4l.1-.2v-.2l-.1-.1V79h-.1v-.1h-.2V79.8l-.1.2zm-1-7.7l-.2-.1v-.4h-.4v.4h.1l.3.2.1.1h.5v-.2H61zm-6.6-6.3v-.1l-.1-.1-.3-.2H54v.4h.2v.1l.2.2h-.1v.3l.2-.1v.1l.2.2v-.2l.1-.1v-.2h-.2V65.8zm-27-14l.2.2h.4V52h-.4l-.2-.1-.2-.2.1.2zM46.2 50v.2l.4-.2v-.2l-.2-.1.1.1h-.2v.1h-.1v.1zM50 63l-.1.1.1.1h.2l.1-.1h.2V63h-.4zM32 64.5h-.2l-.2-.1h-.2v.2h.7l-.1-.1zm-11.5 48.2v.1h.2-.2zm0-.3h.1v-.2l-.1-.1-.1-.1h-.1V112.3l.2.1zm-.2-1.3h.1v-.4h-.2v.1l-.2.3v.1H20.3zm7.3-4.2h.1v-.1h-.1l-.1-.1H27.2v.2h.4zm.3-.6l-.1.2v.2h.2V106.4h-.1zm1.4-44h.1V62h-.1l-.1-.3v-.2h-.3l-.1.1v.3h.2v.2h.1l.1.1zm20.8-2h-.2v.1l.1.2.1.1h.1v-.2l-.1-.2zM47.9 54h-.2l-.2-.1.1.2H48zm-14.5 3h-.2V57.3h.2V57h.1v-.2zm-4.3-4V52.5h-.2l.1.2h.1zM35-.9zm.1-.3zm-13.6 86zm0 0zm0 0v.1zm.1 0zm11.2 15.3l-.1.2h-.1l.1.2v.2h.1l.1-.1v-.5h-.1zM2.5 89.8h-.2v.2H2.6v-.1zm-1.2.6v.1H1.7V90h-.2l-.2.2.1.1zm17.8-20.6h-.3v.3h.1l.1.1v.1h.2l.1-.1v-.1l-.1-.2H19zm-.3-.4h.2l.2-.2V69h-.4V69.5zm11.5 10.4h-.1v.2H30l-.1.2.1-.1.2-.2zm7-61.4zM17.7 113l-.1.1v.6l.1-.7zm3.6-3v-.1zm2.3.3l.2-.1v-.2h-.1v-.1h-.1v-.1h-.1v.2l-.2.2h.1l.1.1zm2.1-1.5h.1v-.2h-.1v.1h-.1.1zm33.5-.6H59V108.6h-.1V108.9h.2v-.2l.1-.3zm-32-.6H26.8v.2l-.1.1v.2h.1l.2-.1V107.7zm1.7-.8h-.2v.2h.2v-.2zm3.6-2l-.2.2v.1h.2v-.2zm.9-.4h-.1l-.1-.1-.1.1v.2H33v.1h.2l.1-.2h.2-.1zm-2 0h-.2v.2h.2v-.2zm2.7-.5h.2v-.2H34v.1zm0-.4l-.1.1v.1h.2v-.2zm26.5-5.4h-.1l-.1.1v.2h.1l.1.1h.1V98zM2 89.3h-.1v.2H2v-.1H2zm50.7-17.5l-.2.3.1.1.2-.1v-.2l.1-.1v-.1h-.2zm-24.4-2.3l.2-.2H28v.1h.1zm15.5-2.7v.1h-.1v.1h-.2v.1h.1v.1h.2v-.4zm11.4-1v-.1h-.4v-.2h-.1v.5h.2v.1h.1v-.2h.2v-.1zM22.8 65h-.2v.1h.4V65h-.1v.1zm28.3-.3H51v.2l.1.1h.1l.1-.1v-.2H51zm.7-.7v.1l.2.1h.1V64h-.2v.1zm-.6-.3H51v.1H51l-.1.1v.1h.2l.2-.2v-.1zm-18.8 0h-.2v.4h.2V63.9zm19.5-.2h-.1v.1h.1v-.1zM35 63.2V63L35 63h-.2V63.2h.2zm15.7-2.8l-.1-.1V61h.2v-.2l-.1-.3zm5-1v.1h.1l.1.1h.2v-.2H56l-.1-.1V59h-.1v.4zm.3-.4v.2H56.5V59l-.1-.1v-.3H56v.1l-.1.1h.1zm-20.6-1h.2l.1-.1v-.2h-.1l-.1.1-.1.1zm.2-1v.2h.2V56.8l-.1-.1h-.2v.1l.1.1zm-11.9-5.2l.4.2.1.1h.2V52h-.2v-.1l-.5-.1zm.1-1h-.1l-.2-.1v.1h-.1v.2h.1l.1.1h.1l.1-.1v-.1zm10-.4V50l-.2-.1h-.1V50.4h.2zm17.3-.4h.2v-.1l-.2-.2H51v.2h.1zm-17-2.6H34V47.8h.1l.2-.2h-.1zm1.6-3.8l-.2-.2h-.1v.2H35.9zM21 32.8H21.5l-.2-.3H21v.2zm15-15.3v.2h.2v-.5h-.1l-.1.1v.2zM32 11.1v-.2.2zm2-6.3V4.4v.2zM22 50.4l-.1-.1v.1zm3.7-3.5h.1-.2zM11 82.7v-.2H11v.2h.1zm49.2-3.5H60v.1h.1v.2l.2.1V79.3zm.6-.4h-.2v-.2.1h-.1v.2h.2v-.1zm-1.6-.7h.1v.1h.1V78h-.1v-.2h-.1v.2zm-3 0v-.5h-.1v.4zm-5.7-2.2h-.2v.2H50.8v-.2h-.1zm-1.3-.2v-.2h.1v-.2h-.1v.2h-.1v.1h.1zm10-1.5H59v.1h.2zm-19.3 0h.2V74H40v.1zm-24.3-.9v.1h.5l-.1-.1H16v-.1H15.6v.1zm46.6-1.2V72v.1zm-2.2-1.6h.2l-.2-.1H60v.1zm-43.4 0v.1l.1.1h.1v-.4h-.2v.2zm2.8-.6V70.3 69.8zm0-.3h-.1l.1.1v.1h.1v-.2zm-2.3-.7h.1v.1h.1v-.1h-.1v-.2.1h-.1v.1zm26-.3h.1v-.1h.1v-.2h-.2v.2zm-23.8-.1h.1V68v.1h-.1v.2zm28.8-.5v.4-.2h.1V68zm-3.8-1.6h.1l.1-.1h-.2v.1zM43 64.6l.1-.1H43v.1zm3.7-.5v.2-.1zm3-2.4v-.2h-.1v.1zm2-2.1h.1l-.3.1-.4-.2H51l-.1.1v.2l.4 1 .4 1.1v.2l.2.1.1.2.4.4.3.2.2.1h.5l.2.2.4.3v.4h.2v.1h.4v.2-.1l-.2.2h.1l.2.2.4.5.2.2h.1l.3-.2h.4v.2l.1.2-.1-.1-.2.1-.1.2v.4l-.1.2-.1.1H55v.2h-.2v.1l-.1.1h-.2l.1.2.1.1H55.1l.1-.2v.1l.1.1.1.1h.2v.1l.2.1v1H56.7l.3.2.2.2v.7h.1v.2h.2l.1-.1.1-.1.2-.1h.4v.1l.2.2v-.1h.2v.2h.1l.1-.1.1-.2h.1l.1.1.2.2v-.4h.4v.2h.1l.3-.2h.2v.1h.2V69.9l.1.3h.3v.1l.1-.2v-.2l-.3-.2-.1-.2v-.2l-.1-.1-.2-.1-.3-.2v.2l-.2.1h-.2v-.5l.4-.4v-.4l-.1-.1h-.1l-.1-.2h-.1l-.1-.1v-.2h-.2V66.8l-.2-.2v-.4H59l-.1-.1v-.4h.2v-.6H58.8V65h.2v-.1l-.1-.2V64.4l-.1-.2v-.4l.1-.2.1-.2.3-.2V63l-.1-.1h-.1v-.1H59v-.2l.3-.1-.1-.1H59v-.1h.4V62l-.2-.2H59l-.2-.2h-.4v-.2h-.2v.1-.2h-.1l-.2.1v-.6h.2l-.1-.2-.1-.2v-.1h-.2l-.1-.2-.2-.2-.3-.2-.2-.2h-.5v.1l-.1.1h-.1v.1H56l-.2-.2h-.2v-.1h-.2l-.2.1-.1-.1H55l-.1-.1v.1l.1.1v.1H55v.1l-1.4.1H52.7l-.1-.1H52v-.2H52v-.1h-.2zm.6 0v.1h.2v-.1h-.1v-.2h-.1v.2zm-.8-.3v.1h.1v-.2h-.1v.1zm.1-.6h-.2v.2l.2.2V58.7zm-10.3-3.2h.1l-.2-.1v.1zm-1-1.5l-.1.1v.2-.2zm-3.8-1v-.2.1zm-.4-.1h.1v-.1H36zm11.6-3v.2l.1.2v-.5.1h-.1zm-3.4-1.1v.1-.2H44h.1v.1zm-8.7-2.3V46.8 46.4zm6 0v-.1h.1l.1-.1V46v.1h-.1v.1h-.2v.1zm-13.4 24H28h.1zm-8.3-.3h-.1v.1h.1zm6.5-2h-.1v.2h.1v-.2zm-4-.5h-.1v.2h.1v-.1zm5-.4h-.1v.2h.1v-.1zm-4.5 0h.1v-.1h-.1v.2zm-2.4-3.5v.1l.2-.2h.1-.2l-.1.1zm14.3-.2v-.1h-.1v.2l.2.1v.1V63.5zm-6.2-1.5h.1v-.2h-.1v.2zm-7.3 43.5h-.1zm.3-.4v-.1.1zm3.7-1.5v.2h.2v-.1l-.2-.1zm2.5.1h.1v-.1h-.1v.1zm-3-.3h-.2v.2h.1v-.1h.1v.1-.2zm3.2 0h-.1l-.1.1v.1-.1h.1zm.4 0v-.2h-.1v.1h.1zm-2.2-.7v-.2.1H26v.2h.2v-.1zm1.4-.2v-.2h-.1.1v.1h-.1zm-1-.7v-.2h-.2l-.1.1v.1h.2zm8.6-2.3H35l-.2.1v.1H35.3v-.2zm-13.4 11.8h-.1v.2h-.1v.2h.1v-.2h.1v-.2zm1.3-.2H23v.1h.2v-.1zm.7-.5h-.2v.2h.2v-.2zm.1-.3V110.8l.1-.2v-.1zm1.2-.2H25v.2h.1v-.1zm-1-.2zm1.6 0v.1h.1v-.1zm.6 0h-.1.1zm-2.3 0v.2-.2h.1-.1zm0-.3v.2h.1v-.1zm-.7-.6h-.1v.1h.1v-.1zm.6-.2h-.2v.1h.2v-.1zm.4-.2l-.1.1h.1zm1.4-.2v-.2.2zm1-.3h-.1l.1.1v.2-.2zm-3.1-1v.1zm-4-1h.1zm4.9-.1l-.1-.1v.2h.1v-.1zm-3.3-.6zm.2.1v-.1h-.2.1v.1h.1zm.4 0v-.1H21.4v.1h.2zm.5-.8v.1l.1.2v-.2zm10-.2v-.2h-.1v.2H32h.2zM8.5 103zm0-.2zm-.4-.2zm27.3.1h-.1v-.1H35l.1.1h.2zm-8.4-1l.1.1v-.1z" fill="none" fill-rule="evenodd"/></svg>