<svg width="138" height="116"><path d="M138 37.2h-.2V36.8l-.4-.4h-.2.2v.3l-.1.1h-.2v-.5l-.1-.1-.2.1h-.2l-.1-.1v-.1l-.2-.4-.2-.2v.2H135.3l-.1-.1-.2-.1h-.3H135.2l.1-.2v-.2h.1l.1-.2v-.1l-.2.2h-.1l-.2.4-.4-.1-.9-.5.1-.3.1-.1.2-.1v-.2h-.2l-.4-.2-.2-.3-.3-.5-.2-.2-.3-.2-1-.6-.1-.1v-.2l-.1-.2v.2l-.1.1-.2.1V32l.1-.3v-.1h-.4l-.1-.1-.1-.2-.2.1h-.2l-.3.1H129v-.2l-.3-.5-.1-.2-.3-.2-.1-.2v-.4l-.2-.4v-.7H127.7v-.1l-.2-.5V27.7h-.1v-.2l-.1-.9-.3-1.8-.2-.5-.1-.2V23.8l-.1-.6.1-.3v-1.1l-.5-1.4V20l.1-.2v-.1l-.1-.7v-.2l-.1-.3V16.2h.3V16l.1-.1v-.6l-.4-1-.1-.6v-1.1l-.2-.6-.2-.5-.2-.2V11l.1-.1v-.5l.1-.1h-.1V9.6l.1-.1h.2l.1.1v.5h.2l.2.1h.1l.1.1.1.4.2.2v.1h-.1l-.2-.2-.1-.2h-.2v.2h.1l.2.5h.6v-.5l-.9-1.1-.7-.7-1-1.6-.5-1.1-.1-.2V6l-.2-.2v-.2l-.1-1.2v-1l-.1-.2-.2-.1.1-.1h.2v-.2H79.2l.2-.8.2-.6v-.2l-.1-.2-.2-.1-.1-.1h-.5l-.2.3-.4.8-.4.8-.1.1H26V20.2h-8.2V57.3h-.3l-1-.3-1-.2h-.9l-.5.1-1.1.4h-.6L11 57h-.6l-.2.2-.5.7-.7.4-.1.2v.5l.1.2.2.2.2.2v1.6l-.1.1-.4.7v.1l-.3.1-.2.1-.2.1-.7.8-.1.2v.4l-.1.1-.2.2-.3.2v.9l.2.3v.2H7l-1.6.5-.4.2-.3.2-.2.3.2.3.3.2v.1l.1 1h.1v.1l-.1.1-.1.2v.4h.2v.2h.6l.1.1v.2l.1.3v.2l-.1.1-.2.1h-.2l-.2.2-.3.3h-.2l-1.3.7-.2.1-.2.2-.8 1-.2.3v.1l.2.2.2.2v.4l.1.3.5.5.2.3v.7l.1.2.3.3.1.2v.4l-.4.4-.7.8h-.2l-.8.4h-.2l-.3.4-.2.3-.7 1.3-.2.6-.1.2v.2l.2.3.3.6.2.1.3.2h1l.4-.1.3-.2.3-.2.2-.4 1 .7.9.3v.1l-.3 1-.2.3.3.5.6 1.9v.2l-.2 1 .2-.1.5-.2h.4l.1-.1V88l-.1.4-.5 2.6v.4l.2.4.3.3.3.3.3.2.6.2.2.2v.3H9l.2.7.2.6v.5l-.2.3v.4l-.1.1-.1.2-.4 1.2v.3l1.2 1.7.8.6 1.5 1.4 2.8 4.4.1.4.3 1.4v.3l-.2.3-.3.4V109.4l.1.1h.1v.1l-.2.7v.2l.1.2v.2l-.1.1-.4.4-.1.2h-.5l-.2.1-.1.2-.2 1v.3l.1.1.3.2h.2l.3-.3h.1l.1.1v.3l-.1.5-.2.2-.3.4-.1.2v.4l.2.2h.5v-.1h.6l.1.1H17.3l.3.1h.4l.9.2.5-.1v-.2l.5-.4.3-.1.9-.6h.2l.7-.1.4-.1.1-.1v-1l.1-.1.7-1.3.2-1.7.1-.1v-.1l.3-.2.5-.6v-2.6l.1-.1H24.9v-.1l.4-.3.3-.1v-.2l.3-.3h.1v-.2l.1-.1v-.2l.3-.4v-.3h.1V103.7h-.1V103.4l.4-1h.1l.1-.1H27.2v-.1h.7l.1-.1H29.4v-.1h.2l.2-.1h.6l.6-.3H31.8l.1-.1h.5l.2-.1.4-.1.4.4v.1h.1v1.4h.1v.1h.1l.3.2h.1l.3.2.1.1.5.8.1.1.1.2.7.2 3 3.6.4.3h.7l3.3-1h3.6l.7.1h.2l1.1.1h1l.9 1.6.4.5h6.5v-.2l-.1-.3v-.3l.2-.3.5-.5.6-.5.2-.2 1-.5 1-.4 1.9-.4.7-.6.4-.6v-1.2l.2-.2.5-.3 2.2-1 .3-.3 3.9 2.5 2.2 2h.4l.2-.1H75l1.7-.2.6-.2 3.5-3.5.9-1.1.2-.3.5-.8.6-1.3v-.2l4-3.3V96l.1-.2-.6-1.1V94l-.1-.9.1-1.3v-1.1h-.1l-2.2-2.5h5.5v-.4l-.1-.3v-1h3.9v.7l-.5 1.6v1l-.2 1v.4l-.2.1v.1h-.1v.2l.8 6.3v.1l-.1.1-.2.4v.2l1.8.8h.2l.6.8 3.6 3v.1l.5 1v1.7l-.5 1.2-.2.7v1.2l.1.1h1.5v-.6l.2-1.2 1-2.9.5-.4.2-.3v-.5l.2-.4v-.4l-.5-1.8v-.6l.8-1 .3-.6.1-.2.2-.1 1-.7h.2l1 .8.2.2h.1v.5l.2.1.1-.3.1-.1h.4v-.1l.1-.2v-.2l.2-.1.4-.4.2-.2v-.4l-.2-.1-.1-.2.5-1.6v-.5l-.2-.1v-.4l1-2.3V91.7l-.2-.4V90l.2-.2.1-.1.3-.2.8-.3.2-.3v-.3l.1-.1.3-.2.2-.2v-.2l.1-.4.2-.4.1-.2h.2l.1-.1v-.1l.1-.1v-.3l.1-.2 1.6-2.6h.1l.2-.1.1-.1V83l.1-.3.2-.1.2-.1 2.4-.4h.2l.1.1.3.1h.1l.1-.2.2-1V81l-.3-.3v-.2l.1-.1.2-.1V79.6l.7-2.8 1.2-1.7.1-.3V74.2l.6-1.2v-.4l-.2-.4v-.6l.7-2.3-.2-1.6v-1l-.5-3.8-.1-.8V61.8l.7-.6.1-.2.4-1.3.2-.2.3-.2-.2-.4v-.3l.5-1.7.1-.2.4-.4.2-.3.8-2.2.3-.8.1-.2.4-.4V52l-.1-.3V51l-.1-.1-.1-.2-.1-.1-.1-.2-.1-.2v-.1l.1-.3v-.6l.1-.2.1-.1.3-.2v-.1l.3-.5v-.6h.1V46.8l-.1-.2h-.1v-.2l.1-.3V46l-.1-.2v-.2h.5l.1.2H125.4l.3.2H126.6l.4-.3h.3l.7.2.5-.5v-.4l.3-.3V43.4l1.2-.4h.3l.3-.2.4-.7.3-.1h.1l.3.3h.4l.1-.1.3-.4.5-.3.2-.1H133.5V42h.2l.1-.1v-.2l.1-.1v-.2h.5l.1.1.1.1h.2l.2-.2V41l.2-.1.4-.2.1-.1.3-.4.5-1.3.2-.3 1.2-1V37.2zm-11.1-24.3h-.1v.9-.1l.1-.1.1-.6h-.1z" fill="none" fill-rule="evenodd"/></svg>