<svg width="45" height="116"><path d="M25 3.9l-.6 1.4V6l.2.4v.3l-.4.7V8l-.1.3-.3.4-1.2 1.2-.4.7.2 2.1v1l-.3 1.2-.3 2.4v.5l.2.3 1.7 1.2 2.1 1.4 3.3 2.2 3.2 2.1 2.4 1.6.3.8v1.9l.1 2.5v1.8l.2 1v1l-.1.2-.2.3-.4.6v.8l.3.6.3.3.4-.2.2.7.2 2.3.3.9.6.8 1.8 2 1.4 1.4.5.8.1.6.2.6v7.4l.1 3.8v.3l.2.2.5.8.1.2v.4l-.8 1.2V63.3l-.1.6.2.1v.2l.3 2v29l-.4.1h-1.7l.4 1.6.3.4.4.3.2.2v.3l-.2 1v.4l.2.4.1.5.2.5-.1.4-.5.6-.2.5.1.3.3.2.3.5v.8l.1.2.2.2.2.1.2.1h.4l.2.1v.4l.4.3.2.2V106.7l.1.2.5.2.2.1.6 1 .5 1.7.4 1.7h-.5l-2.9.7-.5.2.2.5-4.3.7-3.6 1.1-1.6.7h-.4v-.7l-.2-.4-1.9-.2-.3-.2-.2-.2-.3-.5-.2-.2h-.2l-.1-.2-.2-.1-.4-.5-.6-1.8h-1.7l-.5-.2-.3-.2-.7-.9-.6-.3-1-.6-.6-.5-.3-.5-.3-.5-.1-.6v-.6l.1-.3.2-.2v-.2l-.3-.3h-1l-.2-.4-.4-.2-.2-.3-.2-.5.2-1.1v-.4l-.2-.4-.3-.3-.4-.2h-.4l-.2-.3-.6-1.2-.3-.2-.2-.1v-.7l.5-.8.1-.4-.3-.5-.6-.5-.3-.4h.7l1-.3.2-.2.5-.8v-1l-.1-1v-.9l.6-1.3.2-1.1.3-.8v-.5l-.3-1.5-.2-.2-.8.3H17l-.7-.6-.3-1-.2-1.1.1-1.4.1-.2.2-.3.2-.2.3-.1.4-.1.3-.2V80.3l.1-.7.3-.5.7.1v-1.6l-.2-1.3v-1.4l-.2-1.6V72l-.2-.8-.1-1.1-.1-.6v-.1l.2-.2.2-.3v-.3l-.2-.2-.2-.2-.1-.2v-.3H17.8l.2-.2.8-.7.3-.2 1-.5.4-.2.2-.3-.1-.6-.4-.1v-.4L20 64v-.5l-1-.7-.2-.8-.4-.9-1.5-.7-.6-.4-.5-.5-.4-.5-1-.6-.8-1.2-.7-1.5-.2-1.1.2-.2h.5l.2.5.3-.2.1-.4.2-.2h.2l.2.1h.6v-.7l.2-.3.5-.7-.3-1.1-1.1-1.9-.3-.7.2-.7.4-.7.1-.7v-.4l.2-.2.5-.5.3-.4v-.4l-.3-.8v-.5l.2-.2.2-.1.3-.3V42.1l.3-1.2-.1-.5-.5-.4-.6-.2.1-.4V39l-.1-.2-1.2-.5h-1.4l-.5.1-.3.2-.1.2-.1.4-.1.2-.2.2-1 .3-.4.1h-.5v-.4l.1-.2-.1-.4v-.3l1-.2.3-.1.3-.2v-.3l-.1-.2H10l-.2-.2-.2-.1V36.4l.1-.1 1.2.1h.5l.4-.3.3.2h.8l.2-.3-.2-.5-.5-.1-.9.2h-.7l-.4-.5v-.7l.3-.6.7.6.3.2h.4l.3-.3v-.8l-.1-.4-.2-.2-.1-.2-.2-.2V32l.5-1.7V30l-.1-1V29l.2-.4.3-.3.2-.2V28l-.2-.5-.2-.5V26H13.3l.1-.5V25l-.2-.2H13l-.3-.2-.2-.6.1-1.6v-.8l.2-.3v-.4l.1-.3.6-.4-.5-.4-.2-.1-1 .1h-.3l.2-.4-.2-.4-.4-.3-.3-.5V18l.1-.2v-.3l-.2-.2h-.4l-.3.1-.2.1h-.2l-.6-.3v.1l-.2.2-.2.1-1.3-2.2L7 15l-1.2-.8-.2-.2-.3-.5-.1-.2-.3-.1-.7-.3-.2-.1-.1-.2h-.2l-.5-.1-.3-.1-.2-.1-.2-.2-.2-.5v-.4l.2-1 .1-1 .2-.3.3-.4.5-.3.2-.2v-.3l-.1-.4V7l.5-2.3v-.3l.3-.1.2-.2.1-.1v-.3L5 3v-.8l-.4-.5-.7-.3h-.5l-.7.2h-.9l-.4-.3L.9 1 .7.6l2.4.5 2.7.5 5.2 1 4.5 1h.1v.5h-.1l.3.1-.2 1 2.8-1 1.4-.2H22l3-.1" fill="none" fill-rule="evenodd"/></svg>