<svg width="64" height="116"><path d="M63.8 38.1l-.2-.3-.4-.2-.3-.1h-.6v-.1H62v-.2l-.4-.7V36l.1-.2.2-.1.1-.1v-.1H62l-1-.3H60.8l-1.2-.4-.2-.1v-.2l-.1-.2v-.5l-.1-.2v-.2H59l-.3-.1-.2-.2-.2-.2-.1-.1v-.1l-.1-.3-.1-.1v-.1l-.2-.2h-.1l-.4-.3-.2-.1v-.1l-.1-.2v-.5l.1-.3.1-.3V30l-.1-.7v-.8H57v-.9l.5-1.2v-1.5l-.2-.5-.2-.2H57l-.1-.3-.2-.2v-.1l-.4-.2H56l-1.1-.7-.3-.2-.2-.3V22l-.1-.1-.1-.1-.2-.4-.1-.1-.5-.3-.1-.2-.1-.3-.4-.7v-.2l-.6-.4v-.1l-.1-.2-.4-.8-.3-.6-.2-.2h-.2l-.2-.1h-.1l-.2.1v.2h-.4v-.1l-.2-.1-.2-.1h-.1l-.1-.1H49l-.5-.3h-.2v-.1l-.5-.2H47.2l-.5-.2-.6.2h-.2l-.2.2-.1.1v.2h-.1v.1l.1.1.3.2v.2l-.4.1h-.1l-.3.1-.2.2v.3l-.1.2-.1.1-.1.1h-.2l-.1.1v.8h-.1l-.1.2v.1H43.7l-.3-.1h-.2l-.7.3h-.1v.1l-.5.3-.3.2-.3.1-.2.1V21.2h.1v.1h-.1l-.4-.2h-.1V20.1l-.3-.1H39.5l-.2-.2-.2-.2-.2-.2h-.4L38 19l-.2-.2v-.1l-.3-.2v-.1l-.1-.1v-.1l-.2-.1h-.6l-1.3 1.3-.1.1-.3-.2h-.3l-.1-.1h-.2v.2l-.1.4-.2.5v.1l-.7.2h-.1l-.1.2v.1l-.3-.1V21.2l-.3.1.2.2h-.2l-.2.2-.2.2v.1H32v-.1h-.5v.2h.1l-.1.2h-.2l-.9.8-.1.2-.2.3h-.2v.1l-.1.1-.1.2-.1.1h-.1l-.2-.1-.2-.1h-.2v-.2l-.2-.1-.1-.1h-.2l-.6-.2h-.1v-.4l.3-.3.2-.4v-.5h.2v-.2h-.1v-.1l.2-.1v-.5l.1-.1.3-.2.2-.1v-.2l.2-.2.1-.2.1-.1.3-.2v-.2l-.1-.3v-.8l-.1-.3v-.4l.1-.2v-.1l-.5-.3-.3-.2v-.1l-.1-.2v-.1l.2-.2.1-.2v-.1l.5-.3h.1V15h.1l.2-.1.2-.3h.1V14.3l-.1-.2v-1.3l.1-.2.2-.2.2-.3V12l.3-.3v-.2l-.2-.2-.4-.3v-.1l-.1-.2v-.6l-.2-.7v-.2H30l-.1-.3v-.3l.1-.3.2-.1h.2v-.3l.1-.2v-.4h-.2l-.2-.1H30l-.1.1h-.8l-.4-.2h-.1l-.2-.1H27.5v.2l-.4.4-.3.3-.1.1h-.1l-.1-.1-.1-.1-.6-.2h-.4l-.1.3h-.4l-.2-.1-.1-.1-.1-.1v-.4h-.1l-.2-.3-.1-.2v-.5l-.2-.2v-.2l.3-.4v-.2h.1V5h.2V5l.1-.2.1-.4.2-.5.2-.5v-.8h-.4v-.1l-.2-.1-.1-.2-.2-.3-.5-1-.1-.1-.3-.1H23l-.2.2-.2.2v.3H22.2V2h-.4l-.1-.1v-.5l-.4-.2-.1-.1V.9h-.4V.7l-.1-.1-.1-.1V.3H19.8l-.2.1v.2l-.1.3h-.1l-.1.2h-.6l-.3.2H18v-.1H17.8l-.6-.2-.4-.2h-.2V1l.3.3v.1l.2.5.2.3v.5H17L17 3l-.3.2-.9.3H15.5l-.3-.3L15 3h-.3l-.1-.1h-.3l-.4.2-.2.2-.2.3V4.4l-.1.1v.8l-.1.2h-.1l-.3.2-.3.2h-.1l-.1-.2h-.1l-.1-.2h-.3l-.4.3h-.2l-.6.1h-.2v.2l-.2.1H10l-.1.2H9.7l-.1-.1H9l-.3.1H8l-.3.1H7.5V6.2h-.1L7 6l-.3-.2-.2-.1h-.2l-.1-.2H6l-.2.6v.1l.1.3v.2l-.1.1h-.2l-.1.2h-.1l-.5.3h-.3v.8l-.3.3-.3.3V9l.1.1v.2l.2.1V9.6H4v.2l.3.2v1.1l-.1.1-.5.4v.1l-.1.3v.2h-.2l-.1.2h-.1v.2l.2.1.2.2.1.2v.7l.1.2v.3l.1.3v.7l-.5.1H3l-.5.4-.3.1H1.4v-.1l-.2-.3H.9l.2.2v.2h.1l.2.4.2.3V17.2l.1.2.2.1.2.1.1.1h.1l.2-.5.4.2H3v.4l-.1.1v.2l.5.5v.2l.1.2v.4h.2v.1l.1.3v.1H4v.2l-.2.2-.2.4v.5h-.2.1v.2h.2v.2l.2.2.1.1v.4H4l1.3 1.2.1.1.2.1.1.1v.2l.2.2.1.2v.2h.2v.1h.2v.1l.1.1v.5l.7.6h.1l.2.2.2.4H8V27H8V27.3l.2.1h.5l.1.1.2.1.1.2.2.3.1.1V28.4l.2.1.1.2v.2h-.1v.2l.1.1v.2h-.2l-.1.1v.1l-.2.2v.1l.3.2v.3l.2.2.2.1.2.2v.4l.5.7v.7l.2.5v.2h.2l.3-.4.5-.3v-.2l.1-.3.1-.2.2-.1v.3l.1.1.2.1.1.2v.9h-.1l-.2.3-.1.2v.5H12l-.2.2-.2.1-.1-.1h-.8v.1l-.1.2-.1.1-.1.1H9.8v.1l.3.3V37l-.3.8v1l.2 1.2v.8l-.3.2V40.6h-.2l-.2-.2-.1.1H9l-.2.1-.1.1V41h-.1v.4l-.4-.2H8l-.3.4h-.1l-.2.1h-.3v.1l.1.2v.2l-.2.3V42.8l.3.2v.6l.1.3V44.5h.1v.1h.1v.4l.5.6.9.9v.1l.1.2v.2l.1.1h.1l.1.1.6 1 .3.5.2.2h.2l.1.2h.4l.1.4.2.2 1 .6v.1h.3v.2h.2v.4l.3.3v.1l.1.2.1.1.2.2.1.1v.1h.2v.5l.2.3v.2l.3.2v1.2l.3 1.2V56.5l-.1.1v.4l.1.2v.1l-.1.1h-.3l-.2.1v.7l-.1.2V58.7l.2.1.2.2.1.2v1h.1v.1l.2.2.1.2v.5h.4V61.6l.2.1h.1v.1l.1.1h.1l.1.1.4.2v1.2l.1.3v.1l.1.5v.2l.2.2v.4l.1.2v.2l-.1.2v.1h.1l.4-.1h.2V66l-.2.4v.2l.1.1h.2v.1l.1.2v.4l-.1.2v.2h.1l.2.2.1.1h.1v.6l-.1.2-.5.7H16.8l-.1.2V70.3l-.1.1v.2l-.2.1-.2.2V71.2l-.1.2v.1l-.3.3-.1.1-.1.3-.1.2-.3.3v.2l-.3.7h-.2v.1h-.1l-.1.3-.2.1-.3.2-.1.1-.1.3-.1.1h-.5V75.7l-.1.1-.3.2h-.4v.2H12.1l-.1.1-.2.1-.3.5v.2l-.1.3.1.2.2.6v.1l-.1.3v.4l-.2.5v.1l-.2.3v.7l-.3.3-.2.6v.1l-.4.6V82.4h.2-.3v.1l-.1.2V83H9.9l-.2.2v.1h.1v.2h.2l.2-.2v.1l-.1.1v.1h-.2v.1h-.2V84H10V84.3h-.2l-.2-.1v.4l.1.1v.1h-.1l-.2.2v.1l.1.2H9.8v.2l-.3.2-.2-.2-.1.2-.2.7-.1.3v.1l-.2.5v.1l-.1.1v.2h-.1v.2h.1l-.1.2h-.2v.5l.3.3.1.3H8.4l-.1.1v.2h.5l-.2.1V90H8.3l-.1.2-.2.2v.3l-.2.2v.7h-.1v.1h-.1l-.1.1v.2l.1.3v.6l-.1.1v.2h.2V93.5l-.2-.2V93l-.1-.1-.1.2v.2l.3 1 .2.6v.2H8v.5H8v.1h.2l.1.1.2.1.1.3h.2V96H9l.2-.1.1-.3V95L9 95l.2-.2H9.8l.1-.1v-.1H10.3l.1-.1v-.2h.4v.2l-.1.1v.5H11l.2-.1v.6h.1l.1-.2.1.3v1.1h.1l.1.2v.1h.2V97h.2v.2l.2.1h.1l.1-.1h.1l.1-.2h.2l.1.1.1.1.1.1v.4h.2l.1.1.2.2h.2l.1-.1v.5l-.4.3.1.2v.5l.2.2h.4l.1-.2V99l.1.2h.1l.2.2h.1l.1.2h.2l.1.1.1.1V100.2H15.7v.4l.1.1v.4h.2v.2h.1V102l.2.4.2.2h.2l.2.1.2.1.1-.2v-.5l.1-.1h.1V102.6h.3l.1-.1.2-.4v.5l-.2.2-.2.1v.2l.1.3.2.3h.2v.2h.1l.1-.1.3-.2v.3l.1.1H19l.1-.1-.2.4-.1.2-.2.2v.4h.2v.1l.1.2h-.1l-.1.2v.3l.2.1.6.3h.1v.3H19.9l.2.1.1.3.2.2h.1v.2h.2v.1l.2.2v.1l-.1.1v.1h.2v.2l.3.3.3.2v-.2h.2v.3l.2.2v.2l.1-.2v-.1l.1-.2v-.4h.1v-1.1h.9l.3 1 .2.2.3.1.2.1h.4l.3.2h.1l.5.2.2.1h.2l.6-.3h.1v.2l.1.1h.2l.2.1v.2l.1.3v.2l.1.1v.7h.8l.2-.2h.2l.2.1h.5l.1.1v.4H29l-.1.2V111.6l.2.1v1.3l-.1.1H29l-.2.1h-.1l-.3.7-.1.2.1.2v.2h.4l.2.2.2.2v.2l.2.2h.3l.3-.3h.2v-.2l.1-.2v-.1l.1-.4.3-.1h.3l.3-.2.2-.2 1.1-.4h.4v.2h.1v.1h.2V113.9l.2.4h.1l.2.1.2-.1h.2v.1l.1.1h.4v-.2h.1l.2-.2h.1v-.2h.1l.3-.2v-.6l.1-.4.2-.2.6-.4.2-.2v-.8l.1-.4-.4-.3-.8-.8-.8-.5-.3-.3-.8-1.2-.7-1.3h-.1l-.3-.2-.2-.1-.2-.1h-.4l-.2-.2-.3-.1-.2-.2h-.4l.4.2.3.2v.2H31l-.2-.2h-.2l-.3.2H30l-1.2.1h-.3l-.5-.4-.4-.3h-.4l-.3-.1-.1-.1-1.2-1.6v-.2h-.1v.3h-.1l-.3.3h-.5v-.2h-.4v-.3H24v-.2h.2v-.2H24l-.1-.1V102.5l-.1-.2h-.5l-.2-.2-.2-.3-.2-.6-.2-.2h-.1v-.2l-.1-.3-.2-.4V99.4l.5-.4h.1l.2-.1H23.2l.1.3.1.3V100.4l-.3.1v.4h.1l.3-.3h.4l.2.3v.8l.2.8v.2l-.1.2h.4v.1l.4.3.2.1h.1v-.4l-.6-.6-.4-1.1-.5-2.7-.5-2.2L23 95l-.4-1v-.2l-.3-.2-.2-.2-.1.1.2.1.1.3v.5H22l-.2-.1V94l-.1-.2-.2-.2-.1-.3v-.1l-.1-.1-.4-.3-.2-.2v-.2l-.2-1.5v-.3l-.1-.7v-1l-.1-.2-.2-.2V88l-.2-.2v-.2l-.3-.2h-1.1l-.2.2H18l-.1.1H17.3V88l-.1.1-.2.2h-.7L16 88h-.7l-.1-.4V87l.1-.1.3-.2h.2l-.4-.7-.3-.5V85.3L15 85l-.2-.3-.1-.2v-.5l-.2-.3v-.4l.2-.2v-.7l-.1-.4.1-.1V81.7l-.1-.2V81l.2-.4v-.1l.1-.2h.3l.1-.1h-.2L15 80l-.3-.2-.1-.2v-.5h.4l.1.1v.1h.4v-.5l-.2-.2v-.4l.1-.1h-.1V78h.1l.1-.1v-.2l.1-.3v-.2l.2-.1V77l.2-.1h.2V76.5l.5-.7v-.5h.5l.1-.1v-.2l-.2-.3V74.5l.2-.3V74l-.1-.3v-.5l.1-.1.1-.1.1-.1h.1l.1.1.1-.1v-.5l-.1-.1v-.5l.2-.2v-.2l.2-.4V71l.1-.2V70.4l.2-.2V70l.7-1 .2-.3h.3V68h.1v-.7l.2-.4.7-.8.2-.2v-.4h.1l.2-.1v-.5l-.1-.1v-.1h-.2v-.2l.2-.5V63.7l-.2-.5V62.4l-.1-.5v-1l.2-.3.3-.4V60l.1-.5v-.3h.1l.3-.4V58.2l-.1-.3v-.1h-.1v-.1h-.1l-.4-.4-.3-.3v-.4h.1l.1-.1.1-.1V56.1h.2v-.2l.2-.1h.1l.3-.2h.3l.7-.3.2-.2V55h.2l.3.2h.7l1-.2h.1l.1-.2v-.4l.1-.2v.4l.1.1.3.2.2.1.6.1h.1l.3.1.4.1H28.4v-.1h.1l-.1.2V56.2h-.1l-.1.1H28V56.7l-.1.1.1.2v.1l.1.3V57.6l-.2.2-.1.2-.2.2v.1h.2v.2l.2.1v.5h-.2v.2l-.1.1-.1.1v.2l.2.4.1.1v.4l-.1.1v.1H27.4l-.2.4h.2v.4H28.2v.2H28v.1l.4.2v-.4h.4l.3-.2h.1l1.2.1.6.1.5.3.2.1h.1V62l.1-.1h.2l.3-.1h.5v-.1h.7V61.3l.2-.1H34.7l.2.2.1.1.1.2v.1l.1.1.1.1h.1V62.4l.4.2-.2-.4.1-.1h.1v.5h.5l.3.5v-.4h-.1l-.1-.1v-.1l-.2-.1h.1l.3-.1-.1.2h.4l-.2.1H37l-.2.1v.1l-.1.1.1.2.2.2.1.2v.1l.3.1.5.5.3.1V64H38V63.5h-.2v-.2h-.1l.1-.1v.1H38.2l.1-.1v.4l.2-.2v-.1V63.7l-.1.4v.1h.4v-.4h.1v.4l-.1.1-.2.2h-.4v.1l.2.2v.4l.3.1.1-.1h.2l.8.4h.3l.2.2.1.2v.2h.1l.1.1V66l-.1-.7V65h.2l.1-.1v.1l.3.2.1.2h-.2l1 .9v.2l.1.4v.5l.4.3.5.7.1.2V69.4l.2-.2v-.4l-.1-.3-.2-.3-.4-.5-.3-.6v-.4l-.2-.3-.2-.2-.3-.6-.1-.3.2-1.2V63.8l.3-.2V63.3l-.3-.2-.1-.1v-.2l-.1-.1-.2-.1-.6-.6-.2-.2-.4-.1-.2-.1v-.5l.1-.2V60.2l-.1-.3v-.2h-.1v-.5h.1V58.8h-.1l-.2-.3-.3-.4-.2-.3-.4-1V54.5H40.3l.3-.3h.2l-.3-.2-.2-.1v-.2l.3-.2.8-.4.1-.1V52.8h.1v-.1l.2-.2v-.1l.2-.4.1-.3.2-.2.4-.3.1-.1v-.4l.1-.2.2-.2V50l.1-.2.1-.1.2-.1h.2l.2-.2.6-.5.2-.1h.2l.4-.1.6-.2H46.6l.2-.2h.4l.3-.2.3-.1h.6v-.1l.2-.1h.2v.4h.4l.4.2h.5l.1.1h.4l.1-.1h.4l.2.1h.3l.3-.2h.5l.2-.2h.1v.2H53v-.1l.2-.1h.2l.4.2.8.1h1v-.1l.1-.2h.1l.1-.1h.5l.1-.1h.1v.1h.2l.3-.1v-.1H57.5l.1.2h.5v.1h.1l.5.1h.1V48.9l.3.5.1.2H59.7l.2-.5.2-.3.2-.2h.5l.1-.1h.1v-.2h.4l.2-.2h.4v-.1l.2-.2v-.1l.2-.2.3-.4v-2.2h.1v-.4h.2V43.8l.3-.2h.1l-.2-.1-.1-.1-.2-.3V43h-.2l-.2-.3h-.2v-.6l.1-.1.3-.4.2-.1.3-.2V41h-.6v-.4h.1l.4-.2.3-.2V40l.1-.1v-.5l.3-.5V38zM9 98h-.2v-.8l.2-.3V96.5H8.7l-.2-.1h-.2V96h-.1V96h-.1l-.1-.1H8v.8h-.1V97.8h-.1v.2H8v1l.1.1H8.3v-.2l.1-.2h.1l.3.1V98.4l.3-.1V98zm31.7-28.6v-.3l-.2-.2h-.2V68.5l-.2.6v.5l.2.1h.1v.2h.1v-.2l.1-.1v-.3zm-1.5-2.8v-.2h-.1l-.1-.1V66l-.2-.2-.2-.2-.2-.1H38h.2-.1l.2.6v.6l.1.1h.1v.1-.1h.5v-.2l.3.2v.1h.2V66.7l-.2-.1zm-20.8 40.8l-.1-.4-.1.2v.2h-.1V107.8l-.2.2v.2l.2.3v.2l.2.2v-.2h.2v-.1l.1-.1v-.2l-.2-.8zM21 84.3l.4.1.2.2V84l-.1-.2-.3-.2H20.9l-.1.2.1.2v.2zm-.5 1.8v.4h.6v-.1h.1v-.1l.2-.1V86l.1-.3v-.2h.2v-.2h-1.2v.8zm-5.3 22H14.9l-.1.2h-.2l.1.1H15l.3-.1v-.2h-.1zm-4.8-11.3h-.1l-.4-.3v-.1.6H10.3v.4H10v.5l.2.1.1-.1v-1.1zm-2.8-7.5l.1.1h.4v-.1l.1-.2v-.4l-.2-.1v-.1H7.6V89.4zm6.4 11.5v-.5h-.1l-.2-.3h-.1V100.7l.2.5.2.2H14.3l-.1-.2-.2-.3zM7.7 90.3V90.6h.1l.2-.4.1-.2V89.7H8l-.2-.1V90.2l-.1.1zM5 86.1H4.7v.2l.1.2v-.2H5v-.1zm13.6-.3h.1v-.2l-.2.1zm0-.8zM4.7 86.5h-.2v.1l.2.2V86.4zM16.6 103l-.1-.1h-.2v.5l.2-.2h.1l.1-.1h.1l-.2-.1zm-6-7v-.1h-.1l-.1.2-.1.1v.1h-.1v.2l.3.1.1-.6zM8.8 84V84.3l.2-.2V83.8l-.2.1zm5.4 15.8h-.5l.2.4h.1v.1h.1l.1.1h.1v-.4l-.1-.2zm1.6 8.5l-.2-.1h-.1v.4H15.9V108.2zm-2.5-9.7l-.2-.2H13l-.1.1.4.5v-.4zM8.1 87.9l.1-.1-.3.4-.1.2H8l.1-.2V88h.1zm.5 12.4v.2V100.1zm-5.5-8H3v.1l.1.2V92.3zm16.8 14.6h-.1v.2h.2v-.1h-.1zm-1.8-2.6l-.1-.1h-.1v-.1h-.2v.1h.1l.2.1zm-9-21V83.7h.1v-.1h.1V83h-.1V83.5zm10.5-1.8l.1.1h.1V81h-.2V81.4zM39.8 68l-.2.1v.1h.2v.1-.1h.2V68h-.2zM27 61.2h-.2V61.6h.2V61.2z" fill="none" fill-rule="evenodd"/></svg>