
<svg width="107px" height="116px" viewBox="0 0 107 116" version="1.1" xmlns="http://www.w3.org/2000/svg" xmlns:xlink="http://www.w3.org/1999/xlink">
    <!-- Generator: Sketch 51.2 (57519) - http://www.bohemiancoding.com/sketch -->
    <desc>Created with Sketch.</desc>
    <defs></defs>
    <g id="Page-1" stroke="none" stroke-width="1" fill="none" fill-rule="evenodd">
        <g id="UY-EPS-01-0001" transform="translate(-257.000000, -158.000000)" >
            <polyline id="Fill-3" points="358.078805 243.682575 357.726724 243.928669 357.367406 244.268341 356.636878 245.152937 356.197941 245.939301 355.947193 246.766509 355.546514 248.750774 355.170652 249.954362 355.061047 251.056617 354.869238 251.395255 354.175417 251.879689 353.837296 252.185755 352.863776 253.434839 351.802364 254.257911 351.447699 254.672032 350.733198 256.075184 350.549661 256.318693 350.503131 256.585468 350.064194 257.966905 350.389907 258.842194 350.369744 259.276479 349.554427 259.530845 347.71544 260.562787 346.237323 261.61696 343.19113 264.586637 342.948654 264.904078 342.860246 265.326988 342.877825 265.695612 342.769771 265.957217 340.947328 266.371338 340.487194 266.409596 340.571465 266.199692 340.692445 266.046142 341.031083 265.726633 340.897179 265.618062 340.780335 265.460375 340.680037 265.279423 340.62937 265.075723 340.671247 264.769656 340.864607 264.190094 340.913723 264.081006 340.622132 263.787347 340.086515 263.558831 339.500748 263.426477 339.117131 263.413552 339.347198 263.571239 340.086515 263.90936 339.928311 264.215427 339.601564 264.540623 339.225702 264.807915 338.924805 264.904078 338.798655 265.075723 338.798655 265.401953 338.945485 265.65632 339.25879 265.592728 339.239144 265.413845 339.544177 265.472266 339.901944 265.790741 340.086515 266.320671 339.928311 266.625704 339.56434 266.931771 334.863731 269.450102 333.610511 269.801149 332.966839 270.349691 332.557371 270.540466 331.709483 270.795866 328.253822 272.458037 327.839701 272.541792 327.443158 272.689138 326.933391 273.281109 326.540468 273.369 326.628359 273.123423 326.673855 272.968838 326.673855 272.872158 326.469638 272.554717 326.189421 272.275017 325.838375 272.095617 325.053561 271.99842 325.002895 271.898638 325.028228 271.744053 324.893807 271.535183 324.685454 271.379565 324.506053 271.292708 324.065565 271.197062 323.122548 271.247212 321.29235 271.681496 320.514258 271.535183 319.996736 271.01611 318.965311 269.622782 318.187218 269.196253 317.690377 269.169369 316.270164 269.379273 315.83588 269.328606 314.490116 268.869506 312.710068 268.552065 310.97138 268.735084 307.653759 269.692061 307.32391 269.910237 306.642497 270.565799 306.354526 270.70022 305.928514 270.809308 303.309366 271.974121 302.931436 272.033059 302.753069 272.082175 302.397887 272.313793 302.196772 272.361874 302.133697 272.28846 301.49106 271.866067 301.663223 271.547074 301.578951 271.41317 301.370081 271.368708 301.161211 271.368708 300.968368 271.428163 300.630247 271.744053 300.400696 271.866067 299.927637 271.898638 299.539883 271.744053 298.908103 271.197062 297.709686 270.493935 297.391211 270.202345 297.342095 269.851815 297.634203 269.546782 298.493982 269.048906 298.118637 268.882431 297.257823 268.684418 296.523676 268.409888 296.205201 268.37163 294.931301 268.37163 294.605588 268.320963 294.301072 268.167413 293.548313 267.704177 293.197783 267.53615 292.812615 267.416205 291.595585 267.281784 289.786585 266.760125 288.299678 266.0327 287.973965 265.777299 287.690129 265.195668 287.389749 264.890636 286.720228 264.419127 286.177373 263.825605 285.750327 263.680844 285.350165 263.341689 285.157322 263.266206 284.974302 263.132819 284.856942 262.831922 284.672371 262.246155 284.539501 262.080714 284.246876 261.870293 284.130033 261.761721 283.753654 261.339328 283.385546 261.023438 282.964187 260.842487 281.799375 260.805262 280.599406 260.646542 278.889671 260.697208 276.403911 260.613453 276.182633 260.657916 275.799015 260.876092 275.564812 260.926241 275.179126 260.855929 274.594911 260.512637 274.148218 260.428366 273.689118 260.504365 272.864495 260.855929 271.093753 261.132526 269.163256 261.690892 268.946114 261.678484 268.849951 261.289696 268.122525 260.103687 267.357358 258.394985 266.957196 257.738389 265.478045 255.966613 264.826102 255.665716 264.591898 255.290887 264.291002 254.499353 263.927547 254.161748 263.442596 253.952878 262.90853 253.856716 262.448913 253.830865 261.901405 253.722811 261.658929 253.434839 261.415937 252.536285 261.186904 252.026001 259.503536 249.578499 259.134911 249.260541 258.382669 248.800924 258.056439 248.509333 257.780875 248.048682 257.630944 247.550806 257.137204 244.751741 257.055 242.679585 257.321775 240.641035 257.2587 240.143159 257.137204 239.67165 257.061721 239.174808 257.171326 238.605069 257.438101 238.141833 258.132438 237.247931 258.265826 236.725239 258.132438 236.262519 257.584413 235.787909 257.451026 235.328808 257.584413 234.894524 257.889963 234.505737 258.604464 233.800025 258.809198 233.327999 258.846939 232.785144 258.516056 230.708852 258.495893 229.714652 258.809198 228.95362 259.619345 228.648587 261.474875 228.757675 262.335689 228.685812 263.067768 228.323391 263.814323 227.616645 264.144689 227.194252 264.291002 226.793573 264.316335 226.251235 264.412498 225.824189 264.699952 224.925635 264.851435 223.968141 264.680306 223.267083 264.278593 222.693724 263.417263 221.786897 263.213046 221.399144 263.103958 220.960206 263.067768 220.475256 263.103958 219.41126 263.067768 218.862717 262.920421 218.453766 263.067768 218.282121 262.895605 217.676191 262.67898 216.025394 262.448913 215.687273 262.27675 215.310893 261.876071 213.540668 261.81765 212.959038 262.010493 212.691746 262.510953 211.651015 263.780718 209.816164 263.876881 209.10218 263.673181 208.41353 262.302083 206.591604 262.084941 206.093729 262.194029 205.609295 262.628831 204.881352 262.845973 203.987967 262.90853 202.931209 262.836667 201.924084 262.628831 201.196658 262.010493 200.482157 261.758194 200.009614 261.893132 199.524663 262.434954 198.906326 262.753429 198.664367 263.196502 198.481347 264.144689 198.289022 264.616198 198.09256 264.826102 197.753404 266.038478 194.151948 266.220981 193.133965 266.07105 192.092717 265.54112 191.423713 264.78836 190.843633 264.30341 190.250111 264.55881 189.53044 264.934673 189.205244 265.687432 188.758035 266.00022 188.477818 266.195648 188.039398 266.288192 186.985225 266.472245 186.514233 266.619075 186.35603 266.948407 186.099595 267.0911 185.942426 267.504704 185.068171 267.700649 184.803981 267.700649 184.199085 267.566745 183.167143 267.816975 182.135718 268.327259 181.357626 268.695884 180.573329 268.535612 179.495374 267.700649 178.257664 267.566745 177.989856 267.721846 177.576769 268.097192 177.321885 268.946114 177.10526 269.405215 177.150756 269.64769 177.067002 269.755744 176.716472 269.880859 176.160175 269.890165 175.914598 269.880859 174.944179 269.755744 173.96187 269.442956 172.546827 269.271827 172.024652 268.824618 171.066125 268.535612 170.616331 268.085301 169.721395 268.002063 168.822323 268.255913 167.98736 268.81221 167.306465 272.739897 163.704491 273.166943 162.977065 273.311187 162.077994 273.032005 161.085344 272.947733 160.587468 273.115242 160.357918 273.553663 160.344476 274.051021 160.82891 274.439809 162.033531 275.071589 162.455407 275.564812 162.506074 276.442686 162.34787 276.925569 162.333394 277.193895 162.480741 277.481349 162.939841 277.796205 163.027732 277.99215 162.932086 278.455904 162.517965 278.706134 162.396986 279.095439 162.408877 279.350322 162.575869 279.558158 162.772848 279.847164 162.894861 280.006402 162.83127 280.259734 162.53089 280.369339 162.467298 280.52806 162.556223 280.77829 162.817828 280.88014 162.894861 281.522777 162.747515 282.102857 162.300306 282.499916 161.644226 282.613141 160.931277 282.759453 160.332585 283.182363 159.593268 283.72832 158.927882 284.222577 158.590795 284.429896 158.597516 284.80731 158.78157 285.015663 158.78157 285.399797 158.577353 285.546627 158.526687 286.273019 158.380891 286.675249 158.369 287.644116 158.637326 288.382916 158.514795 289.135675 158.489979 289.862584 158.986304 290.226556 159.618084 290.423018 159.847634 291.667966 160.708447 292.286821 161.001589 292.61667 161.23114 292.92222 161.523247 293.100586 161.836552 293.171416 162.300306 293.113511 162.542781 293.12075 162.684957 293.451633 162.894861 293.647578 162.939841 293.840937 162.939841 294.032746 162.965174 294.249888 163.098044 294.363112 163.220058 294.54303 163.512165 295.286483 164.361605 295.528959 164.564788 295.863461 164.870337 296.920219 165.546063 297.257823 165.889871 297.743291 166.701052 298.023508 167.08984 298.290799 167.318356 299.213653 167.840014 300.387771 168.822323 301.044368 169.149071 301.44453 169.538375 302.072174 170.289584 302.180745 170.544467 302.22986 170.787459 302.330676 171.01701 302.547818 171.20158 302.931436 171.45543 303.103598 171.610531 303.236986 171.806993 303.901337 173.101574 304.194479 173.476919 305.506121 174.535228 305.831317 175.174763 305.95333 175.866516 305.857684 176.558269 305.506121 177.17609 305.422366 177.68534 305.406339 179.202232 305.288978 180.254854 305.288978 180.764104 305.506121 181.106878 306.023643 181.032947 307.345107 181.116185 307.967581 180.986416 308.439607 180.986416 308.631933 180.936784 308.803061 180.814771 308.890952 180.693792 308.957129 180.560404 309.082761 180.40065 310.160199 179.673224 310.453858 179.394558 310.612062 179.044029 310.829204 178.244739 311.079951 177.94074 311.472875 177.890074 311.957309 178.002781 312.405035 178.023978 312.66819 177.794428 312.693524 177.347218 312.635102 176.403167 312.729714 175.989046 313.035264 175.671605 313.461793 175.575959 313.884703 175.696938 314.439449 176.339576 315.166875 176.767139 315.497242 177.028226 315.935145 177.576769 316.866788 178.39984 318.346973 180.075454 318.634428 180.509738 318.744033 180.886117 318.806073 181.721597 318.952386 182.122276 319.170045 182.330629 319.838015 182.764913 320.068082 183.128885 320.330721 184.085861 320.50702 184.51239 320.819808 184.875845 321.158446 185.093504 321.936021 185.385612 322.311884 185.615679 323.256969 186.4889 323.656614 186.731893 323.959062 186.79445 324.217047 186.648138 324.48072 186.284683 324.856065 185.533475 325.110949 185.444033 325.461995 185.881936 325.788225 186.438751 326.297992 187.121197 326.882208 187.699726 327.693389 188.077139 327.935347 188.344948 328.16955 188.648947 328.420815 188.899694 328.701031 189.084782 329.297655 189.313815 332.606487 189.798766 333.296689 189.786875 333.601722 189.886657 333.852986 190.148778 334.202998 190.875687 334.437202 191.194162 335.489824 192.042051 335.782965 192.361043 336.011999 192.780334 336.099373 193.194455 336.133495 194.140057 336.400786 194.832843 336.944676 195.350882 337.600238 195.83635 338.206168 196.395232 338.816751 197.111284 340.182678 198.372776 341.298374 199.149318 342.284303 200.06907 342.744437 200.398402 342.968301 200.373069 343.153388 200.131627 343.520462 199.788853 343.893739 199.654949 344.294418 199.693207 344.670281 199.864336 345.007885 200.118185 345.129898 200.273287 345.313435 200.629503 345.49387 200.783571 345.685679 200.859053 346.346411 200.929366 346.680913 201.025012 346.972504 201.160467 347.540692 201.547704 347.773862 201.802587 347.858133 202.04558 347.908283 202.287538 348.029779 202.53053 348.233479 202.771972 348.501805 203.002039 349.045177 203.357221 350.222914 203.612105 350.503131 203.791505 350.624627 204.116702 350.648926 204.944427 351.230557 206.315524 352.236649 207.819491 352.479641 208.472985 352.613028 209.27486 352.67145 210.461387 352.771749 210.848106 352.951666 211.162445 353.461433 211.613791 353.666684 211.894007 354.008425 212.511311 354.417893 213.067609 354.894571 213.552042 356.152444 214.451114 357.326045 215.757585 358.454667 216.146373 359.315998 216.669582 359.657738 216.77867 360.301409 216.77867 360.96576 217.192274 361.609432 217.492654 361.914465 217.714449 363.234895 219.142417 363.418432 219.492946 363.355357 219.932918 363.101508 220.271556 362.374082 220.827853 361.562384 221.858761 360.218688 222.84107 359.657738 223.434075 359.4985 223.870944 359.447834 224.746751 359.315998 225.181035 359.089549 225.435401 356.661694 227.060865 355.981316 227.65387 355.41261 228.420071 354.902843 230.11533 354.928176 231.874181 355.362461 235.438414 354.914734 239.365583 354.852694 241.501331 355.41261 242.482606 355.826214 242.482606 356.177777 242.412294 356.507627 242.425219 356.833857 242.654769 357.025666 243.042523 357.171978 243.454059 357.414453 243.732724 358.078805 243.682575"></polyline>
        </g>
    </g>
</svg>