<svg width="53" height="116"><path d="M9 40.1h.2V40l.7-.7.2-.2.3-.1H11.4v-.2l.1-.1v-.2h-.1L11 38l-.4-.7-.3-.8V36l.2.3v-.1l.1-.3v-.7h-.1l-.2-.1-.2-.1-.2-.3h.2v-.3L10 33v-.3l-.3-.1h-.2l-.3.3v-.3l-.3-.8-.1-.5-.1-.2h-.3l.2-.3v-1l.2-.1H9v-.2H7.6l-.3.2-.1.2V32.4l-.2.1-.1.2h-.1l-.2.4-.1.1H5.9l-.7.1h-.4l-.2-.1-.2-2v-.1h-.1v-.4l-.1-.8-.2-.7-.3-.8v-.3l.1-.2-.6-.5-.3-.1-.1-.2-.2-.4-.3-.5-.1-.2v-.2l-.1-.1H2l-.1-.2-.1-.4-.1-.1-.2-.2-.1.2-.5.1V25.7l-.5.9.1.2v.8l-.1.2v.3l.2 1.2.2.3.3.5v.5l.2.3.1.3h.3l-.2.3v.2l.2.6v.7l.1.3.4.6.1.3v1.1l-.3.6v.5l-.2.3V37l.3.3v.4l.5.4.2.6.4.5.2.2.5.3.2.3v.4l-.2.3.3.3.3.2H5l.3-.1v-.2l.1-.1.1-.2h.7l-.2-.2.4-.3.6-.2H8l.2.1.2.2H9zm11.5 13.4l-.1-.2h-.2l-.1.2-.2.1V54.2l-.3-.2v-.3l.3-.5v-.8l-.3-.4h-.4l-.7-.5-.2-.3V51l-.1-.1-.4.2-.3-.2-.2-.3-.3-.3h-.2l-.4-.2-.1-.1-.2-.1v-.2l-.1-.2v-.2h-.1v.1h-.1v.2h-.2l-.4-.3.1-.3v-.1l-.2-.3-.1-.2h-.1v.3l.1.1v.1h-.2l-.2-.3h-.4l-.1-.2-.1-.1-.2-.2.1-.2v-.1l-.2-.1-.2-.1.3-.6-1-1.1v-.6l-1.6-.7-.5.4h-.1v.1l-.1.1-.1.2V46.5l-.4.9V48l.1.1.1.1.1.2.1.1v.4l.2.1H10.9l.4.4.7-.5.3-.3h.1l.3-.1.5.8.1.3h.1v.1l.1.1v.4l.2.8-.1.2v1.3h.2v.1l.2.1v.8l.4.5.2.3V55l-.2-.1v-.1l-.1-.1h-.1v.3l.2.3.2.1.2.4.4.2.1.1h.1v-.2h.2l.1.1.4-.3h.4l.1-.1.2-.2h-.1l-.1-.1-.1-.2.1-.1.3-.2.4-.2.3.1H18.2v.2h.6l.1.1.1.2v.1l.2.2h.2l.2-.1V55l.1-.1.2-.2v-.2h.1l.2-.1h.2l.3-.5-.1-.1-.1-.3zm5.6 6.1l.6.2.5-.2.4-.3h1.2l.2.2.3.2.8.5H30.4v-.7h.1l-.2-.4-.4-.2h-1.1l-.1-.2v-.2h-.1l-.3-.1-.2-.2v-.3l-.2-.2-.2-.2h-.4l-.3.2-.2-.2v-.2l-.1-.3V57l-.2-.1-.3-.6V56H26v-.1H26l-.2-.1h-.5l.1.2v.6h-.2v.2l-.1.2v.6l-.1.2v.2l.1.1.2.2V59l.1.2.5.4.2.1zm-.8-7.2h.2l.2-.1.2-.1h1.7l.5-.5.1-.2v-.2l-.1-.1-1.1-.6-.3-.3v-.5l-.4-1-.2-.5-.3-.4-.4.1h-.1l-.2.7-.1.1-.2.1-.6.6-.3.2H23l-.2.2h-.5l-.3.3-.2.2.2.1-.1.3.2.1.2.1.3.2.2.2.5.3.2.2.2-.1h.2l.4.3h.4l.2.1.2.1.2.1zM32 73.7h-.5l-.1-.4-.1-.1-.3-.2-.2-.2v-.3l-.2-.3-.1-.3h-.2l-.1-.1v-.4l-.3-.2h-.3l-1 .2-.3.1-.1-.2-.1-.1h-.5l-.4.4-.6.9-.1.2-.4.3-.2.2-.4.7v.2l.2.2v.1l.1.1h.2v-.1l.3-.4h.1l.2-.2h.4l.2.1h.2l.1.1v.4h.4v.3l-.4.1-.3.1-.3.2v.1h.6l.2-.2.2-.2v.6-.1h.4v-.1h.1v.2l.1.2.2-.2v.2h.1l.3.2h.1l1.1-.2h.1l.1.2h.2v-.1h.1v-.1l.4-.1h.2l.2-.3v-.4l.5-1v-.2zm-9.9-36.4V37l.1-.4.2-.3.2-.3.2-.3.4-.3v-.2h-.4l-1.4.2-.7.3h-.3l-.3.1-1.9 1.8-.1.3v.2l.6.2.3.1h2l1-1 .1-.1zM26 39v-.2l-.2-.7h-.3v1.3l-.5 1.2V42l.1.6.4.9.2 1.2.2 1 .1.6v.2l.3.1h.3l.4-.2.2-.5V44.4L27 44v-.2l-.2-.8-.4-1v-.8l-.2-.5v-1.5H26L26 39zm-1.3-8.8v.1l-.1.1.4 2.5.1.4v2.2l.1.8v.7h.7v-.9l.2-.5V34l-.3-.3V32.8l-.3-.6v-.6l-.1-.9v-.4l-.1-.2-.1-.3-.2-.3H24.7l-.1.2v.5zM10.4 42.6h.9v-.4l-.1-.5.2-.5-.1-.3-.5-.1-1.1-.2-.5.2-.3.3v.4l.2.4.2.2h.4l.2.2.5.3zm5.4-25.4H15.5l-.2.2H14.6l-.4.4h-.1l-.1.2v1.2l-.1.3v.2h.1l.2.2H16l.3-.2.4-.7v-.2l.2-.9-.1-.1-.2-.1-.9-.5zm-1.6-4.5l.3.3.1.1V13.7l.3.3h.3l.2-.2-.2-.4.1-.1-.1-.1h.4l.3-.2h.3l.3-.3h.2v-.1h-.1l-.2-.2h-.1l-.1-.1-.1-.2.3-.3-.2-.2-.5-.8-.2-.3-.3-.2H15l-.7.3-.2.2-.3.3v.3l-.1.4v.4l.5.5zm38 101.2l-.2-.1-.2-.2-.3-.2-.3-.1h-.8l-.2.1-.2.3-.1.4v.4l.2.2.5.2h.4l.2.2.1.1h.1l.4-.1.2-.1.1-.2.1-.2.2-.4-.2-.3zm-6.5-10.8l-.5-.3-.3-.1-.4-.1-.3-.1-.2-.3-.2-1.2v-.4l.2-.2v-.2l-.3-.3-.2.2H42.6l-.2.2h-.1v.2l-.2.2.1.4v.2h-.1l-.2.3v1.2l.5.7v.2h.1l.1.1.1.1v.2l.1.1h.4l.2.2.6.8h.3l.6.3h.3l.2-.2.1-.3.1-.7.6-.7v-.2l-.3-.1-.2-.2zm-3-8.3l.2-.3.4-.1.3-.2.1-.4v-.5l-.2-.4-.4-.3-.4-.2-.2-.1-.5-.3-.1-.2-.4-.4 1-.3h.2V91l-.1-.1-.1-.1-.2-.1v-.2H42v.1h-.7l-.2-.2-.1-.3V89.2l-.2-.2-.6-.3h-.6l-.6.1-.5.4-.2.3v.3l-.2 1.2v.1l.2.2.1.1v.4l-.2.8v.2l.9.3.2.1.4.3.2.2h.1l.5.2h.1l.2-.1h.2l1.4.8.3.2zM26.5 54.3l-.2.2.2.2h.2l.3-.2v-.8l.2-.2h-.4l-.2.2-.1.6zm5.2 6.4l-.3.2V61.6l.2.1h.4l.4-.8-.3-.3h-.4zm-4-6.1l.3.4v.2h.6l.2-.1v-.2l-.2-.3-.2-.1H27.7zm-17-15.3v-.1h-.2l-.3.1-.7.8.3.2h.2l.2.1h.2v-.1l.4.1.2-.2V40l-.3-.1V39.5h-.1v-.2h.2zm7-29.2l.1-.2h.6l.3-.1.2-.3v-.2l-.1-.3h-.5l-.2.2-.5.8v.1h.1zM.5.6V2l.3.2H1V2L1 2v-.3h.2L1 1.4V.6L.8.4.2.2v.2h.1v.2zm12 7V8h.7l.2-.2v-.4l-.2.2H13l-.1-.3h.3v-.3l-.2-.1-.4.1-.2.2v.3l.1.2zM2.8 5.8l-.2-.2-.3.1.3.6.2-.5zM29 64v-.1l.1-.1.4-.2.2-.1-.4-.1h-.2l-.6.3h-.2l-.1.3-.1.2H28.4l.5-.1.1-.1zm-.7 5.4h-.1l-.1.5.2.4.3.2h.3l-.2-.7-.2-.3-.2-.1zM26.8 71l-.5.4v.5l.1-.1.2-.2.3-.2h.2l.4-.3h.2l-.3-.3-.6.2zM9.6 30.2H10l.2-.1H10l-.4-.4h-.3v.1l.4.4zM1.2 3l.2.2.3.1.3-.1.2-.2v-.3L2 2.6h-.6l-.2.3v.2z" fill="none" fill-rule="evenodd"/></svg>