
<svg width="120px" height="116px" viewBox="0 0 120 116" version="1.1" xmlns="http://www.w3.org/2000/svg" xmlns:xlink="http://www.w3.org/1999/xlink">
    <!-- Generator: Sketch 51.2 (57519) - http://www.bohemiancoding.com/sketch -->
    <desc>Created with Sketch.</desc>
    <defs></defs>
    <g id="Page-1" stroke="none" stroke-width="1" fill="none" fill-rule="evenodd">
        <g id="BA-EPS-01-0001" transform="translate(-245.000000, -159.000000)" >
            <polyline id="Fill-3" points="364.089927 211.905595 363.823074 212.019737 363.630752 212.25167 363.51661 212.36477 363.208583 212.135443 362.711361 211.523037 361.715875 210.949199 360.988284 209.876055 360.490541 209.415838 360.29822 209.147421 360.222646 208.420873 359.955793 208.075841 359.762429 208.075841 359.417397 208.420873 359.22716 208.495404 359.032754 208.34113 358.729417 208.037793 357.386814 207.040223 356.813497 206.427816 356.623261 205.888899 356.542475 205.046645 356.159917 204.128817 355.624647 203.362136 355.126904 202.902441 354.781872 202.825825 353.825997 203.058279 353.404349 203.058279 353.134369 202.981663 352.523005 202.674157 351.221055 202.367172 350.607085 202.09667 350.071295 201.410254 349.380188 199.953509 349.152425 199.10917 349.114899 198.305485 349.380188 197.424662 349.800794 196.888871 350.145826 196.239981 350.222963 195.088658 349.763268 193.210264 349.839362 192.522805 350.913549 192.177773 351.141312 191.984409 351.335719 191.680551 351.487387 191.335519 351.56296 191.028013 351.524392 190.337948 351.603614 190.070574 351.756324 189.877731 352.101357 189.686973 352.254067 189.535305 353.671202 187.082553 354.131418 185.819693 354.360224 185.398045 354.66773 185.05197 355.278573 184.555269 355.548032 184.096616 355.663216 183.367462 356.737403 178.193019 356.851024 178.003825 357.002692 177.966299 357.116834 177.851114 357.079308 177.392461 357.002692 177.046907 356.888029 176.814975 356.695186 176.624738 356.428854 176.317753 356.353281 176.356843 356.045774 176.394369 355.737747 176.280227 355.126904 175.703783 354.857967 175.703783 354.587987 175.820531 354.28465 175.860142 352.941005 175.551594 352.637668 175.627688 352.09823 175.860142 351.793851 175.860142 351.639055 175.666257 351.524392 175.323309 351.335719 175.053329 350.951075 175.129945 348.229907 177.124045 347.733206 177.31376 347.121321 177.388813 346.161276 177.695798 345.857418 177.772413 342.331001 177.851114 341.374083 177.54465 341.336557 177.505039 340.921163 177.262683 340.990482 177.124045 340.568834 176.814975 340.263413 176.622653 339.689575 175.9722 339.229358 175.514067 338.921852 174.32626 338.921852 174.287691 338.997947 174.17407 339.153785 173.865522 339.575433 173.559058 339.841243 173.3683 339.917338 173.061315 339.954864 172.948215 339.954864 172.871599 339.917338 172.791856 339.879812 172.716804 339.763585 172.564093 339.689575 172.44943 339.650485 172.332682 339.650485 171.990256 339.575433 171.758844 339.49569 171.568086 339.418553 171.489385 339.381026 171.451859 339.267927 171.413291 339.153785 171.376807 338.884326 171.338238 338.311009 171.300191 337.965977 171.148001 337.850792 170.993206 337.582376 170.686742 336.432095 168.389307 336.279384 168.195943 336.204853 168.156853 336.086541 168.118805 335.858778 168.118805 335.703983 168.273601 335.665414 168.389307 335.626846 168.540975 335.588798 168.69577 335.551272 168.809912 335.436087 168.999628 335.168714 169.154945 334.900818 169.041324 334.822639 168.924576 334.708497 168.772386 334.670971 168.657202 334.556828 168.426833 334.480212 168.273601 334.325938 167.891564 334.13518 167.622105 334.094527 167.547052 334.01739 167.507963 333.865721 167.469394 333.672357 167.469394 333.250709 167.736768 333.023467 167.814948 332.791535 167.814948 332.60234 167.773773 332.293792 167.698721 332.066029 167.698721 331.606854 167.891564 331.606854 168.273601 331.720475 168.616027 331.759565 168.809912 331.797091 169.34466 331.797091 169.421276 331.068458 169.421276 330.264251 169.117419 329.998441 168.924576 329.970817 169.308177 329.86293 169.277426 329.880129 169.041324 329.652366 168.886528 329.420955 168.73486 329.088431 168.400773 329.155665 168.237117 328.502085 167.507963 328.159658 167.237462 327.967337 167.085793 327.776057 167.011262 327.355452 166.817377 325.207599 166.62714 324.748946 166.395207 323.792029 165.707749 323.406864 165.401285 322.679273 165.093779 321.953246 165.245968 321.914678 165.245968 321.569645 165.666574 321.494072 166.204971 321.457588 166.62714 321.457588 166.779329 321.263182 167.237462 321.032291 167.392778 320.766481 167.582494 320.652339 167.622105 320.1129 167.736768 319.808521 167.736768 319.692294 167.776379 319.307651 167.776379 318.734334 167.659631 318.04427 167.356294 316.667268 166.091871 316.358719 165.822933 316.282103 165.784886 315.862019 165.552953 315.364276 165.552953 314.905101 165.784886 313.064755 168.004663 312.566491 168.464359 312.297032 168.619154 311.455299 168.772386 311.074304 168.924576 310.534866 169.154945 310.307624 169.192471 310.269055 169.192471 309.999596 169.079371 309.654564 168.924576 309.233958 168.540975 309.119816 168.426833 307.434266 166.204971 306.59149 165.401285 305.711189 164.904063 305.365635 164.904063 304.713097 164.865495 304.062122 165.211048 302.95093 166.395207 302.913404 166.395207 302.302561 166.779329 301.994534 166.817377 301.304469 166.74024 299.774235 166.934646 299.579829 167.011262 299.735146 166.74024 300.00252 165.859938 299.466208 166.130439 299.272323 166.24406 298.930418 166.320155 298.547338 166.168487 298.585907 166.091871 298.737575 165.897986 298.814712 165.669701 298.775622 165.401285 298.585907 165.093779 298.355016 164.942632 298.240353 165.131305 298.163737 165.401285 298.126732 165.514906 298.126732 165.552953 298.087642 165.552953 297.169815 165.822933 296.824783 165.859938 296.593371 165.897986 296.403134 165.784886 296.171723 165.629569 295.901743 165.401285 294.906778 164.749268 294.717062 164.672131 294.333983 164.520462 293.145654 163.753261 292.572337 165.017163 292.455589 165.207921 292.304442 165.207921 291.000408 165.324669 290.693944 165.476337 290.654854 165.514906 289.008393 164.749268 287.975902 164.28853 287.091431 163.63964 286.670304 163.332655 286.05894 162.029663 285.982324 162.106279 285.90623 162.181852 285.675861 162.335084 285.406923 162.489879 285.215644 162.642069 285.292781 162.413263 285.367312 162.257947 285.367312 161.993179 285.330307 161.722678 285.215644 161.377645 284.908138 161.912915 284.756469 161.836299 284.562584 161.722678 284.183153 161.264024 283.951742 161.187409 283.72033 161.112356 283.763068 161.187409 283.838121 161.377645 283.914215 161.684109 283.261156 161.761246 283.22363 161.684109 282.878076 161.490745 282.878076 160.728234 282.726408 160.228406 282.612787 159.847933 282.45747 159.692616 282.379812 159.616 281.538079 160.344633 281.500553 160.383202 281.422894 160.535391 281.192525 160.880424 280.888668 161.264024 280.808925 161.300508 280.619209 161.415693 280.58064 161.532441 280.466498 161.874346 280.387797 161.95461 280.159513 162.106279 280.08394 162.144847 279.851486 162.219899 279.775912 162.335084 279.545022 162.564932 279.43088 162.910485 279.393354 163.062154 279.393354 163.753261 279.0478 164.020113 279.009232 164.058161 278.703289 164.097772 278.243072 164.174909 275.255051 163.256039 272.154451 162.335084 271.311676 162.335084 270.392805 162.296515 268.973065 163.294086 267.978622 165.514906 267.557495 166.168487 267.249467 166.395207 266.444739 166.665187 266.137754 166.855945 266.023612 167.085793 265.947518 167.237462 265.947518 167.507963 266.023612 167.773773 265.947518 168.273601 265.909991 168.426833 265.833375 168.657202 265.67858 168.96106 265.219406 169.805398 264.953074 170.802448 264.915027 170.954637 264.915027 171.031253 265.01666 171.192824 264.874373 171.72236 264.106129 171.912076 262.998065 171.644702 262.155289 171.300191 261.848304 171.148001 261.540798 170.954637 260.96696 170.609084 260.393644 170.035246 258.170218 167.814948 257.634428 167.085793 257.251348 166.091871 256.981889 165.401285 256.867226 165.207921 256.522194 164.634083 256.138593 164.327098 255.489182 164.174909 255.413087 164.136861 255.220244 163.981545 255.220244 163.791308 255.338034 163.484323 255.338034 163.100722 255.068576 162.717121 254.684975 162.527406 254.684975 162.6035 254.376948 162.6035 253.69001 162.758817 251.773569 162.680116 250.778604 162.642069 249.476134 162.871917 249.131101 162.910485 248.900732 163.100722 248.095483 163.829877 247.74993 164.749268 247.712403 165.093779 247.82863 167.622105 247.712403 168.273601 247.328803 169.231561 246.986376 170.112383 246.986376 170.916069 247.06195 171.18657 247.33193 172.181014 247.213618 172.948215 246.451107 174.249123 246.220217 175.016325 246.296312 175.666257 246.333317 176.12491 246.755486 177.008339 247.255835 177.772413 247.521645 178.538052 247.521645 178.57662 247.369977 179.344343 246.834187 179.576276 246.220217 179.764428 245.76 180.341914 245.798569 180.721345 245.836095 181.029894 246.181127 181.758006 246.948329 183.022429 247.101039 183.249671 247.213618 183.329414 247.791104 183.751584 247.981341 184.016873 248.056915 184.133621 248.095483 184.248284 248.250279 184.593838 248.479084 184.82108 248.557785 184.859127 249.01748 184.784596 249.283812 184.70798 249.821687 184.66889 250.088019 184.593838 250.31943 184.324379 250.471098 183.940778 250.703031 183.674447 251.086111 183.674447 251.276347 183.903773 251.389968 184.284768 251.468148 184.631885 251.468148 184.746027 251.545285 185.014444 251.583332 185.129628 251.811617 185.356349 252.080554 185.281296 252.312487 185.166633 252.54025 185.166633 252.615823 185.319344 252.847235 185.626329 252.999424 186.356004 253.075519 186.701037 253.113566 186.738042 253.496646 187.273311 253.613915 187.349927 253.804673 187.505243 254.073611 187.581859 254.187232 187.618343 254.608359 187.69548 254.916386 187.733528 255.299466 187.927413 255.565276 188.348019 255.642413 188.576303 255.721114 188.844719 255.758119 189.111572 255.796688 189.457126 255.758119 189.457126 255.52775 189.611921 255.52775 189.65049 255.375561 190.185759 254.877818 190.838297 254.647449 191.525756 255.258291 192.215821 255.338034 192.215821 255.910309 192.25491 256.639463 191.947925 257.023064 191.793651 257.326922 191.83222 257.671954 191.871309 258.017508 192.329963 258.208266 193.059117 258.36254 193.90085 259.091694 196.008049 259.281931 196.813298 259.281931 197.462709 259.243884 197.579457 259.12922 197.808263 258.898851 197.963058 258.861325 197.963058 258.629914 198.152774 258.629914 198.498849 258.746662 198.384706 259.091694 198.384706 259.665011 198.536896 259.779153 198.612469 260.276375 198.956981 260.355075 198.99607 260.621407 199.264487 260.698023 199.569387 260.73607 199.686656 260.698023 199.876893 260.660497 200.374115 260.621407 200.490342 260.545312 200.757194 260.432734 201.026653 260.238848 201.448302 260.162754 201.870471 260.162754 202.51884 260.432734 203.861964 260.739197 204.856408 261.005529 205.700747 261.501708 206.427816 262.846396 207.843908 263.112728 208.34113 263.267523 208.6502 263.95394 210.296139 264.300536 210.869977 264.414156 211.063862 264.991121 211.635615 265.105263 211.713273 265.336154 211.905595 265.640533 212.096353 265.909991 212.096353 266.713677 212.019737 266.942482 212.096353 267.05923 212.135443 267.363609 212.635271 267.439704 212.786939 267.518405 213.017308 267.595542 213.477525 267.785258 213.861647 267.86448 213.974747 268.016148 214.012794 269.204998 214.4334 269.318098 214.511058 269.739746 214.817522 270.19892 215.39136 270.237489 215.466412 271.38777 217.152484 272.191977 217.957212 272.883084 218.647276 273.531974 219.566668 273.840001 220.025321 275.102861 221.21365 275.41141 221.597251 275.525031 221.829183 275.562557 222.13252 275.600604 222.515599 275.715268 222.937769 275.869542 223.396943 276.290669 224.087008 278.436436 225.810606 279.700339 226.805049 282.573697 229.717497 284.525579 231.748602 284.947228 232.206734 286.020893 233.470636 287.667875 234.929466 289.430042 235.922867 292.379495 236.382042 292.68648 236.575406 293.336412 237.035622 293.415113 237.226902 293.798714 238.10564 293.642876 239.027637 293.222791 241.632057 293.681966 242.971533 293.912335 243.739256 295.100663 245.539991 296.094065 246.455734 296.364566 246.68923 296.976451 247.071789 297.282393 247.340726 297.51172 247.762896 297.628468 248.184544 297.74261 248.604629 298.087642 249.407793 298.278401 249.675688 298.547338 249.983195 302.989499 252.895643 304.13978 254.273687 304.215354 254.387829 304.943466 256.072858 305.175398 256.611255 305.252014 257.530125 305.252014 257.758409 304.867371 258.027347 304.370149 258.373421 302.722646 258.718454 303.410626 259.102055 303.873449 259.561229 303.372579 259.405391 302.530324 259.02179 301.994534 259.02179 304.943466 260.82461 305.327067 260.248166 305.557957 260.021446 305.749236 259.828082 306.169842 259.711855 306.439822 259.637324 307.089233 259.750423 308.353136 260.248166 308.622073 260.28882 309.005674 260.366478 309.271484 260.248166 309.502896 260.021446 309.772355 260.021446 309.847928 260.134546 310.11426 260.479578 310.155434 260.787084 310.155434 260.901747 310.11426 261.74348 310.11426 261.896191 310.194003 262.354323 310.577604 262.931809 311.149878 263.851721 311.495953 264.081048 312.566491 264.386469 313.294603 264.962392 314.369311 266.188247 314.597595 266.4551 315.249091 266.991411 315.326228 267.068548 315.594123 267.258785 316.935684 268.139608 322.258668 271.742121 322.450989 271.819258 323.256238 272.27739 324.902178 272.850706 325.131505 272.850706 325.707427 272.81318 326.049853 273.082639 326.167644 273.234307 326.509549 273.73205 326.664345 273.964504 326.702392 274.000988 327.162088 274.270968 328.005384 274.384589 328.237317 274.422636 328.426511 274.498731 328.732975 274.616 329.041523 274.34602 329.307334 274.231878 329.499655 274.231878 329.652366 274.270968 329.998441 274.461205 330.304905 274.422636 330.419568 274.155783 330.343473 273.773746 330.186593 273.465719 330.11154 273.351576 330.532668 273.119644 331.030411 272.850706 331.681907 272.202337 332.027981 271.360604 332.027981 270.170191 331.720475 269.020952 331.224817 268.334014 330.609283 267.681476 330.343473 267.221259 329.57575 265.957878 329.230718 265.152108 329.155665 264.962392 329.080092 264.693976 328.885685 263.964821 328.847117 263.236188 328.885685 263.160614 329.116576 262.777014 329.499655 262.472635 329.689892 262.127602 329.728461 262.089034 329.728461 262.050986 329.57575 261.283785 328.847117 259.828082 328.619875 259.139581 328.578179 259.02179 328.578179 258.297848 329.155665 256.649823 330.073493 255.76848 331.528154 255.423447 331.797091 255.384357 333.595741 255.346831 334.822639 255.537068 334.822639 255.384357 334.285806 252.360373 334.285806 251.286187 334.556828 249.945668 335.053529 248.909008 335.588798 248.104801 336.356521 247.034263 336.241337 246.995694 335.626846 246.68923 335.821252 246.420293 336.086541 245.998645 339.267927 243.664725 339.995518 243.125286 340.223802 243.04867 340.76324 242.858434 340.724672 242.819865 340.64545 242.664027 340.494303 242.280426 340.37964 242.092795 340.838814 241.860863 340.953477 241.822294 341.450178 241.784768 342.752128 241.670626 343.098724 241.784768 343.482324 241.901516 344.324057 242.474833 344.554426 242.783381 344.554426 243.355134 344.594037 243.507845 344.630521 243.700166 344.901543 244.158299 345.511865 244.961463 345.549912 245.042248 345.624965 245.232485 345.744319 245.117301 345.933513 244.961463 346.203493 244.619558 346.392688 244.235957 346.623578 243.929493 346.965483 243.736129 347.76969 243.697039 347.733206 243.545371 347.888001 243.43175 347.542969 242.780254 346.965483 241.670626 346.586052 240.634487 346.047655 239.180347 345.16579 237.99254 345.014122 237.799176 344.93907 237.760607 344.783232 237.647507 344.133821 237.836702 344.133821 237.647507 344.208873 237.377528 344.247963 237.301433 344.247963 237.035622 344.016551 236.652022 343.863841 236.382042 343.788788 236.345558 343.63295 236.268421 343.173776 236.156363 343.059634 236.075578 342.869397 235.922867 342.869397 235.577835 342.906923 235.50174 343.021065 235.232802 343.173776 235.119703 343.329614 235.005039 343.518808 234.929466 343.90293 234.735059 344.630521 233.92981 345.090738 233.584778 345.781845 233.509726 345.971039 233.70309 346.203493 233.92981 346.317114 234.162264 346.549568 234.545865 346.662146 234.697533 346.927957 235.081134 347.428827 235.274498 348.078238 235.274498 348.693251 235.042566 348.958019 234.735059 349.49433 234.048122 350.262053 233.968379 351.718798 234.200833 352.408863 234.200833 352.788294 233.470636 353.0958 232.551766 353.517449 231.86118 353.863523 231.748602 354.630725 231.90027 354.976279 231.90027 355.317141 231.671986 356.045774 231.09919 356.353281 231.018405 356.851024 231.289427 357.347724 231.978449 357.770415 232.782656 358.039352 233.470636 358.270243 233.854758 358.536053 233.509726 358.918612 232.590334 359.302212 232.590334 360.453536 233.049509 360.680778 232.897841 360.75583 232.703434 360.680778 232.515803 360.453536 232.325566 360.29822 231.86118 360.25913 231.289427 360.335746 230.6765 360.453536 230.176672 361.216047 229.412076 361.178521 228.301406 360.453536 225.962274 359.839045 224.585272 356.737403 221.21365 355.087815 218.571703 354.171029 217.346369 353.134369 216.540599 352.788294 216.31023 353.134369 215.965197 353.210985 215.659255 353.059317 215.120858 353.059317 214.817522 353.210985 214.4334 353.479922 214.203552 354.090244 214.012794 354.553588 214.012794 354.93354 214.165505 355.700742 214.700253 356.504949 215.429407 356.888029 215.659255 357.347724 215.622771 357.806899 215.504459 359.417397 215.39136 361.178521 215.546155 361.906112 215.504459 362.636309 215.23917 363.89969 214.3203 364.434959 213.743335 364.704939 213.055877 364.472485 212.25167 364.089927 211.905595"></polyline>
        </g>
    </g>
</svg>