
<svg width="108px" height="116px" viewBox="0 0 108 116" version="1.1" xmlns="http://www.w3.org/2000/svg" xmlns:xlink="http://www.w3.org/1999/xlink">
    <!-- Generator: Sketch 51.2 (57519) - http://www.bohemiancoding.com/sketch -->
    <desc>Created with Sketch.</desc>
    <defs></defs>
    <g id="Page-1" stroke="none" stroke-width="1" fill="none" fill-rule="evenodd">
        <g id="DJ-EPS-01-0001" transform="translate(-268.000000, -171.000000)" >
            <path d="M374.379109,202.605677 L374.200835,201.505056 L371.821319,198.196178 L371.409829,197.297211 L371.231555,195.970972 L371.146802,193.499688 L370.96093,192.351723 L370.486897,191.561473 L369.906484,190.864744 L369.41024,189.965777 L369.076489,188.864571 L368.960757,187.779732 L368.960757,185.486138 L367.923262,186.206832 L366.937788,185.934453 L366.038821,184.998077 L364.527878,182.609794 L358.297065,175.503978 L357.621963,174.402188 L357.133902,173.115695 L356.522511,171.967729 L355.490277,171.271 L341.610644,177.215406 L340.960091,177.278532 L340.176271,176.649606 L339.609887,176.580635 L338.53323,177.503567 L337.046252,181.013513 L334.278041,183.648457 L334.503659,185.577905 L335.093424,187.601458 L334.72694,189.360231 L333.922078,189.786919 L332.031792,190.120671 L331.488787,190.709851 L330.613785,191.965365 L328.296226,192.615918 L327.465646,193.832271 L317.475888,184.998077 L314.553368,183.687619 L312.825574,183.237551 L311.700988,183.438621 L308.44004,186.97487 L304.595172,192.127858 L302.657541,196.351484 L294.156515,207.938107 L293.186238,210.293658 L292.698177,211.085661 L291.187234,211.827982 L290.489336,212.611801 L287.901737,217.376678 L280.213171,228.312749 L279.492477,229.011231 L278.61689,229.70796 L277.717923,230.111268 L277.02061,230.336886 L276.477606,230.716814 L276.121058,231.639161 L275.492716,232.475587 L272.965905,233.576208 L272.051741,234.203381 L271.036458,236.249729 L270.160871,241.154887 L268.27,247.022139 L268.316176,250.533839 L269.959217,257.973406 L270.742452,264.972257 L270.588143,277.387123 L270.208215,280.15475 L269.060249,281.976649 L269.8429,283.03051 L271.439765,283.641901 L278.950058,285.146414 L279.173338,285.48718 L279.338168,285.866523 L279.715758,286.17631 L280.281558,286.271 L280.61531,286.021417 L280.910484,285.712214 L281.336003,285.526342 L284.932457,285.370864 L286.691814,284.944176 L288.667437,282.922961 L290.381788,282.356576 L293.88472,281.976649 L297.170802,282.737089 L298.387155,282.737089 L299.239362,282.53485 L301.51016,281.502616 L302.051995,281.457025 L303.199961,281.502616 L303.734782,281.434229 L305.826138,280.736916 L307.268694,280.960781 L308.261766,281.302716 L309.20574,281.363504 L310.571142,280.712951 L314.825746,277.921944 L320.5609,276.17077 L323.46004,275.946905 L327.98527,277.024731 L329.513164,277.093118 L330.729517,277.54377 L332.348593,281.054301 L333.426418,281.976649 L334.844425,282.285851 L337.471186,282.53485 L339.044087,283.007714 L339.882265,283.146241 L340.826824,282.805476 L341.47913,282.023409 L342.105719,281.457025 L343.098791,281.821171 L363.319708,250.262044 L362.397361,249.362493 L360.43635,248.308632 L359.692276,247.766797 L358.979181,246.712351 L358.056249,242.929441 L357.669308,242.256093 L356.970825,242.458331 L356.499131,243.333334 L355.823444,244.209505 L354.591309,244.50468 L353.196683,243.69748 L351.932985,243.651304 L350.562323,243.922514 L340.037744,244.077407 L339.518119,243.828993 L338.797426,243.286573 L338.286569,243.495826 L337.766945,244.031231 L337.091259,244.50468 L335.720012,244.867657 L331.426246,245.380267 L328.496127,246.510697 L327.218401,247.40908 L326.652601,248.486906 L326.993951,248.843453 L327.64392,249.160839 L328.070608,249.658252 L327.714645,250.486494 L327.12488,250.781084 L326.520503,250.665937 L325.916711,250.401741 L325.350326,250.23808 L324.653013,250.463698 L323.646497,251.41001 L322.738762,251.564319 L321.978907,251.254532 L320.715794,250.106566 L318.608657,249.293521 L318.243342,247.967282 L318.220546,246.348205 L317.934139,244.953579 L317.096545,245.131852 L317.096545,244.682953 L317.840618,244.169759 L319.235245,244.054027 L319.591208,244.303026 L320.180972,245.131852 L320.53752,245.380267 L321.07994,245.448654 L322.738762,245.380267 L324.273085,245.650308 L324.854667,245.627512 L326.839058,245.045346 L327.442851,244.72796 L327.868954,244.169759 L332.325213,236.04866 L333.80693,234.475175 L335.449387,233.459307 L341.408405,231.351585 L342.601378,231.141748 L344.330926,231.778273 L345.298864,231.351585 L346.245176,230.693434 L347.143559,230.336886 L350.632464,230.181993 L351.529677,229.863438 L351.872781,229.484679 L352.111259,228.585128 L352.407018,228.13506 L352.831952,227.841054 L353.847236,227.414366 L354.181572,227.212712 L359.06335,221.361827 L361.133663,219.881278 L362.350016,219.563308 L365.094263,219.494336 L366.349777,219.269302 L368.109134,218.370335 L369.812964,218.075161 L370.309208,217.943063 L372.022389,216.842442 L373.39422,215.246161 L374.339947,213.30853 L374.673115,211.239386 L374.200835,206.365207 L374.379109,202.605677 Z M375.501941,186.431281 L375.168774,186.322563 L375.299703,186.701907 L375.665018,186.841603 L375.501941,186.431281 Z M359.311764,234.947454 L359.808008,235.219833 L360.458561,235.731274 L360.683011,235.079552 L360.258076,234.901278 L359.65253,234.653449 L359.311764,234.947454 Z" id="Fill-3"></path>
        </g>
    </g>
</svg>