
<svg width="165px" height="116px" viewBox="0 0 165 116" version="1.1" xmlns="http://www.w3.org/2000/svg" xmlns:xlink="http://www.w3.org/1999/xlink">
    <!-- Generator: Sketch 51.2 (57519) - http://www.bohemiancoding.com/sketch -->
    <desc>Created with Sketch.</desc>
    <defs></defs>
    <g id="Page-1" stroke="none" stroke-width="1" fill="none" fill-rule="evenodd">
        <g id="IS-EPS-01-0001" transform="translate(-234.000000, -181.000000)" >
            <path d="M262.05462,233.041866 L261.979659,233.080325 L261.961407,233.155286 L261.904045,233.210041 L261.809528,233.191138 L261.924252,233.434275 L262.017465,233.398424 L262.05462,233.341062 L262.166085,233.247196 L262.260603,233.172886 L262.278854,233.172886 L262.278854,232.966904 L262.072872,232.966904 L262.05462,233.041866 Z M292.751837,296.141518 L292.659275,296.346197 L292.601913,296.479173 L292.678179,296.591942 L292.826147,296.648 L292.882205,296.648 L292.976722,296.515676 L292.957819,296.141518 L292.751837,296.141518 Z M274.17172,267.447414 L274.266889,267.541931 L274.415509,267.690551 L274.547181,267.579086 L274.415509,267.391355 L274.247985,267.241432 L274.21083,267.09216 L274.040047,266.961139 L273.910331,267.09216 L274.021796,267.204277 L274.116313,267.29749 L274.17172,267.447414 Z M266.642288,255.422876 L266.811115,255.160836 L267.036,255.087177 L267.128562,254.843388 L267.073155,254.86164 L267.036,254.806885 L266.979942,254.636102 L266.755708,254.636102 L266.605133,254.806885 L266.512571,254.973757 L266.530822,255.029815 L266.586881,255.047415 L266.586881,255.310759 L266.642288,255.422876 Z M265.61368,247.53819 L265.855514,247.858245 L266.063451,247.987961 L266.230323,248.025116 L266.32484,247.987961 L266.32484,247.744824 L266.249227,247.725921 L266.025645,247.819786 L265.781204,247.53819 L265.480704,247.107974 L265.126102,246.583893 L265.201716,246.95805 L265.350336,247.145129 L265.61368,247.53819 Z M261.586598,234.071777 L261.623753,233.960312 L261.567694,233.960312 L261.473177,234.015718 L261.379312,233.960312 L261.397563,234.127184 L261.49208,234.146087 L261.586598,234.071777 Z M258.457754,225.044411 L258.327385,225.118069 L258.29023,225.287548 L258.43885,225.194335 L258.570523,225.025507 L258.457754,225.044411 Z M260.08736,224.932294 L260.031301,224.970101 L259.825319,225.099818 L259.825319,225.418568 L259.956991,225.23149 L260.049553,225.136973 L260.08736,224.932294 Z M262.653664,222.777955 L262.748181,222.479411 L262.521991,222.627379 L262.447681,222.590224 L262.410526,222.646283 L262.297758,222.796206 L262.373371,222.909627 L262.653664,222.777955 Z M270.595712,222.160008 L270.670022,222.047891 L270.725429,221.935122 L270.744332,221.841257 L270.651119,221.858857 L270.539654,221.953374 L270.46404,222.160008 L270.482291,222.17826 L270.595712,222.160008 Z M254.994515,221.858857 L255.049921,221.858857 L255.031018,221.785199 L254.937153,221.822354 L254.881094,221.896012 L254.767674,222.066795 L254.804829,222.160008 L254.95736,221.935122 L254.994515,221.858857 Z M333.995212,196.799426 L334.014115,196.688613 L333.976309,196.594095 L334.014115,196.651458 L334.070174,196.594095 L334.180987,196.612347 L334.199891,196.200383 L334.014115,196.163879 L333.619751,196.257745 L333.470479,196.36921 L333.470479,196.688613 L333.731868,196.688613 L333.995212,196.799426 Z M398.629302,235.232708 L398.349009,235.027378 L398.349009,234.765337 L398.424623,234.352721 L398.479378,233.622006 L398.479378,232.872387 L398.442223,232.348957 L397.862735,233.080325 L397.432519,233.922505 L397.393408,234.052222 L397.262388,234.164339 L397.018599,234.651917 L396.868675,234.765337 L396.812617,234.689724 L396.719403,234.5398 L396.606635,234.390528 L396.457363,234.31687 L395.988688,234.31687 L396.102109,234.090029 L396.215529,233.94206 L396.345246,233.846891 L396.493214,233.809084 L396.493214,233.585502 L396.233129,233.341062 L395.072197,233.585502 L395.072197,233.321506 L395.539568,233.135731 L396.044746,233.080325 L396.606635,232.81698 L396.6829,232.667708 L396.6829,232.534081 L396.663997,232.367861 L396.701804,232.142975 L396.944941,231.749262 L396.999696,231.487873 L396.849772,231.375105 L396.289187,231.375105 L395.257973,231.636494 L392.973917,231.375105 L391.232845,231.749262 L390.78177,231.375105 L391.699565,231.375105 L392.561952,231.149567 L394.565716,231.149567 L396.438459,230.663293 L396.775462,230.456659 L397.375157,229.483458 L397.711508,229.182959 L397.506829,228.621722 L397.13202,228.21041 L396.401304,227.72218 L395.950881,227.590507 L394.509657,227.965317 L393.780246,227.90991 L391.419924,228.789246 L391.194387,228.453547 L391.568544,228.21041 L392.823993,227.965317 L393.442591,227.572256 L393.76069,227.460139 L394.509657,227.460139 L394.979636,227.254809 L395.315335,226.860444 L395.276224,226.260749 L394.115945,225.849436 L393.740483,225.530685 L394.340178,225.212586 L395.689492,225.418568 L396.195322,225.044411 L396.195322,224.650698 L396.252684,224.313044 L396.252684,224.051655 L396.102109,223.826769 L396.606635,223.45196 L396.701804,223.30334 L396.701804,222.983937 L396.532325,222.308628 L396.493214,222.10395 L396.645745,221.785199 L396.926037,221.447544 L397.13202,220.942366 L397.113116,220.154941 L397.018599,219.988069 L396.493214,219.38707 L396.401304,219.349915 L396.195322,219.424225 L396.081901,219.38707 L396.062998,219.276257 L396.062998,219.05072 L396.044746,218.826486 L395.969785,218.676562 L395.520665,218.563141 L395.145856,218.844737 L394.452295,219.874648 L394.192862,219.631511 L394.059886,219.444432 L393.966021,219.182392 L394.022079,218.751524 L394.059886,218.432773 L394.039679,218.169429 L393.909962,217.965402 L393.70398,217.889136 L393.236609,217.90804 L393.236609,217.683154 L393.442591,217.608844 L393.51625,217.364403 L393.497346,216.990897 L393.386533,216.559378 L393.21575,216.372951 L392.917206,216.354047 L391.2876,216.766012 L390.876288,216.690398 L387.59752,214.724441 L387.766999,215.118154 L388.197215,215.585525 L388.421449,215.92318 L387.24357,215.041889 L386.849205,214.949979 L386.531106,215.174213 L384.677266,217.965402 L384.39567,218.544238 L384.245746,218.788679 L383.739917,219.293857 L383.572393,219.38707 L383.421817,219.555246 L383.103718,220.342671 L382.915336,220.623615 L382.988994,220.025224 L383.159777,219.481587 L383.40161,219.031164 L384.525387,217.664903 L384.825886,216.89638 L385.61266,215.979238 L385.969218,215.041889 L386.400737,214.70619 L387.205763,214.442194 L386.924167,214.105191 L385.988773,213.470296 L385.651119,213.2063 L385.57746,213.113739 L385.520098,212.981415 L385.406678,212.664619 L385.368219,212.363468 L385.744332,211.98931 L386.38053,210.473125 L385.911856,209.94774 L385.294561,210.097664 L384.151229,210.734514 L380.948075,211.614501 L379.787144,212.28981 L379.243507,212.43843 L378.720078,212.176389 L378.888253,211.539539 L379.319773,210.716262 L379.544007,209.965991 L378.851098,210.884437 L378.458037,211.201885 L378.006962,211.23904 L378.758537,210.415763 L379.039481,209.891681 L379.020577,209.254831 L379.356928,208.824615 L380.461801,208.001338 L381.435653,206.783045 L381.605133,206.632469 L381.661191,206.37108 L381.998845,205.489789 L382.017749,205.322266 L381.998845,204.928553 L381.998845,204.760378 L382.073807,204.590899 L382.260886,204.40382 L382.298693,204.234341 L382.278486,203.841932 L382.128562,203.017351 L382.091407,202.605387 L381.998845,202.47567 L381.792211,202.437863 L381.586229,202.287939 L381.511919,201.857723 L381.435653,201.033143 L381.229671,200.489506 L380.929172,200.152503 L380.594125,199.966076 L379.825603,200.058638 L378.589058,201.183718 L377.896801,201.239125 L376.922296,200.790005 L375.236632,200.733947 L374.93874,200.489506 L375.123863,200.359137 L375.406111,200.077541 L375.535827,199.947825 L375.462169,199.253613 L375.273787,198.97332 L374.393148,198.915958 L374.170218,198.822745 L373.720446,198.466839 L374.000739,197.642258 L374.393148,197.286352 L375.312246,197.230294 L375.554079,197.099925 L376.979659,195.714108 L377.110027,195.433164 L377.297106,194.813914 L377.333609,194.401949 L377.239744,194.197923 L377.184989,194.02714 L376.866238,193.373342 L376.791276,193.297076 L376.716314,192.999184 L376.527932,192.809498 L376.173981,192.660878 L376.527932,192.024028 L376.99791,191.630315 L378.36352,191.274409 L379.544007,190.356615 L382.185924,189.158529 L382.897084,188.353503 L380.049185,188.839778 L379.712182,188.689202 L379.132694,188.202928 L378.776136,188.091463 L377.503088,188.3346 L377.110027,188.614892 L376.527932,189.214587 L376.248943,189.683914 L376.155078,190.244498 L375.985599,190.693618 L374.93874,191.387178 L374.862474,191.668122 L374.843571,192.004473 L374.767305,192.286069 L373.720446,192.660878 L371.883554,192.660878 L371.453338,192.922919 L371.358821,193.279477 L371.416183,193.80421 L371.470938,194.551873 L371.416183,195.263685 L371.304066,195.84578 L371.11438,196.257745 L370.854947,196.444172 L370.911005,196.594095 L370.947508,196.669709 L371.077877,196.725768 L370.723927,197.04517 L370.461234,196.706864 L370.160735,196.200383 L369.67446,195.826877 L369.225341,195.321047 L368.814028,195.132665 L368.661497,194.908431 L368.569587,194.590984 L368.531129,194.197923 L368.382508,194.364794 L368.287991,194.439104 L368.194126,194.439104 L368.044854,194.179671 L367.971196,194.008888 L367.800413,193.95283 L367.277636,194.197923 L366.189059,194.14056 L365.967432,193.933926 L366.078245,193.4294 L366.151904,193.017436 L366.097149,192.754092 L365.610874,192.549413 L365.40424,192.323224 L365.215858,192.211759 L365.048334,192.415785 L364.8417,191.892356 L365.291472,191.518198 L365.648029,191.031272 L366.265324,189.850785 L365.967432,188.839778 L365.967432,188.614892 L366.003935,188.277238 L365.854012,187.940887 L365.610874,187.679498 L365.346226,187.584981 L363.92521,187.584981 L363.94281,187.39725 L363.979965,186.985286 L364.036023,186.818414 L363.774634,186.948131 L363.175591,186.818414 L362.633258,186.948131 L362.42532,186.892724 L362.575896,186.573973 L362.498979,186.461856 L362.351662,186.161357 L362.2767,186.049892 L362.594799,185.768296 L362.594799,185.54341 L362.538741,185.524507 L362.387513,185.54341 L362.481379,184.961967 L362.669761,184.737733 L362.911595,184.587809 L363.119533,184.270362 L362.407721,183.971166 L361.152272,182.696163 L360.458712,182.995358 L360.290536,183.089875 L359.449008,182.71637 L359.036391,182.71637 L358.697433,182.883893 L358.567717,183.05272 L358.454296,183.763229 L358.286773,183.971166 L358.099042,183.913804 L357.986273,183.482936 L357.966718,183.389071 L357.799846,183.633512 L357.649923,183.99007 L357.481747,184.251459 L357.481747,184.531751 L357.406785,184.550654 L357.106286,184.700578 L356.825994,184.756637 L356.563953,184.531751 L356.657167,184.476344 L356.863149,184.251459 L356.601108,184.213 L356.432933,183.971166 L356.263454,183.670667 L356.03922,183.482936 L355.906896,183.540299 L355.47668,183.913804 L355.233543,184.008322 L355.290905,184.231252 L355.309808,184.383783 L355.309808,184.550654 L355.346963,184.776192 L355.196388,184.645172 L355.064064,184.383783 L355.008005,184.027225 L355.064064,183.615261 L355.064064,183.314761 L354.820926,183.295858 L354.40831,183.482936 L354.221231,183.652416 L354.110418,184.008322 L354.05436,184.364879 L354.015249,184.531751 L353.847074,184.476344 L353.809919,184.251459 L353.792319,183.971166 L353.697802,183.744977 L353.379703,183.800384 L353.079203,184.251459 L352.949487,184.776192 L353.360799,185.262466 L353.661299,186.461856 L353.920732,186.818414 L353.920732,187.078499 L353.603937,187.078499 L353.736261,187.547174 L353.809919,187.69775 L353.920732,187.809215 L353.865977,187.940887 L353.772112,188.221179 L353.717357,188.3346 L353.865977,188.314393 L353.920732,188.3346 L353.809919,188.989701 L353.903132,189.290853 L354.315748,189.626552 L354.353555,189.832534 L354.371807,190.170188 L354.39071,190.487635 L354.466976,190.619308 L354.560189,190.657114 L354.651447,190.730773 L354.707506,190.844193 L354.95325,191.406081 L355.102522,191.668122 L355.196388,191.967318 L355.233543,192.529206 L355.196388,192.86686 L355.102522,193.222114 L354.971502,193.522614 L354.916747,193.709693 L354.916747,193.933926 L354.651447,194.179671 L354.427865,194.551873 L354.27729,195.021851 L354.221231,195.582436 L354.333348,195.9944 L354.614944,196.407017 L355.137722,196.950001 L355.137722,197.230294 L354.747268,197.174887 L354.166477,196.275996 L353.809919,195.938342 L353.490516,195.919439 L352.180313,196.444172 L352.61118,195.9944 L353.920732,195.207627 L353.566781,195.22653 L352.949487,195.619591 L351.937175,195.957245 L351.263822,196.444172 L351.544114,196.725768 L351.601477,197.00606 L351.601477,197.361966 L351.713593,197.848892 L351.881117,198.110281 L352.106654,198.391877 L352.592929,198.730183 L352.592929,198.953113 L352.087751,198.840996 L351.750097,198.280412 L351.448294,197.623355 L351.036981,197.212042 L350.870761,197.304604 L350.682379,197.605755 L350.402086,198.354722 L350.288666,198.391877 L350.008374,197.848892 L349.819991,197.716568 L350.045529,197.456483 L350.271066,197.304604 L350.494648,197.212042 L350.737785,197.212042 L350.176549,197.04517 L348.305109,197.5686 L347.777769,197.979913 L348.003306,198.204798 L348.097823,198.22305 L347.929648,198.429684 L347.741266,198.466839 L347.55549,198.391877 L347.365804,198.22305 L347.365804,197.979913 L347.55549,197.979913 L347.55549,197.66051 L347.57309,197.456483 L346.992299,195.882935 L346.693103,195.207627 L346.301346,194.927334 L344.800152,194.776759 L344.408395,194.401949 L344.259123,195.040103 L343.340025,195.394705 L342.928713,195.826877 L342.629517,196.350958 L342.553252,196.612347 L342.722731,196.725768 L342.815292,196.911543 L342.796389,197.343714 L342.703175,197.77393 L342.535,197.979913 L342.159539,198.129184 L341.710419,198.503342 L341.336262,198.991572 L341.149183,199.49675 L341.130931,199.966076 L341.166783,200.508409 L341.149183,200.714392 L341.073569,200.994684 L340.981008,201.183718 L340.736567,201.463359 L340.792625,201.949633 L340.699412,202.325094 L340.511029,202.586483 L340.32395,202.755962 L340.32395,202.980848 L340.473874,203.206385 L340.53254,203.447567 L340.493429,203.711563 L340.419119,203.972952 L340.32395,203.972952 L340.119924,203.299599 L340.026058,202.886982 L339.856579,202.718807 L337.477354,202.755962 L337.833912,203.055158 L339.220381,202.980848 L338.957689,203.225289 L338.620686,203.411064 L338.283032,203.504929 L337.983836,203.486677 L338.134412,204.030314 L338.320187,204.51724 L338.452511,205.04067 L338.396452,205.73423 L338.189818,205.266207 L337.685944,203.748066 L337.309179,202.999099 L337.047138,202.642542 L336.560212,202.287939 L336.391385,201.800361 L336.148248,200.753502 L335.961169,200.340886 L335.380377,199.42244 L335.174395,199.234709 L334.894103,199.084134 L334.407828,198.391877 L334.163387,198.22305 L333.563692,198.317567 L333.394213,198.22305 L333.264497,197.961009 L333.132173,197.230294 L333.001152,196.950001 L332.365606,196.651458 L330.88462,197.04517 L330.324687,196.725768 L330.379442,196.651458 L330.398345,196.632554 L330.398345,196.575192 L330.416597,196.461771 L330.193667,196.388113 L329.555513,196.461771 L329.348227,196.388113 L328.994277,196.06871 L328.788295,195.957245 L327.459188,195.864684 L327.232347,195.938342 L326.838634,197.00606 L326.764976,198.730183 L326.952054,200.433447 L327.364671,201.463359 L327.364671,201.744303 L327.25125,201.744303 L327.25125,201.989395 L327.439633,202.343346 L327.738828,203.093617 L328.169044,203.373909 L328.357427,203.748066 L328.412181,204.234341 L328.282465,204.760378 L328.431737,205.021766 L328.899108,205.621462 L329.088794,205.752482 L329.144852,205.678824 L329.274569,205.341169 L329.348227,205.247956 L329.424493,205.285111 L329.461648,205.360073 L329.481855,205.433731 L329.499455,205.489789 L329.611572,205.602558 L329.912071,206.258312 L329.986381,206.294815 L330.097846,206.24006 L330.193667,206.24006 L330.229518,206.37108 L330.211267,206.877562 L330.229518,206.989027 L330.679941,208.730098 L330.736,209.291986 L330.641483,209.965991 L330.566521,210.07876 L330.305784,210.321897 L330.229518,210.473125 L330.172156,210.866186 L330.172156,211.128227 L330.211267,211.35246 L330.211267,211.690767 L330.153904,211.896097 L330.080246,212.062969 L330.041788,212.308713 L330.117401,212.720026 L330.211267,212.869298 L330.510462,213.113739 L330.623883,213.244107 L330.773155,213.674975 L330.902871,214.332032 L330.921775,214.98583 L330.736,215.435601 L330.491559,215.341084 L330.305784,214.836558 L330.229518,214.199056 L330.305784,213.712782 L329.611572,212.963163 L329.181356,212.326965 L329.049032,212.233751 L328.994277,211.98931 L328.994277,210.473125 L328.918011,210.192181 L328.637719,209.535124 L328.581661,209.123811 L328.618816,208.113455 L328.581661,207.812956 L328.412181,207.382088 L328.31962,207.250416 L328.1886,207.213913 L327.907004,207.250416 L327.794887,207.194357 L327.738828,207.101144 L327.718621,206.932969 L327.588904,206.44539 L327.495691,206.014523 L327.38227,205.641669 L327.046572,205.360073 L326.802131,204.760378 L326.635259,204.498989 L326.482728,204.366013 L325.37981,204.198489 L324.70385,203.767622 L323.636784,203.486677 L323.598977,203.206385 L323.712397,202.568231 L323.992038,201.463359 L323.825166,200.90147 L323.712397,200.152503 L323.561822,199.516957 L323.337588,199.234709 L323.149206,199.104993 L322.96343,198.8599 L322.775048,198.71128 L322.589273,198.8599 L322.437394,199.065882 L322.232715,199.197554 L322.026733,199.253613 L321.839002,199.234709 L322.26987,198.298663 L322.456949,197.716568 L322.306373,197.456483 L322.026733,197.230294 L321.709286,196.744671 L321.352728,196.2949 L320.921208,196.200383 L319.85349,197.322855 L319.686618,197.343714 L319.742677,196.781174 L319.985814,195.9944 L320.099235,195.452067 L319.34766,195.077258 L318.936348,195.002948 L318.673003,195.207627 L318.730366,195.35755 L318.786424,195.73236 L318.450073,196.519134 L318.241484,196.837233 L317.961192,196.950001 L318.074612,195.770167 L317.607241,195.526378 L316.276179,196.031555 L315.751446,196.498926 L315.602826,196.725768 L315.508308,197.118829 L315.339481,197.979913 L315.209113,198.22305 L315.209113,198.466839 L315.283423,198.522245 L315.432043,198.672821 L315.508308,198.730183 L315.508308,198.953113 L315.414443,198.953113 L315.489405,199.309671 L315.583922,199.572364 L315.714291,199.777042 L315.902021,199.966076 L315.602826,199.890463 L315.096344,199.346174 L314.796496,199.234709 L314.853207,198.878803 L314.908613,198.730183 L314.759993,198.672821 L314.628321,198.71128 L314.514901,198.803841 L314.404087,198.953113 L314.422339,199.572364 L314.047529,199.49675 L313.353317,198.953113 L311.369761,199.290768 L310.524973,199.758139 L310.264888,200.096445 L310.113008,200.396944 L310.038698,200.489506 L310.038698,200.620526 L310.188622,201.387745 L310.302043,201.762554 L310.451315,202.044802 L310.601238,202.269036 L310.376353,202.681652 L310.094757,202.980848 L309.795561,203.167927 L309.534172,203.225289 L309.34579,203.355657 L309.21477,203.656157 L309.158711,203.991204 L309.158711,204.253244 L310.038698,205.247956 L310.094757,205.489789 L310.506069,206.744586 L310.732911,207.64478 L310.825472,208.507168 L310.807221,209.42431 L310.714659,210.473125 L310.54518,211.502384 L310.41416,212.008214 L310.264888,212.233751 L309.983292,212.419526 L309.852923,212.401275 L309.795561,212.102079 L309.83402,211.933252 L309.945485,211.821787 L310.094757,211.746173 L309.663889,211.764425 L309.496366,211.709018 L309.383597,211.595598 L309.177615,211.296402 L309.122208,211.23904 L308.672437,211.182981 L308.559016,211.465881 L308.464499,212.233751 L308.166607,211.784632 L307.380485,211.539539 L307.061734,211.091071 L306.96852,210.678455 L306.892907,209.704603 L306.835545,209.254831 L306.72408,208.993442 L306.404677,208.262727 L306.367522,208.01959 L306.34927,207.757549 L306.312115,207.493553 L306.218902,207.232164 L306.144592,207.176106 L305.955557,207.213913 L305.862996,207.118744 L305.675265,206.8202 L305.524689,206.764141 L305.338914,206.783045 L304.738567,206.389332 L303.93289,206.258312 L303.67085,205.995619 L303.691057,205.341169 L303.409461,204.873146 L303.034651,204.479434 L302.754359,203.991204 L302.809766,203.878435 L302.885379,203.600098 L302.941438,203.467122 L302.772611,203.31785 L302.696345,203.093617 L302.640938,202.813324 L302.547725,202.493921 L301.928475,201.295183 L301.723796,200.753502 L301.573872,200.188355 L301.460452,199.91067 L301.311832,199.758139 L301.423297,199.477846 L301.066739,199.272516 L300.786447,198.991572 L300.581116,198.540497 L300.506154,197.755679 L300.187404,198.054223 L299.849749,198.017068 L299.119686,197.735472 L298.876548,197.887351 L298.332912,198.5594 L298.05262,198.730183 L297.527886,198.653918 L297.340156,198.71128 L297.191536,198.840996 L296.928191,199.160399 L296.779571,199.216458 L296.159669,199.141496 L295.805067,199.216458 L295.506523,199.477846 L295.692298,199.947825 L295.617336,200.544913 L295.412006,201.106801 L295.18712,201.463359 L295.449161,201.781458 L295.655143,202.156267 L295.82397,202.62429 L295.917835,203.24354 L296.011049,204.498989 L296.122514,204.835991 L296.685054,206.127943 L297.059863,207.307778 L297.209787,208.355289 L296.816726,208.730098 L296.816726,209.011694 L297.173284,209.387155 L297.547442,210.060509 L297.846637,210.921592 L297.960058,211.858942 L297.920947,212.43843 L297.82643,212.944911 L297.67781,213.319721 L297.490079,213.470296 L297.284097,213.693227 L297.303001,214.218612 L297.508983,214.650783 L297.82643,214.724441 L297.527886,214.817655 L297.246942,214.817655 L297.115922,214.949979 L297.041612,215.211368 L297.022708,215.792159 L296.965346,216.053548 L296.742416,216.483764 L296.272438,217.19688 L296.104262,217.683154 L296.272438,218.226791 L296.178572,218.639407 L296.048204,219.069623 L296.104262,219.650415 L295.879377,219.12503 L295.936739,217.535186 L295.747705,217.19688 L295.543678,217.270538 L295.131714,217.608844 L294.923776,217.683154 L294.455753,217.720961 L293.951227,217.90804 L294.175461,218.151177 L294.418598,218.206584 L294.923776,218.169429 L295.093907,218.263946 L295.316837,218.751524 L295.506523,218.900796 L295.33574,219.668666 L295.26143,220.229251 L295.131714,220.604712 L294.794059,220.830249 L294.606328,220.868056 L294.418598,220.830249 L294.231519,220.736384 L294.062692,220.604712 L293.895168,220.381782 L293.819555,220.173192 L293.763496,219.930707 L293.668979,219.650415 L293.576417,219.555246 L293.29417,219.38707 L293.238763,219.405974 L293.238763,219.201295 L293.275918,218.956854 L293.351532,218.676562 L293.29417,218.263946 L293.29417,218.057964 L293.275918,217.90804 L293.14555,217.683154 L292.789644,217.402862 L292.601913,217.664903 L292.58301,218.245042 L292.751837,218.900796 L292.414182,219.032468 L292.247311,218.657659 L292.247311,218.039712 L292.433086,217.421765 L292.302717,216.89638 L292.321621,216.165013 L292.433086,214.724441 L292.470241,214.630576 L292.527603,214.611673 L292.564758,214.555614 L292.527603,214.238167 L292.470241,214.199056 L292.284466,214.238167 L292.228407,214.218612 L291.946811,213.805995 L291.796236,213.693227 L291.609157,213.732337 L291.553098,214.086288 L291.347116,214.238167 L291.066824,214.312477 L290.784576,214.461097 L289.868086,215.697642 L288.182421,217.027401 L287.733302,217.90804 L287.67594,218.132274 L287.526016,219.182392 L287.488861,219.349915 L287.303086,219.68757 L287.22682,219.874648 L287.169458,220.418937 L287.169458,220.997773 L287.208569,221.841257 L287.340241,222.909627 L287.600326,224.07121 L287.956884,225.175431 L288.349945,226.018264 L288.23848,226.280304 L288.032497,226.093225 L287.526016,225.923746 L287.413899,225.661706 L287.340241,225.418568 L286.909373,224.539233 L286.458298,223.021092 L286.140851,222.384242 L285.691731,222.122853 L285.502697,222.627379 L285.560059,223.752459 L285.877506,226.468035 L285.877506,226.955613 L285.784293,227.497946 L285.67348,227.72218 L285.5216,227.928814 L285.429039,228.153048 L285.502697,228.453547 L285.410135,228.565012 L285.18525,228.958073 L285.29867,229.277476 L285.560059,229.821112 L285.691731,230.175715 L285.729538,230.437755 L285.766041,231.018547 L285.990927,231.880934 L285.877506,232.367861 L285.634369,232.573191 L285.391232,232.367861 L285.391232,232.142975 L285.502697,231.525029 L285.354077,230.830816 L285.053577,230.233077 L284.773285,229.914326 L284.792189,229.821112 L284.792189,229.782654 L284.81044,229.763098 L284.867802,229.68944 L284.660516,229.333534 L284.081029,227.460139 L284.081029,227.103581 L284.154687,226.372866 L284.154687,225.831185 L284.062125,225.044411 L284.062125,224.59464 L284.099932,224.21983 L284.062125,223.95779 L283.854839,223.826769 L283.949356,223.227074 L283.799433,222.87182 L283.238196,222.328835 L282.826232,221.617675 L282.600042,221.428641 L282.262388,221.354331 L281.944941,221.465796 L281.364149,221.991181 L279.866215,222.571321 L279.866215,222.328835 L280.577375,222.047891 L281.438459,221.111194 L282.188078,219.856397 L282.507481,218.544238 L282.188078,216.990897 L281.401304,217.178628 L280.484162,218.001905 L279.771698,218.414521 L279.771698,218.169429 L280.072197,217.83373 L280.84072,216.616088 L281.007591,216.222375 L280.802913,215.753701 L280.372697,215.530119 L277.880051,215.585525 L277.618662,215.341084 L277.543701,215.247871 L277.375525,215.099251 L277.206698,214.817655 L277.132388,214.332032 L277.07633,214.14365 L276.943354,213.955919 L276.70152,213.712782 L276.887947,213.412282 L277.000716,213.1887 L277.037871,212.887549 L277.000716,212.457333 L276.943354,212.401275 L276.625906,211.803535 L276.588751,211.709018 L276.345614,211.484132 L275.651402,211.016761 L275.370458,210.959399 L275.801326,210.696707 L276.289556,210.696707 L276.738675,210.939844 L277.113485,211.465881 L277.132388,211.764425 L277.318163,212.270906 L277.599759,212.757833 L277.880051,212.963163 L277.937413,213.076584 L278.199454,213.544606 L278.331126,213.712782 L280.353793,213.805995 L280.802913,213.470296 L282.002303,211.933252 L281.776114,211.709018 L280.98934,211.201885 L280.745551,211.128227 L280.183663,211.23904 L279.866215,211.220788 L279.866215,210.959399 L281.382401,210.377956 L281.813269,209.985547 L282.076613,209.49862 L282.826232,207.757549 L282.826232,207.493553 L282.113768,206.989027 L282.562887,206.726334 L282.731715,206.24006 L282.69456,205.621462 L282.470326,204.873146 L282.076613,204.535492 L280.465258,205.003515 L280.465258,204.760378 L281.102109,204.272148 L281.289187,203.972952 L280.858971,203.711563 L279.454251,203.972952 L278.611419,204.44293 L278.199454,204.498989 L277.919162,203.991204 L278.142092,203.991204 L279.71564,203.523833 L280.127604,203.187482 L282.225233,202.999099 L282.039458,202.211674 L281.776114,201.781458 L281.419556,201.576779 L280.98934,201.482262 L279.377985,201.932033 L279.003176,201.614586 L278.724187,201.106801 L278.648574,200.845412 L278.743091,200.489506 L278.872807,200.433447 L279.19221,200.170755 L279.377985,199.890463 L279.079441,199.777042 L279.023383,199.646022 L278.966021,199.365078 L278.891711,199.084134 L278.780246,198.953113 L278.12384,199.010475 L277.599759,199.272516 L277.41268,199.477846 L277.711876,200.209866 L277.730128,200.489506 L277.730128,201.106801 L277.636914,201.295183 L277.449835,201.519417 L277.206698,201.688244 L277.018967,201.744303 L277.132388,201.35059 L277.318163,200.939277 L277.449835,200.471254 L277.41268,199.966076 L277.22495,199.70208 L276.962909,199.758139 L276.70152,199.928921 L276.457079,199.966076 L276.251749,199.777042 L276.157884,199.535209 L276.081618,198.822745 L276.063366,198.22305 L276.063366,198.241301 L276.044463,198.054223 L275.932998,197.679413 L275.877591,197.456483 L276.100521,197.268101 L276.100521,196.818329 L275.951901,196.36921 L275.688557,196.200383 L275.745919,195.84578 L275.801326,195.714108 L274.864628,195.207627 L274.697105,195.22653 L274.396605,195.414912 L274.247985,195.414912 L274.134565,195.321047 L273.947486,195.040103 L273.253274,194.457356 L273.030344,194.401949 L272.804154,194.514718 L272.600127,194.702449 L272.410441,194.813914 L272.206415,194.684197 L273.086402,193.933926 L273.235022,193.672538 L272.618379,192.660878 L272.504958,192.529206 L272.373938,192.415785 L272.24357,192.415785 L272.111897,192.660878 L271.850509,192.549413 L270.781487,192.660878 L270.857753,192.117242 L270.725429,191.855201 L270.482291,191.929511 L270.258058,192.397534 L270.146593,192.660878 L269.994061,192.567665 L269.882596,192.304972 L269.75288,192.137449 L269.52669,192.137449 L269.283553,192.248914 L269.039764,192.436644 L268.834434,192.660878 L268.646703,192.415785 L268.646703,192.137449 L268.871589,191.873452 L268.852685,191.591857 L268.721013,191.331771 L268.646703,191.142737 L268.646703,190.749024 L268.665606,190.431577 L268.778375,190.281653 L269.058667,190.356615 L269.058667,190.114782 L268.421817,189.962902 L268.234739,189.739972 L268.440721,189.364511 L268.067215,188.670299 L266.850225,187.996945 L266.586881,187.453309 L266.456512,186.573973 L266.100606,185.842606 L265.632584,185.374583 L265.163257,185.299621 L265.276026,185.637928 L265.669739,185.899316 L265.781204,186.273474 L265.706894,186.742149 L265.480704,186.798207 L264.452097,186.293029 L263.984074,185.731141 L263.496496,185.337428 L262.915052,185.54341 L262.971111,185.91822 L263.008918,186.049892 L262.653664,186.311933 L262.072872,186.985286 L261.698063,187.059596 L261.397563,186.855569 L260.85523,186.198512 L260.181877,185.937123 L259.656492,185.411738 L259.3762,185.299621 L257.897169,185.299621 L258.646788,185.955375 L258.869066,186.068795 L259.114159,186.254571 L259.170218,186.628728 L259.038545,186.911628 L258.721098,186.818414 L258.66504,186.628728 L258.532064,186.180261 L258.43885,186.03164 L258.327385,185.993834 L256.697779,186.273474 L256.809244,186.461856 L256.884206,186.647632 L256.978723,187.078499 L256.528952,186.836666 L256.059625,186.40645 L255.592254,186.180261 L255.142483,186.55507 L255.461886,187.135862 L255.892754,187.660595 L256.360125,188.015849 L256.790993,188.091463 L256.47159,189.251742 L255.836695,189.346259 L255.124231,189.064012 L254.54344,189.101818 L254.337458,189.439473 L254.430019,189.683914 L254.675112,189.925747 L255.087076,190.468732 L255.705023,190.807038 L258.064041,191.443236 L258.420599,191.012369 L258.532064,190.93871 L259.133063,189.869689 L259.395103,189.532034 L259.637589,189.308452 L260.142766,189.101818 L260.142766,189.383414 L259.938088,189.663707 L259.711899,190.170188 L259.619337,190.657114 L259.806416,190.862445 L260.406111,190.767928 L260.687707,190.619308 L261.86689,189.327356 L262.35512,188.989701 L263.008918,188.839778 L262.297758,189.158529 L262.091124,189.383414 L262.017465,189.607648 L261.943155,190.356615 L261.885793,190.619308 L261.586598,190.994769 L261.454925,191.256158 L261.473177,191.649219 L261.605501,191.743736 L262.297758,191.892356 L263.197952,191.799794 L263.945615,191.387178 L264.526407,190.749024 L264.714138,190.675366 L265.049836,190.862445 L265.049836,191.142737 L264.808655,191.142737 L264.563562,191.274409 L264.35758,191.499295 L264.189404,191.780891 L263.945615,192.024028 L263.702478,192.042931 L263.647071,192.09899 L263.945615,192.415785 L264.563562,192.735188 L266.586881,192.415785 L266.249227,192.698685 L265.500911,192.772343 L264.827558,193.31598 L264.452097,193.410497 L263.72073,193.410497 L263.871305,193.896771 L263.927364,194.046043 L264.021229,194.179671 L263.813943,194.401949 L263.609265,194.346543 L263.216204,193.933926 L263.160145,193.785958 L263.102783,193.615175 L263.027169,193.466555 L262.859646,193.392245 L262.447681,193.392245 L260.874134,192.885764 L260.406111,192.86686 L258.17681,193.485459 L257.484553,193.933926 L258.101196,195.564184 L259.151966,196.688613 L262.709722,198.22305 L263.533651,199.104993 L264.789751,199.721636 L265.049836,199.628422 L265.350336,199.346174 L266.081703,198.97332 L266.380247,198.953113 L266.212072,199.458943 L265.950031,199.591267 L265.650835,199.61017 L265.369239,199.758139 L265.163257,200.132948 L265.06874,200.544913 L264.99443,200.994684 L264.845158,201.463359 L265.163257,201.595683 L265.480704,201.971144 L265.762952,202.47567 L265.968282,202.980848 L266.100606,203.637253 L266.212072,204.44293 L266.380247,205.153439 L266.679443,205.489789 L266.679443,205.752482 L266.212072,206.127943 L265.61368,208.168862 L265.049836,208.486961 L265.049836,208.262727 L265.201716,207.850111 L265.556318,207.15655 L265.669739,206.744586 L265.762952,205.470886 L265.762952,205.227749 L265.650835,205.153439 L265.556318,205.433731 L265.480704,205.80854 L265.462453,205.995619 L265.257774,205.827444 L265.276026,205.584306 L265.369239,205.304014 L265.369239,205.003515 L265.257774,204.703016 L265.163257,204.703016 L265.06874,204.797533 L264.957275,204.760378 L264.732389,204.290399 L264.563562,203.767622 L264.35758,203.429315 L264.040132,203.486677 L264.040132,203.767622 L263.945615,204.479434 L262.952859,207.136995 L262.596301,208.544323 L262.410526,208.600381 L262.297758,208.29923 L262.447681,207.625225 L263.216204,205.489789 L263.160145,205.397228 L263.121686,205.266207 L263.234455,205.077825 L263.327669,204.722571 L263.383075,204.310606 L263.459341,203.542736 L263.439134,203.373909 L263.34592,203.24354 L262.804239,202.211674 L262.241699,201.595683 L262.110027,201.405996 L262.017465,201.106801 L261.979659,200.600971 L261.885793,200.489506 L260.874134,200.396944 L260.799172,200.453003 L260.668151,200.733947 L260.517576,201.35059 L260.387859,202.229925 L260.331801,203.167927 L260.350052,203.991204 L259.844223,205.752482 L259.769261,205.227749 L259.919836,204.385568 L259.994146,203.355657 L259.788164,202.362249 L259.619337,202.47567 L259.413355,203.036254 L259.133063,203.972952 L258.88797,204.290399 L258.607678,204.44293 L258.007982,204.479434 L258.494909,204.142431 L258.925125,203.447567 L259.281683,202.586483 L259.545027,201.744303 L259.318838,201.501165 L259.077004,201.706496 L258.832563,202.063054 L258.626581,202.269036 L258.646788,202.156267 L258.721098,201.989395 L258.513812,201.145911 L258.401695,200.863663 L258.234172,200.753502 L258.064041,200.845412 L257.971479,201.106801 L257.897169,201.445107 L257.822859,201.744303 L257.52236,202.229925 L256.697779,203.24354 L256.379028,203.767622 L256.286467,203.767622 L256.434435,203.391508 L257.091492,202.119112 L257.14755,202.044802 L257.408939,201.576779 L257.503456,201.314087 L257.484553,200.957529 L257.408939,200.359137 L257.408939,199.815501 L257.371784,199.61017 L257.109744,199.216458 L256.903761,198.767338 L256.753838,198.540497 L256.58501,198.447935 L256.286467,198.579608 L255.554448,199.739887 L255.461886,198.953113 L255.536196,198.391877 L255.274807,197.735472 L254.899346,197.174887 L254.600802,196.93175 L254.151683,196.837233 L252.633541,195.714108 L250.291472,195.040103 L249.934914,195.207627 L249.916662,195.693901 L249.674829,195.901839 L249.054926,195.938342 L248.811789,196.050459 L248.568652,196.332055 L248.36267,196.669709 L248.213398,196.950001 L248.213398,197.230294 L248.5504,197.493638 L249.992276,197.456483 L250.327975,197.66051 L250.910722,198.635014 L251.265324,198.953113 L249.955121,197.869099 L248.962365,197.698317 L247.669761,197.829989 L247.183487,198.22305 L247.689317,198.93421 L248.5504,199.739887 L248.99952,200.359137 L249.168347,200.489506 L249.522949,200.563816 L250.217162,200.90147 L250.554816,200.994684 L250.854012,201.220221 L251.322686,202.363553 L251.584727,202.755962 L251.584727,202.980848 L251.285531,202.868731 L251.022187,202.530425 L250.835108,202.044802 L250.760798,201.463359 L250.235413,201.762554 L249.430388,201.558528 L246.733716,199.91067 L245.984097,199.739887 L245.36615,199.966076 L245.141916,200.396944 L245.048051,200.994684 L245.048051,202.119112 L245.179071,202.419611 L245.778114,203.280695 L246.471675,203.935797 L246.789774,204.067469 L246.995756,204.40382 L247.389469,204.646957 L248.213398,205.752482 L248.5504,206.014523 L250.086793,206.389332 L250.797953,207.007279 L251.172763,207.250416 L252.408656,207.363836 L252.800413,207.850111 L254.038262,208.262727 L253.53178,208.507168 L252.952292,208.262727 L251.883923,207.475301 L251.265324,207.475301 L249.430388,206.726334 L248.49369,207.007279 L248.213398,206.970775 L247.932454,206.744586 L247.463779,206.165098 L247.183487,205.978019 L246.077962,205.73423 L245.23513,205.227749 L244.935282,205.247956 L244.29778,205.978019 L244.242374,207.08224 L244.561125,208.262727 L245.048051,209.254831 L245.909135,210.229988 L246.115769,210.604797 L246.302848,210.752765 L247.070066,210.473125 L247.595451,210.959399 L248.381573,211.296402 L252.408656,211.391571 L253.045506,210.808824 L253.513529,210.585894 L254.318554,210.473125 L254.112572,210.752765 L253.402064,211.23904 L253.402064,211.465881 L253.53178,211.465881 L253.626298,211.521287 L253.814028,211.709018 L253.513529,211.98931 L253.194126,211.952155 L252.540328,211.709018 L252.239829,211.784632 L251.846768,212.139234 L250.629126,212.308713 L250.40424,212.102079 L250.198258,212.008214 L249.281116,212.43843 L249.131192,212.627464 L249.262864,213.039429 L249.543156,213.470296 L249.749139,213.712782 L250.327975,214.086288 L251.134304,214.350284 L252.915137,214.199056 L252.707852,214.423942 L252.483618,214.461097 L252.239829,214.423942 L251.996691,214.461097 L251.322686,214.92912 L251.059994,214.949979 L251.172763,215.285026 L251.247073,215.361291 L251.378745,215.435601 L251.378745,215.697642 L251.022187,215.811063 L250.217162,215.604429 L250.049638,215.942083 L249.805197,215.62268 L249.749139,215.435601 L249.131192,216.298641 L248.793538,216.578933 L248.513245,216.428357 L248.643614,215.886025 L248.793538,215.511867 L248.869151,215.099251 L248.719228,214.461097 L248.606459,214.275974 L248.213398,213.975474 L247.950705,213.433141 L247.800782,213.244107 L241.507895,209.704603 L240.871045,209.667448 L240.234846,210.229988 L240.40237,210.660204 L240.421925,211.091071 L240.40237,211.521287 L240.440177,211.98931 L241.058775,213.244107 L241.582856,213.993726 L241.919859,214.312477 L242.612768,214.574518 L243.380638,215.099251 L244.036391,215.341084 L244.448356,215.660487 L244.860972,216.127858 L245.141916,216.690398 L244.673242,216.539822 L243.212463,215.678739 L240.96491,215.211368 L241.226951,215.734797 L241.695625,216.372951 L242.10759,217.083459 L242.837653,217.90804 L243.137501,218.057964 L243.361735,218.432773 L243.567717,218.844737 L243.830409,219.182392 L244.111353,219.331012 L244.448356,219.424225 L245.16082,219.368167 L244.317336,219.817938 L243.886468,219.856397 L243.436696,219.631511 L243.174656,219.293857 L242.950422,218.881892 L242.707285,218.544238 L241.65847,218.263946 L241.077679,217.889136 L240.253098,216.840322 L239.990405,216.690398 L239.541286,216.634991 L238.09941,215.773256 L237.724601,215.697642 L237.518619,215.773256 L237.256578,216.127858 L236.806807,216.428357 L236.731845,216.951787 L236.731845,217.589941 L236.675787,218.151177 L236.413094,218.469928 L235.533107,219.031164 L235.346028,219.276257 L235.195452,219.650415 L234.85845,219.988069 L234.204,220.381782 L234.540351,220.980173 L235.083335,221.072083 L239.3164,220.623615 L241.620012,221.578565 L241.976569,222.10395 L242.125841,221.635927 L242.462844,221.597468 L242.743788,221.916219 L242.707285,222.571321 L242.576264,222.422049 L242.462844,222.347087 L242.182552,222.328835 L242.36963,222.534817 L242.519554,222.759051 L242.556709,223.039344 L242.481747,223.322243 L242.481747,223.583632 L243.100346,223.995596 L243.773699,224.089462 L246.50883,223.30334 L247.070066,222.328835 L247.201738,222.215415 L247.314507,222.17826 L247.369914,222.02964 L247.389469,221.597468 L247.838588,221.858857 L249.860604,221.447544 L250.610874,220.811998 L251.04109,220.623615 L250.948529,220.473692 L250.910722,220.418937 L250.854012,220.381782 L251.003935,220.229251 L251.078245,220.173192 L251.172763,220.136689 L251.265324,220.136689 L251.4159,220.45544 L251.602979,220.736384 L251.827864,220.849805 L252.071001,220.886308 L252.483618,221.072083 L253.476374,221.185504 L253.700608,221.111194 L253.925493,220.905211 L254.263148,220.342671 L254.450226,220.136689 L254.450226,219.874648 L254.169934,219.405974 L254.188186,218.639407 L254.430019,217.927595 L254.841984,217.683154 L254.841984,217.90804 L254.804829,218.432773 L255.235697,218.881892 L256.059625,219.276257 L256.491797,219.05072 L257.371784,218.826486 L257.689232,218.414521 L257.746594,218.057964 L257.822859,216.933535 L257.860014,216.690398 L258.007982,216.840322 L258.101196,217.19688 L258.17681,217.645999 L258.271327,218.039712 L258.570523,218.245042 L258.944028,217.90804 L259.244528,217.234687 L259.337741,216.428357 L259.862474,216.766012 L260.105611,217.027401 L260.256187,217.440017 L259.862474,217.627096 L259.188469,218.544238 L258.832563,218.900796 L258.832563,219.182392 L259.207373,219.201295 L259.337741,219.182392 L259.337741,219.519394 L259.507872,219.555246 L260.01305,219.38707 L260.200129,219.463336 L260.368956,219.612608 L260.461517,219.856397 L260.368956,220.154941 L260.368956,220.381782 L260.630996,220.400033 L260.911289,220.549305 L261.15573,220.604712 L261.379312,220.381782 L260.967347,217.627096 L260.818075,217.178628 L260.687707,216.409454 L260.668151,216.204124 L260.743765,215.998141 L260.836979,215.92318 L261.080116,215.92318 L261.473177,216.204124 L261.605501,216.165013 L261.679159,216.053548 L261.753469,215.998141 L261.904045,216.204124 L261.567694,216.878129 L261.454925,217.477824 L261.512287,218.057964 L261.86689,219.201295 L261.979659,219.481587 L262.091124,219.631511 L262.278854,219.650415 L262.447681,219.519394 L262.559798,219.23845 L262.653664,218.301101 L262.785336,218.358463 L263.065628,219.031164 L263.290514,219.38707 L263.478244,219.368167 L263.628168,219.12503 L263.927364,218.488831 L264.002977,218.206584 L264.002977,217.90804 L263.758537,217.140821 L263.739633,216.766012 L263.758537,216.354047 L263.741589,216.181961 L263.927364,215.847566 L264.114443,216.278434 L264.414942,217.571689 L264.600717,218.169429 L264.600717,218.6192 L264.544659,219.05072 L264.544659,219.631511 L264.714138,220.268361 L264.938371,220.381782 L265.762952,220.043476 L265.968282,219.762532 L266.044548,219.463336 L265.855514,219.182392 L265.855514,218.900796 L266.13711,218.937951 L266.304633,219.143933 L266.493667,219.293857 L266.792863,219.182392 L267.185924,218.657659 L267.410158,218.432773 L267.711309,218.414521 L267.711309,218.676562 L267.522275,218.937951 L266.88738,219.38707 L266.88738,219.631511 L267.934239,219.555246 L268.421817,219.331012 L268.928951,218.900796 L270.033172,217.308345 L270.46404,217.178628 L270.146593,217.440017 L269.97581,217.627096 L269.846093,217.889136 L269.808938,218.206584 L269.808938,218.639407 L269.771131,219.011609 L269.602304,219.182392 L269.246398,219.293857 L268.554141,219.780783 L266.905632,220.136689 L266.586881,220.381782 L266.286382,220.960618 L266.380247,221.280673 L266.998845,221.597468 L267.878833,222.403145 L268.271894,223.039344 L268.535238,223.152764 L269.095822,223.095402 L269.228147,222.946782 L269.359167,222.609128 L269.45238,222.271473 L269.508439,222.10395 L269.639459,222.066795 L269.790035,221.935122 L270.051424,221.597468 L270.276309,221.205059 L270.406678,220.754636 L270.445136,220.248806 L270.369523,219.650415 L270.558557,219.930707 L270.838849,220.793746 L270.96987,221.111194 L271.119141,221.242866 L271.345331,221.280673 L271.475047,221.129445 L271.382486,220.623615 L271.605416,220.641867 L271.812702,220.623615 L272.01738,220.52975 L272.206415,220.381782 L272.280725,220.924115 L272.486707,221.316524 L273.030344,221.822354 L272.711593,222.25257 L272.410441,222.814458 L272.711593,222.853568 L273.590928,222.571321 L274.65995,222.814458 L275.183379,222.814458 L276.588751,222.328835 L275.669654,222.890723 L273.741504,223.508018 L272.823058,224.051655 L272.898671,224.21983 L273.030344,224.763467 L272.804154,224.74326 L272.429345,224.331295 L272.206415,224.313044 L272.206415,224.483826 L272.24357,224.502078 L272.280725,224.502078 L272.31788,224.539233 L271.980225,224.914042 L271.025928,225.418568 L270.482291,226.093225 L269.077571,227.178543 L267.410158,227.666121 L267.017097,227.965317 L266.567977,228.826401 L266.437609,228.958073 L265.892669,228.864859 L265.669739,228.958073 L265.706894,229.557768 L265.443549,229.858267 L264.751293,230.19527 L264.244811,230.849068 L263.984074,231.356201 L263.832847,231.880934 L264.544659,231.599339 L264.92012,231.636494 L265.257774,231.880934 L265.257774,232.161879 L264.975526,232.161879 L264.864061,232.085613 L264.751293,231.899838 L264.414942,232.199034 L263.984074,232.330054 L263.758537,232.479326 L264.040132,232.81698 L264.433845,233.004059 L265.799455,232.779825 L266.006089,232.62925 L266.081703,232.592095 L266.249227,232.667708 L267.317596,233.547696 L271.550009,234.390528 L272.299628,234.071777 L274.547181,232.142975 L274.547181,231.880934 L274.43376,231.880934 L274.43376,231.636494 L274.901783,231.149567 L275.558189,231.094161 L276.026211,231.580435 L275.970153,232.798729 L275.352206,234.614762 L275.165128,235.027378 L274.901783,235.288767 L274.65995,235.382632 L274.489819,235.533208 L274.340547,236.001882 L274.789666,236.075541 L275.071914,236.432098 L275.053662,236.862966 L274.65995,237.201273 L273.012092,237.462661 L272.618379,237.201273 L272.336783,237.462661 L272.01738,237.349241 L271.699933,237.106104 L271.400737,236.974431 L270.276309,236.974431 L270.127689,237.068297 L269.9015,237.386396 L269.75288,237.480261 L268.421817,236.788656 L266.39915,236.37604 L265.163257,236.656984 L263.927364,236.599622 L263.665323,236.749546 L263.628168,237.218872 L263.327669,237.218872 L263.102783,237.386396 L262.690819,237.930032 L263.065628,238.585786 L263.234455,238.811323 L263.42023,238.922137 L263.42023,239.129422 L263.179049,239.034253 L262.521991,238.398707 L262.017465,238.17317 L261.885793,237.892877 L261.790624,237.218872 L261.567694,237.405299 L261.305002,237.518068 L261.061212,237.53632 L260.874134,237.480261 L261.042961,237.256027 L261.49208,237.011586 L261.679159,236.713043 L261.660908,236.580067 L261.660908,236.52466 L261.679159,236.24502 L261.436022,236.075541 L261.174633,236.001882 L261.286098,235.906713 L261.379312,235.737886 L260.799172,235.888462 L259.675395,237.050045 L259.038545,237.201273 L259.038545,237.480261 L260.124515,237.311434 L260.350052,237.480261 L259.470717,238.09886 L258.570523,238.323745 L258.253075,238.547979 L258.007982,238.904537 L257.67098,238.28659 L257.277267,237.948936 L256.846399,237.987395 L256.434435,238.547979 L256.360125,238.753961 L256.267563,239.203081 L256.173046,239.409063 L256.059625,239.484025 L255.780637,239.540735 L255.686772,239.615697 L255.536196,239.971603 L255.461886,240.347064 L255.480137,240.77728 L255.554448,241.320917 L254.730519,240.102623 L254.841984,239.78322 L254.95736,239.559639 L255.087076,239.428618 L255.2546,239.409063 L255.179638,239.053157 L255.142483,238.922137 L255.573351,238.603386 L255.76043,238.323745 L255.855599,237.930032 L254.637957,237.742954 L254.018055,237.854419 L253.60609,238.417611 L253.568935,238.904537 L253.645201,239.409063 L253.75797,239.858834 L253.83228,240.233644 L253.739066,240.590201 L253.513529,240.908952 L253.232585,241.038669 L253.008351,240.814435 L252.726755,241.170993 L252.651793,240.908952 L252.651793,240.421374 L252.596386,240.085024 L252.427559,240.06612 L252.314139,240.307954 L252.184422,240.496336 L251.996691,240.347064 L252.091209,239.765621 L251.883923,239.57789 L251.265324,239.615697 L251.322686,239.765621 L251.359841,239.895337 L251.396996,239.990506 L251.471958,240.102623 L251.471958,240.347064 L250.142852,240.102623 L249.522949,240.328161 L248.981268,241.188593 L248.831996,241.339168 L248.213398,241.302013 L248.062822,241.470189 L247.800782,241.918004 L247.650858,242.013825 L246.003,241.71463 L244.804262,240.927856 L244.486163,240.890701 L242.874808,241.339168 L242.594516,241.524943 L242.050879,242.182001 L241.751684,242.313021 L241.451836,241.994922 L241.358623,242.256963 L241.770587,243.7562 L242.013724,244.354592 L242.276417,244.898228 L242.912615,245.926836 L243.00648,246.246238 L243.061887,246.825726 L243.212463,246.995857 L243.436696,247.089071 L243.661582,247.426725 L244.729952,248.04402 L245.048051,248.005561 L245.684901,247.631404 L246.021904,247.557745 L247.107873,247.519287 L247.519838,247.182284 L247.800782,246.358355 L247.875743,245.665447 L248.326167,245.085307 L248.888055,244.765904 L249.131192,244.859769 L248.943461,244.898228 L248.774634,244.992093 L248.606459,245.141365 L250.348834,245.685002 L250.535913,245.646543 L250.684533,245.534426 L250.854012,245.385806 L250.948529,245.232623 L251.228169,244.784808 L251.228169,244.672691 L252.670697,244.335036 L253.494625,244.389791 L254.356361,245.328444 L256.416183,245.478368 L258.17681,245.478368 L260.049553,245.646543 L259.956991,245.646543 L260.387859,245.721505 L261.080116,246.339452 L261.473177,246.377259 L261.473177,246.132818 L260.687707,245.646543 L260.461517,245.385806 L262.035717,245.385806 L262.166085,245.49662 L262.35512,245.75866 L262.50374,246.038952 L262.57805,246.265142 L262.447681,246.39551 L262.260603,246.41311 L261.904045,246.358355 L262.260603,246.6217 L263.628168,246.358355 L263.327669,246.151721 L263.216204,246.115218 L263.216204,245.853177 L263.459341,245.75866 L263.90846,245.254786 L264.133346,245.141365 L264.957275,245.403406 L264.957275,245.158965 L265.107199,244.97319 L265.257774,244.934731 L265.369239,245.046848 L265.462453,245.385806 L265.575221,245.065752 L265.688642,244.84217 L265.818359,244.709846 L265.987186,244.672691 L265.855514,245.085307 L265.575221,245.778867 L265.462453,246.132818 L265.762952,246.132818 L265.556318,246.602796 L266.512571,246.545434 L266.96169,246.677758 L267.280441,247.089071 L267.091407,247.408473 L267.017097,247.501687 L266.88738,247.557745 L266.998845,247.800883 L266.850225,248.156137 L266.679443,248.400578 L266.380247,248.718677 L265.968282,249.315764 L265.781204,249.449392 L266.063451,249.767491 L266.493667,249.468296 L266.942787,248.980717 L267.355403,248.718677 L267.841026,248.62416 L268.327952,248.362119 L269.246398,247.557745 L269.246398,247.781327 L268.81553,248.344519 L267.091407,249.204951 L267.091407,249.449392 L267.148769,249.505451 L267.317596,249.691226 L267.11031,249.82355 L266.924535,249.991725 L266.77396,250.253766 L266.679443,250.647479 L266.998845,250.647479 L266.624036,250.946674 L266.230323,250.704841 L265.83661,250.311128 L265.462453,250.140997 L265.632584,250.441496 L265.818359,250.760899 L266.044548,251.021636 L266.230323,251.116153 L266.304633,251.247174 L266.456512,251.52877 L266.642288,251.79081 L266.88738,251.846869 L266.88738,252.071102 L266.679443,252.427008 L266.624036,252.969341 L266.736805,253.53123 L266.998845,253.964053 L267.3365,253.981653 L267.748464,253.79327 L268.421817,253.269841 L268.421817,253.494074 L268.271894,253.850632 L268.216487,253.964053 L268.366411,253.964053 L268.498083,254.001208 L268.609548,254.074866 L268.721013,254.204583 L268.591296,254.394269 L268.535238,254.450327 L268.683858,254.843388 L268.628451,255.366818 L268.440721,255.910454 L268.234739,256.34067 L268.385314,256.283308 L268.498083,256.20965 L268.609548,256.079933 L268.739917,255.892855 L268.871589,256.436491 L269.095822,256.884307 L269.359167,257.183503 L269.602304,257.296923 L269.715725,257.27802 L269.864345,257.203058 L269.994061,257.089637 L270.051424,256.959921 L270.127689,256.829552 L270.670022,256.829552 L270.80039,256.620963 L270.819946,256.417588 L270.819946,256.173147 L270.875352,255.853092 L271.23191,255.198642 L271.287969,255.047415 L271.287969,254.505082 L271.345331,253.981653 L271.493951,253.588592 L271.79445,253.494074 L271.550009,254.261945 L271.531106,254.598296 L271.699933,254.936602 L271.924167,255.029815 L272.16926,254.880543 L272.523862,254.450327 L273.386249,253.700709 L273.798866,253.588592 L274.247985,253.737212 L274.153468,253.269841 L274.396605,253.063858 L275.165128,252.764663 L275.783074,252.163664 L275.932998,252.071102 L276.119425,251.883372 L276.21329,251.077695 L276.345614,250.890616 L276.512486,250.797402 L277.132388,250.140997 L277.037871,250.477999 L276.887947,250.741996 L276.494234,251.116153 L276.494234,251.357987 L276.869044,251.301928 L277.824645,250.404341 L278.199454,250.385438 L279.341482,250.647479 L279.341482,250.890616 L278.160995,250.704841 L277.919162,250.760899 L277.636914,251.058791 L276.794082,251.584176 L276.794082,251.846869 L278.35003,251.846869 L278.35003,252.051547 L277.730128,252.315543 L277.993472,252.501318 L278.331126,253.026703 L278.535153,253.269841 L278.799149,253.344151 L279.322579,253.288092 L279.56702,253.494074 L278.331126,253.417809 L278.142092,253.158376 L277.956317,252.801818 L277.562604,252.783566 L277.262105,252.688397 L277.318163,252.051547 L276.70152,252.015044 L276.512486,252.051547 L276.363866,252.163664 L276.119425,252.464163 L275.613595,252.688397 L275.053662,253.475171 L274.771415,253.737212 L274.771415,253.964053 L274.977397,253.906691 L275.165128,253.964053 L275.294844,254.149828 L275.333955,254.450327 L274.452012,254.543541 L272.766999,255.403973 L272.39219,255.760531 L272.373938,256.135992 L272.188163,256.620963 L272.111897,256.903862 L272.036284,257.502254 L271.94307,257.482698 L271.831605,257.390137 L271.737088,257.42664 L271.623668,257.952677 L271.623668,258.438951 L271.586512,258.850264 L271.382486,259.169667 L271.662778,259.750458 L271.887012,259.936233 L272.111897,259.862575 L272.39219,259.655941 L272.804154,259.506017 L274.134565,259.655941 L273.854272,259.84302 L273.197867,260.049654 L272.917575,260.34885 L272.600127,260.143519 L272.280725,260.34885 L271.79445,261.061965 L271.193451,261.623202 L270.576809,261.996056 L270.576809,262.2594 L271.905915,262.76523 L272.618379,262.859095 L273.178964,262.352613 L273.386249,262.090573 L274.058951,261.602995 L274.304044,261.509781 L274.43376,261.509781 L274.716008,261.417871 L274.845725,261.324006 L274.977397,261.135623 L275.053662,260.930293 L275.090166,260.741911 L275.146224,260.593291 L276.270652,259.562076 L277.543701,259.26288 L280.259276,259.431055 L280.183663,259.431055 L280.220818,259.468862 L280.259276,259.468862 L280.27818,259.487114 L280.27818,259.638341 L280.035042,259.82542 L279.921622,259.880175 L279.771698,259.880175 L279.771698,260.086157 L280.127604,260.255636 L280.802913,259.880175 L280.3916,260.575039 L280.035042,260.649349 L277.974568,260.107016 L277.618662,260.163075 L277.29926,260.310391 L276.70152,260.818176 L276.831889,260.818176 L276.962909,260.949848 L277.262105,261.079565 L276.981812,261.079565 L276.307807,260.986352 L275.989056,261.061965 L275.725712,261.210585 L275.577092,261.417871 L275.313748,262.12838 L274.9963,262.709171 L274.547181,263.214349 L273.628735,263.870103 L273.704349,264.375932 L273.553773,264.656876 L273.123557,265.051893 L273.685445,265.162706 L273.798866,264.994531 L273.928582,264.901317 L274.077854,264.843955 L274.489819,264.825052 L274.789666,264.901317 L274.959145,265.162706 L274.864628,265.74415 L275.183379,265.574671 L275.632499,265.499709 L276.081618,265.555767 L276.382117,265.74415 L275.914746,265.987287 L275.669654,266.192617 L275.577092,266.604582 L275.70746,266.847719 L275.989056,266.811216 L276.512486,266.510716 L276.195039,267.185373 L275.688557,267.204277 L275.165128,267.035449 L274.771415,267.185373 L275.071914,267.410911 L274.940242,267.504776 L274.827473,267.615589 L274.65995,267.879585 L274.845725,268.047109 L274.9963,268.121419 L275.146224,268.140322 L275.313748,268.101864 L275.090166,268.347608 L274.845725,268.367164 L274.377702,268.101864 L274.28514,267.991051 L274.21083,267.841127 L274.09741,267.710106 L271.850509,267.29749 L271.400737,267.654048 L271.905915,267.690551 L272.410441,267.954547 L273.329539,268.814979 L273.235022,268.852134 L273.030344,269.039213 L273.311288,269.039213 L273.311288,269.301254 L273.067499,269.433578 L272.766999,269.489636 L272.467803,269.451829 L272.206415,269.301254 L272.504958,269.058117 L272.618379,269.020962 L272.336783,268.871038 L271.924167,268.908193 L271.550009,269.190441 L271.400737,269.732774 L271.643875,269.58285 L272.055839,269.676715 L272.410441,269.939408 L272.674438,270.200145 L272.674438,270.40743 L272.581224,270.556702 L272.486707,270.631664 L272.39219,270.593857 L272.261821,270.40743 L271.905915,270.986918 L271.493951,271.268514 L270.258058,271.512955 L269.52669,272.14785 L269.132978,272.298425 L268.928951,272.223464 L268.535238,271.887113 L268.346856,271.810847 L268.179332,271.868209 L267.635695,272.298425 L266.924535,272.411846 L266.698346,272.523963 L266.512571,272.69279 L266.304633,272.935927 L266.212072,273.217523 L266.361995,273.47826 L266.13711,273.722701 L265.781204,273.815915 L264.320425,273.740953 L263.965822,273.628836 L263.72073,273.254678 L263.945615,273.254678 L263.739633,272.374691 L263.364824,271.548155 L262.952859,270.93086 L262.428778,270.574302 L261.979659,270.051524 L261.772373,269.977214 L261.586598,270.106931 L261.436022,270.351372 L261.341505,270.631664 L261.360408,270.894357 L261.360408,271.21376 L261.379312,271.924268 L261.360408,272.317329 L261.305002,272.597621 L261.080116,273.254678 L261.174633,273.889573 L261.436022,274.321093 L261.753469,274.56423 L262.035717,274.639843 L262.373371,274.396706 L262.521991,274.396706 L262.57805,274.751309 L262.484836,274.864729 L261.829735,274.864729 L261.698063,275.127422 L261.397563,276.363315 L261.174633,276.699666 L261.341505,276.981913 L261.49208,277.112282 L261.623753,277.281109 L261.679159,277.655918 L261.660908,278.030076 L261.567694,278.25431 L261.454925,278.479195 L261.360408,278.835753 L261.530539,278.93027 L261.753469,279.37939 L261.943155,279.472603 L262.05462,279.416545 L262.147182,279.285525 L262.222796,279.134949 L262.297758,279.042387 L262.635412,278.909411 L264.077287,279.078891 L264.244811,279.042387 L264.414942,278.93027 L264.695234,278.666274 L265.163257,278.517654 L265.725797,278.143497 L266.063451,278.143497 L265.855514,278.365775 L266.174265,278.592616 L266.456512,278.309716 L266.736805,277.8795 L267.054904,277.655918 L271.081986,278.573713 L271.850509,278.309716 L272.055839,278.329272 L272.674438,278.292117 L275.146224,277.393226 L275.632499,277.468188 L276.100521,277.805842 L276.607003,278.309716 L277.132388,278.68583 L281.495821,278.086134 L281.551228,278.010521 L281.590339,277.935559 L281.627494,277.8795 L281.701152,277.8795 L281.514073,277.300664 L281.75721,276.944107 L282.150923,276.755724 L282.845135,276.681414 L283.518488,276.774627 L283.835936,276.944107 L283.650161,276.436973 L283.2571,276.120178 L282.507481,275.783175 L282.507481,275.576541 L282.69456,275.46312 L283.162582,274.959246 L283.294255,274.751309 L283.442875,274.602688 L284.192494,274.396706 L284.455838,274.453417 L285.166346,274.864729 L286.289471,274.864729 L285.859255,275.259746 L285.222405,275.407062 L284.062125,275.333404 L284.210745,276.120178 L284.248552,276.456528 L284.154687,276.717265 L284.455838,277.243302 L284.81044,277.560098 L285.166346,277.73088 L285.8221,278.198251 L287.733302,278.909411 L289.081312,279.809606 L289.680355,280.446456 L289.622993,280.315436 L289.456121,279.753547 L289.868086,279.995381 L290.261147,279.902819 L290.617705,279.61992 L291.178289,278.872908 L291.460537,278.329272 L291.515943,277.861901 L291.103979,277.693725 L291.103979,277.486439 L291.664564,277.693725 L291.871849,278.554157 L291.721926,279.583417 L291.215444,280.259377 L291.215444,280.465359 L291.590253,280.520114 L292.659275,280.239822 L292.659275,280.446456 L292.601913,280.446456 L292.488492,280.427553 L292.433086,280.427553 L292.433086,280.671993 L292.84505,280.671993 L292.84505,280.895575 L292.358776,280.876672 L292.152794,280.93273 L292.114987,281.119809 L291.890753,281.102209 L291.534195,280.745652 L291.347116,280.652438 L290.373264,280.652438 L291.42273,281.476367 L291.927908,281.700601 L292.58301,282.282044 L293.257015,282.675757 L293.351532,282.599492 L293.464301,282.282044 L293.502107,281.943738 L293.483204,281.551329 L293.502107,281.231926 L293.613572,281.102209 L293.97013,280.990093 L294.27063,280.689593 L294.681942,280.203319 L295.33574,279.342235 L295.506523,279.022832 L295.506523,278.81685 L295.449161,278.554157 L295.580181,278.423137 L295.747705,278.554157 L295.805067,279.022832 L295.729453,279.342235 L295.279682,280.185067 L296.423013,280.857769 L296.628996,281.082654 L296.983598,281.719504 L297.228691,282.037603 L296.742416,281.981545 L295.917835,281.102209 L295.449161,280.876672 L294.437501,281.027899 L293.97013,281.308192 L293.557514,281.79577 L293.743289,282.356354 L293.858013,282.507582 L293.706134,282.694661 L293.650727,282.750719 L293.932323,283.536189 L294.381443,284.135884 L295.372895,285.034775 L295.168217,284.472235 L294.868369,283.931206 L294.344288,283.179631 L294.344288,282.974953 L294.719097,282.937798 L294.886621,283.143128 L295.018293,283.555093 L295.26143,284.116981 L295.524775,284.43508 L295.82397,284.679521 L296.104262,284.978717 L296.311548,285.485198 L295.805067,285.277912 L295.805067,285.485198 L296.141417,285.727032 L296.404762,285.802645 L296.647899,285.63447 L296.928191,285.240757 L296.891036,285.391333 L296.816726,285.915414 L297.002501,285.953873 L297.340156,286.101841 L297.527886,286.139648 L297.303001,286.365185 L297.059863,286.421244 L296.816726,286.346282 L296.608788,286.1579 L296.83563,286.440147 L299.101434,288.351349 L299.663322,288.481066 L300.80535,288.462163 L300.712137,288.013695 L300.80535,288.05085 L300.843809,288.087353 L300.918119,288.237929 L300.974177,288.161663 L301.011332,288.106908 L301.048487,288.05085 L301.104546,288.013695 L301.367238,288.425008 L305.300456,288.687048 L303.802522,288.368949 L303.765367,288.19947 L305.187035,288.443911 L305.376721,288.387853 L305.619858,288.180567 L305.806937,288.19947 L305.992712,288.351349 L306.011616,288.518221 L305.900151,288.649241 L305.693517,288.687048 L306.162843,289.117916 L308.559016,289.773018 L310.302043,290.953504 L311.519684,291.196642 L312.305806,291.796337 L312.492885,291.88955 L314.496649,292.32107 L314.796496,291.88955 L315.02073,292.096836 L315.283423,292.245456 L315.844659,292.377128 L315.769697,292.508149 L315.696039,292.564207 L315.52656,292.583111 L315.957428,292.712827 L317.156818,292.377128 L320.003414,293.257767 L320.772588,293.294922 L323.899476,292.432535 L325.77222,291.514741 L328.957122,291.027163 L328.713985,290.971104 L328.357427,290.971104 L327.738828,290.934601 L327.681466,290.727967 L327.644963,290.259944 L327.570001,289.791269 L327.419425,289.587243 L327.326212,289.473822 L327.008113,288.911282 L326.856885,288.7053 L326.894692,288.591879 L326.952054,288.518221 L327.065475,288.462163 L326.970306,288.217722 L327.269502,288.293987 L328.263561,288.930185 L328.676178,288.948437 L329.481855,288.7053 L329.912071,288.724203 L329.912071,288.948437 L329.442744,288.986244 L329.255014,289.154419 L329.049032,289.510977 L328.880856,289.69936 L328.46824,289.847328 L328.282465,290.091769 L328.768739,290.766426 L329.704785,290.540888 L330.679941,289.791269 L332.194823,289.080761 L332.889035,288.331142 L333.413117,287.300579 L333.787926,286.176803 L333.582596,286.365185 L332.477723,286.421244 L332.514226,286.045783 L332.477723,285.821549 L332.348006,285.727032 L332.159624,285.745283 L332.384509,285.559508 L332.797126,285.597315 L332.778222,285.277912 L333.37531,285.277912 L333.357058,285.408933 L333.357058,285.427836 L333.338155,285.427836 L333.2834,285.485198 L333.675809,285.727032 L334.070174,285.391333 L334.70572,284.135884 L334.294408,284.268208 L333.113921,284.135884 L332.889035,284.210846 L332.588536,284.528293 L332.404065,284.604559 L332.159624,284.508738 L332.08401,284.268208 L332.159624,283.966405 L332.348006,283.685461 L332.625039,283.98596 L332.889035,283.875147 L333.095018,283.462531 L333.171283,282.861532 L333.264497,282.486071 L333.48873,282.112565 L333.769675,281.925486 L334.014115,282.055855 L334.163387,281.869428 L334.331563,281.79577 L334.70572,281.79577 L334.70572,281.588484 L334.407828,281.345347 L334.819141,281.362946 L335.193298,281.532426 L335.548553,281.607387 L335.924014,281.345347 L335.866652,281.065054 L335.849052,280.876672 L335.924014,280.427553 L336.296868,280.81931 L337.291579,281.345347 L337.291579,281.588484 L336.860711,281.624987 L336.373133,281.81337 L335.980072,282.225986 L335.828193,282.955398 L337.777854,281.568929 L337.777854,281.325791 L337.723099,281.213023 L337.723099,281.065054 L337.685944,280.876672 L337.90757,281.102209 L338.11616,281.008996 L338.283032,280.689593 L338.396452,280.220918 L338.490318,280.558573 L338.490318,280.915131 L338.396452,281.213023 L338.226973,281.458767 L339.613442,281.119809 L341.655664,280.427553 L343.489949,279.265969 L343.546008,279.846761 L343.696583,279.865664 L343.902565,279.61992 L344.109199,279.472603 L344.652836,279.884568 L344.875114,279.958878 L345.944788,279.995381 L346.485817,279.865664 L346.768717,279.490203 L346.522972,279.229466 L346.431062,278.872908 L346.3561,278.479195 L346.169022,278.143497 L346.318945,277.712629 L346.562083,277.655918 L346.824775,277.655918 L347.067912,277.430381 L346.934936,277.129882 L346.917337,276.774627 L346.954492,275.893336 L347.029454,275.707561 L347.198933,275.856833 L347.365804,276.120178 L347.423818,276.249894 L347.460973,276.456528 L347.44207,276.944107 L347.365804,277.842997 L347.404915,277.842997 L347.460973,278.010521 L347.460973,278.198251 L347.328649,278.292117 L347.272591,278.348175 L347.235436,278.479195 L347.180681,278.778391 L347.272591,279.059987 L347.254991,279.39699 L347.088119,280.166164 L347.386011,280.108802 L347.629149,279.958878 L347.704111,279.735948 L347.499432,279.435448 L347.57309,279.059987 L347.591994,278.629771 L347.591994,277.73088 L347.648052,277.505343 L347.758865,277.73088 L347.872286,278.123941 L347.929648,278.423137 L347.854686,279.285525 L347.891189,279.583417 L348.097823,279.696185 L348.190385,279.490203 L348.190385,279.042387 L348.134327,278.423137 L348.134327,277.916655 L348.171482,277.61746 L348.284902,277.522943 L348.528039,277.61746 L348.677963,277.768687 L349.239851,278.536558 L349.503196,278.778391 L349.541654,278.891812 L349.541654,279.360486 L349.559254,279.583417 L349.634216,279.696185 L349.801088,279.546262 L349.877353,279.152549 L349.877353,278.68583 L349.819991,278.329272 L350.064432,278.273213 L350.344724,278.106342 L350.194149,278.086134 L350.064432,277.992921 L349.933412,277.842997 L349.819991,277.636363 L350.082684,277.916655 L350.384487,278.010521 L352.386947,277.430381 L354.633848,275.558941 L354.540634,275.950699 L354.39071,276.213391 L354.203632,276.382218 L354.015249,276.494335 L354.466976,276.249894 L355.177484,275.127422 L356.24455,274.190072 L356.450532,273.90978 L356.844245,273.123006 L356.69367,273.310737 L356.509198,273.497816 L356.263454,273.47826 L356.487688,272.917024 L356.882052,272.411846 L357.687078,271.792596 L357.59256,272.280174 L357.91066,272.186308 L358.80955,271.570317 L358.80955,271.361076 L358.606175,271.361076 L358.606175,271.137494 L358.773047,270.894357 L358.922971,270.763988 L359.073546,270.818743 L359.222167,271.157701 L359.335587,270.874801 L359.485511,270.706626 L359.842069,270.40743 L360.346595,269.787528 L360.496519,269.694967 L360.814618,269.58285 L361.769567,268.758921 L361.769567,268.551635 L361.059059,268.551635 L361.601391,268.065361 L365.458995,266.884874 L365.967432,266.473561 L365.665629,266.268883 L364.429084,266.699099 L365.758191,265.630729 L366.170807,265.051893 L366.207962,265.218113 L366.301827,265.368688 L366.378745,265.536864 L366.771806,265.218113 L367.669393,264.88111 L368.512225,264.807452 L369.467174,264.450894 L369.842636,264.132143 L369.355057,264.132143 L369.130824,264.055878 L368.924841,263.870103 L369.261844,263.625662 L370.087076,263.852503 L370.461234,263.665424 L370.684164,263.176542 L370.816488,262.579455 L370.76043,262.053418 L370.461234,261.773125 L370.461234,261.509781 L370.591603,261.698164 L370.723927,261.755526 L370.854947,261.698164 L370.984664,261.509781 L370.854947,261.210585 L370.573351,260.366449 L370.403872,259.975996 L370.104676,259.82542 L369.600802,259.599883 L369.337458,259.395204 L369.711615,259.506017 L370.291103,259.750458 L370.591603,260.086157 L370.911005,260.386657 L371.285163,261.04241 L371.509397,261.773125 L371.358821,262.2594 L371.358821,262.44713 L371.566759,262.615958 L371.996975,262.784133 L372.202957,262.933405 L372.16515,262.579455 L372.110395,262.33371 L372.015878,262.166838 L371.883554,261.996056 L371.883554,261.773125 L372.054337,261.602995 L372.259016,261.715763 L372.427191,262.072321 L372.503456,262.598358 L372.595366,262.838888 L372.820252,262.859095 L373.30783,262.728075 L373.30783,262.952308 L373.007982,263.889006 L373.383444,263.908561 L373.550315,263.852503 L373.720446,263.683024 L373.532064,263.422287 L373.720446,263.195446 L373.887318,263.232601 L374.056797,263.366228 L374.243876,263.402732 L374.393148,263.271711 L374.674092,262.821288 L374.825971,262.709171 L375.123863,262.821288 L375.406111,263.084632 L375.873482,263.665424 L376.155078,263.926161 L376.454273,264.055878 L377.14653,264.132143 L377.42943,263.982219 L377.859646,263.402732 L378.196648,263.402732 L378.064324,262.952308 L377.989362,262.466034 L377.859646,262.615958 L377.70907,262.690268 L377.392275,262.728075 L377.239744,262.615958 L377.127627,262.371517 L377.091775,262.12838 L377.165434,261.958901 L377.333609,261.885242 L377.596301,261.67926 L377.822491,261.380064 L377.915704,261.04241 L378.027821,261.04241 L378.027821,261.285547 L377.952207,261.436123 L377.896801,261.602995 L377.822491,261.996056 L378.006962,261.584743 L378.308765,261.172127 L378.64642,260.818176 L379.470348,260.292791 L379.637872,260.107016 L379.938371,259.506017 L380.012681,259.412804 L380.19976,259.339146 L380.517859,259.019743 L380.63128,258.944129 L380.687338,258.850264 L380.651487,258.401144 L380.669087,258.250569 L380.781204,258.195814 L382.447965,258.457855 L382.822122,258.719244 L382.147465,259.000188 L380.799455,259.376301 L380.162605,259.880175 L380.556318,259.713303 L381.622732,259.339146 L383.17868,259.169667 L383.234739,259.056246 L383.40161,258.513913 L383.440721,258.363989 L383.458972,258.157355 L383.516335,258.064794 L383.608896,258.007432 L383.683858,257.895315 L383.70211,257.764294 L383.646051,257.390137 L383.646051,257.164599 L383.721013,256.847804 L384.207288,255.984113 L384.26465,255.723376 L384.301805,255.01026 L384.359167,254.674561 L384.544942,254.280848 L385.911856,252.614739 L386.137393,252.221026 L386.044831,252.051547 L385.57746,252.390505 L384.658363,253.774367 L384.040416,253.943846 L383.984357,254.204583 L383.683858,254.204583 L383.364455,253.981653 L383.215835,253.626399 L383.06526,253.626399 L382.766064,253.232034 L382.577681,252.764663 L382.766064,252.537822 L384.752228,252.537822 L385.031216,252.334447 L385.201999,252.071102 L385.220903,251.751048 L385.069023,251.357987 L384.789383,251.021636 L384.188384,250.704841 L383.946551,250.404341 L384.713117,249.804646 L387.205763,250.647479 L387.111246,250.404341 L387.261821,250.02888 L386.978922,249.728381 L386.230607,249.468296 L386.044831,249.26101 L385.763235,248.792335 L385.55595,248.232402 L385.57746,247.800883 L385.57746,247.557745 L385.331716,247.519287 L384.581445,247.107974 L384.340915,246.807475 L384.37807,246.564337 L384.488883,246.17258 L384.507787,245.816022 L384.301805,245.64524 L383.946551,245.665447 L383.777072,245.589181 L383.628451,245.385806 L384.808286,245.626336 L385.031216,245.816022 L385.424277,246.6217 L385.80039,247.015412 L386.230607,248.381022 L386.437892,248.62416 L386.735784,248.81189 L387.261821,248.980717 L390.577092,248.269557 L391.250445,247.631404 L391.493582,247.557745 L391.269349,247.089071 L391.026211,246.695358 L390.577092,246.115218 L390.577092,245.853177 L390.876288,245.665447 L391.007308,245.552678 L391.09987,245.385806 L391.568544,245.571581 L393.273112,245.646543 L393.684425,245.49662 L393.666825,245.12181 L393.404784,244.859769 L391.794082,244.204016 L392.243201,243.812259 L393.797845,244.409346 L393.983621,244.298533 L394.359082,243.812259 L394.603523,243.719045 L394.771698,243.585417 L394.71564,243.286222 L394.565716,242.969426 L394.452295,242.761489 L393.497346,241.956463 L391.363866,241.451285 L390.483878,240.814435 L390.743964,240.682111 L391.643506,241.075172 L393.123189,240.814435 L394.434696,241.451285 L395.165411,241.56275 L395.802913,241.038669 L395.502413,240.534143 L393.966021,239.821027 L393.273112,239.185481 L393.142092,238.997098 L393.06713,238.641192 L392.880051,238.305494 L392.673417,238.043453 L392.526101,237.911129 L387.823058,237.462661 L387.823058,237.201273 L390.856732,237.087852 L391.400369,236.469253 L391.232845,236.37604 L391.043811,236.187658 L390.895191,235.906713 L390.800674,235.513652 L391.250445,235.701383 L392.074374,236.52466 L392.861148,236.788656 L393.35003,237.124355 L393.572308,237.218872 L393.816749,237.405299 L393.983621,237.835515 L394.097041,238.323745 L394.247617,238.641192 L394.546812,238.811323 L395.48351,238.641192 L396.550576,238.922137 L396.775462,238.791116 L397.242833,238.28659 L397.469674,238.17317 L397.506829,238.02455 L397.375157,237.667992 L397.113116,237.201273 L397.412312,236.955528 L398.049162,236.769753 L398.349009,236.488157 L398.611702,236.001882 L398.705567,235.571015 L398.629302,235.232708 Z M297.960058,291.703123 L298.033716,291.534296 L297.997213,291.476934 L297.640655,291.495837 L297.340156,291.647065 L297.303001,292.02057 L297.414466,292.413631 L297.508983,292.656769 L297.585248,292.957268 L297.696714,293.088288 L297.846637,292.88361 L297.978309,292.564207 L298.089775,292.207649 L298.015464,291.833492 L297.960058,291.703123 Z M325.733761,202.642542 L325.752664,202.924789 L325.847181,203.148371 L325.978202,203.280695 L326.165281,203.336754 L326.352359,203.206385 L326.370611,203.206385 L326.370611,202.794421 L326.146377,202.306191 L325.995802,202.100209 L325.866085,201.857723 L325.585141,201.53832 L325.490624,201.670644 L325.639896,202.193422 L325.733761,202.642542 Z M335.362777,282.543433 L335.15484,282.507582 L335.042723,282.543433 L334.780682,282.71226 L334.331563,283.162032 L334.294408,283.442976 L334.950161,283.21809 L335.118337,283.198535 L335.250661,283.291748 L335.26826,283.499034 L335.193298,283.665906 L335.079878,283.79823 L335.174395,283.761727 L335.397977,283.422769 L335.492494,283.049915 L335.473591,282.750719 L335.362777,282.543433 Z M331.671394,182.809583 L331.971893,182.603601 L332.009048,182.247043 L331.895628,182.152526 L331.522774,181.648 L331.371546,181.758813 L331.408049,182.378715 L331.671394,182.809583 Z M382.915336,188.3346 L382.897084,188.353503 L383.009201,188.3346 L382.915336,188.3346 Z M345.026994,280.333035 L345.083052,280.389094 L346.468217,280.389094 L345.756405,280.29588 L345.026994,280.333035 Z M342.965868,280.239822 L342.066977,280.446456 L342.066977,280.520114 L343.265063,280.371494 L343.227908,280.29588 L342.965868,280.239822 Z M343.921469,280.239822 L343.977527,280.29588 L344.408395,280.389094 L344.577222,280.315436 L344.145703,280.29588 L343.921469,280.239822 Z M348.660363,279.995381 L348.584098,280.203319 L347.967455,280.371494 L349.482989,280.203319 L349.520795,280.145957 L349.389775,280.032536 L348.660363,279.995381 Z M351.131498,279.939323 L351.20646,279.920419 L351.171261,279.920419 L351.131498,279.939323 Z M349.990774,280.108802 L349.990774,280.166164 L351.036981,279.939323 L350.402086,280.032536 L349.990774,280.108802 Z M351.506959,279.715741 L351.374635,279.790702 L351.281422,279.884568 L351.900672,279.753547 L351.787252,279.678586 L351.506959,279.715741 Z M346.842375,279.322028 L346.78762,279.773103 L346.87953,279.846761 L346.954492,279.509107 L346.934936,279.208607 L346.842375,279.322028 Z M351.881117,279.342235 L351.768348,279.490203 L351.84331,279.583417 L351.97433,279.565165 L352.330888,279.097142 L352.273526,279.042387 L351.881117,279.342235 Z M352.61118,278.18 L352.555122,278.423137 L352.630084,278.497447 L353.472916,277.262206 L353.509419,277.148785 L353.323644,277.338471 L352.61118,278.18 Z M264.320425,236.075541 L264.526407,235.793945 L264.582465,235.793945 L264.675027,235.851307 L265.575221,235.68248 L265.556318,235.533208 L265.144354,235.421091 L264.489904,235.645325 L264.433845,235.589266 L264.339328,235.571015 L264.320425,235.664228 L264.35758,235.775041 L264.28327,236.020134 L264.320425,236.075541 Z M262.222796,232.81698 L262.521991,232.723767 L262.540895,232.667708 L262.466585,232.534081 L262.466585,232.460422 L262.690819,232.274647 L262.767084,232.161879 L262.952859,232.085613 L262.971111,231.9924 L262.859646,231.936993 L262.316661,232.404364 L262.166085,232.667708 L262.222796,232.81698 Z M389.021144,252.537822 L388.834065,252.520222 L388.68349,252.464163 L388.590928,252.464163 L388.553773,252.371602 L388.497715,252.464163 L388.53487,252.481763 L388.53487,252.614739 L388.497715,252.59388 L388.461211,252.651242 L388.461211,252.727508 L388.553773,252.747063 L388.66589,252.875476 L388.720645,252.857876 L388.834065,252.913935 L389.003544,252.857876 L389.040047,252.707301 L389.021144,252.633642 L389.021144,252.537822 Z M259.526124,228.883763 L259.601085,228.789246 L259.637589,228.696684 L259.619337,228.621722 L259.413355,228.733839 L259.244528,228.958073 L259.357296,228.883763 L259.45051,228.844652 L259.526124,228.883763 Z M263.34592,234.203449 L263.27161,234.127184 L263.102783,233.978563 L262.952859,234.146087 L262.915052,234.164339 L262.859646,234.146087 L262.859646,234.352721 L262.933956,234.334469 L263.027169,234.464838 L263.121686,234.464838 L263.102783,234.595858 L262.971111,234.633665 L262.897453,234.709279 L262.990014,234.765337 L263.160145,234.689724 L263.308765,234.5574 L263.308765,234.520896 L263.290514,234.446586 L263.327669,234.372276 L263.34592,234.203449 Z M263.57211,233.790833 L263.533651,233.790833 L263.42023,233.733471 L263.439134,233.94206 L263.514747,234.090029 L263.591013,234.146087 L263.683575,234.146087 L263.702478,234.015718 L263.776788,233.960312 L263.851098,233.997467 L263.90846,233.904253 L264.002977,233.771278 L264.040132,233.622006 L263.965822,233.622006 L263.890209,233.696316 L263.832847,233.696316 L263.776788,233.622006 L263.758537,233.752374 L263.72073,233.790833 L263.665323,233.82864 L263.628168,233.904253 L263.628168,233.846891 L263.57211,233.790833 Z" id="Fill-3"></path>
        </g>
    </g>
</svg>