
<svg width="97px" height="116px" viewBox="0 0 97 116" version="1.1" xmlns="http://www.w3.org/2000/svg" xmlns:xlink="http://www.w3.org/1999/xlink">
    <!-- Generator: Sketch 51.2 (57519) - http://www.bohemiancoding.com/sketch -->
    <desc>Created with Sketch.</desc>
    <defs></defs>
    <g id="Page-1" stroke="none" stroke-width="1" fill="none" fill-rule="evenodd">
        <g id="ME-EPS-01-0001" transform="translate(-273.000000, -165.000000)" >
            <polyline id="Fill-3" points="368.632822 209.974008 368.252783 209.782881 365.549853 208.397899 364.662357 207.772442 362.90343 206.513217 361.456401 205.882773 361.074701 205.819618 358.747378 205.563673 357.548538 205.18862 352.699994 200.338969 349.677411 198.200004 349.171616 197.692546 348.792685 197.001164 348.542834 196.307565 348.161687 195.739168 347.531797 195.553027 347.095251 195.802324 345.960674 197.001164 345.392278 197.374555 343.693737 197.505851 342.052257 197.374555 340.859511 196.938562 339.786981 196.058268 338.844086 194.859428 337.396503 192.15262 337.01591 192.089465 336.82866 192.338762 336.640303 192.524903 336.073015 192.721017 335.818178 192.721017 334.938438 192.588059 333.426592 192.15262 332.735209 191.89723 331.662125 191.334373 331.473768 191.140476 330.782385 190.509478 329.838382 189.318394 329.208492 188.499039 328.197456 187.67636 327.317715 186.922376 326.812474 186.168392 325.93218 184.213352 325.301182 183.33195 322.656422 180.624588 322.280261 180.250089 320.202235 177.098425 319.384541 176.467428 312.518911 173.384459 311.761049 172.693076 311.259686 172.24822 310.879647 171.494236 310.441439 170.421707 310.441439 168.471653 311.447489 166.89499 309.056457 166.518829 307.795016 166.645693 306.910844 167.712129 306.472636 168.21737 305.463261 168.598517 304.394056 168.661672 303.577471 168.343126 303.071121 167.78027 302.883872 167.525987 302.56588 166.90053 302.378631 166.518829 301.9997 166.141006 301.68614 165.828 300.550455 165.952094 299.794809 166.518829 298.597631 167.843425 297.966633 168.154215 297.654736 168.285511 297.405439 168.471653 297.150048 168.661672 296.961137 169.10265 296.89909 169.229515 296.89909 169.796249 297.211542 170.046654 297.405439 170.170194 298.160531 170.358551 298.410382 170.48874 298.53503 170.551341 298.851914 170.989549 299.226967 171.617777 299.226967 172.062633 299.165473 172.185619 298.97767 172.629921 298.97767 173.005528 300.051862 172.693076 300.301712 172.879218 300.363205 172.942373 300.613056 173.260919 302.061193 175.208203 302.946473 177.666268 303.577471 179.363147 304.519258 181.192985 305.0871 182.265514 304.830602 182.454426 304.708169 182.577966 303.384127 182.640567 302.821825 182.959113 302.441232 183.457707 302.12324 184.088704 301.748741 184.655993 301.437397 184.906951 301.242392 185.098633 301.118297 184.779533 301.055142 184.655993 300.051862 183.33195 299.60756 182.577966 299.545512 182.265514 299.481803 182.010124 299.481803 181.066674 299.102318 180.561987 297.77883 179.619092 297.150048 179.426302 296.587192 179.302762 294.441579 179.488904 293.622778 179.557045 293.435528 179.619092 292.680436 179.994145 292.867686 180.250089 293.185123 180.875547 293.31088 181.066674 293.31088 181.12983 292.361336 181.441727 291.987391 181.569146 290.789105 182.391271 285.560523 186.228778 285.123423 186.922376 284.804877 187.363354 285.814806 187.870812 286.003717 187.931197 284.741722 189.692339 283.861982 190.954334 283.044843 192.6562 282.599987 194.859428 282.599987 196.620571 283.481389 201.60041 283.481389 201.851369 281.465964 201.532269 278.507643 201.60041 278.070543 201.660795 275.674525 202.223098 274.163233 203.67622 273.222 206.38192 273.222 207.579098 273.283493 207.835597 273.720039 208.964634 274.919433 211.36176 275.169284 212.620431 275.169284 212.683586 275.106683 212.746741 274.794231 213.31403 274.163233 213.814285 273.720039 214.507884 273.6591 214.63087 273.720039 215.82971 274.039139 217.029104 274.163233 217.468974 274.287882 217.783088 274.855724 219.10713 276.117719 221.120339 276.615759 221.877093 277.627349 222.949623 278.507643 224.080322 279.011777 225.972207 279.011777 227.798166 278.445596 229.183148 277.376391 230.253461 276.554265 230.758703 275.860667 231.199127 275.991963 231.3897 276.242368 231.893834 276.366462 232.523723 276.179766 232.959715 275.674525 233.023425 275.106683 232.647818 274.539948 232.647818 273.977092 232.898222 273.471297 233.342524 273.720039 234.408406 273.471297 236.611635 273.471297 237.810475 273.84635 238.881342 274.351591 239.763298 274.982034 240.519498 275.362073 240.773781 276.242368 241.274036 276.492772 242.02802 276.428509 243.040719 277.122108 243.794703 278.133144 244.1066 277.309911 243.543744 277.751444 241.59092 276.81021 240.897321 276.81021 240.394296 282.158455 241.087895 284.430378 240.643039 286.06521 238.504073 285.876299 239.513448 285.876299 240.143337 287.014754 242.721619 287.076247 243.543744 286.696208 244.611842 285.940562 243.857858 284.490763 243.10332 279.769085 241.528319 279.139195 241.779278 278.887682 242.535477 279.262181 243.22686 280.524176 244.1066 280.335265 244.237343 280.335265 244.361991 280.210617 244.611842 280.71198 244.800199 281.404471 245.17913 282.033806 245.686587 282.289197 246.12258 282.477 246.249998 283.550084 246.12258 284.049231 246.249998 284.368331 246.249998 284.617628 244.8628 285.622016 244.928725 286.508405 245.746973 286.382648 246.753023 286.382648 247.194555 286.696208 247.446622 287.13774 247.951863 287.4513 248.202268 287.4513 249.150703 288.206392 250.091383 289.84621 251.477472 290.285526 252.419813 290.602964 252.801514 290.976909 252.612049 291.356948 252.171071 291.732001 251.920666 292.555788 251.477472 292.680436 251.794356 293.055489 251.983821 293.31088 252.296273 293.684825 251.728431 294.441579 251.415425 295.321873 251.415425 296.01935 251.856957 296.457004 252.801514 296.837597 255.003635 297.405439 256.015225 299.414216 257.524855 300.113355 258.281055 300.799752 259.728638 301.118297 259.979596 301.431857 259.979596 301.68614 260.17017 301.810234 260.864877 302.253982 261.555151 304.139773 261.493658 304.895419 262.812715 305.524755 263.12849 305.905347 263.504097 305.463261 264.451979 305.842192 265.458029 308.67531 268.102236 308.863668 271.443919 308.863668 271.69377 308.613263 271.948053 308.988316 272.452186 309.494666 272.890394 309.748948 273.015042 309.875258 273.709749 309.810441 274.087018 309.810441 274.462625 310.249203 275.156224 310.629796 275.411614 311.822542 275.853146 312.706161 276.415449 316.359742 277.614289 317.176881 278.058037 319.003949 280.072908 319.946844 280.828 319.885351 280.134401 319.885351 278.372151 319.509744 277.677444 319.068766 277.238128 318.942455 276.983845 318.942455 276.292463 319.003949 275.978349 319.191752 275.662573 319.317508 275.162872 319.003949 273.644378 319.254353 273.395635 319.636608 273.333034 319.946844 273.078752 320.202235 271.948053 319.821088 271.505413 319.384541 270.50047 319.191752 269.238475 319.254353 267.916094 319.509744 266.781518 320.231596 265.124526 314.031311 261.36347 312.895072 260.357419 312.015332 259.161903 311.259686 256.075611 310.063062 255.38312 306.977877 255.257918 307.670368 254.754892 307.165127 253.998138 307.041032 253.305648 307.102525 252.674096 306.977877 252.044206 306.410035 251.415425 305.779037 250.972231 305.592896 250.597732 306.285386 250.217693 306.916384 251.104081 308.993856 252.925055 309.43151 252.489063 309.998245 252.419813 310.504594 252.737805 310.755553 253.368803 311.827528 252.864669 313.081214 252.925055 317.745277 253.998138 318.561862 253.935537 318.942455 252.864669 318.692051 252.987656 317.938067 253.305648 317.556366 251.920666 319.068766 252.296273 319.678158 252.202648 320.151821 251.460852 320.640997 250.155092 321.526277 249.210534 321.596634 249.161783 321.650925 248.831603 321.650925 247.889262 321.712418 247.384021 322.218768 246.253322 322.46751 245.873283 325.05244 242.9133 325.743822 241.840771 326.749873 241.210881 327.567566 240.269648 328.258949 239.134517 328.891608 237.873076 329.208492 236.865917 329.776889 236.360676 330.469379 235.925238 331.099823 235.226653 331.412275 234.408406 331.662125 232.647818 331.978455 231.701044 332.796702 230.313847 334.119637 228.74217 335.504618 227.481283 336.70235 226.91344 337.834711 227.481283 338.593681 228.928865 339.031335 230.694994 339.09449 232.079975 339.031335 232.017374 338.781484 232.392427 338.401999 233.216214 338.338844 233.654422 338.275689 234.663797 338.275689 235.102005 338.463493 235.730786 339.349327 237.810475 340.985821 239.071916 341.802406 239.513448 342.751395 239.639204 343.443886 239.320658 345.328015 238.189959 345.772871 237.746211 347.031542 236.865917 349.485175 236.928518 350.744955 236.550695 352.573684 234.159663 353.64289 233.404571 354.901007 234.159663 355.534221 233.278815 355.59516 232.392427 355.469403 231.450086 355.469403 230.377002 355.656653 229.814145 356.225049 228.74217 356.918648 226.976041 356.856601 226.727299 356.479332 226.0337 353.580843 223.262075 353.013 222.190653 353.080033 220.871597 353.51658 220.303754 354.965824 219.41792 355.534221 219.16807 357.299241 219.612372 359.183924 220.742517 360.885789 221.246096 362.147784 219.798513 362.209831 219.16807 362.147784 218.539842 362.209831 217.845689 362.585438 217.091705 363.029186 216.778145 364.981456 216.083993 369.012861 215.388178 369.5109 212.746741 369.449407 211.044322 368.632822 209.974008"></polyline>
        </g>
    </g>
</svg>