<?xml version="1.0" encoding="utf-8"?>
<!-- Generator: Adobe Illustrator 16.0.0, SVG Export Plug-In . SVG Version: 6.00 Build 0)  -->
<!DOCTYPE svg PUBLIC "-//W3C//DTD SVG 1.1//EN" "http://www.w3.org/Graphics/SVG/1.1/DTD/svg11.dtd">
<svg version="1.1" id="Layer_1" xmlns="http://www.w3.org/2000/svg" xmlns:xlink="http://www.w3.org/1999/xlink" x="0px" y="0px"
     width="174.99px" height="87.496px" viewBox="0 0 174.99 87.496" enable-background="new 0 0 174.99 87.496" xml:space="preserve">
<rect fill="#00247D" width="174.99" height="87.496"/>
<g>
    <defs>
        <rect id="SVGID_1_" y="0" width="87.495" height="43.748"/>
    </defs>
    <clipPath id="SVGID_2_">
        <use xlink:href="#SVGID_1_"  overflow="visible"/>
    </clipPath>
    <line clip-path="url(#SVGID_2_)" fill="none" stroke="#FFFFFF" stroke-width="8.7495" x1="0" y1="0" x2="87.495" y2="43.748"/>
    <line clip-path="url(#SVGID_2_)" fill="none" stroke="#FFFFFF" stroke-width="8.7495" x1="0" y1="43.748" x2="87.495" y2="0"/>
</g>
<path d="M0,43.748l43.747-21.874L0,43.748z"/>
<path d="M43.748,21.874L43.748,21.874z"/>
<path d="M43.748,21.874l43.747,21.874L43.748,21.874z"/>
<path d="M43.748,21.874L43.748,21.874L43.748,21.874z"/>
<g>
    <defs>
        <path id="SVGID_3_" d="M0,43.748h43.748V21.874L0,43.748z M43.748,21.874l43.748,21.874V21.874H43.748z M43.748,0v21.874L0,0
            v21.874h43.748L87.495,0H43.748z"/>
    </defs>
    <clipPath id="SVGID_4_">
        <use xlink:href="#SVGID_3_"  overflow="visible"/>
    </clipPath>
    <line clip-path="url(#SVGID_4_)" fill="none" stroke="#CC142B" stroke-width="5.833" x1="0" y1="0" x2="87.495" y2="43.748"/>
    <line clip-path="url(#SVGID_4_)" fill="none" stroke="#CC142B" stroke-width="5.833" x1="0" y1="43.748" x2="87.495" y2="0"/>
</g>
<line fill="none" stroke="#FFFFFF" stroke-width="14.5825" x1="43.748" y1="0" x2="43.748" y2="43.748"/>
<line fill="none" stroke="#FFFFFF" stroke-width="14.5825" x1="0" y1="21.874" x2="87.495" y2="21.874"/>
<path d="M43.748,21.874v21.874V21.874z"/>
<path d="M0,21.874h43.748H0z"/>
<path d="M43.748,21.874h43.748H43.748z"/>
<path d="M43.748,0v21.874V0z"/>
<line fill="none" stroke="#CC142B" stroke-width="8.7495" x1="43.748" y1="0" x2="43.748" y2="43.748"/>
<line fill="none" stroke="#CC142B" stroke-width="8.7495" x1="0" y1="21.874" x2="87.495" y2="21.874"/>
<polygon fill="#FFFFFF" points="142.68,30.648 146.321,33.294 144.931,37.574 148.571,34.929 152.212,37.574 150.821,33.294 
    154.462,30.648 149.962,30.648 148.571,26.368 147.181,30.648 "/>
<polygon fill="#CC142B" points="144.926,31.378 147.179,33.015 146.317,35.664 148.571,34.027 150.825,35.664 149.964,33.015 
    152.217,31.378 149.432,31.378 148.571,28.729 147.711,31.378 "/>
<polygon fill="#FFFFFF" points="124.622,15.348 128.714,18.32 127.151,23.131 131.243,20.158 135.335,23.131 133.771,18.32 
    137.862,15.348 132.806,15.348 131.243,10.538 129.68,15.348 "/>
<polygon fill="#CC142B" points="126.868,16.078 129.571,18.042 128.539,21.221 131.243,19.256 133.946,21.221 132.914,18.042 
    135.617,16.078 132.274,16.078 131.243,12.899 130.21,16.078 "/>
<polygon fill="#FFFFFF" points="104.405,35.688 108.497,38.661 106.934,43.471 111.026,40.498 115.118,43.471 113.555,38.661 
    117.646,35.688 112.589,35.688 111.026,30.878 109.462,35.688 "/>
<polygon fill="#CC142B" points="106.651,36.418 109.354,38.382 108.322,41.561 111.026,39.596 113.729,41.561 112.697,38.382 
    115.401,36.418 112.058,36.418 111.026,33.24 109.993,36.418 "/>
<polygon fill="#FFFFFF" points="123.894,67.609 128.435,70.909 126.7,76.248 131.243,72.947 135.784,76.248 134.05,70.909 
    138.592,67.609 132.978,67.609 131.243,62.269 129.509,67.609 "/>
<polygon fill="#CC142B" points="126.139,68.337 129.294,70.629 128.088,74.337 131.243,72.045 134.397,74.337 133.192,70.629 
    136.347,68.337 132.447,68.337 131.243,64.629 130.037,68.337 "/>
</svg>
