<svg width="58" height="115"><g fill="#7F807C" fill-rule="evenodd"><path d="M11.4 109.9v.1h.2l-.2-.1M11 110.3V110.6h.2v-.1h.1V110.1H11M11.8 110.3h-.1M11 109.8v.1h-.1v.1h.2v-.1M12.1 113H12v.2l.1-.1M11.5 110.8h-.3v.1H11.6M11 108v-.1h-.1v.2h.1v-.2h.1v-.1H11v.1M12 113.3v.1h.1M12.9 114v-.1M12.9 110v-.2H12.6v.2h.2M12.5 111.2h-.1v-.1h.1V110.7h-.3l-.3.1h-.1V111.6h-.1v.1h.4v-.2h.1v-.1h.3"/><path d="M12.5 111.2h-.1v.2h.2v-.2M11.6 108.5V108.9h.1V108.5h-.1M11.6 109.1h-.1v.1l.2.1v-.1h-.1M12.3 108.9h-.1l-.1.2.1.2H12.5v.1h.1v.2h.4V109.3h-.2v-.2h-.1l-.1-.1H13l-.1-.3h-.1v-.1l-.1-.1-.2-.2h-.2v.2l.2.3h-.1M11.2 108.8h.1v-.1h.1v-.2h-.1V108.9M12.2 109.9l.1.1h.1l-.2-.1M11.4 108.3h.2-.2M13 110h.1v-.1H13M11.8 108l-.1.1V108.4v-.1l.1-.1.1-.2v-.2l-.1.1M12 109.1v.1h-.1.2M13 111.5v-.1h-.2v.2H13.1v-.1M12 110.3v.1-.1M11.8 109.9h-.1.1M11.7 109.5v-.1h-.1l-.1-.1v.1l.2.1M14.3 111.2v.2h.1v-.2M14 111v.1H14.4h-.2M14.7 111.3l-.1-.1.2-.2v-.2h-.3v.5h.2M15.4 113.8h-.2v.1H15v.1l.3-.1M14 113.8h-.1v.1h.1M14.6 114.4v-.1.2M15 114h-.1v.1M15.3 113.2v.2-.1M15 113.4v-.2l.1-.1v-.1h.1v-.1H15v.5M14.2 110.4v.2l-.1.2v.2l.2-.1.2-.3v-.2H14.1M13.2 111.1l.2-.3h-.1l-.2.1h-.2l-.1.1v.3l.2.1h.1l.2-.2h-.1M14.8 113.2v-.1h-.1v.2-.1h.1M14.9 113.4h-.1v.1M13.7 111.2l-.1.1h.1v-.1M13.7 110.9v.1h-.1v.1l.1-.1v-.1M13.4 114h.1M13.7 110h.2l.1.1.1.1v.1h.2v-.1H14.7v-.2l-.3-.2H13.5v.4h.4v-.1h-.2M14.6 110.6v.1h.2v-.1h-.2M13.4 110.6v-.1h.1v-.1h-.2v.1h.1M14.9 112.7l.1-.1.1.1v-.8H15v.3h-.1v-.2h-.2v.4l.1.2v.2h.1"/><path d="M14.8 112.7h-.1V113l.1-.2v-.1M15 109.4h-.2l-.2.1v.2H14.8v.1l-.1.1H15.1l.1-.1.1-.1v-.1H15l-.1-.1v-.1M13.8 109.1l-.1.1-.1.2.5-.2v-.1h-.3M13.8 109.4H14.5v-.2h-.1l-.4.1M9.4 104.7l.2.1v-.1h-.1v-.1h-.2v.1M8.8 111.3v.1M9.1 109.4v.1-.1h.1M8.6 105.8h-.1v.1-.1M8.9 87.8h-.2V88.2l.1.1V87.8M9.2 105.3v-.2H9v.1l.1.1M8.5 104.7v.1h.1M8.7 86.1V86.4h.1V86h-.1v.1M10.6 107.8v-.2h-.3v-.2H10v.4l.1-.1v.2l.2.2v.1h.2v-.4M9.5 104.2l-.1.1H9.7l.1.1h.1V104h.1l.2-.2-.2-.1v-.1l-.1-.2h-.2l-.1.2h.2v.6l-.3-.1M7 81v-.1h-.1M9.1 83.8v.1H9.4v-.4h-.1l-.1-.1H9v.4M9.8 80.3h.1v.2l.2-.3v-.5h-.2l-.2.2h-.1v.1h-.1l.2.3h.1M8.3 83.9v-.1h-.1M8.9 79h-.1v.1M7.7 83.7v.1-.1M7.5 82.3v-.1.2M9.2 80.6H9l-.2-.1v.4l.1.1v.1l.2.2V81.6l.2-.1h.1v.2l.1.1h.4v-.1h-.1l.3-.4h.1v.1h.2v-.5l-.1-.1h-.4l-.1.2v.2h-.4v-.5h.2v-.2h-.2l-.2.1M9.5 84.7v-.4h-.1l-.1-.1v.1l.1.3v.1h.1M9.6 83.6v-.2h-.1v-.2h-.1v.2l.1.2M8.8 84.2v.1-.1M9 85.2h.4V84.8l-.2-.2v.1H9v.2h-.2v.1M10 109.4h.1V109h-.2l-.1.1h.1v.2h.1M11 111l-.1.2-.2.2h.2l.1.1h-.2l-.1.1v.1h.7v-.2h-.1l.1-.1v-.2h-.1l-.2-.1M10 108.2l-.1-.3-.2-.3-.1-.2h-.1v.2l.1.1V108l.2.1h.1M10.2 112H10M9.9 111.1v.1h-.1.1M10.2 110.8h-.4l-.1.1h.1v.1H10.2l.1.2v-.2H10.6v-.1H10.2M11.2 114.2l-.1.2.2-.1h.1-.2M11.4 113.2l-.1-.1M10.7 109.2v-.1.2-.1M9.7 105h-.1v.1h.1v-.1M10.2 105.6l-.1-.1H10v.1h.1M9.5 108.8v-.1h-.1v.2-.1M10.2 110.2H10.5v-.2H10.1v.1M10.4 109V108.6v.1h-.1v.1M9.8 105.5v-.1h-.1v.1h.1M9.4 106.9v.1l.1.1h.2v.2h.1v-.5h-.1v-.2l-.1.1-.1.1v.1M10 106h-.2.1M9.9 105v-.2h-.1v.1"/><path d="M10.3 109.2v-.2l-.1-.1H10v.2l.2.1M9.7 105.5h-.1.1M17.3 112.3v-.2h.1H17v.1h.1-.1v.4l.1-.1v-.1M23.5 53.6h-.1v.1M20.7 71.4v.1-.1M23.8 54.6l-.1-.1v.1M21 70.6v.1M20.9 71v.1M20.9 71h-.1v.2h.1V71M24.3 65.7v.1M19.2 73.6H19v.1-.1M17.7 74.7v.1M18.7 73.7v-.2.2M20.7 70.9l-.1.1v.1h.1v-.2M25.1 61.7v.1l-.1.1v.2l.1.4h.4v-.2l.5-.2-.4.3.1.1v.2h.2l.1-.1h.2V62.2l.1-.1V62l-.3-.3.2-.2.7.3h.2v-.2h-.6v-.2l-.1-.1h-.5l-.7.2M15.3 113.7v.1h.2v-.1h-.2M20.3 72.3V72v.1M20.2 72.2V72v.1M25.6 63.8v-.1M28 61.2h.1V61H28M28.1 59.3H28h.1M27.7 60.8v-.1M27.3 55.4h-.1v.1h.1M24.6 54.6h.1M28.6 57.6v-.1M24.8 53.5l-.1.1-.1.2h.1l.1-.1v-.2M28.2 58.6h.1v-.1h-.1v.1M28 61h-.2v.1h.1V61M28.4 62.2h.1M28.6 61.3v-.1h-.1v.1h.1M26.5 55.3V55v.2M25.6 55.2v.1M26.2 58h.1v-.1h-.1M24.8 54.2v.2-.2M25.3 54.4h-.1v.1H25v.1h-.2v.2l.1.1h.1v-.1h.1V54.4h.1M16.9 75.9h-.1v.1h.1v-.1M26 63h-.1v.1h.1v-.2M27 57.7h.1v-.2.1M26.8 55.4v.1-.1M20.7 70.7v.1M29.8 110h-.1v.3l.1.1h.2l-.1.2v.1h.1v-.1l.1-.1h.1v-.1l-.4-.4M22 113l-.1-.1h-.1v.1l-.1.1H22v-.1M30.9 110.7v.1h.1l.1-.1H31M19.7 113.7h-.2v.2h.2v-.1M20.4 114.2v.1M32.7 109.5h-.2l.1.2h.2v-.1M34.5 108.5v.1l-.1.1-.3.1V109.1h.1l.1-.1v-.1l.4-.1v-.1l-.2-.2M10.2 101.2H10V101.6H10.5l-.2-.1v-.2"/><path d="M57.5 84.3l-.1-.3v-.2l-.2-.2-.2-.2-.3-.5v-.1l-.4-.2-.1-.2v-.2L56 82V81.4l-.2-.2-1-.7-.8-1-1.5-.8-.1-.1-.1-.2-.3-.5-.6-.5-1.2-1.4v-.3l.3-.2.7-.3.3-.4.3-.7.8-1 .2-.3.1-.3v-.8l-.1-.2-.1-.2v-.4l.1-.2v-.2h-.2l-.3-.2-.1-.1-.1-.2-.2-.2-.2-.2-.7-.2-.3-.2-.2-.2-.1-.2v-.3l.1-.3V68l-.1-.2-.2-.2v-.2l-.1-.1v-.4l.8-.5v-.1l.2-.2v-.4l-.3-.2v-.7l-.1-.1-.2-.1h-.8l-.5-.1-.4-.5-.3-.8-.2-.9v-.5l.2-.3.2-.1.7-.2.1-.2V61h-.1V60l-.3-.2h-.6l-.2-.2.1-.4.5-.6V56.8l.1-.3.4-.4v-.4l-.4-.3-.2-.2.3-.2 1.1-.3.3.1.2.1v-1.6l-.1-.3-.2-.5-.1-.5v-.2l-.3-.5v-.2l-.1-.9-.1-.4-.2-.3-.3-.6-.7-1.2-.3-.7v-.4l-.2-.4V45.3l-.6-.9V44l-.1-.1-.1-.2-.2-.7-1.1-1.8-.2-.9.2-1 1.6-2.8.2-.3v-.1l.1-.3v-.1l2-2.6V33l.1-.5v-.2l.1-.8v-.2l.2-.2-1.4-1.3-.3-.4-.8-1.7-.2-.4-.4-.8v-.2l-.2-.1-2.7-1.2-.2-.1-.1-.3-.8-3.2-.1-.4-.1-.3V20.4l1.2-2.4.2-.4.2-1-.3-.4H43v-.4h.1l1.2-.9.6-.2.6-.6-.6-.6v-1.7l.1-.1 1.7-2.1.6-1.2-.7-1.6-.2-1-.1-.2-3-1.5H43l-.2-.2-.1-.3v-.4l-.9-.4-.1-.2-.9-1.5-.2-.6-.2-.2-.1-.1-.4.2-.5-.1h-.3l-.2.4v.2l-.6.3-.3.4H38l-.1.2.1.1-.2.3-1 .3-.4-.2H36.1l-.2-.2H35l-.8.1-.2.1v.3l-.2.2v.4l-.1.2-.5.6-.2.5-.3.3V5l-.2.1-.6.2-.2.1v.2l-.1.2v.4l.1.3V7l-.2.2-.3.2v1.1l-.1.1-.1.3.1.5v.1l-.4.8v.2l-.2 1V12.5l.1.2V14.1l.1.2.1.1v.2l-.2.2v.1l-.1.2v.1l-.2.3v.1l-.1.2-.1.2-.1.1h-.1l-.6-.2-.2.1-.2.1-1 .8v.4l-.2.2V19l-.1.2h-.2l-.3.3H26.8v.5l-.2.2h-.2l-.1-.5-.4-.5-.4-.4-.9-.3-.7-.2-.6-.5-.1-.1-.2-.3-1-.5h-.3l-.3.2v.5l-.2.6-.5.2-.7.1-1.3 1-.1-.1-.4-.7h-.1l-.3-.2-.7.2-1.2-.7h-.2l-.6.2H15V18l-.2-1.2v-.1l-.4-.4-.4-.6v-.1l-.1-.4v-.1l-.7-.8-1.7-3.2V11l-1.6-.3-1 .7h-.1v.3l-.2.4.6 1.3-.3.5-.1.1h-.2L7.2 13v.1l-.5.8.2.3h.6l.3.4H8l.1.2v.5h-.2v.5l.9.3.3.3.3.4.3.5h.1v.2h.4l.1.1V18l.2.4v.1l.2.2h.4l.4.5.3.2v.4l1 .2.1.3.2.3v.1h.1V21l.2.2h1.1l.3.1v.2h.4l.3.2h.2l.2.2h.4l.1.3.2.2.2-.2.2.2.2.4v.2l.8.5v.2h.1V24l.3.3v1.3h.2l.4-.2h.2v.2l.3.7V26.6l.4.3h.1l.4.6.3.1.1.2v.2l-.1.3h-.2l-.3.2-.1.1-.1.3v1.9l.1.5v.2l.2.3v.5l-.2.2-.2.2.1.1v.3l-.2.2v.5l.2.2H20.3l.2-.1.3.2h.3l.1.1.1.1V35.2l.1.1-.1.4-.1.2-.6.2V36.4l-.1.3h.1v.4h-.1V37.8l.1.1.2.2v.6l.1.2.2.3.1.2v.1h.2l.1.2.3.6.2.3v.2l.2.3.2.6v.2h-.2l-.2.2-.1.3V44.6h-.1l-.3.3v.1l-.1.1h-.1l-.2.2v.2l-.2.1-.1.2V47.4l.1.3v.4l.2.5.1.2.2.2.5.2v.1l.3.8.1.1.1.2.1.2.2.6V51.8l.2.2v.5l.3.3V53.4l.2.1h.1V53l.2.2h.2v.1l.2.2.2.1v-.1h.1l.1-.2H24.8l.1-.1.2-.5.1-.1V52.2h.1l.3-.2h.1v.1h-.2v.1l-.2.3-.2.6v.2l-.1.3v.4l.1.1v.1l.4.2v.6h.2l.2-.1.1-.1H26.6v.1l.1.2h.4v.1H27.5V55.7l.1.1v.1l.1.2h.4l.4.4.2.2v.2l.1.3V57.7l-.1.2h-.2l-.1.1.3.4v.1h-.1v.7l-.1.1.1.1v.4h-.1v.4l-.1.1-.2.2v.4l.5.1.1.2.1.2v.2l.2.2v.6l.1.2v.1H28.7l-.2-.2v-.1H28v.5l.2.1h.2v.2H28.8v.8l-.4.2H28V64h.1V64H28l-.1-.1v-.2l-.1-.2h-.1l-.1-.1v-.1l-.1-.1h-.2l-.8.4H26l-.2.2v.2h-.2l-.1.3v.2l-.4-.2H25v.1l.1.2-.1.1v.1l-.1.1v.4h-.1l-.2.2-.1.2h-.1v.2l-.1.1-.1.3v.5H24V67.2l-.1.2v.1h-.2v.1l-.1.2-.1.1h-.2V68.2h-.2l-.2.2-.1.1h-.1v.2l-.3.2-.1.2v.3l-.1.1-.2.2v.7l-.3-.1-.1.3v.1h-.1l-.3.2h-.1l-.1.2v.2l-.2.2-.1.2v.1l-.2.2h-.2v.2l.2.3V72.7h-.3l-.2-.1h-.2l-.2-.2h-.1v.1l-.1.5v.7l.2.1-.1.2H19.3l-.1.1h-.5l-.2.1v.1l-.1.1v.2H18l-.1.1-.3.3v.5l-.2-.3h-.2v.2h.1V75.8h-.2v.2H17l.2.2v.1l-.1.1-.1.1V76.8h-.1v.1h-.1l-.1.1h-.2v-.2h-.1v-.5H16v.1l-.2-.1v.4h-.4v.2l-.1.2.2.4h-.2v.1l-.1.1v.1l-.1.4v.1l-.1.1V78.7l-.1.1v-.2h-.1l-.2-.1V78H14.4v.4l.2.3.4.4h-.2l-.1-.1h-.2l-.1-.3-.2-.1h-.1l-.1.1v.4h.1l.2.1.2.4.1.1.1.1v.2l.1.1v.2l-.2.2v.1l-.2-.3v.2l-.2.2-.2.3v-.1.1H13.6l-.2.1h-.1V81h-.2V81.4l-.1.1-.2.1v.2l.1.3-.3-.4h-.2V81l.1-.2h-.1l-.2.1h-.4l-.2.2v.1h.2v.1H11.6v-.1l-.2.2h-.1L11 81l-.1.1-.1.1v.3l.2.1h-.1v.1l-.1.1V82.1l.1.1h.2V82.5l.3.4.2.3H11.3V83H11l-.2-.3-.2-.1V83h-.2V84h-.1V84.3l-.1.2v.2l-.2.1-.1.1-.3-.1h-.2v.6l-.2.1v.2l-.2-.2-.1.2v.5h.1V86.5l-.2.2h-.1v.8-.1l.1-.1.1.1h.3l.1.3h-.2v.2H9l.1.3v.2l-.1.2V88.9h.2v.1l-.2.3v.2l.1-.1.1-.1h.1V90.2h.1v-.2l.3-.5v.6h.3v1l-.1.2v-.1l.1-.1v-.1h.2l-.1.3.1.1V91.6l-.2.2V92.2l-.1.3v-.2l-.1.1v.7l-.3.7H9.8v.4h.4v.2l.2.1v.2h-.1V94.9l.2.2v.1l.1.1h.1v.8l.3.2.2.2H11l-.2-.1v.5l.1.1h.1v.2l.2.4.2.2.3.4h-.2l-.3-.2-.5-.3h-.1l-.1.1v.2l.2.2h.2l.2.4h-.8l.4.2.2.2.1.2-.1.1h-.5v.1h.2l.1.2.1.2V100.6h-.1v.2h-.1v.2h.2v.2l.1.2H11l-.2.1v.1h-.1l-.1.1v.2h.1-.1v.7l.1.1v.1l-.3-.1H10h.2v.2H10l-.2-.1v.1l.1.2v.2l.2.4v.2h.1v.2h.1v.2l-.1-.1H10v.2h.2l.1.1v.1H10v.5h.1l.1.2v.1l.1.1.1.1-.2.1h.1l.1.2h.2-.2v.2l.1.2v.1l-.4-.1V106.6l.1.1.1.1h.1l.2.3h-.2V107.3H11.2v.1H11l.2.3v.4H11.4V107.7h.1v-.4l.1-.1h.2l.1-.2h.1l.3-.3v.4h-.1v.8l-.1.2h.4l-.1-.2v-.2h.4v.2h.2v.2h.1v.2l.2.2.2-.1v-.1l.1.1.2.1h.1l.4.3v.2H14.7l.7-.2v.3h.5l.2-.3V109.2H16l-.3.4v.1l-.1.2-.1.1-.1.1v.2h-.1H15.5l.3-.1.3-.1H16v.1l-.1.2v.1l-.2.2h.3l.6-.2.7-.6.3-.2.2.1v-.1l.2-.2.1-.2h.1v.2l-.1.1v.1l-.1.2-.1.2-.3.3-.1.1-.3.5.1.1v.2l.1.2h.2l.1.1v.2h.1v-.1l.1-.2h.2l-.2.2v.1l-.1.2v.1l.1.1h.1l.1.1H19l-.1.3-.1.1-.4.1v.5h.2v-.1h.2v.1l.2-.1.3-.7v-.1.7l-.2.2-.1.1H18.6l-.1.1v.2h-.2l-.6.4h-.2l-.2.3h.3l.2-.1h.3l.8-.1v-.1l-.1-.2v-.2l.5-.3.1-.2.2-.3.1-.1.1-.2v-.2h.1l.1-.1v-.2h.1l.2-.1v.4h-.1l-.1.1H20l-.2.4v.2l.3-.1.3-.1.1.1h1l.3-.3h.3l.2-.1v-.2h.1v.2h.1l.1-.2h.4l.2.1v-.2h.4l.2-.1h-.1v-.2h.4V112.3l-.1.1-.1.1v.2l.1-.2h.1v.1l.3-.2v-.2h.2v.1l-.2.3v.2h.2v-.2l.3-.2.3-.3-.1-.1v-.1h.1v-.2l-.3.2v-.1h.1v-.1h.1V111.3l-.1-.1.3.1.1.2v.1h.1v-.2h.1l.2-.1h.2l.2-.2v-.3h.1l.1.1v.2h-.1v.1h.5l.2-.5v-.1h.1V111.3h.1v.1h.1v-.4l.2-.1v.1h.4v-.1l.1-.1v-.1l-.2-.1h.1v-.2h.6v-.2h.2v.2h.7v-.3h.1v-.1l.1-.2-.1-.1.4-.2.2-.1v-.1h.2v.2h-.2v.4l.4.5h.1l.4-.2-.3-.2h-.2V109.6h.1l.2.2.2.1.1.1v.1l.1.2h.2v-.2l-.2-.2v-.5l.1-.2-.2-.2-.1-.2.2.1.3.3h.2l.2.4v.2h.2v-.1l.1-.1v-.2H32l-.1-.3h-.2v-.2l.1-.1V108.6h-.2v-.2h-.1l-.3-.2H31.6l.2.2.1.2h.1l.1.1.2.2h.7l-.2-.2v-.2h.1l.1.2h.1v.2l.1.2h.1l.1-.1.1-.1v-.1.1h.1v-.1h.2v-.1l.2-.2-.2-.3v-.3l.7-1.1v-.2h.5l.1.3.1.4-.4-.3h-.2l-.2.1v.4l-.2.4-.2.1v.4l.2.2h.2v-.1H34.8l.1.2H35.1v-.4h.1l.1-.1h.2v.1l-.1.1h.1l.5-.2v.1l.2.2v-.2l-.2-.2h.3l.1-.2v-.2l.1-.1h.1l.1.1h.1v-.1h.1l.1.1h.2v.2l.1-.1v-.2l-.1-.2v-.2h.2v.2l.3.3h.1-.4v.2h.5l.2.1.4.3.2.1v-.1h-.1V108l.1-.1.4.3h.2v-.1l-.1-.1v-.1l.1-.1H39.6l-.2.2.2.1h.1l.2-.2h-.1v-.6h.1l.1.1.1.1.4-.5.4-.4.8-1 .5-.4.4-.6.7-.7.2-.2h.4l.2-.4v-.2l.1-.1.3-.3.2-.3.3-.2.3-.4.3-.2.7-.4.3-.3.3-.5.1-.2.2-.2.6-.8.1-.2v-.2l.2-.1v-.1l.4-.2.1-.1.7-.8v-.2l.2-.3v-.2l.7-.6 1.7-2.6.7-.8.6-.8v-.3l.1-.1h.1l.2-.2.4-.4.5-.4.1-.1.1-.1.1-.4.8-.8v-.3l.2-.1.2-.2.1-.1v-.2l.2-.5v-.3l.3-.3V87l.3-1 .1-.4.2-.4.4-.8-.1-.1"/><path d="M35.4 109.3l-.2-.1v.2h.1v-.1M36.5 108.8V109.2h.1l.1-.2h-.2M19.2 113.7h-.1.1M18.3 113.5h-.1v.1h.1v-.1M16 113.1h-.1l.1.1h.1M15.7 113.1v.1l.1-.1M15.6 113v-.1h-.1v.1h.1M17 74.5v-.1M17.3 112.5v.1h.1l.1-.1.1-.1v-.1h-.2v.2M16 113h.1v-.2H16l-.1.1M17.1 112h.2v-.1h.2V111.6H17.2v.1l-.1.1v.1M16.5 112.3l.4-.4.1-.3v-.4h-.1v-.1h.1v-.2l.1-.2v-.1l.1-.1.1-.1.1-.1.1-.1v-.3h-.1l-.2.1v.2l-.2.2-.1.2-1 .1-.2.2h-.5l.1-.3h-.1v.2l-.1.3v.2h.8v.1h-.5l-.2.2H15v.1h.1v.1l.1.1v.8l.3-.1v-.1l.2-.2v.5h.1v-.1l.2-.2v-.1l.1.1v.2H16.6V112.3h.1M16.9 112.2v.2-.2M13.2 80.6h.1V80h-.1v.1H13l-.1.2v.2-.1h.1M13.5 79.5H13l-.1.1v.1l-.1.1v.2h.1v-.2h.1v-.1H13.4v-.1h.1v-.1M12 80.4l-.1-.2h-.1l-.1-.1v.2l.1.2.2.2v-.1h.1v-.1l-.1-.1M15.2 77.6l-.1-.2v.4h.1v-.2M12.1 79h.2V78.6H12v.2M13.8 80.5l.2.1h.1v-.2h.1v-.5l-.1.1v.2H13.7l-.1-.1h-.2v.4h-.1v.2l.3.2v-.1h.1v-.2h-.2l.2-.1M14.9 77.2v.1V77h-.1v.2M15.7 75.6V75.2 75.6M16.6 74.3v.2h.1v-.1M16.7 73.9h-.1.1M16.4 75.3v.1l-.1.1V75.9l.1.1H16.7v-.2h.1v-.1h.1v-.2h-.1v-.1h-.4M16 75.1l-.1-.1v.2M15.8 75.6h.2v-.2h.1-.2v.2M10.4 101.4h.2v-.1h-.2M10 98.6h.1M10.7 97.2h.1V97h-.2v.1M10.5 97.1h-.2l.1.2h.1v-.1M10.7 100h.1v-.2h-.1l-.1.1M16 75h.1v-.2.2M11.4 80.5v.2l.2.1v-.6h-.2V80.6M16.9 73.8l-.1.1h.1M11.6 79.3h-.1v.2h.1v-.1M.6 110.8l.1.1v-.1M1.5 110.5h.1v-.2h-.1l-.1-.1V110.6l.1-.1M2.4 109.3v-.1.1M2.4 109.2h.1v-.2h.1-.2v.1"/><path d="M2.2 111V110.6H2V110.3l-.1-.1h-.2l-.1.2V110.8h-.1v.6h.2l.1-.1v-.5.1l.2.2v.1h.1v-.2M1.9 109.6V109.3l-.1.1v.2"/><path d="M4.8 110.8v-.2l.1-.2.2-.3H4.8v-.2h-.1v.1V109.7l-.3-.1-.1-.2H4l-.1-.1v.3-.2h-.1l-.2-.1h-.2v-.3l-.2-.1H3v.1l-.1.1v.2h-.2.2v.1l.1.2v.1h.1l.1-.2h.1v.1l.1.1v.4-.1l-.1-.2v.5H3v.4-.1h-.2V111l-.1-.3v-.1h-.1V110.1l.1-.3h-.2l.1.1-.2.1-.1.2v.2-.2l-.2-.1v.4l.1.1v.4l.1.2.2.4v.3l.1-.1.1-.1H3v.1h.1v-.1H3.5l.1.3v.1V111.9h.1l.2-.1H4v-.8.1l-.1.1h-.1v-.1h-.2v-.2h-.1l-.1-.2v-.1h.2V110.9H4V110.6l-.1-.2-.1-.2v-.1h.2V109.8H4v.1l-.1.2-.1.2v.2H4v.4l.2-.3.1-.2h.4l-.1.1h-.2l-.1.1v.1l-.1.2v.1h.2l.1.1h.1v-.2h.1M7.9 107.7v.1H8h-.1v-.1M8 109v.2-.1M8.4 109.6h-.1v.2h.1v-.2M8.4 113.2L8 113v.1l.3.2v-.1h-.1v-.1M8 113.3h-.2v.1l.1.1H8v-.2M7.8 109.1v.4-.4M8 109.5v.2h.1v-.2M8.6 108l.1.1h.1v-.1h-.2M8.6 109.8v.1h.1v-.1M8 108.2v.2h.1v.1h.1v-.4.1H8M8.8 109.5V109.1h-.1V109.6h.1M8.6 108.9h.1v-.1h-.1v.1M8.8 108.2v.2-.2M8.6 107.5h.1-.1M8.9 107.8v-.1h-.2v.1H9M8.4 108.7v.1-.1M7 111.5l-.1-.2h-.1V111.6H7v-.1M7.8 110.2l-.2-.1h-.2v.4h.2v-.1h.1v-.2M7.7 108.8v.1-.1M7.2 110.5v-.1.2-.1M7.2 111.9H7h.1M7.6 112h-.1v.1h.1M5.4 111.9l-.1.1h.1v-.1M5.1 113v-.1M5 111.3v.3l-.2-.3V111.6l-.1.1v.2H5v.2H5v-.2l.1-.2V111.4H5M5 110.8v.2-.1h.2V110.5l-.1.2M5.3 109.6v-.3l-.1.1v.1M5.1 111.2v.1h.1v-.1M3.8 112.4h-.2l.1.1v.1h.1v-.1M4.2 109v.1l.1-.1v-.1l-.2.1M5.6 112.3v-.1l-.1.1h.1M5.4 109.5h.1v-.1h-.1M5.8 111l-.2.1v.1h.2v-.1M6 110.1h.1v-.2.2M5.7 109.6v-.1h-.1M5.7 110v-.2h-.2v.2l.1.1v-.1M5.4 111.1h-.1v.1h.1M5.6 110.5V110.8l.2-.4v-.2H5.5l-.1.1v.2h.2M5.8 112.2l-.1.1-.1.1h.2l.1-.3h-.1M6.1 111.8h.3v-.1H6M7.4 109v.1-.2.1M7.5 109.5v-.2h-.2v.1l-.1.1v.2h.2v-.2M6.6 111.2v-.1h-.2v.1h.2M6.6 112.3v-.1h-.4v.4h.1v-.1l.2.1.1-.1v-.2M6.6 108.8v.1-.1M7 109.2v.1M7 110.6h-.1v.2h.2v-.2"/><path d="M6.2 112.2v-.1h.1v-.1h-.1l-.1.1H6v.2h.2"/></g></svg>