<svg width="104" height="104"><g transform="translate(2)" fill="none" fill-rule="evenodd"><circle stroke="#C9C9C9" cx="50" cy="50" r="51"/><path d="M47.5 100.1zm.2 0h.2-.2zm.2 0h.1-.1zm-.4-14.5h.1zm.4-.2v-.1zm-.2-.3h0zM20 81.8zm-.1.2v-.1l-.2-.1-.2-.4h-.2.2a48 48 0 0 0 .2.6l-.1.1c.1.2.3.1.4 0l-.1-.1zm28.5 3v.2l-.3.1c0 .3 0 .4.2.6l.2.1h.8v-.1h.2l.2-.2v-.2h.2c0-.2-.1-.3 0-.4V85h-.4-.2v-.1-.2H49l-.2.2-.4.2zm.2-1.9zm39-7.3h-.1l-.1.2-.1.1h.2v-.3zm-11.8 1v-.1l.1-.1h-.1v.1zm-49.4.4v.1zm-.1 0l-.1.1v-.1zM25 77l.1.1h.1L25 77zm15.5.8h.3l-.3-.1zm-.4-1.2h.2v-.2-.3H40v.5h.2zm-2-.7h.1v-.1h-.2zm3-1.7v-.1.1zm-.8-1.4l-.1-.1H40l.3.3v-.2zm-.5-.7v-.2h-.2l.1.2h.1zm-.3-.8h.3V71h-.3v.2zm-3-2.7h-.4-.6l.2.4h.3v.1h.3l.3-.2v-.2h-.2zm-8.1-.7c-.3 0-.3 0-.4-.3h-.5v-.2h-.4-.2-.1v.2l.3.1.2.4.4.1h.7v-.3zm5.7.5h.4l-.4-.6h-.5v-.1l-.3-.1-.1-.2h-.1v-.2h-.4V67h-.4-.1-.2-.6l-.2-.2h-.4l.3.2v.5h.1a375.7 375.7 0 0 0 0 .2l.1.1h.1v.3h-.3V68h-.5v-.1h-.3v-.1H30v-.1h-.2c0 .3 0 .3.2.4v.1h.6l1.3.2.1.3v.1h.2l.2-.3v-.2-.1c.1 0 .3.3.6.3h.3v-.2l.7.1zm-3.5-3h-.1zM23.5 64h.5v-.4l-.3-.2v.3c0 .2 0 .3-.2.3zm6.4 2.3V66c-.2-.2-.2-.2-.5-.2-.2 0-.3 0-.4-.2v-.4h-.5l-.3-.2v-.1l-.1-.2h-.2l-.2-.5h-.4V64l-.2-.1v-.1H27l-.3-.1-.3-.2-.2-.1v-.3H26c-.1-.3-.4-.3-.6-.5h-.3l-.4-.2-.2.1v-.2H24l-.4-.2v.1h-.1-.2v.1h-.2v.1H23l-.3.3v.4h-.1v.1h.5V63l.4-.2.1-.1h.2v-.2c.3 0 .5.2.7.3v.2l.3.1.3.2h.1v.1l.3.1v.3h.2v.2h.2l.2.2.7.1v.4l.4.5.6.3v.4l-.4.1v.2h1.1c.4 0 .7.2 1 .1h.2l.2-.2zm-2.6-4.4a73.6 73.6 0 0 1 0-.3l-.1-.2H27l-.2.3.5.2zM74.8 58h.3v-.3h-.3V58zm-.5-.4v-.1h.1l-.4.1v.3h.1l.1-.1v-.2h.1zm1.8-.6H76c0 .3 0 .4-.2.5h.2v-.1-.3h.1V57zm-2.5.4zm2.7-.8h-.1v.1h.1v-.1zM19 54.8c-.2.3-.2.3 0 .5h.1V55v-.1H19zm10-3.4v-.1H29v.1zM95 41.9zm-1 .9v.2l.5-.1v.2l.2-.2v-.1c.1 0 .2-.1.2-.3h-.1v-.2l-.3.3-.3.1h-.1v-.1c-.1 0 0 .1 0 .2H94zm2.2-1.6l.2.2c.2-.2.2-.3.1-.4v-.5-.1-.4-.1.5l-.1.1v.1h-.1V41.2zm-2.9.7v.2h.1v-.2zm1-1.1zm.3-.2v-.2.1zm-.2 0v.1zm-.3-.6v-.1.1zm-64 8.2v0zm59.5-5.8h-.3l-.1.1.1.4h.2c.2 0 .3.1.3.2v.1H90.3l.2.1H90.8V43h-.1v-.2-.3l-.2-.4v-.3h-.1v.2a26.5 26.5 0 0 1-.6.3zm2.6-1.7h.1v-.1h-.2a20.5 20.5 0 0 0 .1.1zm1.6-1.3v-.1-.1.2zm-.2-1v-.2l-.2.1v.2h.1l.1.1v-.2zm-10.2 5l.1-.3-.2.2v.1h.1zm8.2-4.1a11.8 11.8 0 0 0-.2-.1l.1.2v-.1zM85.3 42h.1l-.1-.2c-.2 0-.2 0-.2.2h.2zm-1 .4l.1.1v.5h.2a.5.5 0 0 1 .1-.5v-.1h-.2v-.2h-.1-.1v.2zm2.4-2.3v.4h-.2l.1.2v.1h.1v.1a72.6 72.6 0 0 1 .5 1v.2l.2.1c.2 0 .2 0 .2-.2v-.1c.1-.4-.2-.8-.2-1.2l-.1-.4-.2-.1-.1-.3h-.1c-.2 0-.1.1-.1.2h-.1zm-54 4.7h-.2v.1h-.3v.2H32v.1H33c.2 0 .2 0 .3-.2H33v-.1h-.3zm2-.6h.3V44h-.2v.2zm51.4-5.3v.1l.2.5.3.1.1.1a43 43 0 0 0-.1-.9v-.2-.1h-.1l-.3-.6H86l-.1.7v.3zM41 41v.2h.1V41zm1.5-1h-.2v-.2.2H42l-.1.1-.1.2h.1v.1h-.1v.3h-.1.4c0-.2 0-.2.2-.3h.1v-.2.1h-.1v-.1h.1V40zm-2.2-.1v.2h.3V40l-.1-.3h.1-.7v-.2h-.3l-.2-.1.2-.5-.2.1-.1.2v.3h.2v.2l.5.2.1-.1h.2zm2.2-1l-.2.1c-.2.1-.3.2-.5.1V39l-.3.3V39.6h-.1l-.2.2v.2h-.1v.7H41.6c0-.4 0-.5.2-.6l.2-.2h-.2l.2-.5h.1v-.2h.4V39h.2zm2.9-.2v.3l.1.1a1.2 1.2 0 0 0 .1-.4h-.1-.1zm-4-.5v-.1h-.2l-.2.2H41.4zm-.5-1.4h.3v-.1a11 11 0 0 0 0-.1l-.1-.2H41v-.1l-.2-.2V36l-.5-.2a1 1 0 0 0-.6-.3v.3h.2l.2.3v.2l.5.2v.1l.4.1v.1zm-30.7-9.1v-.3l.1-.2c-.1.2-.2.4-.1.5zm0-.8v-.1.1zm67.3 5v-.1zm-67.5-6H10l-.2.3a2.7 2.7 0 0 0-.3.5h.2v.1l.1.2-.1.2h-.1v.1h.1V27.7l-.1.2v.1h.1l-.2.4v.5l.2.1v.2h.1l.2-.3v-.1-.3h.1V28v-.5l.1-.3.1-.4-.2-.4V26 26v-.1zm35.3 9h0zm34.3-4.7h.2l-.1-.1h-.3l.2.1zm-32.2 8.9h.3v-.4h.1v-.3h.1V38v.3h-.1-.2V38s.2 0 .2-.4l-.2.3-.1.4h-.3V38l.2-.1-.2-.1v-.2l.3-.3v-.2l-.2.1v.2l-.2-.1H47v.1h-.2l.2-.3h-.1-.2l.1-.2h-.2.1l.2-.5a.5.5 0 0 1-.2-.2l-.1.1h-.3v-.1-.1l-.2.2H46v.2l-.1-.2h-.3v-.1h-.1-.2l.3-.3-.1-.2h-.1v-.1h-.1v.2H45h-.2v.2l-.2.2v-.1-.2-.3-.2l.3-.1v-.5h.2l.2-.4h-.2.2l.1-.2V34h-.3s-.3 0-.4.2c-.2.2-.2.2-.1.4h-.3v.4s-.1 0 0 0v.1h-.1v.4l-.1.5-.2.1v.2h.3v.2l-.2.2-.3-.2v.2h-.1v.2h-.1-.2v.2h.4l-.1.1h-.2v.2l-.4.3v.4h.4v-.2l.3.1H44.7v.1h.3v-.2l.1.2h.6v-.2h.4l-.1.3v.1c.2 0 .2 0 .4-.3h.2l-.3.4-.1.2c-.2 0-.2.1-.2.3.2 0 .3-.1.4-.3v-.2l.4-.1.1-.3h.1c0 .2 0 .2.2.3v.2H47l-.1.5h.1l.2-.4.2.1v.4zM10.8 24.7l.1-.1h-.1zm.2-.5v-.1zM30.2 31l-.1.1v.2l.5.2v-.2l-.2-.3h-.2zm49.4-3h.1v-.2l-.2.1v.1zm-68.2-4.6zm-1 .6s0-.2.2-.3l.1-.1v-.1l.2-.3.1-.1v-.2h-.1l-.1.2-.4.6V24zm1-8h.1zm.3-.3l-.2.3h-.1l.2-.1.1-.2zm0 7h.1v-.2.1zm-.7.2l.3-.4.3-.2s0-.1 0 0V22h-.2c.1 0 .1 0 0-.1 0 0 0 .2-.2.3v.1l-.2.2v.1l-.2.2h.2zm69.8 2.8h-.1l.1.1.1.2h.2c0-.1.1 0 .1 0v-.2-.3-.1H81v.2c0 .1 0 .1-.2 0zm-.1.1l-.2-.2.2.5V26v-.2zM12 15.6l-.1.1zm0 0l.2-.2v-.2l-.2.3h-.1zm69.6 9.1l.2.1-.1-.2h-.2l.1.1zm-7.8 7v-.2h.2v-.1-.3h.2v-.2h.1l-.1-.2h.1v-.1l-.2-.4V30c-.1 0-.2-.1-.2-.3h-.1v-.1l-.3-.5h.1v-.2l.3-.2v-.1h-.2c0-.2 0-.3-.2-.4h-.1V28l-.3-.1-.3.4V28v-.2l-.2-.1V28l-.1-.1-.3.1.1.2h-.1v.2h.2V29h-.3v.1h-.2V29 29.3h.2l.1.2v.1a37.4 37.4 0 0 1-.1.1H72v.2a151.3 151.3 0 0 0 .3.3h.4l-.1-.3c.1.2.1.2 0 .4h.1v.7h.1l-.1.3.1.2h-.3c0 .2 0 .2.2.2V32h.2l.2-.1-.1.2v.1c.2 0 .2-.2.3-.3l.1.1.2.1.2-.4zm6-6.5l.2.2.2.2h.2l-.2-.4a15.4 15.4 0 0 1-.2-.1l-.2.1zM12.5 21l-.1.2V21 21zm-.8-5l.2-.1h-.1l-.1.2zM83 23.5H83zm-10 3.9l.2.2-.1-.3zm-.2 0v.1zM12 15.8l.2-.1-.2.1zm68.5 8.9l-.4-.5-.1.1.1.3h.2v.2l-.2-.1H80l.1.2H80c.1.2.2.2.3.2l.2.4h.1v-.2l.2.2v-.2-.2l-.2-.2v-.2zM72.8 27v-.2l-.1-.1v.2zm-.3-.2zM32.3 28h.2v-.1h-.2zM13 20zm.2.4l.1-.1.1-.2v.2h-.2zm59.4 6.2v-.2l-.2-.1h-.1l.1.3h.2zm-60.3-4.9l.3-.4.3-.3v-.1-.3l.2-.1.1-.2v-.1l.1-.2v-.2l-.3.3v.2a40.4 40.4 0 0 1 0 .2l-.3.3v.2a19.7 19.7 0 0 0-.2.2l-.2.4v.1zm1.2-1.8l-.1.1v-.1zm19 7.6l-.1.1h.1v-.1zm-19-7.5v.1l.1-.1h-.1zm65 4v-.1-.1h-.1v.2zm-45.7 3.7l.2-.4-.1-.1s-.2.6-.4.7h.2v-.2zm0-.5h-.2v.1l.2-.1zm-19-7.6l-.3.2h.1l.2-.2zm57.5 5.9h-.1l.1.2v-.2zm-58.1-10H13v.1zm.7 3l-.2.2.2-.2zM72.1 26l.1.1h.1l-.1-.3H72l-.1-.2h-.1l-.1-.5v.2h-.1l.5.7zm-.9-.8h-.1v.2h.2V25zm-57.4-6.3l-.2.1v.2h-.1v.1l-.1.2-.2.2h.1l.2-.2-.2.2-.2.3a47 47 0 0 1 .3-.2v-.1.1l.2-.1.3-.3v-.1l.1-.1h-.2l-.1.2v.1l-.2.1.2-.3h-.1l.4-.4v-.3h.1l-.3.3zm67.4 3.5l.3.2-.1-.3V22l-.3-.2c0-.2 0-.3-.2-.4v-.1-.1h-.1V21.6l.2.4.2.3zm.3-1.4a41.1 41.1 0 0 0-.1-.2v.2zm-67-2.4zm-1.3-3H13h.2l.2-.1v-.1.1l.1-.1.2-.2.2-.2h-.1v-.1l.1-.1-.2.2-.1.1v-.1l-.2.1-.2.3v.1zm1.2 2.3l.1-.1v.1zm.5 0l-.3.4-.3.3-.4.4h.1l.2-.1.3-.3v-.1l.1-.1h.2v-.1-.3zm-.8-3v-.1zm66.7 5.4l.3.3.2.1v-.2l-.2-.4h-.2v.1c0 .1 0 .2-.1 0zm-9.5 4l-.1-.2c-.2 0-.2.2-.2.2v.2l.1.2v.2l.2.3V25h.2l-.2-.7zm.6-.2v-.2h-.2l.2.5.2.5h-.2v.2l.1.1v.2l.2.1v.2l.2.1v.1l.2.6.1-.2h.2l-.1.4.1.1.2.4v-.3-.1.1h.1v-.1l.3.5.1.2.1.5v.1h.2l.2.1v-.3c.2.1.4-.1.6-.1v.1c0 .3 0 .3.2.5h.2v-.1l.2.2v.2l.2.5v.1l-.4.1H75a22.4 22.4 0 0 0-.2-.2v.2c0 .1 0 .2.2.1l-.1.5v.2l.3-.2a61.7 61.7 0 0 1 .1.8l-.2.3.1.3h.2v.1c.2 0 .2 0 .1-.3h.2v.3c.2 0 .2 0 .3-.4l.3.2v-.3l.2-.1.2.5-.5.2H76h-.2V32.7s0 .2-.3.3l.1.2h.3c.2 0 0-.3.2-.4v-.2h.5l.1-.4.3-.2H77.3l.2-.2v-.1h.3v-.1h.2v-.2l.5.2v-.1-.1h.1V31v-.4l-.3.1v-.1h-.1l-.1-.2h.1v-.2h.2V30 30l-.2-.6v-.2c-.2-.1-.6-.3-.7 0 .1.2.1.2 0 .2l-.3-.6a106.7 106.7 0 0 0-.6-.4h.4l-.8-.5-.1-.1-.2-.2h-.2l-.5-.6-.2-.1-.2-.2h-.1l-.3-.3-.2.2v-.1-.2L74 26v-.2-.5l-.2-.3v-.2l-.1-.2h-.2v-.1h-.2v.1c-.2 0-.2 0-.5.3l-.2-.1v-.5c0-.1.1-.3 0-.4l-.3-.4-.1.1H72v.2h-.1v.1zm-57.7-9.4a5.3 5.3 0 0 0 0 .1l.2-.2h.1v-.1l-.3.2zm66.2 5l.3.2v-.2c-.2 0-.2-.2-.3-.2v.1zm-5.3 2zm-36 3.4v-.1zM75 21.5v-.1.1zm.1-.2H75h.1zm-.3 0zM52.5 25l-.2-.1v.2h.1zm26.3-6h.2l.1.1V19l-.3-.2h-.1-.1.1v.1zm-.5-.2zm-6.2 3l.1.2v-.1l.2.2v-.2l-.2-.1v-.1l-.2-.3.1.3zm-56-7.7l.1-.2-.3.2-.1.1.3-.1zm.9-3v.1l.4-.3v-.1l-.5.4zm-.7 3V14zM40 23.7v-.2l-.1.2h.1zM72 21zm-55.6-7.4zm1-2.8l.5-.3-.2.1-.2.2h-.1zm24.2 11.8v.2c.1 0 .2 0 .2-.2h-.2zm-2.5-.6h.1l-.1-.1zm-3.8-1l-.5.4v.3h.1l.2-.2.2-.4zm2.6 0zm-1.7-.3v.2l.1-.1v-.1h-.1zm.5 0v.2a24.8 24.8 0 0 0 0-.2zm36.5-3v.1zm-39 2.5l-.2.1c-.3 0-.4.2-.4.2h-.1-.2l-.3.2v.2l.3-.1c.4 0 .5-.2.6-.4h.2l.1-.2zM19.7 9.5l.1-.1h-.2v.1zm22.8 12h.2V21h-.3v.1h-.1V21.5h.2zm-6-1h-.1-.1v.1h.1zM73 17.4v-.2c-.1 0-.1 0 0 .2zm-34.7 2.9l.1-.2v.2zM20.6 8.6l.4-.2.1-.1.2-.1V8h.1l.1-.1h-.1.1l.1-.1a3 3 0 0 0-.4.2l-.6.5h-.2v.1l.2-.1zm21.7 10.7h.1zM75 14l-.1-.1zm-40.2 6c0-.2.1-.3.2-.3l.1-.2-.2-.1-.3.1v-.1l.1-.1v-.3-.1-.3-.1-.2c-.2 0-.2-.1-.2-.2l-.3.1V18l.1-.2h.1l.1-.1v-.1h-.1c-.3.2-.4.5-.5.7a108.4 108.4 0 0 0-.4.6l-.6.3-.1.2v.2h.4l-.3.4h.5a63.5 63.5 0 0 1 .6-.8c.2-.3.2-.3.5-.3l-.1.3-.2.2V19.7a15.3 15.3 0 0 1 .2 0h.2v.2h.2zm37.6-5.2h-.2.1zm-37.8 2.8v.1l.2-.2h-.2v.1zm29.6.6l-.1-.2-.3-.2h-.3l-.2-.3s-.2 0-.2-.3h.1V17H63l-.1.2-.2-.1-.2-.3-.2.1.2.4h-.3l-.1.1H62 62l.2.3H62v-.2h-.1l-.1-.2c-.1 0-.1 0 0 .2h-.1l-.1.1.1.2-.4-.3.2.7-.1-.2h-.1l.1.4h-.1l-.2-.3v-.2h-.1v-.1h-.1v-.2h-.1s-.2 0-.2-.2l-.1.1h-.2v.2c.3 0 .3 0 .5.3h-.2v-.1h-.2l-.2-.3v.2H60h.1l.1.3V18.4H60v.1h.3v-.1h.1l.2-.2.2.1h-.1v.1l.1.2h.1v.1c0 .1-.1 0-.2 0l-.3.3.1.2h.2V19a53.6 53.6 0 0 0 .5.2h.1l.1.1h.1v.2h-.2l-.1.2c.1.2.3.2.4.1a18.7 18.7 0 0 0 .2-.2l.1.1h.5v.1h.1v.2h.6V20l.2.1v-.2l-.1-.2-.1-.2h.3v.2l.2-.1v-.1h.1l.1-.1v-.2h.2V19l.1-.1v-.1h.1l-.1-.2v-.2-.2h.2v-.2zm-28.9-1.3h.1zm24.8.6H60.4l-.2-.2H60c-.2 0-.2 0-.1.2h.1zm-36.6-10a42.9 42.9 0 0 0 .2 0h-.1zm11.8 8.1l.1-.1h-.1v.1zm34.8-2.7l-.2-.1.1.1h.1zM31.7 14v-.1.1zm8.4 1.6H40l-.1.3h.2l.1-.2H40zm30-3v-.1l-.1-.1-.2-.1.2.3zM25.8 6.2zm13.9 9.2h-.3l-.1.3-.2.3V16.2h.3c.1-.2.1-.4.3-.5v-.1-.1-.2zm-7.9-1.7v.2h-.1l.2-.2zm41-6.3h-.1zM48.2 16zm-7.9-.8l-.1.3.1-.2zm29-3h.2l-.2-.2v.1zm-38.6.7h-.1v.2h.1v-.1h0zm39.3-.5h.1l-.1-.1-.1-.2h-.1c0-.1 0-.2-.2-.2v.1l-.3-.2.4.4.1.2.2.1h.1v-.1zm-31.4 2.6v-.2l-.2.1h.2zm-6.8-2h-.1l-.2.1H32zm37.4-1.4zm-.1-.1zM32.3 13l.2-.2h-.1l-.2.1.1.1zm39.3-5.4l.5.3.3.1h-.1l-.2-.2-.4-.2h-.1zm-32.4 6.6v-.1.1zm-6.6-1.6v-.1.1zm36.8-1.1h.2l-.2-.2a8 8 0 0 0-.5-.4v.1l.2.2.2.2h.1zm-29.3 2.7h.1-.2.1zm-.7-.2l.2-.1h-.1-.1zm-.5-.3zm.4-.1l-.1.1h-.3v.1c.1 0 .1 0 0 .2h.2l.1-.1h.1l.1-.2h.1v-.1h-.2zm-5.3-1H34v-.2h-.1-.1l-.2.1-.3.2-.4.2c-.2 0-.2.2-.2.2h.1v.1h-.1v.1l.2-.1h0l-.1.2v.2h-.1v.1h.2l.2-.2v.1h.5v-.1l.4-.5v-.1-.2l.1-.1zm34.8-1.9l-.2-.2h-.1l.1.2.3.1zm-33 2a6.5 6.5 0 0 1-.1.1zm1.3.2v.1l-.2.4h.2v-.3-.1zm33.1-6.8l.2.1h.1l.4.2H71.1l-.2-.2h-.3l-.4-.1zm-1.6 4.4l-.3-.2h-.1l.2.1h.2zm-31.1 2.3h-.1zM70 6.2h.1zm-1.8 3.7v.1h.2v.1l-.2-.2zm.8-.6h-.1.1zm-.6.5v-.1zm0 .3H68L68 10l.3.1zm-.2-.6l.3.2h.2l-.4-.3v.1zM32.8 2.6h-.3l-.2.1h-.1.5v-.1zm1.3 8.7H34l-.1.1h-.1l-.2.2h.1l.2-.1.2-.2zm22.7 1.9h.2V13l-.2-.3c-.1 0-.1.1-.2 0l-.3.1h-.1v.1H56l.2.3.3-.2H56.8zm11.2-4h-.2.2zm0 .5h.2l-.1-.1v-.1l-.4-.2.2.1v.1l.1.2zM22.5 7.3h.2c.2-.2.5-.2.6-.4a18.9 18.9 0 0 1-.1.1l.3-.1h-.1V7l.2-.1.2-.1 1-.6s.2 0 .3-.2h.2v-.1h.2a5.7 5.7 0 0 1 0-.1L25 6l.6-.3h.1l.2-.2h.3v-.1h.2l.2-.2h.1a12.8 12.8 0 0 0 .1-.1h.2V5h.3v-.1h.2v-.1h.1l.4-.2h.1l.2-.2h.2l.3-.2.7-.2.2-.1.2-.1h.1l.1-.1.2-.1h.1l.2-.1.3-.1.6-.3h.2V3h-.1l-.4.1h-.1l-.2.1.4-.1.2-.1a22.2 22.2 0 0 0 .4-.2H32.2l.7-.3.6-.2h.3l.2-.1c-.4 0-.7.2-1 .3a10.6 10.6 0 0 1 .2-.1 4.3 4.3 0 0 1-.2 0l-1 .4c-3.5 1.2-5 2-7.5 3.3l.3-.2.4-.2h.2l.1-.1h0l-.3.2-.7.3h0v.1h-.1l-.2.1-1 .6c-.2 0-.4.2-.6.4l.1-.1-.4.2h.2zm1.8-1.2h.1a2.5 2.5 0 0 1 .1 0l.1-.1h.1l.3-.2h.1-.3V6h-.1l-.2.2h-.2l-1 .6h-.1l1.3-.6h-.2zM68.2 9l-.2-.1h-.2.2l.2.2V9zm-19.8 4zm-.4-.2v0zm-5.8-.4v-.2.1zM30.7 3.7h.2a5.5 5.5 0 0 1 .2 0l.3-.2.5-.2h-.1-.4l-.2.1-.2.1-.1.1-.2.1zm35-.3h-.1l-.1-.1h-.1a6.2 6.2 0 0 1 .6.2 2.5 2.5 0 0 0-.3 0v-.1zm-.3.1h.1zM37.1 9.6zM65 3.2l-.2-.1h-.3-.2.7zm-8.5 8.1c0 .2.2.3.3.3l.2.1h.1v.1h.1l.2.1h.1v-.1l-.3-.1v-.3h-.4v-.1h.2v-.1-.2h-.4V11h-.3v-.2h-.1c-.2 0-.2-.1-.3-.2l-.1.1V11h.1-.3v.3h.1l.2.1v-.1l.1-.1v-.2l.2.2h.2v.1l.1.1zm-19-2l-.1.1h.1zm27.3-5.7l.5.1h.3-.1l-.6-.1h-.1zM35 8.9L35 9l-.4.3h.1v.2l.4-.3h.1V9a16.2 16.2 0 0 1 .3-.3h.1l.2-.3-.3.2-.3.1zm-.6.8l-.1-.2-.2.1.1-.1-.4.2-.3.1-.3.1.3-.2.8-.4v-.1h.1V9h.1l.2-.1v-.2l-.5.2-.2.1.5-.5-.4.2c-.2 0-.3 0-.4.2l-.3.1-.3.2.1-.1V9h.1l.3-.3.3-.2a47.8 47.8 0 0 1 .6-.4l-.6.1h-.2-.2-.1-.2l-.4.2c-.2.1-.3.3-.5.3l-.5.1-.5.3h.3l-.1.1v.1h-.2l-.2.1H32v.1h-.2-.1-.1l-.2.1h-.1c-.3 0-.6 0-.7.2v.1h.1v.1H31.2v.1h.2v.2h.2l.1-.1v.1l-.2.1h.2v.1h-.1c-.2.2-.2.2-.3.1l-.1.1-.3-.1v-.1h-.6-.1v-.1a19.8 19.8 0 0 0-.3.2l-.3.1v.1l-.1.2c-.2.1-.2.1-.2.3h.1v.2l-.5.4h.2l-.1.3H30.3l.3-.1 1.2-.4v.1l-.5.4.1.1-.2.2h.2v.1h.1v.2l.2-.1H32.3v-.2l.2-.1-.2-.1-.2.1v-.1l.3-.4v.3H32.7V12h.3c-.1 0-.1.1 0 .2l-.2.2h.1l.2-.2.4-.4c0-.1 0-.1-.2 0l-.1-.1v-.2l.1-.1.2-.3-.3.2H33l1.2-1.3.2-.3zM54.6.3zm.2 0l.7.1h.1-.9.1zm0 0h-.2.1zM50.3 0h-.1zm.2 0h-.2a3.1 3.1 0 0 1 .2 0zm-6 17.4h.1v-.1c0-.1 0-.3-.2-.4v-.1l-.1.3-.1-.1v.1h-.1V17H44a23.3 23.3 0 0 0 0-.2H44l-.1.3V17h-.3v-.2h-.1.1v-.1-.2-.1-.1h-.1l-.1.2v-.2-.1a13.8 13.8 0 0 0 0-.2l-.1.1-.1.2v-.1c0-.1 0-.1 0 0l-.2.2v-.2l-.2.2.1-.4a5.8 5.8 0 0 0-.1.1V16v-.1h-.1v-.2-.1.1h-.1v-.2h-.2v-.1l-.1-.2.4-.2v-.1-.3a.5.5 0 0 0 .2 0l.2.1-.1-.3v-.1a20.2 20.2 0 0 1-.3 0v-.1-.1h.2l.2-.1a9.1 9.1 0 0 0 .1-.1v-.5l-.4.3.1-.1h-.2v-.1l.4-.2v-.1H43V13s-.3 0-.4.2l.2-.3c-.2 0-.2 0-.3.2V13h.2a6.7 6.7 0 0 0 0-.2h-.1-.1v.1h-.1v-.1h.1v-.1-.1-.3l-.2.1-.1.3v-.1H42a44.6 44.6 0 0 0 0-.2l.2-.2H42l-.3.3V12h.3l.1-.5v-.1l.1-.2V11a15.2 15.2 0 0 1-.1 0H42h-.2-.1V11l-.1-.1-.2-.2-.3.1V11.1l.1.2h-.1l-.1-.2-.3.4v-.1l-.1.1v.2h-.1v-.2l.3-.3h-.3l.1-.1H40.3v.1c-.2.1-.2.1-.2.3H40h.2l.2-.4c.1-.1.3-.3.2-.4l.3-.4h.1v-.1l.3-.3-.1-.2h-.2-.1v.1l-.2.1h-.1l-.1.1h-.1l-.3.3h-.1l-.5.5h.1l-.1.3-.2-.2-.2.2v.3l-.4.5v-.1h-.3-.1l.4-.1.6-1v-.1l.2-.1.2-.3h.1l.3-.2c.2-.2.4-.2.6-.2l.2-.1h-.1v-.1a23.8 23.8 0 0 1-.6 0H40l-.5.1-.1.2c-.2 0-.4.3-.5.3l-.1.1-.2.1-.1.1-.2.2-.1.1h-.2v.1h-.1v.1l-.2.1v.3c-.2.2-.2.2-.1.3h.2v.1a29 29 0 0 1-.1.1l-.2.2v.2l-.1.3h.2v-.2h.2l-.1.2v.2l-.1.2h.2l.2-.1v.2h.1l.3.1h.1v.1l.1.1h.2v-.6h.1v.8h.1l.1-.3.2-.4h.2l.1.4c.4 0 .4 0 .5-.4l-.2.1V13l.3-.1v.3h.2l-.3.6.2-.2h.2v.2l-.1.2.3-.3v.2h-.1c0 .2-.1.2-.2.3v.1h.1l.1.1a106.3 106.3 0 0 0-.2 0l-.1.3H40v.5l.4-.2v-.1h.1l.2-.2c0 .3 0 .3-.2.4v.3l.1.3-.1.2V16.1l-.1.1v.3h-.2c-.3.3-.2.5-.1.5 0 0-.1.1-.2 0l-.1.2h-.1l-.1.1v.1l-.1.1h-.1l-.1.1-.1.1h-.1v.4c0 .3.2.5 0 .8H39h-.4-.2H38.1l-.1.1h-.2-.2l-.4-.1c0 .1 0 .2-.2.3l-.2.3h.1l-.3.7h.1l.2.1.5-.1.1-.2.2-.1v.1h.1v.1h.2v-.4l.2-.2v.4h.1l.1-.2v.5h.1l.1-.2h.2v.3 1h.2V21h.1l.1.1v.2a1 1 0 0 1-.3 0v.2l.2.2.2-.1v.2c.2 0 .3 0 .4-.2h.1v.1a12.7 12.7 0 0 1 .4.1H40.9v.1h.1v.1h.2c.1.2.1.2.3.2l.1-.5a.7.7 0 0 0-.4-.1v-.2-.1l-.3-.2-.1-.2c-.2 0-.1-.4-.4-.5 0-.1 0-.2.2-.3l.4.3v-.2c.2 0 .2 0 .2.3h.6v.2l.1-.1v.1h.1v.2a41.3 41.3 0 0 1 .2 0H42v-.4h-.2v-.2h.3v-.2-.1h.2V20v-.5l-.1.3-.1-.2v-.1.1H42v-.2-.1h-.3v-.6-.2h-.2v-.2-.2-.1h.1v.2h.2v-.4-.3.3h.1v-.2l.1-.1v-.1h.2v.7h.2v.1H42.8l-.2.1v.1h.2v.2l.1-.1-.1.3h.3l-.2.1v.1h.2v.2h.2v.1h.1l.1-.2v-.4-.3.2h.4v-.2h-.1v-.1h.1V18 18h.2l.1-.2h.1v.1h.2v-.4zM50.6 0h.1zm7 .8h-.4.4zm-15.5 9h-.4v-.1h-.2-.1l-.3.3H41v.2l-.3.2-.2.4s0 .1.2 0h.5l.2-.2H41.8l.2-.1v-.2l.1-.1.1-.2.1-.2zm2.3 91.2zm-2.4-.3zM31 89.8v.1h.1l.1.3.1.1v.1h.1l.1.2.1.1v.1l.2.1.2.3h.1l.1.1.1.1.1.1v.1l.2.1.3.6a14.8 14.8 0 0 0 .1.1h.1v.1l.2.1.1.1v.1h.1l.3.3H34.1l.1.2a6.3 6.3 0 0 0 .7.3l.2.1h.2v.1h.2l.2.2h.3l.2.1.1.1h.1l.3.2v.1c.7.3.7 1.1 1.2 1.6v.2l.2.6.2.1a32.1 32.1 0 0 0 .2.6 23.3 23.3 0 0 1 .1.1v.1l.2.1v.1l.2.4.1.2v.1l.4.3.1.2.3.2.4.3v.1l.1.1.1.1v.1a3 3 0 0 1 .4.2l.1.1a4.5 4.5 0 0 0 .5.2h.4l.2.1 2 .2H45v.1l-.3-.1H46.3v-.1l-.5-.3h-.2l-.2-.1v-.2l.3.2h.4l.3.1H47.1l.1-.2h.2v-.2h.1v-.1l.2-.1h.2v-.2h.3v.2H48h.2v-.1h.1v-.1a8.4 8.4 0 0 1 .2-.2h.1v-.1a5 5 0 0 1 .2 0l.2-.3V99v-.2-.1-.2c-.1 0 0 0 0 0 0-.2 0-.2.6-.4h.2l.1-.1h.2l.1-.2h.3l.6-.1v-.2h.5l.2-.1a61.5 61.5 0 0 1 .9-.2l.3-.2v-.1-.2l1-.8a18 18 0 0 0 .2-.1l.2-.4c.1-.2.2-.2.4-.3h-.1v-.2l.2-.3v-.1h.1v-.2l.1-.1v-.3l.1-.3v-.3h-.1l.2-.3v-.1c.2 0 .2-.2.3-.2v-.1-.2l.3.1.3-.1v-.2c.2 0 .2 0 .3-.3l.1-.1c.2-.1.3-.4.6-.5h.1c.2-.3.6-.4.8-.6-9 .6-18.7.2-27.4-1l.1.1zm28-1.2c-.2 0-.1-.1-.1-.2l-.1-.1v-.1h-.1V88H58v-.1h-.5l-.2-.3h-.2l-.5-.5h-.3l-.1-.2h-.1-.2l-.1-.1H55.2 54.7l-.2-.2h-.2l-.2.1v-.1l-.2-.1h-.6c-.3.4-.3.4-.5.2v-.2h-.2a53 53 0 0 0 0-.3h-.1V86v-.2l-.4.1v-.2h-.4v-.2h-.5c-.2-.3-.2-.3-.8-.2l-.5.2v.1l.1.2h-.2l-.3.2v.1h-1l-.3-.3v-.1H48v-.2h-.2-.1l-.2.2v.5l-.1.1h-.1v-.1-.6H47l-.2.1v.1h-.5-.1v.1H46v.2l-.3.2h-1.3H45.7a22.2 22.2 0 0 1 .2-.4h.2a111.7 111.7 0 0 0 .3-.2h.4l.5-.2.3-.4V85v-.1h.1v-.1l.2-.1a132 132 0 0 1 .4-.3l-.1.1c0 .2 0 .3.4.2h.1v-.1l-.1-.3c.2 0 .2-.2.3-.3h-.2l-.2.1-.2.1.2-.2v-.2h-.2l.4-.2v-.3h-.3-.1v-.5l-.2-.1v-.5l-.1-.1-.1-.2h-.1v-.3c-.3 0-.5-.4-.7-.5V81H47l-.1-.2h-.1v-.2l-.6-.3H46h-.3a16.9 16.9 0 0 1-.2-.2v0l-.6-.2h-.1v.1a67.1 67.1 0 0 1-.6 0H44h-.3a12.7 12.7 0 0 0-.1.2l-.2-.4-.4-.2-.2-.2h-.4l-.1.4H42v-.1l-.2.1.2-.6c.1-.2.1-.3 0-.4l-.1-.1-.2-.2-.1-.1h-.2v-.2h-.2V78H41h-.1a.6.6 0 0 0-.4-.1h-.4-.2v.1h-.3a3.4 3.4 0 0 0-.5.2l.2-.3h.7l.2-.1v-.3-.5h-.4-.1l-.2-.2h-.2l-.1.1v-.1l-.2-.1-.1-.3h.4v-.2H38h.2v.1a1 1 0 0 1-.3 0h-.2-.2v.2a82.6 82.6 0 0 1-1-.1l-.3-.1V76c-.5 0-1.1.4-1.6-.2v-.2c-.5-.5-.5-.5-.7-.5l-.7-.6H33v.2l.1.2h.2l.1.1v.1l-1 .2v.3h-.1v.3h.2c.1.2.2.3.1.4v.1l.2.4a2 2 0 0 0-.4 0v.2h-.2v-.2h-.1l-.2-.4a92.8 92.8 0 0 0-.1-.3c0-.2.2-.3.3-.3v-.2a83.4 83.4 0 0 1-.2-.4h-.2l.2-.4h.2v-.2h.1l.1-.2h-.1l-.1-.2H32 32h-.2-.1v.3h-.2v.1h-.2v.1H31c-.3.4-.5.4-.9.3l-.1.4-.1-.2h-.3c-.3.1-.2.3-.2.7l-.2.4v.1H29l-.2.5v.5h-.2l-.7-.7-.1-.3c-.3-.1-.4-.6-.8-.7V76.6h.2v.2h.4v.2l-.1.2v.3l.3.3h.1l.3.1v.3l.2.3v.5l-.1.2v1c0 .3 0 .3.3.4v.2h-.2v.4H28l-.1.2V81.7l.1.1H27.7v.2c0 .2-.1.2-.2.3h-.2V83h.2l-.1.2h-.2v.4l.2.2h-.1c0 .2-.1.2-.2.2l.2.4h-.1a32.2 32.2 0 0 1 .2.4v.1l-.2.1.6.3.2-.1.1.2H28l.1.1c-.5.3-.5.6-.6.9h.1l.2.2c0 .2.3.3.3.5h-.1v.2l.6.4h.1l.2.2.2.1v.2l.8.5.2.2.2.2h.2v.2h.1l.2.3.1.1c8.7 1.3 18.4 1.7 27.5 1h.1v-.2h.1l.2-.2V90l.1-.1v-.1h.1V89.6h.1v-.4-.6zM15 13.3zM9.5 29h-.1V29v-.2h-.1c-.3.5-.3 1-.6 1.4l-.1.2-.1.5v-.1a73.3 73.3 0 0 0-.3.4l-.3.6v.1h-.1l-.3.5-.1.3-.2.2c-.3.6-1.1 1.9-1 2.4v.1H6l-.1.3a77.7 77.7 0 0 0-.2.4l-.3.7h-.1l-.1.3V37.4l-.1.2v.3c1.1-3 2.6-6 4.3-8.7zm17-19.4l-.4.1.4-.1zm0 65.8v.2h-.8l-.1.2h-.2l-.4-.2a1 1 0 0 1-.4-.1h-.1v-.3-.2L24 75v-.1c-.1-.1-.3-.2-.3-.4h-.2v-.2c-.1-.4-.1-.4-.3-.5v-.2-.5a50.8 50.8 0 0 1 0-.6v-.7-.4a26.7 26.7 0 0 0 .1 0V71v-.2h.1v-.3-.2l-.7-.4v-.3c-.3-.5-.9-.4-1.3-.7v.2h-.7l-.2-.1a62.7 62.7 0 0 1-1-.2h-.2l.1-.3h.1v-.2l.2-.3v-.2-.2-.2l.1-.6v-.2a56.5 56.5 0 0 1-.2-.3l.2-.3c0 .2 0 .4.2.5v.1-.4l.2-1.4.1-.4.1-.2v-.1h.1v-.8h-.2v-.1h-.1v-.1c-.6-.1-.7 0-.8.2H19 19v.1h-.3c-.2.1-.2.1-.3.8v.4c-.2 0-.2.1-.2.2v.4c-.3 0-.3 0-.5.4h-.2-.1l-.1-.2H17l-.3.2c-.1 0 0 0 0 .1l-.5-.1v.1l-.6-.2-.3-.5-.2-.1c-.5-.1-.6-.9-.7-1.3h-.1l-.2-.4v-.1H14V63h-.1c0-.1 0-.3-.2-.4V62.3 62 62h-.1v-.1h-.2v-.1l.1-.2v-.4-.2l.1-.3v-.2-.2-.5l-.1-1.1a129.6 129.6 0 0 1 .2-.8l.2.1.2-.6H14V57v-.2-.2l-.1-.1a50.4 50.4 0 0 1 0-.2v-.2-.5-.2h.2l.1-.4.2-.2h.4v-.2h.2v-.2h.2c.1.1.1 0 .1 0h.2l.2-.3.2-.4.1.1h.1v.1h.5v-.2l.1.1H17l.3.2.1.1h.2c.2 0 .1 0 .1.2l.4.2h.1l-.1.3c.3.2.3.2.6.1l.1-.4h.1l.3.2.1.2.3.2v.2h.2c0-.2 0-.3-.2-.4v-.2h.2v-.3h-.3v-.2h-.2v-.1L19 54l.4.1.2-.1h.5l.2.2h.2V54h.1v.4h.2l.2-.1.1-.2.1.2H22c0 .3-.1.4.2.5l.2.1a37.4 37.4 0 0 0 .2.4l.1.1h.2v.1l.6-.2c.2.1.2.1.3.5v.2l.3.2v.9l-.1.6h.2c.1-.2.2-.2.3-.1l-.2 1 .2.2v.3l.2.2v.3l.3.5.2.3v.2h.3a24.3 24.3 0 0 1 0-.5l.1-.2h.1v-.5l.1-.3v-.4c-.1-.2 0-.5-.2-.8v-.1-.4-.1l-.2-.2V57v-.3-.1l-.1-.4v-.5-.2H25l-.1-.2V55h.2v-.5h.1l.1-.4.1-.2v-.2c.4-.1.7-.7.7-.7h.4l.1-.4h.3c0-.3 0-.3.2-.3h.1l.4-.2h.2l.3-.2.2-.4.3-.1v-.5H29c0-.2 0-.3-.2-.4l.4-.1v.2h.4v-.1-.2h-.1l-.4-.2v-.2l.4-.1v-.2l.1-.3-.5-.3v-.1-.2h.4l-.1-.4h-.1V48h.1a.7.7 0 0 1-.3-.6h.1v-.3h.2l.1-.6h.1l.4-.5H30.4l-.2.4h-.2V46.9l-.2.2v.8H30v.4l.4-.2v-.2l.1-.2.1-.1v-.1l.1-.4c-.2-.2-.2-.2-.1-.6l.2.2h.4c.2-.1.2-.1.3-.4h.2c.2-.4.2-.5.2-.9h-.1V45h.1V45l.3-.2v-.1l.2-.1v-.1h.2l.1-.1h.1c.3 0 .3 0 .4-.2h.3c.1.1 0 .2 0 .2H33.9v-.2-.2h.3v.2h.3v-.1h.3l-.5-.5v-.1l.3-.1V43s0-.2.2-.2v-.2l.2-.2.2-.4H35.4v.1h.2v-.1H35.9c0-.3 0-.3.2-.5v.3h.2v-.2l.2.1h.2l.3-.2.2-.1-.1-.6.5.2H38V41v-.2h-.1v-.1l.2-.2v.3h.1c.2 0 .2 0 .3-.2.3-.1.3-.2.4-.7l.2.1v.3H39v.2l-.2.2v.1h1l-.2.1-.1.2-.1.1H39V41c-.3 0-.6 0-.7.3l-.1.2H38v.1l-.4.2V42.4c.2 0 .2 0 .6.4v-.1c.1-.1.2 0 .2 0v.1l.4-.3h.1v-.3h.1v-.3h.2v-.1h.1l.2.2a27.4 27.4 0 0 0 0-.2h.1c1-.2 1-.2 1.3-.8h.2v-.2H41v-.4c-.3 0-.3.1-.5.4h-.1v-.2l-.3-.1-.2-.1v-.2h-.1l-.2.2v-.1-.1h.2V40 40v-.1h-.3l-.2-.1v-.2h-.1v-.3-.2h.2v-.3H39l.1-.2h.2v-.4h.1v-.3a29.2 29.2 0 0 1-.8.2V38v-.1l-.1-.1c0-.1 0-.2.2-.2l.1.2h.4l.2-.5h.2a27.8 27.8 0 0 0 .1-.5v-.1l.1.1.1-.2a.7.7 0 0 1-.2-.4 315 315 0 0 1-.7 0h-.5l-.3.1v.1H38l-.5.3h-.2v.1l-.1.2-.7.5h-.1l-.3.1c-.2.7-.5.9-1 1.2h-.2v-.1l.3-.1a13 13 0 0 1 .2 0v-.2l.1-.2h.2v-.2h.1v-.2c.2-.2.3-.2.3-.4l-.1-.1V37h.2l.4-.5h.1v-.1h.4v-.2l.1-.1h.2V36c.4-.1.4-.1.7-.6v-.2h.4V35l.1.1h.5l.3.1h.2l.1-.1h.2v.2h.2l.1-.1h.3l.4-.1.3.2v-.1h.2l.2.2h.2l.2-.2.1.2h.1l.3-.1v-.1h.4v-.4h.1l.4-.1v-.2l.2-.5h.2v-.2h.8l.1-.1.3-.2.2-.1h.1a31.8 31.8 0 0 0 .2-.3l-.1-.6.1-.4V32h-.2v.2H45v-.3h-.2v-.1l-.2-.2h-.1v-.1h-.3v.2h-.4l-.3.3h-.2l-.2.1-.3.3h-.2V32h.4l.1-.1.2-.1.2-.1h.1l.1-.2H44.1l.2-.1h.1v-.1l.1-.2h.2V31h-.2v-.4h-.1l-.2.3-.3-.1v-.5h-.2-.2v.2h-.1v-.2H43v-.4-.2l-.2-.2-.3-.1c-.1-.2 0-.3 0-.4h-.2v-.2h-.1-.1l.1-.2v-.1h-.1v-.2h.4l.1.1a35.3 35.3 0 0 1 0-.4l-.2-.1v-.1h-.2v-.1c.2 0 .3-.4.1-.6L42 27v-.1a11.3 11.3 0 0 1 0-.2l.1-.2h-.3-.2v-.2c.3 0 .4-.1.4-.3l-.1-.1v-.2-.2h-.2-.1v-.2-.2-.6-.3-.3c-.2 0-.2 0-.3.4l-.1.3c-.2 0-.3.1-.2.4l-.1.2c-.4.2-.4.2-.4.5h-.1-.1l-.1.3h-.1-.1v.1H40l-.2.1V26c-.1 0-.1-.1 0-.2-.2 0-.3.1-.3.2v-.4l-.1-.2h-.3v-.1c-.2 0-.2-.2-.3-.2v-.1l.2-1h.2v-.2-.1h.1v-.2h.1l.2-.3h-.1l-.1.1H39V23l.2-.2v-.1h-.1-.2l-.4-.1.1-.3-.1-.1v-.5l-.2-.3a31.1 31.1 0 0 0-.2 0l-.2-.1-.5.3-.6-.2h-.1l-.4-.2H36c-.2 0-.3.1-.2.4v.2h-.1v.2l-.4.5v.1h.1l-.3.6v.5H35v.2H35h-.1-.1v.3h-.1-.3l-.1.2c-.2.1-.2.1-.3.4h.2v.2c0 .2.1.3.2.3V27h.1c-.3.4-.3.4-.4.9l.1-.3v.5H34h-.1v.2l-.9.7H33v.2l-.6.2H32l-.2.8.1.1v.8h-.1l-.1.4v.5l-.1.2h-.1v.2h-.1l-.1.4a111.3 111.3 0 0 0-.3 0c-.2.1-.2.2-.2.3l-.5-.2a80 80 0 0 0 0-.2c0-.3-.3-.5-.4-.8l.2-.2c-.2-.7-.2-.7 0-1v-.4l.2-.2V30v-.2a29.1 29.1 0 0 1 .1-.3l.2-.7h-.1v-.2h-.1-.2l-.1-.2h-.5-.2l-.1-.2V28h-.2v-.2l-.2-.1-.2-.1v-.2-.1h-.3v-.5-.2-.1l-.2-.2v-.2H28V26a22.6 22.6 0 0 0-.3-.3l-.2-.4h-.2-.1-.1-.2v-.2-.2l.1-.1v-.2a21 21 0 0 0 .2-.4v-.3-.2-.2l-.3-.1h-.2c0-.4 0-.4.2-.7v-.2l.1-.1.3-.4.1-.1.2-.1h.1l.1-.2.1-.2H28.2l.4-.5.3-.2H29.2l.1-.3.2-.1.2-.2.2.1V20h.2v-.2a54.5 54.5 0 0 1 .5 0c.2 0 .3-.2.4-.3v-.2l.1-.2h.2l.6-.6.2-.1H32.5V18.8l.2-.1c.4-.1.6-.5.9-.7l.1-.1-.2-.1c-.1-.2-.2-.2-.8-.3h-.2l.2-.1h.4l-.1-.1a25.5 25.5 0 0 0 .2-.2l.1.1h.2l.2.1v.4h.2v0h.1l.6-.7v-.1h.2l.2.4h.4V17v-.4h.2v.4c0 .1.1.1.1 0 .1 0 .3 0 .4-.2h.2c.2-.2.2-.1.3-.1l.1-.1.4-.2.2-.1.1-.5v-.2-.2c.2-.5.2-.5.4-.5l.2-.2h-.2l.2-.2.2-.2a84.5 84.5 0 0 0 0-.2v-.2-.1-.2-.2h-.2l-.2-.1h-.2l-.1.1a88 88 0 0 0-.3.7l-.1.2h-.1l-.2.1-.6.7h-.2v.1l-.2.2a1.2 1.2 0 0 0-.3.4H35a17.3 17.3 0 0 0-.2.2v-.6-.2l.1-.2.1-.2h.1c.4-.4.8-.7 1-1.1h-.4l-.2.2h-.1l-.2.4H35l-.4.4.2-.4.1-.2v-.2l.2-.2v-.1h.1V13.2h-.1v-.5c.6-.2.6-.2.7-.5H36.2l.2-.1v-.5l-.1-.1v-.1-.3h.1v-.3h.1v-.1h.1l.1-.1.4-.2v-.2l.2-.1.2-.1a2.8 2.8 0 0 0 .6 0l.6-.3.2-.2.4-.3h-.1c-.2-.1-.2 0-.2 0V9 9v-.1H38.7l-.2.2-.1-.2-.2.2c-.2 0-.3.1-.3.2l-.2.2-.1.1-.2.1v.2l-.3.2-.2.2v.1h-.1l-.6.5H36v.3h-.4l-.2.1v.1l-.4.3v.2h-.2l-.2.1a22.7 22.7 0 0 1-.1.3 32.3 32.3 0 0 1-.3.5 65.5 65.5 0 0 1 .4-.3v.2a21.6 21.6 0 0 0 0 .2c-.1.1-.1.1 0 .1h.2v-.1H35l-.4.4h-.1l-.7.5H34l-.3.2c-.1.1-.2.1-.2 0v.1h-.1l-.2.1-.2.1-.2.2h-.2v.1h-.1l-.2.1-.2.1v.1l-.2.3c.1.1 0 .2 0 .2h-.2.1v-.2-.4l.1-.1.2-.1.2-.3.2-.1h-.2.1l.2-.2h-.2c0 .1-.1 0-.1 0v-.3c-.2 0-.2 0-.6.6H31.4h-.1l-.2-.1V14h-.4l-.2.2.1-.2-.1-.1v-.2-.2h-.3l.3-.3h-.1l-.2.1.2-.3.3-.4v-.1h-.5l-.2-.1H30a48.2 48.2 0 0 1-.7.5H29.6l.2-.1h.4l.2-.1v.1l-.5.2h-.1l-.1.1h-.2l-.2.1-.6.4-.1.2-.6.4V14h.2c.1-.3.1-.3.5-.6l-.4.3.1-.2.3-.3v-.3h.2v-.1h-.2l-.2.1h-.2-.1-.1-.5v-.1c0-.2.2-.3.3-.4l.8-.4.1-.2v-.2l-.2.1h-.1-.1v-.1l.1-.3v-.1l.1-.1V11v-.2l.3-.3v-.2-.1l-.1-.1-.2.1h-.2l-.2.1.2-.1a56.2 56.2 0 0 0 .3-.2l.3-.2-.4.2c-.1 0 0 0 0 0l-.3.1H28l-.2.2h-.1.1a29.3 29.3 0 0 0 .2-.2l.3-.4.2-.1.1-.1.1-.1.3-.3.6-.5-.5.2-1 .4h-.4l-.2.2h-.3l-.2.1.2-.1.4-.2h.5V9h.2l.3-.2v-.2L28 9h-.1v-.1l-.7.2.2-.2.2-.1h-.3V9L27 9l-.4.2.1-.1-.5.2-.2.2h-.1l.2-.1.1-.1h.1v-.1h.1V9h.1l.1-.1a47.5 47.5 0 0 1 .4-.5l.3-.2V8l.2-.1v-.1h.1l.1-.1h-.1v-.1h-.2.1l.2-.4V7h.1l.1-.2.2-.1H28v-.1-.1h.1v-.1h.1v-.1l.3-.1V6h-.1.1l.3-.2h-.2-.1.2l.2-.1.2-.1v-.1h-.5a7.4 7.4 0 0 0-.1 0h-.1-.1l-1.3.3-.3.1-.2.1h-.2c0-.1 0 0 0 0V6h.1a6 6 0 0 0-1 .4h-.1l-.6.4h-.1a10.4 10.4 0 0 0-.4.3H24l-.1.2-.3.1h-.1l-.1.2-.1.1h-.1l-.1.1c0-.1 0-.1 0 0H23l-.3.2h.1-.2.1c0-.2.2-.2.2-.3l.2-.1.3-.2.4-.2h-.1-.1l-.3.1c-.1 0 0 0 0 0a9.4 9.4 0 0 0-.4 0v.2l-.5.2h-.1l-.1.1a60.6 60.6 0 0 0-.3.2l-.4.3a13.6 13.6 0 0 0 .1.1l-.4.3h.1c-.2.3-.5.4-.8.6a51.5 51.5 0 0 0-.4.2h-.4.2v-.1l.2-.2-.3.2-.5.3h.1l.1-.2-.5.3-.2.2h-.2v.1c-.2 0-.2.1-.3.2l-.3.2-.2.2-.3.2-.2.2a42.3 42.3 0 0 0-.3.2l-.4.4v-.1l.3-.1a3.4 3.4 0 0 0 .3-.2l-.3.2-.2.2h-.1l-.2.2h-.1l-.1.2a4.6 4.6 0 0 1-.4.2l-.1.2h-.2l-.2.2.4-.1-.5.4-.1.1-.1.1h.2V13l-.1.2-.1.2h-.2l-.4.4-.5.4a39.5 39.5 0 0 0-1.5 1h-.1l-.2.1v.1h.1l.1-.2.2-.1V15c.1 0 0 0 0 0a21.8 21.8 0 0 0-.1.3l.1-.1v.1l.3-.2-.2.1.2-.2h.1l.2-.2h.1l.1-.1.4-.2.1-.1h.2l.1-.2h.2c0-.1 0 0 0 0l.1-.1c.2 0 .2 0 .3-.2h.1l.1-.1.3-.2.4-.4.8-.4-.1.1.3-.2h.1l.3-.2.5-.2h-.1v.1a34.8 34.8 0 0 1 .1 0l-.2.2-.4.3v-.2h0-.1l-.8.6H16l-.2.2v.1h-.2l-.3.3H15.5l.1-.1.3-.2v.1l.2-.2-.1.2a6.8 6.8 0 0 0 .2 0l.2-.2.2-.1v-.1h.1l.4-.4V13.3h.1l-.2.1-.1.2h-.1v.1h-.1v.1l-.3.2h.1l-.2.2-.1.1v.1l-.1.2-.1.2h.1V15.2l-.1.1v.1l-.1.1v.2a8 8 0 0 0 .2 0H16l-.5.6h.2l-.6.5v.2l-.2.2v.1l-.1.2h-.1l-.3.5-.2.2-.1.3.1-.1v.2c.2-.2.3-.2.5-.6v-.3l.1-.1H15.2l-.2.2.4-.4.2-.1-.4.5v.2l-.2.1c0 .2-.1.2-.2.3l-.1.2-.3.3c0 .1 0 .2-.2.2v.2l-.1.1-.2.2v.1l-.2.5-.3.3-.3.2c.2 0 .3 0 .3-.2v.2l-.2.1-.2.3v.1l.2-.2.1-.1-.2.3-.2.3v-.1l-.3.4v.2l.4-.4-.1.3h-.1-.1l-.2.2-.3.3v.1l-.3.3v.1c-.4.4-.4.4-.4.6v.1l.2-.2h.1c0 .2-.2.3-.3.5-.2 0-.2 0-.3.4h.1V24l-.2.6v.1h-.2l.1.2-.3.3v.1l-.1.1c-.2 0-.2 0-.3.3l-.1.2H10.4v.2l-.2.1v.1l.1.1H10.7v.2l-.2.3v.1l.2.1v.1l-.2.3a59.3 59.3 0 0 1 0 .6l-.1.2c0 .2 0 .4-.5 1h.1l-.4.6.1-.4h.1l.1-.2v-.2a8.8 8.8 0 0 0-.2 0A48.9 48.9 0 0 0 5 38L5 39l-.2.5.1.2.1-.2v-.1h.1v.1L5 40v.3l-.1-.3-.1.2v.8l-.1.1v.4l-.1.3V43.3h-.1v.3l.1.1.1.2c0 .2.2.3.3.4v.5l.1.4v.2l.1.2v.5a681 681 0 0 1-.1.6V47.3c.2.4 0 .9 0 1.3h.1v.5l.2.1v.2c.2.4 0 .8.2 1.1v.4l-.1.4v.2h-.1-.2l-.1-.1.2.8.1.2v.2l.2.2.2.3v.2l.1.1V54.2H6V55.3l.2.1c0 .6.4 1 .5 1.6v.4l.1.1v-.2c.6-.5-.2-1-.3-1.6v-1-.1-.2l-.1-.2V54v-.1-.2-.4l-.2-.1v-.4L6 50.8c-.1-.1-.1-.1 0-.2h-.1l-.1-1.2v-.2-.1a37.4 37.4 0 0 1 0-.9v-.6-.1l.3.5.2-.2.1.6v1l.2 1.3v.4c0 .2 0 .3.2.5v.5l.1.2.2.1a62.5 62.5 0 0 0 0 .4l.2.8.2.3v.1h.1l-.2.6.1.2.1.4v.1l.5 1.1.1.2v.1l.1.3v.2a21.3 21.3 0 0 0 .2.3v.3l.1.1v.4h.1v.3l.2.2.1.5v.5c.3.4.2.5 0 1l.1.2c-.2.3-.2.3.3 1.5h.1l.2.2v.1l.1.2v.1l.2.2.1.1.1.2v.2l.2.3.4.2v.2h.3l.4.6.1.1.2.2.5.5.3.2h.1v.1h.2l.3.3.1.2h.1v.2l.8.2c0 .2 0 .2.5.4l.2-.2.5.2a30.3 30.3 0 0 0 .1 0h.2l.4.1.2.1.2.3h.2l.2.4.1.1v.2l.1.2h.1l.7.8v.1h.1v.1l.4.2.2.2.4.3v.2l.4.1h.1a139.6 139.6 0 0 0 .8.4h.2c0-.2.2-.2.3-.1v.3h-.1v.2c.2 0 .3.2.4.4v.1h.1v.1l.1.2.1.2.2.2.1.2.1.1.1.3.1.1v.1l.1.2c-.2.2-.2.2.2.8l.1.1h.2v-.4l.2.1.2.5h.3v.2l.3.3a24.3 24.3 0 0 1 0 .4h.1v.1h.1V75.7l.4.5h.4c.1.2.1.2.5.2l.2.4c.3 0 .4.3.6.5l.2-.1.1-.1v-.2-.1H26l-.2-.1.2-.2h.1l.2-.3h.1l.1-.2.3.3v-.6l-.4-.2zm1.3 6v.1zM38 8.8l.1-.1h-.2c-.2.2-.2.2-.3.1h-.1l-.1.1-.1.1h-.1l.1-.2-.3.1-.4.2-.1.1v.2l-.2.2-.2.1-.1.1h-.1l-.2-.1.3-.3H36h-.1l-.2.1v.1l-.2.1-.3.4h.1v.1l.1-.1h.1l-.2.4c0 .3 0 .3-.4.6l.6-.2h.5l.2-.1.2-.2.2-.2.5-.4-.4.1.2-.1c0-.2.2-.2.3-.3h-.2l.2-.2h.3c.2-.3.2-.3.4-.3v-.2H37.4l.5-.2zm26.6-4h.1zm-8.8 4.8l.2.3h.2v-.2h-.4zm-17-1l-.1.1zm8.7 1.3h-.2.2zm8.8-.6zm-17.9-.8h0zm-4.6-1.3l-.1.1a153.5 153.5 0 0 0-1 .5c-.3 0-.4.2-.6.3h-.3l-.6.4c-.3 0-.4.3-.6.5h-.1l-.2.1H30.6l.5-.2h.1l-.1.2.4-.1h.2l1.1-.6.5-.1h.3V8h.7l.1-.1.2-.1.3-.3.1-.1v-.2h-.2c0-.2 0-.2.4-.5H35h-.1-.4l-.1.1-.6.2zm22.2 2h-.1V9h-.1l.1.2h.2L56 9zM42.3 9V9zM37 7.4h-.2.1zm1 .2l.4-.3c-.2 0-.3.2-.4.3zM48.2 0h.3a1.4 1.4 0 0 1 .1 0h.4-.1-.2-.4zm1.6 0h-.1zm5.8 8.5l.3.4h.2v-.2l-.1-.1h-.2l-.2-.2zM39 8.6h.1l.5-.4h.1l.2-.3.1-.1v-.1H40l-.2.1-.2.1-.1.1-.2.1-.2.1h.1v.2c-.1.1-.1.1 0 .1v.1zM50.7.1H50.7zM40 7.5H40a69.1 69.1 0 0 0-.5.2H39.9l.2-.1zm-.1 0zm-.2 0h.2-.2zm19.4-5.9H59zm-19 6l.2-.1h-.1zm2.8.6l.1-.1h.1l.1-.1h-.2s-.1.1 0 .1v.1zm-6-1.9h.4l.3-.2h-.2l-.2.1-.6.2-.2.1.6-.2zm21.3-4.9h.2-.2zm-3.5 6.3l.3.3h.1l-.2-.2-.2-.1zm0 0v-.1zM38.3 6H38v.1l.2-.1zm.6 1.2h-.1-.2l-.1.1h.5v-.1h.2l.2-.2.2-.1h-.1l.4-.3h-.2-.1l-.4.3h.2c-.2 0-.3 0-.5.2h0zm28.8-1.4l.4.1a114.2 114.2 0 0 0 1 .4H69h-.1l-.1-.1h.1l-.1-.1.5.1h.2l.1.1v.1h.3a51 51 0 0 0 .2.1l.2.2v-.1c-.1 0-.1 0 0 0h.1l-.2-.2h-.1.1v-.1l-.4-.1h.1V6h-.1-.1V6H69l-.3-.1-.7-.3c-.3 0-.6-.2-.8-.3l-1-.3h-.1 0a10.9 10.9 0 0 0-.1 0h.1l-.6-.3h-.2v-.1l-.5-.1h0l-.6-.2-.4-.2h-.1V4h-.3l-.2-.2H63 63l-.1-.1-.4-.2a.5.5 0 0 1-.2 0v-.1H62v-.1h-.2l-.3-.2h-.1-.1-.2l-.4-.1h-.4.4l.3.1H61h.1l.2.1a.5.5 0 0 1 .2 0v.1h.1l.2.1a13.6 13.6 0 0 1-.2 0 1.5 1.5 0 0 0 .1 0l.4.2h.1l.1.1h.1l.8.3v.1H63.6v.1h.2l.2.1a2.7 2.7 0 0 0 .3.1H64a26.8 26.8 0 0 1 .4.2h.2l.4.2h.1V5h.4-.1.1a3.7 3.7 0 0 1 .2.1l.2.1a2 2 0 0 0 .2 0h-.1l.3.1.2.2h.1l.5.2h.1l.4.1zm-26 1.4l.4-.3H42l-.3.3zM40 6.4l-.4.2h.2l.2-.2zm-1 1.6a2.5 2.5 0 0 1 .1 0l.1-.2.2-.2h.2v-.1l.3-.2.1-.1.3-.2.1-.1v-.1h.2l.1-.2-.2.1-.3.1h.2v-.2l.3-.1c-.3 0-.5.1-.4.2h-.3L40 7l-.1.1a8 8 0 0 0-.4.2v.1a2 2 0 0 1-.2 0l.3-.1s0-.2.3-.4h.2v-.1l-.3.1-.4.3-.4.3v-.1h-.2l-.1.1-.3.2h.7c-.2 0-.5 0-.8.4h.2v.1h.2l.4-.1zm-.4-2l.2-.2h.2l-.4.1zm2.3.8l-.1.1-.1.1v.1h-.1V7.5l.3-.2-.1.1V7.7l-.4.4-.2.1-.3.2-.1.1-.2.2c0 .2-.2.2-.3.3h.1l.2-.1v.1c.3 0 .3 0 .7-.3 0 .2-.2.2-.3.3V9h.4l.2-.1-.2.2h.2l.1-.1V9h.4l.3-.2c-.1.2-.1.2 0 .2h.1v.1h.4l.2-.2V9l.3-.1.1-.2.1-.1v-.1-.1s-.2 0-.1-.1V8l-.2-.1h-.1-.1-.2-.3l-.1.2-.1-.1V8l-.2.1h-.1v-.3L41 8l.2-.2H41v.1l.1-.1H41h.3v-.1h.3v-.2-.1h.1v-.1l.1-.2h-.1-.1-.1l.2-.2h-.2v-.2l-.4.2zm-5.3.8h.4l.2-.1h.1l.2-.1H37l.4-.1-.2.1h.8l.8-.5h.2v-.1l.2-.2-.6.3-.2.1.3-.2h-.1l-.2.1h.1l.3-.2.3-.2h-.3l.3-.1.7-.5-.1.1-.5.2-.4.2h-.2c0 .2 0 .2-.5.4l-.2.2-.2-.2.2-.1.1-.1v-.1l.2-.2H38l.1-.1H38a63.8 63.8 0 0 0-.5.2H37l-.2.2h.1-.4l-.3.2h.2l-.2.2.3-.2-.2.2 1-.4h-.1l-.6.4h.1l.4-.1-.1.1h.2l-.5.2h-.1-.1-.1-.3l-.5.3-.1.1h.1zm22.9-1.9zM45.5 7.1zm53.7 51.6zm.5-12.5V46l-.2-1.4v-.2-.3l-.1-.5v-.2l-.1-.3V43l-.1-.2a246.7 246.7 0 0 1-.1-.7V42l-.1-.3a3.8 3.8 0 0 1 .1.2 30 30 0 0 0 .2.7V42.9l-.1-.8a44.7 44.7 0 0 0-2.2-8.2 48.9 48.9 0 0 0-3.4-7.7l-2.2-3.5c.6.8.9 1.5 1 2.3A49 49 0 0 0 73.2 8.2h.1v.1a12.3 12.3 0 0 0 .3.2l.3.3.2.2h.1l.4.4.7.3.1.2.1.1v.2a28.2 28.2 0 0 1-1.2-.8 7.4 7.4 0 0 1 0-.2H74 74l-.2-.2h-.2l-.2-.1h-.5v-.1h-.4l.5.2h.2l.3.2h.1l.1.1a3.9 3.9 0 0 1 .3.2 10.1 10.1 0 0 1 .5.3h.1l.1.1.2.1.5.4.6.4-.2-.1a19 19 0 0 0-.3 0c-.2-.1-.2-.1-.2 0h.1l.6.6c.1 0 0 0 0 0l.1.1.5.3.2.1.3.1.3.2H77l.1.2H77l-.2-.3h-.4l.3.2a2.8 2.8 0 0 1 0 .1l.3.2.3.1c.3.1.5.2.6.4h.2v.1a29 29 0 0 0 .1.2h-.3l-.3-.2h-.1l-.3-.1-.1-.1H77l-.1-.1a62.5 62.5 0 0 0-.4-.3l-.3-.1-.3-.3-.4-.2h-.1-.4v-.1l-.2-.1-.4-.2-.6-.2-.2-.1H73.9l.2.1H74.4l.3.2-.3-.2.6.1h.1a8.1 8.1 0 0 1 .2 0h.2l.1-.1v-.1c-.1 0-.1 0 0-.1h-.1V11l-.3-.2-.2-.1a10.8 10.8 0 0 0-.3-.3l-.6-.4h-.2l-.2-.1h-.1-.2l-.1-.2h-.6l-.2-.1-.3-.1H71.9c-.1 0 0 0 0 0h-.1-.4c0-.1 0 0 0 0l-.2-.1H71 70.7l-.1-.1-.3-.1.1.1h-.1-.1l.1.2h-.1a1 1 0 0 1-.2 0c-.1-.1-.1-.1 0-.1l-.3-.2V9l-.2-.1-.4-.2H69c0 .1 0 0 0 0l-.4-.1.6.4h.1c-.4 0-.7-.3-.7-.3h-.1l-.3-.2h-.1l.2.2.4.3c.2 0 .3.1.3.2l.3.2-.4-.2a10.5 10.5 0 0 0-.3-.2l-.1-.1h-.1.1l.2.2.5.3v.1l.3.2a12 12 0 0 0 .1.2l-1-.7-.2-.1h.1v.1l-.3-.1.5.3h.1-.3l.2.1v.1l.2.1.2.2h-.2c-.2 0-.2-.1-.3-.2h-.2v.2a10 10 0 0 1 .3.1l.5.2a33.2 33.2 0 0 1-.4 0l.4.1v.1c-.2 0-.3-.1-.3-.2h-.1l.3.2.1.1-.4-.2a32.7 32.7 0 0 1 .1.2h-.1a10.6 10.6 0 0 1 .1.1l.2.1.5.3h-.2l-.1-.1h-.1.2l.1.2h-.1l-.1-.1.3.3h.1v.1l.2.2.4.3V12.4l.2.1v-.2h.2v.2l.4.3-.5-.1.1.1h.2v.2l.3.1.2.1h-.1l.4.5v.4h.1v.1l.2.2h.1v.1l.1.1a3.3 3.3 0 0 1 .3.3v.5l.4.2-.1.3h.1v.3l.1.2.2.4v.2h.1a2.4 2.4 0 0 1 .1.2c.1-.2 0-.2 0-.2h.1v-.1-.1-.2.1l.1.2v.1l.1.3-.4-.1h-.1v.1l.2.4v.2h.2v.1h-.3l.2.1h-.1H73l.1.2h.2l.1.1v.2l.1.1h-.3l.2.2h.2l.1.1h.1l.1.2-.2-.2v.2l-.2-.1.1.2H73.4l.1.3h.4l-.3.2v.2l.3.2H74.2V20H74.5v.1h.1v-.1.2h-.2l-.3.2v.1h.2l.1.2V21h.4v.2h.2v-.3l.2-.1v-.1V20.9l.1.3c0 .1 0 .2.2.3v.1l-.2.1.1.3h.2v.1h.1l-.1-.2h.1v-.1-.1.1l.1.1.2.3.1.3.5.6h.3v-.2l.1.3.3-.2V23v-.1-.2l.1-.1v-.1-.2-.2h.2v-.1-.1-.2-.1l.2.1.3.4h.1l.8.8 1 .7v.1l.1.2h.1c0 .3.2.4.2.5.2.1.2.1.3.4h.2c.2-.1.4-.3 0-.6v-.2-.1l-.1-.2v-.1c.2 0 .3-.1.3-.2v-.2V23l-.2-.3a4.8 4.8 0 0 0 .1.3l-.2-.2a27.2 27.2 0 0 0-.2-.4l-.1-.1V22l-.3-.2-.2-.4-.4-.4v-.2h-.1-.1v-.2l.2-.1h.1v-.3l-.2-.2v-.2h-.2c0-.3 0-.3-.2-.5l-.3-.2c-.1 0-.2 0-.3-.2h-.1l-.3-.2.1.2H78l-.2-.2a2 2 0 0 0-.5-.5v-.1h-.1L77 18v-.1l-.3-.3v-.1l-.4-.3-.2-.2c.1 0 .1 0 0 0v-.3H76l-.1-.1v-.2-.1l-.2-.1v-.1-.2l-.1-.3v-.1a15.1 15.1 0 0 0-.5-.7l-.3-.2-.4-.3v-.1l-.2-.2-.1-.1v-.1l-.1-.1-.1-.2h-.1l-.1-.1H73.9l.2-.2.2.1h.2a39.6 39.6 0 0 0 .4.3l.1.1.1.1.1.1h.1c0 .4.5.5.6.9l.2.2c.1.2 0 .2 0 .2l.3.3.1.2v.1l.2.2v.2l1 .7.2.2.2.3.2.2.2.2v-.1l.5.3H79l-.2-.2h.3l.2.2h.2v.4l.2.1-.1-.3.3.2.2.1v-.1l-.2-.6-.1-.3h.1v-.2-.3h.2c.1.2.4.3.6.4v-.2l.4.2v.2a10.2 10.2 0 0 1 0 .2v.2l-.1-.1.2.4H81v.2l-.1.1h-.1v.5a27.2 27.2 0 0 0 .4.5H81l.4.4a51.7 51.7 0 0 1 .4.4l.7.8c0 .1 0 .2-.2.2l-.2-.1-.1-.1h-.1l-.3-.3v.3c.1 0 0 0 0 0l.2.2.1.2.2.3.2.3c0 .1 0 .2.2.3l.3.5h.1v.2h.1l.3.3v.3a30.7 30.7 0 0 1-.2-.3l.1.6h.2l.2.7-.1-.2-.1.3-.3-.1h.1v-.1H83a67.2 67.2 0 0 0 0 .1h-.2V25.6h-.2v.1l-.2.3c0 .1-.1.1-.1 0v.1h-.7-.2l.1.3-.1.1v.1l.1.1h-.2l-.2-.2-.1.1a.7.7 0 0 1-.3-.2h-.1l-.2-.3h-.1v-.4h-.1v.2l-.2-.1v-.2l-.2-.2v-.2-.1c-.1-.1-.1-.1 0-.1l-.3-.5h.2l-.2-.3c-.3-.1-.5-.5-.8-.6h-.1l.1-.1-.3-.7-.1-.1v.1l-.1.2v.1l.2.3-.2.1H78c0 .4 0 .5.2.7v-.3-.2l.4.2.2.2h-.1-.1c0-.1-.1 0-.1 0v.2l-.2.1.3.6h.2c0 .1 0 0 0 0l.5.8h.1s.2 0 .2.2l.1.2h.1l.2.3.2.3.3.4h.1l-.1.1.1.3v.2l-.2-.2c-.3.5 0 .6.1.7a.7.7 0 0 1-.3-.2h-.2c-.1.1-.1.1-.1 0l-.1.1h-.2v.2l-.1.5v.2c0 .3.4 1 .4 1v.2h-.5v.2l-.1.1h-.2v.1c0 .2-.2.3-.2.3l.2 1v-.1l.1.2c-.3 0-.4.4-.3.6v.1l-.1.1-.5.3-.3-.3h-.2v.2l.2.2v.1h.1l.4.6-.3.2V34H78c0 .1 0 .2-.2.3v.1c-.3-.2-.3-.3-.5-.1v.1c-.2 0-.4 0-.5.3l.3.1v.1l-.1.4h.1l.3-.1.6.4c0 .1.1 0 .1 0v-.2-.1h.1v.4l.2-.1v.1a42.4 42.4 0 0 0 .1.1h.2a154 154 0 0 1 .4.7c.9.4.9.4 1 .9l.3.7s.3 1 .2 1.4l-.6.3a.9.9 0 0 0-.5 0v-.1a17.7 17.7 0 0 1-.2 0 107.9 107.9 0 0 1-.4.2H79h-.2-.1a162.7 162.7 0 0 1-.9.3c-.3-.2-.3-.3-.7 0h-.1V40.6h-.3c0 .1 0 0 0 0l-.1.1-.2.3v.1l.1.3h.1l.4.5-.1.2c0 .2 0 .2.1.1l.2.7.1.1a30.2 30.2 0 0 1 .1.7V45.5h.1l.1-.2v.5h.1l.3.6v.6h.2l.1.1h.5l.4-.2.2-.1.2.2h.1a17 17 0 0 0 .2.3l.1.3h.3l.2-.1.2-.2.2-.2V47h.8v-.1-.1a56.6 56.6 0 0 0 .5-.3l.2-.8.3-.2V45v-.3l.1-.2v-.1a25.7 25.7 0 0 0 .2-.8h-.1l-.3-.5c.1-.1.1-.2 0-.2l.2-.2v-.1-.2l.3-1 .2-.3.4-.8V40a34 34 0 0 1-.3-1l.1-.3v-.1h.1v-.1l.2-.2H84.3l.3.2.2-.2v-.2-.2h.1v-.1l.1-.1.1-.2.1-.1v-.3-.3l.3-.2h.2l.2.1.3.2.2.3.2.2v.3c.3 0 .3.1.3.2l.7.7h.2v.2l.5.2.2.1.5.2.1.1.3.2v.2c.4.1.5.2.7.5a119.7 119.7 0 0 0 .3.6v.2a43.1 43.1 0 0 1 .3.7v-.3l.1-.1-.1-.3v-.7c-.6-.7-.6-.7-.6-1.4.2 0 .4.2.5.3.1.1.2.1.2 0a12.4 12.4 0 0 1 0-.2l-.5-.4-.2-.1-.1-.1a2 2 0 0 1-.5-.3l-.1-.2-.2-.1H89l-.2.1h-.1l-.3-.3-.2-.1v-.2l-.2-.1a24.5 24.5 0 0 0-.1-.2h-.1V37l-.3-.2-.2-.2h-.1-.1-.1-.1l-.3-.5v-.2l-.2-.6-.2-.2V35h.1l.2-.2.1-.2h.1a145 145 0 0 1 .1.5l.3.5h.1v-.2-.1l-.1-.5c.4.2.5.7 1 1v.3h.1l.2.1v.1h.4l.5.3.8.4h.1c.2.1.2.1.2 0v.1l.2.3v.1l.1.3.1.2v.3l.2.2.1.3h.2l.2.3.1.2v.2c.3 0 .3.1.3.2l.2.1h.1l.1.6.3-.2h.2l.2.1-.3.1h-.1v.5l.2.5c.2.2.2.1.2 0h.2v-.3a122 122 0 0 1 .2-.3l-.2-.2v-.2-.1a21.5 21.5 0 0 1 .1-.2l-.1-.1-.2-.1-.1-.3a41.6 41.6 0 0 1 .2.1l.2.1.3.2-.1-.2c-.1-.2-.3-.3-.5-.3l-.2-.3v.4h-.1v-.3l-.2-.3h.2l-.5-.7-.1-.3v-.2h.1l.1.2c.1.2.2.1.2.1l-.1-.3h.1v-.3l-.2-.1-.2-.2.2-.3v.1h.2v-.1l.2-.3.1.2h.2v.5l.1-.1v-.3-.6l.2-.2V36v-.1-.2h-.2l-.2-.2v-.2l-.2-.1-.2-.2v-.3l-.1-.5v-.1l-.1-.3a37.2 37.2 0 0 0-.3-.8v-.3l-.2-.2v-.2-.2l-.1-.1-.1-.3-.1-.1-.2-.9v-.1l-.1-.3v-.2-.2h.3v.1l-.1.1v.1l.2.1.2.1v-.3h.2l.1.9h.2l.4.5v.3l.1-.3v-.1-.3-.3-.1-.3-.3h-.1v.2l-.5-.2H92c0-.2-.1-.3-.2-.3.1-.1.2 0 .2 0v-.2-.2-.1-.3-1.2-.1.3l.1.1v.2l.1.2v.4h.2l.1.2a121.3 121.3 0 0 0 .3.6v.1h-.1l.1.2V30.1l.2.2.2.2h.2l.1.2.1.1h.1l.1.1v.1l.2.2h.2l.1.1.1.2.4.5v.2a4.4 4.4 0 0 1 .3.7v.2l-.1.3v.2l-.2.2-.2.1-.2-.2v-.1l-.2.1h-.2c0 .1 0 .1 0 0l-.2.2v1.3c-.4.3-.4.3-.4.7h.3l-.2.2v.3c0 .1 0 0-.1 0V36.7l-.2.2.1 1v.2h.4c0 .3.2.6.3.8v.5l.3.4.2.2v.2l.2-.1v.2h.1v-.1l.2.1h.1v.2c.2.1.2 0 .2 0a144 144 0 0 1 .2 0v-.8h.2l.3.2c.2-.3.2-.3.2-1v-.3-.3l.3.9v.2l.1.3.4 1 .1.5v.5l.2.5v.2l.1.8v.2l.1.3v.2l-.1.8h-.1a31.9 31.9 0 0 1-.3.6h-.3v.4h-.3l-.2.3v.1H96V46H96h-.8L95 46h-.2l-.1.2-.2-.3h-.2-.3l-.1.1-.2.3v.8h-.1v.3l.2.3c.1 1 0 1-.8 1.2H93v-.1H92.7h-.2l-1-.8h-.1a50 50 0 0 1-.4-.2l-.3.2h-.2l-.2-.1H90c-.1-.2-.1-.2 0-.2H90l-.2-.2h-.1-.1a1 1 0 0 1-.2-.5v-.1-.1-.3-.3h.2l-.3-.6-.1-.2-.2-.5c.2-.5.2-.5.1-.8H89l-.2-.1-.1-.2h-.3v.1l-.2.3-.2.2h-.2a137.4 137.4 0 0 1-.4.5.8.8 0 0 0-.6-.1v.2h-.3a1 1 0 0 1-.5.2l-.6.3-.1.2c-.6.1-.6.1-.8.3l-.1.1-.1.1-.5.7h-.1l-.4.4-.2.1v.2l-.1.3-.3.2v.1h-.4V48l-.2.3h-.1l-.6.1v.1c-.3.2-.5.2-.8-.4h-.2l-.2.6v.8l-.1.2v.2l-.1.4-.2.3-.2.2-.2.3-.3.1-.2.3-.3 1v.4c-.2.3-.1.5-.1.6l-.1.3.1.3c.2.4.2.6.2.9v.1c0 .3-.2.5-.3.8v.2L77 57.8v.2h-.3l-.2.2-.1.3v.2l-.1.3-.3.2v.1l-.1.2v.2c-.2.2-.2.3-.2.5a110.3 110.3 0 0 0-.2.5 43.9 43.9 0 0 0 0 .2v.1h-.1v.4l-.2.2-.2.2v.2h-.1v.5h-.1v.2l-.2.5-.2.5h-.2l-.1.3v.5a37 37 0 0 0 .1.6l.2.3V67.1h.1v1.6l-.1.2v.2h-.1v.1l-.2.6v.3c0 .2-.2.4-.3.5l-.1.3-.2.1c.3.3.3.7.4 1V72.8l.2.5h.5a44.2 44.2 0 0 0 0 .5h.2v.2h.2v.2h.1v.4l.3.3v.5h.3l-.1.3v.2l.1.2-.1.1.3.1v.3l.1.2a47.7 47.7 0 0 0 0 .2h.5l.2.3v.1c.1.1 0 .1 0 .2H77l.1.1h.2l.6.7h.3v.1c.6.3 1.6-.8 1.6-.9l1-.2a12 12 0 0 0 .8 0l.3-.2V77l.2-.1.3-.1.1-.2h.2v-.1l.6-.2.2-.1c.1-.2.2-.2.3-.2v-.4h.1a24.2 24.2 0 0 1 0 .2h.2a30 30 0 0 0 .1-.4V75.7l-.1.1h.1l.1-.2h.2v-.1l.7-.6.2-.1.2-.2v.1l-.1.1.6-.2c0 .3.1.3.3.2v.2l-.1.6v.2a19.3 19.3 0 0 1 0 .3l.4-.2.1-.1a27 27 0 0 0 .2-.2h.2v-.1l.1-.2h.2v-.1h.4l-.1.2.1.1h.1l.1-.2v.1l-.1.2c0 .1 0 0 0 0v.5l-.1.1v.2h-.1a37.9 37.9 0 0 1-.4.9l-.4.9-.2.2v.2h-.1c0 .3 0 .3-.4.9H86v.5h.1l-.2.1V80.4h.1v.3h.1v.2l-.1.2a32.5 32.5 0 0 1 .1.2v.1l-.1.3v.2l-.1.1v.2a62 62 0 0 1-.3.5 28.6 28.6 0 0 0 0 .3l-.1.1-.2.4-.2.3v.1l-.5.7-.2.1v.2l-.2.2v.2l-.2.1c0 .1 0 .2-.2.3-.1.2-.1.3-.4.5l-.1.2a14.8 14.8 0 0 0-.4.3l-.2.3-.2.1-.1.1-.3.3-.1.1-.7.8h-.1l-.1.2a68 68 0 0 0-1.1 1l-.1.2-1 1-.3.3v.1a2.9 2.9 0 0 0-.3.3s-.2 0-.2.2c-.2 0-.3.2-.4.3l-.2.1a17.1 17.1 0 0 0-.5.4l-.3.2-.2.2-.2.1-.1.1-.6.4h-.1l-.2.2-.3.2h-.2l-.2.2-.2.1-.1.1.4-.2c3.3-2.1 4.1-2.6 7.3-5.2a52 52 0 0 0 6.1-6.2 49 49 0 0 0 8.5-14.5l1-2.7.9-3.6v-.2l.1-.2v-.3-.1l.1-.3.1-.3v-.2-.1a17.2 17.2 0 0 1 .2-1.2v-.2-.2-.3-.5-.7-.2a6 6 0 0 1 0-.1l.1-.2v-.1-.3-.1l-.1-.8v-.6-.8-.1-.2-.3-.4-.2V52.4H99l-.1-.3V52v-.3l-.1-.5v-.3-.1-.3l-.1-.2V50h-.1v-.3c-.3-.6-.3-1.2-.5-1.7v-.5l-.2-.2-.2-.5v-.2-.1.1l.1.1.1.2v.3l.2.3h.1V47v-.2c0 .2 0 .4.2.5v.4l.1.2v.1l.2.3v.4l.2.2v.7l.1.3v.1l.2.2v.6a43.4 43.4 0 0 1 .1 1v2l.1.1v.5l.1.2V56.5a25 25 0 0 1-.1 1 10.6 10.6 0 0 1-.1.7v.3l-.1.2c.6-4.1.6-4.7.7-7.9 0-1.4 0-3.2-.2-4.6zm-.6 13v.5l-.1.3v-.2l.2-1.1v.4zM56.8.5zm0 0zm0 0h-.3.5l.6.2H58.3a70.7 70.7 0 0 0-1.4-.2zm0 0zm0 0zm11.5 3.3zm-10-3zM89 19.2c-3.1-3.6-3.4-4-6-6.3A54.8 54.8 0 0 0 63.4 2.1l-3.9-1-.7-.1-.5-.1h-.1-.3l-.1-.1h.5V1h-.2.5l.2.1a11.4 11.4 0 0 1 .2 0h.1l.4.1h.1l.3.1h.4a8 8 0 0 1 .1.1h.2l.2.1-1.2-.2h-.2V1a36 36 0 0 1-.5 0l-.2-.1h-.4a6.5 6.5 0 0 1-.6-.2h-.2H57l-.2-.1h-.2c-.1 0 0 0 0 0h-.1-.1-.3c-.1 0 0 0 0 0h-.3-.2v.1h.1l1 .1h-.1-.4l.1.1H56h-.2l.1.1h.8l.7.1h.4l.2.1h.8v.1H59a5 5 0 0 1-.4 0l.1.1H59h-.1l.6.2h.1a3 3 0 0 0 .2 0l.2.1.4.1h.2V2H61a9 9 0 0 1 .2 0h.1l.1.1h.6v.1H62.2l.3.1.6.1H62.8h.2l.2.1h.1v.1h.2l.2.1.4.2H64.4l.3.1h.2l.6.2h.2l.6.1h.2l1.2.5H68a11.7 11.7 0 0 1 .2 0l.2.1.2.1h-.3l-.2-.1.4.1-.8-.2h-.1l-1.3-.5c0 .1 0 0 0 0v.1H66h-.1H66.1v.1h.2l.1.1.4.1h0l.7.3h.5v.1H68h.1v.1a24.3 24.3 0 0 1-.3 0l-.1-.1a2.5 2.5 0 0 1-.2 0l-.3-.2h-.2a2 2 0 0 0-.2 0l-.2-.1-.3-.1H66h-.2a20.5 20.5 0 0 1-.2 0c.7 0 1 .1 1.4.3H67.4l.2.2h.4l.6.3h.2l.6.2.2.1.5.2.4.2h-.1l-.2-.2-.2-.1c-.1 0-.1 0 0 0h-.1v-.1H70.2l.2.2h.3l.2.1a4.4 4.4 0 0 0 .7.3h.1l.1.1.3.2h.1l-.9-.3a42 42 0 0 0-.6-.3h-.2l-.3-.2.2.2h.1l1.7.8h.1l.7.4h.1l.8.5h.2l.4.3h.2l-.4-.1v.1l-.4-.2-.2-.2-.5-.3H73l-.4-.3-.2-.1c-.1 0 0 0 0 0h-.2l-.1-.1-.3-.2h-.2l-.1-.1-.2-.1H71 71a26.6 26.6 0 0 0-.6-.3h-.2L70 5l-.1-.1h-.2v-.1h-.2a21.6 21.6 0 0 0-.7-.3h-.1-.2c-.1 0-.1 0 0 0l-.5-.2-.5-.2a7 7 0 0 0-.2 0l-.4-.2h-.2l-.5-.2h-.4.1V4a16.2 16.2 0 0 0 .5.2h.3a12.3 12.3 0 0 0 .2.1h.1l.1.1h.2l.7.3h.1l.1.1.2.1.4.2h.3l.2.1h.1l.6.3h.1a214 214 0 0 0 .8.3h-.2l.7.2h.1l.2.1h-.1l.4.1a15.8 15.8 0 0 0 .6.3h-.2l-.1-.1h-.1l-.2-.1h-.2l-.3-.1.2.1a9.4 9.4 0 0 0-.1 0l-.4-.2H71v.1H71h-.2l.3.1.2.2h.1l.2.1c.2.1.2 0 .2 0l.4.3h.3V7h.1l.5.4h0c-.2 0-.3 0-.7-.3l.5.4v.2l.5.3h-.1.1l.1.1h-.2a130.3 130.3 0 0 0-.5-.3h-.2.1l.3.3h.1l.2.1h-.2a50 50 0 0 1 19.3 17c-.1-.9-.4-1.6-1-2.4L89 19.2zm-30-14l.2.2h.3l.5.3v-.1h.1v-.1l-.1-.1h-.1l-.2-.1h-.1-.1-.1l-.4-.1h0zM45.4 7.2h-.1zm-3-1l-.1.1h-.1-.1s0 .1-.1 0l-.3.2h.1v.1H42.2c.2 0 .3-.1.3-.2v-.1zm-1.1 0l.2-.2h-.2l-.2.1h.2zm-.5-.2l-.3.1h.1l.5-.3-.2.1h-.1zm1.5.8h.1l.1-.1.3-.2.1-.1v-.1l-.3.2-.3.3zM58.5 5l-.3-.1H58h.1v.1h.4l.2.2h.1l-.3-.2zM36.8 6H37.2h-.2l.5-.1-.4.2a44.8 44.8 0 0 0-.1 0h.4l.4-.2h.1a23.1 23.1 0 0 0-.3 0l1-.3-.2.1.5-.1c-.3 0-.5.1-.8.3h.5a4 4 0 0 0 0-.1h.1l.5-.3-.1.2.7-.3.6-.3H40l-.2.1h-.2-.6l-.4.2h-.2-.1-.2l-.2.2h-.1-.1-.1-.4v.1l-.2.1H37l-.3.2h.2zm4-.7H40.4v.1h-.1-.2l-.9.4V6h-.1.4l.6-.3h.3l.4-.2v-.1h-.1zm-.8 0h.4l.4-.2h-.1l-.7.2zM58 4.5h.1l.2.1H58zm-.2-.2h-.2.1l.2.1h-.1zm-16.5.8h.2V5l-.5.1h.1l-.1.1h.3zm15.4 0l-.4-.2.5.2h.1a3.6 3.6 0 0 1 .3.1l-.5-.1zM41.2 5v.1H41h.4l.4-.2h-.2-.1-.1l-.3.1zm3.2.5l-.1.1h.1zm-1.8 0h-.2v.1c0 .1 0 0 0 0v.1h-.1-.1V6l-.3.3h-.1.4l.2-.1V6h.2l.2-.2v-.1l.1-.2.2-.2-.6.3zm-.5-.4h.1l-.3.1a8.2 8.2 0 0 1 .1 0h-.1-.1v.1h-.1a13 13 0 0 0-.1.1h.4l-.1.1-.2.2-.1.2h-.2v.1l.4-.1.2-.2.4-.2v-.1h-.1l.3-.2.1-.1h-.2.2l.1-.2-.4.2.1-.1h.1V5h.1v-.1h-.1l-.3.2h-.1.1l-.3.1zm4 .4h-.2v.2l.2-.1v-.1zm8-4.2h1.1c.2 0 .6-.1.8 0h.1v-.1H56h-.5c-.2 0-.3-.1-.4 0v-.1h-.2-.2a15.2 15.2 0 0 1-.2 0v.1h-.2.2l-.4.1zm1.1.3h-.1-.6.7zm.9 1.4h0zm-.2-.3h0zm.3.3a34.6 34.6 0 0 0-.1 0h.1zm4.2 3.3v-.1l-.6-.3h.1c-.2 0-.3-.2-.5-.3l-.5-.2-.3-.2h-.2l-.6-.3-.4-.2h-.1c-.4 0-.7-.2-1-.3l.2.1h-.3l-.3-.2h-.4l-.2-.1h.1l-.5-.1 1.3.5h.2l.4.2a8.2 8.2 0 0 0-.2-.1h-.1-.1l-.1-.1H56l-.2-.1-.4-.2.6.3h-.2l-.2-.1h-.1v-.1h-.3-.1.1l.6.2h-.2.4a3.5 3.5 0 0 1 .1.1l.7.3h.1l.4.2h.1l-.2-.1L57 5h0a61.8 61.8 0 0 0 .5.1H57.8l.2.1v.1h-.2.1l.1.1h-.2 0l.7.3-.2-.1h.1v-.1h.1v.1l.5.2h-.3l.7.3h.5l.6.3zM55.7 3h-.1zm-.3-.1h0zm-11 1.6l-.2.1-.3.2h-.1l.6-.3zM52 5v-.1.1zM56 2.9h-.2-.2-.2.6zm-.6 0h.2-.3.1zM55 4h-.1zm.2-1.1H55h.9-.5-.2zm0 .1H55h-.1.2zm1.5 1.3a19.3 19.3 0 0 0-.2 0l-.6-.3H55.2h.3-.3-.2l.5.1-.7-.2a49 49 0 0 1 .5.2H55v-.1h.1a4 4 0 0 1 .2.1H54.8h-.1l-.2-.1h-.2.3l.2.1.3.2h.5l.3.2h.1v-.1h.2l.2.1h-.2l.4.2v-.1h.6l-.6-.3zm-1.8-1.3zm-.1-.1h-.1zm1.1.4h.4-.2-.1-.2V3h-.2-.1l-.1-.1h-.5H54.7h.5v.1h.5l.1.1zm-.3 0H55.4 55.5 55h.1V3h-.2.2-.1-.3-.1-.1H54.8v.1h.3l.3.1zm-.5-.5H54.9h-.1a31 31 0 0 0-.2 0H54h1zm-2.3-.9H54.2l.2-.2H54h1.2v-.1h-.1-.3v-.1h-.2-.2-.3l-.1.1a21.4 21.4 0 0 1 .4 0h-.6H54.2 54l-.8.2h-.1-.1-.1l-.1.1h-.1-.1zm0 .2h.5H52.8h-.1zm1.5.8a4.2 4.2 0 0 0-.3 0h.3zm-.4-.2h.4a30.4 30.4 0 0 1 .3 0H54.4 54 53.6h.2zm.1.2h-.2H54zm-.2-.1h-.4.4zm0 0a1.3 1.3 0 0 0 .2 0h-.1H53.1h-.1.6zm-.5 0h.4-.3-.3.2zm0 0a.6.6 0 0 0-.2 0H53.3a2 2 0 0 1-.1 0zm0 0h-.3.2zm-.5 0h-.1-.1.2zm-2.1 1v.1zm1.8-1h-.1.1zm-1.9 1l.2.2-.2-.1zm1.6-1h0zm-.4 0h.4-.4zM49 3.8v-.2V4zm2.3-1.2h.2-.1-.1zm-4 1.6zm0 0zm-4.1 1.7l-.3.2h.6l.4-.2.1-.1.1-.1h.2v-.1l-.2.2.2-.1a1.6 1.6 0 0 1 .1 0h.1a11.1 11.1 0 0 1 .1 0v-.1H44.9v-.1l.4-.3-.2.1v.2h-.1-.2v.1l.1.1v.1h-.1H44.4v-.1h-.1-.1v.1H44 44l-.3.2-.3.3.2-.1h.1l.5-.2-.1.1-.1.1-.2.1-.2.3h.2a1 1 0 0 0-.2.2h-.1l-.1.1h-.1c0-.2 0-.2.2-.3h-.1c.1-.2.1-.2 0-.2-.4 0-.4.4-.8.5h-.1-.1-.1l-.2.2-.5.4.1-.1h.1v.1h.2l.1-.2v.1l-.1.1h.2v-.1V7.7a109.5 109.5 0 0 1 .2 0v-.1h.1l.1-.2h.1l.3-.2-.2.2-.1.1h.2c.2 0 .3 0 .4-.2l-.1.2h.1l-.1.2-.2.2.4-.2.2-.1v.1h.1v-.1h.1l.3-.3H44v-.2V7h.4v-.1l.2-.2v-.1h.1l.5-.1v-.1h.1v-.1h.2l.3-.3h-.1v-.1h-.1-.1-.1-.1V6l.2-.3h.1v.1h.1c.2 0 .1-.3.1-.3h.1v.1h.1v-.2h.1s0-.1 0 0v-.1.2l.2-.1h.2v-.1h.1c.1 0 .2 0 .3-.2V5h.2v-.1h.1v-.1l.2-.1.4-.2.1-.1.2-.2V4v.1H48h-.1.1V4h.1l.2-.2.1-.2.2-.1v-.1-.2-.1l-.1.2h-.1v.1h-.1v-.1h.1l.3-.3h-.1l-.2.1-.2.2.2-.1h-.1a1 1 0 0 0-.3.1l-.2.2h.1l.2-.2H48l-.2.1-.1.1v.1h-.1l.2-.2h-.1l-.3.3h-.1l.2-.2-.2.2.2-.2h.1v-.1h.1l.1-.2-.2.1v.1h-.1c-.2 0-.3.1-.3.2h0L47 4h-.1l.2-.1-.2.1-.1.1.3-.3-.2.1.3-.2-.5.3v-.1l-.2.1-.2.1h.2a15.4 15.4 0 0 1-.4.1l-.1.1h.2V4H46.5 46v.1a4.8 4.8 0 0 1-.2 0l-.2.2h.4a16.5 16.5 0 0 1-.1.1l.5-.2-.2.2h.1v-.1h.5v-.1h.1l.1-.1-.1.2h-.1-.1l-.2.1h.1v.1h-.1v.1H46a13.4 13.4 0 0 0-.1.1l-.2.2-.1.1s0 .1 0 0v.1h-.1l.2-.2v-.1l.2-.2-.4.1h-.1l-.4.2.4-.2a3.9 3.9 0 0 1 .1-.1l.1-.1h-.1-.1-.1v-.1l.2-.1.5-.4h.2v-.1H46h.1l-.4.3V4l-.2.1v.1h.2-.2l-.2.1-.4.2h-.2v.1h0V5h-.1v-.1h-.2l-.2.1-.2.2v.1h-.1s-.2 0-.3.2h.4-.2l-.1.1h-.1l-.3.2-.2.2zm12.5 3.3h.1v.1zm-6.5-6.4l-.1-.1v.1l.1.1V3l.1.1v0L49 3V3.4h.1l.2.4v-.1a3.6 3.6 0 0 0-.1-.1v-.1h-.1V4h.1a5.9 5.9 0 0 0 0 .2h.1v.1h-.1v-.1l-.1-.1v-.2l-.1-.2v-.1l-.1-.1a33.7 33.7 0 0 1 0 .3v.4s0 .1 0 0h-.1V4 4l-.1.2v-.1-.2-.1-.1.1h-.1-.1l-.2.2V4.4s-.1 0 0 0v-.1V4l-.3.4v0l-.2.1v.1h-.2l-.1.1h-.1v.1a2.8 2.8 0 0 1-.2.2v.2h.3l-.2.2v.1c0 .2 0 .2-.2.3a8.8 8.8 0 0 0-.2.2h-.1a5.4 5.4 0 0 1-.1 0h-.1-.2s0 .1 0 0l-.1.1h-.1-.1l-.1.1H46l-.2.2-.1.2-.1.2V7h.1c.2 0 .2 0 .3-.2v.3h.4v.1h-.1a6.8 6.8 0 0 1-.3 0l-.5.2v.1h-.2v-.1h-.1v.2H45s0 .1 0 0v.2h.2V8H45v.4h.1v.1h.2v-.2l.2-.2v.2l.3-.1v.2l.2-.1h.2l.1-.1.1-.1v.2H46.8c.2.1.2.1.3.5h.2V9.4h.1v.2h.2v.4l-.1.1-.1.1h.2V10.4l.1.2v.5h.1v.5h-.3v.5l-.1.1h.1l-.1.5H47.7v-.2l.1-.2v.2h.4l.2.2h.3l-.1.1v.1h.3v.2h-.2l.2.1-.2.2.1.2V13.9l-.3-.2-.4-.3a25.7 25.7 0 0 1-.5 0V13.8l.1.1h.1v.2h-.2s-.5.7-.4 1h.4v.1h-.3l.1.2H48l.1-.2.2-.1c.1-.3-.3-.8-.4-1a6 6 0 0 0 0-.1 14.4 14.4 0 0 1 .1 0h.1v.2h.1v.2h.7a8.9 8.9 0 0 1 0 .2v.2l-.1.1v.3h.2v.5h-.2v-.2l-.1.3v.1l.1.2-.4.2s0-.1-.1 0l-.1.1H48v.1H48.8v.2h-.5-.1v-.1H48v.1l.3.3-.2-.2-.4.4v.2a18.7 18.7 0 0 1 0-.1h.1l.2-.2h.4v-.1.2h.3l.1-.3h.1V17.1h-.1v.2h-.3-.1l-.1-.1h-.1V17H48l-.3.2v.1l-.2.2v.2h.2v.5h-.1v.2h.1l-.2.1v.2a23.3 23.3 0 0 0 .2 0h.1l-.1.1v.2h.3l.1-.1h.1a1 1 0 0 0-.3.3l.2.2-.1.1v.2h.2V20.5l.3-.3.2-.2h.1v.4h-.1v.2h-.4v.2h0V21.4h.3V21.9h.1v-.2h.2V22.4l.3-.2v.5l.1-.1.1-.1h.2l-.1.3h.2V23l.1.1v.3h.2s0-.1 0 0H50v.2h.1v.3H50.3v.3h.1V24h.4l.1-.1.3-.5v.6H51a19.9 19.9 0 0 0 .3 0v.2h.2V24l.2.1h.1v.2l-.1.3.2-.3v.4h.2v-.3h.1V24.6l.2.1v.1H52.8v-.2h.1v-.2h-.2l.1-.3h-.2V24h-.1V24h.2v-.5l.2-.2V23h-.1V23l.1-.1v-.3h.1l-.1-.1v-.3l.2-.1v-.3h-.2v-.3h.2v.2h.2l-.1-.6-.1-.1h.3v-.4-.3H53V20h.4v-.3l-.2-.6h.2V19l.1-.1h.6v-.1l.1-.1.2-.2c0 .3 0 .3.2.4l.1-.2v-.3l.3.2v-.3h.1l.1-.2v-.3l.1-.1.1-.2.3-.5v-.1-.2h.2l-.1-.5h-.1l-.2-.3v-.2.2l.5.2h.4v-.3l.2.1h.1v-.2h.4v-.1h.2v-.1l.3-.3-.1-.3.2.1v-.1-.2h.2l.2-.2.1-.1h.1V14 14v-.1-.5H58h-.1-.2v-.1h-.1-.2l-.2.1v.1h-.3-.1v-.1a68.2 68.2 0 0 0-.2-.1h-.3l-.2-.1c-.1-.2-.1-.2 0-.4h.5v-.1h.2l-.1-.3h-.1l-.3-.1h-.4v.1h-.2.1v-.1l-.2-.2V12l.2.2h.2V12a30.3 30.3 0 0 0 .2 0h.2l.2.2h.3c.5.6.8.8 1 .9h.5l-.1-.2h-.1v-.2H58l-.1-.2-.4-.4v.1l-.2-.2h-.1l-.2-.2c-.4-.4-.6-.3-.7-.3h-.1v-.2l-.2-.2v.1h-.2v.2l-.3-.2v-.1h-.1l-.1-.2v-.2h.2v-.1-.1-.1h.1v-.3.2h.2v.1h.4l.2.1v-.2-.1a12.8 12.8 0 0 1 .1-.1l-.2-.2h-.1l-.1-.1v.2L56 10l-.3-.5h.1l.2.1a17.4 17.4 0 0 0 .2 0l.3.2v-.2l-.3-.2v.1H56c0-.2-.1-.2-.2-.2l-.2-.2-.3-.3h.2l.2.1-.1-.2-.7-.7h-.2V8l-.2-.1h.1v-.2h-.1v-.2h-.1.5l-.2-.1-.2-.2-.2-.2V7h-.1-.1l-.1-.2a7.6 7.6 0 0 0-.1 0v-.1h.1c-.2-.2-.3-.2-.4-.1h-.1v-.1h-.1l-.2-.2H53.5l-.2-.2V6l-.1-.1-.1-.1-.1-.2-.3-.1.1-.1-.3-.4h-.3l.1.1h-.1L52 5l-.1-.1h.4l-.1-.1-.1-.1a14.2 14.2 0 0 0-.3-.2v.1h-.1v-.1-.2h-.1v-.1h-.1V4l-.2-.1-.2-.1h-.2V4l.2.1H51 51V4h-.1l.1.1v.1l.2.2H51a10.8 10.8 0 0 1 0-.1l-.1-.1-.2-.2a2.2 2.2 0 0 1-.1-.1h-.2l.2.1h-.1l-.3-.2H50V4l-.1-.1v-.2H50.4l-.1-.2-.5-.3h-.1 0l-.3-.2h.1l-.3-.2z"/></g></svg>