<svg width="94" height="105"><path d="M8.3 0l-.2.1v.2L8 .5h-.1l-.1.2h-.2V1l-.2.3h-.1l-.1.1-.9.2-.5.1H5.5V2l-.1.2-.3.6L5 3h-.4V3h-.2v.1L4.1 3H4l-.3.7-.2.3-.9.8h.5l.1-.2h.2v.2l-.1.2h-.5l.2.6.4.5.4.9.2.4v.4l.2.2V8l.1.1v.4H4l-.2.1v.1l-.2.5v.5l.4.6.4-.2.7-.1h1.2V7.9l.1-.8V5.6L6 5.2h-.1V5H6l.7-.2.3-.2.1-.3v-.1h.1l.3-.1h.2v-.2l.1-.2.1-.1.4-.2V3l.1-.2.1-.1.1-.2.3-.1 1.5-.3.2-.1v-.3l-.3-.1-.5-.6-.3-.3-.1-.1-.1-.4L9 .2V0h-.7V0zm8 11l-1.3.2-.6-.1H13l-.2.2h-.3l-.3-.2h-.7l-.4.2H9.8v.2l-.2.2-.2.2-.6.3h-.6l-.1.1h-.2v-.1h-.2l-.3.2h-.5l-.2.2h-.2l-.7.1h-.4l-.2.1H5l-.3.2v-.1l-.1-.2h.2l.1-.1h-.2l-.2.1v.3l.1.2.6.7.2.4.1.4.1.4.4.6.7 1.3.6.5.6.8.6.8H8.8v.7l.2 1.5v.2l.1.2v.1l.3.2v.1l.7 1.8 1 2.4.5.9v.3l.2.3.1.3.1.2.1.3.1.1.7 1.1.1.2V30.8h-.1l-.2.1.1.2.1.6v.2l.3.3v.5l-.2.4H12.3v.2h-.1l-.2.1-.3.2v-.1l.4-.4H12l-.2.1-.2.3v.4l-.2.2-.1.2-.1.2-.1.1H10.8v.2l-.5.7v.1H10v-.3l.4-.6.5-.5.2-.2-.4.1-.4.6-.3.6v.4l.2.2.2.5.6 1h.1v.2l.2.3v.6l.3.7V39.5l.1.2v.2l-.2.2V40.4l.6.7.3.3.1.3v.7l.4.7.3.3.1.2v.4l.2.1.4.6v.4l.1.5v.1l.1.2.5.4.7.8v.1h.1l.3.3.1.2v.2l-.2.3v.4l.7 1 .1.2V51.1l-.1 1.1V52.5l-.2.2v.8H16v3.1l-.2.7V57.6l-.2.2-.1.2-.1.5-.1.3-.2.5-.2.6-.3.3-.2.3-.1.1v-.1l.1-.1-.5.4-.2.2V61.6l-.1.2-.2.2-.4.3-.2.2h-.7l-.3.2-.3-.1h-.2l-.3.3-.1.2-.1.1-.2.1-.5.5H10l-.3.4-.1.2v.3l.2.2V65.5l-.5.6-.2.2-.3.2-.5.7H8l-.1.2h-.2v.1l-.3.1v.2h-.1v.5h-.2l-.1.2H7v.1l-.1.1H6.6v.1l-.1.2v.9l.1.1v.1l-.1.2V72l-.1.3-.2.2-.2-.1H5.6V73h-.1l-.1.2v.2h-.1v.2l-.2.2v.1l-.2.2.1.1v.1l.1.2v.2H5V75.4l.1.2v1.3L5 77l-.1.2-.1.7-.1.5-.1.2V79.3l-.1.2v.2l-.2.1h-.1V80.1l-.2.4v.2h-.2v.2l-.1.3-.2.5v.4h.1v.4h-.2l-.3.3-.1.2v1l-.2.4V85l-.2.6v.2l-.1.2-.5.3-.1.2v.4l-.1.1-.4.4h-.2v-.1H.7l-.1.1-.2.5.3.4.2.4v.8l-.1.1v.2l.3 3v2.4l-.1.3H.8V98l-.1.4V98.9H1l.1.2h.2v-.1h.1l.1-.2.4-.1.3-.3.3-.2h.4L3 98H3.5l.2.1H4v.1l.1.1.2.1h.1v.2H5.6l.1-.1H6l.1.1h.5l.3.1H7l.4-.4h.4v-.1l.4-.3.3-.1.3-.1v-.2H9l.2-.1h.1v-.2l.3-.1.1-.1h.2l.4-.3.9-.1.1-.1h.4l.1.2H12.5l.4-.1h.1l.3.2H13.6l.2.2.2.4.2.2-.1.2.6.4.7.5.7.4.7.4.1.1.4.5.3.1h.2v-.1h.4l.2.1H18.8v-.1h.5v-.1H51.6v.1h.1l.1.3v.1h.3l.2.6.1.1.4.4.1.2.1.1h.2v.1l.5.5.1.2h.1l.3.1.7.4 1 .2h.6l.3-.2h.8l.1.1 1.2.4h1.3l.4-.2h.4v.2h.1l.2.1.1.1h.2l.1-.2h1.2l.3.1.3.1H64.6l.2-.1h.4l.2-.2h.5l.3.3h.4l.2.2.1.2h.1l.3.1.2.2H68.4l.1.1.2.1H69.3l.1.2h.4l.3-.1v-.2l.8-.2.7-.2H72.6l.3.1.4.2.3.1v.2H74l.5-.2 2-.3 1.8-.4 2-.4 1.8-.3 1.6-.3 1.5-.3 1.6-.3 1.5-.3.6-.2v-.2l-.1-.2-.2-.2-.1-.1h-.1l-.1-.1H87.3v-.5l-.4-.2-.2-.1-.2-.2-.1-.3-.1-.2-.4-.4-.4-.2-.5-.2-.2-.1-.3-.3-.2-.1h-.1L84 98v-.4l-.2-.2-.1-.2-.4-.4-.5-.2h-.1l-.1-.1v-.2l-.1-.1-.3-.1-.1-.2-.1-.2-.6-.9h-.1l-.1-.1h-.1v-.2l-.2-.1v-.1l-.1-.1h-.2v-.1h-.5l-.7-.5V93.4l-.2-.1h-.1v-.4l-.2-.2v-.5l.2-.1V92H79l-.2-.1V91.5l-.2-.1V91l-.1-.1h.2l-.3-.4-.2-.3V65.7h15.3v-.3l-.2-.3-.1-.2-.5-.4-.1-.2v-.6l.1-.3.2-.6v-.5l.2-.2.3-.5.3-.4V60l-.1-.2-.2-.2-.2-.2V57l.2-.4v-1.1l-.2-.1V55l.2-.3.2-.3v-.7l.3-.2.1-.1v-.1l-.3-.7v-1.3h-.2V50l-.1-.3v-.1l-.1-.4H93v.4l-.1.1v.1l-.2.1h-.1v.1l-.1.2-.3.2H92l-.3-.2H90.8l-.6-.2-.5-.1H88.8l-.5.3-.9.5-.6.1-.7.1H85.3l-.3-.3h-.5l-.2.2h-.1l-.3.1h-.3l-.3-.1-.3-.1-.6-.3h-.2l-.3.7-.2.2-.8.2v.1l-.4.4H80.2V52l.1-.4V51l-.1-.2-.2-.2v-.1l-.1-.2v-.3l-.2-.5V49l.2-.2.2-.1.3-.1h.2l.1-.1.1-.2v-.6l-.1-.3v-.7l-.2-.1V46l.2-.2V45.2l-.2-.2-.1-.3-.2-.4-.2-.4v-.6l-.1-.4-.2-.4v-.3l-.1-.1-.1-.1-.3-.2-.1-.1H78.8l-.4-.6-.1-.2v-.2H78l-.2-.2-.4-.5-.2-.3-.1-.3-.1-.7-.1-.3v-.1l-.2-.2V37.8l.1-.3.3-.4V34.4l.1-.6v-.2l.1-.2v-.1l.2-.5v-.5l.1-.3.2-.2h-.1l.1-.6v-.7l-.2-.3v-.4l-.2-.3v-.1l-.2-.4v-.5l-.3-.3V28l-.1-.2-.3-.2-.1-.2v-.5l.1-.2V25.8l.2-.3v-.2l.1-.2.1-.3v-.2l.1-.2.1-.1v-.7l.1-.2V23l-.1-.1v-.1H77V22.4l-.2-.4V22h-.1v-.1h-9.6v-1.1l.1-.4.2-.3.2-.5.1-.5h-2.2l-.1.2v.4h-6l.2.4v.2l-.2.2-.1.2v.2l-.2 1.2v.3l.1.2.2.6v.2l-.2.2-.1.1-.1.3-.1.1h-.7v.4l.2.2V25.3l-.2.5v.2l-.1.3v.5l.1.6H54l-.1-.2V26.9H51.8v.4H51l-.2.1H49l-.1.1-.2.1V28.2H47.9l-.4-.4h-.2l-.3-.1-.6.3-.3-.1h-.2l-.7.2H45l-.4-.1-.1-.2v-.4h-.2v-.2h-.1v-.3H44v.1H44v-.1l-.2-.1v-.4h-.1v-.2h-.2V26h-.2v-.2l-.2-.1-.1-.1-.1-.1V25.2h-.1V25h-.2v-.6l-.1-.1-.4-.2-.1-.2-.1-.3-.1-.2h-.1v-.1h-.1v-.2h.1V23h.1V23h-.2v-.1h-.4v-.4l-.1-.2h-.2l-.3-.2h-.2v-.4l-.1-.2h-.1l-.1-.1v-.5l-.2-.5v-.2h.3v-.5l-.1-.1H40v-.7l-.2-.2-.2-.1H39.2l-.1-.2v-.2l-.5-.7v-.2l-.1-.3v-.1l-.2-.3v-.2l.1-.2V16h-.1V15.7h-.2l.1-.2v-.2h-.1v-.5h.1V13.5l-.1-.2-.1-.1h-.2l-.1-.3H37.5l.2-.2v-.1h-.2V12l-.1-.1-.1-.2v-.1l.1-.1-.3-.1-.3-.2H35.7l-.1-.1h-.1l-.2-.1H27.9l-.7.1h-4.1l-1 .2h-.2l-.5-.1h-2l-.5-.1h-1.1l-.2-.1-.3-.1h-1zM0 93.4l-.1.2v.1L.5 95l.2.2.1.1-.2-.6v-.3L.4 94v-.5l-.1-.2H.2z" fill="none" fill-rule="evenodd"/></svg>