<svg width="142" height="116"><path d="M141.6 68l-1.3-2.3V65l.3-.7v-.1l.2-1.3v-1.2H140.4l-.3-.4v-.2l-.2-.6-.1-.4v-.4l.4-.5h-.7l-1.6-.4-.5-.2-.1-.1h-.4l-1.1.4h-.3l-.1-.1-.2-.2-.2-.4-.1-.2h-.1l-.2-.3.2-.5h-.4l-.3-.2v-.2l.3-.4-.6-.8.7-1 .4-.4.7-.6 1-.9v-.1l.3-.5.1-.2.2-.4v-.3h-2.6l-.7-.4-.5-1 .6-.2-1.9-2.8-.4-.6-.7-.7h-.6l-1.5.4h-.5v-.3l-.2-.3.2-.6v-.5l-.3-.1-.4-.3V43.5h-.4l-.3.1h-2.6l-.4-.2.7 1-.7-.8-.5-.1h-3.2l-.4-.2-.7-.7h-.2l-.2-.2-.3.2v.1l-.3.4-.2.2h-.2l-.2.1h-.4l-.3-.2-.2-.1h-.2l.2-1 .2-.4V41l-.5-.1-.6-.3h-.1l-.1-.1h-.2l.1-.2-.6-.4-.5-.8-.1-.5v-.9l.4-.5 2.2-2.4.4-.2.4-.2h.2l.5-.8.6-1.4.3-.5.1-.2-.3-.2h-.4l-.8.2 1.4-2.3.6-1.4-.5-.7v-.4l.1-.3v-.2l.2-.4.3-.2.4.4.3-.4.2-.4.2-.8-.1-.2v-.5l-.1-.1h.7l.3-.1h.1l.1-.1.2-.2-.8-.8.1-.7.2-.3.3-.2v-.3l-.4-.8h-.6l-.6.2h-.5l-.5-.3-.8-1-.6-.5H117l-.8.3h-.6l-.2-.2-.2-.1-.4-.5-.2-.1-.3-.2-2.1-.6-.8-.7-.2-1.4-.2-1.1-.2-.2-.5-.7-.5-.3-.4-.2h-.8l-.5.1-.2.1-1.5 1.1-.8.3-4.4-.2-1.3.3-.7-.1V12l-.6-.8-.5-.1h-.2l-1.5.1-.6-.3-.2-.4-.4-1.3-.2-.5-1.2-1.4-.3-.5.1-.8v-.5l.5-1 .1-1-.4-.8-.3-.5-1-.8h-.1v-.1l-.6.1-.2.4V2l-.2.3-.1.3-.2.4-.3.6-.2.3-.3.4-.6.8-.5.5-.4.5-.8.2-.7-.4-.7-.3-.4-.1H86l-2.6-.2-.8-.3.3-.7h.4l1.6.7-.1-.4-.2-.6V3l.1-.4.2-.5-.1-.9-.4-.5-.4-.3-.2-.1-.4-.2h-.8l-1.2.5-2.8 3.5-.4.3-.5.2h-.7l-1-.3-.8.1h-.8l-.5-.3-.2-.2v-.5l.4-.8v-1l-.3-.4-.4-.1H73l-1 .2-.6.2-1.3.5-2 1.1.5.5v.4l-.3.5v.6l.2.3v.2l1 1 .1.5V8l-.1.3-.7.3h-1.7l-.3-.2h-.4l-1-.6-.4-.2h-1l.5.6.3.5.2.6-.1 1.2.1.5.3.3 1.3.5-.5 1.1-.3.3h-.2l-.2.2.3-.5v-.8l-.1-.3-.5-.6-.6-.6-.6-.7-.3-1-.3-.6-.7-.7V8l-.3 1.3v.2l-.2.4-1.4 2-1.8 1.4-4.5 2.3-1.5 1.2-.2.1-.3.1-.5.2h-4.4l-.4-.1-.6-.7v-1.2l-.2-.8-.7-.5-4.4-1.4-1-.2h-.8l-1.6.4h-.6l-.5.2-.4.4V15.2H36l-1.5.3h-.4l-.8-.2-.5-.2-.5-.2h-.1l-.9-1-.2-.5-.3-1v-1.3l.1-1.5V9l-.3-1.5-8.2 2.7-7.4 4.8-7.6 4.5-5 3.8-1.3.4-.8.5.5 1.2v.1l.4 2.1v.5l.4 1.1L3 30.6l.6.9.1 1.1v.1l-.2.3-.6.5-.3.3-.2.5.3 1.3.4 1.2v.5l-.3.6v.3l.1.2.3.1h.1l.1.1v.2l.3.4.1.3.2.3.3.1.5.2H5l.7-.1H6l.6.2.1.3.2.4.2.5 1.2 1.1.1.1.3.5.5 1.1.1.2.1.2.5.4.2.2.3.2 2.6 1.1.2.1h.1l.3.1h.1l.5-.3.6-1.1.5-.8.7-.7.4-.3.4-.2 1.6-.5.4-.1v-.2h.2l1-.3 1.8-.6h.1l.8.3.6.6.6 1-.1.2v.2l.5.7.5 1.1.2.4h.5l.5.1.4.6.2.8.2.5-.3.5-.3.5.3 1.7 1 3.2v1.8l.2.7h.1l.5.7.5.4 1.6.8.7.2h.8l.4-.2 1.3-.5.3-.3h.2l.2-.3.1-.1h.1l.4-.3h.5l.3.1h.2l.2.4v.5l-.4.6.5.3h2.3l.9.2.8.4.7.8.6 1.1.3 2.2v2.7l.3 2.4 1.3 1.2.2-.4.2-.2.1-.1V69l.2-.4.7-1 .2-.4.3-.1.2-.1 1.7-.2 1.5.2.7.5.3.1.4.3.5.2h.9l.8-.3 1.5-.6h.5l.3-.1.7.3 1.2 1.3.3.2.5.3.7.7.3.5.7 1.7h.2l.5.2.2-.1V71.4l.5-.2.4.1.1.1.4.2.4.4.3.4v.3l-.1.2-.3.4-1 .7-.3.6-.2.5-.2 1-.2.8-.5 1.5v.2l-.1.8.3.2h.3l.7-.3h.4l.3.2.6 2.5.1.2.2.3.2.5v.4l-.4.1-.5.3-.2.1-.6.5-.3.2-.4.4-.3.3-.1.4-.2.6h.2l.1.6.1.4v.8h-.2l2 1.1.5.2 1.8-.3 1-.1 1 .2 4.5 1.3h.3l1-.1 4-2 1.2-.6 1.5-.2.2-.1.2-.2.3-.5.3-1 .2-1.2V83.2l-.2-.3.1-.5.3-.5 3.9-4 1-.4v.8l.5.2 1.2-.2.3.4v1l-.2 1.3v.4l-.1.5-.4-.4h-.2l-.5 1.1-.2.4v1.6l-.5 1-1 2.5-.1 1 .4.8.7.3 1 .4.6 1v.4l.1.3v.5l-.2.3v.2l-.2.5v.2l-.1.2-.4.5V95.3l.4.6v2.4l.4.5h.4l.5.1h.3l.6-.1.8-.3.8-.2h.4l.4-.1h.1l.5.2 1.3 1.3.8.4 1 .3.3.1.4.4.7 1 .9 1.3.4.3.2.2.6.5.9.2 1-.3.6-.1h.8l.8.7.7 1 .2.7v.2h-.1l-.2.2-.2.8v.3l.1.3.2.2.6.1h.2l.2-.3.1-.3.2-.2h.2l.2.2.2.1 1.1.4.7.6 1.8 3.2.1.6v.5l-.1.6v.5l.2.5.7.2.3-.1.7-.4.5-.4.5-.3.2-.1.5-.3 1.1.6H113.4v-.1l.2-.5.4-.6 1-.4.8.2.8.3.8.2.4-.2.5-.7.4-.2h.4l.8.6h.5l.8-.4.9-.8.2-.4.1-.5-.2-.1-.4-.3.5-.3.2-.6.2-.5.3-.8.3-.4.3-.3.2-.5v-.3l-.2-.4-.2-.3h-.8l-.2-.2v-.2l-.1-.2v-.8l.1-.4.2-.1.1-.2v-.5l-.2-.3h-.7l-.3-.3-.5-.2-.2-.1v-.1l-.1-.8v-.3l-.7-1.3-.2-.4-.3-.3-.3-.2-.2-.1h-.3l-.5-.2-.3-.7-.1-.3-.2-.3v-.7l.2-.6.4-.2-.3-.4v-.2l.1-.1v-.5l1 .1-.3-.5-.7-.5h-.1l-.4-.3v-.3l.1-.3.5-.7.8-1.4v-.3h.1V90h.1l.1-.2v-.2h.1l.2-.4.3-.1.5-.2.2-.1.1-.2.5-.8-.2-.3-.3-.3v-.8l.3-.2.8-.4.2-.2.1-.5V84l.1-.2.1-.2.6-.5.1-.2v-.1l.1-.2v-.2l.1-.4v-.5l.2-.4.2-.2.5-.4 1.3-.6.6-.6.3-.8.1-.7.3-.6h.8l.6-.5.2.2v.6l.3.4.3.1h.2l.4.1.8-.1.4-.2.2-.3h.3l.4.5.2.5v1l.6.3.3-.4.1-.3v-.4l-.4-.3v-.6l.2-.3v-.1l.3-.2h.8l.2-.2.3-.6v-.7l-.1-.5v-.1l-.6-.6.4-.5.2-.1.6-.5.1-.1.2-.5.8-.3.6-.1.9-.2.7-.6-.2-.6v-.5l.4-.6.1-.1.2-.3.3-.2.2-.1h.5l.3.1.5.1 1-.2.2-.1.3-.4-.1-.8" fill="none" fill-rule="evenodd"/></svg>