<svg width="86" height="113"><g fill="none" fill-rule="evenodd"><path d="M80 14.4h-.4l-.2-.1H79.1l.1.1h.6v.2h.5l.3.1h.5l.3.2h1.4l.2.1h.1l.2-.2-.1-.2-.2-.3h-.2l-.1.1h-.2l-.2.1h-.8v-.1h-.2l-.2-.2h-.5.1v.2H80zM78.5 14.4h-.1v-.2H78v.1l.1.1v.2h.2l.1.2h.4V14.5h-.3zM77.6 14.2h.3V14h-.2l-.2-.2h-.1l-.1.1.2.1zM84.5 14.7h.4-.4zM85.4 14.8h-.1zM85.2 14.8v-.1H85zM81.4 14v.1h.1l-.1-.2h-.1v.1zM84.8 15l-.1-.1h-.1l-.2-.1h-.9v.2h.5l.2-.1.1.1h.1-.1v.2h.1l.1-.2h.1l.1.2h.1l.3.1h.3v.1h.2l-.2-.1-.1-.1h-.2V15zM84.7 13.4l-.2.2h-1v-.1h-.9v.1l-.1.1h2l.4-.1v-.2zM75.3 14.1h.5V14l.1-.1h-.1l-.1.2v-.2h-.5v.2zM81 14.9l.1.2h.3v-.2H81zM82 19.2v.2l-.2.1.1.1.3-.3V19z"/><path d="M85.1 17.2L85 17l-.3-.3h-.4l-.3-.2h-.3l-.2-.3-.1.1H83l-.1-.2h-.2l-.1-.2-.1-.3h-.2l-.1-.1v-.4H81V15h-.3V15h-.2l-.1-.2h-3.3l-.1.2v.2l-.2.1h-.4l-.6-.3-.2-.1H74v-.2h-.2l-.2.1-.2.3H73l-.1.2h-.5l-.4.3H71.2v.1h-.7v.1H69.6l-.2.2h-.1l-.2.2.1.2V16.7l-.1.2H69l-.6.3v.1l.4-.1h-.2l-.3.3h-.5l-.5.4-.2.2h-.4l-.1-.2H66.2v.1h-.5l-.1.1v.1h.7v.5l-.3.2H66l-.2.2v.1h-.1v.1l.2.2h.2l.1.3h.3l.3.2H69v.1h.5v.2H69.9v.2h.4l.3.3.2.3v.2l.2.3H72.2l.1.2h.7v-.5h1.3l.2-.1h.1l.2-.1h.3v-.2l.1-.2h.5v-.1l-.1.2h-.3v.1h.5l.2.2h-.2v.1h-.3v.2h.5v.5l.2-.2.1-.1h.4l.3-.2h.1l.2-.1.2-.2.5-.2h.4v-.1h.2l.2-.3.4-.2V20l.2-.2H79.7l.2-.3h.4l.1-.1v-.2l.2.2.2-.1V19v.3l.2-.2v.1H81v.2l-.3.2h-.2v.2H80.7l.3-.1.1-.1.1.2.2.1V19.6v.1h.4v-.1h-.2l.2-.1v-.2h-.3H81.8v-.1h.2l.1-.2h.2l.1.2V19H84.2l.4-.3.3-.2.2-.4h.1l.3-.1v-.4l.2-.1v-.1l-.4-.2zM78.9 111.8v-.2h-.2v.2h.2zM79.1 112.2H79v.2h.2v-.1zM79 111.9h-.2v.2h.1l.1-.1zM78.8 111.3v-.1h-.1v.1zM76.9 106h-.1v.1h.2zM74.6 102v-.2h-.1v.1zM75.7 104h-.2l.2.1v.1h.1v-.2zM76.4 105h-.2v.2H76.6v-.2zM70.1 93.1h-.8v.2h.3l.2-.1.4.1h.2l-.2-.2zM78.6 110.8h-.1v.2h.1zM74.7 102.5V102.2h-.2v.2l.1.2.2.2v-.2zM74.2 100.9v.2h.2v-.2zM78.2 110v-.2.1zM78.3 110h-.1v.2h.1v-.2zM76.9 105.9h-.1v-.1h-.1v.1h.1zM78.1 109v-.1H78v.2h.1zM77.6 107.9h-.1l.1.2v-.2zM77.4 107.5l-.1-.2-.1-.2H77v.2l.2.3h.1zM69 96.8v.2l-.1.3h.1v-.5zM53.4 107.6h.4v-.3h.1l.3-.3v-.2l-.3.1-.2.1h-.2l-.2.3zM58.6 107.2V106.9h-.3v.2h.1l.2.1zM58.6 109.7v.1h.2v-.1zM58.8 109.6l.1.2h.2v-.2zM58.6 106.5l-.2-.3v-.1l-.2-.1.3-.2-.1-.2H57.8v.5l.1.1H58.2l-.1.1v.4h.4zM57.9 109.8h-.5v.1l.3.1v.1l.2.1h.2v-.3zM58 109.5v-.2h-.1v.1zM57.4 110.2H57v.2l-.1.2H57.2l.1-.1.1-.1zM62.4 106.3v.2h.1v-.1zM59.5 109v-.1h-.2l-.2.2.1.1h.2v.1l.1.1h.2v-.2h.1v-.2h-.2zM62 107.4h-.1v.1h.1zM61.5 107.9v.2h.2v-.4zM60.3 108.2H60l-.3-.1.1.2h-.1v.1l.1.1h.7v-.2zM61.5 107.1l.2-.1v-.1h-.2v-.1h-.8l-.1.2h-.1l-.1.1v.1h.5v-.2h.2l.2.2v.1h.1l.2-.1zM62 107.6h-.2l.1.2v-.2zM53 108V108.4h.2v-.2zM53.6 105.6l-.1-.2-.2.1-.1.1.2.1zM57.1 109.5h.2v-.2h-.5V109.7h.2zM57.4 107.5h-.2v.2h.1zM57.4 109.6h.1v-.2h-.1v.2zM52.6 107.2h.2v-.1l-.2-.2h-.4v.1l.2.2v.5l.2-.1v-.2zM68.7 97.6v.2l-.1-.1-.1.2h.1v.2h.2V98l.1-.2v-.2h-.1zM55.7 108.4v-.1l-.1-.1-.2.1v.1h.3z"/><path d="M55.4 107.3l-.1-.1h-.7l-.1.1-.2-.2h-.1l-.3.3v.2h.1l.2.2h.2v.2h-.7v.2l.1.1h.9l.2-.1v-.1l-.2-.1h.4v-.2l.1-.1h.2zM56.5 109.6h-.7v.1l-.1.2H56.4v.2h.2v-.2h.1l.1-.1v-.2zM52.3 107.8v-.2H52l-.1.1v.5l.4.2H52.7l-.4-.4zM53.8 108.4l-.2-.1h-.3v.1h-.4l.3.2h1l-.2-.2zM56.7 106.3v.3h.2v-.3zM55.5 108v-.1h-.2v.1h.2zM61 71.7h.1v-.2zM59.6 75.2H59l-.3.2-.1.1h-.9l-.3.2v.1h.1l.2.1.1.1v.2l.1.2h.2v.1l.1.1h.5v-.2h.2l.3-.3.1-.2v-.2l.2-.2zM49.8 93.8l.2-.2v-.1l-.1-.1h-.4v.3h.2zM59.1 77.5H59.4v-.2h-.1zM49.4 91v-.1h-.1v.4l.4.2v.1h.2v-.2h-.2v-.2h.3v.3l.6-.1h.2v-.2h.2l.2-.2.3-.2v-.1h-.2l-.1-.1H51l-.1-.2h-.4v-.2h-.2v.1h-.4v-.1h.2V90H50v-.2h-.2v.2l-.1.1v.4l.1.2h-.3zM50.3 92.7h.7v-.2h-.7v-.1h-.5v.2h.3zM54.7 78h-.1l-.1.1h-.1l-.2.1-.3.1v-.2h-.3l-.2-.2v.1H53v.1l.2.2h.2v.2h1.1l.2-.3V78zM68.7 97.2h.1V96.8v.2zM66.6 79.7l-.1.2.2.1h-.1v.2h.1v-.5z"/><path d="M54.9 77.3H54.6l-.2.3h-1.2v.1h-.4v.1l-.1.1H54v.2l.3-.2h.5V77.6l.2-.1zM68.6 97.3v.2h.1v-.2zM52.3 84v.1l-.2.2h-.4v.2h.5l.7-.1.2-.1v-.1l-.2-.1zM58 96.6H57.6v.1h.2zM56.7 81V80.4l-.1-.1h-.2v.2l-.2.1v.1l-.2.3v.2l-.1.3h-.1v.3l-.2.3-.1.2.1.2v.2h.2l.3-.6.2-.3v-.3h.2l.2-.2v-.1zM62 99l-.1.1v.1h.3V99zM62.8 99.5v-.3l-.3-.2h-.1v.2h.2l.1.2v.2h.2z"/><path d="M68.5 96.6v-2.2l.2-.3v-.3l.2-.3V93l-.2-.2v-.3l-.5-.4v-.4l-.1-.1v-.3H68V90h-.1v-.2l-.2-.3v-.7l-.1-.3-.1-.2v-1.1h-.4V87H66.8l-.2.3H66v.1H66v-.2h.1l.3-.2h.1l.3-.1h.8l.2-.3h-.2l-.1-.6v-.2l-.2-.2V85h-.1l-.1-.5-.1-.2v-.4l-.3-.4v-.2l-.1-.4v-.2h-.1v-.4l-.1-.1v-.6h-.1V81l-.1-.1v-.2H66v-.3l.1-.3-.2-.3-.1-.2v-.1l-.2-.3-.1-.1v-.2l-.2-.1v-.3l-.2-.3-.4-.3-.2-.4v-.1l-.2-.2V77l-.1-.1v-.1l-.1-.2v-.2l-.3-.3v-.1l-.1-.3v-.2l-.1-.5v-.2l-.3-.2v-.1l-.1-.3V73L63 73l-.2-.2-.1-.1H62.5l-.2.3v.1l-.1.1H62l-.3-.1v.2h-.3v.1l-.3.4V74l-.1.1v.6l-.2.2v.2l-.1.2-.1.2v.2h-.2l-.1.1v.8h-.1v.2H60v.1l-.3.2v.2l-.2.2v.2l-.1.1-.2.2-.2.3-.3.3h-.2l-.3.1-.1.1h-.3l-.1.3h-.3v.2h-.1v.7l-.1.1v.2l-.4.3v.4l.1.5v.2l-.2.1v.3h-.1l-.2.2h-.2l-.2.4-.2.4v.4l-.2.2v.2h.2l.2.3v.1l-.2-.1-.2-.1-.1-.2h-.2v.2h-.2v.4l-.2.3h-1.3l-.3-.3-.1.1v.1h-.4l.2-.1v-.1l-.2-.1h-.5l-.2.2h-.4v.2h-.2l-.1.1v.2l-.1.2V85h-.2l-.1.2h-.2l-.2.1h-.1.1v-.1h.2V85l.2-.1.3-.1v-.2l.2-.1-.1-.1H51.2v-.1l-.1-.1h-.3v.1l-.4.4v.4l-.4.3h-.2l-.1.2h-.2l-.1.2.1-.3h.1v-.1H49l-.2.2v.1-.3h.2v-.1h.6l.5-.5v-.2h-.2v-.1l-.2-.1h-.2l-.1-.1-.4-.1V84l.3-.3v-.1h.4v-.1h.5l.2.2h.2v.1h.5v.1h.4l.3-.2h.2l-.1-.2h-1v-.2h-.5v-.4h.2v-.1h1v.1h-.3l-.1.1H50.9v.2h.2v.1h1.1l.1.2h.2l.3.2h.6l.2.1.1.3v.3h.1l.1-.2H54.5V84h.5v-.3l.1-.4.1-.2V83h.1v-.4H55l.2-.1v-.3l.1-.2v-.3l.2-.2v-.8l.2-.2V80l.1-.1v-.2l.3-.2v-.2l.3-.2-.1-.2h.2l.1-.1.3-.1.2-.2h.1l.2-.2.3.1h.5V78l-.2-.2v-.2l-.1-.1h-.1v-.3h-.3l-.1.2H56.5v-.1h-.1l-.1-.1h.6v.1h.3l.1-.1.1-.2h.2v-.2h-.2l-.1-.1.1-.1v-.1l-.1-.1v-.1h.3V76l-.2-.2h-.9V76.2h-.3l-.1.2H56V76h-.3v-.1h-.4v.1l-.5.4v.3l.2.2V77.2h.4V77h.2l.2-.2h.4v.2h-.7l-.1.2v.1l.2.1v.2l-.1.3-.2.2V78.5H55v.4H54.7l-.3.2H54V79h-1.1v-.2h.3v-.1l-.2-.2-.2-.1h-.4l-.1-.2H52l.1-.1h.3l-.2-.2v-.2h.5l.3-.2v-.2l.3.2H53.6l.2-.2h.4l.2-.2V77l.2-.2v-.5l-.2-.2h-.3l-.2-.1h-.2v-.1h-.5l-.4.2-.4.3H52v.4l-.2.1h-.1l-.1-.1.2-.2v-.2h.3l.3-.3h.1v-.1H52.9l.4-.2h.5l.3.1h.4v-.2h-.1l.1-.1.2.2h.1V75.3h1v-.1h.1l.2-.3h.2l.2-.1V74.6l.5-.4v-.1l.2-.2H56.8v-.2h.4v-.3l.3-.2h.3l.2-.3.3-.1h1.2l.1-.1h.3-.3v.1h-.2v.1h-1v.1H58l-.2.1-.4.4-.2.3-.1.1v.1l-.1.1v.2l-.1.1v.1l-.2.3-.2.3h-.1l-.4.3h-.4v.2h.5v.1h1.2l.3-.3H58.7l.2-.3v-.4l.2-.1v-.2h.2v-.1l.2-.3v-.1l.1-.3.1-.2v-.2l.2-.1h.1l.3-.1h.2v-.2h-.2l-.2-.1h.2v-.1h.2l-.1-.2v-.3l.3-.4v-.2h.2l.2-.3h.1V71l-.2-.2h-.3v.1h-.3v.1H60l-.4-.3-.3-.1v-.1l-.5-.5-.2-.3V69l-.3-.2-.1-.2v-.5H58V68l-.2-.3v-.8h-.2l.2-.1h.6v-.2H57.5v.1l-.5.1h-.3l-.3.3h-.6l-.3.3h-.5l-.2.2h-.3l-.2.1-.3.2.1.3-.3.2h-.2v.2l-.3.1h-.7v.1h-.8l-.2.2h-.1l-.2.1v.1l-.2.2h-.1v.1l-.3.4-.1.2H50.3l.1.2V70.6h-.7l-.1.2h-.1l-.3.1H49v.1l-.3.4h-.2v.2l-.1.1h-.1l-.2-.1H48v.2l-.2.2v.3l.1.2v.4h-.1l-.3.3H47.1l-.1.2h-.2V73.7v-.2h-.2l-.4.4v.2h.2l.1.2.2.1V75.3l-.2.1h-.2V76H46v.3l-.7.6-.1.1v.5l-.2.2H44.1v.1h-1.5l-.2-.2h-.1l-.1-.2h.1v-.2H41.7l-.1.1v.7l.2.3v.2l.1.2v.1l.2.2v.1l.4.4.2.2h.1l.3.2v.2l.2.3.1.1.2.5h-1.1v-.1H42v-.1h-.2l-.2-.1h-.3v-.1h-.7l-.1.1v.3l.1.2v.4l.2.2H41.5l.3.2.6.5h.2l.3.2h.3l.2.1h1v-.1l.2-.1h.5V82.8h.4l.2.3h-.1l-.2.2v.2l-.1.2h-.1l-.3.1-.1.2.1.5.1.1h.1l.4.2.5.2.2.1v.4l.2.1h.1l.1-.2h.1v.2h.2l.2.5.1.1.3.1.1.2.3.2-.2.3h.5v.2h-1v-.1l-.3.2h-.2v.2l.1.1v.2l.2.1h.7l.2.2v.4l.3.1h.4v-.2h.1v.5l-.1.2-.3.3-.2.1-.1.3.1.1-.3.4.2.1h.1l.5.2h.4v.1h.2l.3-.3v-.2l.1-.4.2-.2.3-.1.1-.1h.1l.1-.1V89h-.2V89H49.5v-.2l-.1-.1v-.4H49.8v.3h.2v.2h.4v.2h.3l.1-.2.2-.1v.4l-.2.2h-.2v.1H51.4l.1-.2h.2l-.1.2h-.4l-.1.1h-.7v.4h.2v.2h.2l-.1.1v.1h.5l.3.2.2-.1.4-.1.2-.1v.2H52l-.1.1v.2l-.2.2h-.2v.2h.3v.1l-.2.2h-.1v-.1H51v.2l-.1.1h-.4v.2h-.4v.1H50l-.1-.1h-.4v-.2l-.2-.1h-.1l-.1-.1V91h-1v.4l-.2.1v.2l.3.3h.3l.1.2h.2l.3.2h.4l.2-.2H50.7V92l.1.1v.2h.2l.5-.1.1.1.2.2v.1l-.3-.2h-.3v.1l-.1.2v.1h-.2l-.2-.1h-.6v-.1h-.4v.1h-.2l-.3.4h.8l.4-.1h1.2-.2l-.1.1-.2.1H51l-.1.1h-.6l-.3.4H50l-.2.1h-.4V94.2H49v.2h.5v.1h1v-.1h1.3v.1l.3.4v.2l.4.3h.1l.5.3h.1l.2-.2v-.1l.7-.6v.2l-.2.2-.1.1h-.2v.2h.5l.3-.2v.3-.1l-.2.1h-.5l-.3.2h-.3l.2.4h.8l.3-.4h.2v-.2l.1-.2v.2H55.4l.2-.1h.2-.1l.1.2h.7v.1h.7v.1H57.4l-.2.1v.1h-.7l-.1.2h-.1v.2H56l-.2.1v.2h.4v.2h.5v-.5h.8v.1h.3l.2-.1h.3l.2-.2h.2V96l.1-.2.1-.2.2-.1.1.3H58.8v.2l-.1.3h.2l-.3.5v.3l-.1.2-.3.1v.2h.5v-.1l.2-.2H59.8l-.1.2h.5l-.2-.2h.3l.2-.3h.1l-.2.4h.3l-.2.1H60l-.3.2h-.5v.1h.6v.2h-.4v.1h-.2V98H59l-.1.2h-.2v-.1l-.2-.1-.2-.2h-.2V97l-.4-.1v-.1l.3.1h.2l.2-.1.2-.3v-.2h-.1l-.5.4h-1v.1l-.1.2-.2.2h-.2l-.1.1v.3l-.2-.3H55.3v.2h.6l.1.2h.5v.1l.4.1h.2l.2.2h.5l.2.2.3.3h.7l.2.2v.7h.1l.2.2h.2v-.1l.1-.1h.2l.6-.4V99l-.3-.2h.5l.2-.1v.2h-.2v.2l.2-.1h.3v-.1h.4v-.2h-.2l.3-.3v.2h.4l.2-.3V98h.5l.4-.2v-.1H63.6l.2-.3v-.2l.2-.1v-.2l-.2-.3h.2l.1.2h.1l.5-.4-.3-.4v-.1l-.1-.2v-.1h-.1v-.4h.3v.3h.2l.3.1v-.2l-.1-.1h-.2v-.1l-.3-.3H64.7v-.1h.2l.1.3.2.2v.2h.1l.1.1-.2.1v.1h.2v.1H65v-.2h-.4l-.1.1v.1l.2.5V96.7h-.3v.1h-.1v.5l.1.1.1.4h.2v-.2h.4l.1.1-.2.3v.5H65v.2l.4.2h.3l.3.2.2.1h.1l.1.3h.1l.1.2.2.3v.1l.2.2h.1l.2-.2.1-.4.2-.5.2-.2v-.2l.1-.4v-.2l.1-.3v-.2l.3-.3V97l.2-.3z"/><path d="M67.3 100.4h-.4l-.2-.3-.3-.3-.4-.2h-.2v-.2h-.1l-.2-.2h-.3l-.2-.4h-.2l-.2-.2-.1-.2h-.1l-.1.1h-.5v-.1h-.5l.2.2h.2v.5l-.1.1v.1H63.4v-.1l-.3-.6h-.7v.2h.4v.2l.2.2v.1l.1.2.1.2v.1h-.2v.3l.1.1.2.2h-.6l.2-.1V100h-.1v-.2h-.1l-.1-.1h-.2l-.2-.3H62l-.1.1h-.2v.2h-.2v-.1l-.3-.3h-.6l-.2.3v.2h.2l.1.1H60.4v-.1h-.2v.2h.1v.1h.5l.3.2h.5v-.1l-.2-.1-.2-.2h.8l.2.2H62v.1l.2.3H62v.2l.6.7h.3l.2.3H63l-.1-.1h-.2l-.3-.3H62.1h.1v-.2l-.2-.3v.4h-.7l-.3-.2v-.2h-.5l-.4.4h-.6l-.1.1V101h.8l.3-.2h.4v-.2l-.1-.2h-.5.5v-.1l-.2-.1h-.5l-.2.2h-.5v.2h-.3l-.2.2v.2l.2-.1v.4l.1.1H59l-.2-.2v.1l-.1.2h-.3l.2.3h1.1-.7v.5l-.1.1v.8l.2.3h.7l.1.2h.2v-.2l-.2-.1v-.2h.2l.2-.1h.2l.2-.2H61l.2.2v.2l-.1-.2-.3-.2-.3.2h-.2l-.2.2v.2l.4.2h.2v.5l.4.1-.2.2v.2l-.2.2v.3l.4.3h-.3v.2h.2l.1.3h.2v-.1h.2v-.2h.5l-.1-.5-.6-.5v-.3l.1.3.2.2h.2l.2.2V105.4l.2.2h.4v-.1l-.2-.3v-.3l-.2-.2v-.2l-.3-.1v-.1h.6V104.6h.2v.2h.2v.2h-.1v.2h.6v.1h.2l.1-.1.2.2h.3l.2-.1.5-.5.3-.3.2-.1v-.2l.3-.2v-.2l.3-.2.1-.3.1-.1v-.2h-.8l-.2.2v-.2l-.2-.2v-.1h.1v-.2h-.4v-.3l-.1-.2.1.1v.1h.2V101.8l.2.3v.1h.2v.2l.1.1.2.3h.6l.1-.2.2-.2v-.1l.1-.1v-.1l.1-.1v-.2l.4-.5-.1-.1.2-.3v-.3h.2v-.3zM65.2 102.7h.2zM62.2 104.5h.1z"/><path d="M60.1 100H60v.1zM64.9 98.6v-.1l-.2-.2v.2zM66 99.5l.2.2H66.5l-.2-.2v-.2H66l-.2-.1-.2-.1h-.1l.1.2zM64 98.3h.3l.1-.2v-.4l-.2-.2-.1-.1h-.2v.1l-.1.3-.3.2-.1.2h.6zM63.2 98.4v-.1h-.3v.2h.2zM62.3 99.4v.1l.1.1h.2v-.3h-.3zM61.8 98.8l-.2.1-.5.1.6.1.2-.1v-.1zM62.7 99.7h.2-.1zM53 108.1H52.6v.1l.1.2h.1zM39.5 20zM38.6 18.3v.1h.2zM53.5 43.2v.1l.1.1h.2v-.1l.1-.2V42.5l-.1-.1h-.2v.2l-.2.2v.1l.3.1h-.1zM39 18.3v.1h.2v-.1zM50.7 37.7v.1h.1zM50 37l.1.1h.1V37zM52.7 41.6h-.2l.1-.3h-.2v.1h-.1v.1l.2.3h.1v.5h.2v-.6zM41.1 24.3l-.2-.2h-.5l-.2-.3-.1-.2H40l-.2-.2-.1-.1h-.1v.2l.8.8h.2l.2.1h.2zM38.8 18.5v.2h.1v-.2zM39.3 20h.2l-.1-.4-.1-.2v-.2H39V18.9h-.4.2v.2l.1.4h.2v.2h.1zM40.6 25.2h.2v-.7h-.2V25.2zM42.4 29.8h.2-.1v-.2l-.2-.2V28.8l-.1-.2v-.1h-.3.1l.1.2v.5l.1.2v.1zM39.5 20.7v-.2h-.2v.2zM62.4 72v.3H62.8V72l-.2-.1zM64.8 18.6h-.4v.1h.3zM54.1 43.6v-.2l-.1-.1h-.1v.3l.1.1v.2l-.1.2V44.7l-.2-.1-.1.2.2.1h.2v-.2h.1v-.5zM45.8 68.6h.4v-.2l.2.2H46.7l.1-.2v-.2H46v.2h-.3v.1zM47 67.2H47.3V67H47v-.2h.1v-.4l.3-.3H47l-.2.2V67l-.1.2h-.3v.2h.3zM46.6 60.2h-.4v.2h.2l.1.3.2-.1h.6v-.4h.4v-.1h.3l-.1-.3H48.2v-.2l-.2-.2H47.7l-.2-.1.2-.1-.2-.1-.5.4h-.2v.2l-.1.3zM47.2 58.4h-.4v.2h.2v-.1h.3v-.1zM46.5 65.6h.2v.1h.1v-.2h-.2zM47.1 67.7l.1.2.1-.1h.3l-.2-.2v-.1H47.8v-.1h.5V67h-.5l-.2.2h-.1l-.2.3H46.9v.2zM51.3 59.8l-.2.2-.1.2-.2.1v.5h.2v.1h.6V60.2l.1-.2v-.2zM51.8 59.5h.2v-.1H51.7v.2zM50.5 67.2h.5V67H50.3l-.1.1zM47.4 59h.2v-.2h-.1z"/><path d="M55.8 64.5H57l.2-.2v-.4l-.1-.3-.2-.4V63l-.1-.4v-.4h-.2V62l-.1-.2-.2-.1v-.5L56 61v-.2l-.1-.4-.2-.2v-.7h-.2V59l-.2-.2v-.1l-.2-.2h-.3l-.2.3h-.2l-.2.2v.1h-.3l-.3.4H53l-.3.1v.1h.1l.2.3v.1l-.2.2v.2H52.6v-.1h-.4l-.5.7-.2-.1H51.2l-.1.3H51l-.1-.1h-.1V61h-.3v.1h.1v.3h-.2v-.2h-.2l-.1.3-.2.1v.1h.4v.1h.7l.2-.2.1.1-.5.2v.1h-.1v.2l.2.2H50.3l-.1.1v.2h.2v.2h.1v.1l-.1.2v-.1h-.2V63l-.2-.2v-.1l-.1-.1h-.1l-.1.2h-.1v-.2h-.1v.4h.3l-.3.3h-.3l-.2.2-.2.1h-.2l-.2.3v.1l-.2.2h-.1v.2h.1v.2h.3v.2h.2l.3-.3v-.2h.5v-.1h.2l.1-.2h.1v.4h-.3l-.2.2-.1.2H49l-.3.3v.5l.2.1.1.1h.7l.3.4v.2l.3-.1v-.1l-.3-.3h.2l.3.2v.2h.3v-.1h.2l.3-.3h.2l.1-.1.4-.2.2-.3.4-.2.1-.1h.1l.2-.1h.4v-.2H53v.1h-.2l-.2-.2h-.1v-.4h.2l.1.3h.2l.4-.2h.4v-.1h.3l.3-.2h.5l.2.2h.1l.1.1h.2l-.1-.2-.4-.1-.3-.1h.3l.5.2.1.1z"/><path d="M53.1 65.8h.6l.2-.2h.4l.2-.1V65h-.3l-.1.1h-.2l-.4-.2-.3.2v.2h.4l-.1.1H53l-.3.2h-.1l-.2.2h-.2l.1.2h.3l.2-.1zM54.8 64.6h.9l-.1-.2h-.3L55 64h-.4v.1H54v.2h-.3v.2h.1v.2h.3v-.1h.5zM45.7 62.6h.2v-.2l-.2.1h-.1v.1H45v.2h.5zM43.1 64.7h-.6v.2h-.2v.1l-.3.2-.1.2h.4l.2.2H42.8l.1-.2.3-.3zM42.5 66.9v-.1h.9l.2-.2h.1l.3-.1v-.1h-1.2.2v-.2l.2.1.1-.1V66h-.4l-.5.3v.3l-.3.2H41.2l-.2.1-.2.2h-.3v.2h-.2v.1h.5v-.1h.4l.1-.2h-.2l.2-.2H42.4zM45.7 65.3h.1l.1-.2h.5v-.2h.2l.3-.4V63.8l.1-.2.2.1h.1v-.2l.2-.2v-.1h-.1l-.1.1h-.4l-.2.1h-.2v-.1l-.1-.2h-.2l-.1.2-.4.2h-.5v.1l-.3.1h-.6l-.3.2h-.3l.1-.1h.1v-.1l.1-.2h-.2l-.4.6h.1v.8h.1l.1.1h.2l.2.4v.2l.2.1.6.1.2-.2h.2l.3-.1zM45.3 67.7v-.1h-.5l-.2.1-.2.1v.2h-.1v-.1h-.1v.5H44.4l.2-.2h.4v-.4h.1zM42.1 69.1V69l.2-.1v-.2H42l-.2.1h.1v.3zM44.3 62v.1h.2l.2-.2h-.1zM50 66.4l-.2.1H48v.1h-.6v.2h2.3l.2-.2zM47.7 65.8v-.2h-.2v.2zM49.6 59v-.4h-.8v.1h-.4v.2h.5v.1h.4l-.1.1v.2h.2zM44.6 63l-.1.1v.1h.2l.1-.1V63h-.1zM51.8 67.5h.5v-.2h.4V67l-.5.2h-.3v.1h-.5l-.3.2h-.4v.1h-1.2l-.2.2-.1.1H48.9v.2l-.3.2.2.2h.2l-.1.1H48.3v-.1H48l-.1-.1-.2-.1H47v.2h.3v.1h.2l.3.1.4.2h1.4v-.1l.2-.2h.2l.4-.4h.2l.1-.2H51.1l.2-.3.1-.2zM47.5 64.4h.1V64l-.2.1v.1zM49.8 58h.3l.4-.5v-.1H49.2v.1h-.7l-.3.2-.3.2h-.1l-.5.2.1.1h.3v.2h.2l.1-.1h.1l.2-.1h.2V58l.3-.2h.5v.2h.4zM39.2 19.7v.1-.1zM56.3 43.5H56v.2h.3v-.2zM56.3 51v.2h.2l.1-.3zM56.6 47.9v-.1h-.2v.2h.2zM57.2 65h.3v-.2l-.3-.1-.2.1h-.1V65.1zM42 27.2V26.9h-.2v.2h.1zM41.6 24.9V24.6l-.2.2.1.2zM48.4 63.5l.4-.2.1-.2.3-.3h.1v-.5H49l-.3.3h-.2v.1h-.3l-.4.6v.4l.1.1h.1zM57.1 106.5h.1-.1zM26.2 1.6v.1h.3v.1h.2v-.3h-.4zM26.4.6h.5v.1H27.3V.4h-.3l-.1-.2h-.3zM28.8 10.5h-.4v.1h.3zM27.5 10.2v.2h.2v-.2l-.1-.1h-.1zM26.6 3.6v-.2h-.1l-.1.2h.1zM27.3 8h.1V8l-.1-.1H27V8.1l.1-.2zM27.5 9.5h.1l-.2-.2h-.1v.2zM26.1 6.2l.1.1h.3l-.1-.2h-.3zM27.1 9v-.1H27V9zM28.7 11.2v-.4l-.2.1v.2zM27 4.3l.3-.1v-.3l-.1-.1H26.6v.3l.2.2zM28 10.4h.2V10H28l.2.1-.1.1zM37.3 14.3v-.1zM38 14.7v-.2l-.2-.1h-.6V14l-.3-.3h-.1v.3l.1.1.1.4.2.1zM36.8 14.8h-.1v.1l.1.2h.1V15h.2l-.2-.2v.1zM31 6.3h-.2V6h-.1l-.2.1.2.2h.2zM31.3 8.8H31v.4l.2.1h.2v-.5zM30.3 9v.1h.1l.3-.2h-.3zM33.4 6.4v.1h.2v-.1z"/><path d="M30.7 8.8V9h.1v-.2zM33.3 6.1l-.1.1v.1h.2v-.1zM32 7.7h.2zM29.4 10.2h-.1zM24.2 3v-.1H24v.2zM23.8 5l.2-.1h.1V4.6l-.4-.1h-.2V5zM24 3.4v-.1h-.2v.2h.2zM23.5.5v.1h.2l-.1-.2zM24.2 3.7h.1v-.1h-.1zM21.7 5.9h-.2l-.2.2v.2l.2.1h.1L22 6h-.2zM25.6 3.5h.1zM20.5 10.6h.2v-.1h-.2zM20.7 5.5h-.4v.2h.3zM24.5 2.4H24h.4zM24.4 3.6h.3v-.1H24.3v.1zM28.5 9.7v.2-.1zM28.8 7.6h-.1v.1h.4v-.1zM28.5 8.8H28.8l-.1-.2h-.1v.2h-.1zM28.5 1.5V1l-.2-.2-.1-.1V.5H28l-.3-.4-.2.3-.2.2v.2h.3l.3.4h-.1l-.3-.1-.1.1H27v.2H27.4l.1.1v.2l.2.1V2h.3l.5-.5zM27.8 3h.4v-.1h-.4l.1-.2v-.1l-.3-.3h-.4l-.2.1v.2h.3l-.1.1v.1l.1.1h.2l.1.1h.2zM28.1 7v-.2h.1v-.2H28v.2H28V7zM28.4 7.2h-.1V7H28v.1h.2zM28.7 6.5v.1h.1v-.1zM29 10.8v.2-.1H29.4v-.3H29l-.1.2v.1zM28.8 9.3h-.2v.2h.2zM29 9.5h.1l.1.2.1-.2-.1-.1H29zM28.7 9h.2v-.1h-.1zM29.7 6.5v-.2h-.4l-.1.1v.1H29.6zM27.7 9.9h-.1v.2l.2-.1zM20 10.8l-.3.2v.3h-.2v.2h.4l.1-.1V11l.3-.1-.2-.2zM2 43.4v-.2h-.1v-.5l-.3-.4V42l-.2-.1-.1.1v.2l-.2.1H.9v.3h.2l.1.2.1.3.1.1.1.3.2.2h.4v-.2zM55 107v.1h.3v-.2l.1-.1v-.2H54.6V107zM52.8 100.6h-.2l-.3-.1v-.2H52v.2l.2.2v.1h.5v-.1zM50.2 100.1l.4-.3h-.4l-.2.1zM51.4 100.1h.5l.1-.1v-.1h-.5zM51.7 98.5h.1v-.3h-.1zM50.3 99.6h.5l.1-.1h-.4zM51.9 97.7h-.4v.2h.4z"/><path d="M52.5 100.4v-.1l-.1-.1h-.1v.2zM49.7 96.2h.2-.2zM49 95.8v.5l.2-.1h.2l-.2-.4zM55.4 97.3v-.1H55l.2.1zM55.9 98l-.1.2h-.5v.2h.3v.1h.3l.2-.3V98zM49.9 96l-.4-.3-.2.1.2.3h.4zM49.3 99.5h.4v.1H50l.2-.2.2-.1v-.1h.9l-.2.2v.2H51.4l.1-.2h.1l.2-.2V99h.1v-.2l-.3-.4h-.2l.1.3h-.3V98.3H51l-.1-.1h.4v-.1h-.2l-.1-.2h-.2l-.2.1-.1.3-.3.5h-.5v.1H49l.3.2v.2zM52.4 98.6h-.1v.1h.2v-.1zM54.8 97.4v.2h.1v-.1zM54.4 98H55v-.1h-.6zM54.8 97v-.1h-.1zM49 97.7l-.1.4H49.2v-.4h.2v-.2l-.1-.1h-.4v.2zM54.6 97.3h.1l.2-.1V97h-.2z"/><path d="M49.6 98.5h.7v-.1l.1-.4V98h-.2v-.1h.2v.1l.2.1v-.1l.3-.1h.3l.2-.1h.1l.2-.1.2.2h.2v-.2h.2l-.1-.2h-.8l-.1.2H49.9v.3h-.6v.2l-.3.1v.2l.2.1zM54.5 97v-.1h-.2v.1zM53.3 98.4v.1h.1v-.1zM53.5 98.2h-.2.1zM54.8 98.2h-.2v.2h.3v-.1zM53.7 97.2l-.3.2h-.6l.2.2h.4l.2.2h.5v-.5l-.2-.1z"/><path d="M54.1 97v.1l.2.2h.2V97h-.2V97zM47.9 100.8v.6h.3l.5-.2.4-.3v-.1l-.4-.2-.2-.2h-.2l-.2.2h-.2zM55.5 96.8v-.1h-.1v.1zM55.7 105.5h-.3v.2h.3v.1l.1.1h.2v-.2h-.2zM55.4 105v.2H56l-.2-.2zM57.8 105.2l-.1-.2h-.2v-.2h-.2l.1.1v.3l.2.2v.2h.2z"/><path d="M55.5 107.8h.5v-.4l-.1-.2v-.4l-.1-.1v-.3h-.2l.2-.1v-.2h-.2l-.1-.1v-.2l-.4-.3v-.1l-.3-.4h-.1v.5h.1v.1h.2v.1l.1.1V106.1H55l-.2-.1h-.2v.2h.2l.1.3h.5l.2.2-.2.2v.5h.2v.1l-.1.1zM57.7 106.3v.1-.1zM56.5 107.5V107.2h-.2v.1l.1.2zM56.6 109.2l.2.1h.2v-.2h-.1l-.2-.2h-.2v.1l.1.1zM56 108.2l-.2-.2-.1.1zM58.9 106.1l-.2-.2h-.3v.2h.2v.1h.2zM57 106h-.1.2zM48.5 104.5h-.2l.1.4.2.2v.1l.3-.3v-.1l-.2-.2zM12.2 41.8l-.3-.2-.1-.3v-.1l-.2-.4v-.5l-.2-.5.1-.2v-.1h-.2l-.2.2.1.1v.4h-.3l-.1.2h-.2l-.3.3-.2.1-.1.1V41.5h.5l.2.3h.1l.3.2.3.1h.1l.2.2h.4l.2.2.3.1.2.2h.1v-.2l-.1-.1-.3-.1-.1-.2h-.1V42zM56.2 107.5v-.2H56zM56 108v-.1h-.2v.1h.2zM58.6 102v-.2h-.1v.1z"/><path d="M52.5 104.3h.2v-.1h1.7l.4.2h1v-.4h-.2v.1h-.1v.1h-.3v-.1h.2l.2-.3-.1-.2v-.1h.1l.2.1h.4l.1.1v.3h-.1l-.3.1v.2H56.5l.2.2h.3v-.1l-.1-.1h.4l.1.2h.2l.9.3h.1v.2h-.4l-.1-.2h-.3v.2l.4.1v.2h.2v.4l.1.1.4.2h.2l.2.4h.2v-.2h.5v-.3h-.2l-.2-.1-.1-.1v-.3l-.3-.2.2-.2h.4v-.7h.2v.3h.2l.1-.1h.1l.2.2v-.4l-.2-.1-.1-.2H60v-.1h-1l-.1.3h-.1l.2-.4h-.1v-.2h-.1l.2-.1-.1-.1v-.4l-.1-.3v-.5h-.2v.2H58.2l-.4.1h-.4v.2h-.3l-.1-.2-.1-.3h-.1l-.2-.3h-.3v-.1h-.2l-.4.3h-.2l-.2.1h-.2v.2h.1l.5-.2h.2l.1-.1v.4l-.3.3h-.2l.3-.2-.2-.2h-.2l-.2.1H55l-.2-.3H54.6l.2-.3v-.2h-.6l.2-.2v-.2h-.7l-.3-.1H53.1v.1l.2.1h.1l-.1.2.1.2h.2l-.1.2h-.1v-.2H53v.2l-.1.2-.1.2v.3H53.5l-.4.2h-.4v.1h-1.3l-.1-.2H51v.4H51v.7l.2.1h.1l.1.1h.4l.4.2zM50.7 106.6h-.1V107l.1.2h.1l.1-.1v-.3zM50.7 107.2v.4l.2-.1v-.3zM49 103.5h-.5v.1l.6.5v.2h.4v-.3l-.3-.3z"/><path d="M59 106.4v-.2h-.2v.2zM50.8 103.4v-.2h.2v-.7h-.2l-.2-.1-.1-.3H50l-.4-.1v.6l.7.5v.2l.2.2zM60.4 105l-.1-.4h-.1v.4h.2zM59.8 107.9h-.1v.1h.2v-.1zM59.2 107.8l.3.1v-.1zM59.7 103.8v-.1h-.4v-.1H59l.1.2h.5zM60.1 105.2v-.2H59.4l-.1.2.3.3.4-.2zM60.4 105.7l-.1-.1v-.2H60l-.2.2h-.2v.2h.3l.2.2-.1.2v.5h.2v-.4h.4v-.1l-.2-.3zM60.7 106.8h.1v-.1h-.1zM56.4 107h.2v-.2h-.4v.1zM24.7 17.8l.1-.2v-.1h-.1v.1l-.2.2v.2h.2zM40.6 76H41.8v-.1h.5l.2-.1.1-.1h.1l.3-.2h.2v-.1h.3l.6-.2h.8l.1-.2V75l.4-.2v-.3l.3-.3V74l-.2-.2v-.1h-.1v-.2h-.2V73l.3-.2h.2l.2-.1.1-.1V72.2l.1-.3h.3v-.2h-.2l-.2-.1h-.4v-.3H45.3v-.1H44.5v.2l-.1-.2v-.4l.2-.2h.3l.2-.1h.7l.3-.4h.2l.2.1.2.3.1.3.2.1h.4l.1.2h.4l.1-.1.1-.2.2-.2v-.2h.2v-.1l.2-.1V70l.2-.1.2-.1v-.2H49l-.1-.1h-.2v-.1h-.4v-.1h-.1l-.2-.2H47.1l-.4.1v-.1l-.5.3h-.4l-.2-.2h-.2l-.2.1H45v.2h-.2v-.2l.2-.2V69l-.5.2-.3.1H44v-.1l.3-.3v-.1H44l-.1.2v-.2H43.6v.2h-.1l-.2.2H43V69h-.2l-.2.3v.1l.1.2v.5l-.3.2-.2.3V71l-.2.2-.5.6h-.2l-.1.1v.2h.1V72l.3-.1.4-.4h.1v-.2l.2-.2.1-.2v-.1h.3v-.1h.3l.1-.2h.6v-.2h.2l.2-.1.2-.1v.5l-.3.4h-.4l-.3.1-.1.1v.5l-.1.3v1.4h-1.7v-.1h-.2l-.1.1-.3.1V74.1l.2.1v.1h-.5v.1l-.1.2v.1h1l.2.1-.3.1v.4h-.1l-.2.1v.1l-.1.2H40.7v-.4h-.2l-.2.5H40l-.6.5v-.1l.2-.2.1-.2v-.1h-.1l-.3.2v.2-.2h-.2v.6l-.1-.1h-.2v-.2l-.2.1v.3-.1h-.3v-.2h.3V76l.2-.2h-.4l-.3.2V76H38l-.1-.1.2-.2.2.1h.7v-.1.1h.3V75h.1v-.2l.1-.2v.3l.2.1-.1.3H39.9V75h-.1v-.4h.2v-.2h-.2v-.1h.2l.1.1H40.4v-.1l.2-.2V74l-.2-.2.2-.2h.2l.2-.3.3-.2h-.7l-.2.2-.3.1-.1-.1h-.2l-.1.1H39.4v.2l-.1.2H39v.5H39v.2l-.1.1H38v-.2h-.2l-.1-.2h-.4L37 74h-.2l-.1.2v.3l-.3.4v.2h.3v.1h.2l.6.6.2.5v.1h.2l.6.5v.1h1V77h.3l.4-.4v-.2l.1-.2h.2zM24.5 18.5h.2l-.1-.1V18v.2h-.1zM21.6 10.5l.1-.1v-.1h-.1l-.1.1v.1zM24 15.1v.1h.2V15l-.2-.2h-.1v.1zM25 17.2v.2h.1v-.1H25z"/><path d="M36.4 73l.4.3v.2l.2.1H37.3l.1-.3v-.2l.1-.1v-.2h.2l.2-.2h.1l.4-.3-.1.3-.2.2h.6l.2.2h.1v-.1h.4v-.1l.3-.2h.4l.3-.3V72h.2V72l.1-.2h-.1l-.2.2h-.8V72l-.3-.3V71.3l.1-.2H39.7l.4-.2.2-.2.3-.1v-.1h-.2V70h.4l.3-.1.1-.2h.1l.1-.1h.1l.1-.1v-.1H41l-.1.1-.2-.2h.2v-.2h-.1V69H40.1v-.3H40l-.3.2-.1-.2h-.1l-.2.2H39l-.2.2h-.3l-.2.2v.2H38.7v.3l-.3.2H38l-.2.2h-.2l-.1.2-.2.1-.1.2-.2.2-.1.1v.1l-.5.1-.1.1h-.4v-.5l-.2.1-.1.1H35v-.1h-.2l-.2.2h-.8V71.4h.5l.4.3.2.3.3.1.3.1v.1l.4.4h.2l.3.1zM21 10.5h.1v-.1L21 10l-.3.2.2.1zM40.8 72.3l-.1.1-.2.2h-.2l-.1.3H40l.2.1h.2v-.2h.3l.1-.3h.3l.1-.2v-.1l-.4.1zM50.9 102.1v.2h.2zM39.6 67.6l-.2.1v.1h.5V67.5h-.1zM43.4 59.5h-.3v.2h.3l.2.1v-.3h-.1zM25.8 8.2h-.2l.1.2H26l-.1-.2zM24.8 8.5h.1v-.1h.3l-.3-.2-.2.2zM24.6 20.7h-.2v.9h.1V21l.2-.2h.2l.2.1h.2v-.3l.1-.2h.2l-.2-.4v-.2h-.2v.1L25 20H25.3l.1-.1v-.2l.1.2h.2l-.2-.4h-.2l-.1.2h-.5l-.2.2v.3l.1.1.1.3v.2zM19.1 43H18.3v.3l.1-.1h.2l.1.1v.4h.2l.1-.1v-.2h.2l.2-.3v.1h.2v-.3H19.3zM20 44.4v-.2h-.1V44h-.2v.1l.1.2zM19.3 42h.1l.1.2.3.2H20l.2-.1v-.5H20v.2h-.3v-.1h.3l.1-.2v-.2H19.5v.2l-.2.1zM6 44.4H5.6v-.1h.1l.1-.1h.3l.2-.1h.3l.3-.2h.5v-.2l.1-.1V43l-.2-.4.1-.1v-.4l-.3.2H6.4l-.3-.2v-.6l-.1-.1h-.1v.8l-.2.2-.1.2H5v.2h-.2l-.2.1H4.4l-.1-.2h-.2v.2l-.1.2v.1l-.2.3v.2l.3.3.4.3.1.1H5l.1.2h.4zM18.9 33.3h.2v-.1H18.9v.2z"/><path d="M33.7 70.9v.1h.6V70.6l.2-.1.1-.2v.5h.2v-.3l.4-.1v-.2h.3l.2-.1v-.4l.1-.2.3-.1H37.2l.3-.2-.1-.1h-.2V69h.2v-.2h.2l.4-.4h.4l.2-.2h.2l.2-.1V68h-1.5v.1l-.4.1-.1.1-.2.2-.3.2H36l-.2.3h-.2l.2-.2h.1v-.1h-.3l-.3.1-.4.2v.1l-.2.1-.2.3v.4h.2v.2h-.4l-.2.3v.1H34v-.1l-.1-.2v-.4h-.1v-.4l-.3-.1V69l-.3-.1h.5l.1-.2v-.2h.9l.1-.2h.2v.5h.2l.1-.2v-.2h.1v-.2l.3-.1V68H35.4l-.4-.3-.1-.1h-.2l-.3-.1h-.2v-.2H34v-.2h.1V67h-.4l-.2-.3h-.1.1l.2-.1h.5v-.1h.2l.2-.2h.4V66l.6-.6.2-.2H36.8l.2-.2h.2V65h.1l.2-.3.2-.4V64h.2l.1.1H38.3v.1h.2l-.1.1v.4h.4l-.4.2v.2h.4l.2.1.1.2v.2h.3v-.1h.4v.2H40.1l.1.2h.7v.4H41.2l.2-.3h.3l.1-.2v-.2h-.2v-.1l-.2-.1v-.1h.1V65H40.5l-.3.3h-.2l.2-.2h.2l.2-.2H41.4l.2-.4h.3v-.2l.6-.2V64h.3v-.2h-.1v-.2h.2l.1-.1v-.1H43.3v-.2h.2l.1-.1.1-.1-.2-.1-.1-.1V62.5l.1-.2.4-.2.3-.1.2-.3v-.1l.3-.2h.4V61h-.4l.2-.1.2-.3v-.2h-.5l-.1-.4h-.2v-.2H44l-.2.2h-.2l.1-.1v-.1h-1l-.1.1h-.3l-.1-.3.2-.2h.5l-.1-.2.3.1h.3v-.2h-.1V59h.2l.3.3h.3l-.1.1h-.2v.3h.3l.2-.2.3-.1v-.2l.1.1h.1v-.2l.4-.2V58.4h.2l.1.4h.2l.3-.3v-.2h.3l.3-.3h.2l.3-.3h.2V57.3H47.7l.4-.1h1.5v-.1h.5l.3-.3h.7l.1-.2H51.6l.1-.1v-.2h.3l.2-.2h.1l.4-.3h.5V56.3H53.8v-.4l.2-.1.2-.2.2-.3.1-.1V55l-.1-.2h-.1l-1 .1v.1h-.1l-.1.2h-.5v-.1l.4-.1.2-.1H54.1v-.1h.2l.3-.4h.3v-.1l-.1-.2V52.5l-.2-.2v-.1h-.2l-.1-.2v-.2l-.2-.1v-.2H54v.4l-.1.1h-.2v.1l.1.1h-.2V52.6v-.2h-.1v-.9l-.2-.1v.2l-.2-.1v-.2h.2v-.1l-.3-.4v-.1h-.1l-.3-.3v-.8l.2-.2h-.1v-.4l-.1-.1v-.4l-.1-.3v-.3h.1l.2-.3h.3v-.2H52.8v.1h-.1l-.3-.1h-.2L52 47v-.3l-.1-.1h-.2v-.2l.2.1v-.5l.2-.1v-.1l.3-.2v-.2h-.1.3V45h.2l-.1-.2h.4l-.1-.3h-.1v-.3l-.1-.4-.1-.5h-.2v.4l-.2-.2h-.1v-.2h.2l-.1-.1h-.1l.1-.2h-.2v-.2h.2l.2-.1v-.5h-.2l-.1-.4v-.3l-.2-.1v-.3l.2-.2h.1V41l-.1-.1v-.1l-.2-.4-.1-.1-.1-.2-.2-.2v-.2l-.4-.3-.2-.3-.1-.1-.4-.4h-.2v-.2l-.5-.4-.1-.2-.1-.1h-.7l-.2-.3h-.2l-.2-.3V37l.1.1v-.2H48l-.2-.3V36.2H47.5l-.2-.2v-.1l-.1-.4-.1-.1-.2-.3h-.1V35h-.1l-.3-.4h-.1l-.7-.7v-.1h-.1l-.1-.1-.3-.7-.3-.2-.1-.3-.4-.3-.4-.2-.3-.3-.2-.4-.1-.4v-.4h-.2v.2-.1l-.3-.2-.2-.3h-.1v.1l.1.2v.2h-.1v.2l.1.1h.2v.3l.1.1h.2l.1.2v.2l.3.2v.1l.4.1-.2.2v.2l-.1.1h-.1v-.2h-.1V32l-.3-.2v-.2l-.5-.4-.2-.2-.2-.2H42v-.1l-.2-.1v-.3h-.2l-.1-.4V29.6l-.2-.3-.1-.2V29l-.2-.3v-.3l-.1-.1.1.1.2.2v.2h.4v-.3l-.4-.2-.1-.6v-.2l-.3-.2-.2-.2-.2-.1v-1.3h.1v-.1h-.2l-.1-.2v-.1l-.2-.2v-.4l-.2-.1v-.2l-.3-.2-.1-.5v-.5l.2-.3V22l.2-.4h.2v-.2H40l-.3-.1-.1-.2h-.1v.1h-.2V21L39 21h-.2l-.2-.3h-.1v.2h.1v.1l.2.1H38.5l.1.2h.2l-.1.1v.2l.1.1v.3h.1v.1l-.6.1.2.1v.4l.2.1v.1l-.1.2h-.3l-.1.2H38.5v.1h-.7v-.2l-.1.1h-.2v-.1l-.2-.4v-.1H37l-.1-.4-.2-.2V21.7H36.4v.1h-.3l-.1-.2v-.4l.2-.2.3-.3v-.3l.1-.1.1-.2h.1v-.5h.2V18.6l.1-.1h.3V17.8l.2-.2-.1-.2V17l.2-.3v-.5h.2-.1v.2h.4l.2.1h.2l.1-.1V16l-.2-.2v-.2l-.2-.3-.1-.1-.2-.2v-.2h-.7l-.2.2h-.1v.2l.2.1h-.4l-.2-.2-.2-.1v-.2l-.3-.4-.1-.1h-.2l-.2.3-.2.1h-.2v-.2L35 14v-.5h.2l.1-.2v-.1H35V13l.1-.3h.1v.3h.2v.5l.5.3.1.2h.1l.1-.3V13.4H36v.2h-.1v-.2l-.1-.3v-.4l.2-.2h.2l.1-.1h.2v-.2h.2v-.4h.1l-.2-.4v-.2l-.2-.1V11l-.2-.3-.1-.1h-.2l-.1-.3V10l-.1-.2h-.2v-.1l-.3-.4v-.2l-.2-.3-.5-.8h-.1v.4l-.2.1H34l-.3-.4h-.2v.2H33l-.2.3-.5-.5V8l-.2-.1H32l-.2.1v.2h.1l.2-.1.5.3v.2h-.1.2V9l.1.1h.2v-.2h.2L33 9l-.1.2-.3.2h-.3l-.1.1h-.6v.1h.8l.1.2h-.2v.2l-.2.2H31.3L31 10H31l-.1-.1h-.4v-.1H30l-.1-.2v.1l.5.3.1.1h.2l-.1.1v.2l.1.2h-.3v-.4l-.1-.2-.4-.2-.2-.1h-.2v.2h.1l.2.1H29.6l.3.5-.2.4v-.2H29.4v.2l-.1.1-.2.2H28.7l-.1.1v.5h.1v-.1h.2V12l-.3.1v-.3l-.2-.2V11.3h-.1v.4h-.2v.2l-.2-.2H28v-.4H28.2V11l-.1-.2v-.4l-.2-.1h-.1v.4h-.1v-.2l-.3-.2v-.1h-.1v.1l-.1-.2h.1l.1-.1V10l-.1-.3H27v-.2H27l-.1-.2h-.1v-.1l-.1-.1h-.3V9h.1l-.1-.2-.3-.2h-.2v.1h-.2v-.2l-.1-.1H25v.1h-.3v-.2h-1.2v.1h-1v.1h-.3l-.1-.1H22l-.2-.2h.3V8l-.2-.1v-.1h.1l.3.3.2-.3V8h.4v-.1h.2l.4.2h.4l.7.1h.7V7.8H25l-.2.2h-.1l-.1-.1h.2l.2-.1H25.9v-.1h.2l.1-.1H26l-.1-.2h-.4l-.3-.4-.4-.1-.3-.1h-.3v-.1H24l-.2-.1h-.7l-.1-.2h-.7l-.2.1h-.9V7L21 7v.1l-.1.2v.1l-.2.1.3.5V8l.1.2v.2h.1l.2-.3v.3l-.2.1.1.1V9l.3.3v.4l-.3.2v.1h.5l.1.1.3.6.2.2v.1H22v-.2h-.2v.1l.3.3v.2l.2.2.2.2.2.1v.1l.2.3h1.1l.6.7h.3l.3.3h.2v.3h-.1l-.2-.1-.3-.2h-.7v.1l-.1.1v.2h.8-.5V14l.1-.1-.1.2v.3l.2.1v.1l.1.1-.1.2v.3l.3.3h.2l.1.1h.1l.1.1h.3l.2.1h-.2l-.1.1v.2l.1.4H26.3h-.1l-.2.2v.1h.2v.2h.5l-.4.2v.1l-.3.2v.1l.3.1.2.1h.2l.4.3v.2l.2.1v.5l-.2.2h-.3v.2h.1v.1l.2.3.1.1-.3.2v.4l-.3.3v.2l-.2.2H25.8l-.2.3v.1l.3.3h.1v.2l.3.1H26v.3l-.3.2.1.1h.1l.2.1h-.5l-.2-.3-.2.1h-.1v.2h.1v.2h-.2l-.1.1-.2.4-.3.3v.2h-.2v.1h.4l-.1.2.2.2h.1v.2h.2v.2h-.4l-.2.3v.2l.1.3h.1-.3v.3l-.2.1H24l-.2.1-.2.6-.3.2V27.2h-.2l-.1.3-.3.3-.2.4h-.2v.2l-.2.3-.3.4h.5v.3h.3l-.2.1h-.1v.1H22l-.1.1v.1h.2v.2l-.3.3v.4h.2v.3l-.2.3h-.4V31h-.7l-.1.1h-.1v.1h-.2l-.2.2-.2.3h-.2l-.2.1.1.2-.1.1v-.1H19.2v.2h-.1V32l-.3.3-.2.2v.1l-.1.3-.2.2-.2.1h-.1l-.2.1-.1.1v.1h.2l.2-.2h.2l.4-.4H19l.1-.1h.4l-.3.2V33.4l.1.2h.2l-.2.1h-.2l-.3.1h-.1l-.2.2v.2l-.2-.1h-.2v.3l-.1.1v.2h.4l.3.3h.2v.2h-.8l-.2-.3h-.5l-.1.2h-.2l-.3-.4h-.1l-.2-.2v.1l.2.5.2.2H17.3l.1.2h.1l.2.1h.1l.2.1h1l.6.2.2.2.1.1.2.1v.2h.3v.1l.1.2h.2v-.2l-.1-.3-.5-.4.2-.3v-.1h.8v-.1H21l-.1-.1h-1.2v-.5h-.5l-.2-.2v-.2h.2v-.1h.2v.2h.6v-.2h-.2l-.1-.1V34h-.1l-.2-.1h1.1v.1h.2l.1-.2h.5l.2.2.2.3H23l.3.3-.1.1-.3-.3h-.3v.2h-.2l-.3.3-.1.1-.1-.1h-.2l-.1-.1h-.3v.2h.1l.2.1v.4l.1.2h.5v.1l.3.2H23l.2.2.4.3v.2l.3.3v.2l.1.2v.4l-.1.2-.3.2.1.2-.1.1.1.2h-.4l-.1.2H23l-.1-.2-.1-.2h-.2l-.1-.2h-.3v.1H21.5v-.3h-.2v.5H20.7h.2l.1-.1v-.1h-1l.1-.3v-.2H20l-.1-.2h.2l.1.2.1-.1v-.3l.1-.1h.3l-.2.3v.2l.3.3.2-.1v-.6l.2-.2-.2-.1-.2-.2-.3-.1-.2-.2-.3-.1-.1-.2H19.7l-.2-.1h-.1l-.5-.3h-.6v.4l.3.2-.4-.2V36H18l-.2.1h-.1l-.2-.1h-.4l-.1-.2h-.4l-.2-.1.1-.2h.4v-.2h-.6v.1l-.3.2h-.3V35.2h-.1l-.2.5-.4.3v.2l.1.2v.4h.2v.1l.3.3V37.6l-.1.2h-.2l-.1.1v.1l-.3-.2h-.2v.1l.2.2v.4l-.2.2h-.2l-.2-.2H14l-.1.6v.1h.3l.1.1.4.1v.3h.2v.1l.1.2.2.3h.5l.2.2.1.3h.2l.2-.2v-.8h-.2v-.5l.2-.2V39v.7l.5.4v1l.1.4v-.1l-.1-.3h-.1v-.5h-.2l-.2.2v.2l.3.2v.4l.3.2V42l.1.2v.2l-.2.2v.2l.2.1.3.2v.2l-.3.2v.1h.4l.2-.2h.3v-.2L18 43l-.2-.1V42.4h.1l.1-.2h.2v.2H19l.2-.3.1-.1v-.3h-.1l.2-.4h-.2v-.1l-.3-.2v-.1l.2-.2V40h-.1l-.3-.4-.2-.2-.1-.3-.2-.1h-.3l.1-.3h-.3l.2-.1h.3v-.3l-.3-.3-.2-.2-.2-.1-.2-.3H17l-.2-.1h-.2V37.1l-.2-.2v-.1l.2.1.2.2v.2l.5.2.2.2.1.1.2.1.2.2V38.4l.2.6.2.3.2-.1-.1-.2H18.9l.1-.1v.3h.1v.2l.2.2v.1l.2.1v.2h.9v.1h.9v.1H21l-.3.2v.2l-.2.2v.1l.1.1v.2H20l.2.3v.1h.1v.3h.2l.2-.2.2-.2-.1.2-.2.2H21l.2-.2v-.4l.2.1v.4l-.2.1v.2l-.1.2-.3.2v-.2h-.2v.2H20l-.2.2h.1v.5h.2l-.1.2h-.3l-.1.1v.1h.2v.1h.4v-.3h.2v-.2h-.2V42.8h.2l.3.2-.2.3-.2.3v.2l-.2.2v.5l-.1.2h-.2v-.3h-1.7v-.2l-.1-.1H17.8v.6h-.2V45.7l.2.2h.2v.2l.2.1v.2h.5l-.2.4-.3.2H18v.1h-.2l.1-.2v-.2h.1v-.2H18v-.1l.1-.2h-.2l-.1.1v.3H17.4V47l.1.1-.1.4v-.2h-.2V47h-.1v.2h-.2l.1-.1v-.3l.1-.2h.3v-.4h-.2l-.1.1H16.8v-1.6l-.2-.3V44l.1-.1v-.2l.3-.3v-.1l-.1-.1V43l-.2-.2.2-.2v-.1h-.2v-.2h.3v-.2h-.3v-.4l-.1-.1h-.1V41H16.1v.6l-.2.3v-.6H16V41l-.1-.3v-.2h-.6l-.1.3.2.3h.2l.2.2-.3-.1h-.2l-.1-.2-.1-.2v-.4l-.3-.1h-.4v-.1h.5l.1-.2V40h-.1v-.3l-.2-.2h-.2v-.1H14V40H14l-.2.2-.5-.2-.3-.3v.5l.2.3.2.2v.4h-.1v-.4l-.2-.2v-.1h-.4v-.1h-.5v.2h.1V41.3l.1.3.2.2v.5l.4.3v.4l.1.3v.1l-.5-.6h-.2l-.5-.3h-.2v.1h-1l-.2-.1h-.1v-.1l-.2-.1-.2.2h-.1l-.3.3v.3l.3.3.2.3v.2h.1v.1H9.5l-.2.1-.3.4h-.3l-.1.3h-.1l-.7.7h-.1l-.4.4h-.2L7 46h-.7l-.2.1-.3.4h-.4l-.2.3v.1l.6.5v.1l.1.2.2.2h.3l.4.3.5.5.3.2 1 .8.1.2H9l.1.2.1.1.4.2h.2v-.2l.1-.1v-1.7l-.1-.4v-.5V47.8l.2.1v.7h.1l.1.8v1.2h.1v.4l.2.3v.2l.3.2.6.3.2.1.3.3.3.1v.1l.3.2h.2v.1l.4.1v.1l.2.1h.1l.6.4H14.3l.2.3.4.3.2.1.3.2.3.3h.2l.2.2.2.2h.3v.2l.4.2h.1l.4.2.3.3h.2l.2.2h.2v.2h.2l.3.3H19.2l.2.3.2.1h.1l.2.1h.2l.2.1h.3l.2.2h.5v-.1h.2l.2-.2v.2l-.1.1v.1h.2v.1h.2v.1h.4l.3-.2.3-.2.2-.2v-.1h.1V57h.1l.2-.3.2-.2.3-.3.1-.1V56h.1l.2-.2.6-.4.2-.1h.1l.3-.2h.6l.3-.2.3-.4.2-.1.1-.1v-.1l.2-.2v-.2l.2-.2v-.2h.1V53h.1v-1.5h.1v2h-.1v.4l-.3.4v.5l-.5.6-.2.1h-.1l-.1.1h-.1l-.2.2-.4.3-.4.3-.8.9-.1.2v.2l-.3.3-.3.5v.4l-.1.4v.4l.1.3.2.2.4.2.2.3h.2l.6.5h.1l.3.2.3.3.2.1h.2l.1.2h.2l.2.1h.1l.1.1h.4l.1-.1h.1l.2-.3V61l.1-.1v-.3l.2-.1v2.1l.1.1.1.1h.2l.2-.2.1-.2.4-.4.2-.1.3-.1h.1l.5-.1h-.4l-.3.2v.1h-.2l-.5.6-.1.1v.5l.2.2.3.4.3.2v.1l.1.2h.2l.2.3v.1l.3.3v.2l.3.2.3.2v.5h.1v.7l.2.4v.2l.1.2h.1l.2.2v.5h.4l.2.3v.3H33l-.1.1v.3h-.2l.1.1v.5l.5.4.1.1h.1l.1.3h.2z"/><path d="M22.1 36.8H22v.2h.5v-.2zM21.4 36.3l-.3.2V36.8h.8l.1-.1v-.2l-.3-.2zM21.4 35.3H21l.2.4.1-.2h.2v-.1l-.1-.1zM20.5 34.3h.2l.2.2h.2l.1.1h.2v-.2H21l-.2-.2h-.2V34h-.3V34h-.4v.2H20.6zM23 38l-.3.1v.1H23l.2-.1V38zM20.2 34.9H20l.1.2h.3v-.2h-.2zM23.5 37.5v-.2l-.2-.1V37h-.4V37h-.3l-.7.5v.2l.3.1.2.2h.3v-.4l.1-.2h.2l.1.2h.3zM25.2 17v-.2l-.2.2zM57.5 102.2h-.1.1zM57.5 102.5l.1-.1zM58.8 100.6v.1h.2v-.1h-.2zM58.7 100.6l-.1-.1h-.4l-.2.2v.1H57.6l-.1.2v.2H58l.4.1H58.6v-.4l.1-.2zM58 102v.1h-.2l.1-.3-.1-.1h.1v-.2l-.1-.1h-.5v.4l.2.2v.2h.2v.2h.1v-.1h.2l.1-.1zM57.3 102.5z"/><path d="M58 102.3h-.1v.1h.2zM52.8 102H52v-.2h.2l-.1-.3h-.3.3v-.1h.5v-.1h-.2l-.2-.1.4-.1-.5-.1v-.1h-.2v-.1h-.6v-.1H51v-.1H50l-.1.1v.2h.1v.1h.7v.2h.8l.1-.1h.2l-.2.1v.2l-.2.1-.1-.2H51l-.2.2-.6.1h-.4v.2H50.7l.1.1.1.1.3.2.1.2h.1l.1-.1.1.2h.2l.1-.2h.2l.1.2.4.1h.2l-.1-.4.2-.1zM56.6 101.8h.1zM51.4 102.8h.4v-.1l-.3-.1-.2-.1h-.2l.1.3zM54.1 100.5H54v.1zM56.5 101.7v.1zM53.1 100.7v.2h.3l.2-.1h.4v-.1l-.1-.2H53.2l.2.1h-.2zM54.9 101.2v.1zM57.5 98.5h.1v-.1l-.1-.1h-.2zM48.7 95.2h-.1v.2h.2l.1.1H49.5V94.7h-.1l-.1-.1H49l-.2.2v.2zM48.4 95.4h-.2v-.1H48v.1h.3zM48 99.9v.1l.1.1H49.4v.5l.3.1.1-.3h.2V100h-.2l-.1-.3h-.4v-.1l-.2-.2v-.2h-.4l-.2.2h-.2l-.1.1-.2.2zM45.9 103.6h-.2l-.1.1v.2l.2.1v.2h.3l-.2-.4zM48.5 102.8v-.1l-.2-.4h-.6l-.2-.2h-.2l-.1.1H47V102.6h.2l.3.4H48.4z"/><path d="M48.8 95.6v.2h.4l.1-.1h.3l.3.2h.2l.3.1h.2v.1H50.3l-.4.2h-.6l-.2.3v.2H50 49v.4l.2.1h.2l.2.1h1v-.2h.1l.2.1h.7v-.1H53l.2-.1v.1h.4l.1-.1.2-.3h.3l.2-.3h.3l.1-.1h.5l.2.1h.2v-.2h.6L56 96h-.2l-.1-.2h-1.2l-.4.3v.1H54l-.2.2h-.2l-.4-.2h-.4V96h-.1l-.2-.1h-.2l-.3-.2-.1-.2h.2l-.2-.3V95l-.2-.3-.2-.1h-.3l-.2.2-.3.1h-.4l-.2.2H49.6v.3l-.2.2zM56.9 98.8h.1zM58 98.6l-.1-.1h-.1l-.1.1h.2zM59.2 100.4v.1z"/><path d="M54.9 95.8v-.1h-.2v.1h.1zM43.8 102.7h-.1l.1.1zM55.2 95.8v-.1H55zM57.1 98.4v-.1h-.5l-.3.3h-1.9v-.1h-.5v-.1h-.3v.1l.1.1.1.2h.3V99.2H54l-.3.1h-.2l-.1.2-.1-.3H53l-.3-.3h-.2l-.1.2v.2h-.1l-.2-.2h-.3v.4l-.2.1h-.1v.2H51.9l.1.1h.2l.2.2h.1v.1l.1.1H53l.2-.2.1.1h.3l.2.1.4.2h.2l.1-.2h.2l-.2.5v.1h-.2l-.2.2v.2h.3v-.1h.4l.1-.1h.2V101.3h.2-.2v.2h.3l.2.3v.2h.4l.3-.3h.1l.2-.2.1.3h.4l.2-.2v-.5l-.2-.1-.2-.1H56v-.1h.1l.3-.1v-.1h.4l.2.2h.8v-.2l.2-.1H59v-.7l-.1-.5v-.4l-.1-.1h-1.5l-.1.2-.2.2H56.5l-.2-.1.3-.3h.2l.1-.2h.2zM59.4 100.2v-.1h-.1zM52.2 97.8l-.3.3v.4h.3l.5-.4.2-.2-.2-.1z"/></g></svg>