<svg width="171" height="59"><path d="M84.6 11.2zm0-.1zm86.2 40.8v-.3l-.1-.3-.2-.2-.6-.3-.3-.3-.1-.1-.2-.1h-.4l-.3.2-.2.1-.3.2h-.3l-.4-.1h-.3l-.2.2h-.1l-.1-.4-.4-.3-.4-.3H165.3l-.1-.2-.8-.8-.1-.1-.5-.7-.2-.4-.1-.1-.8-.5-.3-.2v-.3l-.6-.1-.2-.2h-.1V46l-.3-.4.2-.1-.2-.2h-.4l-1.2-.2-.3-.2-.2-.2-.3-.2H158.1v-.2l-.2-.1h-.2l-.1-.1-.3-.1-1.3.1.2.3h-.4l-.1-.2V44.5l-.1.1-.2-.4h-1.2V44h.2v-.2h-.2l-.7-.2h-.3.1-.7l-.4.1-.2.2.4.1.6.3.2.2H152l-.2-.4v.2h-.2v-.2l-.2-.2h.4l-.1-.2-.4-.3h-.2l-.3-.1h-.5l-.3.1-.2.3h.5v.4h-.2l-.1-.1-.2-.1v-.1h-.1l-.3.3-.9-.2v.3h-.3l-.1-.2V43.7h-.5l.1-.3V43l-.1-.3-.3-.2-.2.4-.7.6-.2.4v.1h-.3l-.6-.4-.2-.3-.2-.2.1-.2v-.4l.2-.5v-.4l1 .1h.3l.8-.2.2.1v.1l.1.1v.1h.2l.2.2.2.2h.3V42h-.1l-.2-.1v-.5h-.1l-.7-.4h-.8l-.4.1-.2.3-.2-.3-.2-.3v-.2h.4v-.2H145.6v-.1H146.5v.3l.1.2h.3l.3-.1.2-.3.1-.2v-.3l.1-.1v-.1l.2-.2h.1l.4-.8-.6-.8-.3-.2-.7.1-.1-.6-.3-.2H144.8v-.1h-.1l-.3-.2-.9.6.1.1h-.2l-.1-.2-.2-.1h-.5l-.3.2-.3.1h-.5v.3h-.2l-.1-.2-.1.1v.1h-.1v-.2l-.1-.1-.1-.2h-.2l-.2-.1h-.2l-.2.2-.2.1h-.1l-.2-.1V36.6l-.1-.4-.5-.4-1.7-.6-.2-.1-.4-.4-.5-.2-.3-.2h-.4l-1.8-.1h-.3l-.1.3v.2l.2.3h.2l.5.1h.3l-.2.2-.5.2h-.2l-.1.2h-.1l-.1.1H132.9l-.1-.3h-.7v-.2l.1-.1h-.3V35h.8l.2-.3v-.6.3h-.1l-.2-.3-.4-.2H131.3v.4l.2.1v.1l.4.1v.1h-.6l-.3-.2-.2-.2h-.3l-.3-.1-.2-.1v-.5h.2l.1.2v.3l.9-.4.2-.1.1-.1v-.3l-.3-.2h-.2l-.2-.1-.4-.1-.3-.2h-.2l-1-.3v.2l-.1.2-.2.3v.4l-.1.2-.2.1v-.4l-.7.4-.2-.4v-.2l.2-.2h.2l.6-.1h.2v-.2l.2-.4h-.3v-.2l-.1-.2-1-.2-.5-.2-.2-.2-.3-.3-1.7-2-.3-.2h-.3v.2l-.5.8-.2.9-.1.2h-.2l-.1.1-.4.2h-.2l.1-.2H121.8l-.1-.1-.1-.3-.1-.3V30h.3V29.4l-.3-.2H120.8l-.2-.2-.3-.1-.2-.1v-.2l.1-.2h.5l.2.2h.1l.1.1h.2v-.1h.6l1 .5.4.4.2-.2.4-.4v-.5l-.2-.2-.1-.2.1-.3-.3.1h-.4l-.3-.2-.9-.7h-.2l-.5-.5-.2-.2-.3-.2-.8-.2-.3-.2-1.7-1.2v-.1l-.1-.4v-.2l-.6-.4h-.3l-.3.1-.2.3-.1.3h.2l.3.2.5.5.5.5.2.2.2-.2.2.2.3-.1.2.1v.4h.1l.3.2h.1l.1.2.1.4.2.5.2.2.4.2.1.2.1.2v.1l-.1.2h-.2l-.5-.2h-.4l-.2-.2-.1-.1v-.3l-.3-.5v-.6h.5l-.3-.3-.2-.2h-.3l.1.1v.1H118.2l-.1-.2h-.4l-.1.2v.2l-.7-.4-.3-.2h-.3l-1 .2v-.1l-.2-.1h-.4l-.5-.1-.2-.1-.1-.2-.1-.2v-.5l-.2-.2-.2-.1h-.4l-.1-.1-.2-.2-.1-.1-.1-.2v-.2l-.1-.3.1-.2h.5l.2-.3H112.3v.2l-.2 1.3v.1H111.8l-.3-.5v-.2l-.8-.7-.2-.2h-.2v-.2l-.4-.5v-.3l-.2-.1-.3-.3-.2-.4-.1-.2h-.7l-.1-.1-.2-.2h-.4l-.1-.2v-.4h-.2l-.8-.1h-.2l-.6-.3H105.2v-.2l-.4-.1-.1-.1-.1-.2-.2-.3v-.1H104V18h-.3l-1-.2-.3-.1-.3-.2-.3-.2-.4-.3V17l-.3-.1-1.7-.6-.5-.6h-.5v.1h.1l.1.2.2.3-.2.5-.1.1-.2-.2-.1.1h-.1l-.3-1v-.1H97l-2.4-.3h-.4l-.3.1-.6.3H93l-.3-.2H92.3v.2l-.2.1h-.3l-.9-.2h-.1l-.2.2h-.3l-.2-.3-.2-.1h-.4l-.5-.2-1.3-1.1v-.2l-.5-.6-.2-.1h-.7V13l-.4-.5-.2-.2-.2-.5-.2-.3-.2-.2-.1-.1-.2-.1-.3-.1-.4-1.7v-.1h-.4l-.1.1-.1.1h-.2l-.1-.1-1-.7H82l-.7-.1h-.1l-.2-.2v-.1l-.3-.3.3-.6.1-.1.4.2.3-.2.1-.2V7h-.1l-1 .2-.5.5-.3.1v-.1l-.2-.1h-.3l-.6-.4-.4-.7v-.2l-.2-.1L78 6H78v.4h-.7l-.8-.5H76l.1.4-1 .4H74l-.3-.1-.2-.1-.2-.3h-1.4l-.2-.3-.2-.2-.1-.1H71l-.6-.2h-.3L70 5l-.6-1-.4-.4.4-.8.1-.1v-.1h-.1l-.2-.1h-.2l-.2.1.3.3-.1.3-.3.3-.4.1h-1.5l-2.4.4h-.4l-.3.2-.3-.1-.1-.4v-.3H63l-.7-.1h-.4l-.2.1-.2.5v.1l-.3.3-.1.2h-.5l-.6-.2-.8-1-.7-.2V3l.2-.1.8-.6.7-.2.5-.1.2-.2-.3-.1h-.2l-.7.4-.4.3-.6.3-.2.1-.8.1-.4.1-.1.2H57l-1.3.3H55.4l-.1.2v.1l-.2.4v.1l-.3.1h-.5v-.1l.2-.2V3l-.3-.2-.3-.3h-.7l-.1-.1h-.2l-.3.1h-2.8l-.4.1-.5-.1-1-.1-.4-.1-.6-.5h-.7L46 2l-.7.2H45L43.8 2l-.5.2-1.1.2-.7.3h-.7l-.2.2-.5.4-.2.1h-.2l-.2.1-.2.3-.4.2-.7.3h-.3l-.4.2-1.5.2-1.4-.1-.3.1h-1.5l-.2.4-.2.4-.3.2h-.3v-.3l-.1.1-.1.1h-.1V5.2h.1l.1-.1V5h-.4l-.1.1H31l-.2-.2h-.2l-.2.2h-.2l-.6.2-.4.1-.2.2v.2l.3.3h-.1l-.2.2-.1.1h-.2l-.2-.3v-.4l.2-.1v-.1l-.2-.2h-.9l-.8.6h-.2l-.3.2-.3.3-.2.4V7l-.2.1-.3.2h-.1v-.2H25l-.2-.2-.2-.1-.2.1-.1.2-.2.3-.1.1h-.3V7.2h-.6v.1l-.3.5V8H22l-.4.2-.3.2.1.1h.1l.1-.1v.1h-.1l-.2.2H20.4l-.6.1-1 .6h-1l-.2.2-.2.4-.2-.2-1 .7h-.1l-.3.1h-.1l-.1-.3-.1-.2H15l-.2.1v.2h.4l.2.1v.2l-.1.2-.1.2h-.4l-.2-.2-.1.2v.3l-.1.2-.5.1h-.1l-.1.2-.2.7-.1-.3H13l-.2.2-.2-.1h-.1l.1.3v.3l-.2.4-.2.3-.3.1-.7.2-.3.2h.4v.1l-.3.2-.2.2-.4.5V15.5l-.1.1h-.1l-.2.1-.3.5-.3.8v.7l-.1.3-.2.3-.1.3-.2.1h.3l.1.3.1.3.1.2.2.2.3.1.3.1h.3v.2l-.2.3.3.2v.4l.1.4.3.2.1-.2.2-.3.2-.2-.2 1-.3-.1-.4.3V22l-.2-.2-.2-.2-.3-.2H9.3l-.4.3-.4.1-.5-.2.1-.1v-.1h-.6l-.9.7-1.3.5-1.1.4-1.3.7v-.4l-.2-.1h-.2l-.3.1.3.2v.2l-.2.2-.3.1h-.4l-.1-.1v-.1l-.1-.1-.1-.1h-.1l-.1.1-.1.2-.1.4v.2l.1.3.3.1.6.2H3.2l1.6-1.2.6-.2 1.3-.4.7-.1H8l.4.6-.2.6-.6 1.4.2.3h.7l.7-.4L11 24l.5-.1.4-.2.1-.1h.7l.3-.1.6-.4.3-.1h.4l.6.4H15.5l.2-.2.1-.1.1-.2v-.1l-.2-.1v-.1l.1-.3.6-.4v-.4l-.1.1h-.4l-.1-.2V21h.3l.1.1V20.5l.1-.5.7-.7h1.8l.2-.3h.1v.2h.1l.1.1 1.8-.3v.2H21h.4l.5-.3.4-.4.2-.5.2.2v.2l.1.2-.1.1.7.3.8.1.7-.2.4-.5.1.2H25.7v-.2H26v-.1l.1-.3v-.2l.1-.1.2-.3.6-.3v-.3h.4v-.4h.5l.5.1h.5l.4-.4.9-1.7.4-.5.5-.3 1-.6h.7l.1-.2 1-.8.5-.2.3-.1V11l.1-.3.2-.3.3-.2h.3l.7.2 2.3.3h.1l.3-.2H41l.7.2h.7l.6-.2h.4l1.9.4h2.2l1.2-.2 1.4.1.6.2.5.3.7.5.2.2.7.4h.1v1l-.2.4-.1.2h-.2l-.1.2-.1.1-.1.1h-.5l-.2.1h-.1l-1.3.3h-.6l-.2-.1-.4.1-3 .1-.4-.1-.1.2h-.3l-.2.2v.3l.1.3.3.1h.5v.1l.2.3v.1h.5l.1.2.3.2h.2l2.2 1 .3.3v.2l.2.3.4.4h.2l.8.2h.1V19H51.3v-.3h.1l.3.1H52.6l.1-.2h.4v.1l.7.2.1.2h.2l.3-.1.2-.2H55l.3.2H56.1l.6.3.4 1.1.5.3h.2v-.2h.1l.1-.2h.1l.2.2h.3v-.6l.2-.1.4-.2.1.1.3.5v.6l-.2.3h.3l.2-.5v-2l-.3-.7v-.2l.1-.2h.4l.2.1.4.7h.1l-.1.7v.4l.5.9.1.3.3.1.6.2.6.3h.3l1.3.2 2.3-.3 2 .2h1.9l.7.2v-.8l-.2-.4-.3-.3-.4-.4-.2-.2.1-.4.2.1h.4l.2-.2v.2l.2.2.4.2-.2.3v.2l.2.1h.3v.2h.4V20.6l-.1.1v.2l.3-.1-.3.2h-.7V21.3l.2.2h.3l.1.2v.1l1.7 1.9.5.4.8.2.5.4.7.2.6.2h.3l.3.2.2.2.1.3v.4l.2.2.2.3.3.2.2-.2h-.1l-.2-.1v-.2l.1-.1h.2l.3.1.4.1h.5l.3-.3v.7h.3v.1l-.3.1v.2h.4l.3.3h.3v-.3l.3-.3h.4l1 .3h1.1l.2.1.1.2.1.2.1.1.1.1h.1l.7.3h.1l.1.2h.4v-.1l.1-.2v-.1l.2.1.3.4.1.2h.2l.3.2h.3l.8-.1h.3l.2.3.3.2 1.3.3h1.2l.7-.2.8-.4h1.3l.2-.2h.7l.5.1h.1v-.2h.1l.1-.1h.1l.7-.1.8-.2h.2v-.2h.4l.3.3.2.1.1.1.2.3v.2H98.6l-.2-.1-.1.2v.1l.3.1.8.1.2.1.3.2.3.3.3.5.3.5v.6l.2.2.3.5v.6l.2.6v.3l.1.1.6.2v.4l-.1.1h-.2l-.2-.2v.5l.1.5.3.4v.5l.1 1.1.1.6.1.1h.2l.6.5.1.2.3.4.2.3h.7l.2.1 1.1.8.1.3v.1l.2.2.2.2V41.7h.5l.3.2.3.2.2.2.2.5.2.2.4.1h.2l.5.7v-.2h.2l.2.3.5.2h1l.3-.2.2-.2.2-.2H112.6l.3.1.4.3h.3l.8.1H114.7l.3.1H115.8l.3.3h.1l.6-.4.8.3H118.4l.1-.1h.4l.2-.2.4-.2h.5l.4-.1.5.1.3.4.2.4.4.3v-.3h.4l.5.4v.2l-.3.4-.2.1h-.2V46.4l.2.1.3.2.2.2.1-.2v-.1h.1l.6.2.4.3.1.1.5.8-.2.6-.1.1-.1.1v.8l-.7.4-.1.1v.3l-.2.2-.1.2-.3.2h-.4v-.3h-.2l-.2.2-.3.6-.2.2h-.3l-1.6.8-.3.2-.2.3-.7.4-.3.2-.3.4v.1l-.4.2-.1.1-.5-.1h-.1l.2.3v.1l-.7.7v.1l-.1.1-.4.5-.3.3V56.6l-.2.2-.1.1h-.1l-.2.1h-.1v.2l-.3.5v.5l.2.2h.2l.2.1h.3l1-.3h1.2l1-.2h1.5l.3-.1.4-.2h.3v-.1h-.4l.2-.3.4-.1h.5l.4.2v-.2h.6l.2-.1h.5l.7.4h2.4l.4-.1.4-.2.5-.4.2-.1h.7l.3.1.4-.2 2-.1h2.3l.7-.2h1.5l.6-.2 1.2-.3h.8l1.4.1 2 .5h.3l.2-.1.3-.1H143.5l.6.1h1.8l.6.3.6.5.6.3h.6l.3.2h1.4l.2-.2H150.6l.6.2H152.8l.8-.3v-.6l.7-.3h.4V56h.2v-.4l-.1.1-.2.1v-.1l-.1-.2v-.2h.1l.2-.1h.2l.3.4V55l.2-.3.3-.2v.5l.1.3v.2l-.3.3h-.4l-.1.1V56.3h.6v1.1l.4-.2.2-.2h.1l.3.3.4-.2.6-.4v-.1l.1-.4V56h1.2l.3-.3.2-.3.3-.2.4-.2h.4l2-.2h1.6l1-.2h.6l1-.3h.7l.7.2h.6l.5-.4v-.6l.1-.1h.1l.4-.2.2-.3h.3l.3-.3.2-.4V52zM93.4 11h1l.1.2.1.2.4-.2V11l-.2-.1-1.5-.1H93l.2.2h.2zm-.5 29.3h.3l-.4-.4-.6-.6-.7-.5H91v.2l.2.2h.1l.2.1v-.1l-.1-.1V39h.3l.4.4.4.4.2.3-.2-.2-.2-.2-.2-.2h-.3l.6.7.3.3.4.2v-.3zm1.3.6H94l-.1-.2H93l.2.2.8.5h.4v.2h.2l.1-.3v-.2l-.3-.1h-.3zm-5.4-4h-.5l.1.2.4.3.1-.1h.2v.1l.2.2h-.4l.1.2h.8l-.6-.7-.4-.3zm7.5 5.3h-.7v-.4l-.2-.1H95.1l-.2.4.4.3 1.1.2.3.2v-.5l-.4-.1zM84.6 8.9l.5-.2.3.2.1.2.1.2.1.1h.1l.3.3v.2l.1.1h.1l.4.3.2.1h.6l.5.6.3.2.2.1h.1l.2.1h.1l.4.4-.2-.3-.2-.4-.4-.4-.6-.2-.6-.5-.7-.2-.4-.3-.8-1H84.8l-.4.1V9h.2zM97.4 43l-.3.1.2.3.3.3h.4l.3-.1-.5-.4-.4-.2zM69.8 2.1v.1h.7l.2.2H71l.1-.2h.1V1.9H71l-.5.1h-.1l-.2-.2h-.5l-.1.2v.2h.2zM75 6V5.7l-.1-.1-.2-.1.2-.2h.1l-.3-.2h-.3l-.8.4-.1-.1H73.2l.2.3L75 6zm4.5.5l.1-.1.2-.2h.1l.4.1.1-.1v-.3h-.8l-.3.2.2.4zm-15-3.6l.6-.1h.2l.1.1h.2l.3-.1.1-.1v-.2l-.2-.3h-.1v.3l-.3-.3h-.2l.1.1v.2h.1H64.5l-1 .7-.1.2.8-.4.4-.1zM76.2 4l.3-.1.2-.1v-.1h-.3l-.2-.1-.3-.1-.1-.2-.1-.2h-.1l-.1.1-.1.1-.1.2v.1l.6.4h.3zm35.7 42h-.2.2v.3l.2-.2-.2-.1zm-3.4-1.8v.2h.1l.2-.2h-.3zm-8.4-.8V43.2l.1-.2V43h-.1v-.1h-.2v.1h-.1v.1l.2.4h.1zm.2-1.9h-.1v.3h.2V41.6zM40.6 29.4h-.2l-.3-.1H40v.2h.2l.3.2.1-.1v-.2zm2.2-.3h-.3v.1h-.4l-.2.2H42.6l.2-.1.2-.1h-.1zm-4-2.5h-.1l-.1-.1-.1.1v-.2l-.2-.2h-.1v.1l.1.1V26.7h.1v.2h-.1.5l.1.1h.1V27l-.1-.3zM28.7 26v-.4l-.2-.2v-.2h-.1v.2l.2.5h.1zm9.2-1.7h.2V24l-.2-.2h-.2l.1.2h.1v.2zm-.6-.5l.2.1h-.1l-.1-.1zM25.8 23h-.4l-.7.1v.1l1.3-.1V23h-.2zM58 21.6h-.4V21.2l-.2-.2v.1h-.2v.4h-.4v-.2h-.2l-.3-.2-.1-.2H56l-.1-.1h-.1v.2h.2l.8.7h.4l.1-.1h.1v.1h.1l.6-.2H58zm46.8-3.1h.1l.2-.3V18l.2-.2v-.1h-.3l-.3.3v.2h.2v.2h-.1zm6.3-.5l.1-.1.3-.3h-.5v.1l.1.2zm.1-1.5l.3.3v.2h.2V16.7l-.2-.1v-.1l-.3-.3h-.1v.2l.1.1zm-102.4-1h.4l.2.1.3-.1h.2v-.2H9.5l-.6-.1V15l-.1.1v.2h-.1zm98.5-1l.1.1h.1v-.2h.1v-.1h.1l.1.2v.2h.2l-.1-.3-.2-.2-.2-.1v.2l-.2.1-.1.1h-.1v.1h.2zM96.6 14h.1l.2.2h.1v-.3l-.1-.2h-.4v.1l-.1.1.2.1zm2.6-2v.2h.2v.2-.1h.1l.1.1h.1v.2h.2v-.1l-.2-.4-.3-.2H99v.1zm-7.2-.1v.1h.1l.1-.1h.1V11.4H91.7v.2H92zm-5.4-.8v-.1h-.1V10.5h-.2v.1l-.1.1-.1.1V11.3h.2l.1.1V11h.2zM18.8 8.9v-.2l.1-.1h.2l.1-.1h.2v.1h.1v-.1l-.2-.1h-.2l-.2.1-.2.3V9v-.1zm62.3-2V7h.2v-.2H81zm-2-1l.1.1h.2l.1-.1v-.2l-.2-.2H79V5.8zm-.8-.7l.2-.1.2-.4-.2-.2h-.1l-.1.1h.1v.1h-.2v.5h.1zM63 1.2V1h-.1l-.1.2v.2L63 1zm95.8 43.1v.1-.2l-.3-.1v.1l.3.1zm-54.9.6H104.2l-.1-.2v-.1h-.1V45zm-1.5-1.6V43l-.2-.2v-.1V43l.2.3zm-3.6-6v-.1h-.1V37h-.3v.1h.2l.1.2h.1l.1.1v.1h.1v-.1l-.2-.2zm-.8-5l.1-.3H98v.2zm-48.1-8h-.1H50h-.2zm64.5-.3h-.1v-.2H114v.2l.3.2h.1V24zm-5.5-4.9l-.2-.1v-.1h-.1v.1l.1.2.1.1H109.1v-.1.1h-.1V19zm-67.5-5.3v-.1.1l-.1.2v.1h.1V13.8zm53.3-.2h.1l.1-.1v-.2H94.5V13.7zm-2.8-.4h.2V13l-.1-.1h-.2v.1h-.2l.3.2zm-55.3-.8v-.1l-.2-.2-.1.2v.2l.3-.1zm77.2 8.6h-.1l-.2-.3-.2-.1-.2-.1h-.5l-.2.2-.1.1-.2.1h-.2l-.3-.1-.2-.2-.2-.1h-.3.1v.4l.1.3.3.2.1.2.1.3.3.1h.2l.2-.3h.1l.1.4v-.2l.1-.1V21.5h.2l.2.1v.5l-.1.2v.2l.2.1.3.2H114l.2.1.1.1v.2l.3.3v.2h.2V23.3l.1-.3.2-.1v.4l.3-.2h.2l.3-.1-.2-.3v-.1l.3-.8v-.4l-.1-.2-.3-.3h-.2l-.1.2h-.4l-.5-.3-.2-.1-.3.2h-.1zm-8.4-6l-.2.4H105.6l.4-.1.3.1.3.4v.2h-.2v.5H106.7v-.2l.1-.2.2-.1.3.1.1.3-.3.2.4.3.4.1h.7l.8.6h.4l.2-.2h-.5l-.4-.5v-.7l-.2-.3-.1-.2-.2-.2-.3-.3-.4-.3h-.4l-.3.1-.1-.2h-.2l-.5.2H105.4zM99.7 13l-.1-.1h-.2v.3h-.2v.5l.3-.1.3-.3.2.3-.2.2.3.2.4.1.7.1.4.3.4.1h1.1l.3-.1.2-.1h.1l.1.2v.2H103.4v.2h-.1v.2l1.9-.4H105.6l.1-.1v-.1l-1-1.1-.2-.3.2.1-.1-.2-.3-.2h-.4l-.4-.1-.3.1-.2.2-.2.2H101l-.4-.2-.7-.2H99.7zm10.4 4.4v.7l-.1.2-.2.3-.2.2-.2.1.1.3.5.3.1.3h.2l.5.4.2.1-.1-.4.2-.2.4.2v.3l.2.1v.2H112l.2.1.3-.3.3-.7h-.1l-.3-.2h-.2l-.1-.1-.1-.1-.2-.1h-.2l.3-.2h.2l.2-.2-.1-.2-.1.1H111.8l-.2-.3v.1h-.1l-.1.2.1.2h-.2l-.1-.1v-.2l-.2-.2H110.3v-.5l.2-.2v-.4l-.2-.1-.2-.1h-.3l.2.3v.1zM38.3 28.7l-.1-.2.1-.2v-.1h-.2l-.2-.1-.4-.3.1-.1v-.4l.2-.4.1-.2v-.2l-.1-.3-.1-.1-.2-.1h-.2l-.7-.6-.2-.3V24.2l-.2-.2-.3-.1-.9-.3-1.3-.3-2-.3-.2.2.1.1h.4l.2.1h-.3l-.4.3-.3.2-.1.2v.2l-.8.5-.1.7.2.7 1.3 2.4.2.2h.5v.2l-.2.5H32l.1-.3V29H32l-.2.2-.3.1-.4.4h-1l-.3-.1-.2-.2-.1-.2-.8-.6-.2-.2v.2l.1.4.1.4.2.4.1.2.5.2.2.2.5.7h.7l.2.1.3.1h.1l1 .1.2.2h1.3l1.2-.5 2-1h.3l.3-.2.4-.3.3-.4.1-.2-.1-.1-.3-.2zm-15.5-5.9h-.2l-.5-.2-.1.1.2.1h.7zm31.5-1.4v-.2l-.1-.1-.2-.2H53.7V21.2l.1.1h.3l.1.1h.1zm-15.2-9.8v-.2H39v1.3l.2-.2V11.6zm-2 11.3l-.4.1.2.3.4.2h.6l-.2-.3-.6-.3zm63.8 21.7v.2l-.3-.1h-.2l.2.1v.1h.4v-.2zm-1 0h-.1l.1.2h.3v-.1l-.2-.1h-.1zM47.5 28v.2l-.2.2h-.4l-.4.2-.1.1-.1.1-.2.1H46l-.3.3-.2.1h.7v-.1h.2l.5-.3.6-.2.3-.3v-.3l-.2-.1zm2-.3l-.5.3v.1l-.3.2h-.3l-.1-.2v.2l.2.2h.3l.5-.4.2-.1.3-.2v-.1h-.3zm48.6-14.4h.4v-.2l.1-.2v-.1h-.1v.1H98v.4zm-7-1.9v.1l.3-.1.2-.2h-.8l.2.1v.1zm-8-3.8h.2l.1.1V8h.4L84 8l-.1-.1-.2-.2h-.1l-.1-.2h-.3l-.1-.1v-.5h-.2V7.2l-.1.1V7.5l.4.2zM81 6.2v.1l-.2.1V6.7h.5v-.2H81l.2-.2h.1l.1-.1V6l-.1-.1-.2-.1h-.4l-.1.3.1.1h.2zm-3.7-1.6H77.6l.2.2v-.3h-.1v-.2l-.2-.2h-.2V4.4h-.1v.1l.1.1zM74 3.2l.1.1.3.2.1.1.1.1.1.1h.2V3.4l-.2-.2-.2-.2-.1-.1v-.1h-.5v.2h.1zm-2.5 0l.2-.2h.2l.2-.2H72.7v-.1H71.6V3h-.2v.2zm-3.9-1l.2-.1h.2V2h.1l.1-.2v-.1h-.5l-.1.3v.2zm-2.3-.5h.2l.4.2h.8l.3.2.1-.1h.4v-.1l-1-.2h-.6l-.4-.2h-.3l.1.2zM64.1 1v.1l.2.1h.4l.2.1V1h-.2l-.4-.3H64l-.2.2h.2V1zm39.1 42.6l-.3-.1h-.4l-.2.2h-.6l-.2.2.3.1.3.1.2-.1.7-.2.2-.2zm9.2-26.3l.2.3v.2l.5 1 .4.4h.4l-.2-.3-.3-.3-.2-.3-.2-.7-.3-.4-.3-.3h-.4l.2.2.2.2zm-7.7 28.9l-.2-.1h-.1v.3l-.3-.1-.2-.1-.2-.4-.2-.1-.2-.2h-.3l-.2.1.6.3.3.2.2.4.2.1.2.1.2.1.3.2h.1v-.6l-.2-.2zm43.5-3.4l.1.2.3.2h.3l.5.2h.3v-.2l-.2-.2-.2-.5h-.2l-.2-.1-.7.1v.3zM57 27H57l-.5.4-.2.2-.1.3-.1.1-.2.1-.2.1-.2-.1h-.2l-.2.1-.1.3-.2.1H54.1v.4h.6l.4-.3 1.3-.8.6-.6h.1V27z" fill="none" fill-rule="evenodd"/></svg>