<svg width="108" height="116"><path d="M106.4 31.6l-.2-1-2.4-3.4-.4-.9-.2-1.3v-2.5l-.2-1.1-.5-.8-.6-.7-.5-1-.3-1-.1-1.1v-2.3l-1 .7-1-.3-1-.9-1.5-2.4-6.2-7.1-.7-1.1-.5-1.3-.6-1.1-1-.7-13.9 6H73l-.8-.7h-.6l-1 .9L69 10l-2.7 2.6.2 2 .6 2-.4 1.8-.8.4-1.9.3-.5.6-.9 1.3-2.3.6-.8 1.2-10-8.8-3-1.3-1.7-.5-1.1.2-3.3 3.6-3.8 5.1-2 4.3-8.4 11.5-1 2.4-.5.8-1.5.7-.7.8-2.6 4.8-7.7 11-.7.6-.9.7-.9.4-.7.2-.5.4-.4 1-.6.8-2.5 1-1 .7-1 2-.8 5-2 5.8.1 3.5L2 87l.7 7-.1 12.4-.4 2.8-1.1 1.8.7 1 1.6.6 7.6 1.5.2.4.1.4.4.3h.6l.3-.2.3-.3.4-.2 3.6-.1 1.8-.5 2-2 1.7-.5 3.5-.4 3.3.7h1.2l.8-.2 2.3-1h2.2l2.1-.8 1.5.3 1 .3h1l1.3-.6 4.2-2.8 5.8-1.7 2.9-.3L60 106h1.5l1.2.5 1.6 3.6 1.1.9 1.4.3 2.7.2 1.5.5.9.1 1-.3.6-.8.6-.5 1 .3 20.2-31.5-.9-1-2-1-.7-.5-.7-1-1-3.9-.3-.6-.7.2-.5.8-.7 1-1.2.2-1.4-.8h-1.3l-1.3.2-10.6.2-.5-.3-.7-.5-.5.2-.5.5-.7.5-1.4.4-4.3.5-2.9 1.1-1.3 1-.5 1 .3.3.6.4.5.5-.4.8-.6.3-.6-.1-.6-.3-.5-.2-.7.3-1 1h-1l-.7-.2-1.3-1.2-2-.8-.5-1.3v-1.7L50 74l-.8.1v-.4l.7-.5 1.4-.1.4.2.6.8.3.3h2.2l1.6.3h.6l2-.7.5-.3.5-.5 4.4-8.2 1.5-1.5 1.6-1 6-2.1 1.2-.3 1.7.7 1-.4 1-.7.8-.4 3.5-.1 1-.3.3-.4.2-1 .3-.4.4-.3 1-.4.4-.2 4.9-5.8 2-1.5 1.3-.3 2.7-.1 1.2-.2 1.8-1 1.7-.2.5-.2 1.7-1 1.4-1.7 1-1.9.3-2-.5-5 .2-3.7zm1.1-16.2h-.3l.1.3.4.1-.2-.4zM91.3 64l.5.3.7.5.2-.6-.4-.2-.6-.2-.4.2z" fill="none" fill-rule="evenodd"/></svg>