<svg width="108" height="116"><path d="M106.8 57.5l.8-1.7.1-.6-.1-.5-.5-1-.2-.1-.7-.6-.4-.5-.7-.4-.7-.3-.5-.1h-.3l-.3.1-.3.1h-.3l-.3-.2h-.3l-.4.1-.3.2v-.7l-.1-.8-.3-.7-.3-.6-.5-.5-.6-.3-.8-.1-.7.1v-.1l-.2-.2h-.2L97 48H97l-.1.2-.1.2h-.5l-.9-1v-.5l.3-.5 1-1.4.2-.2.2-.2v-.2l-.1-.2v-.5l.3-.3v-.2l-.1-.2h-.5v-.2l-.2-1.3V41l-.2-.6-.1-.4v-.5l.7-.9.7-1.5.3-.4 1.4-.7.4-.4v-.8l-.3-.4.6-.7.9-.2 1 .2 1-.1h.2l.1-.2 1.5-1.2v-.4l.1-1 .6-.8.8-.7.7-.7-.2-.9v-.2l.1-.2.2-.1.2-.2v-.4l-.5-.2-.4-.3-.3-.4-.3-.4-.2-.4-.3-1-.2-.3-.9-.4-.3-.4-.1-.5v-1.9l-.3-1.1-.2-.2-.2-.2h-.2l-.1-.2v-.2h-.3l-.1-.1-.2-.1-.1-.1-.8-.2h-.7l-.6.3h-.4L99 18l-.3-.2-.3-.2-.3-.1-3.6-.3h-.2v.1l-.2.5-.2.4-.3.1h-.5l-.2.1h-.1l-.4.1H91.8l-.2.3-.3.2-.7.2-.4.6-.2.1-.6.2h-.6l-.6-.1-.6-.3h-.7l-.4.1-.1.2-.1.3h-.4l-.3.1-.3.5-.4.1h-1l-.4.1h-.2v-.3l-.2-.1h-.2l-.2-.3h.3l.2-.2v-.3l.2-.1h.2l.4-.1.2-.2.2-.4h.1v-.2l-.1-.2V17.3L84 17l-.3-.9-.4-.2.1-.3v-.2l-.1-.2-.2-.2-.2.2-.3-.5-.3-.6.3-.3V12.2l.2-.3v-.4l-.1-.3.2-.1.2-.3.2-.2.1-.7v-.5l-.1-.2L83 9l-.2-.3v-.1h.3l.1-.4.2-.2v-.1l.2-.1v-.2l.1-.2v-.5h.2l.3-.5h.1l.7-.4.2-.4V3.3l.1-.6v-.2l-.2-.2-.3-.3-.3-.2h-.8l-.3-.2-.6-.1h-.7l-.2.2-.4.4h-.2l-.7.1L80 2h-.5l-.2.1H79l-.6-.2-.2.1-.2.1h-.2l-.3-.1-.2.2h-.3l-.4-.3H76l-.2.2-.3.2h-.4L72.7 2l-.4-.2-.3-.2-.4.1-.4-.1-1-.3h-.7l-1 .1H68l-.6-.4h-.4l-.4.2h-.5l-.7.3h-2l-.3-.1h-2.5l-1.4.1H56.7l-1-.3-.3-.3-.2-.1h-.5l-.4.2-5 .2V2l-.2.2v.2l-.1.3v.5l-.1.2-.1.2.1.7V20.3l.1 4.9H26.8l-2-.1-1 .1v.8l-.1.3-.2.2h-.6l-.4-.1-.3-.3-.5-.5-.3-.2-.3-.1-.5-.1v.2l-.2.3-.2-.3-.1-.8-.3-.4-.3-.1h-1.4l-.2.2-.1.2-.2.3h-.7l-.2.1-.3.2-.2.4-.1.4.1.2.2.2v.3l.1.4.7 1.7.1 2.2v1.3l.3.4-.1.3-.2.8-.2.1-.1.2-.1.3v.7l-.3-.1-.1-.2-.2-.5.2-.3v-1l-.2-.3v.2l-.1.2-.2.1h-.2l-.1-.4-.4-.2h-1l.2-.3h.4l.8.1.4-.2v-.3l-.1-.5-.3-.3h-.4l-.3.1-.3.2-.3.2-.3.1H13l-.3.2-.2.1-.5.1h-.4v.3l-.2 1v.3l.3.3h.6l.4.1.5.6.2.3.9 2 .3.3.2.2v.6l.2.2h.2l.4-.2h.4l.2-.3.2.4.3.3.6.3.9.7.2.1h.7l.3.3.2.2.9.3.2-.1 1.5-.1.3-.1.4-.2.3-.2.3.3.4.1h1v.1l-.8.3h-.6l-.6-.3h-.3l-.2.1-.6.4-.2.2-.4.5-.2.1-.3-.3h-.5l-.3.2v.3l.3.3.6 1.3-.6-.5-.5-1-.7-.6-1 .2-.1-.4-.2-.1h-.4l-.6.6v.1l-.2-.2-.1-.6-.1-.2-.3-.1-.9-.3-.2.4v.3l.1.8v.2h-.2l-.1-.1-.1-.1-.1-.7-.2-.4-.5-.4v-.3h-1v.1l-.2.2-.1.2-.1-.2v-.4h.1l.2-.1v-.4l-.1-.2.2-.7v-.8l-.2-.4-.2-.1H12l-.6.6-.1.1-.1.5v.2l.1.6.7 3.5v.5l.1.1v.4l-.2.1v.2l-.1.3v.2l.2.5v.8l-.1.2v.3l-.5.9-.2.3v2.4l-.2.8-.5.7L9 53l-.4.7-1 1-.2.4.1.3.3.3v.5l-.3-.5h-.2V56.4h-.1l-.3.2h-.1l-.2.2v.7L6 58v.4l-.1 1-.1.4h-.1l-.2-.2.2-.7v-.4l-.2-.3-.7-.6-.2-.4v-.3l-.2-.3-.1-.2-.5-.2H3.6v.3l.1.2.2.1.2.1v.1H3.2L3 57v.4l-.2.3v.3l.2.3h-.3l-.1-.3v-.3l-.2-.1h-.2l-.2-.3L2 57l-.1-.7-.2-.7-.2-.4H1l-.1-.1v-.4l-.5-.1-.3-.2.2-.3-.1-.2-.3.4.5 1.4.5.7.3 1 .4.6.5 1.1.2.5.1.2.2.7h.1l.2-.1.2.3v.5l.2.2.3.1.6-.3h.2-.1l-.2.2-.1.2-.1.3.2.1h-.5l-.5-.5L5.1 64l.3.8.1 1.1v.2h.2V66l.2-.5-.3-.5.4.3.3.4v.4l-.3.3v.1h.1v.8l.1.4h.3l.2.2.7.5.3.1H8l.2-.1.1-.1h.1l.2.2v.9l.2.3h.3l1-.2h.1l.2-.4.1-.2.3-.1h.2l.1.3h.4l.2-.1.1-.2v-1.5h.1V67.6l.3.7v.3l-.2.5-.1.4-.2.2h-.6l-.1.1v.1l.2.2v.5H11l-.3.1-.3.1-.1.2v.3H10.6l.2.1V72l.2.3v.3l.1.1h1.1l.5-.2.4-.3.5-.6.1-.2v-.5h.1l.3-.1.4.2h.2l-.1.4v.4l.2.7.2.3.3.2.8.3-.6.2-1.5-.2h-.6l.1.3v.3l-.1.6-.3-.2v-.8h-.4l-.5.2-.4.2-.3.3V74l-.2-.2H11v.1l.2.3-.1.2h-.2l-.1-.2-.2-2.3-.6-.2H10l-.9-.8h-.1l-.3-.2-.5-.8-.2-.1v-.4l-.5-.5-.2-.5L7 68h-.6l-.4-.5-.2-.3-.2-.5-.2-.5v.4l.2.4.2.4.2.4L8.3 71l1 1 .5.6.3.8v1l.2.4V77l.1.3.3.1.4-.2.4.3v.2l-.1.3H11.7l.2.2.1.1V78l.1-.2h.2v-.1l.1-.2.1-.2.1-.2.4.2.4.8.4.3V77.7l.4.2.2-.2.3.4.6 1v.1l-.1.2-.3.3.1.2.5.3.2.2h.2l.1.3.2.4v.3l-.3.1v.1l-.1.2-.1-.2-.1-.2-.4-.3v-.6H14.5l-.1-.1-.1-.1-.2-.2.4-.4v-.4l-.2-.3h-1.6.1v.1l-.2.1V79l.2-.1-.1-.4h-.2l-.1.4H12h.1v-.1H12l-.4-.1-.4-.3-.1-.3-.1-.1-.1.1v.2h.1v.2l.2.1.2.2.2.2.8.8.2.7.2.3.4.1v.2l.2.3.5.6.5.3 1.9 1.8.1.3.1 1.7.2.4.2.6.4.5.5.5.4.3-.2-.3-.4-.5-.2-.3.4.3.7.9.3.1.2-.2V88l-.3-.4v-.2h.5v.5H19.4l.1.2-.1.1-.2.2v.5l.3.1.1.1h.5l.4-.5.4-.3h.8l.1-.3h.1l.2.1v.2l.5.8h.3l.5.1.5.2.2.1v.2h-.6V90.6l.2.2.3.1v-.2l.1-.1.1-.2.1-.2v-.2l.1-.1h.4l.1.1h.2l.2.4.1.1h.1v.2l.2.2h.3l-.3-1v-.3l.3.3.4.2.4.2v.3h.1l.4.3-.1.2-.2.1h-1.1l-.4.1h-.3v.2l-.2.4-.2.1-.2.2h-.2v-.3H24.2l-.1.1-.2.2v-.3l-.1-.6h-.4l-.1.2H23L23 91l-.3-.4h-.1l-.7-.3-.3.1-.1-.2v-.7l-.1.1v.1h-.2l-.1-.1v-.2l.1-.3V89l-.3.3-.2.3-.3.2H20l-.4-.2-.5-.6-.4-.3.4.7 4.2 4.2 1 .6.3.4 2.9 2.3 1 .5 2.2 1.9 2 2.1.2.1.3.2.2.3.3.7.8.7.1.2.2.2.6.3.3.2.3.5.2.3v1.1l-.1.3.2.3 3.2 2.1 2.1 2 .6.6.2.4.1.3v.4l.1.4.1.3.2.4.7.8 1.6 1.4 1.2-3.4.3-.6.5-.4.7-.4.5-.5.6-.4.8-.1.7-.2.4-.6.3-.5.5-.4 1 .1.7.6 1.4 2.3.3.4.4.1 1-.1h.4l1.1.3h.3l.4-.1.4-.3.3-.4.2-.4-.1-.4-.4-.2-.4-.1-.4-.3-.2-.3v-.5l1.1-2.5.3-.4.8-.6.2-.4-.2-.6-.7-.3-.9-.3-.7-.3-.7-.6-.4-.2-1-.5h-.2l-.2-.2v-1.5l.1-.3.3-.5h.9l.5-.4V99l-.3-.4-1.4-1.5-.7-.9-.3-.3-.3-.2-.6.2-.7.5h-.3l-.1-.4.2-.8L54 93l.2-.5v-1.2l-.2-.4-.5-.8v-.4l-.1-.3.1-1V88l-.4-1 .1-.4h.7l1 .3h.2l.2.2v.2l.2.1.6.5.3.2h.3l.3-.1.7-.6.4-.2.7-.1.7-.3.6-.3.2.2.3.2.7.8.5.4h.6l7.4-1.5-.2-.4.1-.6.3-.7v-1.5l.1-.3.4-.5v-.4L70 82l-.4-.6-.1-.7-.2-2v-.3h.3l.6.7h.5l.1-.2v-.4l.2-.2V78l.2-.1.9-.7H73l.8.3 1.3 1 .8.2.3.2.2.4.4 1.4.2.4v.1l.4.3.1.5V82.4l.4.1v.1l-.1.1v.1l-.1.2v.2l.2.2.1.2v.5h.4l.4-.3.2.2.3.6.2.2v.5l.1.1.2.2h.2v.2l-.1.2-.1.1v.4l-.1.1-.1.2-.1.1-.2.2-.1.1v.2h.3l.5-.6h.7l1.2.5.4.1h.2l.4-.2h.4l3.2 1.2H88.1l.2.2H88.6l.1-.2v-.2l.2-.2.2-.2.6-.4.1-.1.3-.4.2-.1.2-.1.4-.2.2-.1v-.2l.2-.4v-.2l1.5-1.3.1-.2.1-.2V83.3l.3-.4.4-.5v-.1l.3.1.2.3.2.3.2.4.2.8.4.8.2.4.4.3v.2l.1.5.2.1.2.1.2.2.2.3v.1l-.3.2-.2.5-.4.2-.2.2v.7l.3.3.4.2h.9l.3-.3h.5v.4l.2.1h.1l.9-.2H99.5l.3.1.2.1h.1l.2-.2.2-.5.1-.2.2-.1.1-.2V88l.1-.2.2-.1.3-.3.2-.1.2-.1.8-.2h.1l-.1-.6-1.4-1.1v-.7l.2-.2.6-.2.3-.3v-.1l-.1-.3V83.2l.4-.1.1-.1.1-.3.1-1 .1-.3V81h-.2v-.2l-.1-.1v-.4l.1-.2h.1l.2-.2 2.2-.9.4-.2.2-.3-.2-.8v-.2l.2-.4v-1.5l.1-.4.3-.2.4-.3-.1-.1-.4-.1-.3-.1-.3-.7-.3-.2-.2-.2.2-.1.4-.2h.2l.1-.2.2-.2v-.2l.2-.1.6-.1v-.3l-.2-.4-.3-.2.2-.5v-.5l.1-.1.3-.3.2-.1.1-.2v-.4l-.7-.4-.3-.3-.1-.4V68l.2-.1.1-.1.2-.2v-.2l.1-.1.1-.4V66l-.2-.2-.4-.4V64.3l-.2-.4-.6-1.4v-.3l.2-.4.1-.8.1-.4.3-.5.3-.3.3-.4-.1-.6-.1-.4v-.9zM5.1 56.3V57.2l.2.2.3.2H6l.3-.3v-2l-.8-.1V55h.2v-.5l-.2.2-.4.3-.2.2-.2.3v.5l.3.3z" fill="none" fill-rule="evenodd"/></svg>