<svg width="155" height="116"><path d="M77.2 6.3v.4h-.9l-.3.2v1.8l-.3.8-.6.6-.4.6.4.9.4.3 1.3.6.3.3.9 1.1.3.3.4.3.5.2.4.2h.4l.6-.3h.4l.3-.1.3-.3.2-.4.2-.6.1-.1h.2l.2-.1.3-.5v-.1l.7-.5.3-.3.2-.9.2-.2h.8l.9-.3h.9l.4.4.8 1.3.5.3.5.3.3.3.2.6v.1l-.3.4v.4l.6.6.9 1.6.6.6h.9l.3-.2.2-.2.2-.3.2-.4v-.3l.2-.2.4-.3.4-.2.3-.1-.1-.5.2-.2.4-.2.5-.3V13l.1-.1v-.7l.3-.1h1l.2-.3.2-.1.7-.6.2-.2.2.1h.1l.3.2V11l.1-.1h.2l.2-.1.1-.2h.2v.2h.1l.1-.3.8-.3h.2v.2l.2.1.7.2.7.3.4.1h.7l.2.1.3.2.2.1.2.1h.5l.3.2.4.3.3.2h.3l.8.5h.4l.4.1.7.6.4.2h1l.3.3.2.1.4.1h1.1l.5-.5.3-.3v-1.1l.2-.3.3-.4.7-.4 2.3-.8.5-.4.3-.2.8-.4h.4l1.3.2.5-.5v-.8h.3l.2-.4v-.7L120 7l-.2-.1v-.2l-.1-.2v-.2l-.6-.3-.4-.4-.3-.3-.1-.2.3-.4 1-.2.3-.3h.2l.4.2h.4l.2-.2h.2l1.6.4.9.3 3.2 1.6.4.4.2.5v.4l-.2.5-.2.4-.3.5v.7l.3.4v.2l.2.2h.3l.4-.1.3.1.2.4.2.5v.4l-.3.9-.1.4v.4l.5.3h1.3l.4.4.1.4v.8l.1.3.1.2.2.2v.2l-1 5.4h.3l.4.1.3.2.4.2h.4l.4-.2.2-.1.3.2.5 1.5v.4l.2.4.3.4.2.3 1.1.5h.6l.5-.4.1.3.2.8.2.4h.8l1.3.4.6.3.4.4-.3.1-.5.2-.2.3.2.3h.7l.2.1v.6l-.3.2-.4.2h-.8l-.8-.2-.2.1-.2.5v.2l.1.1v.2h-.3l-.2.2-.5.1-.1.1-.3.4-.1.7-.2.4H135l-.1.1-.2.3V33.9l-.2.5-1 1-.2.2-.1.4-.1.3v.3l.4.3.3-.1.4-.2h1.5l.3-.1.4-.3.2-.3.5-1.1h1.6l.4.2h.2l.4-.3h.3l.4.3.5.4.3.4.1.5V39l-.1.2-.2.1-.4 1.2v.4l.5.3v.3l.4 4.2.2.5.7 1 .5.9.4.2h.4l.5-.1.3-.1.2-.1h.1l.2.3.1.3v.5l.1.3.4.3h.6l1.1.1.4.3.3.4.2.6.2.4v1.1l-.5 1-.3.2-.1.3-.1.3v.3l-.5.5-.5.2-1 .4-.4.4-.4.6-.2.5.2.2.2.1v.2l-.3.2-.5.2v.4l.2.2H144.5v.5l.1.1-.1.1v.3h.5v.4l-.7 5.7v.9l.2.4.1.3 1.2 1.7.4.4.3.2h1.3l.4-.1.8-.5h1.3l.1.1-.5 1.7v.5l-.8 1.8v.8l1 .4h.3l.2-.2h.2l.3.6.2.2.5.4.8.5.3.3-.4.3h-.9l-.4.1-1.8 1-.3.3-.2.5-.1.5-.1 1-.4 1.8.2.7 1 .3h.4l1.3.4.3-.1h.2l.2.3v.1l.5.4.1.1.5 1 .2.2.6.4.1.1.2.4v1.3l.2.8v.4l-.1.5-.1.5.1.5.5.9H152.9l-.5-.3-.6-1.3-.5-.6h-.4l-.1.4v.6l-.4.2h-.3l-.3-.1-.3-.2-.3-.2-.1-.2-.1-.4-.2-.2-.2-.2h-.7l-.6.1H146.5l-.3-.3h-.6l-.7.3h-.4l-.7-.1h-.3l-1 .8-.1.2v.4l.2.3.1.2v.5l-.2 1.2v1l-.4.3v.3l1.7 1 2 .7h.3l1.2-.5h.3v.3l-.1.2-.2.3-.1.6v.3l.1.3.4.3.4.4.2.4.1.5h-.3l-.3-.2-.2-.2H146.2v.8l-.2.8-1 1.5v1.1l.5.4.1.2v.2l-.1.1-.2.1v.1l-.1.4-.1.7-.1.3-.7.7v.4l-.3.2v.1l-.5.5v.9l-.6.7-.8-.3-.8-.7-.7-.1-.7.2h-.4l-.5-.6-.5.3-1 .9-.6-.4-.6-.5-.4-.5-.2-.5.2-.8-2.5-.1-.2.4-.5.6-.2.5V107.4l-.2.2V108h.2v1l-.2.4-.4.4-.6.3v.1l-.2.2V111l-.2.2h-.4l-.2.2-.4.5-.1.3-.1.2v.3l.2.4v.8l-.3.2-1 .3h-.2l-.4-.6-.3-.2v.5h-.3l-.1.3h-.1l-.5.1-.2.1h-.3l-.3.2-.3.2-.3.2-.2.1h-.3l-.3.1-.2.3.1-.8v-.2l-.4-.3h-.2v-.4l-.1-.1h-.6l-.5-.5-.3-1.3-.3-.4h-.3l-.7.1h-.4v-.2l-.2-.4-.2-.2h-.2l-.1-.1h-.9v.3h-.2l-.4.5-.2-.2-.4-.7-.3.4-.6.6h-.2l.2-.2.1-.2v-.6l.2-.2.2-.2.4-.3.5-.7.1-.5v-.3l.3-.4.2-.2v-.6l.2-.3.2-.3.2-.2-.4-.5v-.7l.1-.7.3-.5-.6-.7-.1-.4-.6-.7-.5-.8-.2-.9v-.9l.4-.9.1-.2v-.7l-.3-.3h-.2l-.2.2-.3.3v-.3l.3-.3v-.2l-.4-1.6v-.5h-.3l-.5-.2-.3-.2v-.5l.1-.6.2-.4h.1V93l-.2-.2v-.3l-.2-.2-.2-.2.3-.2.1-.1h.1l.1-.1.3-.2h-.1l-.2-.2-.3-.3-1-.4-.3-.4h-.4v.2h-.2l-.2.1h-1v-.4l.2-.2.3-.2.2-.3-.2-.4-.2-.3-.4-.2h-.5l-.2.3v.7h-.1l-.3-.2-.3-.4v-.4l-.2-1-.1-.3-.2-.3h-.4v.4l-.2.2-.2.2v.1l.1.2v.1l-.5.2-.4.2h-.2v-.1l-.2-.1h-1.2l-.4.2-.3.2-.8.6-.9.5h-.7v-.3l.1-1-.1-.3-.3-.2-1.2-.3h-.4l-.3.1-.7.7-.4.2-.1-.3-.4.1h-.5l-.2.1h-.2l-.2-.1-.5-.2h-.8l-.3.2-.3.1-.2.3-.2.3-.5 1-.3.3-1.2 1.2-.7.5-.4.1H94l-.6-.4-.4-.1h-.6l-.6.1-.4.5-.2.7-.4-.4.2-.7.5-.7.4-.4.3-.5.3-1.8h.2V88l.1-.3.1-.2.4-.3.3-.6.3-.5.4-.3h.4l.5-.1.4-.3.3-.4.2-.4-1-1.2v-.2l-.4-.3L94 82l-.2-.2-.1-.1V81.3l-.2-.6v-2.5l.4-1.2v-.3l-.3-.2-.5-.2H91.3l-.7-.2-.2-.8.2-1 .4-.6.2-.1.2-.1.3-.1.1-.3v-1l.2-.2v-.5l-.8-.8h-.3l-.2-.3-.3-.2-.2-.4H89l-.2-.1.2-.2.2-.1V69l-.4-.2-.3-.3-.2-.3V67l-.1-.1-.2-.1-.2-.2V66l-.1-.2-.2-.2-.6-.4-.1-.2-.2-.5v-.2h-.2l-.3-.2h-.2v-.3l-.3-.7-.5-1-.7-.9-.9-.8-1.5-1-.2-.2-.3-1.4-.1-.5-.3-.2H81l-.7-.2H66.4l-.1 1.3-.2.2-4.5 1h-.4l-.3-.1-.4-.1-.5-.3-.4-.4-.4-.2h-.4l-3.2.6-1 .4-.7.4v.2l-.1.1v.4l-.3 1.5.1.3v.1h-.2v.5h-.2l-.6.4-.2.2-.3.6H52v1l-.1.1h-.4l-.2.1v.2l-.2.7H51v.1h-.2l-.2.2v.2L50 69v.1l-.2.2-.1.2-.1.1h-.2l-.1-.1-.4.2v.1l-.3.2v.2l.1.2v.1l-.3.1-.3.2-.5.8-.4.3H46l-.5.3-.4-.4-.4.3-.3.6-.1.7v.2l.3.3v.2h-.3l-.1.1-.2.3-.2.3-.3.7-.3.3-.4.2-.8.4-.6.5H41l-.5-.1-.8-.5-.3-.1-.5.1-1 .3-.4.3-.3-.1-.1-.2-.1-.2V76h.4V75.7l.6-.6.4-.6.3-.3.3-.2h1.5v-.2h-1.9l-.3-.2.3-.2V73l.2-.5v-.4l-.4.5-.2.5v.5l-.3.7-.5-.3-.2-.1-.2-.2.2-.1v-.8l.1-.2v-.2l-.2-.1-.1-.5v-.6l.1-.4.4.3V70.3h-.2v.2H37l-.2.1h-.3l-.1.1-.1.2-.2 1-.1.2-.5-.2-.2-.1-.1-.1.1-.3-.2-.2-.2-.4-.1-.4v-.3l.1-.4.5-.6v-.5l-.6.4h-.7l-.7-.2-.3-.4-.2-.6v-.3l.2-.4.2-.2.2-.3v-.3l.1-.4h-.1l-.5 1-.3.3-.3.1-.3-.1-.3-.4-.2-.5-.1-.4-.6.3-1.3.7-.5.1-.2.2h-.2v-.3h.2l.2-.1.6-1 .5-.5.2-.5.3-.5V62.6l.2-.1.3-.1v-.2l.2-.2.3-.1.3-.2v-.4l-.4.2-.2.1-.2-.1-1-1.1v-.2H30l-.2.1.2.7.1.5-.2.5-.6.3h-.8l-.4-.6v-.6l.2-.6.8-1.1.4-.7-.1-.7-.2-.2v.3l-.1.4v.2l-.3.2-.4.6h-.3v.2l-.8.3h-.5l-.4-.1-.3-.1-.1-.2-.1-.2-.3-.3-.4-.4-.3-.1-.5-.4-.2-.1-.2-.5-.2-.1h-.5l-.2-.2-.4-.4-.3-.2h-.4l-.4-.4v-.5l.3-.6.5-.3.6.4-.2-.3-.3-.3-.2-.3h-.2l-.1.3h-.3l-.3-.3v-.1l.5-.2.4-.5.6-1-.4.2-.2.2-.4.5-.2.1-.6.3h-.1v1.5l-.2.2-.3.2h-.4l-.4-.1-.4-.3-.2-.4v-.4l.4-.4.5-.4.3-.3-.3-.4v.3l-.3.2H19v.6l-.3.3-.5.1-.2-.1v-.2l-.2-.1-.2-.3v-.4l.2-.2V53h-.2l-.1.1-.3.4-.4-.2-1.3-1.2h-.2l-.3-.1H14l-.5.4-.2-.2v-1l.1-.7V50l-.2-.2h-.1l-1.3-1.4-.2-.5-.1-.4V47l.1-.5.2-.3h-.3l-.2.2-.2.2-.3.2h-.2l-.4.1h-.3l-.2-.3h-.1l-.2.3h-.1l-.1-.4v-1l.2-.6h.3l.2-.1.3-.4.4-.2H10l-.2-.3v-.4l.3-1.1.1-.3h.3l.1-.2.2-.2h.2v-.2l.3-1 .5-1h.3l.2-.3v-.4l-.1-.2v-.1l.3-.3H12v.8l-.7.5-.4.3-.3.5-.3.6-.3.7-.2.4-.6.8-.6.5h-.3l-.1-.2v-.3l.1-.2.2-.2h.2l-.1-.1H8.4l-.1.2-.3-.3.3-.8.1-.4.2-.3.2-.2.3-.2h.1l.1-.2v-.2h.1-.1l-.2-.2-.2.4-1 .7-.2.4-.3.8-.3.2-.2-.4-.2-.3-.2-.3v-.5h.2l.2-.1.2-.3.2-.3v-.3l.1-.3V39l.1-.1v-.2l-.3.2-.2.2v.2l-.1.1-.6.3H6v-.7l.2-.2-.1-.2V38.2l.2-.2H6v-.6l.1-.3.3-.1.4-.2h.7l.2-.2.2-.3V36l.2-.2h.3l.4-.5.3-.2L9 35l-.1-.1-.2-.4v.4l-.2.2H8.2l-.3.2-.1.4-.3.4-.3.2-.4-.2v.1h-.5l.1-.3-.1-.3H6l-.1.2-.6.8-.6-.2-.4-1.2h-.5l.3.4v.8l-.2.3-.4-.3-.3-.1H3l.7.5.2.3.1.3-.2.4-.4.4-.4.3h-.4v.1l.1.2v.9h.1l.2.2h.2v.4l-.2.4-.4-.1-.7-.2-.4-.2-.4-.4-.4-.5-.2-.5v-.4l.1-.4.3-.4h.2l.4-.2.1-.2v-.1l.2-.2V36.5l.5-.7.7-.8 2-3.8.4-1.7.3-.8 2-3 .5-.4.5-.3h.8l1.7.1 1-.1 3.7-2 .3-.3v-.2l.3-.5.2-.2.2-.1h.2l1.8.2.5-.1h.2l.2.2.1.1.2.1.4.1H21.4l.3-.1 1 .1h.3l1-.6v-.2l.5.3h.4l.4-.3.3-.4V20.2h.3l.2.1.1.5h.2l.3.2v.4h1l.5-.2.3-.3.2-.3v-1.2l-.2-2.5v-1l.2-.8v-.4l-.3-.3-.2-.1-.7-.1-.3-.2-.3-.1-.4-.5-.1-.2V13l-.2-.1-.6-.2-.2-.2-.4-.4-.4-.2-.4-.2h-.5l-.2-.1v-.2l.1-.5v-.2l.5-.5 1.3-.6.5-.4.4-.3.5-.1.4.1-.3.5h1.4L29 9l.4-.5V8l.2-.4V6.3l.4-.8v-.8l-.2-.4-1-1.3-.2-.6V.6l6.8.2 1 .3h.1l.2.1h.4l.6-.2h.4l.2.2h.4l.4-.1h.2l.2.3h.7l.1-.1h.1l.2.1.2-.2.4.2h.4l.3-.1h.3l.3.3v1.2l-.3.7-.1.4v.4l.3.3.3.2h.8l.4.1h.3l.3-.2v-.4l.4-.8h.7l.8.4.6.4v.4l.2.2.2.1h.6l.3.2.1.2.1.2h2.2l.4.2.4.3.6.6v.4h.6l.7-.3.4-.2h1.1l1 .4.3.3.6.9.3.1 3.5-.9.8-.4.7-.6.3-.2h.6l1.2.4h.7l.8-.5.3-.1h.2l1.3.5.4.1h2.5L72 6l.9-.2 1.8-.1h.7l1.3.5h.6" fill="none" fill-rule="evenodd"/></svg>