<svg width="105" height="115"><g fill="none" fill-rule="evenodd"><path d="M81.8 48l-.2-.1v-.5l-.4.4V47.5l.1-.1v-.7h.2V46.3l-.2-.5v-.4h-.1v-.1l-.1-.2V45h.1v-.4H81l-.1-.1-.4-.4h-.1v-.4l.1-.1.1-.1v-.2h-.1l-.2-.1-.1-.1V43l.1-.1v-.3l-.1-.3-.1-.1-.1-.2-.1-.2-.2-.2v-.3l-.2-.2-.4-.4-.3-.3H78.6l-.2-.2h-.1V40L78 39l-.1-1.4V35.2h.1V35l.1-.7.1-.2v-.2h.1v-.2h-.1l-.2.1-.2.2-.2.1h-.8l-.2-.3-.1-.2-.2-.2-.3-.3h-.4V33h-.1v-.1h-.1l-.2-.1-.1-.1H75v.2l-.1.2-.1.2-.3.5V34.2l-.2.3v.2l-.1.3v.5l-.1.1.2.3.4-.1.2-.1.3-.2h.7l.3-.1.2-.4v-.1l.3.1.1.1.2.3v.1l.1.3v.2l-.1.1v.8l-.1.1-.3.8-.1.2H76.2l-.2-.1-.3-.3h-.2v-.1l-.3-.4h-.4v.1l-.2.2v.2h.2l-.2.4-.2.2-.2.2-.3-.1-.2-.2-.2-.3v-1l-.2-.2v-.7h.1v-.4l-.3-.2h-.5v.1H72l-.1-.2h-.1l-.3-.2v.2h-.1V35.8l-.2.1h-.1v.1l.2.2v.1l.1.2v.1l.3.2v.3h-.1v-.1h-.1v-.2h-.1v.2l-.1.1v.4l-.1.5-.2.4v.2H71l-.4.2-.2.2H69.6v.2l-.2.2-.6.5-.1.1v.2h.1l.3.2V40.6l.1.3v.7l.4.3v1.4h-.1v.2l-.1.2-.4 1-.3.2H68l-.2-.2v.5l.1.2.2.3h.5l.1-.1.1-.1h.5l.3.3v.2l.2.3v.3l.1.4v1.7l-.2.6-.2.6v.1l-.4.3-.1.4v.5l-.1.1v.2h-.1v.6l-.6 1.6-.2.3-.2.3-.4.4-.2.3-.2.3-.3.8-.2.4-.1.3v.3l-.2 1.5v.2l-.2.1-.6.7-.4.3-1.9 1-.4.3-.3.5-.2 1-.1.2-.2.3-.4.4-.2.3-.1.3-.1.2-.2.2-.5.3-.8.8-.4.3-.2.2H58l-.2.2-.4.3-.5.3-.6.1-.7.4-1 .2-.4.2-.1.1V68.6l-.1.2-.2.2-.2.2h-1.1l-.5-.2-.2-.2-.2-.2v-.3l.2-.6V66.7l-.2.3h-.2l-.2-.2h-.4v-.2l.1-.1v-.1l.2-.4v-.2h.1l.1.1h.2l.2.1h.2l.2-.4.1-.1v-.2H53l.1-.1h.1V65l.1-.1v-.1l-.2-.2v-.1l.1-.2.1-.1h.5v-.5l-.2-.2h-.4l-.8.3-.2.1v.1l-.1.1-.8.4h-.5l-.3.1-.2.2-.2.2v.5l-.2.1v.5l-.1.1v.2h.2V67l.2.4V68l.1.2v.2l-.4 1-.3.5-1.3 1.7-.3.4-.2.1-.3.2-.5.6-.4.1-.1.1v.4h-.1l-.4.5-.1.2v.1l-.1.3-.1.2h-.1l-.1.2.2.3v.3h.1l.5.7v.7h-.1V77.3H46v-.4l-.1-.2h-.2l-.2.2.1.2v.4l-.4.1H44.9l-.1-.2h-.1V77.8h.1v.2h-.1l-.1.1v.1h.1l-.1.2h-.1l-.1-.2h-.2V78H44V78.4h.2v.2h-.7l.1-.1.1-.2h-.2l-.1.2h-.6V78v.1h-.1l-.1-.2-.1-.1v-.1h-.1l-.1.1H42v.1l-.2.2v.1l.2.1h.2v.1H42l-.2.1v.1l-.1.1v-.5l-.5-.2h.1v-.2H41v.2l-.1.1V77.9l.2-.3v-.2l.2-.1h.1V76.7h-.2l-.2-.2h-.2l-.4.2h-.2l-.2.3H40l-.2.1h-.1l-.1.1h-.1l-.2.2h-.5l-.1-.1H37.9l-.2.1H36.6l-.2.1-.4.2h-.2l-.3.2-.1.2h-.1l-1 .2h-.7l-1 .2h-.5l-.6-.2H31l-.2.2-.2.2h-.3v.1H30l-.3-.1h-.2v-.3l-.1-.1V78H29.8l.1-.2h-.3l-.2.1h-.6l-.1-.1h-.1v-.1l-.2.1-.1.2H28l-.2.1h-.2v.2H26.8l-.3.2h-.2l-.1.1v.1h-.5v.2h-.2v.1h.2l.1.1V79.8l-.1.1-.1.1-.4.2H25l-.2.3h-.1l-.5.3v.3l-.2.2-.3.4h-.1l-.1.1h-.3l-.1.1-.3.3-.2.1-.1.1-.3.3v.2H22v.1l-.2.2-.4.4-.2.1-.2.2v.2l-.2.1-.2.1h-.3l-.2.1H20l-.2.1H19.6l-.2.2.1.1h-.2V85.2h-.1l-.1.2-.3.1h-.1V85.8l-.3.3v.2l-.7.3h-.5v-.2H17.6v-.1H17v.4h-.2l-.1-.3h-.2l-.1-.1h-.2l-.1.1H16l-.1-.1H15.6v.2h.4v.1l-.3.1v.1H15.3l-.1.2v.2l-.1.1v.1h.1v.1l.1.2v.2l.1.1v.2h-.1l-.1.1-.1.1v.4l.2.2V89.5l-.2.1.1.1h.2l.3-.3.2-.3.2-.1h.2l.3.3h.2v.4h.2l.1-.1h.1v.1H17.6l.3-.1v-.1l.2-.2.1-.3h.1V89.3H18.7l.1-.1V89l.1-.1.2.1.2.1h.1v.1h.2V89h.5v-.1h.5-.2v.2h.1V89h.1v-.1h.2l.1.1v.2l-.2.1v.1h.3-.1l.1-.1h.2l.2.1.2.1.2.3h.2l.4.2.1.1h.1V90.4h-.1v.2h-.1l-.1.1v.1h.2l.1-.2.3-.2V90l-.1-.1v-.2l.1-.1h.2l.2-.3v-.2l-.1-.3v-.5h.2v-.7l.5-.7.2-.2h.2l.1-.1.2.1h.5v.8h.2v.4l.2-.1.1-.1h.1v.1h.2l.3-.2h.4V87.2l.2-.1v-.1l.2-.1v.2l.3-.2H28l.2-.2h.2v-.3H28.8l.2.1-.2.1v.3h-.2v-.2h-.1v.2h-.1v.4h.1l.2-.1h.1V87h.1l.1.1h.2V86.9l-.2-.1.1-.1h.1l.1-.2.1-.3h.1l.1.2h-.1.1l.2.1v.2h-.2v.2H29.8v-.2l.5-.5V85.9H30.7l.2-.2h.2l-.1.2-.2.3.3-.2h.2l.1-.1.1-.1.3-.2h.1l.1-.1h.2l.1.1.2.1.1.2v.2h.3v-.2h.2l.4.1.1-.2.1-.2.1-.2.2.1v-.1l.1-.1V85h-.2l-.2.2h-.2v-.1l.1-.1.2-.1h.4l.1.1h.5l.2-.2v-.1h-.1v-.1h.2v-.1h.1l.2-.2h.1l-.2-.2-.1-.1h.2l.2.1h.4l.1-.2h.1l.1.1h.1l.2-.2h.1v-.1l.1-.1v.1h1.7l.2.3h.2l.3.3.2.2h.1l.1.1h.1l.4.2h.3l.3-.1.2-.2h.1l.5-.3.2-.1h.1l.3.1h.2l.2.4V85.4l-.2.2H42v.2l-.7.7h-.1l-.1.2-.8.3-.2.2v.2h.2v.1l.2.1v.3h.1l.1.1.1.2h-.2l-.1.1v.1h-.1v.1l-.2.2h.1l.2.1.1.1V89.2h-.2l-.1.1v.1l-.1.1v.1l.1.1h-.1v.2h-.1v.2h.4l.2.3.1.2.2.1h.1l.2.2h.1l.2.1.4.3v.2H41.8v.2h.2v.1l.1.1v.2l.1.2.2.1.3.1.9.3h.1l.6.3v.1h.2V92.9l.2-.1.3-.2h.1l.1-.1.3-.3h-.1v-.4h.2v-.3l.3-.3.3-.9.1-.2h.2V90l.1-.1h.1l.2-.1v-.2h.2v-.1h-.2l.1-.1.1-.1v.1h.2V88.8H47V88.4h.1l.1.1h.2l.1-.1v-.1h-.1V88l.2-.2.3-.1h.2v-.1l.3-.2h.2l.1-.1v-.1h.6l.2-.1V87h.1l-.1-.1.1-.1H50v.1l-.1.1H50.5l.1-.1h.2V87.3h-.5l.1.1H51v-.6l.1-.1H51v-.2h.1l.1-.2v-.1H51L51 86l-.1-.1v-.2H50.6l-.1-.1-.3-.1-.4-.3-.1-.1-.1-.1-.1-.1H49v-.4l-.1-.1v-.7l.2-.2.4-.4v-.3l.1-.2v-.5l.2-.2.2-.2h.2l.4-.2h.1v-.1h.4v.4l-.2.3h-.1v.1l-.1.2v.6l.1.1.1.1v.2l-.1.2v.2l.1.1.2.2h.3l.1.1v-.2l-.2-.2V83l.1-.1v-.2l.1-.1v.7l.1.1.2.3h1l.1-.2h.4l.2.1.1.1v.4h.1-.1l-.3.2H53l-.3.2h-.2v.1l-.1.1H52v.2l-.1.1v.1h.6l1.2-.5h.5l.8-.1.2-.1h.2l1 .2H57.8l1 .4h.2v-.1l-.2-.1V84.5l.3-.5.4-.4h.1v-.7h.1l.1-.1.1-.1h.1l.4-.2.4-.3v-.1h-.2V82l.2-.2.2-.3.1-.1h.3l.2-.1h.8l.2.2.4.4-.2.1h-.4l-.1.1V82.8h-.1V84l-.1.1v.2l.1.1.1.3.1.1.1.1h.5l.3-.4.1.1h.1V84l.2-.2h.1v-.1l.2-.2V83.2l.1-.1.2-.1.1-.1v-.7l-.2-.1v-.9l.1-.2h.2v-.7l.3-.2.2-.2h.3l.2-.1H67v.1l.4.6v.4l.1.1h.2v-.4l.1-.1.2-.1v-.1l.1-.2H68l-.2-.1V80h-.2v-.5l-.1-.2v-.1H67.7V78.8h-.2v-.2h.3l.1-.2h.1l.2-.1v-.2l-.1-.2v-.5h.5v-.2l.2.2h.2v-.2h.7l.2.1v.1l.1.2v.1l.2.1v.2H70l-.1.3-.2.1-.2.3h-.1l-.3.2-.1.1v.4l-.1.1h-.2l-.2.2H68.2l.3.2h.1l.2.4v.2h-.1l-.2.1V81.4l.1.1V81.8l.1.1v.2h-.2v.1H68.1v.2l.3.2v.1h.2v.1h.5v-.1l.1-.1v-.4l.2-.2.4-.3h.2l.1-.2v-.1l.1-.1h.7l.2-.2H71.5l.1-.2h.1l.1-.1.1-.1.1-.3V79l.2-.5.3-.5.8-.7.2-.1.4-.1h.3l.1-.1h.4v-.2l-.1-.1-.1-.2-.3-.3-1-1.9-.1-.2-.1-.5v-.7h-.1v-.2l.3-.4V71l.1-.2.4-.6.2-1.1.1-.1.3-.4v-.4h.1l.1-.1h.1l.2-.2h.2l.2-.3.1-.2.1-.7.1-.2V65.4l.2-.6V62.5l-.1-.1v-.6h-.2l-.1-.3-.1-.2-.1-.6-.1-.5v-.7l.3-.9.1-.2.2-.3.2-.3h.1v-.2h-.1V57.3l.2-.1h.2l.2.2h.1V57.2l.2-.1h.1l.5-.2h.2l.2.2H78l.1.1v.2l.1.1v.2h.2v.1l.2.2v-.2h.1v-.5h-.2V57h.2l-.1-.1h-.2v-.1l-.1-.1v-.1h.2V56l.1.1h.1v-.4H78.3l-.1-.2.2-.2.1-.2V55H78.3V54.7H78.6v-.2h.2V54.3l-.1-.1h-.1V54l.3-.2v-.5H79.3v-.1h.1v.1l.2.2v-.2l-.2-.4v-.5h.3-.1v.2h.1v.1h.2V52.3h.1V52H80.5V52h-.1l.1-.1h.1v-.1l-.3-.2h.6v-.1l-.3-.2-.1-.1H80.8l.1-.2h-.1v-.2h.2l.1-.2v-.2h-.3v-.2h.2V50l.2-.1.1-.2v-.1l-.2.1H81l.1-.1.2-.1v-.1l-.1-.1.2-.2H81.7V48.8h.1v-.2l-.2.1v.1H81.1v-.2h.2l.1-.1.2-.3h.1V48z"/><path d="M38.1 90.5H38v-.1h.1-.3V90h.2V90l.1-.1v-.1l-.1-.2-.3-.3h-.2v-.7l.1-.1V88.2l.1-.1V88h-.1v-.1h.1v-.1l.1-.2-.2.1h-.1v-.1h-.2l-.8.1h-.1v-.1l-.1-.1H35.9l-.2-.2h-.1l-.3-.2.1-.2-.2-.1v-.1H35l-.2.2h-.1v-.4h-.2v.1h-.2l-.1.1h-.7v-.1H33.3l-.1.1v.1H33l-.2.2-.4.2-.1.1-.2.1-.2.2h-.5l-.2-.2h-.1v.1h.2v.1l.2.1v.2l.1.1V88.8l-.1.1-.2.2h-.1l-.1.2-.2.1H29.5l-.1.2-.2.1H29l-.1.1H28.6l-.3-.3v-.2L28 89l-.4-.6v-.1h-.5v.1h.2v.2l-.2.1-.2.2-.4.2V89.5l-.1.3v.1l-.2.1-.2.1V91l-.2.3-.1.2-.2.1h-.1l-.6.4h-.1l-.3.3v.2h-.1l-.8.5-.2.2H23l-.2.2h-.1l-.3.2-.2.1-.2.1v.2l.3-.2h.4v-.1l.5-.4h.2l.2-.2h.7v.1h-.1v.5h.1v.2h-.2v.2l.1.1h.7-.1l-.1.2v.2H25.1l-.1.3-.1.1-.1.1h-.2l-.2-.1h.1v.1h.2l-.2.1v.1h.3v.2h-.2l.1.2v.2h-.2l-.1.1.4.1v.3h.1v.2l-.1.3v.1l.1.1h.2V97H25v-.2H25.3l.3.2h.5v.2l-.2.2v.1l-.1.3-.1.1v.2l.4-.2h.2l.1.2h.5l.1-.1h.2l.2-.1h.1l.1.1v.2h.1v.1h.2v.1h.1V98h-.1l-.1-.2-.1-.1v-.2l.2-.2V96.4l.1-.2h.5V96l.2-.3.3-.5h.2V95l.1-.1v-.1l.1-.2V93.9l.2-.1.1-.1h.1v.1l.1-.1.1-.1H30.3l.2-.1v-.2l.4-.2.3-.1.2-.2.2-.1h.5l1 .2h.2l.3.3.3.2v.1l.2.1v.3l.4.4h.1l.2.1.1.2v-.4h.1v-.5l.3-.6.4-.5v-.2H36V92l.2-.2.5-.2.4-.4h.2l.1-.3.2-.1h.2l.2-.2h.2v-.2zM22.3 96.8h-.4l-.1-.1h-.2l-.3-.2.1-.2v-.1h.1V96h.4v-.4.1l-.1.1h-.1v-.1h-.1l-.1.1H21.2v-.2l.2-.1v-.2l-.2.1h-.4l.1-.3.1-.1h.1v-.2l.1-.1.2-.3h-.2l-.2.1h-1.8l-.1-.1v-.1l-.1-.5h.4l.1-.1.2-.1V93.4h.4l.1-.1v-.1l.2-.7v-.1l-.1-.2-.4-.5v-.1H19.5l-.1-.1H19v.1l-.1.1v.1l-.3.3-.2.2H17.6l-.3-.2h-.6l-.1-.1-.2-.2v-.1l-.1-.2-.2-.3V91L16 91v-.1l-.2-.1V90h.2v-.5h-.2l-.1.1v.1l-.2.2H15v-.1l-.3-.1h-.4l-.1-.1H14l-.2.3h-.6v.1l-.1.1-.2.1-.2.2v.1h-.1V91.2h-.1l-.1.2h-.1l-.1.1-.2.2v.1l.2-.1v-.1h.2v.4h-.2v.2h-.6V92h-.2V91.7l-.1-.1h-.1v.1H11l-.1.1-.2.2h-.1l-.1.1v.1h.1v.2h.3v.1h-.2l-.1.2H10.4l-.2.3h-.3V93h-.2v-.4h-.5v.6H9V93h-.2l-.1.1.1.3.3.1v.5l-.1.3H9v-.1l-.1-.2v-.1l-.1-.1h-.6v-.2l-.3.2h-.2v-.1h-.2V94.9h.1l.1.2H8v.1H8v.1h.1v.4h.1V95.2h.1v.1h.3v.2l-.1.1v.1l.2.1H9v.2H9.4l.3.2v.5l.3.6.2.1-.5-.2h-.3v.2H9l-.1-.1v-.1l-.1-.2v-.4.2H9v-.4h-.1l-.1-.1-.1-.2-.1.2h-.1v-.2l.1-.1V96h-.1l-.2-.2h-.2l-.1.5-.1.3V97l.1.1V97.3h.1l.1.2.2.2h.2v.1h.1l.1.1.2.3v.1h.2v.2l-.1.1-.2.3-.1.2-.2.1v.1h-.1.4l.5-.5v-.1l.3-.6h.5l.2-.2H11.2v.6H11v.1h-.2V98.9l.2.2v.1h.2l.1-.1h.2v-.2l.4-.1.1-.1v-.1l.1-.2.1-.2v-.4l-.1-.3-.2-.2h-.5l-.2.2h-.5l-.1-.1v-.2H11V97h.2V97l.1-.2V96.4L11 96l-.2-.2V95.5h.1l.2-.1.1-.2.2-.2h.1l.2.2h.2l.1.1h.2v.2l.2.2h.1v1l.1.2h.2l.3.4.4.3.1.2v.5h.1v.1h-.2l-.1.1-.2.1-.4.2v.1l-.1.1h.1l1-.2h.2v.2l-.2.1-.4.4v.1l.1.1v.1h-.1l-.1.1v.1l.1.2v.2h-.2l-.1.3v.2l-.1.2-.2-.2v.4h-.2v.3l-.5.4v.2l-.1.2v.1l-.2.1h-.1l-.2-.2-.3.1-.1.2.1.1-.2.4v.1l.1.2.1.2v.7l.2.2H11v.4l.4.2v.1l.3.4.1.2h.1v.7l-.1.3v.2l-.1.2-.3.2-.1.2-.1-.1-.1-.1H11l-.1-.1H10.6l.1.2.2.1.2.2v.2l.1.1V108.6h.1v.1h1.4l.2.1v.4h.4v.1h.2l.1-.1h.1V108.7l.1-.3v-.1l-.3-.2h-.2v-.2l-.1-.3-.2-.4v-.5l.1-.2.1-.2v-.3h.1l.2-.2v-.3l.2-.3h.8l.2.2v.6l-.2.2v.1H14.2v-.4h-.4l-.1.1-.2.1v.2h.2l.3.1.1.1v.5l.3.2v.2l.2.2v1.3l-.2.3v.2h-.2l-.2.2-.1.6.2-.1.3-.2.3-.1.2-.1v-.1l.4-.1h.1l.1-.1v-.1h.2v-.2l.1-.2.3-.2v-.1h.3l.3-.3h-.2v-.4H16.3l-.2-.1v-.2l.1-.4.2-.1.2-.1H17.2v.1l.2.1V107.7h.5v.1l.1-.1v-.1l.1-.1v-.3h.1v-.2h.1v-.5l.1-.2.3-.2v-1h.1v-.2h.1l-.2-.3v-.4l.3-.8.2-.7v-.7l.2-.3v-.4l.1-.1h.1V100.7l.1-.1v-.1h.2v-.5H20.3l.1-.2v-.1H20v-.5h.2l.1-.1.1-.2v-.2h.2v-.2H21V98.3h.1V98l.1-.1h.3l.1-.1h.2v-.1l.1-.1h-.2v-.1h.1v-.1l.1-.2V97h.1l.2-.1h.1zM104 17.8h-.1l-.1-.1h-.2v.1h-.4v.1h-.1v.1h-.1l-.2.1-.3.3-.2.2v.2l.1.1v.1h-.2l-.1-.2h-.7l-.2-.1-.1-.2h.1l-.1-.1h-.2V18h.2l.3.3h.2l-.3-.2-.2-.3v-.3l-.2-.7-.1-.2v-.1l-.1-.1v-.2l-.1-.2v-.2h-.1l-.4-.5-.1-.1-.3-.6v-.2l.1-.1v-.2l.1-.2V13.7l.1-.3.2-.3.1-.3.5-.7.2-.5v-.2l.4-.4.1-.3v-.4l-.1-.3V10h-.2v.2l-.2.1-.2.3-.3.5-.1.1h-.1l-.3.3-.4.3v.1l-.6.6-.7.8-.3.2h-1.3l-.8-.2h-.2l-.1-.1-.3-.2v-.1l-.2-.3H95v-.2l-.1-.2v-.3H94.6v.4l-.1.1-.1.1v.1H94V12l.2-.1v-.1h.2l-.1-.1-.3-.1H93.1l-.1.2h-1.1v-.2h-.1l-.2-.2-.1-.2v-.1h.5l-1.3-.6-.9-.5-.2-.2-.1-.3-.3-.1-.2-.1-.2-.3h-.2l-.5-.5-.5-.5-.3-.2-.3-.4-.2-.1L85.7 6l-.3-.5-.2-.1-.1-.2-.5-1L82.8 2l-.3-.2-.5-.4-.2-.3-.3-.4V.5h-.1l-.1-.2-.1-.2h-.4v.2l-.1.1v.2h-.1l-.2.2-.3.1h-.3l-.1.1h-.1V.6h-.2l-.1.2V1.8h-.1V2l-.2.2-.1.5V3l.9 1.8.2.6.1 1 .1 1v.4l-.3 1.4-.5 1V12.8l-.1.3-.2.3-.1.2-.4.3v.1H78v.1l-.2.1-.1.1-.2.3v.2l-.1.2v.2l.2.3v.2l.1.4v.1l-.2.2V16.8l.4.6.1.2v.4l-.1.3-.2.3-.1.3-.4.4-.5.3-.1.1H76l-.2-.2h-.2l-.2-.2v-.1l.1-.1h-.2l-.4.1-.7.1-.2-.2-.5-.2v-.1l-.3-.3-.6-.4-.1-.1h-.1v-.1h-.2v.2l-.2.1h-.4l-.2.7v.3l.2.2.2.2.2.2.3.4v.1l.1.2.1.2v.4l-.3.1-.4.4-.1.2-.2.3v.1l-.2.1v.5H71l-.1-.3-.2-.1-.2.2-.1.3h-.1l-.1.1H70l-.3.4h-.2l-.6.1-.2.1-.2.3V25.5l-.1.2-.3.4V27h.1l.3.3h.2l.2.3.1.2.6.3.2.2.3.6.2.2V29.9h-.1v.6H70l-.1.4-.4.5v.4l-.2.3V32.4l.2.5.1.3v.2h.2l.2.2h.5l.2.1V33.4l.2-.1V33h.2l.7-.3.2-.1V31.8l.1-.3h.1l.3-.2h.1l.4-.3V31l.2-.3v-.2h.2l.1-.1h.2v.4l-.1.2h.2l.2-.1h.6l.5.4h.5l.4-.4.1-.1h.4V30.3L76 30l-.1-.1H75.7l-.1-.1h-.2v-.2l-.5-.5-.3-.2v-.1l-.4-.5v-.2l-.4-.2H73.5l-.3.1h-.3l-.1.1h-.1l-.5-.5-.1-.2-.7-.3-.1-.2-.1-.4v-.4l.1-.3.2-.3.3-.6.2-.3.3-.2.2-.1h1.1l.3.1 1 1.2v.3l.1.1.2.1h.1l.1.1v.1H75v.2h.5l.3-.6h.1l.5-.4h.1l.2-.1v-.1l.2-.1 1-.8.8-.3.5-.1h.5l.5.1.5.3h.2l.3.5.3.1 1 .5.2.1.3.4 1 .8.6.1 1.2.8 1.2.4 1 .6.1.2.2.1v.2l.2.2h.1l.1.1.2-.5.1-.1v-.2l.3-.6v-1.7l.7-1.1.7-1.2.4-.5.9-.7.6-.7.9-.7.8-.4.9-.2h.2v.2l.1.1.5.2h.8l.9.1h.2v-.2h-.2v-.5l.1-.1.1-.1H98.4v.2l.2.2h.9v-.5l.2.1H99.9v-.2h.3v-.1h-.1v-.1l-.1-.2.1-.1h.1l.5-.2h.1l.2-.1v-.1H102v-.1l.2.1h.4-.1l.1-.2v-.1l.1-.1v-.2h.1v-.2l.2-.1v-.1l.1-.1H103.3l.2-.1.2-.1h.1l.1-.2h.2l.1-.1zM16.4 111.5h-.2l-.4.7-.2.3v.9l-.3.4-.1.2v.7H15.5l.1-.1.2-.3v-.6l.1-.2.3-.3v-.2l.1-.2.2-.7v-.5zM3.5 98.9v-.2l-.2-.2-.2-.2V98h-.2v-.2l-.4.2h-.2l-.2-.1H2v1h-.1v-.2h-.1V99l.1.1H2.5l.1.2.1-.1V98.8l.1-.1h.5z"/><path d="M10.8 101.5l.1-.3h.2v-.1l.1-.1v-1.3l-.2-.2h-.2l-.2.1h-.1l-.2.1H10V100.2H10V100.7l-.1.1v.5h.4v.1H10l-.2.3v.1h.1l.2-.1-.1.4h.2l.2-.1.2-.3h.2zM12.3 99.8v-.1H12l-.2.1-.2.2-.1.1h-.2V100.5l.1.2H11.7l.2-.1h.1l.1-.1V100.8l.2-.1.3-.7.2-.1v-.1h-.4v.1zM29 73.3l.3.2h.2l.3.1V73.2H30.2V72.6H30v-.1h-.1v-.1h-.1v-.1h-.1l-.1-.2-.5.4v.1l-.1.5zM59 61.4h.2l.6-.2.7-.5h.1v-.4l.1-.1.3-.4v-.4H60.4v.1h-.1V59l.2-.6.1-.4.1-.5v-.1h-.2l-.3.5-.2.1-.3.3-.1.1-.1.2-.1.2-.3.3V60.1l.4-.2.2.3h-.1l-.2.3v.5l-.2.1H59v.2zM39.8 85h-.2l-.2.3-.3.2H39V85.9h-.1l-.2.1-.5 1-.4.2v.2l.1.2h.2v.2l.2.1h.5v-.1h.1l.1-.2h.4V87l-.1-.2v-.1l-.1-.2V86.3l.2-.3.3-.4.1-.2.1-.2V85zM5.2 88.5h.1v.1l.4-.1.1-.3.1-.4H6l.1-.6H6l-.1-.1h-.4v-.2h-.2v.8l-.1.1v.6z"/><path d="M5.7 86.8l.1-.1v-.1l.2-.1V86.9v-.1h.2v.2h-.3l.1.2H6.3V86.7h.1V86.4h-.1v-.3l.1-.2.4-.5.1-.3V85l-.1-.1v-.1H7v-.5H6.6l-.2.2-.1.1H6v.2H6v.3h-.1v.2l.2.1-.2.2v.1l-.1.2v.1H6v.1h-.1v.2l-.1.3h-.2v.1zM9.2 104.6h.4V104.2h-.1v.1l-.3-.2H9v.2h.1v.1zM11.3 101.6v.1h.2l.1-.1.1-.1v-.1l-.2-.2v.1h-.1v.1l-.1.1zM3.1 97.9h.2v.1l.2-.1V97.6l-.2-.1v.2-.2H3V97.9zM4.6 94.6l.2.1v-.1l.2-.1v-.1l-.1-.2h-.2v.1h-.1l-.1.2zM28 88.1V88.5h.1l.3-.3V88l-.1-.1H28v.2zM34.8 85.8v.1h.5v.3h.1l.1-.2v-.1h.2v.1h.1v.1l.2-.3v-.5h-.5l-.3.2H34.9v.2zM10.8 102.3v.2h.2l.1-.3v-.2h-.2l-.1-.1h-.1V102.2zM66 27.9h.1v.5l.1.1.3-.2.1-.2V27.5l.3-.2V27h-.1l-.2.1h-.1l-.2.1h-.1l-.1.2V27.7zM75.5.9V1.6l.2.3V2.2v-.3l.1-.2.1-.9V.7H75.6l-.2-.2h-.1l.2.3zM76.4 3.2l.2.1.3.2h.2l.2-.1v-.2h.1V3l-.2-.3-.1-.2-.2-.1h-.4l-.2.2V3zM5.1 96.6v-.2h-.4V96l.1-.2v-.5l-.1.3v.2l-.1.2V96.3h-.1v-.1h-.1v.4H4v.1h.2v.1l.2.2v.6-.1l.1-.1h.1V97l.1-.3H5zM7.5 93.7l-.1-.2h-.2v.1h.1v.1L7 94l-.1.1v.3l-.2.2v.2h-.2V95h-.2l.3.1.3-.1.2-.3v-.3h.1l.1-.1V94h.1l.1-.3zM8.2 91.1V91.4h.2v-.2h.2l.1-.1h.1v-.2h-.1v-.5l-.5-.2v.4l-.1.2v.1H8v.1zM27.8 87.6h-.1l-.1.2h.5V87h-.2l-.1.2-.1.1.1.1zM24.7 88.5v.1h.4l.1.1h.1V88.4h-.1V88H25l-.1.1v.2zM23.3 89.6H23v.5l.1.2v-.1h.4V90h.2v.2H24.2V90h.1l.2-.1h.1l.1-.2h.1H24.3l-.1.1h-.1l-.2.1h-.1l-.2-.2h-.1l-.2-.1zM8.8 104.9v-.1l-.1.1v.1l-.2.1-.2.1v.2l-.2.2V106h.2l.2-.3.2-.4h.1v-.2zM27.8 74.5V74.1h.1v.1H28.3V74h.2v-.1h-.2l-.1-.1-.2.1-.2.3-.1.1v.1zM7 93l.1.1H7.5l.1-.2h-.1v-.2l-.2.1-.1.2zM25.3 98.2l-.1-.1v.4h.1v-.2zM26.2 88.1h.1v.1h.1l.1-.2-.2-.2H26v.2zM32.1 86.8h.1v-.4H32l-.1.2v.2zM52 66.3v-.1h-.2v.1h-.6V66.6l.1.1h.2l.2-.1h.2v-.2zM3.4 97.3l.1.1v.1h.1v.1h.1v.1-.1h.1v-.4l-.1.1H3.3z"/><path d="M4.3 97l-.1-.1H4v.2H4v.2H4.3v.1h.1V97zM12.8 99H12.5l-.1.2V99.6h.4V99.1zM25.7 89.6h.1v-.2l.1-.2h-.2l-.1.1h-.1l-.1.2.1.1zM27 87.7H27.3v-.1l.1-.2v-.2.1h-.2l-.2.2v.2zM24 87h-.2l-.1.1v.1l-.2.2v.1h.2l.2-.2.1-.1zM10 111.6l-.1-.1-.1-.1H9.4v.2l.1.1h.2zM65.7 33h.2v-.2H65.6v.2zM6.6 111.4zM28.2 74.6H28V75h.4v-.1zM101 16.4v.2h.1v-.1h.3V16.1l-.3-.1-.1-.1-.5-.1.8.4h-.1zM96 13.2zM23.4 90.7H23v.2h.2l.1.1h.1v-.2zM28.7 74l-.3-.1v.1zM28.4 74.2v.4l.1-.1.2-.2.1-.2-.1-.1h-.2zM93 11.7l.2-.1h-.4v-.1l-.2-.1-.1-.1h-.2l.4.3zM12 101.4l.2-.2V100.9l-.2.1v.2l-.1.1h-.1zM12.8 99.3v.4l.1-.2v-.2zM7.4 96.1v.2h-.1.2v-.1h.2V96h.1v-.1h-.2v.2h-.1zM4.3 95v.1H4.7v-.2h.1-.2l-.1-.1h-.1v.2zM6.7 93.2l-.1.1v.2l-.1.3h.2v-.5zM8.5 93.5h.1v-.1h.2v-.1h-.1V93l-.1-.1v.1l-.2.2v.1zM44.8 93h-.2v.1l.2.1h.2V93zM20 91.3h.1V91H19.7v.2zM21.7 90.7l-.1.2H22v-.2zM12.6 90.1l.1-.2h-.2v.1zM27 87.9h-.2v.1l-.1.1v.1h.3l.1-.1v-.2H27zM28.2 87.8l.1.1H28.6v-.2l-.1-.2h-.2v.2l-.1.1zM29.3 87.3V87l-.1.1-.2.2v.2h.1v-.1zM6.2 87.4l.3-.2V87H6.1V87.5zM34 86l-.3-.2v.3H34zM34.3 86l.2-.2-.1-.2h-.1l-.1.2H34v.1l.2.1zM16.8 83.9h.2v-.2h-.1v-.1h-.1v.3zM68.4 34.1V34h-.1v.1zM15.2 112H15v.1l-.1.1v.1h.1l.1-.2zM12 111.7h-.4V112h.1l.2-.1.1-.1v-.1zM12.5 111.7h.3-.1v-.1H12.3zM9.1 104.7H9l-.1.2v.1H9v-.1h.1v-.1zM11.2 101.7V102h.1v-.1zM11 101.6V102v-.1l.1-.1.1-.1v-.1z"/><path d="M12 100.8h-.1l-.1.1h.1v.1h.2v-.1H12zM13 99.4l.1-.1V99h-.2v.2zM20.9 98.7h-.1v.1h.1l.1-.1zM21.5 98.3v.1-.1zM1.7 98.3v-.1l-.1.2zM24.8 98.2zM21.4 98v-.1.1h.1zM4 98.1h-.2v.2H4v-.1h.2V97.9l-.1-.1V98.1H4zM24.8 97.8h.1-.1zM3.8 97v-.1h-.1v.1zM7.9 96.9l-.1-.1h-.1v-.1h-.1v.3h.2zM24.5 96.8h.2v-.1zM22.4 96.6h-.1v.2l.1-.1zM21.4 96.5H21.8l-.2-.1.1-.1h-.1v.1zM5.7 96.2H5.4v.2h.1v.1h.1V96.1zM6 96.3l.2.1v-.2zM23.8 95.6h.1-.1zM22 95.7v-.2.1zM24.4 95.5v.1zM8.1 95.3v.1zM7.4 95.4v-.1H7v.1h.1zM21.8 95.2zM3.5 95.2zM23.8 95.3h-.1V95h-.2.1v.2H24zM7.6 95h-.1V95.4h.1V95zM4.2 94.9zM4.8 95.3l.1-.2v-.2h-.1v.3zM24.2 94.8l-.2.1v.2h.1V95h.1v-.2zM24.7 94.5v-.1zM21.5 94.4h.2-.1zM24 93.8h.1v-.1h-.2.1zM24 93.7v-.2.1zM8.1 93.5v-.2.1zM7.2 93.3h.1v-.1H7v.2zM8.4 93v.2zM9.8 92.6v-.1zM9.3 92.5h.1v-.2h-.1v.2zM8.6 92.4h.1v-.2h-.2v.1zM9.2 92.3V92H9v.1zM12 92l-.2-.2V92.1zM24.8 91.1zM7.8 91.2H8V91h-.1zM22.7 91.3v.1l.2-.1v-.4l-.1.1V91.4zM12.2 91h.1v-.1H12v.1zM25 90.3l.1.1v-.1zM38.6 90.3v.1h.1v-.1zM22 90.3v-.1h-.1v.1h.2zM22.4 90.2l-.1-.1v.1zM13 90v-.1h-.1zM26.1 89.8l-.1.1h-.1l-.1.1h.1v.2h.2L26 90V90h.1v-.2zM25.3 89.7H25v.1h.2zM24 89.6v.1-.2zM26 89.4h-.1l-.1.2h.1v-.1zM15.2 89.4v.1zM20.8 89.6v.2h.1l.1-.1h.1v-.2h.1v-.1H21v.2h-.1zM24.8 89.5h.2v-.1h.1v-.1h-.2v.2z"/><path d="M25.3 89.3H25V89.6l.1-.1v-.1zM30 89.2v.1h.1v-.1zM14.3 89.3v-.1zM23.5 89.2v.1-.2zM24.3 89v.2h.2V89h-.1zM20.2 89v.1H20v.2h.1l.1.1h.1l-.2-.1V89zM25 89l.1-.1v-.2V89zM14.7 88.6h.1v-.1h-.1v-.1.1zM31 88.2v.2h.1v-.1zM24.4 88h-.2v.2H24.5V88zM38.7 88v.2-.2zM29.8 88h-.1.2zM26.7 88l-.1-.1-.1.2zM23.7 87.8v.1h.2-.1zM29.5 88v-.2.2zM26 87.8h-.1l-.1.1v.2h.2v-.2zM28.9 87.5h-.1v.1h.1zM10.6 87.4v.2-.1zM31.5 87.4v.1h.1l.1-.1h.2v-.1h-.2v-.1h-.1v.1zM40 87.2h-.2v.1h.1v-.1zM40 87.1h.2-.1zM31.8 86.9v.1l.1.1v-.2zM24.6 87v-.1l-.1.1v.1h-.1.2zM30.5 86.9h.1v-.1h-.2zM31.4 86.7h-.2v.1h.1zM15.1 86.8h.1l.2-.2h-.2v.1H15v.2zM32.3 86.4V86.7h.1l.2-.1v-.2h-.2zM31.2 86.5v-.1H31v.2h.1v.1h.2v-.1h-.1zM34.1 86.4v.2-.1l.1-.2zM31.9 86.3h-.2l.1.1v.1h.1v-.1zM32.5 86.3v-.1h-.1zM34.2 86.2v.1zM34 85.8v-.2h-.1V86zM18.5 85.7v-.1h-.2v.2zM17.7 85.6l-.1-.1v.2zM36.5 84.6l.1.1H37v-.2H36.5zM37.3 84.6v-.2h-.1v.2z"/><path d="M37 84.3h-.1v.2h.1v.1h.1v-.2zM64.6 81.7v.1zM78.6 58.1h-.1v-.2h-.1l-.1-.1h-.1v.1l.1.2h.2zM78 57.6h-.1V58l.2-.1v-.1zM79 57.6h-.1l-.2.1.1.2.2.1V57.7zM76.2 57.3v.2-.2zM64.9 56.7h.1l.1-.2.1-.1v-.1H65v.1H65v.2h-.1v.1zM79.3 53.6V53.2H79v.4h.2v-.1zM67 50.9v-.1h-.2v.2zM77.4 9.2l-.2.1v.1H77.5V9zM78 9.3l.1-.2H77.7v.1zM6.8 109h-.1v.1zM11 107.8v.1zM18.4 106.6V106.8v-.2zM.2 103.3v.2-.2zM.6 103.1v-.1H.3v.1h.1zM10.3 102.1H10v.2h.2v-.1zM12.5 100.9h.1v-.2l-.1-.1v.2zM8.8 99.5v-.1h-.1v.2zM3.4 99.4h.1zM3 99.2h.1zM8.6 98.8v-.1h-.1v.1zM8.7 98.5v.1-.2h-.1v.1zM2.2 97.7H2zM7.6 97.1v.1zM5.2 97v-.1zM5.2 96.3v-.1l-.1.1zM64.9 86.8v.1h-.2v.1H65v-.2zM65.4 85.8h-.1zM65.1 85.5l.1.1h.2l-.1-.2zM64.6 87.5h-.2V87.8l-.1.1v.1h.2l.1-.2h.1v-.2zM67.4 90H67v.4H67.5V90zM65.4 91.7zM65.4 86.3zM65.4 86.3h-.2v.1l-.1.3.1.2h.1l.2-.3v-.4zM66.7 88.4l-.2.2v.4h.3l.1-.2.1-.2-.1-.2zM66.3 83.8l-.1-.1H66l-.1-.1h-.1l-.2.1v.3l.2.3h.4v-.4z"/></g></svg>