<svg width="77" height="116"><path d="M76.5 55.8l-.1-.3-.2-.2-.3.3-1.1 1.2-.3.2h-.4l-.4-.1-.3-.3-.2-.4v-.5l.2-.1h.2l.1-.2.2-.1v-.5h-.2l-.1-.7-.1-.7h-.1l-.1-.2-.1-.2v-3.3l.3-.4.5-.6.1-.4.1-1.9v-.9l-.3-.9v-.8l.2-1 .4-.7.2-.8v-.9l-.6-1.8-.2-.9-.1-2-.2-.6v-.2l.1-.2.2-.3.1-.2v-.3l-1-1.2-.3-1-.2-1.6-.3-.7-.8-1-.1-.3-.1-.3-.2-.4-.4-.6-.8-1.5-.3-.3-.2-.1-.3-.4-.5-1.6-.1-.4-.7-.4v-.9l-.1-.5-1-1-.1-.2L65 18l-1-1.6-3-4.2-.2-.6-.6-.8-.2-.3-1.2-3.2-1.6-3-.4-1-.1-.8L56 1l-1.2.6.2.6v.3l-.1 1-.4.9-.4.7-.5.7-1 1.1-1.3.8-1.4.5-1.3.1h-1.8l-1.2.2-.6-.2-.5-.4v-.1l-2.9.3-1.1.3h-.7l-1.6-.5L36 8h-1.4l-1 .5-1 .6-.8.7-.1.1-.6 1.5-.5.6-.7.5-.2.2-1.5 2.3-1 .7-.4.2v1.5l-.5 1v.2l.1.4.1.3v.5l-.4.7 1 .8.4.3H27l-.6-.3-.6-.5v-.5l.1-.2V19l-.3-.2h-.2l-.3.2h-.3l-1-.3h-.2v.4l.2 1.7.2.7.3.5.4-.1V22.2l.7.2.3.7.1 1 .3.6-.3.2h-.5l-.1.2.5.8.1.6.2.1.5.1.7.3h.2v.5l-.5.4-.2.2h.7l.2.2.2.5.2.1h.3l.8-.1v.3l-.1.1h.1l.2.2.2.3H29l-.3-.1h-.2l-.3.4-.1.4v.2l-.3.1h-.1l-.1-.3V30l-.3.1h-.2l-.3-.2h-1.1l.1.3.1.3.2.3h.6l-.2.3-.2.2h-.2l-.2.2-.1.2v.3h.7l-.2.3-.1.2v.2h.5l.1-.1.6-.7.4-.2.4-.2v.4h.2l.3.1.3-.3.3-.1v.6l-.5.2-.4.2H28l-.1.2-.2.9h.3v.2l-.4.3-.1.2.8.3.3-.1.3-.5v.4l.2.2.2-.1v-.7l.2-.4.1-.2.2.1-.1.6.2.4.2.4v.4-.1l-.3-.1H29.5l.1.1h.1v.2h-1.2l.4.7.6.6.7.4h1l.1-.2v-.7l.1-.2 1-.3v.3H32.1l-.2.2h-.1l-.2.1.2.2v.6l-.3.3h-.2l-.6.5-.7.3h-.4l-.3.2.2.4.6.6h-.4l-.4-.1.2.5-.1.3-.2.3v.5H29l-.1-.1v-.2l-.1-.1.2-.1V39.4l-.2-.3v-1.7l-.2-.1h-.1l-.4.4-.2.1.3-.9v-.5l-.4-.3h-.3l-.6.5v-.2l-.1-.2-.2-.3-.1-.2v-.1l-.2.2-.1.5-.1.1-.3.2v.1l-.2.2v.2l-.1.2-.2.1V36.8l-.1-.3v-.4l-.1-.2H25l-.3-.2h-.1l-.4-.6-.3-.5-.3-.2-.2-.1H23l.4.3.2.9.3.1h.3l.1.2v.2H23.7l-.1-.1-.3-.4-.2-.2H23V35.6l1 1.1.2.3.1.4.2.2H24l-.1-.3-.1-.2-.3-.3-.2-.2-.1.1-.1.5-.3 1-.1.6v.1h-.2l-.1-.3v-1.3l.1-.2v-.5l-.1-.2h-.2l-.2.1-.1.2-.2-.4.2-.2.1-.2.1-.2-.1-.3h-1l.1.2v.1H21l-.2-.2H20.5l-.2.1-.1.2h.6V36.4l-.3-.2v.3l.2.2H21.3l.2.1.1.4v.5l-.3.4H21v.2l.3.1h.2v.2H21l-.2.1v.1l-.1.2h-.2l-.3-.4-.2.2.2.5.3.8-.5-.4h-.2l-.3.3h-.2v-.5l.3-.2.1-.1V39l-.1-.3v-.4l.3-.2V38l-.2-.6v-1.2l-.4.1V38l-.2.2h-.8v-.6l-.3.1-.3.3v.3l.3.3-.2.4v.3l.3.1h.4l-.1.3h-.7l.2.3.1.2h-.4l-.2-.2V40l-.1-.2v-.2l-.1.2-.1.2-.5.6v1.4l.2-.2.2-.3v-.7l.3.1.3.1.3.2.1.3v.3l-.1.1h-.7l-.1.1v.4l.1.1.2.1H18l.3-.2.5-.6.3-.2.1.6-.1.4.5.9-.3.5.1.1v.5l.2-.2.2-.2.2-.1h.3l-.3-.5v-.2l.2-.1-.1-.4-.4-.5-.1-.3h.4l.1-.3v-.3l.2-.3h.3l.2.2.1.3.2.2-.1.3-.2 1.2h.2l.1-.1.1-.2.2.2.2-.3.4-.9v-.5l.3-.2.2-.2.2-.1v.1l.1.2.2.2-.3.3.1.3.6.6h-.1l-.4.3.3.2.1.1v.3l.1.6h-.7l-.2.3v.6l.1.3.1.1h.5v.4l-.5.4v.3l.1.4.2.4.2.2h.2l.4-.6.3-.1h1l-.4.1-.8.7-.5.2-.2.2v.4H23v.1l.2.2.2.2h.7l.2.2.2.2-.2.3-.8.1-.2.3.2.1.8.3.2.2-.3.2-.2.4-.4 1 .1.2.2.1H24.3l.2.1.2.2.2.4h-.5l-.5.1-.5.4-.4.4.1.1h.2l.2-.2h.9l.3.1.5.7.3.2h.1l-.2.3.2.3.3.3.1.3v.2l.1.2.1.2.3.1.3-.2h.4l.3-.2.3-.2.4-.3 1.4-.4v.3l-.4.2-.8.4-.7.5-.3.1H27l-.3.1-.8.2h-.3l-.2.2-.2.4-.1.4v.4l.1.4.7-.2.8.4h.4l1.3-.6h.2l.2.2v.2l-.2.1-.1.1v.2l-.1.2h-1.5l-.2.1-.1.2V60.5h.4l.4.3.4.2.2.3V62l-.3-.3H26.8l-.3.1-.1.3v.3l-.1.4-.6-.4-.5.2-1.8 1.5-.5.3-.2.2v.2l-.1.7.5.2 2.6-.2.3.2.1.3.3.8H26l-.3-.4-.3-.1h-.2l-.4.4-.3.1-.5.1-.5.2-.5.2-.4.4-.7 1-.3.6v.7l.6.7v.2h-.1l-.4-.1-.2-.4h-.1l-.4.5-.1.3-.1.4V72h.1v.2l-.2.2-.2.2v.2h.1l.2.1-.3.1h-.7l-.2.3h.7l.3-.1v.4l.2.2v.2h-.1l-.1.2v.4l.7.7.1.4.1.1.2.1.3.1.1.1v.8l-.5 1-.2-.2v-.3l-.1-.2V77h-.5l-.2-.2-.1-.2v-.3h-.2l-.1-.1V75.8l.1-.4v-.2l-.1-.3-.1.5-.2.3-.2.1-.1-.3-.3-.2H19l-.2.3v.4l.5.6-.2.2.2.3h.3l.1-.2-.1-.5.3.1.3.3.5.7.1.4-.5.5.1.4h-.8v.2l.2.2.1.1.2.1H20l-.2.2.2.1.3.1h.3l.3-.2v-.2l-.1-.3V79h.2v-.1l.2-.1v-.1h.7v.2l-.4.3-.3.2v.3l.1.4.2.4.2.2-.2.2V81.5l-.1.2-.2.2-.3.3-.1.3v.2h.8v-.3H22.5l.2-.1.1-.1.2.1v.1l-.1.2-.1.2h.5l.1-.2.2-.7.2-.4v-.8l.1-.2.3-.2.2.1.2.3v.2l-.1.2h-.1V82H25.5l.3.3H25.6l-.3.2.1.2H25l-.8-.2h-.4l-.2.3v.8h-.1l-.1-.1h-.3l-1.5-.2H21l-.1.3v.5l.7-.3h.4l.4.2h.4l.4.2.5.7.4.3-.1.2.5.4.3.2h.4l-.5.3-.4-.1-.4-.3-.4-.1v.1l.2.2v.2h-.3L23 86l-.5-.3h-.2v-.5l-.1-.1v-.2l-.1-.1-.7-.2h-.2l.3.2-.3.4v.4l.2-.1h.2l.2.6.4.2V86.6h.4l-.2.4h-.2l-.4-.2-.8-.2-.2-.1-.4-1v-.7l.1-.2-.5-.8-.1-.2h-.1l-.1-.1H19.4V84.1l-.2.4-.2.7v.6l.4.3.5.2V86.6h-.3v-.1l-.1.1V87l.4.4H20.3l.1-.2h.2v.2l.5.3.1.1v.4l.3-.1H22.4v-.3h.2v-.2h.2l.2.1h.2l.2-.2H23.7v.3l-.2.2-.2.2h.1l.2.1v.1l.1.2h-.4l-.5.1-.3.3v.5l.2-.1V89.9l-.1.2.2.1h.3v.1h.2v.5l-.3.5h-.1l-.1.3v.1l-.1.1v.2H23.3l.2.1v.3l-.1.5v.2h.2l.8-.2h.4v-.4l.5-1.4V91l.2-.2.6-.1.1-.1v-.4h.1l.3-.1.2.1h.1V90l-.2-.2.2-.2.7-.4-.4-.5v-.2l.4-.2v-.4l-.1-.3v-.2l.2-.2.2-.2H28.2l.2.4v.3l-.1.2v1.5l.1.4.2.1.6.2.5.3.2.1v-.7l.2-.1.4.2.2-.2V89l1-1-.2-.2v-.3l.2-.2.1-.1v-.7h.2l.2-.1.3-.1.3-.3.6-.4h.2l.3-.5.2-.2h1.1l.2-.3.4-1 .2-.3.5.7.3.2.4-.1.3-.3.1.2v.4l.3.3-.1.2-.2.5-.2.2-.2.1H37l-.2-.3V84.7l-.1-.1-.2-.1-.5.5-.1.2v.3l.1.2.2.1V86.7l-.2.3-.4.2H35l.2-.6.1-.3v-.4l-.2.1-.2.2-.2.4-.3.5-.1.1-.4.3-.1.1v.3l.1.3.3.2h.2l.3.1-.1-.3.7-.4h.2l.7.7.6 1 .4.5h.4l-.2-.3.2-.2h.4l.4-.1.1-.2.7-1.3h-1.2l-.2-.3-.2-.4V87l.3-.2.3-.1h.5l.8.5h.9l.2-.3v-.4l-.4-.3-.7-.3H40.2l-.4-.5-.5-.4-.5-.4-.3-.9h.2v-.1l-.1-.2h-.7l.1-.4.4-.2.7-.2v-.1l-.4-.1-.4-.2-.2-.2.2-.1h1.1l.6-.2h.1l.2-.3.3-.7v-.1h.2v.8l.3.6v.4h.2l.3.7.2.2v.7l-.3.5-.1.4v.5l.3.3.3.2h.4l.3.3.1.1.1-.2-.1-.9v-.3l-.2-.3h.2l.3-.7.4.1.5.2h.2V84.5h.4l-.1-.1h-.1v-.2h-.1l.3-.1.1-.3.2-1 .2-.6v-.3l.1-.5-.3.2h-1l-.6.5-.2.1H43l-.2-.3-.2-.2-.3-.4-.3-.5-.2-.4v-.3l.1-.4.2-.3.3.1.3.7.3.2.3-.2.7-.5.1-.2.1-.1.1-.4v-.5l.2.1.1.2v.2l.1.1h1l.3.1.2.2h1.1l.4-.3.1-.6.1-.7.2.2.1.2.2.5.4-.3h.5l.2-.1-.3-.8h.4l.3-.3.2-.4.3-.3v.3l-.1.2v.1l-.1.2V79.2l-.1.2V79.7h.2l.4.1h.5v.4l.1.2.3.1H52.7V80l.1-.2.2-.1h.4l.2.1.3.5h.4l.3-.6.3-.2.4.8-.4.1-.2.1v.2l.3.3.2.1 1.1.2v.1h-.4l.3.5.5-.2.4-.6.2-.4-.2-.3v.2l-.2.2h-.1l-.2-.1.1-.9V78.8h-.2l-.1-.2.1-.2.2.1h.7l.2-.2.2-.2v-.3l-.2-.3v-.3h-.3l-1.8 1V78l.2-.2v-.3l.2-.3.6-.2.6-.3h.4l-.2-.3v-.2h.1l.6-.1h.2l1 .3.1.1.2.2V77l.3.1h.5l.1-.1h-.1l-.2-.2H60v-.5l-.3-.3-.2-.3v-.2l-.1-.6-.3-.4v-.2l.3-.4.2-.2v.1l.2.5v.2l.1.4v.3l.3-.1.2.2.2.3.3.2v-.3l.1-.2h.2v1l.3-.3h.2l.3.2h.3l.6-.1h.2l-.2.4.8-.2.5-.1.3-.2.3-.1V75.6l.3.6.3-.2.4-.4.4-.2-.1.3v1.8l.1-.1v-.1h.3V77l.1-.3h.2v.3h.2v-.4l.3-.5.2-.3h.2l.4.2h.6l.2-.4h-.1l-.1-.1V75l.3-.1h.9l.3-.3.5-.6.3-.8v-.5l.2-.2.1-.6.2-.3.7-.4.5-.5.2-.4-.1-.1-.1-.1V70l.2-.4v-.2l-.2-.6v-.1l.1-.1h.2l.2-.1V67.6l-.1-.2h-.3l.2-.4h.2l.2.4.1.5.1.4.3-.2.3-.4.2-.3.2-.9V66l.1-.4v-.3l-.2-.4v-.4l.3-.6.3-1.5.3-.7.4-1.3.1-1.5v-.3l.7-1.5v-.9l-.1-.4zM16 30.5v.1l.2.2.1.1h.2l.2-.1.2-.2v-.2l-.5-.3V30l-.2-.2-.2-.1v.2l-.2.2v.5h.2zm46 50.1l-.2.1-.4.2.3-.7v-.8l-.1-.2-.1-.2V77.7l-.3-.1-.3.2v.4l.1.3-1.2.7h-.2v.4l.1.3.2.3.3.2v.2H60l-.3-.2-.2-.1-.3-.1H58.4l-.2.2-.3.2-.2.2-.1.2v.4l.2.3.3.3.2.3.3-.2.6-.3.2-.2.2.1-.1.4v.3l-.1.3h-.5v.7h.2l.5-.2v.3l-.1.2v.2l.3.2-.6.4h.4L61 84l.2-.3v-.1l-.4-.2-.2-.1.1-.3.3-.3v-.2l.1-.3.2.2.3.1.3.1h.2v-.3l-.3-.5v-.3H62V80.6zm-12 1.5h-.9l-.4.2h-.4l-.2-.3-.4-.2h-.1l-.1-.3v-.3l-.1-.2.3-.4.2-.2V80l-.1-.3-.3-.2h-.4l-.3.3h-.1l-.1.6h-.2l-.2.1-.2.4v.8l.5 1.5v.6l.2.2.2.1.2.1h.3v-.2l.1-.4.2-.4.2-.1.3.1.2.9.2.4h.2l.4-.2.2.1.3.2h.3v-.3L50 84l.1-.1.1-.1v-1l.1-.2v-.4h-.1zM18 91.8l1.6-1 .1-.3v-.1h.1l.3.4.2-.1.2-.2.3-.8.1-.3v-.6l-.5-.8v-.2l-.4.2h-.2v-.2h-.1v-.2h-.2l-.3-.2-.3-.2h-.3v.2l.4.3.1.3-.1.3-.2.2h-.3l-.2-.3v.3l-.2.1h-.2l-.2.1-.1.2-.1.2-.2.4h-.5l-.4.6-.3.7.4.5v-.5l.5.3v.4l-.2.1v.2H18zm-3.6-6.9v-.4l-.3-.2-.1-.3h-.2l-.3.5-.5.2-.1.1.1.4h.4l.2.2.2.1h.2l.3-.4v-.2zm.4-4.7l-.2.2-.3.5-.2.1v.2h.2l.6-.2h.1l.1.2h.4l.2-.2.2-.3v-.6l-.2-.2-.2-.1h-.1l-.1.3v.1h-.4zm6-60.4l.6 1.2v.1l.2.1v.1l-.2.2-.1.1-.5.2.3.4.4.2h.9v-.1h.1l.1-.1h.1l.2.3H23.2l.1-.2.2-.4.2-.1v-.1l-.1-.3-.1-.1v-1.1l-.2-.3V19.3l.1-.2v-.3l-.3-.2-.6-.3-.2-.3-.3-.3-.3-.2-.3.1-.4.5h-.2V19.8zM33.3 92l-.1-.1-.2-.2H33l-.3.1h-.1v-.2l-.2-.2-.1-.1-.2.2-.2.2h-.2v.1h.1l.3.1h.1v.2l.4.1v.1l-.1.2v.2h.2l.3-.3V92h.2l.2.1V92zm19.8-9.5h.1v-.2H53.6l.1-.1V82l-.4-.3H53l-.2.1-.1.2V82.3l.3.1v.1zm-35-6h.3V76.1h-.2L18 76h-.2l-.1.1-.2-.1h-.4l-.1.2.2.4v.1h.2v.1H17.8v.2h.6v.5h.1l.3.1.1-.2v-.2l-.1-.2-.1-.2h-.4l-.2-.3v-.1zm7.3 19.8v.3h.2v.2H26v-.4l.1-.1.1-.1V96l-.3-.3v-.2l.2-.1v-.2l-.3-.2h-.2v.1l-.1.1v.1l.1.1v.3l-.1.5zm3.8-4.3H29l-.1-.2h-.2l-.2.3h-.7l-.1.1h-.2l.4.3H28.8l.1.1v.2l.1.1h.2v-.1h.1l.2-.1h.2V92.4h.1l.1-.1V92h-.1l-.2-.1H29.2zm-.3-1.8v-.1h-.6l-.4.2-.2.3-.1.3-.1.1v.2l.2.1v.4l.1.1h.1v-.3l.2-.2.5-.2V91H29.3v-.3l-.2-.1-.1-.1V90.1zm-8.8-9.6h.2v-.1l-.2-.3-.3-.1-.3-.1h-.2v.3l.2.2V80.8h-.3v.1l-.1.2-.4.1h-.3V81.5h.5l.2-.1.5-.1h.1l.5.3v.2l-.1.1.2.1.3-.3v-.5H20l-.1-.1V80.8l.2-.2zm3.2 15.1l-.2.3v.3l.2.3h.4l.2-.1.2-.2.2-.1V96h.7l-.1-.2h-.2v-.1h-.5l-.3-.2h-.3l-.3.2zm7 0l.1-.3-.1-.1-.2-.2-.1-.2-.3-.1-.3.1-.1.1v.2l-.1.2-.1.2v.3h.5l.1.2h.3l.2-.1.1-.2v-.2zm-6.1-1.3H24v.1l.1.1H24V95l-.1.3.1.1.2.2h.3v-.1h.4V95l.1-.1V94.7h-.1l-.2-.2h-.4l-.1-.1zm-8.3-1.6h-.4l-.6-.1h-.1v.1l-.1.2.1.2.4.2.1-.1h.2v.1H15.8V92.7zm11.3-.5v-.1L27 92v-.3l-.2-.4-.2-.3-.2-.1h-.8l-.1.3-.1.2v.8l.2.2h.2l.2.1H26.4v.2l-.1.1v.2h.3l.3.1.1.1h.1V93h.2l.2.2h.2v-.3l-.1-.1-.3-.3v-.2zM41 90v-.3l-.4-.4h-.2l-.1.2h-.1l-.3-.1h-.1l-.1-.2-.1.1v.4l.3.2v.2h.2v.2l.1.1h.4l.3-.2.1-.2zM16.1 87V86.6l-.3-.2-.3-.3-.1.1v.4l.3.3v.4l-.2.2h-.6l.4.2-.1.1-.1.1h-.2v.2h.4l.4-.2.1-.1.2-.1V87.4l.1-.3V87zm-1.3-1l-.1.2v1.2l.1.1h.4l.1-.1v-.6l-.2-.3-.3-.4zM5 84.9h-.4v-.1H4L4 85l-.1.3-.1.2v.6h.3l.1-.1.1-.2v-.2l.4-.3v-.1l.2-.2v-.1zm11.5-.6l.2-.1h.1l.2.2.2.2h.2l.1-.2v-.7h-.1l-.1-.2h-.4l-.2-.1v-.1h-.2l-.2-.1h-.7l.1.2.3.3.2.3v.2l.2.1zm.9-1.6l-.2-.2H16.8l-.3.1h-.4l-.2.2.2.2h.3l.3.3h.4v-.4l.1-.1zm-1.6-1.3l-.2.1v.4l.2.2.3.3v.2H16.3l.1-.3V82l.1-.1h.2v-.1l.1-.2v-.3l.2-.2V81l-.1-.1H16.3v.4H15.7zm34.6.2v-.1L50 81v-.2l-.2-.2v-.1h-.2l-.2.4-.1.2-.1-.3v-.2l.2-.4-.1-.2h-.3l-.1.3-.2.3-.2.3-.2.3.2.3.3.2h.2l.4-.1.8.2h.2v-.2h-.2zM63.4 77h-.2l-.1.2v.7l.2.2.1.3v.1h.1l.2-.2V77h-.3zM18.7 66v.2h.2l.2-.1.2-.3.3-.2.1-.2v-.1h-.1l-.2.1h-.2l-.1.1H19v.1h-.2V65.9l-.1.1zm3.6-35.4h.2l.1-.3.1-.2.2-.1v-.4h-.2l-.4-.1-.3.2-.1.1v.6H22.2v.2zm1.4.6h.4l.9-.7V30l-.1-.1-.3-.2-.2-.1-.1-.2v-.2l-.3.2-.2-.1v.2l.2.2v.6l-.2.2.1.2v.1l-.2.3zM21.3 26l.2.1.2.1V25.6l-.3-.1H21l-.3-.1v.5h.6zM9.1 20.7H8.8v.5H9l.2-.1v-.3h-.1zM18.6 80l.1-.2v-.1h-.5v.4h.4zm18.6 19l-.1-.2-.2-.3V98H36.5v.5h.1v.2l.1.2.3.1.2.1V99h-.1zM16.6 77.3h.2v.1h.2l.2.2h.2v-.5l-.2-.1H16.6v.1h.1v.2zm28.4 8l-.3.3h-.1l-.1.5v.2l.7.6.2.1h.2l.2-.2v-.3l.1-.2V86l-.1-.5-.2-.3-.1-.2h-.2l.2-.3.1-.2v-.2H45v.2l.2.3-.1.5-.1.1zM36 90v-.4l-.2-.3-.3-.1h-.8l-.6.1-.2.1-.3.2.2.1v.5l.4.3h.2l.2.1.8-.1.3-.1.2-.4zm-23.3-5.7h.4l.2-.3v-.5H14l.2-.2h.3v.1-.6H14l-.5.2h-.8l-.2.2-.1.2v.7l.2.2zm3.6-8.8l-.2.3v.2h-.2l-.2.1-.2.1v.2l-.2.7h.1l.1.1h.2l.5.1.1-.2.2-.2.2-.2h.1l-.2-.5V75.5l.6-.3h-.6l-.3.2zm8-51.1h-.1l-.1-.1h-.5l-.1-.1h-.1l-.1.1-.3 1-.1.3-.2.1h.3l.7-.6h.5v-.2h.1l.1-.1h.2v-.2l-.3-.2zM20.2 20L20 20v-.5H20v-.1H19.7v.1l-.1.1-.1.5-.1.1-.2.2 1.2.9h.4l.2-.3v-.2l-.2-.2-.3-.1-.2-.2-.1-.2zm.7 24.4v-.1h-.6l-.2.5v1.6l.2.6.2-.3.2.2-.4.4v.3l.2.1.4-.3v.5l-.1.1-.1.2h1.1V48l-.3-.3-.5-.6.3-.2-.2-.2H21v-.2h.4-.2l-.5-.2h-.2V46H20.8l.1-.1.1-.2v-.2l-.5-.7v-.2l.4-.2zM18.4 19h.2l.2-.1.7.1h.4l.3-.3v-.5l-.4-.1h-.3l-.4-.2h-.5l-.2.2-.2.6v.3h.2zm17.8 75.7V94H36l-.2.1v.1l-.2.2-.1.4h.6v-.2zm-4.5-2.4h-.5l-.2.1v.4h.1v.2h.4l.4-.3V92.3h-.2zm-16.4.3v-.1l-.3-.2h-.8v.2h.6l.5.1zm15.5-1.7v-.2h-.1v.3l-.2.1H30.2l-.1-.1h-.5l-.2-.2V91.6v-.1l.2-.1v-.1.3l.1.2h.2l.1.1h.2l.1-.1.1-.1h.1l.2-.2-.1-.2.2-.4zm5.5.2l-.1-.2H36l-.1-.2h-.1v.2h.1v.4l.3.1h.1V91zm-3.6-.6v.3h.2V90.3l-.1-.6-.1-.1h-.5l.2.8h.2v-.1zm13-.7h-.2V90l-.1.2V90.6l.2.2v-.1h.1v-.2l.1-.6h-.1zM15.3 89h-.2l-.1.2h-.1v.5h.2l.2-.2.2-.1v-.1h-.2V89l.1-.1-.1-.1zm30.7 0H45.7l-.1.2v-.3l-.2-.3-.2-.4V88l-.2-.1h-.1l-.2-.2h-.3l-.3.2-.1.2.1.1.2.1v.1l.1.2h.1v.2l.2.1.6.3h.3v.1H46V89l.1-.1zm-6.3.3l.4-.1h.2l.1-.1v-.2l-.6-.2v-.1h.1v-.2h-.2v-.1h.2V88l-.1-.2h-.3l-.1.2v.2h-.1v.1h.2v.2l.2.2H39.4v.2l.1.1.1.1h.1zm4-2h-.4v-.1h-.1V87h-.3v.2l-.1.2.3.3h.2l.2-.2v-.2l.1.1v.1h.1l.1-.1v-.2h-.2zM11.7 86h-.1l-.4.2H11l-.1-.1.3.3h-.1v.2H11.7l.1-.1V86zm42 0v-.2l-.6-.3H53v.4h.1l.1.1v.4l.2-.1.2-.1h.4l.2-.3v-.1l-.3.1zm-37.3.3h.2l.1-.1h.1l.1-.1H17.3l.2-.1.3-.2h-.2v-.3l-.3-.3-.2.3V85.3l-.1-.1-.4.2v.1h-.2v.2l.2.1-.1.6zm41-2.8h-.2v.1l.2.2h.4l-.2-.3h-.1zm.9-.2l-.4-.2v.1l.4.2H58.7l-.1-.1h-.2zm-1.2-.2v.1H57.8l.1-.2v-.2h-.2v-.2l-.2-.4V82h-.1l-.2.2V82.6v-.2H57v.4l.1.2v.2zm-4.7-1.4l.3-.2h.2v-.2l-.7-.1H52v.2l.2.4.2-.1zm-8-1.3h-.7V80.9l.1.2h.4l.3-.5h-.1zm15.2-1.9v.2h.1l.1-.1h.1v.2l.3-.2V77.8v.2H60v.2H60l-.2.1V78.7zm-43.3-.7h-.1v.2H16l-.1.1v.1h1l-.1.1-.2.1v.5l-.2.2v.2h.1l.2-.1V79l.4-.1.2-.2v-.3l-.1-.1-.1-.1V78H17v-.1H17l-.1-.1h-.5zM22 49.2l-.1-.1v-.2l-.1-.1H21.5v.1H21v.2l1.1.3h.2v-.1l-.3-.1zm-.3-14.7h.4v-.3h-.5V34.5zM20 30H20l-.7-.2h-.1v.1l.3.2.2.1h.4l.1-.2H20zm1.2-2.8l.2.4h.2l.2-.1V27.1l-.1-.1-.2-.3h-.2l-.2.1v.2h.1zm1.1-3.3h-.2l-.2.2-.2.1v.1l.6.2.1-.2v-.4zm-1.4.1h-.1l-.5-.1-.3-.3-.3-.1.1.3.1.3h1zm-2.3-2.6h-.4l.2.3.3.3v-.6zm-1.4-.3h.1l.3.2h.2v-.4l-.2-.2-.6.2v.1h.2zm20.2 77.4h-.1V98h-.2L37 98v.1l.1.2.1.2H37.5v-.1zM59 85.7l-.1.1-.2.1v.1H59.1l.1-.1v-.2zm-3.6 0l-.3-.2-.2-.2v.2h.1v.4h.5v-.1h-.1zm-2.3-.5H53.5v-.1H53l-.2-.1v.2H53.3zm-.7-.8H52l-.1.1.1.2h.2l.1.1h.2v-.1l-.1-.3zm2-1h-.2l-.1-.1H54V83.6H54.4v-.1zm-3.2-1.7l.1.3h.1v-.2l-.2-.1zm7-2.9l-.3.3v.8h.1l.2-.1v-.4h-.1l.2-.3v-.3zm.5-1.9v-.1h-.3l.1.2.2.2v-.3zM20 100.2H19.6v.2l.2.2.1.1V100.4h.3v-.2H20zm10.3-.3l.4-.1-.2-.3H30.1v.3zM24.4 97h.3l.1.1V97l-.1-.2h-.2V97.2zm3-1.7l.1.2v-.2l.2-.1V95l-.1-.3-.3.2V95.3zm-14-1.3h-.2l-.1.2v.1H13.5l.1-.2h-.1zm11.5.2h.2V94L25 94h-.2l-.2.2.1.2h.2zm-9.5-.3h-.2v.1l-.1.1h-.2l-.2.1h.1l.1.1v.2l.2-.2.2.1v-.2l.1-.1h.1V94zm-2.4-.2H12.7l-.1.2v.1h.1l.1.1V94l.1-.1v.2h.1v-.4zm27.8-.2l.2.2v-.2h-.2zm-17-.3h-.1v.2H24l.2-.1v-.1h-.3zm14.2-.2l-.1.1v-.1l-.1.6.2-.3v-.1h.1V93H38zm.4.2v.1h.2V93h-.2v.2zm-15.8-1V92h-.2v.2h.2zM2.2 91l-.2-.1h-.1v.1l.2.3.1-.1h.2l-.2-.2zM2.1 90l-.1-.1-.1.2v.2L2 90v-.1zm19.4-.1v-.1zm0-.2v-.1.1zm12.4-1h.1v-.3H34v.2h-.1v-.1H33.4v.2l.2.2.2-.1zm4.8-1.3l-.1.2.1-.2zm0 0v-.1zm0-.1h.1zm-5.1-.6l-.2-.1h-.1l.1.3h.1v-.2zm7.7-.3H41v.1H40.7v.2h.2v-.1.1l.1.2h.2v-.2h.2v-.2l-.2-.1zM13.8 86v-.2H13.5l-.1.1v.2H13.8v.1l.2.1V86h-.1zm-8.7-.5l-.1.1-.1.2.1.1.1-.1.2-.2h-.1zm-1.9-.4l.2.2V85h.2l-.2-.1h-.2zm12.8-.6l.1.2v-.4.1l-.1.1zM.5 84.3v.2l-.3.4H0v.5l.1-.1v-.1h.2V85l.1-.2.2-.2V84.3H.5zM20 83l.1-.1v-.1h-.2l-.2.1.2.4V83h.1zm19.5 0h.1l.1-.2h.1v-.1l.1-.2H39.5V82.9h-.1v.1zm-20-4h-.5l.2.3v.3h.4v-.2l-.2-.3zm-1.3-.4H18l-.2.1V79l.1.2h.1v-.4l.1-.1v-.1zm.8-.3l-.2-.2h-.2l.2.2v.3l-.1.2h.4v-.4zm-4.2-1.7v-.5h-.1l-.1.1V76.5l.2.1zm2-4l.2-.2V72l-.2-.1-.1.2v.1l.1.2zm-2.2-1.9v.1h.1v.2h-.1v.2h.3V71l.2-.1v-.2h-.2v-.1l-.1-.1-.1.1h-.1zm11-9.2l-.2-.2-.1.1V61.7l.2-.1v-.1zm-3.1-.5h.4l-.2-.1-.1-.1h-.2v-.2H22v.4l.2.1v-.2h.1v.1zm-1.6-.7h.1V60h-.2v.1h-.1v.1h.2zM14 54.7v-.2h.1l.1.1v-.2h-.4v.2l.2.1zm2-2.5l-.1-.2H15.6v.1l-.2.2h.2l.4-.1zm4.7-2.4l-.1-.1v-.3h-.1l-.1.2-.1.1-.1.2h.2l.1.1.1-.1.1-.1zm-5.2-7.2h.2v-.4.2h-.2l-.3.1v.2l.3-.1zm-1.4-7.7v.2h.4v-.2H14.1v-.1l-.1-.2h-.2l.1.3h.1zm-.7-1v.1l.1-.2v-.1h.2v-.1l-.2-.1h-.1v.1l-.1.1v.2zm2.2-.4l-.2.1h.2v.1l.2-.5h-.3l-.1.2h.2zm5.3-.3h.1l.1.2V33h-.2v.2zM19 32l.1.1h.2-.1v-.2l-.1-.1-.2-.2v.1h-.2v.2h.2zm-3 0h.3V31.5l-.1-.2h-.2v.5zm9.6-1.4H25.2v.3h.4l-.1-.3zm-3.2-5.2l.1-.1v-.1l.1-.1v-.3H22v.1l.2.2V25.3zm-13-3.1l-.1.2h.1l.1-.2h-.1zm7.4-1.6l-.1-.2h-.1v.2h.2zm1.7-.7h.1v-.1h-.3l.1.1zm12.3 90.3l-.2.2-.1-.3-.2-.6-.3-.2-.8-.4-.3-.2-.3-.2H28l-.8.2h-1.7l-.6.5-1.8.3-2.8.9-.6.3-.3.2-1 1-.6.3-.2.2-.3.5-.3.9.2.6.5.6 1 .8.2.1h.3l.6-.6H24l1.1-.5h.7l2.3-.9.3-.2h.1l.4-.1h.2l.1-.2.4-.6.5-.6.2-.4.1-.3v-.1l.2-.2v-.7h.2l.1-.1-.1-.3zm.3-.9v-.1h-.2l-.1.3v.2l.2.1h.2v-.3l-.1-.2z" fill="none" fill-rule="evenodd"/></svg>