<svg width="98" height="116"><path d="M97.2 10.4v-.7l-.1-.4H97V9l-.2-.3-.4.2v.2h-.1l-.2-.3v-.3l-.7-.5.2-.1v-.2l-.4-.2H95L94 8l-.6-.1v-.1h.1l.3.1h.2v-.1h-.1v-.2h.4l.3-.3V7l-.3-.3h-.4l-.2-.2h.2l.2-.1v-.2l-.3-.3-.2-.1h-.2l-.2.1-.3.5v.2h-.1v.1l-.6.2v-.3l.3-.2V5.6h-.2l-.7.4-.5.1v.1l-.2.3v.1h-.2V6.2h.1l.1-.1h.1V6l-.1-.2h.2l.1-.1H91l-.1-.1.3-.3v-.2l-.3-.1v-.1l-.1-.1v-.2l-.2-.3H90l.2-.1V4h-1.2v.1l-.2.2-.1.2-.2.5-.3.4-.1.3V6h.1l.2.2v.1H88l-.1.1v.4h-.1l-.3.8v.1l.2.4h.4v.1l-.1.1-.1.2V8.9h-.1v-.4h-.5V9H87l-.1.1v.1l-.1.2V10l-.1.3v2.1l-.3.3-.2.2H86l.2-.1.1-.1.1-.3v-.1l.1-.2V9.4l.2-.3.1-.3.1-.2.1-.2h.1V8H87l-.2.2-.1.2-.2.4v-.1h-.1l-.2.1v-.2l.1-.2.4-.3-.5.2-.4.2v-.1l.2-.2-.2.1v.2l-.2.3v.2-.4l-.1-.2v-.2l.2-.1.3-.2.2-.2v-.1l.4-.4.3-.3.2-.4v-.7H87l-.4.4-1.3.7-.5.1.2-.2h.1l.2-.1.3-.3.2-.3.5-.2.2-.3v-.1H86v-.1H86l-.3-.2h-.2l-.3.3v-.2h.2v-.1l-.2-.1V5l.1-.1h.6v-.1l.1-.1V5H86.4l.2.1h.5l.1-.3H87v-.1l-.1-.1h.5-.1v-.2h.2l.2-.2H87.4V4h.4v-.3l.2-.3v-.5l-.2-.2h-.5l-.4.3h-.1v-.2h.1v-.2l-.1.1V2.4l.2-.1v-.4h-.1v-.1H86.5l-.2.5h-.1V2H86l-.1.2h-.3l-.3-.1H85V1.4l-.2-.2v.3H84.4l-.2.1V2.4l.2.1V3.1l-.1.1-.2-.1v-.5l-.9-.2-.1.1v.3l.2.2h.1v.2h.1v.2L83 3l-.1.2v.5l.2.1.5.1h.1l.1-.3v.4h.2v.1h.2v.2h.1v.2h-.1l.5.3-1-.2h-.1l-.2.3v.4h.2v.2h-.7l-.1.2-.1.2v.1h.2v.2l-.1.3V6.9l.4.3.1.1-.3-.1h-.2l-.1-.1H82.4v.3l-.1.2V8l.2.2v.2l.2.2h-.5v-.1h-.5V8.8l-.1.2h-.1l-.1.1H81v.5h-.2v.1l-.1.2h-.2V8.6l.2-.2V8l.1-.1v-.2l.2-.9H81l-.3-.2h-.2l-.4.3-.1-.2 1-.6.2-.3V5l.1-.2.1-.1v-.2h-.2V4.2l.1-.1v-.7l-.1-.1v-.1H81l-.8.9-.3.4-.2.4-.2.3-.1.1V5.7l-.1.1H79V6l-.1.3-.2.7V7l-.1.2-.2.1-.2.2-.8 1.3-.8 1.1v.2l.3.1.1.2v.2l-.3.3v.2l-.1.1v.1l-.1.2h-.2v.1l-.1.2-.2.5v.2l-.1.1h-.1l-.2.1h-.2v-.4h.1v-.1h-.2v-.2h-.2V13l-.2-.2V11.3l.1-.1V11h.1l.1-.1.6-.6V10h-.2v.1h-.1V9.9h-.1l.2-.5h.2l.2.1v-1l-.6.1-.2-.2h.7l.2-.2-.2-.2-.6.2.1-.2.5-.4v-.1l.2-.2v-.1l.2-.1.3-.4v-.2l.3-.1.2-.3h.1l.1-.2.1-.2V5.4l.3-.2.3-.4v-.1l.2-.1.1-.2h.1V4l-.1-.2h-.1L78 4v.1h-.1v.2h-.1v-.1l-.1-.1v-.2h-.4l-.1.2-.1.2H77v-.1l-.3.3-.1-.2.2-.2.1-.1v-.1l.1-.2v-.1l-.4-.5-.2-.1-.1.3v.3l.1.1v1.1H76V5H76v-.7l-.1-.2-.2-.3v-.1h-.1v-.1l-.2.1V4l-.1.1v.3l-.3-.1v-.1h-.2V4l.2-.2.1-.2.1-.2V3H75v.7h-.6v-.1h.1v-.2h-.2V3h-.1l-.4-.1h-.2v.2h.1v.1h-.2V3.7l.2.2-.1.1h.1l.3.2v.2h-.4v.4l.1.2v.3l-.2-.2-.2-.2H73V4.5h-.2V4.1h-.2l-.4.3v.8H72.6l.5.2h.2l.1.2.1.1.3.2v.2l.2.3v.4L74 7h-.2v-.1l-.5-.6h-.3l-.2-.1h-.1l-.2.2v.7h-.1l-.2.2-.3.4v.1l.4.2.1.1.2.4h.1v.2h-.1v-.1l-.5-.3-1-.1-.2.1-.1.1-.3.4-.4.5-.1.2-.1.1h-.1l-.1.2-.1.3-.1.2h.2v-.1.2h.3l-.1.2-.6.1-.4.2v.2l.6-.2h.1l.1.2h-.4v.1h-.5l-.1.2.1.2h.5v.2h-.3l-.1.1.3.2V12.4H69l-.3.1-.1.1h-.2v.1l.3.5.8.1.2.1v.1h-.2V13.9h-.1l-.2.1-.3.4v-.5h-.1l-.5.4-.2.1v-.2l.1-.1v-.7h-.4v-.1l-.1-.2v-.9l-.5.5h-.6l-.2.3-1 .2v.1H65l.4-.2.1-.2h.4l.7-.2.3-.2h.2l.4-.7v-.2l-1.1-.2h-.3v-.2H66l-.2-.1-.2-.1h-.2l-.1.1v.4l-.2.4v.1l.7.2v.1l.2.1h-.2l-.4-.2-.5.1H65v-.1l.1-.1v-.8l.1-.2v-.4h-.6V11.2v-.7h-.1v-.1h-.1l-.2.2H64v-.2l.1-.1v-.1H64l-.6.6v.5h.2v.2l-.1.1v.5l-.1-.2v-.2l-.1-.1v-.1L63 11h-.1l-.2-.1-.1-.1v-.2h-.1V10.2h-.1l-.1.1v.6l-.1.1v.4L62 11v-.3h-.2l-.2.2h-.1l-.2.1v.2l-.2.2h.2V11.9h.1l.1.1h.7l-.2.1V12.6h.1l.1.1h.4l.3.3h.4v-.1l.1-.2.5.1.1-.2.4-.2v.2l-.2.2-.1.2H64l-.6.1-.1.2.2.3h.3l.6-.2-.1.1V14.4l-.2-.2V13.9H63.8v.2l-.1.2v.7h.1l.2.1V15.4h-.2l.3.3.1.2v.3h.2v.2l-.2.1H64v-.1h.2L64 16V16l-.1-.3-.1-.1-.6-.6-.2-.1-.2-.1-.1-.2-.1-.1V14l-.1-.1v-.2l-.6-.4h-.4l-.1.3-.1.3v.4h.1l.2.2v.1h-.4V15.6l-.2.1v-.1l.1-.3V15h-.3l-.1.1V15.5h-.2v.2l.1.2h-.2l-.2-.3.1-.1v-.2H60v-.1l.3-.5.4-.4h-.2l-.8.7h-.1V15.3l.1.1V15.7l-.1.1-.6.3h-.4l-.1.1v.1l.1.3v.5l-.1.3v.2l.2.2.3.2v.1l.1.1v.3l.2.2.4.2.1.1v.1h-.1V19l-.1-.1-.5-.1-.3-.3-.2-.2v-.1h-.1l-.1.1v.2l-.1.3v.1l-.2.3-.1.1-.3.8-.2.1-.6.5v.2l-.1.1-.1.2-.1.2h-.2v-.2l.3-.4v-.2l.2-.1.2-.3h.2v-.3l.1-.3v-.3l.2.1.1-.2v-.5l.1-.2-.1-.1v-.2H58V18l.1-.2v-.2l-.2-.3V16.2l.1-.1V16l.1-.1v-.7h.1V14.8l-.4-.8h-.1l-.2.2V15.2h-.1V15l-.1-.2v-.5.2l-.2.5-.1.4-.2.5v.3h-.2v-.6l.1-.1v-.1l-.1.1-.1.4v.1l-.2.1V16.4l-.1.2H56v1.1H56.5l.1.2h.1l.2.2h.2H56.8l-.3-.2-.4-.1h-.2v.1l-.2.8V19.6l-.6.4v-.2l.1-.1.2-.2h.1V18.5l.2-.6v-.7l-.1-.2V17l.1-.2v-.1l.1-.2v-.2l.1-.3V15.6l-.7.1-.3.2H53.9v.2l-.1.1h-.1l-.2.1-.1.1v.5l-.6.8v.6h.1v.2h.2l.1-.1h.2l.2-.2h.3v.5-.2l-.2-.1-.4.2H53v.2l-.1.3V19.5l.2.1h.1V20l.1.2.2.2.5-.1h.2l.3.5v.8l.1.1h.1V22l-.3-.2h-.1l-.2.2-.2-.1v-.4h-.1l-.2.2v-.2l.1-.1h.3l.2-.1V21l.1-.2-.1-.3h-.8v-.1l-.3-.3-.1-.1V19.8l-.3-.2v-.2h-.1V19h-.2v-.5h-.8l-.3.2h-.2l-.1.1v.8H51.4v.1l.1.1V20.1h.1v.1l.2.2 1 .3.2.3v.2h-.2l-.3-.3H52V21.5v-.1l-.1-.1-.2-.1V20.9l-.1-.2v-.2h-.2v1l-.1.3v-1.6h-.5v-.5l-.1-.4-.2-.2h-.1v.1l-.2.1-.1.1-.1.1v.4h.1v.2l-.1.1V20.5l-.1.2-.3.2-.1.1V21.6l-.1.2h.4V22.1l-.1.3.3.2h-.7l-.3.3H48l-.1.2h.1V23.5l-.2.2-.2.3-.2.3.1.1V24.6h-.1v.1l-.2.4v.1l.3-.2.7-.2v.2l.4.3.1.2h-.4v-.2H48l-.1.1-.3.3-.3.2.6.3.4.1.1.1v.3l-.2-.3h-.6l-.3-.3h-.2v.1l-.3.1-.3.2v.2l.1.2h.2l.1-.2h.2v.2l.1.2.2.2.5.1.2.2H48l-.3-.1h-.5l-.1-.1-.2-.3H46.7l-.1-.1-.2.1-.3.1v.5h.2v.2H46l-.1-.1v-.2l-.2-.1v-.2l-.2-.2-.2.2-.4.1-.4.3-.3.1-.1.1-.1.2v.5l.2.1v.2l-.3-.1-.2.1v.9H45.2l.2-.2v-.1l.3-.3h.1l.1.1h.1l.1.1V29.7H45.7l.1.2.8-.2.3-.4h.1l.3-.1.1-.2h.2l-.2.8h.5l.8.5h.2-.2l-.4-.2-.6-.2-.6.1v.1l.6.4v.1h-.2l-.6-.5h-.3V30.5h-.1v.5l.1.1v.1l.4.3.1.2.1.3H47v.5l-.1.1v-.8l-.4-.3-.1-.2v-.3l-.2-.4-.4.1-.1.2-.6.2v-.1l.1-.2v-.2h-.3l-.2-.3h-.1l-1 .1-.3.2-.3.1-.2.1h.2l-.1.2h.3v.1l.1.1.2.1.4.1.2.2.1.2V32l.2.2.3.2v.2l.2.3h-.2l-.6-.6v-.4l-.2-.2-.4-.2v-.1h-.3v-.2h-.4V31h-.2l-.2.2v.2l.3.1.6.1v.2h-.5l-.1.1-.1.1h.9l.1-.1v.2h.1l.3.2h.1v.1H44l-.5-.2v.1h.1l.1.2h-.2v.2h-.2l-.1.1H42.9v.1h.2v.2l-.4.3.2.2H43.3v-.2l-.1-.2h.2l.3-.3H44l.1.3h.1l.4.2v.1H44l-.2-.3h-.1v.1h-.1l-.1.1v.1l-.1.1v.2l.4.1v.2l-.1.1v.2h.2v.1h-.2l-.1-.2-.1-.2-.1-.1h-.2v.1l.2.2v.2l.3.1v.5l-.2-.1V35l-.4-.8-.2-.1h-.1l.1.1v.1l.1.1V35.3l.1.1.6.2v.4h.1v.2l-.2-.1-.5-.6v-.1h-.2v-.2l-.1-.2V34.4l-.2-.2-.4-.3v-.1l.1-.2v-1.1h-.1V31.7H41.8l-.1.1v.5h-.1l-.1-.1v.4l.1.2-.2.3H41.1v.2h-.4V33.8h-.2v-.4h.4V33h-.1v-.1h.1v-.1h-.2v-.2h-.1v.2l-.2.2h-.2V33.4l-.1-.2v-.2H40l-.2.3-.2.2v.2h-.1v.1l-.1.1.1.3.1.1h.2l.1-.1h-.1V34l.4-.4v-.1h.2v.2h.1v.1H41.3v-.1l.2-.2h.1v.1l-.1.2.1.2h.6-.2l-.1.1V34.4l-.1.1-.2.3V35h-.2V34.8l-.2-.1h-.1l-.5.2-.1.2h-.2v.5l-.1-.1v-.2l.1-.3h-.2l-.4.2H39.4l-.3.6v-.5h-.6l-.2-.1h-.2l-.1.2v.2h-.2.9l-.1.2h-.4l-.3.1h-.4v.4l.1-.1h.1v.2h.2l.6-.1h-.1V36.7H38.7l-.8.2H37.5v.2h.3l-.6.5.1.1H38.1v-.2h.4l.4-.4h.1l.2-.3.1-.1.2-.2.2-.3V35.5l.1.4V35.6h.1V36.3l.6.2.3-.2v.1h-.1v.2l.5.3v.2l.1.1h.1v.2h-.1l-.5-.5-.3-.2h-.7v.2l.2.2.1.1.2-.1h.2l.3.3-.6-.1.1.2-.5-.2-.1-.2-.2-.1h-.1v.3h.2l-.5.4-.1.3h.5l.2.1v-.2h.1l.1.1v.1l.1.3v.1l-.1-.1h-.2l-.2-.2h-.2v.1l-.1.2V38.8h.1l.9.2h.2l.4-.4.7-.2.1.2h-.4l-.7.4-.1.2-.1.2v.1h.2l-.2.2V40l.2.1v.2l.1.2V40.8l.3.1v.1l-.1.3h-.2V41h.1v-.1l-.1-.1-.2-.2v-.4l-.3-.5V39.4l-.2-.2h-.7V39.6H39l-.2.2v-.5h.2V38.8h-.2l-.1.1h-.2v.1l-.1.1-.1.1h-.6l.1-.1h.5l.1-.3-.1-.3h-.1v-.2h.1l.1.1.1.1v.1H39v-.2h-.1l-.2-.2h-.3l-.7.5h-.1l-.1.2v.2h.1v.1h.2v.2h.8l-.2.2-.2.1-.2.1-.1.2h-.2V39.8H37v.1h-.2v.2h.1l-.4.6-.2.3h-.1v.2l-.1.1-.2.2h.2l.7-.1.2-.1.1-.1h.1v.4l-.3.1h.2l.5-.2.1-.1v-.1h-.1l.4-.1h.3V41l.1-.1h.1l.3-.2h.1v.4h-.2v.1l-.1.1.5.1h.5v.1h-.2l-.1.1v.1h.2l.1-.2h.8l.2.3.3-.2v.2h.1v.2l-1-.4h-.2v.2l.2.2v.2h.1v.1l-.2.2v.2l.1.1.1.1v.1h-.2V43l-.2-.2v-.6h-.3l-.2-.2h-.3l-.2-.2h-.3v.1l-.3.4v.1l.2.2v.2l-.2-.2-.1-.2v-.5H38.4v-.2l-.4.1h-.5l-.1.1h-.1l-.1.1-.1-.1h-.4v.2h.5l.2.1.1.2v.2l-.1-.3H36.4V42.7h-.1v.1h-.1v-.4l.1-.1H36v.1h-.1v.4l-.1.1v.1h-.2l.1.1h.3l.5.2H36.8V43.5h-.1v-.2h-.2l-.2-.1h-.7v.6h-.1v.1h-.2v.1l-.2-.2-.1-.3v-.2l-.1-.1-.1.1v.8h-.2v.1l-.2.2h.1-.1l-.1-.2.1-.1h.1v-.3h-.2v.1l-.1.1-.1.1h-.3V44.5H33V44.8H33.3V45h.2V45.4h.2l.2.2.6.1.1.1h-.8l-.3-.1H33l-.1.2h.1l.6.1h.2l-.2.2-.4-.1H33V46.4l.1.1h.1l.3-.1H34.3l-.2.1h-.5v.2h-.7v-.1l-1-.2v.2l.9.3.1.1.1.2-.3-.2h-.1l-.2.1h-.5l-.1-.1h-.1v.1l.2.2h.5v.1h-.5v.2l-.1.1V48h.7l.2-.4h.1l.7-.2.2.1h-.5l-.3.2-.2.2v.1l.6.1v.1l.2.2h-.2L33 48l-.2-.1H32.3l-.3.2v.5h.5l-.2.1h-.5v-.5h-.1l-.2-.2h-.1l-.5.1v.1H31.3l.1.1v.2h.2l.1.1h-.1l-.1.1.1.1v.2h.1V49.5l-.6.3v.2l.1.2h.2l.2-.1v.2h.3l.4-.2v-.4.2h.1v.1h.4-.2v.2h.4v.1h-.7l-.6.4-.1.1v.2h-.2l-.1.1V51.3l.5-.2.4-.3h.4l.2-.2h.1l.3-.2h.1V50.8h.4v-.1l.1-.2v-.1h.1l.1.1.4.1.1-.2.1-.1.3-.1.2-.2h.1V50.2l-.1.1h-.1l-.1.1-.1.1v.2l-.1.1-.5.1-.2.2h-.1l.1-.2-.1-.1h-.2l-.3.2v.3h.5l.2.1v.2H34v-.1H33.2l-.1.2-.1.2H33v-.5l.1-.1h-.3l.1-.1.1-.1.1-.1v-.2h-.2l-.8.2-.3.3h-.2v.1h-.2v.2h-.2l-.7.1-.2.2h-.1l-.1.1-.3.3.1.1v.1l.8-.1.3-.2h.1v.1l-.2.2v.4h-.1V53.3l.1.1.3.1h.2v.2l.1.1v.2l.1.2v.2l-.2-.2V54l-.1-.1-.1-.2-.1-.1h-.2l-.2-.2-.3-.1h-.2l-.4.3v.1l-.1.2V54.3h-.1V54.6H30V54.8l-.1-.1h-.1l-.1.1-.2.2v.4l.2.1h.1V55.9l.1.1v.1H30.2v.1h.1v.1h-.5l-.1-.1V55.8h-.1V55.4l-.1-.1H29l-.1.1v.1l-.2.2v.1l-.1.2v.5h.2v.2l-.1.2v.1h.2l.2-.3v-.1.4l-.2.1.2.1.1-.2v-.3l.1-.2v.4l.1.1v.1l-.1.1v.1l.1.1h.2v.1l-.1.1H30.2l-.5.2V58.2l.2.4v-.1l-.3-.4h-.1V58l-.2-.1H29v.1l.1.1V58.4l.1.1v.1H29.6l.2.1v.2h-.1v-.1l-.2-.1h-.3v-.1l-.3.2v.2l.1-.1v.2h-.4v.1l-.1.2-.2.3h.1l.1-.2H30v.1h-.7v.1h-.4l-.2.1H29v.2h.2v.2h-.4v.3h.5l.1-.1h.1l.4-.3.6-.7v-.1l.2-.2.1-.2v.2l-.3.5h-.1V60h-.1l-.2.3-.2.2h-.2V60.8h-.4v.1l-.1.2h-.5l-.2.3H28V61.7h.1v.2H28V61.4h-.1v-.1H27.5v-.1h-.1v.2h-.1v-.1l-.2-.2-.2.2h-.1l-.3.2v.2l.1.1-.2.1-.2.2H26V62v.1h-.2l-.3.1v.3h.1l.2-.1v.1H25.5l-.2-.1H25l-.5.4v.1l1.3-.3.2-.1h.1l-.1.1-.5.3-1 .1v.2h.2l.1.2.3-.1-.2.4h-.1l-.1.1h-.2v.1h.4l.1-.1.1-.1.1-.1v-.2h.1v-.1h.2l.3-.3V63l.5-.3.6-.5h.3l.2-.1h.5l.2.2-.6-.2-.2.2-.1.1H27l-.4.3h-.1l-.1.1-.1.2-.3.1.2.1h.1l.2-.2v.2h-.4v.1l.2.1v.1h.4l-.1.2-1 .1h.2v.2h.1-.2l-.3.2h-.2V65h.1v.1l.1.2.2.2h.2v-.2h-.1V65h.1l.1-.1V65.3H26.6l-.4.2-.4.3v-.2h-.2v.2h.1v.1h-.2v.2l-.1.2h.8-.2l-.3.1-.2.1v.1h-.2v-.1l-.2.3v.1l-.2.3-.2.3-.1.1.1-.4.2-.3.1-.2v-.1h-.2v-.1h-.4V66.2l-.3-.3-.1-.1V65.5l-.3-.2h-.2v.2l.1.1v.4h-.1l.1.2h-.2v.1l-.1-.1-.1-.2h-.2v.1h.1V66.5v-.1h-.4l-.2.2v.1h.5V67l.2.2v.1H23l-.2-.2h-.1v-.2h-.3v-.2h-.1v-.1h-.1v.4l-.2-.2h-.2v.1l-.1.1h.3v.1h.1v.2H22.5v.1h-.2v.1l-.1-.2H21.8l.2.1v.2l-.1-.1H21.6V67.7h.2v.1h-.1l-.1.1h-.1v.2l-.2-.1h-.1v.1H21v.1l-.1.1.3.1.1.2v.2l-.1-.2h-.5V69h-.1V69.3h-.1l-.1.1h.3v.2h-.4l-.2-.2H20v1.1h-.1l-.1.1v.1h.2l.2-.2v.1h.2l-.5.3-.1.2.2-.1h.1l.1-.1h.1l.2-.2h.1l.1.2h-.3l-.2.2-.3.1-.1.2h-.2V71l-.4.2h.1l.2.1h-.1l-.6.4-.5.4.2.1.7-.1H19l-.7.4.1.1v.4l.2-.2h.1l.3-.1.2-.2h.3l.1-.3h.2l.2-.1h.1v.2l.2-.1-.2.2-.1.1h-.3l-.3.2h-.1V73.7H19.7V74.4l.2.1.1.1h.2l.2-.1.3-.3h.1l.1-.1h.4l.1-.2h.2l.4-.3h.2l.1-.2.1-.2V73h.2l.2-.1.3-.3h.3l.2-.2v-.2l.1-.2v-.1l.2-.1.1-.1v-.2l-.1-.1h-.1l-.3-.2h-.1l-.5.4h-.2l-.3.2-.1.1H22v-.1l.3-.1.1-.2.1-.1.5-.2.2-.1V71l.1-.2h.1l.8-.6.1-.1v-.4l.4-.3h.2l-.3.3h-.1V70H25.2l.1.2h.2l-.1.2h-.1l-.5.2-.3.2-.1.2-.3.2-.1.1v.2h1.2v.2l.1.1v.2l-.4.1h-.3v.2l-.2.2v.1l-.2.1h-.4l-.5.2-.1.3H23l-.2.1-.1.1-.1.1v.1h-.1v.2h-.1v.2h-.1.2v-.1h.2v-.1l.2-.1h.4-.1l-.2.1.1.1h.2v.1H23l-.1.1-.1.2v.3h.2l.4.1v.1h-.2l-.1.1-.1.2h-.1l-.1-.1-.3-.1-.4.1H22l-.1-.1h-.1l-.2-.1-.2.1h-.1l-.1-.2H21l-.5.1-.3.2v.1h-.1v.5h.1l.6.1v.1h.1v.5-.3l-.1-.1h-.5l-.2-.2-.2-.1-.3.1-.1.1h-.2l.3-.3v-.2l.1-.3V75l-.2-.3-.3-.3V74h-.1l-.2-.3V73.3h-.2l-.3.2h-.2v.1l-.2.1h.2v.2l.1.2-.1-.2H18l-.3.3v.1-.1l-.1-.1v-.2h-.1l-.1.2v.1H17.1v.1H17l-.1.3v.1h.5-.1V74.4v.2h.1l.1.1h.5v-.1h.1L17 75v.4l.1.1h.2l.5-.1.2-.1v.1l-.7.2-.3.2h-.2v.1l-.1.2v-.5l.2-.1v-.1h-.1v-.2l-.3-.4H16.2v.2h.1v.1H16l-.1.2-.1-.1v-.1h-.4l-.1.1-.2-.1-.1.2.1.1v.1l.1.1H15.6l-.1.2h-.2l-.7.2-.1.1.2.2.2.2v.2l.1.2h.1l1.1-.1-1.2.3h-.1V77.4h.1l.1.2-.4-.2-1-.1v.1l.2.1V77.8l-.1.1v-.2l-.2-.2h-.2v.2l.1.2V78.3l.1.1H14.4l-.2.1H14l-.2.1h.1v.1l.1.1.4-.1.3-.3h.1l-.2.2v.1h.5v.2h-1l.1.1.2.4h.2l.2.1.1.1.3.4H15v-.1l-.1-.2h-.1l-.5-.2.3.2v.1h-.2l-.3-.3h-.2V79.1l-.1-.1.1-.1v-.2h-.2v-.2h-.1l-.3-.1-.1-.2v-.3l-.1-.1v-.1h-.5v.2l-.1.2-.1.1-.1.1-.1.1.1.1h.2v-.2h.1v.1l.4.4h.1v.1h.1v.2h.1v.1h.1v.1h-.1v.4l.3.3.3.1.1.2.3.2.3.3.1.1v.4-.3l-.2-.1v-.1H14.1l-.4-.5h-.1l-.4-.2-.1-.3v-.2l-.1-.3v-.1L13 79V79l-.4-.3h-.2l-.1.2H12l-.6.3.2-.2.1-.1v-.2h-.3l-.3.1-.2.3-.2.1h-.2V79l-.3-.3-.2-.2H10l-.1-.1-.3.1-.2.1h-.1L9 79l-.3.2h-.1v.1h.1l.1.2.2.3v.1h.5l.2.2H9l-.1.2v.4h-.1v.1l1.3-.1.2-.1h.2l.1-.1.6-.2h.2l-.7.2-.2.2h-.2l.1.2-.1.1v.1h.6l.5-.3.8-.2h.1l.4-.1.1-.1h.1V80.7l.2.2v.2l-.3-.3H12l-.8.2-.1.2h-.2v.7h-.1v-.4h-.2l-.1.2v.1l.1.2h1.2l-.7.2v.2l-.1.2v-.2l-.1-.1H10.6l-.3-.4-.2-.1-.4-.1-.1-.1-.1.2v.5-.1l-.1-.2v-.2h-.2v-.2l.1-.2h-.7v.2h.1v.4l-.2-.2-.3-.4H8l-.2.2-.1.2v-.1h-.1v.4-.1l-.1-.2h-.1l-.1-.1h-.8l-.1.1h-.1v.6h1-.2v.1h.5l.1.1H7v.1l-.3.1h-.4v.2h.2l.2.1.2.1H7l.7-.4h.4l-.1.1H8.5l.5.7h-.2l.1.4.3.2.5.1h.6l.2.1.1.3h-.1l-.1-.2-.2-.2-.2.1v.1h-.2l-.3-.1H9V85.2l-.2.2V85.6h.2l.4-.2.2.3-.2-.1h-.2l-.2.1h-.2l-.1-.2v-.1L9 85v-.7h-.1l-.3-.5v-.6L8 83H8v-.1h-.2l-.1.1-.3.2v.5l-.1-.3h-.5V84l.3.5.3.7v.2l-.1.2v-.5l-.2-.5H7l-.2-.2v-.1l-.1-.3-.1-.3-.1-.2-.3.1-.4.3h-.2l-.2.2-.2.2v.4h.2v.1h.1-.2l-.1-.1H5v.2l.1.1.2.3.2.3 1 .3H5.6v-.2l-.3-.3-.1.4-.1.2-.3.3v-.2l.3-.4V85l-.1-.1h-.1l-.3.1H4.2l-.1.1v.2l.1.2.1.1v.2l-.1-.2H4v-.2l-.1-.2-.4-.1-.2-.1h-.2v.2l-.1.2v.2l.6.2.1.1h-.2l-.1.3v.1l-.2.1V86l-.2-.2-.3-.2-.2-.2V85l-.2-.2v-.1h-.2v.1H2v.2h-.1v.2h.2v.1l-.1.1v.1h.4l.3.3v.1l.1.1H3l.1.2H2.7v.1l-.1.1-.1.1v.1h-.4L2 87v.1l-.1.1.1.1H2.7L3 87H4l1.2.1-.1.1h-.8v.1l.3.3v-.1h.1l.1-.1H5.5l.2.2h.7l.8.2.1-.2v-.1l.2-.1h.3v-.1h.1l.2.1H8.4v.1l-.1.2H8v-.1H8l-.2-.2H7.5l-.1.1v.1l-.1.2v.1H6.6l-.2-.1h-1 .2v.2l.1.1H6v.2h-.1l-.1-.1-.2-.3-.2-.1h-.1v.3l-.1.2H5v.2V87.9l.1-.1v-.1h-.8L4 88v-.2H4.3v-.2l-.1-.1H4l-.2-.2H3l-.3.3v.1h.1l-.2.1v.2L2 88l-.2.1v.1h.4-.2v.1l.2.2H2v-.1h-.1v-.1H1.5V88.8h-.1v.5l.1.1H3l-.3.1.3.1.3.1v.1h-.4v-.1h-.6l.7.3h-.7v.2l.1.2h.3l.1.2H3.3v.1h.5v-.2h.5l.2.2v.1l-.1-.2H4v.1h-.2l-.1.1v.1h-.2l-.6-.2-.1.1h-.2l-.2-.1h-.1v.1h-.4l-.4.3h.4l.2-.1H2V91.3h-.1l-.1-.1h-.1v.5h.4v-.1h.1l1.5-.2H4h-.7l-.7.2.2.1v.6-.4h-.1v-.1l-.1-.1H2.3v.2H2l-.1.1h-.2l-.1.1v.1l-.1.1h.1v.1h.2l-.1.1h-.1.6l.2.1.2.2h-.2v.2l-.3-.2h-.2l-.1.2.3.1H2.5h-.1V93.4h.3l.1-.1.2.2.1.1h.4l.2-.4h.5l.1-.1h.1l.1-.1v-.2h.1v.2H5.2l.3-.3v.1l-.2.2.2.1h.4l.2-.3v.3l.3.2h.8v-.6h.2v-.2l-.1-.1V92h.1v.1h.2l.1-.3.3-.7v.4l-.1.2-.2.4-.2.2v.1l.4.3h.5l.3.2h.2l.2-.2v.2h-.2l-.1.2v.2h.1l.2-.1.5-.2v-.1l.1-.1h.4v.1h.1l.2-.2-.1-.1v-.1l-.1-.3V92l-.2-.1v-.2l.2-.3v-.2l-.2-.2h.1l.2.1.6-.6.3-.2v.2h-.2v.1h-.1l-.1.1v.1l-.1.1v.1l-.2.2v.2l-.1.2H10v.3h.1v.4l.1.2h.9l.1-.2h.2l-.1.2h-.8v.1l-.1.1-.2.2.1.3h.1-.2l-.2-.1-.3-.1h-.1l-.1.2H9v.5h.1v.1l.2.4v.1h.2v.1l.1.2v.2l-.1.2h-.1v-.5l-.2-.2H8.9l-.4.2.3-.3H9V94H9V93.8l-.1-.3h-.4V93.2l-.1-.1-.2-.1h-.5l-.1-.2h-.1v.3l-.1.1v.1l-.2.1H7v.1l-.2.1v.2h-.1v.2h-.1v-.4h-.1l-.1.1h-.2l.1-.1v-.2H6l-.2-.2H4.9l-.2.1v.1l-.1.1v.1-.3h-.4v.2H3.8v.1h-.5v.5h-.1V94H3l-.2-.1h-.1l-.3-.3h-.5l-.2.2v.5h.4v-.1.2l-.1.1V95.1v-.5l-.1-.1h-.1l-.1-.1-.1.1V94.9l.1.1V95.2l.1.1h.3V95.7l.1-.2v-.2l.1.2.2.1h.2l.1-.2v-.2H3.1l.3-.3v.2h.2v.1H3.2l-.3.1-.1.1V95.6h-.2v.1h-.2v.2l.2.1H3v.2H3v.1h.2v.4l-.1-.2H3v.2l.2.1v.1l-.2-.2v.1h-.2v-.5h-.1l-.4-.2h-.1l-.2-.3h-.2l-.1-.2H1.4l.2.2.2.3H2l.1.1v.2H2l.2.2.3.4-.3-.2-.1-.1H2l.2.3.1.2.2.1v.1h.2l.3-.1.3-.3h.2l.1-.2v-.3h.2v-.1l.1-.1.1-.1V96l.1-.1V96.4h.2V98.2h-.1l-.1.1v.2l-.2.1H3.6l-.2-.1-.1-.1L3 98H3l-.1-.2-.1-.1h-.1l-.2.3.1.3V98.6h.1v.1h-.4l-.1.2v.1h.2v.2h-.1V99.5l.4.1v.1l-.2.3H3l-.1.1v.1l.2.1v.2l.1.1v-.1l.1-.1.2-.2.1-.2v-.1l.2-.4v-.2l.1-.2.1-.1v-.1.1H4v-.1h.1l.1-.1.1-.1v.1l-.1.1H4V99.3H4l-.1.3-.1.1v.2-.1l.1-.1V100h.3-.1l-.3.2v.2h-.1v.2H4v-.2l.1-.1.2-.1h.2l-.2.1v.7H4.7v.1h-.1v.1H4.1v.4l.2.1v-.2h.1v.1h.2v-.1l.1-.2V100.4H5v-.2l.2-.2V99.7h.1v-.1h.1l.2.1h.2l.1-.2V99L6 99h-.2v-.1h.1l.1-.2.1.1h.1v-.1l-.1-.1v-.2H6V98v.3l.1.1.1.1.1.1h.1l.3-.3H7l.2-.1h.1l.2-.1.3-.4h.2-.1l-.3.3v.2l.1.1h.1L8 98l.1-.1h.3v-.1l.2-.3v-.1l.2-.2H9l-.2.3v.1h-.1v.1h.7l-.1.2h-1l-.1.1v.1H8l-.2.4-.1.1-.2.2-.1.5v.5l-.2.3v.8l-.1-.2V99.6l.2-.2v-.5l.3-.4-.3-.1H7.1l-.2.3-.2.1h-.1v.2h-.1l-.1.2-.1.1H6v.2l-.1.2-.1.2-.3.2v.2l.1.3v.2H6l.1-.1.1-.1v-.1l.1-.1v.2h.2l-.7.3-.4.3-.2.4h.1v.2l-.4.1h-.2l-.1.2-.1.1v.2l-.2.2h-.1v.1h.1v-.1.2h.1l.1.1.1.2h.1v.1h.2l.2-.1v-.4h.1l.1-.1v.4H5V103.4H5.5l.4-.3.4-.3h.3-.1l-.3.1v.2H6l-.5.4-.2.1H5v-.1H5v-.1.1h-.1v.1h-.3v.1l-.2.2v.2H5h-.4v.4h-.2V104.1l-.1-.1h-.5l-.1.2v.7h-.1l-.2.2h-.1v-.2h.1v-.1h.1V104l.1-.2V103.5l-.3.2V104.5l-.1-.3H2.8v.3l-.3.3h-.1v.1h.1v.1h-.1v.7l.3.6H3v-.5V106.5l.1.1v.1h.1v-.6l.1-.1v.7l.1.1v.1h.2l.2-.1v-.8l.2.1v.3l.1.1v.1l-.1.1v.1h.2v-.1l.1-.1v-.1h.5l.1-.1v-.2l-.2-.3-.2-.1-.3.2.1-.2V105.4v.2h.2l.2-.1V105.2l-.1-.2h.1l.1.1.1.2H5l.5.1.2-.1h.2l-.8.3H5v.5l.1.1h.1l.2-.1v-.1h-.1V105.6h.1v.2h.1l.2-.1v-.1l.2-.1v-.1H6l.1-.4.1-.1v-.1l.1-.1v-.5l.2-.2v.5l-.1.2v.1l-.1.1h.1l.2-.2.7-.1h.1l-.4.1-.7.3v.1l-.1.2v.2l-.1.1h-.1l-.1.1-.2.1v.1h-.1v.1h-.1v.2h-.1v.1h.2v-.1.1h.1v.1h.1l.1-.1H6v.1H6v-.2l.1.1v.1l-.5.1.1.2h.4l.4-.3H7h-.5l-.3.3-.3.1-.1.2-.2.1v.1l-.2.2v.2h.4l-.3.1h-.1l-.4.2-.2.2v.1l.1.2H5v.2h.4l.1.1h-.2V109.2l.1.4.4-.6.1-.1.5-.1.2-.1 1-.2-1.6.5-.2.2h-.1l-.1.2v.4l.1.1h.4v.1h-.4l-.5-.4-.1-.3-.2-.1h-.2v.1H4.3v.1l-.1.4V109l-.6-.5V108.8h-.1v.1h.2-.1v.1l.1.1.1.2v.2-.1l-.2-.2v-.1.5l-.1.1v.5l-.1.1-.1.2V110.9h.1v.4l.2.2.2.4.1.2h.2v.1l.1.1v.1l.1.1h.7v.2l.1.2v.1l.1.2h.2v.1l.1.1.2.1h.3v.1l.1.1h.1l.1.2.2.1h.5l.3.2h.2v-.5H8v.2h-.1v-.1h-.1v.5h.1l.3-.2h.2v-.1h.1l-.3.2-.1.2h-.2v.2h-.3v.2l-.1.2h-.1v.2l.2.2H8v.1h.1v-.2H8v-.2h-.1v-.5V114.8l.1.2h.3l-.1-.5.2.3H9v.1h-.4v.1l-.2.1v.1H8.7v.2h.1l.2-.3v.3h-.2.4l.1-.1.2-.2h.1V115.5H9.1l-.1.1H9V115.9h.2v-.2l.4-.1.3-.1v.1l.5.2h.7v-.2.1h.1v-.2H11.9l.5-.2h.2v-.2l.2-.2v-.5h.1v.3h.1v.1l-.2.1v.1h.1v.1h.2l.1.1.1-.3h.1v.2l.2-.1V114.5l.1-.2h.1v-.1h.1l.1-.2h.2v-.1h.5v-.4l.2-.2v.1h.1v-.1l.1-.1h.1v-.2h.1V112.7l.1-.1.1-.1h.2l.5-.6v-.4H16h.1v.1h.1l.2-.2h.2l.2-.3h.2v-.2h-.4.4l.1-.1v-.1l-.4-.1.2.1h-.3v-.2h1v-.2l.2-.1h-.1v-.1l.2-.1v-.1l-.1-.1h-.2v.1h-.2v-.3h.4v-.1h-.2.4v-.1h.2l-.2-.2h.5v-.1l.3-.1v-.2l.1-.1v.1V108.6h-.2v-.2l-.1-.1-.2-.2-.1-.2H18.6V108.3h.1v.2h.1v-.2h.1v.1l.2.2.2.1v.1l.1.2-.1.2h.6l.1-.1.1-.2v-.2H20.5l.1-.2.1.1v.1h-.2v.2h.2l.1-.1.1-.1v-.6l.1.4v.1-.5h.1v.2l.1.2v-1.1h.2v-.4h.2l.1.1h.1v-.2l.1-.1v-.2l-.1-.1v-.8h-.4l-.1-.4H21l-.1-.2-.1-.1v-.1l.3.2h.1l.1-.2v-.8l-.4-.2-.1-.2v-.1h.2l.1.2h.1l.1.1v.2h.1v1l.3.1.2-.1.2-.3v-.7H22l-.1-.2v-.1l-.1-.2v-1h.4v-.2h.5V103.6l-.2-.3v-.4l-.1-.2-.2.2v.5l-.1.1v.4h.1v.4l.1.2.1.1v.7h.1v.4h-.1V105.3h-.1l-.1.3v.1l.1.1.1.1v.6l.2.1v-.2h.1v.1h.1v.4l-.1.2v.1-.2h.1v.4h.1l.1.2h.1v-.1h.1l.1-.1V107.7h.1v-.2h.2v.2h.2v.2h.2v-.4.2h.2v-.2l.1-.1v.2l.1.1h-.1V108h.7v.2h.1v.3l.2.3v.7h.1l.3.1h.2l.2-.2.1-.4v-.4l.1-.3v-.2l.1-.3.1-.5.1-.2v-.9l-.5-1.4v-.4h.1l.5-.3v-.1l.2-.3V103l-.1-.2v-.4l.1-.1.2-.1h.8l.5-.4.6-.7.1-.2.1-.3V99.2l.2-.3v-.1l.1-.1V97.8l-.4-1-.4-.8v-.3l-.1-.3-.1-.5v-.3l-.2-.3V94l.9-.3H29.9v-.1l.1-.5V93l.3-.4.1-.2v-.2l.2-.7v-.1l-1-1.4-.1-.1h-.2l-.2-.1H29l-.1-.1-.3-.4-.2-.1-.4-.5v-.1l.5-4v-.4l-.1-.4-.7-2V81.5l.1-.4v-.3l.1-.1-.2-1.3V79.1l.4-.6-.8-2.3.8-1.4V74.5l-.2-.9.5-.4.7-1.3.7-1.2.3-.3.8-.6 1-.3 2.5.7h.2l.6-1.3V68.6l-.1-2v-.2l-.2-.1h-.3l-.2-.1-1-.8 1.9-3.5.5-.8.1-.4.1-.8v-.2l.1-.1.3-.3.2-.3v-1.3l.1-2v-.2l.3-.6v-.5l-.4-2.6 2-.2 1.5-1.1V49.9l-.2-1.2v-.2l.9-1 1.3-2.7.4-.4.6-.7.3-.2.1-.2.1-1.3V42l-1.1-2.1.2-.7v-.2h.6l.3-.2.2-.2.4-.7v-.2l.6-2.2v-.2l.2-.1 1.5-1.3.3-.6 2.2 1.3.2-.2V34l.8-1.4v-.4l-.2-2V30l.1-1v-.1l1-.4.2.1.6.6h1.5l1.6.8 1.6.7h.2l.1-.1.9-1.1-1-.7.6-.6.3-.6.4-1V25l-.8-1.2 1.9-.1.3-.6.1-.1 1 .7H60.8l.2-.5-.4-1V22l.1-.2h.1l.8-.6 1.2.2 1.4 2.7.5.5v.1l.1.3v.1l.3.5.3.3.2 1v.2l.5-.1h.2l1 .5.6-.1h.1l.1.1.3.5h.1l1-.6.6-.1.4-.2.1-.4v-.5l.3-.2h.3l.7.5.2.2.6.4.5.2.7.3.3.2.3.5.1.3h.2l.1-.3v-.1l.2-.1.3-.2h.2v-1.3l.1-.2.2-.3.6-.6.2-.1h.8v-.2l.1-.1v-.2l.2-.1v-.4l.2-.2v-.4l-.1-.2V21l.1-.1.3-.7V19.2l.1-.1v-.4l.2-.2.1-.2.1-.2v-.5l-.1-.1V17.2l.1-.2h.1l.6-.2v-.1l.1-.1.2-.3.2-.4.3-.4.1-.3V15l.2-.2v-.2l.2-.1.6-.1H81.9l.3.2h.1l.4.1.8-.2.2-.2-.1-.1V14h.1l.3-.3.4-.3v-.1l.2-.3h.7l.2-.1h.2v.2l.3.5.6 1.2.1.1.7.3v.4l.1.2.2.1h.1l2.4 1.3.2.9.6 1.3-.5.9-1.3 1.6v.4l-.1.8V23.4l.4.5h.1l.1-.1h.2l.2-.1.2-.2.2-.3V23l.1-.2v-.3l.1-.1v-.2h.1v-.4l.1-.3v-.2l.2-.2.2-.1h.6l.2-.2.3-.3h.6l.2-.1.2-.3.4-.5v-.4l.1-.1v-.2l.2-.1v-.1l.1-.1v-.7l-.3-.1v-.2H94.2l.3.1.6.8.1.1 1 .2h.3l.2-.3V16.7l-.1-.2v-.1l-.1-.2v-.4l-.2.1-.2.2H96v-.4H95V17l-.1.1-.3.1h.1v-1.8h-.4l.1-.2V15H94v.9l.1.1v.2h-.2l-.1.1v.1l.2.4v.2l-.2-.2-.1-.3-.2.2h-.2l-.1.1v.2-.2l.2-.2v-.1l.1-.3h.1l-.1-.1h-.2l-.3.4H92.2l-.4.5-.1.2-.2.1v-.2l.2-.2h-.1v-.1h.2v-.1l.1-.2.1-.2V16l.3-.2h.1v-.4h.1V14.8h-.1v-.2H91.5l-.2.2-.1.3H91h.1V15h.1v-.2l.1-.1.2-.1.1-.2.2-.1.3-.3h.1l-1-.4-.2-.2-.7.1h-.1l.2-.2v-.2h-.2v-.1h-.5l-.3-.2-.7-.1.1-.1h.4-.1l-.2-.2-.2.1h-.4v-.2h.1l.2-.1.1-.2.1-.2h-.6l.1-.1h.1l2.1.6 3.5.5h-.1v-.1l.6-.4h.2V11.6l.1-.1h.4V11h.2l1.4-.2.4-.3h.1v-.2zM45 23.5v.1l1-.3.2.1-.1.1-.1.2h-.1V24h.5v-.3h-.1v-.4l.2-.2.6-.5.1-.3.1-.1h.1l.1-.1h.1v.2l-.1.1v.2h.4l.4-.2h.9l.1-.1V22h-.1v-.2H49v-.1l-.2-.1h.2v-.1l.1-.1v-.2H49V21l-.1-.1v-.2h.2l.2-.2h.2l.1-.1V19.8l-.1-.1v-.1h-.2V20h-.1l-.2-.1.2-.3V19.2h.1l.1-.2-.3-.2H49v.1l-.2.1v.5h-.2V19l.1-.1.1-.2V18h-.2v.1l-.2.3h-.1l-.1-.4-.1-.1H48v.7h.1v.2H48l-.3-.7-.1-.2h-.2V18.7l.4.2V19.1l.1.2h.1v.1H48l-.3-.3h-.1l-.1-.2-.2-.1-.2-.2h-.2v.2l.2.3h.1v.1h-.3v.2l-.2-.2V19h-.2l.2.5.3.1.6.2-.2.1h-.6l.2.2h.1l.1.2v.1l-.4-.3h-1.3V20.4h-.1l.3.1h.5-.2v.2h.2v.2H45.4v.2h.4v.1h-.1v.1l.2.1h.1v-.1l.1-.1V21.6l.1.1h.1l-.2.2h-.8l.1.1v.2h.3l.3.2.4-.2-.1.2-.3.2V22.9H45.3v.3L45 23h-.1v.5zm-5 5v.2l-.2-.3h-.3v.2H39v.2l-.1.2h.3v.2l.3.1h-.4v.2h.3l.1.1h-.3l-.1.2H39l-.2.5v.2l-.2.3v.1h-.1l-.1.2v.4h-.1v.2h.2l.1-.2.2-.1V31l.3-.2V30.6l.3-.1.1-.2.2-.1V30h.2l.4-.5V29h.1v.2l.2.2-.2.1-.2.4-.1.2-.3.1v.1l-.2.3v.2h.7l.1.1h.1v.1l.1.1V31l.3-.3v-.2h-.1v-.1h.2V30h.1v.1l.1.1v.1h.1v-.1l-.1-.2v-.1H41.6v-.6V30.5h.2l.2-.2v-.4l.1-.1.2-.2v-.3l.1-.2v-.2h.1l.1.1.3-.2.5-.2h.2l.2.1h.1V28l.1-.1v-.1l.2-.2v-.2H44v-.3h.1L44 27V26.7l.1-.2v-.1l-.1-.1v-.2l.1-.1h-.3v-.2l-.1-.1h-.2l-.2-.2-.3-.3V25.5l.2.2v.1H43l-.2-.2-.4.2v.5l.3.2v.4h-.4l-.1.2v.2l.1.2v.4l-.1-.1v-.3H42l-.2.2-.3.2h-.1v.7l-.1.1-.1.1-.1.1v-.2l.1-.3v-.6h.2l.1-.1.1-.2h.1v-.1l.1-.2.1-.3v-.6h-.1l-.2.3-.1.1-.2.1H41l.3-.1v-.2l.1-.1V26l.2-.5V24.6l-.1-.1h-.1l-.3.1h-.5v.1l-.1.3V25.3h-.2v.5h.1l.1.1v.1H40.3l-.1.1H40V26.7h.7v.2l.1.1v.1l.2.1-.2-.2h-.1l-.1-.1H40v.7l.2.2h.2v.1h.1v.1l.1.1h-.1l-.1-.1h-.5V28.3v-.1h-.1l.1.3zm-37 73V101.9h.1l.1.1h.2v.3l.1.1.2-.2h.1l.1.1V101.9l.1-.3v-.6h-.1v.1h-.4v.1h-.2V101.6H3zm1.2-4.4v-.5l-.1-.1h-.2l-.1.1V97l-.2.1-.2.2-.2.1v.1H3l-.2.1.2.3.1.3h.1l.1.2H4V98h.2V97zm-1.3 4.7h-.2v.2l-.1.2v.4l.2.3v.2l.1.1H3v-.1h.1v.1H3v.1h.2l.2-.2v-.7l-.1-.2-.1-.2-.1-.1h-.2v-.1zm-.2 5v-.4h-.1v-.2l-.2-.4-.1.1v.1l.1.1v.1l-.1.1v.2l.2.3-.2-.1-.1.2v.8h.4v-.4l.1-.1V106.9zm9.2-31.6V75.5l.6.2h.1-.2v.1h.2v.2l.1-.1h.3v-.1l.1-.1.1-.1.1-.3-.2-.2v-.4h-.5l-.2.3H12l-.2.2zm3-1.7h-.1l-.1.1v.1l.5.1h.1v.1h-1.1l-.4.4V74.6l-.1.1v.2h.1v-.1h.1l.2.2h.4l.3-.2h.3l.2-.2h.5l1-.4V74h.2v-.1h-.2v-.1l-.2-.2H16.3v-.1h-.1V73.1H15.8l-.1.2v.1l-.1-.2h-.2l-.6.2zm-1.1-.4h.2l.2-.2h.4l-.3.1.1.1.3-.1.7-.1h.2v-1h-.2l-.1.1H15l-.2.1v.1h.2l.2-.2-.1.1v.1h.1l-.7.4-.7.2-.3.1.1.1h.1zM28.2 59l.4-.1v-.1l.1-.1.3-.1v-.1h.1V58.1L29 58V57.8l-.2-.5-.2-.1-.1-.1v-.3l-.2-.1v.2h-.1v.4l-.1.2v.1h.2l.2-.1v.2l-.2.2-.2.2-.1.2v.1h.1V58.7H27.7v.1l-.1.2v.8h-.2l.1.1.4-.3.1-.2h.1v-.2H28V59h.1zm.1 1.4v-.2L28 60h-.2l-.2.1v.6h-.2V61h-.2v.1h.2l.2.1.1.1h.1l.3-.1.1-.1.1-.1v-.2h-.2v-.3l.1-.1zm-1.5-4v.1h.1v.1h.1l.2-.3v-.4h.1v-.2h-.1l-.1-.1h-.2l-.2.1-.2.3v.4h.3zM24 62.2l-1 .8.1.1h.2l.1-.2.3-.2h.3v.2h-.1V63.3h.2l.2-.1.2-.1.1-.3-.2-.1v-.2h-.1l-.1-.1H24v-.1H24zm31.3-50.9l.1.2.2.2v.4h.1V12.8l.2.3H56.7l.1-.1v-.2l.4-.2h-.1l-.5-.4-.1-.2V11.6l-.2-.2h-.1v.4H56v-.4h-.2v-.1h-.1V11h-.1v-.5H55.2l-.1.2v.2H55v.2l.3.1zm8.8-4.5h.2V7L64 7v.2h.2l1-.2-.1.2-.3.2v.3l-.1.1-.1.1v.3h-.1v.3h.2l.1-.1.1-.4v-.2l.2.1-.1.2v.1h.5v.1h.1v-.1l.1-.3h.1l.2.3V8h.2v-.4h.2l.4.1V8l.1-.2h.4v-.2l-.1-.1H67.6l.1-.2v-.1h.2l.1.1.1-.3L68 7H68.3l.1-.3-.1-.2V6h.1v.1h.4V6h.1v-.4h.1v-.1H69.3v-.1h.1v-.1h-.1V5h.2v-.5h-.1l-.2-.1v-.2h-.2V5.2l-.2.1h-.1l-.2-.4-.1-.1V5h-.1l-.2-.2V5H68l-.1.2v.2h.2l.2.1v.2h.1v.1h-.2V6H67.7V6l-.1.1h-.1V6.6l-.1-.1-.1-.2h-.1l.1-.2v-.2h-.2v-.2H67v-.2l-.2.1h-.1V6l.2.1v.4l.2.2H66.8v.5h-.1V6.8l-.1-.2h-.1l-.2.2-.1-.2.2-.2v-.1l-.3-.4h-.2v.4h-.2v-.1l-.1-.2h-.2v.7l.1.1-.3-.3-.2-.2h-.1v.5h-.2l-.5-.3H64l-.2.1.1.2h.2zm-6 6l.1.1.1.1h.2V13h.3V12.6 13.3H59.2V13h.2l.1.1h.1l.1-.1v-1.1l.1-.3v-.2l-.2-.2H58.7V11.6l-.3.1-.1.1v.2l-.2.2v.7zm18-10.3v.1h.1l.5-.2h.1l.3.1-.1.2-.4.2.1.1.1.2.1.2.2.1h.1l.3-.2h.3-.1V3l.3.1h.4l.1-.1h.5v-.2h.1l.3-.1v-.1l.1-.2v-.2H79.2v.1l-.2.3h-.1l-.1.1H78.5v-.4h-.1l-.1-.2h.2l.2-.1.1-.3v-.3l-.2.1h-.1l-.2.1v-.2h-.1l-.2.2h-.1V1h-.4V1h-.1V1H77v.1l.4.6h.1v.4l-.2-.3h-.2l-.1-.1H77l-.2-.1V2h-.2v-.1H76.3l-.1.1h.1l-.2.3v.2zm-23.5 11h-.2v.4h.2l.2.1-.1.1-.1.2-.4-.1H52v.2l.1.2.3.1.8.7v.1l.1.3.2.2.7-.3.2-.1.1-.2v-.2l.1-.1.1-.2.1-.1v-.1h.1v-.4l.5-.3.1-.1v-.4h-.2v.1l-.1.1v-.5L55 13H55l-.3.1v.1l-.2.3v.2l-.2-.3-.2-.1V13l.1-.1v-.1H54v.2h-.1V12.6h-.1l-.4.2h-.2v.1l.1.2.2.2-.2.1h-.1v-.2H53v.1h-.5zM69 7l.3.1v.2h-.1l.2.2v.1l.2.2h-.2l-.3-.2V7.9l-.2-.1h-.2V8.6h-.2V7.8H68.3l.1.2h.1v.1l-.2.1v.1-.2H68l-.3.2-.1.2h-.1v.1h-.1v.1h-.1V9l.2.1-.1.2H67.2l.3.5h.1l.1.1.1.1.2-.2.2-.6v.6l-.2.4v.4l.3.1h.2l.6-.4v-.1H68.7V10l.4-.1.7-.7.1-.2.1-.4v-.1l-.1-.1v-.1h.1v-.1h-.2v-.8l-.1-.2V7H69.4l-.1-.1H69zm1.1-.6v.1l-.1.1V7.2h.1v.4l.2.3V8l.2.1h.5l.3-.6.3-.2.1-.3-.1-.2-.1-.1v-.4l-.1-.1-.2-.2h-.6v-.1h.1V5.5l-.1-.1h-.4l-.1.3-.1.2v.2l.1.2zM40 25.1v.3h.1l.2-.2v-.1l.2-.4v-.5l-.1-.1h.1l.1.1.2.1.4-.2.2-.2h.1l.1-.2v-.1l.1-.1.2-.3V23h.1l.2-.3.1-.1v-.1l.1-.2V22l.1-.2v-.2l.1-.2V21h-.1l-.5.2-.1.3h-.2V21.9l-.2.1-.2.6v.2h-.4l-.2.2-.2.2v.2l-.2.3-.2.4v.4l-.1.2v.5zm-7.2 8.4l.2.3v-.2l.1-.1V33h.2V33.3h.1v.1h.1l.1.1h.1V33h.1v.1H34l.1-.1v-.2h-.2v-.2h.2v-.2h.2v.1h.5V32.1l.4-.3v-.2l-.2-.1h-.2v.1l-.1.1h-.4v-.2l-.2-.3H34v.2h-.1l-.2.1v-.1h-.1v-.2h-.2l-.5.6h.2l.2.1-.4.2-.1.1v.1h.1l-.1.1V32.8l.3-.2-.3.6-.1.3zm2.8-1l-.1.2h.2v-.2h.2v-.2h.1l.1.1h.1v-.1h.4v-.1l.2-.1.2-.1.2-.2-.1-.2v-.1h.1l.1-.1v-.5h.2v.2h.1l-.1.2V31.6l.7-.7h.2l-.1-.1.1-.2v-.1h.1v.1l.5-.8v-.1H38.7l-.2.3-.3-.1H38v.1l-.1.4h-.2l-.2.3.2-.4V30l-.1-.1-.1-.1h-.1l-.1.1v.5l-.1-.2V30l-.1-.2-.4.3.1.2v.2l-.2-.2h-.1l-.4.1.2.1v.2l.1.1v.2h-.1l-.1.1v.1L36 31h-.1l-.1.1v.5h-.1l-.1.1v.1h.4l-.2.1-.3.1-.1.2v.2zm-5 3.4v-.2l.1-.1.4-.2v-.1l.1-.1V34.8h-.2v-.4l.2.3H31.4V33.8v.1h-.2v-.1h.2l.1-.2h-.2l.1-.1.1-.2-.2-.2h-.1V33.5l-.2.1v.2l-.3.5v.2l-.1.2v.2l-.1.3v.4h-.1l-.2.3v.1h.2l.1-.1zm5.6-8.3l.1-.1v.6h.3l.2-.1h.2V27.6l.2-.2V27l.1.3.1.1h.2V27.2h.1V27 27.5H38l.2-.1v-.4.1h.1v.2l.2-.1.1-.2v-.2l-.1-.1h.5V27.3h-.2l-.1.2-.1.1h-.3l-.3.3h-.2v.2l.1.2v.1l.8.1 1-.7.1-.2V26.8l-.2-.1-.2-.1.1-.1V26.2h.2V26l.1-.1v-.2H39.3l-.2.3.1-.3v-.2l.1-.4V25l-.3.4v-.2l.1-.1v-.2H39v-.1l-.2-.2V24H38.5l-.2.4v.4l.2.3v.4l.2.1v.2l.1.2h-.1l-.2-.2v-.1l-.2.3v.2V26l-.1-.1-.1-.3v.1l-.2.2.2.2v.4H38l-.1.2h-.1v-.2l-.1-.1h-.2l-.3.3h-.1v-.7H37v.1l-.1.1v.1l.1.1-.1.1v.4h-.1v-.1l-.1-.2V26.2h-.2l-.2.3v.2l.3.1-.2.2h-.2v.2H36V27.5zm7.5 2h.1v-.1l-.1-.1V29h-.1l-.2-.1-.5.1-.2.2v.3l-.2.4h.2l-.2.2V30.4h.1l.2-.2h.2l.6-.1v-.2l-.1-.1v-.1h.2zm6-11.4h.1l.1.1.2.3h.3l.8-.2h.3l.2-.2.4.1h.2l.2-.2v-.4h-.1l-.1-.1V17h.2l.2-.1h.1l.2-.5h.2l.1-.3v-.4l-.1-.1v-.2H53l-.4-.2h-.1V15h-.2l-.2.1-.1-.1h-.2v.5l.4.4v.4l-.1.4V17H52l-.1-.2-.1-.5v-.5H51.4l-.1.2V16.3h-.1V16H50.8v-.2h-.2l-.1.1V16.6h.2l.7.2h.2l-.1.2-.5-.2h-1l.3.7.1.1h.3-.1v.1h-.1v.1h-.1v.2h-.1v-.2h-.1v-.2h-.6v.1h-.2v-.1.2l-.1.1V18.2h.1zM4.3 108h-.6l.3.2.3.2.1-.2v-.1l-.1-.1zm-1-.5v-.1h-.1v-.2H3v.4h.1v.1h.1v-.2zm2.1-.3l.1-.2v-.1l-.2-.1H5v.4h.4zM1.1 97v-.2H1v-.2H.8v.5H1v-.1zm0-8.4v.4h.1v-.4zm34.4-48.5h.2l.3-.1.1-.1v-.2h.1v-.1l-.1-.1-.3.2h-.1v.2h-.1l-.1.1zm12.3-17h-.1l-.4.1-.2.2v.2l-.1.1v.4h.2V24l.2-.1.1-.1.1-.1v-.4h.2zM29.9 50.8h.1v.1l.1.1h.2v.1l.1-.1.1-.1v-.5h-.1l-.1-.1-.2.2v.1l-.2.1zm.7-1.5v.1l.1.1.1-.2v-.4.1l-.1.1v-.2H30.3v.5l-.1.1v.1h.1v.1h.1l.1.1v-.4zm7.6-14.6v.4h1l.2-.1v-.1h-.2v-.1h-.3v-.1l-.2-.2v-.2l-.1.2-.1.1h-.2v.1zm2-.4l.4.1h.2l.1-.2h.1l.2.1.2.1H41.7V34h-1.4l-.1.1H40v.1zm-1-.1v-.2H39v.6h.3v-.4zm-1.4-8.8l.1.2h.3v-.1l.1-.2V25h-.1l-.2-.1h-.1l-.1.1V25.4zM59.3 15v-.2h-.5V15h-.1v.3l-.1.1V15.7l.1.1.2.1.2-.1.2-.1V14.9zm-3.4-1.2h-.1l-.1.2-.1.2-.4.3-.2.1-.1.3-.3.4v.2h.2l.7-.2h.2v-.3l.2-.4.2-.3v-.4l-.1-.1zm-4.1-.3v.4h.1l.1-.1.1-.2.3-.2h.3V13h.2V12.7l-.2-.1v-.1l-.3.3v.1h-.1v-.4l-.2-.1H52V12.8l-.2.2v.4zm7.8-1v.4l.1.1H60v-.4l-.2-.4h-.2v.3zm-5.3 0l.2.2h.3l.2.1h.1V12.3l-.5-.4h-.2l-.1.2v.2zm-1.2-.2l.3.2.1.1h.1l.2-.2V12l.1-.2v-.6l-.1-.2h-.2v.1h-.2v.4h.1v.1l-.1.1v.3h-.1v-.1h-.1l-.2.1v.1h.1zm9.8-1.3h.1l.1-.2.2-.5V10l-.2-.3-.1-.1v.1l-.1.1V10.9zm11-8.7v.2h.2l.2-.2v-.5h.1v-.1h-.2l-.1-.1H74v.4l-.1-.1h-.2V2l.1.1zm-50 106h-.2v.4h.1v-.1l.1-.1v-.2zm-.6-.2H23v.2h.2v-.2zm-20.8-7.3zm0 .6V101h-.2v.4l.1.1h.1v.1h.1v-.1l.1-.1v-.4h-.1v-.1l-.1-.2h-.1V101l.1.2zM.8 94.7H1v.1H1v.1l.1.1.1.2h.1v-.4h-.1v-.1H1v-.1H1v.1zm-.3-.6V94v.2h.1v-.6H.3v.5h.1zm1-7.7h.1l.2.3v.1h-.1v.1l.2.1h.2v-.4l.1-.1v-.2H2v.1h-.1l-.2-.2h-.1v.1zM4 83.9H4.4V83.5h-.1v.1H4l-.1.1v.1zm-.5-.2v.1H3.9v-.1l-.2-.1v.1zm9.8-7v.4l.1.1h.4V77l-.1-.1-.2-.2h-.2zm3.3-3.2h.1l.1-.1h.1v-.2h-.4v.1l-.1.1.2.1zm2.9-3.4v.2h.2V70l-.1-.1h-.2v.2zm5.4-4.7v.1l.2.1.1.1h.2v-.4h-.1L25 65v.1L25 65v.4zm-.1-1l-.5.2V65h.2l.1.1v.1l.1.1h.1V65h.1v-.6h-.1zm1-3l.2-.1v.1h.1l.1-.1V61l.2-.1v-.1h.1v-.1h-.7l-.1.2h-.1V61.4l.1.1zm67-45.5l.1.1h.2l.2-.2h.3l.1-.1v-.2h-.2v-.2l-.1-.1V14.8l-.1-.1-.4-.2h-.1l-.1.3v.7l-.3.3v.3l.2.1.2-.1V15.9zM2.5 98.4V98l-.2-.2-.5-.2-.1-.2h-.1v.2l.1.1v.1h.2v.1H2v.2l.2.1V98.7l.2-.1v-.1zm-.8-5.2l-.1-.4v-.1h-.1v.1h-.1v.2-.1l-.1-.2v-.1H1v.6-.3H.8v.8-.2H1l.1-.1.1.2v.1h.1v-.1l.2-.2.1-.2zm.6 11.3h.1v-.4l.1-.2-.1.1v-.6h.2l.1.1v-.1h.1v.4l.2-.1v-.3h-.1v-.1l-.1-.1-.1-.2h-.1v-.2h-.1l-.1-.1v-.2H2V102.8H2v.2l-.1.2v.1H2v-.1l.1.1h.2v.2l-.2.2v.7zm-.4-4.5v.2H2v-.5l-.1-.2.1-.1v-.2l-.1-.2-.2-.4-.1-.2v-.1h-.1v.8l.1.1.1.1v.2-.1h-.3v.2l.1.2.1.1h.1v-.1l.1.1v.1zm10-21.7H12.2v-.1l.2-.2V77.7H12l-.3.2-.1-.2-.1.1v.2h-.1l.2.2zm2.1-1.2h.1l.2.1.5-.1v-.4l-.3-.2v-.2h-.1v-.1h-.1v.4H14l-.1-.1v-.1h-.2v-.1h-.1v.5l.2.3zm-3.5 1.6l.3.1v.1h.2l.3-.2v-.1h.2l.2-.1-.1-.1v-.2l-.1-.1v-.5H11l.1.2v.2H11V78.4l-.2-.2h-.2V78h-.2v.4h-.1v.2zm2.8-1.9v-.1l-.1-.1h-.2l-.3.3-.2.1.2.4h.1l.6-.2v-.4zm-9.7 8v.1h1v-.6h-.2v-.1l-.1-.1h-.4l-.2.2V84.7h.2v.1h-.3zm-2.2 3v.1h-.1v.2h.5l.1-.2.2-.1.1-.2v.2H2.4v-.2l-1-.3H1v.2l-.1.1v.1l.3.1zm7-7.6h.2v.1h.1V80h.2v-.2l-.1-.1h-.2l-.1.1-.1-.1h-.1v.4h.2zm-.6 1h.4l.6-.3v-.2l-.2-.1-.5.1h-.2V81h-.1v.1zm-3 2.7v.6h.1l.6-.7h.2l-.2-.2h-.1v-.2l-.1-.2V83h-.4v.2l-.2.1v.4zm1-.6h.8V83h-.2L6 83h-.7l.2.3zm24.1-30l.2-.1.5-.2.1-.2H30l-.1.2-.2.1h-.1l.1-.3h-.2l-.4.2v.2l-.1.3-.3.3v.1h.4v.1H29v.1h.1l.5-.6.2-.1zm5.1-10.8v.1l-.1.2v.1h-.2v.1l.3.1h.1l.2.3V43.8h.2V42.8l.1-.1.1-.2v-.3h-.1l-.1.3-.1.2h-.1l-.3-.2zM22.7 63h.3v-.1l.3-.3.2-.1.5-.4v-.2h-.2v.1l-.3.2-.1.1-.2.1h-.3l-.1.1V62.8l-.1.1h-.1.1v.1zm5.9-10.8H29l-.1.2h-.1v.1h-.1l-.2.3.9-.4.1-.1v-.1H29.8V52h-.2v-.1l.1-.1h-.3v-.1h.2V51l-.1-.1v.1h-.1l-.4.3h.4l.1.1-.2.2-.1.1v.1H29l-.2.1-.2.2zm-4.4 13.3v.1l.1.4h.4v.1h.1l.3.1v.1l.1-.2.1-.1v-.2h-.5v-.2l-.2-.3-.1-.2-.3-.1-.2-.2h-.1v.2l-.1.1v.1l.2.1h.4v.2h-.2zm35.6-52.3l-.2.1v.1l-.1.3V14l.1.3h.5l.2-.2V14l.4-.3h-.5l-.3-.3zm3.1 1h-.1v.2h.2v-.2zm-6.4-.8h-.1v.1l.1.1h.2l-.1-.2h-.1zm9.2-3.4v-.1l-.1-.1h-.1v.2l-.1.1.3.5 1 .3 1 .1v-.5H67.3v-.2l.1-.1-.4-.1H67v-.4l-.1-.2h-.2v.5l-.1-.1v-.4l-.1-.1v.1l-.1.2v-.2h-.1v.2l-.2-.1-.1.2-.2-.3v.7-.1l-.1-.1zM71 3h.4l-.1.1H71v.1l.2.2v.2h.4v-.2h.1v.1h.2v-.1h.1v-.2h.2l-.2-.1h-.5V3l.2-.2h.4l-.2-.1h-.2l-.2-.1v-.2h-.4l-.1.1v.2H71V3h.1zM31.6 34h.1v-.1h.1v.4l.2-.1.2-.3.1.2v-.4l.1-.1.1-.2.1-.5-.1-.1-.3-.1h-.1v.5l.1.1v.3H32v-.3h-.2l-.3.3v.4zm29-20.7l-.1-.3-.2.2v.1l-.1.1h.2l.1-.1zM46.2 25.7v.4l.2.2h.1l.2-.1.2-.3.3-.4-.1-.2-.2-.2h-.2l-.3-.1v.3l.1.2.1.1h-.2l-.1-.1v-.2l-.2-.3H46V25.4l.3.2v.2zm-.4.3l-.1-.3v-.1h-.1l-.1.2-.3.4v.1l-.2.2V26.9H45v.2l1-.4h.2v-.2l-.3-.3zM43.3 25l.2.3h.1l.2.1h.3V25l.1-.1V24.6l-.1-.1H43.5l-.2-.2h-.2l-.1.2v.2l.3.2zM86.4 8.7h.1zM7.3 114.3l.1.1h.2v-.2h-.4v.1zm14.3-6.2v-.1V108.4v-.1zM4 102.7v-.2h-.2v.4h.1v-.2zm-1.7-1.2H2l-.1.1v.2h.4V101.4h-.1zm-.9-3.7V97.4H1v.4h.2zm.2-2.7v.1l.1.1h.1v-.7h-.2v.4zm.2-1.9l.2.1V93l-.1-.2h-.1v.3zM.8 92H.6v-.1H.4v.1H.9zm.1-2.2h.3V89.3l-.1-.2V89.6H1l-.1.1zm.1-1.5v.2h.2V88l-.1-.2-.2.2H1zm4.4-6h.4V81.8l-.1-.1h-.1v.1l-.1.1h-.1v.1zM7 80.5v.2H7v-.5.1l-.2.1H7v.1zm9.6-7.4h.2V73h-.2zm7.3-.7l.4-.4H24.5v-.1l-.6.1h-.1v.2l-.1.1v.1h.1zm-4-2.5h.2V69.5h-.1l-.1.1v.1zm2.9-7.8h.2V62v.2h.2V62h.1v.1h.2V62h.1v-.1h-.7v.1h-.1v.1zm5-4.2l-.2.2v.2h.1v-.1.2h.1v-.2l.1-.2.2-.3h-.2v.1l-.1.2zm1.3-2.4h-.2v.2h-.2v.1l-.2.2.1.1.5-.6zm.1-.5v-.2l-.3.1v.2l-.1.1.2-.1h.1l.1-.1zm-.9-.8v.2-.1l.1-.1V54h.1v-.2h.1v-.1l.1-.1h.1v-.1h-.2v.1l-.1.3h-.1v.2h-.1zm.2-2.4h.1v-.2h.1v-.2h-.1l-.1.3v.1zm3.2-1.4h-.7V50.8l-.2.1v.1l1-.5zm-2.4-.4h.1v-.1l.3-.2h-.1v-.1h-.1v.2h-.2v.1zm-.7-.2h.1v-.1h.1v-.2h-.1l-.1.1v.1zm1.7-1.8v.1l.1.1h.2v-.4l-.2.1zm-.4-.2V47.4h-.1v-.1l-.1.2h-.1v.1h.1v.2h.1l.1-.1zm1.4-.8h.1v-.4h-.1v.4zm.7-1v.1h.7l.1-.2-.3-.1h-.1l-.3.2h-.1zm1.9-2.7l.4-.1V43L34 43h-.2v.2zm.4-.5h.2v-.1l-.3-.1v.2h.1zm.3-1.5h.1v-.1h.1V41h-.1l-.2.2h.1-.1v.1zm4-3.7h-.1v.1h.2l.2-.2h-.3zm-9 .1v-.1h.1l.2-.2v.2l.1.1v-.5h-.2v.2h-.1l-.2.2v.1zm11.9-4.9v-.2h-.1l-.2.1v.1h.1l.1.2v-.1h.1zm-4-.8v.2h.2V32h.1l-.3-.1zm5-1.3l-.2.2h.4v-.2h-.3zm2-6v.1l.4-.2-.2-.1h-.2V24.9zm5.2-7.2h.2l.1-.1v-.2H49.5h.2v.1h-.2v.1zm.4-1l.1.2h.1v-.4h-.3v.2h.1zm43.8-.5h.2l-.1-.2-.1.2zM51 15.6h.5v-.2l-.3-.2v.1H51V15.7zm42.6-.6h-.1v.2h.2V15zm-31.3-1.5h.2l.4.3v-.1l.1-.1v-.1l-.2-.1v-.1h-.4v.2zm-11-.1h.1v-.2h-.1v.2zm10.2-.8h.2l-.1-.2h-.1l-.1.1.1.1zm-9-.3h-.2v.5h.1v-.4zm4.4-.2V12l-.3-.2h-.1v.1l.3.3zm-4.6 0h.3v-.4h-.2v.1l-.1.1-.1.1v.1zm24-1.5H76v.1H76v.4l.3-.2V10.5zm-19 .1v.1h.1V11.5h.1v-.1l.2-.3v-.1l-.1-.2-.2-.3h-.1V10.8zm4.5-.7v.2l.2-.1V9.4l-.2.4zm35.7-.4h-.1v-.2h-.1V9.8h.2zM77.9 6.4h.3V6l-.3.1v.2zm-3-3.7h.2v-.2l.1-.1H75l-.2-.2h-.1v.5h.2zm-70.3 105v-.1h-.1v.2h.2v-.1h.1V107.3h-.2v.2zm19 .7v-.1h-.1v-.1h-.1V108.6h.1zm-1.6-1.1zm0-1.3h-.1v.1zm-20.7.6h-.1v.1h.1v-.1zm.6-6h-.1v.1zm1-.3h-.1v.1h-.1v.1H3v-.2zM.6 95.8H.4v.2h.2v-.1zm17-22.6h.1v.1h.2v-.1l-.1-.1v-.2h-.1v.1h-.1v.2zm0-1.3v.2h.1V72h.1v-.2h-.1zm5.1-6h.2v-.1h-.1v.1zm-.2-2.5zm4.7-3.4h.1V59.7h-.1l-.1.1v.1h.1zm.6-3.8v.1h-.1V56.7l.1-.1V56.2zm.2-3.3v.2h.1V52.8H28v.1zm-.7-4.5h.1v-.1h-.1v.1zm3.6-.6v.1h.2V47.6H31v.2zm.3-.3v.1h.1V47.2v.2zm.5-2h-.1v.1h.2-.1zm.8-1.2l-.1.2v.1h.2v-.2zm2-4.6h-.1v.1h.1v-.1zm-7.5-.3v.1zm.5-.4h.1v-.1h.1v-.1h.1-.1l-.1-.1V39h-.1zm9.2-2.2v.1zm-6.7 0v-.2.1zm7.2-.7V36H37v.1h.1zm-.1-3.4v-.2l-.1.1zM1 91.6l.1-.1v-.1H1v.1zm.5-1.3h.1v-.1h-.1V90h-.1v.2zM3 84.5h.2v.1h.1v-.2H3zm2-1.7H5.5v-.2h-.2l-.1.1v.1zm9-9v-.1H14v.2h.1v-.1.1h.1v-.2zm1.7-1.2h.2v-.1h-.1v.1zm-1.5-1h.1v.1-.1h-.1zm2.5-1.1v-.1h-.1v.1zm1-1.6h-.1z" fill="none" fill-rule="evenodd"/></svg>