<svg width="108" height="115"><g fill="none" fill-rule="evenodd"><path d="M76.4 21.5h.4v.1l.3.2h.7v-.5l.1-.1h.2V21h-.2v-.1h-.2l-.4.3-.2.1-.1-.1h-.7V21.6zM77.2 16.4h.2l.2-.1v-.1l-.1-.1V16H77v.4zM74.9 17.9v.5h.5V18l-.1-.2H75l-.1-.1zM86 39.3h-.1l-.4.3-.4.3-.2.1-.2.1h-.2l-.1.2h-.5V40.6h-.6l-.4.1V40.4l.2-.3.3-.5v-.4h-.2l-.3.1V38.6l.2-.2.2-.2.5-.1h.1v.1h.1l.1-.1h.3v.4l.3-.2h.1l.1.2.1.1h.5v-.2H85.9V39l.1.1z"/><path d="M107.6 29.2l-.1-.1H106.9V29l-.2-.1h-.6l-.2-.1-.2-.2h-.1v-.2l-.2-.1-2.2-.1h-.4.1V28.6l-.2.1H102l-.2.3-.1.1H101.5l-1 .3v.2l-.2.2-.1.1-.1.3-.1.2-.4.2-.1.1-.1.2v.3l-.2.1-.2.2-.7.4H98l-.2.2h-1.1l-.1.1v.1h-.1v.1h-.1l-.1-.1h-.7V32h-.1l-.1-.1h-.2v.1l.1.1v.1H95l-.4-.2h.6l-.3-.2-.9-.1-.4-.3h-.7l-.5-.2h-.6l-.3-.2-1.8-1h-.2V30H89l-.2-.2h-.4l-.5-.3h-.3l-.2-.1-.3-.5-.2-.1v.1l.2.3v.4H86.8V29.3h-.2l-.2-.1-.1.1H86v-.1H85.7V29l-.1-.1H85v-.4H84.7v-.1l-.1-.1V28h-.1l.4-.1h.4l.1.2h.2l.3.3h-.3v.2h.5l.4.2v-.1l-.1-.1-.3-.2v-.1L86 28l-.1-.1-.1-.1-.2-.1h-.1l-.2-.1H85l-.1-.1v-.2h.2v-.1H85V27l-.3-.4v-.5l-.1-.3-.1-.2h-.1l-.3-.2h.1V25l-.1-.2h.1v.1l.1.1h.1v-.4H84v-.1l.1-.3.1-.2v-.4h-.1l-.1.2H84V22.5l-.2-.2v-.4l-.2-.2H83l-.1.1v.5h-.2l-.2-.1v-.5l.2-.1.1-.1.3-.1.3-.3H83.7V20.7h-.4v-.1h-.4l-.2.2H82.4l-.1-.1H82v.1h.2l-.4.3h-.1v-.7h-.5v-.2h.2l.1.1v-.5h-.4l-.2-.2.2-.2v-.2L81 19l-.2-.2-.2.2h-.1l-.2-.1v-.1h-.1v-.1l-.1-.2h-.8v.8h.2l.4.2h.1l.2.2v.1H80.7v.5l-.1.2.2.3v.4l.2-.1v.2l-.5.2h.2v.1h-.2l-.2.1h.2l.1.1h.3l-.1.1H80v.2h.1v.1l.1.1.1.1.2.1.1.1.1.1v.1l.3.6V24.2l.1.2.2.2v.7l.1.1.1.1h.2l-.2.1h-.1l-.2-.1V25l-.1-.1h-.1l-.1.1-.4.2h-1.1l-.2-.2-.1-.2-.1-.2V23.3l-.4-.3-.2-.1-.2-.1h-.5l-.3.1h-.1l-.1.1H77v-.5l-.1-.3h-.7v.2l.2.2h-.5v-.4l-.3-.4-.3 1v.1h-.1l-.1-.2v-.2l.1-.2v-.2l-.1-.1h-.6l-.4-.1H74l-.1.1-.1.1v.1h-.2V22.5h-.2v-.6l-.2-.1v-.1l.2-.1v-.1h-.4v-.2h.2l.3-.2h.2v.3h.2v.2h.5l.3.1-.6-1.3V20l-.3-.1.4.1h.4l.4-.2v-.1h-1l-.1-.1v-.2l-.1-.1-.1-.2v-.1l.2-.2h.1v-.1h-.1l-.1-.1v-.1h.1v-.2l-.1-.4.2.1.1.2.2.4V18l-.2-.3v-.2H75h-.4l-.2-.1-.1-.2V17h.2v-.2l-.2-.1-.4-.2-.3-.3-.5-.6-.1-.2H73l-.1-.2V14.7h-.7l-.4-.3v-.1l-.1-.2v-.4l-.2-.2.2-.1.2-.2V13l-.1-.1-.2-.1h-.8l-.1.2h-.2l-.1-.1v-1.1l.2.1v.1l.1.1v.4h.2v-.2h.1l.2.1h.5l.3.1-.1.2h.2l.2.2.1.1h.3l-.2-.4v-.4l-.6-.3h.2v-.1l.1-.1v-.1h-.4l.2-.1-.3-.2-.2-.1h.8l.1-.2v-.2l-.5-.4-.4-.3V10h.3v-.2l-.3-.3-.1-.1h-.5l-.2-.2-.3-.6-.2-.2h.1l.3.2.3.3.1-.1-.2-.3v-.1H70.6l-.2-.2v-.4l.1-.2.1-.1v-.3l-.3.2-.3.2v.2h-.4V8h-.8v.2h.3l.2.1H69.5v.2H69v.1H69l-.2-.1v.1l-.1.2-.1-.2v-.1l-.4-.4V7.3H68v.1h-.4l-.2-.1v-.1h.3l-.1-.3h-.1l.3-.2.1.1h.2v.2H68.8l-.1-.2-.2-.2-.2-.1h-1l-.1-.2V6l-.2-.1-.4-.2-.1-.2h-.1v-.1h-.7V5.9l-.2.3v.2h-.2l-.4-.2.1-.1.2-.2.1-.1v-.1h.2l-.1-.1H65V5.1H64.2l-.1-.2h-.5v-.2h-.2v.4l.1.1.1.1-.1.2-.2-.2h-.8l-.1-.1-.2-.1-.1-.2-.2-.2V4.5h.5l.4-.2-.2-.1V4h-.3v-.4h-.2v.4l-.2.1h-.3l-.1.1V5.2l-.2.1v.2l-.1.1h-.5V5l.2-.2v-.1L60 4l-.4-.3v-.3h.1l.5.5-.1-.4-.3-.3-.4-.2-.3-.3v-.4l-.2-.5-.1-.4-.2-.1.1.2v.7h-.2v-.7l-.2.1H58v-.1h.1v-.2H58v.2l-.4-.1v-.1l.1-.1V1l.2.1V1l.1-.3H58.3V1l.1.1v.1H58.8V.4l.1-.1.3-.2h-.4l-.2.1h-1.3l-.3.1v.1H56l-.2-.2h-.2v.4h-.1l-.1.1.7.4.4.3 1.8 2h.2v.1l.4.6.1.2.6.4V5l.4.5v.9L60 7l-.3.3h-.2l-.1-.1h-.2V7.4l.4.3.2.3h.2l.1.1h.2l.2-.2h.2l-.1.2-.3.2h-.1v.1l.3.3h.1v-.2l.2-.2.1-.1h.3l-.1.2-.2.1h.2l-.2.3v.4l.8.9h.1V9.2l.1-.1h.1V9l.2-.2h.1l.2.1H62.9v-.2h.6V8.4l-.1-.2V8h.1l.2.3v.2V8h.2v.2h.5l-.2.2v.2h-.4l-.1.1v.4l-.1.1-.3-.3v.5h-.1l-.1-.1-.1-.1v-.1h-.1v.1H62.4l-.1.3V9.9l-.4.3v.4l4 4.4.3.5 1.2 1.3.3.8.2.3h.4l.4-.1.2-.1v-.4l-.2-.2.1-.2H68.5l-.1-.1-.5-.6h-.1V16h-.2v-.3H67.4v-.1l-.1-.1-.1-.2-.2-.2v-.5h-.3v-.2l-.5-.5V14l.4-.2v-.2l-.2-.2H66.8v.1l.1.2v.2l-.4.2.3.2.2.3.2.3.1.1v.5h.2l.1.1.2.1.1.1v.1H68.5l.1.1.2.1.1.1v.2l.3.2h.1l.1.1.1.1H69.7l.1-.1h.3l-.1-.3H69.7v.1h-.2V16H69v-.3l.3-.3h.1v.3l.2-.2h.2v.1l-.1.2v.1h.4V16.3H70.5l-.2.2.3-.1.2-.2.1-.3v-.3h.3l.1.1.1.1v.1H71V16l-.3.3-.1.3v.2h-.1l-.2-.1-.3-.1v.2h.2l.2.1h.2l.2-.2H71l.2-.2H71.7l.1-.1.1-.1h.1v.2h-.1v.1l-.3.2h-.3l-.1.1-.2.2h-.3l-.4.1-.2-.1h-.1v.2h-.2v.3l.3.1h.9l.2-.2.3.1-.1.2v.2h.1V18.5h-.1v.6l.1-.1v.7H71.8h-.2v.2h-.1V20.2h-.2v.2l-.2-.1V20l-.1-.1v.2h-.2l-.1-.1h-.1V19.7h.2v-.1l-.4-.2h.1v-.2h-.2l-.1-.1-.2-.3-.2-.2-.1-.2-.1-.1h-.2v.1l-.2.3v-.5H69V18.8l.2.4 1.3 1.3.4.7.2.4.2.8.3 1 .1.2h.4l.2-.2.1-.1.3.1h.1v-.2l.1-.2.3-.2h.3l.6-.1h.6v.2h-.1l-.1.1h-.1l-.1.2v.2h.1l.2-.2.1.2v.1l.2.1h.1l.2.1.4.2v.2h.1v.2h-.2L75 24H75l-.2.1-.4.4v-.2l-.5.3h-.1l.1.1h.7l-.2.1H74v.7l-.2-.1-.1-.3v-.3l-.5-.7.1-.1v-.1l-.2-.1h-.7v.3l.4.6v.2l.3.3v.3l.4.7.2.2.2.1h.1l.3-.4.2-.2H74.8l-.2.1-.1.2v.2l-.2.2h-.3l-.1.1-.1.1v.6l.6 1 .6 1.7.1.1h.4l.1-.2.4-.2v.4h-.2.1l.1.1v.1h-.4l-.5.1-.4.1-.3.4v1l.2.2.2-.1v-.2l.2-.2h.2v.4l-.3.3H74.5l-.1.2V33h.2l.1-.2h.5l.1.2v.2h.4l-.2.1h-.7l.1.2h.1l-.2.1h-.1l-.1-.1-.1-.1v.1h-.1l-.1-.1V33H73.6l-.1.1v.4l.1.1v.5l-.1.5v.4l-.2.3-.3.6v.3l-.1 1.5v.2l-.1.1V38.4h-.1v.5l-.2.2v.4l-.2.2-1 .8-.4.3h-1.8L66.9 42l-1 .3-.3.2-.3.4-.1.5v.8l.2.4.2.3.4.3 1.2.7.5.1 1.5.2.5.2.4.1.4.3.5.7.2.1 1 .7.1.1h.3l.5.1.7.2h1l.5.2.6.3.8.8.2.2.7.5.1.2.1.3.2.5.1.5.1.3h.6l.2-.2.2-.3.1-.2h.1v.4l-.2.1-.2.1-.2.2h-.4l-.1.4-.1.5-.1.1v.5H78v.2l-.1.3v.5l-.1.1-.1.2-.3.6-.4.7-.5.6-.5.5v.1l-.3.4v.4l-.2.1v.1h-.2l-.2.1-.1.2h-.2v.2l.2.1V59.8l-.1.1-.1-.2h-.2l-.2.1-.2.1-.2.4-.2.2-.4.3h-.1l-.4.1-.2.1v.5l.3.2.5.2h.6l.1-.1h.4l.1-.3h-.1l-.4-.1v-.2l.2-.2h.1l.2-.1h.5l.1.2v.2l-.2.4-.1.2v.7l.1.1.2.1H75.6l.5-.4h.2l.2-.1h.2l1.1.3h.1v.2l-.1.6v.2l.1.2v.2h.2v.4H79.2l.3-.3.2-.1.6-.2 2-1.2.5-.2.4-.2.3-.3 1.4-.8.9-1 .2-.3.3-.8v-.2l.2-.2.2-.2.5-.1v-.2l.2-.4.3-.6.2-.2.4-.7.1-.1h.2l.2-.3v-.2l.1-.1v-.1l.6-.4.5-.7H90.5l.2-.2v-.6l.7-1h-.1l-.1.1-.1.2v-.4l.3-.2h.4l.4-.2.3-.4.3-.4.1-.3.1-.1v-.4l.1-.2.1-.1.2-.4.3-.8.1-.1.2-.1v-.2l.3-.6v-.1h.2l.1-.1h.1v-.2l.2-.2.1-.2-.2-.1h-.6v-.1l-.3-.1-.1-.1h-.2v.4h-.2v-.3l.2-.5-.1-.8v-.2h-.2V45h-.1v-.5l.1-.2.1-.2.3-.2.3-.2.2-.3.1-.1.1-.2V43l.2-.1 1.2-.5 1.6-.6.3-.2h.1l.2.1h1.4l1.4.1h.1l.3.2h.1l.1-.1H101.7v.2l-.2.2v.8l.2.6.2-.1.1-.1.1-.1V43l.3-.5.5-.4-.1-.2-.3-.1h-.6v-.2l.1-.2h.1v-.8l.1-.2.1-.6v-.4l.1-.2.2-.2V39l-.1-.1-.2-.2V38.4h.4l.2-.1h.2l.4.3.1-.1 1-.6 1-1v-.6l.3-.2h.1v-.2l-.1-.1h-.1v-.4l.2-.2V35l.1-.1v-.1l-.2-.2-.2-.2v-.1l.2-.2.1-.2V34l-.2-.4.1-.2h.2l.1-.2v-.4l-.1-.2-.1-.2v-.1h.1l.1-.2.1-.2.3-.5.1-.2.3-.2.2-.2.1-.4.4-.3.1-.3h.1v-.2l-.1-.2z"/><path d="M75.3 57.9l.3-.3.1-.2v-.1h-.2l-.1.2-.3.3v.1zM83.2 19.6h.1V20h.4v-.1h-.2l-.1-.3H83v.1zM79.3 16.4l-.2-.2v.2l.3.1.2.1H80v.2H80.2v.1l.1.2v.1h.4v.2l.1.1h.2l.2-.4-.2-.2v-.1h-.1l-.1-.1-.1-.2V16.1l.2-.2-.2-.1h-.2l-.2-.2-.1-.1v-.1h.1l-.3-.2V15l-.1-.1h-.4V15.3l.1.1v.1h-.4v.2h.2l.2.1-.1.2V16.3l-.1.1zM12.6 107.6l.1-.1v-.1H12.4h.1zM11.4 114.3v-.1h.1l.1-.1v-.1h-.4V114.3zM11.2 110.6v-.1l.2-.2-.1-.1h-.4v.4h.1zM9 114.2l-.2.1-.1.2v.1H9l.2-.2h.1v-.3z"/><path d="M15.8 112.7h.2l.1-.3v-.1l-.1-.1v-.1h-.4l-.5.1v-.1h.1l-.3-.2h-.3l-.2-.2H14l-.3.3h-.2l.4-.4v-.2h.6l.8.1h.2v-.1h-.2l.2-.2-.1-.1h-.2l-.2-.1v-.1l-.1-.1h-.2l-.1-.2-.8-.7-.2-.2h-.1l-.4-.2H12.9v.1H12l-.2.1v.9l.3.4v.2l.1.2v.2l-.2.2h-.4v.1l-.1.2v.5H10.8l-.2.1v.1h-.2V113.8l-.2.1-.2.1h-.2l-.2.2v.2l-.1.3v.1h.9l.2-.2h.2v.1l.3-.2h.1l.1-.3-.5.2h-.3l-.1-.1h.2l.5-.3h.1v-.2H11.7l.2-.2v.1l.1.1v.1h.7v.1h.5l.2-.1.5-.4h.3l.5-.1h.7l-.1-.2.3.1v-.2h.4v.1h.2v-.2l-.5-.2zM16.2 111.6l-.1-.2h-.2v.2h.2zM70.8 60v-.1H70.5l-.2.1h-.1v.1h.4v.2l-.2.2h-.2l-.1-.1-.5.4h-.4l-.1.1h.6l.2-.2h.8v-.4l.2-.2zM17.9 92.7zM19 110v.1H18.7v.2h.2v.2l.2-.2.2-.2-.2-.2zM65.7 57.7l-.2-.1-.1-.1-.1.2v.2l.2-.1v.2h-.1v.2h.4V58h.1l.3-.1.1-.2h.3V57.4l.1-.1.2-.2v-.4l.1-.1V56.3l-.2.3v.1h-.1l-.2.2h.3l-.2.1h-.2l-.1.2v-.5H66l-.1.2h-.1v-.2h-.1v.1l-.2.3V57.4l.1.1.1.1.1.1zM3.3 101.4h.2l.4-.2v-.1l-.6-.1-.2.2v.1zM1 103.8H.5v.1l.2.2H1v-.2H1zM8.7 113.6h-.1v.2-.1zM1.6 101.6h.3l1-.4h-.5l-.3.2h-.2l-.1.1h-.2v.1zM4 96.7h.1v.2h.3l.1.1h.2l.2.2h.4l-.4-.6v-.3l-.2-.3v-.1l-.6.5v.1l-.1.1zM45.3 78.5l-.1.2H45l-.6.1-.1.2.2.2.2.2.1.2v.2l-.5-.2h-.5v-.1l-.3-.1-1.9.3-.2-.1-.2-.2H40.3v-.1h.6l.9.1h.4l.2-.1V79l-.5-.5h.1l.2.1.3.2.1.2.2.1H44l.4.2h.2l.1.1-.1-.1-.2-.1-.2-.2V78.8l.2-.1v-.1l-.1-.2H44v-.1l-.1-.1V78l-.1-.2v-.3l-.1-.2-.2-.4.1.1.2.2.1.2.1.4.2.1.2.1.2.2v.2h.4l.1-.1v-.2L45 78V77.8l.1.2.2.2v.1zM37.5 82.9l-.1.1-.1.2-.2.1-.2.1-.1.1v1.6l-.4.3-.1.2-.2.3-.2.1v-.2l.4-.5v-.4h-.1V84.5l-.2-.1v-.1h.1l.2-.1v-.4l.1-.2v-.5l-.1-.7v-.2l-.1-.9v-.2h.2v1.4l.2.3v.2h.5l.2-.2.1-.3.1-.2.1.2zM33.9 87l-.5.2h-.2V86.2l.1-.4v-.5l-.1-.1-.2-.2v-1.2l-.3-.4h.4l.1-.2V83l.1-.1H33.6l.1.1v.1l-.2.1-.2.5-.1.3v.1l.1.2v.5h.1v.1l.3.7V86l.2.3v.1zM31.4 88.2h-.6l-.2-.3-.2-.2v-.5h.2v-.7l-.1-.6v-.6l.2-.1v.1l-.1.4v.4l.1.1h.2l.1-.1.3-.6.1-.4h.2v.4l-.1.3-.1.2-.1.1-.3.2v.5h-.1l-.1.1v.2l.1.1v.6l.3.2.5.1zM21 97.2l-.2.2v-.5l-.1-.3-.2-.2-.1-.2h.1v-.4l-.1-.2v-.1l-.1-.2h-.4l-.4.2h-1.3l-.1-.2-.2-.2-.3-.6-.1-.1-.2-.2V94l.1-.5v-.1h-.1v-.8l-.2-.2v-1.1l.2.2V92.4l.1.2.3.4v-.4l.1-.2.2-.1h.1l-.2.4v.5h-.2v.2l.2.3v.1l.1.2.2.7v.2l.2.2.2.1h.2l.8-.2.5-.2h.5l-.1.2.5.6v.5l-.2.2v.2l.2.4v.2zM13.5 94.2v.4l-.1.3-.2.3-.1.3-.2.3h-.2V96.2h-.1v.6l-.3.4-.2.7-.1.2h-.2l-.1.2v.1H11.3V98l.2-.2h-1.1l-.3-.2-.3-.2H9.2v-.1h.3l.2-.2H10.1l.1.1.2.2.2.1h1.2v-.6l-.1-.2-.2-.3-.2-.2h-.1L11 96h-1l-.2-.1h.8l-.1-.3h.3l.4.3.3.2h.3l.4-.2h.2v-.5h-.1l-.2-.2-.1-.2-.2-.3v-.1h.1l.2.4h.2v.1l.3.4.2-.3.2-.4.1-.4-.2-.2.2-.1h.7zM11 98.9H10.6v.1l.1.2v.4h-.1l-.1-.2-.2-.1h-.2v.1h.1v.2H10l-.4-.2h-.4l-.2.2H9l.2-.3v-.1H8.2l-.2.1v-.1h.1l.3-.1.1-.1h.1l.1-.3.2.2v.1h.2l.1-.1H10l.2-.2h.2l.5.1z"/><path d="M69.6 61.1H69.3l-.1.1H68.9l-.2-.1V61h-.4l-.1.1H67.9l-.2.1h-.1l-.1.1h-.8l.2-.1h.1l.2-.1h.1l.2-.1H67.9l.3-.1H68.7v-.1l.1-.1h.2l.2-.1v-.2H69l-.2-.2-.1-.2h.1v-.1l.1-.1v.3l.1.1h.2l.1-.1.1-.1h.1V59.6l.5-.6V59H70l-.4.3-.1.2h-.2l-.2.1H69v-.2h.2v-.4l-.1-.1-.2-.1h-.1v.2h-.4l-.1.1H67.7l-.3-.3h-.1v.1H67v.2h-.3.1l.3.3h.1V59H67.7v.2l-.1.2.2.2h-.3v.1l-.2.2-.1.2v-.5l-.3-.1v.1l-.2.1v.2l-.2.1-.1.2v.3h.3l.5-.1v.1h.2l.2-.1h1l-.2.1h-.8l.1.1v.1h-1.3l.2.1h.2v.1h-.3l-1 .5h-.1v-.2h-.1l.5-.2h.2l.1-.2.1-.3v-.2H66l-.2-.1h-.1V60H66l.1-.3h.1V59.4h.2v.1h.2v-.1h.1v-.1h.2-1.1l-.3.3v.1h-.2l.1-.2v-.4h.1l-.2-.2.2-.1h1.1l.1-.1h-.1v-.1l.1-.1h.2v-.1h.1V58.1l.4.1h.2l-.1-.2-.2-.1H67l-.4.2h-.1l-.1.2-.3.2h-.3v-.4l-.1.1-.2.3H65l-.1.1h-.1l-.2.1h-.1l-.1.2v.2l.3-.2h.2V59.4l-.2.1h-.3l-.1.2.1.2H64.2v-.1l-.2-.2v-.1h-.4l-.1.1-.1.1v.2H63l-.1.3h-.2l-.1.1-.3.1V60h-.1l-.1.1-.2.1-.6.4-.3.4-.2.1-.3.2-.3.2h-1.1l-.1-.2.2-.1v-.4l-.2-.3v-.1h-.2l-.2-.2v-.4h.1l.1.2.1-.1v-.1l-.2-.1V59.5l-.1-.5h-.1l-.1.1h-.1l.2-.2.2-.2.1-.1V57.7h-.4v-.8h-.2l-.1.1-.2.2V57H57.7v.2h-.1l-.3.2H57l-.8-.5-.3-.2v-.3l-.3.1V56h-.2V56l-.1-.2h.2V55.5h.1l.1-.3.1-.3.1-.2.2-.1 2 .1h.2-.3l-.6-.2h-2.3l-.4.2-.4.3h.4l.1-.1.2.1v.1h-.3v.2l-.1.1H54.4v.1h-.2l.1-.4-.3.1-.4.3-.9.9-.4.2H52l-.2.2-.2.1h-.2v.1h-.1v.1h-.2v.1l-.1.1-.2.3-.1.1h-.1v.1h-.2V61.3l.2.3h-.4v.7l-.2.1V62.6H50l-.2.2-.3.1v.2l-.1.1v.1l-.1.1H49v.3H49l-.4.6-.1.1v.1h-.2v.1l-.1.2h-.4l-.2.3-.9.4-.4.1H46l-.6.1h-.7v.4l.1.1h.1l-.2.4v.3l-.2.2-.1.5-.1.3-.1.1-.3.3-.2.3v.2l-.2.3-.2 1.3-.2.4-.4.5v.4H43.8l.2-.1-.3.3h-1.2l-.2.2-.6 1h-.2l-.2.4-.2.1H41l-.1.1-.2.3v.1l.1.2.2.2V75.2l.2.1v.1h.2v.1l.1.1-.4-.2-.2-.2H40.6v.2l.2.3.1.3v.3l-.1.2V76l-.1-.2-.3-.5h.1l.2-.2.2-.1v-.5l-.2-.2H40l-.8 1-.1.1H39l-.3.4-.2.1-.3.2h-.1l-.1.1v.5l.3.3v.2l-.2-.2-.2-.4-.2-.3h-.3l-.4.2-.7.3-.4.1.8.3.3.2.2.2h-.1L36 77h-.3v.2H35.4l-.1.1-.2.1.2.1h.1l-.3.1h-.9v.1l.9.3.2.1.2.3v.4l-.1.2v.1h-.1v-.7l-.2-.2v-.1l-.2-.1h-.2l-.4-.1H34l-.3.3-.1.4h.2l.2-.3.2-.2h.3l-.6.7H33.5l-.1-.1H33.1l-.2.2h-.2l-.2.2v.2h.1l.2.2v.1l.1.2h-.2l-.4-.4h-.2v.2l-.2.2-1.1.4-.2.1-.2.2v.2h.1l.3.1h.7l-.4.1H30l-.2.2.4.1.1.1.1.2v.2h-.2l-.1-.3-.2-.1h-.2l-.1.1-.3.3-.1.1H29l-.5.3H28l-.3.1-.4.1-.1.1v.5l.2.2h-.2l-.1-.2v-.2l-.1-.2H26.3l-.1.1-.1.2-.3.1-.4.1-.7.3h-.2l-.1.2-.4.2-.1.1h-.1l-.3.2v.1l.1.2.2.3.1.2h.4l.5.3.1.1h-.2l-.5-.2h-.2l-.1-.1h-.1l-.2-.1-.2-.5h-.1l-.6.3h-.2l-.1.2-.5.2-.5.4-.5.2h-.9l-.2-.1-.1-.2h-.2l-.2.1H19l-.1.1h-.1l-.2.2h-.3l-.3.1h-.8l-.1.2h.2v.1h-.2l-.1.1-.2.2v.2l-.3.3-.4.3-.5.2-.3.3-.2.1-.4.1.2.1.1.1v.2l-.1.1H14v.3l-.2.2-.3.2-.2.2-.8.6-.2.2v.1l.1.1v.6h.2v.1l.3.2h.2v.1l.1.1v.4l-.3-.4h-.1l-.3-.2-.4-.3h-.5l-.3.3h-.2l-.1.1v.1l-.2.1-.4.1h-.2V92l.2.2.4.3h.1-.2l-.2-.1-.1-.1-.2-.2H10l-.2.1v.1l.2.1v.2l.3.2V93l-.2.1v.4l-.2-.1-.1-.1v-.5h.1v-.2l-.3-.2h-.3l-.3.2v.7l.1.1.1.2V94l.2.1v.2l.1.1v.1h-.4v-.2l-.2-.1V93.4l-.2-.3h-.3l-.7.3.1.1h-.1l-.2.1h-.1l-.5.3-.1.2v.2l1.1.4h.2l-.1.1h-.2l-.3-.2h-.4l-.2-.2h-.5v.5l.2.1.2.1.5.1.1.1h-.7v.4h-.1v-.4l-.4-.4H6l-.2.1-.3.4h.2l.2.1.3.3.3.2v.1H6l-.4-.4-.2-.1h-.4l-.1.2v.5l.2.1v.2l.2.2v.1h1.1l.3-.1h.4H7v.4h.5l.1.1v.1H7l-.2-.3h-.2l-1 .1-.2.2.9.7.4.4v.3-.1h-.2l-.2-.3v-.2h-.1L6 98l-.3-.2v.2h-.1l-.1.2H5l.3-.2v-.4l-.3-.2H5l-.3.1h-.2l.1-.1h.1l-.4-.2-.1-.1L4 97l-.3.1-.3.2-.1.2v.2l.2.2H4l.2.2v-.2h.2l.1.3.1.2h-.3l-.5-.3-.4-.1-.4.2h-.1l-.2.6-.3.5v.2l.1.1H3l.5-.2h.8l1.2-.5-.1.2-.3.1-.6.2h.1l.2.1H5l-.2.1h-.3l-.4-.1h-.3l-.4.2H3v.7H3l.9-.1h-.1l-.5.2h-.2v.1l-.2.3h.2l.8-.1H5v.1l-.3.1-.4.1-.2.1-.1.2h-.7l-.5.1H2l-.3.1-.2.2v-.1H.3v1.7l.1.1.3-.2h.1l.9-.2v-.1h.1l.3-.4h.2v-.2l.1-.1.2-.1h.2v.1l-.1.1-.5.4.2.1H3l.3-.1-.2.2H3l-.6.2h-.2l-.2.2v.2l-.1.3h-.2V104.2l.6-.1.3-.1v-.3h.2V104l.3-.2V103.5l.2-.2h.2l.4-.1.5-.3h.2l-.2.2-.4.2h-.2l-.2.1-.2.2-.2.4-.3.3-.4.3-.3.1v.2l.2.2.5.3h1.9l.6.1h.4l.6.2h.1v.1h1.3l.3-.1H8.6v-.2l.1-.1v-.1l.1-.1.1-.2v-.2h1.3l.4.2H11.2l.1.2v.1l.2.3.5.4-.1.1h-.1l-.1.1h-.1v.1l.3.1.2.2v.1h.2v.1l.1.1h.8l.1-.1.1-.1H14.3v.1h.1v-.2h.1l.9-.2h.2l.2.2.5.6.2.3v.2h.2l.2-.1.1-.3v-.2h.2l.1.2v.6l-.5.2H16.1v.1h.1v.1h.3v.2h.1l.2.2.3.2h.3l-.1-.1-.3-.2v-.4h.2l.4.2h1l.2.2h-.6l-.3-.1h-.2v.1l-.2.2h2v-.1h-.1l.1-.1v-.1h-.2v-.2H20l.2.1H20l-.1.2h.3l1-.1.2-.1.1.1.3.6v.2h.8l.3.1h.5V109h.2v.1h.2l.1.1h.3l.2-.1V108.9h.2V109.2h.7l.2-.2H26l.3.1.1-.2h.3l.3.1h.2l-.1-.2.4-.2.1-.1H28.4l.3-.1.3-.1.3-.1.2-.3h-.7l-.2-.1h.2l.2-.1h1.1l.2-.1v-.4l.2-.4.3-.3 1.2-.6.2-.2.1-.1.2-.2h.2l.5-.2.2-.1.2-.2.2-.1v-.2l.1-.3V104l.2-.2.5-.6.7-.3.8-.2 1.8-.1v-.1l.2-.1h.4l.1-.1v-.1l.1-.5v-.1l-.1-.1h-.1l-.1.1h-.2l-.2.2v.2h-.2l-.4.2-.3.2h-.5.1l.3-.2.2-.2.1-.1h.1l.3-.3h.6l.1-.2v-.1h-.2l-.2-.2h-.7V100.7h.1l.2-.1h.1l.1-.1.3-.4H37.8v-.2h.5l.2-.1V99.6l-.1-.1h.4v-.3l.2-.1.3-.1v-.5l.1-.1.3-.3v-.2l-.1-.1-.1-.1v-.3l.2-.1.2-.7.5-.7 1-.7.6-.8v-.1l-.2-.2-2.3-.6 2.3.4h.5v-.2l.2-.6v-.3l-.1-.2H42l.1-.1h.1l.1-.1V90.6l-.3-.1.3-.1h.2V90l.3-.2v-.1l.1-.2V89l.6-.7v-.1l-.3-.2H42.4l.2-.1H43.6l.2.1h.5l.5-.5h.1l.3-.1-.1-.1-.2-.1-.2-.2-.1-.1-.2-.2v-.4l-.3-.1-.2-.2-.1-.1v-.1h.2l.2.1.3.2h.2l.1.1.2.2.2.2.2.3v.2H45.7l.3-.2h.2l.1-.1.1-.1h.1l.2-.1h.3l.6-.4.1-.1v-1 .4l.2.4.1.3h.3l1.7-1 1-.3.1-.1.1-.2-.3-.3-.3-.3-.2-.4-.2-.1-.2-.1h-.2l-.5-.2-.5-.3-.2-.2 2 .7.6.4.6.6v.1H52.8l.1-.1.1-.1v-.7l.1-.2.2-.1h.2l.3-.1h.5l.1.2h.6l.3.2-.2.1-1.4.3h-.2l-.1.1h-.1v.2h.4l.8-.2h.5l.2-.2h.8l.2-.1h.2l-.2.1v.1l.4.3.1.2h.4l.2.2H58.2l-.3-.3V83.5l.1-.1h.1V83.7l.2.2v.4l.1.2v.1h.4v-.2h.2l.2-.2.1.1.1-.2v-.3l.1-.2v-.3l-.1-.1v-.4H59l-.1-.2v-.1h-.1l-.3.2v-.1h-.1l-.2-.1h-.2v.1l-.2.1-.2.1v-.5l-.3-.1v.4h-.2v-.1l-.1-.2h-.8l-.2.2h-.5v-.1l.2-.2h.8l.3-.1-.6-.2-.2-.2h.2l.1.1v-.1l-.2-.6-.2-.5v-.2l-.5.2-.4.2-1 .2-1.2-.3H54.7l.5-.2h.1l.3-.2h.4l.1-.6v-.2l.1-.2h-1l-1.3-.2h2.2V79l.3-.3.2-.3.1-.2.7-.4.2-.2h.3l1.2-.3.5-.3.1-.2.4-.2h.3l.5-.3.1-.2h.1l.1-.2v-.5l.3-.1.2-.2.1-.2.1-.3.7-1.1h-.1v-.1l.3-.2.2-.3.2-.4.2-.3.4-.5h.2l.2-.2H64.5l.3.2v-.2l-.1-.1V71h.1l.1-.1.1-.2h.2l.3-.4.2-.1.4-.2.2-.2.2-.2.2-.2-.4-.3h-.1L66 69v-.3l.1.1v.2l.2.1.4.2.1-.3v-.4l.2-.2.2-.3 1.7-1.4.2-.2.6-.9v-.2h-.5v-.2h-.1l-.2-.6h-.4l-.3.3h-.1l-.6.1v-.1l.6-.2.3-.1.2-.2.1-.2V64l-.5-.6v.5H68V63.5H68l-.2-.1v-.8l.2-.2.2-.3.1-.2.2-.3h.5l-.1.2h.3l.3-.1v-.2h.1v-.2h.3v-.2l.2-.2v-.2l-.3.2z"/><path d="M.9 100.8l.6-.4h.1l.1.1v.5h.1l.1.1h.2v-.2h.1v.1h.4l.1-.2v-.5l-.1-.2-.2-.1H2l-.7.2H1.1v.1l-.2.1-.1.1-.1.2v.1l-.1.2h.2zM.6 101.5h.1l.2-.1.2-.1-.2-.2-.2.1H.6l-.2.1v.2zM1.8 104.3h-.2l-.1.1V104.7h.1l.3-.2v-.2zM.8 103.6v.1h.1v-.1zM4.5 108.3h-.3l.1.1.2.2v-.2zM1.4 103.3H1v.1H.8v.2H1l.2-.2z"/></g></svg>