<svg width="87" height="116"><path d="M86.8 47.3l-.1-.4-.3-.3-.3-.1H85.8v.2l.1.2v.1h-.2l-.1-.1v-.4H85.2l-.5-.3-.3-.2-.9.3H83.3V46h.1v-.2h-.2l-.3-.3-.3-.2-.5-.4-.2-.2v-.2l-.5-.7-.4-.2-.2-.2v-.4l-.5-1-.2-.4-.2-.3-.4-.3-.6-.3-.3-.3-.1-.1V40h-.1l-.7-.8-.1-.7-.2-.2-.3-.3-.1-.2-.2-.5-.2-.3-.4-.1-.6-.6-.2-.3v-.5l-.2-.2V35l-.3-.3h-.2v.1h-.1v-.1l-.1-.1v.2h-.2v-.1l-.1-.1-.2-.2h-.2l-.1-.1-.2-.1-.2-.5-.1-.2H73l-.3-.1H72l-.1.1-.1.1-.3.1h-.4l-.6.1H70l-.3-.2-.2-.2-.5-.4H68.7l-.7-.4h-.5l-.5-.1h-1.7l-.3-.1h-.3l-.1-.2-.3-.4h-1.7l-.6-.3-.9-.4-2-.5-1.6-.6-.3-.3-1-.8-1.4-1.1-1-1.3-.1-.3-.1-.3-.3-.3-1.2-1.5-.6-.6-.3-.3-1.3-2.4v-.5l-.1-.3-.1-.1-.7-1.5-.3-1h-.6l-.1.2v.7l-.1.1-.3.2-.5.4-.2.1h-.4l-.1.2-.2.4-.3.3v.2l-.1.1-.2.1h-.4l-.4-.3-.3-.8-.4-.4V18.5h.4l.3.2-.1-.8-.2-.3-.3-.2h-.9l-.3.3-.4.3-.3.4-.2.4.1 1v.8l.2.5v.2l-.2.3-.1.4-.2.2V24h.2l.2.2v1l-.4.7-.1.2v.2h.1l.7.2h.2l.6-.2.3.1.2.5.1.5.5.7-.2.2-.7.2-1.2.5H42l-.2-.2H40.3l-.3.2-.4.1-.2.2-.4.1-.5.1v.4l.2.2.4.2.2.3V32l-.5.8v.2l-.4 1.5-.2.2-.4.4-.2.3-.1.4-.3 1.2-.2.8-1 1.8-.4 1.1V44.6l.6 1.1 1 1.5.8 1.5.9 1.5.9 1.5.6 1v.5l-.4 1.5v.2l-.3.7-.3 1-.4 1.3-1 3.3-.6 1.9-1.2 3.9-.6 1.8-1.4 4.6-.4 1-.2.7v.2l-.4 1.2-3.5 1.2-3.8 1.3-1.9.7-1.9.7-3.8 1.3-1.8.6-2 .7-1.8.7-1.9.6-1.9.7-1.9.7-1.9.6-1.8.7L0 88l.4 1 .5 1.1.5 1.1.4 1.1.5 1.2.5 1 .5 1.2.9 2.2.5 1.1.4 1.2.5 1 .5 1.2.5 1 .9 2.3.5 1.1.3.8v.2h.7l.1.2 1.1 2.5.7 1.6.7 1.5.7 1.6 1-.5 1.7-.6 1-.1h1.7l.4-.1.4-.2.2-.2.2-.3.2-.2.3-.3.2-.1h.4l.3-.2h.4l.6-.2h.8l.1-.2.2-.2v-.5h.2l.5-.3h1l2.1-.3H29.4l.5.1v.2l.1.2.1.2h.1l.4.2H30.9l.1-.1.2.1h.1l.4-.1h.5l.2-.1.1-.2h.7l.1-.2.1-.2h.2v.2h.2l.4-.4.5-.5h.1l.1-.2v-.2h.1l.2-.2h.3l.2-.2v-.4l.1-.1v-.1l.2-.1.3-.1V107.6l.4-.6V106.1l-.2-.3-.4-.2-.1-.1v-.8l.4-.6 1-.8.1-.2v-.1l.2-.5.3-.3v-.1l.2-.5.2-.2.4-.1H39.1v-.1h.1l.1-.1h.3l1-.3 2.9-.1.4-.1.7-.3H46l.3-.2h.3l1.7.2h.1v-.3l.5-.6h.1l.2-.1.4-.7.2-.1.5-.2.2-.2.2-.2v-.3l-.2-.2.6-1.3.1-.5V95l.1-.3v-.1l.3-.3V93.1l.2-.4 1.1-1.2h.1l.1-.3.3-.2.5-.3.7-.5 1.8-.7 1.4-.4 3.2-.5h2.6l.1-.1v-.1h.1l.5-.1.2-.2.3-.2v-.2l-.4-.8V86l-.3-.3v-.2l-.3-.6v-.5l.2-.5V83l-.1-.2-.5-1-.1-.1V81l.1-.1v-.8l-.2-.1v-.8l.7-1 .1-.4.2-.6.3-.6v-.5l.2-.7.2-.4-.1-.3-.2-.5v-.2l.1-.2.1-.2v-.1l.2-.2.1-.2.2-.2.2-.1.5-.2.2-.2V72.2l-.1-.2v-.4l.1-.1.3-.3.2-.1.2-.1h.3v-.1l.2-.1v-.1l-.1-.1v-.2l.2-.5v-.1l.2-.1.4-.1.4-.3h.3l.3-.1h.2l.2.3v.4l-.2.3-.1.2-.1.3v.8-.1l-.2-.2V71l-.1.4v.3h.2l.2.1.4.1v.2h.1l.3-.1h.6l.3.1.2.1h.4l.2-.1v-.3l.2-.1.1-.1h.2v-.2l.1-.3.1-.1v-.2l.1-.4.3-.6v-.3l.1-.3.2-.3.1-.3h.1l.3-.2.1-.2.1-.4v-.1h.2v.1h.3l.2-.2v-.4l-.2.2-.2.1H74l-.1-.1v-.1l-.1-.1V67l.2-.1v-.3l.5-.2.2-.2v-.2l.6-.5v-.2l.1-.5.4-.7.2-.3h.1l.1-.2.5-.7 1.5-1.6 1.2-1 .3-.2 1.6-.6v-.1l.1-.1V59l1.1-1.7.2-.4.4-1.1.8-1.2.2-.4.1-.2.5-.2v-.2l.1-.6.2-.6v-.3l.2-.2.1-.2.4-.2.6-1 .2-.4.2-.5.2-2v-.3zM46.1 4h.2l.1.5.1.2V5.3l-.1 1-.1.3-.2.3v.4l.2.3V7.9l-.1.1-.2.1V9l.1.1h.1l.3.1v.1l.2.3h.9l-.1-.2v-.9l.2-.4.1-.2V8h.2v-.2l.3-.3.2-.3V7l.1-.3.2-.3v-.6h.5l.1-.1-.2-.1-.1-.2-.1-.2h-.1l.3-.3v-.2l-.2-.1-.3.1v-.2l.4-.2.3-.2.2-.1.1-.2h-1.2v-.5h-.2l-.1.3V2.6l.3-.2h.3l-.1.1V2.8l.2-.1v.1l.1.2h.5l.1.1h.2l-.1-.2-.1-.1-.2-.1-.2-.2.1-.1v-.2h.2v.2h.2l.2-.4-.2-.2-.2.2h-.2l-.2-.1-.2-.3v-.1l.2-.2.4-.3H50V.4h-.3V.9h-.5V.7h-.1V.5H49V.3h-.1l-.2.1-.1-.3h-.1V.8l-.2.1H48v.2l.2.2h.1l.1.2v.2l-.2-.1-.3-.3v.2l-.1.6.1.1h.1l.1-.1.1-.1h.6v.2h-.4l-.4.2H48l-.2.1v-.2l-.1-.1H47v.2h-.2v-.2h.1l-.1-.3v-.2h-.2l-.1.2-.3.5-.7 1.2-.1.4v.1h.2L46 4zm30.5 65.3V68.2h-.2l-.1.2-.2.4-.2.4-.5.7v.2l-.2.2v.6l-.2.2-.2.2h-.5v.1l-.1.2-.1.1-.2.2h-.1l-.1.2v.1l-.1 1v1l.1.2h.2l.2-.2V74H74.5l.1-.1.1-.1.2-.3.4-.4v-.4l.1-.2.1-.5.2-.3.2-.4.2-.2.5-.2.4-.4h.1v-.2l-.4-.8v-.2zM43 105.1h-.2l-.1.1v.2h.4l.2-.1h-.1l-.2-.2zm2.2-.1v-.2l-.1-.1h-.3l-.4.2-.3.2v.3H45.3l.3-.3h-.1l-.2-.1zm1.6-90.7l.1.1h.4l.3-.2v-.7l-.1-.1H47l-.1.1v.1h.1v.1l-.2.4v.2z" fill="none" fill-rule="evenodd"/></svg>