<svg width="81" height="154"><g fill="none" fill-rule="evenodd"><path d="M38.5 100.7v-.1h-.3v.1zM38.4 98.8l-.7.7-.2.4-.5.1v.8h.3v-.3l.6-.5.2.2h.3l.1-.3.3-.1v-.5l.3-.2v-.5l-.2-.2-.1.2-.1.4zM37.5 104.2h-.2v.2h.2zM37.5 105h.1l-.1-.3v.2zM38.3 101.2h.2V100.8h-.2v.2zM37.6 105.6h.2l-.2-.3v.2zM38.2 104.5v-.2l-.2-.2h-.2l.3.5zM36.2 104v.2h.2l.2-.2h-.3zM36.5 102.6v.2h.2v-.2zM37 102.4h-.2v.1h.1zM36.7 101.8v.1h.2v-.2zM37 104.3l.1-.1v-.2h-.2v.2zM37 105h.2v-.4H37l-.2.2v.1zM35 100.9l.3-.2v-.2l-.2-.2h-.2v.5zM32 107.6h-.3v.1l.1.2h.2v-.2zM33.6 102.6l.1.2h.4v-.2l-.2-.3v-.2h-.2l-.2.2v.1zM33 87.2l.3.3.2.3v-.6l-.3-.3v-.3l-.2-.2.2-.2-.2-.2v-.4l-.4-.3-.2-.7-.2.2v.5l.2.1v.2l.1.1-.1.2v.3l.5.7zM28.9 109.3h-.2v.5l.3.3v.3l.5-.2v-.1zM31 107.6l-.2.2-.1-.2-.2.3.2.2v.2l-.3.3-.2.6h.5l.3-.3.1-.3v-.7zM30.5 106.5h-.1v.2l-.5.3v.9h.3v-.3l.4-.5zM40.5 100.7v-.5h-.1v.5zM39.8 95.3h-.1l-.2.2v.6l.2.2.2-.2v-.7zM39.7 99v.2h.2l.1-.1v-.6l-.2-.2-.3.5zM39 96.5h-.3v.5l.4.4v.3l.4-.1v-.4l-.4-.3zM38.2 113.5l-.6-.3-.4-.7-.2.2.1.3v1.2l.1.2h.4l.3-.3 1-.2-.4-.4zM33.6 103.4h-.2v.4h.3v-.2zM32.4 119v.1l.4.1.2-.3.5-.1v-.2l-.5-.1z"/><path d="M40.8 109.4l-.2-.2v-.2l.2.1h.3v-.5l-.2-.2-.5.1-.4-.3-.1-1.4-.1-.1v-.5l.2-.5.5-.8v-.3l.1-.1v-.2l-.1-1.4-.2-.1v-.2l-.2-.2v-2.2l-.2-.5h-.3v.5l.1 1.6-.1.2v.6l.1.1-.1.6.1.2v1l.2.1-.4.3-.2-.1v-.5l-.2-.6v-1.1l.2-.5v-.3l-.2-.2H39l-.2-.1h-.1v.2l.2.3v.1l-.3.2.2.4-.4.3v1l.2.6.3-.2v1l-.2.2h-.3v-.5l-.4.8h-.5l-.2-.6-.2.1-.4-.3v-.3l-.2-.2-.3.5h-.4l-.4-.3v-.3l.3-.3v-.3l.7-.9h-1.5l-.5.5-.1.3.4.2v.6l-.2.1-.3.5v.6l-.3.3v.9l.5.6.2.1v.3l.4.5h.2l.1.2h.4l.3.3h.6l.6-.6.2.1h.5l.2-.3h.2l.1-.3-.3-.1v-.2h.7l.2-.1.2.2-.1.3.8.6-.3.3v.2h.5v.4l.6.5h.3l.2-.2v-.3zM66.3 73.6l-.3-.3h-.3v.2l.2.2.1.2h.3v.2l.1-.1v-.3zM29.3 84.8l-.2-.2h-.7l-.2.2-.2-.2h-.3l-.4-.3h-.8l-.3.3h-.4l-.4-.2v-.3l-.1-.1.3-.3v-.2l-.8-1.2h-.3v.8l.2.3v.7l.5.7h.1l.3.3.5.1.5.4h.5l.2-.3-.2-.2.2-.2.5.2.1.1.7-.1v.1h.5zM64.6 76v.1h.3V76zM60.9 77l-.3.5.2.2h.1V77zM69.4 72.4l-.3-.4h-.3l-.3-.6-.3.4.2.1v.6l.3.4h.4l.2.3h.2v-.5zM61.1 74.8l-.1.1-.2-.1-.1.2v.2l.1.2h.5V75zM63.2 76v.5h.1v-.3zM77.5 49.6h-.2v.2H77.6v-.1zM60.8 75.8l-.4-.5-.3-.6v-.4l-.6-.7.2-.8v-.4l.1-.2v-.6l-.4-.5-.3-.1h-.5l-.3-.2.4-.6h.2V70h-.3l-.7.8-.1.4-.4.4-.2.1-.2-.1h-.6l-.3.3-.2.6h-.3v-.2l-.5.6h-.9l-.2.1-.3-.3h-.3v-.3l-.3-.5v-.3l.1-.1v-.2l-.3-.2h-.6l-.2-.3H52l-.1.2-.8-.6h-.7l-1-.6h-.5v1l.3.1v.2l.5.1v.3l-.4.3v.1l.4.1.1-.1h.4v.2l-.3.3h.3v.3l.4.2h.2l.2.1h.2l.5-.3-.2-.3v-.5l.2-.3.2.1h.3l.2.2.1-.2.3.4v.3l.2.1v.3l-.2.2v.3l.5.6h.3l.1.6h.3l.6.7.2.5.3.3h.3l.2-.2-.1-.2v-.7l.2-.3v-.3h.2l.5-.4.4.6h.3v-.2l.3-.2.6.7 1.5.1v.4l.2.2-.2.7-.3.1v.4h-.4l-.2-.4V76l-.2-.2H58l.2.7-.1.1v.3l.4.3H58.2l-.2.2v.3l.1.1-.3.3.2.3.6.5.1-.1.3.2h.4l.1-1.2H60.2l.3-.4.1-.6.3-.2z"/><path d="M80.5 22l-.2-.2v-2l-.1-.2V19l-.2-.2v-.4l-.2-.3v-.6l-.2-.1v-4l-.6-.6v-.1l.4-.5v-.3l.5-.6v-.4l.4-.6-.5-.6v-.1l-.4-.4H79v-.8l-1-1h-.2v-.6l-.2-.4v-.5l-.3-.4h-.3l-.5-.4H76L76 5l-.5.3-.9 1V7l-.3.5-.1.7.3.2.1-.1h.5l.2.5.3.3v.6h.3l.2.3v.4l.4 1v.5l.2.1v.3l.6.2h.3l.3.3v.4l.5.4v.3l-.5.1-.3.4.1.6v.3l-.5.2 1 1v.8l.5.6v.7l-.1.2v.4l-.1.2-.2.8-.2.3h-.4v.5l-.1.1-.3.6-.2.2v.2l-.4.5v.1l-.8.8-.2.8-.2.3-.4.1-.3.4v.2l-.6.3-.1.1h-1l-.3-.1-.1-.3h-.4l-.1-.2h-.6l-.6-.5h-1v.1h-.3l-.3.7-.3.3h-.3l-.1.2-.5.1-.5.5v.6l-.2.2v.1l-.6.7-.3.1h-.4l-.3.3-.6-.3H65l-.4-.3h-.5l-.8.8v.2l-.3.1-.1.3v.5l.5.4-.1.3v.4l.5.8.3.6-.4.8-.1.3v.5l.1.1v.7l-.2.4-.5.3h-.2l-.2.2-.5.1-.4-.6h-.5l-.2.2.2 1-.3.5v.4l-.2.3h-.3v.5l-.3.3.2.3v.4l-.3.2-.3-.3-1.8.2-.2.2v.3l.3.4-.1.2v.4l.2.5-.4.5.2.2v.6l-.5.9.5.4v.3l.6.6.5-.1.3.1.2.5h1l.2.1.5.2.9.6v.5l-.3.3h-.2l-.6.3-.3.4.2.5h-.4l-.1.2h-.7V48l-.2-.4h.1l.1-.7.3-.3v-.3l-.5-.6h-.9v-.3l-.4-.2v.2h-.5l-.2.2.2.7-.3.2H57v.1l-.3.2-.5-.3-.2.2-.4-.1-.5.2-.2.6v.7l.7.8h.1l.2.2-.9.9v.7l.3.3-.4.4h-.3l-.1-.2h-.7l-.3.3.2.3.4-.1.5.2-.2.1v.8h-.1l-.4.6v.3l-.2.1v.5h-.6v.4l-.2.2-.4-.1-.2.3v.1h.3v.4l.3.2h.2l.2.1h.3l.2.2h.6l.4-.3.3.3h.2v.5l-.3.5h-.5l-.1.4v.4l.7.4.5.3.3.3.4.7.2.1.6.1.4.8h.1l.1-.3h.4l.4.3.2-.1.5.6-.1 1-.4.5v.7l.3.5.1.6.7 1.4v1l-.5 1.2v.8l.3.6v.2l-.4.2h.4l.1.4.3.3.2.4h.3v.3l.7.3h.5l.2.2v.6l.2.2.3-.3.1.1h.3l.4.6h.2l.1.5-.3.3.4.1.2.4v.4l.1.3-.2.5v.8l-.2.2h.2l.2-.2V76l.2.1.4-.4.5.3h.4l.1-.2.3.2.4-.1-.4-.7h-.2v-.3H65l-.6-.6-.3-1.2-.5-.4-.3-.6h.9l.6.4h.6l.2-.4h.1l.4-.2h.8l.1.1h.4l.3-.4v-.5l.3-.4h.2l.2-.4v-.1l-.4-.5v-.4l.3-.4 1.5-.1.4.3-.3 1.2.5.4h1l-.5.3h-.5l-.3.3v1l.2.1.5.2.2-.3h1l.3-.4v-1l.7-.4.3-.3v-1l-.6-1v-.7l-.2-.3V67l-.2-.2v-.4l-.1-.2V65h-.4l-.1-.3v-.5l.4-.5.3-.6v-.5l.1-.2v-.7l-.1-.2v-1.1l-.2-.2v-.6l.1-.1-.1-1.5.1-.1v-.3l.5-.3.3-.3v-.3l.3-.5.7-.2V56h.7v-.5l.2-.5v-1.3l-.2-.1V52l.7-.8V51l.5-.6.4-.2.5-.5v-.6l.5-.5h.3l.6-.9.5-.3h.3l.3-.6v-.3l.3-.6-.7-.4-.3-.8-.2-.2-.8-.8-.3-.7H77l-.2.3-.3-.3v-.8l-.4-.4-.1-.6-.6-.7v-.2l.3-.3v-.3h.3l.5-.6V39l-.2-.1v-.5l.7.9h.3l.3-.2.3-.6h.2l.2-.3.5-.1.5-.5.1-.6-.1-.1v-.6l-.2-.2v-.6l-.1-.1v-.6l-.3-.6.3-.3.1-.4.1-.2V33l-.5-.4v-.1l-.3-.3v-.5l.4-.4V31l.3-.1.5-.9v-1h-.4l-.2-.3v-.4l.5-.3.3-.3.2-.6v-.5l-.2-.2V24l.6-1zM56.7 76.7h.3l.4.4h.2l.1-.3-.1-.6h-.1l-.2.1v.3L57 76h-.2v.3l-.4.2zM49.3 83h.4l.5-.5v-.3h-.6zM42.6 94.6h-.2l.2.3.1-.1v-.1z"/><path d="M51.2 81.2h.2l-.4-.8v-.1l-.1-.7-.1-.3-.2-.1-.3-.4H50l-.1-.3h-.4l-.2-.3H49l-.1.1-.2-.1-.4-.5-.7-.4-.6-.7v-.1H47l-.2-.5v-.4l.1-.2v-.7h-.3l-.2.3v1.5l.4.7v.3l.6.7h.3l.1.1.1-.1.3.4.6.4v.3l.5.4.1.3-.2.3-.3 1-.2-.1.1-.2v-.3l-.3-.3-.3.2v.4l.1.2v1.1h.3l-.1.3v1.5H48l-.3.4h-.3l-.3-.4v-.4l-.3-.1v1.1l.3.1v.3h-.4l-.2-.3v-.4l-.2-.3-.3-.4h-.3l-.3.6v.4l.3.6-.2.2h-.4l-.1.1H45l-.4.5h-.3v.2H44l-.3.4v.2l-.3.3v.7l-.1.2v.6l-.1.1v.3l-.5.7v.2h-.4l-.2.3-.5-.1v.5l-.3.2h-.2l-.4.5v.2l-.3.4v.2l-.2-.1h-.1v.4l-.1.1.1.3v.4l-.2.3-.2-.8-.2.1v.2l-.5.1v-.3l-.8-.5-.3-.7-.8-.8v-.6h-.6v-.1h-.3l-.8-1-.6-.2-.2-.3H34l-.2-.3-.2.1.1.1v.4l.3.2v.3l1.2.2.3.6-.2.4.2.4.5-.2.1.2h.3l.1-.2.1.2h.3l.7.8v.3l.3.4v.3l.3.3.1.6H37.7v.3l.6.6v.2h.6l.1-.2 1-.3.4-.2.1.2-.1.1v.3l-.3.4v1h.1l.2-.2v-.2l.2-.4v-.3l.2-.1v-.3l.2-.6.2-.1.3-.5.3-.9h.4l.3-.3-.2-.6.3-.3.4.7.2-.2.1.3h.2l.3-.3.3-.6h.3l.3-.5.1-.1.4-.9v-.7l-.1-.3.2-.3.2-.4.4-.5.2-.1v-.2l.2.3h.1l.3-.2.1-.3h.5l.3-.2-.1-.3h.7l.2.3v.4h.4l-.2.3v.3h.3l.2.5.3-.1.3.4.2.1v.3l.4.4v.2l.3.2h.2l.4-.4V88.2l.2-.1v-1l-.2-.2v-.6L51 86l-.3.3.3.2-.2.6h-.2l-.2-.3h-.4v-1.1l-.3-.3.2-.3v-.6l-.3-.6v-.3h-.2l.1 1-.2.3-.2-.4V84l-.1-.2-.2-.3v-.4l.3-.5v-.5l.4-.6.4-.1.2.2v.4l.9-.2zM42.4 95h-.1l-.1.1.2.2V95zM41.3 100.2h-.1l-.2.2h.3v-.2zM41.5 99.7h-.1v.2l.1.3.1-.1v-.3zM58 79.8l-.3-.2.3-.5-.2-.5-.3-.1h-.4L57 78l.4-.3v-.3l-.6-.5h-.2l-.3-.1-.2.5.4.4.2.6h-.1L56 78l-.3.3h-.2l-.2-.6-.4-.6v-.3l-.3-.3v-.2l-.5-.6v-.4l-.6-.6h-.2l-.1-.4H53l-.7-.7h-.4l-.4-.3-.6.2-.2-.2h-.6l-.5-.3h-.7l-.1-.1h-.4l-.7.4h-.4l-.1.5.2.3h.4l.2-.3v-.3h.7l.1.1h.3l.6.9h.6v.1l.3-.3-.3-.2.2-.2h.4l.1.2h.3v.2l-.1.2h-.4l-.4.4v.8l.3.2v.3l.2.2h.3l.4-.6.2-.1.1.1.2-.2v-.7l.2-.4.4.6h.3v-.2l.6.6V76.3l.5.5.1.6.3.4v.7l-.4.3v.8l.2.1V80.3l.2.7.2.1.2-.2v-.2l-.2-.3-.2-.7h.2l.1-.4.4.5h.8l-.4.5v.3l-.6.4v.2h.9l.1-.1h.4l.1-.1.3.1.4-.3h.4l.5-.5v-.1l.3-.3zM57.7 75.2h.1V75l-.2-.2h-.1v.2l.1.2zM41 101v-.2l-.2-.2v.4zM57.1 75.2l-.1.2h-.2l-.2-.5v.6l.1.2h.4l.1.1h.2l-.2-.3z"/><path d="M55.3 80.3V80H55v.1l.1.3zM58.6 79V79.3H58.9l-.2-.3zM51.2 79.2v-.4l-.1-.2h-.2v.4l.2.2zM47.8 83h.2v-.4l-.2-.2h-.2l-.1.2v.3l-.2.2v.1l.2.1zM38.2 89.5v.8l.2.2h.4l.1-.1-.5-1zM39 91.2v.6h.1v-.5zM39.2 92.3v.2h.2V92zM39.8 87.4l-.2-.3h-.2v1l.2-.1.2.2v.2l.2.1v.3l-.2.1v.6l.3.5.5.2.2-.2.2-.8.2.2-.1.3v.4l.3.2.3-.4h.2l-.6-.8-.2-.5v-.2l-.2-.3h-.5l-.1-.3.3-.8.1.1h.5l.2.2.2-.5h.3v-.3h-.2v-1l.2.4h.2l.2-.2v-.4L42 85l-.3.1-.5-.7-.3.2.1.6-.2.3-.2.2-1-.2v.3l.4.4h-.2l-.4-.2v.4l.8.8zM39 87l.1-.1v-.2H39v.2z"/><path d="M42 88.7l-.3-.1-.2.2.2.3v.2h.3v-.4l.1-.1zM39.3 90l-.1.3.3.3v.3l.2.2.7-.2.2.2.1-.4-.2-.2h-.4l-.2-.2-.2-.5-.3-.3v-.3l-.1-.1.3-.5h-.4l-.3.2v.7zM21 122.4l.1.1v.5h.2l.3.5.2.8h.3l.4-.2h.5l.3-.2 1-1.3.5-.2.2-.2v-.3h-.5l-1 1-.3-.2v.4l-.3.4-.6-.2-.7-1-.6-.3zM21.8 113v-.2h-.2l-.2.2h.3zM35.6 86.4h.1l-.3-.5V86.2zM23.9 103.2l.2-.2h-.2l-.2.2zM36.6 87.3h.1l.2-.3h-.3v.2zM38.2 86.9l-.1.3v.2h.4l.3-.1v-1.1l-.5-.1-.5.5v.3zM43.1 85.9v.6l.4-.3V86l-.2-.2zM54.9 48V48H54.6l.2.2zM44.8 79.8v-.4l-.1-.1v-.4l-.1.8.2.2zM47.7 69.5h.3v-.3l-.3-.4h-.1l-.2.2v.2zM76.5 3.3l.1.3h.3v-.7h-.1l-.3.3zM57.5 44.6h.2v-.2l-.3-.2h-.1v.2zM75.8 1l-.2.1.2.4h.3l.2.2v.4h.3L76.4.3l-.2-.2-.2.1-.3-.1v.6zM44.5 84l.3-.3.1.2h.1v-.5l-.2-.2h-.3l.1.5-.1.1zM43.1 87.8l-.1.1v.4l.3-.2v-.5l-.1-.2h-.3v.2zM22.8 118.3h.6l-1.4-.1v.2h.7zM44.8 81.7l.2.3-.2.3-.1-.2v.5l.1.1.1-.1h.3V82.9l.1.3.2-.2v.3h.1v-.8l-.2-.3-.2-.4-.3-.4h-.2l-.2.1-.2-.1v.4h.4zM42.7 86.6h.1V86h-.2v.2l.1.1zM43.5 84.4l.2.2h.2v-.2l-.3-.3v-.2h-.3l-.2.2h.3zM42.1 88v.4l.2-.1h.1V88l-.1-.3zM43.7 85v.4l.1.1h.3v-.2L44 85V85h-.2zM17.1 108.5h.2v-.5H17v.4zM22.5 117.6h-.2l-.2.2.6.1.2-.2.7-.8.1-.1h-.3zM24.7 129l-.2.5-.5-.3h-.3l-.4.5v.4l-.4.3-.1.3.2.2h.3l.4-.3v-.3l.1-.2.3.1h.4l.6-.4.1-.5-.2-.3zM25.4 116.4l-.6.3-.5-.1-.2.2v.3l-.2.3v.4l-.1.2h.4l.5.5h.2l.2-.5h.7v.2h.4l-.8-1z"/><path d="M23.5 131l-.3.5-.4.2v-.4l-.2-.2H22v-.4l-.2-.3V129.8l-.5.1-.1.5-.5-.1.2-.4h.1l.3-.3.5-.1.5-.4v-.6l.3-.3.1-.6.3-.2v-.6l.3-.3-.2-1 .2-.3h.3v-.2l-.2-.2H23l-.2.3-.6.1-.6.6h-.4l-.3.4-.1.3v.6l-.4.4v.1l-.4.5-.1.6-.8 1v.1l-.5.6H18l-.9.5-.3.2-.6.8.1 1.3v1.5l.2.1v.8l-.4.3-.1.2.3.4h.1l.5.5v.3l-.3.3v.3l.3.2h.2l.3-.3-.1-.6.2-.2.3.2v.2h.3l.3-.5v-.4H18l-.1.2-.2-.3v-.3l.3-.2v-.3l.4-.3h.3v-.1l.3.2v.4l1-1h.3l.5-.3 1.1-1.3.8-.8h.2l.8-1v-.2zM5.7 149l-.3-.2-.4-.7-.6.1-.6-1.1h-.3l-.4.4H3l-.1-.1H2l-.1.1-.3-.1h-.4l-.2.3.3.5v.3l.2.4v.4l.2.2v.4l-.1.3.4.3v.3l-.4.4-.3 1-.6.8.3.4h.3l.1.1h1l.4-.4H3v-.2l.6-.7.5-.3.3-.3.6-.3.3-.3.1-.3v-.6l.3-.5z"/><path d="M23.3 127.7l-.2.2v.1h.5l.2-.2h-.1zM19 114V115.3l.1.2.2-.2v-.3l.2-.3.6-.1-.7-.6-.2-.3-.3.2zM20 115.3h-.5v.2l.4.5h.2l.2-.3h.1l.6-.5.1-.8.3-.4v-.6l-.4.8-.4.2v.2zM18.3 112h-.2l-.1.3.4.7.5.5h.2v-.4l-.4-.4zM22.8 103.2v.1h.2l.2-.2h.2l.2-.2v-.3l-.2-.1-.1.2-.2.1zM23 102.1l.1.3.2-.1v-.3l-.3-.4h-.2v.2l.1.2zM21.2 103.6v.3l.2.2h.4l.3-.3.3-.2v-.3l.1-.1v-1h.1l-.3-.2.3-.2h-.3l-.1-.3h-.4l-.3.3-.1.5.2.4v-.2l.3.2.1.3v.6l-.2.2h-.1v-.8l-.4-.2v.7zM22.9 102.8l.1-.2v-.1h-.2l-.1.2v.1zM17 110.2v.3l1 1.4.3-.2-.2-.6.1-.2-.3-.2-.5-.7H17zM28 127.1h-.4l-.1.1v.2h.5v-.2zM18.7 100.6h.1l-.1-.3v.2zM18.1 101.1v.2h.2v-.3l-.1-.3H18V101zM17 109.7l.2-.2v-.5H17l-.2.2v.4zM17.9 109h.2l.1-.1v-.3h-.5v.1z"/></g></svg>