<svg width="89" height="116"><path d="M88 13.6v-.1l-.2-.1h-.5l-.5-.2v-.1H86.4V13l-.2-.1-.1-.1V13l.1.2v.2h.1l.1.1v.2h-.2L85 14h-.2V13.7l.2-.1H85.3l.1-.1.1-.1V12.7l.3-.1h.2v-.1l-.2-.7v-1.5l-.2-1.2V9l.1-.2.2-.2.2-.4v-.2l-.1-.2-.3-.1-.3-.1-.1-.4v-.9l.1-.2.3-.6v-.7l.2-.2.3-.5.1-.2.2-.2.1-.1v-.2l.1-.6v-.2l.3-.3V2l-.2-.2h-.6l-.3-.2h-1l-.5-.4-1.6-.6-.1.1h-.3L82 1H81.7l-.1.1-.3.2H81l-.1.1-.2.3v.1l-.1.2v.4l-.1.2-.1.1-.3.3-.3.3h-.1l-.4.2-.7.5-.2.1-.3.1H78l-.1.1h-.4v.1l-.2.2-.5.2H75.6l-.1.1-.2.1-.3.2H72.7l-.1.1-.2.1-.1.4H72l-.1.1-.5.3H71.2l-.5.1H70.4l-.2.2-.3.1-1.1.2-1.1.2h-.8l-.7-.2-.3-.2-.4-.1-.5-.1H63.8v.1l-.3.1-.3.1h-.6l-.3.1-.2.2v.2H61.7l-.2.1h-.2l-.1.1-.2.2-.2.2v.1l-.3.1L59 8h-1.5l-.5.2h-.2l-1.4-.7H54.1l-.8.5-.2.2H53l-.4.2h-.1l-.3.4-.4.3-.7.5-.8.3H50l-.1.2-.4.2-.4.3-.7.3-.3.3H47.6l-.2.1H47l-.2.2-.2.1h-1.2l-.3-.2-.3-.4-.3-.2h-.2l-.6.2h-.6l-.1-.1h-.3l-.3-.1-.8-.4h-.2v.2l-.1-.1v-.1l-.2-.1v-.1H41l-.1-.1H40.6l-.2.3h-.2l-.1.2H40l-.1.2-.7.3H39l-.3.3-.2.2-.3.1-.3.2h-1.1l-.5.6-.8.5h-.3l-.1.1-1 .5v.2h-.3l-.6.1h-.2l-.6-.2h-1.2l-.2.2-.3.1H29l-.1-.1h-.4l-.3-.2-1-.9-.4-.2-.6-.6-1-.6-.7-.7-.6-.7-.8-.8-.4-.7-.2-.4V8l-.2-.2v-.1H22l-.2-.1-.2-.2-.2-.3V5.8l-.1.1-.1.2-.1-.1-.3-.2H20.6l-.2-.3h-.1l-.2-.2L20 5v-.2.3H19.6l-.1-.2-2.7 4.2-.1.2-.1.3v.1l-.2.2-.4.1v.1l-.1.2v.2h-.1l-.2.2-.3.3v.1l-.1.2-.1.4v.1l-.2.2h-.2l-.1.1h-.1v.3l.1.3.3.4.4.5.2.1v.2l.2.8.1.6.3.5.2.3.8.5.2.2.1.2.1.3.1.3.2.4.2.2.3.1.4.1.3.1.2.3.2 1.4.1.3.2.2h.2l.1.1.2.3.1.1.2.1v.1l.2.4v.2l.1.2v.2l.2.1.4.3.6.4h.4l.1-.1h.2l.6.7.8.6 1 1 .6.5.3.2.7.3.8.2.7.3.7.2.8.2.7.3.8.2.7.3.7.2.8.3.7.2.8.3.7.2.7.2.8.3.7.2.8.3 1.4.4.7.3.7.2.7.3.7.2.7.2.7.3.7.2.7.2.7.3.7.2.7.3.7.2.7.2.8.3.5.1.5.3h8.4l-.4.4-.4.4-.4.4-.9.8-.4.4-.4.4-.4.4-.4.3-.4.4-.4.4-.4.4-.4.4-.4.4-.4.4-1.3 1.2-.4.4-.4.4-.4.4-.4.4-.4.4-.4.4-.4.4-.4.3-.4.4-.5.4-.1.2-.4.4-.4.3-.2.2-.5.5-.5.5-.5.6-.5.5-.5.5-.6.5-.5.6-1 1-.9 1-.9 1-1.8 2-.9 1-2.7 2.9-.5.5-.6.7-.3.1h-1.8l-.4-.1H30l-.4-.1h-1.3l-.5-.1h-1.3l-.4-.1h-.8l-.8.3h-.2l-.8.2-.7.2-1 .2-.5.3-1 .4-1 .5-.9.4-.7.6-.6.5v.1H17l-.1.4-.2.6-.1.2-.3.3-.3.2-.3.2H15l-1.3.3-1.3.2-1 .2H10l-.3.2-.5.4-.6.3-.1.2v.4h-.1l-.1.2-.1.1-.7 1-2.2 3-.4.7-.4.6-.5.6-.4.6-.7.7-.7.7-.7.7-.7.7-.2.2-.2.3v25.3l.1 1v4.4l.3.3.2.3.2.3.2.2.4.6.5.5.4.6.4.5.4.5.4.6.5.5.4.6.3.4.1.2V115.6l.2-.2.2-.1.3-.5.2-.1.1-.2.3-.6.2-.2.2-.3.9-1.4V111.4l-.1-.2.1.3h.4v-.1H8v-.1l.3-.4v-.2h.1v-.1l.2-.2v-.1l.1-.1.1-.2v-.2h-.1v-.2l-.1-.2v-.5l.1.2v.7h.1l.4-.2V109.3l.1-.1.2-.2.1-.1.1-.2v-.2h-.1v-.1H10.2l.1-.1.1-.1.3-.3.3-.5h.1v-.2l.9-1 .2-.3.2-.1v-.1l.1-.1.4-.4.1.1v.1l.1-.2v-.2l.3-.4v-.1h.3V104.2l.2-.2.6-.6.5-.5.5-.4 1-1 1.7-1.9 1.6-1.6 1.6-1.7 1.6-1.6.3-.2h.2l.1-.2.4-.5.3-.3 1-.5.4-.5h.2l.2-.2.6-.6.1-.1h.2V91.2l.2-.2.3-.2h.2l1-1 1.8-1.4 1-.7 1.2-.8.1-.1 1.5-1 1.6-.8H36.2l4-2.4 1-.5 1.7-1 .2-.2v-.3l.4-.2.1-.1.2-.3.8-1h.4V79l.2-.2v-.2l.1-.1h.2v-.2l.1-.1.5-.4.7-.6 1.1-1 .6-.7 1.2-1 1.5-1.8 1.6-1.7 1-1.1 1.4-1.3.7-1 3.1-3.4 1-1.3 1.2-2.5 1-1.4 1-1 .9-1.5.6-.5.2-.4.4-.8 1.3-2 1.6-2.7.3-.7V47.8l1-2.2.4-1.1.4-.6.6-1.2 1.3-1.8.6-.7L74 38v-.5l.2-.1.2-.3.2-.3.1-.2v-.4h-.1V35l.2-.2.8-.8 1-.6.3-.3.2-.3.3-.8v-.2l.7-.9v-.1l.1-.2.1-.1h.2l.1-.1.1-.2.2-.3V29l.4-.5.1-.3.2-.7.1-.4.2-.2.2-.3.2-.3 1-.7.2-.3.1-.3V24.2l.3-.4v-.1l.2-.1.4-.1.1-.2.5-.8.1-.2V22l-.2-.6v-.7l.1-.2V20l.1-.2v-.3l.1-.4.1-.4v-.2l.2-.1v-.7l.1-.2V17l-.1-.4.1-.7V14.8l1-.5.6-.2 1.3-.2h.1v.2h.1v.1l.4.1h.6v-.1l.2-.4v-.2zM21.3 5.3l.1-.1-.1-.1h-.1v.2zm-1-.2h.1l.1-.2V4.6 4.9l-.1.1h-.2v.1z" fill="none" fill-rule="evenodd"/></svg>