<svg width="171" height="115"><g fill="none" fill-rule="evenodd"><path d="M81.3 105.4h-.1l-.2-.2h-.6v.2h.2v.4h.1v.1H81.4v-.2h.1v-.1l-.1-.2zm-3.6-2v-.2h-.1v-.2h-.2v.1l-.2-.1v-.1l-.1-.2v-.1l-.1-.1v-.1l-.2-.1v-.2h-.1v-.1h-.4v.1l-.1.1-.2.1v.1h-.6v.1l.1.1v.4h.1l.1.2h.1l.1.1.1.3H76.7v-.1l-.2-.1h.1v-.2l.1.1h.1v.2H77v.1l.2.1h.5l.3-.1-.3-.2zm-9.9-2.7l-.2.2v.1h-.2l-.1.2-.1.1v.2l.1.1h.1v-.2l.2-.2H68V100.8l.1-.2h-.2zm3.3-.6v-.1H71v-.1h-.1l-.1-.1h-.9l-.2.1-.4.2v.1l-.2.3v.2l.1.1h.1v.1h.4v.1l.1.1h.4l.2.1h.3l.2-.3V100.5l.2-.2v-.2zm10.7 4.1H81l-.2-.1v-.1.1h-.9v-.1H79.5v.1l-.1.1h-.1V104.6H80.5l.4.1h.7l.1-.1.2-.1v-.2zm7.6 6.5h-.2l-.2-.2v-.4h-.4v-.6l-.4-.4H88l-.5-.3-.5-.2H87l-.2-.1h-.2l-.1-.1h-.1l-.1-.1-.3-.1v-.1l-.2-.1-.2-.1h-.2l-.1.2v.5l.3.2v.2l-.1.1-.2.3-.1.2h-.2v.1h-.1l-.1.1-.1.1v.4l.2.1v.2h.1V111l.1.2v.1l.2.3V113l.1.1H85.6l.2.1.2.1v.1l.1.1h.1l.1-.1.2-.2v-.3h.1l.2-.2.3-.1.1-.2h.2l.2-.2h.5v-.1h.4l.1-.2h.2l.4-.3.4-.3v-.1l.1-.1-.3-.3zm-7-4.1v-.1h-.2v.1l-.2.1h-.1v.1l.1.1h.4l.1-.1v-.2zm2.4-.6V105.7l-.3-.1h-.2v-.1h-.1v-.1H84l-.1-.1v-.1h-.2l-.1-.1h-.2l-.2.1h-.4l-.2-.2v-.1l-.2-.2H82v.1H82v.1l-.2.3.3.4h.2l.1.1H82.7l.1.1v.2l.1.4v.1h.7l.2-.1h.4l.3-.2h.1l.2-.2zM118.6 74h-.3l-.3.1h.7V74zM13 40.6v.1zm7.1 18v.1zM13 40.6zm6.4 16h-.1.1zm-.5-.3l-.2.1-.3-.2H18l-.2-.1h-.1V56.5l.2.1h.9v-.2zm2.9 5h-.1l-.2-.2v-.4h-.2v.4l.2.2v.1l.1.1H21.8l-.1-.1zM11 40.9zM16.5 56v-.1h-.1v-.1h-.1l-.2.1h.1l.2.1h.1zm5.6 3.4l-.2-.2-.2-.1h-.2l.1.1h.1l.1.1v.4h.4v.1h.1l-.1-.4zm-4.7-3.1V56h-.7v.2h.1v.1l.1.1h.2l.1.1h.2v-.1l.1-.2h-.1zm1.2 3h-.2v.1l.2.1h.1v-.2zm122.7 33.3zm-1.1-7.9h-.2l.1.2v.2h.1l.1.2h.1v-.2h-.1V84.7h-.1zm1.1 8zm3.3-3.5zm-21.3-16.3h-.2l-.4.1H122.4v.1h-.3l-.2.2h-.3l-.3.1h.1l2.2-.5h.1-.4zm16.4 11.5h-.1v-.1.3-.1zm1 1.1h-.5l-.1-.2h-.1v.2h.1l.3.1h.2zm-.8-.6l-.1-.1v-.1V85zm3.3 2.6v.1h.1zm-.4 4.8h-.2v.2-.1h.2zm-.2-5v.1-.1zm.2.1h.1v.1-.1h-.1zm.3.2h.1v-.1h-.1v-.1h-.1v.2h.1zm0 4.6h-.2v.1h.2v-.1zm-1.7.4zM128.7 75h-.4.1l.1.1h.2V75zm12.6 17.5zm0 .1zm.2-.2h-.1v.1h.1zm.7-5h-.1.1zm.3 0zm-5.3-9.7zm-.1-.5zm0 .3zm-7.2-3v.1h-.1v.1l-.7.5H128.8h.3l.2-.2.4-.2.2-.2v-.1zm7.1 3v-.1zm.1-.2v.1zm1.8 15.4zm0 0zm-.7-10.2l-.1-.1-.1-.2h-.1v.1h.1l.2.2zm.7 10.2zm-.2 0zm-1.6-15v-.1zm-.2-.5zm-.4-1.2zm-6.2-1.8l-.1.1h-.1v.1h.1l.1-.1zm5.4 1.8zm1.2 1zm.2-.1h-.1zm0-.1h-.1zm0 0zm0 .5h.1zm-.2-.3zm0-.1zm7.4 14.8zm3-4.4h.1V87h-.1v.1zm.5 6.4zm-1-4.1h-.1zm.6-1.6V88.3 88zm-1.2 1.7v-.1zm.3-.4zm-.3.5zm.1.5v.2-.2zm0-.9zm1-.8h-.1v.1h-.1l-.1.1v.4l-.1.2h-.2.1v.2h-.1v.2l-.1.1-.1.2-.1.1h.1l.1-.2.1-.2v-.1h.1l.3-.4V89l.1-.2v-.1h.1v-.1zm.2 5.3zm.4-.2zM144 78.2zm2.3 3.5l-.9-1.5V80h-.1l-.2-.3v-.1l-.1-.2h-.1l.2.3v.1l.1.1v.2h.1v.1l.3.6.1.1.1.1.3.4v.2h.1v.1h.1zm-7.5 11zm-.9-11zm6-4.7v-.2H143.6v.1l-.1.2v.1l.2.4v.1l.2.3v.1V77zm4 16.5zm.2 0zm-3.6-4.3v.1-.1zm-.2 0h.1V89h-.1zm.1-.1h-.1.1zm.5.3zm0 0v-.1zm-1.6 2.4h-.1v.1h.1-.1v.2h-.2v.1l.2-.1h.2v-.2h-.1zM137.3 78zm7.7 13.3l-.2.1.1.1v-.1h.1v-.1zm0-2l.1.1v-.1zm-1.3 2.4v.1zm-.1 0h-.1v.1h.1zm.2.1zm0-.3h-.1l.3.3v-.1l-.1-.2zm.3 0v.1zm1.7-.7h-.1v.1h.1v-.1zm.1-1.2zm.1 0zm0 1h.1zm0-.9zm0 .8h.1zm.1-.8zm-.7.4zm0 1l-.3.2.2-.1h.1V91zm.4-.7zm.1-.2zm0-.2h-.1zm-6-21.6h-.1l-.1.2v.4l.1.3V68.4zM107 77.6h-.2l-.1-.1h-.5l-.1.1v.1l.4.2.2.1h.2v-.2h.2v-.1zm2.8 1.8zm6.2-3.5v.1zm-1.1-.3v-.1.2zm-.7 1h.1v-.1.1zm1.3.6l-.2.1h.2v-.1zm.2 0V77l.1-.2-.1.2zM115 76h-.2l.2.1v-.1zm0-.5h.1-.1zm-.5.7v-.1h-.1v.2-.1h.1zm.7-1.1V75h-.1V75h-.1v-.1l.1-.1h.1v-.1h-.1v.1l-.1.1h-.1v.1l-.1.1h-.1v.1h.2V75h.1v.1h.1zm0 .3h-.2.1zm-4.4 3.8h-.4v.1h.3v-.1zm5.5-3.5zm-3.7 1.8h.2-.1v-.1H112.3h.1zm.5.6zm.1-.1zm3.2-2.9V75h-.2l.1.1v.1h.1v.8-.7zm-.4 1.4zm.2-1v.1zm0 0v.1zm0 .8l.1-.1v-.1l-.1.3zm-4.3 2.7l-.1.1h.2V79zm-.4.2l-.3-.1H111.5zm-.1-.7v-.1.1zm-1.6.8h.2-.2zm.4 0zm0 0h.1zm6-3.7zm-3.2 2.6l-.2.1v.1h.1v-.1zm-1.2.7h-.2.1zm53.7-56.3l-.1-.1h-.1V23l.1-.1v.1H165l-.2.2h.6l.2-.1-.1-.2h-.1zm-.2-.7v-.4.4zm-1.4.9h-.1v-.2.1H163.4v.1l-.1.2v.1h-.3v.1h.2v.1h.1v-.1h.1l.1-.1.4-.1v-.2h-.1zm.3 0v-.1h-.1v.2h.1v-.2zm-13 15.5h-.2v.1h.2v-.1zm2.6-1v.1l-.1.3v.4l-.1.1v.2l-.1.1V39h-.1v.1h-.1v.1h.1v-.2l.2-.4v-.2l.1-.3v-.6zm-2.6 1.7l.1.1V39v.1zm15.1-27.6v-.2l-.1-.1v.2h-.1v.2h.2v-.1zm-.3.4H165.6v.1h.1v.1H166.2v-.2zm1.2-1.5l-.2-.1-.2.1v.6h.2v.1h.1V10.7h.2v-.1h.1v-.2l-.2-.1zm2.9-2.5v-.1H169.7l.1.1h-.1v-.1h-.1V8h-.1v-.1h-.2v-.1h.2v-.2h.1V7.2h-.2V7h-.2V7l-.1-.1H168.8v.2H168.5l-.1-.2h-.2v-.5l-.2-.2v-.5l-.1-.1H167.6l-.1.1H167.3v-.1H167l-.1-.3v-.5l-.1-.1-.2-.5-.3-1-.1-.4-.3-1-.2-.4-.1-.5V.8h-.2l-.2-.2h-.1V.4h-.2l-.1-.1-.2-.1h-.2l-.1-.1h-.4l-.1.2v.1H163.4l-.2.2-.1.1h-.2l-.1.2-.3.2h-.4V1L162 1V.9l-.1-.3h-.6l-.3.8-.1.4-.2.3-.1.4-.2.4-.1.4-.2.4v.7l.1.3-.2.3V5.4h-.1v.5h.1V6l-.1.1V6.5l.1.1h.1V7l-.2.2v.5h-.2v.2h-.1l-.2.4v.4h.2v.2h-.4v.7l-.3-.3h-.1l-.1.1v.1h-.1v.1l-.1.1h-.5l-.1.1v.1l-.2.1.1.1V10.8l-.3.1h-.3l-.3.2h-.2l-.3.1h-.3l-.2.1-.3.1h-.3l-.5.2h-.3l-.5.2-.3.1H153.5v.1h-.2l-.3.1h-.2l-.3.1-.3.1h-.2l-.6.2h-.2l-.3.1-.3.1h-.2l-.3.1-.3.1h-.2l-.3.1h-.5v.1l-.2.1-.1.1-.1.2h-.2l-.4.4-.1.2-.3.3-.2.4-.3.3v.3h-.2v.1l.1.1v.1l-.1.2-.2.1v.1l-.3.4-.3.2-.4.4v.1l.2.1v.1l.2-.2h.2V17.5h-.1.4-.1v.2l-.1.2h-.1v.1h-.1v-.1h-.1v.2h.1v.1l.1.1v.2l.1.1v.1h.1v.5h-.1l-.2.1h-.2l-.1.2-.3.2-.1.1-.1.2v.2h-.2l-.2.2h-.3v.2h-.1l-1 .1h-.2l-.3.3H142.6l-.2-.2h-1.1l-.4.1h-.4l-.9.3-.1.2h-.3l-.3.3h-.2v.6l.2.1h.4V23l.2.1v.4l-.3.2-.1.2v.2h-.1v.2h-.1l-.2.2-.2.2h-.1v.1h-.1v.1l-.2.2-.1.1v.1h-.1l-.2.2-.2.2h-.1l-.3.3-.1.1h-.1l-.2.2-.2.2v-.1h.1v-.1h-.1l-.1.1v.1l-.1.2-.5.3h-.1l-.1.1-.1.1-.7.4h-.2v.1h-.1v.1h-.2l-.2.2-.8.5-.8 1h-.2v.1H131.3l-.3.2-.2.2H130.6v.1h-.1l-.1.2H130l-.3-.2h-.1.1v.1H129l-.1.2-.1-.1H128.5h.2V30h.2V30h.2l.2-.1h.2v-.1H129.2l-.1-.1h-.1v.1l-.2.1H128.6l-.1-.2h-.5v-.1l-.2-.1h-.5V29l.1-.3h.1v-.2h.2v-.2h.1v-.2h.1v-.9l.1-.2.1-.1.2-.1h.1v-.1l.1-.1V26h.1V26h.1v-.1h-.1v-.2h.1l.1-.1h.2v.1h.1v.2h.1v.1h.1v-.2h.1v-1.3l.1-.1v-.2l-.2-.2-.3-.7-.1-.6-.2-.3-.3-1-.1-.2-.1-.1-.2-.2v-.1h-.2l-.3-.2h-.1l-.2.1-.1.2h-.1l-.1.1h-.3v.2h-.1l-.3.2h.2v.1l-.1.1v.2l-.1.2v.1l-.1.1h-.1l-.2.2v.1l-.2.1h-.4l-.2-.1-.1-.1v-.1l-.1-.1v-.8h.1l.1-.2H125.4V21h.1V21h.2V20.1l.2-.1h.1l.1-.1v-.1h.1V18h-.1v-.2h-.1v-.1h-.2v-.1h-.1v-.2h-.1V17.1h.5-.2V16.9h-.1v-.1l-.1-.1-.1-.1V16.2h-.2l-.2-.1h-.4l-.1-.1h-.4V16l-.2-.1h-.6v-.1l-.1-.1-.2-.2h-.2l-.1-.1h-.5l-.2-.1-.4-.1-.1-.1h-.1v.1h-.6v.1h.1V15.7l-.2.1v.1l-.1.1v.4l.1.1h.1v.1h.3v.1l-.2.1h-.4l-.4.4-.1.2v1.5l-.2.3h-.1v-.2l.1-.1v-.5.2h-.1v.4h-.1v.1h-.2v-.2l.1-.3v-.1h-.1v-.2l.1-.1v-.6h-.1v.1l-.2.3-.1.2v.1l-.2.3H118.6l-.1.2h-.2V19.5h-.2l-.2.1v1.7l-.2.3v.1l-.2.2-.1.2v.1l.1.2h.1v.2l.1.4V23.2l-.1.2v.5l.6 1H118.7l-.1.1v.1l.1.4v.1h.1v.2h.1v.2l.2.9v.9l-.1.3-.2.5-.2.5-.3.7-.1.3-.2.2-.1.1v.1l-.2.1-.5.3-.5.3h-.6V31h-.2l-.1-.2-.2-.2-.2-.3v-.2l-.1-.3v-.1l-.1-.1h-.1v-.1h-.1v-.1l-.2-.2V29l-.1-.3v-.9l-.1-.1V27l-.1-.1-.1-.4-.1-.2h-.1v-.7h-.1V25l.2-.4V24.3l.1-.4V22.3l.1-.1.2-.1V22h.1v-.2l-.1-.2v-1.1l.1-.2.1-.1V20h.1v-.5h-.1l-.1-.2H114.4v.1H114v.1l-.2.2v.4h-.1l-.2.2h-.1V20.8h-.4V20h.1v-.2l.1-.1.2-.3v-.2l.1-.1.3-.1.1-.1V18.4l.2-.1.4-1v-.1h.1V16.8l.2-.2.1-.3h.2V15.7h.1V15.4h.1v.4h.1v.3H115.9V16l.1-.1v-.1h.1v-.2H116.4l.1-.1h.1v-.1h.1v.4h-.1v.1h-.1v.2l-.1.1v.1h.1v.1h.1v-.1l.1-.2.1-.1v-.1h.1l.1-.1v-.1h.2v-.1l.1-.2v-.2l.2-.1.5-.2h.2l.2.1v-.1l.3-.1h.4V14.4l.2-.2h.3v-.1h.7l.2.1h.3v.1l.2.1.1.1h.2v.1l.1.1H121.6V14.1h.4v.1h.2l.2-.1h1.3V14h-.2v-.1l-.2-.1v-.2h-.2v-.1h-.4v-.1l.1-.1V13l-.1-.2v-.1l-.2-.2-.1-.2H122l-.1.2-.2.1h-.2v-.1H121.3l-.2.1H120.3v-1h.1-.7l-.2.2-.4.3H118l-.5.2h-.2l-.3.3-.3.1v.1h-.2l-.1.2-.2.2v.1H115.9l-.1-.1h-.1l-.1.1h-.2l-.2-.1v-.1H114.8v.1H114.5v.1h-.4l-.1-.1v-.2H113.7V13l-.1-.1v-.1h-.1l-.2-.2v-.2h-.2v-.1h-.2v-.1h-1.3v.2l-.1.1h-.1v-.2h.1l.2-.2V12l-.2.1v.1h-.2v.2h-.2v.3l-.2.1V11.8h-.1V11.5h-.4v-.4h-.1l-.5.4-.1.2-.1.2h-.1l-.2.1h-.2v.1l-.2.2-.2.2-.3.1-1 .2-.1.1-.5.5h-.1l-.5.2-.1.1h-.1l-.2.1v.1h-.5l-.2-.2-.2-.1h-.1v.1l-.3.2h-.2v-.1l.2-.2v-.4h.1V13h.1V12.7h-.2v-.1h-.1v.1h-.2l-.2.1v.1h-.1l-.1.1H103.5l-.1.1-.2.2h-.2l-.2.1h-.2l-.6.3-.4.1H101.4v-.1h-.1v-.4l.3-.1.2-.2.2-.1.2-.2.2-.2h.1v-.2l.3-.1 1.2-1.5h.2l.3-.4.7-.4.4-.2h.1l.1-.1.6-.2.8-.5.2-.2h.2v-.1H107l-.2.1h-.2l-.1-.1-.2-.2h-1.1l-.1.1h-.7v-.1l-.1-.1v-.2h-.2l-.3.1-.2.1-.3.3-.2.2H102v-.2l-.1-.1h-.1l-.2-.1-.3-.1h-.1v-.1l-.1-.1V8h-.7v.4h-.1v.1h-.1l-.2-.2v-.1h-.1V7.8l-.1-.1h-.6v-.2h.2v-.1l-.2-.1h-.5l-.2-.2h-1.1v.1h-.2v.2h-.3v.1h-.6l-.1-.3h-1.1V7H94.1l-.3-.2v-.5l-.2-.4-.1-.4V5.3l-.1-.1V5h-.1l-.2-.1h-.6V6H92l-.6.1H89.7l-.6.1H85.6l-.5.1H71.2l-.6-.1h-2.3l-.6-.1H65.9l-.5-.1h-1.2l-.6-.1h-1.1l-.6-.1h-1.2l-.5-.1h-.6l-.6-.1h-1.2l-.5-.1h-.6l-.6-.1h-.6l-.5-.1h-.6l-.6-.1H53.2l-.5-.1H52l-.6-.1-.6-.1h-.6l-.5-.1h-.6l-.6-.1-.6-.1h-.5l-.6-.1h-.6l-.6-.2h-.5l-.6-.1H44l-.6-.1L43 4h-.6l-.6-.2h-.6l-.5-.1-.6-.1h-.6l-.6-.2h-.5l-.6-.1-.6-.1h-.6L36 3h-.6l-.3-.1h-.3l-.5-.1-.6-.1-.6-.1-.6-.1-.5-.1-.6-.1-.6-.1-.5-.1-.6-.1L29 2l-.6-.1-.5-.1-.6-.1-.6-.1-.5-.1-.6-.1-.6-.1-.5-.2H24l-.6-.2h-.6l-.5-.2-.6-.1-.6-.1-.5-.1-.3-.1v.1h-.1V.8l.1.2V1l.1.1v.2l.1-.1h.2l.1.1v.1h-.1V1.8h.1V2h-.2v.4l-.1-.1h-.1v-.1H20V2.5H20.5v.2h.1l.1.1v.1h.2V3.2h-.4v.4l.2.2v.1-.2l-.1-.1V3.1h.2v.4l.1.2.2.2v.1h-.2v.1h-.1v.1l-.1.2h-.2V5h-.1v.1h-.1v.1l.2.1v.2h-.2V6.3H20v.2h-.2l-.1-.1-.1.2h-.1l-.3.3-.2.1v-.1h-.1v-.2H18.5V7h-.1v-.2h-.1l-.1.1.2-.3h-.1l-.3.2h.1v-.1H18l.1-.1h.2v-.1l.2-.3h.2V6l.2-.2v.4h-.1v.3h.1l.1-.1V6.2h.1V6h.2v-.2V6.2h-.1v.1l.2.2V6.1h.2v-.4h.1v-.4h-.4.1V5v.2h.2v-.5.2h.1v-.1h.1v-.1h.2V4.1l-.2-.2v.5-.1h-.1l-.3.3-.1.2h-.1L19 5h-.2l-.3.3-.1.2-.1.1-.1.1v.1h.8-.2l-.5.1H18V5.5h.1v-.1h.2v-.1l.1-.2.3-.2h.1v-.1h.1v-.2h.1V4.3h.1v.1l.1-.2v.5h-.1.1v-.1l.1-.1.2-.2h.1v-.1h.1v-.4h-.1l-.1-.3V3.2h-.2v.4h-.1V3.3H19v.1h-.1V3h-.2V3h-.2l-.1.1-.5-.1h-.1v-.1h-.4v-.1h-.1l-.1-.1H17l-.4-.1-.3-.2-.1-.2L16 2H15.7v-.1h-.2l-.1-.2-.4-.3h-.2V2l-.1.1v.1h-.1v1.1h.2l.1.3v.2h.1V4l.1.2V5.6l.1.2V6.3l-.1.3v.1h.1V6.3H15.5v.2l.1.1h.2l.2.1h-.2l-.2.1h-.2v.2h-.1v-.2h-.1V7.5h.1v.1h.4v.1h.1v.1h.1V8h-.1v-.1H15.4V8h-.1v.6l.1.1v.1l-.1-.1h-.1l-.1.1H15V8l.1-.2-.1.2-.1.6V8.9l-.1.1-.1.1H15.2l.1.2h.6l.2.2h.5V9.8l.2.2h.4-.1v.1h-.2l-.3-.1v-.1l-.1-.2h-.7l-.1-.1h-.2V10v-.2h-.1l-.1-.1v-.1H15v-.1V10.2l-.1.1h-.1v.6l-.2.1.1.2v.2-.1h.1v.1h-.1v.1l-.1.1v.1h.1V12h-.1v-.2.1h-.1v.4h-.1v.1h-.1V13l-.1.1v.2l-.1.1-.1.1V13.9l-.1.1v.2l-.1.1-.1.1v.4l-.1.1V15.2l-.2.4V15.8h-.1l-.1.3v.1l-.1.1v.3l-.2.3V17.3l-.1.2-.1.2-.2.5v.2-.1h.2v.1h-.2l-.1.1v.1l-.1.2h-.1l-.3.5v.1l.2-.1V19h.2v.4h-.1v-.2H12v.1h-.1v.2h-.1v-.2h-.1v.1l-.1.2-.2.5v.1l-.1.1v.1h-.1v.1l-.2.2-.2.3V21.8h.1v.1h.1v.5h-.1v.2h-.1v.4h-.1v1l.1.2.2.2V25h-.1l-.1.1-.1.1v.1l.2.1v.5h.1v.8l-.1.3-.1.1-.1.3h-.1v.2h-.1v.6l-.3.5-.2.2h.1l.2-.2h.1v.1h-.2l-.2.2v.2h-.1V29h-.1v.1l-.2.1v.1l-.1.2-.1.1v.2h-.1v.9l.3.4.1.2.1.2v.1l.1.1.1.1.3.7v1.2l-.1.2-.1.2v1.6H10V36l.2.3v.1h.1v.2l.2.1v.1l.4.8.4.3v.4h.1V38.7h.2v.2l.1.2v.2l.2.2v.2-.1l-.1-.2v-.1l-.2-.2v.2l-.2.4v.1h-.1.2v-.1l.1-.1v.1l.1.1.2.1v.2l.1.1.1.2h.1v-.1l.2.2.1.2.2.1v-.2h.1V40.1h.1v-.5h.2l.1-.2.3.3v.1h.2l.1.2h.1l.2-.1v-.1h.1v-.1h.2v.2l.2.1v.1H15.3V40h.1v.1h-.1v.1H15v.1h.2l.1-.1H15.7l.2.3.1.2v-.1h-.1v-.1h-.1l-.1-.2h-.4v.1H15l-.4-.1-.4-.2h-.5V40h-.1l-.2.1h-.2v.1H13v.2l.2.2v.2h-.1v.2l.2.1v.2h.1v.7h.1v.1h.1v.1l.1.1h-.2v-.1h-.1V42h-.1V42h-.1v-.2H13v-.1H13l-.1-.1v-.4h.1V40.8h-.1l-.1-.1h-.1l-.1.2v.4l-.2.2v.2l.1.1V42.2l.1.1v.5l-.1.2v.1l.1.1v.2l.2.2.1.2.1.1.2.2H13.6v.1H13.9l.1.2.1.3v.5h-.1v.2h-.1l-.1.1H13.3V46.9h.1l.1.1.3.3.1.4v.1l.1.1h.1v.1h.1v.5l.2.2v.1l.1.1V49.2l.1.2h.1l.2.2.1.1v.2l.2.2.1.2.3.1V50.8h.1v.2-.1l-.2.2v.4h.3v.1h.2v.1h.1v.6l-.1.3v.9l-.1.1-.1.2v.1l.2.1.1.2v.1l.1.2h1.1l.1.1h.2l.1.1.3.2H18.5v.1h.1v.1h.6l.2.2h.1l.3.4h.1v.1h.1v.4h.1v.1l.1.1.1.1h.1l.2.2.3.1h.2l.1.2H22l.2.1v.1l.1.2v.2l.1.2V58h-.1v.2h.2l.1.1h.1v-.1h.5l.4.5v.1l.4.3.2.1v.2h.1l.1.2.2.2.3.3.3.7.2.4V62h-.1V62.8v-.1H25.6l.1.2v.1-.2h-.2l.1.1v.5h1.7l.2.1h1.4l.3.1H30.7l.2.1h1.9l.2.1h.2v.1H33v.1l-.2.1V64.3l-.1.1v.1l1.3.7 1.2.6 1.3.6 1.2.7 1.3.6 1.2.6 1.3.6 1.3.7h.1l.2.1.1.1h.2l.3.2.2.1.1.1H44.4l.2.1H45.4l.1.1H46.5l.1.1H47.6l.1.1H48.7l.1.1H50l.2.1h1.1l.1.1h1.1l.2.1h.8V69.5l.1-.1v-.1H55.3v.1h1.4v.1H58.2l.1.1h.7l.1.1H59.4l.1.2.1.1v.2l.1.2.2.3v.1h.2v.1l.2.1.1.1h.2l.2.2v.1h.1v.1h.1l.3.4v.1l.3.2.1.1.1.1.1.1v.2h.2v.2l.3.2.1.2h.2l.2.2h.2v.1h.1v.1h.1l.2.2h.1l.1.1v.2h.2v.1l.1.2v.1l.1.1v.4h.1v.2h.1l.1.1v.2h.1v.1l.1.1V77l.1.1v.2l.1.1v.1l.1.1.1.2v.2l.1.1.2.2v.1h.1l.3.2h.2l.1.1v.1h.1v.2l.2.1.2.1.1.2h.1l.3.2h.5v.2h.1l.2.2.3.2h.2l.2.2.1.1.2.2h.5l.1.1h.2l.1-.1v-.1l.1-.1.2-.1.1-.3h.2l.1-.1h.1v-.5h.1V79l.2-.3v-.2h.1v-.2h.1l.1-.3h.2l.2-.1h.1l.1-.1h.4v-.1l.1-.1v-.1h.1v-.1h.2v.1H72.8l.1.2H74l.6.2h.2v-.1h.1v.1h.4v.1l.1.1.1.2h.2v.2h.2V78.8h.1l.2.1.3.1v.1l.1.2v.1h.1l.3.2.1.1.2.1.1.1v.2l.2.2h.1l.1.1v.4h.1V81.2l.1.1v.1h.1v.1h.1v.1l.1.4v.1l.2.2.1.1v.2h.1v.1h.2v.1h-.1V83l.1.1.1.2V83.7H79.3v.2h.1l.3.2.1.2v.1h.1v.2h.1v.1h.1l.1.1v.1l.1.1v.2h.1v.2h.1v.1h.1v.1h.1v.1h.1v.1h.1v.2h.4l.1.1h.1l.1.2V86.5h.1v.6l-.1.1h.1v.1h.1v.2h.1v.5l-.1.2.1.1h.1v.2l.2.2.2.1v.1l.1.1v.2l.1.2.2.4V90.1h.1l.1.1V90.5l.2.1H83.5v.1h.6l.1.2h.2v.2h.1l.1.1h.5v.1h.4v.1h.1v.1l.1.1.3.2h.5v.1H88v.1h.1v.1l.2.1.1.2H88.6v.1h.2v.1h.1v-.2l.1-.1h.2v-.1h.4v-.5l-.1.1v.2h-.2V91.6H89v-.4l-.1-.1V91h-.1V90.7h-.2v-.2h-.1v-.2l-.1-.1.1-.1v-.3l-.1-.3v-.2l-.1-.2-.1-.1h-.1V88.6l.2.1v-.1h-.2v-.4h.1v-.4h.1l.1-.1v-.5h-1l-.1-.1H87.8V87h-.1v-.2h-.1v-.2h-.1v-.2.1h.2l.2.5h.1l.1-.1h.1l.1-.1v-.1h.1v.1h.1v.1h-.1v.1h-.1v.1h.1l.3-.2.1-.5.1-.1v-.2l.2-.2v-.4l-.3-.1-.1-.2V85H88.2l-.1-.1h.9l.1.1h.1l.3-.4v-.2h.1v-.1h.1V84l-.3.1v.2h-.1v-.1h-.2V84l.2-.1v-.1H89.7v-.1l.1-.1v.2h.2v-.2l.1-.2v.4h.2l.1-.2.2-.1v-.4l-.1-.2-.1-.1h.2v-.1h-.1v-.1h.1v.1h.1v.1h.1v.2l.1.1h.1l.4-.2h.2l.3-.2v-.1l-.2-.1H91.3l.1-.1v-.1h-.1l-.1-.1h-.1V82l-.2-.2v-.2h.2v.1h.1v.2h.2v.1h.2-.1v.1h.2l.1-.2h-.1V81.6h-.1v-.1h.1l.1.1v.2h.1v.1h.1l.1-.2H92.6v.2h.2-.2v.1h.4V82h.2v-.1h.1v.2l-.6.3-.1.1.3-.1.2-.1.2-.2h.3l.2-.2.4-.3H94l-.2.1-.4.3v-.2l.4-.2h.5l.2-.2.3-.2.3-.2h.1l.2-.2.2-.2.3-.3v-.6l.1.1h.1v-.1l.3-.3.1-.1h.1v-.1h.1V79h.2-.1l-.2-.2h-.1v-.1l.1-.1-.2-.1h-.1v-.6h-.1l-.1-.1H96.4l.1.1h.2v-.2l.1-.1.2-.1h.2v.7l-.1.1H97v.1h.2l.5-.2h.1v.1h.2v.1H97.7l-.1.2H97.2l-.2.3v.1h.1l.2-.2 1.1-.6.4-.2.3-.2H100v-.2l-.2-.2V77l.2-.4v-.1h.2v.5h-.3v.4h.1v.1h.2l.1-.1.2-.1h.7l.1-.1H101.7l.2-.1h.7l.3.2h.4l.1.2h.2l.3.2H104.6l.5.1h.2l.3-.2h.3v-.1h.2v-.1H105.7l-.1-.2h.1-.2v-.1h-.1V77h.2l.1-.1.3-.1v-.1H106.5v-.1h.2v.4h.2l.4-.1h.1v.4H107.6V77.8h.6v.1H108.6v-.1l.1-.2v-.1h.1v.2l-.1.1V78h.1v.1h.1l.1.1.2.2V78.8h-.1V78.3h-.2v-.1h-.1v.1h-.1v.1h-.2v.1l.2.1h.2l.4.1v.1h.2v-.1h.2v.1h.2l.2.2V79h.1v-.1h.2v.2H110.7V79h.1V78.6h.2v-.4l.2.1h.1l.1-.1v-.1h.2V78.6h.1v-.2h.1l.1.2h.2v.4h.1v.1H112.4v-.1h.1v-.1h.1v-.6h.1v-.5H112.3l-.1-.1-.2-.1v-.2h.2v.1h.1l.5.2H113.3v-.1h.2v.2h.1v.1h.1v.2h-.2H114v.2H114.4l.2.1h.1l.2.3v.2h.2l.1-.1v-.2.1h.1V79h-.1v.1l-.1.2h-.1v.2h.1l.1-.3V79h.1l.1-.1v-.1h.1l.1.1.2.2V78.8h.1v-.1h.2v-.2h-.1v-.1h.2v-.1H115.7l-.2-.1h.1V78h-.1v-.1h-.1v-.1h-.1l-.1.1-.1-.1H114.8v-.1h-.6v-.2l-.1-.1h-.1l-.2-.1h-.1V77l-.2-.1v-.1h.3v-.1h-.1v-.1h-.1v-.1h.2l.1.1H114.3v.1h.1l-.1-.1H114V76.3h.2v-.1l.1-.1V76h.2v.1H114.9l-.1-.1v-.2h.1v-.1h-.2v-.1h-.1v-.1h.1v-.1h-.2v-.2h.2v-.1H114.2l-.1.1h-.1v.1h-.1v.4l-.1.1H113.6l-.1-.1v-.1H113.1v-.1l-.1-.1v-.1h.4v-.1l.1-.1V75l.1-.2h-.2v.1l-.1.1v-.2.1l-.1.1h-.2V75h-.2l-.1.2-.2.2h-.4l-.1.1H111.4l-.2-.1-.1-.1v-.4l.2-.3.2-.3.1-.1H112.3l.1.2.2.1H112.9l.2.2h.2v.1h.7v-.1H114.4v-.1h.1v-.1l.3-.3V74h-.1V74H115v.1h.2l.2-.1.3-.1.2-.1H116.1v-.1h-.4.1l.1-.1h.3l.3.3H116.8l.1-.1.1-.1.1.1h.5v-.1l.1-.1h.6v.1h.2V73h.1v-.5h.1V72.1v.1h.2l.1.1.1.3v.5l.1.1v.1H119.6v.1l.2.2v.1l-.2.1H119.1l-.2.1v.1h.3l.4-.1.4-.1.2-.1V73.5h.2l.2-.1v-.1l.2-.2V73h-.1.2v.1l-.1.1v.2h-.1v.1h-.1v.1h-.1v.1h.1l.4-.2h.1v-.1h.1v-.2l.2-.1V73l.1-.2V72.4h.1v.1h.1V73h.1v-.2l.1-.3v-.1l.1.1h.1v.1h-.1v.1l.1.2H122.6h-.1l-.2.2H121.9l-.2.1v.1h-.1.4l.5-.2H122.8v-.1h.7v-.1h.1v-.1h.1v-.1h.1v-.2h.2v.2h.1l.1-.1h.4v-.1H125v.1l.1.2h-.6v.1H123.7h.4l.6.2h.4l.4.2.3.1.5.2v-.2l-.1-.1H126V73h.2v-.1h.1v.2h.2V73h.2v-.2h.1l.1.1-.2.2h-.1l-.1.2.1.1h.2l.1.1H127.3v.2l.1.1v-.1h.2v.1H127.1l-.1-.1-.3-.1h-.2l.2.1.5.3h-.2v-.1.1l.5.2.1.1.1.1.1.2v.3h.1v.1h-.2v-.2h-.1v-.4h-.1v.3l.1.3h.5l.4-.2h.4v-.1h.2v-.2h.2v.2-.1h.1l.2-.1.1-.1.2-.2.2-.1.1-.2h.2l.1-.1h.4v-.2h-.4v-.1H131V73.1h.2V73h.2V73h.5l.2-.1.2.2.4.1H132.9v.1h.1l.2.1v.1l.2.1v.1h.1v.2h.1v.1h.1v.1h.2v.1H134.3v.4l.1.1.1.1.2.2H135v.1l.2.1v.2h.1v.1h.2l.1.1v.1h.1v.1h.8v.1h.1v.1l.2.2v.2h.1v.1l.2.2h.1V77h.1v.1h-.1v.1h.1v.4h.1v1l-.1.4V79.4h-.1v1.3-.2.4l.3.3v.1l.1.1h.1V81h-.1l-.3-.2v-.1l.2.1.2.2.1.1h.1V80.8l.1-.1V80.4h.1-.4l-.1-.1.1-.2V80l-.1-.1h.2l.1.1v.1h.2V80.5l.1.1h.2V80.2h.1l.1.1v.2h.1v.2h-.1v.2h-.1v.1h-.1v.1l-.1.1V81.6h-.1v.2h-.1.1v.1h-.2v.1h-.1l-.1-.1v.2H138l.1.1h.1l.1.3h.1v.4h.2v.1l.1.2v.1l.5.6v-.1l.2.4h.5v.1h.1V84h-.1v-.1l-.1-.1h-.1l-.2-.2.2.1h.1l.1.1h.1v-.1h.2l.2-.1v-.1.1l-.2.2v.1l.1.2v.6l.1.2v.2l.2.1h.2V85l.1-.3.1-.2.1-.1h.2v-.1.1h-.1v.1l-.2.2v.2l-.1.1-.1.1h-.1v.2h.4v-.1l.1.1v.1l.1.3.1.2v.1l.1.3.1.3v-.1l.1.2h.1l.1.1v.1h.2v.2h-.2v.1H142.3v-.1h.5v.1h.4l.1.1h.1v.2h.1v.2h.2v.2l.2.1v.2h.2v.2l.1.1.1.2v.1l.3.1H144.8v.1l.3.2v.1l-.1.1h-.1l-.3-.1-.1-.2h-.1V89h-.1v.5l.1.2h.8v-.2h.7v-.1h.1v-.1h.2V89H146.6v.1h.2v.1-.1h-.1V89h.1l.2.1-.1-.1v-.2l.2-.3V87.1h.1l.1-.1v-.5l.1-.2v.4l.1.1-.1-1V84.4l-.1-.5V83.3l-.1-.1V83l-.2-.3h-.1v-.4l-.2-.2V82h-.1v-.1h-.1v-.1l-.2-.1H145.9v-.1H146.3v.1l-.6-1.1-.3-.5-1.4-2.2-.2-.3-.1-.2-.2-.4v-.2l-.2-.2v-.1l-.1-.4.2.1h.1v.5h.6v.2l.1.2v.4l.1.7v.1l.2.3.3.3v.2h.1v.1l.2.1v-.1l-.4-.4v-.1h-.1v-.2l-.2-.3V77.9h-.1v-.5l.1-.2V77l-.2-.2-.2-.4-.2-.2-.3-.3-.6-.6v-.1l-.1-.1V75l-.4-.5-.4-.6-.2-.4-.2-.2v-.2h-.1V73l-.1-.2-.1-.2h-.1V72.4h-.1v-.2l-.3-.4v-.3l-.2-.2-.2-.5V70.5l-.1-.2-.1-.1V70h-.2v-.2l-.1-.2h.1V70h.1v-.6H139.6V69l-.1-.1V68.5l.1-.1v-.1h-.2l.1-.1V68h-.2H139.7v.2-.4.1h-.2v-.1h.1V67.5l.1.1v.1h.1l.1-.2.1-.2h.1V67h-.5l-.2-.1v-.1h.6v-.1l-.1-.1v-.1.1h.1l.2-.5v-.1h-.1l-.2.2v-.1h-.1V66h.2l.1-.2h-.1v-.1h.1l.1.2.1-.3v-.2h-.1v.1h-.2v-.2h-.2v-.1h.5l.1-.2V65h-.3v-.1l.2-.1-.1-.1h.5l.1-.1h-.1v-.2h.1l.2-.1v-.1h-.1l-.1-.1V64l.1-.2v-.2l.1-.1v-.2.4l.2-.1.1-.2v-.2h-.1l-.2-.2v-.2h-.1v-.2l-.2-.1V62.1v.1h.1v.1l.1.2.1.2.3.2v-.5l-.1-.1h.1v.3h.1v.4H141.8l.3-.3V62.4v.1h-.2v.1h-.1l.1-.1.1-.1v-.1h-.4l.2-.1h.1l-.1-.1h-.5.4V62l.2.1H142.2V62h.1v.1h.1l.3-.3-.2-.2h.2l.1.1h.1l.1-.1h.2l.1-.1v-.1l.2-.1.1-.2v-.2h-.2v-.1h-.1.1v-.2h.1v-.1.2h.1v.1H143.9l.1-.2v-.2h.2v-.1l.2-.2V60v.1h-.1V59.7l.1-.1.1-.1h.1v.1H144.9v-.2h.1v-.2h.2V59h-.1.2V59h.1v-.1h.1l-.1-.1v-.1h-.2l-.1-.1V58h.2l-.1.1V58.4h.1v.2h.1v.1-.7l.3-.5.2-.5.2-.3.3-.3.3-.3h.2v-.2l.3-.1.2-.1v-.2h.1v.1h1l.1-.1v-.2l.1-.2v-.4l-.1-.2v-.1.1l.1.2.1.4v.2-.7l.1-.2v-.2l.1-.1.2-.3.1-.3.3-.4.3-.2h.1v-.2h-.1v-.1h-.1v-.1h.1V52.1h-.1V52h.1v.1l.2.2-.1.2h.1v.1h.2l.1-.2.1-.2h.1V52l.1-.1v-.2l.1.1v.1l.5-.2v-.1h.7v-.1l-.1-.1h-.1l.1-.1h.1v.1h.1l.1.1v-.4l.1.1v.1h.2v-.1h.1V51h.1v-.2h.2V50.5h.1v-.1h.1v-.1h-.1l-.1-.1h-.1.1v.1l-.1.1-.2.2-.1-.1.1-.1v-.2l-.1-.1V50.5H152v.2h.1-.2v-.1h-.1l-.1.1v.1h-.1v.1h-.7l-.2-.2v-.1l-.2-.1-.2-.2h.1l.2.2h.1l.2.1h.1l.2.1h.2l.1-.2.2-.2v-.1h.1V49.8h-.2l.1-.1h.2v-.1h-.1.2V49.3h-.1l-.3-.1h-.7v-.1h-.2l-.1-.1H150.4V49h-.1l-.1-.1H150.5l.2.1H151.8v-.1h-.1v-.2h-.1v-.2h.5-.1l-.2.1v.2h.2v.2h.2V48.6h.1v.2h.1v.2h.1v-.2h.2v.1h.5v-.1l.1-.1V48.4h.1v.1-.1h.1V48.1h.1l.1-.3v-.1h.2v.1h.1v-.1h.1V46.8h-.1v-.1l-.2-.2-.1-.1h-.2.1v.1h-.1v.1h.1v.1h-.2v-.1h-.1v.1h-.1l.1.5v.5-.1h-.4.2l.1-.1v-.1l-.1-.1h-.1l-.1-.1h.1V46.7v.1-.2h-.5l-.2.1-.1.1h.1v.1H151.9l-.2-.1h-.1l-.2.2h-.1l-.5.1.1-.2v-.1h-.1v-.1l-.1-.1v-.1l-.1-.3v-.4h.1v.7l.2.2h.7v-.2l.4-.2h-.2l-.1-.1h-.2V46h.1l.1.1h.1l.4.1h.1l-.2-.2h-.1v-.1h.1l.1.1h.4v-.2h-.1l-.1-.2H152v-.2h.2v.1h.1v.1h.2l.1.1h.4-.2V45.3h-.1v-.1h.1v.1h.1v.1l.1.1h.1V46h.2v.1h.1v-.2l-.4-.4v-.1l-.1-.2v-.2h-.1v.1h-.2v-.1l-.1-.1-.1-.2v-.1l-.1-.1h.1l.1.1v.1h.2V44.2h-.1v.1l-.1-.2v-.4l.2.3v.2h.1v.2l.1.1v.1h.1v.1l.2.3v.2l.2.1v.2l.2.2v.2h.1l.1.1v.1l.3.3.1.2h.1v.1h.2l-.2-.1v-.2l-.7-.7-.2-.4-.1-.1V45l-.2-.2-.2-.6v-.1l-.5-.7-.2-.3V43H151.4l-.1.1v.2l.1.1h-.1v-.1H151l-.1.1h-.1v.1V43.2l-.2-.1h-.1V43h-.2l-.1-.1v-.3l-.2-.2v.1h-.9v-.1l-.1-.1H148.1v-.1h.5l.1.1.1-.1h.2v.1h.2v-.2h.1v.2H149.8v.1h.1l.2-.1h.1l.1.1v.2h.2v.1l.4.2.1.1h.1l.1-.1h.1l.1-.1V42.6h-.2l.1-.1-.1-.1h-.2v-.2h-.5l-.2-.2-.3-.1v-.1h-.1l-.1-.1-.2-.2-.1-.1h.2l.1.2h.2l.3.3.1.1h.5v-.1h-.2l.1-.1-.1-.1V41.3l.2.2h.1l.2.1v-.4h-.1V41h-.4V41h.2v-.1H150.4v-.1h-.4l-.1-.1-.1-.1v-.1l-.2-.1h-.1l-.1-.1h-.2l-.1-.2V40h-.2l-.1-.1v-.1h-.2V39.4h-.1l-.1-.1H148.2v-.1h-.2v-.1h.2v.1H148.6l.1.1.1.2.2.1v.1h.3v.2l.2.1h.1l.1.1h.1l.1.1.2.2.1.2h.1v-.2l.1.1h.1l.2.1h.1V40l-.1-.2h.1V39.6h-.1l-.3-.1H150v-.1h-.2v-.2h-.2V39h-1.2v-.2h-.1l-.2-.2V38.2h-.1l-.1.1h-.1l-.1.2h-.5.1v-.1l-.2-.1h.1V37.5H147.6v-.2l.1-.1h.1V36.5l-.2-.1h.2V36.8l.1.1v.2l-.1.1v.1l-.1.2h-.1v.2l-.1.1v.1l-.1.1v.4h.1l.2.1.1-.1V38v.1h.2V38h.1v.1l.2.3.3.2h.1v-.2l-.1-.2.2.1v.2l.1.1.1.1h.7v.2H150v-.2.1l.1.1h.2l.2.2V38.7h-.1l-.1-.2h-.1V38.2h-.4l-.1-.2h-.3v-.2h-.2v-.2h-.1v-.2l-.2-.4.3.6.3.2h.2v.1h.1v.1h.2V37.8h-.1l-.3-.3v-.2l-.1-.2V37l-.1-.1-.1-.2v-.4h-.1v-.1h.1V36h-.1v-.2l.1.1h.1v-.1l-.2-.2h-.2v-.1h.1l.2.2v-.1h.1v-.1l-.2-.1h-.1v-.1h.2v-.1l-.1-.2h-.2V35h-.2v-.1h-.1v-.1H149v.1h.4-.2v-.1h-.1v-.2l.1.1h.1l-.1-.1h.1v-.1h.1v-.2h-.2l.2-.1.1.1v.2l.1-.1v-.5.2l.1.1h.1l.2-.2v-.5l.2-.1v-.1h.1v-.1.5l.2-.2v-.1l.1-.2v.4h.1-.2v.1h-.1l-.1.2v.1h.5-.2l-.3.1h-.3v.2l-.1.1v.4l-.1.2v.1h.1v.3h.1V35h.2V35h.2l-.2.2v.4h-.4l-.1.1v.4h.1V36l.1-.1v-.1H150.2v.1h.2v.1l-.1.1v.2h.1v-.1h.1v.1H150l-.1-.1h-.1v.1l-.1.3v.2h.1v-.4.2h.1v-.2h.1v.2l.1.1v-.1h.1v.1h.2-.1v.1h.2l.1.1h.1l.1-.2v.2l-.1.1h-.4v-.1h-.2l-.1.1v.2h.1l.1-.1h.1v.1l-.1.1v.2h-.2v.2h.1l.2.2v.2h.1V37.8l.2.2h.2v.1l.1.2.1-.2V37.7h.1V38.2l.1-.2.1-.2v-.1h.1v.5h.2v.1h-.2v.4-.1h.2l.1-.1h.1-.1V38.8h.1v-.1h.1l-.1.2h-.1v.4h.2V39l.3-.1h.1v.1h-.2v.2h.2V39.7h-.2v.5l-.1.1h-.1V40.6l-.1.1h.1v.1l-.1.2h.1v.1l-.1.2V42l.2.2v.1h.1V41.8h.1v.1h.1v-1.1l.3-.2h-.1v-.1l.1.1h.1v-.2l.1-.1v-.5l.1-.5.1-.2v-.6l.1-.2v-.1h.1V38l.1-.1V37.7h.2v-.2h.1V37.1h-.1V37h-.2V37h.2v-.1h.1v.3h.1v-.5l-.1-.1V36.3h-.1v.1h-.2l-.1.1h-.1v-.1l.2-.1v-.1h-.1V36h.2v.2-.6h-.4l-.2-.2h-.2v-.2h-.1V35l-.2-.2-.1-.1v-.1l-.1-.1v-.4h-.1V34l-.1-.2h-.2l-.2-.3h-.1v-.1h-.1V33l-.2-.1v-.2h.1v-.1l.1-.2v-.2l.2-.2V32h.1l.2-.2h.1l.1-.1.2-.1V31.3h.1V31h.1v.3h-.1V31.7h-.2l-.1.1h-.1l-.1.1-.2.1v.1l-.2.1v.5l-.1.1v.2h.1v.4h.1l.1.1.4.3h.2v.1H152.7l.1.1v.1h.1v.1h.1l.1-.1h.7v.2l-.1.4V35H154v-.2h.1v-.2l.1-.1v-.1l.1-.1v-.1h-.1.1v-.4h.1l.1-.3h.1H154.2l.1-.1h.2V33h.1v.2l.2-.1V33h-.1v-.2h.1V32.5l-.1-.1H155V32l.1-.1v-.1h.1V30.2h.1v.4l.1.7v-1.2h-.1V29.4l-.1-.5-.1-.1v.2h-.8V28.1h.1V28h.1v.1h.1l.1-.2V27.5l.2-.3V26.7l-.2-.3v-.2h-.1V26h-.1v-.4V26h.2l.1.2v.1l.1.3V27.8 27.5h.1l.1-.1h.2V27l.1-.2.2-.1V26.5h.2v-.1h.1v-.1h.1l.1-.1.2-.1V26h.1v-.1h.2v-.1l.2-.2h.2v-.1h.1v-.1h.1v-.2l.2-.1V25v.1h.4l.1-.1h.2l.2-.1h.2l.1-.1H159V24.4h-.1v-.1h.1v.2H159.3l.1-.1H159.7v-.2h.2l.2-.1H160.3l.3-.1.4-.3H161.3v-.1l.1-.4V23l-.2-.1v-.1h.1v-.2h-.2v-.1h.2V22.2l-.1-.1V22v.1h.1v.1h.2v.2h.2v-.2h.1v-.1l.1-.2V23h.1v.2l.2-.2v-.1h.1v-.1h.1v.1h.1l.1-.1.1-.1v-.4l.1.1h.1v-.2h.1V22h.1V21.7h.2V22.2l.1.3v.2l.2-.2h.2l.1-.1v-.1l.1-.2H164.4v-.1h.2v-.1h.2l.1-.1.4-.2h.1V21h-.2v-.2h.1l-.3-.5-.3-.2h-.5v.1l.1.1h.1v-.1h.2l.1.1v.2h.1v.2-.2h.2v.1l.1.2v.2l-.1.1h-.1l-.2.2-.2.1-.2.1h.1-.4l-.2-.1h-.2V21l-.1-.1H163l-.2-.1v-.2h.2v.1-.2h-.1v-.1l-.2-.1v-.1h-.1v-.1l-.1-.1H162.3l-.1-.1-.2-.1v.1h.1v.1h-.1v.1-.1h-.2V20h-.1v-.1h-.1.1v-.1h.1V19.4h.1v-.2h.1v-.1h-.1V19l.2-.1.3-.2v-.1h.1v-.1h.1v-.1h-.1v-.1h-.1v.2h-.3v-.1h-.1v-.1l-.1-.1.1.1-.1-.2V18h-.2.1v-1.2h.1v-.2h.1v-.8h.2l.1-.1v-.1h.1V15.3h.1-.1V15h.1V15h.1l.1-.1v-.2H162.3h.1v-.4l.1-.1.2-.3h.1v-.2h.1v.1-.1h.1v.4-.4h.1v.4-.1l.1-.2v-.2h.1V14h.1v.2h.1v-.5l-.2-.4h-.2l.1-.3.1-.1v.5h.1v.2l.2.2v.1h.1V13.5v.1-.1h-.1v-.6h.1v-.1V13.2h.1V13.5h.2v.1V12.7v.5h.1v.1-.2l.1.1V13l.1-.1v-.2h.1v-.1.1h.1v.1h.1v.1h.1l.1-.2v.2h.1v-.2h.2v-.2l.1-.1V12h-.1v-.7l.1-.1V11h-.1v-.1l.1-.1.1-.1h.1v-.4h.2V11v-.2h.2-.1v.2h-.1V11.3l.2-.2.1.1h.2l.3.1h.1l-.1-.1V10.8h-.1v-.1h-.1.1v-.2h.1v.1h.1v-.2l-.2-.1h.2v.2h.1l.1-.2h.2V10h-.1V10h.1l.2.2V9.8v.2h.1V10h.1v.2h.1v.1l.1.1.1.1v-.2h.1V10l-.1-.1v-.1h.1v.2h.1v-.2.1l.1.1v-.2h.1v-.2h-.1v-.2h.1v-.1h.1v.2-.2h.1v.1l.1.1.1-.2H168.9V9h-.1V9h.4l-.1-.1.1.1h.1v-.4h.1v.1h.1v.1h.2-.1.2v-.2l.1-.2v-.1h.1v-.1h.1V8h.1zm-47.5 4.6v.2h.1v.1h.1v.1h.1l-.1-.2v-.4l-.1-.1-.2.1v.2zm.3.4h-.1v.2l.1.1h.1V13h-.1zm-.5 1.3v.1h.2-.1zm-6.5-1h.1v.1h.2-.1V13h-.1v.1zm3.5 2.4v.1h-.1v.4h.2l.1-.1v-.5h-.2v.1zm.2-.2v-.1h-.1.1zm2.5-.5h-.1v.1l.2.1.1.1h.2l.1-.2h-.1v-.1h-.4zm1.7-.8h.2v.1h.8V13.8l-.1-.1v-.1l-.1-.1h-.4.1v.2h-.1l-.1.1-.1.1h-.2zm-15-5.2h-.1v.2h.1l.5-.2h.2-.3l.1-.1.7-.4h.1l.1-.2V8l.3-.2v-.1h-.2l-.2.1-.2.2-.2.1h-.2v.1l-.1.1h-.2l-.3.3-.3.2h.1zm9.4 9.4h-.1v.1h.1v-.1zm-7.7-7.1V11.5h.3l.1.1h.1V11.2v.4l.1.3.1-.2v-.2h.2v-.2h.1v-.2h.1l.1-.1.1-.2h.1v-.1h.1l.2-.2-.1-.1h-.1.2l.1-.1H112.6l.2-.1V10H111.6l-.2.2h-.2v.1l-.3.2-.3.4-.1.1zm8.2 5.5v.2h.1v-.1h-.1zm9.2 10.9V27.9 27.6zm-9.4-9.4V17.8h-.2v.2h.2zm-3 56.1v.1h-.2.1v.1h.1v-.1zm-1.1.6zm1.8-.6h-.1zm1.2 0h.2-.2zm-.4 0h-.4.6-.2zm-1 .1h-.1.1zm35.8-22.7l-.5.1-.5.2v.1l.7-.3.5-.1h-.2zm-1.8 1l-.1.2h-.1l-.4.4v.2l.2-.4h.1l.3-.2v-.1zm-1.4 2.8h-.1v.1h.1l.1-.2v.1zm3.8-3.8h-.3.2v.1h.1zm-3.6 2.7V54.7 54.4zm4.7-4.5v.1l-.1.2.2-.2zm-.4.6v.1l-.1.2-.3.4-.2.6v.2-.1l.3-.7V51h.1l.1-.1.1-.2v-.1l.1-.1zm1-4h-.2l.1.2h.1v.1h.1v-.2zm.9 1.1v-.1l-.2-.2V47l-.1-.1h-.1l.1.1v.1l.2.3V48.4l.1.2v.2l-.2.1-.2.2h-.1v.1l.2-.1.2-.1h.1V47.5zm-1 1.9l-.1.1h-.1v.2h-.1l.3-.2.2-.2.1-.1-.3.2zm1.4-18v.1l-.2.6v.1-.3l.2-.2V31.5zm-.5 1.2v.2h-.2.2l.1-.1v-.1h-.1zm5-8.2h.1v-.1h.1-.2v.1zm-13.7-8.4v.1h.1l.1-.1v-.2l-.1.2h-.1zm12 10.7l-.1.1-.1.1h-.1l-.1.1-.1.2-.2.1-.3.1-.1.1h-.2.4l.3-.2v-.1h.1l.2-.2.2-.1v-.1h.2zm2.2-1.7h-.1v.1h-.1l-.1.2h-.1v.1h-.1l-.2-.2v.2h-.2l-.1.1h-.1l-.1.1-.1.2v.1l-.1.1h-.2l-.1.1h-.1V26l.1-.1v-.1h.1l.1-.2.1.1v-.2h.1V25.2l.1-.1h.2V25H159v.2l-.2.1v.2h-.2l-.2.3-.4.2h-.4l-.5.2v.1h-.1v.1h-.1l-.1.1h-.5v.1H156v.1h-.2l-.1.1-.1.1v.2h-.1V27h-.1v.1h.1v.1h-.1v.1H155.2v.1h-.1l-.1.1v.3h-.1v.2h-.1v.1h.1v.2l.2-.1h.1l.1-.1-.1-.1.1-.1H155.7l-.4.3.4-.2h.5V28H155.8h.2l.3-.3h.3l.1-.2h.2v-.1H157.3v-.2H157.6V27h.1l.2-.1h.1v-.1h.2v-.1l.4-.2-.1.1.3-.2h.2V26.2h.4l.1-.2.3-.2.1-.1.2-.1.2-.1.3-.3V25zM146 17.4v-.1l-.1.1v.2l.1-.1v-.1zM157 27.6h-.2l-.2.1-.4.3.5-.2.1-.1.2-.1zm-2.6 1v.2l.3-.3V28.2h-.2l-.1.1v.2zm-15.4-6h.1l.1-.2h-.2v.2zm7-6.2l.1-.1h-.2v.1zm15.5 6.6V23.4 23zm.4 0v-.4l-.1-.1-.1.1v.5l-.1.2h.1v-.1h.2V23zm-.6 1.5v-.1h-.1v.2h.1v-.1zM145 59.4v.2-.2zM91.8 82.9v.2H91.4l-.1.2h-.2l-.2.2-.1.1h-.1l-.1.1h-.1v.2l-.1.2.1-.1.2-.2.4-.2.2-.2.2-.1.2-.1V83zm-1.4 1h-.1v.1h-.1l-.2.4V84.8l-.2.2v.1-.1l.2-.2.1-.2.3-.3V84zm1.9-1.3H92l-.1.2h.2v-.1h.1v-.1h.1-.1zm4.6-3.5v.2h-.1l-.1.2h-.1v.1h-.1l-.3.2v.1l-.1.1v.1l.5-.4.1-.1.5-.4H97V79zm-8 10.3V89.7l.1.3.2.2v.4l.1.1v.1l.1.8h.1V91l-.1-.1v-.4h-.1v-.1l-.4-1.2-.2-.7v-1 1.6h.1V89.5zm.8-4.3v.1l-.2.2-.2.5h-.1l-.1-.1V86.2l-.1.1v.1l-.1.2v.2l-.2.2v.5-.2l.2-.3.1-.5.3-.6.4-.7zm62.8-43.3h.1v-.2.2h-.1zm.2-.9v.2-.2zM19.1 6.7H19V7h.1l.1-.1v-.1zm.7-1.4v.1h.2v-.5h-.1V5h-.1v.2zm.1.8v.1h.2v-.4H20v-.1h-.1v.1l-.1.3v.1V6h.1zm-4.7 2.4v.2l.1-.1v-.2zm3.6-2.2h-.2V6.7h.1V6.2zm1.4-4.6H20V2h.1v-.1zm0 .3h.2v-.2h-.1V2zm.2-.6zm-.7.9V1.6h-.1V2h-.1V2.2h.2zm.6.2H20l-.3.4v.2l.1.2h.1V4h.1V4h.2v.2h.1v.1h.1v-.1h.1V4l-.2-.2v-.1l-.1-.1V4h-.1V3H19.8V3h.1v-.1h.1l.1-.1h.1V3h.1v-.4h-.1zm-.1-.9v.1zm.1-.2v-.2V1.6h.1v-.1zm-1-.2h.1-.1zm.1.5h.2l-.1-.1h-.1zm-.4-.4h.1zm0 0v-.1h-.1V1v.1zm0 .1V2h.1V2h.2v-.1l.1-.1-.1-.1v-.1h-.1v-.1l-.1-.1zm.9.5h-.1V2zm-.2 1.7v.1h.1v-.2.1-.1h-.1zm-.2-2.3h-.1v.2h.1v.1h.2V1.3v.1l.1.2h.1l.2-.1-.3-.3h-.1l-.2.1zm0-1.2zm.2 1h.1V1zm95.9 16.8h.1v-.2h-.2v.1h-.1v.2l-.1.1h-.1v.1h-.1l-.1.1V18.7h-.1l-.1.3-.1.1V19.3l.1.2h.2l.2-.2v-.1l.1-.1v-.5h.2v-.7zm.4-.6h-.2v-.1.2l-.1.1H116v-.1zm-10.6-4.6h-.2l-.1.1H105.4zm.3-.5h-.1v.2h.1v-.2zm-1.5.5h.1v-.1zm1 .4h.1V13h-.2v.1l-.3.2v.1H105.1v-.2zm-.2-.3v-.1h-.2v.1h.1zM42.6 93.8h.1-.2v-.1h-.2v.1h-.1v.1h.1v.2h.1l.1-.2h.2v-.1zm.3 0zm0-.3v-.1h-.1v.1h-.1l-.2.1v.1h.2v-.1h.2zm0 .3zm.2 0zm.4.2h-.1.1zm-.2 0v-.1h-.1.1zm-1.7-1h.1zM42 94V94h-.1v.2h-.1v.2h-.1v.1l-.2.2-.1.1v.2H41.7v-.4l.2-.2.1-.2.1-.1H42zm.8 1.4v.1zm-1.3-2h.1v-.1zm-.2 1.1l-.1.1v.1l.1-.1zM42 93zm-.4 1.1h-.1v.1h.1V94zm2-.3v-.1l-.1.1zm.8.5v.1l-.1.1v.2-.2l.2-.2zM55 99v-.1h-.1V98.5l-.1-.1V98h-.1V98h-.1v-.2h-.1v-.2h-.1v-.2h-.1v-.1H54V97h-.2V97h-.2v-.1h-.2v.4h-.1l.1.1h.2v.2h.1v.1h.2v.2h-.1v.1h.1v.2h.1V98l.1.1v.1l.1-.1v.2-.1h.1v.1-.1h.1v.5h.1l.1.1.1.1h.1v.1zm-1.1-3.6h.4-.2v-.1h-.2v.1zM43.6 94zm10 3.7v-.2h-.1l-.1-.1h-.1v.2h.1v.4h.2V97.6zm3.2.4H56.5v.2l.2.1h.1V98zm-1.1.9V98.6h-.1v-.1h.1-.1v-.4h-.1V98h.1V97.7h-.1v.2h-.1v-.2h-.1v-.1H55h.1-.2v.1h.1v.1h-.1v.2h.2v.1h.1v.1h.2V98.7v-.1h-.1v.4h.1v.2h.1v.1h.1V99h-.1V98.6v.1h.1v.2h.1zm.2-.7h.1v-.1h.2V98h.1V98l-.1-.1H56v-.2H56l-.1-.1h.1l.1.1h.1v.1h.1v-.4l-.1-.1H56v-.1h-.2v.1h-.7v.1l.1.1h.2v.1h-.1v.1h.2v.2l.1.1V98.4h.2zm-.3 1.1h-.1v.2-.1h.1v-.1zM43.9 94zm10 1.5h-.1v-.1h-.2v-.1V95.7h.1l.1.2v-.2.2l.1.1v.1l.1.1v.2h.1v.1l.1.1v.1h.1v.1h.2-.1v.1l.1.1h.2-.2v.7h.2v-.2h.1v-.1l.1-.1V96.8h-.1H55.2v-.2h-.2v-.1h.1v-.1l-.1-.1h-.1v-.1l-.3-.2V96h-.1V95.6h-.1.1l.1.1v.2h.2v.2h.1l.1.1.1.1v-.1l-.1-.1V96l-.1-.1-.1-.2h-.1l-.2-.2v-.1H54l-.1.1h-.1zM41 94.6v.1h-.2v.1h.1l.1-.2zm2.7-.6h-.1.1zm9.6 3.3v-.4h-.2v-.2H53 53.4l.2.1.2.1H54v-.2l-.1-.1v-.1l-.1-.1h-.1v.1h-.5v-.1H53v-.1h-.1.4l.3.1h.2v-.1h-.1l-.1-.1h.2V95.8h-.5l-.1.1v.2H53h.1-.1V96h.1V95.7h-.4v.1h-.1v.2h-.1V96h-.1v.2l.1.1.2.2h.1-.1l-.2-.1V96.8h.2l.2.1v.1h.1-.1v.1l.3.1v.1H53V97v.1h.1v.1h.2zm-9-3zm8 2.1v-.1h-.1v.2h.1v.1-.1zM38.7 96v.1-.1zm-1.4 3.3h-.1V99H37l.1-.1v-.2H36.8v.1h-.1v.1h-.1v-.2h.1l-.2-.1h-.1l-.1-.1v.1h.1v.2-.1h-.1V99.2 99h-.1v-.1h-.1v.1h.1v.1h-.1v.2l-.1-.1V98.9H36v-.1h-.1l-.1.1v.2h.1l.1.1v.1h-.2v.1h.1-.1V99.8l.1.1.1.1H36v-.2h-.1v-.2h-.2v-.2h-.1v-.1h-.2v.2H35v.1l-.1.1v.2h-.1v.1h.1v.1h.1v.4h.1l.1.2h.1l.1-.1V100.1h-.1v.1h-.2v-.1h.5l-.1.1v.1l.2-.2h.1-.1v.1l-.1.1v.1l.1-.1v.2h-.1l-.1.1v.2h.1v-.1h.1v-.1h.1v-.2h.2-.1v-.1H36l.2-.1v-.2.1h.1v-.1h.1v-.1h.4v-.1h-.2v-.1h.2v.1h.2v-.1h.1v-.1h-.1v-.1H36.5h.1v-.1H37v.1h.2l.1-.1.1-.2h-.1zm-1.5.2v.1-.1zm1 .6h-.5V100.5h.1v-.1h.1l.1-.1h.1zm4.2-6V94zm-4.1 4.5h-.1v.1zm-.7 0l-.1.1.1.2h.2v-.1h-.1l-.1-.1zm0 0h.2v-.1h.1v.1h.2-.1v-.1h-.1l-.1-.1h-.1v.1zm-2.2 3.8v.1h-.1v.1h.1v-.2zm-.6-2.7zm-.5 2.4zm0-.3v.1zm2.6-.8h.1zm0 .2h.1H35.2v.1h.2zm-.3 0H35v.1h-.1v.2l.1-.1h.1v-.2h.1zm1.9-2.5h.1-.1zm-1.5 2.6h.1zm5.2-7.9v.1h.1v-.1h-.1zm.2-.1V93h-.1v.1zm0 1.3v-.2l-.2.1h.1v.1zm0-.1v.2-.1h.1v-.1zm.2-.4v.2h.1v-.5.1-.1h-.1V94.2zm-.2-.6h.1v-.1H41zm-2 2.3v.2-.1zm-1.5 1v.1zm-.3.1h.1zm.4 1v.1h-.1v.1-.2H37.1v.1-.1H37v-.1H36.7V98.2h-.2v.1h.1H36.3v.2h.1l.1.1.2.1v-.1h.1v-.1h.1v-.1.1H37.4V98v.1h.1v.1h.1V98l.1-.1zm-.2-3.6v-.1h.1V94v.2zm.3 3.8v.1-.1zm-.9 0V98h-.1.1zm20 .3v.1l.1.1H57.3v.1h.1v.1h.1v-.1h.1v-.1l-.1-.1h.1v-.1H57V98h-.2V98.5zm-19.6-1H37v.1H37v.2h.1l.1-.1v-.1zm-11.8-14h.1v-.1.1zm.5-.2l.1-.1h.2-.3zm.6 6.3zm.5-1v.1zm1.7-.6v.1h.2v-.1h-.1zm-1.7.8zm5.6 12.5v-.1h-.2v.1h.2zm-6-11.7zm0 0v-.1zm0-.1zm3.7 11.4zm-.3-3.5zm.3 3.5zm-3.8-11.4zm-1 1.2v-.2.2zm0-.3zm13.1-14.6h.1v.1h.1l-.2-.1zM26.3 83l.1-.1h.2l.1-.1-.5.2h.1zm3.6-6.3l.1-.1h-.1V77v-.2zm.4-.5l.1-.1.1-.1-.2.1v.1zm-.2.2l.1-.1v.1l-.1.1zm.7-.5h.1-.2zm12.6.5h.1l.2.1h-.1l-.2-.1zM29.8 96.8zm0-19.7V77v.2zm-2.9 5.6h.1-.1zm-.1 0zm.4-.1zm0 0h.1zm.2 0v-.1zm0-.1zm.1 0h.2v-.1h.1l-.4.1h.1zM39 92.8zm17.9 7.4h-.2v.2h.1v-.1zm-.2-.3v-.1h-.1v.1zm1 1.1v-.1h-.1v-.1h-.2v-.1l-.1-.1h-.1v-.2H57v-.1H57V100.7h.1v.1h.1v.1h.1v.1h.1l.2.1v.1h.1zm-.4-.7v.1h.1v.1h.1v-.2h-.2zm1.1.5v-.2h-.1V100.2H58v-.4h-.2v.1-.2l-.1-.1h-.2.1v-.1h-.2l-.1.1h-.1l.1-.2v-.1l.1.1H57.8h-.1l-.1-.1v-.1h-.2v-.1l-.1-.2H57v-.1h-.2v-.1h-.4V98.4h-.1v-.1h-.1v.1h-.4v.2h.4v.1h.1v.2l.1.1h.1v.4h-.1v.1l.2.1.1-.1h.1v-.1V99.9h.1v.1h.2l-.2.1h-.1v.1h-.1v.1h.4v-.1h.1v.1h.2v-.1.2H57.9h-.1v.2h.1v.1-.2l.1.1v.1h.1v.1h.1v.1H58.4zm-.7 0v-.1h-.2v.1h.1v.1h.1zm-1.1-.7h-.2v.2l.1.1v-.2h.1v-.1zm1.7-.5h-.1v.1l.1.2h.1V99.5zm-2.4-.3v.1-.1zm.9-1.6h-.1l-.1-.1h-.1l-.1-.1h-.1v.1l.1.1V98h.2v-.1h.1v-.1h.1zm-.4 2.3v-.1h-.1v.1h-.1v.1h.1v-.1zm-.3-.8V99h.1V99h.1v-.2H56v.1h.1-.1V99.3h.1zm.3.8h.1v-.1zm0-.7h.1v-.1zm-.1.3v-.1h.1l.1-.1H56.2v.1zm-29.6 3.1h-.1l-.1.1h.2zm31.8-3v-.5V99.6h.1V99h-.1V99l.1.2v.4h.1v-.2h.1V99.8h.1v-.1h.1V99l-.1-.1v-.2l-.2-.1-.2-.3h-.2v.1h-.1v.1l-.1.1v.1h.1l-.1.1h.1v.6h.2v.1h.1zM28.7 102h-.1.1v-.1zm-2.3.9v-.1zm3.3-5.9V97v.1zm-.1 0V97zm-.7.1h.2l.1-.1V97l.1-.1v-.1l-.1.1H29V97.3zm-.2 4.7zm0 0h-.1zm-2.5.8zm11.8-7zm20.8 4.4V99.7h-.2v-.1h-.1v.1h.1V100.2v-.1h.1v.1h.1zm.3 0h-.2l-.1.1h.1v.1h.1v-.1zm.9-1V99l-.1-.1h-.1v-.1l-.1-.1v-.2h-.1v-.6h-.1v-.1H59l-.1-.1h-.2l-.2-.1H58l-.1-.1h-.5v-.1h-.1v-.2H57v-.4H56.7v-.2l-.1-.1v-.1l-.2-.1-.2-.1V96H56l-.3-.4-.2-.1-.2-.3-.3-.2V95l-.4-.3-.2-.2h-.5v-.2h-.2V94l-.1-.1h-.2v-.1H53l-.1-.1v-.1h-.1V93.2l-.2-.1V93h-.2l-.1-.1-.4.3-.2.1-.1.1h.1V93.9h-.1v.6h-.2l-.4.4v.2H51V95l-.3-.4-.5-.4-.6-.3v-.1l-.1-.2H49l-.1-.2v-.5l-.6.1-.2.4-.4-.2v.2h-.5V93l-.2-.6V92l-.1-.2v-.3l-.1-.3-.1-.2-.1-.5V90l-.1-.3-.1-.5V89l-.1-.2v-.3l-.3-1V87l-.2-.8v-.3l-.1-.2v-.3l-.6-2.6v-.3l-.1-.2-.2-1V81l-.1-.3-.2-.8v-.2l-.2-.8v-.5l-.2-.5v-.3l-.1-.5v-.3l-.1-.2h-.4v-.1h-.2v-.1H43v-.1H43v-.1h-.1l-.2-.1H42v.2l-.1-.1h-.2v.1l-.2.1H41v-.1h-.2l-.1-.1h-1.2V76h-.2V76H39v-.1h-.2l-.3-.1H38.1l-.1.1h-.2v-.1H37.5v.1h-.2v.1h-.5v-.1h.1v-.1h-.5v-.1H36.9h-.2v-.2l.1-.2-.2-.1v.1h-.1v-.1h-.2V75h-.5v.1l-.1.2h-.1v-.1h-.2v-.1h-.1v-.4H35v.1H35v-.1h-.1v.2h-.1v.2H34.4v.2-.2h-.1V75l.1-.1h.1v-.1h.1v-.2l-.1-.1h-.2v-.1h-.2v-.1H34v-.1h.1-.1l-.1.1-.2.2-.1.2-.2.2-.2.2h-.4.1H32.4v.2-.2h.1-.1V75h.1H32.2v.1l-.1.1-.2.2h.1v.2h.4H32v.1H32v.4-.2h-.1v-.2h-.1l.1-.1v-.1l-.2.1h-.2v.1l-.1.1h-.1v.1h-.4v.1h-.4H30.9v-.2h-.1v.1h-.1v.1h-.1v.1h-.1v.1h-.1v.2h-.1v.1H30l-.2.2v.2h-.1v.4l-.1.1v.1-.2.2l-.4.3-.1.1H29l-.1.1h-1.4V78.5h-.1v.2h-.1v.2h-.1v.1H27h.1-.2.1l.2.2h.1v.2l.1.1h.1l.1.1h.1l.2.2v.2l.2.1v.1l.1.1.1.1.2.2V80.8l.1.2v.5h.2l.2.1.2.2v-.1H29.6v-.1h.1v-.1V81.9v-.1h.3l.1.1h.1v.2H30v.1H30v.2l.1.3.1.1h.2v-.1h.7v.4h-.5v-.1h-.1v-.2h-.1v.1H30l-.2-.1v-.5l-.1-.1v-.2H29.4V82.3l.2.1v.1l.1.1v.1l.1.1v.4-.1h.4l.1.1v.1h.1V83.6h-.1v-.2h-.1v-.1H30v.1l-.1.1v.1h-.1v.2h-.1v-.1l-.2-.1H29.2l-.1-.1h-.7v-.1h-.1V83h-.2.1l.1-.1V82.6h.1V82.3h.2-1v.2H27l-.1.1v.1l.1.1h.1l-.2.1h-.2v-.1h-.5v.1h-.1v.1H26v.1h-.5v.2h-.3v.1h-.1v-.1h.1-.2v.2h.1l.2.3.2.1.3.2h.1v.1-.1h-.1.2v.1h.2l.1.1.1.1H26.1v.1H25.8v-.2l-.1.1v.2h.1v.2h.1v.2-.1h.1V85.4H26V85.7l.2.1h.1l.1.1.3.1.3.2h.2-.1V86h1.1l.1.2.1.2h.1v-.2h-.1V86h.1l.1.1v.1h.1V86.6h.2v-.2l.1-.1h.2V86l.1-.1h.2l.1-.1h-.1.2v-.1.1h.2v-.1h.1v-.1h.2v.1h.1v.5h-.1v.1h-.4v.2h.2v.2h.1v.4l.1.3v.4H30v.1H30v.1l-.2.1H29h.1V88h-.2v.2l-.3.2h-.1v.1l-.1.1h-.1v.1h-.4v-.1h-.1v.1h-.2v.1l.1-.1.1-.1v-.1h-.1v-.1l-.2-.1h-.4l-.1.1v.1h.1v.1h-.2l-.2.2v.5h.1v-.1h.1l-.2.2h-.1v.1l.1.1h.1v.1h-.1v-.1h-.1v-.1H26.2v.1h-.1v.1l-.2.1-.1.2h-.1v.1l-.1.2V90.8h-.4v.1h.1v.1h.1-.2v.1-.2.1h-.1V91.3H25.6v.2h-.1v.2h.1v.4l.2.1v-.2h.1v-.1h.1v-.2h.1v-.1h.1v-.1h.2v-.1h.1v.1h-.2l-.1.1H26v.1h-.1v.2h-.1v.2h.2v-.1.1h-.1v.2H26.3 26v.1h-.2v.1h.2v.1h.2v.1h.4l.1.1h.1v-.1h.1l.1-.1v.1h.1v.1H26.8l.3.2h.1v.2l-.2.1H27V92.8h-.2l-.1.1h-.1v.1h-.1v.1h-.1V93h.1l.1-.1v-.2H26.2v-.2H26v-.1.1H26v.2h-.1l-.1.1h-.1v.1h-.2v.1h.4v.1h-.1V93.6l.2.1h.1v.2h.1v.2l.1.1h.1v.1h.1v.1h-.1v.2l.3.1h1v-.1h.2v-.2l.1-.1V94l-.1-.1v-.1h.1v-.1h.1v-.1l.2-.2v-.1h.1v-.2.1h.2-.1l-.1.1v.1h-.1v.2h-.1v.2H28V94.3h.1V94h.1v.8l.1.1v.2l.2.3h-.2v.1h-.1V96h-.1v-.1V96.2l.1.1H28.7h-.1v.1h-.1v.5h-.1v.1h-.4l.1.1h.3v.1h.2l.2-.1v-.1h.1v-.1h.2v-.1H29.4v-.1l.4-.2h.1V96.8h.2v.2h.2v-.2h.2v.1l.1.1v.1l.2.2V97.5h.1v.1l.2.1h.1V97v.1-.4h.1v.1h.1v-.1h.1v-.1l.1-.1v-.1.1h.2l.1.1v.2h.1v.1-.2h-.1l-.2-.1h-.1v.2h-.1v.2h.1v.2l.1.1h.4l.3-.2h.1l.2-.1h.1v-.1h.1v-.1h.1V96.4h.2-.1v.2h-.1V97l-.1.1v.1h-.1l-.1.2-.1.1h-.1v.2l-.1.2v.2H32.7v.1H32.3l-.1.1v.5l-.1.1v.5h.2v.1H32v-.2h-.2v.1h-.1v.1h-.1v.1h-.1l-.1.1-.4.4v.1l-.1.1v.4h-.2v-.1h-.1v-.1h.1-.1l-.1.1h-.1l-.1.2h-.2v.1H29.8l-.1.1v.1h-.2l-.2.2-.2.1v.2l-.1.1v.1l-.1.1v.1l.2.2v.1H29v-.1h-.3v-.1V102.5h-.1l-.1-.2v-.1h-.1v-.1h.1v-.1h-.4.1H27.8v.1h-.1l-.2.2h-.2l-.4.5v.1l-.2.1h-.2v.1h.1v.1h-.2v-.1h-.1l-.2.2V103.6h-.1v.2h.1l.1-.1h.1v-.1H26V103.1h.1v.1h.1v.2H26.7v-.1.1h.1v-.5h.1v.2h.1v.1h-.1v.1h.2v.1h.1v-.2h.1v.1h.1v-.2h.1l.1-.1.2-.2V102.5h.1l.2-.1h.1v.1h.1l.1.1H28v-.1H28v.2l-.1.1h.1v.1h.4v-.2h.2v.1h.2v-.1h-.1.1v-.1l.1.1h.1v-.1h.1v-.1h.2v-.1h.1v-.1h.2v-.1H30v.2l-.1.1v.1h.1v-.2h.1V102.1v.2h.1v-.1h.2v-.1H30.7v-.1H31v-.2h.1v-.1h.1-.1V102.2h.1V101.7H31.5v-.1h-.2.1l.1-.1h-.2v-.1H31v.1H31v-.1h.1v-.1h.1v-.1H31.6v-.1H31.9v-.1h-.2l.1-.1h.1v-.1h.1v.1H32.3 32v-.2h.1v-.2h.1v.1h.2l.1-.1h.1v-.1h.2v-.2h.1l.1.1v-.2h.2V99.8h-.1v-.1l.2-.2h.2v-.2H34v-.1h.1v-.1h.1V99h.2v-.1H34.7V98.5H35v-.1h.2v-.1h.1v-.2.1l.1.1h.1v-.1h.1V98h-.1V98h.2V97.6h.1v-.2H36v-.1h.1v-.1h.1V97h.1v-.2h-.1v-.1H36v-.1h-.5v-.4l.1-.1h.1V96h-.1.1V96h.2v-.2h-.1.2V95.4v.1h.1v-.2h.1v.2h.2l.1-.1v-.2h-.2v-.1h.5V95l.1-.1v-.2h-.1v-.1h-.1v-.1h-.1v-.1h-.1.2v.1H37v-.1h.1v-.1h.1v-.4h.1v-.2h.1v-.1h.2V93.3h.1v-.1l.1-.1h.2V93h.1v-.1l.1-.1h.1v-.1l.2-.1v-.1h.1v-.1.1H39.3v-.2h.1v-.1h.1l.2-.1h.1l-.3.2-.1.1v.2h-.1v.1H39l.1.1h.1v.1l.2.1h.2v.1H40v.1h-.5V93h-.6V93H38.5v.2l-.3.2H38v.1H38V94.6l-.3.3v.4h-.1v.2l.1.1.3.1v-.1l.2-.1.1-.1h.1v.1h-.1v.2h-.1v.1H38l-.1.1v.1h-.4v.4h.1v.1H38v-.1H38.4v-.1h-.1.2v.1h.1V96h.1V96h.1v-.1h.1V95.5v.2h.1v-.2h.1v-.2h.1V95.8H39v.1h.1v-.2h.1v-.2l.1.1v-.2h.1v.1h.1v-.5h.1V95.3l.1.1v-.4h.1V94.5v.2h.1v.2l.1-.1v-.2h.1v.1h.4v.1l.1-.1v-.1.1h.1v-.4h.1v.1h.1v-.2.1-.1h-.1l-.1.1v-.1h.1V94h.1V94h.1V93.6h-.1v.1h-.1v.1h-.1v-.1h-.2v.1-.2H40.9V93.3h-.1v.2h-.1v-.2h-.1v.1h-.1v-.1l.1-.1h-.1.2V93h.1V92.7l-.1.1v-.1h.1v-.1h.1v.1h.1v-.2h.1v-.2h.1v.2l-.1.1v.2h-.1l.1.1v.1h.1V93h.1v.1h.1v-.5.4-.1h.1v.1h.1v-.1l.1-.1v.1h.1v-.1h.1v.1h.1v-.1l.1-.1.1-.2H42.4l-.2.1H42v.4h.5-.1v.1h-.2v.1h-.1v.1h.2V93v.1h.2V93h.1v.1l-.1.1h.4V93.7h-.1H43.2v.1h.4v-.2l.1-.1v-.1h.1V93h.2-.1V93.5h-.1v.4h.2v.1h.1v.1H44.5l.2.1v.1h-.1.5l.2-.1h.2l.2-.1.1-.1H47v-.2h.1V94H47v.1h.4l.2.1h.7V94h.2V93.6h.1v-.2H49l.1.2H49.3 49V94l.1.1v.1-.1L49 94v-.2l-.1-.2h-.2V94l.2.1v.1h-.1v.2h-.2v.1l.2.1H49.1v.1h-.2.4l.2.1h.1l.1.1H50h-.1v.1h.4l.2.2.1.1v.1h.1l.2.2h.2-.1v.1h.1l.2.1h.1l.1.1H51.9v.1h.2v.1h.1v-.2h.2v-.1H52h.4V95.4h-.1v-.1h-.1l-.1-.1v.1H52h.1V95H52v.1-.1h-.2V95h.1-.5v-.1h.1v-.1h-.1v-.1h-.1H51.7v.1h.1v-.2.1l.1.1v-.1.1h.1v.1h.2l.1.1v-.5.1h.1v.1h.2-.1V95h.1v.2h.1V95.6h.4v-.2l.1.1.1.2H53.6v-.2l-.1-.1v-.1h-.1V95l-.1-.1v-.2H53v-.2H53v-.1h-.1V94.1h-.1l-.1-.1h-.1V94h.1v.1h.1V94h-.1v-.1h-.1v-.4.1l.1.2v.1h.1v.1h.1v.2h.1v.2h.1v.1l.1.1v.1h.1v-.1.1h.1v.2h.1v.1h.1v.1l.1.1H54l.3.2h.1v-.6h.2-.1V95.6h.1v.1h.2V95.3v.2h.1v.1h-.1v.1l.2.1v.1-.2l.4-.1h.1-.4v.3H55.5l.1.1h.1v.1h.2v.1h-.2l-.3-.2h-.1v.2H55.5h-.1v.2h.1v.2H55.9v-.2V96.9h-.3v.2h.7l.1.1h-.1v.1h.1v.1h.1l.1.1h.2v-.1h.1V97.7h.1v.1h.1v.1h.2v.1h.2l.1.1.1.1h.4-.2l-.2.1v.2l.1.1v.4h-.1v.2l.1.2.2.1h.1v-.1l-.1-.1h.1v-.4h-.2.1v-.1h.1v-.1h.1v-.2h.2l.1-.1V98h.1V98.5h.1v.1h.2v.1l.1.1v.1l.1.2v.1l.1.2H59.5l-.2.1v.1H59V99.8h.1v-.1h.2v-.4h.1v-.1.5h-.2v.4l.1.1h.1V99.8v.1l.1.1v.1l.1-.1h.1v-.2h.1v-.6l.1-.1V99zm-23.8-3H36h.1zm.7-1.5v.1zm20.7 3.6l-.1-.1V98H57.1v-.1H57l.1.1v.2h.1v.1H57.6zM25.3 83.4h.1zm-11.9 22.4v-.1h.2V105.3h-.4v.1h.1v.1h-.1v.1H12h.4l.1.1h.2v.1h.1v-.1.1h.5zm1 .5v-.1H14v-.1l-.1-.1h-.4v-.1.1l.1.1h.2l.1.1h.4v.1H14.7h-.1zm-2.5-1zm4.9.7zm-.1 0l-.1.1v.1h.1v-.1zm-1.3 0h-.2l-.2.1h.4zm-3.9-.5h-.1.1zm-.1-.1v-.1h-.2v.1h.1zm.5.3zm-.3-.1zm-.4-.1zm.3.2v-.1h-.1.1zm7.5.5zM19 92h.2l.1.1V92h-.1l-.3-.3v-.2h-.1v.1l.1.2v.1h.1v.1zm.7 14zm.9-.6v-.2l-.1-.1h-.4l-.1.1V105.6h-.4l-.1.1v.2h-.1v.1h-.2v.1h-.1v.1H19h.4v-.1h.2v-.1h.2v-.1h.1v-.1h.1v-.1h.2l.2-.1h.1zm-3.2.6H17.1v.1h.2v-.1zm2.2-7.8h.2V98h-.2zM18 106h-.1.1zm.2-.2H18zm1.9-6.5v.1h.1l-.2-.1zm-1.5 6.3h-.1v.1zm-.1.3H18.1l.2.1h.1zm.4-14.5v-.1zM4.7 102.6h-.2v.1H4v.2h.2v-.1h.1l.1.1v-.1h.1l.1-.1v-.1zm1.3 2l-.1-.1v-.1h-.1V104h-.1v-.1h-.1l-.1-.1h-.1l.1.1h.1v.2h.1v.1l.2.2v.1H6zm-.8-1.2v.1zm2.4 2h-.1v.1zm-.8-1.6v-.1H6.4v.1l.1.1h.2v-.1zm-6-4.6H1v.1h.2H1V99H.8v-.2H.7l-.2-.2H.3h.1v.2h.1V99.3h.2zm4.7 4.2h.1v-.2h-.1v.1zm26.3-1.9zm-24 3.8l-.1.1h.1v-.1zm-6.1-5.4zm1.5 1.5zm5 3.2v.1zm2.5 1h-.1V105.2h.1-.2v.1h-.1v.1h-.2v.1H10v.2l.1-.2v.2h.2l.2-.1h.1zm-2.9-.7zm2.3.4v-.1h-.2l-.1.1h-.5v.1h.4v.1h.2v-.1l.1-.1zm1 .4v-.1H11v.1h.2zm-.3-.1h.1-.1v.1h.1v-.1zm-1.1-.5zm-.4 0h.1-.2v-.2l-.2-.1h-.1v.2H9v.1h-.1v.2H9v.1-.1h.2v-.2zm-1 0h-.1zm-.2 0H8h.1zm.4.3zm2.8.2h-.1v.1zm-3-.5zm-7.2-5v-.1H.6v.1H1v.1H1v-.1h.2zm26 3.5h-.2v.2h.1v-.2zm.3-.2v.1zm-.5.8zm.5-.6zm.2-.3h-.1v.1-.1.2h.1l.1-.1zm-1.2.3zm-.3.4v-.2h-.2v-.2h-.1V103.2H25v.1h-.4l-.2.4h-.2v.4h.5v-.1l.2-.1H25.7v-.1H26v.1h.1zm-1.9.5H24v.1h.1zm2.6.1h-.1zm-6.1-.2zm5.2-1.2zm.7 1.3h-.1v-.1h-.1v.2h.2v-.1zm3.3-.8V103.3v.2h-.1v.1h.1zm-5-19zm5 19.5h-.1zm.2-.4H30v.1zm.7-1.5h-.1v.1h.1zm-.6 0v.1zm0 1.7H30h.1zm-.7-.5v-.2.1h-.1v.2-.1h-.1v.2l-.1.2v.1-.1l.1-.1v-.1h.1v-.1h.1v-.1h.1zm-.6-.1V103h-.1v-.1h-.2v.4h.2v.1-.1h.1zm-.9-.1zm1-.2h-.1l.1.1v.1h.1v-.2zm-1.2 0h-.1v.1h.1zm1.3 0v-.1h.2-.2zm.3.1zm-1.6.3zm-5.1 1.5h-.2v.2-.1h.1l.1-.1zm0-17.2zm-.3 17.3h-.2v-.1h.2v-.1h.2v-.1h-.1v-.1h-.1v.1h-.1l-.1.1V104.5h-.5v.1h-.1V105h.4v.1h-.1v.1l-.1-.1h-.1v.1h-.2v.1h.1-.2v.1h-.1v.1h-.7v.1h.1l.1.1h.4v-.1H21.6v-.1H21.9v-.1h.1v.1-.1h.2v-.1H22.4v-.1zm.7-17.8zm-1.2-.7zm0 0zm0 .3l.2.1-.2-.1zm-.6-.2v.1l.1.1.2.1h.2v-.1H22.2l.1.1.2.2v.1h.1v.2h.1v.1h.1v.1l.1.1v.2h.1v-.1l.1-.1h.1v-.1h.2-.1.2l.2.1.1-.1v-.1l-.2-.1h-.2.1l-.1-.1H23v-.2h-.2V87l-.2-.1v-.4H22l-.2-.1h-.1v-.2h-.1v-.1l-.1.1v.1h-.1V86.8zm1.4 1v.1-.1zm-.5-.7l.2.2v.2-.2l-.2-.2zm.5 17.7zm1 0h-.2.1zm-.4 0v-.1h.1v-.1h.1-.1v-.2h-.1V104.7zm0 0h.1zm.7 0H23.6 24zm-.8-.1H23v-.2H22.7v.2h.4zm1-10.6v.1h.2v.1h.1v.1h.1v-.1h.5V94h.1v-.2H25v-.5h-.2v-.2h-.5v.1h-.2v.1h-.6v.2h.1v.1h.2v.1l.2.2zm.3-10.8z"/></g></svg>