<svg width="132" height="115"><path d="M98.8 57.8l-.4-.1-.1-.1v-.4l-.1-.2V57l-.2-.2H97.7l-.4.3H96l-.3.1-.1.2-.2.4-.2.1h-1.2l-.2.1v.2l-.3.3-.4.4-.3.4v.2h-.3l-.2-.1-.2-.1h-.1v.2l-.1.1-.1.2h-1.2l.1.1v.1h-.2v.5h-.2l-.2.3-.2.1v.2l.1.1h-.2v.3l-.2.3-.5.6-.2.1V63h-.4l-.2.2v.3l-.1.1-.2.1v.5l-.4.4V64.9H87.3v.2h-.1v.1h-.1l-.3.2-.2.1h-.2l-.1.1h-.1l-.2.1h-.3v.1l-.3.3-.1-.1h-.1v.2H85v.2l-.2.2h.1l.1.1h.1l.1.2.3.3v.2l.9 2 .2.2.3.3.2.2v.5l.1.1.1.1h.4l.2.1v.1l-.2.2-.1.4v.3l.1.5.1.1h.6l.1.3.1.1.2.1.2.2.1.1.2.2.2.3V74.1l.6.4.4.5.2.2H91.8v.1l.2.1h.1l.2.1 1 .1.1.1V75h.1v-.1h.1l.2-.2.1-.5V73.9h-.1v-.2l.7-.5.1-.1.1-.2v-.2l-.1-.1h-.1l-.1-.2v-.2l.1-.1.2-.1h.1l.3-.1h.1l.1-.2.2-.2.2-.4.2-.1h.7l.4-.3h.2l.4.1h.3l.7-.2.5-.1.6-.2.9-.7 1-.5.2-.1.1-.1v-.6h-.2V67.3l.1-.3.1-.3.2-.2.2-.2.6-.2V66l.1-.2h.1v-.2l-.1-.2v-.5l.2-.1.2-.1.3-.1.2-.1.1-.1V64l.2-.2V63.5h-.1V63.1l-.1-.2-.2-.3-.1-.4v-.1l-.2-.1-.1-.1-.1-.1v-.6h-.6l-.3-.2-.6-.6-.3-.2h-.2l-.1-.2v-.2h-.1l-.2-.2h-.2l-.5-.5-.3-.5-.1-.1-.2-.1v-.1h-.2l-.3-.1-.3-.5M119 2.3v.2l.7 2.4.4 1.2.4 1L121 9V9l-.1 2v.4l.2.3.7.8.2.3.3 1 .3.9.2.1.1.2.5.4h.1v.2l.1 1.5v.4l.8 1.6.2.7v8.3l-.1.4v.9l.1.2v.9l-.1.1h-.1v.2l-.4.9v.5l.3 1-.5.2h-.4l-.8-.5-.8-.5-.8-.5-.9-.6h-.7l-.2.1-.8.8-.7.6-.1.2-.1.4-.5 1-.5 1-.6.8-.7.9-.2.7v2.7l.1.2h.5v-.2h.2l.1.4.2.2.2.2v.2l.1.2v.7l.1.4.9.7.3.6h.2v.2l1 .3.7.2.8.3.5.1H124.5V45h-.1V45l-.1-.2v-2.2l.2-.7.1-.8v-.3h.6l.3.3h1l.6.1.4.1h3l1.3-.1v.3l-.2 1.2-.1.6v.2l-.1.1-.3.4v.4l-.1.2v.2l-.9 2.4-.5 2.6V50.1l-.1.2v.4L129 53v.2l-.7 1v.2l-.1.2v.2l-.2.1h-.2v.2h.2v.6l-.2.3v.3l-.2.2-.7.7-.3.2h-.1v.2l-.2.2-.2.2-.8.7-.2-.2h-.4l-.1.3.1.2h.1l.1-.2H125.3l-.2.3-.3.2-1 .5-.3.1h-.6v.1l-.2.2-1.5 1.8-.4.3h-.1v.1l-.1.2-.2.1-.3.5-.4.2v.1l-.1.1v.2h-.1l-.1.1v.1l-.1.2-1 1.4-1.1 2.1-.1.4v.3h-.2l-.1.1v.2l.3-.1.1-.1V68.9l-.3.3-.8.7-.2.3-.4.7-.5 1-1.1 2-.2.4V74.5l-.5.4-1.3 2.5-.2.4-.2.1-.2.1-.2.6-1.4 1.8-.2.1-.2.6-.5.5-1.1 1-.2.1-.5.2h-.1l-.2.2v.2l-.6.6h-.2v.3h-.1v.1H105.4l-.1.2-.3.3h-.1l-.3.2-.2.1h-.4v.2l-.2.4-.2.1-.1.3v.1l-.4.2-.2.3-.1.2-.1.1v.1l-.2.3-.1.2-.5.3-.1.1v.2l-.1.1-.3.4-1 1-.8 1.2-.4.2v.1l-1.1 1-.2.3-.2.1-.4.4-.1.2v.1l-.1.1-1 .7-.1.2-.3.2h-.1v.2l-.2.1-.4.2-.4.3-.2.1-.5.2-.2.2-.1.2v.3l-.2.2-.1.2-.8.7h-.3v.2l-.2.1v.2H92l-.4.2-.2.2h-.2l-.4.2-.1.1-.7.8-.3.2-.6.2-.1.1-.2.3H88.4v.2l-.2.2-.4.4H87.6l-.1.2-.9.5v.1l-.6.3-.2.1v.2l-.1.1h-.1l-.2.1-.7.4H84.4l-.2.1-.5.4h-.5l-.3.2-.8.4H82v.2H81.6l-.7.5h-2.1l-.3-.2-1-.2h-1.8l-.7.2-.6.3-.2.2-.2.3-.2.3-.1.6v.2l.2.2v.1l.3.2.1.2v.2H74l-.2.1h-.4l-.4-.1H72l-.2-.1h-.3l-.2-.3H71l-.7-.3h-.7l-.7.1-.5.2h-.2l-.1.2V107.8l-.1.2H68l-.4.4V108.7h.1v.1l-.1.2h-.2l-.2-.1h-.5l-.5-.2H66l-.5.1h-.1l-.7-.2-.3-.2-.3-.2h-.2l-1-.2-.2-.2-.5-.2-1.4-.1h-.2l-.4-.2h-.8l-1.4-.4h-.4l-1.3.3-.2.1-.1.1-.1.1-.1.2v.2l.2.2h.2l-2.8-.2v-.3l-.1-.1H53l-.1-.1v.1l.2.1.1.2v.1H52.3l-.6-.2-.3-.2h-.1l-.2-.2v-.2h.2l-.1-.1h-.5l.1.2.2.1h.1l-.2.1H51l-1-.3h-.6l-.4.4-.3.1-.4.1h-1.1l-.7.1-.1.1-.1.1-.3.3v.4l.2.1-.1.1h-.2l-1 .2-.3.1-.2.3v.5l-.2.3-.5.3-.4.2h-.6l-.9-.1-.3-.2H41.1l-.4.1h-.2l-.1.1v.2h-.1l-.6.2H39l-1.3-.4-.3-.1h-1.1l-.4.1h.1l-.5.1-.1.1h.2l.2.2.1.2v.2h-.2l-1.4-.2-1.1.2-.4.1-.2.2-.5.6-.1.2H31.7v.1l-.1.1v.1h-.2l-.2.1-.1.1-.2.2-.1.1v.2H30.5l-.4.2-.5.4-.3.3.1.3-.3.2H28.8l-.2-.1-.5-.4-.1-.1h-1.5l-.2.1H26v-.1H26l-.4-.3-.6-.6-.4-.2-.1-.1-.2-.2-.1-.1h-.4l-.2.1h-.2l.5-.7v-.4l-.2-.3-.1-.3-.2-.2-.2-.1-.5.1H22l-.1-.2-.2-.2-.1-.1.2-.1v-.2l.1-.2.1-.2-.1.1-.2.3H21l-.2.1-.8.2h-.2v.2h-.2l-.1-.2v-.7h.1v-.2l.1-.2v-.1l-.1-.3V108.8h.2v-.3l-.3-.5h-.1l-.5-.2h-1.5l-.1.1-.3.1-.2.1v.1h-.1l-.1.2v.4h.1l.1.5v1h.1l-.1.1h-.2l-.2-.2-.1-.2-.2-.4v-.4H16v-.3l-.2-.1-.2-.1v-.4l.1-.1V107.9l.1-.2h-.1l-.2-.2v-.1l.1-.1.1-.2.1-.2.1-.3v-.2l.4-.2h.5l.1-.4v-.2l-.2-.2v-.4l-.2-.8-.2-.4v-.2H16l-.3-.5h-.2v-.8l-.1-.2-.2-.3-.3-.2-.8-.6v-.4l-.2-.4v-.2l-.3-.3v-.2l-.4-.4H13L13 99l-.2-.2v-.1l-.1-.2h.4v.2h.1l.1.1v.1l.3.3.1.2h.1l.1.1h.1v-.2l-.2-.1V98.9h-.2l-.2-.3V97.8l-.2-.2H13l-.2-.1h-.3l.1.2-.1.1-.2.1-.1-.2v-.2H12v-.4l-.1-.3V96.3l-.2-.3v-.2h.1l.2-.1h.1V95l.2-.1h.2l.2-.1.1.2.4.4.4.1h.3l.2-.3 1-1 .2-.3.1-.4.2-.7V91.6l-.2-.2v-.2l.3-.2v-.4l-.3-1.2v-1l-.2-.4v-.8L15 87v-.2l-.1-.1-.1-.1V86.3l-.2-.7-.1-.3-.2-.3-.4-.5v-.2l-.4-.5-.4-.4v-.1L13 83 13 83l-.3-.3-.3-.5-.2-.1-.1-.3-.1-.4-.1-.1-.3-.3h-.1v-.2L11 80v-.3h-.1l-.1-.2-.2-.4V79l-.6-.8-.5-.8v-.5l-.2-.3-.4-.7-.3-.4v-.3l-.1-.3-.5-.8V74l-.2-.2-.5-.9v-.3l-.1-.3v-.3l-.5-.7-.1-.3v-.4l-.2-.7-.5-1.2v-.3h-.1V68l-.3-.8v-.5l-.2-.5V66l-.1-.1v-.2l-.1-.4-.2-.6v-.1l-.4-1-.2-.2-.2-.3-.1-.5-.2-.2v-.3l-.1-.2v-.2l-.1-.2v-.4l-.6-.4v-.1l-.2-.4v-.1l-.4-.5-.5-.5-.1-.2-.1-.3v-.5l-.1-.2v-.1h-.2l-.2-.5H1L.8 57H1v-.4l.2-.1.2-.2h.2l.3-.2.6-.6h.1l.1.1v.2H3l.1-.3.1-.1V54.9h.2V54.6l-.2-.2v-.5h.4v-.5h.2V53H4.2v-.8h.1l.2-.1H4.8l.1-.1H5.1l.3-.2h.4l.1.1.1.2.1.2h.4v1.1l.2.2h.8l.2-.1h.1V53.8l.1.2v.1l.1.1v.1l.2.2v.8H7.9l-.1.2-.1.1V55.9l.2.3v.2l.1.1.3.1.1.2v.4l-.2.4v.2h1.2l.2-.1h.2V58.3h.3l.2.2h.1l.3-.2h.3l1.3.2.3.2.3.1.5.4.3.2.6.2h.5l.7-.2h.2l.3.2H16.3l.1-.1h.3v-.1h.2v.1h.2l.3-.2L19 59l1.6.2.2.1.2.4h.1l.3.1h.1l.1.3h.4l.3-.2.4-.2h.1v-.2h.4l.1-.1v-.1l-.3-.6V58.5l.1-.3.1-.1.1-.1h.1l.2.1h.2l.7-.2h.1l.2-.2.3-.8v-.1h.1l.1-.2v-.1h.1v-.2h.2v-.1h.9l.1-.1.2-.2h.5l.3-.1.3-.3.2-.2h.7V22.8l.1.1.2.1.1.3.4.3.2.2.1.1H30.2l.7.4 1 .9.3.6.2.4.1.2v.4h.2l.1.1V27.2l.2.1.1.2V27.9l.1.3.1.1.1.1.3.1V28.7h.2v.2H34.3l-.2.2v.4l.3.3v.3l-.2.2v.1h.2v.5l.2.2h.1v.2l.3.6-.1.2h.2v.1l.3.5V34.3l.4.5v.2l-.4.5-.1.3-.2.3-.5.6-.2.4-.1.2-.3.2-.1.5v.6l.2.2v.4l-.2.6v.5l.2.4v.2h.1v.1l.2.1v.1l.1.3H34.8l.5-.3.4-.3h.2l.4-.1.4.1.3.2 1 .2h.3l.7-.2h.4l.7-.1h.5l.4.2h.7l.5.1H42.4l.5-.4.1-.1.1-.2v-.9l.3-.1h1l.5-.2.5-.3.4-.4.3-.4.2-.7.2-.3.3-.4.1-.2h.4l.2-.1.2-.1.4-.4.2-.4.2-.2h.8l.1-.2.2-.3v-.1l.2-.2h.1l.3-.6V33.7h.3l.1-.1v-.2l.1-.1v-.5l-.1-.2v-.1l.2-.2.1-.1.1-.2v-.2h-.1V31.2l.4-.4.1-.2V30.3l.1-.1v-.6l.2-.6.2-.2h.1l.1-.4.1-.1.2-.1.2-.1V27.9l.4-.3H53.3l.1.1h.2l.6-.4h.4l.4-.1h.5l.3.2h.8l.2.2v.1h.1l.3.2.2.1.8.7.2.2.4.1h.1v.3h.2l.2.1.3.5.4.2.1.2.2.1H60.9v.2h.2l.8-.2h.4l.4.2.6.6.3.3h.9l1 .3.4.3H68l.1-.2.5-.3.4-.2h.6l.3.1h2l.6-.4 1-.8.2-.5.5-1 .2-1.2.7-1.6.2-.5.2-.5v-.3l.3-.5V22.7l.4-.2h.4l.3-.2 2.2-.7h1l.5-.5.3-.7.2-.2.2-.2.5-.4.5-.5.2-.2.7-.2.2-.1.1-.1.1-.2.2-.7v-.4l.5-2.3v-.4l.2-.5V13.7l.2-.2.1-.4h.2l.1.2h.2V12.7l.1.1v-.1l.2-.1v-.1l.1-.1h.2v-.1l-.1-.2H86.1V12h.4l-.2-.1.1-.1.3-.1.3-.2h.2l.1-.2.2-.3.1-.1.1.3.2-.2.2-.1v.1H88.4v-.2h.6l.2-.2.1-.1V10l.1-.1v-.2l.2-.2v-.2h.4l.4-.2.2.2h.2L91 9h.1v-.2H91v-.2h.4v-.2h.2l.4-.2.2-.2.2-.2-.1-.4v-.2l.2-.1h.2L93 7v-.1l.2-.1v-.2l.1-.2v-.2l.1-.2H93.6v-.1l.1-.1v-.1h.2l.1-.1V5h.1l.3-.4h.1l.2-.1.4-.4h.1l.3-.3H97l.3-.1h.5l.3-.1.5-.4h.4l.1-.1h.2l.1-.1v-.2l.1-.1H100.2l.2-.4v-.1l.1-.1v-.6l.1-.3.2-.1h.1V1l.2-.2 1-.1h.2V.5l.2-.1H104l.2-.2H104.8l.2.1h.1V.1h.5l.3-.2h.1l.2.1h.8l.5.3h.2l.2.2h.4l.2.2H108.8l.2.2v.1h.4l.2.2.2.1H110.7v.1l.2.1.2.2H112.2l.3-.2h1.1l.1.1h.2l.2-.1h.2l.9-.1.2-.2.3.1h.4l1 .3h.2l.1.1h.2l.2-.1h.2l.2.2h.1l.1.1h.4l.2.3" fill="none" fill-rule="evenodd"/></svg>