<?xml version="1.0" encoding="UTF-8" standalone="no"?>
<!-- Created with Inkscape (http://www.inkscape.org/) -->

<svg
   version="1.1"
   id="svg600"
   width="171"
   height="115"
   viewBox="0 0 171 115"
   sodipodi:docname="AG-EPS-01-0001.ai"
   inkscape:export-filename="AG-EPS-01-0001.ai.svg"
   inkscape:export-xdpi="12.72"
   inkscape:export-ydpi="12.72"
   xmlns:inkscape="http://www.inkscape.org/namespaces/inkscape"
   xmlns:sodipodi="http://sodipodi.sourceforge.net/DTD/sodipodi-0.dtd"
   xmlns="http://www.w3.org/2000/svg"
   xmlns:svg="http://www.w3.org/2000/svg">
  <defs
     id="defs604" />
  <sodipodi:namedview
     id="namedview602"
     pagecolor="#ffffff"
     bordercolor="#000000"
     borderopacity="0.25"
     inkscape:showpageshadow="2"
     inkscape:pageopacity="0.0"
     inkscape:pagecheckerboard="0"
     inkscape:deskcolor="#d1d1d1"
     showgrid="false" />
  <g
     id="g608"
     inkscape:groupmode="layer"
     inkscape:label="Page 1"
     transform="matrix(1.3333333,0,0,-1.3333333,-424.06779,558.30507)">
    <g
       id="g612"
       transform="matrix(0.27277118,0,0,0.27277118,368.58599,352.88007)">
      <path
         d="M 0,0 -0.391,-0.392 0,-0.791 h 0.262 l 0.131,0.13 v 0.54 L 0.262,0 Z m 71.498,-11.995 -0.132,-0.121 v -0.27 l 0.385,-0.383 0.139,0.123 v 0.522 l -0.131,0.129 z m -210.058,-30.547 -0.66,-0.122 -0.009,-3.653 0.669,-0.122 0.261,-0.27 0.522,0.262 0.644,0.913 v 1.564 l -0.906,1.176 z M -1.564,0.261 -1.966,-0.13 l 0.131,-0.148 1.052,0.017 0.114,0.375 -0.114,0.147 z m 8.73,4.305 V 4.819 L 6.776,5.21 6.646,5.088 V 4.819 L 6.385,4.549 6.515,4.428 7.037,4.437 Z m 70.837,-7.941 -0.522,0.521 -0.763,-0.007 -0.279,0.268 -1.288,-0.007 -0.278,0.268 -1.026,0.262 -0.662,-1.165 0.13,-0.149 H 74.1 l 0.259,0.262 0.392,-0.391 0.392,-0.654 0.521,0.783 h 0.531 l 0.514,-1.044 0.52,-0.009 0.53,0.541 0.253,-0.271 0.531,-0.008 v 0.791 z m -3.112,-4.706 -0.402,-0.643 0.393,-0.401 h 0.521 l 0.13,0.393 0.271,0.269 v 0.251 l -0.13,0.122 z M 13.438,25.45 v -0.252 l 0.114,-0.131 0.39,0.375 -0.129,0.148 h -0.261 z m 58.964,-30.782 0.009,0.522 0.523,0.513 v 0.27 l -0.54,0.253 -0.123,1.19 L 71.489,-2.6 71.22,-3.113 70.437,-3.635 69.933,-3.644 68.88,-4.157 h -1.044 l -0.262,0.773 -0.52,0.009 -0.262,-0.269 -0.13,0.391 -0.783,0.53 0.009,0.522 -0.391,0.383 h -0.782 l -0.531,-0.261 -0.262,-0.505 -1.557,-0.8 h -0.279 l -0.112,0.401 0.661,0.138 1.687,1.427 0.243,0.522 -0.235,0.252 0.114,0.392 h 0.522 L 65.227,0.01 66.801,0 67.967,1.452 67.706,1.975 67.845,2.366 68.497,2.235 68.49,1.713 69.141,1.044 69.662,0.792 h 0.782 l 0.122,1.435 0.271,0.539 0.529,1.036 -0.26,0.521 0.775,0.765 0.792,1.331 L 72.524,6.792 72.02,6.803 71.229,6.01 70.959,6.803 70.193,6.812 69.924,6.541 69.141,6.55 68.88,6.279 67.063,6.019 66.271,7.054 64.722,7.332 64.061,6.149 63.662,5.758 63.139,5.741 63.13,4.968 62.086,4.977 61.581,5.228 60.791,4.444 60.008,4.175 l -0.391,0.4 1.295,1.053 0.009,0.521 -0.392,0.13 L 60.277,6.01 59.233,5.75 58.442,5.228 57.659,5.236 57.398,4.968 56.615,4.977 56.085,4.706 55.31,3.4 l -0.121,0.914 0.261,0.27 -0.01,1.044 0.262,0.251 0.009,0.793 0.262,0.513 0.633,0.139 0.663,0.913 -0.784,0.513 0.252,0.514 -0.113,0.399 -1.044,0.009 -0.262,-0.27 -2.861,-0.252 -1.32,1.305 -1.175,0.382 -0.252,1.044 -1.036,1.567 0.244,0.521 1.687,1.175 0.663,0.914 0.007,0.52 -0.522,0.271 -0.017,0.773 -0.391,0.4 -0.505,-0.27 -0.279,0.262 -0.373,-0.383 -0.009,-1.305 -3.01,-2.479 h -0.504 l -0.392,-0.39 -0.008,-0.523 1.043,-0.261 0.261,-0.522 0.008,-1.835 -1.444,-0.113 -0.261,-0.27 h -0.521 l -0.13,0.13 0.26,0.253 0.01,0.539 -1.183,0.114 -0.53,-0.792 -0.523,0.009 -0.26,-0.253 -0.392,0.401 0.008,0.773 0.262,0.262 0.009,1.026 -0.262,0.269 -0.139,1.175 -1.556,-0.262 -1.315,-1.035 -0.131,0.122 -0.512,1.844 0.905,0.636 h 0.521 l 1.184,1.173 -0.514,0.784 0.113,0.391 0.522,0.269 0.523,-0.782 h 0.522 l 0.652,0.391 -0.01,0.522 0.279,0.252 -0.009,1.043 -0.651,0.149 -0.783,0.505 h -0.784 l -2.087,1.312 -0.392,0.375 0.009,1.061 -0.523,0.26 -0.259,0.523 0.251,0.782 -0.652,0.653 -1.045,0.26 -1.432,1.427 -0.271,1.314 -0.626,0.651 h -0.793 l -0.259,-0.26 -2.097,-0.009 -0.783,-0.513 -1.836,-0.009 -0.244,-0.251 -1.043,0.529 -0.782,0.775 h -0.521 l -0.541,0.531 -0.765,-0.018 -0.532,-0.522 -0.782,0.009 -1.036,-0.783 h -0.782 l -0.26,-0.54 -0.532,0.01 -0.391,-0.392 -0.261,-0.522 0.252,-0.252 0.017,-1.044 -2.346,-2.088 -0.783,-2.6 -0.792,-0.791 -0.008,-0.791 -0.263,-0.244 0.019,-1.062 -1.324,-1.305 -0.244,-0.521 0.131,-0.384 h 0.785 l 0.26,0.253 0.784,0.009 0.241,-0.271 1.053,-0.007 0.132,0.669 -0.393,0.131 -0.39,0.391 0.131,0.131 0.791,-0.009 1.166,-1.175 -0.393,-0.643 -1.557,0.008 -0.391,-0.66 0.384,-0.4 1.034,-0.009 1.582,-0.774 0.905,-0.905 v -0.522 l -1.182,-0.138 -0.253,0.269 -1.034,0.009 -0.775,0.773 -0.539,0.253 -1.574,-0.262 -0.244,0.28 -1.305,-0.018 -1.036,1.573 -1.07,0.253 -0.259,-0.26 L 9.899,14.344 9.377,15.135 8.611,15.144 7.55,15.647 6.523,15.656 6.124,14.995 6.776,14.883 7.166,14.464 V 13.961 L 5.724,13.83 4.958,13.039 4.428,13.048 3.513,12.655 3.244,12.134 3.262,11.09 3.521,10.82 2.73,10.055 V 9.784 L 1.939,8.726 1.948,7.158 1.158,6.646 1.306,5.75 2.87,5.471 3.906,6.523 5.479,6.515 6.262,7.027 8.342,7.036 9.386,7.55 9.918,8.342 h 0.503 L 10.569,7.437 10.829,7.167 10.82,6.393 10.56,6.123 10.552,5.332 9.517,4.297 8.595,2.348 7.298,2.331 7.046,2.609 5.209,2.601 4.435,1.557 H 1.826 L 0.652,0.122 V -0.4 L 1.288,-0.773 1.826,-0.278 3.122,-0.27 3.636,-0.791 5.471,-0.53 5.862,-1.183 5.854,-1.975 4.417,-2.088 4.298,-3.001 5.471,-3.14 5.862,-3.532 6.124,-4.036 6.133,-5.618 5.854,-5.871 5.862,-6.933 5.488,-7.846 4.435,-8.09 3.253,-9.021 v -0.25 l 0.522,-0.253 0.261,-0.523 -0.253,-1.312 0.783,-0.774 -0.268,-1.045 1.312,-2.34 -0.008,-1.312 0.652,-0.4 0.261,-0.253 0.783,-0.009 0.522,-0.522 2.609,0.009 0.529,0.262 0.254,-0.271 h 1.053 l 0.26,-0.261 1.304,-0.252 0.262,-0.278 1.045,0.017 1.034,-1.305 1.574,0.244 0.262,-0.252 1.826,-0.008 0.391,-0.382 0.121,-0.915 1.313,-0.009 0.262,-0.252 0.521,0.018 0.792,1.052 h 0.505 l 0.132,-2.235 -0.263,-0.244 -0.007,-0.791 0.408,-0.4 0.26,0.018 0.514,0.52 1.044,0.262 0.26,0.251 1.313,0.009 0.766,0.514 1.305,0.009 0.27,0.252 1.043,-0.008 0.4,0.669 v 0.522 l 0.392,0.392 2.34,-0.018 0.514,-0.774 1.07,0.008 0.233,-0.269 h 0.549 l 1.556,-1.306 0.782,-0.008 0.522,-0.252 0.375,0.391 -1.036,1.305 0.009,0.539 1.559,1.549 v 0.268 l 0.921,0.914 1.549,-0.009 0.279,-0.252 0.79,-0.007 0.382,-0.646 -0.521,-0.538 -0.009,-1.296 -0.921,-0.652 h -0.784 l -0.904,-1.184 -0.008,-0.765 0.93,-0.13 1.027,-1.052 1.059,0.008 1.035,1.035 0.523,-0.251 h 0.783 l 0.522,-0.802 0.783,0.018 0.652,-0.391 0.939,-0.427 0.644,0.427 0.209,0.105 0.088,-0.105 0.103,-0.157 1.567,-0.009 0.086,0.166 1.191,1.687 h 0.262 l 0.799,-1.035 h 0.505 l 0.391,0.375 0.01,0.791 0.26,0.268 -0.016,0.271 -1.559,1.799 0.008,0.792 h 1.045 l 0.121,-1.443 0.662,1.184 0.791,0.791 -0.015,0.764 -1.167,1.444 -1.044,0.261 -0.931,0.906 0.008,1.06 -0.775,1.044 -0.015,1.027 -0.495,0.539 -0.278,0.783 0.39,0.391 0.782,-0.53 1.044,-0.009 0.27,0.269 0.261,-0.269 1.028,0.009 1.582,-0.783 0.512,-0.523 0.523,0.018 1.044,-0.8 1.043,-0.506 0.521,-0.006 0.784,-0.523 h 5.226 l 0.262,-0.27 1.575,0.008 0.243,0.514 0.522,0.271 0.783,-0.009 0.382,0.651 -1.288,0.522 -0.016,0.522 0.66,0.391 0.262,-0.251 0.261,0.251 0.521,0.018 0.139,0.644 0.635,0.913 0.782,-0.53 h 0.523 l 0.53,0.26 0.393,0.652 -0.774,0.522 -0.018,0.792 0.531,0.522 v 0.513 l -0.784,0.784 -0.008,1.06 1.315,0.766 z m -21.528,18.145 -0.13,-1.714 0.653,-0.374 0.532,0.244 1.042,0.008 0.774,0.792 1.565,-0.009 1.052,0.531 0.506,-0.009 0.791,0.522 0.522,0.782 1.052,0.514 0.663,0.661 -0.018,0.52 -0.392,0.384 -1.044,0.278 -0.783,0.505 -0.651,-0.39 -0.384,-1.437 -0.792,-0.514 -0.781,0.254 -1.567,-1.566 z m -5.618,7.689 v -0.523 l 0.278,-0.278 0.113,-0.374 h 0.278 l 0.114,0.121 v 0.522 l 0.269,0.27 v 0.252 l -0.13,0.122 -0.783,0.009 z m 12.656,-11.1 -0.383,-1.435 0.392,-0.13 1.312,0.514 1.028,0.016 0.921,0.653 0.269,1.043 -0.131,0.131 -2.364,-1.322 z m 5.48,-1.826 h 1.835 l 0.39,0.391 -1.433,0.14 L 63.4,8.629 62.877,8.638 62.478,7.976 63.156,7.846 Z M 63,6.923 63.009,6.41 63.139,6.279 h 0.523 l 0.137,0.122 V 6.672 L 64.061,6.923 63.93,7.315 63.392,7.324 Z M 58.173,6.271 57.799,5.879 57.789,5.61 57.921,5.488 h 0.26 l 0.27,0.262 h 0.261 l 0.131,0.129 -0.018,0.27 -0.113,0.122 z m 0.016,13.299 0.131,0.149 -0.009,1.286 -0.39,0.131 -0.514,-0.495 -0.279,-0.018 -0.111,-0.644 0.651,-0.4 z m -11.219,1.836 0.766,0.782 0.53,0.018 0.122,-0.669 0.391,-0.122 0.79,1.052 h 0.262 l 0.774,0.765 h 0.54 l 0.123,0.661 -0.655,0.654 -0.782,-0.019 -0.262,0.27 -1.311,0.009 -0.775,0.513 h -0.532 l -0.634,-0.913 0.26,-0.253 -0.008,-0.521 -0.53,-0.784 0.017,-0.521 0.651,-0.922 z M 8.611,189.974 8.864,189.452 h 0.269 l 1.175,-1.175 -0.009,-0.251 0.781,-0.8 1.045,-2.088 0.262,-2.071 3.131,-3.661 0.259,-2.61 0.262,-0.252 -0.008,-1.313 0.279,-0.252 -0.009,-2.601 0.277,-0.279 -0.024,-3.123 -0.515,-1.06 -0.792,-4.158 -0.513,-0.791 -0.513,-2.079 -0.792,-1.044 -0.008,-0.539 -0.244,-0.244 -0.009,-1.835 0.905,-1.175 1.053,0.01 1.035,0.521 1.314,1.305 1.036,0.26 0.791,0.514 1.035,0.539 0.539,-0.009 0.773,0.522 h 1.835 l 1.548,-0.801 1.316,0.019 0.522,-0.531 1.825,-1.035 0.783,-0.791 h 0.53 l 1.044,-0.513 1.288,-0.801 1.321,-1.549 1.027,-0.26 0.541,-0.522 1.816,-0.017 1.827,-0.766 0.521,-0.522 h 0.261 l 0.783,-0.8 0.261,0.016 1.697,-1.695 0.513,-1.295 0.8,-1.566 -0.147,-2.488 h 0.537 l 0.123,0.644 0.792,1.313 0.642,0.644 1.052,0.53 1.029,0.261 0.26,-0.27 1.573,0.009 0.262,-0.252 0.791,-0.009 0.262,-0.269 0.782,-0.26 0.782,-0.775 h 0.262 l 1.297,-1.576 h 0.53 l 0.373,0.393 0.009,0.522 -0.4,0.13 -0.905,0.922 v 0.791 l -0.261,0.252 0.269,0.244 0.254,1.061 -1.027,0.784 -0.28,0.52 v 0.776 l 0.801,1.052 0.252,1.826 -0.538,1.036 v 1.826 l 0.792,0.791 0.008,1.305 0.774,1.044 0.009,1.287 0.243,0.27 0.019,1.565 -0.262,0.271 -0.018,0.522 0.261,0.269 0.009,1.026 -0.782,0.522 v 0.522 l -0.261,0.27 v 2.087 l -0.774,1.818 -0.01,1.313 -0.261,0.253 0.009,0.79 -0.261,0.253 -0.01,1.314 -0.78,1.566 -0.774,1.026 -0.262,0.8 -0.782,0.775 -0.539,1.042 -0.523,0.253 0.009,0.271 -4.046,4.052 h -0.521 l -0.782,0.783 h -0.261 l -0.26,0.522 -0.653,0.382 -0.262,0.775 -0.652,0.669 -0.26,-0.017 -1.165,1.444 -1.324,2.348 -0.392,0.139 -1.67,1.688 -0.017,0.269 -1.434,1.696 -1.819,-0.008 -0.26,0.269 -0.262,-0.261 h -0.53 l -0.26,-0.521 -0.792,-0.009 -1.567,1.574 -2.339,-0.008 -0.381,-0.391 0.242,-0.253 v -0.521 l 0.54,-0.522 -0.01,-1.045 -1.564,-1.574 0.391,-0.652 1.051,0.522 0.132,-0.131 -0.662,-0.643 -0.521,0.008 -0.253,-0.269 -0.277,0.269 -2.079,-0.026 -0.262,0.27 -0.791,0.009 -0.523,0.252 -0.913,0.922 0.009,1.043 -0.26,0.253 v 2.609 l 1.313,0.783 0.12,0.661 0.914,-0.131 0.253,-2.087 -0.375,-0.121 -0.399,-0.662 v -0.522 l 0.391,-0.4 1.314,0.009 0.766,0.521 1.182,0.384 0.009,0.774 -1.061,1.07 v 0.252 l -0.784,0.522 -0.505,0.774 -1.051,2.096 -3.784,4.045 -1.304,0.261 -0.774,-0.792 -1.183,-0.382 -0.253,-0.793 0.262,-0.251 -0.009,-1.044 -0.262,-0.521 -0.398,-0.392 -0.505,0.009 -0.262,-0.271 -0.26,0.271 -0.663,-0.14 -0.244,-0.522 -0.009,-1.314 -0.269,-0.269 -0.008,-1.557 1.061,-1.304 v -0.774 l -0.531,-0.784 -0.009,-0.522 0.662,-0.13 0.784,-0.522 1.044,-0.261 1.174,-0.922 0.129,-0.382 h 0.261 l 0.262,-0.523 0.39,-0.131 v -0.269 l 1.566,-1.817 0.269,-1.044 0.783,-0.8 v -0.504 l 0.261,-0.523 -0.792,-0.53 0.019,-0.522 1.297,-2.618 0.641,-0.896 0.393,-0.13 -0.008,-1.313 1.059,-1.297 v -0.522 l 0.261,-0.522 -1.835,-2.096 -0.251,-1.305 -0.26,-0.253 -0.01,-0.52 0.521,-0.522 v -0.522 l 0.262,-0.253 0.009,-1.835 0.261,-0.522 -0.27,-0.27 v -0.521 l -0.532,-0.244 v -0.27 l -0.904,-0.913 -1.025,0.01 -1.061,-0.792 -1.818,-0.009 -0.93,0.922 0.008,1.296 0.269,0.521 0.775,1.574 0.26,2.609 -0.26,0.253 0.009,1.314 -0.279,0.252 0.009,0.792 -0.261,0.251 v 0.792 l -0.262,0.27 -0.009,4.167 0.261,0.52 -0.391,0.122 -1.949,1.958 v 0.522 l -0.26,0.27 0.269,1.295 -0.783,0.523 -0.277,1.313 -0.262,0.253 0.53,0.791 0.009,0.522 -1.583,1.817 0.01,1.566 1.304,1.574 v 0.775 l -0.514,0.791 -0.261,0.522 -0.01,2.087 0.271,0.244 -0.016,0.539 -0.636,0.653 -1.313,-0.009 -1.966,-2.218 -0.243,-0.774 -0.793,-0.783 0.019,-0.269 -1.975,-0.905 -0.382,-0.391 V 192.2 l 2.479,-2.226 z m 47.892,-179.666 -0.01,-0.245 0.113,-0.13 h 0.28 l 0.113,0.122 0.009,0.253 -0.114,0.147 h -0.279 z"
         style="fill:#999999;fill-opacity:1;fill-rule:nonzero;stroke:none"
         id="path614" />
    </g>
  </g>
</svg>
