
<svg width="64px" height="116px" viewBox="0 0 64 116" version="1.1" xmlns="http://www.w3.org/2000/svg" xmlns:xlink="http://www.w3.org/1999/xlink">
    <!-- Generator: Sketch 51.2 (57519) - http://www.bohemiancoding.com/sketch -->
    <desc>Created with Sketch.</desc>
    <defs></defs>
    <g id="Page-1" stroke="none" stroke-width="1" fill="none" fill-rule="evenodd">
        <g id="DM-EPS-01-0001" transform="translate(-291.000000, -144.000000)" >
            <path d="M352.30332,210.68696 L352.7532,210.68696 L352.95974,210.4588 L354.30248,210.24444 L354.41242,209.90542 L354.85448,209.69842 L354.85448,209.24256 L354.40506,208.79912 L354.63322,207.91546 L354.28776,207.59116 L351.65518,207.58426 L351.3088,207.2526 L351.31708,206.80916 L351.97994,206.37446 L352.08988,206.03544 L352.7463,206.0428 L353.07796,205.71114 L353.2914,204.59748 L352.6359,204.15634 L353.08532,203.71382 L352.41464,203.05786 L352.6359,202.61534 L352.18694,201.95938 L352.51722,201.3991 L352.84888,201.28824 L352.85624,200.831 L352.6359,200.61802 L352.5324,199.85902 L350.65284,199.73298 L350.66066,198.85576 L351.53052,197.30832 L351.52178,196.42374 L351.75086,195.98122 L352.08252,195.6491 L352.7394,195.65738 L353.09176,195.311 L352.86406,194.4255 L353.52784,193.76218 L353.74082,192.43554 L353.41054,192.3256 L353.30704,192.0082 L353.86042,191.44746 L354.63322,191.1158 L354.63322,190.88672 L353.74082,190.22478 L353.74956,189.78962 L354.1769,188.9055 L353.85168,188.56556 L353.08532,188.4547 L353.07796,187.1276 L353.29876,186.9068 L353.30704,186.2513 L352.6359,185.57234 L352.64234,185.145 L352.86406,184.92466 L352.85624,184.03962 L351.96522,183.37584 L351.75086,182.2631 L350.21078,180.94336 L350.42514,180.05924 L350.66066,179.83108 L350.64686,177.83974 L350.8672,177.62676 L350.8672,177.1847 L350.32072,177.07338 L350.0852,176.63132 L349.4297,177.06602 L348.77282,176.63868 L348.10996,176.63132 L347.4471,177.06602 L346.55516,177.07338 L346.2235,176.73482 L345.99442,175.6368 L346.66556,174.51578 L346.67246,173.86028 L346.89418,173.63856 L346.65774,173.41776 L346.90154,172.98306 L346.89418,171.86894 L346.4443,171.44252 L346.33344,170.87442 L345.67702,170.88224 L345.45668,170.65316 L342.8034,170.65316 L342.1318,169.77594 L341.9179,169.77594 L341.37326,169.22348 L341.37326,168.99532 L340.2527,167.67604 L340.2527,167.2326 L340.03742,167.00444 L340.03144,165.90596 L339.81064,165.6778 L339.81064,164.3507 L339.25726,164.23984 L338.6956,163.68784 L338.70342,163.2444 L338.37268,163.14228 L338.26182,162.80326 L337.8262,162.5889 L337.82068,161.47616 L338.0401,161.26272 L338.04654,160.59158 L338.48998,160.15688 L338.37268,159.37534 L337.49454,158.93972 L336.17618,158.93328 L334.82654,158.28422 L334.28926,158.60162 L334.16368,158.93328 L332.62268,158.93972 L331.74454,158.49076 L331.29558,158.49812 L331.07386,158.04088 L330.3075,157.9452 L330.1902,156.51506 L329.7555,156.50724 L329.5347,156.27908 L329.09218,156.50724 L328.20024,156.5008 L327.75818,156.05092 L327.0944,156.94332 L326.43016,156.94332 L326.20982,157.17148 L324.21986,157.17148 L323.56298,156.27908 L322.67196,156.28644 L322.45024,155.84438 L322.11904,155.73352 L322.01554,155.17324 L321.79474,155.17324 L320.68936,156.05736 L320.23212,156.05736 L320.03294,155.84438 L318.91284,156.71424 L318.4694,156.72896 L318.24814,156.94332 L317.92476,156.38994 L317.59218,156.27908 L317.26098,156.83982 L317.1423,157.16366 L316.69288,156.5008 L316.2568,156.5008 L316.03048,156.72896 L315.37498,156.7216 L315.15372,156.94976 L315.0493,155.95524 L313.94392,155.07066 L313.7222,154.39262 L313.49496,153.7362 L312.94848,153.62534 L312.38866,153.07242 L311.95396,151.53188 L311.39322,150.97988 L310.84766,150.63994 L310.39778,149.75536 L310.40514,148.87078 L310.19124,148.42826 L309.18936,147.43374 L308.96856,147.44892 L307.97404,146.45302 L307.95886,145.99624 L307.6341,145.67194 L306.97032,145.66458 L306.64602,145.33982 L306.5439,144.78 L305.86494,144.78736 L305.64414,145.00172 L302.76868,144.99344 L302.54696,144.78 L300.13058,144.78 L299.90886,145.00816 L299.23036,145.00172 L299.00956,145.22988 L298.56704,145.01552 L297.24868,145.00172 L296.79052,145.22988 L296.0306,146.0036 L296.0306,146.4383 L295.58164,147.1099 L295.58164,147.7654 L294.92522,149.09986 L294.92522,151.09718 L294.7035,151.30372 L294.69706,151.74532 L295.36774,152.85162 L294.7035,153.3015 L296.02416,155.50536 L296.03796,155.94788 L295.36774,156.83982 L295.36774,157.28188 L294.81528,157.8279 L292.81704,157.84262 L292.59716,158.05606 L292.1551,158.0487 L291.82252,158.3799 L291.9343,160.04602 L293.05348,160.26728 L293.69518,159.8243 L294.1377,159.81786 L294.37414,159.6035 L295.2578,159.59614 L295.47078,159.8243 L295.91422,159.8243 L296.47404,160.37814 L297.35816,162.3681 L297.57896,163.46612 L297.1369,164.35806 L296.69576,164.80058 L296.68702,165.2431 L296.24496,165.90596 L296.0306,167.46168 L294.36678,169.10526 L293.70898,169.10526 L293.48818,169.32606 L292.82532,169.55422 L291.38,171.22126 L291.38736,172.75398 L291.71258,173.3069 L292.47802,173.64592 L292.7071,175.186 L293.15698,175.8576 L293.15698,176.29966 L293.37042,176.52046 L293.5995,177.6332 L294.03512,178.06146 L294.47718,179.83108 L294.69706,180.05924 L294.6897,180.5013 L294.04156,181.82104 L294.04156,183.37584 L294.69706,184.26042 L294.92522,185.35936 L295.58808,186.69382 L296.69576,188.02046 L296.69576,188.4478 L296.90874,188.68378 L296.9161,190.23214 L298.01504,192.2221 L299.56938,193.77 L299.77684,194.21206 L299.7842,195.09664 L299.13606,196.1873 L299.1287,196.85844 L299.68806,197.63906 L300.56574,198.07468 L301.67158,199.1727 L301.89054,199.18006 L302.65046,199.96114 L302.66656,200.40458 L303.32896,201.7303 L303.32896,202.17282 L304.8695,203.93462 L305.09858,204.37714 L305.09858,205.04736 L305.31202,205.26172 L305.31202,207.25904 L305.09122,207.47294 L305.09858,209.02084 L305.53236,209.47072 L305.53236,209.69842 L305.96844,209.91278 L305.97488,210.79782 L306.75688,211.35074 L307.6341,211.57154 L308.74684,212.2344 L309.07206,212.56698 L309.07206,213.00904 L309.28504,213.22294 L309.29884,213.66454 L310.40514,214.54222 L311.05328,216.31092 L311.28236,217.20332 L313.05934,218.97892 L313.50876,219.86442 L313.50232,220.30694 L313.93748,220.96244 L314.15736,223.40274 L314.38644,223.61618 L314.37954,225.17144 L313.7084,226.04866 L313.71576,227.3753 L313.49496,227.60438 L313.48668,228.26034 L313.7222,228.4885 L313.71576,229.58744 L314.05478,230.14634 L314.71856,230.36852 L315.04286,230.69236 L315.27148,231.1496 L315.2632,232.24854 L315.04286,232.46888 L315.04286,234.2385 L314.82114,234.45286 L314.82114,234.894 L315.27148,235.5656 L315.27148,235.77904 L315.81566,236.33196 L317.57746,237.20872 L318.5959,238.22578 L318.80842,238.6683 L318.80842,239.0961 L319.02278,239.32472 L319.02922,242.19926 L318.80842,242.41316 L318.8029,243.74026 L318.3521,244.6161 L318.35946,246.17228 L318.80842,247.05686 L318.8029,247.49938 L319.0375,247.72754 L319.0375,248.17006 L319.4722,248.82648 L319.45748,249.92404 L319.69392,250.15358 L319.68564,250.8238 L320.35724,251.70102 L321.02838,252.14354 L321.02838,252.35652 L321.57394,252.9099 L322.45024,253.14588 L322.79018,253.47018 L322.55466,255.24716 L321.45572,257.67918 L321.1236,258.01084 L320.02558,258.00348 L319.5757,257.78268 L319.47956,258.1217 L319.80478,258.46026 L321.35176,258.89496 L322.67932,259.55828 L323.34126,259.55184 L323.55562,259.78 L325.5465,259.78 L325.76822,259.55184 L326.43016,259.55828 L326.65188,259.33012 L327.32256,259.33748 L327.76462,259.56564 L328.42932,258.88806 L329.97722,258.89496 L330.63916,258.44554 L331.4069,258.32732 L331.4138,257.89952 L330.96438,257.67182 L330.96438,257.0154 L331.18472,256.57426 L331.95982,255.80698 L332.18016,255.80698 L333.06474,255.12848 L333.72852,255.12848 L333.94196,254.90722 L334.62092,254.90722 L335.06344,254.68642 L335.37992,254.36902 L335.38728,253.69834 L335.609,253.47018 L336.05106,250.8238 L336.82524,250.05744 L337.04466,250.04226 L337.2811,249.82928 L337.71626,250.04226 L340.59172,250.03536 L341.6971,250.92592 L342.35352,250.93466 L343.2381,250.27042 L345.89736,250.48478 L346.1269,250.26352 L346.78286,250.26352 L349.98262,247.94926 L349.97526,247.06468 L350.43986,246.62216 L350.42514,244.18922 L350.64686,243.96106 L350.66066,242.63396 L350.8603,242.42052 L350.8672,241.97064 L351.3088,241.2995 L351.31708,240.87216 L351.75868,240.42228 L351.3088,239.75942 L352.52596,238.7649 L353.4179,238.75662 L353.9699,238.44014 L353.75554,237.9829 L353.963,237.56246 L353.30704,237.32648 L353.52784,236.88488 L353.52048,236.0003 L352.86406,235.55778 L353.08532,235.34434 L353.31394,234.6732 L353.07796,234.23068 L353.52784,233.35392 L353.52048,232.02682 L353.74082,231.79866 L353.73392,230.92144 L353.9699,230.70708 L354.1907,229.15228 L354.63322,228.26034 L354.84804,226.9406 L354.63322,226.70508 L354.61896,226.04866 L353.73392,225.17926 L353.52048,224.72156 L353.30704,223.39492 L352.64234,222.51724 L352.6359,221.61886 L352.85624,221.41232 L352.6359,221.19152 L352.41464,219.4288 L352.20028,219.19328 L352.19246,217.64584 L351.97994,217.42458 L351.97994,215.66186 L352.5324,214.88814 L353.4179,214.6678 L353.74956,214.33614 L353.63134,213.3407 L352.96848,213.3407 L352.7532,213.11162 L351.98684,213.00904 L352.20028,211.6893 L351.96522,211.46114 L351.97304,211.01908 L352.30332,210.68696 Z M352.86406,199.51264 L352.86406,199.7408 L352.97446,199.84384 L353.41054,199.8512 L353.52048,199.7408 L353.52784,199.51264 L353.4179,199.40914 L352.95974,199.40178 L352.86406,199.51264 Z M330.86088,157.61354 L331.08168,157.61354 L331.19254,157.49532 L331.19254,157.28188 L331.08168,157.17148 L330.86088,157.17148 L330.73622,157.28188 L330.75002,157.48796 L330.86088,157.61354 Z" id="Fill-3"></path>
        </g>
    </g>
</svg>