<svg width="105" height="115" version="1.1" id="Layer_1" xmlns="http://www.w3.org/2000/svg" xmlns:xlink="http://www.w3.org/1999/xlink" x="0px" y="0px"
	 viewBox="0 0 105.2 115" enable-background="new 0 0 105.2 115" xml:space="preserve">
<path fill="#878787" d="M20.3,89.3l-0.1-0.5l-0.2-0.4l-0.1,0l-0.1,0l-0.1-0.1l-0.1-0.1l-0.5,0.7L19,89.1l0.1,0.6l0.2,0.6l0.3,0.7
	l0.5,0.6l0.5,0.3l-0.2-1.8L20.3,89.3z M36.8,85l0.7,0.4l0.6-0.1l0.4-0.6l0.1-0.8l-0.2-0.7l-0.4-0.3L37.4,83l-0.2,0.7l0,0.2v0.2
	l0,0.2L37,84.5l0.2,0.2l0,0.2l-0.2,0.1L36.8,85z M51.9,103l0.2-0.6l-0.6-0.1l-0.7,0.2l-0.4,0.4l-0.1,0.3l-0.4,0.6l-0.1,0.5l1,0.7
	l0.3,0l0.2-0.4l0.2-0.4l0.5,0.2l0.1-0.4l0-0.3l-0.1-0.3L51.9,103z M97.8,113.3l-0.2-0.7l-0.4-0.3l-0.8,0.2l0,0.5l0.4,0.6l0.2,0.6
	l-0.2-0.1l-0.4-0.1l-0.2-0.1l-0.1,0.3l0,0.1l-0.1,0l-0.3,0.1l0.1,0.3l0.2,0.2l0.5,0.1l0.4,0l1.1-0.3l-0.2-0.6L97.8,113.3z
	 M43.3,25.7l0.6-0.3l0.9,0l0.1-0.1L44.8,25l0.2-0.8h-1l-0.4-0.1l-0.3-0.2H43l0.1,1.3L43.3,25.7z M53.3,16.6l0.3,0.1l0.7,0.1l0.5-0.2
	l0.3-0.3l0.2-0.4l-0.3,0.2l-0.3,0.1l-0.3-0.1l-0.3-0.2l-1,0.6l0.1,0.1L53.3,16.6z M70,55l-0.2-0.4l-0.5-0.3L69,54.5l0,0.4l0.3,0.5
	l0.4,0.3l0.3,0.3l0.2,0.3l0.2,0.5h0.3l-0.1-0.5L70,55z M60.1,60.2L59.6,59h-0.2l0,0.4l0.4,1.1l0.1,0.4l0.2,0.2l0.2,0l0.2-0.2
	l0.2,0.3l0.1-0.2l0-0.1l0.1-0.3l-0.6-0.2L60.1,60.2z M84.5,62.7l-0.1-0.2l0.2-0.2l0.1-0.1v-0.2L84,61.7l-0.6-0.3l-0.2,0.5l0.1,0.5
	l0.3,0.5l0.3,0.3l0.2,0.7l0.2,0.2l0.3-0.4l0-0.3L84.6,63L84.5,62.7z M1.4,41.6l-0.5,0L0,41.2v0.3l0.4,0.2l0,0.4l-0.2,0.5l0.1,0.6
	l0.4,0.4l0.5-0.1l0.5-0.4l0.5-0.8l0-0.2L2.2,42l0.3,0L2,41.2L1.4,41.6z M10.8,29.4l0.1,0.2l0.3-0.2l0.2-0.2l0.2-0.3l0.1-0.3
	l-0.5-0.3l0.3-0.4l1.1-0.9l-0.6-0.2l-0.7-0.1l-0.4,0.2l0.3,0.6L10.3,28l-0.2,0.4l0.4,0.7L10.8,29.4z M101.7,18.8L101,19h1.2l0.7-0.1
	l0.4-0.4l0.2-0.6l0-0.8l-0.2,0.4l-0.4,0.2l-0.4,0.1l-0.3,0l-0.1,0.1l0,0.5l-0.1,0.1L101.7,18.8z M82.1,7.2l0.6-0.1l0.4-0.2l-0.5-0.2
	l-0.5-0.1h-1.2v0.2l0.6,0.2L82.1,7.2z M104.7,14.3l0,0.3l0.1,0.2l0.2,0l0.2-0.1v-1.9l-0.4,1L104.7,14.3z M63.4,55.8l-0.3-0.4
	l-0.6-0.2L62,55.3l-0.5,0.3l-0.5,0.1l-0.8,0.6l-0.3,1.3l0.2,1.3l0.7,0.7l-0.2,0.6l0.4,0l1.8-0.5l0.5-0.4l0.3-0.6l0.1-0.9v-0.6
	l-0.2-0.7L63.4,55.8z M81.5,69.7l-0.3-0.4l-0.9-1.6l-0.6-0.3l-0.5-0.1l-0.2-0.1l-0.2,0l-0.8,0.6l-0.3,0l-0.4-0.2l0.1,0.4l0.3,0.6
	l0.1,0.2l0,1.1l0.2,1.1l0.2,0.3l0.3-0.1l0.1-0.3l-0.1-0.8l0.1-0.4l0.2,0.6l0.2,0.4l0.7,0.9l0.2,0.5l0.3,1l0.4,0.5l1.1,0.6l0.5-1.5
	l-0.1-2L81.5,69.7z M85.3,41.3l-0.3-0.3l-0.3,0l-0.3,0.1l-1.5,0.2l-0.3,0.4l0,0.5l-0.1,0.5l0.3,0.5l0.2,0.6l0.1,0.6v2.2l0.3,0.2
	l1-0.8l0.6-0.7l0.4-0.7l0.2-0.9l0.1-1l-0.1-1.3V41.3z M6.7,35.5L7,35.2l0.2-0.5v-0.5L7,33.7l-0.3,1L6.4,35H6.2l-0.2-0.2l-0.4-0.7
	l0-0.2l-0.3,0.1l-0.8,0.6L4.2,35l-0.1,0.4l-0.1,0.4l-0.1,0.3l-0.3,0.2l-0.3,0.2L3.3,37l0.1,0.5l0.2,0.4H3v0.3l1,0.2v-0.5l0.1-0.3
	l0.3-0.3l0.3-0.2l0.1,0.2L5,37.4l0.1,0.1l0.2,0.1L5.3,37l1.1-0.7L6.7,35.5z M12.7,25.9l0.3-0.2l0.2-0.2l0.1,0.1l0.4,0.2l0.3-0.7
	l0.5-0.5l2.3-1.8l0.1-0.2l0.1-0.3l0.6-0.4l0.3-0.4l0.2-0.7L18,20.1l-0.4-0.3l-0.7,0l0.4,0.9l-0.5,0.8l-1.7,1.4l-1.4,1.4l-0.7,0.3
	l-0.4-0.4h-0.3l0,0.4l-0.2,0.9l0,0.2l0.3,0.2L12.7,25.9z M104.1,90.2l-0.6-0.2l-2.4,0.4l-1,0.5l-0.4,0.3l-0.3,0.5l0.9,0.5l0.3,0.3
	l0.2,0.1l0.2,0l0.1,0l0.1,0.5l0,0.2l0.1,0.1l0.1,0.1l0.6,0.3l0.5-0.4l0.2-0.6l-0.1-0.6l-0.2,0.2l-0.2,0l-0.2-0.1l-0.2-0.3l0.4-0.1
	l1.3-0.6l0.5-0.3l0.1-0.2v-0.2L104.1,90.2L104.1,90.2z M50.4,106.3l-0.4-0.2l-1.3-0.2l-0.3,0l-0.3-0.6l-1.2,0l-0.3-0.5l-0.4,0.2
	l-0.3,0l-0.3-0.1l-0.4-0.1l-0.3,0.1l-0.2,0.2l-0.1,0.2l-0.2,0.1l-0.6,0l-0.2,0.2l-0.3,1.1l-1-0.4l-1.5,0.1l-1.3,0.5l-0.5,0.8v0.7
	L39,109l-0.3,0.3l-0.5-0.4l-0.4,0.3l-0.1,0.4l0,0.4l-0.2,0.3l-0.3,0l-2-0.5l-0.4,0l-0.4,0.2l-0.3,0.4l-0.1,0.8l-0.4,0.3l-0.7-0.3
	l-0.7,0.2l-1.1,1.1l0.4,0.3l0.4,0.2l0.4,0.1l0.3-0.2h0.2l0.2,0.5l0.4,0l0.8-0.5l0.5,0.1l0.9,0.4l0.6,0.1l0.5-0.1l0.3-0.2l0.2-0.3
	l0.3-0.4H38l0.2-0.1l0.5-0.4l-0.1,1l0,0.3l0.3,0.2l0.3,0l0.3-0.2l0.2-0.3L40,113l0.1-1l-0.2-0.3l-0.5-0.1l-0.3-0.2L39,111l0.1-0.4
	l0.3-0.3l0.2,0.6l0-0.2v-0.8l0.2-0.4l0.4-0.1l0.6,0l0.6-0.2l1.5-1.3l0.9-0.4l1,0.3l-0.2,0.1l-0.2,0.2l-0.2,0.2l0.2,0.2l0.2,0l0.2,0
	l0.3-0.2l-0.1,0.3l-0.1,0.5l-0.1,0.2l0.6-0.2l0.9,0l0.8,0l0.4,0.1l0.3-0.2l0.1-0.2v-0.3l-0.2-0.3l0.7,0.1l0.4,0.1l0.3,0.2l0.5-0.4
	l0.8-0.4l0.1-0.6l-0.2-0.7L50.4,106.3z M104.3,26.1l-0.2,0.5l-1.3,1.9l-0.9,0.7l-0.4,0.5l-0.2,0.5l0.2,0.5l0.7,0.6l0.2,0.6l0.4,0.1
	h0.5l0.5-0.1l0.5-0.2l0.5-0.3L105,31l0.3-0.4v-6.7l-0.8,1.6L104.3,26.1z M58.3,69.6l-0.2,0.2l-0.2,0.2l-0.2,0.1l-0.4,0L57.2,70v-0.2
	l-0.1-0.2l-0.4-0.5l-0.2-0.3l-0.3-0.2l-0.7-0.1L55,68.1l-0.7-1.2l-0.1-1.1l1.1-0.3l-0.2-0.6l-0.1-0.2l0.4,0.2l0.1,0.1l0.2-0.5l0-0.4
	l-0.2-0.3l-0.4-0.2l0.4-0.3l0-0.3L55.3,63l-0.4,0.2l-0.4-0.3l0-0.4l0.1-0.4l0-0.4l-0.2-0.2L53.8,61l-0.3-0.2l-0.1-0.3l0-0.3l0.1-0.3
	l0.1-0.4l0.2-0.7l0.5-0.6l0.4-0.7l0-0.9l-0.4-0.7l-0.7-0.5L52.8,55L52,54.9l-0.3-0.3l-1-1.4l-0.6-0.4l-0.5-0.1l-0.4,0L49,52.7
	l-1.5-1l-0.1-0.1l-0.1-0.1l-0.6-0.6l-0.2-0.1l0-0.3l0.1-0.4l-0.1-0.3L46,49l-0.6-0.5l-0.8-0.3l-0.9-0.1l-0.6,0.3l-1,1.2l-0.5,0.1
	l0.3-0.2l0.2-0.3l-0.1-0.3l-0.4-0.2l0.3-0.4l0.9-0.9l0.2-0.4l0-0.5l-0.4-0.7l-0.1-0.5l-0.4-0.6L41.5,44l-1-0.5l-0.8-0.3l-0.3,1.1
	L38.3,45l-1.4,0.2l-1.2-0.2l-0.6,0.3l-0.9,0l-0.4,0.3l-0.4,0.4l-0.4,0.3L32,46.9l-0.8,0.2l-1.1,0.1l-1.1-0.1l-0.8-0.5L27.8,47
	l-0.4,0.5l-0.5,0.3l-0.6-0.2l0.2-0.3l0.2-0.3l0.1-0.4l0-0.4l0-0.5l-0.1-0.1l-0.2,0.1L26.1,46L26,46.1l-0.2,0.2l-0.7,0.2l-0.3,0.1
	l-0.2,0.2l-0.3,0.1l-0.2,0.2L24,47.5L23.9,48l-0.2,0.2l-1.4-0.5l-0.2,0.1l-1.2,0.7l-0.3,0.2l-0.1,0.5v0.4l0.1,0.4l0.2,0.5l-0.2,0.2
	l-0.2-0.4l-0.3-0.7L20,49l0.2-0.3l0.1,0l-0.1-0.1L20,48.5l-0.2,0l-0.3,0.1l-0.1,0.2l0,0.2l-0.1,0.1l-0.1,0.2L17.6,50l-1.5,1.3h-0.2
	l-0.3-0.4L15.3,51l-0.3,0.5L14.7,52l0.2,0.4l-0.2,0.4L14.3,53l-0.4-0.5l-0.4,0.3v0.4l0.1,0.4l-0.2,0.4l-0.3,0.2l-0.8,0.2l-0.2,0.2
	l-0.3,0.7l-0.7,0.3l-0.5,0.4l0.2,0.8l0.3,0.3l0.3,0.2l0.3,0.2l0.1,0.3l0,0.4l0.2,0.7l0,0.4l0.1,0.3l0.1,0.2l0,0.3l-0.4,0.3l-0.3,0
	l-1.3-0.4l-0.2-0.1L10,60.2l0,0.5V62l0.1,0.4l0.1,0.3L10.1,63l-0.3,0.4l-0.3,0.1L8.5,64l-1.6,0.1l-0.6,0.3L6,65.1l0.1,0.4l0.2,0.3
	l0.2,0.3l0,0.5l-0.1,0.4l-0.5,0.7l-0.1,0.3l0.1,0.4l0.2,0.3l0.2,0.3l-0.1,0.3v0.2l0.7,0.4L7,70L7,70.5l0.2,0.3L7.3,71l0.1,0.2
	l0.1,0.4l0,0.7l0.2,0.4L8,72.5l0.8,1.2l1.1,0.5l2.6,0.6l0.2,0.2l0.2,0.2l0.2,0.2l0.4,0.2l0.4,0l1.8-0.1l0.4,0.1l1.1,0.5L18,76
	l1.9,0.9l1,0.3l0.9,0.1l4.6,1.3l0.2,0.2l0.1,0.3l0.7,0.6l0.2,0.1l0.2-0.1l0.2-0.2l0.3-0.2l0.3-0.1l0.1,0.2L29,80l0.4-0.1l0.6-0.3
	l0.5,0.1l0.4,0.2l0.5-0.1l0.4-0.3l0.2-0.2l0.3,0.2l0.2,0.1l0.5,0l1.2,0.2l2.7-1l0.8,0.8l0.2-0.3h0.3l0.7-0.2l0.6-0.6l1.1-1.2
	l0.3-0.2l0.8-0.3l0.3-0.2l0.2-0.2l0.2-0.6l0.2-0.2l0.2-0.2l0.2-0.2l0.3-0.1l0.5,0L44,75l0.3-0.3l0.2-0.3l0.3-0.1l0.2,0l0.4-0.2
	l0.3-0.1l0.2,0.1l0.2,0.2l0.1,0.2l0,0.1l0.4-0.1l0.3-0.1l0.2-0.2l0.2-0.3l-0.1-0.1h0l-0.1-0.2l0.5,0l0.3,0.1l0.3,0.2l0.6,0.6
	l0.1,0.1l0,0.2l0,0.6l0.4,0l0.8-0.2l0.6-0.5l-0.1-0.8l0.5-0.2l1-0.6l0.3,0l0.3,0.2l0.2,0l0.2,0l0.2,0.4l0,0.2l-0.4,0.6l0.4-0.1
	l1-0.4v0.8L55,74l1.8-0.9l0.3-0.2l0.4-0.4l0.4-0.5l0.2-0.5l0-0.3l0-0.6l0.1-0.2l0.3-0.5l0.1-0.3h-0.2L58.3,69.6z M104.6,0L102,1.1
	l-0.3,0.3l-1.3,1L100,3.1L99.9,3h-0.4l-0.4-0.2l0.3-0.2l0.2-0.2l-0.1-0.2l-0.4-0.1l-0.5,0.1l-0.8,0.7l-0.4,0.2L97,2.6l-0.1-0.9
	l-0.2-0.6l-1.1,0.6l-0.9,0.4l-0.2,0.2l-0.1,0.3l-0.3,0.1l-0.7-0.1l-0.1,0l-0.1-0.1L93,2.6l-0.2,0v0.1l0,0.3l-0.1,0.3l-0.2,0.1
	l-0.2,0H92l-0.1,0.2v0.6l-0.2-0.4l-0.2-0.2l-0.3,0l-0.3,0.3l-0.3-0.2l-0.4-0.2l-0.3-0.2l-0.2-0.5l-0.2,0.5l-0.3,1.3l-0.2-0.5
	l-0.2-0.4l-0.3-0.2h-0.5l0.5,0.7l-0.5,0.2l-1.3-0.1l-0.6,0.3l-0.2,0.5l-0.1,0.6l-0.2,0.6L85.1,6l-0.4,0.3L84.3,7l-0.2,0.6l-0.3-0.2
	l-0.4,0L83,7.6l-0.4,0.4L83,8.2l0.3,0.4l0.2,0.5l0.1,0.6l-0.3-0.1h-0.1l-0.2,0l-0.3,0l-0.3-0.1l-0.2-0.5L82,9l-0.5,0.2l-0.3,0.4
	L81,9.7l-0.5-0.5l-0.6,0.5l-1-0.1l-1.1-0.3l-0.7,0l-0.2,0.1l-0.6,0.1L76,9.7l-0.1,0.2l-0.3,0.5l-0.1,0.1l-0.4,0l-1.1,0l-1.1,0.2
	L71,11.4l-1.7,0.2l-1,0.3l-0.6,0.1l-0.2-0.2l-0.3-0.3l-0.3,0l-0.2,0.7l-0.2-0.1l-0.4-0.1L66,12.1l0.1,0.5l0.3,0.6l0.1,0.5l-0.4,0.2
	l-0.4,0.3l-0.4,0.6l-0.4,0.4l-0.4-0.5h-0.2l0,0.4l-0.1,0.3l-0.2,0.2l-0.3,0.2l0-0.3l-0.2-0.3l-0.1-0.2l-1.1,1.5l-0.2,0.4l0.1,0.9
	L62.3,18l-0.5,0.2l-0.1-1.1l-0.3-0.4L60.8,17l-2,1.7l-0.2,0.3l-0.1,0.2l-0.2,0.2l-0.5,0.1l-0.4-0.1l-1.1-0.7l-1.1-0.2l-0.4-0.1
	l-0.3-0.2l-0.4-0.6l-0.3-0.2l-0.4,0L52.2,18l0.3,0.7l0.4,0.4l0.5,0l0.8-0.4L54,19.4l-0.5,0.9l-0.2,0.6L53,20.6l-0.2,0.2l-0.2,0.4
	l-0.3,0.3v-0.8l-1.2,1l-0.3,0.6l0.1,0.7h-0.2l-0.3-0.2l-0.2,0.2l0.1,0.4l0.4,0.3l-0.1,0.1v0l-0.2,0.1l0.9,0.8l1.1-0.2l2.2-1.1
	l0.1,0.5l0.3,0.2l0.8,0.3l-0.3,1.1l0.5,0.9l0.7,0.7l0.4,0.7l0.1,1l0.3,1.2l0.4,1.1l0.5,0.5l0.6,0.2l0.5,0.1l1.1-0.1l0.1-0.2l1.3-0.9
	l-0.5-0.4l0.1-0.2l0.3-0.2l0.3-0.3l0.3-1.5l0.2-0.3L64,27l0.4-0.3l0.3-0.1l0.4,0.1l0.6,0.3v-0.8H66v0.4l0.1,0.3l0.2,0.2l0.7,0.2
	l0.1,0.2l0,0.3l0.2,0.3l0.5,0.3l1.4,0.4l0.5,0.2H70l0.4-0.4l1-0.7l0.3-0.5l-0.7-0.1l-0.4,0.1L69.8,28l0.9-2.7l0.8-0.9l1.1,0.3
	l0.5-0.3l0.5-0.4l0.2-0.5l-0.2-0.7l1.1-0.9l0.7-0.4l2.7-1.1l0.4,0l0.3-0.1l0.6,0.3l0.9,0.7l1.1,0.3l0.4,0.3l-0.1,0.5l0.2,0.5
	l-0.5,0.2l-0.7,0.2l-0.3,0.4l-0.2,0.5l-0.4,0.3l0,0.1l2.9-0.2l1,0l1.3,0.4l0.6-0.3l0.6-0.2l1.2,0l1.5-0.3l0.7,0l0.6,0.6l0.5-0.7
	l1.3-0.9l0.4-0.8h0.3l0,0.1l0.2,0.3l0.1-0.4l0.2-0.2l0.3-0.1l0.5,0l0.4-0.1l0.6-0.5l0.3-0.2l0.5,0.1l0.7,0.2l0.8,0.1l0.8-0.3
	l0.3,0.5l0.5,0.2l1.3,0l-0.2,0.5l0.2,0.5l0.4,0.2l0.5-0.4l0.2,0.1l0.5,0.2l-0.1-0.2l-0.3-0.6l-0.1-0.2l1.1,0.4l0.5,0.1l0.4-0.3
	l-0.1-0.6l-0.5-0.4l-0.7-0.2l-0.5,0l-0.1-0.9l-0.3-0.7l-0.6-0.4l-0.9-0.1l0.8-1l0.2,0l0.5,0.1l0.1,0l0-0.2l-0.1-0.5l0-0.2l1.2-2.3
	l0.4-1.1l0.2-0.3l0.3-0.3l0.2-0.4l-0.4-0.9v-0.3l-0.1-0.2l-0.6,0l-0.3,0.1l-0.2,0.2l-0.1,0.2l-0.2,0.2l-1.9,0.9l-0.3,0.2l-0.3,0.6
	l-0.7,0.6l-1.2,0.8l-0.5,0.2L96.4,16l-0.1,0.3l-0.1,0.3l-0.3,0.2l-0.4,0.1l-0.3,0.2L95,17.4l-0.4,0.9l-0.3,0.4l-0.1,0.1l-0.4,0.1
	L93.6,19l-0.1,0.2l-0.1,0.5l-0.1,0.2L93,19.9L92.6,20l-0.3,0.2l-0.2,0.5l-0.2,0.3l-0.4,0.3l-0.5,0.2l-0.4,0.1l-0.5,0.2l-0.8,1
	l-0.5,0.4l-0.4-0.5l-0.6-0.1l-0.7,0.2l-0.6,0.4l-0.3-0.3l0.4-0.5l0.1-0.7L86.7,21l-0.4-0.4l0.2-0.2l0.6-0.2l0.2-0.1l0.4-0.7l0.2-0.2
	l0.4-0.3l0.9-0.6l0.4-0.3l0.3-0.5l0.1-0.6v-0.6l0-0.5l0.2-0.5l0.2-0.3l0.2-0.2l3.5-2.4l0.8-0.3l0.8-0.4l0.9-1l0.6-1.1V8.7L98,8.3
	l1.5-2.1l0.5-0.9l0.3-0.2l0-0.1l0.2-0.3l0.5-0.5l0.2-0.3l0.3-0.6l0.3-0.3l0.3-0.1l0.6,0l0.3-0.1l2.2-2V0H104.6z"/>
</svg>