
<svg width="81px" height="116px" viewBox="0 0 81 116" version="1.1" xmlns="http://www.w3.org/2000/svg" xmlns:xlink="http://www.w3.org/1999/xlink">
    <!-- Generator: Sketch 51.2 (57519) - http://www.bohemiancoding.com/sketch -->
    <desc>Created with Sketch.</desc>
    <defs></defs>
    <g id="Page-1" stroke="none" stroke-width="1" fill="none" fill-rule="evenodd">
        <g id="GH-EPS-01-0001" transform="translate(-272.000000, -143.000000)" >
            <polyline id="Fill-3" points="327.888496 143.614843 328.020895 143.91682 328.317432 144.187512 328.681528 144.389737 329.00935 144.47226 329.33672 144.440067 329.941128 144.28137 330.274846 144.276836 330.872453 144.502639 331.13725 144.923413 331.193021 145.4852 331.143598 146.120895 331.105511 146.346245 330.979914 146.472295 330.822577 146.574315 330.677482 146.723943 330.589066 146.888535 330.205926 148.702215 330.217261 148.877688 330.312026 149.229542 330.280287 149.424966 330.122496 149.570061 329.7584 149.815361 329.507206 150.135929 329.374807 150.450602 329.280496 151.207814 329.11001 151.919683 329.09686 152.290127 329.280496 152.667372 329.436925 152.793423 329.632803 152.886374 329.840016 152.945319 330.255348 152.995195 330.380946 153.082252 330.494754 153.190619 330.652091 153.296719 331.212065 153.485795 331.375749 153.581014 331.514496 153.750139 331.722616 154.153683 331.873151 154.329157 332.812184 154.921323 333.095118 155.223301 334.006492 156.910477 334.058182 156.980303 334.19058 156.96126 334.265395 156.854252 334.316178 156.739537 334.366054 156.68286 334.837611 156.871936 335.008097 156.897781 335.210322 156.841557 335.380354 156.759488 335.537238 156.709158 335.719966 156.752233 335.896346 156.92816 335.908589 157.129932 335.84511 157.319008 335.820625 157.469997 336.022397 157.797366 336.324375 158.075766 336.512997 158.358246 336.355207 158.724156 336.606855 158.724156 337.388098 158.591758 337.558131 158.672467 337.92268 158.976258 337.482409 159.303627 337.401247 159.572959 337.350011 159.869949 337.218066 160.114342 337.249352 160.719658 337.15504 161.991047 337.331421 162.454896 337.558131 162.600897 337.753101 162.650773 337.897742 162.771836 337.948525 163.136386 337.872804 163.48824 337.671486 163.540383 337.401247 163.494134 337.085213 163.550812 337.192674 163.729006 337.180432 163.848255 337.123301 163.954809 337.085213 164.123935 337.11786 164.244998 337.331421 164.665318 337.45067 165.023973 337.437521 165.169521 337.311923 165.281969 337.085213 165.529537 336.941026 165.798415 336.902939 166.050063 336.985915 166.774175 336.979113 166.975946 336.601414 168.372933 336.626352 168.708011 336.721117 168.902528 336.846715 169.041274 336.965964 169.223549 337.048486 169.4888 337.085213 169.816169 337.035337 170.130389 336.853062 170.349391 336.532041 170.388839 336.235504 170.22334 335.7576 169.726845 335.505952 170.236489 335.517741 170.759736 335.801128 171.136981 336.355207 171.193659 337.079772 171.010931 337.43208 171.080304 337.583069 171.451655 337.463819 171.696502 337.174537 171.779024 336.846715 171.729148 336.601414 171.56637 336.280846 171.772676 335.852365 171.798068 334.951419 171.696502 334.907437 171.81167 334.825822 172.321768 334.832623 172.433763 334.875698 172.484546 335.008097 172.596994 335.185384 172.724858 335.366752 172.80466 335.826973 172.71851 336.079075 172.729392 336.235504 172.924363 336.166585 173.112986 335.939875 173.265335 335.656941 173.377783 334.913332 173.529679 334.913332 173.780873 335.039836 174.071969 334.895648 174.271927 334.976357 174.51224 335.30418 174.54942 335.637897 174.486395 336.449519 174.197566 336.588719 174.082851 336.658092 173.933222 336.714769 173.566406 336.802279 173.429926 337.073425 173.30841 337.46926 173.239036 338.187024 173.195055 338.527542 173.251732 339.471563 173.599052 339.585371 173.755482 339.617111 173.933222 339.579023 174.115497 339.45932 174.317723 339.452973 174.334499 339.45932 174.353996 339.471563 174.373493 340.001157 174.555768 340.321725 174.833714 340.434627 175.254488 340.270942 176.167676 340.239656 176.690016 340.165295 176.915819 339.988008 177.104442 339.786236 177.21961 339.641595 177.395991 339.622098 177.746484 339.843821 178.38898 339.848808 178.673275 339.635701 179.043719 339.23261 179.401467 339.118802 179.57286 339.118802 179.854887 339.024491 180.434358 338.72206 180.989797 338.540238 181.536168 338.780097 182.096142 338.785992 182.096142 339.641595 183.552074 339.868305 184.432615 339.471563 184.992589 339.384053 185.219752 339.352313 185.497699 339.296089 185.736651 339.094317 185.829602 338.867607 185.792422 338.685333 185.736651 338.521648 185.710353 338.332572 185.772925 338.427337 185.849099 338.306273 186.144276 338.118104 186.352395 337.929028 185.948398 337.721815 185.868596 337.495105 185.912125 337.374495 186.08125 337.526845 186.97086 338.048731 188.089901 338.759693 189.079263 339.471563 189.563516 339.774447 189.91673 340.207917 190.313472 340.674486 190.645376 341.837962 191.194467 342.153995 191.856007 342.380705 192.53523 343.066276 193.095204 343.10391 193.28292 343.097109 193.491946 343.141997 193.749489 343.129302 193.931764 343.135196 194.014286 343.211371 194.077311 343.424932 194.108144 343.487957 194.171169 343.557784 194.613707 343.424932 194.882132 343.135196 195.060326 342.348059 195.411726 342.053336 195.606697 341.460716 196.136291 341.310181 196.212466 341.170981 196.222895 341.083471 196.291815 341.063974 196.526686 341.132894 196.715309 341.272093 196.847254 341.397691 197.004137 341.42943 197.251251 341.328771 197.482949 341.190478 197.589502 341.102061 197.7151 341.195919 198.155371 341.258944 198.992837 341.42943 199.661632 341.435778 200.008045 341.422629 200.674119 341.611252 201.940067 341.593115 203.01694 341.756799 204.036681 341.718712 204.967099 341.769949 205.320766 341.253503 205.231896 341.020445 205.598713 340.969209 206.152339 340.975557 206.635684 340.86991 206.875543 340.630051 207.002501 340.346663 207.075955 340.113605 207.184776 339.931331 207.360249 339.817522 207.548872 339.754043 207.770141 339.685124 208.808926 339.774447 209.689921 340.063729 210.470257 340.62325 210.967205 340.951072 211.01028 341.303833 210.947708 341.958571 210.709209 342.077821 210.865186 342.361208 212.036823 342.342618 212.421323 342.102759 213.075608 341.939074 213.90718 341.505151 214.975891 341.449381 215.676425 341.523742 216.475351 341.511499 217.256594 341.170981 217.86599 340.944271 217.997935 340.189327 218.193359 339.931331 218.212856 339.666533 218.289031 339.874653 218.566071 340.378403 218.955105 340.591964 219.334164 340.548435 219.636142 340.170283 220.258687 340.051034 220.635933 340.107711 220.807779 340.27729 220.907078 340.497652 221.071669 341.014098 222.028839 341.132894 222.185722 341.435778 222.254642 341.750452 222.423768 342.008448 222.670882 342.159436 222.958803 342.178933 223.250352 342.021597 224.149937 342.122256 224.520835 342.354407 224.734396 342.606055 224.917577 342.764299 225.200058 342.933424 225.219555 343.431279 225.200058 343.594964 225.233158 343.822127 225.458054 343.809432 225.623552 343.683381 225.792678 343.569119 226.017574 343.537833 226.491398 343.651641 226.930762 343.865202 227.353803 344.14859 227.781831 344.520394 228.164971 345.400936 228.598894 345.849368 228.883189 346.43428 229.581909 346.66099 229.751034 347.025539 229.853054 348.384893 229.859402 348.851462 231.28314 349.128048 231.677162 349.273142 231.779182 349.405087 231.835859 349.53794 231.911127 349.675779 232.06801 349.90929 232.428479 350.097913 232.647028 350.34412 232.772625 351.822269 232.944471 352.030389 233.220151 351.985954 233.855845 351.873506 233.894839 351.067325 234.328762 350.450221 234.808027 349.543381 235.771545 349.342969 236.085765 348.901338 236.952704 348.813828 237.306825 348.795238 237.670921 348.606615 238.502493 348.454719 238.836664 347.88205 239.365351 347.163833 239.610652 343.758649 239.994698 337.36316 239.535384 336.601414 239.572564 336.172933 239.673224 335.959372 239.755746 335.870501 239.862753 335.77619 239.911722 335.348615 239.932126 335.196719 239.981549 334.857561 240.226849 333.667334 240.547417 333.391201 240.729692 332.906042 241.183112 332.206868 241.385337 331.962021 241.64288 331.759796 241.964355 331.476408 242.259078 330.059924 242.731995 329.971961 242.781871 329.738903 243.016289 329.638244 243.096998 329.480907 243.155489 329.197973 243.17952 325.370655 244.412822 324.564021 244.513935 324.231664 244.672632 322.923094 245.767188 322.785254 245.96896 322.692303 246.238291 322.453351 246.485405 321.811308 246.8758 320.56531 247.184125 320.351296 247.184125 320.219804 247.316071 319.931429 247.534619 319.636253 247.623943 319.487984 247.372748 318.564821 248.014791 318.336298 248.103208 317.295699 248.951556 316.872658 249.450318 316.603327 249.619444 315.277527 249.808067 314.869449 249.789476 314.606919 249.563673 314.485855 249.713302 314.31673 249.771793 313.876006 249.801719 313.448884 249.907819 313.238044 249.901925 313.145999 249.738693 313.082067 249.58045 312.93924 249.619444 312.719785 249.801719 312.425968 249.828471 312.140767 249.901925 310.281292 250.702211 310.091762 250.961114 309.933519 251.119357 309.568062 251.331104 308.862541 251.646231 308.497538 251.721499 307.335422 251.754599 307.143626 251.811276 306.731467 252.055669 306.53831 252.131844 306.357396 252.144993 305.988765 252.124589 305.808304 252.131844 305.477761 252.237944 304.833904 252.553071 303.591534 252.728545 303.188897 252.879987 302.875584 253.101256 302.618495 252.986541 302.304274 252.962509 302.00275 253.038684 301.779214 253.214611 301.750649 253.359252 301.876699 253.624956 301.834078 253.76733 301.723443 253.893381 301.648176 253.955953 300.428476 254.560815 300.211741 254.724046 299.69847 255.292181 299.657662 255.418232 299.688041 255.537935 299.679426 255.617283 299.521636 255.650383 299.356138 255.66988 298.131451 256.014933 296.76711 256.62705 296.479188 256.871443 296.048893 257.481746 295.780921 257.734755 295.529273 257.841308 294.300505 257.997738 294.059739 258.09341 293.583648 258.112 293.474827 258.086608 293.345149 257.966906 293.29482 257.785538 293.314317 257.58966 293.273056 257.425069 293.042265 257.362043 292.896717 257.34436 292.627839 257.261838 292.426067 257.24234 292.444657 257.160271 292.277345 256.984798 291.520134 256.381749 291.144249 256.223052 290.971496 256.116952 290.901216 255.958255 290.867209 255.832658 290.789674 255.693458 290.690375 255.587358 288.839515 254.86914 285.822459 254.247502 282.888831 253.257232 280.560066 253.081759 277.990535 252.634687 275.515316 251.880196 275.223767 251.811276 275.298581 251.520634 275.436421 251.489801 275.601012 251.426776 275.804144 251.395037 277.079615 251.400931 277.465929 251.513833 277.572936 251.621747 277.790124 251.936873 277.885795 251.998992 278.118853 251.966346 278.486577 251.811276 278.681547 251.754599 278.634845 251.268079 279.129526 251.060413 279.768395 250.961114 280.154256 250.784733 280.852976 250.808765 281.262867 250.752087 281.518143 250.569359 281.689082 250.235642 281.591597 250.123194 281.356272 249.921422 281.299594 249.858396 281.285992 249.695619 281.360353 249.322454 281.370781 249.172825 281.291433 248.97196 281.042505 248.613305 280.992176 248.366191 281.109158 247.266194 281.709033 247.372748 281.945264 247.332847 282.122098 247.107951 282.16744 246.799625 282.091719 246.479057 281.604746 245.343694 281.289166 244.066863 281.246998 243.135992 281.179438 242.851698 281.039331 242.619546 280.810808 242.430924 279.540325 242.102648 279.251043 242.221897 278.670665 242.569217 278.321532 242.612745 277.899851 242.380594 277.803273 241.920826 277.983281 240.805867 276.8257 240.907886 277.000266 238.873844 276.954471 238.230895 276.736829 237.582504 276.050351 236.337413 275.790995 235.701265 275.250972 232.730457 274.871459 231.73384 274.345946 231.256842 274.082509 230.936274 272.676 224.640538 272.700031 224.345815 272.828803 224.154472 273.157532 223.97265 273.25411 223.859295 273.604604 222.877188 273.561983 222.757031 273.322577 222.29817 273.099041 222.009342 273.021959 221.833868 273.046898 221.185024 273.345248 220.496733 275.401961 216.985449 275.653156 216.828565 276.537324 216.538376 276.627102 216.412326 276.774463 215.519088 276.864694 215.342708 277.682663 214.32342 277.840907 213.9761 277.854056 213.7308 277.774708 213.585706 277.655912 213.440611 277.54301 213.188963 277.526687 212.982657 278.39952 207.505344 278.637112 206.780779 279.924825 204.030333 279.993745 203.91063 280.172846 203.696616 280.241312 203.576913 280.246753 203.481242 280.19461 203.249091 280.208666 203.159767 280.362829 203.01694 280.758664 202.776174 280.901945 202.626545 280.960436 202.42568 281.037518 201.090811 281.089661 200.957959 281.201656 200.94481 281.320452 201.02824 281.410229 201.127539 281.43562 201.184216 281.726263 200.938462 282.540605 200.001697 282.868427 199.767732 283.932151 199.416332 284.300328 199.227709 284.477162 198.999185 284.493031 198.684965 284.378316 198.256937 284.141631 197.741852 284.098102 197.514235 284.174277 197.231754 284.298061 196.996883 284.413229 196.891689 284.560591 196.897584 284.787301 197.004137 284.993153 197.022728 285.235733 196.941112 286.036926 196.477263 286.15935 196.198863 284.517969 186.163773 284.433633 185.88764 284.271762 185.962001 284.181078 185.811919 284.227327 185.584302 284.359726 185.465053 284.548348 185.358499 284.567846 185.118186 284.204656 183.86584 284.182892 183.557968 284.141631 183.399725 284.041878 183.363451 283.922629 183.3435 283.816075 183.260978 283.538582 182.419884 283.519992 182.053067 283.405277 181.764239 282.95367 181.523473 282.503878 181.423267 282.045924 181.404223 281.799717 181.360695 281.659156 181.265477 281.545348 181.146227 281.371688 181.046475 281.538547 180.794373 281.612454 180.510532 281.646914 179.616842 281.720822 179.467213 282.100334 179.076819 282.411834 178.438403 282.619047 178.113755 283.184915 177.815858 283.398022 177.475339 283.4216 177.137088 283.14184 176.978844 282.83034 176.915819 282.578692 176.727196 282.437679 176.44925 282.468058 176.110999 282.651693 175.870686 282.894272 175.757331 283.10602 175.625386 283.196704 175.323408 283.196704 174.840062 283.109193 174.536271 283.085162 174.397071 283.15907 173.824855 283.139119 173.566406 282.898807 173.258534 282.254497 172.454166 281.615628 171.868348 281.524037 171.68562 281.492751 171.38863 281.519957 171.099801 281.60928 170.809159 281.762083 170.544815 281.9897 170.349391 281.795636 170.199762 281.738052 170.034718 281.716287 169.872393 281.62651 169.726845 281.47008 169.644323 281.371688 169.657926 281.273749 169.639789 281.128202 169.481545 281.005778 169.104753 281.071978 168.733402 281.371688 168.128087 281.987432 167.442516 282.100334 167.260241 282.050458 167.082954 281.62651 166.397383 281.549429 165.943963 281.714474 165.132341 281.735784 164.665318 281.619709 164.345204 281.215258 163.739435 281.128202 163.375338 281.128202 161.832804 280.942299 161.021635 280.949554 160.661166 281.182612 160.290722 281.543988 160.008695 281.677293 159.849545 281.735784 159.611499 281.726263 159.377081 281.665504 159.28413 281.549429 159.227453 281.371688 159.119539 281.200295 159.056513 281.043866 159.056513 280.92915 159.012985 280.885622 158.811213 280.820783 158.691964 280.668887 158.654783 280.486612 158.635286 280.331543 158.565913 280.185995 158.27119 280.185995 157.891677 280.275772 157.526674 280.397289 157.26233 280.524246 157.093205 280.661179 156.986198 280.833479 156.923626 281.06563 156.904582 281.259693 156.828407 281.423831 156.658828 281.500459 156.487436 281.432446 156.413982 280.996256 156.400379 280.705614 156.35141 280.486612 156.242135 279.860439 155.68987 279.720333 155.4618 279.666376 155.109946 279.614232 155.027877 279.37256 154.782577 279.290037 154.682824 279.242428 154.505537 279.212956 154.12149 279.169427 153.938762 278.634845 152.995195 278.560031 152.648329 278.611267 152.472855 278.849766 152.038932 278.958134 151.741942 279.00801 151.678463 279.047911 151.598208 279.047457 151.476692 278.996221 151.403238 278.913699 151.357442 278.836617 151.344293 278.802157 151.344293 278.740946 151.081763 278.795356 150.973395 278.986246 150.784773 279.084184 150.615647 279.149023 150.205755 279.448734 149.715155 279.645972 148.877688 279.77701 148.500443 280.015962 148.229298 280.301164 148.008029 280.540569 147.745499 280.641682 147.335607 280.534221 146.988741 280.339251 146.667266 280.232697 146.322667 280.281213 146.197069 280.256275 146.088249 281.794276 146.120895 281.801077 146.309518 283.865045 146.290021 287.345496 146.25284 291.659334 146.207952 295.671647 146.170318 299.571966 146.134044 302.342815 146.107746 302.551388 145.988496 302.679253 145.673823 302.989392 145.572257 305.243796 145.641177 306.235879 146.032025 306.682951 146.11364 308.951865 146.134044 311.100622 146.157622 311.257959 145.881943 311.764429 145.806221 314.221965 146.001192 314.373407 146.025223 314.508526 146.120895 314.63367 146.366195 314.723901 146.422419 314.909803 146.415618 314.790554 146.660918 315.102053 146.617843 315.500609 146.18392 315.883296 146.120895 315.984408 145.995298 316.089602 145.949502 316.189808 145.988496 316.281852 146.120895 318.438771 146.164423 318.462802 146.366195 318.54215 146.385692 318.666841 146.333549 318.831886 146.353046 318.939346 146.478643 318.861812 146.623738 318.728959 146.762938 318.674549 146.888535 319.531966 147.712852 319.843466 147.52423 320.02438 147.114338 320.154058 146.674067 320.319103 146.372543 320.574832 146.276871 320.946183 146.233343 321.639916 146.259641 321.703394 146.239691 321.760979 146.207952 321.814936 146.170318 321.858464 146.120895 322.026683 145.912322 322.495973 145.69332 322.706359 145.521927 322.802938 145.326957 322.842839 144.918879 322.925361 144.654081 323.266787 144.218345 323.611839 144.218345 323.95009 144.495838 324.269298 144.873537 325.163442 144.224693 325.390152 144.005691 325.527085 143.734092 325.490358 143.572221 325.420985 143.406723 325.471314 143.112 327.888496 143.614843"></polyline>
        </g>
    </g>
</svg>