<svg width="140px" height="116px" viewBox="0 0 140 116" version="1.1" xmlns="http://www.w3.org/2000/svg" xmlns:xlink="http://www.w3.org/1999/xlink">
    <g id="Page-1" stroke="none" stroke-width="1" fill="none" fill-rule="evenodd">
        <g id="KH-EPS-01-0001" transform="translate(-253.000000, -182.000000)" fill="#7F807C">
            <path d="M272.823779,272.577028 L272.686418,272.348747 L272.564755,272.049169 L272.54317,271.705767 L272.573258,271.429736 L272.559522,271.141278 L272.23051,270.464938 L272.021197,270.308608 L271.766098,270.333464 L271.472407,270.59118 L271.420079,270.470825 L271.351399,270.344584 L271.307574,270.225538 L271.101532,270.800492 L271.109382,271.454592 L271.307574,272.596651 L271.287951,273.568644 L271.378871,274.128554 L271.667329,274.417013 L271.537817,274.655759 L271.7903,274.79312 L272.207616,274.78985 L272.564755,274.617167 L272.729588,274.303199 L272.850597,273.821127 L272.867603,273.32074 L272.729588,272.958369 L272.872836,272.77195 L272.823779,272.577028 Z M272.52093,268.454888 L272.389456,268.205022 L272.414312,268.196518 L272.4444,268.108215 L272.4444,267.976741 L272.389456,267.839379 L272.2848,267.747151 L271.828892,267.477008 L271.47764,267.889091 L271.626121,268.383591 L271.97214,268.88267 L272.207616,269.314376 L272.109501,269.937733 L272.12847,270.206569 L272.389456,270.225538 L272.513081,270.077711 L272.804156,269.503411 L272.927781,269.314376 L272.927781,269.116837 L272.812005,268.894443 L272.52093,268.454888 Z M292.244672,294.510976 L291.871181,294.466497 L291.615428,294.543026 L291.533011,294.735986 L291.708964,295.055187 L291.494419,295.279543 L291.385184,295.356727 L291.168023,295.416905 L291.387147,295.850573 L291.706348,296.065118 L292.079839,296.137069 L292.513508,296.144264 L292.782997,295.889165 L292.810469,295.325985 L292.623396,294.763458 L292.244672,294.510976 Z M279.623152,289.526077 L279.971787,289.403106 L279.952164,289.023728 L279.748739,288.897486 L279.523729,288.862165 L279.419073,288.760125 L279.356933,288.561933 L279.211069,288.523995 L279.040348,288.534461 L278.892522,288.496523 L278.823841,288.406257 L278.772167,288.221801 L278.713952,288.130881 L278.400638,287.807101 L278.04677,287.508177 L277.609831,287.383898 L277.076739,287.5677 L276.816407,287.924839 L276.907327,288.315991 L277.217371,288.699294 L277.620951,289.023728 L278.455583,289.342275 L278.436614,289.403106 L278.480438,289.53131 L278.546503,289.820422 L278.666857,290.127195 L278.892522,290.314922 L279.062588,289.913958 L279.315071,289.677174 L279.623152,289.526077 Z M392.991171,217.329096 L392.823722,214.687185 L392.632724,213.704072 L390.456533,209.463539 L389.996046,208.804206 L389.387733,208.14291 L389.332788,208.021902 L389.086192,207.615706 L388.585151,207.015241 L388.449753,206.610353 L388.462835,206.328436 L388.630284,205.749557 L388.663643,205.50754 L388.374531,204.690569 L388.49554,204.23924 L388.639442,203.933775 L388.710085,203.623731 L388.639442,203.157358 L388.264642,202.365242 L388.240441,202.117992 L388.2738,201.860931 L388.256793,201.596674 L388.089343,201.338959 L387.683801,201.18132 L386.694801,201.278781 L386.250013,201.113948 L385.943894,200.622719 L385.960901,200.073928 L386.049858,199.515981 L385.99426,198.98616 L385.697298,198.519786 L385.450048,198.263379 L385.34016,197.946794 L385.467055,197.297927 L386.359902,194.73974 L386.488106,193.789986 L386.496609,193.536195 L386.416155,193.264744 L386.184603,192.743426 L386.129659,192.500755 L386.175446,191.950002 L386.367097,191.45354 L386.902805,190.50444 L386.981951,190.258499 L387.021852,190.013865 L387.101652,189.790163 L387.309656,189.596549 L387.649788,189.489276 L387.800885,189.605706 L387.904887,189.786238 L388.072991,189.868655 L388.585151,189.743067 L388.918089,189.465729 L389.148986,189.056916 L389.467533,188.347871 L389.564994,187.980267 L389.588541,187.787961 L389.706934,187.421011 L390.081079,186.874837 L390.21844,186.571989 L390.248529,186.140937 L390.145835,185.338356 L390.184427,184.918423 L390.799281,183.548083 L390.93468,182.868473 L390.615479,182.147 L390.264227,182.447886 L389.387733,183.725344 L388.981536,183.926807 L388.805583,184.104722 L388.600196,184.717614 L388.511892,184.87002 L388.320241,185.129698 L388.249598,185.347513 L388.231937,185.562058 L388.264642,185.789685 L388.264642,186.019928 L388.176993,186.226624 L387.842748,186.505925 L387.540553,186.493497 L386.925699,186.218775 L386.431199,186.11281 L386.170213,186.013387 L385.675059,185.56402 L384.963398,185.05186 L384.478055,185.015884 L384.081016,185.371715 L383.619222,186.031702 L383.484477,186.148132 L383.179666,186.333896 L383.069123,186.464062 L383.036418,186.64394 L382.981474,187.186189 L382.700865,187.734325 L382.478471,187.856642 L382.072274,187.787961 L382.064425,187.786653 L382.064425,187.785345 L381.666078,187.782075 L381.451533,188.1052 L381.306323,188.565687 L381.091778,188.98889 L380.374884,189.637757 L379.570994,190.176082 L378.980342,190.361846 L378.700387,190.215982 L378.477339,189.893511 L378.046941,189.550762 L377.714004,189.407514 L377.634203,189.429099 L377.609347,189.565152 L376.84405,190.514252 L376.335814,191.316179 L376.222655,191.379627 L375.889064,191.451578 L375.603222,192.140345 L375.585561,192.308449 L375.498566,192.447118 L375.163012,192.538692 L374.898756,192.490943 L374.405564,192.183516 L374.166163,192.102407 L373.889479,192.122685 L373.737727,192.199868 L373.60887,192.316298 L372.589781,192.891907 L372.197321,192.877516 L371.831679,192.734268 L371.466691,192.473282 L370.771382,191.777974 L369.847139,190.469773 L369.641751,190.068809 L369.520088,189.898743 L369.314047,189.682236 L369.201541,189.590662 L367.289606,189.00655 L366.523655,188.581385 L366.007569,187.787961 L365.73481,187.624436 L365.128459,187.491 L364.898215,187.351022 L364.804679,187.092653 L364.667318,186.24036 L364.562662,185.895649 L364.227108,185.38218 L364.08059,185.23697 L363.514139,185.76025 L363.321833,185.854441 L363.145226,185.870793 L363.019639,185.947977 L362.969927,186.212888 L362.978431,186.472566 L363.041878,186.666179 L363.154384,186.797654 L363.344073,186.867642 L363.344073,187.035746 L362.948342,187.012198 L362.602323,186.925203 L362.317135,186.893806 L362.07708,187.035746 L362.013633,187.150214 L361.976349,187.343173 L361.99728,187.526321 L362.300129,187.693771 L362.19024,187.878881 L361.99728,188.040444 L361.893278,188.058759 L361.625097,188.585964 L360.95399,188.863957 L359.36191,189.081772 L359.010658,189.178579 L358.650249,189.152415 L358.394495,189.088313 L356.793912,188.100621 L356.642161,187.93775 L356.395565,188.395621 L356.124767,189.803245 L355.950776,190.384086 L355.558316,190.950537 L355.143617,191.201057 L354.64323,191.257964 L353.717678,191.204328 L353.078622,191.093131 L352.672425,191.11864 L352.386584,191.099017 L352.252493,191.113408 L352.179888,191.223297 L352.106629,191.649116 L352.034678,191.775357 L351.581386,191.796288 L350.424937,191.396633 L349.892499,191.303751 L349.772145,191.602021 L349.733553,191.91141 L349.766258,192.217529 L349.892499,192.506641 L350.408584,192.921995 L350.697042,193.353047 L350.793195,193.871749 L350.689193,194.542856 L350.914858,195.087067 L351.270688,195.429816 L352.179888,196.0015 L352.587392,196.469835 L353.253921,198.072381 L353.61433,198.473345 L354.036225,198.831792 L354.385514,199.226868 L354.514372,199.733796 L354.325991,200.234183 L353.908021,200.585435 L353.440339,200.898095 L353.056382,201.281398 L352.737836,201.692173 L352.787547,202.957857 L352.402282,203.428809 L351.875077,203.458244 L350.512586,203.112225 L349.892499,203.085406 L349.239053,203.346393 L348.59411,203.413765 L347.939355,203.265938 L347.239468,202.881327 L344.977589,200.903328 L344.528876,200.243995 L344.235839,199.493087 L343.834221,198.8331 L343.103591,198.438678 L342.815787,198.42625 L342.24999,198.511937 L341.873229,198.46942 L341.45068,198.290851 L341.18119,198.117514 L340.912355,198.10247 L340.506159,198.40074 L340.306004,197.921938 L339.907003,197.501352 L339.42951,197.294002 L339.028546,197.45164 L338.880065,197.237749 L338.705421,197.04806 L338.4948,196.883227 L338.286796,196.744558 L337.55682,197.265876 L337.166977,197.484345 L336.727421,197.602737 L336.094906,198.019399 L335.36493,198.267957 L334.582626,198.379809 L333.833027,198.372613 L333.403937,198.317015 L333.140989,198.211051 L332.927098,198.007625 L332.247488,197.067683 L332.059761,196.947983 L331.67515,196.828282 L331.497889,196.73213 L331.011892,196.256599 L329.444014,193.884177 L329.196764,193.325575 L329.097995,192.699601 L329.097995,191.847308 L328.32681,192.2607 L327.730271,193.604222 L326.917224,194.958864 L325.489323,195.40169 L324.916985,195.124351 L324.455844,194.598454 L323.616634,193.052161 L323.570192,192.821918 L323.696434,191.59875 L323.689239,191.233108 L323.562343,190.905404 L323.067843,190.752998 L321.567991,190.482201 L321.354755,190.374928 L320.940055,190.095628 L320.733359,190.009286 L320.49265,190.000783 L319.991609,190.073388 L319.807807,190.063577 L319.376755,189.845761 L319.025503,189.569077 L318.669018,189.349299 L318.239275,189.304166 L317.872324,189.489276 L317.084133,190.113288 L316.685786,190.197013 L316.510487,190.051149 L316.372472,189.569077 L316.158581,189.463112 L315.944036,189.557303 L315.680434,189.985739 L315.515601,190.120483 L315.06558,190.141415 L314.411479,189.860805 L313.989585,189.868655 L313.571614,190.111326 L313.279886,190.494629 L313.024132,190.906058 L312.733712,191.233108 L312.209123,191.451578 L311.780688,191.366545 L311.363372,191.176855 L310.885224,191.083319 L310.605923,191.158541 L310.393995,191.30833 L310.226545,191.459427 L310.078718,191.541189 L309.831469,191.54446 L309.660748,191.498673 L309.480217,191.424105 L306.480512,190.985858 L305.058498,190.406325 L304.43187,190.352689 L304.034177,190.567234 L303.684888,190.844572 L303.212627,190.976047 L302.89408,190.859617 L302.746254,190.614329 L302.721398,190.372312 L302.803814,190.274851 L302.575533,190.267656 L302.517972,190.344186 L302.476764,190.489396 L301.822664,191.203674 L301.625125,191.301134 L301.292843,191.290669 L301.10904,191.152 L300.971679,190.990437 L300.817966,190.909982 L299.857092,191.170969 L298.860243,191.662198 L297.951044,191.866277 L297.228917,191.266467 L295.803632,191.338418 L295.555728,191.564083 L295.490318,191.777974 L295.352957,191.935612 L294.891816,191.990556 L294.501973,191.914027 L294.205011,191.741998 L293.944025,191.541189 L293.661454,191.370469 L293.282075,191.245536 L293.057719,191.24619 L292.840558,191.301134 L292.497155,191.331877 L291.997422,191.273008 L290.448513,190.880548 L289.547817,190.819717 L289.352895,190.747111 L289.267862,190.499862 L289.328039,189.860805 L289.261975,189.582813 L289.103028,189.410784 L288.885867,189.270153 L288.624881,189.193623 L288.356046,189.212592 L288.102909,189.360419 L288.026379,189.557303 L287.9819,189.775118 L287.822954,189.989009 L287.279396,190.26504 L286.897402,190.181315 L286.543534,189.951071 L286.070619,189.790817 L285.625831,189.865384 L284.612629,190.383432 L283.61578,191.072853 L283.424129,191.148729 L283.149407,191.114716 L282.942711,190.988475 L282.802734,190.854384 L282.706581,190.790936 L282.327857,190.900171 L281.595264,191.433917 L281.139356,191.637342 L280.570289,191.707985 L278.787866,191.704714 L276.81052,192.312374 L275.221056,192.549812 L274.690581,192.725765 L273.817357,193.194755 L271.707883,195.005959 L271.257862,195.268907 L270.28914,195.549516 L269.846314,195.755558 L269.437501,196.172874 L269.316493,196.609813 L269.307989,197.083382 L269.245196,197.615165 L269.055506,198.050142 L268.506062,198.8331 L268.32226,199.254995 L268.234611,199.873774 L268.245076,200.277354 L268.152194,200.622719 L267.76235,201.070777 L266.249416,202.256007 L265.601202,202.902258 L265.111935,203.763709 L264.66126,205.233472 L264.447369,205.705078 L263.977725,206.28919 L263.851484,206.516817 L263.788036,206.791539 L263.749444,207.344908 L263.645442,207.599353 L263.022085,208.134407 L260.372324,209.427564 L259.528535,210.079048 L259.496484,210.647461 L260.05901,211.201484 L260.987179,211.809143 L260.509031,211.942579 L259.270819,212.660128 L258.762583,212.840005 L257.156113,212.97475 L255.025054,212.793564 L253.9955,212.90934 L253.501,213.543163 L253.536976,213.831621 L253.819547,214.285567 L253.924203,214.532163 L253.940555,214.746054 L253.924203,215.136551 L254.033438,217.170149 L253.860755,218.806054 L253.890844,220.69575 L255.308279,224.416927 L255.830251,225.322856 L257.027255,226.723285 L257.444571,227.569037 L257.708828,227.924213 L258.156232,228.195665 L258.144458,228.357882 L258.062696,228.497859 L257.925335,228.610365 L257.733029,228.706517 L257.593052,228.80267 L257.551844,228.909289 L257.598285,229.022448 L257.823295,229.233068 L257.859271,229.331837 L257.823295,229.431261 L257.526988,229.756349 L257.488396,230.035649 L257.570812,230.334573 L257.733029,230.634151 L257.867774,231.254892 L257.977663,232.28183 L258.144458,232.837161 L258.29621,233.117116 L258.427684,233.281295 L258.529069,233.463135 L258.589901,233.792148 L258.559812,234.053134 L258.290323,234.901502 L257.960656,235.195193 L257.834415,235.613163 L257.80171,236.181576 L257.867774,236.752606 L258.054193,237.181042 L258.461043,237.488469 L259.960241,237.982969 L260.745816,238.559885 L262.755866,240.586288 L263.409312,240.973516 L263.596385,241.152085 L263.695154,241.371209 L263.738979,241.822538 L263.81093,242.030542 L264.167415,242.415807 L265.013166,242.868444 L265.315361,243.215117 L265.397777,243.744285 L265.16688,244.121046 L264.488578,244.716278 L264.211239,245.221897 L264.079765,245.730133 L263.475376,250.112606 L263.678802,251.176173 L265.029519,253.25752 L265.551491,253.888727 L265.97404,254.816895 L266.237642,256.146027 L267.44642,258.472008 L268.555774,260.029421 L269.310606,261.158398 L269.610184,262.220657 L269.70372,263.746674 L269.316493,264.360874 L269.472822,264.561028 L269.934617,265.005163 L270.032732,265.18177 L270.093564,265.560494 L270.340814,266.040603 L270.395758,266.38466 L270.637121,265.790737 L270.67048,265.318477 L270.395758,264.175763 L270.400991,263.772183 L270.709072,262.984647 L270.771866,262.533971 L270.450703,261.660747 L269.165395,260.307414 L268.775552,259.436806 L268.939731,259.436806 L269.813609,260.801914 L270.428463,261.128964 L270.574327,261.349396 L270.637121,261.654861 L270.793451,262.036201 L270.980524,262.369138 L271.131621,262.533971 L272.207616,261.987798 L272.389456,261.987798 L272.677914,262.254017 L273.068412,262.48426 L273.43013,262.509116 L273.663643,262.170946 L273.828477,262.170946 L273.663643,262.473794 L273.345097,262.696188 L272.976838,262.766831 L272.647172,262.617042 L272.389456,262.41885 L272.161829,262.366522 L271.927661,262.41885 L271.667329,262.533971 L271.23039,262.835512 L270.956322,263.254136 L270.809804,263.816662 L270.771866,264.555142 L270.936699,264.555142 L270.936699,263.994578 L271.131621,264.175763 L271.131621,263.630244 L271.307574,263.630244 L271.439702,263.978225 L271.472407,264.175763 L271.667329,264.175763 L271.754979,264.115586 L272.029701,263.994578 L272.029701,264.175763 L271.828892,264.175763 L271.828892,264.360874 L271.949901,264.533556 L272.142206,264.675496 L272.405808,264.753334 L272.729588,264.725862 L272.729588,264.9234 L272.235742,264.958721 L271.796841,264.753334 L271.422696,264.631671 L271.131621,264.9234 L271.131621,266.015748 L271.279448,266.312709 L271.573793,266.664615 L271.667329,266.928218 L271.472407,266.928218 L271.068827,266.552764 L270.936699,266.38466 L270.395758,266.730025 L270.936699,267.477008 L271.189182,267.284702 L271.548937,267.103517 L271.922428,267.015867 L272.207616,267.11202 L272.389456,267.11202 L272.526817,266.796089 L272.573258,266.379427 L272.564755,265.453221 L272.729588,265.738409 L272.861716,265.807744 L273.108966,265.818209 L273.010197,266.015748 L272.927781,266.565192 L273.108966,266.38466 L273.070374,266.910557 L273.097847,267.584934 L273.287536,268.157926 L273.984807,268.509178 L274.298121,268.987326 L274.561723,269.116837 L274.808973,269.05339 L274.976423,268.855851 L275.028751,268.614488 L274.921478,268.403214 L275.042487,268.119988 L275.102664,268.023836 L275.28385,268.023836 L275.221056,268.113447 L275.102664,268.403214 L275.344027,268.651772 L276.179313,270.225538 L275.780966,270.09668 L275.36038,269.46024 L275.012398,269.314376 L274.608818,269.368666 L274.262145,269.521071 L273.99331,269.751315 L273.828477,270.041735 L273.663643,270.041735 L273.606083,269.805605 L273.581227,269.739541 L273.504043,269.729075 L273.287536,269.663665 L273.460218,270.003798 L273.853333,270.558475 L274.023399,270.954205 L274.114319,271.448051 L274.130671,271.799957 L274.226824,272.096265 L274.561723,272.431818 L274.726557,272.28857 L274.901855,272.198304 L275.28385,272.049169 L275.344027,272.431818 L275.597164,273.112737 L275.624636,273.522203 L275.459149,273.522203 L275.121633,273.161794 L274.372034,273.617702 L273.663643,274.29862 L273.466105,274.617167 L273.466105,274.782001 L273.67738,275.056723 L273.460218,275.232676 L273.158678,275.413207 L273.108966,275.710169 L273.229975,275.735679 L273.751947,275.74549 L273.927246,275.792586 L274.048254,275.974426 L274.097312,276.187662 L274.118897,276.415943 L274.185616,276.619369 L274.581346,277.297016 L274.690581,277.622104 L274.726557,278.078012 L274.638253,278.561392 L274.454451,278.917877 L274.268032,279.198486 L274.185616,279.450315 L274.243176,280.178329 L274.498276,281.542782 L274.561723,282.369565 L274.443985,282.471604 L274.226824,282.894807 L274.103199,283.355948 L274.273265,283.569185 L274.470803,283.663375 L275.28385,284.295236 L274.926711,284.757031 L275.248529,284.887851 L275.84703,284.951299 L276.360499,285.207052 L276.530565,285.00886 L276.771928,284.881964 L277.085242,284.834215 L277.453501,284.840756 L277.354732,284.458761 L277.815873,284.042099 L278.892522,283.386037 L279.441966,283.726823 L280.098029,284.003507 L280.650089,284.380269 L280.869867,285.006243 L281.172061,284.871499 L281.298303,284.786466 L281.413424,284.65957 L281.754211,284.766843 L282.18003,284.67396 L282.530628,284.415591 L282.684996,284.014627 L282.64902,283.701967 L282.523433,283.278764 L282.506426,283.023011 L282.57249,282.711005 L282.863565,282.012426 L282.934862,281.422427 L283.104928,280.927928 L283.778651,279.703452 L283.972919,279.220072 L283.923208,278.944695 L283.39077,279.184096 L283.923208,278.424031 L284.085424,278.030263 L283.923208,277.709754 L283.923208,277.547537 L284.263994,277.637803 L284.34314,277.709754 L284.467419,277.892902 L284.664957,277.892902 L285.022096,277.346728 L284.923327,277.291784 L284.893238,277.281318 L284.884081,277.259079 L284.827174,277.165542 L285.623214,277.256462 L286.381317,277.533801 L286.954963,278.020451 L287.26566,278.972822 L287.499174,279.178209 L287.815105,279.316224 L288.597409,279.401257 L288.849891,279.502643 L289.352895,279.895103 L288.95978,280.801686 L289.45428,282.119698 L290.217615,283.454063 L290.610076,284.393351 L290.662404,285.432063 L290.610076,285.733603 L290.376562,286.107094 L290.058669,286.332759 L289.750588,286.491705 L289.53081,286.678124 L289.448393,286.890052 L289.29468,288.045848 L289.382983,288.205448 L289.731619,288.312721 L289.731619,288.496523 L287.545615,288.584172 L286.529797,288.88048 L286.103978,289.503837 L285.999976,289.881253 L285.763846,290.397338 L285.496973,290.859133 L285.285045,291.055363 L284.93968,291.302613 L284.810822,291.79188 L284.944912,292.132667 L285.381851,291.951481 L285.911673,292.347212 L286.169388,292.635016 L286.3787,293.250524 L286.603711,293.444792 L286.850961,293.554681 L287.015794,293.598506 L287.145306,293.57692 L287.235572,293.481422 L287.348077,293.400967 L287.556735,293.417974 L287.66924,293.538328 L287.73465,293.88958 L287.815105,293.964802 L287.795482,294.134868 L287.845193,294.510976 L288.015913,294.884467 L288.372398,295.055187 L288.855778,295.037526 L289.844124,294.818403 L290.709499,294.873347 L291.264176,294.669922 L291.132048,294.211398 L290.629699,293.719514 L290.075021,293.417974 L290.075021,293.236134 L290.267327,293.336211 L290.709499,293.346023 L290.973101,293.417974 L291.173256,293.582153 L291.288378,293.764647 L291.453865,293.906587 L291.791381,293.964802 L292.417355,293.955644 L292.865414,293.9007 L293.199659,293.739791 L293.50774,293.417974 L294.084002,292.605581 L294.309667,292.143786 L294.408436,291.681992 L294.229867,290.700841 L294.207627,290.130465 L294.408436,289.600644 L294.479733,289.759591 L294.523558,290.155321 L294.603358,290.314922 L294.619711,290.41827 L294.598125,290.545165 L294.589622,290.649167 L294.680542,290.693646 L295.05665,290.675985 L295.139066,290.693646 L295.715983,291.753943 L295.762424,291.951481 L296.489784,292.564373 L296.847576,292.676878 L297.294981,292.714816 L299.813268,293.417974 L300.266559,293.456566 L300.900382,293.2865 L301.351057,293.236134 L302.696542,293.58804 L303.374844,293.57692 L303.784311,293.038596 L303.987736,293.231555 L304.157148,293.186422 L304.314132,293.071301 L304.503821,293.038596 L304.682391,293.156334 L304.997667,293.521976 L305.143531,293.598506 L305.461424,293.833328 L305.557577,294.978003 L305.763618,295.416905 L305.986667,295.477736 L306.22803,295.411018 L306.681321,295.235719 L307.485865,295.235719 L307.727228,295.38747 L308.655396,296.341802 L309.03412,296.18024 L309.309496,296.337224 L309.754285,296.886668 L309.803342,297.042998 L310.278873,297.147 L310.652365,297.086169 L310.929049,296.828453 L312.027938,295.223945 L312.247061,294.804667 L312.502814,294.418093 L312.840984,294.160378 L313.253068,294.066187 L314.386623,294.016476 L318.294873,294.496585 L319.472254,294.448182 L320.414812,294.070766 L321.051906,293.414703 L322.134442,291.764408 L322.436637,291.424276 L322.782656,291.132547 L325.363736,289.826309 L326.009333,289.2108 L325.992326,288.34608 L325.050422,286.607481 L324.638992,285.608016 L324.550689,284.684426 L324.716176,284.265148 L325.012484,283.877266 L325.368968,283.554141 L325.714333,283.308853 L326.295175,283.004042 L326.454775,283.119164 L326.511028,283.469107 L326.813876,283.872033 L327.186713,283.997621 L330.917048,284.693583 L331.32259,284.956532 L332.223286,285.745377 L332.61313,285.882084 L332.872808,285.632871 L333.657728,284.042099 L334.727836,282.800617 L335.052924,282.575606 L335.172625,282.636438 L335.923532,282.842479 L336.512876,283.138133 L336.727421,283.162988 L340.894694,282.284532 L341.491234,282.007847 L341.986388,281.688646 L341.994237,281.685376 L342.609746,281.318425 L343.365232,281.098648 L344.076239,281.175178 L344.512524,281.682759 L344.982168,282.49646 L345.878285,283.728785 L346.06732,284.134982 L346.369514,285.061188 L346.561166,285.442528 L346.920921,285.870964 L347.382716,286.170542 L347.93216,286.162039 L348.169599,285.89582 L348.490108,285.368615 L348.7282,284.786466 L348.766138,284.349527 L349.653098,285.063804 L349.892499,285.352916 L350.387653,285.909556 L351.045678,286.39032 L351.781541,286.761195 L352.482082,287.003212 L353.972777,287.148422 L354.665469,287.321104 L355.248273,287.799906 L354.572587,285.239757 L353.924374,284.014627 L353.788975,283.581613 L353.830837,283.523398 L353.86158,282.836592 L353.805981,282.773145 L353.956424,282.504309 L354.044728,282.408811 L354.506523,282.356483 L355.343117,282.384609 L355.528228,282.219122 L355.230612,281.691263 L354.802176,280.164592 L354.497365,279.703452 L354.027721,279.345659 L353.567235,279.273054 L353.15973,279.510492 L352.863423,280.087409 L352.595242,279.535348 L352.243336,279.102333 L351.3204,278.319375 L350.928594,277.877204 L350.282343,276.871197 L349.892499,276.512096 L348.480296,276.168693 L347.939355,275.759881 L347.667904,275.024018 L347.667904,275.018131 L347.596607,274.443831 L347.244701,274.23321 L346.816265,274.122667 L346.481366,273.859065 L346.45651,273.480995 L346.896719,271.472907 L347.182561,270.566324 L347.256475,270.167977 L347.214612,269.76178 L346.808416,268.350886 L346.864014,267.655577 L346.833272,267.301709 L346.712263,266.99886 L346.426421,266.785624 L345.723917,266.656112 L345.397521,266.482775 L345.064584,265.916979 L345.141768,265.384541 L345.443962,264.914897 L345.789982,264.538135 L346.385213,264.027937 L346.839159,263.935054 L348.091107,264.396195 L348.849209,264.433479 L349.159907,264.054755 L349.406502,263.498115 L350.1319,262.732164 L350.282343,262.402497 L350.35364,262.042742 L350.3713,261.672521 L350.984847,261.023 L352.193624,261.227079 L353.559386,261.649628 L354.649771,261.672521 L356.466862,262.243551 L356.982947,262.517619 L357.183102,262.747862 L357.559863,263.335898 L357.795994,263.528204 L358.1479,263.588381 L359.631399,263.201154 L359.9107,263.171065 L360.173648,263.21489 L360.539945,263.341131 L361.114245,263.749944 L361.44849,263.929822 L361.789276,263.923935 L362.036526,263.517084 L361.800396,262.896997 L361.080886,261.672521 L361.0593,261.249318 L361.193391,260.88106 L361.415785,260.526537 L361.591084,260.144543 L361.630984,259.913645 L361.646682,259.409334 L361.678733,259.232727 L362.069231,258.60152 L362.134641,258.53611 L361.982236,257.876777 L361.205819,256.414863 L360.95399,255.696006 L361.575385,255.53706 L361.876926,255.509588 L362.219674,255.561262 L362.458421,255.733944 L362.563077,255.965496 L362.706325,256.148644 L363.058231,256.170883 L363.862774,255.60247 L365.128459,255.616206 L367.391646,255.928866 L367.186258,255.52594 L368.500346,255.822248 L369.058294,255.671151 L369.569146,254.986962 L369.878535,254.117008 L370.310896,253.488418 L370.906127,253.128008 L371.727023,253.057365 L373.737727,253.211079 L374.709721,253.09792 L375.690217,252.719196 L376.327965,252.288143 L378.128703,250.491984 L378.955486,249.46243 L379.65799,248.96793 L379.977191,248.676201 L380.153144,248.297477 L380.932177,247.473965 L382.495477,246.708013 L384.184364,246.180808 L385.348663,246.079423 L385.969404,246.455531 L386.757595,247.67739 L387.260598,248.122832 L387.867603,248.088819 L388.750639,246.885929 L389.387733,246.447027 L390.067343,246.169035 L390.456533,245.685654 L390.662574,245.076033 L390.799281,244.420624 L391.571774,242.233967 L391.571774,241.60276 L391.387317,241.256741 L391.445532,240.965666 L391.605133,240.674592 L391.747073,240.333805 L391.843225,239.520759 L391.794168,238.650805 L391.134835,235.692309 L391.077928,234.891036 L391.09428,234.171526 L391.030179,233.468368 L390.670423,232.72204 L389.928674,231.880866 L389.748142,231.56232 L389.643486,231.161356 L389.539484,230.348963 L389.245793,229.670661 L389.187578,229.371083 L389.22944,229.079355 L389.387733,228.815752 L389.522477,228.71175 L389.588541,228.563269 L389.581346,228.390587 L389.514628,228.195665 L389.102545,227.892817 L389.036481,227.50886 L392.894365,218.150646 L392.991171,217.329096 Z M280.3806,292.670337 L280.309303,292.786113 L280.134004,292.939827 L279.941699,292.923474 L279.80957,292.799195 L279.765746,292.587921 L279.773595,292.456446 L279.793218,292.332821 L280.048317,291.968487 L279.996643,291.781415 L279.844892,291.725816 L279.548584,291.761792 L279.194062,291.901115 L279.09006,292.266757 L279.274516,292.692577 L279.814803,293.529825 L280.098029,293.703816 L280.271365,293.478805 L280.39172,293.186422 L280.506841,292.978418 L280.506841,292.780226 L280.427695,292.684727 L280.3806,292.670337 L280.3806,292.670337 Z" id="Fill-3"></path>
        </g>
    </g>
</svg>