
<svg width="108px" height="115px" viewBox="0 0 108 115" version="1.1" xmlns="http://www.w3.org/2000/svg" xmlns:xlink="http://www.w3.org/1999/xlink">
    <!-- Generator: Sketch 51.2 (57519) - http://www.bohemiancoding.com/sketch -->
    <desc>Created with Sketch.</desc>
    <defs></defs>
    <g id="Page-1" stroke="none" stroke-width="1" fill="none" fill-rule="evenodd">
        <g id="MA-EPS-01-0001" transform="translate(-146.000000, -166.000000)" >
            <g id="Group" transform="translate(146.000000, 166.000000)">
                <polyline id="Fill-3" points="56.350625 75.7778125 56.350625 75.195625 56.3496875 74.511875 56.348125 72.9240625 56.348125 72.0753125 56.345 68.94 56.34375 68.3546875 56.34375 64.6959375 56.1184375 64.6959375 56.1184375 64.68 54.1534375 64.68 54.1534375 64.6971875 26.3684375 64.68 26.3503125 64.8140625 26.218125 65.1021875 26.186875 65.23625 26.1728125 65.3934375 25.9515625 66.1553125 25.5946875 67.0028125 25.5040625 67.055625 25.505 67.0978125 25.5525 67.16625 25.550625 67.20875 25 68.0259375 24.875 68.3078125 24.6778125 69.24875 24.484375 69.68125 24.3565625 70.2846875 24.21875 70.680625 23.8178125 71.4909375 23.425 71.9390625 22.611875 72.4646875 21.400625 73.335625 20.7071875 73.6928125 20.5796875 73.7515625 19.846875 73.829375 19.6915625 73.900625 19.6078125 74.0115625 19.545625 74.1371875 19.453125 74.2615625 18.9 74.803125 18.539375 74.9975 18.221875 75.069375 18.15875 75.11625 17.7859375 75.6028125 17.7484375 75.68625 17.6790625 75.900625 17.6271875 75.98375 17.6090625 76.0584375 17.671875 76.2821875 17.69125 76.3909375 17.6246875 76.8040625 17.6496875 76.9228125 17.5940625 77.0265625 17.4871875 77.355625 17.46875 77.501875 17.43125 77.6 17.251875 77.926875 16.754375 78.63125 16.485625 79.311875 16.45 79.5434375 16.3875 79.6753125 16.3725 79.7203125 16.3271875 80.0496875 16.129375 80.529375 16.0753125 80.6003125 15.9865625 80.675625 15.6815625 81.1071875 15.481875 81.848125 15.43375 81.964375 15.230625 82.815625 15.2790625 82.99875 15.2725 83.6459375 15.2865625 83.7428125 15.3496875 83.8996875 15.3671875 84.0153125 15.363125 84.13125 15.3440625 84.2534375 15.313125 84.3709375 15.271875 84.4746875 15.3209375 84.519375 15.2734375 84.6378125 15.28125 84.748125 15.3090625 84.856875 15.3209375 84.976875 15.2975 85.075625 15.2053125 85.285 15.1475 85.62625 14.9890625 86.05875 14.9246875 86.53375 14.8425 86.6796875 14.7140625 86.781875 14.5475 86.8725 14.38625 87.00125 14.2284375 87.196875 14.1246875 87.4078125 14.1290625 87.575 13.9059375 87.751875 13.765 87.8325 13.4765625 87.8825 13.3384375 87.925 13.20375 87.9915625 13.0825 88.0759375 12.8684375 88.2690625 12.6984375 88.463125 12.2396875 89.16 11.8728125 89.5534375 11.2640625 90.05625 11.20875 90.1421875 11.16375 90.27375 11.055 90.3775 10.7984375 90.5625 10.6121875 90.838125 10.3396875 91.1590625 10.23375 91.3165625 10.0940625 91.4778125 9.9171875 91.5921875 9.698125 91.6121875 9.6115625 91.698125 9.32375 91.8759375 9.1075 91.95875 8.621875 92.373125 8.5171875 92.4890625 8.42125 92.616875 8.37875 92.730625 7.9659375 93.300625 7.724375 93.764375 7.68875 93.87 7.5425 94.044375 7.4984375 94.166875 7.5978125 94.2396875 7.90875 93.9578125 7.9659375 93.87 7.98 93.804375 8.0425 93.660625 8.05625 93.57375 8.0734375 93.5259375 8.16 93.3696875 8.260625 93.1296875 8.30875 93.0434375 8.37875 92.9509375 8.4840625 92.8578125 8.5471875 92.8428125 8.6053125 92.8596875 8.6934375 92.8578125 8.7565625 92.8296875 8.926875 92.7096875 8.975 92.6553125 8.9896875 92.5515625 8.9765625 92.4525 8.98375 92.368125 9.0621875 92.31 9.03875 92.368125 9.0171875 92.40875 9.1028125 92.571875 9.1275 92.7096875 9.1128125 93.0296875 9.080625 93.2084375 8.998125 93.344375 8.8928125 93.4790625 8.7896875 93.64375 8.76375 93.7190625 8.7296875 93.87 8.6946875 93.9471875 8.6478125 93.995625 8.5378125 94.0775 8.5165625 94.1221875 8.194375 94.4934375 7.9553125 94.9203125 7.8546875 95.064375 7.7825 95.1975 7.68875 95.6853125 7.39375 96.195 7.308125 96.276875 7.2359375 96.31875 7.1615625 96.4134375 6.663125 97.56625 6.6346875 97.6140625 6.319375 97.9078125 6.25625 97.99 6.1425 98.220625 6.095 98.3546875 6.37 98.2790625 6.5003125 98.305 6.5553125 98.475 6.546875 98.64625 6.5203125 98.8034375 6.475625 98.95 6.410625 99.090625 6.186875 99.3475 5.9721875 99.535625 5.813125 99.58125 5.665625 99.5959375 5.633125 99.6215625 5.619375 99.6684375 5.5603125 99.8 5.5490625 99.85 5.550625 99.933125 5.564375 99.98 5.58875 100.038437 5.5878125 100.11 5.455 100.298125 5.3984375 100.41625 5.3178125 100.675312 5.2878125 100.831562 5.2678125 101.440625 5.1815625 101.901875 5.0984375 102.007187 4.7671875 102.339062 4.7015625 102.422812 4.686875 102.545937 4.4534375 103.374062 4.3496875 103.555625 4.2165625 103.71625 4.085625 103.82125 3.3528125 104.115625 3.2809375 104.029687 3.229375 103.987812 3.170625 103.964375 3.0959375 103.969062 3.05 104.00375 3.01375 104.044375 2.8528125 104.105312 2.7784375 104.209062 2.670625 104.453125 2.631875 104.494062 2.5215625 104.571562 2.484375 104.609062 2.4090625 104.780625 2.398125 104.82375 2.3609375 104.891875 2.1209375 105.141562 1.425 106.567187 1.36625 106.734062 1.313125 107.028437 1.185625 107.320625 1.155 107.535312 1.12 107.638125 1.1446875 107.67875 1.230625 107.752187 1.2521875 107.7925 1.255625 107.874062 1.2475 107.96125 1.2240625 108.04375 1.11125 108.238437 1.09625 108.400937 1.119375 108.671562 1.09125 108.984687 0.8134375 110.03375 0.80625 110.210625 0.809375 110.21 0.7990625 110.498437 0.785 110.602187 0.7225 110.860937 0.4484375 112.979062 0.325625 113.343125 0.2975 113.466875 0.2975 113.80625 0.285 113.906562 0.2240625 114.074687 0.2025 114.172812 0.2325 114.349375 0.444375 114.6675 0.5215625 114.849062 0.3546875 114.083125 0.379375 113.872812 0.535625 113.227812 0.5796875 113.003125 0.8628125 112.189375 0.990625 111.50625 1.106875 110.89 1.17 110.831875 11.924375 110.831875 14.211875 110.828125 26.2046875 110.828125 26.4803125 110.826875 27.4571875 110.826875 27.15625 106.108437 26.9365625 102.526562 26.8490625 102.0625 26.525625 101.138125 26.455625 100.679375 26.54375 100.196875 26.759375 99.7378125 27.33 98.9359375 27.4571875 98.7703125 28.1246875 98.31 28.9590625 97.735625 29.6775 97.2390625 30.0959375 96.94875 30.503125 96.8071875 31.625625 96.6471875 31.86625 96.5740625 33.3278125 95.875625 34.006875 95.6896875 34.095625 95.5734375 34.1225 95.3271875 34.1225 77.0809375 56.1753125 77.0809375 56.305625 77.0428125 56.3515625 76.9471875 56.3515625 76.2253125 56.350625 75.7778125"></polyline>
                <path d="M105.378125,26.03125 L104.954375,25.8740625 L104.73625,25.6884375 L103.833125,24.17875 L104.116563,23.974375 L104.166562,23.9203125 L104.205312,23.8540625 L104.233125,23.78 L104.249063,23.6984375 L104.269687,23.5259375 L104.27125,23.3409375 L104.2275,23.1771875 L104.115937,23.0684375 L103.921563,22.9275 L103.74875,22.7678125 L103.61125,22.5725 L103.520937,22.32375 L103.40125,22.0978125 L103.063125,21.7690625 L103.002188,21.5090625 L103.0025,20.7275 L103.071875,20.5259375 L103.16375,20.325625 L103.28875,19.8825 L103.388437,19.7334375 L103.473125,19.5171875 L103.4425,19.254375 L103.142813,18.535625 L103.07,18.4415625 L102.953125,18.355 L102.7225,18.2725 L102.62,18.2015625 L102.579687,18.07625 L102.610625,17.9534375 L102.675313,17.873125 L102.752188,17.805 L102.819375,17.719375 L102.87125,17.6015625 L102.875,17.514375 L102.805625,17.2815625 L102.745,16.8890625 L102.767187,16.5134375 L103.078125,15.2246875 L103.094062,15.064375 L103.059687,14.8503125 L102.584688,13.37125 L102.415937,13.0153125 L102.160625,12.711875 L102.87125,11.8490625 L102.79625,11.80625 L102.55375,11.7334375 L101.750937,10.9078125 L101.805,10.7709375 L102.154375,10.229375 L102.317188,9.865625 L102.403438,9.799375 L102.427812,9.74 L102.306562,9.61625 L101.605625,9.1725 L101.38,8.9584375 L101.025937,8.7390625 L100.934687,8.6290625 L100.901562,8.5171875 L100.892813,8.4065625 L100.86625,8.31125 L100.781563,8.245625 L100.482187,8.216875 L100.257188,8.0721875 L100.049375,7.87625 L99.8009375,7.69625 L99.5978125,7.619375 L99.478125,7.459375 L99.415,7.2440625 L99.4090625,6.9271875 L99.235,6.8621875 L99.05875,6.7625 L98.9,6.71 L98.7515625,6.6878125 L98.1159375,6.441875 L97.9803125,6.4753125 L97.8525,6.578125 L97.7121875,6.7390625 L97.60375,6.8059375 L97.44375,6.84625 L97.139375,6.873125 L96.448125,6.775 L96.10375,6.654375 L95.8184375,6.490625 L95.50125,6.16125 L95.45,6.075 L95.12625,5.7253125 L95.0359375,5.6540625 L95.004375,5.7178125 L95.1040625,5.8890625 L95.6128125,6.4771875 L95.9040625,6.7125 L95.419375,6.6646875 L95.1853125,6.58875 L95.0134375,6.46375 L94.9159375,6.3415625 L94.8590625,6.245 L94.8271875,6.139375 L94.8028125,5.8771875 L94.81,5.74125 L94.8384375,5.618125 L94.899375,5.544375 L94.80375,5.4040625 L94.6015625,5.4778125 L94.4628125,5.3284375 L94.4421875,5.1034375 L94.5715625,4.9721875 L94.5615625,4.934375 L94.471875,4.6209375 L94.5390625,4.3725 L94.50875,4.2765625 L94.5434375,4.1359375 L94.51375,4.0696875 L94.435,4.028125 L94.3725,4.0534375 L94.3409375,4.1203125 L94.3534375,4.206875 L94.1840625,4.458125 L93.9234375,5.1015625 L93.71125,5.3178125 L93.6275,5.3309375 L93.5559375,5.3034375 L93.49375,5.2703125 L93.4384375,5.26625 L93.368125,5.3115625 L93.06625,5.6321875 L92.925,5.72125 L92.0978125,6.016875 L91.8125,6.076875 L91.4734375,6.0484375 L91.4046875,6.0253125 L91.27375,5.9621875 L91.20125,5.938125 L91.1290625,5.93625 L91.0440625,5.9453125 L90.9640625,5.943125 L90.786875,5.840625 L90.285625,5.761875 L90.145,5.663125 L89.865,5.4059375 L89.7365625,5.3178125 L89.56375,5.2934375 L89.385625,5.363125 L89.2471875,5.514375 L89.19125,5.7359375 L89.13,5.8821875 L88.97875,5.9571875 L88.6228125,5.9878125 L88.4375,5.973125 L88.3565625,5.9396875 L88.2803125,5.8771875 L88.2284375,5.7878125 L88.1653125,5.5834375 L88.0978125,5.4896875 L87.8190625,5.6221875 L87.2503125,5.74125 L86.6915625,5.99375 L85.7653125,6.1553125 L85.3809375,6.3996875 L85.24375,6.4378125 L85.0540625,6.423125 L84.265625,6.1903125 L83.3721875,5.9884375 L82.424375,5.69875 L82.156875,5.5453125 L81.7934375,5.20375 L81.499375,5.1015625 L81.3846875,4.9740625 L81.1959375,4.7125 L80.9709375,4.5046875 L80.8396875,4.413125 L80.7184375,4.374375 L80.5559375,4.34625 L80.4528125,4.265 L79.88875,3.4609375 L79.6534375,3.235625 L79.3703125,3.0340625 L79.23125,2.9021875 L79.16125,2.73875 L79.0496875,2.3053125 L79.045625,2.2525 L79.0590625,2.1290625 L79.0496875,2.081875 L79.015625,2.07 L78.9021875,2.0884375 L78.8634375,2.081875 L78.8109375,2.021875 L78.7703125,1.945625 L78.7446875,1.8475 L78.713125,1.5028125 L78.6128125,1.07875 L78.59,0.874375 L78.6234375,0.755625 L78.47125,0.616875 L78.3675,0.470625 L78.2921875,0.3040625 L78.2328125,0.1228125 L77.9071875,0.1709375 L77.7684375,0.238125 L77.6446875,0.3478125 L77.40625,0.624375 L77.29375,0.7246875 L76.9015625,0.9590625 L76.7875,0.8834375 L76.6309375,0.845 L76.4721875,0.8484375 L76.355625,0.903125 L76.2709375,0.861875 L76.15,0.891875 L76.0296875,0.9575 L75.9459375,1.0203125 L75.76625,1.2015625 L75.684375,1.2171875 L75.071875,1.1259375 L74.84125,1.1640625 L74.713125,1.299375 L74.65375,1.423125 L74.6078125,1.613125 L74.5675,1.9971875 L74.548125,2.078125 L74.46,2.203125 L74.44,2.2784375 L74.42875,2.3475 L74.2903125,2.788125 L74.146875,3.11125 L74.1178125,3.2278125 L74.10625,3.4265625 L74.070625,3.5828125 L72.8609375,6.6446875 L72.28375,8.6196875 L70.8446875,11.6540625 L70.6909375,11.9015625 L70.5790625,12.2178125 L70.5109375,12.355 L69.7784375,13.456875 L69.33875,14.4034375 L68.7503125,15.3884375 L68.04875,16.1521875 L67.3521875,16.7109375 L67.1121875,16.7959375 L66.90125,16.9834375 L66.7875,17.025625 L66.5465625,17.065 L66.2778125,17.1634375 L66.0353125,17.2971875 L65.7803125,17.525625 L65.213125,17.9059375 L65.07125,17.949375 L64.9375,17.9028125 L64.983125,17.8440625 L64.855,17.8878125 L64.668125,18.1165625 L64.475625,18.21 L64.250625,18.5021875 L64.163125,18.56875 L64.0371875,18.64 L63.8984375,18.6975 L63.7034375,18.7346875 L63.5871875,18.8075 L63.523125,18.8328125 L63.4503125,18.8240625 L63.3878125,18.79375 L63.3240625,18.7828125 L63.2465625,18.831875 L63.115625,18.7971875 L63.0025,18.899375 L62.893125,19.035 L62.769375,19.1040625 L62.645625,19.1325 L62.380625,19.2709375 L61.9353125,19.4096875 L61.76875,19.484375 L61.62375,19.66875 L61.4590625,19.7384375 L61.15,19.816875 L60.1903125,20.245625 L59.28,20.4553125 L59.0028125,20.5715625 L58.7659375,20.766875 L58.3759375,21.248125 L58.1340625,21.444375 L57.8903125,21.5696875 L57.7690625,21.5978125 L57.6059375,21.606875 L57.54875,21.59 L57.483125,21.5196875 L57.4259375,21.5040625 L57.3728125,21.5346875 L56.8215625,22.1890625 L56.7596875,22.289375 L56.764375,22.4603125 L56.7575,22.5609375 L56.705,22.6540625 L55.86875,23.580625 L55.1140625,24.5971875 L54.8890625,24.81125 L54.24375,25.2665625 L53.485625,26.1675 L52.5015625,27.001875 L52.3740625,27.2428125 L52.37875,27.374375 L52.4184375,27.5059375 L52.476875,27.6196875 L52.535625,27.7 L52.588125,27.8253125 L52.5759375,27.9815625 L52.526875,28.1378125 L52.34625,28.4896875 L52.304375,28.6103125 L52.2875,28.780625 L52.315625,28.8375 L52.44125,28.8996875 L52.4690625,28.9390625 L52.434375,29.74875 L52.3828125,29.99125 L52.2884375,30.206875 L52.0475,30.50875 L52.015,30.605625 L52.0028125,30.7334375 L51.925625,31.0484375 L51.8740625,31.164375 L51.7940625,31.3240625 L51.009375,32.1353125 L50.9765625,32.191875 L50.9184375,32.3259375 L50.8684375,32.4015625 L50.813125,32.46125 L50.715625,32.53625 L50.665625,32.5884375 L50.39625,32.9671875 L49.78625,33.6296875 L49.733125,33.7528125 L49.6403125,34.378125 L49.6071875,34.4509375 L49.5175,34.5796875 L49.478125,34.6684375 L49.384375,34.7684375 L49.3475,34.9071875 L49.305625,34.963125 L49.1815625,35.074375 L49.105625,35.1859375 L48.9503125,35.654375 L48.795,35.9228125 L48.5859375,36.1909375 L48.6715625,36.29625 L48.7603125,36.36875 L48.83,36.466875 L48.8590625,36.64875 L48.843125,37.093125 L48.66875,38.19125 L48.585,38.3725 L48.691875,38.6503125 L48.7175,38.78875 L48.7675,40.3075 L48.756875,40.399375 L48.739375,40.4559375 L48.7428125,40.5040625 L48.789375,40.573125 L48.815625,40.6475 L48.8109375,40.743125 L48.7665625,40.91625 L48.64125,41.16625 L48.46375,41.440625 L48.3234375,41.730625 L48.3109375,42.02625 L48.408125,42.13625 L48.561875,42.1696875 L48.7040625,42.17875 L49.1803125,42.4996875 L49.303125,42.7071875 L49.3621875,42.766875 L49.4384375,42.7953125 L49.5121875,42.803125 L49.568125,42.8390625 L49.62375,43.0940625 L49.7940625,43.48125 L49.868125,43.6140625 L49.981875,43.7321875 L50.0840625,43.8046875 L50.1584375,43.9040625 L50.1865625,44.1090625 L50.1690625,44.26125 L50.04625,44.7721875 L49.934375,45.75125 L49.868125,46.03625 L49.449375,47.034375 L48.7675,48.2415625 L47.903125,49.18125 L47.625,49.555 L47.585,49.6771875 L47.534375,49.7715625 L47.2165625,50.0653125 L47.1453125,50.1803125 L47.085,50.3334375 L47.045625,50.5053125 L47.0296875,50.6646875 L46.99,50.7490625 L46.715,51.1609375 L46.6559375,51.3215625 L46.6246875,51.3715625 L46.3853125,51.545 L46.35125,51.608125 L46.3190625,51.7478125 L46.2415625,51.8840625 L46.0740625,52.098125 L45.9125,52.3553125 L45.80875,52.47125 L45.5559375,52.5646875 L45.43,52.67 L45.2503125,52.8878125 L44.5634375,53.9275 L43.7446875,54.701875 L43.4865625,54.8740625 L42.9409375,55.15375 L42.4846875,55.46 L40.5859375,56.4340625 L40.483125,56.5025 L40.295625,56.699375 L40.1590625,56.929375 L40.1359375,56.9603125 L39.9084375,57.1453125 L39.874375,57.1940625 L39.819375,57.298125 L39.7671875,57.35625 L39.490625,57.528125 L39.4384375,57.636875 L39.12625,58.0203125 L38.73,58.2953125 L38.67125,58.4134375 L38.6296875,58.564375 L38.529375,58.6840625 L38.4096875,58.790625 L38.306875,58.900625 L38.0434375,59.3453125 L37.8840625,59.5528125 L37.665625,59.7246875 L34.19875,61.2490625 L34.0815625,61.2753125 L34.05,61.2953125 L33.8996875,61.45375 L33.82625,61.5046875 L32.0021875,61.8175 L30.8128125,62.209375 L29.8503125,62.1890625 L28.6428125,62.39875 L28.015,62.63625 L27.8859375,62.7115625 L27.7821875,62.8171875 L27.70625,62.9725 L27.549375,63.519375 L27.2678125,63.9778125 L27.1596875,64.104375 L26.91625,64.185 L26.700625,64.365625 L26.499375,64.464375 L26.428125,64.5375 L26.3859375,64.671875 L26.3815625,64.7046875 L55.4475,64.7115625 L56.3515625,64.7115625 L56.3515625,57.14375 L56.3753125,56.9403125 L56.4503125,56.798125 L56.575,56.689375 L57.4284375,56.225625 L57.728125,55.985625 L58.03125,55.8184375 L58.1159375,55.7321875 L58.344375,55.328125 L58.4446875,55.2478125 L58.67875,55.1415625 L58.78875,55.0759375 L59.23,54.655 L59.6846875,54.3465625 L60.435,54.0128125 L60.6578125,53.8565625 L61.26625,53.2778125 L61.9721875,52.8003125 L62.37875,52.4184375 L62.6996875,52.2521875 L62.801875,52.169375 L63.2084375,51.7578125 L63.43625,51.6565625 L63.7478125,51.671875 L64.041875,51.72125 L64.1909375,51.7284375 L64.338125,51.710625 L64.4765625,51.659375 L64.9746875,51.2071875 L65.45875,50.579375 L65.5559375,50.491875 L66.6271875,49.8753125 L66.8546875,49.8328125 L67.6571875,50.0053125 L68.4946875,49.9978125 L69.605,50.3046875 L70.1421875,50.325 L70.606875,49.99375 L70.701875,49.8428125 L70.7703125,49.6809375 L70.8040625,49.509375 L70.7925,49.320625 L70.88625,49.040625 L70.8921875,48.91125 L70.839375,48.5865625 L70.86375,48.456875 L70.934375,48.369375 L71.0478125,48.335 L71.1609375,48.368125 L71.4,48.505 L71.52875,48.5334375 L71.9184375,48.44625 L72.0471875,48.4440625 L72.44375,48.5665625 L72.581875,48.5765625 L72.7321875,48.5415625 L72.8221875,48.4725 L72.900625,48.38125 L73.014375,48.2775 L73.2853125,48.18125 L73.559375,48.2215625 L73.835,48.305625 L74.10875,48.3428125 L75.7828125,47.9503125 L77.076875,47.809375 L77.4584375,47.6209375 L77.6571875,47.4540625 L78.35,47.1175 L78.7684375,46.7784375 L79.9015625,45.533125 L80.2425,45.0646875 L80.710625,44.0321875 L81.1096875,43.3575 L81.24125,43.1996875 L81.3940625,43.104375 L83.72125,42.2315625 L84.1225,42.199375 L84.5959375,42.0903125 L85.4053125,41.601875 L86.085625,41.3025 L86.293125,41.145 L87.23875,40.0996875 L87.4553125,39.99625 L88.515625,39.795625 L89.1715625,39.81125 L89.5646875,39.75625 L89.9196875,39.61 L90.1153125,39.3409375 L90.1559375,39.209375 L90.170625,39.0603125 L90.161875,38.909375 L90.1315625,38.7721875 L90.0678125,38.6284375 L89.9890625,38.558125 L89.7490625,38.44 L89.63,38.3265625 L89.4471875,38.0340625 L89.3521875,37.9328125 L89.2359375,37.9028125 L89.136875,37.9553125 L88.941875,38.139375 L88.8228125,38.191875 L88.7121875,38.1846875 L88.6328125,38.115625 L88.6096875,37.98125 L88.6540625,37.8290625 L88.795625,37.5909375 L88.809375,37.4140625 L88.7675,36.8278125 L88.7946875,36.6859375 L88.8796875,36.58125 L89.246875,36.3125 L89.265625,36.261875 L89.225625,36.1578125 L89.175,36.09875 L89.10375,36.05625 L88.78,35.9453125 L88.6240625,35.8434375 L88.52,35.6875 L88.4996875,35.460625 L88.53625,35.156875 L88.565625,34.2153125 L88.6809375,33.96375 L88.914375,33.8334375 L89.19625,33.784375 L89.4559375,33.780625 L89.7353125,33.826875 L90.286875,34.03125 L90.5709375,34.0959375 L90.8184375,34.0753125 L91.4778125,33.734375 C92.35875,33.4453125 93.2390625,33.15625 94.12,32.866875 L94.3596875,32.631875 L94.45625,32.3009375 L94.4903125,31.5625 L94.6365625,31.13875 L95.0196875,30.9221875 L96.2571875,30.8178125 L97.4540625,30.484375 C97.674375,30.4946875 97.8946875,30.5046875 98.1153125,30.515 C100.70875,30.6353125 103.301562,30.7615625 105.895312,30.879375 L106.156875,30.8178125 L106.288437,30.539375 L106.255312,30.3765625 L106.147187,30.2803125 L106.008437,30.2378125 L105.880313,30.239375 L105.632812,30.3384375 L105.525625,30.336875 L105.49625,30.2084375 L105.521562,30.16 L105.631563,30.0725 L105.6725,30.0309375 L105.715,29.9471875 L105.724375,29.8828125 L105.722812,29.81625 L105.842812,29.005625 L105.931562,28.7221875 L105.998125,28.5834375 L106.106562,28.4425 L106.214375,28.3853125 L106.490937,28.345625 L106.738125,28.2434375 L106.959375,28.07375 L107.345,27.64125 L107.241562,27.46375 L105.378125,26.03125" id="Fill-4"></path>
            </g>
        </g>
    </g>
</svg>