
<svg width="59px" height="116px" viewBox="0 0 59 116" version="1.1" xmlns="http://www.w3.org/2000/svg" xmlns:xlink="http://www.w3.org/1999/xlink">
    <!-- Generator: Sketch 51.2 (57519) - http://www.bohemiancoding.com/sketch -->
    <desc>Created with Sketch.</desc>
    <defs></defs>
    <g id="Page-1" stroke="none" stroke-width="1" fill="none" fill-rule="evenodd">
        <g id="MG-EPS-01-0001" transform="translate(-286.000000, -124.000000)" >
            <path d="M326.381251,135.710152 L326.335767,135.850164 L326.304521,136.008765 L326.341304,136.357213 L326.394698,136.530448 L326.473801,136.62814 L326.502278,136.642774 L326.519285,136.660968 L326.542225,136.676393 L326.579008,136.678766 L326.579008,136.565649 L326.632402,136.565649 L326.739586,136.645938 L326.83886,136.692213 L327.129563,136.738884 L327.245844,136.686281 L327.29291,136.678766 L327.29291,136.698146 L327.307544,136.736115 L327.332857,136.776853 L327.372013,136.795442 L327.453884,136.790301 L327.541293,136.774085 L327.621187,136.738093 L327.674581,136.678766 L327.66588,136.573559 L327.56977,136.487733 L327.459422,136.413772 L327.403259,136.348907 L327.445974,136.240537 L327.53536,136.090637 L327.578471,135.956558 L327.482361,135.898022 L327.47722,135.812195 L327.414729,135.629468 L327.334835,135.462165 L327.265224,135.421427 L327.349864,135.280229 L327.35817,135.142986 L327.29291,135.041734 L327.15448,134.99981 L326.988365,135.008906 L326.898188,135.047667 L326.864173,135.141008 L326.855472,135.309101 L326.880389,135.375548 L326.931806,135.437643 L326.971358,135.499739 L326.959492,135.563417 L326.898188,135.597036 L326.818689,135.588334 L326.739586,135.552342 L326.686192,135.501717 L326.581776,135.547992 L326.454421,135.491433 L326.335767,135.455442 L326.256664,135.563417 L326.375714,135.608901 L326.381251,135.710152 Z M340.528385,164.013914 L340.461148,164.121889 L340.433067,164.251222 L340.418828,164.380951 L340.389956,164.499209 L339.848102,165.347191 L339.67012,165.552463 L339.602883,165.663207 L339.576779,165.807174 L339.568869,166.038549 L339.548302,166.145734 L339.515475,166.258455 L339.322464,166.67414 L339.280935,166.8893 L339.350941,167.117116 L339.500445,166.931224 L339.726679,166.439996 L340.011449,166.055161 L340.401821,165.202829 L340.613025,164.558932 L340.900564,163.96052 L340.934974,163.759994 L340.627659,163.937975 L340.528385,164.013914 Z M344.727951,151.865706 L344.662692,151.597152 L344.555507,151.396231 L344.456629,151.320688 L344.34984,151.261361 L344.267969,151.173557 L344.199545,150.893533 L344.117674,150.761432 L343.731257,150.287211 L343.583334,150.064536 L343.013794,148.799288 L342.918476,148.27365 L342.863499,148.126914 L342.801404,148.022894 L342.706085,147.952097 L342.494089,147.841749 L342.421315,147.742475 L342.600878,147.637268 L342.669302,147.373065 L342.646362,147.07287 L342.42883,146.627521 L342.369502,145.714675 L342.271019,145.325489 L342.256781,145.181522 L342.273788,145.054958 L342.352891,144.800247 L342.451769,144.170589 L342.446232,143.934072 L342.310966,143.690435 L342.112418,143.503753 L342.05586,143.408434 L342.039644,143.238758 L342.048345,142.946869 L342.073658,142.803298 L342.143664,142.575482 L342.155134,142.281615 L342.13259,142.047075 L341.97122,141.437193 L341.88658,139.804116 L341.813805,139.536353 L341.629892,139.149936 L341.5674,139.058573 L341.522707,138.926076 L341.588363,138.646843 L341.5674,138.556666 L341.545252,138.507622 L341.545252,138.462929 L341.536155,138.430101 L341.489089,138.418236 L341.455074,138.415467 L341.423829,138.40637 L341.398516,138.390154 L341.37874,138.35614 L341.353823,138.299977 L341.322577,138.130302 L341.322577,138.062273 L341.332861,137.915142 L341.322577,137.850278 L341.291332,137.805189 L341.194826,137.731228 L341.158835,137.686535 L341.068262,137.463861 L340.952772,136.98608 L340.934974,136.768152 L340.997465,136.491688 L341.006166,136.349698 L340.934974,136.23144 L340.849938,136.221552 L340.762925,136.267827 L340.667211,136.297095 L340.559631,136.23144 L340.526408,136.111204 L340.553698,135.760778 L340.528385,135.619975 L340.311248,135.3004 L340.280398,135.197567 L340.271302,135.067047 L340.235705,134.902513 L340.226213,134.779113 L340.29701,134.120978 L340.280398,133.683144 L340.238078,133.604437 L340.054164,133.383345 L340.011449,133.266668 L339.978226,133.100552 L339.895563,133.02936 L339.785611,132.994159 L339.678426,132.934436 L339.562936,132.790074 L339.594182,132.729165 L339.68159,132.704247 L339.738544,132.661532 L339.732216,132.496207 L339.659442,132.432925 L339.548302,132.426201 L339.435581,132.433716 L339.336702,132.398515 L339.260368,132.312293 L339.158721,132.097134 L339.147647,132.021195 L339.184034,131.816714 L339.147647,131.76332 L338.947121,131.575451 L338.854571,131.507422 L338.746596,131.454819 L338.636643,131.426342 L338.658792,131.396679 L338.69597,131.315598 L338.589181,131.272883 L338.498608,131.287517 L338.44205,131.357918 L338.402499,131.581384 L338.354641,131.656531 L338.301247,131.724955 L338.254972,131.816714 L338.190899,131.773999 L338.12287,131.76332 L338.051678,131.777954 L337.981276,131.816714 L338.020828,131.711508 L338.125639,131.532735 L338.145019,131.426342 L338.128012,131.338142 L338.048909,131.164512 L338.031902,131.059701 L337.970202,130.917316 L337.829004,130.755155 L337.665656,130.611188 L337.547002,130.532481 L337.459198,130.541973 L337.396707,130.600905 L337.343313,130.608419 L337.267374,130.471176 L337.244039,130.372693 L337.249971,130.284098 L337.284381,130.197481 L337.349245,130.11205 L337.390774,129.933277 L337.27212,129.467758 L337.320768,129.247852 L337.318,129.47369 L337.340148,129.574546 L337.405408,129.664328 L337.484511,129.680148 L337.503496,129.574546 L337.484511,129.358991 L337.436654,129.186547 L337.21398,128.687409 L337.058147,128.878442 L336.96441,128.866576 L336.86039,128.736848 L336.665797,128.576269 L336.75281,128.496771 L336.840614,128.506263 L336.936724,128.549374 L337.049446,128.576269 L337.108773,128.535531 L337.1064,128.442981 L337.058147,128.34173 L336.920113,128.208441 L336.886099,128.147532 L336.838637,128.101653 L336.716423,128.081086 L336.604097,128.091765 L336.516293,128.128943 L336.447869,128.196972 L336.391706,128.302969 L336.385378,128.123802 L336.326446,128.015826 L336.244575,127.924858 L336.168636,127.797898 L336.143324,127.685177 L336.140555,127.590649 L336.118011,127.496121 L335.887031,127.134226 L335.796458,127.077667 L335.648931,127.159539 L335.612148,127.268305 L335.72487,127.496121 L335.680177,127.636528 L335.614917,127.680035 L335.539374,127.692691 L335.380377,127.686759 L335.30167,127.666588 L335.304439,127.616753 L335.338848,127.562567 L335.349132,127.521434 L335.264492,127.397243 L335.199628,127.340684 L335.135554,127.373512 L335.050519,127.521434 L334.997124,127.581948 L334.954409,127.55268 L334.929096,127.480696 L334.914462,127.409108 L334.934633,127.364019 L335.050519,127.266327 L335.075832,127.212538 L335.01334,127.142927 L334.866605,127.093488 L334.700489,127.068175 L334.581835,127.07213 L334.713937,126.827703 L334.736481,126.731197 L334.641162,126.682549 L334.663706,126.591185 L334.706026,126.509314 L334.767331,126.447218 L334.855135,126.404503 L334.875702,126.515642 L334.934633,126.630341 L335.022437,126.716959 L335.13239,126.743063 L335.191717,126.692437 L335.245112,126.599887 L335.304439,126.52909 L335.380377,126.543328 L335.680177,126.881493 L335.728034,126.877537 L335.711422,126.75651 L335.570224,126.456315 L335.536605,126.212679 L335.558359,126.002265 L335.536605,125.804904 L335.380377,125.598841 L335.326983,125.50194 L335.324214,125.267005 L335.27082,125.150724 L335.050519,124.900364 L334.967856,124.841828 L334.824285,124.809 L334.682691,124.89008 L334.443405,125.150724 L334.420861,125.210447 L334.435099,125.269774 L334.460412,125.320399 L334.471487,125.345712 L334.448547,125.365092 L334.366675,125.40148 L334.333848,125.441031 L334.278871,125.484142 L334.231805,125.540701 L334.197395,125.623363 L334.361534,125.657377 L334.477419,125.79462 L334.538724,125.971415 L334.531209,126.128039 L334.471487,126.067921 L334.418488,126.128039 L334.15824,125.763375 L334.036817,125.678339 L333.917767,125.816769 L333.596214,125.918021 L333.48903,126.067921 L333.784479,126.0521 L333.870701,126.067921 L333.934774,126.106681 L333.968393,126.155329 L333.993706,126.203977 L334.036817,126.239178 L334.126994,126.262118 L334.186321,126.256581 L334.240111,126.270028 L334.306953,126.349922 L334.355601,126.458688 L334.335825,126.501799 L334.259491,126.515642 L334.203328,126.56429 L334.140441,126.603051 L334.078741,126.653677 L334.036817,126.743063 L334.028116,126.832844 L334.053428,126.899686 L334.08151,126.959409 L334.090211,127.021504 L334.045123,127.172195 L333.954945,127.305483 L333.833523,127.348199 L333.702608,127.23785 L333.590282,127.356109 L333.485866,127.555844 L333.383428,127.665796 L333.266356,127.521434 L333.169455,127.640484 L333.07295,127.700602 L332.991474,127.769421 L332.938079,127.914575 L332.836828,127.867904 L332.72292,127.897172 L332.6189,127.977066 L332.550871,128.081086 L332.537424,128.146741 L332.550871,128.26144 L332.550871,128.302969 L332.46109,128.477391 L332.440918,128.525644 L332.421538,128.959522 L332.387524,129.080154 L332.311585,129.170331 L332.189767,129.251807 L332.06518,129.290963 L331.977772,129.242315 L331.735322,128.77719 L331.566042,128.631246 L331.291555,128.576269 L331.093798,128.564799 L331.00639,128.541464 L330.913049,128.495585 L330.822476,128.503495 L330.681277,128.725378 L330.585959,128.803294 L330.913049,128.964664 L330.933615,128.806063 L331.000457,128.916016 L331.125044,129.247852 L331.382128,129.482392 L331.454902,129.619635 L331.457671,129.858921 L331.576721,129.794847 L331.686278,129.752132 L331.78041,129.76202 L331.839342,129.858921 L331.823126,129.882652 L331.732553,130.082782 L331.735322,130.137362 L331.78041,130.237427 L331.785948,130.303874 L331.757471,130.362014 L331.711986,130.401961 L331.67639,130.449818 L331.672831,130.532481 L331.706845,130.615934 L331.746396,130.623844 L331.79188,130.611979 L331.839342,130.643225 L331.96116,130.818437 L331.989242,130.907823 L332.030771,131.273674 L332.062412,131.365433 L332.113433,131.476968 L332.181066,131.575451 L332.342436,131.767275 L332.387524,131.871295 L332.370913,132.089619 L332.243557,132.616839 L332.277571,132.822901 L332.189767,132.864035 L332.082978,132.968846 L331.989242,133.089873 L331.949295,133.183215 L331.93031,133.284466 L331.882453,133.415381 L331.819962,133.541155 L331.599661,133.838977 L331.492081,134.066792 L331.310935,134.709898 L331.294719,134.845955 L331.289182,135.114904 L331.3141,135.24226 L331.432754,135.431711 L331.457671,135.532171 L331.159058,135.892484 L331.045941,136.125838 L331.184371,136.287207 L330.98701,136.540336 L330.724388,136.766174 L330.43329,136.935454 L330.142192,137.018117 L330.054783,137.007042 L329.961442,136.980147 L329.860191,136.963536 L329.760521,136.988058 L329.662434,137.031564 L329.5861,137.04343 L329.509765,137.026818 L329.086566,136.859516 L328.939434,136.761428 L328.936666,136.62814 L328.857563,136.546269 L328.8014,136.452927 L328.730208,136.376989 L328.602852,136.348907 L328.574771,136.572373 L328.577539,136.68549 L328.602852,136.795442 L328.657433,136.890761 L328.798632,137.073489 L328.861123,137.303282 L329.001926,137.587261 L329.018537,137.661222 L328.942599,137.67902 L328.846093,137.628395 L328.662575,137.463861 L328.665343,137.505785 L328.660202,137.591216 L328.662575,137.629977 L328.56686,137.618111 L328.42052,137.624044 L328.270225,137.649357 L328.166205,137.686535 L328.086311,137.768407 L328.001671,137.892993 L327.934434,138.040125 L327.894487,138.189629 L327.660343,137.844345 L327.564628,137.799652 L327.41196,137.86768 L327.449138,138.014812 L327.621187,138.302746 L327.59271,138.415467 L327.445974,138.678088 L327.403259,138.810585 L327.397721,139.239322 L327.340767,139.367073 L327.47722,139.578278 L327.364103,139.778803 L327.134705,139.928703 L326.908866,139.988821 L326.730885,139.943337 L326.493972,139.827452 L326.285141,139.671619 L326.194568,139.508667 L326.279208,139.408998 L326.296611,139.344925 L326.172024,139.299045 L326.147107,139.257121 L326.141174,139.200562 L326.141174,139.144004 L326.121398,139.007947 L325.982573,138.636164 L325.946186,138.437616 L325.88409,138.268732 L325.762667,138.200308 L325.539202,138.302746 L325.499651,138.158383 L325.471569,137.932149 L325.415011,137.723713 L325.290424,137.629977 L324.997348,137.629977 L325.008422,137.689699 L325.152785,137.850278 L325.028594,137.898531 L324.997348,137.962999 L324.994579,138.03696 L324.963334,138.104989 L324.867224,138.143749 L324.805128,138.099056 L324.788121,138.008879 L324.830046,137.910396 L324.785353,137.927008 L324.706645,137.941642 L324.660766,137.966954 L324.607371,137.842368 L324.654833,137.751795 L324.737495,137.684558 L324.771905,137.629977 L324.706645,137.545732 L324.625169,137.545732 L324.540134,137.597149 L324.468941,137.661222 L324.435323,138.025095 L324.369668,138.225621 L324.249036,138.218106 L324.087666,138.163525 L323.980482,138.333596 L323.915618,138.576046 L323.892678,138.749281 L323.907707,138.951388 L323.984042,139.027327 L324.082129,139.073207 L324.164791,139.200562 L323.81753,139.358372 L323.751875,139.814004 L323.876462,140.349925 L324.085293,140.742275 L324.17547,140.812281 L324.497418,140.942405 L324.884627,141.193556 L324.884627,141.295994 L324.274349,141.615174 L324.568611,141.891243 L324.742637,142.01583 L325.059839,142.125783 L325.132614,142.270145 L325.152785,142.458805 L325.152785,142.648652 L325.104928,142.823469 L324.887,143.116545 L324.830046,143.29769 L324.845075,143.3938 L324.892932,143.496238 L324.954632,143.589579 L325.017124,143.662354 L325.020288,143.729591 L324.935252,143.803157 L324.832814,143.867625 L324.771905,143.919042 L324.763204,143.994981 L324.773883,144.091486 L324.768741,144.184828 L324.715347,144.248901 L324.607371,144.248901 L324.559514,144.145276 L324.548044,144.017525 L324.548044,143.944355 L324.572962,143.729591 L324.689243,143.308764 L324.715347,143.100329 L324.748174,142.995913 L324.813434,142.916019 L324.86406,142.840081 L324.856545,142.733292 L324.805128,142.668032 L324.741055,142.63204 L324.672631,142.606727 L324.607371,142.569549 L324.277513,142.335009 L324.107837,142.283593 L324.000258,142.396314 L324.158463,142.490051 L324.280281,142.684248 L324.359384,142.911273 L324.387466,143.100329 L324.3756,143.213446 L324.344355,143.351875 L324.293729,143.487141 L324.222932,143.578109 L324.158463,143.599863 L324.000258,143.578109 L323.892678,143.605004 L323.633616,143.619638 L323.263415,143.351875 L323.071591,143.410016 L323.003958,143.49782 L322.969549,143.585624 L322.957683,143.82847 L322.935534,143.959385 L322.876603,144.026227 L322.684383,144.141717 L322.521431,144.351339 L322.422157,144.610796 L322.371136,144.887656 L322.356898,145.24085 L322.373905,145.266162 L322.464873,145.336959 L322.449843,145.359504 L322.415829,145.387585 L322.413061,145.435442 L322.549513,145.720608 L322.585505,145.760555 L322.61675,145.806039 L322.630989,145.883955 L322.613586,145.938536 L322.531715,146.020012 L322.515499,146.053235 L322.55505,146.144599 L322.721166,146.443212 L322.769023,146.505703 L322.85129,146.465756 L322.950168,146.367273 L323.176402,146.05719 L323.232565,146.099115 L323.280027,146.217769 L323.345287,146.333259 L323.466709,146.432928 L323.576662,146.458241 L323.681078,146.438861 L323.78312,146.39575 L324.034667,146.24585 L324.155695,146.22647 L324.305594,146.308341 L324.481202,146.497397 L324.582058,146.582432 L324.689243,146.61882 L324.850612,146.747757 L324.924178,147.047557 L324.924178,147.386512 L324.881858,147.629753 L324.748174,147.835816 L324.703877,147.680379 L324.715347,147.121913 L324.653251,146.856128 L324.49465,146.683684 L324.283445,146.658371 L324.062353,146.839516 L324.169538,146.923365 L324.237566,147.090668 L324.226096,147.271813 L324.11021,147.403915 L324.093599,147.303059 L324.1023,147.110048 L324.062353,147.010774 L323.974549,146.948678 L323.724189,146.881441 L323.619378,146.839516 L323.461172,146.700691 L323.122217,146.22647 L323.085039,146.401683 L322.972713,146.483554 L322.853663,146.551187 L322.800664,146.675378 L322.769023,146.7881 L322.696248,146.909918 L322.515499,147.119145 L322.472388,147.148808 L322.334353,147.215255 L322.274631,147.261925 L322.243781,147.324021 L322.243781,147.473921 L322.221236,147.541949 L321.961384,147.807734 L321.924601,147.909777 L321.882676,148.149458 L321.309577,149.242263 L321.264093,149.377529 L321.272399,149.592688 L321.247086,149.668627 L321.156513,149.597039 L320.927906,149.782535 L320.826655,149.996112 L320.749925,150.228279 L320.605958,150.450953 L320.527251,150.512654 L320.264234,150.657016 L320.168124,150.676396 L320.055403,150.615487 L320.03009,150.512654 L320.111961,149.507653 L320.193832,149.26283 L320.315255,149.06705 L320.775238,148.531129 L320.863042,148.330208 L320.883213,148.307268 L320.857109,148.223024 L320.806483,148.183473 L320.755858,148.166861 L320.718679,148.136011 L320.690993,148.00826 L320.725007,147.504771 L320.712747,147.420526 L320.549795,147.231471 L320.501938,147.132592 L320.467923,147.040042 L320.417298,147.008796 L320.306949,147.090668 L319.30709,148.146294 L319.067409,148.531129 L319.015597,148.531129 L319.140579,148.716625 L319.213354,148.764087 L319.338336,148.756572 L319.428513,148.711879 L319.47637,148.578591 L319.563779,148.501466 L319.694298,148.52757 L319.744924,148.700014 L319.721984,148.888674 L319.617569,148.98241 L319.428513,149.001791 L319.247763,149.064282 L319.081252,149.160392 L318.677432,149.540876 L318.567479,149.688798 L318.392267,150.173303 L318.092467,150.439879 L317.747975,150.666113 L317.482981,150.903421 L317.265052,151.207967 L317.195442,151.385948 L317.208889,151.57184 L317.265052,151.642637 L317.400318,151.718575 L317.449362,151.888251 L317.508689,151.927802 L317.599262,151.930571 L317.70605,151.913564 L317.628925,152.113694 L317.618642,152.20743 L317.641186,152.314219 L317.872562,152.20743 L317.943754,152.195565 L318.045006,152.201102 L318.070319,152.226415 L318.067154,152.277436 L318.180271,152.800701 L318.31356,153.051852 L318.341246,153.089031 L318.411647,153.127791 L318.480071,153.150731 L318.544935,153.153104 L318.598725,153.166551 L318.629971,153.212431 L318.604262,153.359167 L318.476907,153.446971 L318.188577,153.556924 L317.925956,153.469119 L317.677969,153.540707 L317.426818,153.675578 L317.155495,153.77762 L316.873098,153.81994 L316.723198,153.867402 L316.633021,153.948878 L316.559851,154.223364 L316.500524,154.336481 L316.41272,154.318683 L316.387803,154.12409 L316.483122,153.845253 L316.841853,153.13056 L316.923724,153.042756 L317.045542,152.961675 L317.146794,152.878617 L317.265052,152.667413 L317.347319,152.560624 L317.347319,152.458186 L317.212054,152.368404 L316.938358,152.256079 L316.811002,152.184491 L316.725967,152.113694 L316.661103,152.029054 L316.564993,151.825759 L316.55115,151.781066 L316.554314,151.563138 L316.542053,151.4872 L316.517136,151.425104 L316.46651,151.396231 L316.341923,151.425104 L316.119249,151.543758 L315.783062,151.644614 L315.179112,152.195565 L314.353675,152.792 L313.893692,152.905117 L313.808657,152.99213 L313.837134,153.074001 L314.085121,153.141239 L314.190328,153.212431 L314.009578,153.265825 L313.798374,153.263848 L313.585983,153.285601 L313.396136,153.412957 L313.303981,153.503529 L312.962257,153.752307 L312.744329,153.95481 L312.656525,154.005436 L312.653757,153.953228 L312.637145,153.912886 L312.619347,153.879267 L312.609063,153.836156 L312.421985,153.972609 L311.91731,154.542544 L311.561347,154.824941 L311.408283,154.982355 L311.321666,155.284924 L311.202616,155.511948 L311.178094,155.646028 L311.216855,155.706146 L311.3098,155.706146 L311.416985,155.691907 L311.504789,155.702586 L311.592593,155.826777 L311.558183,155.99052 L311.346979,156.324729 L311.247705,156.407392 L311.154364,156.4596 L311.140916,156.516158 L311.287652,156.603567 L311.357658,156.618201 L311.614346,156.603567 L311.811708,156.674759 L312.145917,156.984842 L312.300563,157.054848 L312.493178,157.397758 L312.580982,157.617664 L312.499111,157.682528 L312.334577,157.555568 L312.196543,157.357812 L312.043874,157.21068 L311.832274,157.230456 L311.888833,157.377983 L311.89437,157.558337 L311.826737,157.703095 L311.668136,157.739087 L311.606831,157.691625 L311.516259,157.533024 L311.450603,157.513644 L311.406306,157.567038 L311.397605,157.666312 L311.403537,157.773101 L311.394836,157.852204 L311.219228,157.705073 L311.091872,157.54924 L310.809871,156.971395 L310.708619,156.82189 L310.581264,156.690975 L310.409215,156.547404 L310.552787,156.440219 L310.609345,156.32117 L310.646524,156.189068 L310.739865,156.041937 L310.677374,155.969162 L310.642964,155.889269 L310.63189,155.801465 L310.63189,155.706146 L310.592734,155.649983 L310.499393,155.615178 L310.298867,155.589865 L309.90098,155.589865 L309.707969,155.629416 L309.531175,155.702586 L309.344097,155.816494 L309.155437,155.963625 L308.991298,156.134883 L308.873435,156.324729 L308.827556,156.505479 L308.93474,156.453667 L309.121422,156.307722 L309.316411,156.211612 L309.313247,156.355184 L309.25392,156.442988 L309.180749,156.516158 L309.146735,156.603567 L309.197361,156.745952 L309.276068,156.847203 L309.276068,156.897433 L309.093341,156.891896 L308.873435,156.772847 L308.805011,156.766914 L308.670141,156.778779 L308.601717,156.772847 L308.483063,156.747534 L308.417803,156.716288 L308.389722,156.649446 L308.382207,156.519718 L308.398423,156.248791 L308.336327,156.175621 L308.164279,156.149121 L308.039297,156.155054 L307.932508,156.177203 L307.831256,156.214381 L307.345565,156.496778 L307.16442,156.524859 L306.876486,156.338968 L306.757832,156.324729 L306.63364,156.324729 L306.514591,156.295857 L306.382094,156.242858 L306.300222,156.248791 L306.035228,156.417675 L305.778144,156.690975 L305.72119,156.808047 L305.765883,156.880822 L305.850918,156.952014 L305.913014,157.054848 L305.918947,157.140674 L305.899171,157.205143 L305.871485,157.267239 L305.853687,157.338431 L305.848545,157.54924 L305.853687,157.569807 L305.792382,157.662357 L305.664631,157.789713 L305.642878,157.883449 L305.72475,158.309418 L305.648415,158.450616 L305.58632,158.468414 L305.531343,158.309418 L305.39054,158.377446 L305.385399,158.292806 L305.473203,158.055498 L305.470434,157.936844 L305.458964,157.905598 L305.427719,157.886218 L305.368392,157.798414 L305.308669,157.569807 L305.204649,157.637044 L305.145717,157.666312 L305.091532,157.682528 L303.784359,157.823727 L303.711189,157.892151 L303.714353,157.993007 L303.781195,158.134996 L303.874536,158.233479 L304.033137,158.292806 L304.052517,158.365976 L303.998727,158.493727 L303.886401,158.572039 L303.614683,158.674477 L303.526879,158.756349 L303.458851,158.859973 L303.380143,158.950941 L303.258325,158.989702 L303.132156,158.964389 L303.072829,158.897151 L303.058195,158.787199 L303.069665,158.645209 L303.114358,158.479884 L303.117522,158.422535 L303.114358,158.343432 L303.106843,158.304672 L302.965645,157.843107 L302.954175,157.580486 L302.937168,157.461832 L302.881005,157.411206 L302.566572,157.626365 L302.075343,157.83757 L301.858206,157.965321 L301.680225,158.137369 L301.49908,158.36123 L301.228944,158.818444 L301.069947,159.015015 L300.838176,159.164519 L300.373052,159.385611 L300.43752,159.44217 L300.330336,159.489631 L300.101729,159.524041 L299.992172,159.555286 L299.881824,159.622128 L299.822892,159.690157 L299.770684,159.77005 L299.695141,159.868533 L299.582024,159.905316 L299.438057,159.865369 L299.300023,159.786662 L299.10543,159.626083 L299.00576,159.620151 L298.791787,159.670777 L297.046385,159.501497 L296.773085,159.54619 L296.504531,159.54619 L296.373616,159.582972 L296.309543,159.659307 L296.281857,159.772028 L296.258126,160.237943 L296.238746,160.347896 L296.182187,160.438864 L296.109017,160.523109 L296.032287,160.636226 L295.970587,160.752902 L295.936968,160.856923 L295.956349,161.124685 L296.078167,161.375837 L296.377175,161.828305 L296.453905,162.060076 L296.456674,162.291451 L296.394182,162.520058 L296.266827,162.734427 L296.260894,162.531924 L296.176254,162.491977 L296.086077,162.585318 L296.046921,162.785844 L296.078167,162.954728 L296.225298,163.308317 L296.266827,163.47206 L296.196821,163.841865 L295.961886,164.169351 L295.685026,164.477061 L295.474217,164.785166 L295.321153,165.132032 L295.224648,165.287469 L295.095315,165.434204 L295.035988,165.51924 L294.970333,165.7079 L294.929199,165.775928 L294.711271,166.001767 L294.654713,166.089175 L294.383786,166.803869 L294.188402,167.122653 L293.965332,167.117116 L293.940019,167.510256 L293.914706,167.628911 L293.855379,167.749542 L293.72486,167.882435 L293.116164,168.831668 L293.041807,169.070954 L292.991181,169.13305 L292.89784,169.085588 L292.847214,169.110901 L292.703247,169.455393 L292.296659,170.124603 L292.211624,170.367053 L292.140827,170.879243 L292.140827,171.139096 L292.186311,171.339226 L292.688613,172.056688 L292.801335,172.437963 L292.991181,172.615154 L293.03627,172.742509 L292.994741,173.112314 L292.759806,174.148561 L292.773649,174.699511 L293.087687,176.323491 L293.084918,177.989396 L293.148991,178.237778 L293.66395,178.986881 L294.239819,179.783051 L294.617534,180.818111 L294.81015,181.403867 L294.844164,181.665697 L294.838231,181.748359 L294.790374,181.956795 L294.767434,182.001488 L294.700197,182.069912 L294.685958,182.12647 L294.694264,182.160089 L294.728278,182.219416 L294.73342,182.24196 L294.73342,182.758501 L294.626236,183.019145 L294.569677,183.509978 L294.626236,183.797912 L294.764665,184.072003 L295.501903,185.031915 L295.654967,185.306402 L295.716272,185.58247 L295.772435,185.681744 L296.154106,186.048781 L296.309543,186.300328 L296.428592,186.568091 L296.585611,187.127743 L296.620021,187.457601 L296.516001,187.604337 L296.337624,187.635583 L296.272364,187.723387 L296.256148,187.853906 L296.213433,188.014089 L296.165575,188.061551 L296.027541,188.152915 L295.990363,188.192466 L295.978893,188.287785 L295.999064,188.369656 L296.027541,188.446386 L296.046921,188.531026 L296.055623,188.822124 L296.027541,188.963323 L295.961886,189.081581 L295.902954,189.169385 L295.746726,189.463252 L295.716272,189.572414 L295.750286,189.720336 L295.828598,189.866281 L295.936968,189.999569 L296.046921,190.095679 L296.097943,190.11229 L296.210269,190.118619 L296.266827,190.152237 L296.306378,190.210378 L296.377175,190.446104 L296.52668,190.465484 L296.585611,190.747881 L296.582843,191.109776 L296.540918,191.368442 L296.413563,191.685644 L296.260894,191.953012 L296.075003,192.191111 L295.597222,192.657026 L295.423592,192.921625 L294.841,194.09116 L294.761106,194.398869 L294.790374,194.67296 L294.676861,194.783309 L294.324854,195.059773 L294.213319,195.20374 L294.019122,195.666491 L293.977197,195.562471 L293.965332,195.511845 L293.965332,195.435116 L293.756105,195.708416 L293.646152,196.088109 L293.573378,196.48916 L293.474104,196.833653 L293.041807,197.636941 L292.89784,197.766274 L292.635219,197.830347 L292.469103,197.996463 L291.963636,198.97892 L291.661464,200.625444 L291.375903,201.424777 L291.333978,201.673555 L291.251316,201.887528 L291.059887,202.116531 L290.824952,202.300445 L290.630755,202.376384 L290.484019,202.343556 L290.339657,202.281065 L290.192921,202.243886 L289.891144,202.328526 L289.447377,202.316661 L289.413363,202.343556 L289.309343,202.497806 L289.088251,202.613692 L288.939538,202.760427 L288.874278,202.760427 L288.812182,202.613692 L288.761556,202.826083 L288.595045,203.218037 L288.532554,203.429241 L288.532554,205.714125 L288.357341,205.609709 L288.204673,205.629089 L288.066243,205.737065 L287.530322,206.38373 L287.439749,206.541144 L287.402966,206.872189 L287.414436,207.306859 L287.385168,207.710679 L287.222217,207.939681 L287.275215,207.629203 L287.264536,207.48484 L287.168427,207.360649 L287.100003,207.451222 L287.046608,207.547331 L287.010617,207.651747 L286.999542,207.764469 L287.058474,207.999008 L287.035929,208.023926 L286.999542,208.043701 L286.965133,208.05794 L286.948521,208.063082 L286.920044,208.108566 L286.886425,208.137043 L286.85518,208.180154 L286.840546,208.264398 L286.840546,208.46967 L286.823934,208.557474 L286.745227,208.726754 L286.725847,208.82405 L286.730197,209.600444 L286.838173,209.944936 L287.111868,209.946914 L287.120965,210.102746 L287.154979,210.254624 L287.165658,210.402546 L287.111868,210.535043 L286.945357,210.376838 L286.725847,210.396218 L286.55538,210.528715 L286.536,210.710256 L286.623804,210.910386 L286.677198,211.122381 L286.677198,211.204252 L286.671266,211.292057 L286.674034,211.37551 L286.863485,211.765882 L286.976602,212.181172 L287.058474,212.974572 L287.027228,213.370482 L287.029997,213.571007 L287.086555,213.773115 L287.12848,213.85024 L287.239224,213.994207 L287.277984,214.06975 L287.324259,214.378647 L287.419578,214.621097 L287.461898,215.069609 L287.560381,215.304544 L287.603492,215.660111 L287.643439,215.778766 L287.732825,215.962679 L287.900127,216.225301 L288.173427,216.530242 L288.320163,216.639799 L288.43328,216.746983 L288.566568,217.018306 L288.654372,217.146057 L289.19939,217.54869 L289.416132,217.786789 L289.526085,218.148684 L289.631291,218.79179 L289.664514,219.570557 L289.749945,219.872729 L289.780005,220.067718 L289.800571,220.113993 L289.863062,220.172529 L289.916457,220.186767 L289.966687,220.195864 L290.023246,220.226714 L290.362201,220.553804 L290.515265,220.763031 L290.728842,220.941012 L290.814669,221.059666 L290.839982,221.14747 L290.836818,221.217081 L290.785401,221.361443 L290.752178,221.42077 L290.630755,221.539425 L290.616121,221.700003 L290.724096,221.925842 L290.737939,222.067831 L290.599509,222.25926 L290.060424,222.495777 L289.882443,222.665453 L289.848428,222.939939 L289.863062,223.552986 L289.749945,223.734131 L289.848428,223.886008 L289.899054,224.044214 L289.966687,224.391475 L290.063192,224.648559 L290.071498,224.747833 L290.054491,224.831682 L289.983694,224.993052 L289.966687,225.077296 L290.108281,225.919345 L290.001097,227.417551 L290.133594,228.723934 L290.404916,229.34489 L290.650135,229.604743 L291.203854,229.984832 L291.472408,230.216603 L291.505236,230.287795 L291.531735,230.465777 L291.551511,230.544484 L291.596204,230.612512 L291.636151,230.652459 L291.672934,230.683705 L292.017426,231.059047 L292.099298,231.208156 L292.175236,231.499254 L292.099298,232.284745 L292.178005,232.56991 L292.759806,233.365684 L292.835744,233.653618 L292.889139,234.345372 L292.982876,234.535218 L293.618071,234.967515 L293.708644,234.989664 L293.965332,234.986895 L294.247729,235.133631 L294.730651,235.662037 L295.013444,235.776736 L295.165321,235.785833 L295.296236,235.812333 L295.417263,235.86454 L295.549365,235.951949 L295.753055,236.158407 L295.863007,236.223272 L295.990363,236.198354 L296.027541,236.392947 L295.956349,236.49143 L295.824643,236.486288 L295.662482,236.370798 L295.417263,236.082073 L295.276065,235.957882 L295.120628,235.893808 L295.182724,236.085237 L295.439808,236.381873 L295.558857,236.721223 L295.708361,236.803095 L296.885806,237.04594 L297.72746,237.090633 L298.571486,237.21522 L298.887502,237.308561 L299.426587,237.567228 L300.020253,238.005457 L300.155519,238.129648 L300.254398,238.398598 L300.358813,238.519625 L300.599286,238.694442 L301.451618,239.01639 L301.694859,239.202282 L301.762096,239.346249 L301.839222,239.685995 L301.911601,239.784478 L302.05003,239.809 L302.171453,239.773404 L302.287339,239.720009 L302.408761,239.690741 L304.688108,239.592258 L305.238663,239.470836 L305.642878,239.089165 L305.820068,239.072949 L305.987371,239.005711 L306.139248,238.894968 L306.941746,238.132021 L308.059863,237.509087 L309.068028,236.985427 L310.649292,236.285763 L311.84058,235.991896 L312.764105,235.966583 L313.585983,236.0797 L313.851768,236.15643 L313.978332,236.161571 L314.526119,236.008903 L314.60008,235.951949 L314.678787,235.858608 L314.760263,235.858608 L314.842135,235.889853 L314.90779,235.893808 L314.986497,235.82578 L315.099219,235.66797 L315.19256,235.607852 L315.423935,235.518466 L315.508971,235.457557 L315.686952,235.29421 L316.153263,234.95565 L316.160778,234.930337 L316.184113,234.918471 L316.276663,234.933501 L316.35893,235.130862 L316.384639,235.167645 L316.463741,235.122161 L316.847785,234.65585 L317.073624,234.445041 L317.208889,234.360006 L317.446198,234.26706 L317.502756,234.196659 L317.537166,234.023028 L317.533606,233.873524 L317.514226,233.735489 L317.519368,233.608925 L317.59056,233.484338 L317.593724,233.622372 L317.618642,233.752892 L317.672036,233.868778 L317.756676,233.970029 L317.846853,233.749728 L317.77922,233.184143 L317.889173,232.914403 L318.298926,232.601156 L318.355089,232.462726 L318.35232,232.191008 L318.372491,232.05772 L318.573412,231.744473 L319.244204,230.04139 L319.453826,228.630592 L319.343873,228.152812 L319.38382,228.102186 L319.555869,228.180893 L319.651583,228.211743 L319.713679,228.158349 L320.193832,226.8314 L320.332262,226.539906 L320.386052,226.320396 L320.386052,226.25039 L320.351642,226.221122 L320.334635,226.195414 L320.386052,226.150721 L320.394753,226.150721 L320.478998,226.11987 L320.496005,226.11987 L320.535952,226.083088 L320.665285,226.001216 L320.718679,225.945053 L320.859878,225.689947 L321.294943,224.521995 L321.707859,222.677318 L321.676614,222.45148 L321.532647,222.377518 L321.402918,222.36684 L321.345569,222.316214 L321.430209,222.125972 L321.517617,222.008109 L321.563497,222.027884 L321.610958,222.125972 L321.701927,222.245021 L322.650764,219.339181 L322.845357,218.083029 L323.145157,217.235443 L323.416084,216.275926 L323.461172,215.46275 L323.613841,214.937112 L323.949632,212.656184 L324.215417,212.07992 L324.324974,211.511567 L326.361475,206.776871 L327.368849,203.511904 L327.482361,203.299908 L327.597456,202.992199 L327.730744,202.260893 L327.744587,202.001041 L327.773064,201.885155 L328.063371,201.201707 L328.137728,200.913773 L328.166205,200.622675 L328.197055,200.47594 L328.338649,200.221624 L328.388484,200.09506 L328.405095,199.956234 L328.386111,199.843117 L328.326783,199.812267 L328.222368,199.920638 L328.188354,199.797238 L328.253613,199.671069 L328.360402,199.535803 L328.445042,199.396582 L329.241607,196.378021 L329.879571,194.410339 L330.336785,193.178709 L330.997688,191.800739 L331.021024,191.690391 L330.97554,191.563035 L330.78332,191.295668 L330.749701,191.19758 L330.820498,191.109776 L330.927683,191.185715 L331.023397,191.323354 L331.074814,191.428956 L331.334666,190.663241 L331.331502,190.349994 L331.348114,190.152237 L331.622205,188.818565 L332.630765,186.240605 L333.358511,183.603319 L333.651982,183.15362 L334.274125,181.728188 L334.688228,180.165908 L335.160867,179.189385 L335.349132,178.616285 L335.408854,178.511869 L335.561523,178.323209 L335.618477,178.215234 L335.818607,176.552098 L336.061452,176.088952 L336.140555,176.038326 L336.222426,176.004312 L336.269888,175.956454 L336.253672,175.860345 L336.213725,175.801017 L336.126316,175.693833 L336.086765,175.631738 L336.055519,175.519016 L336.044445,175.374654 L336.055519,175.227918 L336.445496,173.961878 L336.724729,172.967952 L336.820839,172.392479 L336.776146,171.852998 L336.391706,169.802655 L336.151234,169.413469 L336.115638,169.286114 L336.193949,168.693634 L336.604097,167.724229 L336.976276,166.677304 L337.509824,165.601111 L337.611866,165.470591 L337.738431,165.381205 L337.899405,165.347191 L338.301247,165.310013 L338.501377,165.202829 L338.96927,165.132032 L339.224376,165.033549 L339.466431,164.898283 L339.252458,164.919641 L339.062611,164.889582 L338.887399,164.798613 L338.721283,164.643177 L338.599464,164.462427 L338.543302,164.287214 L338.529854,163.90673 L338.88463,163.618796 L339.116401,163.350242 L339.540392,162.613795 L339.576779,162.508193 L339.576779,162.224214 L339.582316,162.158163 L339.616331,162.039113 L339.647181,161.72112 L339.630965,161.593369 L339.546325,161.54037 L339.401567,161.418552 L339.356874,161.130223 L339.371112,160.805506 L339.543556,160.033067 L339.509542,159.795363 L339.325628,159.526809 L339.093857,159.379678 L338.571383,159.194182 L338.366111,158.989702 L338.264069,158.757931 L338.20751,158.484631 L338.213047,158.207375 L338.286218,157.971254 L338.529854,157.538957 L338.589181,157.400527 L338.614099,157.259724 L338.591554,157.165987 L338.473296,156.942522 L338.393006,156.685043 L338.340007,156.268171 L338.224517,155.996453 L338.162422,155.719989 L338.072245,155.6132 L337.981276,155.525396 L337.928278,155.420189 L337.947262,155.420189 L338.031902,155.194746 L338.041394,155.080047 L338.031902,154.96693 L337.859854,154.491918 L337.851152,154.279923 L338.306784,153.635631 L338.483579,153.469119 L338.746596,153.381711 L339.263532,153.381711 L339.554235,153.347301 L339.763462,153.240908 L339.912966,153.257915 L339.952122,153.268989 L340.003539,153.341764 L339.992069,153.396345 L339.963592,153.446971 L339.952122,153.495619 L340.017777,153.912886 L340.011449,154.060017 L339.967151,154.313937 L339.9893,154.418353 L340.215139,154.717757 L340.25469,154.74307 L340.323114,154.745838 L340.376508,154.756517 L340.421201,154.78183 L340.471827,154.82771 L340.551721,154.955065 L340.539855,155.062249 L340.48923,155.172202 L340.443746,155.307468 L340.440581,155.441151 L340.464312,155.57879 L340.505446,155.708519 L340.559631,155.82124 L340.627659,155.913 L340.732075,156.020184 L340.844797,156.10957 L340.940906,156.149121 L340.958705,156.208448 L340.994301,156.632835 L341.053628,156.878449 L341.203528,157.059199 L341.595877,157.400527 L341.791657,157.372446 L341.926527,157.504547 L342.087106,157.914695 L342.202596,157.817794 L342.327578,157.816212 L342.454933,157.832824 L342.584266,157.798414 L342.675235,157.693603 L342.858358,157.230456 L343.436599,156.47898 L343.488411,156.370214 L343.408517,156.324729 L343.471008,156.087817 L344.180165,154.737532 L344.233955,154.517231 L344.247402,154.364563 L344.391369,153.948878 L344.444764,153.664899 L344.478778,153.610318 L344.574888,153.509462 L344.609297,153.443807 L344.60376,153.393576 L344.58438,153.321988 L344.566582,153.240908 L344.58438,153.159037 L344.659923,152.958116 L344.671788,152.901953 L344.656759,152.817313 L344.640543,152.760754 L344.643312,152.701823 L344.719646,152.575258 L344.764339,152.444343 L344.77304,152.393717 L344.727951,151.865706 Z" id="Fill-3"></path>
        </g>
    </g>
</svg>