
<svg width="101px" height="116px" viewBox="0 0 101 116" version="1.1" xmlns="http://www.w3.org/2000/svg" xmlns:xlink="http://www.w3.org/1999/xlink">
    <!-- Generator: Sketch 51.2 (57519) - http://www.bohemiancoding.com/sketch -->
    <desc>Created with Sketch.</desc>
    <defs></defs>
    <g id="Page-1" stroke="none" stroke-width="1" fill="none" fill-rule="evenodd">
        <g id="MU-EPS-01-0001" transform="translate(-251.000000, -320.000000)" >
            <polygon id="Path" points="346.324998 365.845881 344.463868 359.816712 342.332484 358.131108 340.827978 355.957932 341.449284 348.998197 340.827978 347.577275 338.610225 345.808087 337.813393 345.540619 335.417328 345.897243 334.620497 345.808087 333.645354 344.387164 333.068627 341.952093 331.338444 338.9793 329.833938 335.387988 328.413016 333.303968 327.616184 331.264527 328.725061 327.628636 327.70534 325.190779 325.309275 323.906377 316.265521 321.331999 313.072624 320.85 310.944026 321.465733 309.704202 323.017603 308.818215 324.57226 307.667546 325.190779 304.959435 325.458247 303.585876 326.121344 297.9997 330.601429 297.113713 331.754884 295.871103 334.098013 293.388667 341.815573 290.374082 347.312593 290.195771 351.305107 289.574465 355.294835 286.119673 358.930725 284.166601 359.682978 279.823036 360.970167 277.87275 361.856154 273.437243 365.578414 272.997035 366.244297 271.308645 368.060849 266.744976 377.196545 265.368631 380.918805 264.393488 387.349176 264.215177 399.187412 262.621514 404.330594 264.791904 405.61221 265.014794 407.788172 263.953281 413.859134 262.752462 416.564459 260.049923 417.05203 255.037688 416.035095 251.803 417.319498 252.691773 420.155771 255.260578 423.128564 266.875924 433.676824 271.133119 431.592805 276.719295 432.261474 286.119673 435.320637 292.193421 435.85 309.305786 433.147461 326.195262 427.736811 328.725061 426.051207 330.274145 423.880817 332.934893 419.005102 334.088347 418.336433 335.37275 418.472953 336.481627 418.119115 337.192088 416.035095 337.102932 414.881641 335.994055 413.062303 335.863108 411.55501 334.311237 408.050068 337.724238 403.046191 343.307627 398.521528 348.275284 397.01145 347.124615 393.645814 347.564823 390.316397 349.782577 383.891598 350.757719 377.948798 351.114343 372.805616 350.22557 370.635226"></polygon>
        </g>
    </g>
</svg>