
<svg width="133px" height="115px" viewBox="0 0 133 115" version="1.1" xmlns="http://www.w3.org/2000/svg" xmlns:xlink="http://www.w3.org/1999/xlink">
    <path d="M129.9857,17.7193607 L129.99618,17.7168905 L129.879978,17.7063923 L129.9857,17.7193607 Z M123.546846,75.8421489 L123.295334,76.3096261 L123.347424,76.9043163 L124.115216,76.0697121 L124.219705,75.894331 L123.918568,75.6541082 L123.546846,75.8421489 Z M131.988248,16.4447598 L131.753688,16.2267684 L131.402309,16.2246071 L130.969559,16.4333353 L130.774452,16.6865264 L130.678593,16.9918995 L130.505678,17.2907885 L130.07786,17.5239095 L130.088031,17.6301262 L130.056592,17.6940416 L129.99618,17.7168905 L131.406625,17.8370019 L131.893006,17.6217895 L132.075168,16.8798161 L131.988248,16.4447598 Z M50.5384455,87.0884638 L50.347345,86.8803531 L49.735207,87.0683938 L49.4168089,87.0924778 L49.1603644,86.8803531 L48.4320249,87.4410787 L48.3657562,87.7013715 L48.4033599,87.8937349 L48.5454523,88.0870247 L48.7954241,88.3516402 L48.6317558,88.372019 L48.2520206,88.5174495 L50.8103013,88.4334642 L50.6854696,87.5630427 L50.5384455,87.0884638 Z M115.85012,17.8888752 L116.501095,18.1077928 L116.769252,18.260325 L116.937235,18.4526884 L117.137891,18.4526884 L117.004737,18.2529145 L116.647502,17.9280889 L116.575685,17.7980969 L116.648735,17.4636994 L116.824733,17.4467171 L117.03556,17.6069685 L117.476632,18.0945157 L117.729378,18.4681269 L117.843421,18.8503837 L117.681603,19.1789145 L117.681603,19.344415 L117.998151,19.7099982 L118.187094,20.2080436 L118.214835,20.7329519 L118.045002,21.1794327 L117.656944,21.4956128 L117.397109,21.3248632 L117.138815,20.9456941 L116.757847,20.6332193 L116.631474,20.7718569 L116.512191,20.7817375 L116.212595,20.6332193 L116.084681,20.2858535 L116.050776,20.1151039 L116.04646,19.9069932 L116.112113,19.67943 L116.233246,19.5278242 L116.351913,19.4237688 L116.411092,19.344415 L116.400613,18.8824957 L116.264685,18.5718735 L115.85012,18.0883403 L115.85012,17.8888752 Z M77.7770462,104.966223 L77.5446434,105.222193 L76.3986569,106.056797 L75.5507255,106.085822 L75.3981534,106.149428 L75.2591432,106.250087 L74.5702567,106.541566 L74.3101135,106.602702 L73.7660935,106.498956 L73.3499876,105.993808 L72.7665147,105.876476 L72.3254424,105.846217 L67.5451562,104.767376 L67.1161047,104.752864 L66.6747242,104.836231 L66.2422823,104.863712 L65.6255209,104.578409 L65.3299316,104.556795 L64.7553972,104.585819 L64.5322412,104.471574 L64.0017832,103.902512 L63.730852,103.676493 L62.7488421,103.338699 L61.8343338,103.133058 L60.731499,103.046294 L58.3821959,102.217865 L58.0052348,101.949853 L57.6828298,101.631203 L57.3625823,101.383261 L56.635784,100.948513 L56.2280002,100.774676 L55.7786058,100.657344 L54.9023176,100.568418 L51.6526846,97.3698738 L51.1733923,96.5513256 L50.4456693,93.8230374 L50.2582675,93.3876723 L49.4380765,92.0062371 L48.9942302,91.6249067 L48.9942302,92.0062371 L48.7843279,91.8194315 L48.651174,91.6051454 L48.5950768,91.3568947 L48.6154197,91.0783845 L48.7451831,91.1481664 L49.003477,91.1960257 L49.1603644,91.2608673 L48.8200822,89.696023 L48.6154197,89.2603492 L48.7516559,89.1281958 L48.7760058,89.0053055 L48.7220662,88.8672855 L48.6154197,88.6993148 L48.4320249,88.6993148 L48.4107573,89.0275369 L48.4486692,89.304812 L48.6154197,89.8056363 L48.2344517,89.5271261 L47.3387452,88.6060664 L47.1636725,88.2515989 L47.2428867,88.0076709 L47.429672,87.7427466 L47.6420402,87.527843 L48.0670846,87.3067639 L48.0698587,87.0032434 L47.8886214,86.516005 L47.8997176,85.2806179 L47.7197133,84.621086 L47.2444279,84.3339303 L46.9439069,84.0724024 L47.1760015,83.6027639 L47.5578943,83.4088566 L47.7064595,83.9698909 L47.8886214,83.9698909 L47.6220054,83.1803671 L47.3695678,82.9478636 L46.8822616,82.8635695 L46.6970174,82.6480483 L46.6612631,82.1549433 L46.7093465,81.6099649 L46.7823962,81.2422203 L47.0850747,80.405146 L47.9305403,78.7399516 L48.4320249,78.1338369 L49.1480353,78.3524457 L49.8621963,78.1816961 L50.4549161,77.8019095 L50.9776684,77.5382203 L50.9915386,77.5894761 L51.4057951,77.9010246 L53.1694677,78.8455508 L53.794243,79.0669386 L54.0103099,79.2148392 L54.0938393,79.5081703 L54.2149723,79.6650253 L54.4933009,79.7088705 L54.7984453,79.6712007 L55.002183,79.5881416 L55.002183,79.7703157 L55.1658514,79.7703157 L55.7807634,79.3457575 L56.6296195,79.9846018 L57.8230729,81.4083384 L58.0157145,81.576309 L58.5273706,82.3621277 L58.8229599,83.0664311 L60.1011756,84.3339303 L60.6945118,83.7667205 L61.8275528,83.99521 L63.0068278,84.5760056 L63.730852,85.0610827 L63.9521587,85.3939363 L64.1303137,85.8228173 L64.3654906,86.1942671 L64.7553972,86.351122 L65.0676308,86.402069 L65.2821565,86.5391627 L65.654186,86.9791594 L65.8680952,87.0968006 L66.447253,87.1949893 L66.6525319,87.261066 L67.6863239,88.8302331 L68.6658681,89.9881191 L68.7284381,90.0906306 L68.7934739,90.2823765 L68.84803,90.3675969 L68.9309429,90.423793 L69.1368383,90.4870907 L69.2111209,90.5330974 L69.6595906,90.9613608 L69.8553145,91.2216536 L70.0658333,91.9191641 L70.3762174,92.22886 L71.0438362,92.7324632 L72.1001288,94.0147834 L72.7051776,94.3883946 L73.5842398,95.6423079 L73.8058548,95.7676683 L73.9772288,95.7932962 L74.1328832,95.8383766 L74.3101135,96.0230208 L74.3988827,96.2332929 L74.4565211,96.5062452 L74.4919672,97.0228167 L74.6254293,97.5662512 L74.9345806,97.8731682 L75.2918152,98.142724 L75.5655204,98.5669735 L75.5017175,98.6676324 L75.343289,98.7510001 L75.252054,98.8797571 L75.3981534,99.1138044 L75.7190173,99.047419 L75.9766947,99.0532856 L76.2235842,99.2119931 L76.9784311,99.9604506 L77.2296358,100.336841 L77.3976193,100.948513 L77.3976193,103.039501 L77.4866968,103.609798 L77.8112594,104.478985 L77.7770462,104.966223 Z M42.5788019,73.0434613 L42.2890689,75.0350252 L42.1170784,75.5735194 L41.8809769,75.9357061 L41.0515391,76.2389179 L37.0180858,76.3485311 L36.6272545,76.2521949 L36.5464992,76.260223 L36.4879361,76.2460196 L36.4022491,76.1339362 L36.3683442,75.9915934 L36.3794403,75.8054053 L36.426599,75.6411399 L36.5014981,75.5710492 L36.8793839,75.4503203 L37.1546302,75.1230245 L37.3112093,74.6577088 L37.3253878,74.1170532 L36.9314742,73.2271792 L36.1747779,72.9264377 L35.3046542,73.0823663 L34.569842,73.5714573 L34.2699375,73.9268511 L34.016267,74.1633686 L33.7018759,74.1686177 L32.84778,73.5779415 L30.4812162,72.6096401 L29.7014029,72.1801416 L29.2190283,71.5332693 L29.1247109,70.4636914 L29.1435128,69.9251972 L29.1863563,69.7303636 L29.3053317,69.5528211 L29.4874936,69.4475306 L29.6637993,69.4666744 L29.7966449,69.5948137 L29.8508928,69.8186717 L30.0533977,70.071554 L30.5437862,70.2500228 L31.1405129,70.327524 L31.6666557,70.2812086 L32.2852665,69.866531 L32.6825705,69.2557847 L33.1421364,68.7030872 L33.9515394,68.4619381 L34.345453,68.4054333 L34.9505018,68.156565 L35.4042114,68.1000601 L35.9016891,67.9385736 L36.2281011,67.6282602 L36.5320125,67.4111952 L36.9632215,67.5368644 L37.1308968,67.4136653 L37.3139834,67.3812445 L37.5026181,67.4250898 L37.6890951,67.5368644 L37.8660172,68.9689378 L37.780022,69.189708 L37.8740311,69.3610752 L38.6338097,70.110459 L38.8692948,70.2812086 L39.1507057,70.6850792 L39.6349296,72.6500889 L39.6870199,73.373536 L40.2806644,72.8310279 L40.9769482,72.0489145 L41.713918,71.5675427 L42.4265379,71.9340522 L42.6003777,72.4500062 L42.5788019,73.0434613 Z M120.043851,0.909326453 L119.674287,0.976946994 L119.322293,1.13318441 L118.971223,1.28973059 L118.38251,1.2804675 L117.79503,1.27151319 L117.739857,1.2804675 L117.684377,1.28973059 L117.359814,1.16807537 L117.166248,1.03653953 L117.176727,0.965831288 L117.185974,0.894196743 L117.501906,0.743517181 L116.331262,0.621861961 L115.873545,0.65304769 L115.472234,0.909326453 L115.334149,0.555785268 L115.195447,0.472726248 L115.056745,0.389358457 L114.885987,0.322972995 L114.716154,0.255969993 L114.38327,0 L114.128366,0.461301773 L113.713802,0.905003678 L113.176254,1.21840482 L112.551171,1.28973059 L112.307672,1.15942982 L111.982801,0.676514179 L111.84225,0.545595872 L111.492412,0.487547188 L111.22518,0.51657153 L111.135178,0.650886303 L111.135178,0.651503842 L111.314257,0.909326453 L111.175247,1.08594266 L111.130863,1.25051685 L111.115451,1.6531524 L110.853767,1.41848751 L110.705202,1.53273226 L110.671297,1.84211939 L110.75236,2.19843951 L110.60287,2.12865758 L110.207724,2.01719175 L110.267212,2.09963324 L110.337487,2.28767392 L110.390194,2.3803048 L110.008301,2.49146185 L109.34469,3.00556322 L108.693715,3.24331581 L108.563643,3.53170661 L108.507546,3.89049688 L108.392886,4.21594003 L108.195313,4.21594003 L107.968766,3.93557724 L107.47961,3.79230815 L106.889973,3.76390134 L106.362905,3.83522712 L105.866352,4.06433416 L105.815187,4.21223479 L105.764021,4.36013543 L105.764021,4.3604442 L106.016767,5.12495771 L105.818577,5.12495771 L105.718095,4.89646821 L105.521447,4.77728315 L105.383361,4.75906574 L105.245892,4.7402308 L105.078525,4.75072896 L104.910233,4.76122713 L104.910233,4.76184467 L104.965714,5.17466962 L104.412756,5.38494171 L102.930494,5.47201474 L103.119129,5.78418079 L103.25105,5.9150991 L103.456945,6.05003141 L103.45787,6.05064895 L103.213446,6.05250157 L102.967481,6.05497173 L102.439181,6.21985469 L102.202771,6.34861161 L101.966361,6.47736853 L101.643032,6.76143656 L101.489535,6.57030818 L101.396142,6.50392272 L101.291653,6.47520714 L101.098087,6.39832352 L101.230316,6.64842689 L101.262988,6.76143656 L100.923014,6.67312845 L100.709105,6.44957927 L100.495196,6.22510377 L100.33461,6.13833952 L100.173715,6.05064895 L100.108371,6.35540454 L100.042103,6.66016013 L100.036555,6.90563196 L100.173715,7.12485837 L97.5448508,7.26226084 L97.3167631,7.23539788 L97.0883672,7.20853493 L97.0372015,7.00104176 L96.9000407,6.92909845 L96.4528039,6.94330185 L96.1732424,6.90655827 L96.073377,6.81238354 L96.0046425,6.68918447 L95.3949702,6.31310311 L95.1998628,6.32761528 L94.9092051,6.56351525 L95.2183564,7.18815614 L95.4026759,7.43331919 L95.6363117,7.65408945 L95.6363117,7.85293707 L95.4519922,7.9653292 L95.3965114,7.95884504 L95.3401059,7.95328719 L95.2161988,7.89029819 L94.9924263,7.85293707 L94.7495438,7.90264897 L94.6129994,8.01627619 L94.5060447,8.14256295 L94.3482327,8.23303244 L93.7003404,8.41644158 L93.3095091,8.44484838 L92.9867958,8.31578269 L92.3570889,7.65841223 L92.2559906,7.57380936 L92.1533511,7.48920649 L91.9129344,7.35767064 L91.546453,7.2332365 L91.2107942,7.25577668 L91.0643866,7.57164797 L91.0643866,7.57195674 L91.2015474,8.82216482 L91.0665442,9.40851828 L90.5197502,9.68795476 L90.2247773,9.66757597 L89.5790426,9.52492442 L89.1743411,9.48941592 L88.9721444,9.34799944 L88.7816604,8.65573801 L88.5227501,8.39822417 L88.1704471,8.90151861 L87.9861276,9.2377687 L87.8021163,9.57463632 L87.3126524,10.1628424 L86.320471,10.5003276 L85.6328175,10.8761002 L85.3381529,10.9613206 L84.9306773,10.8412092 L84.6523487,10.6090145 L84.3709378,10.4586437 L83.967161,10.5806077 L84.0072304,10.3200061 L84.0469917,10.0590958 L84.14809,9.86982005 L82.2065707,9.81393276 L81.6076864,9.68795476 L80.5779013,9.25567733 L80.0693274,9.20256896 L79.5780142,9.48941592 L79.176395,8.57700177 L78.900224,8.13237355 L78.3565122,7.77420082 L78.3565122,7.77358328 L78.382095,7.41880702 L78.382095,7.41849825 L78.3105865,7.09737787 L77.7792038,7.03346257 L77.7804367,7.03284503 L77.7946152,6.98066297 L78.0035928,6.7203702 L78.0852728,6.64410411 L77.6941333,6.01390537 L77.1100439,5.58934718 L76.7648301,5.48837952 L76.4199245,5.3871031 L75.7199419,5.41767129 L74.9253338,5.55877899 L74.1310338,5.69957793 L73.9128094,5.82277699 L73.6939685,5.94597606 L72.4755488,7.0930551 L71.9996469,7.42282103 L71.7703263,7.57350059 L71.5302178,7.73066431 L71.1655857,8.06413547 L70.9310253,8.48097442 L70.7907822,9.46533189 L70.7060199,9.624657 L70.5667015,9.68795476 L70.1487462,9.79849428 L70.1487462,9.79942059 L70.2923798,10.057552 L71.0453774,10.5806077 L71.0453774,10.5809164 L70.461288,11.1200281 L70.3022431,11.3247424 L70.9923624,11.3238161 L70.9923624,11.3247424 L70.9689372,11.3781595 L70.9526012,11.4155206 L70.7950974,11.7733846 L69.84915,12.6969145 L69.2869446,12.9550458 L68.8363174,12.6271325 L68.4109647,12.1732412 L67.9264325,12.0522035 L67.714989,12.4313726 L67.6003287,13.1690232 L67.5466973,14.5149498 L67.4517635,14.6894046 L66.8374679,15.3257788 L66.8060288,15.4940582 L66.8670576,15.9013253 L66.8374679,16.0689872 L66.1106696,16.6148918 L66.1115943,16.6152006 L66.5384881,16.8900055 L67.0125406,17.3111673 L67.3543639,17.843486 L67.3821043,18.4505271 L67.0732612,18.8895974 L66.5264673,19.2128792 L65.8622389,19.4265477 L65.2035587,19.5411013 L64.1965824,19.5411013 L63.9197949,19.5985324 L63.2885469,19.9054494 L63.0394998,19.9672033 L62.894325,20.1144864 L62.7858293,20.2948078 L62.5975028,20.5158869 L62.5226038,20.7110292 L62.4850001,20.7545658 L62.4473965,20.7977935 L62.3919157,20.8095268 L62.335202,20.82126 L62.0500924,20.7774147 L61.992454,20.7872953 L61.9351239,20.7977935 L61.8072098,20.9182136 L61.6792958,21.0389426 L61.525799,21.2337762 L61.3732268,21.4279922 L61.1173987,21.8469926 L60.9250653,22.527212 L60.705608,23.0339029 L60.411868,23.5486218 L60.1036414,23.9219243 L59.7599688,24.1859223 L59.4159879,24.4496115 L58.9613537,24.7058902 L58.0052348,24.9615515 L57.8529708,25.3141663 L57.794716,25.7384158 L57.5456689,26.1049253 L57.0491159,26.2636328 L56.6243796,26.3383551 L56.536535,26.3537936 L56.3839629,26.3806565 L55.799257,26.5686972 L55.5483606,26.9395295 L55.289142,27.2013661 L54.8240281,27.3390773 L54.3570648,27.4780237 L54.3579895,27.4786412 L54.44306,27.7577689 L54.3632293,27.7849406 L54.2901796,27.7827792 L54.2488772,27.8136562 L54.2494937,27.813965 L54.2618228,27.9396342 L54.0963051,27.9396342 L53.8709914,27.8735575 L53.3294373,28.3305365 L52.9903881,28.4849213 L52.5194178,28.4543531 L52.2438632,28.3922904 L52.1153327,28.5371034 L52.0835854,29.1216042 L51.8194352,29.9216262 L51.710323,30.4366539 L51.8111131,30.6676136 L52.2084172,30.7892688 L52.3597564,31.0977296 L52.3597564,31.0986559 L52.3024263,31.5102458 L52.0835854,31.9409794 L51.8431687,32.1555742 L51.7753588,32.1296376 L51.4215147,31.7415142 L50.8796523,31.6964338 L50.2591922,31.7168126 L49.6710958,31.5170387 L49.2448185,31.0143618 L48.9859081,30.4684572 L48.6733663,30.0056116 L48.0902016,29.7555082 L47.7268025,29.775887 L47.4863857,29.8740757 L47.241962,29.9244051 L46.8711654,29.8018236 L46.6939351,29.6394108 L46.1175514,28.8968199 L44.2379856,27.5644791 L44.1627783,26.8589406 L44.450662,26.2867906 L44.457443,25.9919156 L44.457443,25.9909893 L42.4231474,26.2867906 L42.0557413,26.471126 L41.7589191,26.735124 L41.618676,26.9648486 L41.5160366,27.2223624 L41.3249361,27.5626265 L41.0145519,27.8794241 L40.6912222,28.043072 L40.3792969,28.161022 L40.0994271,28.3428873 L39.1833777,29.7403785 L37.4391234,31.5698383 L37.0193187,32.218872 L36.8118823,33.006852 L36.7335927,33.2084785 L36.6571525,33.4101051 L36.3480012,33.7522218 L35.9494642,33.9424239 L35.4636991,34.0594475 L34.0899332,34.1443592 L33.9043808,34.1190401 L33.6534843,34.0393775 L33.4959805,33.9297643 L33.0761759,33.5070587 L32.6884268,33.5607847 L32.330884,33.7445026 L31.9440596,33.8661578 L31.4730894,33.735857 L30.5927942,33.2634395 L29.5417415,33.3236496 L27.3746003,33.7275202 L26.2147436,33.5854862 L25.6587029,33.6333455 L25.0551952,33.9297643 L24.7478933,34.137875 L24.6230615,34.2450181 L24.5771357,34.4071221 L24.5157987,34.7779544 L24.4131592,36.6592875 L24.4643248,36.9013629 L24.5685054,37.0396917 L24.6902549,37.1295436 L24.7183035,37.1505399 L24.9084793,37.2916476 L25.0108106,37.4642499 L25.0293042,37.8900431 L25.0293042,37.8903519 L24.9463912,38.3167627 L24.8644029,38.742556 L24.8644029,38.7431735 L24.8779649,39.1961385 L25.7366842,42.3912863 L25.6926078,42.8065814 L25.3547914,43.5420705 L25.3119479,43.9227834 L25.4142792,44.1880165 L25.5730159,44.2692229 L25.7542531,44.3124507 L25.9259353,44.4631302 L26.0224103,44.6332623 L26.1182687,44.802468 L26.1463173,44.8833656 L26.1737495,44.964572 L26.3324862,45.7263066 L26.3324862,45.7275417 L26.2751561,46.1354263 L26.068336,46.4858798 L25.7049369,46.8162633 L25.5218503,46.9385361 L25.3230441,47.0716158 L25.0724559,47.1364574 L24.8224841,47.0595737 L23.2921391,46.3200706 L22.8344226,46.2811656 L22.407837,46.4022033 L22.0558422,46.6390296 L20.7782429,47.714474 L20.5631008,47.9753844 L20.3738497,48.3332483 L20.1815163,49.0826321 L20.1362069,49.1530316 L20.1362069,49.1545754 L20.1855232,49.3080339 L20.3858705,49.7366061 L20.4342621,49.8045354 L20.2049415,51.2051143 L20.2715184,51.3727762 L20.3461093,51.405197 L20.421933,51.437309 L20.5251889,51.5333364 L20.454605,51.795173 L20.3867952,51.8637198 L20.3205265,51.9316492 L20.1238779,52.027059 L19.9272293,52.1230863 L19.7758901,52.2391837 L19.1545052,53.1926642 L18.8536761,53.5125495 L18.1731118,53.93402 L17.6179957,54.1986355 L17.4737456,54.6333831 L17.1584298,54.6139306 L16.5484494,54.2449509 L16.1545358,54.2029583 L10.086787,54.58398 L9.90277573,54.7090316 L8.6171626,55.3379953 L8.34900546,55.7640973 L8.64767703,56.0037026 L9.34211155,56.0790423 L10.7254325,56.0444601 L10.7254325,56.2433078 L7.9902297,56.4072644 L6.85842164,56.1685855 L5.98922264,55.3173077 L5.95716707,55.1502634 L6.01264786,54.7473191 L5.98922264,54.5740993 L5.90168628,54.4984508 L5.56047944,54.297133 L5.44458624,54.2094424 L4.96282807,53.576156 L4.79299522,53.4822901 L4.1195201,52.9163154 L3.99253075,52.8378879 L3.86523316,52.7112924 L3.56255465,52.6217492 L3.20100485,52.5745074 L2.90325796,52.5732724 L2.99264367,52.4176525 L3.06815919,51.8451937 L2.90325796,51.8451937 L2.77102875,52.8666035 L2.20820698,53.4606762 L1.4401063,53.9278446 L0.691115676,54.5740993 L0.190247457,55.4970116 L0.196720216,56.2766549 L0.586010407,56.9364955 L1.2360603,57.4996912 L4.35562168,59.3340914 L4.94525916,59.894817 L5.33824807,60.1900007 L5.60948747,60.2279794 L5.59746663,59.9281641 L5.22543713,59.5916052 L4.52052291,59.1361701 L4.52052291,58.9712871 L5.05344669,59.1096159 L5.65633791,59.4285749 L6.10295825,59.7913792 L6.1707681,60.0618613 L6.1707681,60.2279794 L6.4071779,60.3811291 L6.53355081,60.4262094 L6.53355081,60.5914012 L6.21422805,60.430841 L6.10511584,60.3555012 L5.98922264,60.2279794 L6.33289529,60.9248723 L9.25673278,64.244763 L9.3381046,64.1138447 L9.54492465,63.8606536 L9.61982371,63.7158407 L9.76314908,64.1793038 L9.88459036,64.4553439 L10.1062053,64.6807457 L11.7669302,65.9454659 L12.0951915,66.0797807 L12.608697,66.5592999 L13.3022069,67.420767 L13.7355735,67.7931432 L13.4649505,66.8075506 L13.6298517,66.8075506 L14.2290442,67.9243702 L14.4549743,68.0969724 L14.8236133,68.2044243 L15.1651284,68.4742889 L15.21352,68.5273973 L15.825658,69.1887817 L15.246192,69.0782422 L14.6371362,68.8349318 L14.1174662,68.4946677 L13.8120136,68.0969724 L13.8795153,68.7129678 L15.7159293,69.5244143 L16.5290311,70.3821762 L18.0263959,71.2312926 L18.3663698,71.6438088 L23.810268,74.9164577 L24.4726469,75.4793447 L24.7377218,75.8819802 L25.6713402,78.3851753 L26.6743095,80.0960676 L27.1819587,80.7222524 L27.2947696,80.8599636 L27.9479018,81.362023 L28.2539708,81.6717189 L28.3849671,82.0419336 L28.4712706,82.4374674 L28.9243637,83.2767032 L29.3380037,83.8568813 L30.0392193,84.554083 L30.3064517,84.696117 L30.5937189,84.936031 L31.3054141,86.5153875 L31.6586418,86.9476649 L31.8179949,87.1446599 L35.0007428,89.5397856 L35.2997226,90.380874 L35.6538749,90.7865973 L36.0693644,91.0888827 L38.5169918,92.1476536 L39.5067074,93.0940324 L40.3327547,93.4586893 L40.3564881,93.5334116 L40.5827264,94.2513009 L40.6875235,94.4662045 L41.0721903,94.8077037 L42.230814,95.4592075 L43.1388496,96.4065126 L43.8483872,96.7699344 L44.7397785,97.8373509 L45.1515693,98.2186814 L46.0759408,98.4758864 L46.1634772,98.5898224 L46.5703363,98.8741992 L46.6948598,98.9300865 L46.929112,99.0940432 L49.7657214,102.237626 L50.2514865,102.948105 L50.5008418,103.908687 L50.7098195,104.381414 L51.0843148,104.585202 L51.6012108,104.664555 L52.9268934,105.210151 L53.5673882,104.181949 L54.0534616,103.136455 L54.802144,102.141908 L55.6886037,101.775398 L56.4493069,102.16383 L56.8253434,102.496993 L57.2007634,102.830773 L57.6298148,103.06976 L58.0597909,103.307513 L62.3046876,104.859389 L65.314212,105.958609 L68.6720326,107.186277 L73.4073178,108.915695 L74.0194558,108.983007 L74.6420735,108.761619 L79.3539335,105.687818 L80.1858371,105.490823 L80.657732,105.697698 L81.6690235,106.414661 L82.1341374,106.480429 L82.7065142,106.450479 L83.3195769,106.642842 L84.6452595,107.220241 L84.7882766,107.259146 L84.9266704,107.314416 L85.0542762,107.383272 L85.1680118,107.464478 L85.7721359,108.207686 L85.998066,108.397271 L86.1182744,108.463656 L86.2369416,108.530351 L86.5223594,108.639964 L86.8120924,108.670532 L87.0636054,108.56555 L88.4953179,107.6448 L88.6075124,107.577488 L88.7200151,107.510176 L88.9730691,107.636463 L89.0344062,107.837163 L89.0291664,108.105793 L89.0834142,108.436176 L89.201465,108.627922 L89.5543845,109.067919 L89.6283589,109.254724 L89.9106944,109.514399 L91.1451419,109.981877 L91.4265528,110.17177 L91.6651202,110.433915 L92.1715365,110.688959 L92.4023982,110.879779 L92.6326435,111.070907 L92.7309678,111.709751 L92.3614041,111.901188 L92.2516754,111.974058 L92.1330082,112.180007 L92.1832491,112.330069 L92.2917449,112.442461 L92.3521573,112.537562 L92.9374796,113.000717 L93.0780309,113.181038 L93.3754696,112.967987 L93.7897261,112.97725 L94.2104554,113.036843 L94.52947,112.982808 L95.0229407,113.460784 L95.3302427,113.575646 L95.6363117,113.347465 L95.8172407,113.347465 L96.1396457,113.659014 L96.8001753,113.240322 L97.2532684,113.347465 L97.4110804,113.190301 L97.568276,113.034373 L97.9255106,112.975707 L98.2204835,113.17301 L98.342233,113.62721 L99.9443948,114.878654 L100.124399,114.961404 L100.372522,115 L100.501668,114.974681 L100.63174,114.949362 L101.002845,114.694627 L101.181308,114.635652 L101.906874,114.778612 L102.006123,114.717785 L102.550759,114.090365 L104.315664,113.428363 L106.198004,112.982808 L107.132855,112.508538 L107.208371,111.7854 L107.208371,111.784782 L106.964872,110.837786 L106.940214,109.693177 L106.952543,109.562876 L106.920796,109.428561 L107.115595,109.293629 L107.270941,109.32605 L107.35447,109.324506 L107.438924,109.322345 L107.544338,109.333769 L107.650368,109.345811 L107.213303,109.120101 L106.648631,109.005547 L106.262732,109.060817 L106.362905,109.345811 L105.896867,109.432267 L105.687273,108.871541 L105.492782,108.352191 L105.009482,108.057316 L104.785402,107.8455 L104.152304,106.842616 L103.891853,106.179379 L103.095395,104.964679 L102.520244,103.576451 L101.705293,100.083032 L101.703136,97.3859298 L101.840297,96.9295683 L102.085337,96.5201398 L102.930494,95.4592075 L103.095395,95.4592075 L103.660375,95.5462805 L104.017609,94.604842 L104.27652,93.3592655 L104.548067,92.5326893 L104.758586,92.3344592 L104.98205,92.2297863 L105.242194,92.1908814 L105.562133,92.1843972 L105.804707,92.0973242 L106.069165,91.7110534 L106.279992,91.6230541 L106.30989,91.5606826 L106.677297,91.4402625 L107.053949,91.3652315 L107.105115,91.4402625 L107.319024,91.2463552 L107.419198,91.0830161 L107.453103,90.8730527 L107.468206,90.5312448 L107.403787,89.5935115 L106.171188,84.7328606 L105.917518,84.5145605 L105.472131,84.5306165 L105.237878,84.6352894 L105.090238,84.9045365 L104.910233,85.4226519 L104.947529,85.6298363 L105.058799,85.803056 L105.028901,85.9240937 L104.638069,85.9685565 L104.367446,85.9352094 L104.110077,85.8422698 L103.915278,85.7027059 L103.685957,85.1913834 L103.325641,84.7782497 L102.899671,84.3984631 L102.550759,84.1668859 L102.664186,83.9359263 L102.886726,83.6941597 L103.146561,83.5011787 L103.375881,83.4233688 L103.527529,83.3224011 L104.020075,82.6952901 L104.119941,82.6211854 L104.258334,82.5733261 L104.407824,82.4964424 L104.548067,82.3306332 L104.580123,82.1515468 L104.517553,81.9863551 L104.428167,81.8335141 L104.383166,81.6871573 L104.437414,81.4913974 L104.673515,81.000145 L104.728996,80.7614661 L104.709578,80.4103951 L104.648241,80.0790853 L104.539437,79.795326 L104.383166,79.5881416 L103.730959,79.3244524 L103.405779,79.1305451 L103.549105,79.0413107 L104.646083,79.3670626 L105.123218,79.353168 L105.273941,78.8424631 L105.317709,78.4182136 L105.719945,77.8389619 L105.818577,77.3884671 L105.741521,77.0367785 L105.557201,76.7567245 L105.107807,76.2975841 L104.910233,76.2975841 L104.567177,76.659462 L104.142133,76.4130639 L104.101755,76.0181476 L104.910233,75.9347798 L105.408636,76.1672833 L105.877757,76.6143817 L106.227902,77.1340409 L106.362905,77.5873147 L106.154236,78.1996048 L105.764021,78.463294 L105.538091,78.7482883 L105.818577,79.4217148 L106.481573,80.2356315 L106.671132,80.6913754 L106.56017,81.2406765 L106.759285,81.1659543 L106.940214,81.0581937 L106.738634,80.4857348 L106.543834,77.0744484 L107.134397,73.9138828 L108.377474,71.466575 L108.264664,71.2643309 L107.740987,71.1886824 L107.506426,71.3304076 L107.34245,71.6734506 L106.920796,73.0403736 L106.798121,73.2836841 L106.742641,73.1157134 L106.773155,72.8118841 L106.909391,72.2906811 L106.940214,72.0232866 L106.799046,71.6138581 L105.964677,71.7907831 L105.471206,71.5527217 L105.273941,71.068571 L105.360861,70.5578661 L105.549187,70.0215333 L105.653676,69.452471 L105.471206,68.2618554 L105.260379,68.0126783 L105.081916,67.9586437 L104.86739,67.9632752 L104.548067,67.8990511 L104.322754,67.884539 L104.21734,67.9428964 L104.185593,67.9120195 L104.18436,66.5268791 L104.383166,66.1761168 L104.86739,66.0189531 L106.016767,65.8979154 L106.86963,65.5431391 L108.284082,64.3750638 L109.118451,63.8973972 L108.842897,63.4783969 L108.739949,63.3533452 L108.864781,63.1504836 L108.923344,62.967692 L108.937214,62.5175059 L108.89622,62.2411571 L108.795122,62.1364842 L108.669982,62.0636146 L108.558095,61.8811318 L108.51895,61.6949437 L108.471792,61.2425962 L108.476107,61.1536706 L108.415078,61.0984008 L107.831913,60.7893225 L107.62386,60.3193752 L107.607833,59.776867 L107.843934,59.2853058 L108.392886,58.9712871 L109.07345,58.9197226 L109.78607,59.0892371 L110.300192,59.5141041 L110.390194,60.2279794 L110.30574,60.4123148 L110.183066,60.5444682 L110.073645,60.6343201 L110.026179,60.6911337 L109.983643,62.179712 L109.892716,62.5366496 L109.664012,62.7901494 L109.664012,62.9886883 L110.014774,63.7979734 L109.791926,64.9990871 L109.136945,65.8306036 L108.195313,65.5351111 L108.029178,65.5351111 L107.975239,65.6292859 L107.959519,65.6447243 L107.92808,65.646577 L107.831913,65.6999941 L107.954896,66.3641575 L107.907429,68.1068531 L108.49121,68.6184843 L108.661659,68.9859201 L108.761217,69.4052292 L108.739949,69.7167777 L108.579979,69.8893799 L108.032261,70.2716367 L107.831913,70.46153 L108.359906,70.7443629 L108.98129,70.6486444 L109.645827,70.4115093 L110.298959,70.2790472 L111.153363,70.2472439 L111.69276,70.0740242 L111.970472,69.6392766 L112.040131,68.8250511 L111.862901,68.160579 L111.118534,67.1376253 L110.862706,66.2919054 L110.476806,65.5267744 L110.390194,65.269878 L110.390194,63.7158407 L111.283435,56.6897886 L109.812578,47.9577845 L109.664012,47.6304887 L109.861586,47.4646794 L109.672334,47.0941559 L109.623326,46.453459 L109.915833,43.0245727 L110.390194,41.264586 L110.945618,39.9396557 L110.951167,39.4298771 L111.06182,38.7953556 L111.022983,37.4889514 L111.652074,34.4494235 L112.675694,31.0900104 L113.315573,28.6173835 L113.683904,27.7695022 L114.218368,27.0303077 L115.484563,26.1663704 L115.671349,25.8403097 L115.807277,25.4000043 L116.760313,24.2702164 L118.971223,20.7977935 L119.692165,19.1180869 L119.821312,18.205364 L119.68076,17.1604877 L118.393914,13.5071259 L118.172916,12.2356127 L117.921711,11.7400375 L117.865922,11.5887404 L116.825657,6.92261429 L116.589247,6.6919634 L116.395681,6.88123916 L116.414175,7.48920649 L116.194409,7.13072499 L115.914848,6.86827084 L115.607546,6.78058027 L115.307641,6.94330185 L115.532647,7.03222749 L116.022727,7.32586737 L116.215369,7.48920649 L115.809126,7.98200276 L115.405657,7.85540723 L115.021607,7.49661696 L114.672078,7.29066764 L114.49269,7.04797474 L114.20419,5.9536953 L113.838633,5.66993604 L113.75233,5.78479833 L113.492187,6.05064895 L113.771132,5.41828883 L114.947016,3.94638417 L115.472234,3.47149654 L115.784468,3.27851554 L116.215369,3.12227813 L116.596337,3.21027746 L116.760313,3.74475763 L116.833671,4.28047287 L117.119397,4.97026415 L117.13974,5.47201474 L116.936311,5.21789736 L116.671236,5.1240314 L116.368249,5.16231883 L116.050776,5.306823 L116.050776,5.47201474 L116.286261,5.61621014 L116.373181,5.59490503 L116.579076,5.47201474 L116.576918,5.64863094 L116.55411,5.78078433 L116.502944,5.90274832 L116.414175,6.05064895 L116.414175,5.85241887 L116.187628,6.1120941 L116.115195,6.2380721 L116.050776,6.39832352 L116.964976,6.04231217 L117.285223,5.80363328 L117.501906,5.47201474 L117.567867,5.20956058 L117.615642,4.63895437 L117.684377,4.38113176 L117.81938,4.19123846 L118.160587,3.86857424 L118.229013,3.74475763 L118.323022,3.37701304 L118.563747,2.92497436 L118.888001,2.54302637 L119.228284,2.3803048 L119.425857,2.07894567 L119.679836,1.5160587 L120.000083,1.20265757 L120.391223,1.6531524 L120.631331,1.4033578 L121.119254,1.18413139 L121.314053,0.909326453 L120.941715,0.959964666 L120.043851,0.909326453 Z M59.2113254,94.8422859 L59.134577,94.5813756 L59.0390268,94.4232855 L58.7311084,94.3692508 L58.3257904,94.2991601 L57.9879741,94.1713295 L57.6775899,94.1006213 L57.3616576,94.2040591 L56.9856212,93.8770721 L56.8980848,93.4870961 L56.9079481,93.0381451 L56.8321243,92.5345419 L56.6715383,92.2770281 L56.4021482,92.062742 L56.0655648,91.9049607 L55.9089857,91.8240631 L55.7101795,91.6249067 L55.3880827,91.7687933 L54.2596652,91.7783652 L53.7144123,92.0062371 L53.3695068,92.4564232 L52.9302839,93.4932715 L52.6242149,93.8230374 L53.6549246,94.4294609 L54.0938393,94.5680985 L54.6162834,94.6066947 L55.4494198,94.4084646 L55.9089857,94.3692508 L56.5417749,94.7379217 L57.0481912,96.219707 L57.63413,96.5513256 L57.8905745,96.5818938 L58.1639715,96.7183699 L58.3689422,96.7495556 L58.4648006,96.692742 L58.8041581,96.4426387 L58.9203595,96.3852075 L59.2766695,96.2743592 L59.5664025,95.9933789 L59.6687337,95.612666 L59.4662288,95.2038551 L59.2113254,94.8422859 L59.2113254,94.8422859 Z" id="path-1"></path>
</svg>