
<svg width="122px" height="116px" viewBox="0 0 122 116" version="1.1" xmlns="http://www.w3.org/2000/svg" xmlns:xlink="http://www.w3.org/1999/xlink">
    <g id="Page-1" stroke="none" stroke-width="1" fill="none" fill-rule="evenodd">
        <g id="PL-EPS-01-0001" transform="translate(-231.000000, -147.000000)" fill="#7F807C">
            <polyline id="Fill-3" points="297.750071 155.918039 298.007947 156.117563 298.601815 156.315676 302.04926 156.49873 306.747968 156.74343 313.763325 157.109068 318.110513 157.337768 323.372972 157.612585 330.126688 157.961753 332.965207 158.115161 335.252209 158.23657 336.090777 157.961753 336.319948 157.778699 336.640881 157.18389 336.944874 157.047893 337.204162 157.077069 337.934967 157.458707 338.072376 157.474706 338.347192 157.414002 338.469542 157.443178 338.590951 157.578233 338.669067 157.74717 338.729301 157.913754 338.806475 158.052104 338.942942 158.142925 339.355638 158.188571 339.43093 158.295863 339.385284 158.493505 339.309522 158.723617 339.309522 158.935376 339.523163 159.240781 339.79798 159.240781 340.086914 159.11796 340.331614 159.057726 340.544785 159.164077 341.293002 159.804061 341.748991 160.094877 342.725438 160.460515 343.198367 160.857682 343.320717 161.042148 343.533888 161.46802 343.641651 161.636016 343.76353 161.71272 344.022347 161.788483 344.128227 161.850599 344.327281 162.140474 344.494806 162.551758 344.632685 163.009629 344.722565 163.45103 344.90609 164.411948 344.90609 164.869819 344.722565 165.190752 344.571039 165.312631 344.525864 165.436393 344.463748 165.526273 344.463748 165.740386 344.508923 165.922969 344.614803 166.077319 344.738565 166.183198 344.815739 166.273549 344.845856 166.381311 344.845856 166.487191 344.799269 166.609541 344.815739 167.219879 344.936678 167.724337 345.104203 168.195855 345.228435 168.715842 345.335256 169.798639 345.456194 170.22404 345.747011 170.650853 345.776657 171.901646 346.066532 173.321376 347.088625 176.493533 347.669316 177.682681 347.912134 178.323606 348.400122 180.229442 348.613293 180.809663 348.827876 181.099538 348.948814 181.391296 349.041047 181.68023 349.192573 182.000692 349.405744 182.242569 349.618445 182.413388 349.742207 182.656206 349.71209 183.143252 349.605269 183.434539 349.452802 183.678298 349.331393 183.953115 349.315864 184.34887 349.421744 184.684862 349.786441 185.157791 349.92432 185.448137 349.939378 185.599192 349.910203 185.84201 349.910203 185.966242 350.017494 186.530934 350.017494 186.700812 349.986907 186.82175 349.85091 187.096567 349.820322 187.248093 349.835381 187.462205 349.881497 187.583143 349.926202 187.690435 349.95726 187.842431 350.07914 190.878121 349.911144 191.733159 349.423626 192.327498 347.806254 193.425824 345.778069 194.006045 344.710801 194.6305 343.644003 195.529772 342.16404 197.802657 341.675581 198.397937 341.445469 198.748516 340.881248 199.905664 340.911835 199.905664 341.09489 200.059543 341.230886 200.254362 341.276062 200.515061 341.186652 200.8647 341.460528 201.049636 342.331094 201.276454 342.513678 201.200691 342.681674 201.369629 343.428009 201.643504 343.688238 201.674092 343.688238 201.795971 343.595534 201.979966 343.626122 202.009613 343.793647 201.948908 343.946114 202.009613 344.053405 202.116434 344.176226 202.131963 344.343751 201.932909 344.389397 202.025612 344.512217 202.131963 344.588921 202.222313 344.787034 202.025612 344.831739 202.176668 344.801622 202.421838 344.755976 202.497601 345.091497 203.168643 345.32255 203.245818 345.899948 203.230759 346.129589 203.367697 346.206764 203.519223 346.267468 203.686748 346.345584 203.809098 346.451464 203.855215 346.60299 203.962977 346.648636 204.190265 346.666517 204.420848 346.754986 204.664606 346.923452 205.410941 347.060861 205.746462 346.876865 205.882929 346.72534 206.1281 346.495228 206.676322 346.418524 207.043372 346.418524 207.681944 346.343231 207.896527 346.387465 207.911586 346.403465 207.911586 346.418524 207.926173 346.418524 208.018406 346.281115 208.095581 346.236881 208.521923 346.099943 208.689449 346.282527 209.04144 346.51358 209.344021 346.375701 209.801892 346.14653 210.030592 345.887713 210.183059 345.6896 210.426347 345.645366 210.562815 345.59925 210.776927 345.522075 211.233386 345.56725 211.325619 345.645366 211.463498 345.674071 211.584437 345.56725 211.645612 345.522075 211.707728 345.56725 211.828666 345.645366 211.966545 345.706541 212.043719 345.553133 212.24042 345.475017 212.286537 345.369608 212.303478 345.369608 212.454533 345.506546 212.607 345.522075 212.790054 345.445371 213.30863 345.491487 213.582505 345.597367 213.857322 345.872655 214.314722 345.705129 214.314722 345.857126 214.619186 346.04018 214.697301 346.207705 214.803181 346.253822 215.062939 346.26888 215.183878 346.346996 215.459636 346.52958 215.595162 346.743221 215.672336 346.910276 215.794686 346.727692 216.190912 346.743221 216.313732 347.231209 217.04595 347.322972 217.273709 347.185564 217.335825 347.093801 217.471821 347.078272 217.670405 347.156858 217.929222 346.925805 218.019102 346.712163 218.249214 346.544638 218.53956 346.484404 218.799789 346.561579 219.210602 346.744633 219.317423 346.973804 219.317423 347.171917 219.454832 347.842959 220.933854 348.118247 221.269375 348.728584 221.667013 349.308335 222.245351 349.443861 222.474522 349.245278 222.581343 349.201043 222.765809 349.384098 223.146976 349.705031 223.635435 349.811852 223.894252 349.946437 224.702703 349.946437 224.824111 349.902673 224.977519 349.993495 225.055635 350.145961 225.115869 350.297487 225.221749 350.434896 225.419862 350.464071 225.571387 350.478659 225.740795 350.542187 225.984083 350.725241 226.289017 351.549221 227.051351 352.554843 227.614631 352.708251 227.85839 352.554843 228.194852 352.189676 228.271086 351.792039 228.271086 351.549221 228.379318 351.228288 228.194852 350.892767 228.239086 350.61795 228.453669 350.465012 228.790602 350.481012 229.154829 350.665949 229.399529 350.954412 229.535996 351.291345 229.581171 351.291345 229.703521 351.139819 230.039042 351.307815 230.3308 351.643336 230.52703 351.96427 230.603264 351.886625 231.047959 351.977916 231.444655 352.281438 232.190989 352.007563 232.679448 352.128501 233.57872 352.205676 233.837067 352.267792 233.899183 352.251321 233.942946 352.098855 234.157529 351.870154 234.401759 351.091821 234.813513 351.061704 235.041743 351.076762 235.408793 351.061704 235.650669 351.00147 235.849253 350.726182 236.473237 350.085257 236.748054 347.889546 236.778641 347.479674 236.915109 347.265091 237.02193 347.096154 237.189926 346.961569 237.464742 346.792161 237.997906 346.625577 238.241664 345.66466 239.278345 345.31408 239.568691 344.657626 240.073619 344.107992 240.499491 341.333472 243.504594 340.968775 244.070227 340.52408 244.419866 340.036563 244.9535 338.724595 246.889452 338.221078 247.408969 338.159432 247.560965 338.06814 247.941191 338.007907 248.07907 337.900615 248.18495 337.687914 248.262124 337.580623 248.338828 337.456391 248.476237 336.710056 249.83385 336.513826 250.047963 336.375947 250.108667 336.116188 250.169372 335.981603 250.292192 335.8889 250.459247 335.675728 251.054997 334.760457 252.290731 334.455523 253.006949 334.685635 253.678462 334.761398 253.953279 334.839514 254.7462 334.883748 254.959372 334.914335 255.067134 335.066332 255.325951 335.32609 255.599356 335.401853 255.736764 335.447969 256.028051 335.615495 257.734833 335.569849 258.00965 335.373148 258.573871 335.20374 259.230796 335.007039 259.627963 334.945393 259.856193 335.022568 259.947955 335.082802 259.901368 335.250798 259.704667 335.435264 259.840663 335.418794 259.840663 335.374559 259.856193 335.770314 260.13148 336.119482 260.603468 336.350535 260.771935 336.899698 261.076868 337.051695 261.258511 337.051695 261.41239 336.944874 261.778498 336.928404 262.020845 336.974991 262.189782 337.173103 262.525774 337.218749 262.616125 337.081341 262.906 336.838994 262.800591 336.564177 262.55542 336.350535 262.449541 336.213127 262.403895 335.984427 262.083903 335.862547 261.961082 335.725139 261.946024 335.450322 262.037786 335.008451 262.006728 334.748692 262.037786 334.490346 262.006728 334.185883 261.809086 333.728482 261.305569 333.486135 261.228865 333.225906 261.472153 332.799564 261.273569 331.853705 261.228865 331.410892 261.092868 330.802436 260.46653 330.542207 260.360651 329.869753 260.391238 329.305532 260.221831 329.289532 260.070775 329.259415 259.947955 329.289532 259.825605 329.289532 259.703726 329.153536 259.550788 329.045774 259.534789 328.755898 259.563964 328.632137 259.563964 328.497081 259.50326 328.098503 259.243031 327.246288 259.076447 326.895709 258.833629 326.819946 258.237879 326.667479 257.581895 326.316429 257.018145 325.873616 256.606861 325.218103 256.286868 324.77529 255.874173 324.545649 255.753234 324.303302 255.797469 324.089189 255.980994 323.921194 256.179106 323.800726 256.271339 323.614378 256.11699 323.204976 255.493006 323.006863 255.279834 322.884513 255.250188 322.700518 255.294893 322.608755 255.279834 322.486876 255.201719 322.257705 254.989959 322.136767 254.898197 321.906184 254.837492 321.037029 254.926902 320.640333 255.095839 320.455396 255.035605 319.998466 255.125956 319.800824 255.125956 318.626265 254.790435 317.939693 254.424796 317.771697 254.379621 317.558997 254.530676 317.176889 255.095839 316.964658 255.294893 316.7049 255.339598 316.520434 255.216777 316.353379 255.035605 316.140208 254.881256 315.956213 254.866197 315.467754 254.957489 315.283288 255.049252 315.041412 255.322657 315.194349 255.490653 315.483754 255.658649 315.63622 255.933465 315.52987 256.102402 315.300699 256.148048 315.041412 256.148048 314.856946 256.192282 314.598599 256.435571 314.200491 257.015792 313.941203 257.24261 313.652269 257.351783 313.423098 257.306137 313.224515 257.16967 313.026873 256.955558 312.797231 256.787091 312.614177 256.758386 312.401006 256.773445 312.126189 256.727799 311.928547 256.591802 310.84622 255.310422 310.662225 255.279834 310.205295 255.35795 309.945537 255.311834 309.839657 255.311834 309.716836 255.389008 309.518724 255.630414 309.382727 255.768293 309.09144 255.874173 308.817564 255.813468 307.794531 255.294893 307.611947 255.340539 307.611947 255.661001 306.987492 255.69253 306.484445 255.506652 306.347037 255.506652 306.224687 255.599356 306.179041 255.706177 306.150336 255.873231 306.086808 256.13299 305.997398 256.392748 305.935282 256.46757 305.004952 256.558862 304.822368 256.666153 304.562139 256.986616 304.439319 257.078378 304.165914 257.048261 304.134856 257.018145 304.058622 257.109436 303.82851 257.627541 303.751806 257.840242 303.661456 258.039296 303.508989 258.221409 303.432285 258.877864 303.310405 259.333852 303.065706 259.518318 302.669951 259.320206 302.044554 258.725867 301.709033 258.55693 301.342924 258.603047 301.128341 258.771513 300.718469 259.197385 300.442711 259.288677 299.87849 259.243031 299.573556 259.137151 299.420619 258.922568 299.465794 258.681163 299.924606 257.931534 299.985311 257.886359 300.061544 257.87083 300.13966 257.825184 300.168365 257.719774 300.153307 257.64307 300.061544 257.535779 300.046486 257.489662 299.87849 257.369195 299.833314 257.307079 299.833314 257.230375 299.924606 257.094378 299.939194 257.018145 299.863902 256.11699 299.801315 255.812527 299.695435 255.461947 299.589085 255.371597 299.17733 255.538651 298.917102 255.55371 298.658755 255.525005 297.956184 255.281246 297.987713 255.053487 297.972184 254.762671 297.987713 254.670437 298.048417 254.548558 297.560429 254.548558 297.301612 254.487383 297.087029 254.318917 297.026795 254.18292 296.828682 253.58717 296.599041 252.642723 296.446574 252.260614 296.15811 252.078501 296.065877 251.986739 295.867765 251.621101 295.731297 251.559455 295.654123 251.589101 295.609418 251.680393 294.556738 252.839424 294.464976 252.915186 294.298862 252.977303 294.176042 252.99189 293.809933 252.99189 293.580762 253.039889 293.382179 253.129769 293.199595 253.297295 293.03207 253.572112 292.833486 254.18292 292.849015 254.197979 292.894661 254.258212 292.90972 254.350445 292.880544 254.472795 292.81984 254.518441 292.636785 254.518441 292.546434 254.884079 292.516318 255.113721 292.424085 255.265246 292.057976 255.418654 291.753983 255.479829 291.633045 255.4643 291.509283 255.404067 291.266466 255.234659 291.160116 255.189484 290.899887 255.250188 290.427428 255.525005 290.122965 255.554651 289.879676 255.509476 289.818972 255.294893 289.865089 254.684555 289.834501 254.410679 289.772855 254.151391 289.757797 253.876104 289.865089 253.572112 289.514038 253.357529 288.309362 253.251649 288.355008 252.948127 288.32442 252.565548 288.156425 251.773567 288.09525 251.60463 287.957841 251.285579 287.896666 251.102525 287.821845 250.4616 287.774787 250.309603 287.592203 250.171724 287.407737 250.201841 287.225153 250.292192 287.040687 250.309603 286.88775 250.216429 286.645873 249.926554 286.492936 249.791028 286.325411 249.744911 285.958361 249.716206 285.790365 249.608915 285.714602 249.471036 285.591311 248.921402 285.302377 248.327534 285.087794 247.762372 285.087794 247.257914 285.423786 246.876746 285.103323 246.710633 285.058148 246.465933 285.087794 246.175117 285.012031 245.824537 284.828036 245.719128 284.355106 246.02312 284.080289 246.02312 283.181958 245.519603 282.709029 245.350666 282.221041 245.413724 282.250217 245.413724 282.266216 245.428782 282.281275 245.443841 282.296804 245.474428 281.961283 245.764303 281.793287 245.79442 281.549999 245.595366 281.473295 245.474428 281.39612 245.184082 281.351886 245.078202 281.214477 244.96997 280.924132 244.909265 280.756606 244.879148 280.374027 244.543627 280.191444 244.437748 279.41311 244.28481 279.260643 244.101756 279.337818 243.751176 278.636188 243.278247 278.269138 243.186014 278.332195 243.61518 278.3929 243.643885 278.48325 243.61518 278.589601 243.61518 278.681834 243.751176 278.696892 243.933289 278.636188 244.011405 278.239021 244.133284 277.750562 244.148813 277.537391 244.210459 277.186812 244.530451 276.743999 244.666448 276.302598 244.574685 275.509206 243.796352 275.373209 243.61518 275.280976 243.385538 275.204272 243.155897 275.127097 242.942725 274.991101 242.7752 274.883809 242.666026 274.854634 242.560617 274.883809 242.454267 274.991101 242.363916 274.991101 242.300388 274.823105 242.270742 274.487584 242.102746 274.335117 242.058512 274.19865 242.087688 274.091829 242.147921 273.969479 242.164862 273.785013 242.087688 273.191145 241.339471 273.160557 241.203474 273.251379 241.019479 273.388787 240.958304 273.967596 240.943716 274.287118 240.819954 274.806635 240.51502 275.050393 240.30232 275.156273 240.012915 274.973219 239.662335 274.850869 239.538103 274.820281 239.356931 274.850869 239.172465 274.986866 238.821415 275.016982 238.761652 275.016982 238.65389 274.986866 238.609655 274.757695 238.305192 274.681932 238.241664 274.483819 238.165902 274.406645 238.211547 274.376528 238.349897 274.316294 238.501893 273.948773 239.003528 273.735602 239.172465 273.460785 239.248228 272.378459 239.051527 271.79965 239.112231 271.44907 239.538103 271.387425 239.58422 271.32672 239.60116 271.265075 239.58422 271.2039 239.538103 271.097079 239.189406 270.838732 238.975764 270.563445 238.990822 270.426978 239.341402 270.258511 239.218111 270.168631 239.022351 270.152631 238.779063 270.168631 238.533893 270.106985 238.488717 270.06181 238.428483 270.016164 238.36825 269.986047 238.289663 270.215689 238.198842 269.95546 238.092962 269.390297 238.108491 269.100422 238.032728 268.674079 237.757441 268.551729 237.633679 268.474555 237.466154 268.397851 237.222395 268.352676 237.008283 268.382792 236.962166 268.245384 236.917462 267.879275 236.994636 267.71175 236.994636 267.558813 236.917462 267.268937 236.675115 267.132941 236.59794 265.881207 236.245949 265.60639 236.277948 265.087815 235.957485 264.814409 235.925957 264.478418 236.12501 264.478418 236.385239 264.874643 236.962166 265.012052 237.312746 265.103344 237.711795 265.225223 238.077433 265.453923 238.305192 265.743798 238.473659 265.974852 238.716947 266.09579 239.05388 266.111319 239.51081 266.278844 239.724922 266.295314 239.967269 266.21814 240.136206 266.065673 240.075502 265.943323 239.876918 265.882619 239.770568 265.806856 239.724922 265.63933 239.724922 265.607802 239.770568 265.607802 239.998327 265.577214 240.075502 265.470393 240.075502 265.241693 239.998327 265.134402 239.998327 264.999817 240.105619 264.800292 240.381377 264.679354 240.487256 264.404537 240.562549 264.161249 240.54702 263.91749 240.578078 263.642674 240.806778 263.428091 241.14277 263.291623 241.402528 263.140568 241.61617 262.865281 241.813812 262.484584 242.330976 261.996596 242.362504 261.492138 242.087688 261.080854 241.706991 260.867683 241.430292 260.760391 241.186533 260.622983 240.546078 260.487927 240.19644 260.120878 239.815743 259.969352 239.540927 259.800415 239.297168 259.496422 238.733888 259.328897 238.488717 259.05361 238.305192 258.519976 238.108491 258.306805 237.817675 258.276688 237.648738 258.291746 237.481212 258.276688 237.298158 258.199513 237.114163 258.092692 237.084987 257.451767 237.084987 257.316711 237.129221 257.224949 237.205925 257.132716 237.222395 256.982602 237.100045 256.919074 236.993224 256.768019 236.504766 256.370852 236.428062 256.263561 236.092541 256.355794 235.788078 256.59767 235.849253 256.582612 235.788078 256.521907 235.573495 256.59767 235.573495 256.704962 235.496791 256.767078 235.467615 256.949661 235.315619 257.164244 235.191857 257.346828 235.041743 257.437649 234.798455 257.622115 234.736339 258.019282 234.842218 258.232453 234.798455 258.339745 234.644106 258.582092 234.401759 258.689383 234.202705 258.660208 234.217763 258.660208 234.112354 258.675266 233.960828 258.690325 233.868125 258.751029 233.762245 258.781146 233.718481 258.781146 233.655424 258.73597 233.503898 259.116667 233.35002 259.010787 232.983911 257.974107 231.885585 257.606586 231.672414 257.211302 231.581593 256.768019 231.565593 256.615552 231.595239 256.524731 231.793823 256.432498 232.038523 256.281442 232.219695 256.08333 232.265341 255.898864 232.174519 255.518167 231.884644 255.001003 231.838998 254.252786 232.570274 253.734681 232.661566 253.705506 232.601332 253.705506 232.478512 253.734681 232.418278 253.902207 232.280399 253.932794 232.054052 253.87209 231.793823 253.764798 231.534064 253.612332 231.22866 253.444336 231.077134 253.246223 231.047018 252.530005 231.321834 252.194484 231.321834 252.115898 231.291247 251.506971 230.253155 251.475443 230.131746 251.446267 229.994808 251.141333 229.964691 250.134299 230.20845 250.013832 230.162804 249.921599 230.072924 249.753603 229.828694 249.617606 229.737873 247.193195 228.882365 246.688737 228.92754 246.581445 229.066831 246.459095 229.263532 246.322628 229.40094 246.155103 229.339295 246.077928 229.186357 246.093457 229.003303 246.123574 228.805661 246.123574 228.623077 245.971107 228.255086 245.786641 228.104502 245.57347 227.99721 245.331123 227.799097 245.209244 227.585455 245.071365 227.265463 244.964544 226.92853 244.935368 226.654655 245.026189 226.304075 245.132069 226.107374 245.148539 225.923379 244.950427 225.602916 244.629964 225.45139 243.883159 225.497036 243.776338 225.205749 243.715633 224.914462 243.577754 224.838699 243.426699 224.945991 243.32082 225.203867 243.274232 225.403862 243.136824 225.433508 242.97024 225.340805 242.817773 225.203867 242.710482 225.019871 242.099673 224.883875 241.871443 224.670233 241.840856 224.82317 241.779681 224.914462 241.596627 225.037753 241.534981 225.053282 241.457806 225.082929 241.397573 225.129045 241.336868 225.189279 241.397573 225.403862 241.595215 225.554917 241.778269 225.830204 241.793328 226.379838 241.764152 226.486188 241.642273 226.622656 241.611685 226.682889 241.596627 226.791122 241.596627 226.866414 241.611685 226.927119 241.626743 227.598632 241.597568 227.767569 240.210308 227.661689 239.767495 227.783568 239.509148 227.767569 239.509148 227.41793 239.676674 227.143113 240.103016 226.654655 240.713354 225.190691 241.262047 223.817077 241.292634 223.602494 241.292634 223.236386 241.309104 223.055214 241.369338 222.916394 241.460159 222.826984 241.537334 222.704164 241.553804 222.460875 241.568863 221.972887 241.661096 221.439253 241.828621 220.920678 242.041792 220.509394 241.996617 220.464219 241.949559 220.403514 242.011675 219.838822 241.843679 219.457184 241.568863 219.137192 241.340633 218.740026 241.310045 218.603088 241.263458 218.252038 241.263458 218.236038 241.141108 216.894424 241.2484 216.650665 241.12605 216.37726 240.89782 216.148089 240.713354 215.995622 240.438537 215.857743 239.873375 215.69163 239.598558 215.537751 239.341153 215.354697 238.54776 215.080821 238.272943 214.790475 238.212239 214.454954 238.319531 214.074258 238.561878 213.708149 238.699286 213.310041 238.682816 212.792407 238.560466 212.303478 238.407999 211.967957 237.813661 211.479498 237.538844 211.159035 237.416494 210.655989 237.370848 210.137413 237.203323 209.907772 236.990151 209.756717 236.790627 209.452254 236.761451 209.04144 236.913447 208.705448 237.614607 208.001936 237.845189 207.699826 238.027773 207.349246 238.135535 206.966197 238.18071 205.761991 238.241415 205.577525 238.501173 205.106007 238.546349 204.92013 238.561878 204.739428 238.591994 204.568138 238.682816 204.402495 238.912457 204.126737 238.119065 203.531928 237.998127 203.256641 238.073419 202.739948 238.209886 202.375251 238.255062 202.099493 238.072478 201.823735 238.072478 201.703267 238.301649 201.382334 238.301649 200.985167 238.117653 200.635999 237.782132 200.482121 237.431552 200.406358 237.020268 200.191775 236.745452 199.886371 236.823567 199.522144 236.563809 198.942394 236.272522 198.07418 236.196759 197.280788 236.822156 196.731625 237.11109 196.258695 237.310614 195.787177 237.248498 195.572594 237.019327 195.360835 237.110148 194.901081 237.445199 194.184864 237.064503 193.880401 236.347814 193.027245 235.615126 192.73737 235.265958 192.262558 235.037258 192.156678 234.913967 192.036211 234.504095 191.210819 234.319629 190.996707 233.038248 190.05273 232.702727 189.868734 232.306502 189.397217 232.062272 189.290396 231.786985 189.272984 231.528638 189.19628 231.315467 189.030167 231.179 188.754879 231.499463 188.449475 231.620401 188.206187 231.682517 187.82549 231.653341 187.565732 231.500874 186.864102 231.422288 186.66599 231.422288 186.54364 232.017568 186.102239 232.749785 185.721542 233.466944 185.154968 233.833052 184.774271 234.000578 184.408633 234.031165 184.239226 234.396803 183.095724 234.366686 182.804908 234.289512 182.515033 234.244337 182.19457 234.273042 181.919753 234.365275 181.676465 234.487625 181.49294 234.609975 181.418118 234.700796 181.280239 235.021259 180.655784 234.853263 180.501906 234.808087 180.396026 234.625033 180.242147 234.546917 180.121209 234.517742 179.921214 234.517742 179.556988 234.502683 179.390874 234.16575 177.818207 234.043871 176.767409 233.783642 176.339655 233.662704 175.911901 233.372358 175.45403 233.280595 175.028628 233.265537 174.569816 233.295654 173.823952 233.280595 173.625369 233.020837 172.832917 232.837783 172.437162 232.881546 172.116229 232.866959 171.550125 232.988838 171.535067 233.20248 171.444246 233.371417 171.291308 233.386475 171.123783 233.173304 170.971316 233.295654 170.894612 233.340829 170.833437 233.295654 170.756733 233.173304 170.68097 233.234008 170.527092 233.356358 170.634854 233.523884 170.726616 233.67635 170.832496 233.813759 171.228251 233.981755 171.367071 234.317276 171.518597 234.560564 171.778826 234.697031 171.884235 235.230665 171.975527 235.886649 172.205168 236.114408 172.374105 236.300286 172.646098 236.696041 173.410315 236.83392 173.591958 236.894154 173.531724 236.909212 173.211261 236.971328 173.029618 237.077208 172.906327 237.244733 172.76986 237.244733 172.615982 237.261204 172.49269 237.140265 172.463044 236.819803 172.434339 236.682394 172.357164 236.301227 171.441893 236.377461 170.984022 236.682394 170.099808 236.819803 170.222158 236.941211 170.192041 237.077208 170.116278 237.261204 170.116278 237.170382 169.597703 237.216028 169.185007 237.292732 168.819369 237.338378 168.438672 237.261204 168.438672 237.231087 168.683372 237.141677 168.849486 236.84992 169.139832 236.927094 169.27724 236.820744 169.230653 236.728981 169.169949 236.668748 169.094186 236.606631 168.985953 236.668748 168.925249 236.774157 168.774194 236.851331 168.697019 236.683335 168.347851 236.39346 168.178914 235.051376 168.041976 234.86738 167.828334 235.019847 167.431638 234.974672 167.386463 234.974672 167.371404 234.944084 167.293289 234.821734 167.48999 234.731383 167.520107 234.625033 167.459402 234.487625 167.429285 234.380333 167.474461 234.30457 167.583164 234.226455 167.719161 234.119163 167.855628 234.486683 167.932802 234.684326 168.025035 234.791617 168.15962 234.729972 168.403379 234.60621 168.586433 234.454684 168.648079 234.349275 168.570904 234.012342 168.785017 233.844346 168.845721 233.67635 168.86125 233.67635 168.998659 233.844346 169.059834 233.829288 169.104538 233.67635 169.134655 233.554471 169.119597 233.370005 169.028776 233.234008 169.013717 233.035896 168.874897 232.455675 168.038682 232.16674 167.900803 232.136153 167.900803 232.028861 167.58034 231.816161 167.320582 231.938511 167.291877 232.045802 167.214702 232.258973 166.665069 232.455675 166.756831 232.593083 166.862711 232.960133 167.00059 234.164338 167.091411 234.652797 167.00059 235.125727 166.742243 235.994882 166.101318 239.197627 164.667 241.972617 163.935254 245.342417 162.517877 247.522599 161.937185 249.917834 161.281672 252.265071 160.214874 254.218905 159.971116 255.56099 159.513244 255.408523 159.667123 254.814184 159.94194 255.073002 160.124994 256.139799 159.94194 256.139799 159.804061 256.063095 159.804061 256.063095 159.651594 256.643316 159.651594 256.643316 159.544773 256.626846 159.529244 256.596258 159.529244 256.566141 159.500539 256.582612 159.164077 256.308736 159.148547 255.651811 159.361719 256.063095 159.148547 256.566141 158.828085 257.314358 157.943871 257.161891 158.246452 256.886604 158.536798 256.779783 158.690676 256.886604 158.645501 257.116246 158.599385 257.300241 158.521269 257.468237 158.324568 257.894579 158.125984 258.047046 157.943871 257.894579 157.638467 257.652232 157.638467 257.544941 157.761287 257.360945 157.943871 257.87905 157.059658 259.281839 155.243232 259.281839 155.381111 259.205135 155.577812 259.328897 155.624399 259.525598 155.547224 259.678065 155.381111 259.75524 155.090765 259.678065 155.01359 259.510069 155.090765 259.327485 155.257349 259.569832 154.753832 259.997116 154.326078 260.836154 153.809384 263.367857 153.443746 264.358891 153.047521 264.877467 152.954347 265.333926 152.787292 266.493427 151.505912 270.153572 149.78313 274.743577 148.912564 276.80188 148.211404 280.052624 147.906 282.050692 147.906 282.32598 148.014703 282.76691 148.3954 282.934906 148.486221 283.194664 148.547396 287.342798 151.034394 288.104661 152.025428 288.228893 152.252717 288.351243 152.57365 288.365831 152.864466 288.151719 152.971287 288.091014 152.893172 288.03031 152.742587 287.954077 152.590591 287.740905 152.438124 287.587968 152.040957 287.389855 151.782611 286.809164 150.804282 286.688696 150.744519 286.260942 150.653697 286.15365 150.607581 286.033183 150.41088 285.697191 150.287589 284.964032 149.79913 284.248285 149.449962 284.140994 149.281025 283.743356 148.976091 283.636065 148.931387 283.485951 148.992091 283.407835 149.098912 283.24031 149.694662 283.224781 149.831129 283.224781 150.135122 283.285485 150.211826 283.575361 150.349705 283.636065 150.426409 283.789002 150.686167 283.956528 151.082393 283.956528 151.233918 283.911352 151.370856 283.911352 151.505912 284.048761 151.65979 283.971586 152.071074 284.108053 152.237658 284.337695 152.192012 284.535337 151.935078 284.458633 152.283775 284.549454 152.558121 284.701921 152.787292 285.007325 153.733622 285.097676 153.930323 285.052971 154.404664 285.067559 155.227232 285.143322 156.005566 285.313671 156.357087 285.496255 156.41732 285.862363 156.693078 286.045418 156.753312 286.212943 156.7679 286.411526 156.829075 286.579052 156.952837 286.657167 157.135891 286.853868 157.426707 288.897112 158.082691 289.354983 158.112808 289.736151 157.898696 289.843442 158.004576 289.979439 158.082691 290.316372 158.188571 294.874848 157.50247 295.881411 157.014012 296.354812 156.907191 296.735037 156.740607 297.483254 155.960861 297.750071 155.918039"></polyline>
        </g>
    </g>
</svg>