
<svg width="127px" height="115px" viewBox="0 0 127 115" version="1.1" xmlns="http://www.w3.org/2000/svg" xmlns:xlink="http://www.w3.org/1999/xlink">
    <g id="Page-1" stroke="none" stroke-width="1" fill="none" fill-rule="evenodd">
        <g id="TT-EPS-01-0001" transform="translate(-223.000000, -145.000000)" fill="#7F807C">
            <path d="M335.41256,160.43162 L335.36656,160.43668 L335.21936,160.60136 L335.30308,160.66116 L335.44568,160.6515 L335.52572,160.57928 L335.52296,160.51396 L335.41256,160.43162 Z M252.69674,206.2927 L252.6627,206.32904 L252.6604,206.40356 L252.69674,206.43806 L252.77172,206.43806 L252.803,206.40356 L252.803,206.32904 L252.76896,206.295 L252.69674,206.2927 Z M343.57526,155.65314 L343.423,155.5064 L343.0849,155.47006 L342.98324,155.57862 L343.10422,155.66326 L342.97588,155.7985 L343.11664,155.9388 L343.26338,155.81552 L343.41104,155.88084 L343.57526,155.65314 Z M340.157,157.4821 L340.065,157.57364 L340.14964,157.70428 L340.4537,157.69738 L340.53144,157.6201 L340.53144,157.55938 L340.42978,157.47244 L340.157,157.4821 Z M253.0951,206.4767 L253.0951,206.40632 L253.16548,206.33088 L253.06152,206.15056 L252.87982,206.25866 L252.87752,206.40356 L253.05922,206.51028 L253.0951,206.4767 Z M250.23712,206.73246 L250.2661,206.69106 L250.26886,206.47854 L250.23298,206.43806 L250.16214,206.43806 L249.9786,206.62114 L249.9786,206.69106 L250.01494,206.73246 L250.23712,206.73246 Z M248.31202,205.02678 L248.2053,204.91592 L247.94724,205.099 L247.98818,205.13534 L248.27568,205.13534 L248.31202,205.02678 Z M250.56142,206.40356 L250.5973,206.51488 L250.66722,206.51028 L250.84892,206.40632 L250.85122,206.18644 L250.81488,206.15056 L250.5927,206.15056 L250.5559,206.18368 L250.56142,206.25866 L250.48598,206.32904 L250.56142,206.40356 Z M252.77172,206.50752 L252.73538,206.54892 L252.73538,206.69382 L252.77172,206.7274 L252.91662,206.7297 L252.9525,206.69382 L252.9525,206.61884 L252.84164,206.51028 L252.77172,206.50752 Z M347.76218,151.24726 L347.75942,151.16032 L347.66788,151.07568 L347.5469,151.08028 L347.46456,151.16262 L347.4595,151.2422 L347.54414,151.31948 L347.6872,151.31488 L347.76218,151.24726 Z M347.6872,151.8149 L347.60486,151.90874 L347.60486,151.97406 L347.67984,152.03938 L347.76218,152.03938 L347.90386,151.89678 L347.82934,151.8149 L347.6872,151.8149 Z M343.41334,156.03034 L343.40874,156.10992 L343.50534,156.17524 L343.57066,156.17524 L343.6162,156.1366 L343.63828,156.02804 L343.59964,155.96502 L343.47636,155.95536 L343.41334,156.03034 Z M348.9821,150.6672 L348.68954,150.5706 L348.8418,150.3774 L348.75762,150.24216 L348.54694,150.0853 L348.4094,150.07794 L348.2714,150.2325 L348.19918,150.01768 L347.99402,149.79044 L347.8459,149.79044 L347.75436,149.87232 L347.68214,150.0876 L347.76632,150.16258 L347.77138,150.30748 L347.91628,150.38476 L347.91628,150.43766 L347.75206,150.58256 L347.75206,150.72792 L347.66006,150.85074 L347.7907,150.94734 L348.1288,150.94044 L348.1679,151.07568 L348.2645,151.1456 L348.33948,151.08028 L348.34638,150.93032 L348.48898,150.94274 L348.69414,151.08994 L348.91172,151.08994 L349.11688,150.78818 L348.9821,150.6672 Z M343.63552,155.71846 L343.48602,155.87578 L343.59964,155.96502 L343.7128,155.95306 L343.78042,155.86842 L343.78548,155.8031 L343.69118,155.71846 L343.63552,155.71846 Z M346.88726,150.0853 L346.81458,150.2348 L346.735,150.23986 L346.597,150.38246 L346.54456,150.6672 L346.61448,150.73712 L346.76168,150.72792 L346.90428,150.51494 L347.03492,150.5177 L347.10714,150.44272 L347.03906,150.14786 L346.88726,150.0853 Z M347.38958,145.21482 L347.31966,145.21022 L347.24744,145.30912 L347.18212,145.30912 L347.05838,145.42274 L347.06344,145.56028 L347.1145,145.61134 L347.24928,145.59892 L347.46456,145.36938 L347.38958,145.21482 Z M346.0979,151.01772 L345.7276,151.02508 L345.66734,150.9547 L345.6701,150.59498 L345.5804,150.49792 L345.66734,150.2808 L345.80028,150.15292 L345.94748,150.15752 L346.32468,149.86036 L346.16506,149.5655 L346.17702,149.34102 L346.60942,149.5586 L346.67934,149.49558 L346.6821,149.36034 L346.597,149.2757 L346.60942,149.05582 L346.67934,148.90126 L346.82194,148.84836 L346.96684,148.62342 L346.94246,148.45 L346.74006,148.33362 L346.74282,148.04842 L346.90612,147.89156 L346.827,147.74896 L346.59976,147.75402 L346.59516,147.56312 L346.75938,147.38418 L346.60482,147.18822 L346.09284,147.17902 L346.09974,146.99042 L345.94058,146.80964 L346.00314,146.66428 L345.94748,146.51938 L346.09054,146.45176 L345.93552,146.3041 L345.65032,146.37678 L345.51784,146.51202 L345.4401,146.82114 L345.29336,146.88876 L345.23264,146.89888 L345.02012,146.68636 L344.78506,146.88876 L344.34622,146.89152 L344.274,147.03412 L344.04814,146.96374 L343.9957,147.03412 L344.06102,147.1137 L343.9957,147.18822 L343.7013,147.18132 L343.49108,146.89888 L343.41104,146.9688 L343.33146,147.20294 L343.62126,147.6887 L344.14106,147.8336 L344.04814,148.1211 L344.1383,148.20574 L344.13094,148.49048 L343.9888,148.64044 L343.69348,148.63814 L343.62816,148.57282 L343.46716,148.63078 L343.41104,148.76832 L343.26338,148.8433 L343.04626,148.8456 L342.88664,149.06088 L342.40824,148.97164 L342.45884,148.7513 L342.41054,148.6961 L342.18652,148.75866 L342.0361,148.4592 L342.01908,148.30924 L341.65752,147.96148 L341.50986,147.96654 L341.42062,147.88926 L340.8746,147.89156 L340.79686,147.96424 L340.51442,147.96654 L339.8626,148.48082 L339.7223,148.48082 L339.64042,148.5535 L339.56544,148.49324 L339.1496,148.49554 L339.05024,148.42102 L338.79218,148.41826 L338.6275,148.57052 L338.62336,148.63538 L338.48076,148.62848 L338.40578,148.69334 L338.40854,148.90862 L338.04836,148.91092 L337.466,149.13586 L337.11042,149.40634 L337.10858,149.57056 L336.96552,149.57056 L336.81878,149.71316 L336.97334,150.02964 L337.0796,150.09496 L337.00232,150.15982 L336.51196,150.14556 L336.44618,149.9956 L336.32566,150.00066 L336.38132,149.93534 L336.24608,149.79504 L336.10348,149.92798 L335.59334,149.93304 L335.51146,150.07794 L335.3592,150.08254 L335.22626,150.2302 L335.29618,150.44042 L334.59882,150.51034 L334.47738,150.43306 L334.14894,150.44272 L333.82786,150.65754 L333.47964,150.6649 L333.41662,150.72056 L333.47734,150.9547 L333.42444,151.10926 L333.4847,151.24496 L333.27218,151.24726 L333.10014,151.08764 L332.98468,151.08994 L332.75974,151.30522 L332.76204,151.16998 L332.69258,151.08258 L332.3324,151.09454 L332.18474,151.2399 L332.18474,151.31488 L332.02834,151.3871 L331.80524,151.3871 L331.74084,151.31028 L331.6677,151.31948 L331.6079,151.45932 L331.30292,151.46714 L331.11432,151.67966 L331.17504,151.80984 L331.11248,151.9644 L331.33236,152.17232 L331.16998,152.40922 L331.16814,152.54446 L331.0329,152.54906 L330.44364,152.83932 L330.16304,153.119 L330.06138,153.14338 L329.79826,153.19674 L329.6,153.31496 L329.51306,153.41386 L329.51582,153.77404 L329.43808,153.83936 L329.35344,153.76162 L329.06134,153.77174 L328.9284,153.90928 L328.83916,154.2184 L328.62664,154.2207 L328.55626,154.29108 L328.55902,154.43092 L327.83636,154.51096 L327.60268,154.64344 L327.53,154.7911 L327.2471,154.7957 L327.02952,154.92864 L326.88738,154.93646 L326.8216,155.00132 L326.82436,155.15082 L326.66704,155.21844 L326.46418,155.44798 L326.3869,155.66786 L326.2397,155.72582 L326.104,156.01838 L325.92322,156.0377 L325.79074,156.24516 L325.65274,156.2401 L325.37766,156.52806 L325.38226,156.6679 L325.16514,156.6656 L324.84544,156.88824 L324.71802,156.89744 L324.5584,156.8105 L324.48572,156.96046 L324.27826,156.96276 L324.06574,157.0474 L323.9282,157.25532 L323.92498,157.40482 L323.9857,157.4798 L324.29482,157.4775 L324.29252,157.81284 L324.0731,158.12012 L323.97144,158.13438 L323.56848,158.47478 L323.56848,158.55942 L323.71062,158.64176 L323.70832,158.71628 L323.62828,158.71628 L323.41346,158.915 L323.03948,158.99688 L322.90148,159.12522 L322.60892,159.19238 L322.5367,159.27196 L322.61122,159.50196 L322.69586,159.57648 L322.68344,159.86168 L322.60616,159.9316 L322.60616,160.15654 L322.46862,160.22416 L322.3987,160.3042 L322.24138,160.29638 L322.17928,160.36676 L321.826,160.364 L321.73446,160.43898 L321.51642,160.44128 L321.3844,160.57652 L321.60842,160.8861 L321.6857,160.87598 L321.6834,161.0862 L321.44926,161.30884 L321.30896,161.31344 L321.15992,161.45834 L320.30202,161.4611 L320.15942,161.60094 L320.1516,161.67592 L320.24406,161.76516 L320.53616,161.75826 L320.67416,161.67822 L320.89404,161.84014 L320.88944,161.97538 L320.82826,161.97308 L320.60194,161.8935 L320.44968,161.97538 L320.35952,161.88614 L320.21232,161.96572 L319.6617,161.96572 L319.54532,161.87878 L319.2868,161.8935 L319.21458,161.52872 L319.06278,161.3668 L318.92708,161.4611 L318.70536,161.82818 L318.70996,162.11798 L318.7946,162.1879 L318.99286,162.77026 L318.8498,162.93218 L318.8498,163.0481 L318.63314,163.06006 L318.4128,163.19024 L318.4128,163.40782 L318.32126,163.53846 L318.43948,163.87426 L318.83554,164.07022 L319.98554,163.69072 L320.25372,163.69072 L320.36688,163.61804 L320.6277,163.7703 L321.14704,163.768 L321.32874,163.9152 L322.00034,164.00444 L322.29244,164.07022 L322.3435,164.13048 L322.33844,164.81864 L322.41296,164.87476 L323.16184,164.85958 L323.2612,164.94192 L323.39414,164.94698 L323.4958,164.87476 L323.71292,164.85958 L323.99812,164.51182 L323.91808,164.36232 L323.92084,164.20776 L323.9857,164.12818 L323.92084,164.05826 L323.92314,163.9129 L324.13382,163.98052 L324.13796,164.14474 L324.2686,164.27538 L324.7976,164.27538 L324.86522,164.21006 L325.01288,162.83328 L325.2254,162.61064 L325.23736,162.526 L325.50554,162.31854 L325.79074,162.16628 L325.94024,162.24586 L326.2351,162.24862 L326.41128,162.16398 L326.45222,162.04576 L326.6721,161.8429 L326.6767,161.7532 L327.24986,161.15888 L327.24986,161.08436 L327.62154,160.7918 L327.9693,160.7895 L328.20896,161.24582 L328.54936,161.58668 L328.71128,161.66856 L328.90218,161.67592 L329.13816,161.81622 L329.36586,161.81852 L329.43348,161.74814 L329.508,161.8935 L329.81022,161.8958 L329.87048,161.82818 L329.94546,161.45834 L330.03286,161.43902 L330.23066,161.2265 L330.51356,161.15428 L330.72378,161.44868 L330.88984,161.45604 L331.0329,161.30654 L331.0398,161.01628 L330.96482,160.94176 L331.07568,160.94866 L331.17734,160.86908 L331.17504,160.73384 L331.3181,160.58664 L331.3204,160.28672 L331.59318,160.01394 L331.60008,159.85938 L331.87332,159.84466 L331.96532,159.7821 L332.23856,159.7844 L332.54538,160.00152 L332.89314,159.99922 L332.98468,159.9293 L333.60292,159.85938 L333.69492,159.77934 L334.13192,159.84926 L334.19678,159.99462 L334.2989,159.99922 L334.3495,160.0696 L334.42218,160.22416 L334.35686,160.38838 L334.43138,160.44404 L334.57904,160.43668 L334.93416,160.14918 L335.28192,160.15148 L335.3592,160.2122 L335.56666,160.15884 L335.95122,159.927 L336.0837,159.92424 L336.30174,159.71172 L336.73368,159.42928 L336.88364,159.13672 L337.21208,158.98492 L337.25578,158.7839 L337.39332,158.64636 L337.39792,158.55712 L337.6178,158.25996 L337.83032,158.25996 L337.97752,158.12196 L337.98028,157.98672 L338.10126,157.98442 L338.25352,157.765 L338.49226,157.74292 L338.70064,157.55938 L338.98998,157.4775 L339.13304,157.32754 L339.4854,157.32984 L339.72,157.0934 L339.86766,157.10536 L339.85984,157.26958 L339.93206,157.3349 L340.22922,157.25762 L340.31156,157.18264 L340.3065,157.03728 L340.15194,156.94114 L340.30926,156.88824 L340.15884,156.60258 L339.99232,156.5207 L340.00014,156.45032 L340.22186,156.25482 L340.30144,155.95076 L340.51442,155.72858 L340.71268,155.73318 L341.15934,155.43372 L341.22236,155.14346 L341.36956,155.07124 L341.58714,155.06618 L341.81668,154.92404 L342.1695,154.9866 L342.24862,155.14346 L342.97174,155.13886 L343.0366,155.20878 L343.04166,155.38312 L343.11112,155.42866 L343.7634,155.43372 L343.98374,155.22074 L343.9957,154.95302 L343.8508,154.7911 L344.05366,154.67242 L344.06102,154.43828 L343.91612,154.04912 L343.77628,153.9815 L343.77352,153.62454 L343.8991,153.62454 L344.05366,153.47412 L344.19396,153.47688 L344.2809,153.41156 L344.57576,153.75978 L344.573,154.0735 L344.64292,154.11444 L344.78046,154.1195 L345.22758,154.42356 L345.3849,154.42356 L345.56844,154.1264 L345.51508,153.9815 L345.80028,153.76898 L345.80534,153.65536 L345.71104,153.55876 L345.8633,153.34164 L345.87526,153.21606 L346.0565,153.3536 L346.23958,153.19904 L346.17932,153.05368 L346.24234,152.97916 L346.23774,152.71098 L346.32238,152.5371 L346.02522,152.31446 L346.23774,152.17738 L346.23958,152.03202 L346.09514,151.87976 L346.31732,151.87792 L346.5418,151.60468 L346.54916,151.39446 L346.4383,151.1893 L346.0979,151.01772 Z M244.2194,204.40808 L244.32336,204.51986 L244.32336,204.58932 L244.43468,204.62566 L244.58234,204.48122 L244.72218,204.70064 L245.16194,204.70294 L245.23186,204.77286 L245.37906,204.76872 L245.48532,204.66476 L245.19368,204.44948 L245.12376,204.30458 L245.12376,204.0847 L245.15964,204.04836 L245.37676,204.26594 L245.66426,204.12104 L245.81376,204.33586 L245.88644,204.33586 L246.02674,204.19372 L246.17394,204.19372 L246.21028,204.08194 L245.995,203.57226 L245.995,203.43242 L245.85056,203.28752 L245.85056,203.21254 L245.95636,203.10398 L246.13806,203.28522 L246.13806,203.35974 L246.24892,203.39378 L246.28526,202.92504 L245.95866,202.454 L245.81376,202.454 L245.66656,202.67342 L245.52396,202.67158 L245.45404,202.59614 L245.08972,202.59614 L244.86708,202.81418 L244.5437,202.85236 L244.33072,203.28752 L244.32842,203.7903 L244.2562,203.93934 L243.89096,204.29722 L243.89096,204.3722 L243.67384,204.5171 L243.67384,204.59208 L244.00228,204.62842 L244.2194,204.40808 Z M341.96664,148.04842 L341.92064,147.98816 L341.8337,147.96424 L341.77804,148.0222 L341.89396,148.1234 L341.96664,148.04842 Z M342.20078,148.2706 L342.26104,148.20068 L342.26334,148.1165 L342.18882,148.03692 L342.112,148.02956 L342.03426,148.14042 L342.03426,148.20298 L342.11384,148.27566 L342.20078,148.2706 Z M338.47294,148.43022 L338.55758,148.41596 L338.6252,148.33132 L338.63532,148.266 L338.55022,148.18642 L338.48582,148.18642 L338.39796,148.28992 L338.40302,148.3603 L338.47294,148.43022 Z M346.24234,145.29946 L346.37988,145.15686 L346.23544,145 L346.17242,145 L346.01556,145.1541 L346.01556,145.2392 L346.08502,145.30452 L346.24234,145.29946 Z M336.03586,147.75126 L336.16834,147.60866 L336.09842,147.53138 L336.0377,147.53138 L335.94616,147.46146 L335.80816,147.599 L335.80816,147.691 L335.91028,147.75126 L336.03586,147.75126 Z M346.81228,149.50524 L346.81688,149.59218 L346.87024,149.64784 L346.95718,149.64784 L347.09012,149.49788 L347.0294,149.4183 L346.90888,149.42336 L346.81228,149.50524 Z M346.05374,145.8671 L346.53444,145.87676 L346.97144,145.64998 L347.03492,145.37214 L346.88956,145.2852 L346.81688,145.36938 L346.67474,145.37444 L346.51742,145.5267 L346.37988,145.53176 L346.3095,145.44942 L346.00774,145.44666 L345.93552,145.53176 L345.94058,145.68586 L346.05374,145.8671 Z M345.7253,145.88918 L345.80258,145.80914 L345.79798,145.67114 L345.723,145.58466 L345.65308,145.58926 L345.59006,145.6693 L345.58546,145.8142 L345.65952,145.88918 L345.7253,145.88918 Z M303.57734,202.81832 L303.5364,202.85972 L303.64726,202.96414 L303.71764,202.96414 L303.75858,202.9301 L303.75352,202.85466 L303.71764,202.82154 L303.57734,202.81832 Z M247.7683,205.56774 L247.41134,205.5705 L247.33406,205.78578 L247.04656,205.8603 L246.93708,206.04384 L247.04426,206.15056 L247.9109,206.22278 L247.98818,206.1478 L248.02222,206.18368 L247.98588,206.36722 L248.42058,206.4399 L248.5319,206.33088 L248.52684,206.11146 L248.74672,206.04108 L248.8217,205.75128 L248.71314,205.5728 L248.49556,205.5705 L248.42334,205.64042 L247.83822,205.64318 L247.7683,205.56774 Z M311.68714,191.14352 L311.61722,191.06854 L311.46956,191.06854 L311.32512,190.92364 L310.89042,190.85326 L310.52978,190.56392 L310.4525,190.56116 L310.3076,190.41626 L310.1673,190.41626 L310.0178,190.63384 L309.87336,190.63844 L309.61944,190.81508 L309.6222,191.02944 L309.4382,191.21344 L308.20632,191.21574 L307.9915,191.07084 L307.48136,191.07084 L307.33416,191.14582 L307.26424,191.07084 L306.10688,191.06854 L306.0319,191.14122 L305.37916,191.14352 L305.1648,191.03956 L304.73516,190.86062 L304.62568,190.75712 L304.58704,190.57082 L304.29954,190.42362 L304.08242,190.42868 L304.00928,190.57312 L303.43014,190.4986 L303.35516,190.42868 L302.92046,190.42546 L302.85054,190.5009 L302.48576,190.5032 L302.34316,190.57082 L302.26772,190.6458 L302.1978,190.57082 L302.12604,190.6458 L301.83302,190.6435 L301.69088,190.793 L301.54092,190.6458 L301.1835,190.6435 L301.06988,190.75206 L301.07494,190.89696 L300.92728,191.11684 L300.92452,191.26174 L300.63564,191.54924 L300.63978,191.62422 L300.24188,191.6555 L299.65676,191.368 L299.36926,191.3657 L299.29888,191.44068 L299.00448,191.43792 L298.9341,191.5129 L298.7869,191.5129 L298.6443,191.66056 L298.13462,191.65826 L297.9221,191.80776 L297.69992,191.80546 L297.1953,192.02304 L296.97726,192.02028 L296.90504,192.09526 L296.25506,192.09526 L296.10786,192.24016 L295.96526,192.2374 L295.89028,192.31284 L295.45604,192.31008 L295.38336,192.38506 L295.09126,192.3823 L295.02548,192.45774 L294.73292,192.45544 L294.6607,192.38506 L294.15102,192.3823 L293.9362,192.24246 L293.6464,192.31514 L293.57142,192.38506 L293.13672,192.31284 L293.06174,192.38506 L292.7747,192.38506 L292.70432,192.31514 L292.48674,192.31284 L291.97936,192.67486 L291.83216,192.67256 L291.64816,192.8561 L291.64816,193.001 L291.5419,193.10956 L291.3993,193.10956 L291.1072,193.25216 L291.03728,193.1827 L290.96506,193.25722 L290.31002,193.25216 L290.09474,193.4725 L289.73226,193.39982 L289.58552,193.54196 L289.36748,193.61694 L289.2258,193.83682 L289.0786,193.83452 L288.71842,194.26692 L288.50084,194.26692 L288.21058,194.41458 L287.62592,194.33914 L287.48378,194.4845 L287.1213,194.4868 L287.04862,194.55672 L286.8315,194.55672 L286.76112,194.6294 L286.2519,194.6317 L285.88942,194.33914 L285.7827,194.52038 L285.52924,194.70162 L284.72976,194.70438 L284.51448,194.4868 L284.40362,194.59536 L284.40822,194.66574 L284.22514,194.7743 L283.715,194.7766 L283.64002,194.70162 L283.1354,194.634 L283.1354,194.4845 L282.88424,194.52314 L282.88424,194.66804 L283.02914,194.73796 L282.98774,194.7743 L282.5604,194.7766 L282.33776,194.6294 L282.05072,194.70438 L281.97344,194.6317 L281.39844,194.6294 L281.32392,194.70438 L281.18132,194.6294 L281.10588,194.70162 L280.95868,194.70162 L280.74386,194.56178 L280.5962,194.55948 L280.38092,194.33914 L280.23372,194.33914 L280.1684,194.41182 L280.09112,194.33684 L279.80408,194.3419 L279.7291,194.4845 L279.51658,194.41458 L279.4416,194.4845 L278.57174,194.4891 L278.49676,194.41458 L278.27964,194.41182 L278.20972,194.3419 L277.91716,194.3419 L277.84494,194.26462 L277.26488,194.26692 L277.19496,194.197 L276.76026,194.19424 L276.68528,194.12432 L276.46816,194.12202 L276.39778,194.0475 L276.1756,194.0521 L275.8881,193.83452 L275.4557,193.83222 L275.23812,193.69238 L275.021,193.69238 L274.58354,193.46974 L274.43864,193.25492 L274.15114,193.1827 L274.07386,193.10726 L273.0591,193.10726 L272.95284,193.2862 L273.17226,193.64592 L273.0982,193.72136 L273.10004,194.0107 L272.3392,194.84422 L272.0494,194.98912 L271.46658,195.2044 L270.88744,195.20716 L270.63352,195.38564 L270.63352,195.60506 L270.77842,195.67544 L270.6004,195.9289 L270.45504,196.00388 L270.09026,196.00158 L270.02034,196.07656 L269.6551,195.99928 L269.44028,195.85898 L269.4067,195.67774 L269.225,195.42428 L268.86022,195.42198 L268.53178,195.75042 L268.53178,195.8254 L268.24244,196.03746 L268.24244,196.1129 L268.38734,196.18282 L268.38734,196.2578 L268.13342,196.29138 L267.91584,196.50896 L267.77094,196.50896 L267.66238,196.61752 L267.66238,196.76242 L267.73736,196.8397 L267.73736,197.05222 L267.88226,197.19988 L267.95218,197.4147 L267.77416,197.59824 L267.48114,197.67092 L267.41076,197.74084 L266.75848,197.74314 L266.43234,197.49198 L266.5386,197.30568 L266.65038,197.2721 L266.64532,197.1272 L266.46362,197.09132 L266.35782,196.9823 L266.36012,196.76242 L266.65038,196.5476 L266.65038,196.47262 L266.3914,196.22376 L266.2511,196.36636 L265.96176,196.51126 L265.73958,196.50896 L265.63332,196.6925 L265.63332,196.8328 L265.7083,196.90732 L265.67196,197.01818 L265.59698,197.01818 L265.38216,197.30568 L264.87202,197.30844 L264.6158,196.9823 L264.6158,196.90732 L264.76392,196.76472 L264.83614,196.47492 L264.51506,196.43858 L264.29702,196.29138 L263.71052,196.29414 L263.49524,196.0738 L263.38898,196.18282 L263.53388,196.5476 L263.46166,196.61752 L263.46166,196.76242 L263.67924,196.90732 L263.7487,197.05222 L263.82368,197.19712 L263.67648,197.34248 L263.53388,197.63228 L263.42486,197.7459 L263.20314,197.81536 L262.91334,198.17784 L262.69806,198.17554 L262.55086,198.25098 L262.30384,198.06928 L262.29924,197.77488 L262.22932,197.63458 L262.118,197.59318 L261.90272,197.30844 L261.72194,197.34248 L261.93676,197.7091 L261.86408,197.77718 L261.8305,197.8885 L261.47032,198.10562 L261.2486,198.10562 L261.0669,197.77902 L260.70534,197.48738 L260.77802,197.34478 L260.74122,197.23806 L260.52594,197.23806 L260.41278,197.34248 L260.41784,197.49198 L260.12758,197.8494 L260.0503,198.13966 L259.94404,198.24776 L259.72646,198.25282 L259.58156,198.39036 L259.29176,198.46534 L259.21678,198.39542 L259.00472,198.39312 L258.78944,198.24776 L258.49458,198.25098 L258.4242,198.3209 L258.20202,198.3209 L257.5548,198.68062 L257.4076,198.83012 L257.25994,198.83012 L257.11964,198.68568 L256.97244,198.68338 L256.82754,198.53802 L256.6854,198.613 L256.47012,198.6107 L256.39284,198.68568 L256.24794,198.54078 L256.10534,198.54078 L256.03036,198.46534 L255.74286,198.4681 L255.3054,198.83012 L255.01836,198.9051 L254.65312,199.04816 L254.4383,198.9005 L254.07352,198.9005 L253.92862,198.83012 L253.8564,198.9028 L252.62406,198.9028 L252.54908,198.82828 L252.26158,198.83288 L252.19166,198.7556 L251.75696,198.7556 L251.68244,198.83012 L251.53984,198.82828 L251.39218,198.9028 L251.3563,199.01182 L251.032,199.3352 L250.92114,199.36878 L250.99612,199.59142 L250.8848,199.69998 L250.66722,199.69768 L250.52692,199.62776 L250.34338,199.73632 L250.30704,199.91756 L250.08992,199.98978 L249.94272,200.13468 L249.79782,200.13468 L249.72514,200.2046 L249.5807,200.13238 L249.47398,200.2437 L249.47168,200.3886 L249.36082,200.42218 L249.11196,200.6761 L248.9643,201.03812 L248.78306,201.21706 L248.35296,201.29204 L248.2053,201.50962 L248.13078,201.43924 L247.6257,201.43694 L247.26138,201.7318 L246.82622,201.7295 L246.57276,201.90798 L246.50008,202.12786 L246.64498,202.41766 L246.7149,202.56256 L246.7149,202.77784 L246.82622,202.8864 L247.11878,202.81418 L247.26138,202.5989 L247.30278,202.63524 L247.30002,202.92504 L247.08244,203.14216 L247.08244,203.28752 L246.79218,203.57732 L246.79218,203.72222 L246.97388,203.90116 L247.36994,204.08194 L247.36994,204.2273 L247.18916,204.33816 L247.08244,204.5171 L247.26368,204.55344 L247.33406,204.62842 L247.7683,204.62842 L248.0581,204.84554 L248.27568,204.84094 L248.34836,204.70064 L248.56548,204.70294 L248.64092,204.62842 L248.71084,204.70294 L249.8728,204.69788 L249.90638,204.73928 L249.83646,204.8069 L249.83646,205.02678 L249.61704,205.24666 L249.61704,205.3865 L249.68696,205.46148 L249.54666,205.60684 L249.65522,205.7154 L249.80242,205.7177 L250.0177,205.93252 L250.3052,205.92746 L250.81212,205.5705 L251.10422,205.56774 L251.17736,205.49828 L251.39448,205.42284 L251.57572,205.24436 L251.57848,205.09486 L251.39448,205.06542 L251.3195,205.13304 L251.28638,204.9541 L251.10422,204.77286 L250.8871,204.77286 L250.7399,204.84784 L250.70632,204.66706 L250.8871,204.48352 L251.0343,204.55344 L251.32226,204.55574 L251.60976,204.33586 L251.72338,204.30228 L251.89956,203.97384 L252.11668,203.97384 L252.33426,203.76086 L252.5155,203.86712 L252.58542,204.08194 L252.76666,204.26088 L252.91386,204.33816 L253.8564,204.41084 L253.92632,204.48122 L254.36608,204.55344 L254.436,204.62842 L254.8707,204.70064 L255.23318,204.91776 L255.30816,204.84324 L255.96044,204.84554 L256.03312,204.48122 L256.17296,204.48122 L256.28382,204.59208 L256.32292,204.77286 L256.75808,204.84324 L256.82754,204.91776 L257.4076,205.06036 L257.76962,205.35292 L257.84506,205.35292 L258.09576,205.60408 L258.10036,205.96886 L258.24066,206.11376 L258.24066,206.25866 L258.42006,206.51488 L258.49688,206.51488 L258.64178,206.7297 L258.92928,206.7274 L259.29176,206.94222 L259.43942,206.94222 L259.58386,207.08988 L260.01626,207.3047 L260.1975,207.4864 L260.23154,207.60186 L260.74122,207.60002 L260.77802,207.70812 L260.63496,207.85348 L260.88612,208.17962 L261.03102,208.24908 L261.17868,208.10464 L261.32128,208.10694 L261.53794,207.96204 L261.79416,208.28772 L261.72194,208.57798 L261.21502,209.22796 L261.2118,209.51776 L261.3935,209.699 L261.53794,209.699 L262.04808,209.91612 L262.29924,210.17234 L262.36916,210.31218 L262.37146,210.82232 L262.73624,211.47736 L262.73624,211.61674 L262.95152,211.91436 L263.0265,212.12918 L263.17186,212.27408 L263.38668,212.77916 L263.38438,213.21892 L263.4589,213.28838 L263.53388,213.72354 L263.67924,213.93836 L263.67924,214.15824 L263.82368,214.4485 L263.96858,214.52072 L263.96628,215.09802 L264.1857,215.4605 L264.25838,215.8952 L264.33106,215.97018 L264.3283,216.19006 L264.54818,216.62476 L264.4709,216.76506 L264.54588,217.05992 L264.47596,217.12754 L264.40098,217.92702 L264.25332,218.21728 L264.1857,218.4344 L263.60426,219.0163 L263.60656,219.30104 L263.67648,219.37648 L263.82138,219.66628 L263.82138,219.8811 L263.8959,219.95608 L263.8959,220.24634 L264.0408,220.53614 L263.96858,220.68104 L263.96628,220.97084 L263.8959,221.04122 L263.8959,221.26064 L263.82368,221.32872 L263.82368,221.62266 L263.89866,221.69304 L263.60426,221.98284 L263.53158,222.27034 L263.31906,222.64018 L263.31676,222.855 L263.09412,223.1425 L263.1691,223.21242 L263.1691,223.36238 L263.09642,223.4323 L263.0242,223.79708 L262.80662,224.01466 L262.66402,224.59426 L262.58674,224.66418 L262.59134,224.88406 L262.73624,225.02942 L262.66172,225.09934 L262.58904,225.24884 L262.59134,225.8266 L262.48554,225.93746 L262.26336,226.00508 L262.1571,226.11364 L262.1571,226.259 L261.93676,226.6937 L261.93492,226.91358 L261.82774,227.0226 L261.46618,227.01984 L261.35992,227.1284 L261.46618,227.3101 L262.37146,227.34322 L262.37146,227.63808 L262.22932,227.85336 L262.22702,228.14822 L262.00944,228.43572 L262.00944,228.50564 L262.29924,228.7982 L262.30384,229.08524 L262.22702,229.16022 L262.26336,229.27108 L262.48324,229.34192 L262.62538,229.26648 L262.9874,229.41414 L263.09872,229.51994 L263.1691,229.6653 L263.1668,229.9551 L262.95152,230.46248 L262.95152,230.68236 L262.8816,230.75734 L262.8793,231.11706 L263.0242,231.40732 L263.13552,231.4432 L263.38668,231.69206 L263.38438,231.76658 L263.56516,231.94828 L263.71282,231.94828 L264.00492,232.09548 L264.33106,232.42162 L264.3283,232.56606 L264.40374,232.6369 L264.40374,232.92624 L264.54818,233.14612 L264.6158,233.58082 L264.76116,233.87108 L264.76576,234.0859 L264.68848,234.16088 L264.69078,234.74048 L264.83614,235.03028 L264.43962,235.5717 L264.1834,235.68026 L264.1811,235.8247 L264.29242,235.93648 L264.50954,235.93648 L264.83614,236.11726 L264.47826,236.26262 L264.47596,236.47468 L264.65674,236.65638 L264.83798,236.69732 L264.83798,236.9126 L264.76576,237.05704 L264.98334,237.20194 L265.12824,237.49174 L265.12594,237.85652 L264.98334,238.00142 L264.83614,238.28938 L264.11118,238.94212 L264.0408,239.16154 L263.89314,239.37866 L263.89176,239.59394 L263.82138,239.66892 L263.8959,239.81336 L263.89314,240.17354 L263.7464,240.3235 L263.7464,240.39342 L263.53388,240.611 L263.46166,241.0457 L263.27996,241.22924 L262.91564,241.29686 L262.77534,241.44176 L262.69806,241.44176 L262.04578,241.94684 L261.89812,242.02136 L261.68284,242.01906 L261.53564,242.16856 L261.32358,242.23894 L261.17592,242.3866 L261.03102,242.3866 L260.74122,242.5315 L260.52364,242.74862 L260.45372,242.74862 L260.16116,242.9662 L260.01856,242.9662 L259.80144,243.1111 L259.65654,243.10834 L259.29176,243.32868 L258.85706,243.62124 L258.71216,243.62124 L258.63948,243.68886 L258.13716,243.6907 L258.05988,243.76108 L257.77192,243.76614 L257.69694,243.83606 L257.26224,243.83836 L257.19186,243.90828 L257.11734,243.83836 L255.95814,243.76338 L255.88776,243.6861 L255.52574,243.6907 L255.4503,243.62124 L255.23318,243.61848 L255.16326,243.54396 L254.94568,243.54396 L254.80078,243.47358 L254.50868,243.25646 L254.1462,243.1111 L254.0013,242.9639 L253.63882,242.89398 L253.5666,242.819 L253.05922,242.74586 L252.84164,242.60648 L252.47916,242.60418 L251.60976,242.17132 L251.32226,242.09358 L251.10238,241.9542 L250.8848,241.95144 L250.81212,242.09128 L250.4501,242.16626 L250.38018,242.23894 L250.01494,242.23894 L249.65798,242.5315 L249.5807,242.5315 L249.399,242.70998 L249.40176,243.07522 L249.32678,243.14468 L249.32678,243.36456 L249.54666,243.50946 L249.54436,243.94462 L249.47398,244.08952 L249.54436,244.23442 L249.65522,244.26846 L249.90638,244.59414 L249.90868,244.66452 L249.76424,244.81402 L249.54436,245.1719 L248.78582,245.93274 L248.71084,245.93274 L248.0558,246.51464 L247.48126,246.8072 L247.33636,246.8072 L247.11878,246.9498 L246.97158,246.9498 L246.57276,247.13288 L246.64728,247.49352 L246.53642,247.60208 L246.3239,247.60208 L246.02674,247.31458 L245.81192,247.31458 L245.7397,247.3845 L245.23462,247.45672 L245.15964,247.53216 L244.76128,247.56574 L244.6909,247.7157 L244.90618,248.14534 L244.90342,248.36568 L244.57958,248.61914 L244.25344,248.7254 L244.25114,249.16056 L244.0745,249.34594 L243.85738,249.3441 L243.64026,249.48854 L243.4926,249.48854 L243.27502,249.63114 L242.98752,249.70612 L242.338,250.0686 L241.89824,250.14082 L241.82786,250.2158 L241.53576,250.21396 L241.17558,250.3584 L240.66636,250.43062 L240.37426,250.57368 L240.0863,250.57368 L240.01638,250.64866 L239.5067,250.6459 L239.43678,250.72134 L238.56462,250.71582 L238.49424,250.79034 L237.55262,250.79356 L237.47994,250.86302 L236.3925,250.86302 L236.02818,251.2278 L235.88098,251.2255 L235.45042,251.44538 L235.23054,251.44262 L235.19466,251.69884 L235.01572,251.88284 L234.87082,251.95276 L234.65324,251.95046 L234.57872,252.02544 L234.14356,252.02544 L234.07364,252.09306 L233.02024,252.134 L233.01794,252.49464 L233.09246,252.5687 L233.09016,253.2932 L233.02024,253.4381 L232.58508,253.87096 L232.37302,254.45562 L231.827,254.85214 L231.5395,254.92666 L231.17518,255.13918 L231.02982,255.13918 L230.74002,255.43358 L230.52244,255.43128 L230.15996,255.57664 L229.86786,255.57388 L229.79748,255.64886 L228.12814,255.64886 L227.77072,255.93636 L227.62306,256.01088 L227.54854,255.93636 L227.40824,256.01088 L226.68144,256.00904 L226.60646,256.08356 L225.8792,256.08126 L225.77294,256.18982 L225.9206,256.4097 L225.91784,256.55506 L225.70072,256.91478 L225.37688,257.24322 L225.3019,257.24322 L224.50242,258.03764 L224.21492,258.11262 L224.03414,258.29156 L224.03138,258.8017 L223.961,258.87162 L223.96376,259.2364 L224.14454,259.49032 L224.57694,259.77782 L224.79452,259.77782 L225.0098,259.92226 L225.23198,259.92502 L225.3019,260 L226.82404,259.99448 L226.8935,259.92502 L227.04162,259.92502 L227.18882,259.77966 L227.47586,259.70744 L228.05592,259.34496 L229.21788,258.39782 L229.65258,258.3302 L229.7225,258.25522 L230.30256,258.1876 L230.37754,258.11262 L230.59466,258.11262 L231.09974,257.7506 L231.31732,257.746 L231.3923,257.67838 L231.60942,257.67838 L232.18396,257.171 L232.40614,257.09602 L232.5492,256.95342 L233.12926,256.65856 L233.42182,256.52102 L233.5635,256.51642 L233.78568,256.37106 L234.07364,256.37336 L234.14356,256.29838 L234.65324,256.30114 L234.72362,256.22616 L235.74022,256.22892 L236.3902,256.59094 L236.5351,256.80622 L236.64642,256.84716 L236.71634,257.06198 L236.89712,257.24322 L237.04202,257.3136 L237.18968,257.3136 L237.69982,257.0261 L237.9128,256.8812 L238.05678,256.8835 L238.49194,256.66362 L238.85396,256.59094 L238.92894,256.51642 L239.43448,256.51872 L239.50394,256.44374 L239.79604,256.44374 L239.94416,256.52102 L240.01408,256.44604 L241.1788,256.37336 L241.2432,256.30114 L242.1908,256.29838 L242.26072,256.37336 L243.56758,256.37336 L243.6375,256.29838 L244.57958,256.29838 L244.7944,256.51872 L244.94252,256.51872 L245.23462,256.66086 L245.66656,256.66086 L245.742,256.73584 L246.10402,256.73354 L246.3216,256.8789 L246.53642,256.8812 L246.68408,257.0261 L247.11648,257.24092 L247.44768,257.56706 L247.5153,257.85686 L247.6257,257.96772 L247.84328,258.03764 L248.09444,258.29386 L248.09214,258.43876 L248.27798,258.62046 L248.56548,258.62046 L248.78812,258.76766 L249.00248,258.76766 L249.07562,258.69268 L249.29044,258.69268 L249.36266,258.62046 L249.72514,258.62046 L249.8705,258.76076 L250.16214,258.83758 L250.23298,258.90796 L250.4501,258.90796 L250.8894,258.69038 L251.03016,258.54548 L251.3172,258.4774 L251.4644,258.3279 L251.60976,258.3279 L251.82734,258.1853 L252.4764,258.11262 L252.55414,258.03764 L252.69398,258.11262 L253.05646,258.11078 L253.64388,257.82328 L254.07076,257.60616 L254.436,257.608 L254.51098,257.53348 L254.72856,257.53348 L254.79848,257.4585 L256.03312,257.4585 L256.10258,257.52842 L256.32062,257.53072 L256.39514,257.60616 L256.6831,257.60616 L256.75808,257.53348 L257.48442,257.53578 L257.5548,257.46586 L257.77192,257.46586 L257.8423,257.39318 L259.1464,257.39318 L259.50934,257.68298 L259.80144,257.7552 L259.87136,257.68068 L260.08848,257.68068 L260.38104,257.53808 L260.88382,257.53578 L260.9611,257.61076 L261.17592,257.61076 L261.61292,257.97278 L262.04578,257.97554 L262.12306,257.9001 L263.35264,257.8955 L263.42302,257.82512 L264.07714,257.82512 L264.36464,257.68068 L265.01462,257.61076 L265.30948,257.46586 L266.10436,257.46586 L266.17888,257.53578 L266.90154,257.53808 L266.97606,257.4631 L267.04644,257.53808 L267.11636,257.46586 L267.19364,257.54038 L267.48114,257.53578 L267.9186,257.31866 L268.4982,257.32096 L268.57042,257.24598 L268.9329,257.24828 L269.00328,257.1733 L269.36484,257.1756 L269.6574,257.39088 L270.30784,257.39088 L270.59764,257.53578 L271.10686,257.53808 L271.32214,257.7529 L271.6147,257.7552 L271.9022,257.608 L273.13132,257.608 L273.2063,257.68298 L273.49426,257.68574 L273.57154,257.61076 L274.15114,257.608 L274.22106,257.53808 L275.3085,257.46586 L275.38072,257.39548 L275.96032,257.39318 L276.39502,257.1756 L276.6103,257.0307 L276.83248,257.0284 L276.90562,256.95848 L277.26718,256.96078 L277.33756,256.8858 L277.48476,256.8858 L277.55974,256.95618 L278.13428,256.8835 L278.7148,256.5937 L278.862,256.52286 L279.07682,256.52102 L279.1495,256.45064 L279.4416,256.44604 L279.51198,256.37842 L279.58696,256.44834 L279.65918,256.37842 L279.874,256.37842 L279.95128,256.30344 L280.8883,256.30344 L281.10358,256.45064 L281.61326,256.4534 L281.72228,256.63464 L281.97804,256.81542 L282.41044,256.81082 L282.48772,256.7432 L282.62756,256.7432 L282.8456,256.5937 L283.06272,256.596 L283.1377,256.52102 L283.78768,256.8835 L284.14786,256.96078 L284.37004,257.10062 L284.87696,257.1733 L284.94734,257.25058 L285.16446,257.25058 L285.23944,257.32096 L285.60146,257.31866 L285.74912,257.4631 L286.11206,257.46586 L286.18198,257.53578 L286.8361,257.53578 L287.19398,257.32096 L287.4111,257.32326 L288.13836,256.95848 L288.35548,256.95848 L288.57076,257.1733 L288.7152,257.1756 L288.78604,257.24598 L289.00776,257.24598 L289.08044,257.1733 L289.44292,257.1733 L289.58736,257.32096 L289.72766,257.32096 L289.80264,257.39088 L289.94984,257.32096 L290.3827,257.31866 L290.45538,257.25058 L290.81786,257.24598 L290.89238,257.3159 L291.18034,257.31866 L291.5442,257.0307 L292.11966,256.7409 L292.26686,256.7409 L292.34138,256.66592 L292.55942,256.66868 L292.92144,256.44834 L293.0645,256.45064 L293.3566,256.30896 L293.64364,256.23398 L293.71862,256.15808 L293.9362,256.16084 L294.5135,255.58124 L294.6607,255.5058 L294.9482,255.50856 L295.02318,255.43358 L295.38566,255.43588 L295.81622,255.21876 L295.89304,255.07386 L296.11062,254.99934 L296.32728,254.7813 L296.68976,254.56464 L297.12492,254.56648 L297.41288,254.34936 L297.55962,254.27392 L298.28458,254.27392 L298.3568,254.204 L298.57208,254.2017 L298.6443,254.13178 L299.15168,254.05956 L299.58638,253.84198 L299.69586,253.66304 L299.69586,253.51308 L299.8426,253.36818 L299.9852,253.08114 L299.9852,252.93624 L300.42266,252.49878 L300.459,252.39528 L300.52846,252.39528 L300.7465,252.17264 L300.96316,252.10272 L301.39878,251.66526 L301.68858,251.5222 L302.48806,250.86762 L303.06766,250.58288 L303.57274,250.5056 L303.64266,250.43568 L304.22732,250.43568 L304.51482,250.58288 L304.65972,250.57874 L304.77104,250.6896 L304.77104,250.83404 L304.84602,250.90902 L304.84326,251.34188 L304.98632,251.63398 L304.99092,251.8488 L305.1648,251.88284 L305.38192,252.02268 L305.66942,252.01808 L305.99832,251.69654 L305.63584,251.54934 L305.5627,251.25954 L305.48818,251.18456 L305.49048,250.8943 L305.34604,250.6045 L305.1648,249.46232 L305.13352,249.16746 L305.05854,249.09248 L305.05854,248.80268 L304.98356,248.7323 L304.98632,248.44296 L304.91088,248.36798 L304.91548,247.71846 L304.84096,247.64348 L304.84096,247.35322 L304.76644,247.28284 L304.76874,246.85044 L304.69376,246.77362 L304.69606,246.55374 L304.62568,246.4829 L304.62568,245.47136 L304.5507,245.40144 L304.62338,244.30664 L304.69606,244.23902 L304.77104,243.36962 L304.84096,243.2951 L304.84326,242.42754 L304.91364,242.35716 L304.91548,241.9174 L304.98816,241.85024 L304.98816,240.7605 L305.0613,240.68598 L305.0613,238.22636 L305.13076,238.15184 L305.1648,237.87584 L305.20068,237.414 L305.4155,236.98206 L305.4155,236.83716 L305.63584,236.47468 L305.63078,236.33024 L306.14046,235.39046 L306.25408,235.27454 L306.54158,235.27684 L306.75686,235.42404 L307.11888,235.49442 L307.26654,235.35182 L307.44778,235.31272 L307.44502,234.95346 L307.73482,234.3711 L307.73712,234.2262 L307.55174,234.11534 L307.40914,234.26484 L307.12118,234.26254 L307.04666,234.33752 L306.899,234.25978 L306.61196,234.26484 L306.39438,234.62732 L306.02914,234.62502 L305.95968,234.55464 L305.66712,234.55234 L305.63354,234.3734 L305.45414,234.11718 L305.1648,233.9778 L304.69882,233.15118 L304.70066,233.00582 L304.11646,231.91884 L304.04378,231.62858 L303.82896,231.26886 L303.75674,230.83462 L303.6859,230.75964 L303.46418,229.89024 L303.24384,229.59768 L303.104,229.45232 L303.104,229.2375 L303.02902,229.16758 L303.03132,229.01762 L302.88642,228.73242 L302.88412,228.43802 L302.59432,227.78804 L302.59202,227.49824 L302.5221,227.42786 L302.5221,227.20844 L302.30406,226.77144 L302.23644,226.4131 L302.15962,226.33628 L302.16192,226.19138 L302.0874,226.12146 L302.0874,225.9761 L301.87442,225.46642 L301.86936,225.17662 L301.79944,225.1067 L301.79714,224.74238 L301.65178,224.45626 L301.65454,224.16232 L301.57956,224.09148 L301.58186,223.72716 L301.50688,223.65724 L301.50688,223.36698 L301.43236,223.29246 L301.43466,222.93228 L301.36428,222.85776 L301.36428,222.1328 L301.2893,222.06242 L301.22214,220.90552 L301.14486,220.83054 L301.14716,219.88616 L301.21708,219.81624 L301.21984,219.59636 L301.36198,219.30886 L301.6159,219.12532 L301.83854,219.2026 L301.908,219.12762 L302.34316,219.12992 L302.78062,218.54802 L303.06766,218.47534 L303.13804,218.40036 L303.64726,218.54296 L303.83126,218.36402 L303.82896,217.78672 L303.6836,217.5719 L303.6813,217.1326 L303.5364,216.77196 L303.46648,216.19282 L303.3892,216.11508 L303.31882,215.39288 L303.17392,215.0327 L303.17392,213.72814 L303.104,213.65362 L303.10124,213.29344 L303.03132,213.21892 L303.03132,213.00364 L302.95634,212.93372 L302.9591,212.56894 L302.88412,212.49856 L302.88642,212.13378 L302.81236,212.06386 L302.8142,211.47966 L302.73968,211.40928 L302.74198,210.97688 L302.667,210.8996 L302.6693,210.54172 L302.59432,210.46444 L302.59432,210.25238 L302.41584,210.07114 L302.3381,210.06838 L302.05106,210.28366 L301.83302,210.28596 L301.6159,210.4281 L301.57956,210.39498 L301.68858,210.21558 L302.12328,210.06838 L302.44712,209.73994 L302.44942,209.45244 L302.30406,209.23532 L302.23644,208.87054 L302.15962,208.80016 L302.16192,208.51036 L302.0874,208.43538 L302.01656,207.71042 L301.94158,207.64096 L301.94434,207.20534 L301.86936,207.13082 L301.87212,206.6285 L301.79714,206.55122 L301.79944,206.26142 L301.7217,206.19104 L301.72722,205.68412 L301.65178,205.60684 L301.65454,205.17398 L301.57956,205.10406 L301.57956,204.8138 L301.65684,204.73928 L301.64948,204.15922 L301.7608,204.05066 L302.05106,203.97844 L302.16192,203.87448 L302.16422,203.6546 L302.2346,203.58422 L302.30222,203.14446 L302.44942,203.00232 L302.45218,202.9278 L302.85054,202.67342 L302.99314,202.67618 L303.14034,202.53128 L303.42784,202.45906 L303.57274,202.60396 L303.71994,202.67618 L303.93476,202.67618 L304.00514,202.7461 L304.51712,202.75116 L304.58704,202.67618 L304.80508,202.67618 L305.1648,202.48068 L305.27382,201.97836 L305.34328,201.90568 L305.34604,201.69086 L305.48818,201.5409 L305.48818,201.47052 L305.74164,201.21706 L305.8893,201.21476 L305.95968,201.14484 L306.10412,201.35966 L306.28812,201.2511 L306.21314,201.1062 L306.21544,200.74142 L306.43532,200.38354 L306.43532,200.30902 L306.54158,200.27498 L306.64784,200.09604 L306.6506,199.80118 L306.9036,199.69308 L307.1911,199.40512 L307.41144,199.3329 L307.51724,199.22434 L307.51724,199.07898 L307.59452,199.00906 L307.59038,198.78964 L307.94964,198.49708 L307.9524,198.35218 L308.2813,198.10102 L308.57064,198.02558 L308.71324,197.80846 L308.8586,197.80846 L309.00074,197.59594 L309.1116,197.5573 L309.1484,197.44598 L309.22108,197.44598 L309.40186,197.2698 L309.3991,196.97494 L309.47684,196.90502 L309.54906,196.54024 L309.69166,196.32772 L309.69442,195.96294 L309.61944,195.81804 L309.76664,195.59816 L309.76434,195.38564 L309.69442,195.30836 L309.76434,195.24074 L309.76664,195.09078 L310.0569,194.80328 L310.0569,194.65884 L310.19904,194.51348 L310.19904,194.36812 L310.27172,194.29314 L310.27172,194.07648 L310.4502,193.89754 L310.67238,193.89754 L310.74506,193.82256 L311.03762,193.89478 L311.10248,193.82486 L311.32512,193.82256 L311.43092,193.7186 L311.46726,193.46514 L311.68484,193.46008 L311.75706,193.3897 L311.83204,193.39246 L312.04732,193.09806 L312.12184,193.10036 L312.26444,192.95546 L312.48156,192.95316 L312.59288,192.84644 L312.59058,192.62932 L312.44522,192.48166 L312.3753,192.26684 L312.23086,192.04696 L312.30032,191.9016 L312.73272,191.53958 L312.81046,191.25208 L312.7019,191.14122 L311.68714,191.14352 Z M246.79034,203.06764 L246.79034,202.99726 L246.754,202.96138 L246.68408,202.96138 L246.64728,202.99726 L246.64728,203.06764 L246.68408,203.10628 L246.754,203.10628 L246.79034,203.06764 Z M241.97092,202.67158 L242.18574,202.95908 L242.36652,202.99726 L242.36652,203.13802 L242.44196,203.2153 L242.44196,203.43242 L242.29936,203.72222 L242.2966,204.01202 L242.1494,204.2273 L242.33064,204.26088 L242.47784,204.19372 L242.51418,204.00742 L242.69818,203.82894 L242.7681,203.90346 L243.166,203.6523 L242.95164,203.35974 L243.02156,203.28522 L242.95164,203.14032 L242.84262,203.0313 L242.69588,203.03636 L242.6255,202.88364 L242.40792,202.8887 L242.36882,202.70516 L242.26348,202.5989 L242.18804,202.5989 L242.04544,202.454 L241.90054,202.4517 L241.75334,202.3068 L241.46584,202.38178 L241.35452,202.56026 L241.46584,202.67158 L241.97092,202.67158 Z M260.37874,197.01588 L260.45142,197.09362 L260.56274,197.05222 L260.52364,196.72838 L260.16392,196.72608 L260.0526,196.83464 L260.0526,196.91008 L260.16392,197.01588 L260.37874,197.01588 Z M239.2169,202.96138 L239.25324,202.92504 L239.25324,202.78244 L239.2169,202.7461 L239.072,202.7461 L239.0352,202.78014 L239.0352,202.92504 L239.0766,202.96138 L239.2169,202.96138 Z M238.78174,205.49552 L239.072,205.20848 L239.29418,205.20848 L239.3641,205.27794 L239.7988,205.2807 L239.86918,205.35062 L240.37886,205.42284 L240.4152,205.31658 L240.33792,205.16708 L240.0863,204.98814 L240.01132,204.98538 L239.79604,204.77056 L239.3618,204.69788 L239.25508,204.58932 L239.32776,204.3745 L239.25324,204.30458 L239.43448,204.26594 L239.58122,204.12104 L239.86918,204.11598 L240.01638,203.90346 L240.26754,204.0847 L240.26754,204.23006 L240.37886,204.33816 L240.59414,204.41084 L240.74088,204.55574 L241.02838,204.55574 L241.17328,204.70064 L241.35682,204.59208 L241.2823,204.3722 L241.17558,204.33816 L241.06472,204.2273 L241.06472,204.01202 L240.95616,203.90116 L240.88348,203.90116 L240.521,203.54098 L240.01408,203.24888 L239.72612,202.95908 L239.29142,202.96138 L239.2169,203.0313 L238.99886,203.03636 L238.8926,203.14032 L238.96528,203.79444 L238.74356,204.00742 L238.74816,204.15738 L238.85902,204.26364 L238.96298,204.30458 L238.96298,204.5171 L238.81578,204.8069 L238.82084,204.9518 L238.70952,205.06036 L238.49194,205.13534 L238.31346,205.3888 L238.41926,205.50012 L238.78174,205.49552 L238.78174,205.49552 Z" id="Fill-3"></path>
        </g>
    </g>
</svg>