
<svg width="171px" height="72px" viewBox="0 0 171 72" version="1.1" xmlns="http://www.w3.org/2000/svg" xmlns:xlink="http://www.w3.org/1999/xlink">
    <!-- Generator: Sketch 51.2 (57519) - http://www.bohemiancoding.com/sketch -->
    <desc>Created with Sketch.</desc>
    <defs></defs>
    <g id="Page-1" stroke="none" stroke-width="1" fill="none" fill-rule="evenodd">
        <g id="TR-EPS-01-0001" transform="translate(-127.000000, -172.000000)" >
            <path d="M131.398105,188.973443 L131.422992,189.228899 L131.359677,189.405302 L131.433606,189.583901 L131.489967,189.795804 L131.564261,189.974037 L131.693087,190.049796 L131.924021,190.088956 L133.569475,190.098471 L134.043056,189.961228 L134.194938,189.944393 L134.431362,190.064435 L134.570435,190.015759 L134.709875,189.934877 L134.831746,189.89096 L134.977407,189.907063 L135.11831,189.960496 L135.371204,190.129214 L136.049734,189.726268 L136.292014,189.652339 L136.898446,189.652339 L137.015926,189.615741 L137.224901,189.514364 L137.900504,189.405302 L137.97187,189.511802 L138.243429,190.088956 L138.134732,190.334164 L137.881839,190.543505 L137.597471,190.637196 L137.389959,190.53399 L137.2615,190.676722 L137.073751,190.968776 L136.952245,191.097236 L136.830739,191.151035 L136.413886,191.097236 L136.170874,191.155793 L135.895656,191.28169 L135.6402,191.444918 L135.249332,191.781987 L134.724514,191.976324 L134.307295,192.32364 L133.866287,192.610204 L133.733801,192.844067 L133.558496,192.848824 L133.102849,193.02596 L133.001472,193.116357 L132.943281,193.135388 L132.827264,193.234569 L132.74748,193.345096 L132.78847,193.397797 L132.902657,193.422318 L132.940719,193.482339 L132.910708,193.559561 L132.818847,193.636417 L133.083086,193.842099 L133.252169,194.089137 L133.297185,194.406443 L133.189586,194.823296 L132.78847,195.382882 L132.739795,195.493775 L132.671356,195.738982 L132.571443,195.981994 L132.42505,196.093985 L132.372715,196.156934 L132.303178,196.295641 L132.280122,196.432518 L132.364663,196.495467 L132.460185,196.485219 L132.930105,196.321991 L133.038802,196.253187 L133.3067,196.001757 L133.661337,195.799735 L133.79492,195.699456 L134.219825,195.296876 L134.090999,195.191474 L133.979375,194.974812 L133.950462,194.761445 L134.07087,194.66446 L134.255325,194.628228 L134.466497,194.53417 L134.669617,194.408273 L134.831746,194.275787 L135.063413,193.995079 L135.106965,193.951893 L135.109893,193.908708 L135.297275,193.715469 L135.414755,193.621412 L135.674237,193.556633 L135.736819,193.511617 L136.225039,193.063656 L136.359354,192.909577 L136.413886,192.721097 L136.430721,192.52676 L136.48818,192.438193 L136.777306,192.280821 L136.870265,192.14065 L136.950415,191.795163 L137.050328,191.726724 L137.173298,191.675121 L137.45913,191.422593 L137.625651,191.321948 L138.17316,191.239968 L138.3298,191.1342 L138.463018,191.007204 L138.976856,190.686238 L139.316121,190.583031 L139.67149,190.53399 L139.775062,190.457865 L140.033811,190.093714 L140.184596,189.970744 L140.370515,189.945125 L140.785538,189.952079 L141.030746,189.792145 L141.244113,189.76433 L141.341098,189.731026 L141.381356,189.688938 L141.473584,189.549865 L141.523723,189.492771 L142.319368,188.903907 L142.700355,188.233428 L143.534427,187.412531 L143.726934,187.057895 L143.950548,186.118785 L144.141225,185.727185 L144.417541,185.565055 L146.314059,185.289105 L146.655154,185.309234 L147.002105,185.407317 L147.148131,185.494786 L147.272199,185.601653 L147.40688,185.690953 L148.120545,185.776958 L148.280479,185.727185 L148.268401,185.634592 L148.325129,185.480513 L148.523857,185.159181 L148.619012,185.062562 L148.758817,184.960453 L148.9107,184.879571 L149.041721,184.846633 L149.532503,184.642049 L149.619972,184.643147 L149.684751,184.601425 L150.110388,184.440027 L150.256415,184.526399 L150.414885,184.515785 L150.745,184.440027 L150.818929,184.46528 L150.914816,184.580198 L150.98728,184.606183 L151.291045,184.606183 L151.597738,184.658152 L152.215515,184.883231 L152.509398,184.933736 L152.734477,185.051949 L153.193784,185.523333 L153.450703,185.559199 L153.560132,185.455992 L153.618323,185.293496 L153.64138,185.125511 L153.638818,185.007299 L153.56855,184.808205 L153.374579,184.609843 L153.329198,184.440027 L153.543663,184.492728 L153.726288,184.658152 L153.816685,184.894576 L153.75337,185.159181 L153.83718,185.178944 L153.899031,185.21664 L154.002238,185.327167 L153.929042,185.696442 L154.195476,185.809165 L155.260483,185.670092 L155.482634,185.680339 L155.578522,185.766711 L155.622073,185.839175 L155.726378,185.877603 L155.942673,185.888217 L156.046246,185.8615 L156.102241,185.816484 L156.139938,185.765613 L156.190443,185.727185 L156.276083,185.69571 L156.629255,185.622148 L156.791019,185.51272 L156.888004,185.487833 L156.916551,185.463312 L156.994139,185.358275 L157.045011,185.327167 L157.094418,185.33778 L157.172006,185.403291 L157.362683,185.417564 L157.402209,185.407317 L157.455276,185.34144 L157.45674,185.277759 L157.431487,185.238233 L157.42124,185.1848 L157.416482,185.13466 L157.429657,185.074639 L157.499194,184.970701 L157.572024,184.916169 L157.73086,184.8642 L157.802959,184.806009 L157.89665,184.659616 L157.980826,184.478455 L158.044873,184.269113 L158.075615,184.038179 L158.095744,184.034519 L158.134172,183.97706 L158.150641,183.910451 L158.105626,183.877513 L158.089157,183.85958 L158.032429,183.777234 L157.980094,183.679151 L157.90763,183.587655 L157.884573,183.509701 L157.987414,183.476763 L158.140028,183.387463 L158.294472,183.185441 L158.409757,182.967682 L158.492834,182.674897 L158.356323,182.545339 L158.134172,182.45787 L157.924465,182.425297 L157.862614,182.450184 L157.807717,182.561077 L157.739644,182.586329 L157.680721,182.574984 L157.658396,182.550463 L157.637169,182.524478 L157.591055,182.505813 L156.709771,182.306719 L153.979181,180.999432 L152.055947,180.174509 L150.710232,179.329823 L150.220548,178.867954 L150.0328,178.557968 L149.903242,178.38559 L149.648153,178.23627 L149.505786,178.056939 L149.383914,177.840644 L149.316573,177.655091 L149.324259,177.581528 L149.367445,177.574941 L149.41612,177.577869 L149.438811,177.534683 L149.428564,177.462584 L149.405507,177.42745 L149.38245,177.406955 L149.340728,177.283253 L149.264238,177.195784 L149.102108,177.044633 L149.000365,176.886895 L148.832013,176.35366 L148.686353,176.138462 L148.526419,175.955471 L148.395031,175.737346 L148.340866,175.42187 L148.369046,175.126889 L148.443707,174.965857 L148.559357,174.901078 L148.705384,174.89449 L148.871539,174.965857 L148.960839,174.982692 L149.041721,174.930722 L149.055262,174.849109 L149.019396,174.757247 L148.961937,174.681855 L148.917653,174.650014 L148.915823,174.522287 L148.791755,173.951355 L148.469691,173.878159 L148.335376,173.834973 L147.901688,173.885844 L147.780548,173.847416 L147.545222,173.732864 L147.325998,173.676137 L147.24475,173.672477 L147.076033,173.699926 L147.039069,173.68492 L147.003934,173.680163 L146.968434,173.68492 L146.933666,173.699926 L146.906217,173.819968 L146.905851,173.980634 L146.886454,174.098114 L147.024429,174.182656 L146.998445,174.255852 L146.887186,174.299038 L146.771902,174.304528 L146.650396,174.263172 L146.187063,174.007716 L145.859509,173.995639 L145.168902,174.17497 L145.147309,174.29428 L145.115834,174.352471 L145.069355,174.352471 L145.00238,174.301966 L144.92955,174.396755 L144.839152,174.456776 L144.649208,174.524483 L144.660553,174.552297 L144.685806,174.569498 L144.712523,174.585602 L144.736677,174.601339 L144.708497,174.62769 L144.653233,174.65587 L144.632007,174.681855 L144.755342,174.734556 L144.610414,174.798237 L144.492567,174.715891 L144.281762,174.41725 L144.147813,174.302698 L143.494901,173.93452 L143.282266,173.748601 L143.086831,173.518765 L142.710602,172.937586 L142.468688,172.697868 L142.185052,172.52915 L141.873236,172.454856 L141.679998,172.483036 L141.567641,172.57197 L141.370011,172.837673 L141.34732,172.884518 L141.34,172.927338 L141.301572,172.941977 L141.086375,172.885982 L140.887281,172.876467 L140.788466,172.885982 L140.651589,172.77509 L140.50117,172.687986 L140.339406,172.636749 L140.171421,172.634187 L139.958785,172.742151 L139.761521,173.112159 L139.58951,173.230371 L139.46654,173.283072 L139.387122,173.40531 L139.314291,173.548409 L139.215842,173.666987 L139.138254,173.68675 L138.971366,173.660766 L138.879505,173.699926 L138.783984,173.795447 L138.70237,173.793983 L138.618926,173.763607 L138.521209,173.765436 L138.425688,173.825823 L138.227691,173.993443 L138.154129,174.030407 L138.056412,174.004057 L137.892086,173.86169 L137.809008,173.819968 L137.702874,173.851076 L137.510733,174.045413 L137.41997,174.110191 L137.249788,174.129954 L136.414984,173.991247 L136.256514,174.009546 L136.111951,174.113119 L135.856129,174.387239 L135.791351,174.436281 L135.735721,174.492276 L135.699123,174.569498 L135.714495,174.616344 L135.822093,174.684051 L135.84881,174.724675 L135.84149,174.790917 L135.803794,174.89632 L135.793913,174.958171 L135.779639,175.115543 L135.742309,175.331838 L135.669113,175.547768 L135.549803,175.710996 L135.125264,175.841651 L134.212139,175.802125 L133.84506,176.123457 L133.719162,176.410021 L133.686224,176.66694 L133.748074,176.904462 L133.838106,177.031458 L134.07087,177.009133 L134.228609,177.059638 L134.468327,177.282155 L134.809788,177.369259 L134.965696,177.436966 L135.106233,177.472832 L135.079516,177.645575 L135.001196,177.795994 L135.505519,178.175151 L135.908465,178.383761 L135.996301,178.475622 L136.165384,178.221997 L136.163554,178.310198 L136.172704,178.398766 L136.192833,178.477452 L136.225771,178.544793 L136.186245,178.685695 L136.220647,178.992022 L136.165384,179.109502 L136.260173,179.279318 L136.302993,179.483902 L136.347277,179.923812 L136.491108,180.499135 L136.528804,180.736657 L136.530634,180.986257 L136.487448,181.232563 L136.406566,181.434951 L136.292014,181.548039 L136.126956,181.564508 L135.936279,181.514003 L135.767196,181.418481 L135.674237,181.299903 L135.222981,181.782633 L135.12929,181.797639 L135.090862,181.834969 L135.068537,181.888036 L135.018763,181.944397 L134.770994,182.103599 L134.537131,182.314039 L134.385981,182.393091 L133.823101,182.450184 L133.72392,182.543509 L133.861529,182.746995 L133.768203,183.005012 L133.728677,183.232287 L133.75576,183.440897 L133.861529,183.643651 L133.695739,183.904962 L133.695739,184.000483 L133.82859,184.038179 L133.891905,184.091612 L133.740389,184.396841 L133.764178,184.565925 L133.888245,184.83053 L133.964004,184.954597 L134.199696,185.069882 L134.207382,185.206027 L134.146263,185.344368 L134.07087,185.407317 L133.938019,185.422322 L133.860431,185.469168 L133.835544,185.544194 L133.861529,185.647401 L133.954488,185.765613 L134.040128,185.809165 L134.066845,185.848691 L133.977545,185.968001 L133.852379,186.06462 L133.59912,186.184662 L133.491887,186.294823 L133.51714,186.34423 L133.570939,186.425112 L133.576795,186.500138 L133.458949,186.534175 L133.383557,186.521731 L133.32134,186.486231 L133.275226,186.432432 L133.244118,186.366921 L133.189586,186.366921 L133.117122,186.599685 L133.065152,186.706552 L133.001472,186.774259 L132.940719,186.774259 L132.930105,186.725583 L132.885821,186.614691 L132.886919,186.736929 L132.87777,186.79878 L132.838976,186.824764 L132.759192,186.846723 L132.75297,186.901986 L132.765047,186.920651 L132.787738,186.924677 L132.818847,186.934193 L132.731011,186.976281 L132.705026,187.015441 L132.698805,187.093395 L132.759924,187.221489 L132.283049,187.633584 L132.146904,187.848415 L132.071878,188.160232 L131.874614,188.395192 L131.601591,188.528409 L131.27294,188.496569 L131.245857,188.51926 L131.177052,188.535729 L131.308806,188.717988 L131.398105,188.973443 Z M297.132222,227.171327 L297.057928,227.021275 L297.00669,226.863903 L296.925076,226.761794 L296.603744,226.810835 L296.519202,226.717144 L296.393305,226.398374 L296.257159,226.294801 L295.927776,226.264059 L295.807002,226.196352 L295.753202,226.014093 L295.870317,225.682148 L295.83445,225.494399 L295.83445,225.492203 L295.788337,225.264196 L295.805172,224.987514 L295.862997,224.712296 L295.944245,224.487949 L295.909111,224.296907 L295.710017,224.146122 L295.529222,223.945198 L295.568016,223.605201 L295.641212,223.507118 L295.949369,223.259714 L296.0394,223.114053 L296.020369,223.009749 L295.693913,222.61156 L295.472128,222.419054 L295.223993,222.3056 L294.982079,222.333414 L294.870454,222.397827 L294.725526,222.448333 L294.603654,222.434791 L294.537411,222.307796 L294.543633,222.241187 L294.579499,222.061856 L294.573277,222.005861 L294.505205,221.954623 L294.447745,221.965969 L294.385529,221.988294 L294.31709,221.965969 L294.219373,221.837875 L294.167037,221.700632 L294.135197,221.57144 L294.083594,221.468599 L293.988072,221.400527 L293.668204,221.246814 L293.56207,221.213876 L292.987478,221.281217 L292.67676,221.231809 L292.521949,220.985137 L292.55928,220.861436 L292.652605,220.745785 L292.728363,220.625743 L292.722507,220.484108 L292.67676,220.32637 L292.692497,220.182539 L292.748126,220.04676 L292.82425,219.901465 L292.82425,219.900367 L292.905498,219.738604 L293.120696,219.496324 L293.19682,219.324678 L293.27148,219.088986 L293.355656,218.945887 L293.470208,218.85366 L293.641122,218.770948 L293.690895,218.699947 L293.619529,218.489142 L293.630874,218.390693 L293.703705,218.327012 L293.861809,218.260403 L293.927319,218.172568 L293.988072,218.006778 L294.042238,217.786457 L294.072248,217.5676 L294.03382,217.028874 L294.284518,216.744873 L294.606582,216.493443 L294.805676,216.206147 L294.79982,216.027182 L294.731381,215.850047 L294.622685,215.697067 L294.497153,215.589834 L294.358446,215.537865 L294.247187,215.560556 L293.954768,215.730737 L293.510832,215.649123 L293.379811,215.589102 L293.298563,215.532009 L293.27148,215.433194 L293.301491,215.248373 L293.305516,215.143702 L293.2788,214.857871 L293.2788,214.724287 L293.393352,214.269738 L293.40177,214.075767 L293.31979,213.500444 L293.362975,213.053214 L293.362975,212.817888 L293.301491,212.631237 L293.235614,212.556943 L293.166809,212.511927 L293.006143,212.461056 L292.894519,212.403231 L292.924529,212.334792 L293.000654,212.256838 L293.039448,212.17376 L292.996262,211.969542 L292.951978,211.833763 L292.935875,211.691396 L292.971741,211.464122 L293.211093,210.64359 L293.169737,210.310181 L292.698353,210.08437 L292.554888,209.945663 L292.431918,209.774384 L292.34701,209.520392 L292.308948,209.434021 L292.278937,209.346917 L292.284061,209.251762 L292.27601,209.148921 L292.210865,209.07792 L292.129251,209.014971 L292.078013,208.934455 L292.039219,208.758418 L292.011771,208.681928 L291.963095,208.603242 L291.963095,208.601046 L292.087895,208.389143 L292.232824,208.269833 L292.317366,208.134785 L292.23502,207.68536 L292.278937,207.504199 L292.456439,207.159078 L292.385804,206.87837 L292.042147,206.635724 L291.646887,206.42748 L291.417416,206.251809 L291.407535,206.15336 L291.467556,205.94658 L291.4617,205.845569 L291.352638,205.619027 L291.322993,205.521309 L291.319699,205.418834 L291.341292,205.343808 L291.344586,205.259266 L291.238085,205.031992 L291.186848,204.790078 L291.145492,204.676989 L290.914191,204.401039 L290.860026,204.262698 L290.957377,204.125089 L291.13744,204.012367 L291.27139,203.963325 L291.410463,203.959665 L291.609191,203.984186 L291.812677,203.961495 L292.295407,203.833767 L292.508042,203.858288 L293.120696,204.162419 L293.347604,204.18145 L293.540477,204.134238 L294.000882,203.925995 L294.172527,203.800097 L294.323312,203.572822 L294.325508,203.365311 L294.292935,203.149381 L294.338683,202.893926 L294.338683,202.892828 L294.42908,202.757781 L294.43457,202.620538 L294.40456,202.473413 L294.385529,202.310917 L294.40456,202.123169 L294.443354,201.96909 L294.736871,201.377298 L294.791402,201.229075 L294.812629,201.048646 L294.766882,200.673149 L294.807506,200.542859 L295.751373,199.767344 L295.971694,199.702565 L296.107839,199.798818 L296.347557,200.161506 L296.467599,200.300579 L296.998638,200.547617 L297.169918,200.69401 L297.892,201.215168 L297.794283,201.073167 L297.691076,200.637649 L297.606534,200.493086 L297.467461,200.259955 L296.922148,199.544461 L296.873107,199.454429 L296.829921,199.416733 L296.786003,199.406486 L296.68792,199.422589 L296.641074,199.416733 L296.477846,199.315356 L296.156514,198.945349 L296.0394,199.017813 L296.006096,198.951205 L296.003534,198.821647 L295.976451,198.708925 L295.840306,198.610109 L295.766744,198.533619 L295.734171,198.432974 L295.691352,198.258401 L295.592536,198.090781 L295.363066,197.835692 L294.851423,197.388828 L293.619529,196.668576 L293.292707,196.568297 L292.993334,196.568297 L292.459,196.712494 L292.205375,196.744334 L292.023116,196.798866 L291.930157,196.811309 L291.854033,196.78569 L291.742774,196.676994 L291.654939,196.653571 L291.464628,196.702978 L291.156471,196.920006 L291.01447,196.968681 L289.94617,196.78752 L288.976318,196.251357 L288.162008,196.01969 L287.755769,195.796076 L287.64085,195.461934 L287.76382,195.347382 L288.16457,195.259912 L288.251674,195.110958 L288.193849,194.980302 L287.918997,194.639573 L287.824207,194.434623 L287.984507,194.308726 L287.848362,193.991419 L287.453102,193.476849 L287.21375,193.251404 L287.123718,193.069511 L287.183739,192.879567 L287.259863,192.750009 L287.398936,192.280821 L287.398936,192.201769 L287.039176,191.895442 L286.851428,191.68427 L286.815561,191.53129 L287.118228,191.168968 L287.311101,191.036117 L287.521906,191.01123 L287.496654,190.926322 L287.483112,190.893018 L287.453102,190.844708 L287.507267,190.864471 L287.548989,190.873987 L287.586319,190.888626 L287.64085,190.932178 L287.630237,190.652568 L287.749913,190.412118 L288.126508,189.970744 L288.057704,189.706871 L288.112601,189.634406 L288.298154,189.305755 L288.322674,189.209868 L288.275463,188.402878 L288.24655,188.208907 L288.162008,187.990416 L287.794197,187.399722 L287.704165,187.168787 L287.65549,186.901986 L287.635361,186.667392 L287.598031,186.443777 L287.496654,186.213941 L287.219239,185.864428 L286.867165,185.574571 L286.486178,185.383162 L286.104825,185.328265 L285.936107,185.166867 L285.794106,184.832725 L285.719812,184.459058 L285.75824,184.184938 L285.858885,183.879343 L285.731157,183.602295 L285.491805,183.379046 L285.248793,183.238143 L284.970647,183.162019 L284.71263,183.179952 L283.893929,183.409056 L283.766933,183.316097 L283.553566,182.793109 L283.374601,182.588525 L283.199662,182.567664 L283.003129,182.590355 L282.760849,182.513133 L283.243579,182.267193 L283.371673,182.153373 L283.491715,181.983557 L283.48037,181.922438 L283.221254,181.888036 L282.946402,181.758113 L282.518935,181.381517 L281.86456,180.935751 L281.736832,180.794848 L281.468568,180.295283 L281.401593,180.216597 L281.322541,180.185489 L281.278623,180.139375 L281.242757,180.084844 L281.188592,180.034338 L280.927281,179.946137 L280.858476,179.906611 L280.788208,179.773027 L280.736604,179.625903 L280.674021,179.549778 L280.553613,179.624805 L280.335488,179.8766 L280.169698,179.821337 L280.000615,179.63615 L279.77151,179.501103 L279.848366,179.382891 L280.021842,179.234302 L280.093574,179.14793 L280.130904,179.043626 L280.147739,178.926146 L280.178116,178.806835 L280.245457,178.696309 L280.079301,178.615427 L278.834231,178.507462 L278.387733,178.54589 L278.164118,178.620185 L277.984421,178.75816 L277.89439,178.956156 L277.809482,179.438154 L277.722012,179.628831 L277.52914,179.832316 L277.261973,180.23453 L277.076786,180.356402 L276.853171,180.36848 L275.297017,179.760218 L274.858571,179.785471 L274.646301,179.767538 L274.499177,179.628831 L274.371449,179.552706 L274.237866,179.547949 L273.960086,179.628831 L273.83126,179.571371 L273.70646,179.549778 L273.580562,179.568444 L273.452835,179.628831 L273.139188,179.728012 L272.50421,179.485732 L272.147744,179.628831 L272.024774,179.722522 L271.746628,180.121076 L271.389795,180.424841 L271.30562,180.474614 L271.196557,180.428501 L270.842653,180.099849 L270.725173,180.060323 L270.466057,180.028849 L270.362851,179.987127 L270.324423,179.9121 L270.326984,179.816579 L270.335402,179.72728 L270.324423,179.681166 L270.256716,179.680434 L270.033101,179.782543 L269.768496,179.803038 L269.654676,179.781445 L268.714103,179.386551 L268.591865,179.60797 L268.073269,180.071668 L267.981407,180.12803 L267.948469,180.391171 L267.855143,180.641136 L267.718998,180.84938 L267.556136,180.977839 L267.441218,181.016633 L267.130866,181.057623 L267.03571,181.092392 L266.844668,181.196696 L266.621419,181.279408 L265.785151,181.963794 L265.621923,182.015398 L265.392818,182.030403 L265.166641,182.083104 L264.985846,182.217786 L264.63487,182.586329 L264.468714,182.708567 L264.26962,182.810676 L264.065768,182.881677 L263.87436,182.907661 L263.733823,182.964022 L263.395656,183.200813 L263.174603,183.236313 L262.795445,183.097972 L262.656372,183.074549 L262.558655,183.114075 L261.937218,183.57997 L261.408374,184.285949 L261.299678,184.359145 L261.163533,184.405991 L260.888314,184.440027 L260.768272,184.474795 L260.432667,184.766849 L260.157449,184.939592 L259.907117,185.012788 L259.646172,184.982412 L259.338016,184.846633 L257.882506,185.807335 L257.471142,185.921521 L257.263997,186.060594 L256.945593,186.184662 L256.740643,186.231508 L256.47677,186.341668 L256.326717,186.366921 L255.970251,186.299214 L255.713698,186.125373 L255.203519,185.647401 L254.98576,185.668994 L254.427272,185.862598 L254.283441,185.968001 L254.11143,185.932135 L253.955888,185.85784 L253.427044,185.433668 L253.34543,185.407317 L253.152192,185.420492 L253.051913,185.410977 L252.812194,185.236403 L252.634693,185.262388 L252.453898,185.350956 L252.278227,185.407317 L251.923957,185.338512 L251.58579,185.144176 L251.06024,184.679379 L250.833697,184.381836 L250.704871,184.252278 L250.148579,184.118695 L250.04281,184.146876 L249.991573,184.188232 L249.958635,184.236175 L249.906665,184.285949 L249.429791,184.569585 L249.323656,184.606183 L249.146521,184.639121 L248.904241,184.794663 L248.75492,184.846633 L248.55546,184.815524 L248.280242,184.58276 L248.114452,184.526399 L247.825327,184.502244 L247.719192,184.526399 L247.495577,184.715977 L247.413963,184.766849 L246.699201,184.928979 L245.682869,184.938494 L245.514152,184.995953 L245.372517,185.119655 L245.225026,185.215542 L244.604321,185.346198 L244.408155,185.416466 L244.367165,185.446477 L244.334959,185.514915 L244.154164,185.727185 L244.048395,185.760489 L243.957997,185.834052 L243.882239,185.916032 L243.822218,185.968001 L243.726697,185.989228 L243.555417,185.992156 L243.467948,186.039733 L243.405731,185.970929 L243.26922,185.776958 L243.214688,185.727185 L243.10526,185.718035 L242.819428,185.807335 L242.701948,185.877603 L242.375492,186.199667 L242.239347,186.294823 L241.56594,186.331055 L241.465661,186.413035 L241.239119,186.390344 L240.906441,186.294823 L240.566078,186.400591 L240.386381,186.399859 L240.001734,186.055837 L239.830455,186.018506 L239.438488,186.127203 L239.2361,186.124641 L238.879268,185.998743 L238.35628,185.910176 L237.287613,185.55188 L236.867832,185.494786 L236.522345,185.647401 L236.369365,185.372549 L236.274576,185.255068 L236.154534,185.159181 L235.695959,184.933736 L235.540782,184.734642 L235.527241,183.998653 L235.298868,184.038179 L235.238847,183.957297 L235.088795,184.09271 L234.916783,184.091612 L234.770391,183.981452 L234.693535,183.790409 L234.535796,183.897276 L234.385012,184.057576 L234.251795,184.246789 L234.146026,184.440027 L234.031108,184.751843 L233.966695,184.846633 L233.901184,184.894576 L233.77492,184.943252 L233.723317,185.007299 L233.581682,184.962283 L233.227778,185.001443 L233.051008,184.933736 L232.843131,184.708658 L232.807996,184.643147 L232.442381,184.526399 L232.290498,184.410016 L232.078229,184.164809 L231.922686,184.118695 L231.715907,184.097468 L231.529622,184.038179 L231.431905,183.982916 L231.224393,183.790409 L230.906355,183.704038 L229.773276,183.717213 L229.595408,183.641089 L229.257607,183.431381 L229.066931,183.389293 L228.919806,183.306581 L228.867837,183.103828 L228.851733,182.586329 L228.701681,182.212662 L228.431952,181.978068 L227.115516,181.314909 L226.418321,181.131186 L225.655615,181.131186 L225.459082,181.097515 L225.311592,181.03969 L225.19155,181.028711 L225.075167,181.131186 L225.091271,181.148021 L225.03125,181.39762 L225.015512,181.423971 L224.985502,181.497168 L224.859238,181.712365 L224.832156,181.825819 L224.756397,181.938542 L224.287209,182.352467 L223.913907,182.561077 L223.69322,182.614876 L223.526699,182.547169 L223.450574,182.482024 L223.284419,182.4597 L223.194387,182.425297 L223.151201,182.379916 L223.06117,182.240842 L223.012128,182.184481 L222.913679,182.135806 L222.815962,182.105795 L222.740204,182.045408 L222.710193,181.906701 L222.704337,181.784463 L222.682745,181.695164 L222.632971,181.640632 L222.379346,181.576952 L221.93541,181.337599 L221.788651,181.219387 L221.505381,180.657605 L221.273349,180.498403 L220.879186,180.004328 L220.786227,179.800476 L220.752923,179.621145 L220.758778,179.234302 L220.774516,179.177575 L220.84881,178.984703 L220.879186,178.867954 L220.879186,178.383761 L220.758778,178.044495 L220.085372,177.170165 L220.025717,177.170165 L220.025717,177.331929 L219.491383,176.83639 L219.448198,176.849199 L219.35231,176.928251 L219.224217,177.069886 L219.103809,177.282155 L219.019633,177.540539 L219.000968,177.824906 L218.933261,177.824906 L218.902885,177.629472 L219.069406,177.260562 L219.055133,177.081963 L219.145165,177.044633 L219.213237,176.983514 L219.265573,176.912148 L219.303269,176.839683 L219.303269,176.759167 L219.11003,176.804183 L218.744415,177.098798 L218.535073,177.170165 L218.322804,177.202371 L217.38223,177.604219 L216.834722,177.697911 L216.496555,177.907618 L216.311734,177.987402 L215.927453,178.021073 L215.513527,177.966541 L215.120829,177.838814 L214.793275,177.655091 L214.513665,177.38463 L214.369102,177.288377 L213.981894,177.226526 L213.456344,177.009133 L213.317271,176.900802 L213.058156,176.588254 L212.801603,176.454671 L212.687416,176.294371 L212.600313,176.10406 L212.545415,175.947786 L212.668385,175.947786 L212.668385,175.866904 L212.191145,175.459566 L211.921416,175.108224 L211.681332,174.663556 L211.624605,174.480931 L211.632657,174.260244 L211.684626,173.985026 L211.761482,173.724446 L211.843096,173.54292 L212.027917,173.392135 L212.248604,173.365418 L212.728406,173.424707 L212.728406,173.343093 L212.545415,173.171082 L212.461239,173.119479 L212.327656,173.098984 L212.232501,173.130824 L212.085376,173.285634 L211.992417,173.343093 L211.735864,173.365418 L211.52945,173.277217 L211.1997,173.010416 L211.1997,172.937586 L211.240324,172.850116 L211.178473,172.766306 L211.08222,172.665295 L211.017075,172.522562 L210.949369,172.526222 L210.894837,172.520366 L210.858971,172.537202 L210.837378,172.611862 L210.725754,172.539397 L210.469567,172.492186 L210.346231,172.449 L210.290236,172.800343 L210.085286,173.201093 L209.820681,173.53194 L209.498983,173.72591 L209.164476,173.992711 L209.016619,174.074325 L208.553652,174.215228 L208.090685,174.268661 L206.913688,174.197661 L206.605531,174.094088 L206.354467,173.959041 L206.210271,173.919881 L205.880521,173.948793 L204.867118,174.244141 L201.956464,173.831313 L200.801426,173.92903 L200.550728,173.831313 L200.390062,173.890602 L198.493545,173.700658 L198.049243,173.533038 L197.844659,173.499002 L196.90189,173.499002 L196.251175,173.37896 L195.926183,173.397625 L194.514957,174.136908 L193.117273,174.608658 L192.708471,174.884975 L192.389701,175.030635 L191.762774,175.192765 L191.667253,175.137502 L191.512076,175.234121 L191.256255,175.292312 L191.005558,175.313905 L190.871608,175.299998 L190.741319,175.371365 L190.198934,175.571191 L190.054371,175.588026 L189.847225,175.482257 L189.604945,175.532762 L189.400362,175.682083 L189.297155,175.866904 L189.163205,175.802125 L189.035478,175.816398 L188.91507,175.874589 L188.812229,175.947786 L188.198843,176.272778 L188.067822,176.38733 L187.868728,176.609115 L187.713918,176.685605 L187.683907,176.66328 L187.604855,176.549826 L187.563865,176.522377 L187.514823,176.548728 L187.490303,176.603259 L187.471272,176.685605 L187.378678,176.740502 L187.30475,176.764657 L187.288647,176.839683 L186.800793,176.864204 L186.503982,176.949844 L186.367837,177.211521 L186.326847,177.271542 L185.748961,177.934701 L185.602203,178.229682 L185.356629,178.379735 L184.514871,178.661175 L184.427401,178.713144 L184.105703,178.969331 L183.023861,179.501103 L181.136127,180.759348 L179.799562,181.278676 L179.710262,181.299903 L179.659757,181.350409 L179.51739,181.571462 L179.468348,181.621235 L179.060644,181.64722 L178.868138,181.718952 L178.773715,181.870103 L178.802627,181.967088 L178.970979,182.079445 L179.010139,182.144955 L178.991108,182.286224 L178.908762,182.521551 L178.889365,182.626587 L178.880581,182.876553 L178.845081,183.065399 L178.772617,183.225699 L178.647085,183.389293 L178.158499,183.8669 L177.860956,184.055014 L177.494242,184.197747 L177.440809,184.237273 L177.42434,184.290706 L177.403845,184.33865 L177.338334,184.359145 L177.292952,184.347068 L177.206947,184.297294 L177.152781,184.285949 L176.789361,184.359145 L176.690912,184.34597 L176.500968,184.293634 L176.393003,184.285949 L176.307729,184.311567 L176.089238,184.440027 L173.80478,184.500048 L173.046466,184.359145 L172.907759,184.270943 L172.613875,184.011828 L169.689681,183.308411 L169.393236,183.080405 L169.028352,183.002451 L168.912702,182.907661 L168.813521,182.958167 L168.704092,183.140792 L168.608937,183.236313 L168.5394,183.179952 L168.479379,183.272545 L168.4146,183.407226 L168.330791,183.476763 L168.210749,183.507505 L168.003969,183.659022 L167.870752,183.717213 L167.62042,183.749785 L165.378782,183.688666 L163.018199,183.33769 L161.249409,182.921569 L159.582728,182.61085 L159.443289,182.626587 L159.354722,182.746995 L159.299092,182.746995 L159.030096,182.700882 L158.679119,182.948651 L158.34571,183.320855 L158.136368,183.643651 L158.326679,183.784554 L158.307282,183.925457 L158.199683,184.09637 L158.077445,184.542136 L157.932516,184.78771 L157.753917,184.988268 L157.591055,185.080495 L157.65437,185.232744 L157.685479,185.391946 L157.730494,185.514915 L157.832969,185.559199 L157.816134,185.605313 L157.816134,185.619586 L157.809546,185.625076 L157.772948,185.647401 L158.262266,185.910176 L158.441963,186.060594 L158.62715,186.294823 L158.809043,186.443777 L159.31117,186.680201 L159.481717,186.846723 L159.66361,186.811955 L159.867096,186.962007 L160.043133,187.175375 L160.143412,187.325427 L160.10901,187.326525 L160.085587,187.336407 L160.076804,187.362026 L160.082293,187.412531 L160.047891,187.381789 L159.960787,187.325427 L159.957128,187.441078 L159.926751,187.523789 L159.86856,187.568805 L159.783652,187.580151 L159.783652,187.652249 L160.024468,187.598816 L160.129871,187.55929 L160.203067,187.492681 L160.285779,187.565877 L160.323475,187.492681 L160.411311,187.544284 L160.484141,187.604671 L160.538307,187.687749 L160.573075,187.805595 L160.530255,187.821333 L160.50427,187.842926 L160.480481,187.867446 L160.446811,187.891601 L160.538307,187.923808 L160.581126,188.009813 L160.618823,188.118876 L160.693849,188.217325 L160.877572,188.286129 L161.02433,188.221351 L161.164867,188.115216 L161.330291,188.058855 L163.438712,187.971385 L163.619507,187.993344 L163.930592,188.104969 L164.072959,188.129855 L164.127856,188.165721 L164.306821,188.330413 L164.408564,188.377259 L164.508477,188.376161 L164.585699,188.34981 L164.650112,188.31797 L164.712329,188.297475 L165.428555,188.204516 L165.773676,188.267098 L165.864439,188.535729 L165.731222,188.754586 L165.547133,188.756416 L165.225069,188.608925 L164.21313,188.660163 L162.496675,189.050665 L162.39786,189.051397 L162.340035,188.83254 L162.206818,188.695663 L162.063719,188.626127 L161.972955,188.608925 L161.880728,188.627956 L161.778985,188.665287 L161.697371,188.725308 L161.662969,188.811679 L161.621247,188.898417 L161.523164,188.954778 L161.411173,188.999428 L161.330291,189.051397 L161.224522,189.100073 L161.139615,189.026877 L161.068614,188.917082 L161.002371,188.855231 L160.938691,188.86987 L160.755334,189.014799 L160.392646,189.217553 L160.024468,189.344183 L157.400745,189.590489 L157.258744,189.653437 L156.882515,190.03662 L156.614616,190.208998 L155.985859,190.453474 L155.681362,190.655862 L155.518501,191.01123 L156.000499,191.125416 L156.782968,191.6151 L157.252156,191.726724 L157.349873,191.689028 L157.544942,191.523604 L157.621066,191.488104 L158.105626,191.488104 L158.304354,191.538976 L158.513329,191.670363 L158.709862,191.848596 L158.86943,192.04403 L158.733284,192.115397 L158.580304,192.164072 L158.435375,192.171392 L158.324483,192.122716 L158.25824,192.257032 L158.178456,192.570678 L158.105626,192.721097 L157.983022,192.817716 L157.824918,192.851386 L157.137604,192.866757 L156.978402,192.844067 L156.825421,192.787705 L156.617544,192.656318 L156.493476,192.598127 L156.241681,192.541766 L155.972684,192.52676 L155.670017,192.433435 L155.499469,192.410378 L155.366984,192.483209 L155.230473,192.596297 L154.730176,192.677911 L154.657711,192.717071 L154.565484,192.809298 L154.487896,192.844067 L154.427143,192.829793 L154.393473,192.787705 L154.360534,192.773432 L154.305271,192.844067 L153.907083,192.648632 L153.488034,192.539936 L153.079232,192.541766 L152.718008,192.677911 L152.743261,192.573606 L152.794864,192.504069 L152.870988,192.462714 L152.966144,192.439291 L152.198314,192.468569 L151.734249,192.392445 L149.636075,192.485038 L148.887643,192.763917 L148.150921,192.832721 L147.830321,192.73903 L147.790429,192.439291 L148.020998,192.242027 L148.791755,191.844936 L148.947664,191.574842 L148.769065,191.380139 L148.376366,191.241066 L146.908779,191.01123 L146.824237,191.033555 L146.797155,191.07857 L146.772634,191.111509 L146.693582,191.097236 L146.680407,191.063565 L146.512055,190.844708 L146.425317,190.988539 L146.350291,190.969874 L146.273435,190.920832 L146.17828,190.971704 L146.032619,191.13786 L145.945881,191.202638 L145.838282,191.249484 L145.838282,191.321948 L145.918432,191.436501 L146.209022,191.726724 L146.278193,191.753075 L146.359075,191.753075 L146.423853,191.769544 L146.45057,191.848596 L146.45789,191.993159 L146.478751,192.060866 L146.518643,192.109541 L146.578298,192.201769 L146.631365,192.246784 L146.69102,192.2563 L146.739696,192.287774 L146.758361,192.404522 L146.793861,192.520905 L146.871083,192.520905 L147.002105,192.439291 L147.446406,192.592271 L147.608902,192.598127 L147.463242,192.799783 L146.984903,193.05231 L146.775196,193.362297 L146.535112,193.42122 L146.267945,193.399627 L146.08715,193.319111 L145.872319,193.439153 L145.668833,193.397065 L145.452904,193.29642 L145.204768,193.240059 L145.064597,193.272265 L144.753147,193.476849 L144.659089,193.496612 L144.408758,193.498442 L143.778537,193.343632 L143.252621,193.110501 L142.76001,192.784046 L142.377925,192.367924 L142.443436,192.334986 L142.455147,192.311563 L142.458441,192.317053 L142.499065,192.367924 L142.55872,192.367924 L142.67986,192.280821 L142.548106,191.925818 L142.456245,191.760029 L142.31095,191.645842 L142.173707,191.649502 L141.871406,191.836153 L141.673776,191.884462 L141.334145,191.871287 L141.03221,191.813096 L140.617918,191.831761 L140.345994,192.04952 L140.128235,192.327666 L139.880831,192.52676 L139.686861,192.571776 L139.180342,192.52676 L138.947212,192.397203 L138.849128,192.367924 L138.546096,192.439291 L137.77973,192.374512 L137.413748,192.397203 L137.226731,192.548353 L136.27774,193.709613 L136.165384,193.801475 L136.044976,193.867718 L135.96629,193.895532 L135.887238,193.945306 L135.494539,194.466464 L135.328018,194.609197 L135.034866,194.688981 L134.80137,194.798043 L134.679498,194.823296 L134.567508,194.817806 L134.504193,194.831714 L134.459909,194.903446 L134.401352,195.075091 L134.461007,195.245639 L134.465765,195.463764 L134.429533,195.674204 L134.373903,195.820596 L134.336207,195.856097 L134.290093,195.867442 L134.19201,195.863782 L134.161634,195.882447 L134.162366,195.925633 L134.170783,195.977237 L134.164196,196.022618 L134.134185,196.093985 L134.12284,196.242939 L134.098319,196.338095 L134.017803,196.468384 L133.644136,196.845711 L133.549346,196.903902 L133.252169,197.036388 L133.11273,197.131543 L132.638052,196.968681 L132.556804,197.050661 L132.370153,197.375653 L132.334287,197.48069 L132.31672,197.576577 L132.238034,197.734315 L132.213147,197.835692 L132.219735,197.941095 L132.266214,198.166174 L132.274632,198.236442 L132.142512,198.812131 L132.092007,198.945349 L132.229982,198.973895 L132.258163,199.076004 L132.213147,199.377573 L132.213147,199.652426 L132.185698,199.720864 L132.14361,199.746483 L132.10628,199.785277 L132.092007,199.888118 L132.131533,200.036706 L132.297689,200.356941 L132.334287,200.47991 L132.274632,201.111595 L132.198508,201.377298 L131.864366,201.70046 L131.724927,202.266633 L131.502776,202.866844 L131.540106,203.116443 L131.884495,203.292114 L132.239864,203.291016 L132.940719,203.116443 L133.036606,203.195129 L133.096261,203.21782 L133.122978,203.158531 L133.136519,203.135108 L133.217401,203.037757 L133.310726,203.024216 L133.427108,202.966391 L133.522996,202.952849 L133.991086,203.037757 L134.098319,203.037757 L134.167124,202.986886 L134.557992,202.763271 L134.648756,202.764369 L134.736957,202.66409 L134.938247,202.58028 L138.056412,202.01374 L138.278929,202.171844 L138.448744,202.096818 L138.613436,201.942008 L138.815458,201.856368 L139.071645,201.881987 L139.208157,201.96726 L139.263786,202.124998 L139.273667,202.369108 L139.152161,202.803163 L139.138254,202.922107 L139.140084,202.964195 L139.104584,202.985056 L138.590013,203.150113 L138.44728,203.262104 L138.546096,203.428992 L138.436667,203.514631 L138.319187,203.561477 L137.995659,203.585998 L138.010298,203.681519 L138.0092,203.749226 L137.995659,203.82718 L137.995659,203.897814 L138.034819,203.91099 L138.116433,203.976866 L137.175494,204.691263 L137.019952,204.927687 L136.931384,204.991734 L136.834033,205.044801 L136.784991,205.134467 L136.838059,205.311968 L136.778404,205.238405 L136.707769,205.178384 L136.625057,205.142884 L136.528804,205.148374 L136.528804,205.077008 L136.687274,205.039677 L136.697888,204.961723 L136.614078,204.91195 L136.498793,204.959893 L136.434015,205.075178 L136.380581,205.306478 L136.292014,205.396144 L136.467319,205.474464 L136.68398,205.492397 L137.110715,205.467144 L137.264427,205.537047 L137.334696,205.71162 L137.374222,205.940725 L137.443758,206.169097 L137.433877,206.286577 L137.555383,206.430774 L137.729224,206.561796 L138.072149,206.741127 L138.197315,206.837014 L138.446914,207.153222 L138.654426,207.499441 L138.724329,207.719396 L138.635029,207.816747 L138.465214,207.869814 L138.243795,207.995712 L138.042139,208.147961 L137.928318,208.284106 L138.070319,208.290328 L138.116433,208.284106 L138.116433,208.362426 L137.978824,208.553468 L137.961623,208.840032 L138.044335,209.101709 L138.210124,209.215895 L138.342244,209.265303 L138.478755,209.470985 L138.574276,209.520392 L138.690292,209.487454 L138.993691,209.308123 L139.09214,209.215895 L139.178512,209.3202 L139.244755,209.308855 L139.316487,209.251762 L139.427746,209.215895 L139.473493,209.252494 L139.563159,209.41316 L139.608175,209.449026 L139.772135,209.445366 L139.876073,209.421211 L139.975254,209.350943 L140.128235,209.215895 L140.274627,209.334474 L140.276091,209.461103 L140.128235,209.767064 L140.318545,209.821961 L140.250107,210.000194 L140.06126,210.1217 L139.880831,209.999462 L139.796289,210.093154 L139.681737,210.182453 L139.54303,210.256016 L139.395539,210.302495 L139.507896,210.589791 L139.41457,210.736916 L139.263786,210.709101 L139.208157,210.464625 L138.849128,210.619802 L138.913175,210.697024 L139.09214,211.01433 L139.152161,210.92869 L139.17595,211.046536 L139.185832,211.143155 L139.180342,211.227331 L139.152161,211.317363 L139.077501,211.236847 L139.010892,211.261734 L138.938062,211.332368 L138.849128,211.394585 L138.905124,211.548297 L138.771906,211.556349 L138.648936,211.514627 L138.444353,211.4224 L138.356883,211.421302 L138.2588,211.406296 L138.243429,211.394585 L138.230619,211.371894 L138.197315,211.332368 L138.148639,211.314069 L137.888426,211.494864 L137.430583,211.592581 L137.267721,211.703474 L137.328108,211.910619 L137.393619,212.059574 L137.570388,212.322349 L137.475233,212.323813 L137.397279,212.354555 L137.330304,212.406891 L137.267721,212.478257 L137.425825,212.594273 L137.510733,212.636361 L137.625651,212.640021 L137.608816,212.691258 L137.586857,212.817888 L137.570388,212.870589 L137.692626,212.858512 L137.802787,212.872785 L137.995659,212.942322 L137.968942,212.987338 L137.928318,213.10372 L138.109479,213.100792 L138.20866,213.020276 L138.291006,212.98075 L138.4191,213.10372 L138.38177,213.238767 L138.336388,213.517645 L138.299058,213.649765 L138.440327,213.719301 L138.564761,213.804209 L138.677483,213.906684 L138.783984,214.036607 L138.783984,214.11383 L138.644545,214.121149 L138.403729,213.970731 L138.24599,213.850689 L138.116433,213.720765 L138.225861,213.909246 L138.423858,214.065154 L138.512425,214.121149 L138.733478,214.191052 L138.852788,214.266078 L139.121053,214.701962 L139.273667,214.808463 L139.18876,214.940216 L139.218038,214.947902 L139.403591,214.86153 L139.960615,214.629132 L140.198503,214.621446 L140.426144,214.730875 L140.503,214.692813 L140.800909,214.726483 L140.972189,214.647065 L141.03221,214.730875 L141.096989,214.670488 L141.133587,214.66207 L141.219226,214.730875 L141.219226,214.808463 L140.965235,214.95449 L140.755528,215.175909 L140.549846,215.309126 L140.304272,215.193842 L140.256328,215.238126 L140.244251,215.193842 L140.139946,215.248373 L140.054306,215.232636 L139.972327,215.197502 L139.880831,215.193842 L139.82813,215.223852 L139.714675,215.325961 L139.67149,215.346822 L139.529123,215.376833 L139.09214,215.585076 L138.389089,215.655711 L138.232083,215.704386 L138.072149,215.78417 L137.942958,215.799908 L137.874153,215.655711 L137.834627,215.679134 L137.732884,215.717196 L137.692626,215.739887 L137.525738,215.281677 L137.423629,215.075264 L137.324082,214.961443 L137.267721,214.961443 L137.267721,215.039397 L137.119133,214.995114 L136.985183,215.11113 L136.884904,215.308394 L136.838059,215.501998 L136.898446,215.971553 L137.040812,216.074394 L137.097174,216.171013 L137.050328,216.31338 L136.85892,216.380355 L136.716919,216.136611 L136.562108,215.620577 L136.462195,215.447101 L136.406566,215.274724 L136.315071,215.15029 L136.104631,215.122475 L136.177461,214.959613 L136.255416,214.829324 L136.256514,214.726483 L136.104631,214.647065 L136.202714,214.584116 L136.305555,214.562889 L136.40071,214.583384 L136.469149,214.647065 L136.504649,214.634256 L136.536124,214.618518 L136.595047,214.569111 L136.547835,214.456389 L136.542711,214.349888 L136.547103,214.239727 L136.528804,214.11383 L136.481226,213.987932 L136.430721,213.926447 L136.369968,213.880699 L136.292014,213.804941 L136.066935,213.516913 L135.862351,213.188262 L135.818067,213.013688 L135.673139,212.806543 L135.371204,212.478257 L135.212734,212.346138 L135.016201,212.250982 L134.794416,212.194621 L134.55909,212.175956 L134.461007,212.198281 L134.264475,212.299658 L134.131257,212.322349 L134.045984,212.376148 L133.99987,212.50534 L133.981937,212.672227 L133.977545,212.832161 L134.079654,213.259628 L134.07087,213.334654 L134.08551,213.403459 L134.194938,213.744188 L134.219825,213.882895 L134.164196,213.804941 L134.432826,214.209717 L134.468327,214.344764 L134.409404,214.559229 L134.328522,214.673416 L134.326326,214.721359 L134.498337,214.730875 L134.56092,214.697937 L134.628627,214.547152 L134.709875,214.49994 L134.795514,214.512018 L134.912628,214.621446 L135.093423,214.686225 L135.311915,214.887149 L135.438544,214.961443 L135.303131,215.251667 L135.225543,215.265208 L135.117578,215.144434 L134.892499,215.039397 L134.892499,215.122475 L135.038526,215.248373 L135.11831,215.482601 L135.108063,215.708412 L134.985825,215.810155 L134.919216,215.843825 L134.693039,216.002296 L134.589101,216.048043 L134.482234,216.06378 L134.424409,216.062317 L134.286068,215.971553 L134.286068,216.048043 L134.362192,216.179797 L134.301439,216.254823 L134.172979,216.281174 L134.043056,216.271658 L133.987427,216.233962 L133.975715,216.183091 L133.957782,216.136611 L133.889343,216.11758 L133.816513,216.114652 L133.762348,216.104404 L133.718064,216.083178 L133.674146,216.048043 L133.748074,215.948862 L133.776255,215.84163 L133.768935,215.723417 L133.733801,215.585076 L133.686224,215.633386 L133.651455,215.659371 L133.628764,215.70585 L133.614125,215.810155 L133.492253,215.673644 L133.421985,215.797346 L133.447237,216.003759 L133.614125,216.11758 L133.614125,216.201756 L133.420155,216.251163 L133.335613,216.457577 L133.238262,216.611289 L133.001472,216.50918 L132.950966,216.683022 L132.965605,216.757316 L133.426742,216.900781 L133.511284,216.951652 L133.800044,217.193932 L134.025855,217.26969 L134.212139,217.19686 L134.286068,216.894559 L134.346455,216.894559 L134.389275,217.005818 L134.384517,217.105365 L134.360728,217.205278 L134.346455,217.31983 L134.541889,217.517094 L134.589101,217.585533 L134.648756,217.585533 L134.628627,217.535027 L134.589101,217.35533 L134.809788,217.452681 L135.024253,217.694229 L135.247868,217.880148 L135.493442,217.817199 L135.460503,217.974571 L135.476972,218.086562 L135.5337,218.178789 L135.707541,218.369832 L135.827583,218.461327 L135.919078,218.442662 L135.923104,218.207702 L136.004718,218.344945 L136.108657,218.619797 L136.165384,218.667741 L136.272983,218.619431 L136.317998,218.512199 L136.318364,218.367636 L136.292014,218.207702 L136.347277,218.207702 L136.36704,218.23698 L136.371798,218.24613 L136.413886,218.277604 L136.528804,217.547105 L136.617006,217.51197 L137.171102,217.508311 L137.340186,217.47281 L137.494264,217.411325 L137.632239,217.399614 L137.753013,217.508311 L137.732884,217.840988 L137.773142,217.978963 L137.928318,217.900277 L138.012494,218.010804 L138.20866,218.207702 L138.299058,218.35995 L138.355053,218.508539 L138.398605,218.673597 L138.406656,218.838654 L138.358713,218.981753 L138.562565,219.382137 L138.635029,219.442158 L138.710421,219.404096 L138.74702,219.323214 L138.773004,219.241966 L138.815458,219.205368 L138.873649,219.198414 L139.031753,219.134734 L139.310266,219.078738 L139.544494,219.101795 L140.001971,219.281126 L140.25889,219.32175 L140.336112,219.379941 L140.365391,219.553417 L140.386618,219.610876 L140.436757,219.64418 L140.50666,219.660649 L140.578758,219.664309 L140.667326,219.693588 L140.716733,219.760196 L140.749306,219.838883 L140.795786,219.901465 L141.015375,219.992961 L141.337439,220.048224 L141.662064,220.048224 L141.886411,219.971002 L142.126861,220.380536 L142.201888,220.631599 L142.074526,220.742858 L142.112954,220.84643 L142.118444,220.938658 L142.101975,221.030153 L142.074526,221.134092 L142.032072,221.213876 L141.91752,221.314887 L141.886411,221.356243 L141.868844,221.56778 L141.924107,221.698802 L142.006819,221.792859 L142.074526,221.898262 L142.085139,222.036603 L142.075258,222.278517 L142.041588,222.529215 L141.977907,222.700128 L141.774421,222.961073 L141.655111,223.045249 L140.892039,223.323395 L140.6988,223.348282 L140.102982,223.305462 L139.946708,223.348282 L139.863996,223.578484 L140.196307,223.753058 L140.972189,223.966059 L141.483099,224.299834 L141.613755,224.347046 L141.645595,224.473676 L141.620342,224.722909 L141.540924,224.897483 L141.401485,224.804523 L141.364887,224.931153 L141.398924,224.995932 L141.434424,225.043875 L141.401485,225.114876 L141.453821,225.286155 L141.43113,225.446455 L141.378429,225.613709 L141.341098,225.801092 L141.406975,225.715818 L141.47212,225.664946 L141.533239,225.66641 L141.58411,225.730823 L141.738189,225.686539 L141.692807,226.193424 L141.771493,226.409353 L141.771493,226.485112 L141.718792,226.497189 L141.58411,226.56087 L141.621806,226.687134 L141.604239,226.80315 L141.544584,226.914042 L141.457481,227.018347 L141.526285,227.051285 L141.549342,227.072512 L141.573863,227.064827 L141.643765,227.018347 L141.675972,227.051285 L141.689513,227.086786 L141.704152,227.167668 L141.759782,227.118992 L141.819437,227.118992 L141.882385,227.166204 L141.94753,227.251843 L142.050737,227.159616 L142.173707,227.113502 L142.695231,227.081296 L142.750128,227.034816 L142.619473,226.948079 L142.619473,226.865367 L142.837598,226.868295 L142.927995,226.773139 L142.970083,226.628576 L143.049867,226.485112 L143.19443,226.407158 L143.379251,226.40057 L143.549798,226.474864 L143.655933,226.643582 L143.449885,226.745325 L143.28556,226.925388 L143.214193,227.15193 L143.286658,227.396406 L143.476968,227.548655 L143.72547,227.590011 L143.922368,227.481314 L143.959332,227.167668 L144.025575,227.167668 L144.12622,227.350659 L144.113776,227.499979 L144.07059,227.620021 L144.080472,227.707491 L143.918342,227.909513 L143.859785,228.016013 L143.838558,228.121782 L143.879548,228.187659 L143.96775,228.138983 L144.052291,228.054076 L144.080472,228.009792 L144.281762,228.009792 L144.379845,228.108241 L144.360814,228.253536 L144.202344,228.388583 L144.332999,228.437258 L144.473536,228.362232 L144.585527,228.211814 L144.632007,228.045292 L144.675192,227.955992 L144.779131,227.92525 L144.995426,227.934033 L145.015921,227.909513 L145.019947,227.865229 L145.040442,227.832291 L145.117298,227.85242 L145.124252,227.860837 L145.233681,227.934033 L145.215747,228.016013 L145.204768,228.157648 L145.177685,228.239262 L145.128644,228.296355 L145.017019,228.375774 L144.995426,228.424449 L144.988473,228.641476 L145.039344,228.715039 L145.177685,228.76957 L145.043004,228.92255 L144.97237,228.96903 L144.873555,229.0027 L144.980421,228.778719 L144.866235,228.750905 L144.449382,228.843864 L144.449382,228.92804 L144.55332,229.004164 L144.622125,229.190449 L144.68727,229.538498 L144.727162,229.49275 L144.757172,229.478477 L144.873555,229.45725 L144.873555,229.538498 L144.779863,229.590101 L144.570888,229.584977 L144.477196,229.643168 L144.399242,229.707947 L144.215519,229.792489 L143.981291,229.958279 L143.845512,229.991217 L143.718882,229.909603 L143.58969,229.677205 L143.612015,229.655978 L143.624459,229.647926 L143.636536,229.638777 L143.655933,229.609498 L143.539551,229.655978 L143.475504,229.638777 L143.426097,229.588637 L143.353998,229.538498 L143.259209,229.533008 L143.19443,229.541425 L143.162956,229.490188 L143.165518,229.299146 L143.146852,229.325496 L143.140997,229.341965 L143.130749,229.355507 L143.105497,229.383687 L143.04145,229.312687 L142.973011,229.335012 L142.908598,229.421383 L142.862485,229.538498 L142.801732,229.538498 L142.808685,229.410038 L142.778309,229.314883 L142.714628,229.25047 L142.619473,229.221923 L142.646921,229.341965 L142.634844,229.443708 L142.615813,229.53008 L142.619473,229.609498 L142.453317,229.658906 L142.174439,229.554235 L142.074526,229.677205 L142.007917,229.609498 L142.02585,229.691478 L142.042319,229.723684 L142.074526,229.762478 L142.159068,229.697334 L142.241414,229.680133 L142.315708,229.705385 L142.377925,229.762478 L142.2663,229.892402 L142.107098,229.995975 L141.961438,230.059656 L141.886411,230.064779 L141.793086,230.296446 L141.82639,230.457112 L141.904344,230.601675 L141.94753,230.786861 L141.96034,230.979734 L142.005355,231.222014 L142.098681,231.385608 L142.256053,231.347912 L142.31095,231.432819 L142.373533,231.407933 L142.417451,231.407933 L142.499065,231.432819 L142.475276,231.389267 L142.433188,231.280571 L142.55506,231.236287 L142.661927,231.137838 L142.715726,231.016332 L142.67986,230.895192 L142.67986,230.828217 L142.791484,230.77881 L143.024981,230.729402 L143.105497,230.675237 L143.135507,230.750995 L143.15161,230.77332 L143.144291,230.783934 L143.105497,230.828217 L143.119038,230.868109 L143.136239,230.879821 L143.152708,230.882383 L143.165518,230.895192 L143.141363,230.955579 L143.127821,230.97461 L143.131481,230.993275 L143.165518,231.053296 L143.26909,230.77881 L143.286658,230.675237 L143.353998,230.675237 L143.335333,230.718789 L143.386937,230.795279 L143.522716,230.680361 L143.655933,230.675237 L143.71266,230.731598 L143.872228,230.96912 L143.959332,231.053296 L144.057781,231.083307 L144.32934,231.053296 L144.454139,231.077817 L144.546367,231.129786 L144.753147,231.280571 L144.79926,231.018162 L145.004942,230.999131 L145.25198,231.100508 L145.414476,231.197859 L145.586121,231.02109 L145.869757,230.922641 L146.153393,230.925569 L146.32943,231.053296 L146.433003,231.016332 L146.536942,231.013404 L146.627339,231.029141 L146.693582,231.053296 L146.744819,230.942404 L146.758361,230.895192 L146.814722,230.895192 L146.908779,230.931058 L147.632691,230.690974 L147.856672,230.675237 L148.118349,230.735258 L148.21387,230.742944 L148.315613,230.720985 L148.42614,230.622902 L148.523857,230.592891 L149.467724,230.742944 L149.619972,230.828217 L149.619972,230.742944 L149.595817,230.625829 L149.764169,230.585937 L150.190904,230.592891 L151.349602,230.418684 L151.438902,230.441375 L151.508804,230.49737 L151.567727,230.574592 L151.569191,230.645958 L151.308612,230.705248 L150.833202,230.895192 L150.891027,231.0511 L150.815269,231.113317 L150.673268,231.086967 L150.529437,230.97827 L150.479663,231.09209 L150.408663,231.197859 L150.529437,231.197859 L150.529437,231.280571 L150.463194,231.355597 L150.287889,231.65863 L150.246533,231.609588 L150.19127,231.579578 L150.122831,231.571526 L150.039387,231.582872 L150.039387,231.65863 L150.100872,231.688275 L150.135641,231.718285 L150.1393,231.753785 L150.110388,231.802461 L150.126857,231.856626 L150.138202,231.879683 L150.135641,231.901276 L150.110388,231.961297 L150.056588,231.816734 L150.039387,231.732558 L149.989614,231.732558 L149.904706,231.770986 L149.709638,231.672903 L149.619972,231.732558 L149.559219,231.732558 L149.513837,231.688275 L149.473214,231.66961 L149.428564,231.683151 L149.372935,231.732558 L149.309986,231.675099 L149.224712,231.656068 L149.013906,231.65863 L149.013906,231.732558 L149.189944,231.732558 L149.189944,231.802461 L149.114185,231.795141 L148.962669,231.808317 L148.887643,231.802461 L148.919117,231.8526 L148.93705,231.892492 L148.961937,231.926163 L149.013906,231.961297 L148.947664,232.042545 L148.832013,231.961297 L148.886179,232.061942 L148.958643,232.162587 L149.135046,232.345578 L149.135046,232.412919 L149.041721,232.451347 L148.965597,232.501486 L148.897524,232.527105 L148.832013,232.495996 L148.797611,232.520151 L148.771626,232.541744 L148.746008,232.557481 L148.705384,232.562971 L148.808225,232.65593 L148.861292,232.762431 L148.849581,232.828308 L148.766137,232.797565 L148.705384,232.871128 L148.872637,232.876983 L148.994875,232.89821 L149.078319,232.967015 L149.135046,233.09767 L148.970721,233.222104 L148.916555,233.285053 L148.887643,233.399971 L148.736126,233.256507 L148.590465,233.212223 L148.280479,233.250651 L148.108833,233.242233 L147.9306,233.196485 L147.787867,233.130609 L147.728944,233.057046 L147.635619,233.094743 L146.85864,233.119263 L146.738964,233.182212 L146.512055,233.399971 L146.406286,233.365203 L146.291734,233.389358 L146.166934,233.395214 L146.026397,233.318723 L145.899767,233.367033 L145.493162,233.121825 L145.299923,233.173429 L145.249052,233.307012 L145.241732,233.457065 L145.193423,233.577473 L145.023241,233.625782 L144.706301,233.604555 L144.053389,233.702272 L143.838558,233.683241 L143.756212,233.702272 L143.655933,233.776933 L143.555654,233.903928 L143.519788,234.078502 L143.441834,234.194884 L143.328745,234.245023 L143.180523,234.242095 L143.032666,234.206229 L142.923238,234.160481 L142.923238,234.229286 L142.99497,234.269178 L143.036326,234.326271 L143.036326,234.392148 L142.983625,234.460221 L143.015099,234.467174 L143.03962,234.467174 L143.052795,234.481448 L143.049867,234.531587 L143.162956,234.464978 L143.262137,234.471566 L143.331673,234.544396 L143.353998,234.680176 L143.453911,234.640284 L143.541747,234.641748 L143.744867,234.680176 L143.810011,234.705428 L143.919074,234.816687 L143.959332,234.839012 L144.003616,234.809733 L144.04241,234.756666 L144.080472,234.680176 L144.68727,234.460221 L144.732652,234.577335 L144.827807,234.585752 L144.95773,234.550252 L145.117298,234.531587 L145.268449,234.555742 L145.426919,234.612469 L145.723364,234.762522 L145.739833,234.523169 L145.862071,234.174023 L145.838282,234.078502 L145.838282,234.002011 L145.964912,233.921129 L146.150465,233.678118 L146.299054,233.625782 L146.437761,233.644447 L146.551581,233.67519 L146.654422,233.680313 L146.758361,233.625782 L146.758361,233.702272 L146.92415,233.625782 L147.099456,233.663844 L147.25573,233.757536 L147.365524,233.852691 L147.426277,233.852691 L147.492154,233.71618 L147.548515,233.738139 L147.605974,233.813897 L147.668191,233.852691 L147.733702,233.79816 L147.802141,233.713984 L147.865822,233.69971 L147.911569,233.852691 L148.041493,233.783886 L148.151653,233.678118 L148.235097,233.639689 L148.280479,233.776933 L148.340866,233.776933 L148.472253,233.704468 L148.818472,233.601627 L148.947664,233.468044 L148.992679,233.584426 L149.061484,233.598699 L149.25582,233.468044 L149.409899,233.22796 L149.486389,233.179284 L149.589596,233.160619 L149.694267,233.187702 L149.74221,233.282857 L149.754653,233.508668 L149.802231,233.702272 L149.686215,233.59321 L149.649983,233.544534 L149.619972,233.468044 L149.559219,233.550024 L149.456012,233.642983 L149.390502,233.704468 L149.372935,233.776933 L149.420146,233.846835 L149.596549,233.862572 L149.681091,233.928449 L149.675967,234.089847 L149.53543,234.18976 L149.406971,234.179147 L149.438811,234.002011 L149.350976,234.053981 L149.013906,234.078502 L149.020494,234.094971 L148.983164,234.140718 L148.929731,234.194884 L148.887643,234.229286 L148.833111,234.242095 L148.643899,234.229286 L148.705384,234.30358 L148.388078,234.380803 L148.340866,234.418499 L148.378928,234.520242 L148.46713,234.563061 L148.567043,234.563061 L148.643899,234.531587 L148.708312,234.571479 L148.810421,234.612469 L148.905576,234.623082 L148.947664,234.571479 L148.956081,234.433138 L148.981334,234.4002 L149.068804,234.460221 L149.158103,234.555742 L149.18665,234.686763 L149.155175,234.819615 L149.068804,234.912574 L149.068804,234.979915 L149.147124,234.925383 L149.316573,234.762522 L149.438811,234.912574 L149.31145,235.053477 L149.224712,235.184864 L149.122237,235.293561 L148.947664,235.370051 L148.280479,235.370051 L148.32952,235.44581 L148.354773,235.481676 L148.402717,235.514614 L148.384418,235.547186 L148.359531,235.631728 L148.340866,235.663935 L148.443707,235.776657 L148.562285,235.841802 L148.675373,235.819843 L148.766137,235.663935 L148.805663,235.762384 L148.872637,235.79825 L148.961937,235.786905 L149.068804,235.741157 L149.051968,235.703095 L149.032205,235.625873 L149.013906,235.590372 L149.091495,235.568779 L149.131021,235.547186 L149.156273,235.508758 L149.189944,235.439954 L149.426002,235.520104 L149.633148,235.353582 L149.802963,235.082024 L149.923737,234.839012 L150.083305,234.598928 L150.257512,234.464978 L150.717186,234.30358 L150.699252,234.247951 L150.687907,234.245023 L150.645819,234.229286 L150.681685,234.194884 L150.703644,234.164873 L150.714624,234.133399 L150.717186,234.078502 L150.774645,234.127177 L150.833202,234.160481 L150.891027,233.991032 L151.015827,233.955532 L151.157096,234.005671 L151.263596,234.078502 L151.206503,233.827438 L150.854429,233.560271 L150.892491,233.318723 L150.768789,233.206367 L150.743902,233.045335 L150.802825,232.865272 L150.926527,232.683745 L151.067064,232.620796 L151.205039,232.685941 L151.332035,232.799761 L151.438902,232.871128 L151.438902,232.94835 L151.208333,232.99117 L151.11391,233.037649 L151.075482,233.135733 L151.112446,233.23345 L151.206503,233.26346 L151.438902,233.250651 L151.420603,233.19063 L151.384004,233.015325 L151.438902,233.015325 L151.528201,233.081201 L151.99007,233.318723 L152.160618,233.310672 L152.253943,233.196485 L152.320918,233.032526 L152.414243,232.871128 L152.32531,232.784756 L152.241134,232.779632 L152.166473,232.803787 L152.111576,232.797565 L152.051921,232.737544 L151.994462,232.658858 L151.988606,232.592982 L152.0812,232.562971 L152.338485,232.532961 L152.516352,232.478795 L152.597234,232.377784 L152.615899,232.277871 L152.657621,232.269088 L152.698977,232.337892 L152.718008,232.454274 L152.728621,232.490141 L152.75058,232.508806 L152.773271,232.538816 L152.783519,232.604327 L152.764488,232.642389 L152.722766,232.650075 L152.663111,232.646049 L152.693121,232.879545 L152.762292,232.985314 L152.888921,233.015325 L153.087284,233.015325 L153.087284,233.09767 L152.966144,233.173429 L153.065325,233.212223 L153.154258,233.22064 L153.239898,233.242233 L153.329198,233.318723 L153.301383,233.045335 L153.492791,232.934077 L153.756664,232.97836 L153.868655,233.105722 L153.890614,233.19063 L153.891346,233.203439 L153.941485,233.250651 L153.949171,233.166475 L153.96198,233.117067 L154.002238,233.015325 L154.062625,233.015325 L154.027125,233.081201 L154.027125,233.117067 L154.046522,233.141954 L154.062625,233.173429 L154.035542,233.184774 L154.010656,233.184774 L153.998578,233.197949 L154.002238,233.250651 L154.096661,233.355688 L154.119718,233.558807 L154.08312,233.776933 L154.002238,233.928449 L154.115326,234.23075 L154.178641,234.30358 L154.290266,234.134863 L154.407746,234.094971 L154.503267,234.176219 L154.548283,234.380803 L154.609402,234.380803 L154.874007,234.242095 L155.269999,234.323709 L155.593893,234.547324 L155.638909,234.839012 L155.791889,234.789604 L155.882652,234.828398 L155.972684,234.906718 L156.123834,234.979915 L156.123834,235.062627 L155.988055,235.094833 L155.912663,235.171323 L155.913395,235.269406 L156.003426,235.370051 L156.116881,235.397134 L156.268763,235.383593 L156.36465,235.326499 L156.312681,235.214875 L156.44297,235.113498 L156.594121,234.942585 L156.651214,234.756666 L156.493476,234.612469 L156.548007,234.765449 L156.528976,234.865362 L156.477739,234.949904 L156.428331,235.062627 L156.373068,235.062627 L156.341228,235.015415 L156.251196,234.912574 L156.312681,234.839012 L156.26181,234.805341 L156.236557,234.775331 L156.190443,234.680176 L156.301336,234.650165 L156.304263,234.571479 L156.279377,234.471566 L156.312681,234.380803 L156.37563,234.340179 L156.44846,234.317854 L156.614616,234.30358 L156.614616,234.229286 L156.553863,234.229286 L156.553863,234.160481 L156.672807,234.042635 L156.837499,233.840979 L156.981696,233.732283 L157.045011,233.891119 L157.134676,233.99396 L157.826748,234.284915 L158.378282,234.680176 L158.432813,234.743124 L158.492834,234.828398 L158.54151,234.923919 L158.561639,235.021271 L158.505278,235.107642 L158.399509,235.137653 L158.326679,235.099957 L158.378282,234.979915 L158.378282,234.912574 L158.242869,234.974791 L158.130146,235.135457 L158.018888,235.241958 L157.893722,235.133627 L157.835165,235.236468 L157.755015,235.439954 L157.705974,235.514614 L157.801495,235.678208 L157.851268,235.822405 L157.813938,235.928173 L157.651808,235.971359 L157.846877,236.002102 L158.272879,235.836678 L158.378282,235.971359 L158.444159,235.971359 L158.542974,235.92122 L158.59165,236.108603 L158.62715,236.492883 L158.62715,236.574497 L158.550294,236.59609 L158.495396,236.626101 L158.378282,236.72455 L158.378282,236.792622 L158.511865,236.865453 L158.626418,237.010382 L158.679119,237.197764 L158.62715,237.400152 L158.656794,237.413694 L158.670702,237.413694 L158.676923,237.425039 L158.682047,237.473715 L158.579572,237.487256 L158.491736,237.528612 L158.423664,237.595952 L158.378282,237.699525 L158.465752,237.699525 L158.525407,237.715994 L158.62715,237.782603 L158.561639,237.849578 L158.808311,237.849578 L158.808311,237.931192 L158.782326,237.981331 L158.774274,238.01061 L158.808311,238.154807 L158.929817,238.072827 L159.076209,238.260575 L159.607615,238.430025 L159.723265,238.568732 L159.802683,238.730496 L160.385326,239.280933 L160.447177,239.201515 L160.495853,239.269221 L160.550384,239.383773 L160.627606,239.435743 L160.694581,239.40317 L160.731911,239.340954 L160.763019,239.263731 L160.809499,239.197855 L160.854881,239.149179 L160.877206,239.119169 L160.912706,239.092818 L161.002371,239.053658 L161.058367,239.067931 L161.092769,239.116973 L161.126439,239.133442 L161.178775,239.053658 L161.210981,239.356691 L161.255631,239.457336 L161.360668,239.353763 L161.916228,239.673265 L162.154482,239.72743 L162.870708,239.716085 L163.063947,239.803189 L162.966962,239.795503 L162.87327,239.808312 L162.785069,239.838323 L162.706383,239.885534 L162.706383,239.952875 L163.158004,239.885534 L163.225711,239.937138 L163.23486,240.035587 L163.182159,240.094876 L163.063947,240.035587 L163.152148,240.263594 L163.457011,240.408888 L163.493609,240.631771 L163.639636,240.438167 L163.646224,240.399373 L163.739549,240.384368 L163.768096,240.343744 L163.775049,240.290676 L163.80323,240.253712 L163.910463,240.200645 L164.018793,240.184908 L164.124928,240.220774 L164.227769,240.334594 L164.266563,240.285919 L164.293646,240.269449 L164.408564,240.253712 L164.380383,240.296532 L164.362816,240.332398 L164.336831,240.364605 L164.288522,240.399373 L164.288522,240.483183 L164.44626,240.457198 L164.585699,240.394615 L164.713427,240.296532 L164.832737,240.17649 L164.651576,240.17649 L164.651576,240.102928 L164.869701,240.031927 L164.954609,240.035587 L164.960098,239.981422 L164.947655,239.964221 L164.923866,239.964221 L164.894222,239.952875 L165.01829,239.88773 L165.350601,239.811972 L165.500654,239.72743 L165.618134,239.607388 L165.662783,239.583234 L165.742933,239.580306 L165.856388,239.598971 L165.959961,239.634471 L166.060606,239.643255 L166.168204,239.580306 L166.299592,239.598971 L166.9009,239.280933 L166.9009,239.197855 L166.712419,239.197855 L166.832095,239.149179 L166.918467,239.185045 L166.987272,239.245066 L167.052416,239.280933 L167.386192,239.353763 L167.389851,239.277273 L167.386192,239.197855 L167.512455,239.280933 L167.510991,239.190901 L167.567719,238.980462 L167.621884,239.129782 L167.633229,239.197855 L167.688127,239.197855 L167.695446,238.969848 L167.729483,238.809182 L167.812926,238.713295 L168.480111,238.598743 L168.664566,238.607526 L169.604407,239.040483 L169.815945,238.980462 L169.920981,239.076349 L169.95941,239.266659 L169.944038,239.72743 L170.198762,239.503815 L170.318438,239.361449 L170.413959,239.116973 L170.524119,239.0134 L170.646723,238.919709 L170.737121,238.829677 L170.672342,238.811012 L170.656971,238.784661 L170.649651,238.781001 L170.610857,238.829677 L170.549372,238.829677 L170.655507,238.60167 L170.893761,238.394525 L171.020391,238.236421 L170.792384,238.154807 L170.858261,237.999996 L170.730899,237.9268 L170.633548,237.771258 L170.618909,237.583143 L170.737121,237.400152 L170.729069,237.302069 L170.921576,237.002696 L171.029906,236.612559 L171.163124,236.44311 L171.464327,236.189118 L171.442368,236.062123 L171.56424,235.673084 L171.585833,235.439954 L171.525812,235.514614 L171.47494,235.385788 L171.410527,235.296489 L171.35746,235.181937 L171.342455,234.979915 L171.362218,234.822543 L171.399914,234.710918 L171.455909,234.620155 L171.525812,234.531587 L171.525812,234.460221 L171.42846,234.296261 L171.417115,234.10046 L171.464327,233.738139 L171.464327,233.399971 L171.506415,233.310672 L171.622797,233.117067 L171.747597,232.770483 L171.986217,232.535888 L172.501153,232.18784 L172.859083,232.465986 L173.046466,232.577244 L173.294236,232.646049 L174.750111,232.562971 L178.31148,233.100598 L178.626224,233.282857 L178.647085,233.550024 L178.904004,233.598699 L180.579103,234.344936 L180.70866,234.495721 L180.856883,234.617227 L181.533217,234.91843 L181.716208,234.94844 L181.824905,234.934167 L181.939457,235.04323 L182.11403,235.287705 L182.454759,235.435196 L182.536373,235.514614 L182.697405,235.484604 L182.945175,235.523032 L183.171352,235.607207 L183.271997,235.703095 L183.348487,235.811791 L183.525622,235.836678 L183.885016,235.822405 L183.934424,235.852415 L183.988955,235.901091 L184.056662,235.95123 L184.152183,235.971359 L184.256122,235.975385 L184.33188,235.98856 L184.394463,236.021133 L184.939776,236.574497 L185.070431,236.653915 L185.182422,236.833978 L185.337598,237.173609 L185.362119,237.179099 L185.481795,237.227775 L185.511805,237.266569 L185.612816,237.437848 L185.713827,237.571798 L185.748961,237.650484 L185.762503,237.740515 L185.871565,238.056358 L186.411022,238.527376 L186.618168,238.829677 L186.643055,238.925564 L186.678189,239.239211 L186.716251,239.302159 L186.882773,239.414516 L186.920835,239.470145 L186.996959,239.479661 L187.410885,240.035587 L187.552886,240.120129 L187.73551,240.170634 L187.891053,240.236511 L187.956198,240.367898 L188.049157,240.465982 L188.724759,240.855386 L188.885059,240.901134 L189.206757,240.931144 L189.782081,241.305178 L190.122444,241.470236 L190.918454,241.659082 L191.302003,241.683237 L191.774119,241.316523 L191.847316,241.196481 L191.950889,241.160615 L192.520356,240.849896 L192.69493,240.86051 L193.283062,241.005073 L193.56377,240.991165 L193.678323,241.005073 L193.759937,241.043501 L193.787385,241.075707 L193.822885,241.075707 L193.920603,241.005073 L194.043572,240.849896 L194.125186,240.677519 L194.234249,240.54174 L194.439199,240.483183 L194.531792,240.507337 L194.722469,240.607617 L194.831165,240.631771 L194.93181,240.624086 L195.193853,240.550157 L195.588016,240.561869 L195.784548,240.536616 L195.948874,240.339352 L196.133694,240.364605 L196.476619,240.483183 L196.608007,240.45244 L196.921653,240.290676 L197.114892,240.253712 L197.294223,240.274939 L197.672648,240.378146 L197.877598,240.399373 L197.877598,240.483183 L197.757556,240.550157 L197.950428,240.587488 L198.14513,240.397909 L198.343126,240.136232 L198.550638,239.952875 L198.675438,239.898344 L198.792918,239.874189 L198.87746,239.917009 L198.90747,240.067793 L199.130719,240.416574 L199.158168,240.483183 L199.206843,240.405961 L199.264302,240.109149 L199.308586,239.994231 L199.577949,239.69742 L199.640898,239.648744 L199.946127,239.520285 L200.03323,239.503815 L200.142293,239.457336 L200.27002,239.226401 L200.370299,239.13637 L200.343217,239.092818 L200.316134,239.073421 L200.248428,239.053658 L200.397748,239.008276 L200.485218,238.912755 L200.643688,238.642294 L200.779833,238.533232 L200.888896,238.558119 L200.99503,238.636805 L201.128248,238.681088 L201.311239,238.80113 L201.44775,239.079277 L201.49057,239.380846 L201.406394,239.580306 L201.406394,239.648744 L201.561936,239.644718 L201.610978,239.56896 L201.616467,239.438671 L201.648308,239.280933 L201.722602,239.143689 L201.888758,238.919709 L201.910351,238.849806 L201.88034,238.879817 L201.828737,238.899946 L201.924624,238.664619 L202.166538,238.577516 L202.439194,238.522984 L202.619257,238.381715 L202.635361,238.086368 L202.589247,237.737587 L202.613768,237.4459 L202.921558,237.274986 L203.234473,236.948531 L203.420392,236.863257 L203.502006,236.792622 L203.539702,236.683194 L203.616558,236.517404 L204.378898,235.541697 L204.657044,235.304907 L205.61372,234.705428 L206.393262,234.002011 L206.66848,233.852691 L206.7113,233.806211 L206.798769,233.598699 L206.850739,233.550024 L207.122663,233.399971 L207.22404,233.359347 L207.491207,233.318723 L208.07934,233.040577 L208.460693,232.955303 L208.719808,233.09767 L208.768483,233.015325 L209.496055,233.399971 L209.861305,233.789742 L209.986837,233.852691 L209.940723,234.026166 L209.922058,234.078502 L210.041002,234.02397 L210.182637,233.996156 L210.330494,233.98847 L210.472494,234.002011 L210.64963,234.067156 L210.932534,234.263688 L211.178473,234.350792 L213.423406,235.703095 L213.548205,235.741157 L213.649948,235.786905 L213.789021,235.999906 L213.877589,236.045654 L213.897718,236.012715 L214.126091,235.822405 L214.317133,235.757626 L214.398747,235.708218 L214.432051,235.625873 L214.475237,235.579393 L214.687141,235.463011 L214.761435,235.439954 L215.148644,235.487165 L215.521213,235.590372 L215.215618,235.460083 L215.142788,235.433 L215.055318,235.415799 L215.079839,235.317716 L215.158891,235.244886 L215.278933,235.214875 L215.366037,235.256597 L215.644183,235.514614 L215.753246,235.535841 L216.039443,235.514614 L216.123985,235.493021 L216.257202,235.394938 L216.344306,235.370051 L216.412379,235.321376 L216.42592,235.197674 L216.429214,235.058967 L216.466544,234.94844 L216.521075,234.859873 L216.598297,234.664438 L216.649535,234.571479 L216.981846,234.229286 L216.846067,234.263688 L216.726025,234.340179 L216.330765,234.799486 L216.210723,234.882564 L216.19462,234.762522 L216.336255,234.508896 L216.581096,234.320782 L217.10445,234.078502 L216.988068,234.032022 L216.894743,234.067156 L216.807639,234.127177 L216.709922,234.160481 L216.644045,234.102656 L216.613669,233.996156 L216.562431,233.931011 L216.436534,234.002011 L216.483379,234.073378 L216.493627,234.149136 L216.477523,234.229286 L216.436534,234.30358 L216.417868,234.250147 L216.393348,234.206229 L216.360409,234.176219 L216.311734,234.160481 L216.284285,234.337983 L216.085191,234.277962 L215.95234,234.460221 L215.89488,234.290771 L215.976494,234.15792 L216.104222,234.02397 L216.19462,233.852691 L216.267084,233.903928 L216.29746,233.946748 L216.290141,234.002011 L216.254275,234.078502 L216.352358,234.010429 L216.456297,233.802551 L216.559503,233.702272 L216.880835,233.582962 L217.620119,233.550024 L217.957554,233.468044 L218.093333,233.359347 L218.387582,233.018984 L218.47798,232.94835 L218.622543,232.906994 L218.741853,232.808911 L219.249103,232.18784 L219.553966,231.915549 L219.867613,231.798069 L220.20578,231.885539 L220.534797,232.121963 L220.840392,232.427192 L221.366308,233.173429 L221.453778,233.365203 L221.48635,233.534287 L221.480494,234.229286 L221.48635,234.30358 L221.521484,234.422158 L221.565036,234.517314 L221.600536,234.623082 L221.60566,234.762522 L221.562474,234.931239 L221.472809,235.157782 L221.366308,235.353582 L221.273349,235.439954 L221.134276,235.469964 L220.178331,236.079324 L220.085372,236.086278 L220.019495,236.20083 L219.60008,236.72455 L219.526884,236.76737 L219.175541,236.89034 L219.11552,236.944139 L219.072334,236.999036 L218.965102,237.070769 L218.91606,237.299507 L218.87324,237.400152 L218.794554,237.466029 L218.638646,237.547277 L218.56545,237.623767 L218.458949,237.8913 L218.415031,237.931192 L218.311458,237.939975 L218.215937,237.969986 L218.128467,238.026347 L218.052343,238.114183 L217.810429,238.473211 L217.799084,238.650346 L217.897899,238.899946 L218.006229,239.029137 L218.151158,239.163452 L218.273396,239.305087 L218.374773,239.644718 L218.483836,239.828441 L218.605342,239.988375 L219.227145,241.021176 L219.469425,241.778392 L219.480404,241.969801 L219.384883,242.052147 L219.000968,242.730311 L218.900689,242.879997 L218.979375,242.90708 L219.154314,242.871214 L219.333279,242.805337 L219.508219,242.778986 L219.619477,242.904152 L219.622405,243.046519 L219.595322,243.187788 L219.614353,243.318078 L219.71756,243.408841 L219.853705,243.441779 L220.131486,243.449465 L220.395724,243.571703 L220.910661,243.9472 L221.082306,243.915726 L221.181487,243.594028 L221.235653,242.825466 L221.432185,242.507428 L221.717285,242.402391 L221.930652,242.463144 L222.072653,242.430206 L222.145849,242.045559 L222.145849,242.042631 L222.148777,242.042631 L222.322618,241.971997 L222.674327,242.10924 L222.862442,242.045559 L222.840483,241.735572 L222.867565,240.151969 L222.883669,239.991303 L222.935272,239.909689 L223.006638,239.836859 L223.019814,239.74024 L222.892086,239.590919 L222.995293,239.487346 L223.107283,239.620198 L223.218908,239.699616 L223.33895,239.74024 L223.584158,239.776106 L223.636127,239.792575 L223.685535,239.792575 L223.761659,239.757441 L223.801917,239.694126 L223.81619,239.61544 L223.846201,239.544439 L223.946846,239.511501 L224.109707,239.484418 L224.783114,239.590919 L224.952198,239.594579 L225.58132,239.474537 L225.632924,239.380846 L225.625604,239.13637 L225.592666,238.980462 L225.529717,238.798203 L225.442979,238.628753 L225.33904,238.508711 L225.194477,238.45235 L224.903156,238.422339 L224.813124,238.334504 L224.851553,238.332308 L224.903156,238.230565 L224.960615,238.067703 L224.963909,237.969986 L224.952198,237.88764 L224.928043,237.811882 L224.883759,237.737587 L224.840573,237.708309 L224.7015,237.64536 L224.638551,237.590097 L224.58951,237.505921 L224.423354,236.909737 L224.399199,236.726746 L224.436529,236.563152 L224.704428,236.140809 L224.74432,235.663935 L224.737366,235.173519 L224.856676,234.70799 L224.963909,234.452169 L224.992822,234.233678 L225.000507,234.021408 L225.039301,233.776933 L225.151658,233.560271 L225.295854,233.365203 L225.396499,233.152202 L225.363561,232.882473 L225.448103,232.876983 L225.529717,232.888329 L227.175903,233.457065 L227.734391,233.492199 L227.906402,233.534287 L228.082806,233.604555 L228.248595,233.69971 L228.385473,233.827438 L228.658861,234.078502 L228.726202,234.219405 L228.737181,234.452169 L228.658861,234.805341 L228.690701,234.931239 L228.859419,235.082024 L229.034358,235.176447 L229.115972,235.151926 L229.186973,235.048353 L229.323118,234.909646 L229.48964,234.835352 L229.636398,234.846697 L229.783157,234.889883 L229.949679,234.912574 L230.514023,234.768377 L230.710189,234.751176 L232.153987,235.015415 L232.523995,235.021271 L233.832013,234.179147 L234.372203,233.939794 L235.843815,233.625782 L237.26602,232.973969 L237.514156,232.906994 L238.535611,232.254814 L239.132894,232.02388 L239.43556,231.993869 L240.018569,232.067798 L241.705013,232.574316 L242.143094,232.819524 L243.34205,234.078502 L243.882239,234.362137 L244.505872,234.440824 L245.950036,234.372751 L246.146202,234.314926 L246.609901,234.283451 L247.975379,234.740197 L248.451522,234.721166 L253.119253,233.830366 L255.024554,233.113408 L255.906936,232.586028 L256.229366,232.476599 L256.561312,232.412919 L256.893623,232.257742 L258.700475,231.045611 L258.879806,230.933986 L259.067555,230.864084 L259.263721,230.822362 L259.465743,230.811016 L259.874179,230.694634 L261.060326,230.034037 L261.501334,229.866783 L263.166185,229.620112 L265.283756,230.045382 L265.681212,230.208976 L265.872254,230.26058 L268.346657,230.144197 L273.046229,229.032711 L273.436,228.79958 L274.10355,228.170458 L274.55078,227.583057 L274.67924,227.504371 L274.842468,227.374813 L274.942747,227.494489 L274.954458,227.625877 L274.937257,227.734573 L274.948968,227.783981 L275.06901,227.80228 L275.338373,227.934033 L275.389976,227.909513 L275.444874,227.849492 L275.504895,227.800816 L275.558694,227.816553 L275.597488,227.876574 L275.643236,227.985271 L275.68203,228.045292 L275.984331,228.287572 L276.044352,228.32051 L276.101811,228.462877 L275.943341,229.08102 L276.044352,229.221923 L276.114986,229.290728 L276.131089,229.445904 L276.136213,229.762478 L276.534401,229.715999 L277.04458,229.547281 L277.807286,229.419188 L277.948555,229.353677 L277.981493,229.293656 L278.090556,228.993185 L279.202043,227.370056 L279.238275,227.282586 L279.248156,227.206096 L279.265357,227.127776 L279.322451,227.037012 L279.379544,226.996754 L279.818356,226.819619 L279.897408,226.810835 L280.003543,226.824377 L280.079301,226.882568 L280.117729,227.07544 L280.193853,227.130338 L280.930208,227.374813 L281.286675,227.427149 L281.665466,227.296493 L281.891643,227.127776 L282.232372,226.979553 L282.588838,226.884764 L282.864056,226.859511 L283.017403,226.903795 L284.186348,227.532917 L284.245637,227.55451 L284.320298,227.565856 L284.398618,227.548655 L284.48316,227.464113 L284.55965,227.430077 L284.72544,227.405556 L284.83194,227.427149 L285.186211,227.702367 L285.548899,227.881698 L285.959896,228.223525 L286.104825,228.279886 L286.219011,228.266345 L286.440064,228.181803 L286.548761,228.163504 L286.662581,228.181803 L286.736875,228.219133 L286.897541,228.342103 L287.123718,228.435795 L287.335988,228.462877 L288.24655,228.399928 L288.480413,228.422253 L288.690852,228.476418 L288.776858,228.535708 L288.968632,228.720894 L289.033045,228.764446 L289.145401,228.735168 L289.306067,228.571574 L289.782576,228.487032 L290.053768,228.173386 L290.316909,227.789471 L290.641169,227.511325 L291.041919,227.448742 L291.507814,227.528526 L292.363113,227.881698 L292.565135,228.01272 L292.709332,228.163504 L292.813271,228.352717 L292.889029,228.610002 L292.933313,228.852282 L292.944292,228.990989 L292.933313,229.099685 L292.859751,229.227779 L292.772647,229.269135 L292.668342,229.2878 L292.556718,229.353677 L292.407031,229.547281 L292.330907,229.77236 L292.325783,230.009882 L292.390196,230.239353 L292.749956,231.045611 L292.807049,231.160529 L292.887199,231.225674 L293.256841,231.320829 L293.365903,231.312777 L293.450811,231.230797 L293.532059,231.045611 L293.534987,231.045611 L293.671132,230.80882 L293.703705,230.634613 L293.775071,230.508715 L294.52753,230.26058 L294.761392,230.132852 L294.982079,229.961207 L295.19691,229.688184 L295.516412,229.385517 L295.862997,229.135552 L296.145169,229.0027 L296.311691,228.993185 L297.244212,229.124938 L297.420615,229.21497 L297.53041,229.408574 L297.584941,229.191913 L297.53041,229.004164 L297.445868,228.816782 L297.419152,228.592801 L297.480636,228.394439 L297.589333,228.298551 L297.712303,228.227551 L297.818804,228.091772 L297.845886,227.731646 L297.64423,227.497783 L297.132222,227.171327 Z M130.98967,195.382882 L130.98967,195.146458 L130.933675,195.146458 L130.801921,195.251495 L130.641621,195.300536 L130.553054,195.255155 L130.631008,195.075091 L130.593312,194.98323 L130.59075,194.838301 L130.607951,194.688249 L130.631008,194.592728 L130.631008,194.513675 L130.508038,194.490985 L130.438867,194.415958 L130.391656,194.329221 L130.33383,194.275787 L130.223304,194.261514 L130.112045,194.280545 L129.34568,194.566011 L128.742176,194.680563 L128.386807,194.906008 L128.096218,195.211969 L127.892,195.54062 L127.892,195.611987 L128.255786,195.738982 L128.301168,195.800833 L128.405838,195.860854 L128.619206,195.935881 L128.804759,195.948324 L129.605527,195.824256 L129.997493,195.652245 L130.595141,195.559651 L130.795333,195.489017 L130.98967,195.382882 Z M145.769844,189.993069 L146.105449,189.941465 L146.268677,189.818495 L146.225491,189.615741 L145.99968,189.494601 L145.742761,189.454343 L145.60259,189.492771 L145.368362,189.373461 L145.136329,189.373461 L144.907591,189.454343 L144.68727,189.565236 L144.659821,189.439338 L144.610414,189.408962 L144.546733,189.448488 L144.477196,189.52937 L144.436938,189.656731 L144.487078,189.754814 L144.547465,189.839356 L144.522212,190.088956 L144.662383,190.215585 L144.838786,190.29171 L144.935405,190.295735 L145.13267,190.382839 L145.308341,190.309277 L145.60259,190.049796 L145.769844,189.993069 Z M145.460589,191.422593 L145.445584,191.341711 L145.151335,191.210324 L145.078504,191.314263 L145.004576,191.461753 L144.908323,191.546295 L144.926622,191.675121 L145.053252,191.762224 L145.218309,191.77723 L145.366532,191.811266 L145.491698,191.880437 L145.590147,191.861771 L145.592343,191.767714 L145.55794,191.734044 L145.48694,191.740632 L145.398372,191.660847 L145.411914,191.525434 L145.460589,191.422593 Z M131.607447,199.377573 L131.61806,198.975725 L131.567921,198.863003 L131.418966,198.945349 L131.375415,198.885328 L131.33662,198.870689 L131.293435,198.870689 L131.237439,198.858977 L130.919401,198.856415 L130.756539,198.891183 L130.687003,198.985241 L130.737508,199.122118 L130.856818,199.213979 L131.116299,199.338047 L131.406523,199.537141 L131.547792,199.550317 L131.607447,199.377573 Z M199.949054,240.080603 L200.03323,239.997159 L199.976137,240.026437 L199.949054,240.080603 Z M149.725741,235.413603 L149.759411,235.433 L149.781736,235.408845 L149.748066,235.389448 L149.725741,235.413603 Z M137.034957,214.062958 L137.029101,214.397465 L137.077045,214.463342 L137.284922,214.551178 L137.306149,214.614127 L137.373124,214.674148 L137.481821,214.614127 L137.514759,214.477615 L137.496094,214.39344 L137.36983,214.262418 L137.358485,213.969267 L137.29151,213.83422 L137.178422,213.745652 L137.111813,213.720765 L137.09205,213.726987 L137.096076,213.830194 L137.068993,213.970731 L137.034957,214.062958 Z M153.245754,191.157623 L153.358476,191.104921 L153.448874,190.671233 L153.506333,190.622557 L153.496817,190.566196 L153.450337,190.526304 L153.399466,190.518984 L153.245754,190.56034 L153.279424,190.752847 L153.220867,191.069421 L153.245754,191.157623 Z M162.83777,240.348867 L162.785801,240.318125 L162.793852,240.247856 L162.804466,240.157825 L162.745543,240.151969 L162.665027,240.209428 L162.575727,240.32947 L162.555964,240.403033 L162.523758,240.536616 L162.492649,240.593343 L162.483134,240.655926 L162.491917,240.655926 L162.623671,240.624086 L162.648558,240.610178 L162.687352,240.574678 L162.706383,240.561869 L162.716996,240.514657 L162.87327,240.433043 L162.864853,240.364605 L162.83777,240.348867 Z M158.611779,187.153416 L158.631542,187.125601 L158.656062,187.10657 L158.671068,186.953956 L158.536752,186.982868 L158.50784,187.012879 L158.50052,187.066312 L158.471607,187.110596 L158.452942,187.142436 L158.45221,187.228076 L158.445623,187.31701 L158.563835,187.397892 L158.59165,187.215633 L158.611779,187.153416 Z M163.349047,240.547595 L163.383815,240.532956 L163.340263,240.493064 L163.349047,240.547595 Z M164.183119,240.463054 L164.111387,240.54174 L164.076618,240.646045 L164.08467,240.646045 L164.151645,240.610178 L164.245336,240.54174 L164.302429,240.497456 L164.272785,240.476595 L164.183119,240.463054 Z M161.904151,240.220774 L161.827294,240.283723 L161.88146,240.323615 L161.9488,240.343744 L161.956852,240.315197 L161.997842,240.318125 L162.033708,240.289212 L161.983203,240.244929 L161.904151,240.220774 Z M165.278503,239.941164 L165.165048,239.997159 L165.105393,240.029731 L165.029635,240.091948 L164.974372,240.116469 L165.00182,240.151969 L165.067697,240.121959 L165.157729,240.106221 L165.249956,240.078407 L165.317297,240.067793 L165.373292,240.086458 L165.434777,239.982886 L165.440999,239.964221 L165.49004,239.961293 L165.519685,239.909689 L165.591783,239.862478 L165.61667,239.798431 L165.447586,239.89139 L165.278503,239.941164 Z M160.588446,239.639595 L160.616261,239.703276 L160.691653,239.644718 L160.703364,239.594579 L160.649199,239.620198 L160.588446,239.639595 Z M161.456921,239.653136 L161.496081,239.620198 L161.533045,239.56896 L161.456921,239.596043 L161.456921,239.653136 Z M156.807488,234.531587 L156.768328,234.484375 L156.730998,234.508896 L156.705745,234.658949 L156.765766,234.786676 L156.806024,234.743124 L156.864582,234.664438 L156.884711,234.6315 L156.948757,234.612469 L156.97035,234.560866 L156.848478,234.520242 L156.807488,234.531587 Z M143.619701,231.137838 L143.684114,231.209204 L143.715222,231.315705 L143.784027,231.337298 L143.84112,231.361453 L143.898579,231.375726 L143.968482,231.438675 L143.993734,231.445629 L144.026673,231.405005 L144.110117,231.359257 L144.113776,231.282035 L144.026673,231.21689 L143.952378,231.182122 L143.857955,231.161993 L143.773047,231.122101 L143.665815,231.064642 L143.583469,231.018162 L143.51686,231.073425 L143.547969,231.100508 L143.619701,231.137838 Z M141.293521,224.613481 L141.215933,224.487949 L141.170185,224.436346 L141.208979,224.374861 L141.172015,224.323257 L141.084179,224.349242 L141.133587,224.452815 L141.260216,224.705708 L141.275954,224.681553 L141.251433,224.643491 L141.283273,224.662888 L141.319871,224.722909 L141.393434,224.773049 L141.293521,224.613481 Z M133.798214,215.085877 L133.83225,215.073068 L133.877998,215.056599 L133.933261,215.028052 L133.977911,215.055135 L134.019633,215.037934 L134.0372,214.916428 L134.080752,214.832252 L134.032076,214.733437 L133.933993,214.772963 L133.869946,214.825664 L133.76491,214.867386 L133.781745,214.951562 L133.798214,215.085877 Z" id="Fill-3"></path>
        </g>
    </g>
</svg>