
<svg width="50px" height="115px" viewBox="0 0 50 115" version="1.1" xmlns="http://www.w3.org/2000/svg" xmlns:xlink="http://www.w3.org/1999/xlink">
    <!-- Generator: Sketch 51.2 (57519) - http://www.bohemiancoding.com/sketch -->
    <desc>Created with Sketch.</desc>
    <defs></defs>
    <g id="Page-1" stroke="none" stroke-width="1" fill="none" fill-rule="evenodd">
        <g id="VC-EPS-01-0001" transform="translate(-306.000000, -145.000000)" >
            <path d="M347.12482,219.35716 L347.12068,219.48044 L347.18094,219.53564 L347.24028,219.47216 L347.24028,219.35716 L347.18462,219.29782 L347.12482,219.35716 Z M344.20888,221.79746 L344.26408,221.73812 L344.26822,221.6153 L344.20888,221.55964 L343.966,221.55596 L343.90666,221.62312 L343.90666,221.73398 L343.97428,221.79332 L344.20888,221.79746 Z M344.32802,222.27356 L344.20428,222.26988 L343.9108,222.57164 L343.90666,222.80946 L344.32388,223.22208 L344.4467,223.22208 L344.68912,223.58732 L344.79584,223.58732 L344.9826,223.40056 L344.97432,223.28602 L345.21628,223.16274 L345.22042,222.56336 L344.80412,222.51184 L344.32802,222.27356 Z M348.3153,215.42922 L348.07334,215.07594 L348.0692,214.7153 L347.8944,214.65596 L347.77526,214.77786 L347.54112,214.65182 L347.48178,214.83398 L347.12068,215.06766 L347.06134,215.2466 L346.4661,215.24292 L346.28394,215.07226 L346.22828,214.65182 L345.875,215.00832 L345.69284,215.06766 L345.57002,215.78664 L345.0976,216.38188 L345.09346,216.73424 L345.33588,216.97252 L345.4587,217.21448 L345.33174,217.33408 L345.33956,217.57236 L345.21214,217.81018 L345.03826,217.86492 L344.62472,218.2826 L344.6215,218.76606 L344.97846,219.2348 L345.0424,219.77806 L345.875,219.88938 L345.93112,220.30568 L346.11328,220.48784 L346.40676,220.30982 L346.40676,220.07154 L346.29268,219.95654 L346.70438,219.4165 L346.88286,219.35348 L346.76694,219.1152 L347.002,218.76606 L346.88654,218.64324 L346.88286,218.29042 L346.76326,218.163 L347.002,217.80604 L347.12482,217.09212 L347.77894,216.67858 L348.2555,216.67444 L348.4303,216.50424 L348.55358,216.02078 L348.31162,215.79032 L348.3153,215.42922 Z M343.14444,181.31378 L343.26404,181.31378 L343.43884,181.12748 L343.43884,181.01202 L343.38364,180.95314 L343.25576,180.95314 L343.14122,180.82986 L343.02208,180.82986 L342.96228,180.89334 L343.08234,181.00834 L343.07774,181.24616 L343.14444,181.31378 Z M347.29916,219.17914 L347.24028,219.2348 L347.4229,219.4165 L347.47396,219.35716 L347.47396,219.2348 L347.41876,219.17914 L347.29916,219.17914 Z M347.3033,218.70258 L347.1285,218.88106 L347.12482,219.00434 L347.18462,219.05954 L347.41876,219.0554 L347.59678,218.8852 L347.59678,218.76238 L347.53744,218.70258 L347.3033,218.70258 Z M341.7051,227.98308 L341.64944,228.04288 L341.6453,228.1657 L341.7051,228.22136 L341.94752,228.2255 L342.0064,228.1657 L341.82378,227.98722 L341.7051,227.98308 Z M346.28716,213.52114 L346.28716,213.40568 L346.23242,213.35002 L346.11328,213.34588 L346.04612,213.40568 L346.04612,213.52114 L346.11328,213.58416 L346.22828,213.58784 L346.28716,213.52114 Z M341.6453,228.64226 L341.6453,228.51898 L341.58596,228.45964 L341.47096,228.45964 L341.41116,228.52312 L341.41116,228.63766 L341.46728,228.70574 L341.58596,228.70574 L341.6453,228.64226 Z M338.2528,201.91488 L338.19806,201.97054 L338.19346,202.086 L338.2528,202.14488 L338.37194,202.14488 L338.4276,202.08922 L338.43128,201.97422 L338.37194,201.91488 L338.2528,201.91488 Z M343.02208,192.73374 L342.54184,192.97524 L342.24836,193.26918 L342.2525,193.86764 L342.13336,194.10224 L341.95534,194.28486 L341.59792,194.28854 L341.47924,194.16572 L341.12182,194.16158 L340.87572,194.40768 L340.64112,194.40354 L339.9272,195.11378 L339.45892,195.23338 L339.21282,195.59402 L339.03434,195.64968 L339.03434,195.7725 L338.86,195.82816 L338.38022,196.3084 L336.95146,197.01864 L336.77666,197.20126 L336.78034,197.79604 L337.0706,198.20866 L338.26522,198.08584 L338.5587,198.26846 L337.9837,199.3398 L337.7767,199.64938 L337.6617,199.64938 L337.06278,200.24002 L336.46754,200.2368 L336.35254,200.12134 L336.22558,200.24416 L335.03878,200.24416 L334.92378,200.12134 L334.5636,200.12548 L333.73376,200.60572 L333.61462,200.60572 L333.4918,200.36744 L333.1376,200.3633 L332.8961,200.7244 L332.66242,200.83572 L332.06626,200.83986 L331.94022,200.96268 L331.59108,200.95854 L331.41214,201.13748 L331.47194,201.31182 L332.41586,201.3201 L332.54282,201.19682 L332.78524,201.07354 L334.44768,201.20096 L334.5636,201.31596 L335.15746,201.31182 L335.75638,201.6766 L336.11426,201.66878 L336.70582,202.0262 L337.06646,202.03034 L337.18192,202.15316 L337.54256,202.14902 L337.8365,201.84726 L337.89584,201.67292 L338.19806,201.49398 L338.19346,201.13334 L338.48694,200.95854 L339.0302,201.13334 L338.9106,201.49398 L339.08218,201.67292 L339.44282,201.55332 L339.6213,201.3753 L339.61808,200.77592 L340.03806,200.48244 L340.28048,200.4783 L340.51416,200.12548 L340.86744,200.00634 L341.29202,199.3398 L341.06156,198.86784 L341.64944,198.62588 L341.65312,198.2726 L341.53398,198.14932 L341.53812,197.9115 L341.7764,197.43954 L341.47464,197.26474 L341.23268,197.2606 L341.12596,197.13732 L340.75658,197.13732 L340.70138,196.96298 L340.87572,196.7845 L341.30352,196.72102 L341.35596,196.30426 L341.95166,196.3084 L342.07034,196.07012 L342.48664,195.89118 L342.49078,195.6575 L342.6642,195.47534 L342.89926,195.47902 L343.02576,195.59402 L343.32016,195.53054 L343.20424,195.29272 L343.20424,194.93944 L343.08234,194.81616 L343.08234,194.46334 L343.32016,194.22552 L343.31556,193.62982 L343.44252,193.39154 L343.02208,192.73374 Z M342.23732,227.20982 L342.24008,227.9242 L342.53448,227.98308 L342.6021,227.9242 L342.72032,227.69006 L342.65684,227.15416 L342.23732,227.20982 Z M342.18166,226.91588 L342.0662,226.9122 L342.0064,226.97154 L342.0662,227.03502 L342.18166,227.03916 L342.24008,226.97154 L342.18166,226.91588 Z M342.30034,226.79306 L342.35968,226.73372 L342.30034,226.67806 L342.18534,226.67806 L342.11772,226.74154 L342.18166,226.80134 L342.30034,226.79306 Z M346.29268,214.23552 L346.29268,214.35788 L346.34742,214.41354 L346.4661,214.41722 L346.52498,214.35788 L346.52498,214.23552 L346.4661,214.17986 L346.34282,214.17986 L346.29268,214.23552 Z M354.14304,204.60082 L354.08416,204.54148 L353.85048,204.65648 L353.60852,204.5378 L353.54872,204.71996 L353.25524,204.88648 L353.01696,205.24758 L352.8348,205.31106 L352.83848,205.6648 L353.25524,206.08524 L353.48938,205.8511 L354.08416,205.7315 L354.26264,205.54934 L354.25804,204.8391 L354.14304,204.60082 Z M353.01282,206.20806 L352.95394,206.26372 L352.95808,206.50154 L353.01696,206.5572 L353.2511,206.56134 L353.3109,206.50568 L353.3109,206.2674 L353.25524,206.20806 L353.01282,206.20806 Z M351.22756,204.6528 L351.16822,204.71628 L351.16454,204.83082 L351.22388,204.89062 L351.35038,204.89062 L351.40972,204.83542 L351.40972,204.71996 L351.34256,204.6528 L351.22756,204.6528 Z M351.3467,205.25126 L351.23124,205.25126 L351.1719,205.30738 L351.16822,205.43066 L351.22756,205.48954 L351.3467,205.48954 L351.41386,205.43388 L351.4065,205.31106 L351.3467,205.25126 Z M355.58376,159.58614 L355.58376,158.27698 L355.70336,158.16152 L355.70336,157.0865 L355.58376,156.96322 L355.46508,155.41164 L355.3464,155.2971 L355.3418,153.87248 L355.22726,153.7538 L355.11226,152.32872 L354.92964,152.02328 L354.74702,151.9644 L354.39328,150.89674 L354.03678,150.53104 L353.9135,150.17822 L353.67982,149.9404 L353.6766,149.58758 L353.43418,149.22648 L353.32286,148.63492 L353.44154,148.5121 L352.9613,147.91686 L352.9613,147.67858 L353.32286,147.44444 L353.31918,146.96052 L353.14438,146.78986 L352.90196,146.78572 L352.78282,146.67072 L352.42632,146.78204 L352.30718,146.66658 L351.94976,146.67072 L351.77082,146.49224 L351.77496,146.37724 L352.1287,146.01568 L351.95436,145.71484 L351.59648,145.59524 L351.35038,145.83352 L351.11624,145.83766 L350.99802,145.95266 L350.40186,145.9568 L350.2243,145.5359 L349.9897,145.42136 L349.92254,145.23874 L349.3388,145.2346 L349.2123,145.11914 L348.8627,145.12328 L348.7362,145 L347.4298,145 L347.31158,145.12328 L346.83548,145.11914 L346.47484,145.36156 L345.99414,145.35742 L345.87914,145.4807 L345.3989,145.4761 L344.51432,146.25074 L344.33584,146.55158 L344.09296,146.66658 L343.25576,146.54376 L342.90248,147.024 L342.60992,147.20248 L342.49078,147.44076 L342.49078,148.15468 L342.12968,148.3971 L341.89186,148.8732 L341.89186,149.10734 L341.77226,149.23016 L341.7764,149.82126 L341.59792,149.99974 L341.18162,150.06368 L341.18162,150.90042 L341.29984,151.01542 L340.4631,151.73026 L340.10568,152.79332 L339.987,152.91614 L339.98286,153.27724 L339.8674,153.40052 L339.7524,153.98794 L339.09368,154.6462 L338.6185,154.76902 L338.32042,155.05882 L338.31674,155.7732 L338.44324,155.89602 L338.43956,156.37212 L338.56238,156.48758 L338.6737,157.2015 L338.14194,157.8639 L337.43078,157.98304 L337.07474,157.61826 L336.8958,157.79674 L336.8958,158.15784 L336.71824,158.3285 L336.48318,158.33586 L336.12208,158.57 L334.93206,158.57 L334.62616,158.98722 L334.63444,159.46332 L334.87272,159.70114 L334.87272,160.06224 L334.27334,160.77248 L334.27702,161.25686 L334.57832,161.4312 L334.87686,161.85164 L334.57418,162.03012 L334.214,162.02598 L334.03874,162.68148 L333.08332,163.1493 L332.96372,163.5104 L333.32804,164.22432 L333.32528,164.4626 L332.9076,164.52654 L332.67438,164.40326 L332.60262,164.7041 L332.8455,164.94284 L332.6109,165.05784 L332.60676,165.65676 L332.8455,166.13286 L332.84872,166.96224 L332.49176,167.68076 L332.48716,168.15686 L332.72958,168.39468 L332.72176,169.10906 L332.48716,169.21992 L332.25716,170.1804 L332.3648,170.2954 L332.36848,170.7715 L333.03134,170.83084 L333.32068,171.128 L333.20568,172.08112 L333.85612,172.26374 L333.92006,172.67176 L333.56724,173.15568 L333.67396,173.27068 L333.67764,173.63178 L334.03874,173.74724 L334.03552,173.98506 L334.45228,174.28314 L335.16574,174.28314 L335.3479,174.46116 L335.34422,174.82272 L335.52684,174.9966 L335.64598,174.87424 L335.7021,174.9414 L335.7021,175.17968 L335.5825,175.29054 L335.76466,175.47316 L335.8838,175.35816 L336.3599,175.35402 L336.5945,175.47316 L336.89166,175.88992 L337.01494,176.2547 L336.71364,176.42996 L336.65384,176.6043 L337.01034,176.84212 L337.01034,176.96494 L336.65798,177.20322 L336.65798,177.44104 L336.82864,177.61216 L337.55038,177.61584 L337.66584,177.73498 L337.90412,177.49716 L338.14562,177.50084 L338.26522,177.37756 L338.975,177.38216 L339.8076,177.73084 L340.10568,178.15128 L340.10154,178.51284 L339.8674,178.75066 L339.87568,178.98434 L339.62958,179.22308 L339.3913,179.69458 L339.3913,179.81786 L339.68984,180.11548 L340.16548,180.12008 L340.40284,179.87766 L340.76394,179.87766 L340.8794,179.75438 L341.35964,179.75852 L341.47464,179.6357 L341.95166,179.76266 L342.13336,179.937 L342.19224,180.23048 L342.4273,180.23462 L342.78334,180.4729 L343.02576,180.47704 L343.73232,181.07182 L344.20888,181.19096 L344.45084,181.42924 L344.6928,181.42924 L344.87496,181.7264 L344.68912,181.78206 L344.39472,182.08382 L344.39472,182.19928 L344.6928,182.38144 L344.92694,182.25816 L345.28022,182.2623 L345.52218,182.02034 L345.64086,182.14362 L345.875,181.90534 L346.4776,182.02402 L346.59674,181.9012 L346.83134,181.90534 L346.95462,182.14362 L347.4298,182.13948 L347.54572,182.2623 L348.02596,182.14362 L348.31944,181.7264 L348.44226,181.01202 L348.6212,180.71026 L348.91422,180.64724 L348.9179,180.1831 L349.27164,179.81418 L349.39032,179.46458 L350.04858,178.81 L350.1645,178.9296 L350.63968,178.9296 L351.18018,178.27088 L351.17558,178.0326 L351.53668,177.68346 L351.52886,177.43736 L351.65628,177.32236 L351.65628,176.48516 L351.77082,176.36602 L351.77496,175.88992 L351.65168,175.77446 L351.65628,175.42164 L351.77082,175.29836 L351.8941,173.75092 L352.0091,173.6281 L352.01324,173.267 L352.4852,172.91786 L352.4898,172.43394 L352.60848,172.32308 L352.60848,171.96152 L352.72762,171.84652 L352.9659,171.25128 L353.43832,170.7715 L353.55286,169.94212 L354.03678,169.22406 L354.03678,168.87124 L354.15546,168.7475 L354.15132,168.03772 L354.39006,167.55334 L354.50506,166.84356 L354.63156,166.7281 L354.62328,166.60482 L355.70336,165.65308 L355.69968,164.82784 L355.57686,164.70088 L355.4614,163.51408 L355.3418,163.3954 L355.3418,162.56188 L355.58376,162.32406 L355.58376,161.72468 L355.46508,161.60968 L355.4614,161.01076 L355.3464,160.8953 L355.3418,160.4192 L355.22726,160.29638 L355.3418,160.18506 L355.58376,159.58614 Z M354.44112,204.8989 L354.38132,204.95456 L354.38132,205.06956 L354.44112,205.13304 L354.55704,205.13672 L354.62328,205.06956 L354.62788,204.94628 L354.56072,204.89062 L354.44112,204.8989 Z M353.43418,204.59346 L353.37484,204.5378 L353.2511,204.5378 L353.19222,204.59346 L353.19222,204.71628 L353.25524,204.77148 L353.43418,204.59346 Z M348.49746,181.6712 L348.43812,181.7264 L348.4349,181.8414 L348.49378,181.9012 L348.7362,181.9012 L348.79508,181.84554 L348.79508,181.72318 L348.73942,181.66338 L348.49746,181.6712 Z M348.49378,215.01246 L348.4349,215.06766 L348.4303,215.3064 L348.48964,215.37356 L348.66858,215.18726 L348.66858,215.07226 L348.60878,215.01246 L348.49378,215.01246 Z M338.01038,203.10122 L337.96346,203.15688 L338.13826,203.33904 L338.19346,203.27648 L338.19806,203.16102 L338.13826,203.10122 L338.01038,203.10122 Z M347.95788,212.68716 L347.95052,212.32652 L347.77526,212.1554 L347.5333,212.15126 L347.24028,212.45348 L347.65704,212.7511 L347.95788,212.68716 Z M349.3273,216.0838 L349.25922,216.13946 L349.25922,216.37774 L349.3273,216.43708 L349.4423,216.43708 L349.5021,216.38188 L349.5021,216.1436 L349.43816,216.0838 L349.3273,216.0838 Z M352.18022,211.3228 L352.00128,211.49714 L352.17608,211.79062 L352.41804,211.79476 L352.59652,211.50082 L352.42218,211.31866 L352.18022,211.3228 Z M352.00496,211.26714 L351.94608,211.19906 L351.878,211.263 L351.878,211.37846 L351.94608,211.4378 L352.00496,211.3826 L352.00496,211.26714 Z M346.82306,212.6315 L346.70438,212.51696 L346.28716,212.68348 L346.29268,213.04458 L346.35156,213.10392 L346.8272,212.86978 L347.17634,212.98524 L347.24718,212.8063 L347.06548,212.6315 L346.82306,212.6315 Z M352.60066,207.3346 L352.41804,207.15198 L351.88628,207.09264 L351.88214,206.50154 L352.11628,206.25544 L352.12042,206.02958 L352.24324,205.90584 L352.18022,205.72414 L351.81866,205.7315 L351.76346,205.54934 L351.58866,205.48954 L351.46952,205.72782 L351.16822,205.78348 L350.92994,206.37918 L351.05368,206.4974 L351.04908,206.85528 L351.28368,207.09724 L351.2915,207.3346 L351.52886,207.69616 L351.52518,208.04898 L351.40972,208.17226 L351.46584,208.58074 L351.7078,208.58488 L351.94194,208.3466 L352.83848,208.28772 L352.83066,207.81116 L352.60066,207.3346 Z M341.59378,228.8212 L341.52616,228.8764 L341.52248,229.11376 L341.5901,229.17356 L341.64944,229.11376 L341.64116,228.88008 L341.59378,228.8212 Z M316.34622,259.16694 L316.28688,259.22582 L316.34622,259.28148 L316.47318,259.28562 L316.53298,259.22582 L316.47318,259.17016 L316.34622,259.16694 Z M316.22754,258.56756 L316.11668,258.68992 L315.87426,258.68992 L315.4023,258.32514 L315.16034,258.33342 L314.86686,258.63472 L314.9814,258.74972 L314.99014,259.10346 L315.52144,259.40016 L315.99754,259.16694 L316.23168,259.16694 L316.41338,258.988 L316.22754,258.56756 Z M315.10468,248.5092 L315.10468,248.27092 L314.92206,248.21112 L314.80246,248.0883 L314.68792,248.09658 L314.62858,248.15592 L314.62858,248.3942 L314.80246,248.57268 L315.03706,248.57636 L315.10468,248.5092 Z M317.30302,250.71122 L316.7708,250.17578 L316.70778,249.64356 L316.29884,249.94578 L316.29424,250.05664 L316.52884,250.18314 L316.3545,250.3538 L316.11254,250.11598 L315.69578,250.17946 L315.69578,251.01252 L315.5817,251.12752 L315.5817,251.2508 L315.10146,251.60776 L315.1562,251.7821 L315.39862,251.7821 L315.5817,251.96518 L315.5817,252.20346 L315.10146,252.79824 L315.10146,253.03606 L315.75972,253.08804 L315.9934,252.97626 L316.17234,252.67128 L316.17234,252.32214 L316.29056,252.08386 L316.71192,251.7821 L316.94606,251.7821 L317.0606,251.66342 L317.5367,251.66342 L317.72392,251.48494 L317.60386,250.77102 L317.30302,250.71122 Z M320.874,252.14366 L320.75854,252.25912 L320.6394,252.25912 L320.57224,252.32214 L320.57224,252.55996 L320.75486,252.74258 L320.8694,252.74258 L321.28984,252.318 L321.28984,252.20346 L321.2351,252.13952 L320.874,252.14366 Z M319.08414,248.57636 L319.02848,248.63202 L319.03308,248.74702 L318.9098,248.8703 L318.90566,248.99266 L318.96546,249.04832 L319.26676,248.74702 L319.27136,248.63202 L319.2111,248.57636 L319.08414,248.57636 Z M320.99636,252.85804 L320.81788,253.03606 L320.81788,253.27434 L320.874,253.33414 L320.99268,253.33414 L321.16656,253.1552 L321.17162,252.91738 L321.11182,252.84976 L320.99636,252.85804 Z M308.07358,256.36508 L308.07726,256.25054 L308.01838,256.19074 L307.90292,256.19074 L307.84358,256.25054 L307.84358,256.36094 L307.89924,256.42856 L308.01838,256.42856 L308.07358,256.36508 Z M307.29986,255.94878 L307.36702,255.89312 L307.37162,255.7703 L307.304,255.7105 L307.18486,255.7105 L307.12552,255.7703 L307.12552,255.89312 L307.18486,255.94878 L307.29986,255.94878 Z M307.42682,257.4999 L307.48294,257.43688 L307.48662,257.32142 L307.419,257.26208 L307.18486,257.26208 L307.01052,257.44102 L307.06572,257.4999 L307.42682,257.4999 Z M337.12626,157.32432 L337.01034,157.0865 L336.721,156.78842 L336.5347,156.96782 L336.94778,157.50326 L337.12626,157.32432 Z M312.65978,256.1866 L312.5411,256.30988 L312.4261,256.19488 L311.8235,256.19074 L311.70896,256.06792 L311.47436,256.0716 L311.1128,256.30988 L310.99826,256.18292 L310.39888,256.19074 L309.86712,255.6553 L309.85884,255.41656 L309.98626,255.1792 L309.68772,254.7583 L309.21162,254.76198 L309.0336,255.18288 L308.84684,255.35308 L308.1412,255.35722 L307.89924,255.23026 L307.7801,255.35308 L307.54642,255.35308 L307.3638,255.53202 L307.4788,255.6553 L307.42682,256.1866 L307.66096,256.06792 L308.19272,256.13554 L308.1964,257.07946 L307.42682,257.6149 L306.70462,257.7345 L306.29568,258.1508 L306.292,258.38908 L306.5933,258.69406 L307.42682,258.9282 L307.54228,259.04366 L308.26034,259.16234 L308.3758,259.28562 L308.60948,259.28562 L309.08972,258.68992 L309.56536,258.5717 L309.80778,258.09514 L310.28802,257.97646 L310.39888,258.4521 L310.75952,258.44428 L311.47022,258.09928 L311.58568,258.21474 L312.06132,258.20692 L312.18874,258.09514 L312.72372,258.03166 L312.71958,257.55602 L312.90174,257.37708 L313.13634,257.37708 L313.42982,257.1986 L313.4335,256.7225 L313.01766,256.1866 L312.65978,256.1866 Z M313.6129,257.2584 L313.5531,257.32142 L313.5531,257.55142 L313.62072,257.61904 L313.7279,257.61904 L313.79506,257.55602 L313.79506,257.32556 L313.73158,257.2584 L313.6129,257.2584 Z M309.86344,258.98386 L309.74384,259.22582 L309.62516,259.81784 L309.80778,260 L310.1008,259.82152 L310.03732,258.92406 L309.86344,258.98386 Z M313.96986,256.5477 L313.73618,256.54402 L313.67592,256.61164 L313.67592,256.84118 L313.84658,257.02012 L313.97308,257.0238 L314.03334,256.96446 L314.02552,256.6029 L313.96986,256.5477 Z M321.34596,251.31014 L321.23096,251.31014 L320.93656,251.6119 L320.81788,251.96518 L321.22682,252.02452 L321.40944,251.84558 L321.40484,251.36948 L321.34596,251.31014 Z M331.11084,201.08182 L331.05518,201.13748 L331.0515,201.25202 L331.11084,201.30768 L331.2263,201.31182 L331.28518,201.25202 L331.28886,201.13748 L331.22998,201.08182 L331.11084,201.08182 Z M333.1376,206.90588 L332.95222,206.96982 L332.96004,207.44592 L333.01524,207.50572 L333.37588,207.50572 L333.43614,207.44178 L333.42832,207.20396 L333.1376,206.90588 Z M332.06626,229.0512 L331.99956,229.11054 L332.12652,229.22554 L332.00692,229.3479 L332.00324,229.58664 L332.1854,229.76512 L332.42,229.76926 L332.71762,229.35204 L332.42,229.05534 L332.06626,229.0512 Z M330.75342,200.95486 L330.69454,201.01006 L330.69454,201.13334 L330.75342,201.20096 L330.8767,201.19268 L330.93604,201.13748 L330.93604,201.01466 L330.88084,200.95486 L330.75342,200.95486 Z M338.07478,202.5621 L338.07478,202.44664 L338.01866,202.38684 L337.77302,202.38684 L337.7169,202.4425 L337.7169,202.5575 L337.89998,202.7484 L338.07478,202.5621 Z M337.89584,203.21668 L337.3006,203.22036 L337.00298,203.75212 L337.00298,203.99822 L337.18606,204.05342 L337.30428,203.93428 L337.78038,203.93428 L338.07478,203.7558 L338.19346,203.51384 L338.01866,203.46232 L337.89584,203.21668 Z M321.7112,252.01716 L321.6514,252.08386 L321.6514,252.32214 L321.8262,252.5043 L321.94074,252.5043 L322.001,252.4376 L322.001,252.19932 L321.8262,252.02084 L321.7112,252.01716 Z M337.47908,204.9426 L337.3006,204.64452 L336.70582,204.52584 L336.4036,204.9426 L336.40774,205.18042 L336.1736,205.4187 L336.1736,205.54106 L335.75316,205.9546 L335.39206,205.9546 L334.67814,206.31938 L334.444,206.31524 L334.02724,206.60918 L334.0231,206.73154 L334.32118,207.15198 L334.68228,207.14416 L334.92378,207.0333 L335.39574,206.55352 L335.6975,206.72786 L335.8125,207.08942 L335.9873,207.14416 L336.22926,206.91094 L336.46386,207.02548 L336.8245,207.02962 L336.88384,206.61286 L336.76838,206.37504 L336.88798,206.13676 L336.76102,206.0213 L336.7647,205.7752 L336.9395,205.605 L337.3006,205.59672 L337.59454,205.4187 L337.12166,205.06496 L337.47908,204.9426 Z M334.8051,253.81438 L334.73748,253.88108 L334.73748,253.99654 L334.91964,254.17502 L334.97944,254.11936 L334.98404,253.87418 L334.91642,253.81438 L334.8051,253.81438 Z M322.59992,243.51314 L322.54012,243.4538 L322.42558,243.4538 L322.25032,243.63274 L322.2471,243.87102 L322.30598,243.9299 L322.42098,243.9299 L322.59992,243.75188 L322.59992,243.51314 Z M322.0723,244.04904 L322.00514,244.10884 L322.001,244.34712 L322.0677,244.40232 L322.2471,244.22384 L322.2471,244.10884 L322.17902,244.05318 L322.0723,244.04904 Z M322.54426,253.81024 L322.48124,253.9924 L322.54012,254.04852 L323.01668,254.04438 L323.07648,253.86958 L323.01668,253.81438 L322.54426,253.81024 Z M327.83748,238.51018 L328.07944,238.39886 L328.19904,237.91494 L327.95616,237.79948 L328.0753,237.68448 L327.83334,237.43884 L327.77768,237.26404 L327.429,237.14904 L327.06744,237.50646 L326.88114,237.56166 L326.77028,237.92276 L326.59594,238.09342 L326.1111,238.09802 L325.6396,237.49772 L325.27804,237.50232 L325.0393,237.14904 L324.80608,237.14904 L324.74214,237.56534 L324.50892,237.91494 L324.51214,238.62932 L324.61886,238.7526 L324.50892,238.98996 L324.8093,239.16476 L325.21502,239.70848 L325.22698,240.53786 L325.34198,240.77522 L325.57566,240.89068 L325.57566,241.72742 L324.92062,242.26332 L324.32952,242.25964 L324.2067,242.02136 L324.08756,242.02136 L324.02776,242.3153 L323.73474,242.6166 L323.49278,242.73988 L323.01254,242.73574 L322.42558,242.2555 L321.94074,242.14832 L321.8262,241.91096 L321.53226,242.08116 L321.52812,242.44226 L321.82942,242.6212 L322.18684,242.6166 L322.6036,243.0375 L322.71906,243.39078 L323.13168,243.81168 L323.49278,243.8149 L324.32952,243.21184 L324.80608,243.21598 L325.16258,243.5688 L325.6396,243.57294 L325.69112,243.39446 L326.1709,243.03336 L326.17458,242.44686 L326.28958,242.2003 L326.17458,242.0853 L326.16676,241.84702 L326.29326,241.73156 L326.40918,241.01028 L326.52418,240.89896 L326.52832,240.53786 L326.2859,240.2959 L326.46484,240.1165 L326.7068,240.12064 L326.83376,239.99828 L328.13464,240.12064 L328.3099,239.94216 L328.19444,238.8676 L327.83748,238.51018 Z M328.19444,237.43884 L328.19444,237.56166 L328.24964,237.62146 L328.3099,237.56166 L328.3099,237.43884 L328.25378,237.38364 L328.19444,237.43884 Z M325.45698,241.13678 L325.45698,241.01442 L325.39718,240.94634 L325.15522,240.95462 L325.09542,241.01028 L325.1037,241.13264 L325.27804,241.30698 L325.45698,241.13678 Z M327.5394,240.24024 L327.48052,240.2959 L327.48052,240.41872 L327.5394,240.47852 L327.7142,240.29912 L327.65854,240.24024 L327.5394,240.24024 Z" id="Fill-3"></path>
        </g>
    </g>
</svg>