<svg width="175" height="115"><path d="m0 0 1.889-1.679.789-.431.408-.43.301-.503.254-.885.32-.335.426-.235.473-.167 1.306-.153.32-.096.155-.211.386-.75 1.584-2.344 6.774-6.168.111-.205.54-.402.124-.211.101-.861.191-.899.277-.738.906-1.501.568-.651.335-.321.469-.315.556-.138.531.234.54.334.469-.086.417-.248.444-.139 1.765-1.095 1.445-.517.431-.307.315-.292 1.321-1.885.264-.239.224-.124.164-.167.152-.302.195-.642.155-.306.066-.344.139-.306.335-.182.363-.636.277-.225-.86-.914-2.736-4.64-.475-1.804-.234-.598-.79-2.148.068-.919.583-1.082 7.052-9.926.943-.906.32-.051.378.067.359-.016.336-.314-.404-1.555v-.861l.164-.794.291-.738.402-.679.808-3.554-.043-1.164-.861-2.1-.042-.693.196-.469.321-.336.343-.277.292-.349.197-.43.374-1.301.362-.431.513-.153.555-.116.502-.291.358-.76.197-1.154.014-2.191-.291-1.071-1.014-1.972-.351-1.067-.037-2.043-.268-.736-.594-.752-.612-.095-2.526 1.32-.818.153-.779-.248-.767-.766-.263-.373-.11-.254-.043-.789-.147-.474-.992-1.512-.817-1.803.043-.737.555-.918 2.678-2.746.35-.502.125-.623-.14-.933-.363-.875-.497-.359-.569-.278-.614-.583-.248-.637-.249-3.386-.392-.795-1.273-1.513-1.042-1.889-.695-.651-2.362.264-1.527-.417-2.832-1.153-.636-.474-.35-.789-.081-.904.137-.775.485-1.224.306-1.207-.278-1.028-1.278-.722-.693.042-.765.14-.636-.196-.292-.971.042-.264.206-.512-.039-.197-2.405-3.137-.287-.25-.642-.219-.277-.211-.766-1.22-.153-1.101.268-1.109.497-1.234.14-.666v-2.569l-.25-.818-.803-1.546-1.305-4.065-.614-1.236-.957-.665-2.693-.692h-.459l-.388.176-.386.263-.431.211-.432.042-1.21-.028-.417-.086-.416-.277-.335-.344-.387-.279-.526-.071-3.029.254.125-1.058-.082-2.498-.22-1.086-.129-.249-.439-.665-.101-.086.072-.315.168-.085.19-.069.153-.277-.013-.598-.485-1.139-.153-.598.054-.358.196-.599-.043-.363-.207-.205-.665-.307-.225-.293-.013-.415.861-10.827-.306-1.335-.317-.473-.779-.876-.211-.498-.009-.349.096-.73v-.366l-.291-1.635-.059-.751.139-.943.307-.876.78-1.64.262-.847-.014-.857-.321-.722-.402-.67-.305-.664-.11-.723-.082-2.358-.503-2.503-.138-2.484-.139-.349-.402-.746-.096-.306.04-.335.32-.483.445-1.124.943-1.058.348-.555.111-.57-.459-6.606.194-1.54.79-1.475 1.167-1.373.876-1.444-.109-1.651-.102-.349-.027-.22-.125-.086-.848.167h-.415l-.291-.167-.097-.444.819-9.675-.039-.555-.129-.363-.317-.417-.363-.75-.168-.25-.037-.278.153-.512.33-.415 1.042-.847.221-.377-.154-.432-.402-.205-.511-.155-.459-.21-1.015-1.415.125-1.431.546-1.511.191-1.651-.417-1.655-.111-.848.197-.775.301-.402.336-.239.402-.11.489-.052.234-.183.07-.387.14-1.822-.225-.44-.483-.321-.709-.627-.459-.846-.014-.805.349-1.664-.086-.833-.86-2.501-.447-2.556-.014-2.401-15.587-1.46-3.153-.693-13.452-1.525-10.443-2.403-.277.833.806.429 5.052 1.197.821.038-.737 2.89-.764 2.956-1.014 1.627-.347.249-.846.43-.249.206-.083.35.095.846-.055.387-.249.336-.653.54-.098.277-.055.446-.277.095-.388-.024-.376.039-.306.183-.332.261-.306.306-.238.336-.124.402.029.359.07.32-.015.306-.43.791-.514.415-.249.446.332.875.89 1.19.153.614-.223.946-.305.805-.168.679-.027.679.292 1.655-.069.54-.361.432-.639.468-.445.655-.763 2.804 2.971-.029.708.225-.028 5.775-.027 5.717-.014 5.875-.043 7.971-.026 7.812-.029 6.235.098 6.29.069 4.528-.416 3.386-.208.364-.222.081-.125.154.194.969v.681l.069.335 1.292 2.138.138.694-.167.389-1.015 1.276-.193.445-.055.474-.084 6.468-.054 3.665-.058 4.321-.055 4.94-.223 1.082-.304.957-.806 1.416-2.442 2.554-3.153 3.292-.945 1.46-.569 1.583-.263 4.01-.457 1.124-.667-.331-.584.595-.402.962-.124.802.167.527.694 1.071.249.498.043.402-.015.794.096.403.057.482-.306 1.847-.043 3.086-.081 4.329-.043 3.22-.513 1.35-4.138 2.759-5.636 3.753-5.609 3.731-3.748 2.487-2.972 1.986-.32.597-.026.915.54 4.095.584 2.21.027 1.555-.319 3.579.57 1.335 2.138 2.028.512.733.112.415.07.905.069.431.624 1.167-.069.43-.321.805-.095.429.11.794 1.014 2.455 1.194-.664.529-.072.708-.015.164.225.098.459-.042.469-.22.211-.321.152-.139.359-.015.446.044.402.139.099.332.498.237.488.263.344.167.073.18-.058.861-.138.264-.197.208-.176.208-.088.112-.094.208-.388.069-.086.249.014.431.211.153.039 1.208-.125.402-.139.098-.192.278-.407.292-.262.138.182.041.64-.444.455-.25.416-.069.445v.445l-.084.474h-.084l-.373.168-.113.081-.012.181.056.498-.044.168-.361.08-.249-.219-.153-.058-.04.599.208.086 1.292.291.234.162.264.723.181.21h.416l.778-.377.416-.153-.208.698-.153 1.359-.735 1.205.194.503.402.387.416.627.376-.305.292-.461-.041-.191.333-.014.208.096.207.124.348.081.737-.038.638-.181 1.303-.613.5.918.056.306-.081.402-.391.374-.084.32.197.474.442-.211.46-.525.249-.432.263.336.28.11.276-.11.279-.336.678.584-.069.512-.387.541-.222.684.332.761.791.511.888.392.639.389-.361.861.043.335.318.468.514.378.5.163.402.225.223.569.638-.363.764-.154 3.707-.301-.084-.263-.095-.56-.072-.263.682.043.832-1.527.764.264.681.344 1.804.394.763.357.612.197 1.734-.125.752.053 1.54.627.749.152.681-.21.374.254.488-.071 1.012-.489 1.667-.636 1.388-.109 1.083.512 5.358 5.458 2.876 2.344 2.096 1.182.554.526.139.373-.044.445.029.693.432 1.125 1.511 1.694.546 1.043 1.081 3.693.349.168-.087.401-.458.695-.053.445.22.511.335.086.374-.057.334.095.263.307.321.569.264.291.401.043.402-.152.291.053.03.698-.087.497-.249.183-.373.08-.431.197-.402.331-.277.32-.225.402-1.315 3.75-.393 2.22-.023.919.33.693.956.43.546.067.899-.037.502.052.096.096.321.459.205.139.291-.053.226-.238.192-.067.238.416.177.497.278.114.364-.056.469-.014.116-.096.052-.226.124-.176.292.023.224.139.36.336.181.124 1.402.377.153-.029.335-.195.191-.029.239.125.469.349.278.057 1.391-.379.346.211.554.861.125.317.086.306.11.291.206.24.431.162.416-.277.416.1.363.292.628.746.43.293.387.072.788-.029.405.08.932.03z" fill="none" transform="matrix(.4314 0 0 -.4314 95.496 3.89)"/></svg>