<svg width="140" height="115"><path d="M10.7 89.5h.2v-.1h-.2l-.2.1v.2h.1l.1-.2zm0 1.7V91h-.1v.2h.2zm.8.8zm0 .8zm0-.7V92zm-.8 0v-.2.1zm1.5-.9h.2V91h-.2v.1zm-.6 1.7h-.1v-.2l-.1.1v.1h.2zm.6-2.5h.1v.1h.1V90.2h-.1v.2h-.1zm-.7 1.5h-.1l-.2-.1-.2-.2-.2-.3v-.1h-.1v.2l.3.3.2.1v.1h.2v.1h.1v-.1zm0 1v-.1zm0-.1zm.2-.1l-.2-.2v-.1h.1v-.2l-.2-.1V92 92.8h.1v-.1h.1zm-.2.1v.1zM10 89.4h-.1V89.8h.1v-.3zM9 87.5v-.1h.1V87H9l-.1.1v.4H9v.2V87.5zm.7 2v.1h.1v-.1h-.1zm.1-1.4l-.1.1v.5-.1h.1v-.7.2zm0 .6zM9.7 87h-.5v.1H9v.1l.2.1h.4V87h.2V87h-.1zm.9 1v.2l.1-.1V87.7h-.2v.2h.1v-.1zm-.9.9h.1v-.1zm47.6-43.6v.1h.1l.1-.1V45v.1h-.2v.1zM10.7 90.3v.1-.1zm-.2 0l.1.1h.1l.1.1v-.2h-.2zm-.6-.7v.1h.1v.1h.1v.2h.2l.3.3-.1-.2v-.2l-.1-.1h-.2v-.1H10v-.1h-.2zm1.7 3.2h-.1v.1-.1zM10 87.2h-.1V87h-.1v.7h.2v-.5zM46 47V46.6 47zM5.9 71.3h-.2V71.7h.1v-.2zm107.5-8h-.1zM5.8 71.5l.2-.1h.1l.2-.2V71h.1V71h.1v-.4l-.2.2-.4.3h-.1V71.5zm64.5 4.4l-.5.5.5-.5.3-.3-.3.3zm34.7 25.2V100.7h.1l.1-.1v-.1h.1l.1-.2.1-.2.3-.1v-.2h-.1v-.1H105v-.1h-.1.7v-.1h.1v-.2l.1-.2.1-.3h.1l.4-.3v-.1l.1-.2v-.1l.1-.1v-.6l.1-.1h.1V97l.2-.2.2-.2h.2v-.1l.2-.4h.1v-.2h.1l.1-.1v-.2l.1-.2h.2v-.2l.2-.3H108.8l.1-.1h.1l.1-.2h.1l.2-.2.1-.2V94l.3-.6.3-.3v-.5h.1V92l.1-.1v-.1h.2v-.1l.1-.2V91h.1V90.6h.1V89.5h-.2l-.2-.2h-.2l-.1.1h-1l-.3.1-.1.2h-.1v-.2h-.5.1v-.1h.7l.4-.1h1.3v.1h.2v-.1l.1-.2V89h.1V89l.1-.1v-1h.1v-.6h.1V87h.1V87l.1-.2.3-.2h-.1v-.4h.1V86l.1-.2v-.1h-.1.2V86.1v-.2h.1l.2-.1v-.1H111.8l.2-.1V85.2h.1v-.1h.2V85h.2V85h.1v-.1h.1l.1-.1h.1l.3-.2V83.5h-.1V82.3h.2V82h.1v-.2H113.8v-.1h-.1V81.3h.1v.1h.2v-.1H114.4v-.2h.1V81H114.8l.2-.1.1-.2h.2v-.2l.3-.1h.2l.1-.1h.2l.1-.1h.1l.4-.3h.1v-.2h.5l.2-.1v-.1h.1v-.1l.4-.2H118.2l.2-.1h.2V79h.2l.1-.1v-.2h.2v-.1h.1l.2-.1v-.1h.1l.1-.1h.2l.2-.1h.1V78H120.5l.2-.1h.2v-.1h.1l.1-.1h.2v.2h.1l.1-.2.1-.1v.2h-.1v.1l.1-.1.1-.1v-.1l.2-.1.1-.2.2-.1h.1v-.1h.1V77h.2v-.3h.1v.1h.1v-.1h.2v-.1h.2v-.2h.2v-.1h.1v-.1h.1v-.1h.2v.1-.1h.1V76l.1-.1v-.1l.1-.1v-.1h-.1V75.4h.1v-.2h.2V74.2h.1V73.6h.1v.2h.2v-.4h-.1v-.1h-.1v-.1h-.1V73h.1v.1V72.9l.1-.2v-.1h.1v-.1h-.1v-.1h-.1v-.1h.1l.1-.3H125v-.2h.2v-.2h.1v-.1l.1-.1V71h.1v-.2h.2v-.1.1l.2-.1v-.2h.1l.1-.2h.1l.1.1h.2v-.1h.2V70h.1v-.7l.2-.2V68.8l.1-.1v-.1h.1v-.4h.1V68l-.1-.1h.1v-.2h.1v-.1h-.1l.1-.1v-.2h-.2v-.1h.1V67h-.2V67h-.2v.1-.1h-.4l-.2.1h-.1.4V67H126.9v-.1h-.1v-.1h.2v-.2h-.5l-.2.1h-.2v.1l-.2.1h-.4.4l.2-.2h.1V66.3h-.1l-.2.1.1-.1H126.2l.1-.1V66h-.2v.1h-.6V66H125.8v-.2l.1-.1v-.1l-.1-.1h-.1l-.1-.1h-.3v.2-.1h-.1v-.1h.2v-.1h.1v-.2h-.1.1V64.8h-.2v-.2h-.2v-.2h-.2l-.1.1v-.1h-.1l-.1-.1h-.4l.2-.2h.1v.1-.1H124.1v.1H123.8v.1h-.4l-.1.1.1-.1v-.2h.2V64H123.3v.2h-.2v.1h-.1v.1h-.1l-.1.1V65.7v-.2h-.1v-.1h-.1v-.1h-.2l-.1.1v-.1l.1-.2v-.2h.1v-.4H122.2v-.2H122l-.1-.2h-.1V64H121.4v-.1.1h-.1v.1H121l-.1.1H120.6v.1h-.1l-.2.1v.1l-.1.1v.2h.1v.1h.1v-.1l.1-.1.2-.1h.1l.2-.1h.1l-.5.2v.2h-.1v.1l-.3.3-.1.2v.1l-.2.1v.5l-.1.1h.1v.1h.1v.2h-.1v.1h-.1v.1h-.1v.2l-.1.1v.2h-.1v.1l-.2.2h-.2v.1h.1v.5h-.1v.1h-.1v.1h.1v.1h-.1v.1h-.1l-.2.2v-.1l.2-.1v-.2l-.2.2h-.1v-.2h.1v-.2l.1-.2h.1v-.1H117.5l-.1.2h-.1V67.7H118.9v-.1l-.1-.1v-.2h-.1v-.1h-.1v-.1h.1l.1-.2h.2v-.1h-.1v-.1h.3l.1-.2.1-.1v-.2h.1V66l.2-.1.1-.1V65.5l-.1.1.2-.2.2-.1h.1v-.7.1l-.1.1v.2l-.2.1-.2.3-.2.2-.2.2-.2.2h-.2l.2-.1.2-.2v-.1h.1v-.1l.2-.2.1-.1.2-.2.2-.3v-.1l.2-.2h.1v-.2l.1-.1h-.1v.1-.1l.3-.4h.1v-.1h.2v-.2l.1-.1v-.1l-.3.1.3-.2V62.8h-.1l-.1-.1h-.1v.1h-.1l-.1.1h-.2l-.2-.1h-.1v.1h-.1l-.2.1h-.1l-.3.1v.1h-.2v.1H118.8v.1H118.4v-.1h-.1l-.1.1v-.2h-.1v-.1h-.1V63l-.1-.1h-.1v.2h-.1l-.1.1v.4h-.1V62.7v.2-.1h-.1V63.6l-.1.4v.1h-.1v.6V64.3h-.1v-.7h.1v-.4.1h-.1v-.1h-.1v.2h-.2v.2h-.2v.1h-.1v-.1h.1v-.2h.1v-.2h-.1l-.1-.1h-.1V63.5h-.1v.8h-.1V63.4 63.7h-.1v-.2h-.1v.2l-.1.2V64.3h-.1v.4l-.1-.1v-.6l.1-.2v.1h-.1V64.1h-.1V63.1h.1V63h-.1v.2h-.1V63v.4-.1h-.1v-.5h-.1v.2-.2h-.2v.1l-.1-.1v-.2h.1V62.3H114.8v.8-.4l-.1-.1v-.2h-.1V62.8h-.1l-.1.1h-.1.1V62.5H114.2l-.2.2h-.2l.1-.1v-.1H113.5l-.1.1H113.1l.1-.1h.2v-.1h-.1.1H113.2V62.2l-.1-.1h-.1l-.1.2H112.5v.1h-.2v.1h-.4v-.1h.2l.1-.2h.1v.1h.1l.1-.1h-.2.2V62h-.4V62h-.2l-.2.1h-.1l.2-.1v-.1h-.2.1l.3-.2h.1v-.2h-.4l-.1.1-.4.1.4-.2H110.6v-.1h.1l.1-.1.4-.2-.2.1-.3.3h.9v-.1h.4v-.1h-.1l-.2-.1h.1V61h-.1v.1h-.1V61h-.1l.1-.1.1-.1V60.2h.1v-.1h.1V60l-.1-.1v-.1H111.1v-.1.3l-.1-.1h-.4v-.1h.1v-.2h-.2l.2-.1-.2-.1h-.4v.1h-.2v.2h-.4v-.1H110v-.2l.1-.1h.1V59l.1-.1v-.1h-.1v-.1h-.1l-.1-.2h-.2v-.2h-.1v-.1h-.2v.1h-.1v.1h-.1v-.1V58.8v-.1h-.1v-.1h-.2v.2h-.1v-.2h.1l.1-.1.1-.1v-.1h-.2V58h-.1v.2V58h-.1v.1h-.1v.1h-.1v.1h-.2l-.1.1v.1l-.1.1V59l-.2.2v-.2h.1v-.2.1-.3l.2-.3h.2V57.8h-.1l-.1.1v.1h-.1v.1-.1l.1-.2v-.1h.1v-.2h-.2V57.2h-.2v.2-.1h-.1v.1h-.1v.2h-.1v.2h-.1v-.2h-.2v.1l-.1.4v.2h-.1V58h-.2v-.1h.2l.2-.1v-.2l.2-.2V57H107.1V56.7h-.3v-.1.2h-.1v-.1l-.1.1h-.1v-.2h.1-.1v-.1.1h-.1v-.2h-.2.2v-.1H106.1v.1h-.1v.1l-.1.1h-.1v.1h-.2v.2h-.1v-.1l-.1.1v-.1l.2-.1h.1v-.1l.2-.1V56v.1-.1h-.1v-.1h-.1v.2h-.1V55.7h-.2V56.2l-.1.1V55.9h-.4v.1h-.1l.3-.2V55.4H104.8v.1h-.1V55.3h-.1v.4h-.1v-.5h-.1l-.1.1H104v-.5l-.1.1v-.1h-.2v-.2h.1v-.1H103.5v.1h.2-.1v.4h-.1v-.2h-.2l.1-.1V54.3v.1l-.1.1h-.1l-.2.4v-.2l.1-.1.2-.1v-.1h-.1V54.2l-.1.1v-.1H102.8v.1h-.1v-.1l.1-.1H103.2l-.1-.1h-.6v.4h.2V55.3h.1v.2h-.1.1v.2h.4v.1h-.5v.1h-.1V56.2l.2.3.2.2h.7v.1h-.3v-.1H103v.1h-.2l.1.1h.2v.2l.2.2-.3-.1v.1h.1V57.6H103h.2v.2h.1l.1.2h.1v-.1H103.8h-.2v.1h.1v.1H103.3v.1h.1v.1h-.3l.1.1v.2h.2v.1h-.1v.1h-.2v.2h.1v.1h.1v.1H103.7l.1.1v.4h.1v.4V59.6h-.1v-.2l-.1-.1v-.1h-.1v-.1h-.2V59h-.2l-.1-.1H102.6V60h.1v.1l-.2.1v.2-.1h-.2v.4h-.1v.1l-.1.1v.2h-.2V62l.1.1v-.2l-.1-.1v-.1l-.1-.1v-.2l-.1-.1h-.1v-.1h-.1v-.4h-.2v.4h.1v.8h-.1v-.8h-.1V61l-.1-.2v-.1h-.1l-.1-.1h-.1v.1h-.1v.4h.1v.4h.1v.7l-.2.2v.1h-.1l-.3.3v.1l-.1.1v.1l-.2.4v-.3l.1-.2h.1v-.2l.2-.2.2-.1.2-.2.1-.3v-.4l-.1-.3v-.2l-.1-.1V61l-.1-.2v.1h-.1v-.1h-.2v-.2h-.1l-.1-.1v-.1l-.1-.1h-.2l-.2-.1h-.2l-.2.2H99v.1h-.2v.2h-.1V61h-.1V61.4h-.1V61.7h-.1v-.2h-.1v.1h-.1v-.1l-.1-.1-.1.1H97.6h.2v-.1l.1-.1V61h.1v-.2h-.2V60.4l.1.2h.2v.2l.2.2.1-.1v-.4l-.2-.3h.1V60h-.2V59.7h.2V59.4h-.5v.2h-.2V59.4h-.1v-.1h-.1V58.6h-.1v-.2h-.1v-.2l-.1-.1H96.9V58l-.2.1-.2.2H96v.1h-.5l-.2.1H95l.5-.1h.1l.4-.1v-.1l.5-.2h.1v-.2h.1v-.5h-.2l-.1-.1h-.1V56.8h-.1v-.1l-.1-.1H96v-.1l.1-.1v-.2H96v-.4l.1-.1v-.4H96v-.1H96v-.1l-.2-.1h-.1V55.5l.1.1v.1h-.1l-.1.1v.2h-.4v-.4H95v-.1H94.7v.1h-.1v.1h-.2v.1H93.5l-.1.1h-.2v-.1H93v.2-.1H93v-.2h-.2v-.1h-.2l.1-.1v-.1H92.4V55h-.1V55h.2v-.1h.1v-.2H92V55h-.2l-.1.2V55h.2V54.6h-.1v-.1h-.2v-.2H90.8v.1l.1.1h-.1v.1h-.1v-.6h-.1v-.2H90.4l-.1.1-.1-.1H90l-.2-.1v-.1h-.2l-.1-.1H89.1l-.2-.1H88.6V53.9l-.1.1v.1h-.1l-.1.1v.2h-.1l-.4.2v.1l.2.1h.1v.1H87.8v-.1h-.2l-.2-.1v.1h-.1v-.1H87l-.2.1v.2l-.1.1-.1.1v.1h-.2.1V55l.2-.2h-1.5v-.1h-1v.1H84v.2H84v.1h-.1v.1l-.1.2h-.1v.1l-.1.2v.5h.1v.1l.1.2v.1h.1v.1h.1v.2l.1.1v.1h.1v.1l.1.1H84.7v.1H85v.1h.2l-.1.1h-.1v.1h.2v.1h-.2v.1h-.1v.2h.1v.1l.1.2v.1h.1v.6l-.1.2v.1l-.1.1v.4h.1l.1-.2h.1v.1h.1v.1l.4-.4-.2.2v.1h.1V60.2h-.1v.2H86.2 86v.1l-.2.2v.2h.2v.1h.1v.2H86.5v.1h-.1v.1h.2v.1h-.1l-.1.1v.1h.4l.2-.1v.1h-.1.1l-.1.1V62l.2.2-.1.1v.1h-.1v.2h.1v.2H87.3l-.1.1H87v-.1h-.1l-.1-.1h-.4v.1h.1v.1l.1.1V63.4h-.1v.2H86.9l-.1.1V64h-.1v.1l-.1.1v.4h-.1v.6-.1h-.2v.1H86v.2h.1V65.7h.1v.4h.2l.1.1h.1-.1V66h-.1v-.1l.2.1v.1h.2l.1.1h.2v.2h.5l.1.1h.1l.2.1h.1v.1h.2v.1h.2l.2.1v.1l.1.1h.1v.1l.2.2h.1v.1h.1v.1l.2.1v.1l.1.2.1.1.1.1.1.1v.1h.1l.3.4v.2h.1v.1l.1.1v.2l.1.2.1.2v.1l.1.1v.1l.1.1.1.4v.2l.1.1v.2l.1.1V72.5l-.1.2-.1.4-.1.2v.1-.1.4l-.5.8-.1.3-.1.1-.2.3-.2.2v.1h-.1v.2h-.1l-.1.1h-.1v.2h-.1l-.1.1-.2.1-.1.1v.2h-.1l-.5.3v.1h-.1l-.1.1H88v.1H88v.1l-.2.2H88.1v.1h.1v.2h.1v.1h.1v.1h.1V78.3h.1v.1h.3v.1h-.1v.1h.4v-.1h.1v.2h-.1v.1H89h.4v.1h.2-.1v.1h-.1.1v.1h-.1.2v.1h-.1v.2H89.9h-.2V79.7h.1l-.1.1h.1v.1h.1v.2h.2v.1h-.1l.1.1h-.2v.1h.1v.1h.2V80.8h.1v.1h.1V81.5h.1v.2H90.8v.1l-.1.1.1.1h.2v.2l-.1.1h.1v.1h.1v.2h.1v.1h.1v.1H91h.4v.1h.1V83.2h.1V83.5h.2-.1v.5l-.1.1V84.4l-.2.1-.1.1v.1l.1.1v.2h-.1l-.1.1v.1h.1v.1h.1v.1h.2v.1h.1v.2H92.2v.1H92v.1l-.1.1V86.6h.1v.1h-.1v-.2l-.1-.1v-.2h-.1V86h-.1v-.1h-.2v-.1H91v-.2H91l-.1-.1-.2.3-.1.1v.1h.1v.1l-.1.1v.1l-.1.1v.7h.1v.2h.2l.2.2.2.1.2.1v.2h.1l.1.2V88h-.2v-.2l-.3-.2-.1-.1-.2-.1h-.1l-.1-.2h-.1l-.2-.1-.2-.2h-.8l-.2.2v.2l-.2.1v.2h-.2v.4h-.2v-.1l.1-.1v-.2l.2-.1V87.1h.1l.1-.2.2-.1V86.5l-.1-.1H89v-.1l-.1-.2-.2-.1v-.2h-.1l-.1-.1-.1-.1h-.1l-.1-.1H88v-.1l-.1-.1v-.1h-.2l-.1-.1H87l-.2-.2v-.1h-.5l-.1.2h-.1v-.2h.1l.2-.2h.3l-.1-.1h-.1V84.3l-.3-.1-.3-.3h-.1l-.1-.1-.2-.2v-.1l-.2-.1-.1-.1H85l-.1-.1V83l-.1-.1v-.7l.1-.1-.1-.4-.2-.2V80.6h-.1v-.2h-.1l-.2-.4-.2-.2H84v-.1h-.1v-.1l-.1-.2V77.7h-.1v-.1l-.1-.1v-.4l-.2-.1v.1H83V77h-.2l-.2.1h-.2v.2-.2l-.1-.1h-.2l-.2.1H81h.2v.1l.1.1v.1-.2H81l-.3-.1h-.1l-.2.1h-.2l-.3.1h-.1l-.1.2H78.9v.1h-.1l-.2.5V78.5 77.8l.1-.1v-.1h.1v-.2H78.5l-.3-.2v-.1H78V77L78 77h-.2v-.1H77.4l-.2-.2h-.5l-.5-.2H76l-.2-.1H75v-.1H74.6v-.1h-.1v.1h-.1V76l-.1-.1h-.1v-.1l-.3-.4-.2-.1v-.2h-.2l-.4-.2H73v-.1H73l-.1-.1-.1-.1h-.2l-.1-.2-.2-.1v-.1h-.7v-.1H71l-.4-.1h-.2l-.2-.2h-.1l-.2-.1h-.2v-.1h-.1l-.1-.1H69.2l-.3-.1h-.3l-.2.2-.4.2-.4.2-.3.2H67l-.2.1-.1.2h-.2.1l.1-.2v-.1l-.3.1h-.1l-.2.3-.3.1h.2v-.1l.1-.2.1-.1v-.2l.2-.3V73.3h-.1V73h-.1V73h-.1V72.7H66v-.1H66v-.2l-.1-.1v-.1h-.1V72l-.1-.3v-.2l-.1-.1v-.1l-.1-.1V71h-.1v-.2l-.1-.1v-.2l-.2-.2v-.5l-.1-.2H64.6v.1h-.2v-.1h-.1l-.2-.1H64v.1h-.5V70l-.1.1v1l-.1.2V70h.1v-.4h-.1v.1h-.1v.1H63l-.1-.2v-.1h-.1l-.1-.1h-.1l-.1.1V69h-.2V69h-.2v-.1h.2v-.6h.1v-.6h-.1V67.3h-.1V65.4l.1-.2v-.4H62h.2v-.1h.2v-.4l.1-.1v-.4h.1v-.1h.1v-.2l.1-.1V63.1h.2V63H63v-.4l-.1-.1h.4v-.2H63v-.4l.1-.1h.1v-.1h.1l.2-.3h.1l.2-.2h-.2.2V61h-.2l.1-.1H63.5v-.1h.1v-.1l-.1-.1h.5v-.1l-.3-.2H64v.1-.1h.1v-.1h.1V60H64V60h.1v-.1h.2v-.2h-.2l-.2-.2h-.2.5l.1.1h.1v.1l.2.1v.1h.2-.1v-.1h-.1V59.4H64.3v-.1h.1V59h.2V58.7h-.1v-.1h.1v.1H65v-.1h.1v.1H65.5l.1-.1v-.2H65v-.1l-.1-.1h-.1v-.1l-.1-.1.2-.1h.2v-.1h.6l.3.1h.1v-.1l.2-.1v-.1l.1-.1.1-.1h.3v-.1h.1v-.2h.1V57l-.1-.1V56.6l-.1-.1V56.2H66.5v-.1h-.1.2-.1V56H66.1V56h-.3l-.2-.2h-.1v-.1h-.1v-.2H65v.1H65v.1h-.2V56h-.5l.2-.1v-.1H64.9V55.4H64.4v-.2h-.7l-.1-.1h-.2l-.1-.1-.2-.1H63v.1l.1.1h.2v.1H62.7V55h-.1.2v-.2l-.1-.1v-.2l-.2-.1h.2v.2h.1v.1h.1v.1h.2l.2.1h.1v.1h.4v.1l.4.1.2.1h.2v.1h.2v-.2h.2l-.1.1h.4v.1h.4v.1h.1v.1H66.3l.1.1h.4l.1-.1v-.2h-.1.2l.1.1H67.4v-.2h.1V55h.1v-.1l-.2-.2v-.1l-.2-.2h.1v.1h.2v.1h.2v-.2h-.1V54H67.1V54h.1l.1-.1h.1v-.2h.1v.4h.1v.1h.2v.2h.1V54v.1h.2l.1.1H68.7l-.2-.1V54l-.1-.1.1.1.1.1h.1v.1h.4l.2-.1V54l.3-.2v-.1h.2v-.1l.1-.1V52.5h.1l.2-.2v-.5h.1v-.1h.1v-.5h.1v-.1h.1v-.7h-.1v-.1H69.2v.1H67.8v-.1l-.1-.1-.1-.1-.2-.1-.1-.1v-.1l-.1-.1h-.1v-.1H67l-.1-.2h-.2l-.1-.1h-.2l-.3-.1h-.7v-.1h-.2v.2h.1-.1l-.5-.2h.1V49H66.4 66l.1.1h.7V49l-.4-.2H67.2v.2H67.5v.1h.2v.2h.5l.4.1H68v.1h.1v.1H68.6l.1.1.1.1.1.1v.1h.1l.2.1h.9V50h.1V50h.2v-.1l-.1-.1v-.2h.1v-.1h.1v-.1l.1-.1v-.1h.1V49h.1v-.7h.1v-.1h.1V48h.2v-.6l-.4-.1H70.3v-.1h-.1l-.1-.1-.2-.2h.1v-.2H70h.2v-.1h.2v-.1H71l.2-.1.1-.2h.2v.2h.1v.2l.1.2v.1h.1v.1h.1V47h.2v.1h.6v.1h.2V47l-.2-.1v-.1h-.1l-.1-.1v-.2h.2v.2h.4v.1h.4v.1h.1v-.2l-.1-.1h-.1V46.3h-.1v-.1h-.1l-.1-.1-.3-.2V45.6H72.4v-.2H72v-.1h.2l-.1-.1H72h.2v-.1h-.4v.2h-.1v.1h-.2v-.1l.2-.3h.4V45h-.4v-.1h.7v.1h-.2v.1h.1v.1h.1l.2.1h-.2v.1h.2v.2h.2v-.2h.1V45l.1.1V45.6h.1v.2-.1H73V46h.1l.1.1h.2l.1.1.1.2h.1-.1v.1H74l.1-.1.1-.2V46h.1v-.2l.1-.1h.3v-.2l.1-.1v-.2h.3v-.9H75.4v-.1h.2v-1l-.1-.1v-.4h-.1l-.2-.1v-.2H74.7l-.1-.2h-.2V42h-.2V42l-.1-.1H74v-.2H74V41v.1h-.1v.1h-.2V40.9H73.3h.1v-.1l-.1-.1-.1-.1h-.1v-.2H73v-.1h.2v.1h.2v-.2h.1l.2.2.1-.1V40h.2l.1-.2.1-.1v-.6h-.1l-.1-.1H74v.1h-.1V39H73.5l-.2.1.1-.2h.2v-.2l.1-.2v-.1h.2v-.1h-.1v-.2h-.2l-.2-.1H73v.1H73V38h-.2v-.1h.1v-.1l-1-.1h-.2.8v-.2H72h.2v-.1h-.1v-.1h.2l.2-.1H71.5v.1h-.8l-.1-.2H70v.1h-.1v.1h-.2v.1h-.5.2v.1h-.1V37.9l.1.2.1.1V38.5h.1V38.8h.1v.1h-.1v.1l.2.1h.1v.2h.1l.2-.1H70v.2l.1-.1v.1H70.6v.1h.2-.2v.1h-.2v.1h.2v.1H70.1h.2v.1h-.1v.1h-.1v.1h.4v.1h.1v.1h-.4v.1h-.4.1v.1h-.2v.6l.1.1v.7h.1v.5l-.1.2h-.1V42.9l-.1.1v.2l-.1.3v.5l.1.1v.4-.1l-.1.1h-.1v-.1h-.1l-.1.1v.1h-.1v.2h.1v.1h-.1v.2-.1H69V45.3H69V45h-.1v.1h-.1V44.5h-.2l-.1-.2-.1-.1-.2-.1V44H68V44h-.2v-.1h-.1v-.2l-.2-.1v-.2l-.1-.2V43h-.1V42.3h-.1v-.1h-.1v-.1l.1-.1v-.2h.1v.3h.2l.1.1.1-.1v-.5h-.1v-.2l-.1-.1V41l-.1-.1v-.1l-.1-.1v-.1l-.4-.3-.2-.2h-.1l-.3-.2-.1-.1v-.1h-.1v-.1l-.2-.1h-.2v.2h-.1V40.2l-.2.2v.7h.1v.4-.2l-.1.1V42.3h-.1v.4h-.1l-.1-.1v-.1H65v-.1h.1l-.2-.1-.1-.1V41l-.1.1V41h.1v-.1l-.1-.1h-.1v-.2h-.1v-.2l-.1-.1-.1-.1-.3-.2-.1-.1h-.1l-.2-.2.2.1h.1v-.2h.1v.2h.1v.1h.1v-.4h.1v-.1h.1-.1v-.1H64.7v-.1h-.1l-.2-.1h-.1v.1h-.1V39h-.5l-.2.1h.2V38.8h.1v-.1H63.3v.1h-.1v.2h-.1v.2H63l-.2-.1V39h-.1l-.1-.1h.2-.1l-.1-.1h-.1v-.1h-.2v.1H62 62.3v-.1H62l.1-.1v-.1h.1v-.1h.2v-.1h.1v-.2l.2-.2v-.2h-.5v-.2h.1v-.1h-.1.2v-.1h-.1v-.1h.1v.1h.2v.1l.1.1H63l.1-.1v-.2H63v-.1l-.1-.1V37h-.1v-.1.2h-.1v.1-.1h-.1V36.7h-.1v-.1h-.2v-.4h-.1v-.1H62l-.2-.1V36h-.1v-.2H61.4v-.2h.1v-.7l-.1-.1v-.2h-.1V34.2h-.2V34H61V34l-.2-.1-.2-.1-.1-.2h-.1v-.4H60v.1l-.2.2V33h-.1v.2h-.1V33h.1v-.4l-.7.1v.2H59.8l-.1.1H59V33.5h-.2v.1h-.1v.2h-.2V34h.2l.2.1V34.5H59v.2l-.2-.1v-.1h-.4v.2H58V35l.1.2H58v.2-.1h.1v.1H58v.9h.1v.1l.1.1v.1h.2l.2-.2h.1-.1l-.1.2v.1h.1l.2.1h-.4l-.1.1V37.1h-.1l-.1.2v.7l.3.4h.1v.1l.1.1h-.1l.1.1.1.1h.2v.1h.2l.1.2h.1l.2.1h.2v.1H60.2v-.1l.1-.1v.1h.1v.1l.1.2h.1v.1l.3.1h.2v-.1h.1v-.1h.1l.1-.1h.1v.4h.2l-.1.1-.1.1v.1l-.1.2h-.1v.1-.1H61V40v.1-.2h.1v-.1l.1-.1v-.1h.1-.2v.2h-.4l-.1.1v.5h.2V40.9h-.2v.2l-.1.1h-.1v.6H60.9l.2-.1v-.1h.1v-.2h.1v-.1.1H61V41l.1-.1v-.2h.1v.2h.2v.2h.1v.7h-.1.4-.2V42.3h-.1l-.3.2-.1.1v.1H61v.4h-.1v.1h-.1v.1l-.1.1-.1.1v.1l-.1.1-.1.1h-.2v-.1H60v.1-.1h-.3V44.5h-.1v.1h-.1v.1l.1.1.1.1.1.1.1.1v.5l.1.2h.2v.1H60V46.7h.1V47h-.7l-.2-.1V47.2h.1v.1h.1v.1h.1v.2h.1v-.1.4h-.1v-.4l-.3-.2-.1-.1V47H59v-.1l-.1-.1-.1-.1v-.1h-.1v-.1h.2v.2h.2l.1-.2v.2l.1.1h.2l.1-.1H60V46v.1h-.1V46h-.2V46v.1h-.2l.2-.3v-.2.1h-.1v-.1h-.1l-.1.3h-.1l-.1.1H59v-.4h.1v-.2H58.7v-.1h-.1V45h.1v-.4.1h.1v.1l.1-.2v-1.3l.2-.3H59l-.2.1-.1.1-.1.1-.1.1v.2h-.2v.1h-.1v-.2h.1v-.1l.1-.1V43l.1-.1-.2.2v.1-.2l-.3.1h-.2V43h.1V43l-.2-.1v-.2h-.1l-.2-.2h-.1v.2h-.1v-.2h-.4v.1h.1v.1h.1v.2h-.3v.1l-.1.1-.1-.1-.1-.1-.1-.1v.2l-.2-.1v.2l.1.1h.1v.1l.1.1h.1v.2l-.1.1v-.2h-.2v.1h.1v.1l.1.2.1.1v.1h.1v.2h.1v.1h.1V44h.2V44h.1v-.1h.1l.1.1.1.1.1.1h.2v.1l.1.1V44.7h.1v.1h-.1v.1h-.2v.1h-.4v-.1h-.1l-.1-.1-.1-.1v-.1h-.1l-.1-.2v-.1l-.1-.1V44h-.1l-.2-.3v-.1h-.2v.5h.1v.1h.1l.1.1v.1H56.2v.2H56v.1h-.4v-.1h-.1v-.1H55.1v-.1h-.6l-.3-.1-.1.1v-.1H54l-.1.1h-.1v.1h-.4v.1h-.2v.1h-.4v-.1h-.1v-.1H52.3v.2h-.1v-.1h-.1l-.1-.2h-.4v-.1l-.1-.2h-.2V44h-.1l-.1-.1v-.1l-.1-.1v-.2h-.2v.2h-.2v.1h-.5l-.1-.1h-.2l-.1-.1v-.4h-.2V43h-.1v-.2h-.2v.1l-.2-.2v-.2h-.2v-.2h.1V42h-.1v-.5h-.1v-.1l-.1-.1-.2-.1-.2-.1h-.1l-.1.1h-.2l-.1.2h-.5v.1h-.1l-.1.1h-.4l-.1.1H46l-.2.2-.2.4-.2.1v.2h-.1v.1H45.7v-.1h.1V43v-.1V43.2h.2V43h.2l.1.1H46.6v-.2h-.1l-.1-.1v-.2H47v.2h.2l.1-.1v-.1H47.6v-.1.1h.1v.2h.1v-.1h.1v-.2h-.1v-.1h.1v-.1h.1-.1v-.1l.5-.2h.4v.5H48.3v.1H48v.1h-.1v.2h-.1v.1l.1.2h-.1V43l-.1-.1v.1h-.1l-.1-.1V43.4h-.6l-.1.1h-.4v.1h-.1v-.1h.1v-.1h-.2V43.7h.2v.2l-.2.1H46v.1l-.1.1v.4h.1l.1.2v.1l.1.1V45.3h-.1v.3l.1.1v.1l.1.2h.1v.1h.1v.1h-.1v.1h-.1v.1l.1.1.2.3v.2-.1h-.1v-.1l-.1-.1v-.1h-.1v.2h-.1v.2-.1h-.1v-.1H46v-.2h.1v-.4V46.5H46v-.1H46v.7h-.1l.1.1v.4h.1v.2h.1l.1.2v.1l.1.1v.1l-.2-.2v-.4H46v-.2h-.1V47h-.1v.2h-.1v-.4l-.1-.1h-.2.1V46.3l-.1-.1v-.1h-.1V46h-.1v-.2H45v-.1.1h.1v.1h.1v.1h.5v-.2h.1v-.4l-.3-.3V45l-.1-.1h-.1v.2h-.1V44.4h-.1l-.2.4v.2h-.1V45h-.1V44.1l-.2-.1h-.1V44h-.1v.1H44V44h.1l-.1-.1V43.5H44v.1h-.1v-.5h-.2v.2l-.1-.1H43.2v.2H43v.1h-.1l-.2.1h-.2v-.2h-.1v.1l-.1.1H42l-.3-.1h-.1v.2-.1l-.1-.1H41.3l-.2.1H40.5v-.1h-.2l-.1-.1h-.4l-.2-.1h-.1v-.1l-.2-.1H39l-.2-.2h-.1v-.1h-.5v-.2h-.1v-.1h-.1l-.1-.1v-.1H38.3v-.1h.1v-.5l.4.1h.1V41.5h-.1.1l.2.1H39.4v.1H39.8v-.1l.2-.2v-.2.1h-.1V41l-.2-.2v-.4l-.3-.1v-.1l-.1-.3H39l-.2-.2h-.1v-.2h-.2l-.2-.2v.1l.1.1h-.1l-.3-.1h-.1l.2.2V40l-.2-.1v-.1h-.1v-.1h-.1l-.3-.1h-.1v-.2h-.5v-.1l-.3-.2h-.1l-.2-.2-.2-.2-.2-.2V38l-.2-.2-.4-.2H35l-.2-.2-.3-.1-.1-.2h-.1l-.2-.5-.1-.3-.5-.5-.2-.2-.3-.2h-.4l-.1-.1h-.1v-.1h-.5V35.7h-.1v.2h-.1v.2h-.4v.2h-.5V36h-.5v-.4h.2l.1-.1v-.1h.1v-.1h.2v-.1h.1v-.1l-.1-.1H30.5v-.2l.1-.1.1-.1v-.2h.1v-.2h.1v-.1h.1V33.8H30.7h.1l.1.1v.2h-.1V34h-.2V34h-.2.1-.1v-.1h-.2v.2h-.1v.1h.2V34h.2v.1h.1v.1h-.2l-.2.1v.1h-.1v.1H30v-.1H30v.2l.2.1v.2H30v-.2H29.7l-.2.1v.1l.1.1V35.5v-.1h-.4v.1h-.1.5v.2h-.4v-.1.2H29v-.2H29l-.1-.2-.1-.2v-.2l-.2-.6v-.6h.1v-1.5l-.1-.3-.1-.3h-.2l-.1.1-.1.1v.2h.1v.2L28 32V32.5h.1l.2.2H27.5V33h-.1v.1h-.2l-.2.2h-.2v.1H26.5v.2h-.2V33.1l.1-.2H26.8v-.1h.1v-.1h-.1v.1H25v.1H25v.1h-.1l-.1.1-.3.2h-.1v.1h-.1v.1h-.1l-.1.1-.1.1v.1l-.1.1v-.2h.1l.1-.2h.1v-.1H24v.1-.1l.1-.1.1-.1v-.1l.1-.1v.1h-.1l-.1.2H24l-.1.1v-.1h.1l.1-.1V33h.1V32.7 33.2l-.1.1v.1H24v.1-.2l.1-.1v-.2V33.2H24v.1h-.2l-.1.1h-.1.2v-.1h.1V33h.1l-.1.1v-.1h-.1v.1h-.1v.1h-.1v-.1h.1V33h-.4.1v.1l-.2.1v.1h-.4l-.1.2v-.1h-.1v-.1l-.1.1h-.2.1l.2-.2h-.1v.1h-.2l-.1.1H22v.4h-.1v.1h-.1v.1H22.2v.2H22l-.2-.2v.1l-.1-.1v-.1h-.1v.1h-.1v-.2H21.1l.1.2v.2h.1v.1h-.1V34h-.1V34l-.1-.1v-.2h.1v-.1H21.5v-.1h.1v-.1h.1l.1-.1h.1V33.7v-.1l.1-.1.1-.1v-.1h.1V33h.1V33H22.7v.2l-.1.1.1-.1.1-.1V33h.1v.1l.3-.1v-.1h.1v-.1h.1l.1-.2H23.8v.1h.7v.2H24.8v-.1H25v-.1h.2v-.1h.4l.5-.1h.2v-.1h.1l.1-.1v-.5h-.1v.1h-.2v.2H26V32h-.2V31.6h-.2v.1-.1h.1-.6v.1H25v.1l-.1.1-.1.1h-.1l-.1.1V32l.1-.1v-.1l-.1-.1-.1.1H24v.1H23.7v.1H23.5V32l-.2-.1h.2H23.1v.1h.1v.1H23V32H22.7v.1h-.1v.1h-.1v.1l-.1.1h-.2l-.2-.1h-.9v.1H21v.1h-.1v-.1h.1v-.1H21.4V32h.1l.3-.1h.1v-.1h.1v-.1h-.2v-.1h-.1v-.2h.1V31h-.1v.1h-.1v.2H21.1V31.8H21v-.1H21v-.1h-.2v-.1h-.4v.2h-.1v.2l-.2-.1v-.2H20l-.1.2V31.3h-.2v.6h.1v.1l-.1-.1v-.5h-.2v.2l-.2.2.1.2.2.1H19.3V32h-.1v.2H19v.2h.2v.2l.1.1v.1-.1h-.1v.6-.1h-.1V33l-.1-.2v-.1l-.1-.2-.1-.2h-.2l-.1-.2h-.2l-.1-.1-.1-.2v-.1l-.2-.1v-.1l-.1-.1v-.1l-.3-.4v-.2l-.1-.2V30.2h-.2V29.3l-.2-.1V29l-.2-.3h.1l-.2-.2-.2-.1-.2-.1-.2-.2v-.1H16L16 28l-.3.3-.2.3-.3.3-.3.4-.2.3-.3.4-.2.3-.8 1-.3.4-.2.3-.3.3-.2.4-.3.3-.2.4-.5.7-.3.3-.2.3-.3.4-.3.3-.2.4-.3.3-.5.7-.2.4-.3.3-.2.4-.3.3-.2.3-.5.7-.3.4-.5.7-.2.3-.3.4-.2.3-.3.4-.2.3-.3.4-.2.3-.7 1-.3.4-.2.4-.3.3-.2.4-.5.7-.5.7-.2.3-.3.4-.2.3-.3.4-.2.4-.3.3-.2.4-.5.7-.2.3.4.6.2-.2.4.7.6-.2.7.4v.1l-.5.5v.3l.2.5v.4l.2 1.2.2.9-.3.7-.1.1H3.6l.3-.2.3-.4h.4V55.2h.2l.3.1h.8v.2l.2.2v.5l-.1.2h-.1v.6l.2.2v.4h.1V58.6l.3.6v.4l.2.7h-.1v4l-.3.1.3.2.1.2-.3.4.2.3v.4l-.1.1.1.2h.2v.1l.2.3.1.2.1.2.1.1.3.2.1.4.2.1V68l.1.2H8l.2.1V69H8h.1L8 69l-.2.2V69.6h-.1l-.1.2v.5l-.1.2v.2h-.2l-.1.2H7L7 71l-.1.2v.1h.2V71l.3-.2v-.1h.1l.1-.1.1-.2h.1v-.2H8V70l.1-.1v-.1.6H8.4 8v.1h-.1l-.1.1v.1h-.2v.1h-.1v.1h-.1v.1h-.1l-.1.2H7v.1l.4.2h.1H7v-.1l-.2.1h-.1v.1h.1-.1v.1h-.1v.1h-.1v.2l.1.2v.1h.2v.1h-.2V72l-.2-.1H6v.5l.1.2h.1v-.1h.2-.1v.1l-.2.1v.2l.1.1-.2-.7V72H6v.1h-.1V72.6h-.2v.1h-.1v.1l.1.2H6v-.1V73h-.2v.1l.2.1v.1h.6l.2.3H7h-.2l-.1-.1h-.1l-.1-.1h-.2V74.3v-.6H5.8v.1l-.1.2v.1h-.1V74.4h.1v.4H6v.5l.1.2.2.6h.2v-.1l.1-.1v-.1l.1-.2.2-.1.1-.1H7V75h.1v.1h.1l.1-.2v-.1.2h.1l-.1.1h.1l.1-.1h.1V75h.1l.1-.1.1-.1H8v.1h-.1v.1h-.1v.1l.1.1H8v.1l-.2-.1h-.2l-.1.1v.2l-.1.1h-.1v.5h.1v.2h.1v.1H8.2l.1.1v.4h.1v.4-.4H8v-.1h.1v-.2H8l-.1-.1v-.1H7.5v.2h-.1v-.1l-.1-.3h-.1V75.8H7v.2h.1H7v.2h-.1v.4l.1.2h.1v.2l.2.1h-.1v.2l-.1.1V77.8H7V78.2h.1v.1h.4V78h.2-.1l-.1.1V78.5h-.1v.1h-.2v.1L7 79v.1H7v.2h-.1v.1h-.1l-.1.1v.1h-.1v.1h.2l.1-.2H7l.2-.2h.4V79v.1H7.2l-.1.1v.4h.1l.1-.1v-.2l.1-.1v.4h-.2v.4h.1V80l.2-.2v.2H8v-.1h.1l.4-.1v-.1l.1-.1.2-.1H9l.2-.2v-.5l.1.1v.4h-.1v.1H9v.1h-.2l-.2.2v.4l.1.2h.5H8.8V81.2l.1.1v.2-.2l-.1-.1-.1-.3v-.4h-.1l-.2-.1h-.2v.1h-.4V80.8h-.4.1v-.1h.2v-.1h-.2l-.1.1-.1.2v.1H7l-.1.1v.1h-.1V81.5l-.1.1v.5h.1v.1h-.1v.1H7V82h.1v-.1h.2v-.1h-.1v-.1H7h.2l.1-.1h.2v-.1l.1-.1v.2h-.2v.1h-.1v.1h.2l.1.1H8l.6.4h.1V82h.1V82.4h-.2l-.6-.2-.4-.1h-.4v.1l-.1.1-.1.1h-.1l-.2.1h-.2v.2H7v.1h-.1l.4.2h.2l.1-.1v.1h-.2v.1H7v-.1l-.3-.1h-.4v.4H6.8V83.6h-.1v.1l.1.1V84H7v.1l.2.1v.1l.1.1h.2v-.1h-.1l-.1-.2H7V84h.1v.1l.3.1h.1l.1.1v.1h.4v-.2h.1l.1-.2v.5h.4v.1H8.3l-.2-.1H8v.2h.4v.1h.1v.2h.2v.1H8.5v.2H8.8v.1H9.5l.1-.1V85h.2V85h.1v-.5.6h-.2v.2l-.1.1h-.1l-.1.1H8.5l-.2-.1h-.1l.1.1h.4-.2v.1h-.2v.1h-.2l.2.1v.1H9V86.3h.2V86h.1V86h.1v-.2l.1-.1h.2-.1v.1l-.1.1v.1l-.1.1v.1h-.1l.2.1h.1v-.1h.1v.1h.2V86.7h.1v-.1h.1l.2-.1v-.1h.2V86h.1V86l.1-.1V85.5l.2-.1v-.1h.1v.1l-.1.1h-.1v.4h-.1V86.4h-.2v.1H10.1v.2l-.1.2v.1l.1-.1v-.1.2l.1.1h.4v-.1H11.5 11v.1h-.4v.5l-.1.1v.1h-.1v.1l-.1.1v.2-.2h-.1v-.1h-.1V88.1l.1.1v.1h.1v.1l.1.1v.2h.1v.1h.2v.1h.5v-.1l.1-.2V89h.2v-.5h.2l.1-.1V88h-.1v-.2.1h.1l.1.2V88.4H11.6v.5l-.2.1v.4h.1v.1h.5H11.8v.1h-.1l-.1.1v.1h-.1V89.2H11.1v.6l.1.1h.1v.1l.4.3h.1V90h.1l.1-.1h.4v-.2h.1l.1-.1v.1l-.1.1-.1.1v.1l-.1.3-.1.1v.1l.4.2h.1l.2-.1v-.2V90.9l-.2.1H12.5v-.1h-.2V91.2l-.1.1v.1H12.6l-.2.1V91.8l.1-.1.2-.1h.1v.2h.1v.1l.3.1.4.1.3.1.4.2h.4l.4.2h.4l.4.2.4.1.4.1.4.1.4.1.4.1.4.1.4.1.4.1.4.1.4.1.4.1.4.1.4.1.3.1.4.1.4.1h.4l.4.2h.4l.4.2h.4l.4.1.4.1h.4l.5.2h.4l.4.1.4.1h.4l.4.2h.4l.4.1h.4l.4.2h.8l.4.2h.8l.4.2h.8l.4.1.4.1h.4l.4.1h.4l.5.1h.4l.4.1h.4l.4.1h.4l.4.1h.4l.4.1h.4l.4.1h.4l.5.1h.8l.4.1h.8l.4.1h.8l.4.1h.9l.4.1H46l.4.1H47.8l.4.1h2.4l.4.1H61l.4-.1H63l.4-.1h.4V96.5h.4l.1.1.1.2V97.2l.2.3v.5h.1v.2l.2.2H65.5v.1h.8l.2.3H67.2v-.2l.1-.1h1.3l.1.1v.2h.4v.4h.1l.1.2h.1v-.2l.1-.1h.4v.1h.1v.1h.1l.2.1h.2l.2.2h.1v.1l.1.1h.4l.2-.1v-.2l.3-.2h.1l.2-.2h.1v.2h.1v.1l.2.1h.4l.6-.2h.2l.2.2.2.1.2-.1h.8l.2-.2.3-.2.3-.2.2-.2.3-.2.4-.2h.1l.4.2.4.1.3.2.4.1.4.2.4.1.4.2.4.1.2.1.2.1.2.1.5.2h.2l.2.1.2.1.3.1.3.1.2.1.3.1.3.1.2.1.3.1.3.1.1.1h.1v.1h.1l.1.4.1.2.3.2.2.2h.2l.1-.1h.2l.2-.1v-.1h.2v.5h.1V102.8h.1v.1l.1.1.1.1.1.1h.1l.1-.1h.2l.2-.1h.2l.1.1h.1v.7l.3.2.5.1.4.2.6.2.3.1.1.1v.1l.5 1.2.5 1.1.7 1.7.2.6V110l-.1.3V110.8l-.1.2v1.4H91l-.2.2-.1.4-.3.2-.2.1v.2l-.1.1V114.2l.2.3v.1h.1l.2.1.3.2h.4v.1l.5-.1.6-.5.3-.3.2-.2.3-.3.2-.3.3-.2.2-.3h.3l.7-.4.3-.2h.2l.3-.2.2-.1.3-.2.3-.3.2-.2.3-.2.3-.3.3-.2.2-.2.3-.3v-.1l.1-.2v-.1H98l-.1-.1v-.1h-.1v-.1h-.1v-.2l-.1-.3-.1-.2-.3-.3.2-.2.2-.2.3-.3h.2l.4-.2.5-.1.4-.1.5-.2.4-.1.5-.1.4-.2h.5v-.1l.1-.2v-.4l.1-.2v-.2l.1-.1v-.4h.1l.1-.2v-.1l.3-.2V104.2l.1-.2.3-.2v-.2l.1-.1v-.1l.1-.2.2-.3.2-.3.1-.3.1-.2.2-.2h.1v-.1l.1-.1.1-.1.1-.1h.3l.1-.2.2-.2zm24-10.7h-.4l-.5.4h-.1v-.2l.1-.1.1-.2v-.1h-.2V90h-.1l-.1-.1H127.4v.2h-.6l-.2-.2v-.2h-.1l-.1.1v.2l-.3.5-.2.2h.1v.2h-.1v-.1H125.6v.2h-.1v.1h-.1V91l.1-.2h-.2v-.1l-.4.2h-.3l.1.1v.1l-.1.1h-.2v.1h-.2.1v-.2h.1-.1v.1H124v.1h-.1.1v-.2h-.1l-.2.1v.2H123.4l-.1-.1h-.6v-.1l.3-.2V91l.1-.1h-.5v.1H122l-.3.2-.1-.1v-.2h-.1v.1h-.2V90.6h-.2v-.1l-.1-.1v-.2h-.1v-.1h-.2v.1h-.1V90h-.1V90h-.1v-.1l-.1-.1v-.5H120v.1h-.2l-.1.2h-.1v-.1h-.1v.1h-.2l.2-.4V89l.1-.1.1-.1V88.1h-.1v.1-.2h-.1v-.5l.1-.1v-.1h-.1v.1h-.2.1v-.1h-.2l-.1.1h-.1v.1-.2l-.3.2-.1.2-.1.1v.2l-.1.1h-.2V88.6h-.1v-.2h-.1l-.2-.3h-.1l-.1-.1h-.8v.1h-.2l-.1-.1-.3.2v.1l-.2.1v.1h-.2.1v-.1h.1v-.1h.1V87.8h.1l.2-.1h.2v-.1H117v-.4h.1v-.1h.1l.2.1H118.3l.2-.1.1-.2.2-.2V86.5h.1l.2-.2v-.4l.1-.3h.1v-.1h.2V85.1l.1-.1V85h-.1V84.6h-.1l-.2-.2h-.2v-.1h-.1l-.2.1v-.1h-.1l.5-.1h.2l-.1-.2h-.2V84H118.5v-.1h-.4v-.1h-.8l-.3.2h-.4l-.3.2-.1.1-.3.2-.3.2-.2.1-.4.5h-.2l-.3.4-.3.4-.2.3h-.1l-.1.2-.2.1v.1h-.1v.2l-.4.4v.1h-.1v.2h-.2l-.1.3v.1h-.2v.4l-.2.1V89h-.2v.1l-.2.3v.2l-.1.3-.2.2v.2l-.1.1-.1.4v.2l-.1.3v.4l-.2.3v.1l-.1.2v.2l-.1.3v.3l-.2.4-.1.3-.1.1-.2.2v.1l-.1.1h-.1v.1l-.1.1-.2.2h-.1v.2l-.1.1-.7.6h-.2l-.1.2-.1.1v.1h-.1v.1l-.2.1V96.5l-.2.2-.1.1-.1.3h-.1v.2l-.1.2-.2.2h-.1v.1h-.1v.2l-.2.1v.6l-.3.4v.7l.1.1v.2H106.5v.2l-.2.1v.1l-.1.3-.1.1h-.2v.1l-.1.1-.2.1v.1h-.1V101.6l-.3.3h-.2.4l.2-.1.2-.1h.2l.4-.2h.1l.2-.1h.2l.4-.2.3-.1.2-.1h.2l.2-.1.3-.2.6-.2h.1l.2-.1h.2l.2-.2h.4l.1-.2h.2l.2-.1h.2V99.1h-.1V98.8h.4l.1-.2.1-.1v-.1h.1l.2.2v-.5H112.2V98l-.1-.1h-.1V97.3h.1v-.1l.1-.1.1-.1V96.2l-.1-.1v-.4h-.1v-.6l.1-.2v-.3l-.1-.2v-1l.2-.6v-.3l.1-.3V92l.1-.3.4-.1v.3h.1v.1h.1l.3.1.2-.2.2-.1v-.1l.1-.1v-.1h.2v-.2l.1-.1h.4l.2.1h.2v.1l.2.1h.2v.2l.2.3.2.4.1.4.2.3.1.4.5 1v.2l.1.1v.2l.1.2h.8v.4l.2.1v.4h.2l.1.1h.2V96h.1v-.2h.1v.1h.1l.1.2h.1V95.9H119.2V96.3 96h.1V96h.2l.2-.3.1-.1h.1v.1h.1v-.1l.2-.2h-.1v-.1h.2v-.2h.1V95h-.2v-.5h.1v.4h.2v.1h.2l.1-.1v-.1h.2v-.2l.1-.1.1-.1v-.1l.3-.5.2-.2.2-.2V93h.1l.1-.1h.1V92.6h.1v-.5h-.1l-.1-.2h-.2v-.1l-.2-.1h.2v.1h.1l.3.2v.1h.2V92.6v-.2h.1V92h.2v.1h.1v.1h-.1V92l-.1.1v.5l-.1.1-.1.2v.1l-.2.3v.4H122.5v-.1h.1V93.4h.1l.2-.1H123.3v-.1h.1V93h.4l.1-.2.1.1v-.1h.1l.4-.2h.1l.3-.2V92.8h-.2l-.2.1h-.1v.1h-.1v.1l-.1.1-.1.1-.1.1-.2.2v.2l.2.2v.1h.1v.1l-.1-.1-.2-.2h-.2v.1h-.2v-.5H123h.2v.2l-.1.1-.2.1v.2h-.2l-.2.3-.1.3-.2.4-.2.3-.1.2-.2.4-.2.2v.1h.1l.1-.1.1-.2h.1v-.2.2l-.1.2v.2h-.1v.1h-.1v-.1h-.1l-.1.1-.2.3-.1.5v.2l.1-.5.1-.2.1-.1h.1v.2l-.1.1V97.2l-.1.1V98.1h.1l.2.2V98.6h.1v.1l.1.1.1.2v-.1h.1v.1h.2v-.1l-.1-.2H122.5l.1.1v.1l.1.1v-.1l.1.2.1.1h.2l.1-.2h.1l.1.1h.1V99h.1l-.2-.2H123.6h-.1V98.4h-.1l-.1-.1v-.1l.1.1h.1V98v.1h.1v.1-.1h.1v.1-.2h.1v.1h.1V98l-.1-.1h.1v.1V97.6l.1.1v-.1h.1v-.2h-.1v-.1l.1-.1v-.1h.1V97l-.1-.1.1-.1h.1v-.2h-.1v-.1h.1V96.3l.1-.1V96h-.1H124.6v-.2h-.2l.1-.1h-.1v-.1h-.1V95.3h-.1.1v-.2h.2l.1.2h.1V95h-.1V94.8l.1-.1v.1l.1.1v.1l.1.1h.2V95v.1h.2l.1-.1h.1v-.1h.1v-.2h-.1v-.1l-.1-.1h-.2v-.1h.4v-.2.1h.2V94h.1v-.1h.1v-.2.1h.1v.1h.1v-.1h-.1v-.1H126.5v-.1h.1v-.1l.2-.2V93h.2v-.2h.1v-.1h.1v-.2h.1v-.1h.1v-.1h.1v-.1h.1v-.1h.1-.1V92h.1V92h.1v-.1h.1v-.1h.1v-.2h.1v-.1h-.1v-.1h.2l.3-.2V90.8h.1v-.1h.2v-.2.2h.2V90.4zM39.3 43.5h-.1l.2.1h.1-.2zm-33 28H6.8v-.1h-.2l-.1.1zm39.5-26.4v.2h.2V45h-.2zm0 2.5l.1-.1v-.2l.1-.3v-.2.2l-.1.2v.2l-.1.2zm.8-1.4h.2V46l-.2-.2v.2zm-37 41.1v-.1l-.2-.1h-.1v.1H9v.1h.4v.2l.1.1v.1l-.1.2h.1l.1-.2h.1V87.3zM46 45v.1-.2h.2v-.4l-.1-.1v.4h-.1v.1zm0 .4V45.8l.1.3v-.2l.1-.2v-.4.1H46V45.6v-.1h-.1zM11.5 91.1v.1zM46 44.5h.1l.1-.1v-.1H46v.1h-.1zm77.4 54.8h-.1v.2-.2zM11.6 92.9h-.1v-.1h-.1v-.1.2h.2zM120 96.4v-.2h-.1l-.1.2v.5h.1v-.2l.1-.1v-.2zm.8.5v.8-.7zM72.3 46zM8.9 87h-.6l.3.1H9zm-.7-7.2v-.1h-.4v.1H7v.1H7l-.1.1v.1h-.1l-.2.3h.1l.1.1H7v-.1H7l.2-.2h.1V80H8V80h.2v-.2zm1 7.2H8.9v.1H9.3zm-2.6-7.5v.2h.2l.2.1H7.4v-.1h-.1l-.3-.1H6.6zm.2.6v-.3h-.1v-.1H6.3v.2h.1l.1.1-.1.1v.2l.1.2h.1V80zm.6-1.3h.1l.2-.1v-.1l.1-.1H8v-.2h.2v-.1l.1-.1h-.5l-.1.1V78.6h-.1v.2zm-.1-.7h-.1v.1H7v.1H7l-.1.2v.1l-.1.1h-.1l-.1.1H7l.1-.1v-.1h.1V78.2h.1V78zm-1 2.8h.1v-.1h.1v-.2h-.1l-.1-.1H6l-.1.2v.1h-.2v.1H6v.4h.2V81l.2-.1zm.4-1.3h-.2v.2h.1v-.1h.1v-.1zm0 0h-.1v.2h-.1v.5h-.1v.2l.1-.1v-.1h.1l.1-.5v-.1zm0-1.6l-.1.3v.1l-.1.1v.4-.2l.1-.3.1-.2V78zm-1 5.8zm.3-5.4h-.1v-.1h-.1v.1l.1.1H6l.1.1v.1h.1v.1h.1l.2-.1V78.1v.1H6v.2zm.8 3.3V81.4H6.4l-.1.2V81.9l.1.1v.1h.2v-.4zm-1.1-2v-.2l.1-.2v-.1L6 79v-.1h-.2v.4l-.1.1v.2zm-.8-6.1v.1H5V73.3h.2v.2h.1l.1-.1h.2-.1l-.2.2v.2h.2v-.1h.1l.1-.1V73H5.3v.1h-.2l-.1.1-.1.1v.1zm-.5 2v.1h.1V76.4H5v-.8l-.2-.1v-.1l-.1-.1V75l-.1-.1v-.1h-.1v-.1h-.2V75.2h.1v.4zm1.3 2.2l-.1-.3h-.1l-.1-.1-.2-.2H5l-.1.1V77.7h.2l-.1.1v.1h.2v.2h.2l.2-.2zM.8 72.3zm2.5.2H3v.1h-.4l-.2-.1v.4h-.1v.1h-.2v.1l-.1.1v.2h-.5.1l.1-.1h-.2v-.1h-.1V73h-.1H2.2V73h.2V72.6h.1v-.5h-.5v.1h-.2.1l.1-.1V72L2 72v-.1h-.2l-.1-.1-.1-.1v-.1h-.1v-.1h-.1l-.1.1V72h-.1v.1H1v.1H1V72.5H.8v.2H1v.5H.8V73.5h.2V73.8l.1.1v.1l.1.2v.1-.2l-.2-.1H.8l.2.1v.1H.8v.1H1V74.6h.1v.1h.2v.1h.4-.2l-.1-.1H2l.1-.1v-.1l.1-.2V74h.1v-.2h.1v-.1l.1-.1.1-.1v-.1l.1-.1.1-.1.2-.1V73H3v-.1l.1-.1v-.1l.1-.1v-.1zm-1.7-1h.1v-.1h-.1v.1zM7.1 76v.1l.1-.1v-.1h.1v-.1l-.2-.1h-.2v.1h-.1v.3h-.1v.2l-.1.1h.1V76h.1l.2-.2zm-1.7-4.4h-.1v.2h-.1v.1H5l-.1.3v.1h.3l.2-.2h.1l.1-.2v-.2h-.2v-.1zm-.2 2.4H5L5 74v.8h.2l.1.1H5v.1h.2V76h.1v.4h.1v-.1l.1-.1h.1v-.2h.1v-.2h-.1v-.1h-.1v-.1l.1.1v-.7l-.1-.2v-.1l-.1-.1v-.2l-.1-.1V74h-.1v-.2zm1.1 2.7l-.3.1h-.1v.1l-.1.1v.2H6l.2.1h.1V77l.1-.1v-.2h.1v-.2l-.1-.1v.1zm1-1h-.1l-.1.1-.1.1-.2.2h-.2v.3h.7v-.7zM5 73v.2H5V73h-.1zm.1-.8h-.1v.1H5zm.8.8h-.1v.2h.1V73zm0 0h-.2v.2H6V73h-.1zm.3 3.7v.2L6 77h-.1v.2l-.1.1V77.6H6v-.2h.2V77H6V77v.1h.1v.2l-.1.1v.1H6v.1h-.1v.2-.1h-.1V78.6H6v-.1l.1-.1V78h.1v-.2h.1v-.2V78l-.1.2-.1.1v.4H6v.1h.2V78.4h.1l.1-.3V78l.1-.2v-1l-.1-.3-.1-.1v-.1h-.1v.2zm2 14.6h.1v-.1h.1-.1zM6.6 83h.1-.1zm1.7 8.1v.1zm-1.4-6.5H7l.3.1h.1v-.1h-.4v-.1H6.5h.2zm1.4 6.6zm3.3 2v-.5h-.2v.2l-.1.1V92.3H11h.1V91.7l-.2-.1v-.2.1h.1v-.4H11v-.4h-.2v-.1h-.1v-.2l-.3-.2-.1-.1-.2-.1-.1-.2v-.1h-.2v-.2l-.1-.4V89h.1l-.3-.8v-.6h-.1v-.7l-.1-.2H9l-.1-.1-.2-.2-.1-.1-.2-.1V86h-.2l-.1-.2H7.7v-.1h-.1v-.1h-.1l-.2-.2h-.1v-.1H7v-.1l-.1-.1V85h-.2v-.2l-.2-.1v-.2h-.1v-.2h-.1l-.5-.5h-.2v-.1H5V84.8l.1.1v.1H6l.1.1v-.1l-.2-.2h-.1v-.1l.4.2v.1H6.5v.1H6v.5-.3l-.3-.1h-.2l-.1-.1-.1.1-.1.2v.1h.1v.2h.1v.1l-.2.2h-.1v.2h.2l.1-.1h.1v.1H6v.4h.2v-.2h.1v.1l.1.1h.1l.1-.1v.1h-.2v.2H6v.5h.4v-.1h.1V87v.2h.1V87h.1V87.5H7v.5h.1v-.1h.1v.2H7v.1l.2.2h.4-.9V88.7l-.1.1v.2h.1v-.2H7v.2H7v.1h.2v-.1.1h.4l-.1.1v.2h.1v-.1h.2V89v.1l-.2.2h-.1v.2H7.9v-.1H8v-.1.6l.2-.1v.1h-.2l-.1.1h-.2l.2.2V90.7H8v.1H8v.1H8.4v-.2h.2l-.1.2h.4l.2.1h.2v-.2h.1l.1-.1v-.2h.1v-.1V90.6l-.1.1v.1l-.1.1h-.1L9 91h-.2v.1h-.2v.1h-.2V91.6l.5.5v.2h.2l.2.2h.2v.1l.4.5.4.3h.1l.1.1v.1h.2v.1h.2v-.1h.1v-.1h.1l.1.1h.1l.1-.2zm-3.7-7.7h.4v-.1H7.3h.3zm.4-.8v-.1h-.5v-.1H7.3v.1H7.8v.1h.5zm-1-1v.1H7.6h-.2zm.1.9h.1zm.9.2v-.2H7.8l-.2.2h-.1l-.1.1v.1h-.1v.1h.1v.1h.1v.1h.2l.1.1H8v-.2h.1l.1-.1v-.2zm-1 .6h.1v.1h.2v-.1h-.2zm.9 0h.1v.1h.2v-.1H8zm.1 5.8zM5.7 74.5v-.2h-.1V74h-.2l-.3.1h-.2v.2l.1.1h.1v.2h.3l.1.1h.1v-.2zm-.8 2H5v-.2h-.1v.1zM5.8 87V87h-.1v.1h.1zm-1-9.8H5v-.1l-.1-.1v.2zm1-.9h-.1V77.2h.1V76.4zm-5-1.6h.1l-.2-.1v.1zm5 1.7v-.1l-.1-.1v.2zm2.4 14.7zm-2.4-8.3h-.2.1v.1h.1v-.1zm.6 5.7v-.1l.1-.2v-.4H5.8v.1H6v.1h-.2v.2l.1.1v.1l.3.2h.2zm1.8 2.6zm-1.7-2.4h.1v-.1h-.1v.1zm1 1.5h-.1v.1zm0-.9V88.8h-.2v.6l.1.1h.1zm.7 1.8zm82.2-19.7v-.1.1zm0 .8v-.1h-.1v.1zm-.8-3.3h-.1.1zm.7 1v-.1V70.4h.1v.1-.6zm0 .6v.1h.1zm0-.8zm0 0v.1h.1v-.1zm.1 1.6v.2-.1zm-5-9.8zm.9.8zm0 0h-.1zm4 9v.1h.1zm-5-9.8h.1zm.1 0zm4.2 6.7v-.1l-.1-.1v.2zm-1 4h.1zm0 0h.2v-.1h-.1v.1zm-.7-.8zm2.5 12.3zm-.9-9.9h.2l.1-.1.2-.4h.1l.2-.2H90v.2h-.2v.1l-.3.4zm-.8-2.5v.1zm2.5 14zM89.6 69v-.1h-.2.1v.2h.1V69zm-.9 2.5zm1.6-1.7zm-.7-.8v-.1h-.1v.2h.1V69zm0 2.5v-.1zm-.9 0zm-2.4-9zM128 83.7zm2.5 4h-.1v-.1H130.1v-.2l.1-.2v.1h-.1v-.2h-.1v.1h-.5l-.1.1v.2-.2h-.2l-.1-.2-.1.1-.1.4v.4h-.1v.1l.2-.4v-.2h.1v-.1h.1v.1h-.1v.4l-.1.2v.2h-.1v.1h-.1V88.9h.2v-.1l.1-.2h.1v-.1l.1-.1V88.6l-.1.1V89h-.1V89.4l.1.1v.1h-.1v.1-.2H128.8l-.2.3h-.2V89.4h.1v-.1h.1v-.1h-.2v.1h-.1v-.1h.1V89l.1-.1h.1v-.6.1h-.1v.2l-.2.1v.2l-.2.1.2-.2v-.4h.2v-.1l.1-.1h.1V88l.1-.5v-.2.2h-.1v.3-.5h-.1v-.9h-.1v-.1h-.1v-.5h-.1v-.1h-.2v.1h-.2v-.5h-.1v.2H127.5v.7l-.1.1V87.2l-.1-.1v.4h.1V88.5l-.1.3V89.4h.1v.1l.1.1.1.2.1.1.2.2h.1l.2.2h.2v-.1h.2l.1-.1V90h.1v-.1h.1v-.1h.1v-.1h.4l.1-.1.2-.2v-.1h.1v-.1l.2-.2V88.6l.2-.2h-.1v-.1l.2-.3.1-.2h.1v-.1zm-1.6 1.6h-.1v.1l-.1.1h.2v.1h.1V89.3h-.1zm-23 10zm.3.7h.4v-.7h-.1l-.1.2v.2h-.1l-.1.1h-.1v.1h-.1l-.1.2h.2v-.1zm.3-1.3l.1-.1v-.1h-.2l-.1.1h-.1v.2h-.1l-.1.2-.1.2h.4l.1-.1V99l.1-.2zm33-20.8v-.4l-.1-.1v-.1h-.1v-.2h-.1V77h-.2.1V76.7l-.1-.1v-.2h-.1V76h-.1v-.2h-.1v-.1l-.2-.2h-.1v-.1l-.1-.1h-.2v.2l.2.2V76.4h-.1v.2h-.1v-.1h-.1l-.1-.1h-.1v-.1h-.1V75.8h-.1v-.5l-.1-.1v-.7h-.2v.4h-.2v.2h-.1v.4l.1.1v.5h.1v.4h.1v.2h-.1l-.1-.1h-.1v-.2h-.1v.2h-.1l-.2-.1v-.1h-.1v-.1h-.2v-.1H136.8V76h-.2.1v-.5h-.1v.1h-.1v.1h-.1l-.1.1h-.1l.2-.1v-.1l.1-.1h-.2l-.2.2v-.1h-.1v-.1h-.1v-.1h.1v-.1H136.3v-.1l.1-.2v-.2l.2-.1-.1-.2v-.1h.2v-.2l.1-.2v-.2h-.1V73.5h-.2v-.1h-.1v.5h-.4v.7-.3.1h-.1v-.1V74.7v-.2h-.2v.5-.2h-.2v.3h-.1V75.5h-.1V75h.1v-.2l.1-.1v-.1h.1v-.2l-.3.1v.1-.2l.1-.1v-.1h.1V74v.1H135l-.1.1h.2v.2h-.2v-.1l-.1-.1h-.1.1V74h-.1v.2h-.1l-.2.2V74h.1V74l.1-.2v.1h-.1l.1-.1v-.1h-.1v-.1h.1v-.2h-.1l.3-.2V73h-.1v-.5H133.6v.1H133.3V73h-.2v.5-.1h-.1v-.1h-.1V73h-.2v-.2h-.1V73.9h-.1l-.1-.2v.5l-.1-.1-.1-.1h-.1v.1h.1l-.1.3v.4h.1v-.1V74.9v-.1h-.1v-.2h-.1v-.4h-.1v-.4l-.1-.1-.1-.1h-.1v.1h-.1v.1h.1v.1h.2V74.3h-.1V74v.1h-.1V74h-.1v.1-.2h-.2v.4-.1l-.1-.2v.4h-.2v-.1H130.7l-.2.1V74.7h-.1v-.4h.1V74h-.1v-.2h-.1v.1-.1h-.1v.2l-.1.1v.2-.5l.2-.3v-.2l.1-.1V73h.1v-.2l-.1-.1v.1h-.1l-.1.1v.2h-.5v.2-.1h-.1v.2l-.1.1v-.4h-.1l-.1-.1h-.1V74h-.1v1.1-.1l-.1-.2v-.1H128.7V74h-.1v.1l-.1-.3v-1.1h-.2.1v-1h-.1v-.1h-.1v-.2h-.1v-.1h-.1v-.1l.1.1v.1l.2.1V71h.1V70.7h-.1v-.2h-.1V70.2l-.1-.1h-.2v.1l-.1.1v.1H127.6v-.1h.1v-.1h-.1v-.1h-.2V70h.2V70h.1l.1-.1h.4v-.6h-.2.1v-.1h-.1V69h-.2v.2h-.1v.1h-.1.1v.1h.2-.1l-.1.1h-.1v.1h-.1v-.1h-.1v-.2h-.1l-.1.3v.1l-.2.2v.2h-.1v.1l-.1.1-.2.4v.4h.1v.7h-.2.1v.1H127v.6l-.1.1-.1.2h-.1v.1h.4v.1h-.2V73.8h.1V74.2l.1.1v.4l.1.2v.4l.1.1v.5h.1v.1l.1.1h.1v.1h.5v.1H127.6v.1h.1-.1l-.1-.1h-.2V76.5l-.1.1v.2l.1.2.1.1h.4V77l.1-.1v.2l-.2.1h.1l.2-.2v.1-.1h.1v.1l-.1.1-.1.1h-.1v.1l.1.2h.4-.7v.1h-.1v-.1h-.1V78.3l.1.1v.6l.1.1v.1l.1.1v.1h-.2l-.1-.1v.2h-.1l-.1-.1v-.5.4l-.2.3v.4l.2-.2.2-.1.2-.1.1-.2.2-.1H128.4V79h.1V79h.1l-.1.1v.2l-.1.1v.1-.1l-.1.1V80.1h-.1v.4l-.1.1-.2.3v.4l-.1.1v.1h.1v.1h.1v.1h.1v.1l.1.1v.1h.1v.1h.4l.2-.1v-.1l.1-.1.3-.1v-.1l.1-.1.1-.1v-.1h.2v-.4h.1v.2h.2V81l.2-.2h.2v-.1l.1-.1v.1H130.7v-.1h.2l.1-.1v-.1h.1l.2-.1H131.7V80h.1v.1h.1l.2-.2h.4v-.2h.1-.1v-.1h.1l.1-.2h.2l.1-.1h.1v-.2h-.1V79v.1l.1.1h.1V79h.1V78.7h-.1v-.1h-.1v-.1l.1.1.1.1h.1v-.2l.2-.1v-.2l-.1-.1V78 78.3h.1v.2h.1V78.8h.2v-.2h.1v-.1h.1v.1h-.1v.2h-.1v.2l-.2.2-.1.1v.1h.1v-.1h.1v-.1l.1-.1V79h.1v-.2.5-.1h.1V79h.1v.1h.1V78.7h.1v.2h.1l.1.1v-.2h.1v-.4h-.1v-.1h-.1v-.1l-.1-.1V78h.1v.1h.4V78v.1l.1.1V77.5v.5h.1l.2-.1v-.1l.1-.2v-.1h.1v.6h-.1v.1h-.1v.1l-.1.1V79.6l-.1.2h-.1v.1h-.2v.2h-.1v.5h.5v-.1h.1v-.1l.1-.1v-.1h.1V80h.1v.1h.2V80l.1-.1V79.5h-.1v-.1h.1V79.1h-.2V79h.1v-.8.1h.1l.1-.1v-.1h.1v-.7l.1.6v.1l.1-.1v-.7h-.1v-.2h-.1v-.6h-.2H136.2v-.1h.1v.1l.1-.1v.1h.1l.2.2h.1v.1h.1l.1.2h.1v.2h.2v.5h.1V78.5h.1v.4l.1.1.1.1h.2l.1-.1V78h.1v-.4.1V77.5v.1h.2v.5h.2V78.4l.1.1v-.3h.1v.5h.1v.1H139v-.4l.1.1h.1v-.2l.1.1H139.6V78zm-33.9 22.1h-.1l-.3.1h-.1v.2h.4v-.1h.2v-.1h.1v-.1h-.2zm30.8-23v-.2h-.1v-.2l-.1-.1v-.2h-.1v.2l.2.3v.2l.1.1V77zm-.3-2.3l-.1.3h-.2l-.2.2h-.1v.1h.1v.1h.2l.2-.1.2-.1v-.5zm.2 2v-.2l-.1-.1v-.1.8h.2v-.4zm-2.7 2.1h.1-.1l-.1-.1h-.2l-.3.1v.1H133.8zm1 .7v.1h.1zm-4.9 7.5V87v.1zm-9.5-5.9l.2.1H121.1l.4-.1.3-.2h.5l.2-.2h.2l.2-.2h.2v-.2h.1v-.2l-.1-.1h-.1V80h-.2v-.1h-.2v-.1H122.2l-.2.1h-.6l-.1-.1h-.1l-.1-.1H119.6l-.3.1-.2.1h-.2l-.2.1-.4.2H117.8v.1l-.1.1-.2.2v.2h1.6l.2.2h.1l.1.1v.1h.1v.1h.7zM72.9 41l.1.1h.2V41H72.8zm33.2 59.2H105.7h.2zm14.6-37zm4.7 26V89h.1l.1-.3h-.4l-.1.1-.3.2h-.2v.1h.1-.2l-.1.2h-.2l-.2.2h-.2v.1h-.2v-.1H123.2v.1h-.4V90h-.1v-.1h-.1l-.1.1V89.6h-.2v-.1h-.1l-.1-.1h-.2V89l-.1-.1v-.1h-.1l-.1.3v.5h-.1V90h.5v-.2h.1v.2l.1.2v.1H122.7v-.1h.2l.1-.1h.1v.1h.1v.1H124l.1-.1V90h-.1V90h.1v-.2h.1l.1-.1v.1h-.1v.2h.4v.2h-.1H124.9v.1H125.2l.3-.2v-.2.1h-.1V89.6h-.1.1H125h.1-.1v-.1h.2v-.1h-.1l.2-.1h-.1v-.2h.1V89zm-5.5-3.6v-.1h.1v-.2h-.1V85.6zm0 1.4h.1v-.7V86.7h-.2V87h.1v.1zm4.2-12.3v.2-.2h-.1v-.1.1zm-14 17.2l-.1.1v.1h.1v-.2zM125 72.2h-.2v.2h.1v-.2zm-.2 11.6h.1-.1zM110 93.6l-.2.1-.1.1-.1.3-.3.2v.1H109.6l.2-.2.1-.2h.1V93.7zm14.2-8.6h-.1v.2l.1.1v.1h.6v-.1h-.5V85h.2V84.7h.1-.1v.2h-.1l-.2.1.1-.1h.1v-.2l-.1.3zm.5-.5V84.2l.1-.1.1-.1V84.4 84l.1-.1v-.2l-.2.2-.1.6v-.1zm-7.2-4.8h-.1.1zm-31.3-7.4V72.7h-.4v.1l-.3.1V73.2h.2l.4-.3.1-.2V72.3zm-.3.2l-.2.4-.2.6v.2h.1v.1h.1v-.1l.2-.3.1-.4v-.1h.2v.2l-.1.4-.1.3v.1l.1-.3H86.5l.1-.3v-.6l.1-.2h.1v.1l.1.5v.4V72l.1.1V73.5 72.3h.1v-.4h-.4l-.1-.1v-.2H86.1v-.1H86v.4h.1V72.7l-.1.1v.2H86V71.8l-.2-.2v.2l.1.2v.4zm-.2-6.8h-.1v-.1h-.1.1v.1l.1.1h.5-.5v-.1zm-.3 0zm1 6h-.1v-.1h-.1v-.1V72.3h.1v-.4zm-1.7 11h.1l.3.1H86.2l.3.1h.5v-.2h-.1l-.1-.1-.3-.2h-.1v-.1h-.1L86 82h-.5l-.1.1h-.2l-.2.2h-.2l-.1.2zm1.6-16.2h-.1.1zm.7 6.7V74v-.5h.1v-.2.1-.1H87zm.7-.6v.5h.2V73l.1-.1v-.4l-.1-.2h-.1v.2h-.1zm-.6-3.6zm-1-2.5h.2-.1zm1 10.6v.1l.2-.2.2-.2.1-.1.2-.1v-.2l-.2.2-.1.1h-.1l-.2.2v.2zm.8-5.6zm-.8-5l.6.1h.1l-.4-.1h-.3zm-21.3-8.2h-.1.1zm.6 0H66.7 66.3zM63.3 55h-.1.1zm2.5.8h-.2v.1H66h-.1zm.5 0h.1l.1.1h.2v-.1h-.4zm.2.1h.1v-.1h-.1v.1zm-2.3 4.8H63.8v.1h.1v.1h.2v-.2zm21.1 8.7h.1v.4V69.5h.1V69h-.1v.4zm-.7-9.4zm-19.8-.8h.1l.1-.1h-.2zm20.6 1.6zm-20.6-1.7v.1h.2-.1V59zm19 1.7h.2l.1-.2.4-.2V60h.1V60l-.7.4v.2l-.1.2zm1.6 5v-.1zm4.9 18.9v-.1h.1-.1zM87.9 78zm2.4 5zm-.7-2.5h-.1zm-.1 2.5v-.1.1zm-1.6-11.6zm.8 9.1zm1.2 3.5l-.1.1v.1h-.2v.4h.1l.2-.1h.2v-.1h.1v-.1h.1v-.5H90v.1h-.2zm.5.6zm0-1.7h-.1v.1h.1zm0 .9h-.1.1zm-.8-3.3h-.1zm0 3.2h-.1v.1h.1zm.7.9h.1zm-.7-4.1h-.1zm-1.8-1.6h.1zm0-.9h.1zm-.6-8.2H87v.1h.1v-.1zm0 0H87h.1zm-.2 1.7h.1-.1zm1-5h-.2.2zm-1 3.3h.1zm-1.5-4v-.1h-.1zm2.4 15.4h-.1V81.6h.2V81.1h-.1zm0-.7zm.7.7v.2h.2v-.1l-.1-.1h-.1zm-3.2-10.6v.1h-.1V71h.1v.2l.1.2v-.6l-.1-.1zm0 .8v.2h.1V71.2h-.1v.1zm2.5 8.3zm-2.5-.9v.1zm-78 5.8zm74.7-19.7v.1-.2h.1-.1zm-2.6-22.4v.1h.1l.1.1h.4v-.1h.2v-.1h.1v-.1h.4v-.1l.1-.2h.1v-.2h.2V41.5h.1V41l-.1-.1v-.1l-.1-.2v-.1H81l-.1-.2h-.1v-.6l-.1-.1h-.1v-.1H79.5v.1H79.2l-.3.3v.5l-.1.2V41.6l.2.3v.2h.1v.1l.1.1.2.2zM82 57v-.4l-.1-.1v-.2h-.2V56h-.2v-.2h-.4v.1h-.4l-.1.1V56.5l-.1.2-.1.4V57.4l.2.2V57.9h.2l.1.1h.2v.1h.2l.1.1.1.1h.1v.1h.1l.1-.1v-.6h.1V57zm.5-3.5l.1-.1v-.1h.1l.2-.1v-.2h-.1l-.1-.1h-.1v-.1h-.1v-.1h-.9l-.2.1-.2.1v.1h.2v.1l.3.1.2.1h.2v.1H82.6zM82.2 64H82v.1zm0 .9zm-3.4-12.3H78.1v-.1h.1v-.2l-.1-.1H78l-.2-.1-.1-.1h-.1v.2h.1v.1H77.2v-.1.2H77l-.2.2h-.2v-.2h.2v-.1h.1V52h-.1v-.1h-.2v-.4h-.1v-.2l-.1-.1-.4-.2v-.1h-.2l-.1-.1H75l-.1-.2h-.2l-.2-.1h-.1l-.1-.1-.1-.1v-.2H73.3l-.2-.1V49.6H73l-.1-.1v-.1H72.5v.6l-.1.1h-.1V50l-.1-.2v-.1h-.1v-.1H72l-.1-.1h-.1l-.1-.1v-.1h.2v-.2l-.2-.2v-.2l-.2-.1h-.1v.1h-.1V48.4h-.1l-.2.2-.2.3V50l.1.1v.4l.1.3v.6h.1V52.2H71v.5h.1v.2l.1.1v.1h.1v.1l.1.1.1.1v.2h-.1l-.1.1v.1h-.2v.1l-.3.2v.1l-.2.5v.4h.4l.1-.1v-.1h.1v-.1h.5l.3-.2.2-.1v-.2l.1.1v.1h.1v.1h.1v.7l.1.1v.2l.1.2.2.2h.3l.2-.2.1-.2.2-.2v-.1h.2v-.7l.1-.1v-.1h.1v-.1h.2V54h.1v-.1l.2-.2h.1v-.4l-.2-.2v-.2l.1-.1h.1l.1-.1h.2v-.2h.2v.5h.4l.3-.1h.2v.4l-.1.1.1.1v.1H76.5l.2-.1h.5v.1H77.6l.3.1h.4v-.2h.1v-.1l.1-.2V53h.1v-.2l.3-.1v-.1zm-4.6-5.9H74v.2h.4l.1.1h.1v-.2h.1-.5zM73.1 48l-.2-.1v-.1h-.6v.1h.2l.1.1h.1v.1h.1V48.3H73.2l.1-.1h.1v.2h.6v-.1h-.5v-.1h-.2V48h.1v-.2H73zm-.5.7v-.1H72.2V48.9h.1v.1h.1v.1h.2v.1h.1v.1H73.2V49H73l-.1-.2h-.1v-.1h-.1l-.1-.1zm1.3-1v.1-.1zm3.7 9.4v-.1l.2-.1.1-.2.1-.1V56l-.1-.1h-.6v.1H77l-.1.1-.4.3H76.2v-.1H76l-.1.1-.1.1v.6l-.1.2-.2.2V57.8l.3.1.1.2v.2h.1l.3-.3h.5l.2-.1.2-.2v-.3l.3-.2V57zm9.4-7.6h.1v-.2H87v.2zM83 64v-.1.1h-.1v.2l.1-.1zm0-.3v-.1l.1-.1v-.2h-.2V63.6l-.1.4V63.6h.1v.2h.1v-.2zm0 1.1v.1zm0 .1zm4.2-11.4h.7v-.2H87v.1h.1zm-1-4.6v.1l.1.3h.1V48.6h-.1v-.2H86v.2h.1v.1zm-2.5 3.4v-.1h-.1V52h-.2l-.8-.3v.1h-.4v.2h.2-.2v.1h.2l.1.1h.1v.1h.1l.2.1.2.1h.6v-.1zM83 65.7zm-.8-.8H82zm0 0zM74 48.4h-.2v.1H74.2v-.1zM82.2 64v.1-.1zm.7 1.7zm0-1.7v.1zm-9-16.3v-.1zm-6.4-10.5h-.1v.4h.1l.1.2.1-.2.1.1h.4v-.4H68V37H68l-.1.1h-.2l-.1-.2v.2h-.1zm1.3 5l-.2-.2-.2-.1-.1.1v.4l-.1.1v.2h.1l.1.1v.5l.1.1h.2v.1h.1l.1-.1.1-.2v-.5l-.1-.1v-.1l-.1-.2v-.1zm6-4.7h.5l.1-.1.2-.2-.1-.1-.2-.1H75v.1H75l-.2.2h-.1l-.1-.1h-.4v.1h.2v.2l-.1-.1H74v.1h.5v.2h.1v-.1h.1v.1H75l-.2-.2zm-4.1.3h.1v-.1h-.3v.1l.2.1v-.1zm13 17.3h.2v-.2h-.2v.1zM65 39.9v-.4.1l-.1-.1v.1l-.2.1V40h.1v.1l.1.1h.1V39.9zm-.2 1.2h.1v.1-.2h-.1zm4.4-19.7H69v-.1l-.5.1.2-.2h-.1V21h-.1V21h-.2l-.4.1h-.2V20.8h-1v.1l-.3.3H66V21h-.2v.2l-.1.2h-.3v.2h.2-.4v.2H65v.1h-.2v.1l-.3.1v.1h.1l.1.1h.2v.1h-.4l-.2.2h-.1.1v-.2H64l-.2-.2-.2-.1-.1.1V22.7l-.1-.1v-.1H63.1v.2H63v-.1H63l-.2-.2-.1-.1v.1h-.1V22.7l.1.1v.1h-.2v-.1l-.1-.2h-.2v.1H62h.1-.1v-.1h.2v-.6l-.1-.1H62l-.1.1v-.2h-.1v-.1h-.1v-.2h-.1v.2h-.2l-.1.1v-.1H61l-.1.1V22h-.1v-.5h-.1l.6-.1v-.1H61v-.1h-.4V21h-.1v-.1h-.1.3v.1h.7v.1h.1-.3V21l.7-.1v-.1h.1v-.2l-.9-.2H60.7v-.1h-.4v-.1h.7V20L61 20h-.2v-.1l-.1-.1h-.1l-.3-.1-.3.1-.1.1-.1.1h-.5v.2h-.1v.2H59v.2-.2l.1-.2v-.6l-.1-.1v-.1h-.1v-.1h-.2v-.1h-.1v.1H58.2v-.1H58V19h-.2l-.1-.1h-.2l-.1-.1h-.1l-.3.1v.1h.1l-.1.1h-.2V19.6h.1l.2.2H57h.1v.1h-.2v-.1h-.1v.1h-.1v.1H57v.2h.2v.1h.1v.1h.2v-.1h.1v.2H57.2v.2l.1.1h.4v.1h.4v.1H58l-.1.1v.1l.1.1.2-.1V21h.8v-.1l.2-.2h.1v.1h.1v.1l.1.1.1.1v.1h.1v.4h.1v.1h.1v.1l.2.1v.1l.1.1v.2l.1.2v.4h-.1V24h.1v.1h.2v.1h-.1v.2l.2.2v.4l.2.1v.1h.1v.1l.2.1h.1V25v.2h.2v-.1l-.1-.1V25l.2-.3v-.1.5-.1h.1v.1l.1.1.1.1h.2l.2.1v-.1l.1.1h.4v-.1h.1v-.5h.1v-.2h-.1.1v.1l.1.1v.1h.1v-.5.1h.1v-.2.2h.2V25.4h.8V25h.1v.2h.2v-.1h.4l-.2-.1V24.7v.2l.3.1V25l.1-.1v-.1l.1.1v.2l.4-.1v-.5.2h.1v.2h.2v-.5.1l.1.1v.2H66.7v-.1l.1-.1.3-.1.1-.1v-.6h-.2V23.4v.1H67.3V24l.1.2.2.2.2.1h.1v-.2h.1v.1h.6l.1-.1.1-.2h.1l.5-.1v-.1h.2V23.4h-.1V23L69 23v-.2.1h.1v-.1.1l.3.2V23l.3-.2v-.1l-.1-.1h-.1v-.1h-.2l-.1.1h-.1v.1H69v-.2l.2-.2V22h.2v-.4h-.1v-.2h-.1zM64 41v.1h.1v-.5l-.1-.2h-.2v.5-.4h.1v.5zM83 55V55h-.3v.1H83.1zM70 25.8v.4l.1.1.1.1h.1-.1V26.8h.1v.2h.7v.2h.1v.2l.1.1v.1h.1v.1h.1l.1.2h.2l.3.1H72.2l.2-.2.2-.1v-.1l.3-.2h.1l.6-.2h1V27h.1V26.6h-.2v-.1h-.1v-.2H74l-.1-.1v-.1h-.1l-.1-.1h-.1V26H73.3v-.1l-.1-.1h-.1v-.1H73l-.1-.1h-.5l-.1-.1h-.1l-.6.1v.1h-.1l-.4.1H70.2v-.1H70v.1h-.1zm13 37.4zM79.8 39v.2h.1l.2.2h.2l.1.1h.2v-.1h-.1V39h-.1l-.1-.1-.1-.1-.1-.1H79.7v.2zM78 37.1l-.1-.1H77.2v.6h.2v.1h.5v-.1h-.1V37.2h.1v-.1zm-.8 14.6v.1h.1v-.1zm-1.6-12.4v.1h.2l.1-.1h.2V39h.1v-.7h.1v-.5H76v.1l-.1.1v.1h.1v.1h-.1v.5h-.2v.4l-.1.1zm1.6.2H76.4l.3.1h.1v.2h-.1v.2h-.1v.2H77l.2-.2h-.2v-.2h.3v-.2zm-.5 1.5H77V41l.2-.2v-.2l-.3-.1v-.1h-.5v.4l.1.1v.1h.2zM83 65v-.1zm-2.3-26.3h.6l-.1-.1H81v-.1h-.4l-.1.1.1.1zM83 63.3v-.1.1zm-7.2-26.9v.1l-.1.2-.1.2h.1v-.1H76v-.1l.1-.1h.2v-.4h-.4l.1.1h-.1v.1zM83 63.3zm-1.5-11.6h-.1v.2h.5l.1-.2h.1v-.1h-.5v.1h-.1zm-.2-12.6V39h-.1l-.2-.2-.2-.1H80.5v.1l.2.2h.2l.2.1v.2l.1.1h.1v-.2zm.5.4h-.2v.1l-.2.1V40l.3.2H82l1-.2v-.1l-.1-.1-.1-.1v-.1h-1zm14.4-.2v.1h.1v.1H96.6v.1h.1v-.1h.2v-.1h-.1v-.1h-.5zM110 58.5v-.1H110.3v-.1h-.1v-.1h-.1l-.1.2zm0 0H110.3v-.2h-.1v-.1h-.1v.2zm2 2.3h-.1v.5l.1.1h.1v.1h.2l.2.1h.1v-.2l-.1-.1h-.1v-.1h-.2v.1h-.1V61h.1V60.7h-.1zm-.2.9H112.6v-.2H112.1l-.5.2zM110 59v.1-.1h-.1v.2h.1v.1h.2V59h-.1zm.2.6l-.1.2v.2h.2l.5-.2v-.2H110.6v.2h-.2v-.1l.3-.2v-.1h-.1v-.2h-.2V59.6zm-6.8-4.1v.4h.1v-.2h.1V55.4h-.1V55h-.1v.4zm-1.5-1.3v.1h.2v.1h.5v-.2H102.2V54h-.4zm-3.3-5h.6l.1-.1v-.6H99l-.1.1v.1H98.5v.2h.1l-.1.2zm0 2.5h-.1v-.1.2h-.1v.1h.2v-.1h.1v-.1h-.1zm3.2 1.8h.1v-.2.2zm-2.4-3.4v.4l.2.2v.1h.1v.1h.4l.1-.2v-.1l-.1-.1v-.1h-.1v.1l-.1-.2-.1-.1v.2-.1l-.2-.2h-.2zm.6.9H99.7l-.3.3v.1l.1.1h.2l.1.1h.2v.1h.2v-.5h-.1V51h-.1zm12.6 10.5v.1H112.9l-.3.1v.1h.2v-.1h.2l.4-.2h-.8zM131.3 74h.1l.1-.1h-.1v.1zm0-.1l.1.1h.1v-.1h-.1zm1.8-.9l-.1.1v.1h.1V73zm-.8-.1H132.7v.2l.1-.1h.1v-.2l.2-.2v-.2h-.1v-.1.1h-.1V72.8l-.1.1h-.5zm.8-1h.1V72.3H133.6V72h.2V71.6h.2v-.1h-.2v-.1h-.4V71.9h-.2zm-3.4-1.2v.1h.2V70.4h-.1v.1h-.1zm-16.2-8.3h.1l.5-.1v-.1h-.1v-.4h-.3v-.2h-.2v.6h-.1v.2zM88.8 50l-.3.2H88.8V50zM128.9 70h.1v-.2l-.1.1zM98.5 49.2v.2h.1v-.1h.1v-.1h-.1zm29.6 19l.1-.1v-.7.1l-.1.1V68.2zm-14-5.8h.1v.1h.1v-.2h-.2v.1zm5.1.7h.1v.1h.4V62.8h.2v-.2h-.1v.2h-.1l-.1-.1v-.4h-.1v.2h-.1v.1l-.1.1v.1h-.1v.1zm-6.8-2.4h.1v.2l.1-.1v-.1h-.1zM97.8 46v.2h.1v.1h.1v.2h.1l.1.1.1.1h.2v-.1h-.1v-.1h-.2v-.1H98v-.2H98v-.1l-.1-.1-.1-.1zM73.9 35.3l-.1-.1-.2-.2v.1h-.2v-.2H73v.2l-.1.2v-.1h-.1V35h-.2l-.1-.1v.2h-.2V35h-.1v-.1h.2v-.1h.1v-.1l.1-.1v.1h.2v-.2V34.9h.1v.1h.1v-.2h.2v.1h.1v.1H73.8v.2h.1v.1h.1v.1zm-5 0v.2l-.3.4h-.1v.1h-.1v.1h-.2l.3-.2.1-.1.3-.4h.1zm5.6-6.6v-.1H73.6V29h-.2l-.1.2-.1.2v.2H73v.2h.1l.4.2h.4l.1.1H74.9 74.5l-.2.1v.2-.1h-.1V30H73.8l-.1-.1h-.4v.2h.1v.1h-.1V30H73V30.4l.2.2H73.7l.1.1.1.2h.2l.2.1v.1h.2v.1h.1v.2-.1h-.2V31l-.1-.1H74v-.1h-.2v.1h.1l.1.1.1.1h.2H74l-.3-.2v-.1l-.1-.2-.1-.1-.4-.1v.4h.2v.1h.2v.1h.1v.1l-.2-.1H73v-.2h.1v-.5H73v-.1h-.1v-.1h-.1l-.2-.2v.1l-.1.1v.2h.1v.1l-.1-.1-.1.1V30.2h-.2V29.8H72v.2l-.1.3.1.1.2.2h.2l.1.1h-.3v-.1H72l-.2-.2V30.8h-.1v.1l.1.1V31.3h-.1l-.1.1v.2l-.1.1v-.4h-.2l.2-.2h.2-.2l-.3-.2h.1v-.5h.1V30h-.2v.1h-.1l-.2.6v.1V30.3h.1l.1-.3.2-.2h-.1V29.4h.1V29.1H71V29H71v-.1h-.1v-.5h-.2l-.5-.2-.1-.1V27.7l-.1-.1v-.1l-.1-.1-.2-.2h-.1v-.1h-.9l-.3.1v.2h-.2l-.1.2-.1.1h-.1l-.2.3.3.1v.2h.1v.2-.1H68v-.2h-.5l-.3.2v.1l.1.1.2.2h-.1v-.1h-.1l-.2-.2-.2.2V29.1h.1l.5.2H68.3v.1H67.2l-.1-.1h-.2l.1.2h-.2v-.1.2H67l.2.1.2.1.5.2H68.3v.1h-.4l-.1-.1-.5-.1-.2-.1h-.4v.7h.1v.2l.1.1h.2l-.1.1v.1l.1.1.2.1h.2v.1h.1V31h.1v.1h.4-.3V31.6h.2v.1l.1.2h.2l.1.1h.1l.1.1v.2-.1h-.1V32h-.1l-.1-.1H68l-.2-.2h-.6v.2h.1V32.3h-.2v.1H67v.1l.3.1v.1h.2v.2h.1v.1l.2.3h.5V33h.2v.2h.1v.2h.1v.1l-.1.1v.4l.2.2h-.1v.4h.1v.4h-.1v-.2h-.1v-.2h-.2.2V34.4h-.2v.1H68v.1h-.2l-.1.2-.2.2v.1h-.1l-.3.2h-.2l.3-.2h.1V35h.1v-.1l.2-.2v-.1h.1v-.1h.4v-.2h.1v-.1h.3V33.8h-.1v-.1H68v-.1h-.2v-.1h-.1l-.1-.1-.1-.1h-.1v-.1l-.1-.1h-.1V33H67l-.2-.2v-.1l-.1-.1v-.1h-.1v-.1h-.1V32.1l-.1-.1V31.2l-.1-.1-.4-.4-.1-.1V29.8h.1v-.7l.1-.2.2-.4v-.2h.1l.4-.5v-.2l-.3-.2h-.8l-.2.1H65.2l-.1.2h-.2l-.1.2h-.2l-.2.2-.2.2-.2.4v.1h-.1l-.1.2v.1l-.1.1.2.1h-.2l-.1.2h.1-.1v.2l-.1.1V30.9h.1v.1h-.2v.2h.1v.2h-.2v1.2H63.7v.1l-.3.2v.5h.1v.1l.1.1.1.1V34.6l.1.1v.1h.1v.1H65.7v-.1h.2v.2l.1.1h.1l.1.1h.2v.1h.4v.1h-.2v.1H66.1v.1h-.8l-.1-.1h-.4l-.2.1h-.1v-.1h-.4.1l.2.2h.1v.1l-.1.1V36.2l.1.1.2.1.1.1v.1l.2.2.2.2h.3l.2.1h.2l.2.2H65.9l.1.1h.2v.1h.2l.1-.1h-.1v-.1H67V37h-.2v-.2l.1-.1h.1v.1h.2v.2h.2V36.6l.1-.1v-.1h.1v.1l-.1.1v.2h-.1v.1l.1.1v.1l.4.3.5.2H69.2l-.2-.2h-.5l.3-.1H69.3v-.2h.1v.2H70.9l.2-.1v-.1h.4l.2.1h.1l.3.1h.2-.1l.2.1v-.2h.2v-.1h.1V37h-.2v-.1h-.1l-.1-.1H72l-.2-.1-.4-.1h-.2v-.1l-.3-.2h.1l.1.1h.3v.1H71.9v.1h.2l.3.1.2.2H72.9v.1h.2v.1h.2l.1.1.2.1h.1v-.1l-.2-.2h-.1v-.1h-.1v-.1H73l-.2-.1h-.4v-.1h-.1v-.1H74.4l.1.1h.1v.1l.3-.1.5-.2.1-.1v-.4h-.1v-.1h-.1v-.2l-.2-.2H75l-.1-.1h-.6V35h.1v-.2.2h.1v.1h.1v-.6h-.1v-.1h.1v.1h.2v.1h.1-.2v.1h-.1v.2h.2v.1h.1v-.1h.1v.2h.1l.2.1V35h.1v.2h.1v.1h.2v-.1h.1l.1-.1H76.3v.2h.1v.1l.1.1v.2l.1.1v.1l.1.1v.1l.1.1v.1h.1v-.2h-.1V36l.2-.1v-.1l.2-.2v.1l-.1.2h.5V36.3h-.1l-.1.1v.1h.5v-.1h.1v-.1h-.1l.2-.1h.2-.2v.2h-.1v.2l.3.1v.1h.6l.2.1h.1l.2.2.1.2v.1l-.1.1v.1h-.1v.1l-.1.1H78.4v.4h.2v.5l.2.1.3-.1.2-.3v-.1l.1-.1V38l.2-.1V37.7h-.1v-.1h.2l.1.1.2.1v-.5h.1v-.1h.2v.2h-.2v.2l.1-.1-.1.2.1-.1-.1.1h.1l.1-.2h.1V37.9l-.1.1H80.8h-.1v-.1h.1v.2l.2.1h.1v.2h.2v.1H81.6l.2-.1v.1-.2l-.1-.1h-.1V38h-.2v-.1h.5v.2h.1v.5l.1.1h.4-.1v.1h.1v-.2h.1v-.2h.1V38.8h-.1.1v.1-.1h.4v.1h.1v.1h.1v.1h.1v.1l.1.1v.2h.1v.1h.1v.1l.1-.1h.1v.1h.1v.1h.1v.2h.1v.1h.2v.1h.1v.2h.1v.1l.1.1.1.1v.1h.2l.1.1v.5l-.2.2-.1.1v.7l.1.1h.1v.1h-.2v.2l-.1.1V43.2l-.2.4v.2h-.1v.2h-.1v.1l-.2.3v.4l.4.2.2.1.2.1h.2l.1.1h.1v.1h.1v.1h.1v.2h.2v.2h.2v.1h-.1v.1h-.2v-.1h-.2v.1H85v.1l-.1.1V46.5l-.1.1-.1.1h-.2v-.2.1h-.2v.1H84v.4H84l-.3.1h-.1V47h-.1v.1h-.3v.2h.4v.1h.2l.1.1h.1v.1l.1.1h.1v-.2h.1V48h-.1v.2l-.1.1h.1v-.1h.1v.2h.1v.1h.1v.2h-.1v-.1h-.1v-.2H84v-.1h-.2V48h.2v-.4h-.4l-.1-.1v-.1h-.4v-.1H83l-.9-.1H81.8v.1h-.5l.1.2h-.1v.2l.1.1.2.2v.1h-.1l-.2.1v.1l-.1.1-.1.1H81V49H81V49.3h.1v.1h.1V49.7H81v.1h.1v.1l.1.1v.1h.1v.1h.1l.2.1v.1h.1v.1H82.2v.1-.1h.4v.1H82.9v-.1h.5v.1h.2v-.1h-.1v-.2H83.8V50h-.1.2l.2-.1H83.6h.1v-.2h.2l.1-.2v.1H84.5v-.1h-.1v-.1H84v-.1H84.5l-.1-.1h-.1v-.1H84V49H84.7l.1.1h.2V49h.2v.1h.4l.1-.1v-.2h-.1.1v-.1h-.2.2v-.1l-.2-.2H85.2v-.1H85v-.1h-.2.1v-.1h.2V48H85v-.2h.2v.4h.1v.1h.1v.1H85.9l-.1-.1h.1v-.1.1l.2.1v-.1h-.1V48h.1v.2l.1.1h.1v.1h-.1v.1h.2-.1l.1.2v.1h-.1.1v.2h.2v-.4h.1l-.1-.1h-.1v-.1h-.1v-.1h.2v.1h.2v-.1h-.1V48h.4v.1h-.1v.1h.2V48H87v-.2.1h.2v.2l-.1.2v.2h.2V49h.1v-.1H87.8v.2H88v.1h.1v.2H88.5v.1h.1v-.1l-.1-.1V49v.1h.1v.1h.1V49.7H89v.1h.2-.1v-.2h.1v-.2h.1v.7h.2v-.2h-.1v-.1h.2v.1h.1v-.1h.1v.1h.1v-.2h-.2v-.1h.2v.1h.1l.1.1h.1v-.1.1h.2v.2h.1v-.2h.1v.1-.1h.1V50l-.2.2v.1H90l-.1.1h-.1v.1h-.1.5v.1h.1v.2h.2-.1l.2.1v.1h.4v.1h.2v.1h.1V50.9h.2v-.2h.1V51h-.2v.2h.1V51h.1v.1h.1l-.1.1H92.6v.1h.5l.1-.1V51H93.5h-.1V51h.1v.1h.1V51h.2l.1-.1-.1.1v.1h.2-.1v.2h.1v.1h.1v-.1.1h.1v-.2l.1.2.1.1.2.1h.7v.1H95.7l.6-.1H96.6v-.1H96.9l.1-.1h.4v.1h.1v-.1H98.3v.1h.6l.1-.1.2-.1V51H99L99 51h-.1v-.1l-.2-.1h.2v-.1h-.1V50.3h-.4.1v-.1H98.1l.1.2-.2-.1H98v-.1h.1v-.1H98V50h-.1v.1-.1h-.1V50h-.1l-.1-.1h-.1v-.1H97.1v-.1l-.2.2v-.1h-.1v-.1h-.2v-.1h-.2v-.1h-.2v.1-.1l-.2-.1h-.2l-.1.1v.1V49.2h-.1l-.1.1v.1h-.1v-.2h.1v-.1H95.2v.1h-.1v-.1h-.5V49h-.1V49h-.1l-.2-.1-.2-.1v-.1H93.7l-.2-.1v-.1h-.1v-.1h-.2v-.1H93v-.1H93.5V48h.2V48h.2v.1h.2V48h.1v.2h.5l.2.2h.1l.2.1v-.2H95l-.2-.2h-.1v-.2h-.1l-.1-.1-.1-.1h.1l.1.1h.2l.1.1.1.1h.1v.1h.1v.1h.1V48h.1v.1h.1l.2.2H96v-.1l-.1-.2.1.1h.1v.2h.1v.1h.2v-.1h-.1v-.1l.2.1v.2h.1v.1h.2l.2.1h-.2v-.1h-.1.1v-.2h-.1v-.2H96.3V48v.1l.1.1h.1l.1.1v.1h.1v.1h.1v.1h.1l.1.1h.4v-.1h-.1v-.1h-.1v-.1H97v-.1h.2v.1h.2v.1h.2v-.1.2H98v-.2h-.1v-.2.1h.1v.2h.1l.1.1H98.6V48.3v.1h.2v.2h.1V49h.1l.2.1h.2v-.4h-.1l-.2-.1-.1-.1h-.1l-.1-.1v-.1h-.2V48h.2V48l.1.1h.4V48h.1l-.1-.2v.1H99V47.5h-.2.1v-.1h-.5v-.1h-.1l-.1-.1h.1v-.1h.2l-.1-.1-.1-.1H98v-.1H98v-.2h-.2v-.2h.1l-.1-.1h-.1l-.1-.1h-.1v-.1h-.2V46h.2l.1.2H98v.1h.1v.1h.2v.1l.2.2.1.1.1.1h.1v.1h.2V47h-.1v-.2h-.2v-.1h.1v-.1l-.1-.1v-.1h-.1v-.1h-.1V46l-.1-.1H98v-.1h-.4V45.5l.1-.3h-.1v-.1.1h-.1v.1h-.1v.1-.1h-.2l-.2.1.1-.2-.2.1v-.1l-.2-.1v.1-.2h-.4V45l-.2.1V45h.1l.3-.1v-.5h-.1v-.1l-.1.1v-.1.1h-.1v.2-.2H96v.1h-.2l-.1.2-.1-.1v-.1h-.1V43.8h-.2V44.2 43.8h-.2v-.1H95v.2h.2v.2h.1l.1.1h-.1l-.2-.1v.1-.1H95V44h-.1v.4-.1h-.2.1V44H94.4l-.1-.1h-.5.1v.1l.2.3v.1h.1v.1h-.1v-.1l-.1-.1v-.1h-.2V43.8h-.1v-.1.1h-.1v-.4l-.1.1V44h-.1v.1h-.1v-.1h.1v-.1l-.1-.3v.1H93v-.2h-.4l.2-.1V43h-.2v.1H92.3h.1v-.4H92l-.2.2v.5h-.1v-.2h-.1v-.4h-.1V42.4h-.1v.1h-.2l-.1.1v-.2H91v-.1h-.2l-.1-.1-.1-.1H91h-.1.1V42h-.5v-.1H90.1v.1H90l.3-.1v-.1l-.1-.1h.1v.1h.2v-.1l.1.1h.4V42.2h.1l.1.1.1.1h.2V42H91.9V42H92.2v-.1H92v-.1h-.1v-.2h-.1l-.1-.1h-.5v-.1H91v-.1H91v-.1h-.1V41h-.2V41h-.2v-.2h.1v.1h.5v.1h.2v.1h.1V41h.2l-.1-.1H91.1v-.1h.2v-.1l-.2-.1v-.1H91l-.4.1v-.1h.2v-.1h-.1.5v.1h.1v-.1h.1v-.2l-.2-.1h.4v.2h.1v.1h.1v.1h.2l.1-.1v.1h.1v.1l.1.1v.1h.2-.1v-.1h.2v-.2.2h.1v.1h.4v-.2h.1V40v.2h.1V40.9h-.1v.2l.1.2h.1l.1-.1.4-.2v-.2h.1l.1-.2v-.1l.1-.1V40H94V39.6h.1v-.2h.1V39.9l-.1.1V40.2h.1v.2l.1.1h.1-.2v.2h-.1v.2H94v.6-.1h.1v.2h.4V41.2l.2-.1v.1l-.1.1v.2h-.2v.2h.1v-.1l.1.1h.2v-.4l.2-.1-.1.1v.1h.1v.2l-.1.1h-.1v.2l.2.1h.1V42h.1v-.1h.1v-.1l.2-.1v-.1h.1v.1h-.2V42h-.1v.1h.2-.1v.1h-.1.1v.1H95.9v.2-.1h.1v.1h.2v-.3H96V42h-.1v-.5.4h.1v.1l.1.1h.1v.1-.1l.2-.1V42.5h.2v-.1h.1V42v.1h.1v.1l.1.1h.1v-.1h.1v.1H97v.1h.2v-.1h.1v.1h.1V42h-.1v-.2H97l.1-.1h.1v-.1H97v-.1H97v-.1h-.2v-.2h-.3.3V41h.1H96.6l-.1-.1h-.1v-.1H96.8v-.2H96h.1l.1-.2h.1v-.1h-.1l-.3-.2V40h-.1V40h.1l.1.1.2.2h.1l.1.1.1.1H97V40.2h-.1V40h.1v.2h.4V40h-.5V40H97.1v-.1h-.4v-.1h-.1v-.1h.6l.1-.1h-.1v-.1H97v-.1H97v-.1h-.8v-.1H96h.2v.1H96.7l.1-.1H97v-.1h.1l.1-.1h.1v-.1H97v-.1H97v-.1h-.6v.2H96v-.1h-.2v-.1h.2v.1h.2v-.2h.1v-.2h-.2v-.1H96v.1H96v-.1h.1l.1-.1h.2l.1.1h.4V38h.2v-.2l.1-.1H97l-.4.1v.1-.1h.1v-.2h.1v-.1h-.1l-.3-.2h-.2v.2H96v-.2H97v-.1l.1-.1V37l-.1-.1h-.2v-.1h-.5v-.1H95.8v.1l.1-.1v-.1h-.1v-.1h-.1v.2h-.1v-.1h-.1v-.2h-.1l-.1.1h-.1v.1l.1.1v.4h.2l.1.1v.1l-.2-.1h-.1v-.1h-.1V37H95V37.5h.1V37.8h.1v.2-.2l-.1-.1v-.1l-.1-.1-.1-.1-.1-.1h-.1l-.1.2v.1h-.1V37.9l.1.2v.1-.2h-.1v-.1l-.1-.1h-.1v.2l-.2.1.2-.1v-.1h-.1v-.2l.1-.1V37.1l-.1-.1v-.6H94v.2-.1h-.1v.3h.1v.7h-.1V36.8H93.6v.1h-.1v.2l-.2.1v.1h-.1v.1l-.2.1v.4l-.1-.1v-.2l.3-.4h.1V37l-.3.3-.2.1-.1.2h-.1l.2-.3h.1l.1-.1V37h-.1l-.5.2.8-.3h.1v-.1h-.1v-.1l-.1-.1H93v-.1h-.1l-.1.1h-.2.1l.1-.1v-.2h-.1v-.1h-.2v-.1h-.1l-.1-.1v.1h-.1l-.1.2V36h-.4v.1l.1.1v.1-.1h-.2v.2h-.1v.2-.4h-.1l-.1-.1V35.8l.2-.1v-.1H91v.1H91v.8h.2l.1.1.2.2-.2-.1h-.1v-.1H91l-.1-.1v-.4l-.1-.2h-.1l-.1.1v.1h-.1v.1l.1.1v.5h.1v.2-.1h-.1v-.2h-.1V36.4h-.2V36h-.1v-.1H90v.2h.1V36.5H90v.6-.1h-.4H90v-.6h-.1v-.1h-.1v.1h-.2.1V36h-.2v.5-.2l-.1-.1h-.1V36.7h-.1V36h-.4l-.2.2.1.1v.2h-.2.1v-.4l.1-.2h-.2v.1h-.1l-.1.1v.2-.2h-.1l-.1.1v.2H88v-.2l.3-.3.2-.1h.2v-.2h.1v-.1h.1-.4v.2l-.2.1.1-.1v-.1h-.2l-.2.1v.1h.1v.2-.1l-.2-.2h.1v-.1h-.2l-.1.1v.4-.2l-.1-.1H87v.1l-.4.1h.2v-.2h-.1v.1h-.1v.1h-.1V36l.1-.1h.3v-.2h.2v-.1h-.7l-.1.1-.1.1v-.1h-.1l-.4.1.2-.1H85.6l.1-.1h.7v-.1h.2-.1l-.1-.1h.4v-.1h.4v-.1h-.7.5V35H87V35H86.3l.2-.1h.3v-.1l.2-.2-.5-.1h-.4l-.1.2-.1.1v.4-.1l-.1-.1v-.1h-.2v.1-.1h.1l.1-.1h.1V34.4h.1-.2l-.2.1h.1l.1-.1.4-.2h.1v-.1H86l-.3.1H85.5l-.1.2v.1h-.1l.1-.3.7-.1V34H87.4V34l.2-.1h.3V33.6h-.1v-.1h-.2l-.6-.2-.3.1-.2.1-.1.1h-1l-.1.2-.1.1-.1.1-.5.1v.1l-.1.1h-.1l.1-.2.5-.1v-.1h.1v-.1l.1-.1.1-.1v-.1h.2l.2-.1V33l.1-.1.3-.1h.4l.2-.2-.1-.1v-.1h-.2v-.2h-.1V32H86V32h-.1v-.1h-.2l-.1-.1-.3-.1h-.1v-.1H84.8V32h-.1v.1h.1v.1h.1V32.4h-.1V32.8h-.1l-.2.1V33.1h-.1v.3h-.2l-.2.1v.5-.6h.2l.1-.1v-.5l.2-.2v-.4H84h.1v.1H84l-.4.4v.2l.1.1v.2h-.2v.4h-.1l-.1.1v-.1l.1-.1V33.1H83.9V33l-.1-.1h-.2v.1-.4l.1-.1v-.1h.1v-.1l.1-.1v-.1h.2V32h.2v-.1h.1v-.2l-.1-.1v-.1h.1v.1h.1V31h-1V31H83l-.1.1v.2h-.1V31.7h-.2l-.1.1v.2l.1.1v.1h-.1v-.2h-.1v-.2l.1-.1.1-.3V31h-.1l-.2.4h-.1v.2H82v.1l-.1.3h-.1v.2h.1v.7h.1v.4h.1v.4-.5l-.1-.2H82V32.5l-.1-.3h-.4v.4l.1.1v.2-.1l-.1-.2h-.1v.1h-.1l.1-.1v-.5h.3V31.8l.2-.3V31l-.1-.1h-.1v-.1h-.1l-.1-.1h-.1l-.1.2-.1.1V31.4l.2.1h-.1l-.3.2v.1h-.1v.2l-.3.2v.4h-.1V31.8h-.2l-.3.2.3-.3v-.6l.2-.1h.4v-.7l-.3-.2h-.1V30h-.2V30h-1.1V31h.1v.2h-.1v.6l.1.1h-.1v-.6H79v-.1l.1-.1H79L79 31h-.2v.6h.1v.2h-.1v.1-1l-.1-.1v.2h-.1v-.1h-.1V30.5l-.1-.1h-.1v.1h-.1v.5l.1.1v.4-.2h-.1V31H78v.1-.1h.1V30h-.2v.4h-.1v.1l.2.2h-.1v-.1h-.1v-.4h-.2v.2h-.1v.6h.1v.1h.1v.5l-.1.2v-.7h-.2V31h-.2v.1-.1l.1-.2.1-.1v-.2h-.2v.2H77v.2l-.2.1v.1-.2l.2-.3h-.2l-.2.1.3-.2.1-.1h.1v-.2h.1v-.1h.1l.1-.1v-.4l-.2-.2H76.4v.4h-.2V30.9H76v.1h.1V30l.2-.2-.3-.1H76l-.3.3V30.7 30l.3-.3H76.3l.1-.3v-.2l-.1-.1-.1-.1-.1-.1-.1-.1v-.1h-.5l-.1-.1h-.2V29H75v-.2h-.5zm12.2 6.5h-.2l-.1.1h-.1v.1h.5l.3-.1h-.4zm5.5 17.3h.4l.1-.1v-.1h.1V52H92.5V52h-.1v-.1H92l-.3-.1h-.6v.1H91.6l-.1.1h.5-.1v.1l.1.1.1.2h.2v.1zm5.6 3.8v.3h.5v-.1l.2-.2V56h-.2l-.2-.1H97.8V56.2zM86.3 33l-.1-.1H86l-.1-.1h-.2v.1h.3v.1h-.4v.4l-.2.1H86.2V33zm11.6 27.6v-.5l-.1-.2h-.2v.1l.1.2v.4h.2zm-2.5-16.8V43.5h-.1v.2l-.1-.1v-.1.4H95v.4l.2-.1v-.1l.1-.1V44zM91.8 36v.2l.1.1H92.3v-.1l-.3-.2h-.1zm1.7 1h.1v-.1H93l-.1.1v.1l.6-.1zm3.6 8.5v.1H97V45.8h.2v-.1h.2v.1h.2v.1h.1v-.2l-.1-.2v.1h-.2V45.4h-.1v-.2l-.1.1H97v.2zm-2.8-8.6h.2V36.5l.1-.4h-.2v.6h-.1zm-5.5-.8h.1l.6-.1V35.6h-.1V35.3h-.2v.2l-.2.1v.2h-.2v.2zm-25.4 2.6v.2h-.1l-.2.2v.1l.1.1.1.1v-.7zm15.4-8.1h.2V30.3H78.6v.2zm-.7 0v.1l.1.1.1.1.1.2H78.7v.1h.1V31h-.1V30.6h.1v-.1h-.1l-.1-.1h-.1V30.9h-.1V30.4l-.2-.1-.2.2zm8.2 2v.1h-.1v.2H86v.1h.2v-.1h.1v-.2h-.1zm-6.4-1.3h-.2v.2l.1.1v.1h-.1v.2h.2v.1h.2v-.1l.2-.3h.2V31.2H79.8zm-10.2-11l-.2-.1v-.4h-.2v.2H69V20.4l-.1.1h.2v.1h.2v-.2h.4-.1zm-2.3-.5v-.1h-.1zm1.4-8.3l.3.1v-.1h-.2v-.1.1zM1.5 76.3l.2.2v-.1h-.2zm66.8-61.6H68v.2h.1v-.2zm-16.5-.8h.5v.2h-.1v.2l-.1.1v.1h.2v-.1l.1-.2h.1V14h.2v.1l.1.1-.2.2v.1h.2v.1h.2v.2h-.3v.1h.3V15.4h-.4l-.4-.2H52l-.1.1v.5h.1l.2.2.3.1.1-.2H53l.4-.1V16h.8l.1.2h.1l.1.1.1.1V16.8l.1.2v.1h.2v.2h.4l.4-.1V17h.1v-.5l-.2-.3V16l-.1-.1h-.2v-.6h.1v-.2h-.1V15h-.1V14.7H55v-.2H54.6l-.1.1h-.2V14.3h.1v-.2h-.1l-.2-.2-.2-.1-.1.1h-.2v.4h-.1v-.1h-.1v-.7h-.1v-.2h-.1l-.1-.1-.2-.1h-1.1v.2l-.1.1v.4zm3.3-2.7v.4h.2l.2.1V12l.2.1v.2-.1h.1v-1.3h-.1v-.1H55.3l-.1-.1-.2.2v.2zm8.6 5.4h.2l.1-.1v-.1h-.1l-.1-.1h-.4l-.1.1h.4v.2zM55.5 20v-.1h-.1v.5h-.1v.1l-.1-.1v-.2L55 20h-.1v-.1h-.6v.1h-.1v.1l-.2.1v.1l.2.3H54.5l.1.1h.1v.1h-.1v.1h-.2v.1l.2.1h.2v.1h.3-.1l-.1.1H54.6v.4h.1v.1H55h-.1v.1h-.1v.1h-.1v-.1h-.1v-.1l-.1-.2v-.1h-.3l.1-.1h-.2.1v-.2L54 21H54l-.1-.1V20.6l-.1-.2h-.1l-.3-.1h-.1V20.8l-.1.1v.2h.5-.1l-.2.1v.6h.3v.1h-.1V22.2h.1v.2H54h-.2v.1h-.2v-.2h-.1V22h-.1V22H53v.2h.1V22.6h.1-.4v.2h-.2v.2h.1v.2l.2-.1h.2l.5-.2v.1h.2l.1-.1.4-.1h.2l.5-.1h.4-.6v.2h.1l-.2.2h-.2l.2.1h-.2l.2.1-.6.1h.1v.1h.1v.1H54v.1l.2.1h.2-.1v.1h.2v.1H54.4v.6h.1l.5.1h.2v-.4h.1v.4h.3v-.2.1h.1v.1l.6-.1V24.2H56V23.8v.1l.2.2h.2V24l-.1-.1v-.1l-.1-.1v-.1h-.1v-.1.1H56v-.2h.1l-.1-.1h.2v-.1H56V23h.1v.1h.1V22.8l.2.2v.2h.1v-.7h-.2v-.1h-.2v-.1l.1-.1v-.1l.1-.1V21l-.1-.2v-.6l-.1-.1H56V20h-.2V20h.1l-.2-.1v-.1h-.3H55.8v.1h-.2v.1zM57 9l.1.1h.4V9h-.8H57zm-.3 2h.2-.1v.2h.2v.1h-.1v.2h.1v.2l.3.3h.3l.2-.2.1-.1h.1v-.1.2l-.1.2-.5.2v.4h.2V13h.2l.2-.2h.1v-.2h.2v.4h.2v-.2l.1-.1v-.2h.1v.2h.1V12.2v.1h.4-.1v.1H59.8l.1-.1v.1h-.2l-.1.1-.1.1H59v.1l.3.1h.4l.2-.1h.1l.2-.1v.1h-.1l-.3.1h-.2l-.2.1h-.4v.1h-.4V13.4H58.3v.1h-.1v.1l.1.2.1.1v.1H58.8l.2.1v.1h-.4l.1.1v.1h.2v.2h.2v-.1h.8v.1h-.1l-.3.1h-.1v.1h-.2V15.2h.2v.1H59.7v.2l.1.1h.5l.2.1h.4v-.2h-.1v-.2h-.2V15H61l.1.1v.1h.2v.1h.1v-.2l-.2-.3-.2-.1V14.4l-.1-.1h.1v.1l.1.1.1.2h.1v.1h.1v.1h.1v.2l.2.2h.1V14.6l-.1-.3v-.1l.3.2h.1V14h-.2v-.6l-.1-.1v-.2h.1V12.8v.7l.2.3.1.1h.1v-.4l.2-.2V13l-.1-.1v-.1.1l.1.1h.1v-.2l.4-.4h.1v-.1h.1v-.1l.1-.1V12H63l-.1-.1v-.1h-.1v-.1h-.1v-.2h-.1v-.1h-.1v.4h-.1V11.4h-.1l-.1-.1H62v.2h-.2v.1l-.1.1v-1l-.2.2V10.6h.1v-.1h-.1v-.2H61v-.1l.1-.1v-.6h-.5v.4l.2.1v.1l.1.1h-.1v.1h-.1l-.3-.2-.1-.2v-.5l-.2-.2h-.1l-.1.1v.1l-.1-.1h-.3v-.2l-.1-.2h-.2v-.2h-.1v-.2H59v-.1H59v-.2h-.1l-.1-.2v-.2l-.3-.2-.2-.1-.2-.1-.2-.1v.2l-.1-.1h-.2V7.9h.5v.4h-.4V8v.1h.1v.2h-.1v.1h-.1v-.1l-.2-.1h-.1V8.7l-.1.1h.1l-.1.1V9h.2V9l.2.1h.2l-.2.1v.2H58l.2.2h-.5l-.1-.1H57V9.9h.1v.2h.2v.1h-.4v.1h-.2.1v.1l.3.2H57.4v-.1.1h-.1v.2h.3l.1-.2H58l-.2.1-.1.2.1.1h.1v.1h-.6l-.2-.1-.2-.2h-.2v.2zm-.8 3.8l.1.1h.1V15.3h.1l.1.1v.1h.4v.1h.2v.2h-.5v.1l.2.1v.1l.3.1V16.5h.2v-.1h.1-.1v-.1H57.8V16h.2V16H58.3v-.2h.1v-.2l-.1-.1v-.1H58v-.1l.3-.3v-.1h-.1l-.1-.1H58l-.2-.2h-.1l-.2.1h-.2V14.3l-.2-.1H56.7V14h-.3V14h-.6v.4h.1v.1h.1v.1h-.2v.2zm2.5-8.3v.1h.2v.2h.2v-.4h.2v-.1l.1.1h.2v.2h-.1l-.3.4.2.1v.1l.3-.2v-.2h.1l.2-.1.1-.1.1-.1h.5v.1h-.5l-.2.2V7h-.2v.2h-.1v.1h.1l.1.2.2-.1-.2.2-.1-.1h-.1l-.1.2V8h.1l.1.1 1-.3h.2l.1-.2h.2l.1-.1v-.1l.1-.2.3-.2h.2l-.2.1v.2h-.1v.1l-.1.1v.1h-.1v.2L61 8H61l-.3.1h-.4l-.2.1v.1h-.1v.1h-.1v.2h.2l.1.1h.2l.1.2h.2l.2.1h.2v-.2l.2-.4V8l.1-.2.1-.2h.2v-.1l.5-.2.7-.4v.1h-.1l-.6.4-.3.2h-.1v.1h-.1l-.1.2-.2.7V9h.3l.1-.1.1-.1V9h.7v-.1h.2v-.4h-.1V8l.1-.1V8.3h.2l.2-.1V8l.2-.2h.1V8.2l-.3.1v.1H63V8.8h.4v-.1l.2-.2h.1l.2-.1v-.1l.2-.2V8h.1v-.2l.2-.1V6.8l-.3-.2.3.1h.1V6h.1v-.2l.3-.3V6l-.2.1v.4h-.1v.9h.1l.3-.1.3-.2h.4l-.2.2h-.2v.1l-.2.1-.2.1v.1l-.1.2h-.2V8l-.1.1h.3L65 8h.4-.3v.1H65v.1h-.2l-.3.2h-.1v.1L64 9h-.2l-.2.2-.3.2.1.1v.1l.4.3.3.2h.4v.2h-.1v.1l.1.1v.1l.1.1v.1H65.2l.4-.2v.2h-.2l-.2.2h-.4v.1h-.2v-.2h-.2v-.1l-.1-.2-.1-.1-.4-.3-.3-.1-.1-.2-.3-.2h-.5l-.3.1H62l-.1-.1-.3.1v.6h.1v.1l.1.1h.5v.1h.2v.1H61.9v.5h.2l.2.1h.4l.1.1v.1h.1v.2l.2.1h.1v.1h.1V12.3h.1v.1l.1.1h.2v.1h.1l.1.1v.1h.2l-.3.1v-.1h-.2l-.1-.1-.1.1v.2h.1l.2.2H64.3l.2-.1h.2l.2-.1V12.6l.2-.2v.4h.1v.2H65l-.1.1h-.4l-.1.1v.1h.1v.1h.5l-.1.1v.1l.2.1v.1h-.2v-.1h-.1v-.1h-.3v-.1h-.2l-.2-.2h-.8l-.1.1-.2.2h-.2l-.2.2-.2.2v.4h.1l-.1.1-.2.3v.2l.1.1V15.5H62.7l-.2.1v.1h.5v-.2h.2v-.2h.1v-.4V15.1h.1V15.5h-.1V15.8l.4-.2v-.1l.1-.2V15h.1V14v.6h.2l-.1.1V15.2H64.6 64l-.1.2h-.1v.2h.5-.2l-.2.1-.3.3v.1h.1v.1h.1V16l.5-.1h.1-.2v.2h-.1V16H64v.1h-.1v.1h.2v.2H64v.2h.1l.2.1h.2V16.3v.5h.5l.2-.1v-.2l.1-.1v-.7l.1-.2v-.4h.2-.1V16.7h-.1v.2l-.1.1h-.1v.1l.2.1v.1h-.6V17.6h-.1l-.2-.1h-.3v-.1H64v-.1l-.1.2v-.2h-.1V17h-.1v-.2l-.1-.1-.1-.1-.2-.2H63.1l-.1-.2h-.2l-.5.4v-.1h-.1v.5h.1l.1.1h.1v.1h.1v.1h.1v.4l.3.1.1-.1h.2-.1v.1H63v.1h.2v.1l-.1.1h.4-.2v.1h.1-.4v.2H62.7l-.2.1h-.2V18.8l-.2.1v.1l-.3.3V19.7h.1v.5h-.1.2v.2h.2v.1h.2V20h.1v.4h.1V20h-.1V19.6h-.1V19.3h.1v.4l.1.1v.1h.1v.4h.5v.1H63.7v-.1h-.1V20h-.1V19.7v.2h.1v.1h.2v.2h.3V20l.2-.2-.3-.3h.1l.1.1h.2v.1l-.1.2v.2h.6l.1.1h.2l.6-.1V20l-.5-.2v-.1H65v-.2h.1v.1l.1.1h.4v-.2h-.1V19.2h-.1v-.1h.1l.1.2v.1h.2v.1h.1v.1h.3v-.4h-.1v-.1H66V19H66V18.7v.2l.2.1.1.1v.2h.1v.1l.1.1h.5V19h-.2l-.2-.2v-.1h-.1v-.2h-.1.1v.1h.1v.1l.2.1h.1l.2-.1v.1H67V19.3h.5V19h.1v.1h.2l.1.1h.1v.6h.1v.2h.2v-.2h.1l.1-.2h.1l.3-.3h.2V18.4h.2v.1h.1v.1h.2v-.5l.1-.1V17.7h-.1v-.2h-.1v-.2h-.1v-.1l-.3-.1H69v.4h-.1v.1l-.1.1v-.2h-.4V17l-.1-.1h-.4l-.1.2-.1.3V17H67l-.2.2-.1.2h-.1v-.2h-.1l-.2-.1h.2l.4-.3h-.2l-.2-.1V16.4h-.1v-.1h-.1v-.1h-.1V16v.1l.2.1v.1l.1.1h.1l.1.1.1.1h.2l.2.1h.5l.2-.1h.3v-.2h.1v-.1.1h.1l.1-.2h.2v-.1h-.1V16l.1-.1v-.5h-.2V15h-.2V15H68V14.6h.2l.4-.1h.2l.2-.1V14.2h.2l.1.1v-.5l-.3.1h-.5v-.2H69.4v-.4h.1V13h-.7V13H68.3l.7-.2v-.1h.1v-.2h.2v-.1h-.2V12H69V12H69v-.1h-.6l-.2.1v.1H68v-.2h.2v-.2h-.6l-.4.3v.6h-.1V11.9h-.4l-.2.1.2-.1h.5l.2-.2.2-.1h.2v-.1h.1v-.1h-.5l-.6.2h-.1l.5-.2h.1l.2-.2h.4v.1H68.4l.3.1.1-.1h.2v-.1h-.1V11h-.1V11h-.1v-.2h-.2l-.2.1-.3.1h-.5l-.1.2-.2.1v-.1h-.4V11h.4v-.2l-.2-.1h.1v-.1h.1v.1h.1v.1h.4l.2-.1-.2-.1v-.2H67v.1H67v-.1h1.2v-.2H68v-.1h.5V9.8H69V9.5l-.1-.1-.1-.1h-.1v-.2h-.1l-.5.1h-.2l.1-.2h.7V9h.1v.1l.1.1h.5V9l.2-.2v-.5h-.1l-.1.1v-.1l.2-.3V7.7H69.1L69 8v.1h-.2l-.2.2h-.1l.1-.1V8h-.3v-.1h.4V8h.1v-.1l.1-.2.2-.1h.2V7.2l-.3-.1V7L69 7l-.1-.1h-.2v-.1h.3V7h.1v.2h.3l.1-.3v-.2h-.1V5.5h.1V5l.1-.2V4h.1v-.3l.1-.2V3.2H69.4v.1l-.2.2v.1l-.1.1-.2.2-.1.2-.1.2-.5.7v.1l-.1.2V5H68h.1V5h.1v-.2l.2-.1v-.1l.1-.1V4.2l.3-.3v-.1l.1-.1v-.1h-.3L68 4H68l.2-.1-.6-.2.6.1.2-.1.2-.2.1-.1h.1v-.1l.1-.1.2-.2h-.2v.1l.1-.2v-.1h.2l.2-.1v-.1l-.2-.2h.2V2h.1V.7h-.1V.5h-.1L69 .3h-.4v.1h-.2V1 .5h-.1V.4h-.2V.3H68V.2h-.1V.1h-.1V0l-.3.1v.2h-.1V.1h-.1V0H67v.1h.1v.2h.1H67l-.1.3v.1l-.1.1v.2l-.4.3v-.1l.1-.3V.8h.2V.2H66.3v.1h-.2v.1H65.8l-.1.1-.1-.1-.1.2V.5h-.2V.3l-.4.2h-.1V1h.1l.3.2H65l-.2-.1V.7h-.3v.1h-.1v.4h-.1v.1h.1l.1.2h.2l.3.2-.7-.2v-.1h-.1v-.1H63.2v.1l-.3.2v-.1.1l.3.2.1.2H63.7v.2l.4.1V3H64V2.6l-.2-.1h-.1l-.2-.2h-.1v-.1l-.2-.2h-.3v.1h-.1v.1h-.1V2h-.1v.1h-.1V2H62v.2H62v.1h.3v.2h.6l-.1.1h-.4V3h-.1v-.1l-.1-.1v-.1h-.5v.1h.1V3h.1l.4.3-.1.1-.3-.2h-.3v.2l.2.1h.2l-.4.1V3.8l.8.5h.2v.1l.5.1v.1h.1v.1l.3.3h-.1v-.1l-.3-.2H62.8l-.5-.2-.3-.2H62l-.3-.2v.2l.2.1.1.2H62.2v.1h-.5v-.2l-.2-.1v-.2l-.2-.1H61l-.3-.1h.1v-.1h-.4V4h.1v.2h.1V4.6l-.3.1H60v.1l.1.2 1 .2v.2-.1H61h.1l.1.2H61L61 5h-.2v.2l.2.1v.1l-.4-.3V5H60.2v.2h-.1v.1h.2v.1l-.3-.1V5h-.4l-.2.1-.1.2v.2h-.1v.1h.1V6h-.1l-.1-.1v-.1H58.8l-.1.2h-.2v.2h-.1v.1l-.1.1v.2zm-1 24.4h.1v-.2l-.1-.1h-.2v-.2H56.8l-.1.1v.1l-.1.1V31l.1.1.2.1H57.3l.1-.1v-.2zm0 .9v.1h.1v.1l.1-.1v-.6l-.1.1-.1.2v.1zm1-10v.2h.1l.1.1h.5V22l-.1-.2v-.1h-.1v-.2l-.1-.1h-.2l-.2.1v.2zM56.5 26v.2h.1l.1-.2h.1v-.5h-.1V25.8h-.1l-.1.2zm1.6-2.4H57.7v.1h.3-.2v.1h-.1v.1h.2-.1v.1h-.2v.1h-.1V24.5h-.1v.2h.2v.2h.1v-.2h.1V25h.1v.1h.4v.2-.1h.1l.2.1v.1h.1v.1H60V24.3h-.1v-.5l-.2-.1v-.2l-.2-.1-.1-.1-.3-.3-.4-.1v.1h-.2v.1h-.2l-.2.2v.1h.1v.1zm-1-.4H57l-.3.2V23.7h.1v.1h.1l.1-.1v-.4h.1v.1h.1v.1h.2v-.2h.1v-.1h-.1l-.2-.2v.1l-.2.1zm4.1-4.3H61l-.2.1v.2l.3.3.1.1.1.1H61.7v-.1h-.1v-.2h-.1v-.5h-.2zm.5.8h-.1zm4 0v.1h.1v-.1h-.1v-.1zm-4.1-4.4V15.6v-.8.4zm-3.9 10.3h.6l-.1-.2H58l-.1-.1H57.7v.1h-.2v.1h.2zm-.2-7.8l.1.1v.1H59v-.4l.1-.1v-.1H59v-.1h-.8l-.1.1H58v-.1H57.6v.1l-.1.1v.2zm3.3-.4V17.8l.1.1.1.1.3.1h.1l.2-.1V17.6l-.1-.1-.2-.2h-.5v.1zm-9.8.1V17.9h.1v.6l.1.1v.2h.2v.2H51.8v-.5l-.1-.2h-.2V17.8l-.2-.5v-.1H51v.2zm4.4 10l-.3.1v.1l.1.1h.4-.3l.2.1h.2v-.1h.5v-.1h.1v-.1h.2v-.1l.1-.2v-.1h-.4l-.3.1h-.2l-.1.1h-.1v.1h-.1zm-35.7 4.6v.1h.1V32l-.1-.1v.2zm-3.2-2.6v.1l.1.1h.6v-.1l-.1-.1H16.5zm11.4 2.6h.1V32l-.2.1h.1zm-7.5-.8h.1l.1-.1h-.2v.1zm.9.8h.1V32h-.1v.1zM1.7 75.5h-.2v.1h.2zm28.6-41h.1-.1zM1.7 76.5h-.1.1zm.8-.8zm0-.2h-.1v-.1l-.1-.1V75h-.9v-.1H1v-.1H.8V75.2h.2l.1.1.1.1h.1v.2l-.1-.1v.1h-.1v-.1H1v.5h.2l.1-.2v.2h.1v.2-.1.1h-.1V76H1v.2l.2.1v.2l.1.3h.1v.2h.1l.1.1v.1h-.1v.5h.1v.2h.1l.1-.2V78H2l.1-.2v.1l.1.1h.1v-.1l-.1-.1H2h.2v-.2h-.4v-.2h.2v-.1h.1l-.1-.1H2v.1h-.1v-.4h-.2v-.6h-.2v-.1h.2V76h-.1.4-.3V75.7h-.1.1v-.1h.1v.1l.2.1h.2v-.1h.1v-.1l-.2-.2H1.7v-.2H2l.2.1.1.1.1.1v-.2zm-.7.6v-.2l-.1.1h-.1v-.1h-.1v-.1h.1v-.1h-.1v.7-.2l.1.1v.1h.1l.1-.2V76zm0 2.3l-.1-.1V78h-.1v.4h-.1V78.9h.1v-.4h.2v-.1zM.8 73zm45.5-51.6h-.1V21L46 21H46v-.1l-.1-.1h-.7v-.6l-.1-.2h-.3.1H44.3l-.3.2V20.6h.3l.2.2v.1h.2-.4l-.1-.1H43.9v-.1h-.6v.4H43v.1l.3.2h.3l.7.1v.1h-1.5l-.4.3v.1l.8.2.2-.1H43.8l.3-.1-.2.1v.1h-.3l-.4.2H43l-.6-.2-.3.3H42v.1l-.1.1v.2l.4.2h.1l.1.1.1-.1H43v.1h-.2v.1h.2l-.1.1.1.1v.1l.2.1h.1v-.4h.1v.1h.2v-.1.5h.1l.5-.1v-.1h.1V23H44V23h.1v.1h.1v.1h.1l.1-.2v-.2l.1-.1v.2h.4v-.1h.1l-.1.1H44.7V23.3l-.2.2h.2-.2v.2l.1.1h.4v-.2h.1v.2H45.4V23.3h.1v-.1.2h.1v-.1h.1v.1l-.1.1v.1H46.4v-.1l.1-.1h.2v.2h-.1v.1h-.2v.1h-.2v.1H46l-.1.1h-.4l-.2-.1H45v.1h-.2v.1h-.5l-.3.2h-.1v.4l.3.3v.1l.2.1h.2l.1.1h1.1l.1-.1.1-.1H46.3l.1-.1h.1V25h.2v-.2h.3v-.1H47.6l.1-.1v-.1l.3-.1h.1v-.1l.1-.1h.1v.1h.1v.2l-.2-.1.2.1v.1h.4v-.2h.2v-.1.2l.1.1h.2v.1h.2l.2-.1.6-.2v-.1h.1v-.4h.1l.1-.1V23.4h.1v-.2h.1V23h.1V22.1l-.1-.1-.4-.2H50l-.1.2v.4l-.1.1V23v-.2l-.1-.1V22.2l-.1-.1h-.4v.2H49v-.1l.1-.1h.1V22h.1V21.7h-.5V21.4h.1l.2-.1V21l-.1-.1H49v-.6l.1-.1v-.4h-.4l-.1.1-.1.1v.1h-.1v.1h-.1v.1h-.1v.2H48v.1h-.2V21h-.1l.1.2v.1H48.2v.1h.1v.2h.1v.2h-.1v.1H48v.1H47.7l-.1.1v.1h.2v.1l.2.1.2.2v.1h.2-.1V23h-.1v.2l-.7-.2H47.2v-.1h-.6v-.2h-.1V22h.1-.4V22h-.1v-.1h.3v-.2l-.2-.2zm4.3 7.6l-.1-.1v-.1h-.1v-.1H48.8v.2l-.2.1v.1h-.1l-.1.1v.1h.2v.1h.1v.1h.2v.2l.3.2v.2l.1.1v.1h.1V30.8l.3.2v.2h.1v.1h.1V31l.2-.1v-.1h.1v-.2h.1v-.1l.2-.1V30h.2v-.5l.1-.1v-.2l-.1-.1h-.2V29zm-19.4.5zm15.6-14.5v.1H47.2l.4-.1h.1V15.5h.1l.2.1v-.1h.1v-.2h.2v.2l.4.2.2-.1v.1h.3v-.1l.1-.1v-.7H49V14.3H49v-.1h-.1V14h-.1V14H48.4l-.2.1v.1h-.1v.1H48l-.3.2h-.5v.2H47v.2l-.2.1v.1zm.1 1.6v.1l.1.1h.1v.2l.3.1h.5V17h.7v-.2h.1v-.1h.1v-.4H48.5v-.1h-.1v-.1h.4l.1-.1h.2V16h.1v-.2l-.1-.1H47.7l-.5.1H47l-.1.1v.4h-.1v.4zm-4.8 4.1v-.1h.1v-.1h.1v-.2h.1v-.1h.1V20h.1v-.2h.1v-.1h-.2l-.2.1v.1H42l-.3.1v.1l-.1.1-.1.1-.1.1-.3.2-.1.2v.2h.2v.1h.1v.1h.1l.3-.1V21l.3-.2zm-9.8 8l.2.2h.3v.1h-.3l.2.2v.1l.1.2.4.5v.4l.1.1V32h.1l.3.1h.1v-.1l.3-.1H34.4l.1-.1.1-.1.2-.1.1-.1h.1v.1l.1.2h.4l.3-.1h.1l.1-.1.2-.3.1-.1V30.7l.1-.1v-.2l.1-.1.1-.1.2-.2V30h.1v-.4h.1v.1h.1l.1.1h.2l.2-.1h.1v-.1h.1v-.2l.1-.1v-.1h.1V29h.1v-.1h.3l.2-.2h.2v-.1l.3-.1h.2l.1-.1.2-.1.3-.1h.2V28h.2l.1-.1h.1v-.1h.3v-.1h.4l.2-.1.2-.1h.1v-.2h.1v-.5l-.1-.1-.1-.2-.1-.3-.1-.1V26l-.3-.6-.3-.5-.4-.3H39.8v.1h-.1V25.2h-.1v.1H39.2l.1-.1V25h.1v-.4h-.2v.1h-.1l-.1.1H39v.2h-.1v-.1l.2-.2v-.1h.1l-.2-.1v-.1h-.2l-.4-.6V23.4h-.1v-.1h-.1l-.1-.1H37.2l-.2-.1h-.4l-.2-.1h-.8V23v.7h-.1v.7l.2.2v.1l-.1.1v.1h-.2l-.1.1v.1l-.1.2H35v.1h-.2v.2h-.1l-.1.2h-.1v.1h-.1v.2h-.2v.1H34v.2h.1V26.8h-.5v.4h-.1v.1h-.1V27.6h-.1l-.2.1H33v.1H33v.1h-.1v.1h-.1v.1h-.1v.1h-.2v.2h-.2v.4h-.1v.1H32h.3zm7.6-8.7v.1h-.1l-.3.1v.2H39.8l.2-.2v-.1l.1-.2.1-.1v-.2H40l-.1.1v.2zm6.2-4h.1v.2l.1.1h.4l.1-.1V16l-.1-.1v-.2h-.2v-.1H46v.1H46v.2h.1zm-6.6 3H39.8h-.1v.1h.1v.1l-.2.1V19.8h.3v-.1H40.3v.2h.1v.2h.1v-.1h.2v.1V19.6h.1v-.2l.1-.1h.1v.6h.1v.2h-.1V20.6h.1v-.1h.1v.1h.2v-.1h.1v-.2h.2V19.9h-.1.1v-.2h.1v-.4h.1l.1-.1V20h.1v-.1h.1v-.2l.1-.1h.2V19.2h.1V19h-.1v-.1h.1v-.1.1H42.9v-.4h.1v-.2h.4V18.7h-.1v.1H43V19H43v.2h-.1v.4h.1v.2h.5v-.6h.5l.3-.1V19h.1v-.6l-.1-.1v-.1l.2.1h.2v-.1l-.2-.3v-.4h.3l.1-.1h.2v-.5H45l-.1-.1v-.2h-.1v-.1h-.3l-.1.1h-.1v.2h.1v.2h-.2v-.1.2H44V17H44v-.1h-.1v-.1h-.2v-.1h-.1l-.3-.1h-.4v.1l-.1.1v.1h-.1l-.1.1-.1.1h-.1v.1h-.1v.1H42v.2h-.2l-.1.1v.1l-.1.1v.1h-.3v.1H41v.1H41v.1h-.1v.2h-.1v.1H40v.1h-.1v.2h-.1l-.2.2h-.1v.1zm5.7-.8v.1l.2.2.3.2h.2v-.1l.1-.1v-.2l-.1-.2-.3-.1h-.2l-.2.2zm12.3 21h-.1v.1h.1v.1h.1-.1v-.1zm-7.4 3.8l-.2-.2v-.1H49.2v.2l.2.3h.1v.1h.1l.1.1h.2l.1-.1V43zm-4.8 1.2H45v-.1.1l.1.2h.1v-.2zm7.3-5v.2-.1zm.7 3.2V42l-.3-.2v.2h-.2v.1h-.1v.1h-.1v.1h.2v.1h.2v.1h.1v.1h.1v-.2h.1zm-8.2 1.8v.1h.2v-.1H45zm8.8-3.5H54.3v-.1l-.1-.1H54v-.1l-.2-.1h-.1v-.1h-.2l-.1.1.1.1v.1H53.9v.1l-.1.1h-.2.1v.2H54v-.1zm-.6.4h.1l.1-.1v-.2h-.1l-.1.1h.1v.1zm-10.6 2.3l-.1.1h.2v-.1zm.8-1.5h.1v-.1h-.1zm.9 1.7V43.3h-.1V43.8zm-4-2.6h-.1l-.1-.1.1.1zm2.3 1.5h-.1v.2h.1v-.1h.1l-.1-.1zm1.8.8l-.2.2h-.1.2v-.1h.1zm-1-1.4v-.1l-.1-.1h-.5l-.1.1.3.1h.4zM40 43.5h.3H40zm14-3.4l.1-.1V39.1H54V38.8h-.2v.1h-.1v-.1l-.1.1h-.2v-.4H53.1l-.1-.1-.1-.1h-.1l-.2-.2-.1-.1-.1-.1-.2-.1V37.6h-.1v-.2H52v.4h.1v.1H52v-.2H51.6v-.1l-.1-.1v-.1h-.1l-.1-.2h-.1V37l-.1-.3v-.1H51v-.1H51l-.3-.3V36h.1v-.2h.1v-.4h.2V34.8l-.1-.3v-.1l-.1-.1v-.2h-.1V34l-.1-.1v-.5h-.1V32.6l-.1-.1v-.8l-.2-.1v-.2l.1.1V31.2h-.1V31l-.1-.2H50v-.2H50l-.2-.1v-.1h-.1V30.1H49.3V30H49v.2H49V30h-.1v-.2h-.1l-.1-.1h-.2l-.1-.1v.1h-.1v.2l.1.1H48.1V32.2h.1v.5H48v.4l.1.1V33.5l.1.1v.1l.1.1h.1v.1h-.2v.1h.1v.1h-.2v.2H48l-.1.1v.2h-.2V34.1h-.1v-.7h-.1V31.7l-.2-.1h-.1v-.1l.1-.1-.2-.2v-.1H47l-.2-.4h.1v-.1h-.1v-.1l-.2-.1-.5-.2-.1.1v.2l.1.2.3.1v.1l-.1.1h.2l.1.1h.1v.1h-.2v-.1h-.2v.2h.1l.1.1V31.9h.1-.2v-.1h-.1l.1.1.2.2H46.1V31.6H45.8v.1l.1.2-.1-.1-.1-.1.1-.1-.1-.1h-.2v.1h-.1v.1h-.1v.1l-.1.1v.2h-.1V32H45v-.2h.1v-.1H45l-.1.1h-.1v.1h.1v.1h-.2v.1h-.1v.2V32h.1V32h-.2l.3-.2.1-.1.2-.2v-.1h.1V31h-.1v-.2H45v-.1h-.2v-.1h-.1v-.1h-.2l-.1-.1-.1-.2h-.2V30H44V30h-.2l-.3.2v.2l-.2.1v.1l.1.1v.1h-.1l-.1.1v.1h-.1l.1-.1.1-.1-.3.1h-.4l-.1.1h-.1v-.2h.2V30.4H43V30.1h.1V29.8l.1-.1v-.2h.1V29h-.1l-.1-.1-.1-.1h-.4l-.2.1h-.1l-.1.1h-.4l-.2.2h-.5v.1l-.4.1h-.2v.1h-.2l-.1.1H40v.2h-.3v.2h-.4v.1h-.1l-.3.2v.1l-.1.1v.2l.2.1V31.2l-.3.1h-.2v.1h-.1v.2h-.2l-.1.1-.1.1-.1.1v.2h-.1v.2l-.1.2V32.7h.1v-.1h.4v.2H38.7v-.1h.4l-.2.1v.1l.2.1h-.2v.1h-.4l-.1.2v.1h.3v.1h.4v-.2l.1.1v.1H41v.1h-.1v.1h.4-.2v.1h-.2v-.1h-.6l.2.2h.1-1v.1l-.1.1H38.5l-.6.2-.1.1v.5l.3.3.1.1V35.7H38.6v.1h.1l.2.1h.7v.1l.2.2h.8l.1.1h1.1V36l.2.1.1.1h.2v.1h.2v.1l.1.1.1.1h.2l.1.2H43.3l.1.1v.2l.1.1.1.1h.3V37.8h-.4l-.3-.2.1.1H43v.1h-.5v-.1h-.1l-.2-.1-.3-.1h-.2l-.3-.1-.1-.1-.3-.1H38.2l-.1.1H38l-.1.1V38.1l.1.1h.1v.1h.1v.1l-.1.1v.1l.1.1h.2v.2h-.1v.2h.1l.3.3.1.1.8.4h.9v.1h.1l.1.1h.1l.3.2.1.1h-.1V40.8H41V41l-.1.1v.8l.1.1.1.1.1.1v.1H41v.1h.4l.2.1h1.5v.1h.1v-.1H43h.5-.1H44.9l.3-.1h.4l.1-.1h.2l.1-.2h.1v-.2h1.2l.2-.2.2-.3h.1v-.1h.1v-.4H48.3V40.5l.1-.1h.1l.1.2h.1v.5h-.1v.2l.2.1H49.3v.1h.1l.2.1.3.1h-.1.1v.2h-.2v.1h-.1l.1.2.6.1.1-.1h.2v-.1.1l.2.2H51.1l.2.1h.1l.1.1v-.1h.7v-.1H52.6v-.1h.1v-.1h.2l.1-.1H53.3v-.7H53v.1h-.2v-.2h.1v-.2h.1l.1-.2-.1-.2h-.4v.1h-.2v.1h-.2v.2H52l-.1.3h-.1v.2h-.1v-.1l.1-.2V41l.1-.1V40.6v.1h-.1v-.2h-.2l-.1-.2v-.2h.1l.1.1v.1h.2v.1h.2v.1H52.6v-.4l-.1-.2h.2v-.1h.1v.1-.2h.1v-.2h.1v.2h.1v.2l.1.1h.1l.2.1v.1-.2h.1v-.2l.1-.2V40l.1.1v.2h.4V40zm-10 3.4h-.5v.1h.6l.1-.1H44zm15-2.8v-.4H59l-.1.1h-.4v-.1h-.1v.1l.1.1v.1h.1l.2.1v.2l.1.1h.2v-.2zm-.8-9.6v.2-.1zm0 9.5v.1l.1.1v.2h.1v-.1l.1-.2v-.2h.1v.2l.1.1v.2h-.1.3l.1-.1V40.6l-.1-.2-.2-.1h-.4V40.7zm-.2 0H58l-.2-.3v-.1l-.2-.2h-.1v.2h-.1l-.1-.1.1-.1v-.2h-.2v-.1H57v-.1l-.2-.1h-.2v.2h-.1l-.2.1v.5h.1v.2h.1l.2.2h-.2l-.1-.1-.1-.2h-.2v.1l.1.1h-.1V41l.1.1v.1l-.1.1H56v.2H56v.1h-.2l-.1.1h-.5l-.1.2V42.2l.1.1v.1l.2.1v.1h.2v-.2h.1v-.1h.2V42.6l.1.1h.2v.1h.1v-.2h.2v.2l.1.1.1.1H57l.1.1.1.1.2.1v.1h.4v-.1h.2v.1h.1l.2.2h.5l.2-.3V43h.1V43h.2V42.6h.1l.2-.1v.2l.1-.2h.1l.1-.2v-.2h-.1l-.2.2h-.1v-.1h-.2V42h-.1v-.1H59v-.4l-.1-.1v-.1h-.1v.5h-.1V41l-.2-.2-.2-.1-.1-.1h-.1v-.1H58zm1.1-7H59v.2h.1v-.2zm3.1-6h.1v-.1H62l-.3-.1H61v.2h-.2v-.2h-.1l-.2-.1v-.1H59.6v.2l-.1-.1h-.4l-.2.1-.1.1-.1.1h-.2v.4l.1.1h.1v.2h.1v.1h.2v.1H58.7l-.1-.2H58.3V29.5h.1v1.3h.1V31h.1v.1h.1V31.4h.1v.1h.1V32.4l.1.1h.2-.2v.4h.3l.2-.1h.4v-.2.1h-.1l.1-.1V32h.1v-.2h.1v-.1h.1V31H60V30.7h-.4l.5-.1h.1v-.1H60.7l.4.1h.4v-.2l.2-.1v-.5h.1v-.2l.1-.3h-.2.1v-.1h.1v-.1l.1-.1V28.7l.1-.1v-.2h.1l.1-.3V28h.1V27.7zm-8 15.9v-.1.1h-.1v.2-.2h.1zm.8-1.6V41H55v.2h-.1v.4l.2.2zm-.8-4.1v-.1h-.1v.2-.1zm.5-.6h-.1V37l-.1-.1H54.2v.4l.3.2h.2v.2h.1V37.5l-.1-.1v-.1h.2-.2v-.1zm-.3 5.5h.2v-.1h.1l.1-.1v-.2h.1v-.1h-.2V42h-.2l-.2-.1-.2.1.1.1v.5h.1v-.1h.1v.2zm8.8-4.2h-.1v.1h.1zm-7.4 5.8h-.1v.1h.1zm2.4-12.2V31.7h-.1V31.4l-.2-.2v-.1l-.3.2v.2h-.2v-.2l.1-.1V31h-.1V31h-.1l-.1-.1h.1v-.2l-.4-.3H56.7l-.1.2h-.1v.2h-.1v.1V30.6h-.1v-.1h.1l.1-.2.3-.4v-.1l.1-.1h.1l.3-.2h.1V29.1H57V29h.1v-.2h.2l.2-.1v-.4l-.1-.2H57V28H56.7V28l-.1.1v.1h-.1l-.4.1H56v.2H55.7l-.1.1-.2-.2v-.1H55.1V28h-.4v.2h.2V28h.1v.2H55v.2l-.1-.2h-.2l-.2-.1h-.1v.1h-.2v.1H54v.2h.1v.2h.2v.1h.1V29.3l.1.1v.1-.1h-.2V29h-.1v-.1H54l-.1.1h-.1v.1h-.1v.2l.2.1v.1l.2.1v.1l.2.1h.1l.2-.1h.1v-.2l.1.1v.1l.1.1.1.1h.2v.1H54.9v-.1h-.1v-.1h-.2v.2h-.1V30.4h.1v-.1h.2v.2h.1v.4h-.2v-.4l-.1.1v.4h.1V31.3h-.4v.1l-.1.1H53.8v-.1h-.1V31h-.1v-.1l-.1-.1h-.1V30.4h-.1v-.1h-.1v-.1H53l-.2.1V30.8l-.1.2h-.1v.5l.3.2v.1h.1v.1h.2V32.2h.1l.1.1h-.1v.2H53.7v.2h.1v-.1l.1-.1h.1l.1.1v.2l.1.1H54.5v.1h.1v.1h.1v.2l.1.2h.1v.2h.1l.2.1v.1l.1.1h.1v.4h.1v.1h.2v.5l.1.1v.1H56l.1.1.1.1h.2V35h.1l.1-.1.1-.1v-.2h.1V34.3h-.2v-.1l-.1-.1V34h-.1v-.2l.1-.2h.1v-.1V34.2h.5v.1h.4l.1-.1.1-.1V34l.1-.2h.1v-.1h.1v.1h.1v-.1l.1-.2H58v-.1h.2v-.2H57.9l.3-.2v-.4H58v-.1H58l-.1-.1h.1l.1-.1.1-.1V32h.1zm-5.7-11.5H52.2v.1H52l-.1.1-.1.1V21.3h.4v.1H53.2l.2-.2v-.5h-.7zm-1.5 2.7v.1l-.1.1v.2H51.4v.1h.3v-.1h.1v-.5h-.1V23h-.1V23h-.2l-.2.2v.1zM40.2 41v.1h.1V41zm5.8-9.8zM51.8 20v.5h.6l.2-.2-.1-.1h-.1l-.1-.1V19.7h-.1v.1H52v-.1H51.8v.1zm-4 8H48.4v-.1h-.8l.1.1zm4.8-6.6l-.4.1v.1H52l-.1.2h-.1v.1h-.1v.2l.6-.3.2-.1v-.2zm1.5-4.7l-.2-.2h-.4l-.1.2V17h.1v.2h.3V17h.4V17l-.1-.3zm-1.4-1.3h-.1l-.2.2v.1l.1.1.2-.2v-.1zm1 4.5v.2l-.2.1v.2h-.1l.2.1.6-.6v-.1h-.4zm-.5 1.5l-.4.2v.2h-.1v.2l-.1.1h.4V22h.1v-.2l.2-.2v-.2h-.1zm-7.3 9.8h.2-.1zm-6.6 5H39.7h-.1V36h-.2zm-.8-.1l.2.1-.2-.1zm.2-.8h-.2.2zm.8.9V36h-.2.2zm2.5.8h-.2.2zm-1.8 3.2v.1h.1v-.1zm3.3-3.1H43.2l-.2-.2h-.2l.2.2h.5zm2.5-5.8v-.1zm-7.3 4v.1h.1-.2v-.2h-.1v.1h.2z" fill="#7F807C" fill-rule="evenodd"/></svg>