<svg width="110" height="116"><path d="M98.3 102l-.1.2-.8-.2-1.8-.1-.2-.2v-.2l.4-.3.3-.3.5.2h.1v.1l.1.2h.2l.4.2H97.8l.3.3h.2zm-87-91.1h1l.3-.2.4-.3h.1l.5-.1h.2l.1-.2.2-.1.4-.6v-.1l.2-.2V9l.2-.1.1-.1v-.3l.3-.4-.3-.3h.4l.4-.3.2-.3-.2-.3h.2v-.2l.2-.2H16.8v-.3L17 6 17 6h.4l.6.3h1.1l.2-.2.4-.5h.5l.1.1.2.2v.8l.2.1.3.6v.4h.4l.4-.2h.5V9l.1.2.3.1h1.1l1.4.2 1.8.5.3.2.3.4.3.4.3.3h.4l.4-.2.4-.3.2-.4V10l-.2-.2-.2-.2-.2-.1v-.3l.4-1.4.2-.3h.4l1 .1h.3l1.1-.5h.8l.7.5h.3l.5-.1.1-.2v-.1l.1-.6v-.2h.2v-.5l-.2-.2h-.2l-.1-.1-.3-.3v-.4l.2-.5v-2l.3-.4.4-.2.2.1.4.7.3.2.3.3.8.4h.2l1 .3h.4l.4-.1.4-.2V3l-.1-.1-.2-.1-.2-.2-.1-.2v-.7l.1-.4.3-.1h1.3l.3-.1.3-.2.5-.2H42.4V1l-.1.7V2h.4l.2.2.1.1.1.2v.2l-.3.1h-.2l-.1.2v.3l.1.2v.2l-.1.2-.3.3-.1.1v.3h.4l.2.2v.1H43.4l.1.3-.2.4V5.8l.3.4-.2.5-.1.4.3.2-.5.5V8l.1.2-.2.1h-.1V8h-.1l-.2.2V9.2h.2l.2.1.4.4.2.2 1.4.5h1.6l.3-.4.2-.3.1-.4.1-.5.2-.1.8.3.3-.2-.1-1v-.3l.3-.3.2-.2 1.3-.7 2.3-.5 1-.1.5-.1h.4l.4.3.5.2.3.2.3.4.2.4v.3l.3.1H56.7v.1l.2.2V8l.3.1.2.1.3.1h.4l.1-.1h.8V8h.2l.1-.2h.3l.8.2.3-.1.9.5h.2v-.2h.4l.3.2.1.2v1.1l-.1.1v.1h.4l.1-.2.1-.1v.3l-.1.4v.2h.5l-.2.3.1.2.5.3v.1l-.4.2-.1.1H63.7l.1.1-.2.1.1.3h.2l.2-.1.2-.2.1.4.2.1.2.2h.3l.2.4v.5H65l.1.2.2.3.2.4v.1l-.2.8v.2l.5.5h.2l.2-.2.1-.1h.2l.1.1.2.1h.4l.4.2.2.2.2.4.3-.1.1.2.1.4.2.3-.3.1H68v.2l.2.1v.2h.3l.2.4h.3l-.1-.2v-.1h.4l.1.1.1.2.2.1.1.2V19.2h.2l.2.2v.1h.2l.2-.1.1-.1v-.1h.3l.2-.1.2-.1.3-.3.2.2.2.4h.5v-.4l.2-.3v-.2H73.5l.1.2v.3l-.2.4v.4l.2.3.6.1h1.1l.1.3.2.6v.2l.3.2v-.5l.1-.3h.3l.5.3.1-.2.2-.4V19.5l.1-.2.6-.6H77.4l.2-.3h.3l.7-.2.3-.1.6-.8.3-.2h.3l1 .3h.4v-.1l.3-.2h.8v-.3l.1-.3.3-.1.4-.1.7-.5h.3l1.2-.1.4-.1.1-.1.3-.3.2-.2h.2l.9-.1h.1l.3.1h.2l.1-.2H88.7l.2.1v.2l.3.1h1.3l2.9.2h.2l.3.3.2.1h.2l.2-.1.1-.1.1.1v.7l.2.3h.5l.2-.3.6-.9.3-.2.2.2v1.1l.4.2h.8l.3.5.2.9.2.4.3.3h.4l.6-.2.3.1.3.3.2.4.3.8 1 1.8 1.7 2.4.4.3h.4l.4-.3.4-1 .6-.4.2.3v2l-.2.2h-.3l-.2.3v.4l.1.3.3.1.3.1.3.2v.3l-.3.4-.5.3-.2.3-.3.6-.4.4v.2l-.1.9-.1.3-.2.2.2.1.1.1.2.1h.7l.4.2.5.2v.3l.1.4.3.8v.1H107.2v.5l.4 1.3v.3h-.2l-.1.2v.4l.2-.1v.3l1.7 10-.1.4-.8.4-.2.1h-.2l-.3-.1h-.2l-.2.3v.5l.2.6.2.4v.3l-.2.2-.4.2-1 .4-.4.2-.8 1-.3.2-.1-.2H104v1.5l-.1.2-.2.1-.4.2-.1.2v.5l-.2.3h-.1l-1.3 2.8-.2.8-1 5.5.1.2.1.3.1.1.1.1v.3l-.2.3-.8 1v.3l-.2.9h-.1l-.9.4-.2.1-2.1 3.6-.3.7v.8l.3.3.2.4v.2l-.3 1-.4.3-.2.1v.3l1.4 6.4.2.2.1.1.5.5.4 1 .5 3 .3.6.7 1.3.2.6v.7l-.1 2h1.1l-.1 1v.5l.5.3h.3l.6-.4.3-.2 1.3.4.2.2.1.2.1.3v1l.4 1.2.5 1.2v.6l-.2.2h-.8l-.1 1v.3l.3.4V100.3l.3.2v.1l-.1.4-.3.2h-1.1v-.5H101.3l.1.4v.3l-.3.3-.4.1h-.3l-1-.5-.2-.2H98l-.3.2-.1-.3-.3-.4-.3-.4-.3-.1-.1-.2.1-.2.3-.3h.1l.1-.3v-.5l.2-.2.2-.2h.2l.1-.2v-.7h-.8l-.1.2H96.8l-.3-.1H96.2l-.3.3h-.3l.2.5.1.3-.1.3h-.5v.4l-.2.1.2.2H95.6l.2.1h.2v.1h-.4l-.2.1-.2.1-.1.2-.1.2-.1.2-.2-.2-.1.1v.2h.3l-.1.3.1.2h.5l-.7.6h-1.1l-4.6-1h-.8l-.6-.2h-.1v-.5l-.2-.2.1-.2-.2.1v.3l-.2.2v.3h-.2l-.2-.2h-1.3l-.8-.5-1.3-.1-.5-.2-.3-.4.4.1h.3l.4-.2.2-.3.2.3.1.2H84.3v-.5h.2l.6.3H85.4l.4.1.7.4v-.1l-.1-.2V99H87.2l.2-.3v-.2h-.3l-.1-.3-.2-.6v-.3l-.1-.1-.2-.1H85.8v.2l.4.3.4.6.3.3.3.1-.2.3h-.2l-.3-.1H86l-.2-.2h-.7l-.2-.2h-.2l-.1-.3V98h-.2v.2h-.1v-.1l-.1-.1v-.4H84v.5l-.2.1H82.3l.2.2h.8l.2.2-.2.2-.3.2h-.6l-.3-.2-.4-.2-.3-.1h-.2l-.1.2h-.4l-.5-.3H80l-.2.1-.2.1-.2-.1H79l-.2-.1-.5.3h-.5v-.3h.1l-.4-.1h-.2l-.3.2v-.1l-.2-.1h-.2v.3l-.4.2-.1.2-.1-.2-.3-.1-.2-.2H75.3l-.2.3h-.2l-.2-.2h.1v-.1h-.6l-.3.1v.4l.1-.1h.2v.1l.2.2H74l-1.2-.1-.1-.2-.1-.1-.2-.3-.1.2v.2h.2v.2h-.3l-.3.2-.4.3-.3-.2h-.4l-.3.1-.2.2h-.2l-.2-.1-.1-.1-.1-.2h.8v-.2l-.1-.1h-.2v-.2h.2v-.2l.1-.1v-.3l-.3.5-.3.2h-.8l.5.4-.4.4-.7.2-.4.3-.1.3v.1l.2.1.3.1h.6l.2-.2-.1-.1v-.2l.5-.1.2-.1.1.2h.4l.4-.2h1l.2.2h.5l.4-.1H72.3V99.8l.7-.2v.3h.1l.4-.2h1l.6-.2v.3l.2-.2.2-.2v-.2h.4l.3.2h.2l.3-.2.3.2h.3l.4-.2.7-.1.5-.3h.3l2.2-.1.5.2H81.6l-.2.1h-.2l1.3.6-5.5.5-5.6.4-3 .7-1.6.1-.3.2-.2-.1h-.2l-1-.1H65h.2v-.2h-.4l-.2-.2v-.7l.2-.2-.3-.1-1 .1-.3.1-.3.2-.2.2-.3-.3-.5-.2-.6-.2-.6.2v-.1h-.1v-.1h-.2l-.2.1h-.3l-.4-.2h-.6v.4l-.2-.1v.2h.1l.1.1h.5l-.1.2-.5.2-.1.1v-.3l-.3.7-.1.3-.6-1h-.1V101h-.3l.3.4.7.4h.9l.7-.1-.3-.3h-.3l-.3.1h-.3v-.2h.4l.2-.1v-.1l.3-.3h.3l.3.2h1.2v-.2h-.2l-.2-.1-.1-.2h-.3v-.2l.3.1h.6l1 .6.5-.1.3-.2h.8v.1l.2.3.1.4.3.2-4.6.1-.6.3-3.6.2-.6-.1-.4-.3-.5.4h.5l-1.4.5-4 .6h-.1l-2 .7-.3.2-.2.1h-.2l-1 .4-1.3.7-5 1.6v.1l-.2.3-.2.2-2 .4h-.3l-.3.2-.5.4-.2.2-2.3.7h-1.8l-.4.3-.5.1-.2.1-.5.6-1 .9-1 .6-.8.2-1.3.2-1 .4-.3.2-.2.3H24l-.1.1-.4.3-1 .5-1.3 1.2-.4.1h-.4l-.8-.2h-.3l-.5-.3-.1-.3v-.1l.2-.4V114l-.1-.4v-.8l-.1-.1v-4.9l-.2-.2v-.1l-.2-.1-.1-.2V106.5l.1-.2-.1-.5v-.2l.5-.4h.3l.1.1v-.6l-.2-.2-.1-.3v-.4l-.1-1v-.3l.2-.4H19.7l.5-.9V100l.1-.6.1-.2.1-.1.5-.3h.2v.5h.2l.1-.1v-.3l.1-.1.2-.3.1-.2V97.3h-.4l-.3-.1-.1-.3-.2-.3V96l.2.1v-.8l.2-.3.2-.2.1-.1-.2-.2h.5l-.3-.3V93.6h.4l-.2-.2-.6-1.3-.3-1.4v-.6l.1-.8v-.6l-.6-.3-.1.6v.3l-.2.1-.2-.1V89l-.2-.2h-.3v-.3l-.3.2-.2.1h-.1l-.2-.4h-.2l.2-.3h-.1l-.4-.3-.4-.2h-.4l-.2-.3-.2-.2-.1-.1-.2.2-.3.4-.2.1-.3-.4-.2-.3-.7-.3-.3-.3v-.7l.2-.1v-.2l-.2-.1v-.5l-.2-.1-.1-.2h-.4l-.2.1v.1l-.2-.2V83.3l.3-.7v-.2l-.3-.4-.8-.6V81h-.4l-1.2-.3-.3-.2H9l-.2.1-.4.2-.2.1h-.5v-.1l-.3-.1-.2-.1-1.4-.3-.1-.1V80l-.2-.2H5l-.2-.3h-.2l-.2.1H4l-.2.2-.2-.2v-.1h.2l.1-.3-.2-.4v-.5l.2-.1v-.1l-.2-.3-.6-.3-.2-.2-.1-.1v.1l-.2.4-.1.3-.2.2-.4-.1-.5-.7-.2-.2H.5L.3 77H0l.4-.6H.7l.1-.1.1-.3.3-.2.3-.3 1.3-1 2-2.2.2-.4.2-.6.2-.5v-.6h-.2L5 70l.2-.5V68.7l.1-.2.4-.3.1-.1v-.5L5.8 66v-.4l-.1-.2-.1-.2-.3-.2v-.6L5 64l-.2-.2-.1-.2-.1-.5-.2-.3-.3-.4v-.2l-.2-.4-.2-1.7-.4-1.3-.3-.6-.7-.4.8-.7.4-.3.5.5h.3l.6-.2.6.2.7.5.7.3.5-.6v-.8l.4-.4v-.1l.3-.1v-.4l.6-.7V55l.1-.6V54l.2-.1v-.1l.2-.1v-.4l-.5-.3-.1-.2V52l1-1.4.1-.7V49.4H11l.2.1.2.2h.3v-.4l-.3-.4-.3-.3-.3-.2-.1-.3v-.8l.2-.2.1-.3v-.2h-.2l-1.1.4h-.2l-1.7-.5-1.5-1v-.2l.3-.3v-.9l.2-1V42.5l-.2-.2v-.2l-.1-.2.1-.1.9-.7h1.2l.6-.2h.5l.2.2h1.3l.3-.1h.2l.2.2.2.2v.3l.2.2.2.2.3.2h.8v-.6l.1-.3h.4l.4.4.5 1.2.4.2.5.1 1-.1-.3-.8-.1-.4v-.4l.2-.4v-.4l-.2-.7V39l-.1-.3-.2-.2-.5-.3-.1-.2-.5-.8v-.1l-.4-.3-.1-.1-.1-.3H14l-1.1-.3h-.4l-.8-.3-.2-.5.3-1.6.1-.9v-.4l.3-.4.2-.3 1.6-.8h.7l.5-.1.2-.3-.2-.3-.7-.4-.4-.3-.2-.2-.2-.4H13.2l-.9-.3v-.7l.6-1.6V26l.5-1.4v-.2h-.8l-.4.1-.6.4-.4.1h-1.1l-.3-.2-.3-.3-1-1.5-.2-.3v-.3l-.1-.4v-.4l.6-4.9v-.4h-.4l-.1-.1V16h.1v-.5l-.2-.1H8v-.5l.3-.2.2-.2.1-.1-.2-.1-.2-.2.2-.5.4-.5.3-.3 1-.3.3-.3.4-.4v-.3l.1-.2.1-.2.2-.2z" fill="#7E7D77" fill-rule="evenodd"/></svg>