<svg width="137" height="115"><g fill="#D8D8D8" fill-rule="evenodd"><path d="M126 81l3.9-5 .3-2.5 2-1.8h2l.8-2-1.7-2.3-3.1-9.9V50l-.9-1.2.5-3.7-.8-1.3 1.1-8.6-.9-1.3.3-2.4-4.2-4.4-3-1.2-7.9-9.2-.3-1.9h-1l-4.7-5-5.2-1.2-1-1.2h-7.4l-1.2 1.3H87l-1.2 1.2h-2.1l-4.6 2.4H77l-1-1.2h-3.2L72 9.8l-6.6 1.3-2.5-5-3-1.2-1-1.3h-2.2L55 1.3h-3.1l-1-1.2-3.5 2.4H44l-1.2 1.2-3.4 1.3-3.9-2.5h-4.3L27.7 5h-3.2l-.8 1.8-1.7.6-6.2 6.3h-1l-5.6 5.5-.2 1.3-6.4 7.3-.3 2.5L1 31.5 0 38.9l1 1.2-.2 8.6.9 1.4-.9 6 1 1.4L.7 66l.8 1.3-.3 2.5 2.7 3.7-.3 2.5.9 1.2 1.2 6.2 5 6.8 2 1.2h6.4l1 1.2h5.2l10 6.3 2.8 2.5 3.2-.1 4 2.4 3.3-1.2 1 1.3h6.3l2 1.2 1.2-1.3 1 1.3h5.3l.9 1.3 3.2-.1 1 1.3h2l2 2.5h2l3.8 3.7h4.3l.9 1.2 12.8.1 1.3-1.3h3.1l13.4-8 .4-2.6 3.7-3.6 1.8-5 5-6.1.4-2.6-1.8-2.4zM128.7 90.1l-.2 1.3-1.2 1.2-.2 1.3.4.7h1.2l1.9-2 .3-2.5-.5-.7z"/><path d="M130.9 79.8l-.8.6 1 1.4-.2 1.3-1.3 1.2 1.4 2h1.2l1.8-2 .4-2.5-1.4-2zM134 74.7h-2.1l-.6.6 1 1.2-1.4 1.2-.2 1.2.6.6h3l1.8-1.8.2-4.2h-1.1z"/></g></svg>