<svg width="162" height="115" viewBox="0 0 162 115" fill="none" xmlns="http://www.w3.org/2000/svg">
<path d="M115.709 73.6736L113.436 66.3517L113.26 66.1743L112.836 65.4165L112.529 65.2147L112.152 65.1794L111.893 65.3221L111.669 65.4881L111.398 65.5939L110.822 65.7599L110.079 66.2101L109.56 66.3517L109.749 68.2005L108.924 70.2381L107.51 71.5417L105.908 71.233L105.625 71.4348L105.083 71.743L104.801 71.9561L104.188 71.7077L102.445 71.4701L101.502 71.233L100.136 70.6053L99.4052 70.4399L98.5578 70.4752L99.2763 71.2688L101.431 72.5366L101.879 72.9158L105.202 74.6339L107.334 75.0489L108.135 75.4633L108.453 76.2803L108.9 77.0035L112.859 79.7517L113.141 80.1314L113.26 80.8182L113.436 81.3043L113.895 81.8495L114.425 82.335L114.908 82.513L115.521 82.098L115.827 81.1269L115.851 74.4326L115.709 73.6736ZM76.6109 78.7562L76.1626 78.5549L75.6567 77.9631L72.8648 76.1143L71.8637 75.8067L69.602 75.3565L68.8355 74.9414L67.9757 74.6697L67.6462 75.4633L67.7168 77.4537L67.87 78.1763L68.2465 78.4486L68.7417 78.6618L69.2012 79.1007L69.3663 79.6215L69.2951 80.5811L69.5421 80.9956L70.4025 81.3043L74.1599 81.3759L77.8003 82.1338H79.0727L79.8731 82.0263L80.0619 81.5761L79.4492 80.6522L76.6109 78.7562ZM59.0347 52.4554L58.8928 51.9096L58.7634 51.3525L58.422 50.9738L58.0568 50.6299L57.8329 50.2274L57.7623 49.6702L57.8561 48.5087L57.8329 47.9527L56.9607 45.7133L54.5933 42.2778L54.0987 40.0498L55.2999 29.8727L55.0523 28.8653L54.5696 27.9773L53.945 27.1478L52.9557 26.7447L51.6251 26.9465L49.3391 27.7044L48.7031 27.7396L48.1492 28.7709L47.6427 30.1092L47.1243 31.07L47.4183 31.6618L47.5251 32.3134L46.7829 41.9691L46.8411 42.5853L46.983 43.213V43.7582L45.805 45.4763L45.4635 46.1284L45.3217 46.6844L45.5692 48.0232L46.1464 48.8766L47.5132 50.2274L47.7608 50.7368L47.8309 51.2228L47.9728 51.6964L48.4205 52.2894L49.4454 53.1058L50.0581 53.4503L50.6353 53.5924L52.9201 53.6987L53.7217 54.0427L56.7131 56.8262L57.067 57.5135L57.3502 57.9285L57.9856 57.9871L58.7165 57.8927L59.2348 57.7153L59.6119 57.4424L59.7526 57.1349L59.8239 56.7557L59.9889 56.2099L60.6011 55.2036L60.6243 54.7647L59.3762 53.0705L59.0347 52.4554Z" fill="none"/>
</svg>
