<svg width="86" height="116"><path d="M85.4 59.6V59l-.1-.3-.2-.2-.2-.3v-.4l-.2-1 .1-.2v-.2l-.3-.2-.1-.1-.2-.1-.4-.1-.3-.2-.1-.1-.6-.2-.3-.2v-.6l.3-.3v-1l-.2-.3-.4-.3-.2-.3-.1-.4v-.4l-.2-.1-.2-.2-.1-.2v-.6l.6-.5.2-.2.1-.3.1-.3v-1l.3-.4v-.4l.2-.2.1-.2-.6-.4V45.8l.1-.2-.1-.2v-.1l.2-.3v-.3l-.2-.2-.2-.1-.3-.1-.3-.2-.2-.2v-.3l-.2-.4-.2-.7V42l.5-.4.2-.3.1-.4v-.2l-.2-.1V40l.3-.5-.2-.3-.6-.6-.6-.2-.3-.4h-.1l-.1-.2-.3-.6-.2-.2-1-.7-.2-.1-.3-.4h-.4l-.2-.1-.2-.2v-.2l.2-.2V35l.1-.3v-.2l-.1-.5v-.2l.4-.4.5-.3.6-.4.3-.3V32l.1-.1.3-.9v-.4l-.1-.3V30l.2-.1.1-.2.3-.4-.2-.2-.1-.2-.1-.2v-.4l-.3-1.2v-.8L79 26v-.4l-.3-.3v-1.4l-.3-.6-.1-.3v-.7H78l-.1-.1.4-.3v-.4l-.1-.1h-.2l-.1.2-.3.1H77l-.1-.1-.3-.1h-.3l-.2-.3h-.3l-.6-.6H75l-.2-.1-.1-.2V20H74.4l-.2-.2v-.4l.7-.5v-.2l.1-.1v-.2H75v-.1H74.5v-.5h-.1v-.1l-.3-.1-.2-.2-.3-.4.2-.2.1-.3v-.3l.2-.2V16l-.7-.6-.3-.2V15h.1v-.2h-.2l-.5.4-.3.1-1.1.3v.1l.1.2h.1v.2h-.2L71 16l-.1-.2-.1-.2-.1-.4h-.1v-.1H70.2l.1-.1v-.2h-.1l-.4.1h-.2l.1-.1.2-.1-.3-.2-.3-.7h-.2l-.3-.2-.5-.2H68l.1-.1h.1v-.1h-.5V12.6l-.3-.4v-.2l.1-.3v-.1l-.5-.3-.1-.1v-.5h-.5l-.4.3-.3.2v.2l-.1.2-.1.2h-.4l-.1.1-.2-.2v-.1l-.1-.1v-.2l-.1.2h-.5l-.1-.1v-.2l-.1.1v.2l-.2.2v-.4l.2-.1h.1V11H63.7l-.1.1v.2l-.4.3-.3.1-.2-.1H62.4v.2h.2l-.6.4h-.2v.4l-.2.1-.3.3v.1l-.1.2.2.2h.2l-.2.1h-.2l-.4-.3.1-.1V13l-.2-.3h.2l.1-.1V12H61.5v-.4l.1-.2h.7l.2.3v-.2l.2-.1h.4l-.1-.1v-.2h.1V11l.1.1V11H63.8l.1-.2h.4l.4.2h1.2l.2-.2-.1-.2h-.5l-.3-.1H63l-.4-.2-.2-.3h-.2v.1l-.2.5-.4.6v.2l-.6.8-.3.6-.2.2-.3.3-.7.4h-.2l-.3.5-.2.1-.3.4v.2l.1-.1h.2v.2l-.3.1-.1.2V16l.2.2-.3-.3V14.6l-.3.2-2.2.5-.8-.2h-.4l-.3.3-.2.4v.1H54v.5l-.2.1-.3.5-.1.1H53h.1v.2l-.3.3V18l-.1.1v.4l-.1.3-.1.2v.2h-.2l-.4-.5h-.3l-.1-.1-.1-.2-.4.3h-.4l-.1-.1v-.6l-.4-.1V17.5l-.2-.1h-1.2l-.5.4H48l-.3.3v.1h-.4V17.9l-.1-.2h-.7l-.2-.2-.1-.3-.1-.3v-.2l.4-.5.1-.1h.1l.1.1h.1l.5-.2h.1l.4-.6 1-.7.1-.1v-.1l.2-.1v-1.5l-.1-.7-.1-.2H49.2l.3-.5h-.3l-.6.3-.3-.1H48h.4v-.2l-.8.1-.3.2-.3.2-.5.5-.3.2h-.8l-.8-.8-1.5-.7-.6-.4-.2-.1H41.7v.2l-.2.1h-.3l-.1.1v.1l-.2.6-.2.4-.2.2-.2.1.1-.1v-.6l.2-.2.2-.2v-.5l-.1-.2v-.2l.2-.1-.6-.5-.2-.1-2.2.5-.4-.2.4-.1.4-.2.4-.2.3-.2v-.2l.2-.2v-.5l.1-.7V7h-.2L39 7h-.7v-.1h.2l.2-.2h.5l-.2-.3-.1-.2-.2-.6-.2-.2-.3-.2H38v.3l-.4.2h-.2l-.1-.1-.1-.3-.3-.1-.2-.1-.2-.2-.3-.1h-.6l-.5-.2v-.6H35l-.1.3h-.3l-.1.3-.6.3h-.4l-.2-.2h-.2v.2h-.2l-.2.1H31.8v-.5l-.1-.1-.2-.2-2-.4-.6-.3-.8-.2H28l-.6.3h-.4l-.3-.1-.1.5v.8l.1.2.2.4.1.3v.3l.3.2.5.5.3.1V7l.4.8-.3.2v.2l.1-.1h.5v.2l.2.1.7.9.3.3v.4l-.1.3h-.2l-.3.3-.4.3-.2.1-.2.1h-1l-.8.2h-.2l-.2.2v.4l.2-.2h.1l.2.1h.1v.2h-.5l-.2.1-.1.2v.4l.2.4.2.2h.3l.4-.2.1-.1h.7l.4-.1h.3v.1h.1l.4-.3h.2v.2l-.2.2-.2.2-.2.1-.4.1-.1.1V14.2l-.2.3v.3l.1.4.3.5.2-.2.3-.2h.5V15.6l.1.2.2.1.1.2V16.7l-.1.3v.1l-.3.1h-.2l-.3-.3h-.4l-.4.2.8 1.5.3.4.3.2.2.1.1-.1.1-.1h.3l.3.2h1.2l.3.1.4.2.6.5.3.2v.3l.2.5.2.5.2.2h.1l.5.3.1.3v.4l.1.5.3.4.7.4.4.1.8.1.3.2.1.2v.1l-1.2-.3-.6-.3-.3-.1h-.2l-.1-.2-.6-1-.2-.4v-.2l-.4-.2-.3-.4-1-1.6-.1-.3H31.8l-.1-.2-.2.1h-.7l-.7.2-.2.2h-.4l-.6.2h-.4l-.8-.2-.3-.2-.3-.3-.3-.2H26l-.2.3-.1.2-.2.4-.2 1-.3.8-.1.2v.5l.1.4.1.3v.2l.2.2v.1l.3.6v.5l-.2.2-.3.2-.1.3v.5l.1 1v.3l-.2-.3V25.6l.2-.3.2-.2.2-.2v-.2l-.3-.1-.8-.2-.4-.2-.1-.1-.1-.2-.2-.2-.2-.1H23l-.1.2-.1.2v.6l-.1.2v.2h.5l.3.3v.5l-.3.5-.2.4H23l-.1.1h-.4l-.1-.1v-.2H22l-.2-.3h-.6v-.3l-.3-.5.2-.1h.4l.1-.1.2-.2.1-.1v-.5h-.4V24l-.2-.3-.4-.5-.3-.6v-.5l-.6-.2-2.8.4-1.4.2h-.2l-.1-.1-.1-.1-1.4.2-.8.2-.3.4-.2.1-.3.4-.3.2-.1.2v.2l.1.1.3.1v.5l-.1.2-.4-.1h-.2v.1l-.1.3-.2.4V27.3l.1.5.3.1 2.2.1.3.1.2.4h-.1l-.3-.3h-.5l-.3.4v.5l-.1.1-.2.1v1l-.1.3-.1.3V31.5l.1 1.1v1l-.3.6-.7 1.2-.2.4v.5l-.1 1.7-.1.5-.2.3h-.3l-.1-.1h-.5l-.5-.1h-.9l-.3.1-.3.2v.7l.4.2-.5.3h-.2l.1.3v.5l.1.2.2.2.3.2h.7l.5.2h.7l.1-.2h.1l.6.9.1.4v.5l-.3.5v.8l.1.1v.1l-.4.3H11l-.2.4-.2.2-.4.2-.2.2-.2.4h-.1l-.6.2h-.2l-.1.2-.1.3h-.1l-.1.1h-.2v.5l.3.1.6.4.2.2.1.2v.2h-.1v.1l-.3.4-.2.3h-.3l-.8.1-1 .3-.4.4H6.1l-.6-.1v.5h-.3v-.2H5l-.3-.1-.2-.3h-.7l-.3-.3-.3-.2-.3.2.4.5.1.1H3.1l-.3-.1h-.4l-.1.1-.2.2h-.2l-.4.1-.1.1v.2l.1.1.2.3v.3l-.3.2v.2H2l.2.2.1.1-.1.4.2.3.6.3v.3l-.1.2v.2l.6.9.4.4v.5l.1.2v.3l-.1.4v.2l.1.2v.4l-.1.2-.1.2-.2.1-.1.1-.5.9-.2.2v.2l-.2.3v.6l.3.1.4-.3h.3l-.1.1-.2.2.2.2-.2.1-.5.3-.9.7v.1l-.3.4v.1H1v-.2H.5v.4l.2.4v.4H1l.2-.1H2v.7l.3.1.3.2v.8h-.4l-.1.1v.4L2 66l-.1.1h-.2v.2l.1.1H2v.4l.1.1h.1v.4h.7l.1.2.1.1.5.7-.1.1v.2l.3.1h.6v.2l-.1.2-.2.1-.2.2h-.1l-.2.4.1.2v.1h.2l-.1.2v.1l.1.1h.8l.3.2h.2v.1H5v.4h.1l.1.1v1l.2.6v.2l-.3.1h-.5v.1l-.1.2V73.8l-.2.1h-.2L4 74l-.1.1-.1.1-.2.2-.1.1v.2h.1v.4h-.3V75.5H3v.1l.1.2-.1.2v.2l-.1.2v.4l-.1.2H3v.2l.1.3V77.7l.2.2.1.4.1.1.1-.2.2.3.3.7.1.2.3.1h.2v.4H5.4l.2.3.2.1h.6l.3.2v.7h-.1v.4l.1.1h-.1v.1l-.6.5-.2.2.1.1V83l-.1.2-.3.3-.1.2V84.2l-.1.6v.5h.5l.9.3.1.2v.1l.1.1v.2l.5.5v.2h-.2V87.2l.2.2.6.6v.2l.2.1.1.3v.2H8.6V89.4l.1.2h.5l.4.1h.1l.2-.2v-.2l-.1-.3v-.2h.1l.4.1h.3l.6.3h.2v.5l.1.4.2.2.3-.2V89.7h.1l.4.3h1.1l.2.2h.1l.1-.2.1-.1h.3v-.2l.2-.2.2-.1.2-.1h.1v.2h.7v.5l.2.4.2.1.2.1.4.1.2.1v.1l.1.2H18v.1h.2l.2-.2h.1l.8.2h.7l1.4.8 1 .2-.1.3-.3.5-.5 1.2v.2h-.1l-.4.2-.1.1v.2l-.1.1h-.4v.1l-.1.1v.4l-.2.1-.1.2h-.1l-.3.3-.1.2h-.2l-.5.7v1.3l-.2.2v.1l-.1.1v.4l-.1.1-.1.2v.1l-.1.4v.5l.1.2v.2l-.1.2h-.2l-.2.2v.6l-.1.2v.2l-.7.8v.4l-.1.1v.1l-.1.1v.2l-.2.3v.6l.5.7V106.3l-.3.2v.5l-.2.1V108h-.2v.2l-.2.4v.2l.1.5v.2l-.2.3v.5l.2.1.1.2.2.4h.1v.1h.1v.4l.4-.1h.3l-.2.3h-.3l.5.3h.2l.7-.1h.2l.2-.3.1-.2h.8v.4H21.4v-.1h.1v-.1l.1-.1h.1l.2-.2h.2v-.1h.1v-.1l.6-.1h.4l.1.1v.2l.1.1h.1l.4.2h.8v-.1l.2-.3.2-.2h.3l.2.1v.2l.2.1h.1V110.7h.2l.1-.3h-.9l-.2.2h-.5l-.2-.2H24V109.7h.1l.2-.2h.1l.1-.4.2-.2h.2l.5-.2h.1v-.3h.5v.5h.2v-.3l.2-.1.2.2v.1l.1.1h.2l.2.2-.2.2V109.7l.1.1v.1h.5v-.4h.3l.3.2.2.3h-.2v.1l.2.1.3.2h.9l.1-.2h1.7l.2.2h.3l.4.1 2.5 1.6.6.2h.6l.3-.2v-.2l.2-.2.2-.3h.4l.1.1v.5h.4l.4.1h.4l.1.1.1.2h.1l.1.3v.1h.4l.5.6V113.7l-.2.2.1.2V114.4H40.3l.2-.1h.5v.3l-.1.5v.2l-.2.1-.1.2H41.4l.4-.3.2-.2.2-.2.2-.4v-.1h.1l.2-.2h.1l.2-.2v-.3l.2-.3v-.5H43l-.1-.2h-.1V111.6l.2-.1h.1v.5h.1l.2.1h.5l.3-.3h.3l1.2.4h.1v.2h.4l.4-.2H47l.2.2-.3.3.5.3.5.5v.5h1.3l.6-.4h.4v.4h.4l.2-.2v-.2l.3-.1.1-.1H51.8V113l-.2-.1.5-.5h1l.2-.1.2-.2v-.1l.1-.3v-.2l.3-.2h1.4l.5.1h.1l.1-.2h.1l.8-.2H59l.4-.3V110.1l-.2-.2V109.6l.3-.2.2-.1V109.8h-.1v.4h.2l.2-.1h1.4l.1.3.1.1v.1l.3.2.2.1h.5l.4-.5h.2l.3-.1h.4l.5.1h.1v.4l.3.2.2.1-.2.2-.2.3v.3l.3.2h.2l.1.1.4.5.5.3h.4v.1H66.9l.3-.3V112.4H67v-.4l.1-.3v-.3l.2-.2v-.3h.1v-.7l-.3-.3v-.2H65.8l-.2-.2.2-.3v-.2l.1-.1v-.1l.7-1-.3-.3-.3-.8-.2-.1-.2-.2-.2-.2h-.1v-.4l-.2-.3-.7-.7v-.1l-.2-.2v-.4h.2l.2-.3.4-.3.1-.1.2-.3v-.1h.2l.5-.2.1-.1.3-.2.4-.3.1-.1 1-.4 1.3-.2.3-.2.9-.8.1-.2v-.3l.1-.1V99l.1-.1.2-.3V98.4h-.1V98h-.1v-.2h.1l.3-.1h.3l1 .2h.2l.1.2.2.2.3.2.1-.4.1-.1h.2l.1-.1.1-.1.2-.4V96.2l.2-.1h-.1V96l-.2-.2v-.1l.3-.6-.2-.2-.5-.9-.2-.3-.1-.1H73l-.2-.1-.2-.2-.1-.2-.1-.3v-.2h-.2l-.2-.1-.1-.1-.2-.1H71.4l-.1.1-.1.3-.2-.1-.3-.2-.3-.3-.1-.2v-.4l-.1-.2-.4-.4-.3-.4-.1-.1h-.2l-.6-.1-.2-.2-.2-.2v-.3l-1-1.2-.4-.4v-.4h-.2l-.3-.3-.1-.1H66l-.3-.2h-.2v.2h-.8l-.2-.2-.3-.7-.2-.2-.4-.2-.2-.2v-.2l-.1-.2v-.7H63l-.1-.2h-.1v-.2l-.1-.2v-.5l-.2-.1v-.1l-.3-.2v-.2H62V82.2h-.2l-.3-.2h-.1l-.1-.2-.2-.3-.1-.2V81.1l.4-.2.2-.1V80h.2l.1-.1.2-.4.1-.3V79H62l-.3-.3V78l-.1-.1h-.4l-.1-.2-1.4-.7v-.4l-.2-.2h-.1l-.1-.2h-.2V75L59 75l-.1-.2-.2-.2-.5-.3v-.4h.1v-.1l.1-.2v-.2l-.1-.1-.2-.2h.7l.1.1.1.2V73.7l.1.1h.4l.1.1v.2h-.1v.1l.2.2v.2l.1.1.1.4.1.2h.2v-1l.3-.2V73.8l.2-.1v-.1l.4-.5V73l.3-.2h.1v-.1h.2v-.4h.1l.3-.3.4-.1H64l.2-.4.1-.1h.5l.2-.2h.1l.9.6h.3l.3-.3.1-.2v-.2l.1-.6H67.4l.3-.1h.5l.2-.1.2-.3.3-.8h.2l.1.1h.4V69l.1-.1.4-.2v-.1h.2l.1.2.1.1.2.1h.2l.1-.2.2-.2h.1v-.2l.1-.2.2-.2v-.2l-.1-.2.4-.2H73l.2-.1.4-.2h.8l.2-.1h.1v-.1l.1-.1v-.4h.4v-.2l.2-.1.1-.1h.7l1.4-.7h.2l.1-.3.1-.1.4-.1h.7l.3-.2v-.3l-.2-.2h-.4l-.2-.3v-.2l-.1-.1h-.3l-.1-.1v-.2l.2-.4.2-.2h.7l.1.2.2.1.3-.1h.4l.1-.2.1.2.1.2h.1l.3.1.1.1.1.1v.2l.1.1v.4l-.2.2v.2l.6-.1h.1V64.6l-.2.4v.3l.4.1.1.1.4.3h.7l.1-.2.2-.4v-.3l.1-.2.3-.4.5-1 .4-1.1v-.6l.1-.1v-.1l.1-.1V60.7l.1-.4.2-.4.1-.3zm-16-50.2V9.1h-.1l-.1-.1v-.1H68.2L68 9h.1v.4h.1v.1l.2.1h.1l.3-.1V9.9l.1.1.3.1-.2.1v.1H69l-.2.2h-.3v.2l-.2.3.4-.1.2.1.1.1v.4l.2.1h.1l-.3.2h-.2l-.4-.1h-.2l-.2.4v.3l.5.4v.1h-.2l-.1.1v.2h.1l.3-.2h.1v.4h.4v.1l.1.1h.5v-.2h.1l.1-.1v.2l-.1.2.2.3h.3l.3.1h.1V13.4H70V13.8v-.4l.2-.1h.2l.1-.3.1-.2.5-.4.2-.1.9-.1.2.1h.2V12h.4l-.1.2-.6.3.2-.1h.2l.5-.1v.2H73l-.3.2v.1h.5v.2H73l.2.1h.1v-.6l.2-.2.1-.1.1-.1-.2-.1-.2-.2-.2-.5-.2-.1-.4-.1-.2-.1-.1-.1-.1-.3-.1-.3V10l.2-.2.5-.2.2-.4v-.4l-.3-.3-.5-.1-1.1.2-.4-.1-.2-.2-.1-.1v-.3l-.1-.2v-.3l.2-.1.2-.1.2-.1v-.1l-.3-.2h-.2l-1.3.4H69l-.1.2V7.6h.1l.4-.2v.4l-.2.2v.2l-.2.3v.2h.4l.2-.2.2-.2.2-.2.2-.2V8.2h.1v.2h.1l.2.1.1.2.1.1h.5v-.1h.1l.2-.1v.1h-.1l-.1.1V9.1l.2.3-.1.1-.1.3v.1h-.7l-.2-.3.1-.3-.1-.2-.2-.2v-.2l-.2.1V9l.2.1V9.3H70v-.2h.1V9h-.2v-.2l.1-.1.2-.3H70l-.2.2-.1.1-.2.2.1.3v.2h-.1zm-21 1h.1v.2h.1v-.1H49.3V11.1h.7v-.2l1.2.2-.5-1-.1-.3-.1-.1-.2-.2-.8-.3h-.5l-.3.4-.3.6v.3l.1-.1zM23.1 5.9l.1-.3V4.1l.1-.2.3-.2h.2l.1.2H24.9l.2-.3h1.3l.3-.2-2 .1H24l-.3-.4V2l.2-.2.4-.2V1h-.3l.1-.1h.6l-.5-.3-.3.5-.7 2-.1.3-.1 1.7V6zm1.9.8H25.8l.1-.4v-.5l-.3-.1h-1.1l-.2.3-.2.3.6.3.3.1zM8.3 24.2l.1.1h.4l.1.1H9v-.1h-.1l-.1-.1h-.1V24h.2l.3-.2h.2l-.1-.2h-.4l-.7.2v.4zm65.4-9l.1.2.4.4V16.4l-.2.6-.1.3H74.2l.1-.3.3-.1h.1l.1.2v.1l-.1.2v.2l.3-.1v-.2l.1-.1.1-.1v-.4h.1l.2-.1h.2l.1.1.1.2.1.2.1.3.2-.1.2.2v.5l-.1.3v.3l-.3-.1v-.2h.1-.4l-.2.3V18l.1-.2h-.1l-.5-.1v.4l.3.7v.4l-.1.1-.4.2h-.3l-.1.2h-.2l.2.3H76l.3-.2.2-.3.2.1h1.2v-.3l-.2-.2h.2l.1-.5-.1-.1-1.7-1.8-.2-.2-.4-.1-.6-.4-.2-.2-.2-.2-.1-.6-.1-.1h-.4l-.1.1-.1.2zM67.4 10v-.4l.2-.2.2-.4v-.5l.3-.2v.3-.4H67.7l-.1.1v.4l-.4 1V10.2 10zm.8-1.5zM28 10l.1.2h.8l.2-.3v-.2l.3-.1v-.2l-.4-.2h-.4l-.3.2-.3.3.1.2v.1zm-4.2-3.6h-.2l-.1.2-.3.5.2.2.2.3.2.2h.3l.1-.2H24l-.4-1 .2-.2zm-6.3 15h.1v-.2l.3.2h.3l.2-.1.2-.2h.2L18 21h-.4l-.2.3v.1h.1zm-1.8.5h.3v-.3h1v-.1l-.1-.2h-1.1l-.2.1v.4h.1zm-.5 0v-.1H14.6h.2l.4.2zm-3.5.5l-1.3.2-.3.1 2-.2h-.4zm7.6-1.5h.2l.4.1h.1l-.2-.1H19.1v.1l.1.1V21zm2.5 1.1H22.1v-.1h.2l-.2-.2h-.4v.3zm-7.8.1l.4-.1v-.1H13l-.4.3.4.1 1-.2zm12.2-13l-.1.2v.4l.1.1h.2l.3-.1.2-.3V8.8l-.5.2h-.1v.1zm27 7.6l.2-.2.4-.4.1-.2-.7.4v.4zM52 18.1h.2v-.3l.1-.1.1.2V18.2l.2-.1.2-.8-.2-.2-.4.2-.3.3-.2.3.2.1.1.1zm-41.9 5.4h.2l.2-.3-.2-.1H10v.2l.1.2zm16.7-7.1h-.1l-.1.2v.2l.1.1h.1l.1-.2v-.1h-.1v-.2z" fill="none" fill-rule="evenodd"/></svg>