<svg width="104" height="115" xmlns="http://www.w3.org/2000/svg"><path fill="#878787" d="M36.5 3.3l.4.3.2-.2.2-.2.4.2.2-.5.1-.7v-.6l-.1-.2V1.1l-1.4 1.2-.3.4.1.3.2.3zM15.9 76.1l.4-.1h.3l.8.1.2.1.1.1.1-.2.1-.3.1-.3.1-.1.3-.2.1-.2.9-.4.2-.2.1-.1.1-.1.1-.1V74l-.8-.2-1.2-.8h-.8l-.4.1-1 .5-1.1.4-.2.2-.3.7-.6 1.1-.1.3-.2 2.6.2.5.2.1.4.1h.4l.3-.1.4-.2.7-.2.2-.2.1-.3.1-.4v-.4l-.2-.2v.1-.7h-.1l-.4-.2-.1-.1.1-.3.4-.3zm87.8-33.5l-.2-.1-.1-.2v-.7l-.8-2.7v-.2l.1-.3V38l-.1-.3v-.2l.1-.2.2-.1.2-.1.2-.2V36.3l.1-.7-.1-.3-.2-.3h-.1l-.2.1h-.1l-.1-.1-.1-.2-.1-.1-.7-.5-.1-.1-.1-.1h-.4l-.2-.1-.3-.3-.5-.7-.4-.9-.6-2-.1-.3-.3-.2-.4-.1-.2-.1-.4-.3-.2-.1h-.8l-.2-.2-.2-.3-.1-.4.1-.3.3-.1.3.1.3.1.3.1h.5l.2.1 1.3.7h.5l.5-.3h.2l.6.1h.3l.2-.1.2-.1.4-.3.2-.3-.3-.2-1.1-.4-1-.2-.3-.3-.4-.1-1-.6-.8-.8-.3-.1-.2-.1-.2-.3-.3-.2-.4-.4H96l-.8.2H94l-.3-.1-.5-.3-.7-.5-.2-.3-1.1-.7-.5-.4-.2-.3-.1-.3-.1-.2-1.2-1.5-.1-.2v-.3h-.4l-.5.1h-.3l-.1-.1-.1-.5-.1-.2-.2-.1h-1l-.4-.1-.4-.2-.3-.2-.5-.5-.2-.1-.2.1-.3.3-.1.1-.1.1-.4.5-.2.1h-.8V19.8l.2 1.2-.3.2-1.8.2-.5.3h-.3l-.3-.1-.4-.4-.3-.2-.3-.1-.9-.1-.6-.2-.2.1v.7h-.3l-.6-.3h-.2l-1.2.2h-.3l-.3-.1-.3-.2-.4-.4-.1-.1-.3-.1H71.8l-.5-.2-.7-.8-.6-.2-.3.1-.9.3h-.4l-.4-.1-.3-.1-.3-.1-1.9-.4-.6-.2-.5-.4-.2-.4-.1-.5-.2-.6-.1-1.9-.2-.9-.7-.2-.6.1-.7-.2-1.2-.8-.4-.7-.1-1.2-.5-.4H59l-1.4.5-.4.1h-.4l-.4-.1-.4-.2-.2-.2v-.4l-.1-.2-.2-.1h-.4l-1.2-.5h-1.3l-.8-.4-2.3-1.8-.4-.2-1.1-.3-.4-.2-.4-.3-1.7-1.9-.3-.3-1-.2h-.3l-.3.1h.1l-.4-.4-.1-.2v-.3H43l-.3.1h-.3l-.3-.2-.3-.3-.3-.4-.2-.3-.2-.3-.5-.4-.4-.5-1-.7v.2l.1.3v.3l-.1.2-.7.7-.2.2-.1.2.1.2.3.1h.4l.3.1.1.3-.8-.3h-.3l-.3.3-.1.2v.2l-.2.2-.2.1h-.1l-.1-.1-.1-.2-.2.3v.2l-.1.2-.1.8-.1.3-.2.3-.3.2v-.5l-.1-.4-.2-.4-.4-.3-.4-.2-.3.2-1.4 1.8-.3.2-.5.1-.5.2-.5.1-.4-.2h-1.1l-.4.2h-.2l-1.3-.1-.4.1-1.2 1.1-.7.5-.8-.2-.3.2-.2.3V9.1l-.1.2v.1l.1.1.2.2.3.8-.1-.1-.2-.5-.2-.2-.2-.1-.2-.2-.1-.3.4-1.1v-.2l-.1-.2-.5.4-1.1.3-.4.2-.1.1-.3.4-.1.1-.5.4-.1.1-.3.1-.4.3h-.5l-.4.2h-.3l-.2.1-.4.3-.3.1-.6.1h-.3l-.3-.1-.5.3-.4.6-.2.8v.8l.1.3.1.3.2.2.2.1h.3l.3.1.2.2.1.5.1.3.1.4v.4l-.2.3-.2.2-.1.2-.1.3.1.4.1.3.4.7.2.2.1.2v.4l-.2.3v.2h-.1l-.1-.3-.1-.1-.1-.1-.2-.1V19.4l-.2.5v1.4l.1.8v.4l-.3.9v.2l-.1.1.1.1v.1l-.2.5-.1.2-.1.1h-.1l-.1.1v.2l-.1.4-.3.4-1.1.9-1.1 1.3-.3.2-.4.2-.4.1-.3-.2-.4.6-.5.5-.1.2-.1.2V30.4l-.3.2-.3.3-.6.6-.4.3-.3.1-.3.1.1.4.6 1 .3.7.3.4.2.4v.2l.1.1.3.3.3.6.2.2.4.1h1.3l.3.1v.1l-1.5.1h-.5l-.3-.1-.2-.2-.2-.3v-.5h-.2l-.2.1-.2.2-.2.2v.1l-.1.4-.7.9-.4 1-.1.3V40l-.1.3-.7 1.1-.2.2-.2.1-.3.3h-.5l-.3-.2H6v.1l-.1.1H4.2l-.2.2h-.4l-.2-.1-.2-.1-.2.1v.2l-.1.5-.1.1-.1.1-.2.2-.1.2-.1.2-.1.1-.3.2-.1.1-.1.7.3.6.3.7 2 2.7.2.7v.3l-.2.5-.1.2V51.3l-.2.2-.2.1-.2.1-.1.1-.1.2v1l-.5.7-.1.2v.3l.1.2.3.3.4 1 .2.3.2.3.2.3.1.3.1.8.6 1.8v.8l-.4.2-.1.1v.2l.1.1.1.7-.1.9-.4.6-2 1.5-.4.2-.4.1-.1-.1-.2-.3H.8l-.5-.1H.2v-.1l-.1-.1H0v.2l.1.2.1.1.7.5.2.3.3.4.1.3.1.6.1.2h.5l.4.2.8.7.3.1h1.1l.5.1.5.2v-.1l.6.5L7.9 70l1.9 2.2.7.4.2.1h.4l.1.1.2.2.3.1.8.6.8.3.4.1.2-.2V73.3l-.1-.1-.5-.5h-.1l-.1-.4.1-.3.2-.1.3.1.1.1.1.1.1.1.2-.1.1-.2.1-.2.6-.3.6-.6 1.2-1.7.8-2 .2-.2.2-.1H18.6l.2-.1.2-.2.1-.1h.2l-.4.6-.1.1-.2.1h-.2l-.4.3-.1.2-.1.4-.3.8-.1.4.1.3.3-.1.4-.2h.4l.4.4.2.1.1-.4.1.2V70l-.2.1H19l-.2-.1-.1-.2-.1-.1-.5.1-.2.2-.1.3-.2.4-.5.4-.2.3.1.3.2.2h.6l.2.1.2.1h.3l.6-.4.3-.1.2-.1.5-.5.1-.2.2-.7.3-3.5v-.5L20 65l-.1-.5V64l.2-.7.2-.4v-.1l.1-.2h.6l.1-.1V62l.1-.1 1.1-.6-.1.4-.3.2-.2.1-.1.2-.1.4-.2.1-.3.1-.3.3.1.2v.2l-.1.2-.1.2V64.2l.1.1v.1h.1l.2.3v.5l-.1.4v.2l.1.8v1.3l.1.2.2.3.3 1 .2.3.1.1H22.5l.1.1.3.6.1.8v.4l-.2.3-.5.5-.1.5-.4 1-.1.4-.2.4v.1l-.4.7-.6 1.8v.3l-.2.7-.1.4.2.3-.2.4-.6 1-.3.6-.1.7-.1.4-.1.4-.3.3-.6.3-.1.2-.1.2-.1.2-.1.2-.2.1.1-.8-.1-.4-.4-.1-.2.2-.7 1.4-.1.1-.4.5h-.5l-1.3.3-.2.1-.7-.6-.2.2-.1.6-.2.2-.1-.4.1-.1.2-.5-.2.2-.1.3-.1.2-.2.1-.1.2v.2l.1.1.3.2.7.2.3.2v.3l-.1.4v.4l.1.1.3.1.1.1v.7l-.1.5v.1l.1.1.2.1.2.1v.4l.1.3v.4l-.1.2v.5l.1.3v.2l-.1.1-.1.1v.1l.1.4.4.6.2.4v.7l.2.2.2.1.1.1v.2l-.3.3-1.4.6-.3.3-.3.4-.3.4-.4.2-.3-.1-.8-.4-.4-.1H10l-.3.1-.3.2-.2.3-.2.4v1l.3.4.1.2v.2l-.1.3v.2l.4.8.6.1.8-.2.8-.1-.2.4-2.3 3.1-.1.3.2.4.2.2.8.5.3.1h.4l.2-.2.7-.4 1.4-1 .3-.3.1-.3.2-.6.2-.3.2-.1.2-.1.2-.1.7-.1.1.2.3.1.4.1.3.1.3.3.6.6.4.3.5.3.5.1h.5l.5.1.5.4.4.6.4.5.7.1 1.2-.4.6-.4.6-.1.5.2.9.9.1.1.3.2.1.1h.4l.4.2.1.2v.3l-.4.7v.4l.5.8.2 1.1.5.9.1.4.1.4.3.3.4.2.3.2.1.2.1.4.1.2.2.1.3.1.2.1.2.3.2.4.2.3.4.1h1.3l.3.1.6.2.3.1h.2l.3-.1h.2l.2.1.2.1.3.3.5-.4.5-.5.1-.4.2-.9.2-.3.4-.1h.5l.4-.1.2-.4-.1-.4-.4-.8v-.5l.2-.5.3-.5.8-.8.7-.4 1.6-.7.7-.5.2-.3v-1l.3-.4.3-.3v-.3l-.4-.3-.2-.3-.1-.7v-.7l.1-.4.3-.3.2-.3.2-.8 1.1-2.3.2-.8V97l.1-.3.2-.2.2-.1h.2l.2-.1.2-.1.1-.1V96l.2-1.3.1-.3.2-.3.1-.1.2-.1.1-.1.4-.4.1-.3-.2-1.2V91.6H46.8l.1-.1v-.2l-.1-.4V90l.1-.4.3-.7.3-.8.1-.8v-.2l-.1-.4v-.1l.2-.3.3-.1h.4l.8.2.2.2.1.3.3 1.2.2.3.2-.1.3-.2.3-.1.3-.1.2-.4V87l-.3-.5-.3-.2-.2-.3v-.4l.2-.2.7-.5.2-.3.5-1.1.3-.3.9-.7 1.8-2.4 1.3-1.1.3-.2 1.2-.4 2.3-.8 2.3-.8 2.3-.8 2.3-.8 2.3-.8 2.3-.8 2.3-.8 2-.8 1.7-.6 1.1-.6 1-.8 1.1-.8 1.1-.8 1.1-.8 1.1-.8 1.1-.8 1.1-.8 1.1-.8 1.1-.8.9-1 .9-1 .9-1 .9-1 .9-1 .9-1 .9-1 .9-1 .7-.8 1-.9.4-.5.2-.6.3-1 .5-2.1.5-2.1.5-2.1.5-2.1.2-.9.1-.2.5.5.3.3.1.2.2.1h.4l.8-.1h.9v-.1l-.2-.6zm302.4 232.3l.2.3.2-.1v-.3l-.2-.1-.2.2z"/></svg>