<svg width="105" height="115" xmlns="http://www.w3.org/2000/svg" viewBox="0 0 105.2 115"><path fill="#878787" d="M20.3 89.3l-.1-.5-.2-.4h-.2l-.1-.1-.1-.1-.5.7-.1.2.1.6.2.6.3.7.5.6.5.3-.2-1.8-.1-.8zM36.8 85l.7.4.6-.1.4-.6.1-.8-.2-.7-.4-.3-.6.1-.2.7V84.3l-.2.2.2.2v.2l-.2.1h-.2zm15.1 18l.2-.6-.6-.1-.7.2-.4.4-.1.3-.4.6-.1.5 1 .7h.3l.2-.4.2-.4.5.2.1-.4v-.3l-.1-.3-.1-.4zm45.9 10.3l-.2-.7-.4-.3-.8.2v.5l.4.6.2.6-.2-.1-.4-.1-.2-.1-.1.3v.1H96l-.3.1.1.3.2.2.5.1h.4l1.1-.3-.2-.6v-.8zM43.3 25.7l.6-.3h.9l.1-.1-.1-.3.2-.8h-1l-.4-.1-.3-.2H43l.1 1.3.2.5zm10-9.1l.3.1.7.1.5-.2.3-.3.2-.4-.3.2-.3.1-.3-.1-.3-.2-1 .6.1.1h.1zM70 55l-.2-.4-.5-.3-.3.2v.4l.3.5.4.3.3.3.2.3.2.5h.3l-.1-.5L70 55zm-9.9 5.2l-.5-1.2h-.2v.4l.4 1.1.1.4.2.2h.2l.2-.2.2.3.1-.2v-.1l.1-.3-.6-.2-.2-.2zm24.4 2.5l-.1-.2.2-.2.1-.1V62l-.7-.3-.6-.3-.2.5.1.5.3.5.3.3.2.7.2.2.3-.4V63l-.1-.3zM1.4 41.6H.9l-.9-.4v.3l.4.2v.4l-.2.5.1.6.4.4.5-.1.5-.4.5-.8V42h.3l-.5-.8-.6.4zm9.4-12.2l.1.2.3-.2.2-.2.2-.3.1-.3-.5-.3.3-.4 1.1-.9-.6-.2-.7-.1-.4.2.3.6-.9.5-.2.4.4.7.3.3zm90.9-10.6l-.7.2h1.2l.7-.1.4-.4.2-.6v-.8l-.2.4-.4.2-.4.1h-.3l-.1.1v.5l-.1.1-.3.3zM82.1 7.2l.6-.1.4-.2-.5-.2-.5-.1h-1.2v.2l.6.2.6.2zm22.6 7.1v.3l.1.2h.2l.2-.1v-1.9l-.4 1-.1.5zM63.4 55.8l-.3-.4-.6-.2-.5.1-.5.3-.5.1-.8.6-.3 1.3.2 1.3.7.7-.2.6h.4l1.8-.5.5-.4.3-.6.1-.9v-.6l-.2-.7-.1-.7zm18.1 13.9l-.3-.4-.9-1.6-.6-.3-.5-.1-.2-.1h-.2l-.8.6h-.3l-.4-.2.1.4.3.6.1.2v1.1L78 71l.2.3.3-.1.1-.3-.1-.8.1-.4.2.6.2.4.7.9.2.5.3 1 .4.5 1.1.6.5-1.5-.1-2-.6-1zm3.8-28.4L85 41h-.3l-.3.1-1.5.2-.3.4v.5l-.1.5.3.5.2.6.1.6v2.2l.3.2 1-.8.6-.7.4-.7.2-.9.1-1-.1-1.3v-.1zM6.7 35.5l.3-.3.2-.5v-.5l-.2-.5-.3 1-.3.3h-.2l-.2-.2-.4-.7v-.2l-.3.1-.8.6-.3.4-.1.4-.1.4-.1.3-.3.2-.3.2v.5l.1.5.2.4H3v.3l1 .2v-.5l.1-.3.3-.3.3-.2.1.2.2.1.1.1.2.1V37l1.1-.7.3-.8zm6-9.6l.3-.2.2-.2.1.1.4.2.3-.7.5-.5 2.3-1.8.1-.2.1-.3.6-.4.3-.4.2-.7-.1-.7-.4-.3h-.7l.4.9-.5.8-1.7 1.4-1.4 1.4-.7.3-.4-.4h-.3v.4l-.2.9v.2l.3.2h.3zm91.4 64.3l-.6-.2-2.4.4-1 .5-.4.3-.3.5.9.5.3.3.2.1H101.1l.1.5v.2l.1.1.1.1.6.3.5-.4.2-.6-.1-.6-.2.2h-.2l-.2-.1-.2-.3.4-.1 1.3-.6.5-.3.1-.2V90.2zm-53.7 16.1l-.4-.2-1.3-.2h-.3l-.3-.6h-1.2l-.3-.5-.4.2h-.3l-.3-.1-.4-.1-.3.1-.2.2-.1.2-.2.1h-.6l-.2.2-.3 1.1-1-.4-1.5.1-1.3.5-.5.8V109l-.3.3-.5-.4-.4.3-.1.4v.4l-.2.3h-.3l-2-.5h-.4l-.4.2-.3.4-.1.8-.4.3-.7-.3-.7.2-1.1 1.1.4.3.4.2.4.1.3-.2h.2l.2.5h.4l.8-.5.5.1.9.4.6.1.5-.1.3-.2.2-.3.3-.4h.5l.2-.1.5-.4-.1 1v.3l.3.2h.3l.3-.2.2-.3h.3l.1-1-.2-.3-.5-.1-.3-.2-.1-.4.1-.4.3-.3.2.6v-1l.2-.4.4-.1h.6l.6-.2 1.5-1.3.9-.4 1 .3-.2.1-.2.2-.2.2.2.2h.4l.3-.2-.1.3-.1.5-.1.2.6-.2H47.1l.4.1.3-.2.1-.2v-.3l-.2-.3.7.1.4.1.3.2.5-.4.8-.4.1-.6-.2-.7.1-.2zm53.9-80.2l-.2.5-1.3 1.9-.9.7-.4.5-.2.5.2.5.7.6.2.6.4.1h.5l.5-.1.5-.2.5-.3.2-.4.3-.4v-6.7l-.8 1.6-.2.6zm-46 43.5l-.2.2-.2.2-.2.1h-.4l-.1-.1v-.2l-.1-.2-.4-.5-.2-.3-.3-.2-.7-.1-.5-.4-.7-1.2-.1-1.1 1.1-.3-.2-.6-.1-.2.4.2.1.1.2-.5v-.4l-.2-.3-.4-.2.4-.3V63h-.2l-.4.2-.4-.3v-.4l.1-.4v-.4l-.2-.2-.6-.5-.3-.2-.1-.3v-.3l.1-.3.1-.4.2-.7.5-.6.4-.7v-.9l-.4-.7-.7-.5-.8-.4-.8-.1-.3-.3-1-1.4-.6-.4-.5-.1H49l-1.5-1-.1-.1-.1-.1-.6-.6-.2-.1v-.3l.1-.4-.1-.3-.5-.8-.6-.5-.8-.3-.9-.1-.6.3-1 1.2-.5.1.3-.2.2-.3-.1-.3-.4-.2.3-.4.9-.9.2-.4v-.5l-.4-.7-.1-.5-.4-.6-.6-.7-1-.5-.8-.3-.3 1.1-1.1.7-1.4.2-1.2-.2-.6.3h-.9l-.4.3-.4.4-.4.3-1 .6-.8.2-1.1.1-1.1-.1-.8-.5-.4.4-.4.5-.5.3-.6-.2.2-.3.2-.3.1-.4v-.9l-.1-.1-.2.1-.4.3-.1.1-.2.2-.7.2-.3.1-.2.2-.3.1-.2.2-.1.4-.1.5-.2.2-1.4-.5-.2.1-1.2.7-.3.2-.1.5v.4l.1.4.2.5-.2.2-.2-.4-.3-.7-.1-.6.2-.3h.1l-.1-.1-.2-.1h-.2l-.3.1-.1.2v.2l-.1.1-.1.2-1.6.7-1.5 1.3h-.2l-.3-.4-.3.1-.3.5-.3.5.2.4-.2.4-.4.2-.4-.5-.4.3v.4l.1.4-.2.4-.3.2-.8.2-.2.2-.3.7-.7.3-.5.4.2.8.3.3.3.2.3.2.1.3v.4l.2.7v.4l.1.3.1.2v.3l-.4.3h-.3l-1.3-.4-.2-.1V62l.1.4.1.3-.1.3-.3.4-.3.1-1 .5-1.6.1-.6.3-.3.7.1.4.2.3.2.3v.5l-.1.4-.5.7-.1.3.1.4.2.3.2.3-.1.3v.2l.7.4.1.1v.5l.2.3.1.2.1.2.1.4v.7l.2.4.3-.2.8 1.2 1.1.5 2.6.6.2.2.2.2.2.2.4.2h.4l1.8-.1.4.1 1.1.5.8-.1 1.9.9 1 .3.9.1 4.6 1.3.2.2.1.3.7.6.2.1.2-.1.2-.2.3-.2.3-.1.1.2.3.6.4-.1.6-.3.5.1.4.2.5-.1.4-.3.2-.2.3.2.2.1h.5l1.2.2 2.7-1 .8.8.2-.3h.3l.7-.2.6-.6 1.1-1.2.3-.2.8-.3.3-.2.2-.2.2-.6.2-.2.2-.2.2-.2.3-.1h.5l.2-.1.3-.3.2-.3.3-.1h.2l.4-.2.3-.1.2.1.2.2.1.2v.1l.4-.1.3-.1.2-.2.2-.3-.1-.1-.1-.2h.5l.3.1.3.2.6.6.1.1v.8h.4l.8-.2.6-.5-.1-.8.5-.2 1-.6h.3l.3.2h.4l.2.4v.2l-.4.6.4-.1 1-.4v.8l.7-.8 1.8-.9.3-.2.4-.4.4-.5.2-.5V70.6l.1-.2.3-.5.1-.3H58.3zM104.6 0L102 1.1l-.3.3-1.3 1-.4.7-.1-.1h-.4l-.4-.2.3-.2.2-.2-.1-.2-.4-.1-.5.1-.8.7-.4.2-.4-.5-.1-.9-.2-.6-1.1.6-.9.4-.2.2-.1.3-.3.1-.7-.1h-.1l-.1-.1-.2.1h-.2V3l-.1.3-.2.1H92l-.1.2v.6l-.2-.4-.2-.2h-.3l-.3.3-.3-.2-.4-.2-.3-.2-.2-.5-.2.5-.3 1.3-.2-.5-.2-.4-.3-.2H88l.5.7-.5.2-1.3-.1-.6.3-.2.5-.1.6-.2.6-.5-.3-.4.3-.4.7-.2.6-.3-.2h-.4l-.4.2-.4.4.4.2.3.4.2.5.1.6-.3-.1H82.7l-.3-.1-.2-.5H82l-.5.2-.3.4-.2.1-.5-.5-.6.5-1-.1-1.1-.3h-.7l-.2.1-.6.1-.3.2-.1.2-.3.5-.1.1H74l-1.1.2-1.9.7-1.7.2-1 .3-.6.1-.2-.2-.3-.3h-.3l-.2.7-.2-.1-.4-.1-.1.1.1.5.3.6.1.5-.4.2-.4.3-.4.6-.4.4-.4-.5h-.2v.4l-.1.3-.2.2-.3.2v-.3l-.2-.3-.1-.2-1.1 1.5-.2.4.1.9.1.2-.5.2-.1-1.1-.3-.4-.6.3-2 1.7-.2.3-.1.2-.2.2-.5.1-.4-.1-1.1-.7-1.1-.2-.4-.1-.3-.2-.4-.6-.3-.2h-.4l-1.2.6.3.7.4.4h.5l.8-.4-.2.7-.5.9-.2.6-.3-.3-.2.2-.2.4-.3.3v-.8l-1.2 1-.3.6.1.7h-.2l-.3-.2-.2.2.1.4.4.3-.1.1-.2.1.9.8 1.1-.2 2.2-1.1.1.5.3.2.8.3-.3 1.1.5.9.7.7.4.7.1 1 .3 1.2.4 1.1.5.5.6.2.5.1 1.1-.1.1-.2 1.3-.9-.5-.4.1-.2.3-.2.3-.3.3-1.5.2-.3L64 27l.4-.3.3-.1.4.1.6.3v-.8h.3v.4l.1.3.2.2.7.2.1.2v.3l.2.3.5.3 1.4.4.5.2h.3l.4-.4 1-.7.3-.5-.7-.1-.4.1-.8.6.9-2.7.8-.9 1.1.3.5-.3.5-.4.2-.5-.2-.7 1.1-.9.7-.4 2.7-1.1h.4l.3-.1.6.3.9.7 1.1.3.4.3-.1.5.2.5-.5.2-.7.2-.3.4-.2.5-.4.3v.1l2.9-.2h1l1.3.4.6-.3.6-.2h1.2l1.5-.3h.7l.6.6.5-.7L92 23l.4-.8h.3v.1l.2.3.1-.4.2-.2.3-.1h.5l.4-.1.6-.5.3-.2.5.1.7.2.8.1.8-.3.3.5.5.2h1.3l-.2.5.2.5.4.2.5-.4.2.1.5.2-.1-.2-.3-.6-.1-.2 1.1.4.5.1.4-.3-.1-.6-.5-.4-.7-.2h-.5l-.1-.9-.3-.7-.6-.4-.9-.1.8-1h.2l.5.1h.1v-.2l-.1-.5v-.2l1.2-2.3.4-1.1.2-.3.3-.3.2-.4-.4-.9v-.3l-.1-.2h-.6l-.3.1-.2.2-.1.2-.2.2-1.9.9-.3.2-.3.6-.7.6-1.2.8-.5.2-.2.7-.1.3-.1.3-.3.2-.4.1-.3.2-.2.3-.4.9-.3.4-.1.1-.4.1-.2.1-.1.2-.1.5-.1.2H93l-.4.1-.3.2-.2.5-.2.3-.4.3-.5.2-.4.1-.5.2-.8 1-.5.4-.4-.5-.6-.1-.7.2-.6.4-.3-.3.4-.5.1-.7V21l-.4-.4.2-.2.6-.2.2-.1.4-.7.2-.2.4-.3.9-.6.4-.3.3-.5.1-.6v-1.1l.2-.5.2-.3.2-.2 3.5-2.4.8-.3.8-.4.9-1 .6-1.1v-.9l.8-.4 1.5-2.1.5-.9.3-.2V5l.2-.3.5-.5.2-.3.3-.6.3-.3.3-.1h.6l.3-.1 2.2-2V0h-.6z"/></svg>