<svg width="73" height="116"><g fill="none" fill-rule="evenodd"><path d="M28.9 78.4l.1.1V78.9h.1l.3.3h.1l.2-.3h.1v.2l-.1.1V79.4h.4l.5-.2V79l.3-.2v-.1l.1-.1.2-.2.1-.1.2-.1h.2l.1-.2.3-.4.1-.2h-.4v-.1h-.1l-.1.1H31.2l-.1.1H31V77.1l-.2-.2v-.2h-.2v-.4l-.1-.1-.3-.2H30l-.5-.1-1 .3V78l.3.5zm12.9 16.4l.1-.2v-.2h-.1l-.2-.2h-.2l-.1-.1-.1-.2H41l-.7-.7h-.2l-.2.2h-.2l-.2-.1V93l-.3-.2-.1-.2-.2-.4V91.8h-.1l-.1-.2-.1-.1v-.4h.1l-.1-.2v-.1l.2-.1v-.1l-.1-.2.2-.5.1-.2.2-.1v-.2h.4l.1-.1-.2-.1v-.4l.2-.2v-.2H39l-.2-.3-.3-.2-.1-.1-.3-.2V87l.4-.2.2-.1h.6l.1-.2.2-.2v-.2l-.1-.3h-.1l-.2.2H39v.2h-.1v.1h-.2v-.6l.2-.2v-.1h.1V85h.2V85l.1-.2V84.5l.1-.1v-.1H39.8V84l-.1-.1v-.1h-.1l-.2-.1h-.2v-.1l-.1-.1h-.3l-.1-.1v-.1l-.2-.3v-.1l.1-.1.1-.1v-.4h.1v-.1h.1V82h.1v-.1h.2v-.1l.4-.3H39.9l.1.2h.6l.4.4h.2l.1-.1h.2V81.3l-.3-.2H41V81h-.1v-.2l-.2-.2v-.1h-.1v-.4l-.3-.4-.4-.5v-.1l.3-.2V78.6l-.3-.3-.4-.3-.4-.1v.2h-.1l-.1-.2-.1-.1-1-.6V77l-.2-.1-.3-.1H37l-1.3.6h-.3l-.8.1h-.1l-.1-.2-.2-.2H33.8l-.2-.1h-.2l.2.3.1.2h-.2l-.8.3-.2.2h-.2l-.2.1h-.4l-.2.1-.2.1-.2.2-.1.3-.1.1-.1.1h-.1l-.3.4v.2h-.1l-.1-.1v.7l-.1.2v.1l-.5.3-.2.3-.5.4h-.2l-.1.1h-.2l-1 1.2-.1.2v.1l-.1.2h.2l.1-.1h.7V83h.2l.2.1h.1l.1.2h.2l.1-.2V83l.1-.1v-.1l.2-.3.1-.1.2-.1h.6l.1-.2.5-.1H31.5l.2-.1v.1h.2v-.1h.1l-.3.4-.1.1v.4l.1.2-.2.1v.2l.2.3.5.7h.1l.1-.2h.2v.1l-.4.3-.1.2-.2.1-.1.2-.1.3v.5l.3.4.2.1h.1l.4-.1h.2l-.4.3H32V87l-.1.2v.3l-.1.5-.1.2-.2.4-.5.6-.8.7H30v.1h-.2l-.2.3-.1.2h-.1l-.3.1v.2h-1l-.3.2v.3l-.2-.2h-.1l-.1.2-.2.2-.1.2H27l-.3.1v.4h-.2l-.3-.1h-.1v.1l-.2.1-.5-.2H25V92.8l-.3.2h-.3l-.2.1-.3.3h-.4V94h-.1.5v-.1h.2l.3.1.1.1h.2v1h-.2l-.2.1v.1l-.2.1-.2.1h-.1.1l.4.3v.2h.1v-.3h.1l1 .1h.1l.6-.1V95H26v-.1h.5l.2-.1v-.1l-.2.2-.1.2v.3l.2.2h-.1l-.2.1H26l-.3.2h-.4v.1h-.6l.1.2h.4v.4l.2.1.4.2h.2l.2-.2.1-.1v-.1h.2l.1-.1h.6l.1-.1h.2l.2-.3v-.4l.3-.2h1.3l.2-.2-.1-.2h.4l.1-.2h.1v.5h.1l.1.1h.2l-.1.1h-.4v.2l.2.2.2.1H31.1l.4.2h.4l.1-.2v.2l-.1.3h-.7l-.2.1h-.1v-.2l-.1.2-.3.1V97.4h.1l.4.2h.1v-.1H31.5l.1-.1h.1v-.1H32l.1.1.1-.1h.2v.1h.4v-.2h-.1v-.4h.2l.7-.2h.1l.1.1.1.2v.1l.2.1.1.2.1.2v.2l.1.2v.2l.2.2h.4l.4.3.3.5h.1l1.8.2.5-.2H38.4v-.6h.2v-.2l.3-.2V98h.2l.4-.3v-.1l.2-.2h.1l.1.1h.7l.3-.1.4-.3h.3l.2-.2.1-.2V94.8zm-14-17.1H28.1l.2.3.2.1h.1v-.2l-.1-.1v-.2l-.1-.1v-.1l-.2-.1H28l-.1-.1-.2.2.1.2zm-.2 18.7v.1h.1-.1zm-4.1-1.1h-.1v.1h.2l-.1-.1zm-.3-1.5H23v.2h.1v-.2zm3.8-10v-.1.2z" fill="#7F807C"/><path d="M28.9 78.4l.1.1h0v.2h0v.1h.1l.3.3h.1l.2-.3h.1v.2l-.1.1h0V79.4h.4l.5-.2V79l.3-.2h0v-.1h0l.1-.1h0l.2-.2.1-.1.2-.1h.2l.1-.2.3-.4.1-.2h0-.4 0v-.1h-.1 0l-.1.1h0H31.2l-.1.1h0-.1V77.1l-.2-.2h0v-.2h0-.2v-.1h0V76.3l-.1-.1h0l-.3-.2H30l-.5-.1h0l-1 .3h0V77.8h0v.2l.3.5zm12.9 16.4l.1-.2v-.2h0-.1l-.2-.2h0-.2 0l-.1-.1h0l-.1-.2h0-.1l-.7-.7h0-.2l-.2.2h0-.2 0l-.2-.1h0V93h0V93l-.3-.2-.1-.2-.2-.4h0V91.8h0-.1l-.1-.2h0l-.1-.1h0v-.3h0v-.1h.1l-.1-.2h0v-.1h0l.2-.1h0v-.1h0l-.1-.2h0l.2-.5h0l.1-.2h0l.2-.1h0v-.2h.4l.1-.1h0l-.2-.1h0V89h0v-.1h0l.2-.2h0v-.2H39h0l-.2-.3-.3-.2-.1-.1-.3-.2h0v-.1h0v-.1h0v-.1h0V87h0l.4-.2.2-.1h.6l.1-.2.2-.2h0v-.1h0v-.1h0l-.1-.3h0-.1 0l-.2.2H39v.1h0v.1h0-.1 0v.1h-.2 0v-.1h0v-.1h0V86h0v-.1h0v-.1h0l.2-.2h0v-.1h.1V85.1h0V85h.2V85h0l.1-.2v-.2h0v-.1l.1-.1h0v-.1H39.7V84h0V84h0l-.1-.1v-.1h0-.1l-.2-.1h-.2 0v-.1l-.1-.1h0-.3l-.1-.1v-.1l-.2-.3h0v-.1l.1-.1h0l.1-.1h0v-.1h0v-.1h0v-.2h.1v-.1h.1V82h.1v-.1h.2v-.1l.4-.3H39.8l.1.2h.6l.4.4h.2l.1-.1h.2v-.1h0v-.3h0v-.2h0l-.3-.2H41V81h-.1v-.2l-.2-.2h0v-.1h-.1v-.4l-.3-.4h0l-.4-.5h0v-.1h0l.3-.2h0v-.2h0v-.1l-.3-.3-.4-.3h0L39 78h0v.2h-.1 0l-.1-.2-.1-.1-1-.6h0V77l-.2-.1-.3-.1H37l-1.3.6h-.3l-.8.1h-.1l-.1-.2-.2-.2H33.8l-.2-.1h-.2 0l.2.3.1.2h-.2l-.8.3-.2.2h-.2l-.2.1h0-.4l-.2.1-.2.1-.2.2-.1.3-.1.1-.1.1h-.1l-.3.4h0v.2h-.1 0l-.1-.1h0v.7l-.1.2v.1l-.5.3-.2.3-.5.4h-.2l-.1.1h-.2l-1 1.2-.1.2h0v.1h0l-.1.2h.2l.1-.1h.7v-.1h0V83h.2l.2.1h.1l.1.2h.2l.1-.2V83h0l.1-.1v-.1h0l.2-.3.1-.1.2-.1h.6l.1-.2.5-.1H31.5l.2-.1v.1h.2v-.1h.1l-.3.4h0l-.1.1v.2h0v.2l.1.2h0l-.2.1v.2l.2.3.5.7h.1l.1-.2h.2v.1l-.4.3h0l-.1.2h0l-.2.1-.1.2-.1.3v.5l.3.4.2.1h.1l.4-.1h.2l-.4.3h0H32.1h0-.1V87l-.1.2v.3l-.1.5-.1.2-.2.4-.5.6-.8.7H30v.1h-.2l-.2.3-.1.2h-.1l-.3.1h0v.2h0-1l-.3.2v.3l-.2-.2h-.1l-.1.2-.2.2-.1.2H27l-.3.1h0V92.1h0v.1h-.2l-.3-.1h-.1v.1l-.2.1h0l-.5-.2h0-.4v.2h0v.4l-.3.2h-.3l-.2.1h0l-.3.3h-.4V93.6h0v.1h0v.2h0-.1.5v-.1h.2l.3.1.1.1h.2v1h-.2l-.2.1v.1l-.2.1h0l-.2.1h-.1.1l.4.3h0v.2h.1v-.3h.1l1 .1h.1l.6-.1V95.3h0V95h0-.2v-.1h.5l.2-.1v-.1h0l-.2.2-.1.2v.3l.2.2h0-.1l-.2.1H26l-.3.2h0-.4 0v.1h-.6 0l.1.2h.4v.4l.2.1.4.2h.2l.2-.2h0l.1-.1v-.1h.2l.1-.1h.6l.1-.1h.2l.2-.3h0v-.1h0v-.3l.3-.2h1.3l.2-.2h0l-.1-.2h.4l.1-.2h.1v.2h0v.1h0v.2h.1l.1.1h.2l-.1.1h-.4v.2l.2.2.2.1H31.1l.4.2h.4l.1-.2h0v.2l-.1.3h-.7l-.2.1h0-.1v-.1h0v-.1h0l-.1.2h0l-.3.1V97.3h0v.1h.1l.4.2h.1v-.1H31.5l.1-.1h.1v-.1H32l.1.1h0l.1-.1h.2v.1h.4v-.2h-.1V96.8h0v-.1h.2l.7-.2h.1l.1.1.1.2v.1l.2.1h0l.1.2.1.2v.2l.1.2h0v.2l.2.2h.4l.4.3.3.5h.1l1.8.2.5-.2H38.3v-.6h.2v-.2h0l.3-.2V98h.2l.4-.3v-.1l.2-.2h.1l.1.1h.7l.3-.1.4-.3h.3l.2-.2.1-.2v-.4h0v-.1h0V96h0V96h0v-.4h0v-.1h0v-.2h0V95h0V94.7zm-14-17.1H28.1l.2.3.2.1h.1v-.2h0l-.1-.1v-.2l-.1-.1v-.1l-.2-.1h0-.2 0l-.1-.1-.2.2h0l.1.2h0zm-.2 18.7h0v.1h.1-.1zm-4.1-1.1h-.1 0v.1h.2l-.1-.1zm-.3-1.5h0-.1 0v.2h.1v-.2h0zm3.8-10h0v-.1h0v.2h0z" stroke="#FBFBFA" stroke-width=".3" stroke-linecap="round" stroke-linejoin="round"/><path d="M14.9 31.4h-.2l-.3.1v.1H15v-.1h-.2zM15 37v-.1l.2-.3v-.2h-.2l-.3.2h-.2l-.2.2v.1l-.4.5-.2.2h-.1V37.9l.1.1v-.2h.4l.4-.3.3-.4h.1l.1-.1zm2 2.2h.3v-.2l-.2-.2-.1-.1h-.2l-.1.1v.2l.1.1h.2zm-.3-7.2l-.2-.1-.3-.3H16l-.2.2-.4.5.1.1.2.2h.1l.1.2.1.3h.4l.2-.1.2-.3v-.4h-.1V32l.1-.2zm.8 11.6v-.1H17.2v.2h-.1l-.1.1-.2.2V44.2l-.1.2h-.1l.1.1h.4l.1-.1v-.2l.1-.3.2-.4zM14 27.7l.6.2h.1v-.7h.1l.1-.3.1.1v.4l.2-.2h.1v.2h.1v.2h.1v.2H15.7l.2.1.4.4v.2h-.1l-.1-.2-.2-.2h-.1l-.2-.1-.4.3v.1l.1.1v.2l.4.5h.4v.1H16l-.1.1.1.3.1.2.1-.1h.2v-.1h.2l-.2.4v.1l1-.2V29.7h.1v.2h.1v-.1h.1v.3l.1.2v.3h.2l.1-.1v-.2h.1V30l.1-.1v-.7l.1.2.2.3v.2h.8l.2-.1-.6.4h-.1v.2l-.2.2v.1l-.1.1V31.3l-.2.3v.4h.5l.1-.1.1-.2.4-.5V31l.2-.1h.1l.1-.2.1-.2v-.3h.4V30l.3-.2.2-.2v-.4l.1-.4h-.5l-.1-.2H20l-.2.3h-.3v.1H19.1V29l-.1-.1H18.8l-.1-.1-.2-.2h-.1l-.2.1H18l.2-.2v-.2h-.7l.3-.2v-.2l-.2-.2v-.4l.1-.1V27H17.4v.1l-.2.1.1-.1.2-.2v-.3l.1-.3V25.6l-.1-1-.1-.2-.2-.1-.3-.3-.2-.4-.2-.2-.1-.2h-.2v.1l-.1.2v.2H16l-.3.2V24.5l.1.1h.2v.3l-.1.1v.4l.3.3v.4h.1v.2l-.4-.7h-.1l-.1.2-.2.2.1-.4h-.4v-.2H15l-.4-.2V25l-.1-.1v-.2l-.2-.1v-.2H14v.5l-.1.2h.2l.2.2.1.2.1.2-.2-.1h-.1l-.2.1v.1l.1.1.2.2v.1h-.1V26.6l-.2-.2-.1-.2-.4-.5h-.1l-.1.1v.4l.1.2h-.4v.3l.3.2.1.4v.1l.2.2.2.1zM18 37l-.3-.1v-.1h-.3l-.3.1-.2.2v.2h-.5l-.2.1v.2l.2.1v.1l-.3.3.2.2h.1l.7.2h.1l.1.1v.1l.2.3h.4l.4-.3h.1v.4l-.1.1-.4.2h-.3l-.1.2-.1.3h-.1v.1h-.2V40.2l.1.2h.5l.4-.3h.2l-.1.2-.3.2-.5.1-.1.1h-.5V41h-.2v-.3l-.2-.1H16.2l-.1.1-.1.2v.2l.1.2.2.2h.2l.1.1h.2v-.2H17.7l.2-.2h.2v.1h.2V41l.6-.3h.3l.1-.2v-.1H19.6V40.8h-.1l.2.2h.3l.6-.5.1-.1v-.2h-.4l-.1.1.2-.3V39.7h.2v.2h.4v-.2l-.1-.1v-.1h.1l.1-.2h-.2V39l-.1-.1-.1-.2h-.4l-.2-.3H19.6v-.1H18.8l-.1-.1V38l-.3-.7-.2-.3h-.2v-.2zM13.2 38l-.4.2h-.1l-.3.2h-.1l-.5.1-.2.1.1.2v.2l.1.2.4.2h.2v-.5h.4l.1-.2v-.2h.5V38h-.2zm8.2 3v-.2h-.2v.1l-.2.3v.2h.4V41zM21 42l.1.4.2-.3V41.6v.1H21v.3l-.1.1zm-.4.5l-.1.1v.2h.3l.1-.2V42.4l-.3.2zm-2.2 6V48.3l-.1-.1v-.4l-.2-.2h-.1V47l-.2-.7v-.6h-.1l-.2.1-.2.1-.2.3-.3.1-.2.3-.2.2v.3l-.1-.3v-.4h.1v-.1h-.1l-.1.1-.4.2-.3.2V47.4h-.1l-.1.1.2.2-.3.5v.7H15.4l.2-.4.3-.1v-.2l.2-.5h.2l.2-.1H16.8l-.3.4-.2.2v.3l.3.1.1.1.2.4-.4.3-.2.1v.6h.4l.2-.2h.1v-.4H17.7l.2-.1.2-.2.1-.2v.1l.1-.1h.1v-.4zm6.4 3.3l.2-.1V51l.1-.1-.2-.1h-.1v-.2h.1l.1-.1v-.3l-.3-.3v-.8l-.2-.3-.1-.2-.1-.1-.5-.2h-.2v.1h-.2l-.2.3-.2.2-.1.3v.7l.2.2.1.3v.8l.3.3.3.2h.3l.4.1h.3zm-4.3-8h.1l.1-.3h.1V43h-.4l-.3.4-.6.5-.2.1-.1.1-.2.3-.2.3-.1.3v.2h.7l-.2.1-.5.1-.2.2-.1.1H18v.2l-.1.2v.8l.1.3.3.2h.2l.2-.2v-.1l.1-.5v-.1h.2l.2-.3.2-.5.6-1.1.3-.7zm1.4-3.9l.1-.1.1-.3v.1h-.4v.2h-.1v.2h.1l.2-.1zm3.7 7.8l-.1-.5v-.1l-.1-.2-.1-.2H25v-.1l-.1-.3h-.2l-.2-.3-.2-.2-.3.1v.2l.1.2v.2l.1.1.3.2v.5l.1.2.5.4v.3h.2v-.5zm4.7-20.3l-.4.4-.2.3-.7 1-.2.2-.4.6-.5.5v-.2l.1-.1 1.2-1.4.2-.4V28h.2l.2-.2.4-.7V27.6zm-3.5 4.7l-.1.1-.1.1-.1.2-.1.1-.2.1v.2h-.2v.2h-.1V33l.2-.2.2-.4.3-.3h.2zM48 26v-.2h.2l-.2-.3h-.1V25l-.1-.3v-.2l-.1-.2-.6-.7v-.2h-.4l-.1-.1v-.2h-.9l-.5.3H45l-.3-.2h-.2l-.1.1v.1H44l-.2.1H43.4l-.4-.1h-.2v.1l-.2-.1h-.2l-.6-.2h-.6l-.1-.1H40l-.4.4H39l-1-.3-.5-.3h-1.1l-.1.1H36V23.4l-.1.1-.1.2h-.7l.2.3H35v-.1l.1-.2-.4.1-1 .8-.3.1H32l.3.3v.1H32l-.2.2-.2.3h-.2v.1l-.2.2h-.5v-.1l.1-.2.2-.3h-.4v-.1h.5v-.1l.1-.2h.5v-.2h-.1l.2-.5.2-.1.3-.3.1-.2v-.2h-.1l-.3.2-.1.1H31.3v-.1h-.1l-.4.1-.3.3-.3.2v.1l-.1.1-.1.2h-.1l-.2.2h-.1V24.5h.1l.5-.5.2-.2V23.5H30.8l.5-.1h.2l.6-.6h.2l.2.1v.4h.2l.1-.1.2-.3.1-.1 1-1.3V21h-.2l-.2.4-.2.2-.3.1H33v-.4h-.3l-.4.3H32l-.4-.4v.2H31.3l-.1-.2-.1-.1h-.2l-.3.1h-.2l-.2-.2-.4-.6h.1l.2.2.2.3.1.1.6-.1h.2l.4.2h.2l.2-.2h.4v-.2l.2-.3-.1-.2v-.1H32L32 20v-.2h-.1v-.1l.2.1H32.4v.2h.1v-.2l.2-.1.4-.3h.2l.2-.2.1-.1v-.3l.1-.1.2-.2.5-.2 1.5-1.3.3-.3.1-.3v-.2l.2-.1.3-.4.3-.1.6-.3.3-.1.2-.3.4-.6.3-.6v-.4h.1l.1-.1V13H38.8l-.1-.1V12.2l.2-.2v-.1l.2-.3.1-.3.1-.3v-.2l-.2-.1H38.5l-.4-.2h-.3l-.5.2h-.2v-.4H36.7l-.2.3.1.2.1.1.1.1h.2l-.1.3h-.2l-.4-.1-.4.1h-.2l-.2-.1.1-.1-.1-.1h-.7l-.3.2-.4.4-.3.1-.6.1h-.8v-.1l-.2-.3h-.1l-.1.3v.1H31.4l-.1.2H31l-.1.1v.1h-.1v.2l-.3-.3h-.4l-.2.3-.3.3h-.1v.2l-.2.3-.1.1H29v-.2l.2-.3v-.3l.2-.1V12l-.3-.3-.3-.1h-.5v.4l-.1.3H28l-.1.2h-.1v.3h-.1l-.5.5v-.2l.1-.3.1-.3.3-.2v-.2l.1-.2v-.1h-.1l-.2-.2h-.2l-.2-.3-.1-.1v.7l-.1.1v.1l-.2.2v-.2l.1-.2v-.5l-.2-.2-.2-.1-.9-.2v.1l-.1.2v.3l-.1.3v.2l-.2.1-.3.2-.1.2v.3l.8.6-.2-.1-.2-.1-.4.2v.1h.1v.2h.2v.1l.1.1.2.2h-.3l-.4-.3h-.1v.1l-.1.2-.1.2V15l.2.2v.1l.3.4h.1l.2.2h.1l.1-.1h.7-.1l-.2.1-.1.1.2.1v.1l.1.2-.5-.4H25l-.2-.2H24.5l-.1.1v.1l-.2-.1H23.9l-.3.2h-.2l-.3-.2H22.8v.2l.3.5h.2V17l.1.1v.2h.4v.2h-.2l-.1.1.1.1V18.2l-.2.2H23l-.2-.3h-.2l-.2.1.2.4V19h.4v.2l.2.1.3.4h.2l.1.1h.2l.1.1v.4H24v.1h.2l.7.7V21.4l.1.1v.1H25l-.2-.5-.3-.1-.2-.2-.1-.1H24l-.2-.1h-.5l-.2-.4H23v.1h-.2v.2l.5.2.3.4h.2v.1l.2.2-.5-.2-.2-.1-.2-.3H23l-.4-.2-.1.2-.1.3v.2H22L22 21l-.2-.2v-.4h-.3l-.1-.2-.1.1-.2.3v.5l.4.2v.8h-.2v.2h.1-.2l-.1-.1V22l-.1-.2v-.7h-.2l-.2-.1H20v.1l-.1.1-.1.2v1.3l.6.1.2.1v.1l.1.1v.2h-.1l-.3-.2h-.1l-.3.2v.4l-.1.1v.2h.2l.1.1.1.2.1.3.2.2h.2v.1h-.1l.2.4.2-.2h.6l.3.2h-.5l-.5.1V25.8l-.2-.2-.2-.2h-.2l-.4-.4v-.1H19.6v.2l-.1.2v.4l-.1.2v.7h.3V27.3l.1.5.2.1h.3l.2-.1.5-.7h.1v.2h.1v.2H21l.2.1h.1l.2.1.2-.1.3-.5.2-.2h.1v.4l-.4.3-.7.4H21v-.1H20.7l-.1.2-.2.4v.2h.5l.4.1h.2l.3-.2h.1v-.1l.2-.2h.3l-.2.1-.2.2V28.8l.1.1.1.2h.1l.3.1v.1l-.3.1-.2-.2-.2-.2-.3-.2h-.2l-.3.2-.2.3.2.2-.1.2-.3.3v.3l.7.3.2.3H22l.6-.2.1.1v.1H22.3v.1h-.9l-.3-.3H20.5v.2l-.4.4V31.6l.2.2h.5v.4h.2l.1.2H21.7v-.1h.2l-.4.2h-.8v-.2l-.2-.2V32H20l-.1.2-.2.1v.3l-.1.3v.2l-.2.2.1.1v.2h-.4l.3.1.7-.1h.3l-.3.3v.2h.4V34h.4l-.2.2-.3.2h-.7l-.1.2v.1l.1.2.6.2h-.5l-.1.1H19.4l.1.1V35.5l-.3-.2H19L19 35H18.6l-.2.2h-.1l-1.1.1h-.1l-.1.3H17l-.1.2v.2h.1v.2H17.7v-.1H19l.2.2h.4l.8-.5.3.1.3.2h.8-.1l-.2.1H20.8l-.4-.2h-.2l-.7.5v.2l.2.1v.1l-.2-.1-.2-.2h-.7l-.1.1V37.1l1 1h.5l.3-.4v.2l-.1.3.2.2h.2l.2.2.6-.3.4-.6.3-.4.2-.2h.1l.1-.3h.2l.1-.1.2-.3.1-.1v-.1h.2V36H23.7l.2-.2v-.4h.1v-.1h.2l.1-.1V35l.5-.4-.1.3-.1.2-.5.5-.1.2v.1l.5.3 1.2-.3h-.1l-.6.2-.3.2H24l-.2.1h-.3l-.1.2v.4l-.3.2v.1l-.3.3V38h-.1v.2l.2.1H23.2V38l.2-.1h.2l.2-.2v.1l-.1.1h-.2l-.3.3-.2.1H22.7l-.1-.2v.1l-.3.7.2-.2v-.2h.2v.5h.2l.2-.1.7.2h.3l.1-.2.2-.2.3-.3v-.2l.1-.2.1-.2h.2l-.2.1-.2.5-.4.7-.2.1h-1.8l-.1.3v.2H22l-.1.1v.1l-.2.4H22.4l-.3.2h-.2l-.2-.1v.1l-.2.2v.5l-.1.2V41.8h.1l.1-.1.4-.2.1.2H22l-.1.1-.2.1V42.2l-.1.2-.2.3v.5-.2l.2-.2.2-.2h.2v.1l-.1.1-.2.4v.4h.1v.2h-.1l-.1-.1h-.1v.1l-.6.8-.2.5v.4l-.1.1v.1h.1l.1-.2v-.3l.3-.4v-.2h.2v-.1h.2V44.9l-.8 1.2V46.3h.1l.2-.1.2-.1.2-.3h.2-.2v.2l-.2.1v.2l-.4.5v.5l.1.1.1.2H21.3v.3h.1l.3-.3.7-.8-.2.4-.2.3-.2.3h-.2l-.1.1-.1.2-.1.2v.2l-.1.1-.4.4v.4l-.1.4-.2.4v.2l.1.2-.1.3V51.8l-.3.4-.2.2v1l.1.2h.4l.2-.1h.7l.1-.2.1-.1.3-.3V52.6l-.2-.3V52h-.2l.1-.2.1-.2.2-.4V51l.1-.2.2-.3V50.2h.1V49.8l-.1-.1V49.2l.1-.3V48.6l.1-.1.1-.1.3-.4h.1l.3-.1v-.1l.1-.2v-.3L23 47l-.4-.4.1-.1h-.1V46l-.1-.2v-.2h-.1l-.1-.1V44.6h.1v.1l.1.1h.4V44.5l.1-.2h.2v-.1l.6-.9.9-.6.2-.5v-.1l.2-.1.1-.1h.4l.3-.4h.1l-.1.3-.3.2h-.3l-.2.2v.2l-.3.6-.4.3-.4.1-.8 1.4-.1.2V46.2l.1.1v.4h.2l.2.1.3.2h.1v-.4l-.3-.3.3-.3v-.4l.1-.2v-.1.3l.1.1.5.4h.1v-.3l-.2-.7-.1-.2v-.1l.1.1v.2l.3.3v.3l.1.3.1.4h.2l.2.1h.2V46l.1-.2v-.1l.1-.1.1-.1v-.4l-.2-.1V45h.2v.1h.2v-1.6l-.1-.5-.1-.2h.2V43.5l.1.1h.2v-.1l.5-.9v-.1h.1v.2l-.4.8-.3.7v1h.5v-.3l-.3-.5v-.4.1l.2.4v.1l.2.2v.1l.4.1.3.5.3.2 1 .2-.1.1-1.2-.2H27.5l-.5-.2h-.4l-.2.2v.2l-.1.4v1h.1v.2l.1.4-.1.3-.3.3.1.2.3.2.4.3v.2h.2l.4.2.2.2.1.3v.5h.2l.1.3.1.3v.3l-.2.2-.5.3-.2.2v.1l-.1.3v.1H27l-.2.2-.2.3V53.9l-.2.5v.2h-.1l-.5.7-.3.2-.1.1v.5l-.1.1-.2.3v.6l.1.3v.2l.3.5v.2l-.2.1-.2-.1v-.1L25 58v-.6l-.1-.1-.1-.2v-.2h-.2v.1H24.4v.1l-.1.2v1l.1.4.2.4.7.8h.1l.1.1V60.3l.1.1.1.1h.2V61.4h.2l.3.2h.1V61l-.2-.2-.1-.3-.1-.3v-.1H26l-.1-.2v-.5l.2-.2.1-.2h.2l.1-.2h.3l.1.1.2.4h.1l.3.1.9.6.2.2.4.6h.3l.2.2h.2l.2.1.1-.1.1-.2V59.4h-.4V59l-.2-.3v-.1l.1-.2v-.1h.2l.1.2v.2h.1l.1.1.5.3H31l.1-.3h.1v.4l.2.4.4.3h.2v-.6l.2-.1v.6h.1v.1H32.8l.5-.4.4-.2-.2-.3h.1V58.7h.1l.1-.2v.2-.1.2h.5l.2-.2h.9l.1-.3v-1.1l.2.2H36v-.1H36.3l2.3.2.6-.1V57l.1-.3v-.1h.1l.3.1h.2l.1-.3.3-.2.1-.1.3-.5.1-.1h.2l.3-.2.2-.1.1-.2.3-.4h.1v-.1h.1V54l.2-.1.3-.5.7-.6h.7v-.1l.1-.1v-.2h.1l.2-.1.1-.1.3-.1.2-.2h.1v-.2h.1v-.2l-.2-.3V50.8l-.2-.2-.1-.2-.1-.3V50l-.2-.1v-.2h-.1v-.1h-.1v-.2h.4l.1-.1h.1v-.1l.4-.6.1-.2h.1l.1-.2h.1l.3-.3v-.4h.1l.3-.2-.4-.8-.1-.1h-.1l-.1-.1V46h-.1l-1.2-.3-.3-.1-.4-.4-.3-.1-.2-.2-.1-.1h-.1v.1h-.4v-.3h-.1l-.2-.3-.1-.1h-1.4l-.2.2v.4h-.2v.2l-.2.2-.2.1-.5.2h-.5l-.2-.2-1.3-.1-.1-.1-.1-.1h-.5l-1.2-.3H34.8v-.1H34.4v-.2l-.3-.4-.1-.1-.4-.3h.2l.1.2.3.2.3.2h.8l1.2.4h.5l.3-.1.2-.2h.2l.5-.1.1-.3.1-.4.1-.1h.2v-.1l.5-.5.3-.2v-.2h.2l.1-.1h.4l.4.2H41l.5-.3h.3l.2-.1.1-.3.4-.4-.3-.3-.3-.2h-.1l-.7-.1v-.1H41l-.1-.1v-.2h-.3l.2-.2V40l.1-.2v-.4h-.3l-.2-.1v-.1H40l-.1.1v.1l-.1.1-1.4.7h-.3l-.3.3H37.3v-.2l.3.1h.2l.8-.8.2-.2.3-.1 2-.3H41.5l.1-.3.1-.1.3-.1.1-.1.1-.3.7-.5.1-.1v-.2l.2-.2V36.4l.2-.1v-.2l.1-.5.1-.2.1-.2h.2l.4-.3v-.2l.2-.3.2-.3.3-.1v-.2l.1-.2.2-.2V33l-.1-.2v-.4l.3-.5.6-1 .2-.2v-.1l-.2-.2V30l.2-.6.4-1.2.2-.3.7-.7V27l.2-.2.3-.4.1-.1V26zM36.6 7.7H37V8l.1.3.2.1v.2l.2.4h1l.2-.3h-.2l-.4.2h-.2v-.2l.2-.1h.2l.1-.1v-.2H38V8l-.3-.6-.1-.1h-.2l-.2-.3h-.5l-.2.2-.1.3v.2zM38.9 4l.2.1.2.1h.4v-.6h.1v-.1h-.5l-.1-.1v-.1h-.4l-.1.3v.2l.2.2zM11 21h.1l.1-.2v-.1l.3.2v-.4h-.2l-.3.3v.2zM40.7 3.6h.2V4h.5v-.1h-.1l-.1-.2v-.4l.2-.3v-.2H41v-.2H41V3.3H40.6v.3zm-.6 5l.2-.2v-.2h-.8l-.2.1h.4v.2H39.4l.2.3v.4l.3.4.2-.1v-.9zm-1-7l.1.1V2l.2.3.1.1h.1v-.1h.2l-.1-.1V2h.2l.2.1.3.3v.4-.2H40.8v-.2h-.2v-.1l-.1-.1-.2-.4-.6-.2h.2V1l-.1.1-.2.3H39v.1zm2.6 1.8V3h.2L42 3l.3-.4v.1h.2V3l.3-.4.1.3h.1l.2-.4v-.2l.2-.1h.4v-.2l-.1-.2h-.2l-.1.3H43l-.2.2h-.3v.2-.1h-.1l.1-.2.1-.1.2-.1v-.1h-.2l-.3.2h-.2l.1.1v.3H42v.1l-.1.2-.1.1V3h-.2v.5zm.5 1.1l.1.2V5l.2-.1h.3l.1-.2-.2-.1V4.3H42.5v-.2h.1V4H42.2v-.2h-.3V4l.2.2V4.4H42l-.1.1-.2.3H42V4.5h.2zm-5 2l.3.1.2-.2v-.5h-.1v-.1h.2V5.4h.1v.1l.1.1v.4l-.1.2V7l.2.2H38.7V7H39v-.3h.5v-.2h.2l.3.6v.1l.1.1.5.2H41l.1-.3.1-.1h.3l.1-.1v-.6h-.2l-.2.1h-.2v.1l.2.3h-.4v-.3l.3-.3v-.2H40.7l-.1.1-.1.1h-.2V6h-.1L40 6h-.4l-.3-.2v.1l-.2.2h-.5l-.1-.1h.1l.2-.2.1-.2v-.2h.1l.5-.1-.1-.1V5l-.3-.3-.2-.1.2-.1H39l-.1-.2H38.6l-.3-.3h-.8l-.3.2-.2.4v.7l-.1.4v.5l.3.3zM9 32.3v-.1l-.1-.1-.3-.1.2-.3h-.1l-.1-.1-.1.3h-.2l-.1.1-.2.2V32.5l-.1.1-.1.2v.1l.5.1H8.5V32.7h.1l.1-.2H9h-.1v-.2zm1.1-4v-.1l-.1-.1h-.4l-.2-.2-.1-.2H9v-.2h-.1v-.2l.2.1.2.2.2.2.2.1.1.1h.2v-.2H10l-.3-.2h-.1v-.1h.2l-.6-.5-.4.2-.1.1.2.6V28.5h-.1V28.9l-.2.3-.1.1.2.1v.7l.2.6.1.2.2.2.2-.1.6.1.2-.2h-.2v-.2l-.1-.1-.2-.1h-.4v-.1H9.8v-.6l-.1-.2-.1-.1-.5-.2.5.1h.2V29l.1-.2v-.1l.1-.1h.1v-.2l.1-.1h-.1v-.1zm1-4.4H10.6l-.1-.1-.2.1h-.2l.2-.2v-.2l-.1-.1h-.2l-.3.3h-.2l.1.1v.1l-.5-.2.1-.1v-.2.2l-.3.3-.2.2-.1-.2h.1v-.2l-.4.1h-.2v.2l-.2.2v.2l-.2.1v.1l.3.3H8.8l.4.2h.2v.2h-.1v.1l.1.2.1.1h.4l.1.1.1-.1h.5l.1-.3v-.1l-.2-.1h-1l.3-.3h.1v.2H10.6l.2-.2.1-.3-.2.1h-.1V24.4H10.1v-.2L10 24V24h.3l.1.2h.1l.1.1v.1h.2l.1-.2.1-.1v-.2h-.2zm.8-1.1v-.1l.5-.3.2-.2h-.1l.1-.2.1-.1v-.4l.3.2h.2v-.1h.2l.1-.2-.2-.4H13V20.6l.1-.1.3.1.5.2v-.4h-.1l-.1-.2h.1V20h-.2v-.1l-.1-.1-.2-.4v-.2l.3-.2.1-.2v-.2h.7-.2l-.3.1-.2.2-.1.4V19.6l.3.4v.2l.1.1.2.1v-.5l.1.3.1.1.1.1H14.8v-.2h-.1V20h.4V20l.2-.2V19.4H15v-.2h-.2V19h.1l.7.2h.2V19l.2-.1v-.2h-.2v-.1h.1l.1-.2h-.1V18l-.1-.1v-.1h-.2l-.2.1-1 .3h-.2v-.1h.1l.4-.1.2-.2H15.3l.3-.3h.3l.1-.2v-.1l.1-.1V17l-.2-.5.3.2h.5l.2.2H17.1V16.5h.2l.1-.2V16l.1-.1h-.2l-.1.1-.3.4H16l-.1-.2h.2l.1-.1V15.8l.2-.1.1-.2h.2V15.1l.1-.2.3-.2h.2v-.2h-.2l-.1-.2.1-.5.2-.1v-.2l-.2-.2v-.5l-.2-.2-.1-.2h-.2l-.2.2-.4.5-1.2 1-.2.2-.5.3h-.4l-.1.1h-.1l-.2.2-.6.5h.1v.1l.1.1-.1.1v.2h.1v.2h.2l.1.1V16.6l.1.1.2.1-.2.3v-.2l-.2-.2h-.4l-.3.1v.2h-.1v.2l.1.2v.5-.1l-.1-.3-.1-.3V17h-.1l-.1-.3v-.2h.1l-.4-.2-.3-.1-.1-.1-.2.1v.5l.2.1h-.1l-.5.1v.1h.1v.2h-.1V17.6l-.1.2.1.1v.2l.2.5h.1l.3-.2v.1h-.1v.1h.1v.1h-.2v.2h.2l.6-.2-.4.3h-.4V19.3H11l-.1.1-.1.1.3.3h.2v.1l.2.1h.5l.2.2h.5v.1l-.2.1v.1h.1-.4l-.4.3.4.3h-.5l-.1.2-.6.6V21.5H10.6v.2h.2l.4.6.4.5zM.4 21.6l-.2-.1.1.3H.6l.1-.1-.3-.1zM9.7 26h-.1l-.1-.1H9l-.2.1V26.7l.5.3h.2l.6-.1v-.2H9.8v-.2l.2-.2.1.1-.1-.2H9.6zm2.8-9.8v.2h.5v-.2h-.1v-.1h-.1l-.3-.2v-.1l-.1.1V16.3zm6.1 11.8l-.1.1v.2l.2.2h.4v-.3l-.2-.1-.3-.1zm.2-2.5V25h-.1v.7zm-.7 2.2v.2h.4l.1-.2v-.2l-.1-.2v-.9l.1-.4V25.8l-.1-.1v.2h-.2v.2l.1.1v.1h-.2v.2l-.1.2v1.1zm1.7-23.5v-.1h-.1v.1zM10.4 23l.1-.1v-.1h-.2l-.3.3h.4z" fill="#7F807C"/><path d="M14.9 31.4h-.2l-.3.1v.1H15v-.1h-.2zM15 37v-.1l.2-.3v-.2h0-.2 0l-.3.2h-.2l-.2.2v.1l-.4.5-.2.2h-.1V37.9l.1.1v-.2h.4l.4-.3.3-.4h.1l.1-.1zm2 2.2h.3v-.2l-.2-.2-.1-.1h-.2l-.1.1v.2l.1.1h.2zm-.3-7.2l-.2-.1-.3-.3H16l-.2.2-.4.5.1.1.2.2h.1l.1.2.1.3h.4l.2-.1.2-.3v-.4h-.1V32l.1-.2zm.8 11.6v-.1h0H17.2v.1h0v.1h-.1 0l-.1.1-.2.2V44.2l-.1.2h-.1l.1.1h.4l.1-.1v-.2l.1-.3.2-.4zM14 27.7l.6.2h.1v-.7h.1l.1-.3.1.1v.2h0v.2h0l.2-.2h.1v.2h.1v.1h0v.1h.1v.2H15.6l.2.1.4.4v.2h-.1l-.1-.2-.2-.2h-.1l-.2-.1h0l-.4.3h0v.1h0l.1.1h0v.2h0l.4.5h.4v.1H16l-.1.1.1.3.1.2.1-.1h.2v-.1h.2l-.2.4h0v.1l1-.2V29.7h.1v.2h.1v-.1h.1v.3l.1.2v.3h.2l.1-.1v-.2h.1V30h0l.1-.1v-.7h0l.1.2.2.3h0v.2h.8l.2-.1h0l-.6.4h-.1v.2l-.2.2h0v.1l-.1.1h0V31.3l-.2.3v.4h.5l.1-.1.1-.2.4-.5V31l.2-.1h.1l.1-.2.1-.2v-.3h.4V30l.3-.2.2-.2v-.4h0l.1-.4h-.5l-.1-.2H20l-.2.3h-.3 0v.1h-.2 0-.1V29l-.1-.1H18.8h0l-.1-.1-.2-.2h-.1l-.2.1H18h0l.2-.2h0v-.2h-.7 0l.3-.2h0v-.2h0l-.2-.2v-.4l.1-.1V27H17.4v.1l-.2.1.1-.1.2-.2h0v-.3l.1-.3V25.6l-.1-1h0l-.1-.2-.2-.1-.3-.3h0l-.2-.4h0l-.2-.2h0l-.1-.2h0-.2v.1l-.1.2v.2H16l-.3.2h0v.2h0v.2h0v.2l.1.1h.2v.3l-.1.1v.4l.3.3v.4h.1v.1h0v.1l-.4-.7h-.1l-.1.2-.2.2h0l.1-.4h-.2 0-.2v-.2H15l-.4-.2h0V25l-.1-.1v-.2l-.2-.1v-.2H14h0v.5l-.1.2h.2l.2.2.1.2.1.2-.2-.1h-.1 0l-.2.1h0v.1l.1.1h0l.2.2h0v.1h-.1V26.6h0l-.2-.2h0l-.1-.2-.4-.5h0-.1l-.1.1v.4h0l.1.2h-.4v.3l.3.2.1.4v.1l.2.2.2.1zM18 37h0l-.3-.1v-.1h-.3l-.3.1-.2.2v.2h0-.1 0-.4l-.2.1v.2l.2.1v.1l-.3.3h0l.2.2h.1l.7.2h.1l.1.1v.1l.2.3h.4l.4-.3h.1v.4l-.1.1-.4.2h-.3 0l-.1.2h0l-.1.3h-.1v.1h-.2V40.2h0l.1.2h.5l.4-.3h.2l-.1.2-.3.2-.5.1-.1.1h-.5 0v.1h0v.2h-.2v-.3l-.2-.1H16.2l-.1.1-.1.2v.2l.1.2.2.2h.2l.1.1h.2v-.1h0v-.1H17.7l.2-.2h.2v.1h.2V41l.6-.3h.3l.1-.2h0v-.1H19.6V40.8h-.1l.2.2h.3l.6-.5.1-.1v-.2h0-.4l-.1.1h0l.2-.3V39.7h.2v.2h.4v-.2l-.1-.1v-.1h.1l.1-.2h0-.2 0V39l-.1-.1-.1-.2h-.1 0-.2 0-.1l-.2-.3h0H19.6h0v-.1H18.8h0l-.1-.1V38l-.3-.7-.2-.3h-.2 0v-.2zM13.2 38l-.4.2h-.1l-.3.2h-.1l-.5.1-.2.1.1.2v.2l.1.2.4.2h.2v-.5h.4l.1-.2v-.2h.5V38h-.2zm8.2 3v-.2h0-.2v.1l-.2.3v.2h.4V41zM21 42l.1.4h0l.2-.3V41.6h0v.1h0-.2v.3l-.1.1zm-.4.5l-.1.1v.2h.3l.1-.2V42.4l-.3.2zm-2.2 6V48.3h0l-.1-.1h0V48h0v-.2h0l-.2-.2h-.1V47l-.2-.7v-.5h0v-.1h-.1 0l-.2.1h0l-.2.1h0l-.2.3-.3.1-.2.3-.2.2v.3h0l-.1-.3h0v-.4h.1v-.1h-.1l-.1.1-.4.2-.3.2V47.4h-.1l-.1.1.2.2-.3.5v.2h0v.5H15.3l.2-.4.3-.1v-.2l.2-.5h.2l.2-.1H16.8l-.3.4-.2.2v.3h0l.3.1.1.1.2.4-.4.3-.2.1v.6h.4l.2-.2h.1v-.4H17.7l.2-.1.2-.2.1-.2v.1h0l.1-.1h.1v-.4zm6.4 3.3l.2-.1V51l.1-.1-.2-.1h-.1v-.2h.1l.1-.1v-.3l-.3-.3v-.8l-.2-.3-.1-.2-.1-.1-.5-.2h0-.2 0v.1h0-.2l-.2.3-.2.2-.1.3v.7l.2.2.1.3h0v.1h0V51.3h0v.1l.3.3.3.2h.3l.4.1h.3zm-4.3-8h.1l.1-.3h.1V43h-.4l-.3.4-.6.5-.2.1-.1.1-.2.3-.2.3-.1.3v.2h.7l-.2.1-.5.1-.2.2-.1.1H18v.2l-.1.2v.8l.1.3.3.2h.2l.2-.2v-.1l.1-.5v-.1h.2l.2-.3h0l.2-.5.6-1.1.3-.7zm1.4-3.9l.1-.1.1-.3v.1h-.4v.2h-.1v.2h.1l.2-.1zm3.7 7.8h0l-.1-.5v-.1l-.1-.2-.1-.2h0-.1v-.1l-.1-.3h0-.2l-.2-.3-.2-.2-.3.1v.2l.1.2v.2l.1.1.3.2v.5l.1.2.5.4v.3h.2V48h0V47.7zm4.7-20.3l-.4.4-.2.3-.7 1-.2.2-.4.6-.5.5v-.2l.1-.1 1.2-1.4.2-.4V28h.2l.2-.2.4-.7h0v.1h0v.2zm-3.5 4.7h0l-.1.1-.1.1-.1.2-.1.1-.2.1v.2h-.2v.2h-.1 0V33h0l.2-.2.2-.4.3-.3h.2zM48 26v-.2h.2l-.2-.3h-.1v-.3h0V25l-.1-.3v-.2l-.1-.2-.6-.7v-.2h-.4 0l-.1-.1v-.2h-.9 0l-.5.3H45l-.3-.2h-.2 0l-.1.1v.1h-.1 0-.2 0l-.2.1h0-.2 0-.1l-.4-.1h0-.2v.1h0l-.2-.1h-.2l-.6-.2H41.6h0-.2 0-.1l-.1-.1H40l-.4.4H39l-1-.3-.5-.3h-1.1l-.1.1h0-.2 0V23.4l-.1.1-.1.2h-.7l.2.3H35h0v-.1l.1-.2-.4.1-1 .8-.3.1H32l.3.3v.1h0-.1l-.2.2h0l-.2.3h0-.2 0v.1l-.2.2h-.5v-.1l.1-.2.2-.3h-.4v-.1h.5v-.1l.1-.2h.5v-.1h0v-.1h-.1l.2-.5.2-.1.3-.3.1-.2v-.2h-.1l-.3.2-.1.1H31.3v-.1h-.1 0l-.4.1-.3.3-.3.2v.1l-.1.1-.1.2h-.1l-.2.2h-.1 0V24.5h.1l.5-.5h0l.2-.2V23.5H30.8l.5-.1h.2l.6-.6h.2l.2.1v.4h.2l.1-.1.2-.3.1-.1 1-1.3h0V21h0-.2l-.2.4-.2.2-.3.1H33v-.4h-.3l-.4.3H32l-.4-.4v.2H31.3l-.1-.2-.1-.1h-.2l-.3.1h-.2l-.2-.2-.4-.6h.1l.2.2.2.3.1.1.6-.1h.2l.4.2h.2l.2-.2h.4v-.2l.2-.3-.1-.2v-.1H32L32 20v-.2h-.1v-.1l.2.1H32.4v.2h.1v-.2h0l.2-.1.4-.3h.2l.2-.2h0l.1-.1v-.3l.1-.1.2-.2.5-.2 1.5-1.3.3-.3.1-.3v-.2l.2-.1.3-.4.3-.1.6-.3.3-.1.2-.3.4-.6.3-.6v-.4h.1l.1-.1V13h0-.1 0-.2l-.1-.1V12.2l.2-.2v-.1l.2-.3h0l.1-.3.1-.3v-.2l-.2-.1H38.5l-.4-.2h-.3l-.5.2h-.2 0v-.2h0v-.2H36.7l-.2.3.1.2.1.1.1.1h.2l-.1.3h-.2l-.4-.1-.4.1h-.2l-.2-.1h0l.1-.1-.1-.1h-.7l-.3.2-.4.4-.3.1-.6.1h-.8v-.1l-.2-.3h0-.1l-.1.3v.1H31.4h0l-.1.2H31h0l-.1.1v.1h-.1v.2h0l-.3-.3h-.1 0-.3l-.2.3h0l-.3.3h0-.1 0v.2l-.2.3-.1.1H29v-.2l.2-.3v-.3l.2-.1v-.2h0V12l-.3-.3-.3-.1h-.5v.4l-.1.3H28l-.1.2h-.1v.3h-.1l-.5.5h0v-.2l.1-.3.1-.3.3-.2v-.2l.1-.2h0v-.1h-.1l-.2-.2h-.2l-.2-.3-.1-.1v.2h0v.5l-.1.1v.1l-.2.2v-.2l.1-.2V12h0v-.4h0l-.2-.2-.2-.1-.9-.2v.1l-.1.2v.3l-.1.3h0v.2l-.2.1-.3.2h0l-.1.2v.3l.8.6-.2-.1-.2-.1-.4.2v.1h.1v.1h0v.1h.2v.1l.1.1.2.2h-.3l-.4-.3h0-.1 0v.1h0l-.1.2-.1.2h0v.2h0v.4h0l.2.2h0v.1l.3.4h.1l.2.2h.1l.1-.1h.7-.1l-.2.1-.1.1.2.1v.1l.1.2-.5-.4h0-.5l-.2-.2h-.2 0-.1l-.1.1v.1l-.2-.1H23.9l-.3.2h-.2l-.3-.2H22.8v.2l.3.5h.2V17h0l.1.1h0v.2h.4v.2h0-.2l-.1.1.1.1v.1h0v.5h0l-.2.2H23l-.2-.3h-.2l-.2.1.2.4v.1h0v.1h0v.1h.4v.2h0l.2.1.3.4h.2l.1.1h.2l.1.1v.4H24v.1h.2l.7.7h0V21.4l.1.1v.1H25l-.2-.5-.3-.1-.2-.2-.1-.1H24l-.2-.1h0H23.5h0-.2l-.2-.4H23v.1h-.1 0-.1 0v.1h0v.1l.5.2.3.4h.2v.1l.2.2-.5-.2-.2-.1-.2-.3H23l-.4-.2h0l-.1.2-.1.3v.2H22L22 21l-.2-.2v-.4h-.3 0l-.1-.2-.1.1-.2.3h0v.1h0v.4l.4.2v.8h0-.2 0v.2h.1-.2l-.1-.1V22l-.1-.2v-.7h-.2l-.2-.1H20v.1l-.1.1-.1.2v1.3l.6.1h0l.2.1v.1h0l.1.1v.2h-.1 0l-.3-.2h-.1l-.3.2h0v.4l-.1.1v.2h.2l.1.1.1.2.1.3.2.2h.2v.1h-.1l.2.4.2-.2h.6l.3.2h0-.5l-.5.1h0v.2h0v.1h0l-.2-.2h0l-.2-.2h0-.2l-.4-.4v-.1H19.6h0v.2h0l-.1.2v.4l-.1.2v.7h.3v.2h0v.2h0v.2h0v.1h0l.1.5.2.1h.3l.2-.1.5-.7h.1v.2h.1v.2H21l.2.1h.1l.2.1.2-.1.3-.5.2-.2h.1v.4l-.4.3-.7.4H21h0v-.1H21h0-.2l-.1.2h0l-.2.4h0v.2h.5l.4.1h.2l.3-.2h.1v-.1l.2-.2h.3l-.2.1-.2.2V28.8h0l.1.1.1.2h.1l.3.1v.1l-.3.1-.2-.2-.2-.2-.3-.2h-.2l-.3.2-.2.3.2.2-.1.2-.3.3v.3h0l.7.3h0l.2.3H22l.6-.2.1.1v.1h0-.2 0-.1v.1h-.9l-.3-.3H21h0-.4 0-.1v.2l-.4.4V31.6h0l.2.2h.5v.4h.2l.1.2H21.7v-.1h.2l-.4.2H21h0-.2v-.2l-.2-.2V32H20l-.1.2-.2.1v.3l-.1.3v.2l-.2.2.1.1h0v.2h-.4l.3.1.7-.1h.3l-.3.3v.2h.4V34h.4l-.2.2-.3.2h-.7l-.1.2v.1l.1.2.6.2h-.5l-.1.1h-.1 0-.2 0l.1.1V35.5h0l-.3-.2H19L19 35h0H18.6l-.2.2h-.1l-1.1.1h-.1l-.1.3H17h0l-.1.2h0v.2h.1v.2H17.7v-.1H19l.2.2h.4l.8-.5.3.1.3.2h.8-.1l-.2.1H20.8l-.4-.2h-.2l-.7.5v.2l.2.1v.1l-.2-.1-.2-.2h-.7l-.1.1V37.1l1 1h.5l.3-.4h0v.2h0l-.1.3h0l.2.2h.2l.2.2h0l.6-.3.4-.6.3-.4h0l.2-.2h.1l.1-.3h.2l.1-.1.2-.3.1-.1v-.1h.2V36H23.7l.2-.2v-.2h0v-.2h.1v-.1h.2l.1-.1V35l.5-.4-.1.3-.1.2-.5.5h0l-.1.2v.1l.5.3 1.2-.3h-.1l-.6.2-.3.2H24l-.2.1h0-.3l-.1.2h0v.1h0v.3l-.3.2v.1l-.3.3v.2h0v.1h-.1 0v.2h0l.2.1H23.2V38l.2-.1h.2l.2-.2v.1l-.1.1h-.2l-.3.3-.2.1H22.7l-.1-.2v.1l-.3.7h0l.2-.2v-.2h.2v.5h.2l.2-.1.7.2h.3l.1-.2.2-.2.3-.3v-.2l.1-.2.1-.2h.2l-.2.1-.2.5-.4.7-.2.1h-1.8l-.1.3v.2H22l-.1.1v.1l-.2.4H22.4l-.3.2h-.2l-.2-.1v.1l-.2.2v.5l-.1.2v.2h0v.1h.1l.1-.1h0l.4-.2h0l.1.2h0-.1l-.1.1-.2.1V42.2l-.1.2-.2.3v.5-.2l.2-.2.2-.2h.2v.1l-.1.1-.2.4h0v.4h.1v.2h0-.1 0l-.1-.1h0-.1v.1h0l-.6.8-.2.5v.4h0l-.1.1v.1h.1l.1-.2v-.3l.3-.4v-.2h.2v-.1h.2V44.9l-.8 1.2V46.3h.1l.2-.1.2-.1.2-.3h.2-.2v.2l-.2.1v.2h0l-.4.5v.5l.1.1.1.2H21.3v.3h.1l.3-.3.7-.8-.2.4-.2.3-.2.3h-.2l-.1.1-.1.2-.1.2v.2l-.1.1-.4.4v.4l-.1.4-.2.4v.2h0l.1.2-.1.3V51.8h0l-.3.4-.2.2v1l.1.2h.4l.2-.1h.7l.1-.2.1-.1.3-.3V52.6h0l-.2-.3V52h-.2 0l.1-.2.1-.2.2-.4h0V51h0l.1-.2.2-.3V50.2h.1V49.8h0l-.1-.1v-.3h0v-.1h0v-.2h0l.1-.3V48.6l.1-.1.1-.1.3-.4h.1l.3-.1v-.1l.1-.2v-.3L23 47l-.4-.4h0l.1-.1h0-.1v-.2h0V46l-.1-.2v-.2h-.1l-.1-.1h0v-.7h0v-.2h.1v.1h0l.1.1h.4v-.1h0v-.2l.1-.2h.2v-.1l.6-.9.9-.6h0l.2-.5v-.1l.2-.1.1-.1h.4l.3-.4h.1l-.1.3-.3.2h-.3l-.2.2v.2l-.3.6h0l-.4.3-.4.1-.8 1.4-.1.2v.7h0v.5h0l.1.1h0v.4h.2l.2.1.3.2h.1v-.4l-.3-.3.3-.3v-.4l.1-.2v-.1.3l.1.1.5.4h.1v-.3l-.2-.7-.1-.2v-.1l.1.1v.2l.3.3v.3l.1.3.1.4h.2l.2.1h.2V46l.1-.2v-.1l.1-.1.1-.1v-.4l-.2-.1h0V45h.2v.1h.2V44.1h0v-.7l-.1-.5-.1-.2h.2V43.5l.1.1h.2v-.1l.5-.9v-.1h.1v.2l-.4.8-.3.7h0v1h.5v-.3l-.3-.5V44h0v-.2h0v.1l.2.4v.1l.2.2v.1l.4.1.3.5.3.2 1 .2-.1.1-1.2-.2H27.5l-.5-.2h0-.4l-.2.2v.2l-.1.4v1h.1v.2l.1.4-.1.3-.3.3.1.2.3.2.4.3v.2h.2l.4.2.2.2.1.3v.5h.2l.1.3.1.3v.3l-.2.2-.5.3-.2.2v.1l-.1.3v.1H27l-.2.2-.2.3h0V53.9h0l-.2.5h0v.2h0-.1 0l-.5.7-.3.2-.1.1v.5l-.1.1-.2.3v.2h0v.4l.1.3v.2l.3.5v.1h0v.1l-.2.1h0l-.2-.1v-.1L25 58v-.6l-.1-.1-.1-.2h0v-.2h-.2 0v.1H24.4v.1l-.1.2v1l.1.4.2.4.7.8h.1l.1.1V60.3l.1.1h0l.1.1h.2v.1h0v.2h0v.6h.2l.3.2h.1v-.1h0V61l-.2-.2-.1-.3-.1-.3v-.1H26l-.1-.2V59.6h0v-.2l.2-.2.1-.2h.2l.1-.2h.3l.1.1.2.4h.1l.3.1.9.6.2.2.4.6h.3l.2.2h.2l.2.1h0l.1-.1h0l.1-.2V59.4h-.2 0-.2V59l-.2-.3v-.1l.1-.2v-.1h.2l.1.2v.2h.1l.1.1.5.3H31l.1-.3h.1v.4l.2.4.4.3h.2v-.6l.2-.1h0v.4h0v.1h0v.1h.1v.1H32.8l.5-.4.4-.2h0l-.2-.3h.1V58.7h.1l.1-.2h0v.2h0v-.1.2h.5l.2-.2h.9l.1-.3v-.7h0v-.4l.2.2H36v-.1H36.2l2.3.2.6-.1V57h0l.1-.3h0v-.1h.1l.3.1h.2l.1-.3h0l.3-.2h0l.1-.1.3-.5.1-.1h.2l.3-.2.2-.1.1-.2.3-.4h.1v-.1h.1v-.2h0v-.1h0V54h0l.2-.1.3-.5.7-.6h.7v-.1l.1-.1v-.2h.1l.2-.1.1-.1h0l.3-.1h0l.2-.2h.1v-.2h.1v-.1h0v-.1h0l-.2-.3h0V51h0v-.2l-.2-.2-.1-.2-.1-.3V50h0V50l-.2-.1h0v-.1h0v-.1h-.1v-.1h0-.1v-.1h0v-.1h.4l.1-.1h.1v-.1l.4-.6h0l.1-.2h.1l.1-.2h.1l.3-.3h0v-.3h0v-.1h.1l.3-.2-.4-.8-.1-.1h-.1l-.1-.1V46h-.1l-1.2-.3-.3-.1-.4-.4-.3-.1-.2-.2-.1-.1h-.1v.1h-.4 0v-.3h-.1l-.2-.3-.1-.1h-1.4l-.2.2v.1h0V44.9h-.2v.2l-.2.2-.2.1-.5.2h-.5 0l-.2-.2h0l-1.3-.1-.1-.1-.1-.1h0-.5l-1.2-.3H34.9h0-.1v-.1h0H34.4h0v-.2l-.3-.4h0l-.1-.1-.4-.3h.2l.1.2.3.2.3.2h.8l1.2.4h.5l.3-.1.2-.2h.2l.5-.1h0l.1-.3.1-.4.1-.1h.2v-.1l.5-.5.3-.2v-.2h.2l.1-.1h.4l.4.2H41l.5-.3h.3l.2-.1.1-.3.4-.4h0l-.3-.3h0l-.3-.2h-.1l-.7-.1v-.1h0-.1l-.1-.1h0v-.2h0-.3l.2-.2V40l.1-.2v-.4h-.3l-.2-.1v-.1H40l-.1.1v.1l-.1.1-1.4.7h-.3l-.3.3H37.3v-.2l.3.1h.2l.8-.8.2-.2.3-.1 2-.3H41.5l.1-.3.1-.1.3-.1.1-.1.1-.3.7-.5.1-.1v-.2l.2-.2h0V36.4l.2-.1v-.2l.1-.5.1-.2.1-.2h.2l.4-.3v-.2l.2-.3.2-.3.3-.1v-.2l.1-.2h0l.2-.2V33.2h0V33l-.1-.2v-.4l.3-.5.6-1 .2-.2v-.1l-.2-.2V30l.2-.6.4-1.2.2-.3.7-.7V27l.2-.2.3-.4.1-.1v-.1h0V26zM36.6 7.7H36.9v.1h0V8l.1.3h0l.2.1v.2l.2.4h1l.2-.3h-.2l-.4.2h-.2v-.2l.2-.1h.2l.1-.1h0v-.2H38h0V8h0l-.3-.6-.1-.1h-.2l-.2-.3h-.5l-.2.2h0l-.1.3v.2h0zM38.9 4l.2.1.2.1h.4v-.6h.1v-.1h0-.4 0-.1 0l-.1-.1h0v-.1h-.4l-.1.3v.2l.2.2zM11 21h.1l.1-.2v-.1l.3.2h0v-.4h0-.2l-.3.3h0v.2zM40.7 3.6h.2V4h.5v-.1h-.1l-.1-.2v-.4h0l.2-.3h0v-.2h-.1 0-.2v-.2h0-.1V3.2h0v.1H40.6v.3zm-.6 5l.2-.2v-.2h-.8l-.2.1h.4v.2h0H39.4l.2.3v.4l.3.4.2-.1V8.9h0V8.6h0zm-1-7h0l.1.1h0V2l.2.3h0l.1.1h.1v-.1h.2l-.1-.1V2h.2l.2.1.3.3v.4-.2H40.8v-.2h0-.2v-.1l-.1-.1-.2-.4h0l-.6-.2h.2v-.2h0v-.2h0V1l-.1.1-.2.3H39v.1h0zm2.6 1.8V3h.2L42 3l.3-.4v.1h.2V3l.3-.4h0l.1.3h.1l.2-.4h0v-.2l.2-.1h.4v-.2l-.1-.2h0-.2l-.1.3H43l-.2.2h-.3v.2h0v-.1h-.1l.1-.2.1-.1.2-.1v-.1h-.2l-.3.2h-.2l.1.1h0v.3h0-.2v.1l-.1.2-.1.1V3h-.2v.5h0zm.5 1.1l.1.2V5l.2-.1h.3l.1-.2-.2-.1V4.3h0-.1 0-.2v-.2h.1V4H42.2v-.1h0v-.1h0-.3V4l.2.2V4.4h0-.1l-.1.1-.2.3H42V4.5h.2zm-5 2l.3.1h0l.2-.2V6h0v-.2h0-.1v-.1h.2v-.2h0v-.1h.1v.1l.1.1v.1h0v.3l-.1.2V7l.2.2H38.7V7H39v-.3h.5v-.2h.2l.3.6v.1l.1.1.5.2H41l.1-.3.1-.1h.3l.1-.1v-.5h0v-.1h-.2l-.2.1h-.2v.1l.2.3h-.2 0-.2v-.3h0l.3-.3v-.2h0H40.7l-.1.1-.1.1h-.2 0V6h0-.1L40 6h-.4l-.3-.2v.1l-.2.2h-.5l-.1-.1h.1l.2-.2.1-.2v-.2h.1l.5-.1h0l-.1-.1h0V5h0l-.3-.3-.2-.1h0l.2-.1H39l-.1-.2h0-.2 0-.1l-.3-.3h-.8l-.3.2-.2.4v.7l-.1.4v.5l.3.3zM9 32.3h0v-.1l-.1-.1-.3-.1h0l.2-.3h0-.1 0l-.1-.1h0l-.1.3h-.2l-.1.1-.2.2h0V32.5h0l-.1.1-.1.2h0v.1l.5.1H8.5v-.2h0v-.1h.1l.1-.2H9h-.1v-.2zm1.1-4v-.1l-.1-.1h-.4 0l-.2-.2h0l-.1-.2H9h0H9h0v-.2h-.1v-.2l.2.1.2.2.2.2.2.1.1.1h.2v-.2H10l-.3-.2h-.1v-.1h.2l-.6-.5h0l-.4.2-.1.1.2.6V28.5h0-.1V28.9l-.2.3h0l-.1.1h0l.2.1v.7l.2.6.1.2.2.2.2-.1.6.1.2-.2h0-.2v-.2l-.1-.1-.2-.1h0-.4v-.1H9.8v-.6l-.1-.2-.1-.1-.5-.2h0l.5.1h.2V29l.1-.2v-.1l.1-.1h.1v-.2l.1-.1h-.1v-.1zm1-4.4H10.6l-.1-.1-.2.1h-.2l.2-.2h0v-.2l-.1-.1h-.2l-.3.3h-.2l.1.1h0v.1h0l-.5-.2.1-.1h0v-.2.2l-.3.3-.2.2-.1-.2h.1v-.2l-.4.1h-.2v.2l-.2.2v.2l-.2.1v.1l.3.3H8.7l.4.2h.2v.2h-.1 0v.1h0l.1.2h0l.1.1h.4l.1.1.1-.1h.5l.1-.3h0v-.1h0l-.2-.1h-1 0l.3-.3h.1v.2H10.6l.2-.2.1-.3-.2.1h-.1V24.4H10.1v-.2h0L10 24V24h.3l.1.2h.1l.1.1v.1h.2l.1-.2.1-.1v-.2h-.2zm.8-1.1v-.1l.5-.3.2-.2h0-.1 0l.1-.2.1-.1v-.1h0v-.2h0v-.1l.3.2h.2v-.1h.2l.1-.2h0l-.2-.4h0-.2V20.6h0l.1-.1.3.1.5.2v-.3h0v-.1h-.1 0l-.1-.2h.1V20h-.2v-.1l-.1-.1-.2-.4v-.2l.3-.2.1-.2v-.2h.7-.2l-.3.1-.2.2-.1.4V19.6l.3.4v.2h0l.1.1.2.1h0v-.5h0l.1.3.1.1.1.1H14.8v-.2h0-.1V20h.4V20l.2-.2h0V19.4H15v-.2h-.2V19h.1l.7.2h.2V19l.2-.1v-.2h0-.2 0v-.1h.1l.1-.2h0-.1V18l-.1-.1v-.1h-.2l-.2.1-1 .3h-.2v-.1h.1l.4-.1.2-.2H15.2l.3-.3h.3l.1-.2h0v-.1h0l.1-.1V17l-.2-.5h0l.3.2h.5l.2.2H17.1V16.5h.2l.1-.2h0v-.1h0V16h0V16l.1-.1h0-.2l-.1.1-.3.4H16l-.1-.2h.2l.1-.1V15.8l.2-.1.1-.2h.2V15.1l.1-.2.3-.2h.2v-.2h-.2 0l-.1-.2.1-.5h0l.2-.1v-.2l-.2-.2v-.5l-.2-.2-.1-.2h-.2l-.2.2-.4.5-1.2 1-.2.2h0l-.5.3h-.4 0l-.1.1h0-.1l-.2.2-.6.5h.1v.1l.1.1h0l-.1.1h0v.2h.1v.2h.2l.1.1V16.6l.1.1.2.1-.2.3v-.2l-.2-.2h-.4l-.3.1h0v.2h-.1v.2l.1.2V17.7h0v.2-.1l-.1-.3-.1-.3V17h-.1l-.1-.3v-.2h.1l-.4-.2h0l-.3-.1-.1-.1-.2.1v.5h0l.2.1h-.1l-.5.1h0v.1h.1v.2h0-.1V17.6l-.1.2h0l.1.1v.2h0l.2.5h.1l.3-.2h0v.1h-.1v.1h.1v.1h0-.2 0v.2h.2l.6-.2-.4.3h-.4v.1h0v.2H11l-.1.1-.1.1.3.3h.2v.1l.2.1h.5l.2.2h.5v.1h0l-.2.1h0v.1h.1-.4l-.4.3h0l.4.3h-.5l-.1.2-.6.6V21.5H10.6h0v.2h.2l.4.6h0l.4.5h0zM.4 21.6l-.2-.1.1.3H.6l.1-.1h0l-.3-.1zM9.7 26h0-.1 0l-.1-.1h-.1 0-.2 0H9l-.2.1V26.7l.5.3h.2l.6-.1h0v-.2H9.8h0v-.2h0l.2-.2.1.1h0l-.1-.2h0-.2 0-.1 0zm2.8-9.8h0v.1h0v.1h.5v-.2h-.1v-.1h-.1l-.3-.2v-.1l-.1.1V16.3zm6.1 11.8l-.1.1v.2l.2.2h.4v-.3l-.2-.1-.3-.1zm.2-2.5V25h0-.1v.1h0V25.7h0zm-.7 2.2h0v.2h.4l.1-.2v-.2l-.1-.2v-.9l.1-.4V25.8h0l-.1-.1v.2h0-.2v.2h0l.1.1v.1h-.2v.2l-.1.2v1.1zm1.7-23.5h0v-.1h0-.1 0v.1h0zM10.4 23l.1-.1v-.1h-.2l-.3.3h.4z" stroke="#FBFBFA" stroke-width=".3" stroke-linecap="round" stroke-linejoin="round"/><path d="M17 53.6l.2.2v.2l.1-.2V53.5H16.7l-.1.1H16.9zm-.2 7.5l-.3.3-.1.4v.1h.2l.1.2v.2h-.1l-.2.2-.2.1v.2l-.1.1v.1l.1.2-.3.2h-.2l-.2-.2h-.7l-.3-.1-.2-.2v-.2l.2-.1v-.1l.1-.1.2-.3.1-.2V60.4l.2-.1h.2v.5h.8l.3-.1.2-.1h.2v.5zm-8.3 6.2h-.2v.1H8V67H8l-.1-.1-.1-.3h-.1l-.1-.1-.3-.2v-.1h.1l.2-.2h.2v.2l.1.1.2.2h.1v.2l.2.2v.2l.1.1v.1zm14-3.7v-.2l-.2-.3v-.2l-.1-.5-.2-.1V62l-.2-.4V61.4h-.1l-.1-.3-1 .1h-.2V61h-.2l-.3.2-.2.2-.2.3h-.1v.1l-.1.1h-.1v-.2l-.1-.1.2-.5.2-.2.1-.2h.2l.4-.2h.2l.2-.3.1-.2v-.7l-.2-.2-.2-.2H20l-.1.1.4.5.1.2-.2-.2h-.2l-.2-.2v-.7h-.2v-.2l-.2-.1v-.2l-.1-.2-.2-.3-.2-.1-.1-.1h-.2v-1h-.5V55.8l.1-.7V55l-.3-.3-.2-.2h-1l-.7-.3h-.2l-.3.1h-.1l-.3-.2H15l-.1.2-.1.2H14l-.8.5h-1l-.4-.3-.1.2v.6l-.1.1h-.1l-.1.3v.4h-.2l-.1.2v.1h-.6l-.3-.2h-.1l-.3.1h-.1v-.2h-.1v.1h-.1v.2H9v.2l-.3.3v.7h-.2V58.7l-.1.3-.1.2-.5.6v.6h-.9l-.2.3-.3.2h-.2l-.2-.1-.2-.2h-.1l-.3.2-.3.2.1.1V61.3l.1.1h.2l.1.2H6l.2.2h.4v.2l-.3.1-.7.7h-1l-.2.1-.1.2-.1.2-.1.1-.2.1-.4.1-.1.1v.2l.2.2.1.2.3.4.2.2h.4l.1.4.1.2.1.1H5l.3.1.1.1v.7l.2.2.1.1h.9l.5.4v.1l.1.1v.1h.1l.8.2h.1l.3-.2h.2l-.1.1h.1v.1H9l.4.2h.1l-.2-.4v-.1l.3-.1v.4h.1l.1-.1v-.2l.1-.2V66.8l.2-.1.3-.1.2-.1v-.4l-.2-.2V66l-.2-.2v-.1h.1V65.3h.2l.3-.2.3-.6.2-.2h.2l.3.1.4.4.1.3h.2l.2.5V65.9h-.2l.2.2h.1v.4l.2.2.1.1.2.1.1.1h.2l.1-.1h.1l.2.1.2.2v.5l-.2.2v.6l.2.2H14.4v-.1h.2l.6-.2h.2v.1h.5V68l.2-.2v.1h1l.2.1v.2h.1l.6.3h-.2v.2h.5l.4-.3.2-.2.3-.2.1-.1v-.2l.1-.2v-1l.1-.1h.2l.4-.2h.7l.1.2h.1l.1-.3h.1l.3-.2.2-.3v-.8l-.2-.2h-.3l-.3.2-.3.1.3-.3v-.1l.3-.6v-.2l-.1-.1v-.4l-.2-.1h.2V63h-.3v-.1h-.2V62.2h.2l.2.2.5.4.1.2.1.3V64l-.2.2v.4h.1l.1.1v.3l.2.1v.1h.1l.1-.2h.1V64.7l.1-.1V64l.2-.2v-.2z" fill="#7F807C"/><path d="M17 53.6h0l.2.2h0v.2h0l.1-.2V53.5h0-.4 0-.2 0l-.1.1H16.9zm-.2 7.5h0l-.3.3h0l-.1.4v.1h.2l.1.2v.2h-.1l-.2.2h0l-.2.1h0v.1h0v.1h0l-.1.1h0v.1l.1.2-.3.2h-.2l-.2-.2h0-.7l-.3-.1-.2-.2h0v-.2h0l.2-.1h0v-.1l.1-.1h0l.2-.3.1-.2V60.4l.2-.1h.2v.5h.8l.3-.1.2-.1h.2v.5zm-8.3 6.2h-.2v.1H8V67H8l-.1-.1-.1-.3h-.1l-.1-.1-.3-.2v-.1h.1l.2-.2h.2v.1h0v.1l.1.1h0l.2.2h.1v.2h0l.2.2v.2l.1.1v.1zm14-3.7v-.2h0l-.2-.3v-.2l-.1-.5h0l-.2-.1V62l-.2-.4v-.2h0v-.1h0-.1l-.1-.3h0l-1 .1h0-.2V61h-.2l-.3.2-.2.2h0l-.2.3h-.1v.1l-.1.1h-.1 0v-.2h0l-.1-.1.2-.5.2-.2.1-.2h.2l.4-.2h.2l.2-.3.1-.2v-.7l-.2-.2-.2-.2H20l-.1.1.4.5.1.2h0l-.2-.2h-.2l-.2-.2v-.7h-.2v-.2h0l-.2-.1h0v-.2l-.1-.2h0l-.2-.3-.2-.1-.1-.1h-.2v-1h-.2 0H18.1V55.8l.1-.7V55l-.3-.3h0l-.2-.2h0-1l-.7-.3h-.2l-.3.1h-.1l-.3-.2H15l-.1.2-.1.2H14l-.8.5h-1 0l-.4-.3h0l-.1.2v.6l-.1.1h-.1l-.1.3v.4h-.2l-.1.2v.1h-.6l-.3-.2h-.1l-.3.1h-.1v-.2h0-.1v.1h-.1v.2H9v.2l-.3.3h0v.1h0v.6h-.2V58.7l-.1.3-.1.2-.5.6v.5h0v.1h0-.1 0H6.8l-.2.3-.3.2h-.2l-.2-.1-.2-.2h-.1l-.3.2-.3.2h0l.1.1V61.3l.1.1h.2l.1.2H6l.2.2h.4v.2l-.3.1-.7.7h-1l-.2.1-.1.2-.1.2h0l-.1.1-.2.1-.4.1-.1.1v.2h0l.2.2.1.2.3.4.2.2h.4l.1.4.1.2.1.1H5l.3.1.1.1v.7l.2.2.1.1h.9l.5.4v.1l.1.1v.1h.1l.8.2h.1l.3-.2h.2l-.1.1h.1v.1H9l.4.2h.1l-.2-.4h0v-.1l.3-.1h0v.4h.1l.1-.1v-.2h0l.1-.2h0V66.8h0l.2-.1.3-.1.2-.1v-.4l-.2-.2V66l-.2-.2h0v-.1h.1v-.1h0v-.2h.2l.3-.2.3-.6.2-.2h.2l.3.1.4.4h0l.1.3h.2l.2.5V65.9h-.2l.2.2h.1v.4l.2.2.1.1.2.1.1.1h.2l.1-.1h.1l.2.1.2.2v.5l-.2.2v.6l.2.2H14.4v-.1h.2l.6-.2h.2v.1h.5v-.2h0V68h0l.2-.2h0v.1h1l.2.1v.2h.1l.6.3h0-.2v.2h.5l.4-.3.2-.2.3-.2.1-.1v-.2l.1-.2v-1l.1-.1h.2l.4-.2h.7l.1.2h.1l.1-.3h.1l.3-.2.2-.3v-.8l-.2-.2h-.3l-.3.2-.3.1h0l.3-.3v-.1l.3-.6v-.1h0v-.1h0l-.1-.1v-.4l-.2-.1h.2V63h-.3 0v-.1h-.2 0v-.4h0v-.2h.2l.2.2.5.4.1.2.1.3V64l-.2.2v.4h.1l.1.1v.3l.2.1v.1h.1l.1-.2h.1v-.2h0v-.1l.1-.1V64l.2-.2h0v-.1h0v-.1z" stroke="#FBFBFA" stroke-width=".3" stroke-linecap="round" stroke-linejoin="round"/><path fill="#7F807C" d="M27 68.3v.2H27.3l.2-.2h.2l.1.1H28.1l.2.2v-.4h.1l.2-.1.1-.2h.1l.4-.3v-.2l.2-.2.2-.1.2-.2v-.3l.1-.1.1-.2V66h.1l.1-.2h.1v-.4H30l-.1-.1v-.2l-.1-.1v-.2l.1-.4v-.2H29.7l-.3.1-.3.2-.3.3-.1.3-.4.7v.2l-.3.2-.1.2h-.2l-.1.1V67l-.1.1v.5l-.1.2-.3.4v.2"/><path stroke="#FBFBFA" stroke-width=".3" stroke-linecap="round" stroke-linejoin="round" d="M27 68.3h0v.2H27.3l.2-.2h.2l.1.1H28.1l.2.2v-.4h.1l.2-.1h0l.1-.2h.1l.4-.3v-.2l.2-.2.2-.1.2-.2v-.3l.1-.1h0l.1-.2h0V66h.1l.1-.2h.1v-.2h0v-.2h0-.2 0l-.1-.1v-.2l-.1-.1v-.2l.1-.4v-.2h0H29.7l-.3.1-.3.2-.3.3-.1.3-.4.7v.2l-.3.2-.1.2h-.2l-.1.1h0V67l-.1.1v.5l-.1.2-.3.4v.2h0z"/><path fill="#7F807C" d="M26.7 68.6v.1h.1l.1-.2h-.2"/><path stroke="#FBFBFA" stroke-width=".3" stroke-linecap="round" stroke-linejoin="round" d="M26.7 68.6h0v.1h.1l.1-.2h0z"/><path d="M72.7 86.3v-1l-.1-.4-.1-.3-.2-.5-.1-.3-.2-.3-1.8-1.3-.8-.4-2.2-.6v.1h.2l.2.1-.4.2-.3-.1-.3-.2H65.6l-.2-.2H65.1v.1h-.3l-.3.1-.4.2-.2.2-.1.2-.1.3-.1.3v.3l-.2.1-.1.2-.2.3v.2l-.2-.3h-.2l-.2-.1h-.2l-.1.1-.2-.2-.3-.6h-.2l-.1-.1-.2-.2h-.7l.1-.2.1-.1h.2l.1-.2.6-.9h.2l.6-.7h.2l.1-.1.1-.1.2-.6v-.5l-.1-.5-.6-1.6v-.1l-.1-.2-.1-.2H62V76l-.2-.2h-.1v-.4h-.2v-.1h-.2l-.2-.1-.6-.6-.4-.4h-.3l-.1-.2-.2-.2-.3-.2-.5-.8-.2-.2h-.2l-1.2.1-.2.2h-.2l-.1-.1-.3-.2H55.7v.2h-.1l-.1-.1h-.1l.5-.4h.5l.2.2H57.6l.8-.3h.4l.2.2.7 1h.2l.2.1H60.3l.3-.2H60.9l.3.3h.1l.1.1v.2l-.2.4.2-.1.1-.5-.1-.3-1.2-2-.8-1-.1-.4-.2-.8-.2-.3.2-.5.2-.3.6-.3-.2-.2-.9-.4-.1-.2-.1-.3v-.2h-.2l-.1-.1-.4-.2-.1-.2h-.1V65.7l-.1-.1v-.3l-.1-.3-.2-.3v-.2l-.2-.1-.2-.2v-.4l-.2-.2-.2-.2-1.5-1-1.5-.4-.3-.2h-.3l-.1-.1-.2-.1v-.2l-.1.3v.1h-.2v-.1H52v-.1l.1-.1.1-.2v-.2l-.1-.1V60.7l-.3-.1v-.1l-.3-.3-.2-.4-.4-1.5v-.7l-.1-.2-.2-.2h-.1v-.4h-.1v-.2l-.2-.3v-.1h-.1v-.1l-.2-.3v-.4l-.1-.2V54.7l-.1-.1v-.2l-.1-.1-.1-.2V54l-.1-.2v-.2h.1v-.3l-.2-.3V51.2l-.2-.1v-.4H49V50l-.5-.4h-.4V49.3h-.4l-.1-.1-.2-.2V49l-.1-.3-1-1.2v-.2l-.4.2v.1l-.1.2v.1l-.2.2-.2.1v.1h-.1v.1h-.1v.2l-.5.6v.1h-.5l-.1.1v.2l.2.1v.1l.1.2v.1l.2.4.1.2.1.2v.2l.1.1.2.3V51.9l-.2.1-.1.1h-.1l-.2.1h-.1v.2h-.3v.2H44v.2l-.1.1h-.7l-.7.6-.3.5h-.1v.5l-.1.1H42l-.1.1-.3.4-.1.2-.2.1-.3.2h-.2l-.4.6v.1h-.1l-.2.2-.2.3h-.2l-.3-.1h-.1v.4l-.1.2v.3h.2v.1H39l-.1.1h.5l-.2.2-.5.1h-.4l-.1-.1-.2-.1-.4.1-.1.1-.2.2.3.2h.1l-.3.2h-.1l-.1-.1H37l-.2.1-.1.4-.3.7.1.2v.2l-.2.2v.1h-.1l-.2.1v.2l-.2.3-.2.6-.2.9-.2.4v.1l-.1.1.1.3h.2l.6 1 .2.1.2.5.2.1v.8l.2.2.2.2.2.5.2.2.1-.1H37.8v-.3l.1-.3v-.1l.2-.1v1h-.3v.8h.1v.1h.2l.2.1.2.4V68h.2v-.2l.2-.2.2-.3v-.4l.1-.1v-.2h.1l.1.1v.5l.1.1.1.1h.5V67l.2-.1.3-.1.2-.2V66.3h.1v.4l-.2.2h-.2v.1l.3.6.1.1v.4h-.2l-.2.2h-.1l-.1.3v.1H40v.2l.1.3h.3l.2-.2v.2l-.3.3.1.1h-.1v.2H40l-.7.2-.2.1V72l.2.2.2.2h.6l-.3.3-.1.1-.4.5-.5.8v.2l-.1.1v.2l.8 1.8.2.2.2.3.3.2h.3l.3.1h.1V77h.2l.3-.1h.1-.2v.1h-.1v.4H41l-.1.1H40.5l-.3.1-.2-.1-.1-.1-.2-.2-.4-1.1-.1-.2H39l-.2.2h-.5l-.1.2v.4l.3.4.1.3.2.3v.2l.1.1h.3l.5.4.3.3V79l-.3.2v.1l.4.4.2.5v.1l.1.2v.2l.2.2v.2h.4l.3.2v.6h-.2v.2H41l-.4-.4H40l-.2-.2H39.5l-.4.3-.2.1v.2h-.1v.1h-.2V82.9h-.1v.5h.1l.1.1h.2l.1.2H39.4l.2.1v.2h.1l.2.1v.2H39.4v.1h-.1V84.7h-.1v.4l-.2.1V85.5H39v.1l-.1.1-.2.1v.6l.1.1h.1v-.2h.1l.2-.1.2-.2.2.2v.2l-.2.3v.1h-.6l-.1.1-.2.1-.3.2H38v.6l.3.2.1.1.3.2.2.2.8.1v.2l-.2.1v.4l.2.1v.1h-.3v.1h-.1v.1h-.1l-.1.1v.1l-.1.2-.3.4v.2h.1v.2h-.2v.2l.1.1v.1l-.1.1V91.6l.2.2v.4l.3.4.1.2.2.2v.2h.1l.2.2h.2l.2-.2h.1l.8.6v.1l.2.1v.2H41.7l.2.2h.2v.2l-.2.2V96.7l.5-.5V96l.1-.1.5-.3v-.1l.1-.2.1-.1H43.4l.2-.1V95l.1-.2h.1V95.3l-.1.1-.3.1h-.1l-.3.4-.4.4v.2l-.1.1v.2h-.1l-.1.1-.7 1-.1.2h-.2l-.1.1H41v.1l-.2.1-.5.7-.2.2h-.3l-.1.1.1.1v.1l-.1.1-.1.1V100h-.2v.8l.1.1V101.2l-.1.3-.1-.1v-.2h-.2l-.3.1h-.7l-.5.2h-.9l-.2-.2-.9-.2H35l-.9-.3-.3.2H33l-.3.1-1.2.1-.6.3h.1v.4h-.3v.1l.2.2v.1l.1.3V103h-.1l-.5.6-.2.1h-.5l-.2-.2h-.7v.8l-.1.5v1l-.2.4-.3.2-.1.2v.1l-.2.2-.5.4h-.1V107.5l-.1.2-.1.2-.1.2H26v.4l.1.1.2.1.1.1.1.1h-.4l-.1-.1H26V108.5h-.4l-.2.2v.5l-.1.5-.1.1-.5.3h-.2v.6h-.1l-.3.2-.8.9-.2.1h-.3v.2l-.2.2-.1.1h-.2l-.2-.2H22l-.3.1-.2.1-.5.3h-.2l-.2.3v1H21.5l.1-.1.1-.1.1-.1v-.4l.1-.1h.4l.3.1h.3l.4.3h.1l.1.2.2.3V114.4l.1.1v.1l.3.3h.1l.1-.2.2-.3h.4l.2-.3v-.5H24.7v-.1h-.1l.2-.1V113h.1l.1-.1h.1v-.1H25v-.5H25.5v.4l.1.2.3-.5.1-.1.3-.1h.1l.2-.2v-.1h.5l.1-.3V111.4l.1-.1V111l.2-.1H27.7l.1.2h.1l1.2-.1.2-.1.5-.4h.4l.6.2.2.2v.1h.2V110.7h-.1v-.1H31l.2-.2H30.6l-.1-.2h.4l.1-.2-.1-.2h.1l.1-.1v-.2l.1.1h.2v.1l-.2.1v.4h.1v.2l.2.1h.3l-.1.2v.2l.2.1h.2V111.3H32.4v-.1h.2l.1-.1h.1l.5.4.4.5.3.2H34.9l.1-.1v-.8l.1-.2.2-.1h.2v-.3h.1l.1.1h.1v-.3h.1v-.1h.1l.1-.3h-.4v-.4l.1-.1H36.1l-.1-.5v-.5l.1-.3.1-.1.2-.2V107.4l-.2-.1v-.1h.2v.3l.2.2.2.1h.1l.5-.2.2-.2v-.1l.1-.1h.3l.2-.2h.6l.2-.2h.5l.3-.2h.7l1.2.4L43 108l.2.3v.4l.1-.2.1-.1v-.2h-.2V107.7l.2-.1.2-.1h.2l.2.1 1.3.2.5.2H46.7v-.2l.3-.3h-.2v-.3H46.4l-.1-.2-.1-.2H46v.1h-.2l.3-.4.1.1H46.6l.3.2v.2l.2-.2h.1l.2-.2h1.1l.1-.1h.7l.1.2h.2l.2-.5h.5l.4-.1v-.1h-.1v-.1h.5l.2-.1V105.5l-.6-.6-.2-.2-.2-.1v-.1l.8.5.3.3.3.1.2.2.2.1v.1l.2.2H52.6v-.4l-.3-.3h.7v.2l-.2.2v.2l.1.1h.2v-.2l.2-.3v-.2H54l.2.1-.1.1h.2l.2.2-.2.2-.1.1v.1l.7.4h.2l.1-.1V106H55.5l1.1-.3h1.2l.9-.3h.7l1.4.5h.4l.2.2h.3l.4.2h.4l.2-.4.3-.1v-.2l.1-.1.3-.1 1.5-.3.3-.2.7-.6.3-.1 1 .3.2-.1V103.7l.4-.6.2-.2.2-.1h.6l.1-.1.1-.2H69.3l.3-.2.5-.2.1-.2.2-.3v-.9l-.1-.3v-.2l-.1-.2h.3v-.1l.1-.1v-.5l-2.3.1-.9.3-1.5-.2-.2-.2v-.4h-.2v.4h-.9V99h-.1v-.2h.3l.2-.3h.2l.2.1h.2V98.3l-.2-.1-1-.2-.5.1-.1.2-.5.1h.2v-.1l.2-.1V98l.5-.2h.2l.1.1H64.7l.1-.1.2-.1h1.2l.4-.3.3-.4.2-.3h-.3l.1-.1.1-.1V96h.1V95.3l-.1-.1h-.2l-.2.2h-.2l-.4.2-.2.2v-.2H65.4l-.1-.1.1-.1.3-.2h.2l.2.1h.1l.2-.1.1-.1V94.9h.1l.2-.3.3-.1.1-.1v-.2.1l.3.3.1.3h.7l.2-.1.4-.3.4-.3v-.5.2h-.5v-.1l.5-.6V93H68l.2-.1.4-.1h.1l.2.1H69.5v-.2l-.1-.1-.3-.1-.2-.1-.2-.2V92h.2l.3.3h.2l.5.7.1-.2.5-.5.2-.3.1-.1v-.2h.2l.6-.3v-.2l.2-.4v-.2l.1-.3v-1.1l.1-.1h.1l.2-.5.3-.8v-.2l.2-.6.1-.1v-.1l-.1-.6zm-19.8 20.4h-.1v-.2H52.4l-1-.4h-.2l-.2.1-.3.3-.1.2h-.2v-.1l-.5.2-.3.3-.2.3.1-.1h.4l.3.1 1 .7h.2l.8-.1v-.5l.3-.2h.1l.3-.2V106.8h-.1zM66.8 99h-.1l-.9-.3-.1.1-.1.3v.1l.2.2v.1h.2l.8.1h.2V99.2l-.2-.2zm-50.3 16.3l-.1.1v.2h.1v-.2zm-.3-.2v.1-.1zm11.6-13.2v-.4.4zm26 4V105.4h-.1l-.2.3h-.2v.1l.6.1v-.1h-.1zm-37.7 9.9v.1-.1zm0-.7H16v.1-.1zm.5 0v-.1h-.1v.1h.1z" fill="#7F807C"/><path d="M72.7 86.3v-1l-.1-.4-.1-.3-.2-.5-.1-.3-.2-.3-1.8-1.3-.8-.4-2.2-.6v.1h.2l.2.1-.4.2-.3-.1-.3-.2H65.6l-.2-.2H65.1v.1h-.3l-.3.1-.4.2-.2.2-.1.2-.1.3-.1.3v.3l-.2.1-.1.2-.2.3v.2h0l-.2-.3h-.2l-.2-.1h-.2l-.1.1-.2-.2-.3-.6h-.2l-.1-.1-.2-.2h0-.7 0l.1-.2.1-.1h.2l.1-.2.6-.9h.2l.6-.7h.2l.1-.1h0l.1-.1.2-.6v-.5l-.1-.5-.6-1.6v-.1l-.1-.2-.1-.2H62V76l-.2-.2h0-.1v-.2h0v-.2h-.2v-.1h-.2l-.2-.1-.6-.6-.4-.4h0-.3l-.1-.2-.2-.2-.3-.2-.5-.8-.2-.2h-.2l-1.2.1-.2.2h-.2l-.1-.1-.3-.2H55.7v.2h-.1 0l-.1-.1h-.1l.5-.4h.5l.2.2H57.5l.8-.3h.4l.2.2.7 1h.2l.2.1H60.3l.3-.2H60.9l.3.3h.1l.1.1v.2l-.2.4.2-.1h0l.1-.5-.1-.3-1.2-2-.8-1-.1-.4-.2-.8-.2-.3.2-.5.2-.3.6-.3-.2-.2-.9-.4-.1-.2h0l-.1-.3v-.2h-.2l-.1-.1h0l-.4-.2h0l-.1-.2h-.1v-.2h0v-.1l-.1-.1h0v-.3l-.1-.3-.2-.3v-.2l-.2-.1-.2-.2h0V64h0v-.2l-.2-.2-.2-.2-1.5-1-1.5-.4-.3-.2h-.3l-.1-.1-.2-.1v-.2l-.1.3v.1h-.2 0v-.1h0-.2 0v-.1l.1-.1h0l.1-.2h0v-.2l-.1-.1h0V61h0v-.2l-.3-.1v-.1l-.3-.3-.2-.4-.4-1.5v-.1h0v-.5h0v-.1l-.1-.2-.2-.2h0-.1v-.4h-.1v-.2l-.2-.3h0v-.1h0-.1v-.1h0l-.2-.3v-.4l-.1-.2V54.7h0l-.1-.1v-.2l-.1-.1-.1-.2V54h0l-.1-.2h0v-.1h0v-.1h.1v-.3l-.2-.3v-.3h0V51.1h0l-.2-.1h0v-.2h0v-.2H49v-.2h0v-.2h0V50h0l-.5-.4h-.4 0V49.3H48h0-.1 0-.1 0l-.1-.1-.2-.2V49l-.1-.3-1-1.2v-.2l-.4.2h0v.1l-.1.2h0v.1l-.2.2h0l-.2.1h0v.1h-.1v.1h-.1v.2l-.5.6h0v.1h-.5 0l-.1.1h0v.1h0v.1h0l.2.1h0v.1h0l.1.2h0v.1h0l.2.4.1.2.1.2v.1h0v.1h0l.1.1.2.3h0v.1h0v.2l-.2.1-.1.1h-.1l-.2.1h-.1v.2h-.3v.2H44v.2h0l-.1.1h-.2 0-.1 0-.4 0l-.7.6-.3.5h-.1 0v.2h0v.1h0v.2h0l-.1.1H42l-.1.1-.3.4-.1.2-.2.1-.3.2h-.2 0l-.4.6h0v.1h-.1l-.2.2h0l-.2.3h0-.2 0l-.3-.1h0-.1v.4h0l-.1.2v.3h.2v.1h-.2 0-.2l-.1.1h.5l-.2.2-.5.1h-.4l-.1-.1h0l-.2-.1-.4.1-.1.1-.2.2.3.2h.1l-.3.2h0-.1l-.1-.1H37l-.2.1-.1.4-.3.7.1.2v.2l-.2.2v.1h-.1l-.2.1v.2l-.2.3-.2.6-.2.9-.2.4h0v.1l-.1.1h0l.1.3h.2l.6 1 .2.1.2.5.2.1h0v.8l.2.2.2.2.2.5.2.2.1-.1H37.8v-.3l.1-.3v-.1l.2-.1v1h-.3v.2h0V68h.1v.1h.2l.2.1.2.4V68h.2v-.2l.2-.2.2-.3h0v-.4l.1-.1v-.2h.1l.1.1v.2h0v.3l.1.1.1.1h.5V67l.2-.1.3-.1.2-.2V66.3h.1v.4l-.2.2h-.2v.1l.3.6.1.1v.4h-.2l-.2.2h-.1l-.1.3v.1H40v.2l.1.3h.3l.2-.2v.2l-.3.3.1.1h0-.1v.2h-.1 0-.2 0l-.7.2-.2.1V72l.2.2.2.2h.6l-.3.3-.1.1h0l-.4.5-.5.8v.2l-.1.1v.2l.8 1.8.2.2.2.3.3.2h.3l.3.1h.1V77h.2l.3-.1h.1-.1 0-.1v.1h-.1v.4H41l-.1.1h0-.2 0-.1 0l-.3.1-.2-.1-.1-.1-.2-.2-.4-1.1-.1-.2H39l-.2.2h-.5l-.1.2h0v.4l.3.4.1.3.2.3v.2l.1.1h.3l.5.4.3.3h0v.2h0v.1l-.3.2h0v.1l.4.4h0l.2.5v.1l.1.2h0v.1h0v.1l.2.2v.2h.4l.3.2v.2h0V81.9h0v.1h0-.2v.2H41h0l-.4-.4h0-.5 0-.1 0l-.2-.2h0H39.5l-.4.3h0l-.2.1h0v.2h-.1v.1h-.2 0v.2h0v.1h0v.1h0v.2h-.1 0v.1h0v.4h.1l.1.1h.2l.1.2H39.3l.2.1h0v.2h.1l.2.1h0v.2h-.1 0-.2 0v.1h-.1v.2h0v.1h-.1V85h0v.1l-.2.1h0V85.5h0-.1v.1l-.1.1-.2.1h0v.1h0V86.2h0v.1h0v.1h0l.1.1h.1v-.2h.1l.2-.1.2-.2h0l.2.2h0v.1h0v.1h0l-.2.3v.1h-.6l-.1.1-.2.1-.3.2h0-.1v.2h0v.2h0v.1h0v.1l.3.2.1.1.3.2.2.2h0l.8.1v.1h0v.1l-.2.1h0v.2h0v.2h0l.2.1h0v.1h0-.3v.1h-.1 0v.1h0-.1l-.1.1h0v.1l-.1.2h0l-.3.4h0v.2h.1v.1h0v.1h-.2v.1h0v.1l.1.1h0v.1h0l-.1.1v.2h0v.1h0l.2.2h0v.2h0v.2l.3.4.1.2.2.2h0v.2h.1l.2.2h.2l.2-.2h.1l.8.6v.1h0l.2.1h0v.1h0v.1H41.7l.2.2h.2v.2l-.2.2v.1h0V95.3h0v.2h0v.1h0v.5h0v.1h0v.1h0v.1h0v.4l.5-.5V96l.1-.1.5-.3v-.1l.1-.2.1-.1H43.4l.2-.1V95l.1-.2h.1V95.3l-.1.1-.3.1h-.1l-.3.4-.4.4v.2l-.1.1h0v.2h-.1 0l-.1.1-.7 1-.1.2h-.2l-.1.1H41v.1l-.2.1-.5.7-.2.2h-.3l-.1.1.1.1v.1l-.1.1-.1.1V100h-.2v.8h0l.1.1V101.2l-.1.3-.1-.1v-.2h0-.2l-.3.1h-.7l-.5.2h-.9l-.2-.2-.9-.2H35l-.9-.3h0l-.3.2H33l-.3.1-1.2.1-.6.3h.1v.2h0v.2h0-.3v.1l.2.2h0v.1l.1.3v.1h0v.2h-.1l-.5.6h0l-.2.1h-.5l-.2-.2h0-.7v.4h0v.4h0l-.1.5v1l-.2.4-.3.2-.1.2v.1l-.2.2-.5.4h0-.1V107.5l-.1.2-.1.2-.1.2H26h0v.2h0v.2l.1.1.2.1.1.1.1.1h0-.4l-.1-.1h0-.1 0V108.5h0-.2 0-.2l-.2.2v.5l-.1.5-.1.1h0l-.5.3h0-.2v.5h0v.1h-.1l-.3.2-.8.9-.2.1h-.3 0v.2h0l-.2.2-.1.1h-.2l-.2-.2H22l-.3.1-.2.1-.5.3h-.2 0l-.2.3h0v.4h0v.1h0v.1h0v.4H21.5l.1-.1.1-.1.1-.1v-.4l.1-.1h.4l.3.1h.3l.4.3h.1l.1.2.2.3V114.4l.1.1v.1h0l.3.3h.1l.1-.2.2-.3h.4l.2-.3V113.8h0v-.2h0-.2 0-.1v-.1h-.1l.2-.1h0V113h.1l.1-.1h.1v-.1H25V112.5h0v-.2H25.5v.4l.1.2.3-.5.1-.1.3-.1h.1l.2-.2v-.1h.5l.1-.3h0v-.1h0v-.2l.1-.1h0V111h0l.2-.1H27.7l.1.2h.1l1.2-.1.2-.1.5-.4h.4l.6.2h0l.2.2v.1h.2v-.1h0v-.1h0v-.1h-.1v-.1H31h0l.2-.2H30.6l-.1-.2h.4l.1-.2h0l-.1-.2h.1l.1-.1v-.2l.1.1h.2v.1l-.2.1v.4h.1v.2h0l.2.1h.3l-.1.2v.2l.2.1h.2v.1h0v.2H32.4v-.1h.2l.1-.1h.1l.5.4.4.5.3.2H34.9l.1-.1v-.8l.1-.2h0l.2-.1h.2v-.3h.1l.1.1h.1v-.3h.1v-.1h.1l.1-.3h0-.4v-.4l.1-.1H36.1l-.1-.5v-.5l.1-.3.1-.1.2-.2V107.4l-.2-.1h0v-.1h.2v.3l.2.2h0l.2.1h.1l.5-.2.2-.2v-.1l.1-.1h.3l.2-.2h.6l.2-.2h.5l.3-.2h.7l1.2.4L43 108l.2.3v.4h0l.1-.2.1-.1v-.2h-.2V107.7l.2-.1.2-.1h.2l.2.1 1.3.2.5.2H46.7v-.2l.3-.3h0-.2v-.3h0H46.4l-.1-.2-.1-.2H46v.1h-.2l.3-.4h0l.1.1H46.6l.3.2h0v.2h0l.2-.2h.1l.2-.2h1.1l.1-.1h.7l.1.2h.2l.2-.5h.5l.4-.1h0v-.1h-.1v-.1h.5l.2-.1V105.5l-.6-.6-.2-.2h0l-.2-.1h0v-.1l.8.5.3.3h0l.3.1.2.2.2.1v.1h0l.2.2H52.6v-.4h0l-.3-.3h.7v.2l-.2.2v.2l.1.1h.2v-.2l.2-.3v-.2H54l.2.1-.1.1h.2l.2.2h0l-.2.2h0l-.1.1v.1l.7.4h.2l.1-.1V106H55.4l1.1-.3h1.2l.9-.3h.7l1.4.5h.4l.2.2h.3l.4.2h.4l.2-.4.3-.1h0v-.2l.1-.1h0l.3-.1 1.5-.3.3-.2.7-.6.3-.1 1 .3.2-.1V103.7l.4-.6.2-.2.2-.1h.6l.1-.1h0l.1-.2H69.2l.3-.2.5-.2.1-.2.2-.3v-.9l-.1-.3v-.2l-.1-.2h.3v-.1h0l.1-.1v-.5h0l-2.3.1-.9.3-1.5-.2h0l-.2-.2v-.4h-.2v.4h-.9V99h-.1 0v-.2h.3l.2-.3h.2l.2.1h.2V98.3l-.2-.1-1-.2-.5.1h0l-.1.2h0l-.5.1h.2v-.1l.2-.1V98h0l.5-.2h.2l.1.1H64.7l.1-.1.2-.1h1.2l.4-.3.3-.4.2-.3h0-.3l.1-.1.1-.1h0V96h.1V95.7h0v-.1h0V95.3l-.1-.1h-.2l-.2.2h-.2l-.4.2-.2.2v-.2H65.4l-.1-.1.1-.1.3-.2h.2l.2.1h.1l.2-.1h0l.1-.1V94.9h.1l.2-.3.3-.1.1-.1v-.2.1l.3.3.1.3h.7l.2-.1.4-.3.4-.3v-.5h0v.2h-.5v-.1l.5-.6V93H68l.2-.1.4-.1h.1l.2.1H69.4v-.2h0l-.1-.1-.3-.1-.2-.1-.2-.2V92h.2l.3.3h.2l.5.7h0l.1-.2.5-.5.2-.3h0l.1-.1v-.2h.2l.6-.3h0v-.2l.2-.4v-.2l.1-.3v-1.1l.1-.1h.1l.2-.5.3-.8v-.2l.2-.6.1-.1v-.1l-.1-.6zm-19.8 20.4h0-.1 0v-.2H52.4l-1-.4h-.2l-.2.1-.3.3-.1.2h-.2 0v-.1h0l-.5.2-.3.3-.2.3.1-.1h.4l.3.1h0l1 .7h.2l.8-.1h0v-.5h0l.3-.2h.1l.3-.2h0V106.8h-.1zM66.8 99h-.1l-.9-.3h0l-.1.1-.1.3v.1l.2.2v.1h.2l.8.1h.2V99.2l-.2-.2h0zm-50.3 16.3l-.1.1v.2h.1v-.2h0zm-.3-.2h0v.1h0v-.1zm11.6-13.2h0v-.2h0v-.2h0v.4zm26 4h0v-.2h0v-.1h-.1l-.2.3h-.2v.1l.6.1h0v-.1h-.1zm-37.7 9.9h0v.1h0v-.1h0zm0-.7h0-.1 0v.1h0v-.1zm.5 0h0v-.1h-.1 0v.1h.1z" stroke="#FBFBFA" stroke-width=".3" stroke-linecap="round" stroke-linejoin="round"/></g></svg>