<svg width="71" height="106"><path d="M43 24l.7-.3.8-.6-.6-.1h-.6l-.2.2-.2.2-.1.3-.1.3v.3l.3-.3zm27.9 70.4v-.1l-.2-.1-.3-.1-.1-.1-.1-.1-.1-.1-.6-.3h-1.4l-.3-.2-1.4-2-.1-.3-.1-.3-.2-.7-.2-.2v-.1h-.4l-.1-.1-.1-.2V89l-.2-.3-.5-.4v-.8l-.3-.2v-.9l-.4.2h-.2v-.6l-.4-.4v-1l-.3.2h-.2V84l-.2-.3-.3-.4-.1-.2v-.1l.1-.2v-.2h-.6v.1l-.1-.3.2-.5h-.5l-.1.1h-.2v-.2l-.1-.1h-.1v-.2l-.3-.7.1-.2.3-.2.1-.2v-.2h-.5l-.2-.1.1-.2v-.6h.3v-.4l-.2-.4-.3-.2-.1-.3.2-.4H60v.1h-.5v-.2l.1-.2-.1-.4V76l-.1-.2v-.3h.1v-.7l-.4-.8-.4.4h-.8l-.4-.3v.3l-.1.1-.4.1-.1.2h-.2v-.1H56.4l-.1-.1-.2-.1h-.2l-.1.2H55.5l-.7-.4h-.4l-.1-.1-.1-.1-.1-.2v-.9l.2-.4v-.3l-.2-.3-.3-.1-.2-.1-.1-.1v-.1l-.2-.2V71h-.1l-.6-.4-.7-.3-.2-.2-.2-.2v-1l-.1-.2-.3-.7-.8-1-.2-.3-1-.8-.3-.4-.1-.5-.2-1.2-.2-.6v-.3l.2-.3 1.3-1.3.1-.2.1-.3V60l-.1-.2v-.3l.2-.2.1-.2.2-.2v-.4l.4-.7.2-.4.2-.7.3-.4v-.2l.1-.3-.1-.2-.4-.5-.2-.6-.2-.2h-.3v-.8l.3-.3.2-.3.2-.2.3-.5h.1l.2-.1H52l.1.1h.4l.2-.2.2-.4.4-.3.4-.3h.6l.5.2.7-.2h.7l.3.2h.5L58 51h.4l.1-.1h.1l.1-.1H59.5l-.5-.5v-.5l.2-.5.1-.4.1-.2.2-.1h.4l.1.2.1.3.2-.1.3-.1.1-.2.1-.2-.1-.3-.5-.6v-.2l-.1-.1h-.4l-.1.2v.1l.2.2-.1.1H59.5v-1.2H58.7v-.3l.1-.1.7-.7.2-.2V44.5l.2-.3.7-1.1.2-.3.1-.6v-2.4l.2-.2.1-.3v-.2l.1-.5.2-.6v-.5l-.1-.2-.3-.5h.1l-.1-.1.1-.5-.1-.5-.3-.6-.2-.4-1.6-1.5-.3-.2-.2-.2H58.3l-.1-.1-.6-.4h-.3l-.2-.1-.3-.2h-.4l-.1.3v.5l-.1.2-.2-.6-.7-1-.3-.8-.2-.3-.2-.3-.3-.2h-.2l-.5-.3-.8-.7-2.1-2-.7-.8-.3-.4-.5-.2-.6-.2-1.5-.2H47v.2H46.6v-.1h-.1l-.4-.3-.8-.5-.6-.2h-.6l-.6.2-.5.3-.4.5-1.5 2.7-.2.6v1.9l-.3.5.2.1H40.3l-.1.1-.2.1-.4.4h-.1l1-1.4v-3.2l.2-.2V25.3l.4-.8v-.6l.2-.3.1-.2.2-.3.6-.4.2-.3.2-1.5v-2.4.1-.9l-.3-.5L41 16l-.2-.2v-.3l-.7-1-.3-.5v-.2l-.3-.1-.4-.2-.2-.1V14l-.1-.3-.9-1.4-1.3-1.3-1.6-1.3-1.3-1.3h-.2V8l-.4-.4-.1-.1-.4-.2L30 6l-1.5-1-1.3-.7-1-.5-.4-.4-.3-.2-.5-.2-.6-.4-.2-.1H24v.2l.1.4.1.2.9.5 1.3.9 1 .4.7.4.5.5.3.5-1.3-1-.1-.3-.2-.1-.8-.2h-.1v-.1l-.2-.2-.4-.1-.4-.2-.8-.6-.4-.2-.7-.2L23 3l-.5-.5-.8-1.3-.5-.5-.5-.3-.3-.1.9 1.3 1.5 1.6.6 1v.3l-.2.3-.3.2-.3.1h-.3l-.7.2-.3.1-.1.2-.4.3V6.6l-.2.2-.2.6-.1.3-.2.1h-1.2l-.3.3-.2.2-.3.2-.7.3-.1.2-.2.2-.3.3-.7.4-.3.3v.4l-.4.2h-1.9l-.3.2-.2.2-.3.5-.3.4v.6l-.2.4v.4l-.2.1H11.7l-.1.3-.2.3-.3.3-.6.2-.2.4v.4l.4.6h.2l.2.1.2.2v.5h.2l.1.1.1.1.1.2.2.4.1.2v.4l-.4.3-.2.4v.4l.2.5.2.1 1 .8h.2l.3-.6.2-.2.3-.1H14.5l.1.2h.8l.2.1.2.2.5.3.1.2.1.2v.5l-.1.2-.2.2-.2.2-.2.1-.2.2-.1.3-.2.7-.2-.2-.4.1-1.8 1.1-1 .3-.3.1-.2.2-.4.6-.3.2-.3.1h-.2l-.5-.4H8.6l-.1-.1h-.1l-.1-.2h-.6v.1l.2.2V26l-.4.5H6.4l-.2.2-.3-.1h-.3l-.2.2h-.2l-.3-.1h-.3l-.1.2-.5.5-.3.5-.2.6V29.3l.3.1.2.2.1.2.2.4.1.3v.4l-.1.2v.2L4 32v.1l.2.4v.2l.3.1v.1l.1.1.1.1V34l-.1.2H4.1l-.1.2-.2.4-.1.2h-.2l-.2.1-.5.1-.2.1-.1.2-.2.5-.7 1-.2.2-.5.3-.1.1.2.6.5.5 1 1.2 1.1 1.2 1.1 1.2 1.1 1.2 1 1.2L8 45.9 9 47l1.1 1.1.7-.1H12l.2.2h.1l.2.1H14l.1.2H14.4l.2-.3.1-.1h.3l.6.2h.4l.2-.2.6-.6.3-.1.6-.2h.2l.1.4.2.2.6-.2.2.1.4 1 .2.3.3.2.7.4.4.2v.4l-.3.9v.8l-.1.2-.1.4v1l-.3.5v1.2l-.2.2-.4.6v.5l-.1.1-.2.1H19l-.1.1-.4.4v.5l.2.2.2.2h.4V58l.1-.1H19.6l.1.1v.3H21v-.1h.7l.2.3v.1h.2l.2-.2h.2V58.7H22.8l.1.1h.5l.2.2.9.4v.1l.2.2.1.1H25.1v.7l-.5.5-.1.3.1.2v.2l-.1.1v.7l.1.3.3.2.6.2.3.2v.2l-.2.3v.5l.5.5.2.3.1.1v.5h.8l.1.1.1.2v.2l-.2.1-.2.1-.3.3-.2.3-.1.3v.8l-.2.2-.6.2-.2.2-.1.4V69.5l-.1.2-.1.1-.3.2-.6.5-1.2.4-.3.4v.4l.2.3.3.3v.4l-.2.6v.2h.2V74.5H23l-.2.5-.4.6v.1l-.2.7H22l-.1.2v.5l.1.1h-.2v.5l-.1.1h-.1l-.4.7-.1.3-.1.4v1.1l-.3 1.2V84.2l.4.8V85.3l.2.2.2.3v.5l.4 1v.4l.1.1v.2l-.1.2v.2l.1.2.3.2.5.3.5.4h.2v.1h.5l.3.4v2l.1.1v.2l-.2.2v.4l.1.3v1.2l-.3.3v1l.2.2h.2l.3-.1h.1l.6.2h.2v.2l-.2.6-.2.3.3.4.1.1h.2l.1.1h1.1l.3.3.4.6.3.3.4.4.1.1.3.5.1.1h.1l.2.1.1.1.1.2v.1h.7l.1.2v.3l.1.2.3.2.1.1.3.7.2.2.2.2 1 .3 2.3.4.7.2.3.2.2.2.3.3v.3l.2.3.3.3.3.2h.8l.4-.2.2-.2.3-.3.3-.5.2-.2h.2l1.5.2.3-.2h.2v.1h.1l.1.1h.2l.4-.7.1-.2v-.3l-.1-.3-.3-.6v-.3l.2-.3 1.2-.2.4-.2v-.2l-.1-.3v-.1h.1l.3-.2.2-.1v-.2l.1-.2.1-.2.2-.1.2.3h.1l.2.2h.4l.3.1h.4l.1-.1h.2l.2.1.1.1.2.3v.2h.5l.7.1.6-.1.2-.3.3-.4v-.3l.1-.2v-.5l-.1-.2v-.1h.3l.4.2h.5l.5-.4 1.2-.5h.9l1.2.2h.5l.6-.2.5-.3 1-1.2V96l.4-1h.2l.2-.1.3-.2.2-.2.2-.2.2-.2.3-.1h.3l.6.3h.2l1.3-.7.7-.3.4.4v.4l.2.3.3.2.4.2h1.3l.2.2.2.2h.2l1 .2h.4l.6-.5h.8l.2-.1.2-.2h.5l.2.1.2.2h.4l.5-.2.6-.2v-.2z" fill="#7F807C" fill-rule="evenodd"/></svg>