<svg width="140" height="116"><path d="M19.8 90.6l-.1-.3-.1-.3V89.1l-.4-.6-.2-.2h-.2l-.3.3v-.1l-.1-.2-.3.5v.7l.2 1.1v1.5l.4.3-.2.3h1.1l.1-.4.2-.5v-.5l-.2-.3.2-.2v-.2zm-.3-4.1l-.1-.3v-.4h-.1l-.5-.3-.3.4.1.5.4.5.2.4V88.2h.2l.1-.1.3-.6.1-.2V87l-.4-.4zm19.7 26h-.6v.2l.1.4-.2.2h-.1l-.2.1.2.5.3.2h.8l.3-.2v-.6l-.2-.5-.4-.3zm-12.6-5l.4-.1v-.4l-.3-.1h-.2v-.1l-.1-.2H26l-.1-.1-.1-.3-.4-.4-.4-.3-.4-.1-.5.2-.3.3.1.4.3.4.4.3.9.3v.5l.2.3.2.2.2-.4.2-.2.3-.2zM140 35.3l-.2-2.6-.2-1-2.1-4.2-.5-.7-.6-.7-.3-.5-.5-.6-.2-.4v-.3l.2-.6v-.2l-.2-.8.1-.5.1-.3.1-.3v-.4l-.4-.8v-.8l-.2-.3-.4-.1h-1.4l-.4-.6v-.5l.1-.6V17l-.3-.5-.2-.2-.2-.4.2-.6.9-2.6v-1l.1-.2v-.2l-.3-.6V10l.2-.5.5-1v-.2l.1-.3.1-.2.2-.2.3-.1.2.1.1.2h.7l.3-.3.2-.4.4-.8v-.5l.2-.4.4-.5.1-.3V2.9l.6-1.4.1-.6-.3-.8-.3.3-1 1.3-.3.2-.2.2-.2.6V3l-.3.2V4l-.1.2-.4.3h-.3l-.6-.3h-.5l-.2-.2-.5-.4-.7-.5h-.5l-.4.3-.5.6-.1.1-.3.2-.1.2v.1l-.1.6-.3.5-.2.2-.4-.1h-.4l-.2.3-.2.5-.2.4-.7.6-.8.6-.6.2-.3-.2-.2-.3-.5-.3-.3-.2v.2l-.9 1-.5.7-.4.2-.3.6v.2l-.1.1-.3.1h-.3l-.5-.3-.2-.1h-.3l-.2.1v.1l-1.1.6h-.4l-.4-.2-.3-.2-.7-.7-1-1.3-.2-.4v-.2l-.3-.2-.1-.1-2-.6-.7-.4-.5-.8-.3-.2-.6-.1-.2-.1-.1-.3-.1-.9-.1-.3-.4-.5-.1-.2-.6.6h-.4V4l-.1.3v.5l.2.1h.1V5h-.7l-.3-.1-.2.1v.2l-.1.1v.2l.3.2-.1.2-.2.1h-.1l-.3.6-.6.3-1.6.2h-1l-1.6-1-.2-.2-.2.5-.3 1.4-.1.6-.4.6-.5.2h-1.4l-.6-.1H99.3l-.1.1v.4l-.2.2h-.4l-1.2-.4-.5-.1-.1.3V10.5l.6.4.3.5v1.1l.2.6.4.3.9.6.4.5.7 1.6.3.4.4.3.4.4.1.5-.2.5-.4.4-.5.3-.3.4-.4.4V21l-.3.4h-.5l-1.4-.3H97l-.7.2-.6.1-.7-.1-.7-.4-2.2-2-.5-.7-.3-.7-.4-.7-.7-.4h-.3l-.6.1H89l-.4-.2-.3-.2h-.3l-.4.3-.2-.5-.4-.4-.5-.2-.4.2-.1-.3-.2-.2-.2-.1-.2-.2-.7.6-.4.2-.5.1-.6.4-.7.3H80L80 16l-.7-1h-.1l-.4-.2h-.2l-.5-.5-1.6-2.4-.2-.6-.1-.6v-.9l-.8.5-.6 1.3L74 13l-1.4.4-.6-.3-.4-.5-.9-1.5v-.3l.1-1.2v-.4l-.1-.3-.5-.1-1.5-.3-.2-.1-.5-.3h-.2l-.2-.1h-.7l-.4-.2-.4-.2-.3-.3h-.5l-.3.2-.8.6-.4.1-.2-.1-.1-.5-.2-.1h-.3l-.2.5-.2.1h-.4l-.7-.2H61l-.4.2-.3.4-.3.4-.3.3-.5.3-.4-.1-.4-.2-.5-.1h-.3l-.2.2-.2.2h-.7l-3-.5-1.4-.6h-.7l-.4.2-.3.2-.5.2-.3-.1-.2-.3v-.2l.1-.1h-.2l-.1.2-.7.7-.2.1h-.3l-.2-.1L48 9h-.2l-1 .2-1 .5-.8.2-.8-.6h-1.4l-.2.3-.1.2-.1.1h-.9l-.3-.2-.3-.2-.2-.1-.4-.2H40l-.3.1H39l-1.6-.4h-.9l-.1-.2-.1-.2V7.6l-.2-.2-.2-.1-.3-.1h-.2l-.3.2v.2l-.1.2-.2.2-.5.3-.4-.1-.4-.2-.4-.2h-.5l-1 .6-1 .7h-.5L30 9l-.1-.1v-.1l-.5.1-.7.5-.5.2-.5.1h-1.8l-2 .6-1.6.2-.5.2-.9.5-2 1.8-.5.3-1 .2-.5.3-.4.4v.9l-.2.5-.1.5-.6.7-.2.5v1l-.1.3-.4.5-1.6 1.2-.6.6-.5.9-.4 1.4-.3.5-.4.6-.1.2-.1.3v.5l-.2.3-.6.5-2.6 1.3-.9.7v.5l.6.6.9.6-.5.1-1.2.8-.5.1-1.6.2-2.2-.2-1 .1-.5.6v.3l.3.5.1.2V33.1l.1 2-.1 1.7v1.9l1.4 3.7.5 1L4 44.6l.4.9.3.3.5.3v.2l-.1.1-.2.1-.2.1-.1.1v.2l.2.2v.2l-.3.4v.5l.2.3.2.7v1l.2.5.2.3.1.2.1.2v.6l-.2.8-.3.3-.2.4v1.2l.3.4.4.3L7 56l.7.6 2 2 .7.4.2.2.1.2v.4l.1.2.4.4.8.5.3.3.1.5-.2.4-.7.6-.3.5-.1.5-.6 4.4.2 1 1.3 2.2.6.6.4 1 .2 1.2 1.2 2.4 1.2 1.5.7 1.2.3 1 .1 1.5-.4.7.2.2.4.4.1.2v.4l.3.4.1.4.2-.6v-.5l-.2-1.1v-.4l.3-.8v-.5l-.2-.8-1.3-1.4-.4-.9h.1l1 1.4.5.3.2.2v.4l.2.3.2.4.1.1 1.1-.5h.2l.3.3.4.2h.3l.3-.3h.1l-.1.3-.4.2h-.7l-.2-.3h-.5l-.2.1-.5.3-.2.5-.2.5v.8h.1V82l.2.2v-.6h.2l.1.4v.2h.3l.3-.2v.2h-.2v.2l.1.1.2.2h.6v.2h-.5l-.4-.1-.4-.2-.3.3V84l.2.3.3.4v.2h-.1l-.4-.3-.2-.2-.5.3.5.8.3-.2.3-.2H19.4l.1-.3v-1.4l.2.3.2.1h.2v.2l-.2.6.2-.2v1.2l.2.6.7.3.3.5.3.1h.2l.2-.2V86H22.3l-.2.3.2.3.9 1.5-.4-.1-.4-.6-.4-.2h-.4l-.3.2-.3.3-.2.2h-.1v-.2h-.2l-.2-.1.2.3.4.6.1.4.1.4v.4l.1.3.4.3.1-.1.2-.1.4-.2v.4l.3.7v.4h-.1l-.4-.3-.7.4-.7.7-.2.3v.2l.2.3-.2.1-.3.2v.3h.7l.1.3.1.2v.4l.5.7v.3l.1.5v.5l-.2.3-.2.3-.1.3v.7l.3 1.3v.9l-.3.5-.1.5.2.2h.2l.8.7-.4.5h.3l.6.2.6.2.1-.2.3-.1h.7l-.1-.4.4-.5 1-.6.6.3.7.3.6.4.2.6.3-.1.1-.1.1-.1h.8l.3-.3.2-.4v-.3l-.2-.4v-.6l.4-.7v-.6l.2-.5.7-1.2.2-.5V97l-.6.3.5-.8.2-.4-.2-.3v-.2l.4.1v.1l.2.2h.2l.3-.6h-.1v-.1h.7l.8.3.6.5.3 1 .2.2.3.1.8.1.2.1.6.4-.4.9.5 1.3.7 1.4.4.9v1.3l-.2.4-.3.2-.3.2-.3.2v.2l-.2 1.1v.2l.4.1v.2h-2.2l-1 .4-.4.6-.1.4-.2.5-.3.5-.2.2-.4.2v.8l.5-.1.5.3.3.3.2.7.2.1.3.2h.2l.1-.1.1-.1h.3v.1l.1.4h.1V112.6l.2.4.4.2h.5l1-.3h.8l.6-.1-.2-.5-.5-.5-.5-.3v-.2l.2.1h.4l.3.1.2.2v.2l.3.1h1.4l.3-.2.3-.3.6-.8.2-.5.1-.4-.2-1v-.6l.2-.5v.2l.1.4.1.1V108.6h.5l.6 1.2v.2l.8.6h.3l.5.1 2.5.7h.5l.6-.1h.5l1.3.3h.7l.4-.6.2.2h.2l.1-.1h.4l.3.4.1.1.4.2v1.2l.3.4h.4l.5-.2h.8l.2.2 1 1 .3-.2.3.1.5.6v.1l.5.1h.4l.2-.3 1.1-1.6.2-.4.3-.4.3-.2.5-.1h1l4 .4h1.2l1-.4.6-.7 1-1.6.3-.4.4-.3 2.6-1.3.6-.6v-.9l-1-1.7-.4-1v-1l.1-.3.3-.4.4-.3.3-.3.6-.3.2.1v.4l.3.4.4.1 3.7.7.4.3 1 .7.3.2.3-.3.8-1.6 1-1.2.4-.2.8.2.6.3h.2l4.2-.8.6-.3.5-.3.6-.4.8-.2h.7l.4.6.5.8.9 1.2.2.4.3 1 .2.3.3.5.5.3h.5l.3-.3.3-.5.2-.6v-.5l1 .8.2.3.5.5.6.5.8.4.7.2 1.5.1.7.2.5.5-.6-2.6-.7-1.2-.1-.4v-.8l.2-.3.5-.1h.8l.2-.2-.3-.5-.4-1.5-.3-.5-.5-.4h-.4l-.4.2-.3.6-.3-.6-.4-.4-.9-.8-.4-.4-.6-1-.4-.4-1.4-.3-.6-.4-.2-.8-.1-.6-.4-.2h-.4l-.3-.3v-.4l.4-2 .3-1v-.7l-.4-1.4V85l-.4-.2-.7-.1-.3-.2-.3-.6v-.5l.3-.5.4-.4.6-.5h.4l1.3.4h.7l.4-.3.2-.6.7-.8.2-.3v-.7l.7-.7 1.2.2 1.4.4h1l1.9.6.5.3.2.2.4.6.2.2h.3l1.5-.3h.6l.3.1.6.4.3.2h.4l.2-.4-.2-.6-.7-1.2v-.8l.3-.4.2-.4V77.2l.5-.6-.1-.7-.8-1.5-.2-.7.6-.2h.6l.3.2v.3l.2.1h.4l.8-.5h1.2l2.3.3-.2-.4 1.3.3.6-.1.5-.7.3-.9.4-.6.6-.4h.8l2 .1 1-.1 1-.4.6-.4 1.8-1.8.9-1 .7-.5.3-.3.2-.4.7-.8 1.6-.8 1.7-.5 1.1-.1.7.4.8 1.2.5.4h.6l.9-1.2.6-.5.7-.2.4-.5.2-.6.1-.7.8-2.2v-.6l-.2-.3V59l.2-.3.1-.4.1-.8v-.8l-.7-3v-2.2l-.4-.8-.8-.8-.2-.3v-.4l-.2-.9-.3-.6V47l.2-.3h.1V46.1l-.4-.3v-.4l3.8-9.3v-.9zM27.4 110.7l-.3.2H27v-.1l-.1-.2V110.3l.2-.3v-.2h-.5l-.3.1-.1.4.2.4.5.8.3.2.2-.2v-.3l.2-.2V110.7h-.1z" fill="#7F807C" fill-rule="evenodd"/></svg>