<svg width="135" height="116"><path d="M21.5 1.6l.3.1-.2-.2-.5-.1-.2-.2.4.2 1 .3 2 1 .3.3.3.1.5.3.7.3h.4l3.2.4h.8l2-.6.4-.1.3-.2h.1l.2-.1H35v.1h.2l1.6.8.4.1H39l.7.2.7.2 1.5.3h.1l.1.1h.2l.3.3.5.3.7.5.4.4h.2l1.3.2h.2l.1.2.4.1h.1l1.6.2 1.7.2.4.1h.2v.1l.4.4.3.1.1.1.1.3v.2l.3.3.3.4v2.1l1 2.2.3.3.9 1.1.5.5.6.4 2.4 1 2.7.4h3l1.9.3 1.8.6 1.4.3h.4l.4.2.2.2h.1l1.3.3.7.3.7.2.6.1v.1l.3.3.2.1.1.1.8.1 1.3.5.3.1.2.2.8.8 2 1.3.5.4.2.2.6.3h.3l.2.1 1.2.7.4.2h2.3l.4-.1.4-.1.7-.3 1-.5v-.1h.5l.1-.2 1.1-.7 1.4-1.5.4-.5.2-.3.3-.2.2-.1.5-1 .4-.9v-1.4l-.2-.3-.2-.5-.2-.2-.3-.4-.2-.2-.5-1.3v-.7l-.1-.2-.2-.3v-.9l.1-.7.1-.3V11l.1-.2.8-1.3.2-.3L93 7.9v-.2l.5-.4h.2L94 7h.1l.2-.2 1.2-.8 2-.7 1.1-.7 1-.4h2.4l.6-.2.4-.1 1.3-1h.1l.4-.1.4-.1.2.2h.4l.4.2h.3l1.9-.2.1-.1h.5V3l.3.3h1.1l.4.2.8.5h.1l.2.1h.5l2 .6.4.2h.2l.1.1h.3v.1H116l.3.2h.4l.2.1V5.8l-.1.2v.5l.1.2h.2l.1.2v.1l-.2.6-.1-.1v-.2h-.1l-.2.6V8h.2l.5.2h.2l.1.1.2.2.1.2.1.2h.1l.2.1.1.2.1.1v.1V9h.5l.3.3h2.3l1.4.3 1.4.5-.2.2.2.1.5.4h1.8l2.3.2.7-.2.2-.2h.7l.1.1h.2l.1.1h.3l.3.2 1 .2.3.1.2.3-.1.3v.4l.3.2.5.6v.1l.1.3.2.2-.6.4-.2.3-.3.7-1.4 1-.1.3V18l.3.9v.1l.3.5.1.5.4.6.1.4v.3l-.1.3-.2.3v.5l-.3.5v.2l-.1.3-.2.3-.5.6-.2.3-.2.2-.1.1-.2.3-.3.6-.1.3v.5l.3.3.7 1.6v.4l-.1.4v.3l.5.7v1.5l.1.3.7 1.4.2.5V111.6h-8.4v4.3l-1-.6-2.1-1-1-.5-1-.5-1.1-.5-1-.5-1-.5-2.2-1-1-.6-1-.5-1-.5-1.1-.5-1-.5-1.1-.5-1-.6-1-.5-1.1-.5-1-.5-1-.5-1.1-.5-1-.5-1.1-.5-1-.6-1-.5-1.1-.5-1-.5-1-.5-1.1-.5-1-.5-1.1-.5-2-1-1.1-.6-1-.5-1-.5-1.1-.5-1-.5-1.1-.5-1-.6-1-.5-1.1-.5-1-.5-1.1-.5-1-.5-2.1-1-1-.6-1-.5-1.1-.5-1-.5-2.1-1-1-.5-1.1-.5-1-.6-1-.5-1.1-.5-1-.5-1.1-.5-1-.5-1-.5-1.1-.5-.8-.4h-.2l-.3.2-.5.2-.5.2-.5.2-.5.2-.5.3-.4.2-.5.2-.5.2-.5.2-1 .5-.4.2-.5.2-.5.2-.5.3-.5.2h-.1l-1.5.8-1.4.7-1.4.7-1.5.8-.5.2H42l-.4-.3-2-1.8-2.2-1.7-.4-.4-1-.5-.9-.2-.7-.2-.8-.1-.7-.2-.7-.2-.8-.1-.7-.2-.8-.1-.7-.2-.7-.2-.8-.1-.7-.2-.8-.2-.7-.1-.8-.2-.7-.2-.7-.1-.7-1.2-.6-1.1-1.5-3-.6-1-.2-.3-.3-.1-3-1-2-.5-1.6-.5h-.4l-1 .3-.9.3H10l-1-.8-.2-.2-.1-.3-.2-.8-.2-.2-1.2-.7-.1-.2v-1.2l-.1-2.2-.1-.6-.3-.5-4.8-6-.2-.5.2-.4.1-.2.2-.3.3-.2v-.5l3-1.2.2-.2.4-1v-.3l-.2-.2V55l.3-.9V54l-.2-.1-.4-.2-.1-.2-.2-1-.7-2.2v-.2l.2-.4v-.5l.2-.1.4-.4V48.4l-.2-.2V48l.2-.1.2-.1.2-.2.6-1.8v-.3L5 42.6l-.2-.5.7-4.3v-1.6l-.2-1.3-1.4-4-1-1.7-1-1.4-1-1-.2-.2 2-1 1.9-.8h.8l.2-.2 1-1.2 1-1.2.7-.8.6-.9V20l-.1-.6v-.8l-.3-.5-.2-.8-.7-1.5v-.1l.1-.6.1-.2.6-.5.5-.8.5-.3h1l.4-.2h.1l.1-.2.1-.1.2-.3.3-.3.1-.3.1-.6.2-.2H12.3l.2.1h.1l.3-.2.3-.2.3-.2.3-.7.3-.2 4.8-2 .5-.2.3-.3.2-.2v-.4l-.3-.3-.5-.5-.2-.3V5l.1-1v-.8l.1-.6V2l.3-.8V1h.4l.2.2v.2h.2l.3.2 1 .1" fill="#7F807C" fill-rule="evenodd"/></svg>