<svg viewBox="0 0 154.2 115"><path d="M21.8 38.7v-.4l-.2-.1h-.1l-.1.1V39l-.3.2v.2h.2l.2.1.1.1h.2V39.2l.1-.2V38.7Zm9.7-1.7h-.2l-.1-.1v.1h.1l.2.2h.1l-.1-.2Zm1-.3h-.2v.2h.2v-.2ZM9.3 35.3h-.1L9 35V34.8h-.2l-.2.1V35.3h.1l.1.1v.1H9V35.8H9V36h.2l.1-.2v-.5Zm19-1.7v.2l.1.2.2.2v.1h.1l.1.1.1.1v.2l.4.2.4.4.2.1h.1l.1.1v-.2H30V35l-.1-.2v-.5h-.6l-.2-.1v-.5l-.3-.4h-.1l-.1-.1h-.2v-.1h-.1V33.5Zm15.5 21.6-.2-.2-.1-.2v-.2h-.2v-.1V55.1l.2.1v.1l.1.1h.2v-.1Zm-7-.7h-.2v-.1h-.4.4l.2.2v-.1h-.1Zm-1-.4H35.4V53.7h-.8l.3.1v.1l.2.1h.2v.2h.2l.2.1v.1l.1.1h.1v-.2l-.2-.2Zm6 0V54h-.1v-.1h-.2v-.3h-.2v.2l.1.2v.2h.1v.1h.1v-.1l.1-.1Zm-22.3-2Zm20.6-.5Zm0 0v.2l.2.3.1.1.2.1v.1h.1l-.1-.6h-.2l-.1-.1-.2-.1Zm0 0Zm-5.6 2v-.1h-.2l-.1-.2V53l-.1-.2H34V52h.1V51.6l.1-.6V50.8v.5l-.2.4v.2l-.2.6-.1.1v.1h-.2l.2.1h.2l.2.1v.5h.1v.1l.2.3h.2l-.1-.2Zm5.1-4.5V49.4h.1V49.1ZM38.5 48v-.4H38v.4l-.1.4V48.8l.1-.4.2-.4h.2ZM30 45h-.2v-.1h-.2l.1.1h.1l.1.1h.1Zm17.7 5.2h-.3L47 50h.3l.1.1h.2l.1.1h.2l-.1-.1ZM43 43.4h-.2l.2.1.1.2V43.4Zm-2.2-1v.1Zm-.1 0h-.1V42v.1l-.1.1v.2h.1Zm-7-6.2.3-.5V35.4l-.3-.4v-.4h-.4v.2h-.4v.1l-.1.2v.7h-.1v.1h-.2v.2l.2.1h.1v.1h.2l.1.1.2.1h.5l-.1-.1v-.2Zm-10.2-12-.1.1.1.2H23.8l.1.1v-.1l-.2-.2-.2-.1Zm69.2 37-.1.1h.2V61l-.1.2ZM23.5 79h-.1v.1H23.7h-.2Zm15.7-1.7H39V77L39 77H38.7v.2l-.1.1.2.1.1.1H39.3V77.1Zm.5-2.3v.1h-.1v.2l.1-.1V75ZM58.5 67H58.2v.2l.2.1V66.9Zm-.6-.7h-.6V66.6h.5l.2-.1v-.2Zm-1.3-.8Zm.6.6v-.1l.1-.2h-.1v-.2l-.2-.1H56.7v.5l.1.1.3.1h.1Zm-.5-1h-.1v-.1h-.1v.2h.1Zm60.5 12.8h.2l.2-.2v.2l.2-.1.2-.2h.2l.1-.1v-.1h-.3l-.1.1h-.1l-.3.2h-.1l-.2.1-.1.1ZM93.4 65l-.1-.1v-.1.4h.2l-.2-.2Zm39.8 14.6v.1Zm2.3-1h-.1v.1l-.1.1.2-.2V78.3v.2Zm0-.3Zm0 0v-.1Zm.2-.8v.4h.1v-.4Zm2.2-7.6-.1.1h-.1l-.1.1h-.5l-.1.2-.2.3V71.2h.1l.2-.1V71h.1v-.1h.1l.1-.3.2-.1v-.1l.1-.1.2-.3Zm0-2.6V67v.2l.2.1-.2-.1Zm-.6 1.5.1-.2.1-.2v-.2h.2V67.8l.1-.2v-.1h-.1l-.1-.2V66.5h-.4l-.1-.2-.3-.4h-.1v-.1h-.4l-.5.1h-.5l-.2.2h.2l.1-.1h.2v.1H136V66H136.3V66.4l-.4.2h-.4l-.2-.1h-.4v-.1h-.2l-.3-.2h-.3H134.4v.1H133.4l-.1-.1-.1-.1h.4v.1h.2-.2l-.4-.1h-.2l-.2-.2H131.9l-.1.1H132.4h-.7l-.1.1H130.3l-.1.1-.3.2-.1.1-.5.1h-.2v.1h-.2l-.3.1h-.3l-.2.1H127.6l-.8.2H125.9l-.4.1-.4.2h-.1l-.3.2h-.4l-.1.1-.2.1-.2.1h-.1l-.5.3v.1l-.3.6v.2l-.1.1.2-.1v-.2l.1-.2v-.2h.1v.1l-.1.3v.2h-.1l-.2.3v.1l-.1.4-.1.4v2.1h.1v.2l-.2.3-.4.2-.2.3h-.1v.2l-.1.1v.5l-.1.8v.1l-.2.2-.1.1h-.1l-.1.1-.3.4-.3.2h-.2l-.1.1-.4.3-1 .4-.2.2v.1l-.2.1h.4V77l.1-.1.3-.2.3-.2v.1l-.1.1h-.1l-.2.1-.1.1-.1.1v.1l.1.2H119.3l.2.1v.1l-.2.4.3-.1h.1-.4v.2h-.1v.1h-.2l-.2.1-.2.1h-.1l-.1.2h.1v.1H117.6l-.2-.1h-.1v.1h-.1v.2h-.2v-.1l.1-.2v-.1h-.2v-.2h-.1v-.1h-.2v.1l.2.1h-.4v-.2h-.1v.1-.2h.2l.1-.1h.1v.1H117V78l-.2-.2-.2-.2h-.2l-.7.1h-.9l-.3.1-.4.2h-.4v.8-.5l-.1-.2h-.1v.1h-.1l-.4.3-.2.1h-.8l-.1.1v.1h.1v.2l-.1.1V79h-.2V78.7H110l-.7.4h-.1l-.2.1H109.3l.2-.1.1-.1.3-.1h.1v-.1h.1v.2l-.3.1h-.4v.2h-.1l-.1.1h-.3v-.1h-.4v.1h-.1l-.4.2h-.2l-.3.1-.6.1h-.1l-.2.1h-.4l-.2-.2-.2-.4-.3-.3-.1-.2-.1-.3h-.1l-.1-.1h-.2l-.6-.2h-.1V78h-.1l-.3-.3-.2-.1h-1.3l-.4-.1-.3-.2-.3-.2v.2l.3.1.2.1.2.1H101.5l-.1-.1-.4-.1h-.4.1v-.2h-.2v-.1h-.1l-.1-.1h-.1V77h.1l.2.1.2.1.2.1v-.1h-.2l-.2-.1-.1-.2h-.1v-.2l-.1-.1-.1-.3-.2-.1h-.1l-.1-.1-.1-.1v-.2h-.1V75.4h-.2l-.4-.3-.1-.1V74.8h-.1V74.4l-.2-.2-.1-.5-.1-.4-.1-.4-.1-.1-.2-.3-.3-.4-.3-.3-.1-.2h-.1v-.1l-.1-.2H97l-.3-.2-.2-.4h-.1l-.1-.1v-.2h-.1l-.2-.1-.1-.2-.5-.5-.2-.4V69l-.3-.4-.3-.6-.2-.6v-.1l-.1-.1-.3-.6V66.2H93.7l-.4-.6v-.2l-.1-.3v-.3l-.1-.4v-.1l-.1-.2V64h-.1v-.2l-.1-.1v.1l.4.6h.1v.1l.1.3v.1h.1l.2.3.2.3h.1l.2.2.2.1v.4h-.2v.1H94V66.8l.1.2v.2h.1V67l.1-.1.2-.3v-.7l-.3-.2-.3-.3-.5-.5-.6-1V63l-.1-.2-.1-.1v-.4l-.2-.4.1-.4v-.1.2h-.2V61h.1l.2-.2.2-.5v.3-2.8l.1-.8v-.2.4l-.1.1V57h-.2.2l.1-.1v-1.1l.3-1.8.8-2.7.6-.9.2-.4.2-.4v-.2l.1-.2.1-.1v-.5l.1-.5H95v.1H94.5V48.5H94.3l-.1-.1H94l-.1-.1-.2-.2h-.1v-.2h-.2l-.2-.1H93v-.1H91l-.3-.2-.1-.2h-.2V47h-.2l-.1-.1h-.4l-.2-.2-.2.1H89v-.2h-.2v-.1l-.2-.1v-.1h-.4l-.2-.1h-.6l-.1-.1v-.4h-.2v-.2l-.1-.2-.2-.5v-.2l-.1-.2-.1-.1-.2-.2-.2-.2v-.1l-.1-.1H86v-1h-.1v-.1l-.2-.1v-.1l.1-.1V41.3l-.2-.1h-.1V41H85V41h-.1v-.1l-.1-.1h-.1l-.1-.1v-.1h-.2V40.2h-.1V40h-.1v-.2H84v-.1h-.2v-.1h-.1v-.1l-.1-.1v-.1l-.1-.1V39h-.1l-.4-.2H83v-.2H82.6v-.2h-.1V38.2l-.2-.1V37.8h-.1v-.1l.1-.1h-.1l-.1-.1v-.2H82v-.1H82V37l-.2-.1v-.1l-.2-.4v-.1h-.1v-.1l-.1-.1-.1-.1h-.1v-.4l-.1-.2v-.2h-.2V35l-.3-.2V34.5h-.1v-.1h-.3v-.2H80l-.3-.2-.1-.1v-.2l-.2-.1-.3-.1H79v-.2h-.2V33h-.4V33h-.1v-.1h-.1v-.2H78v-.1H78v-.1h-.2v-.1H77.4v-.1h-.1v.1h-1v-.1H75l-.2-.2H74.5V32H74v.2l-.2.2h-.6l-.2.1H72.8v.1l-.2.2v.2h-.1v.2h-.1v.1l-.2.3v.5H72v.5h.1-.1l-.2.2h-.2l-.1.3-.2.1-.1.1v.2l-.1.1h-.8v-.1H70l-.1-.1h-.1l-.2-.1-.2-.2V35h-.2l-.4-.1-.3-.2v-.2H68l-.3-.1-.4-.1h-.1L67 34h-.2v-.1l-.2-.1v-.2h-.2l-.1-.2H66.1l-.3-.2h-.1V33h-.1l-.2-.2v-.2h-.1v-.2l-.1-.2H65l-.1-.1-.1-.3h-.1V31.5l-.2-.2V31h.1v-.4l-.1-.1h-.1l-.1-.2-.1-.2h-.1V30l-.1-.1v-.2H64V29.3l-.1-.1v-.1l-.2-.2h-.2v-.2h-.1v-.1H63l-.2-.3h-.2l-.1-.2H62.2L62 28h-.1l-.2-.3-.3-.2-.2-.1-.1-.1v-.2H61l-.1-.1h-.1l-.1-.2h-.1l-.3-.2v-.1l-.4-.3h-.1v-.1h-.2V26h-.1l-.2-.2H59l-.2-.1h-.2v-.1l-.2-.1v-.1h-.1l-.2-.2V25l-.1-.3-.1-.1-.1-.2h-.2l-.1-.1H57.3l-.2-.1H50v1.9H38.5l-.1-.1-.3-.1H38l-.2-.1-.2-.1h-.2l-.2-.2h-.4L35 25l-1.7-.5-1.6-.6-1.7-.5-1.7-.5-1.6-.5-1.7-.5-1.7-.6h-.1v-.5h.1l.1-.1v-.1h.1v-.2h-1l-.3.1H21l-.3.1h-1.2l-.3.1H18.3l-.6.1H16.8l-.3.1h-1.2l-.3.1h-1.2v.4l.1.2v.1l.3.4.2.1h.2V22.6l.1.2v.4l.1.1.1.1H15.2v.2h.1v.1h.2v.1h.2l.1.1.1.2v.2h-.1v.1h-.4l.1.1h.1v.1l.1.1v.4h-.1v.1h.1l.2.2.1.1h.1v.1h.1l.1.2.2.2.4.5.2.3v.4l-.1.1v.2H17.4l.1.2.1.1.6.4v.3l.1.4v1h.2v-.1h-.1v-.1h.1v-.2h.1l.1.1v.1l-.2.1h.4v.1l.2.1v.2l.1.1v.6l.1.3v.1l-.1.3h.2v.1h.1v.1l.1.2v.4l.4.3h.1l.2.2v.1H20.6l.1.1.3.2.3.1.3.2.1.2h.4l.5.2.4.4v.1l.5.3v.2h.1l.1.1h.2l.1.1v.1l.1.1v.2h.1l.1.1v.1H24.6l.1.1.1.1h.1V36.3h.2v.1l.1.1v.1l.2.1.1.1v.1H25.8l.1.1V37.2h.2v.1h.1v.1h.1v.2h.1v.2l-.1.3v.2l-.1.1v.1h.1v.4l-.1.1v.1H26v.1l-.1.1-.1.2h-.1.2-.2v.1h-.1l-.1.1v.2H25.9v-.1h.1v.1l.1.1v.1h-.1v.5h.1v.1H26.4V40.3l.1.1h.2v.1h.2l.1.1v.1l-.1.1h-.5v.2H26L26 41l-.2-.1-.2-.1-.1-.1h-.1v-.2h-.1V40H25l-.1.1v.1h-.2l-.1.1H23.2l-.2-.2h-.8v.2h.1v.2l.1.1h.2l.1.2H23.2v.1h.2v.1h.1v.2h.1v.1h.2l.1.1.3.1.2.2.1.1.1.1v.2l.1.1v.4h.2v.2h.4v.1l.2.1h.5l.2.1h.1l.1.3.3.3h.1l.3-.1h.2l.1.1.2.1.1.3v.2h.1l.3.2.2.2h.2l.1-.1v-.1h.2v-.2h.5l.4.3V44.3h.1l.2-.2v-.3l.1-.1h.1v.5H30v.1h-.1v.1h-.2v.2h.2v-.1h.1v-.1h.1V44.9h.1v.1h.1v.1h.1v.2l.1.1v.1h.1l.1.1h.1l.2.2h.1l.2.2h.1v.1h.1l.2.1.2.3H32.3l.1.1h.1l.3.2h.4v.1l.2.2.1.2v.2h.2l.1.1.1.1.1.2h.1l.2.8V49.6h.1v-.8l.1.2v1.7l-.1.2-.1.2v.6l-.1.1v.2l-.1.1v.1l.1-.1v-.2l.1-.1v-.1h.1V52.7l.2.1h-.1v.1l.1-.1V52.5v.1l.1.2h.2v-.4h-.1l.1.1v.1l.1.1v.1h.2-.1v.1l.2.2h.1v.1h.1v.4l.1.1v.1h.1v-.1H35.9l.1-.1v-.1h.1v.2l.2.2v.2h.1l.2.1.3.2v.1l.2.1h.2-.4l.7.3.2.2.4.1.1.1.2.1.3.2v.1l.2.1.2.3h.1l.2.2.3.2.4.5.3.2h.1l.6.3h.1l.3.2v.1l.3.5v.2h.2V58.9l.2.4.1.5.1.3v.1l.2.2v.1l.2.1H43.6l.2-.1v-.2H44V60h.1v-.1h.1l.6-.4h.1l.1-.2.1-.1V58.9h.1v-.4h.1V58l-.2-.2v-.2H45l-.2-.1v-.1l-.5-.1h-.1V56.7l-.2-.1-.2-.2h-.1v-.2l-.1-.1V56h.1v-.2H43l-.1-.1V55.4l-.1-.1h-.1v-.1h-.2l-.4-.2v-.2l-.2-.1v-.1h-.4v.3l.1.2v.2l-.1.1h-.1v.1l-.1.1h-.1l-.1-.2h.2l.2-.1H41v-.1H40.6l-.1-.1-.2-.3-.2-.1v-.2l-.1-.2V54l-.1-.1-.1-.3v-.5l.2-.1v-.7H40V52h-.1v-.1h-.1v-.1l-.1-.1h-.2l-.2-.2-.1-.3V51L39 51l-.1-.2V50.5l-.2-.2-.1-.1v-.5h-.4l-.2-.2-.1-.1v-.2h-.1V49h-.1l-.2-.3v-.2h-.1v-.2l-.1-.1V47.3l-.1-.1-.2-.5v-.4H37v-.1l-.2-.1V45.7h.1v-.2h-.2l-.2-.1v-.7h-.1l-.2-.1-.2-.2-.2-.1v-.1l-.4-.2h-.1v.4l.1.2v.2h.1l.1.1.2.1.1.2v.2H35.5l-.1-.3h-.2V45l-.1-.1v-.1H35v-.5l-.1-.2h-.1l-.1-.1V44l-.2-.1v-.4l.2-.1v-.1l-.3-.2h-.2l-.2-.1H34l-.2-.1V42.5l-.2-.1v-.1l-.1-.1V42l-.1-.3v-.1l-.1-.2h-.1l-.2-.1h-.1l-.1-.2h-.1V41H32.3l-.1-.1v-.1l-.1-.1H32l-.1-.1h-.1V40.3h-.1l-.2-.2V39.5h-.2V38.6l-.3-.2V37.7H30.4l-.3-.2v-.1L30 37V37l-.1-.1v-.1l-.2-.2V36.3l-.1-.1h-.3l-.1.1h-.1v-.5H29v-.1h-.4v.2h-.2l-.2-.3h.1V35h-.1l-.1-.1v-.1H28v-.4h-.1l-.4-.5-.7-.5-.4-.3h-.1V33l-.1-.1-.5-.5h-.2v-.1H25l-.1-.1V32l-.1-.3v-.1h-.2l-.2-.2-.2-.1-.1-.3-.2-.3-.1-.2V29l-.2-.1V28l-.1-.3v-.2l-.1-.1-.3-.1-.1-.1V27H23v-.2h-.1v-.2l.1-1.4V25l.1-.1.2-.2v-.2h-.1V24H22.8v-.2h-.1v-.1l-.1-.1h-.2v-.1h-.1l-.1-.1v-.1l.1.1H22.8l.2.2h.1l.1.2H23.4l.1.1.1.1h.4l.7.5.4.2.1.1.1.1h.1l.1.1.2.1h.3l.2.1H26.5v-.1h.1v-.5.1H27l.2.1h.2l.6.4.1.2v.4l.5.2h.2l.7.2h.2-.1v-.1h.1v.1h.2l.1.2h.1v-.1h.2v.2h.2V27.2l-.2.1V27H30v1.1l.2.5v.2l.6.5.2.3v.5h.1l.1.1.2.2v.7l.1.1v.4h.2v.1l.1.1.1.2v.1h.1v.2l.1.1.1.1h.1v.1l.2.4h.1l.2.1v.2h.1v.7l.2.1v.1-.1h.5V34.9h.1l.1.1V35.6h.2l.1.1.1.1h.1v.2l.2.1.2.2H35.1v.2h-.2v.2l.7.5v.2h.1l.1.3h.2l.1.1.5.2H36.9v.4l.2.1v.2h.1l.2.2v.2l.2.1.4.4.1.1h.2v.1h.5l.1.1v.2h.1v.1h.2v-.5h.2v.2h-.1v.1h.7l.2.1h.4v.1l-.2.1v.1h-.1v.2h.2v.1h-.1V41h-.2v.2l.2.3v.4l.1.1v.2H40.9v.1l.2.1H40.6v.1h.2l.3.2.2.2v.2h.5l.2.1H42.4v.1H43v.2l.2.5-.2-.2.1.1v.1l.1.2v.2l.1.2.1.1.2.2h.1l.1.1h1-.1v-.1h-.2v-.2h.2v.1h.1l.2.1h-.1v.1h.1l.2.2.4.3v.1l.1.2v.1l.1.2v.3H46v-.1H46h.1v.2l.2.1h.1v.1h-.1v.2l-.2-.1V46.4h-.2v.2h-.1l-.1.3v.1h-.1V46.7l.1-.2-.1.2-.2.3v.2h-.1l-.2.2-.1.2V49.1h.1V48.8H45.5l.1.1V49.3H45l.2.1H45.8v.1l.2.1v.1h.1v-.2l-.3-.2h-.1V49h.1l.1.1h.1v.2h.1v.1h.4l.2-.3h.3V49h.1v-.2h.2v-.3h.1v.1l-.1.2v.2h-.1v.1l-.3.3v.1h-.2l-.2-.1-.1.1-.1.1.2.2v.1h.2v-.1h.5V49.5h.4v.5h.2v.1h-.2.5l.2.2h-.5.5l.2.2.4.1.2.1v.4h.1l.1-.5.1.1V51.2l.1.1h.5v.2H50.4l.5.3v.1h-.4l-.1-.2h-.1V52H50l-.1-.1-.3-.3v-.1h-.2.1l.1.2.1.1.4.6v.2h.4V51.9h.2v.6l.1.2v.1h-.1l-.1-.1h-.1v.1l.1.1V53.3h.1l.4.3.3.2-.1-.1h-.1l-.1-.2H51v-.1h.2v.1h.2l.2.2h.1v.2h.2v.1h.2l.1.1h.2l.1-.2h-.1.2l.2.3V54.5h-.2.1-.1l-.6-.3-.4-.2v-.1.1l1 .6.2.2.2.1h.1v.2h.1l.3.2.6.4.2.2h.1l.2.2.6.5.1.2v.2h.1v.1l.1.1v.2h.1l.2.1v.1l.2.1v.1l.1.1h.1v.1l.1.1.2.2h.1l.1.1.2.3v.1l.2.3v.2H57.6l.3.4.1.1h.1l.8 1 .1-.1h.1v.1l.2.2.2.3.4.3.1.2v.2h.2v.2l.2.3.1.3V64.2l.4.4.4.8v.2h.1v.1h.2l.3.2h.1v.1h.3v.5l-.1.1V68h-.2l-.1.1v.1h-.1l-.2.2-.3.3v.2H61l-.2.2h.1l.3.1h.5l.2.3.2.2v.2l-.1.1h-.2l-.2.2h-.3l-.1.1h-.5l-.5.3v.2l.2.1v.2l.1.1.1.1.1.1V72l.1.1v.1l.3.3.1.2v.1l.2.1v.1l.2.1.2.4.2.2.2.2h.1v.1h.2l.2.4v.2h.2V74.8l.2.1.1.1.3.2H63.9v.2h.5v.2h.2l.2.1h.4v.1H65.4v.1h.4V76.2h.1v.1h.2l.2.2.4.1.5.2 1 .8v.1l.2.2h-.1v.1l.2.1.2.1.1.2.4.6.3.1.1.1h.1l.2.1h.3v.1l.4.1H71l.2.1h.2l.4.3.5.2h.2l.5.1h.3l.1.1.3.1.7.2.2.1H74.9l.2-.2h.5l.2.2h.1l.2.1.2.1V81.2h.1l.2.2.3.4.2.1h.3l.2.2v.2l.3.1.5.2.5.3.1.1.2.2v.2h.4l.3.2h.2l.3.2h.2l.3.1.3.1 1 .4.6.3h.4l.3.2h.2l.1.1.1.1h.2v.2l.2.1.3.2h.2l.1.1H85.1l.1.1h1v.2H86.9l1 .3.1.1h.6l.4.5.3.2.1.2h.1l.4.2h.5l.4.2H91.4v.1h-.4.2l.1.1.5.2.1.1.3.2v.1h.1l.1.2h.4l.2.1h.1l1.8.1h.2l.2.1 1 .7h.3l.4.1.3.1h.2l.3.1h.1l.1-.1h1l.4-.3h.3l.3-.2h.1l.2-.1.1-.1h.4V89h.1l.1-.1h.3l1-.4v-.1l.1-.2h.2l.1-.1h.1l.1-.2H103.1l.1-.1v-.1h.8l.2-.1h.5-.5l-.1-.1H104.4l.1-.1H103.5v-.1h.1v-.1h.2l.2-.3h.1l.1-.1H104.6v.2h.1v.4-.1H105v-.1h.1v-.1h.4v.3h-.2l-.3.2v.1h1.1l.2.1h.1l.1.1 1.1.5.4.1h-.2v-.1l-.1-.2h-.1l-.2-.1h-.3.1V88l-.1-.1H106.8l-.2-.1h-.1l.3.1H106.5l-.4-.3h.1V87.3h.2l.1.2h.2l.1.2h.6v.1h.1v.1h.1l.1.1.5.1h.1v.1l.1.1.1.1v.1H108.1l.7.4.4.3.7.5 1 .8h.2v.1l.1.2.4.4.3.2v.1h.2l.1.1.3.2H113l.1.1V92.3 92l-.3-.1v.1l.5.6.8.7.5.5.3.3.2.3.2-.1.1-.2V94h.1v-.4l-.1-.2v-.2l.1-.2V92.7h.1v-.1h.1l.1-.1v-.2l-.5-.6V91.4h.1l.2-.4.4-.7.2-.3.3-.6.3-.4.2-.4h.1v-.2l.1-.1H122.4V88l.1-.1-.1-.1V87.5h.1V87.1h.1V86.8h-.1l-.2-.1v-.1h-.2v-.2h-.4l-.1-.1V86l-.1-.2-.3-.4-.2-.1v-.1h-.1l-.4-.1-.2-.2v-.1h-.4v-.2h-.1l-.2-.2v-.1h-.2l-.1-.2-.1-.1V84h-.2V83.6H118.6l-.1-.1h-.2l-.1-.1h1.8v-2.3h7.5V80.6h.1l.3-.2h.1l.1.1.1.1h.1l.1.1.2.2h.1v-.2l.3-.1v-.2l.1-.1h.1V80h.1V80l.1-.2v-.1h.1l.2-.1V79.2l.1-.1.2-.1v-.5h.1l.1-.1h.9v-.2h.1V78l.2-.2.2-.3h-.1v-.2.2h-.2l.2-.2h.1l.1-.1v.1h.1V77h.2v-.2h.1v.1h.1V78l-.1.1-.1.2v.2h.1l.2.2h.2l.1.1v.1h.1v.4h.1V79 79.4l.1.1v.1-.3l.1-.2.2-.4.1-.3V77.7l.1-.2.1-.1.1-.1v-.1l.2-.5.1-.6h.1l.1-.3v-.2l.1-.3v-.1l.2-.2h.1-.1V75H134.2v.1l-.1.1-.1.1v.1h-.2V75l.1-.1v-.1l.1-.2h.6v-.1l.1-.1.1-.4V73.7v.2h-.4.4v.1l-.2.1h-.6v.1h-.2v-.1h-.1V74l-.2-.1V73.5h.3v.1l.1-.1v-.2h.1v-.2l.2-.1V73H134.6l.2-.3h-.1V72.3v.1h.1V72.9h-.1V73.2v-.2h.1V71.2h.1l.2-.1V70.8l.6-.7.2-.2h.2v-.2h.2v-.1l.2-.2.3-.4.3-.3Zm.3-2.7v.2-.2Z" /></svg>