<svg width="101" height="116"><path d="M95.3 45.8l-1.8-6-2.2-1.7-1.5-2.1.6-7-.6-1.4-2.2-1.8-.8-.3-2.4.4h-.8l-1-1.5-.5-2.4-1.8-3-1.5-3.6-1.4-2.1-.8-2 1.1-3.7-1-2.4-2.4-1.3-9-2.6L62 1l-2.2.6L58.7 3l-.9 1.6-1.1.6-2.7.3-1.4.6-5.6 4.5-.9 1.2L45 14l-2.5 7.7-3 5.5-.2 4-.6 4-3.5 3.6-2 .8-4.3 1.3-2 .9-4.4 3.7-.4.6-1.7 1.9-4.6 9.1-1.3 3.7-1 6.4-.2 11.9-1.6 5.1 2.2 1.3.2 2.2-1 6-1.2 2.8L9 97l-5-1-3.2 1.2.9 2.9 2.6 3 11.6 10.5 4.2-2.1 5.6.7 9.4 3 6 .6 17.2-2.8 16.9-5.4 2.5-1.6 1.6-2.2 2.6-4.9 1.2-.7 1.3.2 1-.4.8-2-.1-1.2L85 93l-.1-1.5-1.6-3.5 3.4-5 5.6-4.6 5-1.5-1.2-3.4.5-3.3 2.2-6.4 1-6 .3-5-.9-2.3z" fill="none" fill-rule="evenodd"/></svg>