<svg width="171" height="115" viewBox="0 0 171 115" fill="none" xmlns="http://www.w3.org/2000/svg">
<path d="M118.273 30.3996L118.296 30.4139L118.434 30.4999H118.435L118.437 30.5011L118.573 30.4794L118.746 30.4233L118.896 30.3355L118.956 30.2284L118.952 30.2296L118.954 30.2266L118.919 30.2395L118.845 30.286L118.803 30.1945L118.79 30.1737L118.925 30.1134L118.942 29.9607L118.919 29.8041L118.929 29.7313L118.891 29.7114L118.89 29.7108L118.736 29.573L118.734 29.5718L118.733 29.5715L118.717 29.5628L118.673 29.5399L118.672 29.5396H118.672L118.565 29.5022L118.334 29.4217L118.331 29.4206L118.314 29.5355L118.344 29.7904L118.333 29.9279L118.271 30.1678V30.3987L118.273 30.3996ZM102.636 27.5363L102.579 27.5205L102.527 27.4772L102.527 27.4766L102.526 27.476L102.476 27.4479L102.422 27.4772L102.415 27.5942L102.416 27.5951V27.5954L102.593 27.7662L102.834 27.878L103.017 27.816L103.133 27.9035L103.396 28.2148L103.473 28.3061L103.605 28.7002L103.606 28.7008L103.678 28.7587L103.797 28.8234L103.85 28.8523L104.111 29.1318L104.18 29.1841L104.182 29.185L104.182 29.1853L104.259 29.2102L104.317 29.2067L104.383 29.1935L104.986 29.1648L105.115 29.1268L105.153 29.1616L105.154 29.1625L105.156 29.1637L105.178 29.1757L105.234 29.2064L105.278 29.2383L105.28 29.2406L105.36 29.1648L105.49 29.0879L105.61 29.0671L105.662 29.1549L105.686 29.2272H105.687L105.687 29.2283L105.748 29.2318L105.829 29.2035L105.915 29.1853L106.214 29.0771L106.386 29.0405L106.443 29.0019L106.499 28.9123L106.443 28.8324L106.408 28.7423L106.389 28.6347L106.384 28.5009L106.423 28.3745L106.497 28.2613L106.544 28.1507L106.499 28.034L106.497 28.0351L106.496 28.0334L106.466 28.0509L106.385 28.0872L106.448 27.842L106.355 27.6498L106.164 27.5117H106.164L106.163 27.5111L105.939 27.4271L105.722 27.3774L105.713 27.3707L105.687 27.3513L105.61 27.2747L105.583 27.2595L105.505 27.2407L105.294 27.1459L105.255 27.1237L105.225 27.1059H105.225L105.223 27.105L105.045 27.1059L104.714 26.9063L104.609 26.8428H104.609L104.607 26.8416L104.426 26.7723L104.309 26.7899L104.146 26.8639L104.041 26.8814L104.034 26.9051L103.709 27.0184L103.626 27.0728L103.532 27.0836L103.424 27.0845L103.297 27.105L102.71 27.5052L102.636 27.5363ZM118.708 29.0771H118.984L119.062 29.0516L119.102 28.9945L119.125 28.9381L119.151 28.9123L119.146 28.8556L119.079 28.7268L119.078 28.7259L119.078 28.7254L118.972 28.5946L118.844 28.5293L118.652 28.5975L118.528 28.7868V28.9852L118.559 29.0007L118.708 29.0771ZM102.146 21.2376L102.168 21.2561L102.169 21.2558L102.169 21.2561L102.237 21.2408L102.251 21.2054L102.27 21.18L102.338 21.1615L102.4 21.1791L102.415 21.1923L102.43 21.2057L102.549 21.2499L102.707 21.2596L102.757 21.2628H102.757H102.759L102.867 21.2335L102.896 21.2259L102.943 21.1744L102.943 21.1741L102.943 21.1735L102.905 21.1513L102.789 21.1577L102.668 21.1232L102.603 21.0319L102.556 20.9181L102.502 20.8587L102.465 20.8189L102.448 20.8259L102.401 20.8438L102.37 20.9787L102.334 21.012L102.298 21.0445L102.206 21.0155L102.113 20.9866L102.073 20.9986L102.046 21.0065V21.0893L102.088 21.192L102.146 21.2376ZM119.005 30.9093L118.895 30.7887L118.79 30.6099L118.712 30.5151L118.71 30.516L118.709 30.5146L118.622 30.5546L118.561 30.6638L118.569 30.7735H118.513L118.586 30.873L118.675 30.9169L118.676 30.9175L118.765 30.945H118.765L118.802 30.9684L118.845 30.997L118.926 31.2642L119.008 31.3517L119.015 31.3593L119.121 31.5582L119.261 31.7329H119.262L119.263 31.7344L119.456 31.7566L119.546 31.6244L119.567 31.4035L119.523 31.1975L119.522 31.1966L119.522 31.1957L119.462 31.141L119.426 31.1068H119.425L119.423 31.1053L119.22 31.0614L119.039 30.9461L119.005 30.9093ZM109.006 31.6484L109.105 31.6217L109.17 31.5726L109.244 31.548L109.34 31.5834L109.363 31.5922L109.365 31.5928L109.474 31.4541L109.651 31.4491L110.051 31.5383H110.404L110.608 31.5003L110.689 31.5258L110.738 31.646L110.738 31.6457L110.739 31.6484L110.876 31.5743L111.014 31.5383L110.967 31.4541L110.966 31.4538L110.965 31.4526L110.904 31.44L110.828 31.4497L110.738 31.4333L110.665 31.3932L110.662 31.3903L110.52 31.2651L110.341 31.1597L110.339 31.1591L110.337 31.158L109.853 30.9959L109.514 31.2771L109.323 31.3999L109.199 31.3739L109.016 31.5202L108.948 31.6077L108.95 31.6089L108.95 31.6091L109.006 31.6484ZM99.0606 19.4923L99.1078 19.6345L99.2146 19.7589L99.2164 19.7594L99.2173 19.7603L99.2594 19.7741L99.3627 19.7662L99.4081 19.7869L99.4361 19.8235L99.4714 19.8967L99.6383 20.0626L99.714 20.122L99.7161 20.1223L99.7167 20.1231L99.7947 20.1477L99.9104 20.2451L100.075 20.3853L100.197 20.4248L100.206 20.4274L100.209 20.4283L100.216 20.1969L100.258 20.2124L100.291 20.2247L100.355 20.2624L100.488 20.3648L100.538 20.4236L100.553 20.4663L100.577 20.5006L100.578 20.5012L100.655 20.5301L100.77 20.5266L100.958 20.4289L101.089 20.421L101.018 20.2598L100.845 20.0207L100.76 19.8697L100.657 19.6225L100.623 19.5672L100.622 19.5666L100.621 19.5655L100.612 19.554L100.555 19.4815L100.551 19.3943L100.56 19.305L100.541 19.2091L100.43 19.0994L100.428 19.0982L100.407 19.0868L99.9372 18.8275L99.7588 18.6353L99.7561 18.6347L99.6852 18.6078L99.5005 18.6119L99.4941 18.6104L99.4302 18.5952L99.4269 18.5923L99.3822 18.5499L99.3819 18.5504L99.3795 18.5484L99.3121 18.6464L99.0512 19.181V19.1819L99.0515 19.1886L99.0606 19.4923ZM123.291 32.7488L123.643 33.2664L123.697 33.3287L123.947 33.53L123.95 33.5312L123.95 33.5315L124.031 33.5689L124.108 33.4926L124.152 33.3539L124.195 33.0718L124.239 32.9481L124.254 32.8796L124.249 32.7991L124.219 32.7541L124.218 32.7538L124.217 32.7529L124.122 32.7365L124.085 32.6903L124.072 32.5855L124.085 32.1437L124.083 32.1434V32.1428L123.956 32.1145L123.559 32.1976L123.468 32.2315L123.293 32.3819L123.232 32.4152L123.195 32.4755L123.229 32.6084L123.291 32.7488ZM128.541 35.596L128.78 35.6785L128.882 35.7613L128.883 35.7607L128.885 35.7622L128.906 35.749L128.91 35.7315L128.926 35.7291L128.989 35.7613L128.991 35.7622L128.98 35.63L128.918 35.5091L128.775 35.3248L128.774 35.3251L128.773 35.3239L128.68 35.3552L128.439 35.5375L128.441 35.539L128.541 35.596ZM129.051 34.998L129.223 34.9871L129.403 34.9488L129.559 34.9623L129.627 35.0571L129.658 35.1015L129.696 34.9371L129.656 34.801L129.561 34.7378L129.533 34.7188H129.322L129.154 34.83L129.087 34.9043L129.049 34.9962L129.052 34.9959L129.051 34.998ZM80.7715 28.3909L80.7862 28.4108L80.8837 28.3959L80.947 28.3722L80.9991 28.3067L81.0412 28.1987L81.0292 28.1077L81.0015 28.1068L80.9776 28.0869L80.8858 28.1068L80.7898 28.1323L80.7259 28.1969V28.2613L80.7285 28.2938L80.7006 28.3169L80.7235 28.3538L80.7751 28.3587V28.3661L80.7715 28.3909ZM74.8962 25.4027L74.9548 25.4662L75.0207 25.5384L75.1668 25.5999L75.2884 25.5712L75.3794 25.2909L75.4865 25.2315L75.6299 25.1967L75.7813 25.1309L75.8599 25.2643L75.8611 25.2646L75.8623 25.2663L76.0039 25.2903L76.3039 25.24L76.424 25.1894L76.4373 25.0761L76.369 24.9638L76.3678 24.9623L76.2471 24.9117L76.1738 24.8892L76.1705 24.8851L76.1331 24.8356L76.1293 24.7654L76.1714 24.6943L76.2209 24.6902L76.417 24.7487H76.566L76.6022 24.7622L76.6599 24.7988L76.6661 24.8058L76.6888 24.8339L76.7585 24.943L76.7597 24.9436L76.76 24.9439L76.77 24.9494L76.7983 24.9655L76.8001 24.9664L76.8018 24.9673L76.8787 24.9928L76.932 25.0475L76.9776 25.1039L76.9782 25.1045L76.9788 25.1051L77.0259 25.1309L77.0656 25.1227L77.1401 25.0852L77.1884 25.0761L77.2302 25.0925L77.2903 25.1645L77.2918 25.1654L77.2927 25.1663L77.3301 25.1853L78.252 25.3333L78.5249 25.3216L78.7767 25.2695L79.0293 25.1867L78.9869 25.233L78.9763 25.2573V25.2935L78.9787 25.2932V25.2941L79.1786 25.2763L79.4886 25.1151L79.6685 25.0761L79.7383 25.0987L80.0316 25.24L80.1279 25.2611L80.2 25.2704L80.2698 25.264L80.3566 25.24L80.4791 25.1423L80.7321 24.8187L80.8257 24.7487L80.8233 24.6373L80.8837 24.4251L80.962 24.2926L81.0194 24.4149H81.0212L81.0218 24.416H81.0763L81.1169 24.2753L81.1628 24.1837L81.2473 24.1398L81.4075 24.1434L81.3336 24.2695L81.2939 24.3104L81.298 24.3101L81.2965 24.3119L81.5633 24.297L81.8536 24.3107L82.0845 24.263L82.1807 24.0614L82.1928 23.8151L82.1713 23.6969L82.0977 23.6462L82.0724 23.638L82.0094 23.6167L81.8822 23.4795L81.8177 23.4432L81.7982 23.4321L81.6778 23.4672L81.6793 23.4686H81.679L81.7282 23.5283L81.7953 23.5725L81.8365 23.6L81.8863 23.6597L81.8995 23.6761L81.9148 23.7296L81.9893 23.8537L82.0135 23.9233V24.1416H81.9581L81.8969 24.0913L81.8486 24.0512H81.8477L81.8462 24.05L81.6381 24.0067L81.424 24.0041L81.2939 24.033L81.179 23.9965L80.9676 23.9283L80.9444 23.9143L80.9149 23.8955L80.8546 23.8985L80.6349 23.806L80.5274 23.7603L80.5263 23.7606L80.5251 23.7601L80.2986 23.7797L80.1853 23.7639L80.1373 23.677L80.0905 23.6143H80.0896L80.0881 23.6126L79.9895 23.6184L79.892 23.6875L79.8558 23.8148H79.8025L79.7548 23.7285L79.6685 23.6173L79.5755 23.5234L79.5743 23.5228L79.5731 23.5216L79.4986 23.4818L78.1304 23.4145L77.9281 23.4818L77.7464 23.392L77.565 23.3522L77.3713 23.3636L77.159 23.4321L76.8478 23.6193L76.7444 23.6457L76.6263 23.6302L76.4532 23.5664L76.4338 23.559H76.4332L76.4302 23.5579L76.3304 23.5365L76.2459 23.5421L76.1134 23.5854L76.0277 23.5962L76.0177 23.5924L75.9812 23.5772L75.9105 23.5011L75.9073 23.4997L75.9067 23.4994L75.8599 23.4818L75.8131 23.4906L75.7901 23.5093L75.7757 23.5277L75.7527 23.5365L75.6997 23.5854L75.6382 23.8078L75.6093 23.8683L75.5195 23.8847L75.4789 23.8569L75.4636 23.8464L75.4265 23.7919L75.3979 23.7603L75.3249 23.7337L75.2713 23.7141L75.2377 23.7364L75.2257 23.842L75.2333 23.9298L75.2339 23.9388L75.2386 23.9529L75.2595 24.0216L75.3025 24.0989L75.4912 24.3388L75.5434 24.4412L75.5599 24.5243L75.5325 24.6296L75.4927 24.6639L75.4324 24.6697L75.1753 24.7362L75.0923 24.7411L74.9536 24.6882L74.8829 24.7323L74.7563 24.8842L74.7513 24.9714L74.8467 25.2924L74.8962 25.4027ZM81.4611 26.7629L81.4193 26.7272L81.3695 26.7091L81.323 26.7381L81.2674 26.858L81.2615 26.8847L81.242 26.9212L81.1269 27.0163L81.0763 27.1331L81.0412 27.1837L81.0459 27.2135L81.063 27.253L81.0748 27.3148L81.1107 27.3335L81.263 27.0918L81.5921 26.9765L81.7188 26.8882L81.7367 26.8086L81.6911 26.7732L81.6366 26.7787L81.4611 26.7629ZM84.5775 24.3239L84.7115 24.3514L85.0024 24.2159L84.9759 24.1077L84.8508 24.048L84.7704 24.0702L84.7159 24.0775L84.6608 24.1027L84.5666 24.2095L84.5704 24.2566L84.5799 24.2323L84.5887 24.2425L84.6028 24.2794L84.5646 24.2853L84.5775 24.3239ZM84.4921 26.387L84.6558 26.5057L84.7306 26.5414L84.8519 26.5555H85.1841L85.3743 26.5017L85.52 26.372L85.7061 26.0639L85.7041 26.0628L85.5645 26.0007L85.4432 25.8928L85.2671 25.6771H85.2665L85.2647 25.6754H85.1552L85.1602 25.7318L85.1243 25.7953L85.0628 25.8556L84.9906 25.8986L85.0495 26.1037L84.947 26.2676L84.7548 26.3428L84.5463 26.2813L84.5236 26.3085L84.5092 26.3308L84.4912 26.3855L84.4924 26.3864L84.4921 26.387ZM95.8603 47.1069L95.966 47.1581L96.138 46.9191L96.1592 46.7994L96.0706 46.6663L95.7517 46.7848L95.6901 46.8301L95.6798 46.9439L95.7505 47.0355L95.8603 47.1069ZM112.034 47.3913L112.177 47.4141L112.378 47.3778L112.464 47.3448L112.597 47.2313V47.1113L112.457 46.9767L112.317 46.8971L112.214 46.8617L112.09 46.8702L111.959 46.9328L111.898 46.9744L111.78 47.0773L111.761 47.1704L111.859 47.2696L111.968 47.338L112.034 47.3913ZM98.7179 45.4005L98.783 45.363L98.8322 45.2963L98.7094 45.263L98.6723 45.1778L98.7117 45.0968L98.8322 45.0737L98.9334 45.1176L98.9835 45.1977L99.0185 45.2902L99.0798 45.3762L99.1027 45.4251L99.1172 45.4859L99.1475 45.5251L99.2173 45.5102L99.245 45.4693L99.262 45.4011L99.2715 45.2671L99.2291 45.1489L99.1269 45.0447L99.0006 44.9631L98.8875 44.9142L98.6793 44.9836L98.4567 45.1298L98.3675 45.306L98.558 45.4605L98.7179 45.4005ZM112.721 92.6091L112.676 92.5898L112.656 92.5588L112.636 92.5576L112.584 92.541L112.549 92.5506L112.573 92.5828L112.641 92.5945L112.656 92.6176L112.665 92.6688L112.733 92.6855L112.77 92.7323L112.853 92.6507L112.793 92.6355L112.721 92.6091ZM113.111 92.7192L113.035 92.6893L113.025 92.7622L113.117 92.7475L113.187 92.7885L113.241 92.7344L113.179 92.7083L113.111 92.7192ZM117.662 89.8216L117.694 89.8649L117.759 89.7824L117.74 89.7476L117.662 89.8216ZM116.314 93.8887L116.271 93.886L116.278 93.9112L116.339 93.9135L116.45 93.948L116.402 93.8813L116.314 93.8887ZM114.089 90.8714L114.168 90.9706L114.165 90.8823L114.089 90.8714ZM113.187 87.6564L113.221 87.4891L113.087 87.171L112.784 87.1257L112.451 87.2342L112.227 87.3846L112.029 87.5751L111.919 87.7065L111.925 87.7664L111.987 87.7963L112.011 87.87L111.999 87.9587L111.953 88.0388L111.889 88.0819L111.829 88.0842L111.679 88.0388L111.525 87.9707L111.242 87.7542L111.154 87.7079L111.088 87.6242L111.057 87.4575L111.11 87.3357L111.298 87.3846L111.19 87.2284L111.002 87.1289L110.802 87.0546L110.659 86.9697L110.136 86.3924L109.952 86.297L109.731 86.2128L109.548 86.1031L109.47 85.9246L109.421 85.7528L109.296 85.6068L109.136 85.4886L108.903 85.3704L108.852 85.4728L108.824 85.6308L108.817 85.7645L108.832 85.9082L108.875 86.0135L108.943 86.0984L109.031 86.1736L109.078 86.1926L109.206 86.2107L109.252 86.2227L109.273 86.2608L109.283 86.3181L109.312 86.3699L109.477 86.4091L109.556 86.4603L109.613 86.5384L109.635 86.64L109.662 86.695L109.828 86.915L109.856 86.9712L109.847 87.3682L109.856 87.4341L109.88 87.4627L109.917 87.4794L109.954 87.5093L109.972 87.5716L110.057 87.7269L110.231 87.7211L110.371 87.5941L110.355 87.3846H110.404L110.525 87.5379L110.606 87.6219L110.659 87.6576L110.744 87.6983L110.686 87.7928L110.582 87.9002L110.52 87.98L110.419 88.0198L110.402 88.2279L110.432 88.4634L110.464 88.5854L110.563 88.6258L110.688 88.6416L110.86 88.6404L111.239 88.6943L112.064 88.9178L112.218 88.998L112.508 89.2405L112.672 89.3505L112.628 89.2034L112.708 88.9438L112.672 88.8578L112.727 88.8101L112.97 88.344L113.036 88.0017L113.187 87.6564ZM110.144 76.3937L110.512 76.2371L110.542 76.1713L110.569 75.7289L110.513 75.6487L110.402 75.6104L110.293 75.6595L110.244 75.7146L110.237 75.7421L110.213 75.7637L110.173 75.8568L110.212 76.1139L110.142 76.329L110.144 76.3937ZM113.268 93.7631L113.307 93.7895L113.336 93.829L113.364 93.757L113.302 93.7342L113.268 93.7631ZM109.948 81.7829L109.963 81.8748L109.989 81.845L110.036 81.8271L110.069 81.7899L110.159 81.7946L110.146 81.7434L110.098 81.7601L110.06 81.7364L110.043 81.7147L110.041 81.6837L110.035 81.636L110.041 81.6164L109.961 81.6404L109.974 81.6785L109.964 81.7434L109.948 81.7829ZM108.683 92.6665L108.68 92.639L108.744 92.6331L108.763 92.5913L108.716 92.5418L108.674 92.5541L108.627 92.5898L108.568 92.6176L108.525 92.615V92.5813L108.568 92.5023L108.559 92.457L108.523 92.4128L108.482 92.3996L108.45 92.4143L108.427 92.4154L108.406 92.3783L108.377 92.3935L108.277 92.5073L108.241 92.5755L108.242 92.6366L108.291 92.6545L108.395 92.6366L108.417 92.6486L108.423 92.6808L108.412 92.7095L108.437 92.7367L108.582 92.8025H108.67L108.733 92.7908L108.792 92.8148L108.836 92.7835L108.803 92.7382L108.683 92.6665ZM112.751 93.5203L112.816 93.4521L112.693 93.4448L112.751 93.5203ZM109.692 85.9032L109.751 85.8821L109.786 85.8927L109.822 85.8757L109.853 85.8304L109.833 85.7897L109.815 85.7827L109.808 85.7502L109.795 85.723L109.773 85.7098L109.738 85.6653L109.667 85.6858L109.62 85.6879L109.601 85.723L109.622 85.7645L109.613 85.828L109.692 85.9032ZM109.992 92.1521L109.901 92.0828L109.801 92.0351L109.697 92.1091L109.589 92.1308L109.478 92.1331L109.365 92.1498L109.327 92.0854L109.266 92.0351L109.189 92.0207L109.117 92.0649L109.097 92.1404L109.142 92.2118L109.681 92.682L109.722 92.7323L109.679 92.7528L109.526 92.7499L109.37 92.7273L109.225 92.6797L109.093 92.6115L108.98 92.5325L108.927 92.5913L108.996 92.6346L109.055 92.7034L109.142 92.8637L109.298 92.8125L109.499 92.8339L109.702 92.8997L109.856 92.974L109.934 92.9222L109.972 92.8552L109.963 92.7791L109.91 92.6952L109.937 92.6162L109.941 92.5023L109.972 92.4222L109.91 92.3686L110.013 92.2457L109.992 92.1521ZM117.799 90.5034L117.862 90.4185L117.789 90.4472L117.799 90.5034ZM112.34 92.4035L112.29 92.462L112.385 92.517L112.449 92.5541L112.478 92.5495L112.453 92.4833L112.34 92.4035ZM111.777 75.5469L111.789 75.1595L111.813 75.1516L111.835 75.1525L111.849 75.1428L111.844 75.1057L111.466 75.132L111.294 75.1896L111.154 75.2997L111.024 75.4465L110.98 75.5267L110.965 75.6247L110.938 75.7026L110.795 75.8977L110.85 76.0516L110.989 76.1151L111.454 76.1543L111.522 76.1818L111.623 76.2523L111.764 76.3855L111.789 76.4162L111.761 76.5657L111.58 76.9806L111.19 77.5023L111.154 77.5678L111.167 77.6144L111.623 77.9002L111.86 78.2984L111.953 78.3968L111.966 78.2806L111.915 78.1144L111.825 77.9646L111.709 77.9002L111.635 77.8083L111.653 77.5974L111.915 76.4759L111.921 76.1341L111.679 75.8699L111.745 75.711L111.777 75.5469ZM110.623 84.4072L110.478 84.4862L110.442 84.6059L110.55 84.7089L110.776 84.8271L110.827 84.887L110.85 84.9204L110.888 84.9681L110.9 85.0614L110.946 85.0974L111.052 85.0339L111.076 84.9491L111.043 84.8917L110.999 84.8592L110.96 84.8549L110.944 84.8259L110.935 84.7636L110.957 84.7565L110.996 84.7387L111.027 84.6073L111.024 84.5655L111.001 84.5535L110.979 84.4792L110.895 84.428L110.771 84.3908L110.623 84.4072ZM110.903 90.1818L110.921 90.2631V90.1736L110.983 90.0861L111.06 90.0683L111.085 90.0282L111.097 89.9416L110.991 89.8696L110.98 89.8936L110.952 89.9448L110.916 89.9603L110.868 89.9735L110.86 89.9091L110.828 89.9068L110.757 89.9556L110.789 90.0215L110.764 90.049L110.793 90.0838L110.834 90.0536L110.875 90.1051L110.865 90.1613L110.903 90.1818ZM111.404 92.5913L111.366 92.5945L111.355 92.5828L111.356 92.5588L111.349 92.5325L111.291 92.4942L111.268 92.5243L111.242 92.572L111.179 92.5913L111.11 92.5696L111.034 92.4988L110.965 92.4763H110.52L110.383 92.498L110.273 92.5445L110.189 92.6103L110.136 92.6952L110.097 92.847L110.116 92.9617L110.195 93.1864L110.27 93.1224L110.273 93.0299L110.261 92.9199L110.295 92.8055L110.439 92.8289H110.789L110.86 92.8889L110.924 93.0457L111.06 93.1124L111.174 93.103L111.179 93.0273L111.224 92.9895L111.304 92.902L111.349 92.8637L111.163 92.8397L111.18 92.7645L111.404 92.5913ZM126.574 81.2498L126.483 81.1667L126.404 81.1863L126.371 81.1667L126.351 81.1515L126.329 81.1383L126.293 81.131L126.348 81.0424L126.422 80.9877L126.5 80.9637L126.567 80.9675L126.662 81.0295L126.731 81.1026L126.809 81.1287L126.93 81.0497L126.993 80.9423L127.02 80.8083L127.009 80.6781L126.958 80.5798L126.834 80.5213L126.708 80.5116L126.608 80.4745L126.517 80.1661L126.393 80.116L126.102 80.1432L126.01 80.1233L125.726 80.0037L125.628 79.934L125.574 79.812L125.547 79.6628L125.485 79.5373L125.329 79.4831L125.203 79.4975L125.079 79.5346L124.976 79.5911L124.914 79.6567L124.822 79.6101L124.72 79.5932L124.499 79.597L124.411 79.5744L124.192 79.4665L124.085 79.4331L123.874 79.4343L123.543 79.5241L123.365 79.5481L122.977 79.8196L122.872 79.8743V79.934L123.091 79.8875L123.325 79.8887L123.552 79.9387L123.75 80.0382L123.813 80.054L123.867 80.0417L123.906 80.0476L123.931 80.1819L123.957 80.2117L123.992 80.2284L124.421 80.5798L124.548 80.7278L124.615 80.8299L124.635 80.9125L124.598 80.9853L124.553 81.0046L124.502 81.0116L124.446 81.0497L124.401 81.1228L124.431 81.1562L124.489 81.1694L124.529 81.1863L124.576 81.2317L124.672 81.2829L124.72 81.3224L124.75 81.3906L124.759 81.4573L124.781 81.4909L124.86 81.4584L124.927 81.3587L124.895 81.2592L124.814 81.1767L124.744 81.131L124.814 81.088L124.889 81.0687L124.945 81.0868L124.99 81.2209L125.044 81.2472L125.113 81.2627L125.189 81.2952L125.459 81.4886L125.582 81.5497L125.716 81.5726L126.023 81.5351L126.174 81.4909L126.238 81.4336L126.309 81.3464L126.47 81.3724L126.638 81.4347L126.737 81.4584L126.574 81.2498ZM118.214 94.2518L118.244 94.1991L118.162 94.1622L118.214 94.2518ZM127.104 96.965L127.022 96.9726L126.996 96.9913L126.905 96.9711L126.84 96.9901L126.804 97.0598L126.774 97.1636L126.694 97.2128L126.677 97.2579L126.838 97.3872L126.861 97.3945L126.897 97.3515L126.93 97.3369L126.969 97.3608L127.025 97.4398L127.061 97.4527L127.153 97.4077L127.146 97.3945L127.116 97.3764L127.122 97.2988L127.216 97.0334L127.239 97.0068L127.208 96.9781L127.104 96.965ZM133.117 100.467L133.065 100.453L133.026 100.428L132.963 100.289L132.912 100.226L132.737 100.177L132.657 100.119L132.598 100.04L132.575 99.9544L132.495 99.9114L131.568 99.6638L131.395 99.6545L131.305 99.6185L130.928 99.3803L130.432 99.1904L130.206 99.0073L130.122 98.9774L129.934 98.9394L129.85 98.9011L129.658 98.7752L129.569 98.748L129.48 98.7302L129.408 98.7L129.349 98.5687L129.281 98.5672L129.129 98.6117L128.971 98.5698L128.55 98.2796L128.473 98.4505L128.449 98.5385L128.441 98.6365L128.462 98.6845L128.514 98.7489L128.579 98.8054L128.636 98.8305L128.741 98.8519L128.757 98.9081L128.715 99.0781L128.736 99.1547L128.786 99.1483L128.85 99.1214L128.913 99.1331L128.989 99.2191L129.085 99.3686L129.159 99.4306L129.239 99.45L129.417 99.4476L129.49 99.4892L129.492 99.6162L129.173 99.7622L129.214 99.9269L129.417 99.768L129.538 99.694L129.658 99.6545L129.698 99.7104L129.739 99.7499L129.794 99.768L129.837 99.7428L129.86 99.6951L129.897 99.6688L129.983 99.7033L130.04 99.7809L130.001 99.8529L129.926 99.9199L129.874 99.9819L129.864 100.097L129.897 100.214L129.974 100.27L130.099 100.2L130.401 100.368L130.488 100.343L130.555 100.284L130.621 100.209L130.704 100.145L130.695 100.226L130.707 100.276L130.744 100.301L130.817 100.308L130.781 100.394L130.758 100.428L130.84 100.467L130.909 100.464L130.976 100.441L131.06 100.428L131.088 100.453L131.116 100.506L131.158 100.557L131.23 100.581L131.308 100.567L131.377 100.541L131.436 100.536L131.483 100.581L131.492 100.654L131.452 100.692L131.384 100.704L131.312 100.696L131.365 100.826L131.44 100.831L131.524 100.783L131.615 100.749L131.64 100.737L131.704 100.665L131.746 100.642H131.792L131.818 100.689L131.861 100.696H132.217L132.279 100.717L132.333 100.747L132.379 100.738L132.412 100.642L132.51 100.685L132.613 100.686L132.71 100.65L132.795 100.581L132.86 100.624L132.91 100.638L132.958 100.624L133.026 100.581L133.068 100.623L133.115 100.637L133.158 100.613L133.181 100.532L133.163 100.488L133.117 100.467ZM137.259 98.7027L137.224 98.6044L137.21 98.5268L137.177 98.456L137.096 98.4072L136.933 98.3393L136.833 98.3761L136.791 98.332L136.757 98.2635L136.685 98.2293L136.608 98.2445L136.544 98.2673L136.474 98.272L136.383 98.2293L136.047 98.2805L135.824 98.2767L135.668 98.2293L135.677 98.3065L135.71 98.3677L135.762 98.4145L135.834 98.4478L135.808 98.4993L135.834 98.5423L135.888 98.5795L135.947 98.6117H135.998V98.5517H136.058L136.099 98.6284L136.096 98.6883L136.047 98.7074L135.947 98.6605L135.888 98.7202L135.717 98.6497L135.363 98.6272L135.229 98.5517L135.193 98.5078L135.166 98.497L135.113 98.5014L135.187 98.6307L135.229 98.6605L135.155 98.6869L135.093 98.724L135.042 98.7706L135.004 98.8305L135.083 98.8422L135.174 98.8709L135.251 98.9151L135.284 98.9669L135.314 99.0804L135.385 99.1161L135.503 99.1082L135.717 99.1737L135.888 99.1784L136.007 99.0889L136.058 98.8794H136.108L136.143 99.0722L136.259 99.0842L136.542 98.9394L136.709 98.9119L136.889 98.925L137.035 98.9871L137.102 99.1082L137.194 99.0614L137.264 99.0014L137.321 98.925L137.376 98.8305L137.312 98.7884L137.259 98.7027ZM127.453 96.9424L127.348 96.9565L127.289 97.0068L127.298 97.0776L127.361 97.1288H127.449L127.555 97.0776L127.593 96.9901L127.515 96.9363L127.453 96.9424ZM125.694 92.9114L125.418 92.8075L125.353 92.8055L125.149 92.7227L124.885 92.8148L124.606 92.957L124.36 93.0273L124.268 92.9872L124.026 92.8374L123.947 92.8339L123.835 92.8482L123.311 92.6952L123.293 92.7165L123.282 92.7405L123.257 92.756L123.202 92.7499V92.8055L123.536 93.0273L124.031 93.1364L124.508 93.3359L124.734 93.3994L124.914 93.41L124.994 93.3863L125.151 93.3193L125.245 93.3002L125.601 93.2704L125.689 93.2461L125.795 93.1964L125.86 93.1399L125.864 93.0668L125.793 92.974L125.694 92.9114ZM128.465 97.9136L128.386 97.9612L128.488 97.9765L128.595 97.9516L128.672 97.9098L128.691 97.8738L128.779 97.9098L128.854 97.8501L128.91 97.7556L128.94 97.6836L128.792 97.6514L128.441 97.4053L128.043 97.3225L127.94 97.2415L127.839 97.1888L127.738 97.226L127.711 97.3263L127.832 97.4647L128.111 97.6289L128.153 97.6728L128.183 97.7187L128.216 97.7339L128.276 97.6836L128.501 97.8463V97.9016L128.465 97.9136ZM126.266 97.0653L126.255 97.044L126.227 97.0489L126.194 97.0785L126.182 97.111L126.143 97.1001L126.093 97.0618L126.103 97.111L126.258 97.24L126.275 97.2201L126.298 97.2005L126.262 97.1493L126.266 97.0653ZM119.937 97.8644L119.954 97.8012H119.911L119.937 97.8644ZM119.608 90.9613L119.714 90.9496L119.734 90.8738L119.644 90.8714L119.608 90.9613ZM118.333 82.0389L118.244 82.0413L118.152 81.9933L117.962 81.8748L117.906 81.9105L117.837 81.9444L117.813 81.9942L117.958 81.974L118.202 82.053L118.303 82.0662L118.365 82.0588L118.433 82.0697L118.449 82.0951L118.464 82.0843L118.414 82.029L118.333 82.0389ZM121.554 96.8108L121.507 96.8274L121.379 96.7821L121.4 96.8119L121.531 96.8921L121.612 96.8778L121.64 96.8266L121.586 96.8228L121.554 96.8108ZM125.023 96.9793L125.014 97.0203L125.045 97.0715L125.189 96.9989L125.11 96.9936L125.023 96.9793ZM124.504 96.804L124.435 96.7976L124.376 96.8143L124.38 96.7871L124.395 96.7353L124.382 96.7151L124.349 96.7382L124.269 96.7678L124.254 96.804L124.229 96.8274L124.194 96.8827L124.274 96.9471L124.317 96.8789L124.341 96.8754L124.411 96.9149L124.478 96.8886L124.534 96.8599L124.51 96.7572L124.504 96.804ZM123.538 96.3959L123.544 96.3695H123.514L123.432 96.3804L123.398 96.3505L123.407 96.328L123.379 96.3312L123.339 96.3303L123.325 96.3242L123.311 96.3543L123.232 96.3637L123.238 96.402L123.265 96.4556L123.302 96.4687L123.356 96.5776L123.391 96.543L123.451 96.4892L123.512 96.4951L123.589 96.5381L123.591 96.512L123.547 96.4763L123.538 96.3959ZM121.997 93.4091L122.103 93.5121L122.125 93.5021V93.4331L122.16 93.3731L122.167 93.3002L122.149 93.2725L122.028 93.1844L121.99 93.1209L121.947 93.0814L121.871 93.048L121.797 93.0492L121.72 93.0752L121.64 93.1531L121.584 93.2894L121.579 93.3851L121.616 93.4293L121.838 93.3675L121.936 93.3681L121.997 93.4091ZM122.103 93.8442L122.021 93.7977L121.91 93.9085L121.923 93.9638L121.978 93.9685L122.057 94.0379L122.157 94.0107L122.194 93.9317L122.121 93.8872L122.103 93.8442ZM120.295 94.264L120.261 94.2556L120.288 94.2948L120.354 94.2962L120.369 94.2772L120.332 94.2602L120.295 94.264ZM108.331 92.1966L108.302 92.1138L108.207 91.9836L108.153 91.7109L107.965 91.5593L106.989 91.2699L106.859 91.1731L106.779 91.1248L106.511 91.0856L106.423 91.0593L106.358 91.0209L106.208 90.9627L105.841 90.9443L105.725 90.8823L105.717 90.9364L105.704 90.9458L105.666 90.942L105.548 90.666L105.705 90.3597L105.974 90.1458L106.19 90.1449L106.304 90.2166L106.463 90.2561L106.799 90.2763L106.967 90.3167L107.33 90.4589L107.489 90.4457L107.527 90.4817L107.572 90.4984L107.708 90.4998L108.012 90.4519L108.299 90.3492L109.294 89.8216L109.619 89.7429L109.768 89.6387L109.789 89.5419L109.581 89.5121L109.424 89.5624L109.183 89.7488L109.061 89.7909L108.537 89.8146L108.018 89.9401L107.804 89.9676L107.708 89.9246L107.668 89.8216L107.485 89.7019L107.433 89.6224L107.449 89.572L107.555 89.4594L107.598 89.3982L107.256 89.3602L107.187 89.3734L107.062 89.4641L106.975 89.4772L106.774 89.3982L106.439 89.3207L106.4 89.3567L106.311 89.3696L106.217 89.3637L106.165 89.3482L106.009 89.3936L105.832 89.3567L105.501 89.2396L105.179 89.1785L105.071 89.12L104.923 88.9965L104.797 88.8303L104.738 88.7946L104.484 88.718L104.397 88.5796L104.339 88.5064L104.264 88.4754L104.182 88.4909L104.034 88.5629L103.962 88.5842L103.85 88.5936L103.792 88.5819L103.511 88.4134L103.352 88.3654L103.182 88.3417L102.719 88.3654L102.573 88.3499L102.413 88.3054L102.269 88.2448L102.166 88.1752L101.916 87.9312L101.789 87.88L101.584 87.8645L101.603 87.5461L101.349 87.2474L100.76 86.7772L100.546 86.5288L100.511 86.3913L100.59 86.2216L100.717 86.1545L101.096 86.0442L101.2 85.9486L101.359 86.0109L101.548 85.9939L101.86 85.8997L102.424 85.7897L102.582 85.7326L103.018 85.5123L103.139 85.4833L103.196 85.491L103.206 85.467L103.188 85.3485L103.15 85.2229L103.094 85.1884L103.032 85.1785L102.968 85.1296L102.853 84.8832L102.764 84.8192L102.554 84.7975L102.043 84.868L101.86 84.8572L101.469 84.7077L101.089 84.6635L100.775 84.5535L100.59 84.5292L100.514 84.5462L100.323 84.6179L100.241 84.6337L100.126 84.588L100.043 84.5748L99.9643 84.6082L99.8227 84.703L99.6961 84.7147L99.2173 84.5233L99.063 84.4923L98.4205 84.4994L98.3884 84.5008L98.2606 84.4707L98.3378 84.3656L98.0586 84.2571L98.051 84.2439L97.9491 84.1468L97.9132 84.1395L97.8213 84.1538L97.7839 84.1468L97.7442 84.1155L97.6603 84.0224L97.6132 83.9829L97.3988 83.8738L96.8264 83.7749L96.5325 83.6409L96.4048 83.3527L96.37 83.1818L96.2163 82.8734L96.1813 82.6926L96.2416 82.4989L96.5084 82.2765L96.5699 82.144L96.5879 81.9813L96.6624 81.7147L96.6795 81.5412L96.7048 81.4453L96.8382 81.2062L96.8994 81.1299L97.0331 81.1717L97.1797 81.1299L97.3122 81.033L97.3988 80.911L97.4229 80.7486L97.3234 80.7103L97.1774 80.6889L97.0646 80.5789L97.1423 80.581L97.2101 80.5725L97.3387 80.53L97.2848 80.5262L97.2489 80.5116L97.2171 80.4914L97.175 80.4698L97.2751 80.3205L97.3196 80.2293L97.3387 80.1169L97.3196 80.0212L97.2689 79.9294L97.1983 79.8852L97.1197 79.9332H97.0646L97.0463 79.8468L96.9969 79.817L96.9274 79.8302L96.8444 79.8729L96.6698 79.726L95.9442 79.7787L95.8503 79.5466L95.7372 79.6008L95.653 79.6751L95.5267 79.8196L95.477 79.841L95.4219 79.8515L95.3798 79.8805L95.3615 79.958L95.3462 79.9855L95.3112 80.0107L95.2653 80.03L94.7517 80.147L94.5327 80.1614L94.3675 80.0382L94.2426 80.0897L94.0766 80.1029L93.9297 80.0909L93.8672 80.0645L93.8372 80.1579L93.7627 80.2415L93.6738 80.3109L93.5051 80.4066L93.4161 80.4411L93.3113 80.4627L93.1788 80.4698L92.8373 80.5488L92.7637 80.5789L92.6423 80.5344L92.3582 80.5438L91.6601 80.4197L91.3742 80.2609L91.1622 80.0095L91.0214 79.7035L90.9455 79.3831L90.924 79.3278L90.8518 79.2336L90.8359 79.1868L90.8456 79.1473L90.8916 79.0721L90.9013 79.0194L90.8842 78.9714L90.8386 78.9284L90.7747 78.8988L90.7014 78.8857L90.6557 78.8137L90.5618 78.2806L90.5786 77.7279L90.5341 77.595L90.4184 77.4722L90.3368 77.3525L90.2453 77.1483L90.1767 77.0801L89.8869 76.9914L89.8419 76.9373L89.8219 76.8671L89.7736 76.8059L89.7097 76.7632L89.6499 76.7462L89.5451 76.7044L89.4126 76.6242L89.2539 76.5777L89.0681 76.6374L88.9889 76.5321L88.7024 76.3972L88.574 76.305L88.5089 76.1883L88.4704 76.03L88.4545 75.8591L88.463 75.7096L88.5451 75.4237L88.5619 75.283L88.5186 75.1048L88.2937 74.6129L88.3635 74.4274L88.3585 74.2007L88.309 73.9733L88.2445 73.7893L88.0964 73.4973L88.0528 73.2656L87.9351 73.0824L87.769 72.3556L87.7737 72.2254L87.84 72.1186L87.7496 72.1212L87.6221 72.1689L87.58 72.1955L87.3753 72.1979L87.2837 72.2096L87.1948 72.2552L87.1168 72.1607L86.9749 72.1751L86.8076 72.2146L86.651 72.1955L86.5753 72.0841L86.4799 71.7853L86.4608 71.7268L86.3984 71.6502L86.224 71.6145L86.0471 71.5243L85.6681 71.2508L85.5754 71.2162L85.48 71.2077L85.4043 71.2399L85.3119 71.3011L85.2518 71.2853L85.2059 71.2399L85.1576 71.2124L84.9821 71.2218L84.7377 71.278L84.6078 71.2674L84.4647 71.2101L84.3587 71.1182L84.2951 70.9839L84.2312 70.4698L84.1143 70.2393L83.9397 70.0631L83.7233 69.8972L83.7245 70.0046L83.7557 70.0824L83.8137 70.1374L83.8882 70.1708V70.2308L83.4984 70.2843L83.5631 70.1266L83.4963 70.0011L83.39 69.8721L83.335 69.7068L83.3311 69.5014L83.2926 69.3831L83.1795 69.322L82.744 69.2538L82.6654 69.1798L82.6692 68.8808L82.6295 68.7863L82.5355 68.6833L82.3397 68.5279L82.2579 68.5074L82.1604 68.5065L82.1133 68.4872L82.1807 68.4129L82.0859 68.3401L82.0194 68.2722L81.9449 68.2195L81.8259 68.2005L81.7609 68.1993L81.6752 68.1838L81.6022 68.1431L81.5709 68.0618L81.4685 67.8772L81.2288 67.7663L80.7418 67.6492L80.7801 67.6074L80.773 67.5656L80.7356 67.5246L80.6876 67.4854H80.637L80.5033 67.6291L80.4674 67.6492L80.3543 67.6323L80.3334 67.5954L80.3396 67.5442L80.3025 67.4854L80.2159 67.4491L80.1676 67.4602L80.1314 67.4553L80.0837 67.3719L80.0955 67.3493L80.1396 67.3324L80.1835 67.3084L80.1929 67.2618L80.1688 67.2247L80.1314 67.1913L80.0837 67.1574L80.0487 67.0848L79.9173 66.88L79.897 66.8013L79.8582 66.5576L79.7969 66.416L79.7524 66.3393L79.7728 66.272L79.8175 66.2401L79.8425 66.2027L79.8031 66.1161L79.7486 66.0063L79.781 65.6289L79.7524 65.4606L79.6803 65.3442L79.5876 65.2441L79.1712 64.9249L79.1388 64.9144L79.1294 64.8178L79.1868 64.6291L79.1989 64.5273L79.1736 64.4257L79.1006 64.2955L79.0832 64.1946L79.1029 64.1317L79.1459 64.0621L79.1868 63.979L79.1989 63.8725L79.0941 63.9225L78.9869 64.0226L78.9233 64.0357L78.8344 64.0149L78.784 63.9769L78.6983 63.8725L78.5264 63.7171L78.2626 63.3941L78.2099 63.2071L78.158 62.8273L78.1498 62.4426L78.1786 62.2606L78.3026 61.9253L78.3147 61.733L78.4322 61.6806L78.5708 61.6666L78.8391 61.6789L78.9728 61.6444L79.1736 61.4943L79.2808 61.46L79.6791 61.4451L79.8031 61.46L79.9006 61.491L79.9771 61.5367L80.0378 61.5984L80.0837 61.6789L80.1847 61.6663L81.4358 61.733L81.6101 61.7108L81.9411 61.6251L82.1254 61.6242L82.6633 61.7965L82.8103 61.7602L82.8989 61.7239L82.9869 61.7482L83.0747 61.7845L83.1642 61.7877L83.2251 61.7506L83.3662 61.6227L83.4442 61.5741L84.8569 61.4998L85.4873 61.2853L85.5415 60.6361L85.4838 60.6852L85.4308 60.6797L85.3911 60.6258L85.3763 60.5267L85.4028 60.5041L85.5162 60.4289L85.5415 60.3929L85.5127 60.2265L85.4644 60.0904L85.455 59.9731L85.5415 59.8672L85.4982 59.7647L85.5224 59.6969L85.5707 59.6398L85.5969 59.569L85.5789 59.4643L85.5041 59.2761L85.4588 59.0543L85.3934 58.9642L85.3201 58.8829L85.2671 58.7799L85.2612 58.6915L85.2842 58.6248L85.2971 58.5517L85.2671 58.4425L85.0589 58.2365L84.4586 57.9375L84.2733 57.673L84.1853 57.5498L84.1217 57.3336L84.0446 57.1537L83.9138 57.0776L83.834 56.9916L83.6185 56.6129L83.0543 56.0851L82.8353 55.9809L82.7799 55.9262L82.7617 55.8876L82.7487 55.8048L82.7293 55.7621L82.6972 55.741L82.603 55.7199L82.5691 55.7027L82.479 55.6023L82.3698 55.5154L82.229 55.4534L81.8595 55.4066L81.4611 55.2658L81.4202 55.219L81.3804 55.2062L81.3239 55.2386L81.295 55.2773L81.2856 55.3024L81.2674 55.3165L81.2147 55.3203L81.0124 55.2287L80.9426 55.2111L80.8257 55.2457L80.7465 55.3255L80.6717 55.4174L80.5769 55.4894L80.5009 55.5104L80.4261 55.5107L79.6838 55.4215L79.5876 55.4595L79.5516 55.5131L79.4733 55.4338L79.3688 55.2658L79.2772 55.169L79.228 55.1529L79.1388 55.157L79.0258 55.2369L78.956 55.2691L78.8944 55.2097L78.8235 55.1827L78.7416 55.1643L78.678 55.157L78.2602 54.8837L78.1895 54.7597L78.1398 54.6157L78.075 54.4966L77.9572 54.4472L77.8286 54.4261L77.7069 54.3863L77.565 54.3623L77.3807 54.3872L77.2529 54.4337L77.1089 54.4688L76.9897 54.429L76.9523 54.2895L76.914 54.1435L76.8439 54.0996L76.6614 54.0604L76.3867 53.8962L75.8525 53.754L74.8394 52.9666L74.7442 52.9254L74.5508 52.8833L74.5002 52.8204L74.4683 52.7411L74.4289 52.6653L74.2773 52.5561L74.1283 52.552L73.9704 52.5842L73.7947 52.5857H73.8441L73.7372 52.5945L73.6492 52.5678L73.5794 52.5087L73.5241 52.4719L73.3771 52.3791L73.3147 52.3648L73.2196 52.3624L73.1127 52.3753L72.9455 52.4245L72.861 52.4221L72.7903 52.3774L72.7141 52.3057L72.6363 52.2571L72.4917 52.2975L72.4049 52.2712L72.2509 52.1989L72.0501 52.1872L71.9597 52.157L71.9214 52.0622L71.8814 51.9947L71.7889 51.9751L71.5913 51.9803L71.4518 51.9356L71.1788 51.8135L71.0925 51.8168L71.0584 51.7808L71.0287 51.7585L70.9889 51.765L70.9274 51.8168L70.7495 51.7155L70.6014 51.6775L70.4654 51.6263L70.3232 51.4841L70.2163 51.5599L70.0947 51.5695L69.9757 51.5932L69.8783 51.707L69.8468 51.6836L69.8238 51.6713L69.7687 51.6526L69.7599 51.7146L69.7254 51.8147L69.7134 51.8712H69.6589L69.5423 51.619L69.3486 51.5684L68.8624 51.6526L68.6336 51.5783L68.4629 51.3913L68.3751 51.1415L68.3954 50.8837L68.5403 50.628L68.5606 50.5285L68.5512 50.4395L68.5138 50.3175L68.5053 50.2531L68.5471 50.0805L68.835 49.6773L68.8877 49.5302L68.901 49.3841L68.8889 49.0442L68.8966 48.9614L68.931 48.7835L68.9502 48.4967L68.9443 48.4762L68.9864 48.387L69.0453 48.2951L69.0538 48.2281L69.0367 48.1602L68.9619 48.0502L68.9443 48.0046L68.9237 47.8413L68.8421 47.513L68.835 47.3249L68.8804 46.9629L68.9369 46.7918L69.0297 46.7192L69.0538 46.6522L68.9696 46.5039L68.8515 46.3526L68.7794 46.2777L68.5053 46.1981L68.4776 46.1642L68.3513 46.0805L68.1993 46.019L68.0754 45.9111L67.1959 44.9359L67.0263 44.5599L66.9011 44.4212L66.8564 44.4183L66.799 44.4376L66.7301 44.4405L66.6544 44.3914L66.4845 44.1649L66.4177 44.0397L66.1273 43.7067L65.633 43.2971L65.3032 42.8877L64.9917 42.7634L64.6472 42.8026L64.3009 42.8845L63.9794 42.8877L63.1467 42.6194L62.9314 42.5003L62.6355 42.0749L62.5186 42.0094L62.4901 41.9658L62.4909 41.6767L62.4512 41.6249L62.2722 41.5131L62.0325 41.2808L61.8929 41.2076L61.5343 41.1444L61.4345 41.059L61.3888 40.9528L61.3924 40.8577L61.4283 40.8141L61.5319 40.7702L61.5523 40.7164L61.544 40.6681L61.5249 40.6447L61.5069 40.6295L61.4969 40.6049L61.4571 40.5604L61.2637 40.4405L61.0217 40.3735L60.8797 40.2775L60.668 40.0935L60.3515 39.9755L59.3504 39.8205L59.2303 39.7737L59.1546 39.7324L59.0845 39.6955L58.9614 39.6031L58.9099 39.515V38.833L58.8752 38.6738L58.8077 38.5383L58.7153 38.4184L58.6055 38.3095L58.4874 38.2791L58.0702 38.263L57.9665 38.2814L57.6936 38.1998L57.3311 38.1524L56.9689 38.155L56.6983 38.227L56.7175 38.3083L56.6801 38.4169L56.6103 38.526L56.5317 38.6094L56.5022 38.6554V38.6893L56.4825 38.711L56.3951 38.7186L56.3312 38.6957L56.2914 38.6413L56.2299 38.5249L56.1136 38.4704L55.9136 38.5781L55.7885 38.5249L55.7016 38.4611L55.6236 38.4233L55.5515 38.3762L55.4891 38.2814L55.5842 38.2917L55.6743 38.2773L55.7523 38.2384L55.8185 38.1726L55.6165 38.1702L55.5238 38.1849L55.4396 38.1726L54.9149 38.2086L54.6466 38.1925L54.4394 38.1132L54.0486 37.547L53.8605 37.4578L53.7406 37.4297L53.4094 37.2813L53.3084 37.2097L53.0104 36.7418L52.885 36.6836L52.731 36.6493L52.4448 36.6265L52.3358 36.5861L52.2519 36.5165L52.1771 36.4156L52.2399 36.317L52.2231 36.2675L52.1692 36.2494L52.1236 36.2467L52.0064 36.3295L51.9342 36.3632L51.9033 36.331L51.6645 36.2552L51.5977 36.2219L51.5314 36.1803L51.406 36.1279L51.3533 36.0882L51.3191 36.0329L51.239 35.8102L50.7771 35.3508L50.636 35.2572L50.273 35.1343L48.5555 34.8338L48.4568 34.8277L48.3555 34.8019L48.2039 34.689L48.1271 34.6635L47.5709 34.6088L47.4378 34.5541L47.3824 34.6138L47.2511 34.5828L47.11 34.5945L46.8442 34.6176L46.6637 34.6138L46.0177 34.4499L45.7833 34.3139L45.6735 34.299L45.5592 34.2957L45.4556 34.2814L45.1873 34.1398L45.0949 34.1178L44.9167 34.0977L43.3344 33.6184L42.4198 33.339L41.5559 32.9267L40.5498 32.6335L40.3249 32.5261L40.2044 32.486L40.0204 32.4702L39.8435 32.412L39.6621 32.2985L39.4872 32.2157L39.2213 32.3061L39.1456 32.2845L38.941 32.2672L38.8868 32.2514L38.865 32.1709L38.8903 32.0767L38.9289 31.9872L38.9472 31.9187L38.9024 31.8432L38.4643 31.4547L38.3804 31.4195L37.9219 31.4517L37.6198 31.5088L37.4585 31.4822L37.0989 31.2367L37.0639 31.1571L37.0615 31.079L37.0362 31.0193L36.7809 30.9722L34.9701 30.1242L33.4093 29.4805L33.2373 29.4568L33.0556 29.3866L32.8233 29.1432L32.7176 29.1838L32.674 29.1303L32.5913 28.9615L32.5539 28.9112L32.4623 28.881L32.2577 28.8725L32.1638 28.8518L32.1099 28.8175L32.0581 28.7733L31.9894 28.7289L31.8896 28.6929H31.6394L31.311 28.632L30.9869 28.5267L30.6792 28.4907L30.3962 28.6382L30.2313 28.5712L30.1256 28.5761L30.1244 28.5764V28.821L30.1162 31.7844V31.7888L30.1085 33.7732V33.7735L30.1233 39.7848L30.1271 41.1547L30.1365 44.5315L30.145 47.6722V58.4384L30.1124 58.4507L30.0968 58.4703L30.0399 58.5423L30.0305 58.5827L29.999 58.7026V58.7029L29.9607 58.719V58.7193L29.951 58.7474L29.9693 58.7948L30.0473 58.8618L30.0667 58.9086V58.9092L30.0352 58.9923L29.9754 59.0479H29.974L29.9616 59.0655L29.9304 59.1093L29.951 59.2115L29.8606 59.205L29.7764 59.2091L29.6972 59.2287L29.6274 59.2662L29.6262 59.2665L29.7125 59.2761L29.7679 59.3171L29.7935 59.3882L29.7911 59.4847L29.9171 59.4818L29.9537 59.6021L29.9304 59.7475L29.8762 59.8174L29.7537 59.8347L29.6945 59.8879L29.6781 59.9804L29.6695 60.182L29.6598 60.2028L29.648 60.2244V60.2253L29.6068 60.2478L29.5397 60.2543L29.4711 60.28L29.4699 60.2806L29.4984 60.3414L29.5538 60.4143L29.567 60.4725L29.5214 60.5044L29.4504 60.555V60.5556L29.3168 60.5843L29.199 60.6247H29.1975L29.169 60.6744L29.1283 60.7452L29.1269 60.7455L29.2435 60.802L29.2505 60.95L29.2002 61.1455L29.1822 61.2145L29.1389 61.3079L29.133 61.3275L29.1183 61.3793L29.1269 61.46L29.1869 61.5458L29.3565 61.6947L29.4013 61.7877L29.3986 61.8003L29.3889 61.8419L29.3109 61.9451L29.2917 61.9835L29.3191 62.0724L29.3868 62.1421L29.5397 62.2544L29.5803 62.382L29.5936 62.5502L29.6551 62.6579L29.8465 62.607L29.8753 62.8604L30.0281 62.94L30.1474 62.9291L30.145 66.0172V71.7672L30.1509 76.6389L30.1459 80.5965L30.3962 80.7425L31.2589 81.4956L31.561 81.6059L31.9438 81.5711L32.2 81.4491L32.828 80.966L33.1157 80.8812L33.4275 80.8826L33.727 80.952L33.9822 81.0749L34.3153 81.3045L34.438 81.4684L34.5982 81.4944L34.7678 81.4956L34.8653 81.5114L34.9966 81.4529L35.1038 81.4982L35.2083 81.5784L35.3323 81.6214L35.443 81.6044L35.5696 81.5629L35.6824 81.5088L35.7495 81.4573L35.9518 81.4693L36.6331 81.3475L36.816 81.3748L37.1528 81.4862L37.3215 81.5114L37.5188 81.4994L37.6834 81.466L38.171 81.2902L38.3321 81.258L39.4716 81.1755L39.7436 81.1837L39.8364 81.1585L39.9904 81.0447L40.0758 81.0198L40.1779 81.038L40.6005 81.1837L40.9482 81.3774L41.0683 81.4075L41.2597 81.4242L41.3813 81.4646L41.593 81.5711L41.8324 81.5486L42.1239 81.6729L42.3957 81.8558L42.7844 82.1809L43.0264 82.3377L43.3088 82.4246L43.6315 82.3903L44.0767 82.144L44.1294 82.0521L44.2619 81.9705L45.1249 81.6404L45.4099 81.4242L45.7865 81.2724L45.9491 81.1837L46.0177 81.1035L46.0863 80.9938L46.1619 80.8978L46.2535 80.8563L46.3315 80.8358L46.5182 80.7223L46.7167 80.5608L46.8527 80.4961L47.5661 80.2772L47.6842 80.2556L47.7387 80.2307L47.777 80.1769L47.8023 80.1207L47.8226 80.0917L47.8624 80.0885L47.9466 80.097L48.0717 80.0754L48.2389 80.0634L48.3208 80.0382L48.2669 79.9832L48.5039 79.9387L48.9609 79.9364L49.2003 79.8729L49.3352 79.8073L49.4253 79.7477L49.6181 79.5706L49.6914 79.4463L49.6941 79.3064L49.6458 79.0443V78.0076L49.6072 77.9002L49.5339 77.7759L49.2283 77.411L48.9862 77.0198L48.5325 76.489L47.4869 75.6394L47.2473 75.4884L46.9381 75.3772L45.9323 75.1741L45.6196 75.0545L45.1019 74.7151L44.93 74.6668L44.8467 74.6299L44.5699 74.3894L44.2404 74.2858L44.1067 74.3332L43.4666 74.2258L43.1789 74.3177L42.6436 74.6756L42.3583 74.7721L42.0191 74.7388L41.7579 74.5951L41.5774 74.3748L41.3345 73.6111L41.3136 73.4344L41.2297 73.2632L41.0336 73.2237L40.8119 73.2547L40.4718 73.3469L40.3705 73.3539L40.2418 73.3024L40.1927 73.3361L40.1397 73.3826L40.0758 73.4066L39.9553 73.4376L39.8458 73.5116L39.6653 73.679L39.5428 73.6266L39.5113 73.5646L39.5558 73.4914L39.6653 73.4066L39.7534 73.3732L39.8435 73.3601L39.9324 73.3352L40.0204 73.2679L40.0805 73.1962L40.1264 73.1555L40.1888 73.1374L40.4727 73.1172L40.93 73.0239L41.2777 73.0885L41.4499 73.2989L41.6363 74.093L41.7111 74.2355L41.8301 74.3455L42.0059 74.3894L42.3598 74.4181L42.5161 74.4075L42.6928 74.3391L43.1492 74.0462L43.3297 74.007L43.481 73.995L43.8806 73.9063L44.0166 73.8431L44.0949 73.8861L44.1294 73.8958L45.1514 74.0594L45.942 74.4181L46.0889 74.4491L46.2715 74.4359L48.1571 73.9529L48.8431 73.9025L49.0643 73.7679L49.1452 73.7343L51.1908 73.6878L51.3556 73.6652L51.4902 73.5956L51.5373 73.4437L51.477 73.243L51.0126 72.4284L50.9319 72.1116L50.8371 72.0065L50.1811 71.7195L50.0342 71.6048L49.9753 71.4588L49.9453 71.2604L49.8563 71.1911L49.5301 71.1586L49.4482 71.1323L49.3799 71.0942L49.3328 71.0413L49.316 70.9699L49.3567 70.9251L49.4471 70.9412L49.5324 70.9778L49.5604 70.9994L49.7706 71.0009L49.9199 71.0258L50.0357 71.105L50.1393 71.2674L50.273 71.5641L50.3616 71.6648L50.5012 71.704L50.9584 71.7362L51.4784 71.6092L51.6645 71.6036L51.8203 71.6779L51.8971 71.7268L52.1771 71.8137L52.2496 71.864L52.3865 71.9872L52.4519 72.0314L52.602 72.0744L53.3532 72.0829L53.5189 72.0554L53.6564 71.9752L53.7804 71.8137L53.4768 71.51L53.3361 71.4313L53.2678 71.412L53.1308 71.4003L53.0617 71.3763L53.0066 71.3356L52.9465 71.2473L52.8971 71.2124L53.3661 71.235L53.5013 71.2674L53.6226 71.3763L53.7336 71.5293L53.8525 71.661L54.0006 71.704L54.0139 71.6858L54.1267 71.5305L53.9968 71.1946L53.6108 70.612L53.4062 70.366L53.3169 70.22L53.2807 70.0345L53.2725 69.8446L53.2445 69.6746L53.1944 69.5157L52.5384 68.4205L52.4021 68.0916L52.4145 68.0401L52.4418 67.9875L52.4262 67.9445L52.241 67.9099L52.0644 67.8356L51.9849 67.8178L51.9089 67.7663L51.6504 67.4962L51.5688 67.3719L51.6274 67.2618L51.6601 67.3441L51.6778 67.3719L51.754 67.4471L52.0282 67.6598L52.1501 67.7042L52.2425 67.7054L52.4315 67.7294L52.5119 67.7581L52.5891 67.8034L52.6188 67.8371L52.6768 67.9766L52.9668 68.5074L53.0066 68.6666L53.0896 68.8117L53.2787 68.968L53.8658 69.3088L55.376 69.8206L55.5141 69.9271L55.5951 69.9689L55.6884 69.9484L55.7835 69.9116L55.8739 69.8972L55.9749 69.9271L56.0541 69.9748L56.2034 70.1208L56.3132 70.0658L56.6174 69.9581L56.6983 69.8972L56.6863 69.8004L56.6079 69.6892L56.5069 69.5994L56.4227 69.5645L56.5237 69.403L56.5744 69.2228L56.5214 69.0923L56.3132 69.0791V69.0197L56.4166 68.9966L56.5128 68.9571L56.5923 68.8939L56.6427 68.8009L56.769 68.9276L56.9486 69.2957L57.0823 69.3565L57.1615 69.2635L57.1073 69.0745L57.0146 68.8474L56.9775 68.637L57.2457 69.03L57.3335 69.2477L57.367 69.4882L57.4286 69.7038L57.5681 69.7694L57.7162 69.7012L57.8019 69.5157L57.8882 69.5716L58.0004 69.676L58.0952 69.7887L58.1364 69.8732L58.1747 69.9078L58.3349 70.1231L58.3566 70.1708L58.561 70.1374L58.4983 69.9476L58.3369 69.7384L58.2459 69.652L58.2156 69.5251L58.1482 69.4162L58.0737 69.3235L58.0269 69.243L57.9809 69.0338L57.9665 68.7731L57.9447 68.6525L57.839 68.4322L57.8019 68.3093L57.7872 68.0056L57.7513 67.8678H57.8019L57.8655 67.967L57.958 68.2242L58.0269 68.364L58.0628 68.3927L58.1181 68.4229L58.1685 68.4562L58.1915 68.4978L58.1953 68.5472L58.2241 68.6882L58.2459 68.7459L58.3237 68.8342L58.533 68.999L58.5757 69.1031L58.6093 69.1295L58.685 69.1055L58.7621 69.0481L58.8007 68.9694L58.6199 68.8161L58.5757 68.7459L58.5704 68.6452L58.6358 68.3889L58.632 67.8225L58.6779 67.7233L58.8007 67.8678L58.8136 67.9515L58.7918 68.1478L58.8257 68.2218L58.8725 68.278L58.8981 68.3365L58.9087 68.4085L58.9099 68.4978L58.9414 68.6092L59.0171 68.7561L59.1048 68.8913L59.1796 68.9694L59.3345 69.0095L59.5388 69.0051L59.7187 68.9466L59.7947 68.8281L59.7653 68.6847L59.7137 68.5399L59.6872 68.3942L59.7341 68.2444L59.9363 68.4129L60.0267 68.51L60.1021 68.6882L60.3936 68.9045L60.567 69.1078L60.6789 69.2026L60.8085 69.243L60.9507 69.2395L61.1132 69.2146L61.2119 69.1488L61.1627 69.0197L61.2372 68.8486L61.2696 68.4621L61.332 68.3093L61.4298 68.443L61.4548 68.6212L61.4454 69.3998L61.3815 69.5476L61.2504 69.7068L61.2578 69.7547L61.3214 69.8182L61.4056 69.8747L61.473 69.8972L61.4945 69.9139L61.5366 69.9879L61.5523 70.007H61.5994L61.6945 69.9674L61.7472 69.9569L61.8761 70.0023L61.9721 70.0763L62.059 70.0921L62.1612 69.9569L62.4044 70.2308L62.4909 70.2843H62.9912L63.0648 70.2463L63.094 70.2053L63.096 70.0345L63.1216 69.9628L63.1808 69.9844L63.2394 70.0573L63.2659 70.1456L63.3428 70.2928L63.5224 70.3993L63.7255 70.4543L63.8748 70.4435L63.8678 70.3993L63.9278 70.2811L64.0035 70.1986L64.0659 70.3013L64.1793 70.3791L64.2379 70.4725L64.4078 70.6243L64.479 70.667L64.5691 70.677L64.6542 70.6574L64.734 70.629L64.8035 70.612L65.1091 70.6492L65.3379 70.7674L65.8037 71.2063L65.9277 71.2712L66.0767 71.3058L66.2672 71.3178L66.8122 71.2162L66.9612 71.2674V71.2124L67.0913 71.2639L67.2141 71.2519L67.3346 71.2209L67.4559 71.2124L67.5639 71.259L67.7144 71.4012L67.8157 71.4313L68.308 71.436L68.4523 71.3748L68.3354 71.2124L68.4844 71.1466L68.6195 71.1691L68.7373 71.1729L68.835 71.0498H68.8889L68.7938 71.2376L68.7794 71.2926L68.7988 71.3248L68.8406 71.3523L68.8795 71.3848L68.8889 71.4313L68.8554 71.474L68.7482 71.4886L68.724 71.5138L68.7423 71.5758L68.7794 71.6188L68.8168 71.6502L68.835 71.6779L68.9431 71.8093L69.4519 71.9752L69.6085 72.0867L69.8182 72.0206L70.0814 72.0329L70.5422 72.1464L70.9683 72.3641L71.2077 72.451L71.3717 72.4191L71.41 72.4943L71.3955 72.5554L71.339 72.6031L71.2571 72.6379L71.3608 72.7263L71.4518 72.8577L71.4759 72.9867L71.3717 73.0739L71.5062 73.3527L71.5943 73.4329L71.7839 73.4616L71.854 73.5116L72.0886 73.7381L72.3545 73.8346L72.4605 73.947L72.54 74.0895L72.5854 74.2258V74.4731L72.6001 74.507L72.6684 74.6012L72.6902 74.6668L72.7011 74.9898L72.7986 75.2335L73.489 76.2383L73.6842 76.4153L73.7022 76.4247L74.0717 76.6365L74.1236 76.7199L74.1657 76.8276L74.2655 76.9674L74.6494 77.392L74.6912 77.4686L74.7286 77.5655L74.7348 77.643L74.7251 77.7267V77.8069L74.7587 77.8718L74.8202 77.8704L74.9233 77.8572L75.0198 77.8762L75.0634 77.9778L75.0714 78.0377L75.0967 78.0916L75.1317 78.136L75.1738 78.1653L75.1223 78.2961L75.2018 78.3259L75.3352 78.2756L75.4471 78.1653L75.4698 78.3093L75.4324 78.4228L75.3484 78.5193L75.2283 78.613L75.0908 78.558L75.0449 78.6633L75.0296 78.8114L74.9801 78.8857L75.0284 78.9322L75.0752 79.0399L75.0967 79.1663L75.0634 79.2731L75.1833 79.4319L75.2846 79.6186L75.4112 79.798L75.6129 79.9332L75.7621 79.9844L76.3219 80.1064L76.4373 80.176L76.4962 80.2009L76.5889 80.2082L76.7344 80.1842L76.8307 80.2009L77.103 80.3346L77.3448 80.4938L77.5915 80.6014L77.8801 80.5789L77.974 80.5104L78.2255 80.2571L78.2352 80.2009L78.209 80.1637L78.2146 80.0824L78.2652 80.006L78.3697 79.9832L78.4169 80.0168L78.4542 80.0885L78.4784 80.176L78.4843 80.2556L78.4277 80.3577L78.1998 80.5271L78.1498 80.6088L78.1145 80.6169L77.9292 80.7425L77.7767 80.7758L77.7152 80.8022L77.7502 80.8695L77.7915 80.9315L77.8341 80.9827L77.8801 81.0198L77.7694 81.198L77.7811 81.4347L77.8548 81.6296L77.9292 81.6799L77.9655 81.7648L77.9393 81.8309L77.8668 81.8733L77.7694 81.8941L77.8548 82.0053L78.1845 81.9324L78.3424 81.9813L78.4769 82.156L78.5482 82.3327L78.6492 82.7227L78.7257 82.8708L78.9354 83.1795L79.0402 83.4293L79.1786 83.5358L79.3264 83.5993L79.418 83.6026L79.4527 83.5941L79.4819 83.5464L79.4913 83.4686L79.4724 83.3793L79.4227 83.3225L79.294 83.281L79.2528 83.2152L79.3868 83.1853L79.4986 83.1751L79.5985 83.1988L79.6924 83.2702L79.743 83.3755L79.7825 83.6435L79.8293 83.7369L80.0036 83.8551L80.2495 83.9744L80.4998 84.0499L80.6861 84.0394L80.5972 83.8802L80.6237 83.8144L80.7224 83.8191L80.8507 83.8753L80.9196 83.9174V83.9162L80.9953 83.9627L81.1107 84.0584L81.1805 84.1863L81.1867 84.3656L81.2409 84.3103L81.3902 84.3885L81.4803 84.5102L81.5477 84.6418L81.626 84.7483L81.8424 84.9622L82.5659 85.8877L82.6389 86.0334L82.6692 86.1964L82.6825 86.5384L82.7152 86.6663L82.7799 86.7772L82.8845 86.8705L83.0122 86.9604L83.1191 87.0607L83.1642 87.1874L83.2231 87.3074L83.5102 87.5847L83.6138 87.6564L83.6945 87.6658L83.8028 87.6646L83.8979 87.679L83.9389 87.7354L83.9771 87.7758L84.0649 87.8176L84.1673 87.8513L84.2433 87.8645L84.3829 88.5301H84.4382L84.7439 88.2241L84.935 88.1813L85.2671 88.2519L85.3669 88.3557L85.4128 88.3739L85.4432 88.2088L85.4764 88.1468L85.5283 88.1047L85.5969 88.0927L85.6932 88.1623L85.7076 88.2984L85.6402 88.4265L85.4873 88.4754V88.5301L85.6858 88.5184L85.8377 88.4731L85.9649 88.4549L86.0904 88.5301L86.1743 88.6668L86.242 88.8338L86.3321 88.9848L86.4811 89.0758L86.6006 89.017L86.6884 88.9321L86.81 88.7434L87.1133 88.828L87.4969 88.7709L87.8126 88.5913L87.9083 88.3115L87.978 88.3666L88.0287 88.4848L88.0779 88.5301L88.1323 88.5389L88.2807 88.5281L88.3541 88.5301L88.5234 88.5901L88.64 88.6849L88.7374 88.7841L88.8531 88.8566L88.917 88.7373L89.0681 88.761L89.2224 88.8827L89.2922 89.0483L89.374 89.1486L89.8964 89.3482L90.0551 89.2958L90.6861 89.2873L90.805 89.2669L90.9037 89.225L90.9455 89.158L90.9902 89.1238L91.0921 89.1369L91.2802 89.1893H91.6601L91.7484 89.2358L91.8014 89.249L91.8256 89.2142L91.9071 89.1258L92.0467 89.0615L92.1067 88.9081L92.1595 88.5842H92.2089L92.2875 88.8449L92.3246 88.9166L92.3776 88.9523L92.4704 88.9918L92.5605 89.0003L92.5991 88.9438L92.6541 88.8338L92.7637 88.8929L92.8384 89.0111L92.7916 89.0758L92.6821 89.079L92.5967 89.0983L92.5328 89.1478L92.4898 89.2396L92.5157 89.242L92.5991 89.2396L92.5835 89.2669L92.5617 89.3219L92.5434 89.3482L92.6167 89.4105L92.5991 89.5852L92.6797 89.6224L92.7878 89.6332L92.9356 89.6782L93.0384 89.6809L93.4535 89.6224L93.5772 89.6294L93.6738 89.6519L94.22 89.9164L94.374 89.97L94.5327 89.9545L94.601 89.9068L94.6843 89.8313L94.7806 89.7619L94.889 89.7309L94.9685 89.7215L95.0647 89.6976L95.2511 89.6224L95.2979 89.6487L95.3704 89.6464L95.5267 89.6224L95.595 89.6317L95.742 89.6727L95.9575 89.6996L96.0741 89.7429L96.6539 90.037L96.7601 90.0633L96.9044 90.0753L97.0814 90.1101L97.2424 90.1625L97.3387 90.2269L97.4209 90.159L97.5699 89.9989L97.6735 89.9545L98.0307 90.0908L98.074 90.1736L98.079 90.2523L98.104 90.3132L98.306 90.3515L98.3699 90.391L98.3675 90.4448L98.2786 90.4998L98.4158 90.5633L98.5024 90.5262L98.5745 90.4627L98.6623 90.4457L98.7141 90.4925L98.7397 90.6336L98.8021 90.6634H99.0521V90.6099L98.9432 90.5595L98.9982 90.4998L99.1319 90.5502L99.2317 90.5013L99.3171 90.4448L99.5194 90.5151L99.6675 90.5034L99.9372 90.4457L100.165 90.4349L100.465 90.4232L100.732 90.4507L100.901 90.5297L101.07 90.6482L101.515 90.7834L101.727 90.9124L101.805 90.9946L101.85 91.0716L101.92 91.2699L101.945 91.2983L101.982 91.3153L102.015 91.3431L102.03 91.406L102.032 91.4815L102.045 91.5447L102.079 91.5988L102.139 91.6512L102.206 91.5725L102.242 91.4429L102.262 91.3223L102.276 91.2699L102.307 91.2518L102.359 91.1731L102.391 91.155L102.451 91.1646L102.547 91.2053L102.72 91.2378L102.884 91.3431L102.968 91.3788L103.087 91.387L103.199 91.3823L103.307 91.3893L103.413 91.4335L103.234 91.4683L103.188 91.4876L103.169 91.5306L103.151 91.6655L103.133 91.7109L103.063 91.7422L102.692 91.8557L102.331 91.7612L102.116 91.8069L102.03 91.7984L101.974 91.7109L101.901 91.7314L101.84 91.7636L101.792 91.8089L101.76 91.8701L101.876 91.8364L101.92 91.8153L101.903 91.9599L101.802 92.0146L101.677 92.0541L101.584 92.1477L101.677 92.1594L101.762 92.1799L101.841 92.2118L101.92 92.2577L101.917 92.2171L101.927 92.2074H101.948L101.974 92.1978L101.92 92.0936L102.153 92.1746L102.256 92.2373L102.304 92.3113H102.358L102.384 92.2706L102.468 92.1978L102.441 92.3326L102.424 92.3666L102.552 92.45L102.625 92.4778L102.693 92.4754L102.772 92.3271L102.827 92.2539L102.853 92.285L102.903 92.3686L102.986 92.4535L103.003 92.5433L102.853 92.639L102.936 92.6917L103.011 92.6987L103.079 92.6902L103.133 92.694L103.192 92.7344L103.298 92.8625L103.375 92.8745L103.406 92.8482L103.438 92.8289L103.518 92.8625L103.557 92.9032L103.688 93.0767L103.809 92.9965L104.014 92.9199L104.206 92.8889L104.292 92.9412L104.268 93.0071L104.219 93.06L104.188 93.1092L104.208 93.1604L104.4 93.2871L104.456 93.3541L104.614 93.2177L104.695 93.1674L104.781 93.1355L104.775 93.158L104.826 93.1952L104.896 93.2297L104.951 93.2452L104.954 93.2283L105.327 93.0404L105.492 93.0059L105.625 93.0624L105.725 93.2452L105.825 93.2119L105.961 93.1914L106.101 93.1987L106.214 93.2452L106.214 93.1364L106.256 93.0682L106.305 93.0273L106.33 92.9989L106.371 93.0109L106.458 92.9307L106.535 92.8362L106.549 92.8025L106.675 92.7165L106.739 92.6987L106.855 92.694L107.07 92.6463L107.099 92.6665L107.187 92.7104L108.163 92.3578L108.288 92.285L108.331 92.1966ZM109.712 81.5804L109.797 81.5377L109.828 81.4599L109.798 81.4584L109.789 81.4336L109.738 81.4265L109.692 81.4227L109.659 81.4075L109.656 81.4359L109.695 81.466L109.712 81.5804ZM128.78 98.2445L128.762 98.2708L128.811 98.296L128.845 98.332L128.887 98.2626L128.929 98.248L128.976 98.1476L128.932 98.0833L128.899 98.095L128.849 98.0964L128.827 98.095L128.885 98.1921L128.843 98.2372L128.78 98.2445ZM105.551 83.3612L105.684 83.0692L105.725 82.9428L105.752 82.9033L105.792 82.8743L105.818 82.8445L105.803 82.8026L105.733 82.7216L105.725 82.7251L105.697 82.6619L105.629 82.5504L105.595 82.3602L105.445 82.01L105.294 81.8256L105.103 81.6837L104.677 81.4584L104.483 81.3964L104.284 81.4444L104.088 81.5667L103.902 81.7314L103.745 81.9324L103.663 82.144L103.632 82.3757L103.627 82.6364L103.675 82.7025L103.99 82.97L104.04 83.0504L104.086 83.1496L104.136 83.2333L104.208 83.2702L104.519 83.3612L104.649 83.3793L104.737 83.4188L104.779 83.5168L104.787 83.6409L104.78 83.7617L104.814 83.7462L104.824 83.7401L104.827 83.7319L104.846 83.7117L105.044 83.8191L105.268 83.9042L105.475 83.9066L105.614 83.7617L105.657 83.671L105.671 83.6157L105.666 83.5437L105.525 83.5394L105.453 83.5189L105.473 83.4627L105.551 83.3612ZM109.189 82.0975L109.163 82.0457L109.015 82.0422L109.012 82.1282L109 82.1882L109.112 82.2034L109.151 82.1847L109.189 82.0975ZM108.442 83.1663L108.288 83.243L108.178 83.257L108.035 83.1976L107.817 83.0516L107.668 82.8611L107.562 82.7655L107.293 82.6926L106.823 82.4509L106.618 82.4632L106.401 82.5372L106.234 82.6712L106.164 82.8611L106.19 83.0993L106.439 83.6517L106.825 83.8738L106.883 83.9557L106.89 84.1242L106.876 84.2366L106.798 84.325L106.604 84.4218L106.333 84.619L106.214 84.7425L106.244 84.7984L106.508 84.7975L106.823 84.7495L107.177 84.734L107.484 84.8259L107.765 84.9476L108.044 85.0219L108.224 85.0234L108.729 84.9672L109.072 85.0901L109.231 85.1044L109.201 84.9672L109.451 84.9584L109.581 84.9804L109.635 85.0471L109.615 85.1384L109.53 85.328L109.526 85.4596L109.798 85.1931L109.936 85.1012L110.021 85.1861L110.116 85.1384L110.196 85.0629L110.245 84.9672V84.8584L110.194 84.7899L110.118 84.7533L110.051 84.7065L109.994 84.5017L109.927 84.4827L109.836 84.4803L109.741 84.4218L109.704 84.3431L109.751 84.3118L109.82 84.289L109.856 84.2305L109.902 83.9206L109.882 83.8753L109.782 83.8539L109.663 83.7977L109.55 83.726L109.47 83.6517L109.46 83.6075L109.478 83.4867L109.47 83.4387L109.431 83.3852L109.179 83.1555L108.867 82.9428L108.748 83.097L108.6 83.1435L108.442 83.1663ZM108.74 82.034L108.795 82.1141L108.846 82.199L108.904 82.1332L108.97 82.0662L108.934 82.0231L108.864 81.9991L108.841 81.9298L108.831 81.8546L108.762 81.8558L108.672 81.8748L108.669 81.9049L108.692 81.9573L108.697 81.998L108.74 82.034ZM127.502 44.5821L127.535 44.4554L127.544 44.3273L127.535 44.2035L127.502 44.0903L127.427 43.9861L127.331 43.9054L127.264 43.8231L127.252 43.8082L127.227 43.6537L127.333 43.386L127.8 42.9995L128 42.7751L127.916 42.5697L127.926 42.3669L128 41.9242L127.931 41.753L127.764 41.5646L127.572 41.4125L127.48 41.3744L127.421 41.3504L127.434 41.2878L127.359 41.1506L127.227 40.9689L127.013 40.5265L126.909 40.4191L126.811 40.3401L126.65 40.2093L126.634 40.1868L126.567 40.0952L126.547 39.9744L126.556 39.8638L126.546 39.7578L126.462 39.6531L126.462 39.6537L126.46 39.6522L126.351 39.7467L126.346 39.7614L126.198 39.7663L126.013 39.7526L125.86 39.6958L125.793 39.5712L125.772 39.4936L125.67 39.3497L125.628 39.2713L125.611 39.192L125.595 39.0293L125.579 38.9488L125.477 38.7417L125.476 38.742L125.475 38.7396L125.384 38.7627L125.27 38.878L125.105 38.9474L124.925 38.9374L124.769 38.9064L124.621 38.8526L124.468 38.7739L124.308 38.6521L124.179 38.5281L124.037 38.4315H124.036L124.034 38.4301L123.833 38.392L123.643 38.3844L123.558 38.3677L123.476 38.3379L123.478 38.3151L123.412 38.2387L123.408 38.2349L123.333 38.1656L123.309 38.1079L123.294 38.0713L123.317 37.99L123.35 37.9119L123.365 37.8142L123.346 37.7635L123.331 37.7235L123.197 37.5839L123.18 37.5655L123.146 37.4867L123.113 37.3416L123.031 37.1792L122.922 37.0283L122.816 36.9144L122.814 36.9121L122.726 37.0344L122.588 37.116L122.427 37.1222L122.266 37.0221L122.208 36.9299L122.135 36.7424L122.044 36.6274L122.009 36.5592L121.998 36.5382L121.977 36.5098L121.967 36.4966L121.966 36.496L121.965 36.4952L121.921 36.465L121.854 36.4495L121.823 36.4173L121.773 36.1168L121.738 36.0724L121.737 36.0715L121.736 36.0706L121.582 35.9893L121.459 35.8588L120.889 35.5984L120.671 35.4696L120.599 35.4266L120.491 35.338L120.351 35.2224L120.138 34.9883L119.743 34.4125L119.445 34.1234L119.396 34.0596L119.377 34.0482L119.31 34.0216L119.291 34.0102L119.286 33.9745L119.299 33.8797L119.291 33.8466L119.27 33.8018L119.279 33.767L119.273 33.746L119.271 33.7457L119.27 33.7439L119.203 33.7357L119.113 33.7378L119.071 33.7299L118.965 33.6509L118.888 33.628H118.887L118.885 33.6275H118.634L118.604 33.6245L118.487 33.5432L118.455 33.5207L118.325 33.3986L118.325 33.3983L118.323 33.3972L118.245 33.3527L118.242 33.3507L118.239 33.3495L118.118 33.4039L118.019 33.3843L117.855 33.2939L117.762 33.279L117.464 33.2939L117.35 33.2702L117.228 33.1935L117.131 33.0587L117.083 32.8588L117.081 32.8594L117.08 32.8573L116.867 32.8992L116.693 32.7883L116.653 32.7348L116.561 32.6142L116.479 32.4711L116.329 32.3076L116.083 32.1554L115.702 31.9193L115.61 31.929L115.15 31.5928L115.148 31.5925L115.073 31.5816L114.895 31.5784L114.876 31.5735L114.848 31.5653L114.6 31.2651L114.463 31.1422L114.439 31.1252L114.32 31.0427L114.166 30.9754L113.988 30.9415L113.926 30.9567L113.851 30.9889L113.769 31.0047L113.694 30.9693L113.647 30.9052L113.611 30.8414L113.594 30.825L113.56 30.7919L113.482 30.7761L113.472 30.7738H113.471L113.47 30.7735L112.866 30.7919L112.543 30.7261L112.403 30.5307L112.345 30.2615L112.338 30.2287L112.261 30.1468L112.174 30.054L112.172 30.0528L111.678 29.8448L111.633 29.8258L111.582 29.8041H111.582L111.58 29.8033L111.484 29.7769L111.389 29.7679L111.298 29.7313L111.254 29.6687L111.184 29.4952L111.154 29.4586L111.152 29.458L111.151 29.4577L111.105 29.4399L111.054 29.4045L111.054 29.4042L111.052 29.4027L110.98 29.3658L110.64 29.3132L110.578 29.2936L110.495 29.2193L110.295 28.9676L110.293 28.9667L110.293 28.9665L110.159 28.9038L110.106 28.8787L110.012 28.8149L109.972 28.7189L109.968 28.718L109.968 28.7177L109.923 28.7058L109.665 28.5551L109.592 28.4734L109.534 28.3871L109.467 28.3093L109.465 28.3087L109.465 28.3078L109.337 28.2426L109.295 28.2206V28.2209L109.293 28.2198L109.276 28.2698L109.288 28.3406L109.303 28.3655L109.139 28.6929L109.209 28.7251L109.402 28.8134L109.509 28.843L109.666 28.8532L109.754 28.8699L109.844 28.9205L109.864 29.0057L109.739 29.1247L109.742 29.1256L109.741 29.1265L109.942 29.1748L109.935 29.353L109.804 29.4741L109.755 29.4381L109.634 29.348L109.319 29.5405L109.151 29.6049L109.004 29.5417L108.966 29.5186L108.872 29.4612L108.872 29.4615L108.87 29.4603L108.768 29.5159L108.708 29.6321L108.699 29.7307L108.868 29.9232L108.869 29.9238L108.87 29.9247L109.157 30.0075L109.491 30.0087L110.12 29.8925L110.285 29.906L110.452 29.9867L110.51 30.0151H110.511L110.513 30.016L110.709 30.0414L110.795 30.0643L110.863 30.1011L110.89 30.1201L110.912 30.1359L111.012 30.2266L111.101 30.3311L111.165 30.3732H111.165L111.167 30.3747L111.444 30.4101L111.532 30.435L111.595 30.4733L111.629 30.4999L111.63 30.5002L111.63 30.5011L111.654 30.514L111.736 30.5596L111.752 30.5821L111.772 30.6442L111.786 30.6688L111.893 30.7586L111.934 30.784L112.012 30.8329L112.03 30.8639L112.022 30.9002L112.028 30.9295L112.029 30.9297L112.029 30.9309L112.093 30.9429H112.256L112.451 31.1305L112.496 31.2545L112.496 31.2548L112.497 31.2566L112.609 31.3084L112.753 31.3332L112.895 31.3739L112.979 31.4392L113.159 31.6118L113.16 31.6124L113.16 31.6127L113.527 31.7549L113.548 31.7669L113.581 31.7856L113.733 31.9055L113.941 32.0202L114.265 32.1978L114.384 32.307L114.42 32.3684L114.451 32.5273L114.487 32.5791L114.49 32.5838L114.497 32.5908L114.526 32.6221L114.544 32.6613L114.544 32.6616L114.545 32.6631L114.605 32.7058L114.613 32.7119H114.614L114.616 32.7137L115.1 32.9086L115.604 33.0215L115.729 33.1005L117.311 34.6594L117.311 34.6597L117.312 34.6606L117.916 35.0255L118.409 35.3239L118.41 35.3242L118.411 35.3248L118.72 35.4433L119.913 35.6703L120.077 35.668L120.089 35.67L120.226 35.6926L120.255 35.7148L120.438 35.8532L120.582 35.9196L120.588 35.9223L120.663 35.974L120.69 36.0209L120.749 36.1575L120.777 36.1976L120.777 36.1979L120.778 36.1993L120.905 36.2438L121.052 36.2745L121.059 36.2778L121.171 36.3278L121.259 36.544L121.347 36.6564L121.546 36.8527L121.589 36.8808L121.668 36.9335L121.742 36.9949L121.749 37.0575L121.715 37.243L121.743 37.322L122.423 38.1618L122.566 38.263L122.652 38.4336L122.7 38.4953L122.702 38.4959L122.702 38.4968L122.773 38.5231L122.919 38.531L122.98 38.5556L123.023 38.6056L123.058 38.6788L123.08 38.766L123.089 38.8575L123.116 38.8991L123.118 38.9029L123.189 38.9506L123.236 38.9837L123.264 39.0196L123.293 39.1598L123.294 39.1613L123.294 39.1624L123.344 39.2318L123.364 39.2607L123.365 39.2616L123.365 39.2622L123.387 39.2839L123.534 39.4287L123.666 39.6557L123.724 39.7918L123.775 40.02L124.174 40.8068L124.383 41.0783L124.438 41.2176L124.433 41.3613L124.358 41.5137L124.423 41.5968L124.461 41.6951L124.465 41.7984L124.417 41.8952L124.512 42.0863L124.411 42.9436L124.398 43.0009L124.248 43.3799L124.255 43.4881L124.336 43.7459L124.399 44.1482L124.417 44.2038L124.486 44.2553L124.487 44.2559L124.488 44.257L124.658 44.3404L124.693 44.3919L124.704 44.8335L124.743 44.9622L124.744 44.9625L124.744 44.9637L124.927 45.1389L125.035 45.2118L125.213 45.3332L125.378 45.4862L125.432 45.5366L125.406 45.7323L125.684 45.876L125.879 46.0761L126.004 46.3102L126.071 46.5513L126.073 46.5492L126.074 46.5524L126.168 46.4067L126.213 46.2291L126.284 46.1173L126.462 46.1697L126.515 46.0448L126.586 45.9713L126.664 45.9163L126.737 45.8423L126.807 45.7147L126.9 45.4561L126.958 45.3516L127.016 45.2928L127.13 45.2036L127.177 45.1275L127.188 45.0561L127.177 44.8548L127.246 44.7714L127.442 44.6497L127.502 44.5821ZM122.055 42.3994L121.718 42.5003H121.574L121.079 42.4462L120.968 42.4169L120.897 42.3508L120.842 42.2753L120.779 42.2227L120.674 42.2022L120.601 42.2273L120.548 42.2645L120.505 42.282L120.345 42.2349L120.281 42.1407L120.28 41.8405L120.239 41.6451L120.234 41.5292L120.28 41.4534L120.367 41.4476L120.407 41.5204L120.426 41.6152L120.45 41.6767L120.505 41.7024L120.646 41.7326L120.694 41.7364L120.809 41.7112L120.827 41.6483L120.729 41.2896L120.609 41.1582L120.463 41.045L120.34 40.9072L120.155 40.9551L120.09 41.1076L120.052 41.284L119.95 41.4034L119.866 41.4019L119.66 41.3539L119.62 41.3762L119.59 41.4054L119.518 41.4303L119.435 41.4473L119.368 41.4534L119.22 41.4022L119.058 41.3174L118.92 41.3007L118.847 41.4534L118.908 41.5643L119.043 41.6852L119.14 41.8218L119.093 41.9795L118.838 42.3169L118.736 42.3915L118.566 42.4161L118.231 42.3131L118.053 42.282L117.902 42.2071L117.831 42.0316L117.795 41.83L117.747 41.6767L117.666 41.612L117.379 41.4783L117.278 41.4534L116.941 41.4163L116.779 41.4289L116.643 41.5131L116.645 41.3776L116.574 41.3583L116.471 41.3893L116.369 41.4034L116.287 41.3794L116.143 41.3156L116.035 41.2943L115.717 41.3077L115.273 41.2261L115.15 41.1801L114.991 41.3484L114.904 41.4713L114.884 41.6L114.936 41.7858L115.028 42.0079L115.041 42.0884L115.026 42.1258L114.997 42.1817L114.977 42.251L114.985 42.3318L115.041 42.4125L115.181 42.5389L115.211 42.6343L115.215 42.7947L115.231 42.8643L115.26 42.9375L115.352 43.0571L115.599 43.2505L115.705 43.379L115.786 43.5601L115.815 43.7172L115.814 44.0636L115.848 44.2565L115.926 44.4022L116.094 44.6301L116.171 44.9359L116.13 45.5807L116.144 45.8953L116.179 45.9854L116.286 46.163L116.309 46.2525L116.326 46.2751L116.365 46.2909L116.402 46.3143L116.418 46.3623L116.411 46.4082L116.393 46.4334L116.377 46.4503L116.369 46.4737L116.356 46.661L116.321 46.8225L116.267 46.9653L116.117 47.2298L116.02 47.3509L116.015 47.3565L115.889 47.4513L115.731 47.4884L115.424 47.2652L115.1 47.0964L114.92 47.2494L114.766 47.3044L114.613 47.2857L114.436 47.2155L113.926 47.0803L113.826 46.9922H113.771L113.726 47.2327L113.683 47.3363L113.585 47.3796L113.478 47.3983L113.364 47.4457L113.264 47.5075L113.198 47.568L113.124 47.6145L112.911 47.6757L112.837 47.7073L112.832 47.7275L112.842 47.7939L112.837 47.8164L112.815 47.8214L112.751 47.8118L112.728 47.8164L112.619 47.9253L112.393 48.2559L112.272 48.3373L112.122 48.5309L112.07 48.562L111.952 48.6061L111.899 48.6354L111.681 48.8247L111.47 49.0746L111.282 49.3645L111.071 49.8339L110.979 50.1935L110.965 50.362L110.995 50.7169L110.982 50.8849L110.905 51.047L110.803 51.1619L110.655 51.2892L110.489 51.3922L110.325 51.4343L110.194 51.6058L110.136 51.6526L110.046 51.6819L109.801 51.707L109.675 51.5561L109.493 51.3852L109.271 51.3079L109.031 51.4343L108.965 51.3852L108.904 51.4133L108.88 51.492L108.927 51.5932L108.861 51.7395L108.763 51.8589L108.542 52.0347L108.416 52.0819L108.14 52.1044L108.014 52.1714L107.857 52.2156L107.724 52.1094L107.633 51.9382L107.598 51.7869L107.525 51.6588L107.356 51.5549L106.875 51.3703L106.726 51.3416L106.572 51.3451L106.163 51.4144L106.109 51.4343L106.071 51.4677L105.97 51.5932L105.887 51.6365L105.642 51.8279L105.528 51.8712L105.431 51.9236L105.352 52.0435L105.284 52.1726L105.225 52.2536L105.088 52.2949L104.94 52.2709L104.776 52.2243L104.222 52.1825L104.054 52.1351L103.902 52.0347L103.797 51.8952L103.731 51.7255L103.697 51.5531L103.688 51.4048L103.661 51.3L103.43 50.8293L103.224 50.5057L103.196 50.3269L103.16 50.2531L103.014 50.1241L103.034 50.087L103.133 50.005L103.2 49.9746L103.356 49.9436L103.413 49.8953L103.433 49.7701L103.426 49.565L103.39 49.3748L103.254 49.2121L103.362 49.0365L103.543 48.8531L103.688 48.7492L104.051 48.6629L104.22 48.5836L104.292 48.4438L104.316 48.3794L104.362 48.3285L104.386 48.2597L104.346 48.1436L104.284 48.0722L104.195 48.0134L104.017 47.9253L103.662 47.8264L103.312 47.8609L103.037 48.0391L102.902 48.4051L102.881 48.423L102.862 48.4473L102.853 48.5034L102.872 48.5476L102.95 48.6158L102.968 48.6626L102.95 48.7507L102.872 48.8955L102.843 49.0365L102.803 49.1243V49.1811L102.897 49.2358L102.914 49.2408L102.962 49.3932L102.975 49.4751L102.968 49.5635L102.872 49.7429L102.724 49.8567L102.566 49.941L102.446 50.0322L102.391 50.0893L102.293 50.1736L102.249 50.2233L102.204 50.3076L102.139 50.477L102.083 50.556L102.163 50.6525L102.29 50.86L102.358 50.9381L102.448 50.9802L102.54 50.9975L102.611 51.0323L102.638 51.1289L102.598 51.2664L102.388 51.6067L102.304 51.707L102.044 51.8823L101.732 51.9835L101.416 51.9742L101.145 51.8168H101.089L101.088 51.9338L101.04 52.0394L100.969 52.1149L100.901 52.1439L100.761 52.1661L100.675 52.2164L100.6 52.2735L100.492 52.313L100.417 52.301L100.293 52.2577L100.206 52.1796L100.285 51.9397L100.275 51.786L100.227 51.6675L100.156 51.6526L100.149 51.6251L100.149 51.6026L100.14 51.59L100.102 51.5932L100.144 51.6798L100.152 51.7688L100.121 51.8528L100.046 51.9256L99.9634 51.8814L99.8839 51.8805L99.8177 51.916L99.772 51.9803L99.7382 51.9534L99.7069 51.9373L99.6796 51.916L99.6563 51.8712L99.1172 52.1114L98.9702 52.1439L98.8769 52.1904L98.8021 52.4046L98.7229 52.4719L98.6708 52.454L98.4482 52.313L98.4017 52.421L98.3148 52.4104L98.2256 52.3352L98.1738 52.2536L98.0533 52.3314L97.9535 52.4259L97.8517 52.4605L97.7289 52.3624L97.5275 52.4441L96.5146 52.5553L96.476 52.5172L96.4048 52.4221L96.4148 52.4283L96.3182 52.2832L96.2667 52.2355L96.221 52.21L96.1692 52.2006L96.1006 52.1989L95.9934 52.1292L95.3919 51.8568L95.2511 51.844L95.1548 51.7512L94.5327 51.4841L94.114 51.7258L94.0059 51.7574L93.8805 51.7585L93.8287 51.7708L93.7038 51.8712L93.5469 51.9388L93.4977 51.9876L93.4836 52.0895L93.3631 52.0333L93.0384 51.9803L92.9012 51.9244L92.8034 51.8454L92.7263 51.765L92.6497 51.707L92.5461 51.6845L92.2643 51.707L92.0166 51.6178L91.9071 51.6087L91.8026 51.6798L91.6071 51.8811L91.3774 52.0362L91.1395 52.0819L90.924 51.9534L90.8904 51.8899L90.8492 51.7439L90.8088 51.6798L90.7361 51.6321L90.5965 51.6029L90.5341 51.5684L90.3451 51.4171L90.2503 51.3679L90.1216 51.3205L90.1081 51.3504L90.1092 51.3627L90.101 51.3668L90.0621 51.3749L89.775 51.5101L89.5569 51.7451L89.4141 52.0283L89.2757 52.9333L89.3092 53.2312L89.4523 53.5688L89.7324 53.8687L89.7697 53.9618L89.8578 53.9919L89.9602 54.001L90.0371 54.0329L90.1805 54.111L90.5594 54.1367L90.7255 54.1692L90.8565 54.2535L91.0997 54.4574L91.2502 54.4966L91.3574 54.4647L91.4693 54.3872L91.6601 54.2236L91.7784 54.2968L91.966 54.4843L92.0994 54.5513L92.3246 54.5279L92.4392 54.542L92.4898 54.6359L92.5499 54.6666L92.6821 54.6555L92.8143 54.6625L92.8747 54.7474L92.8929 54.8404L92.925 54.9352L92.9312 55.0382L92.8747 55.157L92.9333 55.2111L93.0407 55.1096L93.1355 55.0809L93.3979 55.1023L93.48 55.1195L93.4989 55.1611L93.5012 55.2146L93.533 55.2658L93.6025 55.2951L93.6558 55.2907L93.705 55.3018L93.7577 55.3753L93.6841 55.4124L93.624 55.4628L93.5734 55.5254L93.533 55.5985L93.5866 55.6541L93.6482 55.7027L93.8563 55.6456L94.1944 55.7343L94.8071 55.9809L94.9178 55.9552L95.0032 55.9836L95.073 55.9687L95.1369 55.8124L95.1958 55.9552L95.1487 56.0661L95.0547 56.1749L94.9767 56.3084L95.1646 56.3558L95.2994 56.4868L95.3548 56.6402L95.3018 56.7502L95.358 56.8745L95.3029 56.8903L95.2052 56.8766L95.1369 56.9137L95.133 57.0524L95.2355 57.0553L95.3571 56.9992L95.416 56.9635L95.7399 56.9529L95.8503 56.9137L95.931 56.8257L96.0005 56.6835L96.0379 56.5322L96.0214 56.4172H96.0706L96.1356 56.4865L96.2307 56.5178L96.4857 56.5266L96.6109 56.5094L96.8046 56.4348L96.8729 56.4172L96.9551 56.3821L97.1571 56.2293L97.2893 56.1989L97.4253 56.2229L97.5207 56.268L97.6735 56.3677L98.4435 56.5808L98.6381 56.7206L99.1004 57.3269L99.2173 57.5691L99.3342 57.7482L99.381 57.8377L99.4664 57.9264L99.7732 58.1534L99.8212 58.224L99.9475 58.1783L100.072 58.1847L100.266 58.224L100.36 58.1947L100.511 58.0844L100.566 58.0604L101.333 58.0791L101.54 58.1151L101.59 58.1014L101.809 58.1151L101.886 58.1096L101.961 58.094L102.043 58.1174L102.139 58.224L102.268 58.1136L102.415 58.0267L102.556 57.9709L102.666 57.951L102.769 57.9908L102.846 58.0891L102.88 58.212L102.853 58.3281L102.973 58.2851L103.054 58.2202L103.064 58.1426L102.968 58.0604L103.06 58.0177L103.077 58.0057L103.138 57.8611L103.192 57.8208L103.309 57.8939L103.356 57.91L103.396 57.9334L103.413 57.9782L103.41 58.0657L103.417 58.1063L103.437 58.1423L103.589 58.1798L103.764 58.0756L103.934 57.9287L104.072 57.8369L104.187 57.8228L104.25 57.8477L104.298 57.8837L104.472 57.9188L104.521 57.9633L104.596 58.0879L104.742 58.1341L104.954 58.1192L105.277 58.0496L105.342 58.0139L105.364 58.0057L105.409 58.0235L105.431 58.0604L105.447 58.0976L105.473 58.1151L105.549 58.0844L105.627 58.0262L105.711 57.9916L105.803 58.0332L105.937 58.0692L106.147 58.0481L106.5 57.951L106.588 57.881L106.786 57.6724L106.855 57.6288L107.027 57.5817L107.2 57.4682L107.489 57.187L107.501 57.2245L107.508 57.2309L107.519 57.2303L107.543 57.2464L107.63 57.1422L107.786 57.0205L107.953 56.9354L108.07 56.9386L108.125 57.0094L108.157 57.0612L108.199 57.0656L108.288 56.9933L108.355 56.9608L108.646 56.9137L108.927 56.8049L108.96 56.7987L109.072 56.7774L109.161 56.7221L109.233 56.5255L109.291 56.4301L109.325 56.3294L109.249 56.1463L109.28 56.0532L109.332 55.9587L109.366 55.8715H109.416L109.682 56.1094L109.841 56.191L109.911 56.1147L110.002 56.055L110.58 55.9262L111.043 56.0178L111.294 55.9944L111.404 55.7872L111.503 55.6468L111.732 55.5365L112.184 55.3753L112.219 55.4701L112.273 55.4745L112.481 55.3033L112.506 55.2459L112.521 55.1851L112.563 55.1023L112.699 54.9651L113.001 54.7497L113.113 54.6107L113.185 54.6245L113.304 54.5987L113.557 54.4966L113.663 54.4349L113.913 54.1964L113.989 54.0949L114.048 53.9623L114.088 53.809L114.101 53.6481L114.153 53.5422L114.274 53.4208L114.421 53.3119L114.546 53.2411L114.739 53.2862L114.949 53.2142L115.089 53.0799L115.07 52.9383L114.848 52.7226L114.778 52.7004L114.586 52.694L114.546 52.6653L114.508 52.5643L114.432 52.4532L114.387 52.3171L114.436 52.1439L114.539 52.0362L114.658 52.0008L114.936 52.0347L115.477 52.045L115.622 52.1167L115.658 52.1957L115.662 52.2758L115.684 52.3379L115.787 52.3624L115.873 52.3256L116.064 52.0622L116.205 51.999L116.401 51.978L116.601 51.9923L116.753 52.0347L116.896 52.1515L117.128 52.4409L117.303 52.5263L117.517 52.5047L117.677 52.3885L117.81 52.2597L117.939 52.1989L118.042 52.1869L118.297 52.0895L118.557 52.0546L118.622 52.0347L118.956 51.6798L119.017 51.6327L119.396 51.4343L119.482 51.4223L119.573 51.4235L119.646 51.4086L119.675 51.3477L119.69 51.2933L119.727 51.2295L119.772 51.1783L119.814 51.1564L120.06 50.7198L120.037 50.5285L119.879 50.2283L119.84 50.0893L119.505 49.6773L119.356 49.6317L119.269 49.5945L119.231 49.5386L119.21 49.4573L119.158 49.402L118.753 49.0749L118.669 48.9526L118.622 48.7492L118.599 47.803L118.643 47.6368L118.792 47.5379L118.964 47.6286L119.072 47.6658L119.162 47.5923L119.256 47.6061L119.426 47.6523L119.543 47.6643L119.95 47.7567L120.119 47.7582L120.369 47.6742L120.72 47.6283L120.831 47.5651L120.999 47.3796L121.14 47.2939L121.199 47.2479L121.327 46.9811L121.358 46.9428L121.444 46.893L121.959 46.0939L122.016 45.7513L122.163 45.2352L122.149 44.8964L122.061 44.585L121.823 44.0885L121.754 43.8176L121.789 43.5428L122.186 42.6495L122.213 42.5278L122.169 42.4017L122.055 42.3994ZM119.391 40.4946L119.286 40.568L119.272 40.5976L119.281 40.619V40.7339L119.335 40.7986L119.462 40.8232L119.501 40.8284L119.531 40.7538L119.553 40.7243L119.56 40.6546L119.55 40.6002L119.52 40.5853L119.489 40.5619L119.462 40.5341V40.4969L119.391 40.4946ZM122.924 41.1439L122.897 40.997L122.765 40.8598L122.74 40.8244L122.655 40.7448L122.59 40.8603L122.526 40.935L122.321 41.0731L122.415 41.121L122.464 41.1872L122.486 41.272L122.489 41.3779L122.529 41.3926L122.713 41.4359L122.765 41.4546H122.814L122.882 41.2983L122.924 41.1439ZM49.8263 77.258L49.6832 77.0657L49.5999 77.0037L49.2966 76.9437L49.2701 76.9642L49.7106 77.2308L49.796 77.2905H49.8369L49.8263 77.258ZM49.9238 79.5133L49.8622 79.5241L49.6337 79.645L49.4771 79.8097L49.4794 79.9451L49.5978 80.03L49.6685 80.054L49.7309 79.9364L49.7624 79.9255L49.8778 79.9773L49.9394 79.8948L50.0006 79.7014L49.9897 79.5551L49.9238 79.5133ZM48.5169 80.5271L48.4374 80.5224L48.0646 80.703L48.0452 80.789L48.1898 80.904L48.3626 80.9467L48.453 80.9303L48.5204 80.892L48.5531 80.8498L48.6011 80.7278L48.5914 80.6096L48.5169 80.5271ZM48.1306 80.5476L48.1695 80.5116L48.2304 80.4736L48.2775 80.4241L48.2351 80.3644L48.1547 80.3276L47.9993 80.3118L47.9298 80.3694L47.903 80.4481L47.9946 80.5526L48.1076 80.5763L48.1306 80.5476ZM51.7596 72.6271L51.6878 72.5862L51.5806 72.5446L51.3604 72.5121L51.2473 72.6388L51.3639 72.8635L51.5255 73.0707L51.7899 73.0923L51.9634 72.982L51.9778 72.846L51.8957 72.7205L51.7596 72.6271ZM51.8512 74.8763L51.8047 74.7326L51.7104 74.5904L51.5588 74.4769L51.2499 74.4134L50.8563 74.4421L50.7776 74.5521L51.1713 74.7256L51.4616 75.0521L51.6418 75.1583L51.7982 75.1765L51.8898 75.1238L51.9104 75.0533L51.8671 74.9477L51.8512 74.8763ZM51.8621 72.1833L51.7046 72.0697L51.3542 71.9144L51.0739 71.8989L50.9655 71.9934L51.0429 72.1619L51.1077 72.3029L51.3097 72.4059L51.6433 72.4308L51.8644 72.499L51.981 72.554L52.039 72.4796L51.9487 72.2839L51.8621 72.1833ZM52.9895 75.7157L52.9427 75.7227L52.8882 75.7576L52.8011 75.7839L52.7045 75.8568L52.7225 75.9726L52.8308 76.0575L52.9707 75.9978L53.0463 75.8278L53.0413 75.7491L52.9895 75.7157ZM49.9114 77.373L49.8513 77.3826L49.8404 77.4265L49.9526 77.9421L50.0427 77.9347L50.0969 77.6694L50.015 77.4303L49.9114 77.373ZM51.7467 75.6186L51.5456 75.5267L51.3736 75.6104L51.2579 75.7467L51.2438 75.8328L51.2508 75.9059L51.3483 76.0013L51.5049 76.0683L51.6445 76.0358L51.8332 75.9006L51.8488 75.7971L51.802 75.6832L51.7467 75.6186ZM52.749 75.5554L52.6865 75.4167L52.5202 75.2947L52.3423 75.2397L52.264 75.2444L52.2113 75.328L52.181 75.4129L52.1883 75.4705L52.2293 75.5314L52.2699 75.5566L52.3353 75.6394L52.4254 75.6859L52.5785 75.8246L52.6238 75.8111L52.6768 75.7778L52.7357 75.7122L52.749 75.5554ZM49.796 74.1995L48.9465 74.2665L48.8947 74.3309L49.0175 74.3487L49.1573 74.3122L50.2029 74.4266L50.3398 74.3259L50.2582 74.227L49.796 74.1995ZM51.489 76.9101L51.323 76.8577L51.1595 76.8024L50.3866 76.1725L50.3051 76.0276L50.2474 75.9548L50.169 75.9246L49.9944 75.9006L49.3196 75.6607L48.607 75.5042L48.488 75.4085L48.1907 75.0747L48.097 75.0665L47.9875 75.0916L47.8671 75.1057L47.9439 75.1917L48.1126 75.3017L48.2063 75.3784L48.3944 75.637L48.481 75.711L48.6939 75.8015L49.1488 75.927L49.6517 76.3395L49.6988 76.4463L49.7433 76.5168L49.8466 76.549L49.9659 76.5707L50.0568 76.6125L50.2388 76.7489L51.1799 77.1878L51.3015 77.2653L51.3521 77.3777L51.3927 77.5272L51.4881 77.595L51.5962 77.5605L51.6769 77.404L51.6792 77.2199L51.613 77.0432L51.489 76.9101ZM49.5277 74.7232H49.4314L49.3664 74.6946L49.3184 74.6466L49.2533 74.6106L49.1452 74.6144L48.9754 74.7317L49.0849 74.9061L49.3075 75.0697L49.4809 75.1595L49.8345 75.2157L50.0089 75.2637L50.1452 75.419L50.5288 75.6022L50.6937 75.637L51.1089 75.6464L51.2641 75.6209L51.34 75.553L51.3471 75.4501L51.2929 75.328L51.1643 75.12L51.1401 75.0041L51.1333 74.802L51.0438 74.742L50.3257 74.6609L49.783 74.6682L49.5277 74.7232ZM45.1779 21.4787L45.2945 21.4202L45.3437 21.4035L45.2403 21.3193L45.0863 21.3538L44.9647 21.4729L44.9635 21.644L45.0528 21.5612L45.1779 21.4787ZM72.4364 46.5928L72.5577 46.5843L72.5253 46.4483L72.5674 46.4456L72.576 46.4374L72.5745 46.419L72.5854 46.3886L72.6375 46.4231L72.6914 46.4483L72.689 46.3342L72.6457 46.2397L72.5253 46.0661L72.381 46.065L72.28 46.1305L72.2197 46.2391L72.2017 46.364L72.28 46.5068L72.4364 46.5928ZM62.7545 40.6324L62.8301 40.7515L62.9615 40.8004L63.1322 40.7942L63.2491 40.7655L63.3263 40.6985L63.3755 40.5762L63.3972 40.4258L63.3755 40.3009L63.2983 40.2067L63.1552 40.1447L63.0795 40.1151L63.0192 40.1414L62.8808 40.2538L62.8605 40.2339L62.8025 40.214L62.7392 40.2351L62.7112 40.3331L62.7185 40.4794L62.7545 40.6324ZM69.6589 45.5102L69.701 45.5673L69.9636 45.8052L70.0802 45.8537L70.2849 45.8052L70.5004 45.72L70.7975 45.5383L70.8876 45.4655L70.9274 45.3762L70.9456 45.1983L70.9733 45.1085L71.0116 45.0465L71.0154 44.7685L70.9969 44.5681L70.955 44.4481L70.6576 44.1347L70.5422 44.0408L70.3712 43.9987L70.2139 44.0794L69.8167 44.4911L69.7304 44.6319L69.6085 44.9637L69.5735 45.1214L69.5688 45.2615L69.5968 45.3885L69.6589 45.5102ZM80.5769 50.6072V50.5566L80.4574 50.4591L80.3708 50.3023L80.3196 50.1145L80.301 49.9243L80.296 49.8105L80.271 49.766L80.0822 49.6791L79.9703 49.5931L79.6924 49.2914L79.5204 49.2987L79.3806 49.3801L79.2593 49.4842L79.1376 49.5641L78.8355 49.6478L78.7599 49.7154L78.6983 49.8971L78.6503 50.18L78.6562 50.319L78.6983 50.4425L78.7849 50.5583L79.0832 50.7757L79.4121 51.1537L79.6382 51.3106L79.9173 51.322L80.1064 51.1924L80.1929 51.1576L80.2557 51.164L80.301 51.1947L80.3466 51.2061L80.412 51.1576L80.4444 51.0402L80.437 50.8866L80.4574 50.7304L80.5769 50.6072ZM50.7217 34.6969L50.7732 34.7109L50.9994 34.8007L51.1339 34.8005L51.2558 34.7109L51.204 34.5599L51.0029 34.4116L50.7935 34.3048L50.6337 34.2837L50.5757 34.3329L50.5662 34.4224L50.5171 34.4789L50.5073 34.5506L50.6337 34.6583L50.7217 34.6969ZM48.6915 33.6058L48.7828 33.6907L48.8393 33.7243L48.9274 33.7053L49.0525 33.7302L49.0875 33.7091L49.0705 33.681L48.9983 33.6608L48.8805 33.5485L48.6217 33.5362L48.6288 33.5836L48.6915 33.6058ZM59.3 35.9141L59.3625 35.9123L59.4093 35.9264L59.4596 35.8997L59.4502 35.8389L59.3828 35.7894L59.3024 35.7678L59.2432 35.816L59.2385 35.8778L59.2674 35.9085L59.3 35.9141ZM54.5168 33.7948L54.7559 33.8498H54.8413L54.927 33.7413L54.9535 33.6895L54.9005 33.5885L54.7933 33.4853L54.6985 33.444L54.6069 33.4621L54.5504 33.5139L54.4408 33.6977L54.4467 33.7489L54.5168 33.7948ZM136.124 43.106L136.162 43.271H136.217L136.195 42.9483L136.161 42.7979L136.108 42.7209L136.027 42.7853L136.054 42.9293L136.124 43.106ZM132.598 40.0109L132.685 40.0794L132.793 40.0952L132.896 40.0142L132.908 39.8883L132.837 39.7836L132.684 39.7628L132.598 39.8211L132.421 39.9003L132.36 39.9811L132.501 39.9545L132.598 40.0109ZM136.415 43.568L136.424 43.5557L136.434 43.5449L136.58 43.6356L136.765 43.7968L136.89 43.9902L136.848 44.178L136.743 44.3033L136.689 44.31L136.599 44.2538L136.549 44.1859L136.483 44.006L136.434 43.9264V44.1359L136.595 44.3431L136.813 44.4115L136.984 44.205L136.988 43.9805L136.89 43.7579L136.717 43.5794L136.49 43.4852L136.412 43.5174L136.387 43.5431L136.38 43.5993L136.401 43.5835L136.415 43.568ZM131.691 40.5713L131.723 40.5631L131.746 40.5762L131.964 40.8086L132.182 40.7456L132.292 40.4911L132.187 40.1447L132.247 40.0952L132.213 39.9448L132.077 39.9489L131.932 40.0332L131.861 40.1201L131.84 40.1581L131.733 40.2845L131.679 40.4054L131.66 40.4373L131.644 40.4738L131.643 40.5265L131.661 40.5695L131.691 40.5713ZM150.747 61.3752L150.55 61.063L150.502 60.8857L150.485 60.8032L150.407 60.6235L150.387 60.5284L150.394 60.4436L150.435 60.2905L150.442 60.2007L150.368 59.8999L150.205 59.665L150.009 59.4517L149.832 59.2132L149.661 58.8484L149.535 58.6789L149.371 58.6081L149.216 58.5815L149.093 58.5107L148.993 58.4062L148.904 58.2801L148.806 58.0899L148.736 57.9943L148.654 57.9524L148.574 57.9437L148.493 57.9156L148.43 57.8725L148.348 57.6897L148.153 57.4972L148.185 57.4065L148.117 57.3485L148.098 57.3114L148.109 57.2809L148.129 57.2476V57.1882L148.005 57.2877L147.987 57.4056L147.945 57.4972L147.744 57.5203L147.57 57.4492L147.483 57.3172L147.424 57.1908L147.33 57.1338L147.259 57.218L147.186 57.2751L147.081 57.2973L147.036 57.2751L146.629 56.8584L146.357 56.3139L146.325 56.2247L146.239 55.8095L146.174 55.7012L146.058 55.5698L145.97 55.4195L145.923 55.3767L145.884 55.37L145.789 55.3832L145.752 55.3767L145.689 55.3311L145.658 55.2972L145.633 55.2606L145.234 54.8302L145.095 54.7948L144.96 54.726L144.831 54.6833L144.708 54.7213L144.632 54.5905L144.558 54.3035L144.494 54.171L144.537 53.8889L144.523 53.8131L144.497 53.7801L144.434 53.6791L144.401 53.6487L144.337 53.6259L144.298 53.5946L144.173 53.4187L144.001 53.0468L143.796 52.8104L143.759 52.6296L143.714 52.5281L143.686 52.5245L143.524 52.4731L143.49 52.4485L143.501 52.3955L143.55 52.3145L143.545 52.241L143.549 52.1807L143.514 52.1451H143.39L143.326 52.1898L143.293 52.2618L143.251 52.3031L143.165 52.2542V52.1998L143.22 52.1246L143.137 52.0933L142.598 52.0921L142.481 52.0766L142.39 52.0362L142.308 52.1029L142.231 52.0933L142.167 52.124L142.121 52.1998L142.041 52.0549L141.908 51.9236L141.758 51.8478L141.622 51.8727L141.468 51.6318L141.174 51.3586L140.842 51.1774L140.577 51.212L140.564 51.3785L140.914 51.717L141.007 51.8996L141.038 52.0008L141.1 52.1129L141.144 52.2337L141.123 52.3642L141.063 52.4154L140.997 52.39L140.853 52.2542L140.835 52.2753L140.828 52.2867L140.822 52.2957L140.798 52.3145V52.3642L140.912 52.5014L140.899 52.6501L140.835 52.8145L140.738 53.4939L140.598 53.8254L140.577 53.8974L140.59 53.9533L140.619 54.0171L140.688 54.1157L140.881 54.307L140.97 54.4401L141.007 54.6119L140.992 54.7055L140.958 54.7801L140.907 54.8574L140.915 54.9387L140.951 55.0973L140.958 55.1854L141.025 55.3443L141.328 55.5652L141.396 55.6766L141.433 55.7782L141.523 55.8841L141.633 55.9751L141.837 56.1073L142.066 56.3692L142.447 56.5395L142.507 56.6121L142.528 56.6516L142.665 56.8055L142.786 57.1338L142.819 57.304L142.845 57.357L142.918 57.431L143.001 57.4825L143.18 57.5484L143.36 57.6982L143.65 57.8576L144.452 58.0938L144.719 58.2965L144.878 58.6675L144.906 59.0031L144.88 59.3955L144.799 59.7668L144.658 60.0369L144.594 59.9997L144.531 59.983L144.384 59.9824L144.497 60.1949L145.472 61.2499L145.573 61.4255L145.647 61.5162L145.894 61.7263L146.037 61.8138L146.169 61.8483L146.245 61.8922L146.587 62.1716L147.203 62.4718L147.562 62.5915L147.906 62.6626H148.266L148.364 62.6801L148.51 62.7542L148.599 62.7714L148.767 62.741L148.868 62.657L149.069 62.3949L149.264 62.2193L149.561 62.0162L149.858 61.9469L150.057 62.1716L150.292 61.6552L150.359 61.5756L150.43 61.6643L150.418 61.8664L150.333 62.231L150.476 62.1081L150.614 61.9451L150.722 61.7611L150.777 61.5756L150.747 61.3752ZM140.785 49.7013L140.798 49.4558L140.753 49.318L140.681 49.2493L140.599 49.2024L140.522 49.1278L140.472 49.0032L140.474 48.8824L140.522 48.6372L140.503 48.4098L140.409 48.1371L140.232 47.9229L139.968 47.8717L139.737 48.0371L139.488 48.2957L139.302 48.5915L139.253 48.8642L139.477 48.686L139.592 48.7203L139.633 48.8864L139.636 49.3204L139.612 49.4558L139.557 49.5146L139.468 49.5664V49.6814L139.529 49.8699L139.562 50.0896L139.887 50.8813L140.029 51.4352L140.129 51.3542L140.175 51.2418L140.231 51.1435L140.352 51.1031L140.303 51.2717L140.486 51.1815L140.559 50.9653L140.577 50.4425L140.785 49.7013ZM141.505 35.5612L141.564 35.7546L141.506 35.9755H141.566L141.653 35.7581L141.595 35.5843L141.498 35.4164L141.462 35.2165L141.429 35.1978L141.374 35.1779L141.342 35.1612L141.406 35.3722L141.505 35.5612ZM146.748 46.0296L146.773 45.9927L146.729 46.0012L146.699 46.0307L146.724 46.0571L146.748 46.0296ZM85.5259 51.7378L85.4308 51.6544L85.3996 51.6643L85.3719 51.6675L85.3469 51.6781L85.3227 51.7088L85.283 51.6684L85.2538 51.6526L85.2312 51.6359L85.2117 51.595L85.1096 51.6901L84.9064 51.7261L84.8219 51.8176L84.7895 51.9338L84.8219 52.3145L84.7727 52.5213V52.5875L84.8039 52.6574L84.9314 52.8054L85.0925 53.0708L85.1891 53.1832L85.4935 53.4404L85.5415 53.5103L85.5754 53.6765L85.5969 53.7335L85.7055 53.8725L85.8221 53.9278L86.0904 53.9518L86.3153 54.0062L86.4116 54.0519L86.4811 54.1157L86.527 54.2409L86.5512 54.5089L86.5906 54.6119L86.6498 54.5426L86.7113 54.4981L86.7788 54.4823L86.8603 54.4981L86.8556 54.4442L86.8642 54.3336L86.8603 54.2798L86.8918 54.3023L86.9749 54.3395L87.0279 54.1277L87.2057 53.7376L87.2837 53.0246L87.2372 52.8163L87.0579 52.612L86.6666 52.342L86.4622 52.2281L86.2553 52.1451L85.934 52.0933L85.8159 52.0362L85.7061 51.9435L85.5259 51.7378ZM83.1592 50.343V50.3749L83.1553 50.4079L83.1642 50.4425L83.1842 50.4486L83.2552 50.4395L83.2793 50.4425L83.443 50.6669L83.6742 50.5411L83.7537 50.4717L83.8284 50.3336L83.7537 50.252L83.7101 50.1551L83.6441 50.0799L83.4984 50.0609L83.3765 50.0764L83.236 50.1402L83.1362 50.2262L83.14 50.3096L83.1592 50.343ZM87.6338 51.4856L87.8529 51.3477L87.8411 51.1201L87.6848 50.898L87.4695 50.7757L87.2938 50.9378L87.2758 51.1924L87.3959 51.4156L87.6338 51.4856Z" fill="#878787"/>
</svg>
