<svg width="58" height="116"><path d="M12.2 82.7h-.1v.2h.1v-.2zm-3.4-8v-.4.1h-.2l-.2.3-.2.3-.1.4.4-.3.3-.4zm.2-1.2v.4l.1-.1.1-.5-.2.2zm.2 1h.2v-.4h-.2l-.2.3.2.2zm3.2-28h.2l.4-.2-.6-.2-.2-.1H12V46.3l.3.2zM.7 62.4l.1-.2-.1.2zm56.6-48.9l-.2-.3-.8-.8-.7-.5-.9-.3-1.4-.3h-.2l-.2.1v.2l-.3.1-.3.2h-.1l-.5-.2-.2-.3-.1-.5v-.4l-.2-.2V10l-.1-.2v-.2l.2-.2v-.3l.5-1.8.2-.5-.5-.1h-.3V5.1l-.3-.3-.4-.1-.2.5-.6.1H48l-.7-1-.5-.1-.1.7-.4.2-1 .1h-.5l-.5-.4-.3-.2-.4.3-.7.2-.5-.2-.5-.4-.6-.4h-.2l-.3.2-.3.2-.1.2v1.4l-.3.5-.6.4-1.2.4H37l-.2.2-.5.5-.2.2V8l-.2-.4-.2-.3h-.3l-.2-.1-.2-.2H35l-.2.1V7.4l-.1.2-.3.2-.3.1h-.7l-.3-.1v-.2l.3-.8h-1l-.3-.1-.4-.4h-.3l-.5.2-1 .3h-.7v.1l-.1.2-.1.1h-.6v-.7l-.1-.6-.4.1v.3l-.2.4-.1.3h-.8l-.3.3-.1.3-.6.5-.8.3-1.5-.1.1-.6v-.3l-.1-.2-.7-.2-.1-.5v-.4l.1-.4.7-1 .5-.5.5-.3.3-.2.2-.3V3l-.1-.4-.3-.2-.3-.2h-.4l-.3.2h-.2l-.3-.1V.9L23 .6l-.2-.2-.5.3-.3.2h-.4l-.2.1-.4.4-.3.2L18 2l-.3.1-.6.5h-.3l-.6.1h-.3l-.3.3-.2.2-.2.5V4l-.4.2-.5.1-.4.2-.1.2-.3.8-.5.7-1.2 1-.2.2v.2l-.1.8v.3l-.2.3-.1.3.2.6.4.9.4.1H12.8l1.9-.6-.3.2-.2.2-.3.2-1 .2-.5.1-.2.2v.5l.1.5.2.4.1.4.1.5.4.8v.4H13v-.1h-.2l.2.5.1.5v2l.2.4.2.4v.5h.3V20l.1.3.1.2v.6l.3.6.2.8.3.6.7.2v.1l-.3.3v.8l.2 1.6v.8l-1.7 7.7.3-.3.2-.4.2-.5v-1l.2-.6.2-.6.3-.5v.3h.2l.1-.3v-.4l.2.5-.7.9.2.6.1.2.4.2h.1l.4-.1.4-.3h.3l-.3.3-.2.2-.3.1h-.4l-.3.2v.5l.4.1-.3.4-.1.2H15l-.1-.1-.1-.1-.2.1V34.8l-.3-.1-.2.1-.3.6v-.6h-.1v.1l-.5 1-.2.9-.2 1.9-1.1 4.4-.5 1-.3.7v.5l.3.3.3.2h.7l.4.2.2.2.3.2v.2h-.7l-.3-.1-.2-.3-.2.3-2.2 6.3-1.8 4.1v.4l-.1.5V58.4l-.1.3-.4.7-.1.3-.3.2-.2.2-.2.1-.3.2-.5.8-.2.2v.3l.2.1.3.3.1.3-.2.2h-.2v-.3l-.2-.2-.3-.1-.3.1-.9 1H2.7l-.2.2.2.2.6.6.2.5V66.3l-.2.7-.3.7-.4.7-.1.3-.3 1.8-.1.4.2.8-.2 1-.7 2-.1.5-.2.3-.1.2v.5l.2 1v.7l.3.1h1.1l.8.3h.4l.4-.2h1.5l1.3-.4.3-.2.2-.3v-.4l.1-.9v-.3l.2-.4.2-.3.5-.6 1-1.9.8-1.2.3-.6.2-.2 1.5-.2 1.2-.9-.1.3-.3.3-.6.5-.3.1-.8.1h-.3l-.6.5-.5.7-.7 1.6.1.5.1.5.2.4h.4l-.1.3v.5l.3.4.2.3v.1h-.1l-.1.1h-.1l-.1-.1-.2.1-.8.3-.4.4-.2.2-.1.3.2.3v.2h-.3l-.5.2-.3.1.1.5h-.1l-.2-.3-.9-.7-.4.2-1.5.3v.1l.6.8.5.8.4 1v1.5l-.3.9-.1.1-.1.1v.4l.3-.1H6l.4-.3 2-.5 2-1 .6-.1.7.2.6.3.3.1h.4l.2-.1v-.4L13 82h-.4v-.2l.4-.1.3-.7h.3l-.1.3v.3l.2.2.3.1v.2h-.2v.3l-.1.3v.3l.1.3.2.2 1.2.6h.5l.5.1-.9.3-1.7-.5H13v-.3l-.4-.2-.8-.2-.6-.6-.4-.1-.2.2.4.2.7.5.5.7.2.5.6 3V90l-.2.3-.2.9-.1.6-.7 2.1-.1.1-.1.1h-.1l-.1.3.7.4.3.3.3.4.1.4v3l.1.4h.4l.4-.1.2-.2v.1l-.1.5-.4-.1-.3.3-.2.6v.6l-.3 1v.2l.2.4v.2l.1 2-.1 1-.3.8-.3.4-.3.5-.2.6v1.2l-.2.5-.2.5-.3.2.1.7-.2.5-.4.4-.5 1.2-.1.2-.1.3-.1.6.2-.1h.2l.2.3h.4l.4-.3h.2l.1-.1.5-.5.1-.2h1.3l.5-.4h1.2l.6-.6.2-.2h.2l.8-.1.8.1 1.2.5 2.1.1h.3l.6.3h2.5l.7.2 1.2.7.6.5.4.5V114.8l-.3-.2h.2l.2.2h.2l.2-.2h.3l1 .1h.4l.3.2h.2l.6-.5 2.6-1.8v-.2l1-.7h.4l.6-.5.4-.2h.8l.3.1.3.2.1-.1v-.2h-.1v-.2l-.4-1v-.8l-.1-.7-.1-1.7-.3-.7v-.7l-.2-.5-.1-.4v-.2l-.4-.2-.1-.1-.2-.3v-.2l-.1-.3h-.1v-.3l.2-.3v-.1l.1-.1v-.2l.2-.1.4-.5.1-.2.1-.3.2-1 .2-.7.3-.5 1.6-1.3.4-.8.2-.8.4-1v-1l.2-.1.5-.1.2-.1H40.9l.2-.1h.1l.2-.3.1-.5.2-.2h.3l1 .5h.4l.2-.6V92l.2-.7.3-.6.2-.8.2-.3.2-.6-.3-.2h-.5l-.5.1-.3.3-.4.2H42l-.4-.3-.7-1.8-.4-.3-.1-.1v-.1l-.2-.3v-.1L38.3 84l-.4-.3-.3-.2.3-.2.1-.3v-.2l-.1-.3.1-.3.3-1L39 80l.1-.3v-.2H39l-.1-.1-.1-.2v-.9l.1-.7v-.2l.2-.3 1-.9h.3l.3-.3.2-.3.1-.2.2-.2.8-.1.3-.2.2-.2.2-.1.1-.1v-.3l.1-.4-.2-.4.3-.3.4-.6.6-1 .2-.3V71l-.2-.2.2-.3-.2-.5-.2-.4-.3-.2-.4-.3-.4-.1h-.5l-.4.3h-.7l-.2-.3v-.2l.2-.4v-.2l-.2-.4-.4-.2-.5-.1-.4-.3-.2-.3-.2-.5V66l.3-.4-.9-1-.3-.3-.1-.3v-1.2l.1-.4.1-.5v-.4l-.1-.3-.7-.2-.4-.1-.3-.2-.1-.5-.2-.2-.6-.3-.2-.3-.6-.7-.3-.3-.5-1.5-.2-.4 3.7.2.3-.1.3-.1.3-.1h1l.3.2h.6l2.5-.3.3-.1.2-.5v-.2l-.1-.1v-.5l.3-.3v-1.2l.2-.1.4-.2h.2l.4-.7V51l.2-.2.2-.6v-.5l.1-.2.3-.5-.7-1.3-.4-.4-.2-.4-.2-.2h-.2l-.4-.1h-.2l-.2-.4-.2-.7-.1-.4.1-.2.2-.5.2-.2.3-.2.7-.5h1l.3-.2v-.5l.1-.2.1-.1.8-.6.1-.1.3-.6-.6-.5-.3-.6-.2-.8.4-.8.4-.5v-.7l-.2-.3-.2-.2-.2-.2v-.7l.5-.8.1-.4V34l-.1-.8-.2-.7v-2.2h.2v-.6l-.2-.2h-.3l-.1-.2-.2-.5-.3-1-.3-.3-.5-.6-.2-.3v-.3l.2-.3v-.4l.4-.2 1 .1h.5l.3-.3.7-1 .1-.4v-.7l.3-.3.6-.5v-.2l.2-.3.6-1 .2-.2H51.3l.2-.2 1-.4.5-.4.6-.6.5-.9h.4v-.3l.2-.3h.3l.5-.1v-.2l.7-1v-.4l-.1-.1.1-.3.5-.4.8-1.2-.2-.3zM28.5 115h.1H28.2l.1.2h.3v-.1h-.2zm-.3.5v-.2.2z" fill="#7F807C" fill-rule="evenodd"/></svg>