<svg width="171" height="72"><path d="M4.4 17v.8l.2.2H5l1.7.1.4-.1H7.7l.1-.1H8.1l.3.2.6-.4H10l.2-.2h.7l.3.6v.2l-.3.2-.3.1H10.3l-.2.4-.1.1h-.8l-.3.2-.3.1-.4.4-.5.2-.4.3-.4.3-.2.2h-.1L6 21l-.1.1-.2.1v.2h.1v.2l.2.2.2.3v.3l-.1.4-.4.6-.1.3-.1.3h-.2v.2l-.1.1v.2h.2l.4-.2H6l.3-.3.4-.2v-.1l.5-.4-.1-.1L7 23V22.7h.3l.2-.2h.2l.1-.2.3-.3.2-.3h.1l.3-.1.5-.5.2-.2v-.4l.4-.2V20l.2-.3.2-.1.3-.3h.1l.6-.2h.1l.2-.2.5-.3.3-.1h.4v-.1l.3-.4.2-.1H13.8l.2-.2H14.3v-.1l.2-.2.8-.6.4-.7.8-.8.2-.3.3-1 .1-.4.3-.1 2-.3h.3l.3.1h.1l.2.2h.1l.7.2h.2V13.4l.2-.3.1-.1.2-.1.1-.1h.1l.5-.3h.1l.5-.2.2.1h.6v.1h.7l.6.3h.3l.2.2.5.4h.3l.1-.2v-.5l-.2-.2v-.2h.1l.2.3.1.2v.3h.1l.1.1v.4l.2.1 1-.1h.3l.1.1h.5l.2-.1h.3l.2-.2h.1v-.1h.5V13l.1-.1.2-.1h.1l.1-.2v-.2l.1-.2V12h.1v-.2l-.1-.1v-.1h-.1v-.1l.2-.1.2-.2.1-.2v-.5H30.6l-.9-.2L27 9l-2-.8-1.3-.9-.5-.4-.2-.3-.1-.2-.3-.2v-.1l-.2-.3v-.5l-.1-.1L22 5 22 5l-.2-.5-.1-.3-.2-.1-.1-.3V3l.2-.1h.4v-.4l-.2-.5-.3-.1H20.8l-.3-.2H20V2l-.1.1h.1v.2H19.7l-.5-.3h-.3l-.7.2v.2H18l-.1-.1v.1h-.2l-.2.1h.1V2.9h-.2l-.2-.4-.2-.1-.6-.4-.2-.2-.2-.2-.4-.6-.2-.2-.3-.2h-.6l-.2.3V1h-.6l-.1-.1-.2-.1H13l-.2.4-.2.1h-.1l-.1.2v.1l-.2.2H11.8l-.1.1H11.5l-.3.2H11l-.2-.1h-.2l-.2.1v.1h-.3L9.4 2h-.1l-.2.1-.2.3h-.1l-.1.2h.1v.7l-.1.2-.2.2-.4.1h-.9l-.4.3v.3l-.1.3v.2l.1.1h.4l.3.3h.3l.2.1H8v.2l-.1.2.5.4.4.2H9l.2-.2v1.1l.1.2v.4l.2.6V9.4l-.2.1h-.5l-.1-.2-.5.5H8v.1l-.3.2-.3.2h-.1l-.6.2V11.6l-.1.3v.1h.1v.8l.2.2h.2V13.4l-.1.1h-.2v.4H7v.2h-.1l-.3.2h-.1V14.6h-.2v-.1h-.1v.2l-.1.1h-.2v.1h-.1v.2h-.1v.2l-.4.4-.2.2v.4l-.2.2-.3.1h-.4l.1.2.1.3zm165.7 38.2V54.9l-.2-.1h-.3l-.2-.4-.1-.1h-.4v-.1l-.1-.2v-1.3l.1-.2v-.2l-.2-.2-.2-.2v-.3h.1l.3-.3.1-.2-.3-.5-.2-.2h-.9V50h-.2l-.2-.2v-.2l-.1-.1-.1-.1-.3-.2h-1l-.2-.2v-.1l.2-.2V48l.1-.1.1-.2.2-.2.1-.2v-.2l.2-.2.2-.1v-.4h.1l.2-.1V46l.1-.2V45l.3-.3.3-.2.2-.3V44l-.2-.2-.1-.1H167.2l-.2.1h-.5l-.1-.1h-.1V42.2l.1-.2v-1.3l-.1-.2h-.1l-.2-.1-.1-.1.1-.1v-.8l.2-.9v-.3l-.5-.2-.1-.2-.2-.1v-.3l-.1-.2V37h-.2v-.4l-.1-.1v-.2l.2-.1.1-.2V35.5l.2-.3-.1-.3-.4-.3-.4-.2-.2-.1V33.3l-.2-.3V32.7l-.3-.3V32.1h.2l.2-.1h.5l.5-.2h.2l.6.4h.4l.5-.3.2-.1.1-.2v-.7l.1-.1V30l.3-.6v-.2l.1-.2v-.5l1-.7.2-.1.1.1.2.4.2.1.5.2.2.2.7.5-.1-.1-.1-.5v-.1l-.2-.2-.6-.8h-.2l-.2-.2-.3-.4-.2.1v-.2l-.2-.2v-.2l-.1-.1-.1-.2-.2-.3-.5-.4-1.3-.7-.3-.1h-.3l-.5.1h-.3l-.2.1h-.1l-.2-.1h-.2l-.3.2h-.2l-1-.1-1-.5-.8-.3-.4-.2-.2-.3.2-.2h.4V23l-.3-.4V22l-.4-.5-.3-.2v-.5l.2-.5v-.1l-.4-.3-.1-.2v-.2l.2-.3.2-.2h.2v-.1h.1v-.2l.1-.3.4-.4v-.3l.2-.4v-1.1l-.1-.2-.4-.6-.1-.2v-.5l-.1-.3-.1-.2-.3-.3-.3-.3-.4-.2h-.4l-.2-.2-.1-.4v-1.2l-.3-.2-.3-.2h-.5l-.8.2h-.1l-.2-.6-.2-.2H155.8l.4-.3.2-.1V10l-.2-.1-.3-.1-.4-.4-.6-.5-.2-.1-.2-.5h-.1v-.1h-.1V8h-.1l-.3-.2-.1-.1v-.2h-.2l-.3.3h-.1l-.2-.3-.2-.1v-.1l.2-.2.1-.2v-.2l.1-.1h-.1l-1.3-.2h-.4l-.2.1-.2.2-.1.2v.4l-.2.2-.2.2-.2.4-.2.2h-.2l-1.6-.6h-.7l-.1-.2H146.5l-.4.1-.6-.2-.4.1v.1l-.4.4-.3.3h-.2l-.4-.3h-.3l-.1-.1V7.6h-.4l-.2.1h-.1l-1-.4-.1.2-.5.5h-.1v.3l-.1.2-.2.2-.1.2h-.5l-.3.2h-.2l-.8.8H138.2l-.2.2-.4.4-.1.1-.2.1h-.2l-.2.1h-.2l-.3.3h-.2l-.4-.1h-.2l-.7.5-.5.7h-.1l-.1.1h-.4l-.4.4-.2.1-.3.1h-.3l-.3-.2-1.4 1-.4.1-.2.2h-.4l-.2.1-.2.1h-.5l-.3-.2-.5-.5h-.2l-.6.3h-.4l-.6-.5H126l-.3-.2h-.2l-.1.2H124.9l-.3-.3-.5-.4-.3-.3-.1-.1-.6-.2h-.1v.1l-.6.4h-.3l-.2.2H121.6l-.3-.2h-.2l-.3-.1-.3.2-.8.2h-1l-.2.1-.1.1-.2.1-.6.1-.2.1v.1l-.2.2h-.2v.1l-.1.1H116.5l-.1.1-.2-.2h-.6l-.3.4h-.2l-.6.1-.1.1h-.3l-.3-.1-.3.1h-.2l-.4-.3h-.8l-.3-.1h-.5l-1.1-.4-.4-.1-.4.1-.1-.2-.1-.1-.1-.1-.5-.3-.2-.2V12H107.8l-.1-.2-.2.1-.1.2-.1.1-.2.2v.4h-.2l-.1.1v.1H106l-.3-.3-.4-.2h-.1l-.2-.3h-.2l-.2-.1h-.2V12l-.3-.2-.3-.1h-1.3l-.3-.3h-.4v-.8l-.2-.4-.3-.2-1.3-.7-.7-.2h-1.3v.3l-.1.1-.1.2v.1l-.1.1-.5.5-.4.2h-.4v-.1H96.2v-.1l-.1-.2h-.2l-.2-.2V9.6l-.3-.1-.5-.3h-.1l-.3-.6-.2-.2-.4-.5-.1-.2V6l-.7-.8v.1l-.6-.5-.1.1-.2.2-.1.2v.2l-.1.3-.1-.2.2-.3V5l.1-.1.1-.2h-.2l-.4.3h-.2l-.2.1-1 .4-.5.1-.3.2h-.2L89 6h-.4l-.4-.2-.3-.1-.3-.3-.1-.1H87l-.5-.3-.2-.1-.2-.3-.3-.1-.1-.2-.1-.2v-.2l-.4-.4-.3-.4-.2-.4v-1l.1-.2.2-.1h.7l-.2-.2-.2-.1-.2.2H84.5l-.3-.3V.7L84 .7V.5h-.2v.1h-.2l-.2-.1h-.2v.3l-.2.4-.3.3-.3.2-.3.3H82l-.4.2h-1.7l-.3-.1-.2-.1h-.5l-1 .2-3-.4-1.1.1h-.4l-2-.2-.4-.2H70l-.6-.1h-.4l-1.4.7-1.4.5-.4.3-.3.1-.6.2h-.5l-.3.1H63.7l-.5.3h-.1l-.3-.1h-.2l-.2.2-.1.2-.1-.1H62l-.2.1-.6.4h-.1l-.2.3h-.4l-.1.1h-.1v.1h-.5l-.3.1-.1.3-.7.7-.1.3-.2.2-.9.3-.4.3-1 .5-2 1.3-1.3.5h-.1l-.2.3H52l-.2.1-.1.2.2.2v.4l-.1.1v.5l-.1.1-.2.2-.4.5-.3.2-.4.1-.1.1H49.3l-.3.1-2.3.1-.8-.1v-.1l-.4-.3-3-.7-.2-.2-.4-.1h-.2l-.1.1v.1h-.2v.2h-.2v.1l-.3.2h-2.6l-2.4-.4-1.8-.4-1.6-.3h-.2v.1H32l-.3.2-.4.4-.2.3.2.2v.1l-.1.2-.1.4-.2.3-.1.2h-.2v.4l.1.1h.1v.1l.5.3.1.2.2.2.2.1.5.3.2.1h.2l.2.2.1.2.1.1v.1H33v.1h-.2v.2l.2-.1h.1l.1-.1h.2v.1h.1v.4l.1.1v.1H34.3l.1-.1 2.1-.1h.2l.3.1h.2l.2.2h.4l.7-.1h.4v.6h-.3l-.3-.2h-1l-1.7.5h-.1v-.3l-.2-.1h-.5v.2h-.2v.1h-.2v.1H34v-.2H34l-.2.1-.4.2-.4.1-2.6.3h-.1l-.4.4-.3.2-.6.3-.3.2-.2.3.5.1.8.5.5.1.2-.2h.8l.2.2.2.1.2.2-.2.1H31.4l-.1.2-.1.3v.1l-.2.1h-1.2l-.2-.1-.1-.1H29l-.3-.2H28.4l-.2.2h-.5v.1l-.1.1h-.2l-.5-.2H25.7v-.1h.2-.7l-.5-.1h-2l-.8.4h-1.1v-.4l.2-.2.8-.4.1-.2-.1-.2-.4-.2-1.5-.2h-.1v.1h-.1l-.2-.3v.2H19.1l-.2.1v.1h-.2v.1l.1.1.3.3h.2V20l.1.1v.1h.2V20.6H20.5l.2.1-.1.2-.5.3-.2.3H18.7l-.2-.1H18l-.3.2h-.4l-.6-.2-.5-.2-.5-.3-.4-.4h.1l.2-.1-.2-.4v-.1l-.2-.2h-.1l-.3.2H13.6l-.3.2-.2.3-.2.2h-.7l-.3-.1h-1.5l-.2.1-1 1.2v.1H9v.1h-.1l-.4.6-.2.1H8l-.2.2H7.5v.1l-.1.2V23.8h-.2v.4l-.1.1v.2l-.5.3v.1l-.3.1-.2.1-.5-.1-.2.4v.2l-.2.1v1.1L5 27h.1v.8L5 28v.1l.2.4v.7l-.1.3-.3.3-.2.6-.2.6v.2l.4.2h.3L6 31l.1.1h.1l.1-.2h.9l.5-.2.1-.1.2-.1 3.2-.6.2.2.1-.1.2-.2h.6v1H12l-.5.3h-.2l.1.2v.1H11v.4h.1l-1 .8v.2h-.2v.1l-.1.1v.2-.1h-.2V33l.1-.1h-.2l-.1.3-.1.1h.8l.2.1v.4l.1.3.2.2.1.2.4.1.1.1.2.4.3.3V35.8h-.2l-.3.2-.2.1v.2h.1l-.1.3v.5l.2.1h.1l.2.3h.2l.3-.2h.4l.2.1h.4l.1-.2.2.1v.2l-.2.3h.2v.2l-.2.1-.2-.1h-.1l-.1.2h-.2l-.1.1.1.3v.1h-.2v-.2l-.5.1.1.1.2.3V39.3h-.2v.2h-.6v-.1h-.4l-.5.2-.1.1v.4l.3.2h-.2v.1h-.1l.1.2h.2v.2h.2l.2.1v.2h.2V41l.2.1v.4l-.1.1.1.1.2.1v.1l.2.1v.1h-.2l-.2-.1-.2-.1v-.2.2l.2.2H11.7l.2.2.2.4.2.1-.1.1h.2l.6-.3h.2l.2.1h.8v.1l-.2.2-.2.2-.3.1-.2-.1h-.4l-.2.1h-.2l-.4.3h-.7l-.2.1h-.1l-.2.1v-.1h-.2l-.2-.4V43l-.2-.1H10l-.1.1-.1.2v.7h.1l.1.2v.1h-.2l-.2-.2-.1-.5-.1-.2v-.1l-.2-.1h-.2V43l.2-.2-.2-.2h.5V42l-.1-.1-.1-.1-.1-.1-.2-.3-.2-.3V41l-.2-.2-.3-.3-.2-.2H8l-.2-.1H7.5l-.2.1H7l-.1.2v.9l.2.3v.2-.1l.2.4v.5h.1l.1-.2h.2l.1.1h.2l.2.3h.1l-.1.4L8 43H8l.1.1.1.3v.2l-.1.1-.3.2h-.4v.2h-.4l-.1-.1h-.1v-.5.2l-.2-.1V44l.1.1v.1h-.2v.3l-.2.1H6v.2l.4.1h.1l.3.3h.4v-.3h.1v.4l.2.2h.1v-.1h.2l.2.3.2.2h.3v.2l.2.3H9v-.2l.1.1.1.3h.2v-.4h.1l.1-.7h1l.1-.1.2.1v.5l.1-.1.1.1.2.2.1.2v.1l.1.2V47l.2.4h.1v-.2H12l.3-.1h.2l.5.2h.3v.3h.4v.2l.1.1h.2l.3.1H15l.2.4.1.2-.1.1v.5l-.2.1v.4h.1v1l-.2.3h-.1l-.8.3h-1v.3l.3.2.8.2.5.3h.1V53l-.2-.1v1-.1H14.8V54.5h-.1v.4l-.1.1h.1l.1.2h.4l.6-.1v-.2h.1l.1-.1v-.2l.1-.1h.2l.2-.1h.1l.2.2-.3.1-.1.2v.5l.2.1h.4v-.3h.1l.1.2V55.7l-.2.2v.2h.4v.2h-.1l.1.1h.2v-.2l.1-.2h.4v-.1h.2v.4H18v.4h.2l-.2.2-.1.1v-.2h-.5v.1l.2.1v.5H18 17.6l-.1.1-.1.1h-.2l-.2.3h-.2l-.2-.3h-.1v-.1H16.1V57.2H16v.1l-.1.1h-.1v-.2h-.2V57.6h-.5v.1h.2v.2l-.2.1H15l-.1.3v.2l.1.1v.4l.1.2.1.2h.4v-.1l.2-.2V58.7h.3l.1-.1v.4l.2-.3v-.1.1l.2-.1h.2l.2.3H17.6v.1l.3.2V59h.2l.3.1.1.1.2-.2H19.7v-.1h.2l.7-.2H21.4l.1-.1 1 .1.1.1v-.2H23.2l1.1-.2h.1l.1.1v.1l-.2.1-.5.2v.2h-.1l-.2-.1v.4l-.2.3-.1-.1H23h.1V60v-.2H22h.2v.1H21.8v.1h.1v.1h-.2l.2.2.1.1v.1l-.1.1h-.2V60.9l.2.1.1.2-.1.1-.1.2-.2-.1H21.1l-.2-.1h-.1V61H19.6l-.2.3h-.6l-.4-.3h-.2v.4h-.1l-.2.1h-.3l-.6.1h-.4l-.1.2v.2h-.2v.1H16V62.6H16.3v.2h.5l.1.1h.1v-.1l.7-.2H18.3l.1.1.3.2v-.3l.2-.3V62l.3-.3h1.1v.2h.1v-.2h.1l.1.1h.2v-.1l.1.2.1-.1.2-.1H21.6l.3-.1.1-.1.2.1.2-.1.1-.3H22.8v.3l.1.2-.1-.1v-.1h-.1l-.1.1-.1.1v.1h.2V62.2h-.2V62H22v.1l-.1.1h-.3l.1.1h-.3v.2H21.8l.1.1h.1v-.2h.2v.5l.2-.1.1.1v.2h-.2v.2H21.2v.1l.1.1V63.8h.2l.2-.1v.1h.2v-.2h.1v-.2l.3.1.2-.1.2-.3.1-.3.2-.2.2-.1.4-.2V62h.1V62h.4v-.2l-.3-.2v-.3h-.1v-.4l.1-.2H24.2l.1.1h.1v.1h-.2v.1l-.1.1v.1H24.4V61h.1l.5.3h.2v-.1l.1-.2.1-.1v-.1H25l-.1-.1v-.1h.3l.2-.1.1-.1v-.1h.1V61l.2.1h.2v.1H26v.1h.2l.1.1V61h.5v.2h.1l.1-.2v.2l.1.2v.4l-.1.1.1.3v.1l.2-.2h.2v.3h.1l.3-.2.4.1.3.2v.3h.2l.2.1h.1v.2H29v.2l.1.1h.2v-.2h.1l.2-.3v-.1l-.1-.2v.5h-.1l-.1-.2v-.1l-.1-.1h.1V62.4h.1l.2-.1V62l.2-.2h.2l.1.2.7.3.6.4v.1l.1.1v.2h-.1V63h-.2v.1l-.2.1H31l-.1.2v.5h-.1l.1.1.5-.2v.2h.2v.1l.1.4v.1h-.1l-.1.1.1.2.1.1v.4l-.1.1v.1l-.1.1h.2v.1h.2v.4l.1-.1.2.2.5.1.1.2.1.1.6.6v-.1h.1v.2h.2v-.1l.1-.1.1-.1h.2l.1.3h.2l.5.3h1l.2.1H35.8v.2l.4-.1v.1H36v.3l.4.1v.2l.1-.2h.1v-.1h.1l.1-.1h.2l.1.1h.2l-.1.1H37.6l.1-.1.1-.1h-.1V68h.2V68l.1-.1h.4l.1-.2h.1v-.1h.7l.6-.3v-.1h-.2.4l.3.2v-.2h.1V67l.1.1v.1l.1-.2v-.2h.1l.7-.2h.2l.9.4H42.9v.7l.3-.2.1-.1.1-.3h.1l.1-.2h.1v-.1h-.2l.2-.2.2-.2.1-.2h-.2V66l-.2-.2v-.2l.1-.2v-.1l.2-.3.1-.4.2-.2.3-.2v-.8.1-.2l-.1-.1V62.6h.1v-1.2l.1-.3.1-.3.3-.3.5-.3.4.3h.1l.3.1h1.5l3.5.5.3.2v.3h.3l1.7.7.1.2.2.1.6.3H54.8l.1.1.2.3.4.1v.1h.4l.3.1v.1l.1.1H57v.1h.4v.1l.6.6h.2v.2l.2.4h.2l.1.2.1.2v.1l.2.4.5.4.2.3v.4l.1.1.2.1h.1l.4.6.2.1h.1l.2.1v.2h.1l.7.5h.5l.6.4.3.2.8.2h.4l.5-.4v-.1h.2l.5-.4h.2l.6.2h.6l.1-.2.1-.1.1-.2H67.5l.2.1h1.1l.1-.3h.2l.4.2h.1l.3-.2h.8l.2.1-.1.2h.2l.1-.2.2-.3.3-.1v-.1h.2l.1.2.2.3h.1v-.3l.1-.1.3-.3.3-.2h.2l.2-.3V67h.1v-.2l.2-.3h.5l.2.2.1.3v.5h.2V67.3l.1-.2.2-.2v-.2l.3-.1h.2l.2-.2v-1l.3-.1.3-.4h.2l.1-.1v-.1l.1-.2.8-1 .3-.2 1-.6.7-.7.3-.1.1-.3.3-.2h.4l.6-.4h.4l.2.1.8.3.4.4v.2H83.6l.3.3h.3l2.2 1.4h.2l.2.3h.1l.2-.2H87.4v-.2l.3-.1h.8-.4v-.2h.2l.3.2h.5l.2-.1h.1v-.5h.1l.1-.2v-.1l.4-.4h-.2v.1l-.5.5h-.1l.1-.3.3-.2.5-.2h-.4V62H89.3V62.4v-.1l-.1.1H89l-.1.2-.1-.2v-.1l.2-.2V62h.2v.1l.2-.2v-.1l.4-.1h.7l.4-.1v-.1l.4-.4h.2l.1-.2.5-.6.4-.3.3-.1h.3l.3.3.3.3.6.8v1.1l.1.1v.1l.1.1V63l-.1.3-.1.2H94l-1 .7v.1l-.5.5-.4.2-.1.1H92v.3l-.1.1h-.1l-.2.1v.1l-.1.3h-.2l-.2.1v.1l-.3.4v.2l.1.2.1.1.2.2v.1l.2.3v.2l.2.2.6 1 .3.8v.2h-.1l-.4.7-.1.2h.4l.2-.1.1.1v.4l.1.1h.4l.3.2.5.3h.2v-.3l.1-.8.2-.3.3-.1h.4V70h.2l.4.1h.2V68l.1-.2-.1-.2.1-.1.1.1.1.1H96.8v-.2H98.6v-.7l-.2-.2-.2-.1h-.3v-.8h-.2v-.1h-.1l-.2-.7V64.6l.3-.5v-.9l.2-.5v-.5l.1-.2v-.2l.2-.2.1-.2.1-.2v-.3h.1l1.7.6h.7l.2.1.1.1.2.1.3.3V62.9l.2.2h.2l.2-.2h.6l.6-.1h.2l1.5.2h.3l1.3-.8.6-.3 1.4-.3 1.5-.6h.2l1-.7.6-.3H113l1.7.6.4.2 1.2 1.3.6.3h2.2l.5-.1 1.4.4h.5l4.6-.9 2-.7.8-.5.3-.1h.4l.3-.2 1.8-1.3h.2l.2-.1h.4l.4-.2 1.2-.7.4-.1 1.7-.3 2 .4.5.2h2.6L146 57l.4-.2.7-.6.5-.6v-.1l.2-.1h.1V55.8l.2.1.2.1h.1l.1-.1h.1v.2l.4.3.1.2-.2.6.1.1h.1V57.9h.4l.5-.3h.8l.1-.1v-.1l.2-.3 1.1-1.6V55h.1V55l.5-.2h.2l.1.3.8.3h.4l.4-.1.2-.2.3-.1.4-.1h.4l1.2.6h.6l.4.2.3.2.5.3h.7l.2.1.2.1H161.7v.1l.3.2h.1l.2-.1.5-.1.3-.3.2-.4.3-.3h.9l.9.4.2.1.1.2.1.2v.2l.1.3V57.3h-.2l-.1.2-.2.1v.7l.3.8.1.2.5.1h.2V59l.2-.2v-.2l.8-.3.3-.2.2-.1.2-.3.3-.3.4-.3.2-.1h.2l1 .1.1.1.1.2v-1.1h.2l.1-.2v-.4l-.2-.2-.5-.3zM4 23.4V23l-.2.2h-.2V22.5h-.2v-.2h-.2l-.9.3h-.6l-.3.3-.3.3-.2.3v.1l.4.1v.1h.1l.2.1h1l.4-.2.6-.1.2-.1.2-.1zM18.8 18h.3l.2-.2v-.2l-.3-.1h-.4l-.2-.1h-.5l-.2.2v-.2h-.2v.7l.2.1h.1l.1.1h.4l.3-.3h.2zm-.3 1.4l-.3-.2-.1.1-.1.2v.2h.2l.2.1h.2-.1l-.1-.1v-.2zm-13.9 8v-.5h-.9v.2l.2.1.2.1.3.2h.1l.1-.1zM73 68l.1-.1zm-50.2-4.7zM10 42.1v.3l.3.2h.2v-.2l-.1-.1V42l-.1-.2H10v.2zm16.2-23h.2v-.4h.1v-.1H26.2v.5zm9.6 49.2v-.1h-.1l-.1.1v.2h-.1v.2h.1v-.1h.1l.2-.2zm-4.2-53.1V15h-.1v.4-.2h.1zm4.7 53.3zm.9 0l-.1.1h.1l.1-.1h-.1zm-2.3-.3v.1h.1-.1zm3.4-.3l-.1.1H38v.1H38.4l.1-.1h.1v-.1l.1-.1h-.2l-.1.1zm-4.7-.3v.1l.1-.1h-.1zm.9 0zm-4.7-5v-.1.2h.1v-.1zM16.6 59v.1l.1.1h.2v.1h.2v-.1l-.1-.1h-.2l-.1-.1h-.1zm-2.3-6.5v-.1h-.1v-.1H14l.2.3zm-7.5-9.5H7v-.4l-.1.1h-.1v.2z" fill="none" fill-rule="evenodd"/></svg>