<svg width="153" height="115" viewBox="0 0 153 115" fill="none" xmlns="http://www.w3.org/2000/svg">
<path d="M137.923 48.498L137.606 48.1205L137.339 47.7011L137.194 47.3921L137.151 47.0575L137.28 46.715L137.4 46.6038L137.666 46.4493L137.769 46.3033L137.802 46.0894L137.7 45.9779L137.031 45.798H136.894L136.731 45.8582L136.327 46.2693L136.157 46.3727L135.951 46.4493L135.743 46.4918L135.555 46.4834L135.418 46.4239L135.067 46.0808L134.792 45.9525L134.553 45.8836L134.345 45.7379L134.174 45.3785L134.072 44.924L133.994 44.6843L133.909 44.5723L133.506 44.5301L133.377 44.4698L133.128 44.3075L132.871 44.3583L132.604 44.487L132.339 44.5472L132.081 44.487L131.884 44.3583L131.729 44.1444L131.353 43.1585L131.172 43.0045L130.906 43.0983L130.786 43.2359L130.571 43.5616L130.443 43.6725L130.331 43.7071L129.688 43.7505L129.508 43.5705L129.336 43.3123L129.106 43.0983L128.392 42.8928L127.982 42.5928L127.939 42.5495L127.904 42.456L127.888 42.2846L127.827 42.0789V42.0536L127.81 42.0789L127.647 42.1386L127.586 42.1809L127.527 42.2072L127.192 42.1469L126.694 42.2421L126.445 42.1469L126.282 42.0357L126.163 41.9841L125.863 41.9502L125.725 41.8907L125.649 41.7701L125.443 41.1619L125.349 41.0413L125.219 41.0245L125.03 41.0585L124.594 41.0245L124.481 41.0496L124.413 41.3676L124.463 41.8558L124.43 42.3187L124.104 42.5412L124.035 42.5243L123.914 42.4393L123.838 42.4211L123.753 42.4474L123.298 42.7383L123.263 42.6788V42.5154L123.161 42.3272L123.151 42.3101L122.929 41.9244L122.723 41.6587L122.491 41.453L122.225 41.2816L121.685 41.0327L121.445 40.8614L120.792 39.8506L120.553 39.6104L120.502 39.5416L120.492 39.4301L120.51 39.319L120.578 39.0624L120.561 38.616L120.347 38.3848L119.747 38.0937L119.635 37.8105L119.541 37.4592L119.437 37.1849L119.3 37.1077L118.614 37.2026L118.417 37.2875L118.014 37.6989L117.808 37.8532L116.822 38.1451L116.332 38.0674L115.878 38.102L115.431 38.2652L114.3 38.9333L114.214 39.0193L114.153 39.1135L114.041 39.3446L113.981 39.4301L113.853 39.5161L113.698 39.5332L113.545 39.5075L113.398 39.4481L113.296 39.3615L113.279 39.2679L113.296 39.1647L113.287 38.9419L113.304 38.8993L113.287 38.8739L113.184 38.8044L113.124 38.7788L112.91 38.7278L112.721 38.5905L112.567 38.5565L112.429 38.4705L112.361 38.4442H112.275L112.224 38.4705L112.086 38.6076L111.932 38.7111L111.769 38.7788L111.606 38.7873L111.451 38.7111L110.773 37.6221L110.577 37.528L110.524 37.331L110.336 37.2281L109.153 37.133L108.508 37.2109L108.389 37.2534L108.294 37.331L108.157 37.5194L108.08 37.5966L108.02 37.6221H107.891L107.832 37.6477L107.72 37.7855L107.643 37.922L107.548 38.0334L107.385 38.0849L107.239 38.0766L107.102 38.0334L106.965 37.9653L106.836 37.8702L106.691 37.6995L106.648 37.5366L106.639 37.3477L106.587 37.0992L106.494 36.919L106.373 36.8169L106.228 36.7653L106.081 36.739L105.85 36.6456L105.704 36.3791L105.378 35.0855L105.37 34.9487L105.473 34.8198L106.004 34.58L105.841 34.3747L105.833 34.1427L105.858 33.877L105.798 33.577L105.739 33.4745L105.661 33.4056L105.49 33.3028L105.395 33.2085L105.387 33.0972L105.404 32.9683L105.387 32.8137L105.327 32.6769L105.19 32.4886L105.138 32.3517L105.129 32.1886L105.146 32.0512L105.138 31.923L105.052 31.7776L104.966 31.7258L104.804 31.6913L104.743 31.6231L104.726 31.5202V31.2291L104.7 31.1085L105.077 31.0319L105.172 30.9368L105.232 30.7486L105.172 30.6294L105.052 30.5599L104.915 30.5174L104.683 30.5003L104.22 30.6117L103.989 30.5946L103.791 30.3975L103.654 30.0374L103.492 29.043L103.439 28.8893L103.354 28.7779L103.225 28.7262L103.079 28.7525L102.942 28.8119L102.813 28.8376L102.685 28.7525L102.556 28.6917L102.454 28.7008L102.135 28.8979L101.578 29.1381L101.106 29.2487L100.609 29.2147L100.489 29.1722L100.394 29.0779L100.326 28.9148L100.292 28.7439L100.248 28.5979L100.154 28.4945L99.9484 28.4691L99.5105 28.5461L99.2876 28.4606L98.7989 28.2889L98.5416 28.2462L98.3011 28.306L98.0442 28.5208L97.9237 28.5724L97.7613 28.538L97.2717 28.3236L97.6668 28.0494L97.941 27.758L98.1123 27.3895L98.0529 27.0209L97.9151 27.098H97.8038L97.6838 27.0727L97.5725 27.0209L97.4695 26.9521L97.332 26.8238L97.2631 26.7295L97.2374 26.6352L97.2725 26.575L97.4263 26.5411L97.4687 26.4468L97.4868 26.3356L97.4687 26.2404L97.4433 26.1471L97.435 26.0351L97.4518 25.9322L97.5122 25.7351L97.529 25.6239L97.5122 25.3843L97.4604 25.1957L97.3661 25.0412L97.0827 24.7152L97.0321 24.6302L97.0057 24.5267L96.9718 24.3042L96.946 24.227L96.8516 24.1667L96.6112 24.0984L96.5339 23.9868L96.6026 23.7299L96.8687 23.5756L98.0266 23.301L98.43 23.3096L98.5587 23.2757L98.8161 22.9674L98.8077 22.5132L98.6191 22.0759L98.3528 21.8099L98.2153 21.7158L97.9926 21.4591L97.8724 21.3724H97.7956L97.6668 21.4328L97.5894 21.3987V21.3724L97.5631 21.2188L97.5465 21.167L97.5036 21.1245L97.4095 21.0651L97.3661 21.0302L97.1089 20.6966L96.9718 20.5929H96.6283V20.4994L96.6801 20.3365L96.6544 20.1478L96.5085 19.9161L96.4226 19.7275L96.3799 19.5136L96.3629 19.1532L96.3367 18.965V18.9048L96.4574 18.6568V18.5277L96.4401 18.4248L96.397 18.3219L96.3283 18.194L96.2165 18.0137L96.1054 17.8854L95.6675 17.5849L95.5732 17.4651L95.4019 17.0881L95.2732 16.9082L94.9901 16.7281L94.8534 16.5996L94.7494 16.4024L94.6988 16.2482L94.6213 16.1454L94.4495 16.085L94.1409 16.0765L93.8324 16.1368L93.2315 16.4196L92.7595 16.891L92.6143 16.9082L92.4939 16.7281L92.5368 16.3076L92.4087 16.1191L92.3048 16.1802L92.2105 16.2653L92.1162 16.3339L91.9964 16.3425L91.8933 16.2907L91.7047 16.1539L91.5849 16.1285H91.1473L90.4783 16L90.384 16.017L90.2724 16.0936L90.1006 16.317L90.015 16.4024L89.8864 16.4535L89.8175 16.4962L89.7405 16.6507L89.6894 16.711L89.6291 16.7281L89.5432 16.6761L89.4829 16.6679L89.3628 16.7281L88.6597 17.3538L88.5393 17.4218L88.4195 17.4049L88.2136 17.2418L88.1024 17.1824H87.9054L87.5017 17.2853H87.2958L85.9493 16.5741L85.6227 16.6761L85.0314 16.4535L84.7566 16.5139L84.6622 16.891L84.6962 17.0107L84.8253 17.2418L84.851 17.3369L84.8078 17.4651L84.7311 17.5338L84.6454 17.5849L84.5765 17.6538L84.516 17.8505L84.4309 18.5191L84.2333 18.9479L83.9329 19.1881L82.9895 19.6332L82.8611 19.6418L82.4491 19.5305L82.2005 19.5566L81.8403 19.7361L81.7288 19.7624L81.5999 19.6843L81.5744 19.5136V19.3072L81.5404 19.1273L81.3856 18.9736L81.1629 18.9302L80.742 18.965L79.9613 19.0082L78.7692 18.7764H78.1425L77.6026 18.9996L77.4569 19.1704L77.3539 19.3939L77.2424 19.5821L77.0879 19.6504L76.9244 19.5907L76.6075 19.3249L76.4443 19.2308L76.1784 19.1967L75.2433 19.2561L75.0723 19.3072L74.9694 19.4278L75.012 19.6164L74.978 19.6673L74.9608 19.7189L74.9431 19.771L74.9177 19.8304L75.115 19.8558L75.1921 20.0103L75.1318 20.1564L74.9516 20.1648L74.9091 20.1046L74.8659 20.0874L74.8232 20.1046L74.7632 20.1478L74.7118 20.2161L74.6951 20.2846V20.3706L74.6349 20.4645L74.5571 20.5505L74.4712 20.6185L74.3769 20.6794L74.1885 20.756V20.79L74.2053 20.8588L74.2402 20.902V20.9786L74.1459 21.1076L74.0856 21.1756L74.0258 21.2019L73.8196 21.1842L73.7684 21.2019L73.7422 21.2707V21.3724L73.725 21.4677L73.588 21.5441L73.5448 21.6136L73.5109 21.6902L73.4768 21.7241L73.4599 21.759L73.3135 21.9558L73.2712 22.0332L73.2448 22.0673V22.1098L73.2966 22.2132L73.3053 22.3847L73.1851 22.5132L73.0305 22.6161L72.9446 22.71L73.0822 22.7789L73.1334 22.7874V22.8723L73.0562 22.9588L73.0305 23.0871L73.0222 23.224L72.979 23.3273L72.902 23.3614L72.6874 23.37L72.6012 23.3956L72.6447 23.5417L72.5672 23.7724L72.6104 23.9271L72.5589 23.9696L72.5072 24.0561L72.4731 24.0816L72.49 24.1242L72.5154 24.227L72.4305 24.2615L72.2324 24.4418V24.5181L72.3616 24.6302L72.4211 24.6641V24.7324L72.3702 24.7493L72.3445 24.767L72.3184 24.7926L72.2841 24.8186V24.8869L72.3616 24.9903L72.5844 25.0583L72.6956 25.1178L72.6447 25.2382L72.6099 25.2895L72.5504 25.3411L72.6361 25.4015L72.7042 25.4694L72.7304 25.556L72.6874 25.6408L72.7219 25.77L72.7731 25.855L72.8334 25.8982L72.902 25.9328V26.0093L72.8077 25.9925L72.7304 26.0179L72.6788 26.0953L72.6615 26.2321L72.6874 26.361L72.739 26.3864H72.8077L72.8928 26.4468L72.9278 26.5156L72.9967 26.8238L73.0305 26.8841L73.0822 26.9521L73.0908 27.0039L73.0049 27.0381L73.0476 27.3463L72.8589 27.5434L72.6531 27.6978L72.6361 27.8609L72.5163 28.0749L72.4986 28.1002L72.49 28.3577L72.4559 28.4265L72.3785 28.4434L72.3275 28.3408L72.25 28.2548L72.1643 28.1954L72.07 28.1691L71.9755 28.1783L71.8726 28.1437L71.718 27.912L71.6153 27.8183L71.521 27.792H71.3151L71.2124 27.758L71.1172 27.6723L70.9116 27.4066L70.8604 27.2952L70.8773 27.2866L70.9377 27.0641L70.9462 26.9778V26.867L70.9377 26.7806L70.9199 26.7128L70.8518 26.661L70.7661 26.575L70.4227 26.4036L70.3282 26.3016L70.071 25.9499L69.8819 25.8039L69.6849 25.7528L68.7328 25.7786L68.578 25.8297L68.1665 26.0436H68.0808L67.9695 25.9668L67.9006 25.9585L67.8149 26.0179L67.7034 26.2237L67.6347 26.3016L67.5148 26.3356L66.897 26.2321L66.8118 26.113L66.7515 25.9499L66.6402 25.7528L66.5195 25.6666L66.374 25.6494L66.2193 25.6751L66.0823 25.7268L65.9448 25.855L65.8759 25.9754L65.773 26.0953L65.6105 26.1557L65.4304 26.1724L65.336 26.2237L65.2674 26.3525L65.1731 26.6175L65.0702 26.7975H64.9322L64.6323 26.6779L64.4785 26.7295L64.2123 26.9607L64.0748 27.0125L63.9209 26.9267L63.8352 26.7295L63.7747 26.4893L63.6974 26.2753L63.5604 26.1122L63.4491 26.0265L63.4059 25.9068L63.4659 25.6239L63.44 25.3411L63.3634 25.1612L63.1311 24.8186L62.9859 24.4241L62.9001 24.2873L62.7369 24.1836L62.4624 24.1156L62.3254 24.1242L62.1876 24.1753L62.0509 24.3128L61.8875 24.6558L61.7592 24.8009L61.5791 24.8697H61.1585L60.9611 24.9124L60.747 25.0326L60.5325 25.2043L60.3441 25.4354L60.2062 25.7351L60.1894 25.9151L60.2062 26.3271L60.1723 26.4893L60.0516 26.6261L59.9835 26.5156L59.9317 26.3102L59.8806 26.1724L59.7948 26.164L59.7004 26.2237L59.606 26.2667L59.494 26.2151L59.4259 26.1036L59.3827 25.9499L59.2797 25.3411L59.2627 25.1178L59.2024 24.9726L59.0222 24.9038L58.4137 24.7756H58.2247L58.0449 24.8358L57.7011 25.0669L57.521 25.2382L57.4352 25.2895L57.35 25.2554L57.3068 25.1694L57.2293 24.8697L57.1871 24.7587L57.1012 24.6641L56.9039 24.5438L56.8178 24.4587L56.7578 24.3381L56.7492 24.2352V24.1411L56.7235 24.0299L56.6208 23.9188L56.4833 23.9102L56.3292 23.9868L56.1831 24.1156L56.0461 24.3212L55.8227 24.7407L55.6603 24.8869L55.5311 24.9387H54.8622L54.7336 24.9038L54.6047 24.8358L54.1932 24.3899L54.0471 24.3128L53.893 24.3381L53.764 24.4587L53.6788 24.6386L53.6356 24.8612V24.9989L53.6439 25.1264L53.6524 25.2468L53.6185 25.3929L53.5835 25.4608L53.2668 25.8896L53.1979 25.9585L53.0863 25.9754L52.9923 25.9328L52.8807 25.8465L52.7864 25.7445L52.7432 25.658L52.9666 25.1095L53.0177 24.8358L52.9318 24.6039L52.8204 24.5438L52.4344 24.5353L51.6966 24.2352L51.4568 24.227L51.3277 24.2956L51.1391 24.5012L50.9935 24.5784L50.856 24.587L50.4531 24.5181L50.1786 24.6039L50.033 24.6218L49.9387 24.5353L49.9813 24.3467L50.0843 24.107L50.1011 23.9188L49.9041 23.8677L49.7407 23.8844L49.6039 23.8677L49.5094 23.7724L49.4578 23.5585V23.2671L49.4754 23.0354L49.4323 22.864L49.2521 22.7618L48.969 22.7018L48.3689 22.6755L47.682 22.9158L47.228 22.8384L45.9327 22.2644L44.4314 22.2132L44.337 22.1615L44.2513 22.0418L44.2341 21.9381L44.2513 21.8362V21.759L44.1738 21.7158L42.5868 21.6475L42.3812 21.5527L41.9435 21.1585L41.7379 21.1162L41.2661 21.1331L39.8075 20.8588L39.2328 20.97L36.9684 20.9359L35.8192 20.6276L35.5104 20.6362L35.2009 20.7391L34.5922 21.0651L32.6793 21.3724L32.5337 21.3642L32.113 21.2621L30.4146 21.3987L30.269 21.4505L30.1229 21.6045L29.8747 21.973L29.7718 22.1878L29.6086 22.9072L29.4201 23.1814L28.6481 23.713L27.6272 24.6302L27.3527 24.6727L27.1554 24.4927L26.9667 24.2615L26.6922 24.1496L26.5204 24.1327L26.0403 23.9868H25.8856L25.2165 24.1581L25.1307 24.2013L25.0618 24.2787L24.9763 24.4241L24.9677 24.5098L25.0109 24.5955L25.1996 25.1178L25.2165 25.2215L25.1825 25.3929L25.1221 25.4268L25.0618 25.376L25.0704 25.4437L25.1138 25.5983L25.2939 25.6666L25.4138 25.7096L25.5081 25.7786L25.4054 26.0011L25.4138 26.0697L25.6883 26.4807L25.74 26.6093L25.6629 26.6438L25.6111 26.7212L25.6024 26.8324L25.6456 26.9778L25.5167 27.0295L25.3968 27.1577L25.3025 27.3206L25.2685 27.4667L25.3108 27.6978L25.4138 27.758H25.5422L25.6542 27.8354L26.0317 28.6659L26.1858 28.8544L26.5289 29.0779L26.8547 29.4032L26.9318 29.5321L26.8206 29.5915L26.7952 29.6952L26.8979 29.9092L27.0782 30.1834L27.1386 30.3288L27.2151 30.7832V30.852L27.1894 30.9377L27.2413 30.9802L27.327 31.0148L27.4121 31.0745L27.4897 31.1864L27.5066 31.2716L27.5151 31.3664L27.5501 31.5033L27.6527 31.6742L28.1162 32.1029L28.6821 32.4197L28.7678 32.5571L28.6821 32.7457L28.4765 32.7882H28.2529L28.1162 32.8486L27.9357 32.7457L27.7473 32.7712L27.5923 32.8917L27.5066 33.0803L27.5151 33.2859L27.6187 33.4234L27.7811 33.4999L27.9698 33.5254V33.5942L27.884 33.7828L27.9784 33.9459L28.167 34.057L28.3472 34.0995L28.3047 34.3484L28.3558 34.5716L28.5277 34.9912L28.3736 35.2654L28.4415 35.7709L28.485 35.9168L28.519 35.9507L28.5106 35.9765L28.4247 36.0968L28.2961 36.2337L27.8586 36.4656L27.8414 36.5938L27.85 36.7999L27.8414 36.9367L27.8068 37.0481L27.6527 37.3998L27.2924 37.5543L26.0571 37.5712L25.8253 37.6477L25.7054 37.7081L25.6111 37.8022L25.5335 37.9565L25.4395 38.2566L25.3452 38.3934L24.8044 38.9761L24.6071 39.139L24.2383 39.4224L23.9297 39.662L22.3681 41.3504L22.1627 41.6679L21.9141 41.865L21.6396 42.1641L20.9018 43.2528L20.6188 43.5447L20.5839 43.6299L20.533 43.8439L20.4981 43.9218L20.4387 43.9813L20.318 44.0242L20.2585 44.0672L20.1896 44.1444L19.7695 44.9069L19.6574 45.0269L19.5808 45.0614L19.4347 45.0955L19.3575 45.1638L19.3063 45.2586L19.1856 45.5932L18.6715 46.2862L18.4997 46.6898L18.628 47.0666L18.6715 47.2206L18.7139 47.6669L18.7401 47.786L18.7573 47.8468L18.8431 47.9922L18.9886 48.1462L19.0318 48.2243L19.0573 48.3865L19.1516 49.3467L19.1262 49.5007L19.0146 49.8174L18.9203 50.1861L18.8082 50.4086L18.7742 50.5374L18.8168 50.5885L18.8517 50.5631L18.946 50.4519L19.0489 50.5291H19.0405L19.0146 50.5374L19.2374 50.6919L19.4347 50.9571L19.5631 51.0522L19.8724 51.2239L19.9583 51.3259V51.4124L19.898 51.6178L19.8897 51.7546L19.9151 51.8489L20.0266 52.0373L20.0526 52.0884L19.9754 52.2515L19.8376 52.1918L19.6838 52.0543L19.5631 51.995L19.4865 51.9693L19.3575 51.7892L19.2891 51.7207L19.212 51.7116L19.0573 51.7629L18.8082 51.7462L18.663 51.7629L18.5169 51.7462L18.3459 51.6347L18.0882 51.3522L17.9506 51.309L17.8052 51.4461L17.7534 51.6178L17.7025 51.8572L17.6677 52.0975V52.2687L17.5647 52.3635L17.2987 52.4058L17.1789 52.5001L17.0333 52.9377L16.9474 53.1177L16.939 53.1685V53.3062L16.9213 53.3656L16.8618 53.4608L16.6986 53.5974L16.6297 53.6916L16.587 53.8202V53.8973L16.5956 53.9831L16.6127 54.3338L16.5956 54.4035L16.5438 54.5226L16.4841 54.6086L16.4241 54.6598L16.3729 54.7286L16.3465 54.8655L16.3552 55.088L16.3125 55.3028L16.2268 55.4914L16.1152 55.6365L16.0294 55.6885L15.8493 55.7488L15.7635 55.8082L15.7124 55.8771L15.6435 56.0399L15.6003 56.1173L15.1547 56.477L15.0513 56.6395L15.0343 56.8459L15.1116 57.2569L15.0859 57.4197L15.0086 57.5829L15 58.3193L15.1634 58.3454H15.1802L15.2491 58.2677L15.4719 58.1825L15.7038 58.2166L15.9437 58.337L15.8407 58.6453V58.8079L16.0294 58.799L16.0812 58.8079L16.1323 58.8933V58.9964L16.1152 59.1167L16.1239 59.2618L16.2014 59.4675L16.5353 59.9823L16.5784 60.0246L16.6297 60.0332L16.6813 60.016L16.7331 59.9738L16.7588 59.9652H16.8101L16.9474 60.016L17.0588 60.0423L17.1617 60.0332L17.2902 59.9652H17.3165L17.3419 59.9738L17.3673 59.9823L17.8741 60.6505L17.9598 60.8559L18.0543 61.1821L18.1743 61.4216L18.2083 61.4647H18.2251L18.3196 61.4133H18.8091L18.9375 61.3707L19.0489 61.2936L19.1688 61.2587L19.2809 61.3276L19.3063 61.3793L19.5554 61.5159L19.761 61.7044L19.8554 61.8158L19.9237 61.9532L19.9754 62.1418L19.9497 62.2446L19.9065 62.3389L19.898 62.5017L19.7781 62.6471L19.8385 62.7677L20.0867 62.9734L20.2242 62.9299L20.3443 62.8439L20.396 62.7074L20.3271 62.4934L20.3869 62.373L20.4895 62.3644L20.6102 62.4246L20.7132 62.5017L20.8247 62.5697L20.9359 62.6049L21.0472 62.5877L21.3397 62.3558L21.4338 62.1843L21.5878 61.713L21.7253 61.5076L21.8623 61.4388L22.0171 61.4647L22.4888 61.6272L22.6087 61.713L22.8917 62.0475L23.2183 62.3217L23.3721 62.5017L23.4239 62.5189L23.475 62.5275H23.5268L23.5777 62.5103H23.6126L24.059 62.7329L24.1956 62.7246L24.2474 62.6903L24.2901 62.6388L24.324 62.5791L24.359 62.5103L24.4269 62.4504L24.5044 62.4246L24.7618 62.373L24.8902 62.416L25.3279 62.4671L25.6111 62.5614L25.7743 62.5791L26.2462 62.5528L26.3573 62.6132L26.7093 62.9385L26.752 63.0931H26.8979L27.5841 62.81L27.7982 62.8189L27.9103 62.9043L28.2529 62.9985L28.3907 63.0588L28.6389 63.2986L28.7595 63.3239L28.7678 63.3156L29.171 63.4701L29.3171 63.4785L29.7972 63.2305L30.1315 63.2214L30.3978 62.9903L30.5521 62.9043H30.6805L31.0665 62.9985L31.4526 62.9903L31.5815 63.0242L31.8987 63.2126L32.0705 63.3502L32.1734 63.487L32.2166 63.6502L32.2251 63.7875L32.2592 63.9159L32.379 64.0527L32.6109 64.1987L33.1602 64.4129L33.2542 64.4984L33.3403 64.618L33.5717 65.03L33.7346 65.2783L33.863 65.364L34.6697 65.2272L35.0982 65.0386L35.3819 64.7644L36.0425 63.6671L36.3342 63.4617L39.6874 63.1016L40.1338 62.9213L40.494 62.8791L40.6999 62.7845L40.8112 62.7592L41.1377 62.7931L41.5747 62.6649L42.2348 62.6557L42.5614 62.5103L42.6303 62.4074L42.7841 62.0561L42.8699 61.9446L43.0504 61.7904L43.1358 61.6961L43.2388 61.4818L43.3503 61.165L43.4192 60.8391L43.4106 60.608L43.4624 60.2734L43.5135 60.2988L43.6416 60.3076L43.7709 60.2734L43.9936 60.1622L44.1052 60.1275L44.4314 60.1103L44.5427 60.0848L45.4005 59.8964L45.6064 59.7937L45.6155 59.7077L45.6409 59.5795L45.7184 59.4592L45.9409 59.3138L45.9752 59.1764L46.0184 59.0904L46.1554 59.1422L46.2497 59.2449L46.3269 59.3732L46.4128 59.4855L46.5414 59.5449L46.6789 59.5363L46.7564 59.4675L46.7816 59.3309V59.1336L46.7478 58.9367L46.7044 58.8162L46.696 58.7219L46.7647 58.619H46.8073L46.9186 58.6625H46.9705L47.0307 58.6022L47.0478 58.5256L47.0732 58.4653L47.1507 58.4394L47.3735 58.5428L47.5968 58.731L47.8367 58.8764L48.0944 58.8339L48.163 58.765L48.2141 58.7735L48.2573 58.799L48.3339 58.7907L48.4197 58.8079L48.4546 58.7821L48.446 58.731L48.4197 58.6708L48.4114 58.6279V58.5596L48.3943 58.4739L48.4029 58.3965L48.48 58.3711L48.5489 58.3965L48.6943 58.4825L49.4237 58.7568L49.6464 58.765L49.9041 58.6279L50.3161 58.114L50.5642 57.9857L50.6936 58.0196L50.8906 58.1997L50.9852 58.2336L51.0964 58.1742L51.5079 57.8223L51.6627 57.6084H51.9456L52.0229 57.5915L52.2031 57.4709L52.3485 57.4878L52.3657 57.7538L52.5033 57.8223L53.3525 57.814L53.5835 57.9253L54.0214 58.2505L54.1243 58.337L54.3387 58.6625L54.3905 58.7133L54.545 58.9453L54.8197 59.0567L55.4282 59.1336L55.566 59.2024L55.6773 59.3309L55.7112 59.5107L55.5743 59.9135L55.6687 59.9907L55.8227 59.9991L55.9262 59.9738L56.1404 59.7937L56.252 59.7766L56.3037 59.9483L56.3292 60.1452L56.3981 60.2648L56.5093 60.2988L56.6726 60.2648L56.8178 60.1791L56.9294 60.0848L57.0409 60.0077L57.3586 59.9738L57.4786 59.9907L57.5473 60.0762L57.5645 60.2734L57.5127 60.4788L57.436 60.5731L57.3417 60.6333L57.2379 60.7616L57.1953 60.9079L57.2125 61.0531L57.2896 61.1391L57.436 61.1133L57.5387 60.9937L57.5984 60.8391L57.6843 60.7193L57.839 60.6937L57.9419 60.7704L58.0106 60.9079L58.0022 61.0617L57.8907 61.1905L58.0877 61.5933L58.173 61.679L58.3108 61.7732L58.3794 61.7647L58.4051 61.6704V61.4987L58.4562 61.2848L58.5853 60.9163L58.7391 60.8476L58.9627 60.8559L59.589 61.1133L60.0607 61.1219L60.3091 61.165L60.4979 61.2936L60.5411 61.3707L60.5582 61.4479L60.5665 61.5159L60.5836 61.5847L60.6952 61.8503L60.747 62.1249L60.7556 62.1852L60.7979 62.2532L60.9099 62.3558L61.0901 62.6734L61.3128 62.9132L61.5535 63.1016L61.7592 63.1874L62.0074 63.1362L62.3082 62.7415L62.5227 62.6388H62.6424L62.7369 62.6734L62.8226 62.7506L62.9001 62.8791L62.951 63.0336L63.0114 63.3841L63.0631 63.5305L63.1575 63.6076L63.4229 63.6934L63.4918 63.7445L63.4659 63.8818L63.3634 64.0272L63.2341 64.1647L63.1489 64.2758L63.0885 64.4561V64.5672L63.1575 64.636L63.3888 64.7217L63.4745 64.7983L63.5 64.9103L63.4229 65.0386L63.217 65.3046L63.1829 65.621L63.1914 65.9813L63.1225 66.3582L62.9425 66.6667L62.7715 66.8984L62.6856 67.1644L62.7715 67.5668L62.8312 67.6952L62.9341 67.9952L62.9944 68.0986L63.1143 68.1925L63.166 68.1408L63.2341 68.0296L63.3462 67.978L63.4491 68.0296L63.5689 68.2436L63.7747 68.3806L63.8265 68.4843L63.8606 68.6039L63.9209 68.7064L64.0235 68.7668L64.1265 68.7924L64.2294 68.8348L64.3153 68.9638L64.3493 69.1176V69.2635L64.3664 69.4099L64.4607 69.5635L64.5552 69.6492L64.6587 69.701L64.7702 69.7095L64.8814 69.6749L65.0013 69.5635L65.0956 69.4352L65.1304 69.2807L65.1985 69.1261L65.336 69.109L65.473 69.1176L65.6022 69.1692L65.7135 69.2721L65.8078 69.4438L65.8682 69.6749L65.8767 69.9066L65.7992 70.0775L65.6276 70.1631L65.6022 70.378L65.6703 70.9002L65.6276 71.1491L65.5333 71.269L65.3872 71.3122L65.1985 71.3289L65.1816 71.3544V71.4233L65.1985 71.4573L65.4049 71.8516L65.4644 71.9118L65.5419 71.8516L65.6022 71.7232L65.6789 71.6119L65.8078 71.6035L65.9021 71.663L65.9796 71.7664L66.0307 71.903L66.0391 72.0575L65.988 72.1946L65.9021 72.2886L65.825 72.4L65.7738 72.7686L65.7392 72.9231L65.7306 73.0514L65.7907 73.1629L65.8332 73.172L66.0051 73.1539L66.0655 73.1887L66.1684 73.3085L66.2279 73.3605L66.34 73.4027L66.5627 73.4199L66.6654 73.4631L66.7769 73.5744L66.9315 73.8316L67.06 73.9259L67.2751 73.9601L67.4723 73.9431L67.6693 73.9687L67.8666 74.1315L67.9006 74.2001L67.9524 74.3804L67.9868 74.4315L68.0468 74.4398L68.1065 74.3975L68.1751 74.3712L68.2526 74.4143L68.2695 74.4833V74.6972L68.2781 74.7915L68.3045 74.8603L68.381 75.0055L68.4159 75.0826L68.4242 75.2628L68.3639 75.8799L68.3384 75.9913L68.3045 76.0856L68.2781 76.1799V76.3082L68.3045 76.4109L68.3896 76.6164L68.4074 76.711L68.3299 76.9255L68.1751 76.9509L68.0554 76.9597L68.0808 77.182L68.1751 77.3026L68.4753 77.4308L68.4837 77.4566L68.5185 77.5509L68.544 77.5684L68.5874 77.5509L68.6727 77.4997H68.7158L68.7676 77.5423L68.8103 77.6026L68.896 77.774L68.8443 77.8597L69.1537 78.1076L69.2648 78.2454L69.3338 78.185L69.4364 78.168L69.5479 78.185L69.6423 78.2454L69.479 78.5451L69.2989 78.7168L68.9989 78.7684L68.1924 78.7168L68.0808 78.7421L67.9609 78.8109L67.7034 79.0332L67.5667 79.0512L67.4289 78.8967L67.4119 78.8281V78.6394L67.4034 78.5451L67.3685 78.4596L67.2233 78.2368L66.8626 77.8937L66.7769 77.7399V78.0137L66.6997 78.1597L66.5627 78.211H66.374L66.3314 78.2707L66.3654 78.511L66.3136 78.6736L66.2193 78.7684L66.108 78.8109L65.988 78.8025L65.8851 78.7421L65.7907 78.6139L65.6967 78.3999L65.5937 78.3142L65.4985 78.2793L65.2842 78.2368L65.1816 78.1936L65.139 78.1256L65.1304 78.0482L65.139 77.9711L65.1816 77.8937L65.2163 77.8256L65.2334 77.7571L65.2248 77.688L65.1899 77.6278L65.027 77.6026L64.8814 77.6797L64.753 77.8256L64.4522 78.2793H64.3664L64.2466 78.0994L64.0833 77.7571L63.989 77.7222L63.8692 77.9285L63.8434 78.0482L63.8774 78.2454V78.3311L63.8265 78.4596L63.7917 78.4765L63.7404 78.4596L63.6547 78.4847L63.4059 78.759L63.2518 78.8536L63.1311 78.759V78.6564L63.1743 78.5622L63.2341 78.4679L63.2773 78.3736L63.2944 78.254L63.2859 77.4225L63.2427 77.2083L63.1311 77.0709H62.9859L62.3849 77.4137L62.016 77.5509L61.5101 77.8937L61.3732 78.1076L61.33 78.3822L61.3817 78.7421L61.5016 79.2135L61.5101 79.3681L61.4676 79.5481L61.4158 79.6935V79.8309L61.5359 79.9846L61.9393 80.3617L61.9734 80.5766L61.8961 80.8073L61.7415 81.0733L61.5101 81.3393L61.4584 81.4939L61.4762 81.7332L61.5959 82.1623L61.5791 82.3591L61.4071 82.4366L60.2148 82.7448L60.0948 82.8219L60.0175 82.9673V83.1302L60.1119 83.4733L60.1373 83.6534L60.1291 83.8504L60.0864 83.9787L60.0003 84.0644L59.8722 84.1415L59.6749 84.1844L59.6233 84.2275V84.2869L59.6401 84.3729L59.6487 84.4755L59.6233 84.5697L59.4428 84.6735L58.9881 84.7158L58.8769 84.8957L58.9287 85.076L58.8852 85.1531L58.6882 85.2125L58.568 85.2899L58.4909 85.3671L58.3362 85.6068L58.2851 85.7188L58.3448 85.7868L58.4477 85.847L58.5335 85.9413L58.5767 86.079L58.5853 86.2155L58.6107 86.3524L58.705 86.4816L58.5249 86.567L58.4823 86.6012L58.4391 86.6869V86.7124L58.4569 86.7295L58.4994 87.0554L58.4654 87.1666L58.319 87.2355L57.8815 87.2186L57.3671 87.0809L56.8782 87.047L56.5179 87.3212L56.4576 87.4326L56.4066 87.5526L56.3895 87.6211L56.4833 87.7326L56.6549 87.7154L56.8521 87.8268L56.9812 88.0068L56.9465 88.1954L57.1444 88.7184L57.2814 88.9579L57.436 89.0606L57.5473 89.0952L57.7872 89.2324L58.3965 89.3869L58.9627 89.6863L59.8722 89.8919L60.1291 89.858L60.3441 89.8497L60.429 89.8148L60.5063 89.7292L60.3175 89.6432L60.2666 89.6008L60.2318 89.5318L60.2148 89.4463L60.2318 89.3689L60.429 89.2746L60.4204 89.1292L60.429 88.9918L60.6092 88.9493L60.7121 88.9832L60.8922 89.1124L61.0469 89.1381L61.1326 89.1981L61.2442 89.3178L61.3817 89.3952L61.5359 89.335L61.5705 89.2664L61.5876 89.0778L61.6302 88.9918L61.682 88.9579L61.7415 88.9407L61.8961 88.9324L61.9905 88.8808L62.3422 88.5893L62.6339 88.5035L62.7537 88.4524L62.848 88.3499L62.9001 88.3236L63.0631 88.3151L63.0971 88.2896L63.1225 88.2208L63.1829 88.1525L63.2859 88.0668L63.432 87.9896L63.5434 87.9814L63.6547 88.0068H63.8003L63.8606 87.9814L63.9209 87.938L63.9719 87.8871L64.0149 87.8351L64.0748 87.7928L64.1519 87.8097L64.2294 87.8523L64.2983 87.87L64.8211 87.9211L65.7738 88.2639L66.0909 88.5467L66.1684 88.5893L66.3222 88.7353L66.4343 89.069L66.4684 89.4463L66.3825 89.7206L66.4252 89.7809L66.4343 89.8497L66.4166 89.9174L66.3825 89.9862L66.4855 90.0117L66.6054 89.9777L66.7174 89.9174L66.8458 89.7895L66.8544 89.7809L66.8458 89.7637L66.8372 89.6863L66.8544 89.5838L66.9315 89.352L66.9401 89.2756L66.992 89.1381L67.0174 89.0521L67.026 88.9663L67.009 88.5551L66.9828 88.3499L66.9315 88.1696L66.8372 88.0668L66.9742 88.0753L67.0431 87.9557L67.0345 87.7671L66.9828 87.6125L66.8799 87.4929L66.8286 87.5695L66.794 87.7326L66.7515 87.8783L66.7174 87.7154L66.6742 87.6814L66.6231 87.6897L66.5713 87.6722V87.7068L66.5373 87.7408L66.4938 87.7494L66.477 87.7068V87.4835L66.3654 87.5096L66.3486 87.604L66.3568 87.7237L66.3309 87.8097L66.2539 87.8179L66.1766 87.7665L66.1166 87.6897L66.0137 87.4583V87.3723L66.1166 87.3383L66.1598 87.2949L66.1939 87.2015L66.2361 87.1067L66.3051 87.064L66.3995 86.9866L66.6231 86.6353L66.7088 86.5238L66.5287 86.7038L66.4252 86.7726L66.2965 86.7981L66.1684 86.7898L66.0741 86.7557L65.9021 86.6702L65.9626 86.2327L65.9448 85.7613L65.988 85.3757L66.2193 85.1956L66.1684 85.0843L66.1336 85.0157L66.1166 84.9383L66.125 84.7932L66.1598 84.6726L66.2882 84.5018L66.3136 84.4243L66.2882 84.3812L66.1939 84.253L66.1684 84.1844L66.1853 84.1069L66.2193 84.0558L66.2539 84.0472L66.2882 84.1332L66.3314 84.1756L66.477 84.2955L66.5024 84.3049L66.5202 84.3218L66.5627 84.3812L66.6145 84.4932L66.6054 84.5529L66.5627 84.6301L66.5202 84.7846L66.5627 85.2474L66.5459 85.3157L66.7005 85.4011L66.8286 85.6068L66.9061 85.8725L66.8976 86.1298L66.9833 86.0527L67.1721 85.9836L67.2751 85.9242L67.2401 85.847V85.8213L67.2573 85.8045L67.2751 85.7446L67.4119 85.8131L67.5318 85.7527L67.6347 85.6586L67.755 85.6068L67.7894 85.5729L67.7382 85.5039L67.6347 85.4011L67.4551 85.3322L67.3602 85.2729L67.309 85.144L67.3516 84.9469L67.4978 84.844L67.6864 84.81H67.8412L67.858 84.7932L67.8752 84.7497L67.8923 84.7075L67.9355 84.6903L67.995 84.7075L68.0036 84.7414L67.995 84.7846L68.0119 84.8185L68.1583 84.9214L68.21 84.99L68.244 85.0843L68.2867 84.8185L68.2269 84.7414L68.1751 84.6387L68.1411 84.51L68.1497 84.3473L68.2008 84.2103L68.2613 84.1844L68.2867 84.2447L68.244 84.3473V84.4161L68.3129 84.5018L68.381 84.6132L68.4159 84.3904L68.4328 84.1504L68.4837 83.9533L68.6384 83.8762L68.8017 83.9447L69.1188 84.2012L69.1791 84.1673L69.1962 84.1247L69.2386 84.1415L69.282 84.1756L69.2989 84.1926L69.3509 84.1844L69.3593 84.1504V84.0984L69.3847 84.0304L69.3933 83.9705L69.4188 83.7128L69.4536 83.6016L69.5047 83.5077L69.5652 83.4384L69.616 83.4556L69.6595 84.0041L69.6423 84.1332L70.0887 83.773L70.4744 83.3876L71.2293 82.3846L72.07 81.5789L72.1295 81.4418L72.2673 81.0561L72.3267 80.979L72.4388 80.9188L72.5332 80.782L72.6788 80.499L73.1589 79.8223L73.3561 79.4275L73.391 79.3332V79.2221L73.3393 79.1447L73.1851 79.0421L73.1505 78.991L73.2364 78.8622L73.6052 78.8885L73.7168 78.7853L73.9995 78.4085L74.0172 78.3653L74.077 78.0654L74.1024 78.0051L74.1288 77.9625L74.1459 77.9457L74.1799 77.9194L74.1459 77.8597L74.0938 77.8079H74.0684L74.0167 77.6111L73.9054 77.3623L73.8797 77.2341L73.9222 77.1483L74.1288 76.8656L74.2145 76.7882H74.2828L74.5657 76.8567L74.6514 76.8312L75.0546 76.5484L75.1495 76.5138L75.2261 76.5484L75.2865 76.557L75.4495 76.4195L75.5092 76.377L75.664 76.3598L75.9471 76.2659L76.3157 76.2139L76.6677 76.1028H76.8563L77.3284 76.231L77.4569 76.3254L77.5085 76.2478L77.594 76.3082L77.7828 76.3335L77.8771 76.3856L77.9718 76.3082L78.2718 76.1453L78.409 76.1113L78.4945 76.0253L78.7267 75.6568L78.8296 75.5711L78.8379 75.5371L78.9662 75.3403L79.0183 75.2117L78.9921 75.1429L78.7776 74.9714L78.7181 74.9375L78.6746 74.8775L78.6578 74.7312L78.6492 74.6717L78.572 74.4229L78.6746 74.4661L78.7522 74.5943L78.8551 74.8432L78.9491 74.9198L79.0349 74.98L79.1126 74.9542L79.1381 74.9289L79.1467 74.8943L79.2757 74.6886L79.318 74.6369L79.3691 74.6029L79.4984 74.5513L79.5493 74.5086L79.6014 74.389L79.6437 74.243L79.704 74.1833L79.7901 74.3115L79.473 74.7829L79.3869 74.8603V74.9542L79.2928 75.1686L78.9151 75.8031L78.8465 75.9742L78.8719 76.1113L78.924 76.1459L79.001 76.1545L79.1467 76.1459L79.2071 76.163L79.3014 76.2573L79.3523 76.2913L79.507 76.2659L79.5757 76.1459L79.6271 76.0085L79.7475 75.9491L80.159 75.9139L80.8191 76.1716L81.1109 76.2139L81.4111 76.1545L81.4883 76.1113L81.6429 76.0085L81.6939 75.9481L81.7542 75.8199L81.746 75.7597L81.7119 75.6831L81.6939 75.5114L81.746 75.0743L81.7201 75.0055L81.4626 74.6631V74.3975L81.5486 74.1833L81.6939 74.0372L81.8571 73.9861L82.0119 73.8744L82.1316 73.609L82.1921 73.3174L82.1657 73.1034L82.0208 73.1887L81.866 73.2405L81.746 73.2059L81.6856 73.0342L81.7201 72.872L81.8145 72.7174L82.0119 72.4857L81.7882 72.4432L81.48 72.4857L81.2656 72.3915L81.3167 71.9378L81.3681 71.8689L81.4626 71.7062L81.5145 71.5433L81.4286 71.4665L81.394 71.449L81.3599 71.4061L81.3079 71.3544L81.1371 71.3122L81.1025 71.2601L81.1109 70.6777L81.0422 70.5576L80.742 70.4805L80.605 70.3949L80.5021 70.2834L80.4592 70.1723L80.4757 70.1206L80.5701 69.9405L80.5964 69.9066L80.6645 69.9405L80.6734 70.0177L80.6394 70.2149L80.6996 70.3345L81.1195 70.5408L81.2135 70.6436L81.2392 70.7211V70.8236L81.2573 71.0122L81.3079 71.1658L81.377 71.2093L81.4626 71.235L81.5572 71.3205L81.6599 71.5778L81.6344 71.8175L81.4459 72.2375L81.5486 72.3489L81.677 72.366L81.977 72.3149L82.1657 72.3405L82.2091 72.4092L82.1573 72.512L81.9515 72.8203L81.9263 72.9488L81.9949 73.0342L82.3375 73.0946L82.4064 73.1973L82.415 73.3433L82.3807 73.5405L82.2346 73.8913L82.0544 74.1826L81.9263 74.4914L81.9515 74.9026L82.0208 75.0743L82.0976 75.2111L82.1573 75.3571L82.1837 75.5454L82.2178 75.7088L82.3035 75.9056L82.415 76.0773L82.5094 76.1884L82.6204 76.2396L83.0413 76.3254L83.1528 76.4025L83.2471 76.7624L83.3415 76.8656L83.5044 76.6598L83.5725 76.6516L83.7103 76.5995L83.7875 76.5912L83.8559 76.557L83.9677 76.4195L84.0446 76.3939L84.0793 76.4195L84.1818 76.5912L84.6368 76.8398L85.1341 76.771L86.0522 76.2478L86.2154 76.2824L86.4042 76.1884L86.5834 76.051L86.7464 75.9742L86.6693 76.1367L86.5748 76.231L86.4723 76.3082L86.3694 76.4195L86.2495 76.4967L85.9315 76.5315L85.8031 76.6164L85.3227 77.0201L85.1341 77.2763L85.2633 77.4566L85.0737 77.6539L84.8086 77.7654L84.517 77.7912L84.2333 77.7222L83.865 77.4829L83.1188 77.3112H82.9808L82.5863 77.3797L82.0033 77.251H81.4197L81.3254 77.2169L80.9307 76.9766L80.6996 76.9086L79.507 77.0021L79.4041 76.9509L79.2236 76.7541L79.0086 76.5824L79.121 76.8135L79.9185 77.6278L80.0128 77.662L80.0646 77.7222L80.2185 78.1339L80.2101 77.8251L80.2185 77.7308L80.2447 77.6534L80.2871 77.6026L80.3814 77.4912L80.4932 77.4394L80.648 77.448L80.8023 77.4912L81.7542 77.8853L82.0544 77.9366L82.3121 77.9108L82.4234 77.954L82.7322 78.3736L82.7925 78.4936L82.7404 78.5282H82.6461L82.5599 78.5451L82.2005 78.8796L82.1403 78.9224L81.6253 79.0165L81.2478 78.9307L81.1025 78.9479L80.9911 78.9993L80.8534 79.1024L80.7675 79.239L80.8023 79.3935L80.8966 79.4963L80.9996 79.5653L81.1195 79.6075L81.5486 79.6255L81.5999 79.582L81.5826 79.4709L81.5572 79.3424L81.5912 79.2221L82.1573 79.6594L82.5007 79.8394L82.7147 79.7537L82.9037 79.9166L83.161 80.2588L83.2471 80.3108L83.3415 80.328L83.65 80.4388L83.8216 80.4737L84.0018 80.456L84.2076 80.3617L84.1907 80.456L84.1479 80.5162L84.0188 80.6363L84.0534 80.6965L84.0793 80.8331L84.105 80.9105L84.1132 80.9537L84.1304 81.0819L84.139 81.1073L84.1736 81.1254L84.2596 81.1158L84.4131 81.2195L85.786 81.6135L86.0608 81.5701L86.1117 81.5361L86.2238 81.4165L86.2918 81.3647L86.3605 81.3393L87.2183 81.1848L87.4758 81.0561L87.5785 81.0311L87.7419 81.0478L88.1107 81.1762L88.1705 81.1848L88.3252 81.1762L88.3769 81.1848L88.4363 81.2279L88.4884 81.2364H88.5827L89.3025 81.1158L89.3974 80.9876L89.3374 80.7048L89.7405 80.9016L89.8864 81.0048L89.9547 81.0301H90.0236L90.1095 80.9876L90.1609 80.979L90.3754 80.8677L90.5123 80.6191L90.6247 80.3445L90.7782 80.1735L90.7099 80.8594L90.6839 80.979L90.6329 81.1073L91.1725 81.0301L91.3275 81.0819L91.3443 81.1932L91.268 81.3305L91.1557 81.4418L91.1989 81.4504H91.2329L91.268 81.459L91.3021 81.5106L91.4388 81.313L91.6188 81.3475L91.799 81.5106L92.0049 81.8021L92.0653 81.8532H92.485L92.6311 81.9132H92.7L92.5625 81.7078L92.6311 81.5872L92.8032 81.5361L92.9831 81.5278V81.4504L92.8032 81.3305L92.8116 81.1848L92.9313 81.0394L93.0775 80.9105L93.2493 80.8508L93.3606 80.9537L93.5665 81.3475L93.6005 81.5015L93.541 81.6135L93.4633 81.7162L93.4721 81.8275L93.5576 82.1623L93.5665 82.2301L93.5153 82.316L93.4806 82.4103L93.489 82.4875L93.5665 82.5214L93.5492 82.5649L93.489 82.6757L93.3606 82.8474L93.4466 82.9076L93.4973 82.8813L93.5492 82.8219L93.6268 82.7872L93.7978 82.77L94.1844 82.8732L94.3127 82.9417L94.4325 83.053L94.3127 83.1216L94.0814 83.1813L93.9693 83.2417L93.8664 83.1987L93.8492 83.379L93.8664 83.6102L93.8578 83.7216L93.7123 83.7467L93.6354 83.7384L93.6005 83.6873L93.5751 83.6271L93.5147 83.5762L93.4378 83.5413L93.3692 83.5242L93.3003 83.5327L93.2231 83.5674L93.0861 83.6619L92.9231 83.8673L92.7595 83.9184L92.6914 83.927L92.6057 83.9101L92.4764 83.8158L92.4255 83.7988L92.3229 83.8418L92.0399 84.0304L91.9368 84.073L91.7304 84.3041L91.6963 84.3643L91.447 84.4669L90.9501 84.776L90.7099 84.8018L90.4697 84.664L90.3581 84.5189L90.2979 84.4755L90.2384 84.5272L90.2292 84.6215L90.281 84.6812L90.3499 84.7158L90.384 84.7497L90.3499 84.8703L90.2638 84.9383L88.7111 85.6586L88.2477 85.9753L88.0421 86.1902L87.9908 86.2578L87.9646 86.3098L87.9477 86.3956L87.956 86.4727L87.9823 86.567L87.9732 86.6439L87.8791 86.6783L87.8022 86.6702L87.6728 86.6181L87.6042 86.6098L87.5017 86.6267L87.4504 86.6783L87.4072 86.7469L87.3475 86.8152L87.2529 86.8923L87.1502 86.9527L87.0213 86.9955L86.8582 87.0124L86.7296 87.047L85.923 87.6634L85.717 87.8783L85.6227 88.135L85.6491 88.2725L85.8377 88.7948L85.9919 88.8211L86.2321 88.9407L86.3778 88.9918H86.8671L86.97 88.9324L87.21 88.675L87.3212 88.5978L87.4674 88.5722L88.4884 88.6582L88.7715 88.7693L89.0202 88.9324L89.4573 89.3178L89.5175 89.352L89.6376 89.4035L89.698 89.4463L89.7751 89.592L89.835 89.678L90.0061 89.7809L90.247 90.0806L90.3499 90.1749L90.6585 90.2606L90.8042 90.338L90.864 90.4745L90.933 90.5688L91.0876 90.5265L91.3275 90.3802L91.5849 90.2859L91.8679 90.2437L91.9878 90.2945L92.3652 90.6379L92.8373 90.9374L93.0086 91.161L93.1201 91.5547L93.1464 91.8038L93.1718 91.8892L93.292 92.1288L93.3088 92.1892L93.3352 92.3429L93.4117 92.7203V92.9434L93.3863 93.132L93.3438 93.2942L93.2663 93.4148L93.0002 93.5088L92.9059 93.6287L92.8456 93.8004L92.8032 93.9972L92.7859 94.0483L92.7595 94.0829L92.7089 94.1255L92.7684 94.2461L92.8032 94.3912L92.8456 94.6572L92.9142 94.854L92.9231 94.9572L92.8977 95.1117L92.8373 95.2142L92.7512 95.3168L92.6914 95.4367L92.7 95.5828L92.7595 95.6339L92.9831 95.677L93.0775 95.7111L92.9399 95.7713L92.5888 95.7799L92.4939 95.814L92.4427 95.8487L92.3652 95.857L92.2199 95.8487L92.1596 95.8656L92.0049 95.9771L91.9454 96.0024L91.7387 96.0456L91.7133 96.0201L91.7218 96.1316L91.7736 96.2427L92.5028 96.7563L92.5888 96.8509L92.7089 96.9452L92.8538 96.9366L93.0002 96.8941L93.1201 96.8858L93.1976 96.9543L93.4028 97.2194L93.4466 97.3051L93.489 97.4852L93.5833 97.5709L94.0982 97.8114L94.2352 97.8453L94.6902 97.8537L94.7674 97.8453L94.9041 97.8028H94.9901L95.4194 97.9733L95.5732 98L95.711 97.9828L96.449 97.6311L96.6026 97.6057L96.6969 97.5709L96.9291 97.408L97.0064 97.3314L97.1007 97.1683L97.1604 97.0223L97.2463 96.9197L97.5725 96.8509L97.6583 96.7826L97.8038 96.5512L97.8207 96.5173V96.4569L97.8559 96.423L97.8642 96.3972L97.941 96.4058H98.0354L98.1898 96.423L98.2499 96.4058L98.3187 96.2852L98.5848 95.5914L98.8161 95.1888L98.885 95.1028L98.919 95.0343L99.1935 94.6489H99.219L99.2276 94.6572V94.6828L99.236 94.7089L99.4076 94.529L99.6312 94.4347L100.18 94.3143L100.437 94.203L100.917 93.8776L101.166 93.7833L101.638 93.869L101.75 93.8173L101.844 93.7484L102.067 93.8004L102.187 93.7747L102.239 93.7316L102.282 93.6712L102.334 93.6201L102.41 93.5771L102.479 93.5685L102.711 93.5771L102.848 93.6287L102.934 93.7484L102.994 93.8776L103.062 93.9804L103.354 94.0227L103.542 93.723L103.689 93.3037L103.86 92.9945L103.98 92.9342L104.272 92.866L104.392 92.7549L104.546 92.4371L104.666 92.3518L104.838 92.4543L104.881 92.4117L104.949 92.36L104.975 92.3174L105.301 92.5749L105.258 92.2835L105.267 92.1543L105.344 92.0432L105.447 92.0001L105.67 92.0178L105.764 91.9743V91.9149L105.567 91.8289L105.524 91.7858L105.498 91.6915L105.515 91.6144L105.55 91.5378L105.567 91.4258L105.627 91.3493L105.987 91.0573L106.236 90.9374L106.519 90.8779H106.819L107.111 90.929L107.609 91.1258L108.055 91.409L108.132 91.4861L108.339 91.7347L108.381 91.8289L108.441 92.0432L108.578 92.1121L109.049 92.0263L109.573 92.0603L109.676 91.9489L109.796 91.7264L109.951 91.5719L110.165 91.666V91.5975L110.551 91.8377L111.161 91.9743L111.296 91.9404L111.322 91.8886L111.366 91.7264L111.391 91.666L111.461 91.623L111.537 91.6058L112.146 91.5804L112.635 91.4001L112.73 91.3147L112.747 91.1693L112.661 91.0233L112.473 90.8176L112.429 90.6122V90.4065L112.49 89.8408L112.541 89.6349L112.618 89.4375L112.704 89.3095L112.765 89.2839L112.918 89.2756L112.978 89.2407L113.022 89.1555L113.004 89.1124L112.961 89.0698L112.935 89.0009L112.97 88.8042L113.065 88.7013L113.192 88.6664L113.355 88.6927L113.561 88.8042L113.639 88.8295H113.725L113.947 88.7693L114 88.6664L113.947 88.4442L113.828 88.1094L113.725 87.9896L113.622 87.9294L113.51 87.9557L113.39 88.0839L113.287 88.1179L113.176 88.0154L113.004 87.7928L112.867 87.7671L112.463 87.8614L112.326 87.8268L112.112 87.6814L111.983 87.6551L111.906 87.6814L111.845 87.7408L111.786 87.7928H111.7L111.761 87.6211L111.708 87.5015L111.597 87.4666L111.486 87.5609L111.4 87.6466L110.62 87.6383L110.482 87.6897L110.337 87.8351L110.147 87.9557L110.122 87.9982L110.028 88.2896L109.822 88.5551L109.573 88.607L109.306 88.5128L108.792 88.2036L108.673 88.1094L108.621 87.9896L108.655 87.8179L108.707 87.6634L108.689 87.5695L108.527 87.5526L108.414 87.6211L108.32 87.7671L108.261 87.9466L108.234 88.1262L108.218 88.1696L108.114 88.3151L108.08 88.3499L107.986 88.3753L107.951 88.4357L107.943 88.521L107.917 88.6153L107.729 88.8127L107.583 88.907L106.374 89.2407L106.116 89.2152L105.104 88.5035L103.139 85.6068L102.548 84.4415L102.187 83.4733L102.119 83.353L102.041 83.2417L101.981 83.1134L101.733 81.9218L101.672 81.7681L101.638 81.6221L101.604 80.9962L101.561 80.8336L101.552 80.7567L101.561 80.6537L101.596 80.5594L101.715 80.3966L101.741 80.3534L102.033 80.2165L102.05 80.1222L102.059 80.0109L102.11 79.9249L102.187 79.882L102.204 79.9249L102.213 79.9932L102.256 80.0534L102.342 80.0792H102.41L103.053 79.9166L103.354 79.7281L103.586 79.4621L103.989 78.8364L104.22 78.5967L104.272 78.4847L104.306 78.3311L104.28 78.2454L104.246 78.168L104.22 78.04L104.152 77.8937L104.032 77.7138L103.98 77.5168L104.126 77.3284L104.143 77.5083L104.212 77.688L104.297 77.8251L104.401 77.8937L104.486 77.9796L104.538 78.0137L104.606 78.0314L104.718 78.04L104.769 78.0568L104.632 78.4253L104.589 78.691L104.649 78.9136L104.812 79.059L104.949 79.0504L105.07 78.9479L105.19 78.8193L105.164 79.0681L105.07 79.2307L104.821 79.4878L104.624 79.8394L104.555 80.0109L104.392 80.1909L104.203 80.568L103.851 80.7567L103.139 80.9707L103.173 81.065L103.191 81.1073L102.951 81.2619L102.736 81.5106L102.71 81.6049L102.831 81.6476L103.087 81.5192L103.251 81.3996L103.483 81.3475L103.645 81.2107L103.92 81.1158L104.083 80.9451L104.254 80.7048L104.615 79.9677L104.76 79.796L105.412 78.725L105.515 78.6225L105.756 78.4596L105.858 78.3565L106.064 78.0654L106.167 77.9457L106.296 77.8514L107.102 77.4394L107.326 77.2341L107.875 76.5912L108.08 76.4278L108.459 76.2139L108.963 75.9228L109.127 75.9311L110.061 75.7511L110.551 75.8199L110.808 75.7597H110.928L111.074 75.8199L111.117 75.8626L111.152 75.9056L111.212 76.0253L111.228 76.0424L111.306 76.0942V76.1453L111.296 76.2056L111.28 76.2478L111.314 76.3427L111.322 76.3254L111.331 76.2659L111.4 76.2396L111.469 76.197L111.494 76.231V76.377H111.545L111.588 76.0856L111.718 75.8626L112.181 75.3743L112.378 75.2203L112.6 75.1166L112.945 75.0485L113.227 74.8775H113.673L113.725 74.8432L113.784 74.7744L113.861 74.7058L113.974 74.6717L114.163 74.7312L114.282 74.7398L114.394 74.6717L114.488 74.7398L114.712 74.8171L114.814 74.8775L115.063 75.1686L115.123 75.2111V75.3908L115.037 75.7428L114.908 76.0171L114.771 75.9567H114.72V76.0339L114.891 76.0856L115.063 75.9228L115.192 75.6568L115.243 75.3908L115.312 75.1517L115.44 74.9281L115.535 74.7058L115.475 74.4747L115.698 74.4398L116.059 74.0883L116.298 74.0033L116.375 73.9601L116.598 73.7713L116.675 73.729L116.796 73.7113L117.584 73.4027L117.902 73.1548L118.031 73.1199L118.263 73.1634L118.502 73.283L118.657 73.4802L118.631 73.729L118.786 73.6601L118.898 73.497L119.077 73.1457L119.798 72.1258L120.227 71.6721L120.459 71.5864L121.341 71.7484L121.633 71.7401L122.371 71.475L122.98 71.5778L123.057 71.5345L123.229 71.5778L123.496 71.6807L123.555 71.6549L123.735 71.5515L123.77 71.5176L123.804 71.5004L124.027 71.6807L124.198 71.7484V71.9118L124.045 72.2292L124.276 72.1172L124.645 71.6035L124.782 71.4659L124.67 71.2093L124.635 70.8916L124.679 70.592L124.808 70.3608L124.936 70.2751L125.09 70.198L125.237 70.1037L125.331 69.9574L125.349 69.7521L125.288 69.6406L125.176 69.5889L125.057 69.5806L124.8 69.6238L124.67 69.6067L124.584 69.504L124.602 69.3409L124.688 69.161L124.892 68.8781L125.065 68.5696L125.108 68.2868L125.082 67.5668L125.176 67.2152L125.304 66.8638L125.476 66.5724L125.708 66.4093L127.141 66.2122L127.312 66.1359L127.441 66.0236L127.698 65.7325L127.827 65.6382L127.929 65.621L128.17 65.7153L128.316 65.6986L128.384 65.5354L128.445 65.116L128.565 64.6529L128.737 64.2584L128.968 63.967L129.286 63.8388L130.392 63.881L130.761 64.1299L130.898 64.1641L131.035 64.1552L131.31 64.079L132.331 64.0444L132.468 64.0695L132.698 64.2244L132.819 64.2844L132.973 64.2758L133.266 64.1901L133.42 64.2412L133.617 64.2758L134.029 64.1901L134.235 64.2073L134.921 64.3873L135.145 64.3438L135.316 64.1732L135.427 63.9159L135.478 63.6248L135.47 63.5559L135.437 63.419V63.3502L135.453 63.2559L135.521 63.1016L135.547 63.0242L135.564 62.8702L135.556 62.7677L135.461 62.5445L135.392 62.4332L135.341 62.373L135.324 62.3217L135.384 62.2275L135.461 62.176L135.839 62.1077L135.882 62.1163L135.9 62.0986L135.908 62.0043L135.804 61.6876L135.821 61.4473L135.908 61.2502L136.251 60.608L136.38 60.4535L136.706 60.2046L136.825 60.0681L136.911 59.8794L136.928 59.6824L136.825 59.5107L136.68 59.4761L136.319 59.6053L136.182 59.622L135.71 59.3221L136.173 58.9281L136.294 58.7735L136.447 58.619L136.38 58.5342L136.327 58.3965L136.259 58.1309L136.045 57.6595L135.976 57.6L135.908 57.5135L135.89 57.3512L135.925 57.3421L135.984 57.3512L136.053 57.3249L136.078 57.2397L136.07 57.2052L136.053 57.1626L136.037 57.1024L136.027 57.0258L135.976 56.7595L135.839 56.5793L135.659 56.477L134.843 56.3735L134.707 56.4256L134.441 56.4425L134.51 56.1853L134.929 54.7972L134.99 54.7109L135.162 54.6427L135.213 54.5486L135.256 54.4287L135.316 54.3169L135.453 54.1629L135.598 54.0858L135.762 54.0772L136.517 54.3772L136.792 54.3424L137.09 54.103L137.22 53.9313L137.314 53.7256L137.296 53.5287L137.168 53.3571L136.996 53.3316L136.868 53.4599L136.747 53.6144L136.602 53.6916L136.517 53.6576L136.388 53.4862L136.319 53.4259L136.243 53.4082L136.002 53.4427L135.461 53.3231L135.298 53.2542L135.221 53.1516L135.17 53.0057L135.076 52.8172L134.955 52.6974L134.818 52.6031L134.723 52.474L134.776 51.9518L134.896 51.8658L135.237 51.8916L135.804 51.6944H136.011L136.216 51.729L136.319 51.7199L136.397 51.6686L136.431 51.5661L136.414 51.2321L136.447 51.0862L136.594 50.8373L136.782 50.658L137.186 50.3831L137.315 50.2377L137.537 49.8778L137.666 49.7663L137.829 49.6715L137.88 49.5781L137.888 49.201L137.983 48.8493L138 48.6608L137.923 48.498ZM82.8265 80.6022L81.9346 80.388L79.7381 79.848L79.4644 79.6849L79.3014 79.4793L79.1985 79.1878L79.0864 78.7679L78.9662 78.7168V78.8967L79.0266 79.1447L79.0778 79.2992L79.2666 79.5992L79.4812 79.796L80.5535 80.2079L83.0413 80.7388L83.3244 80.8765L83.4782 80.9105L83.3926 80.8422L82.8265 80.6022ZM89.5601 82.1188L89.4743 81.9989L89.1658 82.0247L89.0972 81.9557L89.0288 81.8532L88.8656 81.8702L88.5827 81.9989L88.3677 81.8361L88.1618 81.8275L87.6903 81.9218L86.7125 81.785L86.6521 81.7162H86.618L86.5664 81.7764L89.4403 82.2478L89.5601 82.1188ZM68.1325 85.3842L68.0213 85.4785L67.8234 85.6925L67.712 85.7868L67.6175 85.8131L67.5148 85.8299L67.4289 85.8642L67.3948 85.9585L67.343 86.0527L67.206 86.1639L66.8626 86.3524L67.3862 86.1298L68.0722 85.6245L69.6423 84.1332L69.2045 84.3898L68.1325 85.3842Z" fill="none"/>
</svg>
