<svg width="55" height="116"><path d="M54.6 83.8l-.1-.1h-.2v-.2l-.4-.6v-.4h.2v-.2h.1l.2-.2v.1l-.1.1h.2v-.5l-.3-.4-.2-.2-.2-.2-.1-.3-.2-.1V80.3l-.1-.1v-1.3.1h-.1v.4h-.1v-.2L53 79l.1-.1h.1v-.2h.1v-.2H53l-.1-.2h-.2V78l.1-.1v-.5h.1l.3.2v.1h-.1v.2h.1v.1h.2V77.7l.1-.1v-.1h-.2V77.3h-.1l-.2-.1V77l-.2-.1V76.6h-.1l-.1-.1v-.2.1l.3.2v.2l.2.3V77h.1v-.1l-.1-.1v-.1H53l-.2-.2v-.6l-.1-.2v-.2l.1-.1h.1v-.1h-.1V75h-.2l.1-.2v-.3l.2-.2v.2l.1.4v.4h.2v-.9l-.2-.2-.1-1-.2-.5h-.1l-.2-.2-.1-.2h.2v.1h.1l.2.1-.3-.4v-.7l-.2-.2-.2-.3v-.2H52V70l-.2-.2-.2-.7-.1.2v-.2h.1V68.3v.1h.1v-.3l-.1-.1-.3-.4-.2-.3-.2-.1h.1l-.4-1.1-.2-.6v-.7h-.1v.1h-.2l-.1-.2h.2l.1-.3h.1v-.1h-.1v-.1h.2v-.1l.1-.1h-.1l-.2-.1-.1-.2v-.4h-.1l-.2-.2-.1-.4h-.2l-.1.2V63.3h.2-.2l-.1.2V63l-.1-.1-.2-.1-.3-.2v-.4l-.3.3h-.3V62.2H48.7l.2-.3h-.5L47 60.3l-.3-.5v-.5H46.4h.1V59h-.1l-.2-.1-.3-.3-.1-.1-.1-.2-.2-.3v-.6h.5v-.1h.2l-.1-.2H46v.1h-.2l-.2-.1h-.2l-.2.1.2.1v.5l.1.4v-.1H45.2l-.2.1h.1l.1-.1.1-.1v-.4h-.1l-.2.1v-.1l-.2-.1-.2-.2v-.2l.1-.2.3-.2.1-.1H44.6l-.1-.1H44V56.2l.3.2-.3-.4v-.4h-.2v.2H43.5l-.3-.3h-.1v.4l-.3.2h-.1V56h-.4l-.1-.2-.1-.5H42.5h-.1l-.2-.2-.1-.1-.2-.3-.4-.3v-.1h-.1l-.1.1h-.1l-.1-.2v-.1H40.9V54h.2l-.2-.1-.1-.2-.2.1-.1-.1h-.1l-.2-.1-.5-.3h.2l.9.4.3.1-.3-.1-.7-.7-1-.7-.9-.8H38v-.1l-.1-.1h-.2v.2h-.4l.3-.1v-.1h.1v-.2l-.5-.6v-.4l-.1-.2-1.2-1-1.4-1-.6-.7h-.1v-.1l-.2-.2h-.1l-.1-.3-.4-.7-.2-.2-.1-.3-.1-.1-.2-.1-.2-.1h-.4v.2l-.1-.1V45H32l-.3-.2h-.5l-.1-.1-.1-.1h.6l.3.2h.1l.2.2.2.1h.1l-.1-.2v-.1l-.1-.4-.1-.2V44l-.1-.1h.1l.1-.1v-.1l.1-.1.2-.1.1-.1-.6-.9v-.1l-.1-.2V42l-.2.1h-.2l-.1.1v.2h-.2v-.2H31V42h.1l.1-.1h.1v-.2l-.3-.2-.2-.3H30.6l-.4-.4h-.7.2v-.1l-.1-.1-.4-.3-.3-.4-.2-.2h-.1v-.2l-.1-.2v-.1h-.3L28 39l-.4-.7-.1-.5v-.1l-.1-.1V37H27V37.7H27v-1l-.2-.2h-.2l-.2-.2h.2v.1h.1v-.1h-.1l-.2-.2-.2-.1v-.1l-.1-.1v-.4l-.1-.1v-.4l.2-.3.2-.1h.2l.1-.1h.2v-1.1h.2l.1-.2h.2V32.7l-.1-.2.2.2v-.2l-.2-.2V32L27 32h.1l.1-.2h.2v-1.3l-.1-.1v.1h-.1v-.1h.2v.2-.5h.1l.2-.4v-.2H28.2v-.2l.2-.1V29h-.4l.2-.1.1-.2v.1h.1v-.3l.2-.3v-.4l.4-.4.1-.2.1.1.1.1h.2v.1h.1l.1-.4V27v.5h.2l.2-.1.1-.1.1-.1.1-.2V27h.1l-.1.2h.1l.2-.2.2-.2.1-.2.2-.1.3-.3v-.3H31.8v-.2h.6l.2-.2h.2v-.1h.1v-.2h.1V25l-.2-.2v.1h-.1l.1-.1h.2v.2h.2v-.5l-.1-.2h.2v-.6h-.5l.1-.1.3-.1V23h-.4l.5-.2.1-.2h.2v-.2h-.1l-.1-.2-.1-.2.2.2h.5l.2-.2-.2-.1-.1-.1h.5l.1-.2h.1l.1.1.2.2-.1-.4v-.1H34.3v-.2l-.2-.2V21h.2v-.4h-.2l-.1-.1V20.2l.2.2v-.1l.2-.1V19.9H33.8v-.2l-.1-.2h.1l-.2-.2h.2l.3.1v-.1h.6v.2h.1v.2H34.5v.2h.4v.1l.2.2v.1l.2-.1V19.8v.2h.1l.1.1h.2V20h-.1l-.2-.2h-.1l-.2-.3h.2l.2.2h.2v.1h.5l.2-.1v-.1l-.3-.2v-.1l.2.1h.2-.1v-.2l.1.1v.2V19.1h.1v.1h.1v-.1h.1v.2-.1h.1v-.1h.4l-.4.2-.2.3v.1h.5v.2h.4v-.2l.2-.2v-.1H38.7l.1-.1h.1l.1-.2V19l-.1-.2v-.2h.2V18h-.2v-.5h.1v-.2h.4l.2-.1-.3-.2v-.1h.3v.1H40.3V16.7v.2h.1v.1l.1.1H40.7V16.8H41V16.4h.2V16.2h.1l.1.1h.1l.1-.1h.2l.1-.2v-.1h.2v-.4H41.8v-.1h.2v-.1h.2v.2h.1v-.2h.1v.2h.2v-.2h.4l.1.2v.5l.2-.1.2-.2h.1l-.3-.4h-.1l-.3-.4-.2-.1-.1-.1v-.1l-.1-.1v-.1h-.2l-.3-.1H41.7l-.3.2h-.2l-.4.2h-.6l-.1.1h-.4v-.3l-.1-.2H39.3l-.2.3-.3.1v-.1l-.3-.6-.2-.2h-.8l-.5-.5-.3-.2h-.4l-.1-.2V12.6h.1l.1-.2V12H35.4V12l-.2-.1v-.1h-.7l-.1-.2h-.1v-.1h-.2l-.2.2-.2.1h-.1V11.2l.1-.2V10.3h-.1V10l-.1-.1v-.1h.1v-.2l-.1-.5V9l-.2-.1h-.3l-.1-.1-.1-.1v-.1l-.1-.3v-.6l.3-.9v-.1l.1-.1h.2l.1.2H33.8l.2-.4v-.1l.2-.3.1-.1v-.4h.2l.2-.2v-.2h-.4l-.2-.3-.2-.1v-.2H33.5v.1H33.2v-.2l-.1-.1H33l-.3-.2H32.4v.2h-.2l-1 .3h-.6v-.2l-.1-.3-.2-.2-.2-.2h-.3l-.4-.1h-.6l-.2.3-.2.1H28v.1l-.1.1-.2-.1-.4-.5-.1-.1v-.1h-.2l-.1-.1-.2-.2H26l-.5-.1-.2-.2v-.6l-.1-.1-.4-.2v-.1l-.2-.3v-.2h-.1l-.1-.1H24.1l-.1-.1-.1-.1-.1-.1V.8l-.1-.1V.6H23.4l-.3.3v.2l-.1.2v.1l-.2.1H22.5v-.1h-.1v.1l-.6.2h-.1l-.3.2-.2.1-.3.3h-.2l-.2-.1h-.1V2.5h-.1l-.2.2H20V3l.1 1v.2l-.4.3-.3.4V5h-.2l-.1.1h-.9v-.1H18L18 5l-.5.4-.2.2-.7.4h-.2l-.1-.1-.4-.2-.1-.1-.1-.2V5h-.1l-.6.3h-.5v.1l-.1.2-.2.3-.1.2v.6l-.2.3v.5h-.5v-.1l-.1-.2V7H13l-.3-.3-.2-.3-.1-.1-.5-.5-.5-.6h-.1l-.3.1-.1.1h-.1v.2l-.1.1-.2.2v.5l-.2.4H10l-.2-.2-.3-.5v-.4l-.1-.1-.1-.1v-.1h-.2v-.1H8.8l-.3.5-.1.3h-.1l-.1.2-.5.2-.2.2v.5l-.3.3H7l-.2.1V8l-.1.1H6.5l-.2-.2-.3-.1h-.1l-.1-.2-.3-.5V7l-.2-.2h-.1l-.3-.1h-.2l-.4-.4h-.2L4 6h-.2V6l-.2-.2h-.1V6H3v-.2L3 5.6l-.2-.1-.2-.1h-.2v.2l-.2.3-.1.2H1.7v.2H2v.1H2v.2l-1 1V8L.8 8l-.1.2H.7l-.2-.1H.1V8.5l.1.3.1.1v.2l.1.1.1.1.1.1.1.2.1.1.5.2.5.6H2l.1.2.1.2v.1l.2.1.2.2h.1V12l.3.1.3.1.2.2.3.6V14l.1.2h.6l.2-.1.2-.3.1-.2V13l.1-.2.2.1V13.8H5.7l.5-.2.2.1V14.8h.1v.1l-.2.1-.2.4-.2.1-.3.6.2-.2H6l-.2.5v.6l-.1.1h-.3l-.1.2v.1H5.5v.1h.2v.6h.1l.1.1.1.1.1.3v.2l.1.1h.2l.2.1v.1l.3.4.2.5.1.2.2.3.1.1H7.9v.1H8l.1.1h.5l.5.2.2.1h.3l.1-.1.1-.1h.1l.1.1.2.3.1.1h.2l.5.2h.1l.3.4.2.1H11.8v-.5h.2l.2-.1V20.8l.1-.1.1-.1H12.8l.2-.2.6-.2H13.8l.3-.1.3-.4h.4l.1.1H15.3l.2.1.1.1.1.2h.5v.1l.2.1.1.3.2.1.1.1.1.2.2.1h.4v.1l.1.3.2.1.3.2.5.1v.4l-.5.6-.1.1-.2.1h-.2l-.2-.2-.2.3-.4.3v.2l.2.1.3.1h1.2l.1.3h.2l.2.2h.2v.4H19l-.1.1v.5l.2.2h.3l.4-.2h.3l.6.3v.4l.1.1.3.2v.1l-.1.1v.7h-.5l-.1.2-.2.1-.4.2-.1.2v.2H20V29h-.2l-.2.2-.1.1h-.2l-.2.1-.2.2v.1l-.3.6v.1H17.8l-.5-.2-.2-.1-.1-.1v-.1l-.2-.1H16.5l-.3.2-.1-.2h-.3l-.1-.2-.5.2H15l-.1.2h-.4l-.3-.2H14l-.1.2.1.5h.1l.2.2h.1V31l.1.2h.1v.2H14.4v.4l-.1.1H14l-.2.2h-.2l-.2.3h-.1l-.3.2-.1.2H13.2l.1.2v.1l.3.1.2.2h.5l.8.3.3.2v.1l.1.2v.1h.4l.1.1.1.1.1.1h.2l.1.1h.1l.2.2.2.3.2.1h.4v.1h.2l.2.5h.1l.3.2.3.3H19v.1h.1l.1.2h.2l.3.1.2.1h.8v.2l.1.1h.5l.4.3H22.3l.2.4h.1V38.3h-.2l-.1.2-.1.2-.1.5v.5l.2.2.2.2h.1v.5l.4.3.1.1.1.1h.4v.5l.2.1h.1l.2.1h.1v-.2h.1l.2-.1H24.8v.1h.1v.4h.2v.1l.1.3.2.1.1.2v.2h.1l.2.2.1.2V44.1l.3.2.2.4.2.2v.1l.1.3v.2h.2l.4.2.2.2.2.1.5.7.1.1.7.8 1.2 1 .2.2h.2v-.2h.1v-.1h.2v.2h.1l.1.2v.4l.2.4.4.3V50.3l.2.3v.1l.2.1H32.4l.1.1.2-.2.1.2V53.3l.1.2.2.1.1.1h.2l.2.1v.6l.1.3.1.2.2.2h.4v-.2l.3-.2v-.2l.2-.2h.2l.1.2v.6h.1l.1.3h.1l.1.2h.2v.2l.1.1.1.1h.7v.1h.2l.2.2v.1l.1.4v.1h.1l.1.2H37.7l.1.1.2.2.3.3.2.2h.4l.4-.1h.2V58.4h-.1l-.2.4-.2.2h-.3l-.2.1-.5.4h-.4l-.2.4V60.2l.5.2v.2l.1.4.1.2h.1l.3.2.1.1.4.7h.6v.1H40v.4l.2.2h.4v.3l.1.2h.1l.3.3.1.1V64.5h-.2v.5h-.2v.1l-.1.1v.4h-.4l-.4.1h-.2v.6l.2.1.5.4h.1v.1l-.1.2-.3.3-.1.1v.1l.1.1V68l.1.2.1.3v.2l-.2.3v.5l-.1.2v.2l-.1.1v.2l-.2.1v.1h-.4l-.1.1v.1l-.2.3V71.8l-.2.7V72.8l.1.2v.6h.6v.4l.2.2v.2l-.1.2v.7l.2.1v.1l.2.3.2.2.6 1.1v1.3l-1 2.6v.1l.1.1V82.2l.1.2.2.2.1.2V83.3l.3.9v.5h-.1v.5l-.2.6v.2l-.1.2-.1.1h-.2l-.2.2-.3.3H39l-.2-.4-.2-.1h-.3l-.5.1-.4.3-.2.2v.1H37l-.2.2-.2.3-.5.5-.2.1-.3.2h-1.2l-.1.2-.1.3-.2.2H32.6l-.2.1h-.1l-.1-.1h-.4v.2l.3.4v.2l-.1.2v.2l-.1.1v.1l-.1.1v.2l.2.3V91.3h-.1l-.3-.2h-.2l-.4.1h-.1l-.2-.2v-.1h-.2l-.5-.2h-.3l-.4-.2H29l-.2.2v.2l-.3.3v.1l-.1.1H28l-.3-.1h-.1l-.2.2h-.1v.2l-.1.2v.1h.2l.2.1v.4l.2.4v.2l-.1.3-.1.6v.1l.2.1h.1v.4l.2.2h.4l.2.1.1.3.1.2.3.2.1.1v.2l.2-.2H30l.1.2.1.4.1.2h-.4v.5l.2.3.2.7-.2-.1h-.2l-.4-.1h-.2l-.2-.2-.2-.1-.2-.2-.3-.2v.2l-.1.2H27.9l-.2-.1v-.1l-.1-.3v-.1l-.3-.4-.2-.2v-.1h-.5l-.2.1-.1.1H26l-1.2.3h-.2l-.2-.1h-.1l-.3.4-.3.4h-.1l-.3-.2h-.1l-1-.2H22v-.2l-.1-.1h-.2v.1l-.2.1v.1l-.1.2v.2l.1.3.3.5v.2l-.2.2-.7.4-.2.1-.3.5-.2.2-.2.1h-.4l-1-.1H18v.2l-.1.1-.3.5h-.4V101h.4v-.2h.2v.2h-.1l-.1.1v.1l.2.2v.4h.1l.1-.1.2.1v.1l.1.2v.2l.1.2V102.7h.3v-.2h.2v-.2l.3-.2h.4l.3.1.1.2.2.3.1.2.3.1h.7l.3.4.4.4v.2l.1.1V104.8l-.1-.4v-.1l-.1-.1h-.2l-.4.4-.1.1-.1.2-.5.2-.1.2-.1.3-.3 1.5v1.6l-.1 1.1V112.2l-.1.4v.4l.4-.1.4-.2V113h.1v.1l-.1.1h-.5v.1l.2.2h.5l.1-.2v.1l-.1.1h-.1l-.1.1-.5-.1H20v.1l.1.1v.1H20l-.4.4h-.2l.2.1h.4l.1.1h.3l1.6-.2.3-.1.2-.2.2-.4.5-.4h.2l.2-.1.2-.2.1-.2.6-1.2v-.2h.1v-.2h.1l.2-.2.3-.4.2-.1 1.7-.6 1.9-.8 1-.3h.2v-.1l.1-.1v-.1l-.1-.1H30l.3-.4v-.4l-.1-.2-.8-1.1V105.8l-.1-.1-1.8-1.8-.1-.2h.1l.3.2h.2l.2.2.3.3.7.8 1.4 1.3.6.4.4.3H32.5l.2-.2.2-.1.1-.2.1-.3v-.7h-.3v-.1l-.1-.3-.1-.3-.2-.2-.7-.5-.1-.2-.4-.4-.1-.2-.2-.1-.5-.4-.1-.1-.1-.1v-.1l-.1-.3-.3-.3h-.1v-.1h.2l1.9 2 .6.3.2.2.4.5.2.1h.4l.1-.2v-.3h.1V105h.1v-.2l.1-.1v-.1h-.2l-.4-.3-.4-.3-.6-.2-.1-.2-.7-.9-.1-.1v-.3l-.2-.1-.2-.2h.2l.2.2.6 1 .2.2.2.2.4.2h.1l.1.1.1.1h.5v-.1h.2v-.2h-.1v-.1l.2-.2v-.1h.1v.2h.2l.4-.4v-.4h-.1l-.1-.1h-.1l-.2-.2-1.8-.6-.4-.3H32.4l.2.1h.2l.6.1h.8l.4.1h.2V100.7l-.2-.2v-.2l-.2-.1H34v.2H33.7v-.2h-.2v.1l-.2.1h-.2v-.4.4h.1l.1-.1h.1v-.2h.1l.1-.1h.1v-.2.1h.4v-.1l.1-.2v-.1l.1-.1.1-.1V99l-.1-.1v-.1l.1-.2h.2v.2h.2v.2h.2l.3-.1.4.4v.5l.1.1V100.2h.2l.1-.3h.1l-.1-.2V99.1v.4l.1.1v.1h.1v-.5h-.1v-.4h-.1v-.2l.2.1v.5h.1v.7h-.1l-.1.1-.1.2.1-.1h.2v.1h.1l.1-.2v.1h.5v.2h.1v-.1h.2l.2.2h.1v.2l-.1.1h.2l.3.2.3-.2.2-.2v-.1h.4l.3-.1h.2l.5-.3h.1v-.2h.1l.2-.2v-.1l.4-.2H41.2l.5-.3.3-.1.4-.3.4-.2h.7l.1.1.3-.5.1-.3.1-.2v-.2l.2-.2.2-.2h.2l.9-.3.2.1v.2h.1l.1-.2h.2v-.1l.2-.4V96h.2l.3-.2H47.2v-.1l.1-.3v-.1l.2-.2h.1l.2-.1.1-.1h.4l.2-.2h.1l.2.1h.4v-.2l.1-.4.1-.2h.1l.3-.3h.4l.4.1H51l.2-.2.1-.1v-.4l.1-.5v-.3l-.1-.2h.2v-.4l-.1-.2.1-.1.1.3h.1l.1.1h.5V91.6h.2v-.1l.1-.1v-.1l.2-.2v-.2h.1l.1-.2-.3-.3v-.7l-.1.2-.2.1h-.2v-.5h.2l.2-.2v-.2l.1-.2V88.6l-.1-.2V88l-.2-.2.1-.1.2.4.1.4v1.1h.5v-.2H53v-.2h.1V89l-.2-.1v-.1l-.3-.4v-1.1h-.2v-.1h.3l-.1-.1v-.2l-.2-.1v-.1h.1v-.1H53v-.1l-.1-.1-.1-.2v-.4H52.3v-.1l-.2-.2h.2l-.1-.1.2-.1.2.1.3.4.1.2h.1l.1.1h.1v-.2h.2v-.2l-.1-.1h-.1l-.1-.2v-.2l-.3-.3h-.1v-.6.1h-.1v.2h-.1l-.1-.2V84l.2-.3h.1l.1-.1.1-.1.2-.2V83l.3-.2v-.1h.2v.2l.2.3v.2h-.2l-.2.3h.2v.1h.1v-.2h.1l.1-.1.1.2v.2H54v.1h.1v.3l.2.1v-.6h.1l.1-.1zM14 100.4h-.2v.1l-.1.1v.2h-.1l-.1.1v.1h-.7v.4h.1l.3.2.2.2.2.2.2.6v.6l.2.3.1.1.2.1v-.4l-.2-.2.1-.5.3-.7v-.9l-.5-.6zm40-16.2H54V84h-.5v.2h.1v.1l.3.2h.2V84.1zM39.4 18h-.1v.2l-.1.3-.1.2-.1.2v.2l.3-.1.3-.2.3-.4.2-.1h.1l.1-.1.2-.2h.1v-.2h-.1l-.3.2h-.1v-.2H40v-.1l-.3-.3h-.2v.5h-.1zm.3 2.2h.2l.1-.1v-.2l.2-.2v-.3l.1-.1h-.2v.1H40v.2l-.1.1v.1l-.1.2-.2.1-.2.1-.2.1h.6zM37 21h.2-.1v-.1H36.6l-.1-.1v-.2h-.2v.1h-.1l-.3-.1-.1-.1v.1h-.1l-.2.1V21l.3.1v.1l.3.3h.1v-.1l.1.1h.1-.1v.1h.2v.2-.1l.1-.2h.1l-.3-.2v-.2l.1.1h.2V21v.1h.2-.1V21zM35 100.3H35.3v-.2H35h.2v-.2l-.1-.1-.1-.2V99h-.3v-.2h-.1l-.1-.1h-.2l.2.3v.4h-.2v.6l.2.2.1.2.2.2H35.2V100.4l-.2-.1zm4-79.5l-.2-.1v.2h.1l.1.1h.1v-.1H39v-.1zm.2-.3v-.1h-.4v.1H39.2zm3.2-1l.1-.1v-.1l.1-.1h-.2V19.6zm8.3 80.1h-.1v.4h.2V99.7h-.1zm3-12.5h-.4L53 87H53v.2h.1l.1.1h.5v-.1zm-10-70.8h-1v.1h-.3v.1H42.7l-.1.1-.1.1h.1l.5-.2H43.5l.3-.2zm-1.4.4v-.1h-.2l-.5.3v.1l.7-.3zm-1.7 2.7V19l.4-.5v-.1h-.1l-.2.2v.4h-.1l-.1.1V19.5l.1-.1zm1.5.1l-.2-.2h-.1V19.9l.2-.1V19.5zm-1.8.6V20l.1-.2v-.1.1l-.2.4H40v.1H39.7V20.7l-.1.3h.1l.1-.2.4-.6zm-5.4.3v.2l.2.3v.2H35.4v-.2l-.3-.4V20.2H35l-.3-.2-.1.2v.4h.2v.1h.1v-.2zm-2.5 84.1l-.3-.2H32l.3.3.2.1.2.3h.1v-.2l-.3-.2v-.1zm1.4 8.5h-.3l-.2.2-.2.2-.1.2.1.2h.2V113.5h.4v-.1l-.1-.1.2-.1v-.1zm4-12.5l-.3-.2V100.6h-.1l-.2.2h-.4v.2l.1.4.1-.1.2-.3.2-.1.1-.2h.1v-.2h.1zm-1.9 0h-.2l.1-.3V100h-.4v.4-.1V101l.2-.1h.1l.4-.2-.2-.1zm-.6-1h-.1v.2h.1l.1.1h.1V99.5l.1.1v.1h.1v-.5l-.3-.1h-.2l.1.1v.2zm-1 2.3H34l-.9-.1H33l-.2-.1h-.2l.4.1 1 .2h.1v.1H34.5v-.2zm-3.8 4.9l-.1-.2-.4-.3-.4-.5v-.1h-.1l.1.2.1.1V106.2l.2.2.1.2.3.4h.2l-.1-.1-.2-.2h.2l.2.2V107.2h.4v-.4l-.5-.1zm23.2-30.1h.1l-.1-.2v.2zM52 63.2h.1V63h-.2zm-4.6-4.5l.2.2v-.1l-.2-.3v.1h-.1zm-19-26.5h-.1v.1h.1v-.1zm13.3-5.9zm-4.4-5v.2-.2zm-.2-.1h.1V21v.1zm2.2-.2v.2-.2zm-4.8-.2l.1.1h.2-.1l-.2-.2v.1zm2.6 0v-.2h-.2v.1l.1.1zm.6-.4l.1.1v-.1zm1.1-.3h.2l.1-.2v-.1l-.1.1h-.4v.1h.2zm.6 0l.2-.2v-.1h-.1l-.1.1v.2H39l-.1.1h.5V20zm-2.9-.2h.1l.1-.1v-.2h-.2l-.1.2h.1zm-2.4-.2v-.1H34v.2h.5V19.4h-.2v.2H34zm6.3-.9h.1v-.2h-.1l-.1.1h-.1v.2l-.1.1-.2.1H40.3V19h.1l.1-.1zm.8-1v.5l.1-.5zm2.2-.3v.1h.1zm-2.4 0h-.3v.1h.1l.2-.1zm-.7-.1H40.7l-.1-.1h-.2v.1zm1.2-.3h-.2l-.1.2.2-.2zm-1.7 4.5h-.1v.1-.1zm0-.3h.1zm-1.5-.6h.1v-.1l-.1.1zm-2.8 0v-.2.1h-.1v.1h.1zm-1 0v-.2h-.1l-.1-.1v.1l.1.1zm4-.3h.1l-.1-.2v.2zm.2 0v-.2h-.1v.1zm-2.5-.3V20H36v.1zm-.4-.3v.1h.1-.1zm4.7-1.4h-.1v.1h.2v-.1h-.1zm-.2-1.2h-.1v.2h.1v-.1zm1.8 0h-.2.2zm-21.8 98.2h-.1l-.1.1v.1h.2v-.2zM9.9 109v.2h.2v-.1l.1-.1h-.3zm6.8-3v.3V106zm2-.9l-.1.1v.1h.2l.1-.1h-.1z" fill="#7F807C" fill-rule="evenodd"/></svg>