<?xml version="1.0" encoding="UTF-8" standalone="no"?>
<!-- Created with Inkscape (http://www.inkscape.org/) -->

<svg
   version="1.1"
   id="svg2"
   width="175.10001"
   height="115"
   viewBox="0 0 175.10001 115"
   xmlns="http://www.w3.org/2000/svg"
   xmlns:svg="http://www.w3.org/2000/svg">
  <defs
     id="defs6" />
  <g
     id="g10"
     transform="matrix(1.3333333,0,0,-1.3333333,-237.9661,546.10168)">
    <path
       d="M 178.47458,123.55932 H 552.96606 V 409.57627 H 178.47458 Z"
       style="fill:#f9f9f9;fill-opacity:1;fill-rule:nonzero;stroke:none;stroke-width:0.524872"
       id="path12" />
    <g
       id="g14"
       transform="matrix(0.32355403,0,0,0.32355403,250.09648,406.65927)">
      <path
         d="m 0,0 1.889,-1.679 0.789,-0.431 0.408,-0.43 0.301,-0.503 0.254,-0.885 0.32,-0.335 0.426,-0.235 0.473,-0.167 1.306,-0.153 0.32,-0.096 0.155,-0.211 0.386,-0.75 1.584,-2.344 6.774,-6.168 0.111,-0.205 0.54,-0.402 0.124,-0.211 0.101,-0.861 0.191,-0.899 0.277,-0.738 0.906,-1.501 0.568,-0.651 0.335,-0.321 0.469,-0.315 0.556,-0.138 0.531,0.234 0.54,0.334 0.469,-0.086 0.417,-0.248 0.444,-0.139 1.765,-1.095 1.445,-0.517 0.431,-0.307 0.315,-0.292 1.321,-1.885 0.264,-0.239 0.224,-0.124 0.164,-0.167 0.152,-0.302 0.195,-0.642 0.155,-0.306 0.066,-0.344 0.139,-0.306 0.335,-0.182 0.363,-0.636 0.277,-0.225 -0.86,-0.914 -2.736,-4.64 -0.475,-1.804 -0.234,-0.598 -0.79,-2.148 0.068,-0.919 0.583,-1.082 7.052,-9.926 0.943,-0.906 0.32,-0.051 0.378,0.067 0.359,-0.016 0.336,-0.314 -0.404,-1.555 v -0.861 l 0.164,-0.794 0.291,-0.738 0.402,-0.679 0.808,-3.554 -0.043,-1.164 -0.861,-2.1 -0.042,-0.693 0.196,-0.469 0.321,-0.336 0.343,-0.277 0.292,-0.349 0.197,-0.43 0.374,-1.301 0.362,-0.431 0.513,-0.153 0.555,-0.116 0.502,-0.291 0.358,-0.76 0.197,-1.154 0.014,-2.191 -0.291,-1.071 -1.014,-1.972 -0.351,-1.067 -0.037,-2.043 -0.268,-0.736 -0.594,-0.752 -0.612,-0.095 -2.526,1.32 -0.818,0.153 -0.779,-0.248 -0.767,-0.766 -0.263,-0.373 -0.11,-0.254 -0.043,-0.789 -0.147,-0.474 -0.992,-1.512 -0.817,-1.803 0.043,-0.737 0.555,-0.918 2.678,-2.746 0.35,-0.502 0.125,-0.623 -0.14,-0.933 -0.363,-0.875 -0.497,-0.359 -0.569,-0.278 -0.614,-0.583 -0.248,-0.637 -0.249,-3.386 -0.392,-0.795 -1.273,-1.513 -1.042,-1.889 -0.695,-0.651 -2.362,0.264 -1.527,-0.417 -2.832,-1.153 -0.636,-0.474 -0.35,-0.789 -0.081,-0.904 0.137,-0.775 0.485,-1.224 0.306,-1.207 -0.278,-1.028 -1.278,-0.722 -0.693,0.042 -0.765,0.14 -0.636,-0.196 -0.292,-0.971 0.042,-0.264 0.206,-0.512 -0.039,-0.197 -2.405,-3.137 -0.287,-0.25 -0.642,-0.219 -0.277,-0.211 -0.766,-1.22 -0.153,-1.101 0.268,-1.109 0.497,-1.234 0.14,-0.666 v -2.569 l -0.25,-0.818 -0.803,-1.546 -1.305,-4.065 -0.614,-1.236 -0.957,-0.665 -2.693,-0.692 H 4.999 l -0.388,0.176 -0.386,0.263 -0.431,0.211 -0.432,0.042 -1.21,-0.028 -0.417,-0.086 -0.416,-0.277 -0.335,-0.344 -0.387,-0.279 -0.526,-0.071 -3.029,0.254 0.125,-1.058 -0.082,-2.498 -0.22,-1.086 -0.129,-0.249 -0.439,-0.665 -0.101,-0.086 0.072,-0.315 0.168,-0.085 0.19,-0.069 0.153,-0.277 -0.013,-0.598 -0.485,-1.139 -0.153,-0.598 0.054,-0.358 0.196,-0.599 -0.043,-0.363 -0.207,-0.205 -0.665,-0.307 -0.225,-0.293 -0.013,-0.415 0.861,-10.827 -0.306,-1.335 -0.317,-0.473 -0.779,-0.876 -0.211,-0.498 -0.009,-0.349 0.096,-0.73 v -0.366 l -0.291,-1.635 -0.059,-0.751 0.139,-0.943 0.307,-0.876 0.78,-1.64 0.262,-0.847 -0.014,-0.857 -0.321,-0.722 -0.402,-0.67 -0.305,-0.664 -0.11,-0.723 -0.082,-2.358 -0.503,-2.503 -0.138,-2.484 -0.139,-0.349 -0.402,-0.746 -0.096,-0.306 0.04,-0.335 0.32,-0.483 0.445,-1.124 0.943,-1.058 0.348,-0.555 0.111,-0.57 -0.459,-6.606 0.194,-1.54 0.79,-1.475 1.167,-1.373 0.876,-1.444 -0.109,-1.651 -0.102,-0.349 -0.027,-0.22 -0.125,-0.086 -0.848,0.167 h -0.415 l -0.291,-0.167 -0.097,-0.444 0.819,-9.675 -0.039,-0.555 -0.129,-0.363 -0.317,-0.417 -0.363,-0.75 -0.168,-0.25 -0.037,-0.278 0.153,-0.512 0.33,-0.415 1.042,-0.847 0.221,-0.377 -0.154,-0.432 -0.402,-0.205 -0.511,-0.155 -0.459,-0.21 -1.015,-1.415 0.125,-1.431 0.546,-1.511 0.191,-1.651 -0.417,-1.655 -0.111,-0.848 0.197,-0.775 0.301,-0.402 0.336,-0.239 0.402,-0.11 0.489,-0.052 0.234,-0.183 0.07,-0.387 0.14,-1.822 -0.225,-0.44 -0.483,-0.321 -0.709,-0.627 -0.459,-0.846 -0.014,-0.805 0.349,-1.664 -0.086,-0.833 -0.86,-2.501 -0.447,-2.556 -0.014,-2.401 -15.587,-1.46 -3.153,-0.693 -13.452,-1.525 -10.443,-2.403 -0.277,0.833 0.806,0.429 5.052,1.197 0.821,0.038 -0.737,2.89 -0.764,2.956 -1.014,1.627 -0.347,0.249 -0.846,0.43 -0.249,0.206 -0.083,0.35 0.095,0.846 -0.055,0.387 -0.249,0.336 -0.653,0.54 -0.098,0.277 -0.055,0.446 -0.277,0.095 -0.388,-0.024 -0.376,0.039 -0.306,0.183 -0.332,0.261 -0.306,0.306 -0.238,0.336 -0.124,0.402 0.029,0.359 0.07,0.32 -0.015,0.306 -0.43,0.791 -0.514,0.415 -0.249,0.446 0.332,0.875 0.89,1.19 0.153,0.614 -0.223,0.946 -0.305,0.805 -0.168,0.679 -0.027,0.679 0.292,1.655 -0.069,0.54 -0.361,0.432 -0.639,0.468 -0.445,0.655 -0.763,2.804 2.971,-0.029 0.708,0.225 -0.028,5.775 -0.027,5.717 -0.014,5.875 -0.043,7.971 -0.026,7.812 -0.029,6.235 0.098,6.29 0.069,4.528 -0.416,3.386 -0.208,0.364 -0.222,0.081 -0.125,0.154 0.194,0.969 v 0.681 l 0.069,0.335 1.292,2.138 0.138,0.694 -0.167,0.389 -1.015,1.276 -0.193,0.445 -0.055,0.474 -0.084,6.468 -0.054,3.665 -0.058,4.321 -0.055,4.94 -0.223,1.082 -0.304,0.957 -0.806,1.416 -2.442,2.554 -3.153,3.292 -0.945,1.46 -0.569,1.583 -0.263,4.01 -0.457,1.124 -0.667,-0.331 -0.584,0.595 -0.402,0.962 -0.124,0.802 0.167,0.527 0.694,1.071 0.249,0.498 0.043,0.402 -0.015,0.794 0.096,0.403 0.057,0.482 -0.306,1.847 -0.043,3.086 -0.081,4.329 -0.043,3.22 -0.513,1.35 -4.138,2.759 -5.636,3.753 -5.609,3.731 -3.748,2.487 -2.972,1.986 -0.32,0.597 -0.026,0.915 0.54,4.095 0.584,2.21 0.027,1.555 -0.319,3.579 0.57,1.335 2.138,2.028 0.512,0.733 0.112,0.415 0.07,0.905 0.069,0.431 0.624,1.167 -0.069,0.43 -0.321,0.805 -0.095,0.429 0.11,0.794 1.014,2.455 1.194,-0.664 0.529,-0.072 0.708,-0.015 0.164,0.225 0.098,0.459 -0.042,0.469 -0.22,0.211 -0.321,0.152 -0.139,0.359 -0.015,0.446 0.044,0.402 0.139,0.099 0.332,0.498 0.237,0.488 0.263,0.344 0.167,0.073 0.18,-0.058 0.861,-0.138 0.264,-0.197 0.208,-0.176 0.208,-0.088 0.112,-0.094 0.208,-0.388 0.069,-0.086 0.249,0.014 0.431,0.211 0.153,0.039 1.208,-0.125 0.402,-0.139 0.098,-0.192 0.278,-0.407 0.292,-0.262 0.138,0.182 0.041,0.64 -0.444,0.455 -0.25,0.416 -0.069,0.445 v 0.445 l -0.084,0.474 h -0.084 l -0.373,0.168 -0.113,0.081 -0.012,0.181 0.056,0.498 -0.044,0.168 -0.361,0.08 -0.249,-0.219 -0.153,-0.058 -0.04,0.599 0.208,0.086 1.292,0.291 0.234,0.162 0.264,0.723 0.181,0.21 h 0.416 l 0.778,-0.377 0.416,-0.153 -0.208,0.698 -0.153,1.359 -0.735,1.205 0.194,0.503 0.402,0.387 0.416,0.627 0.376,-0.305 0.292,-0.461 -0.041,-0.191 0.333,-0.014 0.208,0.096 0.207,0.124 0.348,0.081 0.737,-0.038 0.638,-0.181 1.303,-0.613 0.5,0.918 0.056,0.306 -0.081,0.402 -0.391,0.374 -0.084,0.32 0.197,0.474 0.442,-0.211 0.46,-0.525 0.249,-0.432 0.263,0.336 0.28,0.11 0.276,-0.11 0.279,-0.336 0.678,0.584 -0.069,0.512 -0.387,0.541 -0.222,0.684 0.332,0.761 0.791,0.511 0.888,0.392 0.639,0.389 -0.361,0.861 0.043,0.335 0.318,0.468 0.514,0.378 0.5,0.163 0.402,0.225 0.223,0.569 0.638,-0.363 0.764,-0.154 3.707,-0.301 -0.084,-0.263 -0.095,-0.56 -0.072,-0.263 0.682,0.043 0.832,-1.527 0.764,0.264 0.681,0.344 1.804,0.394 0.763,0.357 0.612,0.197 1.734,-0.125 0.752,0.053 1.54,0.627 0.749,0.152 0.681,-0.21 0.374,0.254 0.488,-0.071 1.012,-0.489 1.667,-0.636 1.388,-0.109 1.083,0.512 5.358,5.458 2.876,2.344 2.096,1.182 0.554,0.526 0.139,0.373 -0.044,0.445 0.029,0.693 0.432,1.125 1.511,1.694 0.546,1.043 1.081,3.693 0.349,0.168 -0.087,0.401 -0.458,0.695 -0.053,0.445 0.22,0.511 0.335,0.086 0.374,-0.057 0.334,0.095 0.263,0.307 0.321,0.569 0.264,0.291 0.401,0.043 0.402,-0.152 0.291,0.053 0.03,0.698 -0.087,0.497 -0.249,0.183 -0.373,0.08 -0.431,0.197 -0.402,0.331 -0.277,0.32 -0.225,0.402 -1.315,3.75 -0.393,2.22 -0.023,0.919 0.33,0.693 0.956,0.43 0.546,0.067 0.899,-0.037 0.502,0.052 0.096,0.096 0.321,0.459 0.205,0.139 0.291,-0.053 0.226,-0.238 0.192,-0.067 0.238,0.416 0.177,0.497 0.278,0.114 0.364,-0.056 0.469,-0.014 0.116,-0.096 0.052,-0.226 0.124,-0.176 0.292,0.023 0.224,0.139 0.36,0.336 0.181,0.124 1.402,0.377 0.153,-0.029 0.335,-0.195 0.191,-0.029 0.239,0.125 0.469,0.349 0.278,0.057 1.391,-0.379 0.346,0.211 0.554,0.861 0.125,0.317 0.086,0.306 0.11,0.291 0.206,0.24 0.431,0.162 0.416,-0.277 0.416,0.1 0.363,0.292 0.628,0.746 0.43,0.293 0.387,0.072 0.788,-0.029 0.405,0.08 0.932,0.03 z"
         style="fill:#878787;fill-opacity:1;fill-rule:nonzero;stroke:none"
         id="path16" />
    </g>
  </g>
</svg>
