
<svg width="84px" height="116px" viewBox="0 0 84 116" version="1.1" xmlns="http://www.w3.org/2000/svg" xmlns:xlink="http://www.w3.org/1999/xlink">
    <g id="Page-1" stroke="none" stroke-width="1" fill="none" fill-rule="evenodd">
        <g id="BD-EPS-01-0001" transform="translate(-243.000000, -109.000000)" fill="#7F807C">
            <path d="M326.750868,213.075257 L326.101498,211.128938 L325.913918,210.165623 L325.869171,209.678774 L325.604984,205.093093 L325.918214,202.145872 L325.869171,201.563444 L325.610712,200.398588 L325.597467,200.225327 L325.559521,200.055646 L325.325405,198.783039 L324.916237,197.4843 L325.133887,197.293856 L325.400222,197.297078 L325.604984,197.201856 L325.630759,196.711428 L324.586183,190.395288 L324.558261,190.062012 L324.327724,189.458105 L324.259708,189.134494 L324.297654,188.009374 L324.171646,186.516253 L324.094681,186.216984 L323.898152,185.925591 L323.412377,185.502105 L323.201887,185.211428 L323.076237,184.622556 L322.920875,183.113327 L322.659911,182.786494 L322.063163,182.543428 L321.723802,182.035101 L321.587412,181.38072 L321.604237,180.029358 L321.146385,177.277591 L321.161778,176.503646 L321.236595,176.210105 L321.558774,175.533529 L321.682634,175.185218 L321.671537,174.987257 L321.587412,174.797887 L321.495412,174.474276 L321.487537,174.282759 L321.54016,173.899366 L321.521187,173.721451 L321.455319,173.623724 L321.217623,173.437934 L321.127412,173.308704 L321.105218,173.174463 L321.130992,172.905265 L321.105218,172.75921 L321.003911,172.589887 L320.770868,172.361856 L320.673856,172.20721 L320.591163,171.919397 L320.487708,170.969327 L319.799677,168.745218 L319.748844,168.095132 L319.961125,167.265342 L319.915661,166.847584 L319.546588,166.644969 L319.248035,166.822525 L319.019646,167.723911 L318.746868,167.987023 L318.505591,167.650167 L318.320875,166.90307 L317.965047,166.355724 L317.20363,166.617763 L316.910805,166.948175 L316.325514,167.766152 L316.014432,168.036782 L315.594167,168.144891 L315.316735,168.000984 L314.562121,167.14721 L314.336953,166.783506 L314.11286,166.514307 L313.860844,166.524689 L313.750588,166.781358 L313.71479,167.202339 L313.740564,167.946572 L314.216315,170.206479 L314.187677,170.971117 L313.780658,171.659148 L313.545825,171.917965 L313.257654,172.126665 L312.262837,172.555879 L311.973949,172.808253 L311.504642,173.443661 L310.983786,174.355786 L310.641918,175.313374 L310.740004,176.091257 L311.006339,176.709125 L311.278401,178.048673 L311.511086,178.643988 L311.576953,178.870946 L311.499272,179.048144 L311.227926,179.341685 L311.182463,179.349202 L311.013856,179.334167 L310.953716,179.337031 L310.863506,179.414712 L310.856704,179.504564 L310.869233,179.596206 L310.846681,179.672813 L310.544907,180.130307 L310.419615,180.273856 L310.116767,180.54914 L309.981809,180.69949 L309.760938,180.840175 L309.273016,180.94721 L309.028875,181.036704 L308.901794,181.064626 L308.775786,181.03742 L308.646556,180.992315 L308.522696,180.968689 L308.357669,181.036704 L308.275335,181.195646 L308.207319,181.38072 L308.102432,181.523911 L307.806027,181.688222 L307.751615,181.622354 L307.754479,181.430121 L307.641716,181.216409 L307.393638,181.09577 L307.155226,181.052455 L306.916813,180.962245 L306.684844,180.702712 L306.610027,180.500455 L306.587475,179.928767 L306.539864,179.855739 L306.369467,179.810634 L306.318992,179.746556 L306.226634,179.250401 L305.810665,177.828875 L305.728331,177.62984 L305.604471,177.030946 L305.563304,177.024144 L305.296253,176.762463 L305.277996,176.66223 L305.301623,176.550183 L305.296253,176.419521 L305.180626,176.263802 L305.172393,176.280268 L305.112969,176.415226 L305.118696,176.432051 L304.966914,176.147101 L304.705949,175.774805 L304.358354,175.502385 L303.960642,175.517062 L303.758743,175.796642 L303.664953,176.252346 L303.668533,177.11686 L304.003957,178.749949 L303.938447,179.39037 L303.334899,179.228922 L302.907117,178.646852 L302.670852,177.844268 L302.254167,174.711615 L302.17577,174.512938 L302.077685,174.355786 L302.047615,174.203288 L302.17577,174.025016 L302.355475,173.847101 L302.43423,173.693171 L302.374447,173.578619 L302.139973,173.517047 L301.909436,173.340922 L301.725436,172.948222 L301.483444,172.119864 L301.398961,171.634447 L301.356362,171.486245 L301.237514,171.307973 L300.924284,171.112875 L300.776798,170.971117 L300.611054,170.651444 L300.459272,170.013887 L300.322167,169.668798 L299.801311,168.690447 L299.718261,168.350728 L299.778401,167.88142 L300.007506,167.85135 L300.260595,167.870681 L300.418105,167.553514 L300.305342,167.260331 L300.007506,167.149358 L299.722198,166.996144 L299.647023,166.570868 L299.815988,166.194992 L300.101296,166.095475 L300.442447,166.065405 L300.77465,165.896798 L300.958292,165.576051 L301.318416,164.509638 L301.371039,164.140922 L301.295506,163.896424 L301.093249,163.441436 L301.078572,163.173311 L301.156969,162.901249 L301.770183,161.81121 L301.959553,161.552751 L302.197965,161.337607 L302.512626,161.209451 L302.751039,161.228066 L302.95616,161.313265 L303.149109,161.345482 L303.364969,161.20086 L303.548969,160.401856 L303.576891,159.654401 L303.796331,159.151444 L304.542354,159.088082 L305.908751,159.384128 L306.576377,159.438899 L307.314525,159.351553 L307.73121,159.225545 L307.995755,159.051568 L308.166152,158.779506 L308.305405,158.363895 L308.500502,157.121358 L308.580689,156.888673 L308.768268,156.959911 L309.085794,157.750323 L309.248673,158.053529 L309.571568,158.257934 L309.922027,158.307693 L310.237047,158.18956 L310.443599,157.889218 L310.432144,157.548066 L310.319739,157.148564 L310.270696,156.778058 L310.448969,156.516377 L311.594852,156.765887 L311.783148,156.774121 L311.830043,156.903708 L311.859397,157.345451 L311.902712,157.519786 L312.450774,158.0657 L312.814479,158.1577 L313.042868,158.012362 L313.173171,157.667988 L313.561218,155.999817 L313.577685,155.613202 L313.390463,154.831739 L313.452035,154.48128 L313.846167,154.353482 L314.011195,154.502043 L314.408549,154.776611 L314.751848,154.911926 L314.739319,154.644518 L314.331584,153.980471 L314.352346,153.747786 L315.852984,153.8763 L316.382074,153.832984 L316.839568,153.625 L317.188237,153.146385 L317.252673,152.590447 L317.158167,151.393016 L317.246946,151.01893 L317.468175,150.80128 L317.745607,150.635895 L318.006214,150.423257 L318.195942,150.135086 L318.289732,149.839039 L318.372066,149.167475 L318.542821,148.402837 L319.457809,145.837934 L319.504704,145.533296 L319.51437,145.22651 L319.481078,144.907911 L319.240518,144.273934 L319.167132,143.925623 L319.262712,143.594852 L319.78858,143.366105 L320.474463,143.596642 L321.697311,144.33837 L321.717,144.485856 L321.791817,144.587163 L321.922479,144.648019 L322.100751,144.672362 L323.201887,144.303646 L323.843739,144.135755 L324.094681,143.745918 L324.147304,143.526479 L324.091459,143.182105 L323.953638,142.86816 L323.785031,142.700984 L323.343288,142.508751 L323.490774,142.373794 L323.419537,142.277856 L323.246634,142.193732 L322.671366,141.765949 L322.667786,141.70044 L322.350261,141.585887 L322.212082,141.5483 L322.106479,140.989498 L321.66044,140.721016 L321.153545,140.503724 L320.864658,140.097778 L320.710728,139.985016 L319.776767,139.856502 L319.45423,139.774883 L319.212595,139.667132 L318.99423,139.514276 L318.744004,139.295911 L318.475521,138.949747 L318.358821,138.845576 L318.216704,138.814432 L317.969342,138.890681 L317.869467,138.851304 L317.745607,138.758588 L317.484642,138.747132 L317.342167,138.698447 L317.23728,138.590339 L317.059008,138.310043 L316.924051,138.198712 L316.440066,138.004331 L315.864082,137.863646 L315.284518,137.83823 L314.804113,137.98858 L314.465109,138.099195 L313.463132,137.944191 L311.542588,138.186183 L310.672704,138.106354 L310.398852,138.143942 L310.283942,138.25384 L310.177623,138.492611 L310.049825,138.594992 L309.888377,138.546307 L309.657482,138.430681 L309.451288,138.437482 L309.357498,138.75644 L309.173856,138.94044 L308.755739,139.00237 L308.294307,138.980533 L307.990027,138.906432 L307.70114,138.669093 L307.58086,138.445 L307.449482,138.292144 L307.136969,138.269591 L306.981249,138.339039 L306.681265,138.584969 L306.469342,138.637233 L306.275677,138.66444 L305.914121,138.780782 L305.739428,138.807272 L305.033856,138.727444 L302.374447,137.916984 L301.505996,137.46307 L301.313047,137.469514 L300.920704,137.672128 L300.699475,137.709716 L299.701436,137.674992 L296.82044,138.137498 L296.248393,138.342977 L294.065451,138.641887 L293.562494,138.579957 L293.299739,138.450728 L293.074572,138.281763 L292.841887,138.142152 L292.553716,138.105638 L292.45921,138.155397 L292.268409,138.358728 L292.164953,138.419584 L292.008875,138.430681 L291.341249,138.31577 L290.953202,138.137498 L290.749156,138.072704 L290.493918,138.066261 L289.773669,138.251693 L288.299163,138.117809 L286.472409,138.50872 L285.838074,138.489389 L284.442681,137.894432 L281.621825,137.272626 L277.630743,135.584767 L276.947724,135.610899 L276.30623,135.871506 L276.02665,135.821031 L275.816518,135.434774 L275.657218,134.73135 L275.593498,134.055848 L275.696595,133.289778 L276.101467,131.778759 L276.135475,130.284922 L276.302292,128.891319 L276.11865,128.109856 L275.71163,127.106447 L275.379428,125.32265 L275.448875,124.832222 L276.223537,123.464035 L276.302292,122.991506 L276.159817,122.876953 L275.876658,122.851537 L275.540875,122.645342 L275.891693,122.524346 L276.144782,122.316004 L276.199195,122.043226 L275.957202,121.730712 L275.938588,121.710307 L275.912097,121.705654 L275.882385,121.712097 L275.852315,121.727848 L275.848377,121.730712 L275.843008,121.730712 L275.720938,121.859226 L275.604595,121.912922 L275.493981,121.872471 L275.394463,121.730712 L275.259506,121.469031 L274.890074,120.987911 L274.788767,120.806058 L274.760486,120.458105 L274.805591,120.208953 L274.783039,119.963023 L274.546774,119.630821 L274.4043,119.359833 L274.321607,119.030852 L274.21672,118.734447 L274.003008,118.562977 L273.84335,118.550447 L273.485016,118.583381 L273.353996,118.563693 L273.132409,118.461669 L273.091241,118.420144 L273.117374,118.339599 L273.136346,117.492626 L273.038619,117.197296 L272.716082,117.133576 L272.325887,117.262805 L272.202027,117.429623 L272.239615,118.034961 L272.361685,118.265498 L272.344502,118.362868 L271.97865,118.253327 L271.84942,118.263708 L271.72556,118.324564 L271.609576,118.432315 L271.418058,118.793514 L271.536191,119.043023 L271.830805,119.185498 L272.16265,119.228813 L271.952875,119.36377 L271.687973,119.498012 L271.492875,119.662681 L271.492875,119.899304 L271.672938,119.987366 L271.920658,119.940471 L272.15728,119.946914 L272.292237,120.195708 L272.138307,120.53328 L271.352549,121.190525 L271.200409,121.731786 L271.219381,122.000984 L271.170696,122.253358 L271.038961,122.43521 L270.799117,122.486759 L270.615117,122.387241 L270.457607,122.178183 L270.204518,121.731786 L270.120035,121.687039 L270.030183,121.658759 L269.940331,121.648377 L268.964486,121.731786 L268.964486,121.73465 L268.870696,121.7683 L268.780844,121.780471 L268.692782,121.7683 L268.6083,121.731786 L268.334447,121.325482 L268.124315,121.328704 L267.910603,121.524518 L267.618136,121.695988 L267.325311,121.661623 L266.963397,121.498385 L266.635132,121.27107 L266.20377,120.767755 L265.569794,120.477078 L265.419802,120.295942 L265.307039,119.909327 L265.119459,119.662681 L264.853125,119.488346 L263.662136,118.969638 L263.438759,118.713685 L263.303802,118.356424 L263.153809,117.147537 L263.018852,116.831802 L262.660518,116.232191 L262.544175,115.905716 L262.534868,115.370541 L262.741062,115.342977 L262.999879,115.465047 L263.157389,115.381638 L263.146292,115.10886 L263.017062,114.966027 L262.58749,114.843957 L262.288938,114.715802 L262.268533,114.577981 L262.324735,114.404362 L262.242401,114.165233 L262.082743,114.036004 L261.687179,113.933623 L261.492082,113.854868 L261.326696,113.715257 L261.053202,113.404533 L260.85023,113.301436 L260.56349,113.087724 L260.398463,112.919833 L260.235226,112.871148 L259.938821,113.016486 L259.711864,113.233778 L259.486696,113.568844 L259.338494,113.941856 L259.349949,114.281576 L259.721171,114.67714 L260.238805,114.854696 L260.68556,115.086307 L260.85023,115.656564 L260.96693,115.818012 L261.109405,115.866339 L261.270494,115.823381 L261.439459,115.711693 L261.373591,116.139475 L261.503179,116.269778 L261.718681,116.276222 L261.911988,116.337436 L262.009716,116.707584 L261.645654,116.962105 L260.85023,117.163288 L260.340113,116.992891 L259.544689,116.194961 L259.061062,116.106541 L258.699148,116.350323 L258.431023,117.01079 L258.145716,117.119615 L257.841794,116.98251 L257.671039,116.69935 L257.554696,116.360704 L257.410432,116.054992 L256.761778,115.803693 L255.242167,116.364642 L254.925358,116.132673 L255.058167,115.991988 L255.722572,115.65728 L255.953109,115.461467 L256.119926,115.089887 L256.075179,114.843957 L255.832829,114.651008 L255.42223,114.442665 L255.313405,114.293747 L255.332019,113.944004 L255.201,113.879926 L255.039553,113.827661 L254.998385,113.690914 L255.035973,113.517296 L255.112938,113.355848 L254.694463,113.257405 L254.502946,113.168626 L254.308206,113.041545 L254.165374,112.855039 L254.064066,112.63023 L253.942354,112.435132 L253.726494,112.339195 L253.345965,112.345638 L253.197405,112.327381 L252.785016,112.152689 L252.424891,111.906759 L252.278479,111.762494 L252.085529,111.545202 L251.860362,111.361202 L251.625887,111.084128 L251.34058,110.950245 L250.703023,110.759086 L250.466759,110.487023 L250.414136,110.093249 L250.430961,109.669047 L250.402681,109.299973 L250.237654,109.189 L250.008907,109.428128 L249.789467,109.798634 L249.6563,110.086447 L249.288658,111.367646 L249.052393,111.76142 L249.052393,111.762494 L248.954665,112.028829 L248.977218,112.358883 L249.110743,112.624144 L249.34486,112.695381 L249.427553,112.576533 L249.479817,112.116175 L249.541747,111.980144 L249.667755,111.967973 L250.087661,112.153763 L251.126868,112.357093 L251.603335,112.582261 L251.860362,113.01935 L252.222276,114.095786 L252.259864,114.602323 L251.860362,114.540393 L251.725047,114.575833 L251.547132,114.596595 L251.378167,114.588004 L251.260035,114.535023 L251.074245,114.412953 L250.973296,114.498152 L250.884875,114.682152 L250.751708,114.852907 L249.907599,115.386292 L249.633747,115.635802 L249.363833,116.017405 L249.296175,116.308082 L249.326245,117.035132 L249.178043,117.331537 L248.861233,117.52735 L247.810572,117.888549 L247.44293,117.966946 L247.246043,118.044984 L247.122183,118.172782 L247.007988,118.318837 L246.850479,118.453794 L246.255521,118.835755 L246.107677,119.074883 L245.908642,119.723895 L245.85244,119.831646 L245.826307,119.934027 L245.84886,120.130914 L245.912222,120.229358 L246.024984,120.299879 L246.122354,120.410136 L246.148844,120.62886 L246.024984,121.009747 L245.57286,121.365934 L245.225981,122.03177 L244.891988,123.160113 L244.796409,123.305451 L244.700829,123.368455 L244.648206,123.461171 L244.785311,124.341794 L244.910961,124.642852 L244.884829,124.815397 L244.884829,124.994385 L245.16763,125.316206 L245.252471,125.485887 L245.375973,125.863911 L245.60651,126.108767 L245.94265,126.091942 L246.298837,125.935148 L246.595241,125.760813 L247.402121,125.525265 L247.983475,125.828113 L249.071366,127.094634 L250.376907,127.977763 L250.853016,128.51437 L250.93177,129.734354 L251.183428,129.981 L251.860362,130.323584 L252.042214,130.718432 L252.533716,131.093233 L252.670463,131.379257 L252.846946,131.559677 L253.218525,131.63342 L253.985311,131.660626 L254.337918,131.832097 L254.91784,132.211195 L255.29479,132.298541 L255.504564,132.239475 L255.666012,132.080891 L255.821732,131.887942 L256.011101,131.728284 L256.153576,131.705732 L256.315023,131.732938 L256.487568,131.741171 L256.66584,131.658837 L256.652595,131.310883 L257.200658,131.524595 L257.356019,131.658837 L257.575459,131.920518 L257.804206,132.124922 L257.965654,132.383739 L257.992144,132.807584 L257.686432,133.511008 L257.691802,133.631288 L257.885109,133.773763 L257.935584,133.93879 L257.950619,134.129949 L258.027584,134.343661 L258.453576,134.873825 L258.581016,134.985156 L258.764658,135.035272 L259.139817,135.059615 L259.248642,135.146603 L259.548626,135.456253 L259.972471,135.514603 L260.85023,135.471288 L260.985545,135.632735 L261.022774,135.821031 L260.978027,136.020782 L260.85023,136.210868 L260.175444,136.707381 L260.019724,136.918946 L260.000751,137.186354 L260.051226,137.449109 L259.998961,137.64528 L259.668907,137.715444 L259.931661,138.136424 L259.473809,138.108502 L258.241296,137.672128 L258.123163,137.603039 L258.005031,137.564377 L257.862556,137.595521 L257.744424,137.736206 L257.560424,138.16184 L257.41437,138.273529 L256.341514,138.16363 L255.26293,137.760191 L254.717016,137.654588 L254.084829,137.636689 L253.923381,137.695755 L253.700362,137.945981 L253.572922,138.029389 L253.369949,138.079506 L253.285825,138.071988 L253.201342,138.032253 L252.719506,137.90016 L252.154619,137.67714 L251.860362,137.598385 L251.24679,137.704346 L251.070665,138.034401 L251.11935,139.148424 L250.969358,140.443584 L250.759226,141.026728 L250.342899,141.5483 L250.286696,142.068082 L250.065109,142.52486 L249.44044,143.342479 L249.114323,143.922759 L248.951086,144.049482 L248.647521,144.02156 L247.893265,143.820019 L247.675615,143.806774 L247.66058,143.44844 L247.4977,143.063973 L247.244253,142.731054 L246.951428,142.531304 L246.602759,142.497296 L246.269125,142.613996 L245.375973,143.100486 L245.375973,143.187833 L245.4737,143.29093 L245.556035,143.461685 L245.7923,144.144346 L245.844922,144.517358 L245.670588,144.769732 L245.421078,145.015661 L245.248533,145.373996 L245.015848,145.334619 L244.895926,145.472082 L244.845093,145.710494 L244.820751,145.977903 L244.693311,146.160829 L244.464564,146.200206 L244.265529,146.282541 L244.181047,147.144549 L243.94693,147.486774 L243.798728,147.843319 L243.701,148.43577 L244.0443,148.537078 L244.340704,148.662012 L244.520767,149.064377 L244.781374,149.335366 L244.839366,149.453498 L244.839366,150.479459 L244.858339,150.577903 L244.929576,150.650214 L245.087086,150.857482 L245.252471,151.143506 L245.286121,151.280611 L245.805545,151.393016 L250.526899,153.865202 L251.860362,154.924097 L252.272751,155.01216 L253.437965,155.066572 L254.325031,155.366914 L254.722743,155.342214 L254.990868,154.925887 L255.182027,154.476626 L255.572222,154.562541 L256.161451,154.924813 L256.57384,155.480751 L256.673358,156.25756 L256.709156,156.338105 L256.753903,156.660642 L256.795428,156.732953 L256.735288,156.913016 L256.525156,157.219802 L256.468953,157.388409 L256.185794,157.52444 L255.787724,157.672642 L255.608019,157.845187 L255.504564,158.085389 L255.508502,158.274043 L255.594774,158.673187 L255.572222,158.901218 L255.456237,159.309311 L255.433685,159.489374 L255.523537,159.712393 L255.861109,160.006292 L255.917669,160.25258 L256.348673,160.356035 L256.358339,160.541825 L256.149996,160.819973 L255.928767,161.199786 L256.050837,161.429965 L256.157514,161.804767 L256.208346,162.220377 L256.153576,162.572984 L255.979241,162.796004 L255.29658,163.465778 L255.056377,163.656222 L254.711288,163.727459 L254.337918,163.693809 L253.985311,163.711708 L253.698214,163.941171 L253.640222,164.128035 L253.659195,164.305949 L253.698214,164.480642 L253.696782,164.658198 L253.602634,164.885514 L253.340237,165.300409 L253.250027,165.509467 L253.246447,165.695973 L253.377825,165.992019 L253.403957,166.173156 L253.025218,167.951584 L253.05135,168.170307 L253.218525,168.25479 L253.403957,168.291661 L253.495957,168.365763 L253.46016,168.609903 L253.400377,168.758105 L253.411475,168.887335 L253.587599,169.075988 L253.768019,169.154743 L254.124206,169.115366 L254.266681,169.145436 L254.536953,169.436113 L254.957218,170.193591 L255.26114,170.521498 L255.787724,170.880907 L255.982821,170.971117 L256.249156,171.49949 L256.472533,171.411428 L256.686603,171.085669 L256.92251,170.900953 L257.16307,171.096051 L257.121545,171.516315 L256.247724,173.834572 L255.810276,174.529763 L255.647397,174.905996 L255.658494,175.327335 L255.838556,175.702852 L256.078759,175.919428 L257.26044,176.300315 L257.449809,176.302821 L257.594074,176.235163 L257.714354,176.123117 L257.870074,176.019661 L258.106339,175.982074 L258.412051,176.044004 L259.668907,176.479304 L259.822479,176.554479 L259.980346,176.594214 L260.47149,176.577031 L260.576735,176.668673 L260.572798,176.829405 L260.481156,177.036673 L260.321498,177.219957 L259.841451,177.619817 L258.862027,178.660813 L258.622183,179.150167 L258.573498,180.147132 L258.408471,180.69949 L258.397016,181.080735 L258.468611,181.297669 L258.809763,181.727957 L258.997342,182.032595 L259.380019,182.947584 L259.589794,183.203179 L260.092751,183.364626 L260.297156,183.560798 L260.338323,183.822479 L260.310401,184.199428 L260.238805,184.576377 L260.160409,184.835195 L259.968891,185.131599 L259.766276,185.377887 L259.642416,185.641358 L259.687521,185.993607 L259.901233,186.554556 L259.963163,186.80335 L260.036549,187.234712 L260.257778,187.643879 L260.432113,188.139319 L260.512658,188.660891 L260.400253,189.106572 L260.000751,189.375054 L260.558121,189.59342 L260.773623,189.764891 L260.934712,190.481202 L261.266914,191.24942 L261.339942,191.699755 L261.308082,191.851537 L261.15451,192.106416 L261.105467,192.305451 L261.109405,192.493747 L261.323117,193.523646 L261.420844,193.759911 L261.718681,194.275039 L261.458432,194.452237 L261.630977,194.856393 L262.414946,195.88307 L262.568518,196.206681 L262.666245,196.588642 L262.699895,197.055802 L262.388455,197.448502 L262.442868,197.828673 L262.336191,198.715381 L262.420673,199.01465 L262.818027,199.561638 L262.947257,199.965794 L262.943677,200.416844 L262.750728,201.22623 L262.699895,201.623584 L262.741062,201.947553 L263.187459,203.517996 L263.266214,203.641856 L263.450214,203.806167 L263.843988,204.013436 L264.082401,204.07823 L264.189436,203.991241 L264.264253,203.822276 L264.42928,203.631833 L264.601825,203.523724 L264.677,203.602479 L264.688097,203.831226 L264.71423,203.991957 L265.273389,205.568486 L265.235802,205.777545 L265.050012,205.931475 L264.980922,206.275132 L265.089389,206.632751 L265.427319,206.828922 L265.775988,206.792409 L266.136113,206.634541 L266.443615,206.411521 L266.653747,206.171319 L266.275008,205.988751 L266.222385,205.773965 L266.529887,205.108128 L266.601125,204.637031 L266.417482,203.88707 L266.406385,203.399148 L266.529887,203.399148 L266.631195,203.649016 L266.721405,203.64472 L266.811615,203.484704 L267.104082,202.773405 L267.216486,202.580455 L267.402276,202.34777 L267.706198,202.040984 L267.771708,201.867008 L267.771708,201.557358 L267.689374,201.289233 L267.576611,201.048315 L267.527926,200.798805 L267.636751,200.504907 L267.771708,200.504907 L267.852253,200.834961 L268.184455,201.486837 L268.26321,201.874167 L268.214525,202.325218 L267.98184,202.915163 L267.882323,203.268486 L267.8297,204.13658 L267.854043,204.629872 L267.949981,204.917327 L268.411412,205.435319 L268.610089,205.41563 L269.266619,204.851817 L269.506821,204.548969 L269.679366,204.185265 L269.745233,203.740658 L269.703708,203.273498 L269.639988,202.957405 L269.660393,202.684268 L269.859428,202.34777 L270.099272,202.122961 L270.337685,201.946479 L270.521685,201.722385 L270.690292,200.698214 L270.656642,200.563973 L270.521685,200.392502 L270.304035,199.920689 L270.236377,199.702323 L270.16514,199.601016 L270.121825,199.5083 L270.10321,199.366541 L270.148315,199.303895 L270.371335,199.264518 L270.459755,199.175739 L270.611537,198.688175 L270.622992,198.406089 L270.529202,198.187724 L270.420019,198.021623 L270.326588,197.787864 L270.26251,197.552315 L270.236377,197.38514 L270.189482,197.33037 L270.093903,197.470339 L270.00763,197.71949 L269.992595,197.989763 L269.859428,197.989763 L269.711226,195.549436 L269.859428,194.275039 L269.992595,194.275039 L270.169078,194.690292 L270.189482,195.075475 L270.10321,195.939272 L270.150105,196.334479 L270.962354,198.254307 L270.949109,198.507397 L270.765467,198.907973 L270.718572,199.110588 L270.742914,199.967226 L270.885389,200.265778 L271.219381,200.084642 L271.311023,199.808284 L271.453856,198.577202 L271.496813,198.386401 L271.680813,198.015895 L271.721981,197.787148 L271.710525,197.347911 L271.669358,197.162121 L271.577358,196.922634 L271.200409,196.262167 L271.180004,196.008362 L271.393716,195.665778 L271.738805,195.39837 L271.84584,195.2337 L271.682603,194.786946 L271.752051,194.619412 L271.956455,194.404984 L272.202027,193.876611 L272.370992,193.632471 L272.571817,193.481405 L272.398914,193.82184 L272.284362,194.199148 L272.222432,194.598292 L272.202027,195.012471 L272.055615,195.331786 L271.504331,196.055973 L271.515428,196.324097 L271.759568,196.611195 L271.980798,196.970961 L272.138307,197.374401 L272.202027,197.787148 L272.104658,198.210992 L271.676875,198.973482 L271.577358,199.366541 L271.440611,200.487366 L271.511848,201.884549 L271.453856,202.204222 L271.318899,202.499911 L270.982759,202.888315 L270.840642,203.136393 L270.788019,203.57921 L270.994214,204.37356 L270.962354,204.71507 L271.47784,205.492237 L271.856938,205.73423 L272.202027,205.384486 L272.16086,205.217311 L271.962183,204.702899 L272.012658,204.59479 L272.460844,204.510665 L272.661669,204.516751 L272.877529,204.65493 L273.319988,204.770914 L273.714121,204.494556 L273.90528,204.115459 L273.75135,203.925016 L273.389436,203.742089 L272.988144,203.317887 L272.640907,202.834619 L272.43865,202.478432 L272.937311,201.413451 L273.196486,201.786105 L273.230136,201.967957 L273.038619,202.306603 L273.050074,202.518525 L273.117374,202.725794 L273.196486,202.873996 L273.411988,203.052268 L273.721638,203.175054 L274.055272,203.245576 L274.359195,203.268486 L274.584362,203.161809 L274.850696,202.978883 L275.077654,202.924829 L275.173233,203.202261 L275.255926,203.292829 L275.444938,203.268486 L275.773202,203.136393 L275.945747,203.037233 L276.005887,202.958479 L276.043475,202.87149 L276.142992,202.741903 L276.606214,202.333093 L277.007506,202.252907 L277.135304,202.204222 L277.262743,201.89672 L277.159646,201.649358 L276.983163,201.43135 L276.838899,201.063708 L276.594759,200.680673 L276.523521,200.504907 L276.518152,200.300502 L276.609794,199.953265 L276.632346,199.768549 L276.555381,199.316424 L276.338089,199.01644 L276.020922,198.812035 L275.642183,198.648798 L275.642183,198.505249 L275.979755,198.503459 L276.259335,198.583288 L276.523521,198.607988 L276.823864,198.445467 L276.973856,198.197747 L277.026479,197.87163 L277.003568,197.198992 L276.793794,195.897031 L276.602634,195.211864 L276.390712,194.802339 L277.135304,193.361125 L277.206541,192.948735 L277.138883,192.618681 L277.037576,192.290416 L277.003568,191.885903 L277.541965,192.312253 L277.859132,192.402105 L277.995879,192.095319 L278.095397,191.788533 L278.343117,191.476377 L278.980673,190.82844 L279.468595,190.499101 L279.251304,190.680237 L279.142121,190.893233 L279.074821,191.127708 L278.980673,191.368626 L277.49507,193.522572 L277.135304,194.404984 L277.071584,194.666665 L277.049031,194.873218 L277.067646,195.077623 L277.135304,195.328922 L277.228735,195.519366 L277.46142,195.884502 L277.504377,196.072798 L277.541965,196.556424 L277.711288,197.35507 L277.750307,198.781249 L277.803288,199.00749 L277.96044,199.44637 L277.995879,199.636455 L278.11079,200.015195 L278.384642,200.339879 L278.706821,200.459802 L278.980673,200.229265 L279.023988,199.982619 L278.980673,199.110588 L279.081981,198.946276 L279.564175,198.466946 L279.727412,198.254307 L280.005202,197.307101 L280.235739,196.970245 L280.697171,196.804144 L280.595864,197.035755 L280.425109,197.158183 L280.226074,197.246961 L280.059615,197.439195 L279.991599,197.727366 L279.911054,197.941794 L279.971195,198.516704 L279.926089,198.817047 L279.810105,198.948424 L279.650447,199.028969 L279.481482,199.175739 L279.348673,199.403054 L279.325763,199.698027 L279.224813,199.965794 L279.79686,200.201342 L279.971195,200.229265 L280.231802,200.18237 L280.333109,200.092518 L280.385732,199.955412 L280.616626,199.599942 L280.758743,199.180035 L280.888331,198.983864 L281.955459,197.832611 L282.252222,197.659708 L282.735848,197.594556 L282.991086,197.404471 L283.212673,196.964875 L283.533062,196.13258 L283.589623,196.64556 L283.456097,197.161047 L283.176518,197.592051 L282.798136,197.858385 L282.702198,197.832253 L282.557576,197.755288 L282.394696,197.711973 L282.237545,197.787148 L282.147335,197.90707 L282.015599,198.140829 L281.925747,198.254307 L281.190105,198.923724 L281.016128,199.19686 L280.950619,199.430261 L280.916611,199.672969 L280.833918,199.965794 L280.672471,200.203132 L280.472004,200.358852 L280.265451,200.482354 L280.095054,200.623039 L279.896377,201.059412 L279.851272,202.106852 L279.727412,202.622339 L279.941482,202.647039 L280.177389,202.842136 L280.331319,202.873996 L280.490977,202.796315 L280.715786,202.53535 L280.888331,202.478432 L281.059086,202.310183 L281.378043,201.526214 L281.558105,201.282432 L281.469685,201.481109 L281.47935,201.602105 L281.528035,201.71093 L281.558105,201.874167 L281.460377,202.104704 L281.280315,202.281187 L281.177576,202.470914 L281.310385,202.741903 L281.002883,202.680689 L280.879023,202.924829 L280.957778,203.241638 L281.250603,203.399148 L281.56956,203.463226 L282.244346,203.742089 L282.611988,203.806167 L282.952066,203.73672 L283.203008,203.565249 L284.191739,202.718276 L284.375381,202.460175 L284.513918,202.083584 L284.683241,201.364051 L284.76128,200.630914 L284.840393,200.279739 L285.181545,199.574525 L285.264595,199.236237 L285.307553,199.163926 L285.5363,198.903319 L285.868144,198.4043 L285.939381,198.237482 L286.010977,197.989763 L286.067179,197.391226 L286.123381,197.198992 L286.191039,197.158183 L286.277311,197.201856 L286.348549,197.210089 L286.395444,196.934805 L286.427661,196.870012 L286.468829,196.836004 L286.491023,196.804144 L286.62777,196.665607 L286.716191,196.53423 L286.736953,196.384237 L286.670728,196.19451 L286.581233,196.119335 L286.464891,196.068144 L286.318837,195.939272 L286.277311,195.662914 L286.457732,194.80556 L286.378619,194.404984 L286.678603,194.482307 L286.734805,194.723226 L286.625981,195.328922 L286.65963,195.583086 L286.870121,196.13258 L286.796735,196.59258 L286.359646,197.513296 L286.254759,197.989763 L286.369311,198.143693 L286.633498,198.311942 L286.937778,198.448331 L287.177265,198.505249 L287.382027,198.411817 L287.55672,198.197031 L288.070416,197.294572 L288.178883,196.993872 L288.220409,196.731833 L288.299163,196.559288 L288.492471,196.394261 L288.96679,196.13258 L289.323335,196.044518 L289.747179,195.371879 L290.319942,193.888424 L290.426261,193.098012 L290.411584,192.696362 L290.319942,192.305451 L289.964829,191.619926 L289.833451,191.265529 L289.829872,190.82844 L289.921872,190.881062 L290.197514,190.972346 L289.893949,190.301856 L289.679879,189.656782 L289.353047,189.102992 L288.7137,188.701342 L288.370401,188.63977 L288.051802,188.688455 L287.785467,188.845607 L287.607195,189.111226 L287.567817,189.31921 L287.625809,189.701171 L287.607195,189.903428 L287.52665,190.026572 L287.40279,190.114276 L287.290027,190.228829 L287.239553,190.431444 L287.239553,190.14184 L287.443957,189.066121 L287.545265,188.773654 L287.717451,188.669125 L288.123039,188.610058 L288.282339,188.52128 L288.462401,188.291101 L288.507148,188.152206 L288.440206,187.473482 L288.220409,186.848813 L288.153109,186.242401 L288.096549,186.043724 L287.903599,185.757342 L287.59037,185.488144 L287.28251,185.434089 L287.114261,185.790276 L286.766665,185.612004 L286.250821,185.442323 L285.986276,185.245078 L286.378619,184.984829 L286.598058,185.212502 L286.840051,185.112984 L286.914868,184.852377 L286.625981,184.600004 L287.128938,184.486525 L287.34623,183.945623 L287.511257,183.298401 L287.854556,182.865965 L288.109794,182.843054 L288.373981,182.912144 L288.640315,182.94114 L288.90665,182.804751 L289.000798,182.623257 L288.925623,182.490089 L288.7137,182.323272 L288.659288,182.251677 L288.584471,182.229125 L288.512875,182.225545 L288.468128,182.20156 L288.415148,182.064097 L288.447366,181.839288 L288.404051,181.737981 L288.043926,181.272611 L287.706354,180.689109 L287.458992,180.078759 L287.361623,179.531054 L287.447537,179.207444 L287.670914,179.120455 L288.344268,179.138712 L288.693654,179.057093 L288.93851,178.927148 L289.136113,178.73384 L289.33837,178.463926 L289.460082,178.463926 L289.460082,178.596019 L289.287895,178.732051 L289.203412,178.924284 L289.24458,179.087521 L289.460082,179.138712 L289.574634,179.025233 L290.062556,178.330401 L290.129498,177.866463 L290.047163,176.717358 L289.963039,176.338977 L290.126276,176.511521 L290.268393,176.702323 L290.342136,176.814012 L290.274479,176.12777 L290.197514,175.806665 L289.670214,175.004798 L289.52237,174.877358 L288.344268,174.743117 L288.063257,174.644673 L287.563879,174.395521 L286.993981,174.269514 L286.836471,174.086588 L286.723708,173.844237 L286.558323,173.601887 L286.273016,173.369202 L283.944019,171.962712 L283.774696,171.75079 L283.790089,171.526339 L284.401872,171.930494 L285.084533,172.181436 L288.610603,172.863739 L289.21451,173.123988 L289.24458,172.818276 L289.359132,172.472113 L289.507335,172.188595 L289.64623,172.071179 L289.702074,171.861405 L289.664844,170.112331 L289.518432,169.954821 L288.845436,169.927257 L288.550105,169.879646 L288.252268,169.764377 L287.999179,169.5657 L287.854556,169.262494 L288.310619,169.556035 L288.543304,169.637654 L288.845436,169.66307 L289.131817,169.637654 L289.350183,169.556035 L289.441825,169.389576 L289.33837,169.117156 L289.998479,168.845093 L290.294525,168.811444 L290.433778,168.996875 L290.512891,168.967521 L290.532938,168.963226 L290.535086,168.942463 L290.565156,168.86335 L290.67756,168.996875 L290.223646,169.209156 L289.936907,169.66307 L289.865311,170.214712 L290.139163,170.985078 L290.219708,171.054883 L290.478525,170.880191 L290.933156,170.728767 L291.281825,170.526868 L291.480502,170.54584 L291.793732,170.728767 L291.915444,170.327833 L291.596486,170.067226 L291.435397,169.888237 L291.488019,169.807335 L291.801249,169.800175 L291.977732,169.818074 L292.076891,169.927257 L292.162805,170.195739 L292.145981,170.91384 L291.724642,171.146167 L290.67756,171.139008 L290.234743,171.413218 L290.084751,171.857467 L290.062556,173.002276 L290.111241,173.368486 L290.283428,173.951988 L290.591288,174.35865 L291.045202,174.200782 L291.034105,174.297794 L291.063817,174.324642 L291.11465,174.325716 L291.180518,174.344689 L290.978977,174.515444 L290.99437,174.773903 L291.292922,175.408237 L291.180518,175.408237 L291.251755,175.775521 L291.1057,176.134214 L290.902728,176.512953 L290.797482,176.942525 L290.77493,177.737949 L290.568735,178.930012 L290.565156,179.138712 L290.608113,179.362447 L290.797482,179.87507 L292.189296,181.768767 L292.283086,182.002883 L292.339646,182.4457 L292.470665,182.768237 L292.630323,183.057125 L292.774588,183.39577 L292.909903,184.057311 L293.126837,184.587475 L293.157265,184.792237 L293.213467,184.922541 L293.469062,185.288393 L293.585047,185.634556 L293.723584,185.730136 L293.888969,185.808891 L294.025358,185.92237 L294.239786,186.617202 L294.323911,186.729965 L294.853358,186.683786 L295.053467,186.767911 L295.190572,187.317047 L295.451537,187.672518 L295.511319,187.847926 L295.621576,188.02763 L296.113436,188.379521 L296.226198,188.647288 L296.462105,188.842027 L297.005872,188.871023 L297.587584,188.773654 L297.959163,188.593233 L297.996751,188.223802 L297.854276,187.65963 L297.608346,187.124813 L297.342012,186.848813 L297.602619,186.761825 L297.752611,186.93437 L297.959163,187.523599 L298.150323,187.865825 L298.326805,188.095646 L298.536938,188.269981 L298.81616,188.450043 L299.286899,188.562447 L300.408798,188.508393 L300.780019,188.593233 L300.941825,188.471521 L301.160549,188.450043 L301.373187,188.464004 L301.528191,188.450043 L301.657778,188.331553 L301.826743,188.103879 L301.971724,187.833607 L302.029716,187.582665 L301.830323,187.197125 L301.354214,186.9963 L300.31107,186.729965 L300.31107,186.585342 L300.729187,186.596798 L300.856984,186.458977 L300.77465,186.247054 L300.547335,186.043724 L300.547335,185.92237 L301.160549,185.929887 L301.433327,185.964611 L301.650619,186.043724 L301.661716,186.097778 L301.650619,186.392035 L301.676393,186.46721 L301.742261,186.469358 L301.822805,186.449669 L302.3723,186.564938 L302.389482,186.585342 L302.67837,186.567086 L302.981934,186.489763 L303.205669,186.324735 L303.259366,186.043724 L303.119039,185.929171 L302.82872,185.793856 L302.501529,185.690759 L303.436206,185.67107 L303.750868,185.595179 L303.926992,185.42335 L303.879023,185.239708 L303.503506,185.129093 L303.503506,184.984829 L303.897638,185.001296 L304.199054,185.064658 L304.460019,185.18816 L304.733872,185.394354 L304.677311,184.926479 L304.771817,184.497265 L305.013809,184.181171 L305.412953,184.057311 L305.589794,183.847179 L305.898728,182.830167 L305.961016,182.466463 L306.093825,182.466463 L306.086307,182.932549 L305.799568,183.751957 L305.688237,184.315412 L305.518556,184.554183 L305.480611,184.792237 L305.512829,185.03423 L305.592658,185.235054 L305.71079,185.328844 L305.848611,185.249016 L305.99037,185.55437 L306.242027,185.906261 L306.560984,186.19837 L307.131599,186.429981 L309.434463,189.639241 L310.647646,192.029809 L310.841311,192.735023 L311.152393,194.945529 L311.429825,195.377607 L311.824315,195.410899 L312.129669,195.173202 L312.135397,194.802339 L311.973949,194.679911 L311.743054,194.595786 L311.554401,194.4483 L311.508938,194.141514 L311.637093,193.948564 L312.083132,193.711226 L312.135397,193.614572 L312.450774,193.502167 L312.726058,193.276284 L312.930463,193.055054 L313.054323,192.953747 L313.024611,192.803397 L313.201093,192.057016 L313.242261,191.765265 L313.493202,191.778152 L313.605965,191.765265 L313.189638,193.137031 L312.994541,193.481405 L312.604704,193.688673 L312.141125,193.826494 L311.820019,194.056673 L311.875864,194.537078 L312.008315,194.645187 L312.199117,194.733249 L312.351615,194.891475 L312.379537,195.209 L312.289327,195.382619 L312.126447,195.529747 L311.96679,195.718043 L311.875864,196.012658 L311.893405,196.490914 L312.008315,196.96058 L312.18444,197.382276 L312.379537,197.715911 L312.489794,197.715911 L312.489794,197.346479 L312.619381,197.100549 L312.777249,197.064035 L312.871039,197.318914 L312.810899,197.277031 L312.626899,197.198992 L312.656969,197.863755 L313.116253,199.835132 L313.116253,200.563973 L313.173171,200.737591 L313.426261,201.032206 L313.485685,201.216922 L313.563008,201.983708 L313.643553,202.381778 L313.740564,202.622339 L313.857623,202.444066 L314.000097,202.310183 L314.167272,202.224984 L314.354494,202.204222 L314.354494,202.34777 L314.11286,202.460175 L313.917047,202.614105 L313.849747,202.796315 L313.989,202.992486 L313.662525,203.155366 L313.47423,203.568829 L313.448455,204.026681 L313.617062,204.188486 L313.894494,204.109374 L314.247459,203.989809 L315.080471,203.925016 L315.080471,204.056393 L314.660206,204.231802 L314.547444,204.522479 L314.671304,204.681778 L314.971288,204.462696 L315.080471,204.59479 L314.804113,204.856471 L314.573576,204.905156 L314.414634,205.012191 L314.354494,205.442479 L314.426089,205.722774 L314.587537,205.951163 L314.751848,205.976938 L314.847428,205.646525 L314.971288,205.646525 L314.975584,205.875988 L314.881794,206.178121 L314.829171,206.479895 L314.971288,206.709716 L315.271988,206.716518 L315.481763,206.438012 L315.718027,205.777545 L315.58307,205.777545 L315.655739,205.719553 L315.687957,205.659412 L315.718027,205.501903 L315.787833,205.655475 L315.787833,205.82265 L315.718027,205.994837 L315.671132,206.196019 L315.773872,206.234323 L315.905249,206.363195 L315.939615,206.52858 L315.830432,206.709716 L315.902027,206.89658 L315.852984,207.03977 L315.58307,207.365887 L315.655739,207.685202 L315.481763,207.955117 L315.231895,208.189591 L315.080471,208.405451 L315.076175,208.762712 L315.178198,209.162214 L315.353607,209.513747 L315.58307,209.729607 L315.23977,209.605747 L314.953031,209.810152 L314.735023,210.170992 L314.602214,210.515366 L314.542074,210.475272 L314.520953,210.472409 L314.502696,210.461311 L314.465109,210.397233 L314.354494,210.397233 L314.410696,210.714401 L314.536346,211.057342 L314.708533,211.333342 L314.907568,211.446105 L315.076175,211.629031 L316.072424,213.446479 L316.168362,213.813047 L316.198432,214.270541 L316.05023,215.508424 L316.076004,215.913654 L316.20237,216.221514 L317.001016,217.161202 L317.20363,217.466556 L317.496097,218.031444 L317.672938,218.280953 L318.610479,219.076019 L318.726463,219.271117 L319.035039,220.514728 L320.261109,222.74886 L320.673856,223.737233 L320.817763,223.911568 L320.910121,223.986743 L321.003911,224.12528 L321.116315,224.189 L321.265949,224.040798 L321.307833,223.836393 L321.254852,223.634136 L321.119895,223.389996 L320.794136,222.383008 L320.752611,222.024673 L320.668128,221.825996 L320.148704,221.038447 L319.962556,220.334665 L319.88237,219.552486 L319.908144,218.757062 L320.026276,218.018198 L319.285265,217.399257 L319.181093,217.104642 L319.060813,216.820051 L318.640549,216.424128 L318.505591,216.161374 L318.399988,215.819864 L318.460128,215.519879 L318.561436,214.952486 L318.583988,214.577327 L318.455833,213.814837 L318.460128,213.438603 L318.556066,213.104253 L319.057233,212.380782 L319.300658,211.563163 L319.503272,211.18514 L319.801109,211.138961 L320.370292,211.147553 L321.056175,210.324922 L321.63216,210.519304 L321.869856,210.833249 L321.944673,211.147553 L321.982619,211.469016 L322.106479,211.805872 L322.260767,211.965529 L322.451568,212.07149 L322.862167,212.211817 L323.622152,212.285202 L324.222121,212.155615 L324.687848,212.260502 L325.035802,213.032658 L325.173623,213.808035 L325.302852,214.203957 L325.516922,214.445233 L325.880626,214.415163 L326.300533,214.141311 L326.650992,213.775459 L326.814588,213.464019 L326.750868,213.075257 Z M300.356533,193.797498 L300.27742,193.269125 L300.06693,192.821296 L299.985311,192.339459 L299.931973,192.161187 L299.397872,191.290588 L299.318759,191.032844 L299.268642,190.929389 L299.033451,190.697062 L298.960424,190.564969 L298.972237,190.455786 L299.062089,190.104611 L299.073187,189.903428 L298.742774,189.837918 L298.581685,190.279661 L298.572019,190.867459 L298.705187,191.237249 L298.581685,191.368626 L298.521903,191.949265 L298.457825,192.604362 L298.468922,193.949638 L298.200798,195.783911 L298.333607,196.264315 L298.214043,196.584704 L297.959163,197.594556 L297.891506,197.666152 L297.758339,197.895973 L297.677078,198.139755 L297.777311,198.254307 L297.968113,198.212782 L298.086245,198.121856 L298.175023,198.031646 L298.575957,197.87163 L298.797187,197.596704 L298.983335,197.284549 L299.195257,197.055802 L299.778401,196.847459 L300.050105,196.696393 L300.165016,196.455475 L300.221576,196.125062 L300.468938,195.341451 L300.547335,194.945529 L300.536237,194.494121 L300.356533,193.797498 Z M305.604471,188.172969 L305.473093,188.090276 L305.101872,187.775257 L305.024907,187.906992 L304.994837,188.017607 L305.017031,188.143257 L305.101872,188.31616 L305.062494,188.370572 L305.028486,188.404222 L304.996984,188.464004 L304.653685,189.929918 L304.604642,190.61079 L304.865607,191.368626 L305.555428,192.557825 L306.028315,193.057918 L306.598572,193.219008 L307.516066,192.404611 L307.106899,190.869607 L305.604471,188.172969 Z M294.384051,189.903428 L293.982401,189.60237 L293.825249,189.440922 L293.708549,189.240813 L293.547101,188.791553 L293.370977,188.499802 L293.247117,188.078463 L293.157265,187.919879 L293.031615,187.838619 L292.714447,187.729078 L292.541903,187.643879 L292.091926,187.108704 L291.840626,186.351942 L291.54816,184.852377 L291.309747,184.760735 L290.987568,184.739615 L290.636035,184.775412 L290.319942,184.852377 L290.009576,184.972658 L289.818416,185.115848 L289.694914,185.330634 L289.291833,186.92721 L289.252097,187.603786 L289.33837,188.31616 L289.626899,188.39563 L290.643911,189.116953 L290.933156,189.375054 L291.13756,189.837918 L291.349125,191.009576 L291.54816,191.368626 L291.54816,191.489623 L291.476922,191.728751 L291.517374,192.106416 L291.660922,192.677389 L291.553887,193.010665 L291.54816,194.141514 L291.491599,194.511304 L291.401747,194.826323 L290.655008,196.455475 L290.478525,197.172144 L290.67756,197.594556 L290.422681,198.014821 L290.219708,198.575054 L290.143101,199.121685 L290.257296,199.50472 L290.547615,199.444938 L291.54816,197.989763 L291.337669,198.524222 L291.000097,199.110588 L290.786027,199.660082 L290.933156,200.084642 L291.11465,200.107911 L291.345187,200.015195 L291.570354,199.893482 L291.725716,199.835132 L292.197171,199.036128 L292.363988,198.935179 L292.774588,198.505249 L292.88377,198.696767 L292.909903,198.781249 L293.221342,198.506681 L294.17714,197.029311 L294.32749,196.53244 L295.014447,191.769918 L295.038432,191.082603 L294.856938,190.469031 L294.384051,189.903428 Z M312.926883,203.351179 L313.182121,202.856097 L313.242261,202.550385 L313.212191,202.280113 L312.994541,201.557358 L312.970198,201.404502 L312.94156,201.343288 L312.871039,201.282432 L312.442899,201.763553 L312.313669,202.011988 L312.246012,202.34777 L312.379537,203.334712 L312.092082,204.928782 L312.246012,205.252393 L312.401732,205.068393 L312.794074,204.017016 L312.926883,203.351179 Z M314.723926,209.144315 L314.763661,208.711163 L314.930121,207.903568 L314.971288,207.496907 L314.808409,206.736206 L314.157607,205.463599 L314.101405,204.59479 L314.108564,204.49563 L314.101405,204.188486 L313.802852,204.269389 L313.485685,204.320222 L313.609187,204.745856 L313.632455,205.23342 L313.517545,205.695926 L313.242261,206.039942 L313.294525,205.769669 L313.429482,205.464315 L313.512175,205.167911 L313.422681,204.917327 L313.161716,204.712206 L312.961249,204.694307 L312.794074,204.87258 L312.626899,205.252393 L312.523444,205.965125 L312.902541,207.245965 L312.994541,208.022416 L312.989171,208.482416 L312.94156,208.681093 L312.660549,209.084533 L312.652673,209.22307 L312.711023,209.3523 L312.788346,209.694525 L312.893233,209.851677 L313.050743,209.962292 L313.242261,209.979117 L313.452035,209.865638 L313.444875,209.715646 L313.361825,209.569591 L313.361825,209.466136 L313.71479,209.415661 L314.167272,209.493342 L314.556751,209.478307 L314.723926,209.144315 Z M300.780019,191.237249 L300.603895,191.091553 L300.412377,190.972346 L300.31107,190.972346 L300.30928,191.392611 L300.37479,191.835786 L300.53051,192.180518 L300.780019,192.305451 L301.02416,192.152237 L301.062105,191.834712 L300.964019,191.486759 L300.780019,191.237249 Z M297.096082,194.537078 L297.173047,194.13865 L297.15837,193.747023 L297.084984,193.390121 L296.985825,193.098012 L296.8523,192.953747 L296.66472,193.262323 L296.555895,193.733778 L296.492175,194.609747 L296.38514,194.880735 L296.199708,195.206494 L296.141358,195.478198 L296.424518,195.592751 L297.096082,194.537078 Z M296.390868,195.869109 L296.323568,195.885218 L296.226198,196.012658 L296.113436,195.868393 L295.969171,196.299755 L295.839942,196.881825 L295.820969,197.419506 L296.001031,197.715911 L296.355786,197.622837 L296.492175,197.175724 L296.492175,196.13258 L296.447428,195.954665 L296.390868,195.869109 Z M296.966494,194.965934 L296.863397,195.351833 L296.8523,196.384237 L297.054914,196.199521 L297.180922,195.844051 L297.234977,195.432019 L297.219942,195.077623 L296.966494,194.965934 Z M288.90128,181.56114 L289.390634,181.55577 L289.582152,181.527848 L289.741451,181.457327 L289.803739,181.382868 L289.874619,181.35244 L290.062556,181.40542 L290.216486,181.533934 L290.433778,181.92556 L290.565156,182.069825 L290.730183,182.141062 L291.292922,182.20156 L291.202712,182.01756 L291.060237,181.832486 L290.884113,181.663521 L290.67756,181.527848 L290.827553,181.541093 L291.292922,181.527848 L291.292922,181.40542 L290.893062,181.101856 L290.208611,180.262401 L289.829872,179.934852 L289.383475,179.979241 L288.783148,180.467163 L288.426603,181.085031 L288.7137,181.527848 L288.90128,181.56114 Z M288.468128,179.272237 L288.322074,179.352782 L288.178883,179.39037 L287.485482,179.393233 L287.577125,179.671381 L287.729265,180.467163 L287.881047,180.3723 L288.282339,179.87507 L288.56156,179.60444 L288.588051,179.461249 L288.468128,179.272237 Z M288.9897,173.805218 L288.134136,173.355599 L287.485482,173.123988 L287.014385,173.119693 L286.960331,173.297965 L287.151132,173.575039 L287.717451,174.162837 L288.048222,174.408409 L288.389016,174.501482 L288.7137,174.344689 L288.80928,174.125607 L289.173342,174.26665 L289.829872,174.743117 L289.678089,174.318556 L288.9897,173.805218 Z M290.197514,184.731381 L290.556206,184.649763 L291.200922,184.391304 L291.488019,184.334385 L291.63837,184.167568 L291.731444,183.798494 L291.703879,183.42942 L291.488019,183.262603 L291.146152,183.205327 L290.563008,182.991257 L290.197514,182.998058 L289.942634,182.907132 L289.229187,182.910354 L289.079553,182.931833 L288.955693,183.201031 L288.659288,183.241125 L288.042494,183.129436 L287.801934,183.232891 L287.672704,183.493498 L287.61686,183.836798 L287.607195,184.189047 L287.665545,184.726728 L287.639054,184.905716 L287.485482,185.129093 L287.972689,185.276938 L288.153109,185.404019 L288.220409,185.598043 L288.246899,185.780253 L288.419444,186.340128 L288.535428,186.524844 L288.912377,186.562074 L289.105327,186.060549 L289.21451,185.129093 L289.11714,184.812642 L289.39493,184.71384 L290.197514,184.731381 Z M290.433778,191.368626 L290.336767,191.294525 L290.212549,191.270899 L290.107304,191.310634 L290.062556,191.428409 L290.103724,191.680066 L290.201451,191.71479 L290.325311,191.691163 L290.433778,191.765265 L290.549763,192.110354 L290.685436,192.869981 L290.797482,193.219008 L290.67756,193.219008 L290.694743,193.414821 L290.691163,193.628533 L290.707988,193.835802 L290.797482,194.010852 L290.919195,193.675428 L290.805,192.900767 L290.933156,192.557825 L290.98184,192.706743 L291.180518,193.098012 L291.133623,192.641233 L290.936019,192.104984 L290.673623,191.632813 L290.433778,191.368626 Z M291.1057,191.592362 L291.292922,191.489623 L291.281825,191.113389 L291.255335,190.907195 L291.180518,190.695988 L291.086012,190.683817 L291.038043,190.629405 L290.933156,191.765265 L291.045202,191.644268 L291.1057,191.592362 Z M290.028907,200.717187 L289.963039,200.623039 L289.963039,200.229265 L288.753436,201.057265 L288.676113,201.152128 L288.603444,201.282432 L288.558696,201.488626 L288.584471,201.664035 L288.584471,201.813311 L288.468128,201.940035 L288.603444,202.028813 L288.693654,202.128331 L288.845436,202.34777 L288.704751,202.367459 L288.473498,202.449078 L288.344268,202.478432 L288.344268,202.622339 L288.662868,202.641311 L289.011895,202.362805 L289.306868,201.946479 L289.460082,201.557358 L289.582152,201.557358 L289.732502,201.658307 L289.912206,201.221218 L290.197514,201.152128 L290.094416,200.846416 L290.028907,200.717187 Z M289.079553,198.781249 L288.441996,199.330743 L288.344268,199.50472 L288.362883,199.767833 L288.443786,199.982619 L288.631366,200.073545 L288.96679,199.965794 L289.353047,199.511879 L289.518432,198.847475 L289.623319,198.113623 L289.829872,197.450292 L289.931537,197.672595 L289.959459,197.799319 L289.963039,197.989763 L290.319942,196.804144 L290.161716,196.77479 L289.948362,196.892564 L289.739661,197.097685 L289.582152,197.318914 L289.36128,197.313187 L288.882665,197.847288 L288.65714,197.989763 L288.337109,198.112549 L288.130198,198.423988 L288.021732,198.844969 L287.985934,199.294946 L288.096549,199.294946 L288.196066,199.100564 L288.96679,198.648798 L289.079553,198.781249 Z M287.114261,199.175739 L286.992191,199.043646 L286.760938,199.231584 L286.693996,199.415942 L286.736953,200.025576 L286.693996,200.431879 L286.598058,200.676735 L286.479926,200.876128 L286.378619,201.152128 L286.384346,201.485047 L286.524673,201.766416 L286.760938,201.887412 L287.053763,201.749591 L287.467942,201.259879 L287.854556,201.031132 L288.031397,200.416844 L287.800502,199.899926 L287.114261,199.175739 Z M285.969451,200.070681 L285.654432,200.41756 L285.264595,201.152128 L285.087755,201.576689 L285.016518,202.036689 L285.016518,202.93342 L285.093482,202.978883 L285.264595,202.87149 L285.432844,202.66279 L285.861342,201.152128 L286.310603,200.388922 L286.378619,199.965794 L285.969451,200.070681 Z M286.140206,199.525125 L286.254759,199.043646 L286.010977,199.092331 L285.738914,199.532642 L285.508019,200.093949 L285.395615,200.504907 L285.508019,200.504907 L285.631879,200.106479 L286.140206,199.525125 Z M263.384704,204.188486 L262.971957,203.952222 L262.763973,203.383755 L262.59107,202.083584 L262.516253,201.815817 L262.469,201.699833 L262.409218,201.609623 L262.336191,201.557358 L262.126058,201.569171 L262.107086,201.749591 L262.223428,202.083584 L262.268533,202.384284 L262.452175,203.026852 L262.456113,203.399148 L262.34335,203.762136 L262.228798,203.881342 L262.228798,203.955086 L263.142712,205.043335 L263.682899,205.33437 L263.905918,204.992502 L263.802463,204.462696 L263.384704,204.188486 L263.384704,204.188486 Z" id="Fill-3"></path>
        </g>
    </g>
</svg>