<svg width="110px" height="116px" viewBox="0 0 110 116" version="1.1" xmlns="http://www.w3.org/2000/svg" xmlns:xlink="http://www.w3.org/1999/xlink">
    <g id="Page-1" stroke="none" stroke-width="1" fill="none" fill-rule="evenodd">
        <g id="ci-03" fill="#7E7D77">
            <path d="M98.2530185,101.931981 L98.1761389,102.227574 L98.1650648,102.224593 L97.3871111,102.044213 L95.6327222,101.87512 L95.3778056,101.747556 L95.4495741,101.491574 L95.7896759,101.182991 L96.1316944,100.93425 L96.6089444,101.056917 L96.7354444,101.143593 L96.7869815,101.249435 L96.8131759,101.351444 L96.8625833,101.424278 L97.0093148,101.493704 L97.3943519,101.615519 L97.4712315,101.614028 L97.5417222,101.572287 L97.6986759,101.685583 L97.9601944,101.926231 L98.1991389,101.946463 L98.2530185,101.931981 Z M11.2306019,10.8617778 L11.5655926,10.9874259 L11.9410463,10.9808241 L12.3128796,10.8805185 L12.6357315,10.7271852 L12.9696574,10.4473519 L13.1376852,10.3387407 L13.5953426,10.2733611 L13.7699722,10.2096852 L13.9265,10.1046944 L14.099,9.96094444 L14.5262037,9.41341667 L14.5943519,9.27499074 L14.656963,9.07863889 L14.7732407,8.97875926 L14.9052778,8.89442593 L15.0049444,8.75110185 L15.0390185,8.4897963 L15.2521944,8.12371296 L15.0168704,7.81598148 L15.3767778,7.74016667 L15.7711852,7.50335185 L15.973713,7.20371296 L15.7586204,6.9372963 L15.9238796,6.85381481 L16.0041667,6.82485185 L16.0041667,6.70048148 L16.2475833,6.49837963 L16.4053889,6.46089815 L16.6175,6.48709259 L16.7761574,6.43555556 L16.8666667,6.24559259 L16.9367315,6.02091667 L17.037463,5.86886111 L17.4073796,5.80837963 L18.0486111,6.20342593 L18.4655926,6.24325 L18.6453333,6.22493519 L18.9660556,6.22962037 L19.1259907,6.17105556 L19.2654815,6.04157407 L19.6897037,5.49362037 L19.9463241,5.47871296 L20.15375,5.52471296 L20.3253981,5.63012963 L20.4795833,5.79709259 L20.5762685,6.00771296 L20.5911759,6.21641667 L20.5762685,6.40744444 L20.5892593,6.56823148 L20.6603889,6.74925 L20.9602407,7.25439815 L20.9851574,7.45138889 L20.9408611,7.62516667 L20.964713,7.73739815 L21.1972685,7.7457037 L21.361463,7.70311111 L21.8468056,7.51932407 L22.2516481,7.54551852 L22.3587685,7.82364815 L22.2452593,8.56497222 L22.2610185,9.00175926 L22.4113704,9.22537037 L22.7048333,9.30331481 L23.8284259,9.32759259 L25.2437778,9.54651852 L27.0002963,10.0405926 L27.3020648,10.216287 L27.5936111,10.561713 L27.8593889,10.9708148 L28.1756389,11.2595926 L28.61775,11.2446852 L29.0347315,11.0956111 L29.4055,10.8176944 L29.624213,10.435213 L29.5846019,9.97201852 L29.4138056,9.7720463 L29.1795463,9.62105556 L28.9904352,9.4575 L28.9506111,9.21514815 L29.3786667,7.77211111 L29.5909907,7.54360185 L29.9932778,7.48077778 L31.0052778,7.60940741 L31.3494259,7.56234259 L32.4001852,7.07188889 L32.7894815,7.03249074 L33.1798426,7.15835185 L33.8523796,7.55872222 L34.2491296,7.6019537 L34.6586574,7.46821296 L34.8100741,7.25056481 L34.8215741,7.16303704 L34.8986667,6.57951852 L34.9761852,6.44577778 L35.0933148,6.30607407 L35.1846759,6.14613889 L35.1874444,5.94957407 L35.0767037,5.81647222 L34.8865278,5.73426852 L34.689963,5.67421296 L34.557287,5.60478704 L34.3302685,5.25062963 L34.298963,4.94012963 L34.4733796,4.35597222 L34.5617593,3.52967593 L34.5119259,3.3837963 L34.4473981,3.25814815 L34.4141759,3.10353704 L34.4520833,2.76897222 L34.5368426,2.4292963 L34.5775185,2.41417593 L34.8286019,1.98718519 L34.8053889,1.92798148 L35.1993704,1.79743519 L35.4336296,1.94863889 L35.7971574,2.57602778 L36.0657037,2.82263889 L36.431787,3.07265741 L37.1552222,3.46216667 L37.444,3.56162037 L38.415537,3.75541667 L38.7901389,3.77884259 L39.2273519,3.7000463 L39.5612778,3.47238889 L39.6249537,3.04837963 L39.4920648,2.8777963 L39.2707963,2.77174074 L39.0631574,2.63991667 L38.9709444,2.39032407 L39.0041667,1.67775 L39.12875,1.34765741 L39.4358426,1.19709259 L39.824287,1.17643519 L40.1905833,1.23563889 L40.6518611,1.2505463 L40.9996296,1.08635185 L41.3327037,0.855712963 L41.7533056,0.672138889 L42.1824259,0.614 L42.3632315,0.718138889 L42.3881481,0.970287037 L42.2987037,1.71991667 L42.3493889,1.86515741 L42.6860833,1.98803704 L42.8798796,2.09260185 L43.0421574,2.22975 L43.102213,2.37392593 L43.0072315,2.58923148 L42.8281296,2.69635185 L42.6334815,2.78600926 L42.4914352,2.94828704 L42.5947222,3.20043519 L42.6456204,3.41936111 L42.6215556,3.63381481 L42.5044259,3.78459259 L42.1777407,4.05164815 L42.0938333,4.19837963 L42.0874444,4.47182407 L42.1813611,4.51697222 L42.3308611,4.47650926 L42.4914352,4.49631481 L42.5836481,4.59001852 L42.6786296,4.71737037 L42.7810648,4.82512963 L42.9020278,4.86175926 L43.1068981,4.82981481 L43.2506481,4.82427778 L43.355,4.88859259 L43.435287,5.06684259 L43.4048333,5.17417593 L43.2138056,5.50128704 L43.1750463,5.65781481 L43.2370185,5.83223148 L43.5283519,6.17616667 L43.2591667,6.73902778 L43.2035833,7.0729537 L43.4685093,7.28996296 L43.033,7.77764815 L43.0421574,7.84047222 L43.0856019,7.94737963 L43.1105185,8.06706481 L43.0717593,8.16162037 L42.9250278,8.21656481 L42.8042778,8.17013889 L42.7193056,8.09496296 L42.6758611,8.066 L42.4554444,8.31133333 L42.4083796,8.55730556 L42.4673704,9.23005556 L42.7386852,9.17383333 L42.9314167,9.30416667 L43.2830185,9.7335 L43.5228148,9.88491667 L44.8717222,10.3666389 L46.4676667,10.3559907 L46.8037222,10.0237685 L47.0158333,9.67727778 L47.1393519,9.29011111 L47.2030278,8.83628704 L47.4123704,8.67124074 L48.2446296,8.96342593 L48.4531204,8.80625926 L48.3775185,7.81236111 L48.4512037,7.48184259 L48.6571389,7.17794444 L48.9293056,6.9775463 L50.2107037,6.29862037 L52.508787,5.78963889 L53.5043889,5.69103704 L53.9997407,5.56411111 L54.1722407,5.55836111 L54.3984074,5.63758333 L54.7913241,5.89612037 L55.2756019,6.0805463 L55.5873796,6.2605 L55.9021389,6.67130556 L56.119787,7.12917593 L56.1402315,7.44478704 L56.3938704,7.53849074 L56.5173889,7.56063889 L56.6826481,7.56809259 L56.7887037,7.63176852 L56.8662222,7.77956481 L56.9271296,7.94184259 L56.9825,8.05194444 L57.1743796,8.22125 L57.4188611,8.34775 L57.718713,8.42186111 L58.0792593,8.43591667 L58.1633796,8.3805463 L58.2306759,8.27832407 L58.2971204,8.2080463 L58.3893333,8.24936111 L58.4679167,8.30196296 L58.5618333,8.31772222 L58.7658519,8.31133333 L58.9726389,8.26256481 L59.0850833,8.14948148 L59.1755926,8.02383333 L59.3093333,7.93992593 L59.610037,7.95121296 L60.4356944,8.0734537 L60.7208519,7.99614815 L61.5982593,8.51513889 L61.7577685,8.49746296 L61.8906574,8.25596296 L62.1830556,8.28024074 L62.4650185,8.46722222 L62.4773704,8.47531481 L62.6094074,8.74535185 L62.6094074,9.74201852 L62.5627685,9.84040741 L62.4950463,9.94582407 L62.5150648,10.026537 L62.7325,10.0461296 L62.8583611,10.003963 L62.9646296,9.91217593 L63.0461944,9.79440741 L63.0983704,9.67450926 L63.1486296,10.0469815 L62.9957222,10.3751574 L62.985713,10.5725741 L63.4638148,10.5523426 L63.3426389,10.8794537 L63.4497593,11.0645185 L63.9008148,11.3630926 L63.93425,11.5055648 L63.5157778,11.6512315 L63.3539259,11.8017963 L63.5038519,11.803713 L63.6209815,11.8401296 L63.7238426,11.8888981 L63.8399074,11.9253148 L63.5971296,12.0383981 L63.7421574,12.2515741 L63.9406389,12.280537 L64.1495556,12.1900278 L64.3271667,12.0383981 L64.4176759,12.3659352 L64.6091296,12.539713 L64.8438148,12.6521574 L65.0601852,12.792287 L65.2599444,13.0680741 L65.383463,13.4002963 L65.3157407,13.6452037 L64.9373056,13.6588333 L65.0171667,13.8424074 L65.2175648,14.1052037 L65.412213,14.5294259 L65.4452222,14.644213 L65.1888148,15.3874537 L65.2111759,15.592963 L65.7359167,16.0827778 L65.8905278,16.1381481 L65.9914722,16.0201667 L66.0856019,15.8566111 L66.2231759,15.7737685 L66.4261296,15.8127407 L66.5068426,15.8979259 L66.5681759,15.9831111 L66.7166111,16.0210185 L67.1346574,16.0518981 L67.4892407,16.1651944 L67.7424537,16.3913611 L67.8625648,16.7631944 L68.2033056,16.6530926 L68.3487593,16.9250463 L68.436287,17.3362778 L68.6060185,17.6410278 L68.3204352,17.743463 L68.1688056,17.7658241 L67.9954537,17.7536852 L67.9954537,17.8884907 L68.1541111,18.0313889 L68.1881852,18.1025185 L68.2392963,18.2479722 L68.4761111,18.1779074 L68.7120741,18.5582593 L68.9836019,18.5069352 L68.8820185,18.4142963 L68.8519907,18.3303889 L68.9150278,18.2694815 L69.0926389,18.2479722 L69.2766389,18.272463 L69.3662963,18.3359259 L69.4255,18.4338889 L69.5258056,18.5629444 L69.7325926,18.7488611 L69.799037,18.8672685 L69.8248056,19.0580833 L69.8635648,19.1971481 L69.9596111,19.272963 L70.2002593,19.3726296 L70.2907685,19.4754907 L70.2862963,19.5457685 L70.2990741,19.5598241 L70.4449537,19.4961481 L70.5893426,19.4007407 L70.7062593,19.278713 L70.7695093,19.1709537 L70.7501296,19.1249537 L71.012713,19.1260185 L71.2335556,19.0955648 L71.443963,18.9841852 L71.6746019,18.7431111 L71.8764907,18.9122037 L72.13375,19.2983056 L72.34075,19.3726296 L72.5999259,19.2991574 L72.6672222,19.111963 L72.6755278,18.8681204 L72.7632685,18.6191667 L72.8194907,18.4965 L72.8339722,18.4253704 L72.8899815,18.3908704 L73.214537,18.3908704 L73.3542407,18.4189815 L73.4611481,18.4741389 L73.5031019,18.5629444 L73.4634907,18.8747222 L73.2882222,19.3436667 L73.2475463,19.675463 L73.5011852,20.0498519 L74.0817222,20.1088426 L74.721463,20.077963 L75.1546296,20.1816759 L75.3141389,20.4461759 L75.4674722,21.0407685 L75.5871574,21.2377593 L75.8318519,21.3546759 L75.8916944,21.1915463 L75.8880741,20.894463 L75.9415278,20.6084537 L76.2156111,20.6832037 L76.6998889,20.8850926 L76.7011667,20.8833889 L76.8180833,20.744963 L77.0491481,20.290713 L77.0940833,20.0628426 L77.0408426,19.635213 L77.0436111,19.4754907 L77.141787,19.3104444 L77.6825,18.7414074 L77.4740093,18.6711296 L77.394787,18.6551574 L77.6322407,18.4394259 L77.9397593,18.3284722 L78.6122963,18.2415833 L78.94175,18.0584352 L79.4539259,17.3362778 L79.775713,17.0922222 L80.0832315,17.0538889 L81.0988519,17.3548056 L81.2851944,17.4583056 L81.3893333,17.4911019 L81.5000741,17.4668241 L81.535213,17.381 L81.5416019,17.2866574 L81.5601296,17.237037 L81.834,17.1045741 L81.9822222,17.0558056 L82.5546667,17.047287 L82.6681759,16.7932222 L82.7433519,16.4967778 L83.0084907,16.3549444 L83.3913981,16.2576204 L84.0635093,15.8201944 L84.3931759,15.7222315 L84.427463,15.7120093 L85.6098333,15.6896481 L85.9529167,15.5865741 L86.1047593,15.4728519 L86.3907685,15.1640556 L86.5715741,15.0437315 L86.8318148,14.9613148 L87.699,14.8535556 L87.8323148,14.8722963 L88.0652963,15.0053981 L88.1777407,15.0279722 L88.2729352,14.9726019 L88.4384074,14.7670926 L88.4988889,14.7249259 L88.73975,14.8035093 L88.8758333,14.9342685 L88.992537,15.0818519 L89.1829259,15.2175093 L89.4878889,15.28225 L90.5552593,15.1378611 L93.3636019,15.3714815 L93.5889167,15.4577315 L93.9019722,15.7475741 L94.0925741,15.8472407 L94.2550648,15.7912315 L94.4644074,15.6604722 L94.6488333,15.5874259 L94.7280556,15.7111574 L94.7133611,16.0725556 L94.7446667,16.4428981 L94.9246204,16.6784352 L95.3509722,16.6362685 L95.5971574,16.3894444 L96.2009074,15.5260926 L96.4773333,15.328463 L96.6951944,15.4624167 L96.7011574,15.8116759 L96.6623981,16.2393056 L96.7407685,16.6015556 L97.0521204,16.7866204 L97.4529167,16.7951389 L97.8667037,16.8886296 L98.2242685,17.3277593 L98.4480926,18.2002685 L98.6233611,18.6219352 L98.9351389,18.8836667 L99.2571389,18.899 L99.87175,18.7169167 L100.210148,18.7974167 L100.490194,19.0825741 L100.707417,19.5036019 L101.0275,20.3469352 L101.915556,22.0830093 L103.696139,24.4654259 L104.103537,24.7799722 L104.530741,24.8131944 L104.865519,24.5195185 L105.30188,23.5946204 L105.860056,23.0605093 L106.101769,23.3682407 L106.121148,23.6259259 L106.048102,24.2041204 L106.071315,24.3446759 L106.159907,24.6481481 L106.159907,25.1362593 L106.068546,25.4444167 L105.856435,25.5794352 L105.612806,25.6931574 L105.429231,25.9344444 L105.399843,26.2756111 L105.539972,26.5545926 L105.792546,26.7411481 L106.104537,26.8103611 L106.385009,26.966037 L106.360944,27.3095463 L106.147769,27.6534815 L105.5815,27.9516296 L105.373009,28.2798056 L105.062083,28.9203981 L104.681731,29.3128889 L104.607194,29.4632407 L104.57312,30.3676944 L104.499222,30.6513611 L104.331407,30.9069167 L104.505611,31.0063704 L104.619972,31.1258426 L104.760315,31.2244444 L105.007565,31.2655463 L105.465222,31.2879074 L105.916278,31.3897037 L106.367546,31.6312037 L106.482972,31.9216852 L106.501287,32.2911759 L106.779843,33.1391944 L106.885898,33.2205463 L107.006009,33.2382222 L107.105463,33.2812407 L107.146139,33.4367037 L107.168287,33.7472037 L107.531602,35.0077315 L107.512222,35.2547685 L107.323324,35.3601852 L107.1915,35.4800833 L107.145287,35.7102963 L107.23175,35.8521296 L107.235583,35.8587315 L107.397009,35.7831296 L107.481981,36.0663704 L109.125204,46.1784907 L109.002537,46.4534259 L108.200731,46.9283333 L107.957102,47.01075 L107.75138,46.9890278 L107.524361,46.8816944 L107.376778,46.8723241 L107.262417,46.9796574 L107.137833,47.2205185 L107.062231,47.5048241 L107.105463,47.7326944 L107.341852,48.2516852 L107.457065,48.6831481 L107.440454,48.9976944 L107.26412,49.2311019 L106.89612,49.4187222 L105.830454,49.7765 L105.502065,50.0113981 L104.687481,50.955037 L104.395935,51.2010093 L104.371019,51.1432963 L104.280722,51.0408611 L104.161676,50.9616389 L104.049444,50.9746296 L103.997481,51.1068796 L103.91975,52.4528056 L103.860759,52.6521389 L103.718713,52.8056852 L103.321537,53.0461204 L103.167991,53.192213 L103.153296,53.2825093 L103.205259,53.5163426 L103.200574,53.6140926 L103.132,53.732287 L102.952472,53.951213 L102.883259,54.0694074 L101.593981,56.8417593 L101.355463,57.5715833 L100.481889,63.0896667 L100.4985,63.300713 L100.610944,63.5517963 L100.73063,63.7006574 L100.809852,63.84675 L100.796861,64.0920833 L100.638204,64.4419815 L99.819787,65.4693148 L99.7294907,65.6507593 L99.5819074,66.5505278 L99.4913981,66.6780926 L98.6071759,66.9670833 L98.5869444,66.9796481 L98.5750185,66.9873148 L98.3548148,67.1251019 L96.2956759,70.6679537 L95.9966759,71.3602963 L95.9717593,72.0102593 L96.0492778,72.1921296 L96.272463,72.4806944 L96.5133241,72.9464444 L96.5548519,73.0665556 L96.2043148,74.053 L96.1074167,74.1705556 L95.7786019,74.3530648 L95.6497593,74.541537 L95.6248426,74.8435185 L97.0335926,81.1896019 L97.2457037,81.4468611 L97.2980926,81.5103241 L97.8232593,81.9911944 L98.2036111,82.9933981 L98.74475,85.9878704 L99.003713,86.6293148 L99.6917963,87.8902685 L99.9094444,88.5400185 L99.9550185,89.1887037 L99.7801759,91.2361296 L100.939759,91.1368889 L100.759593,92.2583519 L100.856065,92.7219722 L101.277944,92.9577222 L101.627417,92.9140648 L102.20838,92.562037 L102.498648,92.4459722 L103.77025,92.774787 L103.999185,92.9604907 L104.139528,93.1953889 L104.206824,93.4852315 L104.249204,94.42525 L104.565667,95.7087778 L105.052926,96.8523889 L105.12938,97.1748148 L105.084231,97.4876574 L104.907046,97.7131852 L104.670019,97.7566296 L104.068398,97.6465278 L103.951269,98.7560648 L104.001954,99.0050185 L104.25112,99.3638611 L104.330343,99.5700093 L104.321185,99.7233426 L104.245583,100.098157 L104.260278,100.2615 L104.316713,100.323685 L104.551824,100.525148 L104.649574,100.640361 L104.477926,100.97812 L104.223435,101.160204 L103.813269,101.219407 L103.101972,101.191722 L103.057676,100.692111 L102.464787,100.613954 L101.73262,100.700843 L101.263463,100.69062 L101.409981,101.051593 L101.319898,101.412565 L101.061361,101.692824 L100.708269,101.803565 L100.4295,101.722 L99.4850093,101.28138 L99.1900556,101.056917 L98.8339815,101.156583 L98.1265185,101.176389 L97.8273056,101.313537 L97.6899444,100.972796 L97.410963,100.563694 L97.0819352,100.222315 L96.7963519,100.079417 L96.6504722,99.94525 L96.8421389,99.6622222 L97.1189907,99.4038981 L97.2278148,99.3440556 L97.313,99.0908426 L97.3651759,98.5605648 L97.4712315,98.3533519 L97.7159259,98.2000185 L97.9056759,98.1533796 L98.0277037,98.0402963 L98.0711481,97.6863519 L98.0306852,97.4180185 L97.9114259,97.2896019 L97.703787,97.2523333 L97.4058519,97.2523333 L97.3232222,97.2917315 L97.2171667,97.3792593 L97.0849167,97.4676389 L96.9237037,97.507037 L96.7746296,97.48425 L96.5297222,97.3843704 L96.3744722,97.3743611 L96.2013333,97.4354815 L95.8586759,97.6733611 L95.6327222,97.7536481 L95.8113981,98.1623241 L95.9029722,98.5298981 L95.7715741,98.7807685 L95.266,98.8421019 L95.3450093,98.97925 L95.3450093,99.1061759 L95.2745185,99.226713 L95.1443981,99.3440556 L95.3079537,99.4520278 L95.3878148,99.4769444 L95.266,99.4769444 L95.4363704,99.5416852 L95.6197315,99.5834259 L95.812037,99.6008889 L96.0096667,99.5891759 L96.0096667,99.7116296 L95.841213,99.7889352 L95.5681944,99.7648704 L95.3878148,99.8225833 L95.2359722,99.9380093 L95.0986111,100.090917 L94.9853148,100.267463 L94.9011944,100.456361 L94.7129352,100.329009 L94.5857963,100.39588 L94.616463,100.551981 L94.9011944,100.69062 L94.7951389,100.929139 L94.9005556,101.073528 L95.1248056,101.151685 L95.3878148,101.191722 L94.7384907,101.714546 L93.5622963,101.656407 L89.0287407,100.69062 L88.1975463,100.641 L87.6338333,100.528769 L87.4928519,100.481917 L87.4317315,100.39013 L87.4638889,100.223593 L87.5058426,100.09688 L87.4768796,99.9744259 L87.2988426,99.8225833 L87.4317315,99.5891759 L87.2487963,99.7408056 L87.1063241,99.9729352 L87.0068704,100.231259 L86.9568241,100.456361 L86.8230833,100.456361 L86.6094815,100.333269 L86.2636296,100.29813 L85.5380648,100.322833 L85.2991204,100.258731 L84.49625,99.8225833 L83.2474352,99.6598796 L82.6896852,99.4914259 L82.4236944,99.0872222 L82.7550648,99.1981759 L83.1313704,99.1600556 L83.461037,98.9924537 L83.6550463,98.7211389 L83.9144352,99.0429259 L84.042213,99.1702778 L84.1919259,99.2220278 L84.3088426,99.1762407 L84.3567593,99.0695463 L84.3356759,98.9443241 L84.2521944,98.8421019 L84.2521944,98.7211389 L84.4983796,98.7758704 L85.1153333,99.0288704 L85.238,99.0318519 L85.4194444,98.973287 L85.8213056,99.1304537 L86.4685,99.4769444 L86.4265463,99.3617315 L86.3958796,99.1828426 L86.3464722,99.0872222 L86.6241759,99.0953148 L87.1033426,99.1609074 L87.2988426,99.0872222 L87.5343796,98.8039815 L87.423,98.6480926 L87.1934259,98.5130741 L87.0673519,98.2977685 L86.8624815,97.7010463 L86.8230833,97.4405926 L86.7628148,97.2998241 L86.6139537,97.2042037 L86.4193056,97.1814167 L86.2259352,97.2523333 L86.1090185,97.1741759 L85.9409907,97.1247685 L85.7914907,97.1524537 L85.7263241,97.3128148 L85.7785,97.4143981 L86.1590648,97.6863519 L86.6109722,98.2964907 L86.8797315,98.5837778 L87.1891667,98.7211389 L87.0294444,98.9530556 L86.7534444,98.9281389 L86.4525278,98.8625463 L86.2259352,98.9762685 L86.0915556,98.9762685 L85.8685833,98.7055926 L85.7014074,98.6355278 L85.5169815,98.6442593 L85.238,98.6093333 L85.0491019,98.5431019 L84.8384815,98.421713 L84.674287,98.2460185 L84.6291389,98.0089907 L84.5441667,98.0884259 L84.4374722,98.1680741 L84.3865741,98.2423981 L84.312463,98.0950278 L84.2645463,97.9548981 L84.2428241,97.8047593 L84.2521944,97.6192685 L84.1308056,97.6192685 L84.1061019,97.8716296 L84.019,98.0884259 L83.869287,98.1957593 L83.6550463,98.1199444 L83.5164074,98.2249352 L83.3217593,98.25475 L83.1096481,98.2189722 L82.9120185,98.1199444 L82.495037,98.1846852 L82.2916574,98.2423981 L82.4652222,98.4038241 L82.7442037,98.4700556 L83.0395833,98.4517407 L83.2663889,98.3533519 L83.5198148,98.6093333 L83.2823611,98.7933333 L82.9759074,98.9705185 L82.6532685,99.0405833 L82.3583148,98.9093981 L82.1344907,98.7801296 L81.7437037,98.6050741 L81.3710185,98.4947593 L81.2046944,98.548 L81.0566852,98.7055926 L80.7282963,98.6180648 L80.21825,98.3533519 L79.9814352,98.4255463 L79.7912593,98.548 L79.5993796,98.6050741 L79.3538333,98.4868796 L79.2505463,98.5910185 L79.1344815,98.5925093 L79.0079815,98.507963 L78.8778611,98.3533519 L78.3918796,98.6830185 L78.1552778,98.7750185 L77.8922685,98.7211389 L77.9278333,98.6393611 L77.9793704,98.4336389 L78.0142963,98.3533519 L77.5564259,98.2643333 L77.3590093,98.2977685 L77.1496667,98.4868796 L77.0167778,98.364213 L76.8555648,98.2854167 L76.7196944,98.2896759 L76.6091667,98.5722778 L76.3259259,98.7982315 L76.1866481,98.9762685 L76.0586574,98.8450833 L75.8442037,98.680037 L75.6154815,98.5401204 L75.4527778,98.4868796 L75.2653704,98.58825 L75.077963,98.7545741 L74.8920463,98.8173981 L74.7118796,98.6093333 L74.7655463,98.5692963 L74.7872685,98.5648241 L74.8047315,98.5518333 L74.8439167,98.4868796 L74.1830926,98.5181852 L73.9300926,98.6423426 L73.858963,98.9762685 L74.0289074,98.8902315 L74.1786204,98.9151481 L74.2925556,99.0318519 L74.3581481,99.2220278 L74.0180463,99.1434444 L72.7504907,99.0872222 L72.6806389,98.9166389 L72.5950278,98.7647963 L72.3959074,98.4868796 L72.2941111,98.6583148 L72.2877222,98.7999352 L72.3618333,98.9079074 L72.5055833,98.9762685 L72.5055833,99.0872222 L72.1837963,99.1498333 L71.9395278,99.2650463 L71.53,99.5891759 L71.2003333,99.3732315 L70.8189167,99.3979352 L70.4869074,99.5497778 L70.3133426,99.7116296 L70.190463,99.7116296 L70.0712037,99.6592407 L69.9172315,99.5644722 L69.7792315,99.4520278 L69.7027778,99.3440556 L69.9114815,99.2505648 L70.0856852,99.2712222 L70.2803333,99.3293611 L70.5450463,99.3440556 L70.5071389,99.1702778 L70.4504907,99.059537 L70.3516759,98.9996944 L70.190463,98.9762685 L70.190463,98.8421019 L70.3736111,98.7588333 L70.4896759,98.6321204 L70.5450463,98.4604722 L70.5450463,98.2423981 L70.4353704,98.2423981 L70.2151667,98.6553333 L69.9163796,98.875537 L69.5396481,98.961787 L69.0817778,98.9762685 L69.5656296,99.3425648 L69.2082778,99.6598796 L68.5442593,99.9407778 L68.1076852,100.20038 L67.9965185,100.460194 L68.022713,100.6295 L68.1841389,100.73662 L68.4731296,100.811583 L68.792787,100.829259 L69.1101019,100.775167 L69.2926111,100.649731 L69.2040185,100.456361 L69.2040185,100.322833 L69.6550741,100.20038 L69.8765556,100.076435 L69.9557778,100.158852 L70.0437315,100.276194 L70.190463,100.322833 L70.4113056,100.267463 L70.7731296,100.110722 L71.0431667,100.079417 L71.5983611,100.079417 L71.7668148,100.115194 L71.8801111,100.193991 L71.9569907,100.276833 L72.0183241,100.322833 L72.283463,100.360102 L72.4685278,100.333907 L72.8825278,100.20038 L72.6981019,100.222315 L72.4815185,100.204852 L72.3115741,100.123074 L72.2636574,99.95675 L72.3726944,99.8634722 L72.9939074,99.7116296 L72.9939074,99.95675 L73.1267963,99.95675 L73.5212037,99.7648704 L74.5738796,99.8306759 L75.0881852,99.5891759 L75.1731574,99.8562315 L75.3117963,99.7474074 L75.4587407,99.4986667 L75.5748056,99.3440556 L75.9017037,99.352787 L76.1800463,99.4841852 L76.4285741,99.5470093 L76.6615556,99.3440556 L76.9986759,99.4803519 L77.3472963,99.4213611 L77.7048611,99.2929444 L78.4376667,99.1615463 L78.8953241,98.9019444 L79.1766481,98.8421019 L81.3791111,98.7852407 L81.9370741,98.9762685 L81.7701111,99.0535741 L81.5912222,99.0931852 L81.4016852,99.1019167 L81.2046944,99.0872222 L82.5340093,99.7116296 L76.9573611,100.168435 L71.380287,100.625028 L68.4499167,101.284361 L66.8305463,101.422787 L66.521963,101.558657 L66.3288056,101.456435 L66.119463,101.420019 L65.1568704,101.401917 L64.9266574,101.424278 L64.9266574,101.313537 L64.9847963,101.309065 L65.1023519,101.318648 L65.159213,101.313537 L65.159213,101.191722 L64.6578981,101.198324 L64.538,100.986213 L64.5467315,100.659954 L64.4283241,100.322833 L64.6578981,100.050241 L64.4313056,99.9918889 L63.4576389,100.114343 L63.1388333,100.214861 L62.8432407,100.373519 L62.600463,100.579028 L62.3018889,100.320704 L61.7869444,100.060463 L61.1883056,99.9350278 L60.6492963,100.079417 L60.5802963,100.001898 L60.4574167,99.9071296 L60.426963,99.8664537 L60.3950185,99.8225833 L60.2838519,99.8225833 L60.087713,100.027028 L59.7695463,99.9320463 L59.4296574,99.7823333 L59.1636667,99.8225833 L59.0542037,99.8225833 L58.8650926,99.7378241 L58.7626574,99.8123611 L58.7460463,99.9844352 L58.8216481,100.20038 L58.7662778,100.180787 L58.5658796,100.079417 L58.57525,100.267463 L58.5658796,100.322833 L58.7126111,100.281519 L58.7402963,100.33625 L58.8129167,100.444861 L58.8216481,100.456361 L58.9466574,100.384167 L59.0439815,100.355204 L59.2965556,100.322833 L59.2965556,100.456361 L59.1602593,100.608843 L58.741787,100.816056 L58.5658796,100.93425 L58.5658796,100.579028 L58.3116019,101.322269 L58.1895741,101.558657 L57.5909352,100.69062 L57.4571944,100.69062 L57.4499537,100.746204 L57.4571944,100.93425 L57.2154815,100.811583 L57.4821111,101.319287 L58.2157685,101.650657 L59.0916852,101.746917 L59.7957407,101.558657 L59.5086667,101.341222 L59.2073241,101.347185 L58.8897963,101.397444 L58.5658796,101.313537 L58.5658796,101.191722 L58.747537,101.202583 L58.8936296,101.17937 L59.0250278,101.12975 L59.1636667,101.056917 L59.2588611,100.979398 L59.4841759,100.744713 L59.5514722,100.69062 L59.8181019,100.750463 L60.1130556,100.899111 L60.4016204,100.972796 L60.6492963,100.811583 L60.8680093,100.945963 L61.0860833,100.994093 L61.2681667,100.920407 L61.3799722,100.69062 L61.0530741,100.73875 L60.9093241,100.594361 L60.788787,100.404611 L60.5272685,100.322833 L60.5272685,100.20038 L60.7713241,100.322833 L61.3669815,100.237648 L62.4494722,100.871426 L62.9101111,100.750463 L63.1607685,100.55262 L63.3958796,100.513435 L64.0128333,100.579028 L64.0854537,100.714685 L64.187037,101.023056 L64.3397315,101.353574 L64.5620648,101.558657 L60.0463981,101.695167 L59.3510741,101.964139 L55.7558333,102.156657 L55.2357778,102.075731 L54.7768426,101.803565 L54.2782963,102.169861 L54.6488519,102.279324 L54.7768426,102.292315 L53.3536111,102.731444 L49.4067685,103.327315 L49.2753704,103.367991 L47.2624444,103.996657 L46.9587593,104.153398 L46.8309815,104.316741 L46.6195093,104.308009 L45.6860926,104.65663 L44.2781944,105.383472 L39.3928241,107.020093 L39.2401296,107.141269 L39.1355648,107.41237 L38.869787,107.556759 L36.9831481,108.021231 L36.6140833,108.064889 L36.328713,108.157315 L35.8484815,108.616889 L35.5616204,108.798972 L33.3031481,109.466611 L31.5114907,109.586935 L31.050213,109.81438 L30.6281204,109.920009 L30.4313426,110.03288 L29.9323704,110.644509 L28.9704167,111.451852 L27.8598148,112.123111 L27.128287,112.346722 L25.8025926,112.485361 L24.7426759,112.941528 L24.5209815,113.091454 L24.3423056,113.439009 L24.149787,113.473296 L23.9276667,113.470528 L23.7547407,113.52888 L23.4357222,113.798491 L22.4746204,114.324296 L21.0669352,115.490056 L20.7442963,115.614 L20.3141111,115.576731 L19.538287,115.423824 L19.2465278,115.456833 L18.6555556,115.053056 L18.5586574,114.842435 L18.5827222,114.660991 L18.7690648,114.327065 L18.8244352,114.14988 L18.7995185,113.982065 L18.6721667,113.620667 L18.7064537,113.167269 L18.6740833,112.980713 L18.6261667,112.815454 L18.6001852,112.654667 L18.6785556,108.821333 L18.6001852,107.890685 L18.5522685,107.729685 L18.4453611,107.599565 L18.3050185,107.493935 L18.1693611,107.36488 L18.0799167,107.15788 L18.0803426,107.137009 L18.0826852,106.997731 L18.1832037,106.627602 L18.2081204,106.425287 L18.0807685,105.87137 L18.0890741,105.702491 L18.6344722,105.269963 L18.8695833,105.295093 L19.0180185,105.401148 L19.0882963,105.407537 L19.0874444,105.135796 L18.9850093,104.788454 L18.8188981,104.552917 L18.6943148,104.305454 L18.7192315,103.920417 L18.716463,103.920417 L18.5771852,102.8835 L18.6195648,102.572787 L18.8438148,102.248444 L19.136213,102.113213 L19.4384074,102.118963 L19.6897037,102.219056 L20.1705741,101.343139 L20.2755648,101.028167 L20.2894074,100.726611 L20.1426759,99.881787 L20.3309352,99.2908148 L20.406537,99.1281111 L20.5394259,98.9628519 L21.0009167,98.7130463 L21.045213,98.663 L21.2490185,98.6989907 L21.2202685,98.7690556 L21.1299722,98.8578611 L21.1493519,98.9515648 L21.2064259,99.0689074 L21.2074907,99.2039259 L21.2490185,99.2731389 L21.4223704,99.1956204 L21.5118148,99.0836019 L21.5774074,98.7884352 L21.6208519,98.668537 L21.8365833,98.3650648 L21.9409352,98.1793611 L21.9575463,97.9778981 L21.9104815,97.6318333 L21.8125185,97.2953519 L21.6798426,97.2676667 L21.4926481,97.3036574 L21.2277222,97.1543704 L21.0599074,96.9122315 L20.9361759,96.6053519 L20.8661111,96.2852685 L20.8614259,95.9992593 L21.1114444,96.1319352 L21.1917315,95.9419722 L21.1798056,95.2666667 L21.3088611,95.0049352 L21.5173519,94.8375463 L21.6125463,94.6888981 L21.5818796,94.6595093 L21.4010741,94.4853056 L21.5173519,94.4908426 L21.8717222,94.4701852 L21.6308611,94.1577685 L21.545037,93.8174537 L21.6668519,93.6017222 L22.0414537,93.6632685 L21.8172037,93.3738519 L21.2038704,92.1382407 L20.8744167,90.7316204 L20.8910278,90.0733519 L21.0073056,89.3158426 L20.9270185,88.6935648 L20.355,88.4435463 L20.2996296,88.9759537 L20.211037,89.2704815 L20.0726111,89.4069907 L19.9028796,89.3009352 L19.8153519,89.0483611 L19.6943889,88.8141019 L19.417537,88.7640556 L19.4767407,88.4620741 L19.3442778,88.5159537 L19.1234352,88.7029352 L18.9166481,88.8028148 L18.7892963,88.7333889 L18.5531204,88.4352407 L18.4157593,88.3198148 L18.5605741,88.1328333 L18.4700648,88.0159167 L18.0846019,87.8466111 L18.0356204,87.8363889 L17.6674074,87.634713 L17.640787,87.5691204 L17.3243241,87.5207778 L17.060463,87.3088796 L16.8658148,87.0818611 L16.7503889,86.9887963 L16.5529722,87.2258241 L16.3444815,87.5818981 L16.0953148,87.7101019 L15.778,87.2633056 L15.5603519,87.0486389 L14.8554444,86.6795741 L14.6228889,86.38675 L14.6045741,86.2564167 L14.6173519,85.7461574 L14.656963,85.6635278 L14.8205185,85.5732315 L14.858213,85.4776111 L14.817537,85.363037 L14.7263889,85.3166111 L14.6303426,85.2880741 L14.5730556,85.2239722 L14.5149167,84.8148704 L14.444,84.650037 L14.2704352,84.4905278 L14.1100741,84.4794537 L13.8866759,84.5397222 L13.7152407,84.6317222 L13.707787,84.7154167 L13.5131389,84.4653981 L13.4652222,84.1027222 L13.5093056,83.6953241 L13.5923611,83.3181667 L13.828537,82.6256111 L13.7842407,82.3828333 L13.5076019,82.0431574 L12.7141019,81.4036296 L12.6523426,81.3178056 L12.6052778,81.1086759 L12.5748241,81.0490463 L12.4645093,81.0119907 L12.3810278,81.0352037 L12.3045741,81.0667222 L12.2085278,81.0547963 L11.05725,80.7805 L10.7654907,80.5813796 L10.4564815,80.5098241 L9.97305556,80.5211111 L9.14271296,80.6371759 L8.93422222,80.723 L8.53576852,80.9442685 L8.29022222,81.004537 L8.00059259,81.0083704 L7.84938889,80.9572593 L7.73034259,80.8678148 L7.5365463,80.7545185 L7.32400926,80.6755093 L5.94060185,80.360963 L5.77811111,80.3015463 L5.75149074,80.2272222 L5.75149074,80.1032778 L5.7310463,79.9561204 L5.64160185,79.8115185 L5.51148148,79.739963 L5.43673148,79.7957593 L5.37774074,79.8773241 L5.29106481,79.8864815 L5.1019537,79.7158981 L4.9294537,79.5184815 L4.74481481,79.4447963 L4.51247222,79.642 L4.32314815,79.5583056 L4.10464815,79.5519167 L3.88593519,79.6356111 L3.69405556,79.8225926 L3.48173148,79.607713 L3.54498148,79.498037 L3.70875,79.4066759 L3.79840741,79.2437593 L3.75773148,79.1057593 L3.59715741,78.7775833 L3.56478704,78.6076389 L3.65721296,78.3107685 L3.78903704,78.1966204 L3.8139537,78.0926944 L3.57862963,77.825213 L3.01853704,77.5247222 L2.81196296,77.255963 L2.69951852,77.180787 L2.61284259,77.3322037 L2.53149074,77.6646389 L2.39136111,77.9983519 L2.16902778,78.1815 L1.84063889,78.0699074 L1.31014815,77.3581852 L1.11081481,77.1816389 L0.904027778,77.1209444 L0.47512037,77.1339352 L0.30112963,77.0968796 L0,77.077287 L0.43912963,76.5193241 L0.524101852,76.4801389 L0.738981481,76.444787 L0.821185185,76.3943148 L0.85887963,76.3172222 L0.939166667,76.0669907 L0.919787037,76.0390926 L0.939166667,76.0335556 L1.23625,75.8676574 L1.27777778,75.8695741 L1.52034259,75.576537 L2.8100463,74.5509074 L4.76611111,72.3590926 L5.02060185,71.9651111 L5.244,71.4439907 L5.3935,70.9041296 L5.42288889,70.6521944 L5.40968519,70.4087778 L5.32237037,70.303787 L5.1767037,70.20625 L5.08896296,70.0714444 L5.31683333,69.5750278 L5.33344444,69.2937037 L5.3112963,68.9978981 L5.33344444,68.6793056 L5.43034259,68.5251204 L5.79472222,68.2406019 L5.92867593,68.0715093 L5.97361111,67.6383426 L5.66822222,65.9231389 L5.64351852,65.4840093 L5.59453704,65.3168333 L5.48486111,65.1298519 L5.22185185,64.8638611 L5.15902778,64.7514167 L5.14433333,64.6362037 L5.18224074,64.4085463 L5.17287037,64.289287 L5.10088889,64.1480926 L4.88686111,63.8791204 L4.8029537,63.7368611 L4.66282407,63.1788981 L4.54739815,62.9418704 L4.24286111,62.5074259 L4.12487963,62.2925463 L4.0290463,61.943713 L3.81310185,60.1984815 L3.44765741,58.9264537 L3.12565741,58.2928889 L2.37943519,57.9167963 L3.19039815,57.1620556 L3.64038889,56.9273704 L4.06759259,57.4161204 L4.39981481,57.3890741 L5.03359259,57.1993241 L5.63223148,57.3528704 L6.30860185,57.8795278 L6.95813889,58.1634074 L7.47116667,57.5862778 L7.47947222,57.4597778 L7.42133333,57.1675926 L7.42878704,57.0308704 L7.5135463,56.826 L7.87047222,56.3700463 L7.94990741,56.2991296 L8.15200926,56.1845556 L8.22484259,56.1110833 L8.23591667,56.0367593 L8.18608333,55.859787 L8.19800926,55.78525 L8.77194444,55.124213 L8.85691667,54.8635463 L8.92144444,54.2629907 L8.99065741,53.9735741 L9.07371296,53.8739074 L9.19084259,53.8029907 L9.29178704,53.703537 L9.3265,53.5227315 L9.23492593,53.3263796 L8.83647222,52.9798889 L8.70358333,52.7926944 L8.74511111,52.0690463 L9.63359259,50.7156667 L9.81631481,50.0141667 L9.84591667,49.5780185 L9.81248148,49.4244722 L10.0848611,49.4336296 L10.8319352,49.3111759 L11.0074167,49.3676111 L11.1799167,49.5166852 L11.396713,49.6536204 L11.7131759,49.67875 L11.6135093,49.2847685 L11.3956481,48.8886574 L11.0985648,48.557713 L10.7654907,48.3571019 L10.666037,48.1011204 L10.6585833,47.8295926 L10.7654907,47.2805741 L10.8983796,47.0593056 L11.0027315,46.8090741 L10.9871852,46.6333796 L10.7654907,46.6361481 L9.69002778,47.0060648 L9.51923148,47.0303426 L7.78017593,46.4958056 L6.29752778,45.5161759 L6.32244444,45.3264259 L6.61399074,45.0182685 L6.66659259,44.8108426 L6.62506481,44.4724444 L6.62506481,44.1344722 L6.84548148,43.1069259 L6.81694444,42.7357315 L6.72366667,42.5067963 L6.5992963,42.3081019 L6.50601852,42.1147315 L6.50431481,41.8977222 L6.60291667,41.7703704 L7.47010185,41.0797315 L7.71926852,41.0460833 L8.35858333,41.1762037 L8.72296296,41.1380833 L9.31627778,40.9014815 L9.67788889,40.8735833 L9.83015741,40.9238426 L10.0248056,41.0974074 L10.1415093,41.1549074 L10.2878148,41.1640648 L10.6012963,41.1380833 L10.7654907,41.163213 L11.2978981,41.0237222 L11.5719815,40.9875185 L11.8266852,41.0339444 L12.0479537,41.2098519 L12.1716852,41.4481574 L12.2675185,41.7079722 L12.4059444,41.9471296 L12.6016574,42.1202685 L12.8565741,42.2629537 L13.1468426,42.3502685 L13.4456296,42.3602778 L13.7493148,42.2205741 L13.7816852,41.9667222 L13.7344074,41.668787 L13.8,41.3959815 L14.191213,41.3320926 L14.5730556,41.8491667 L15.134,42.9804259 L15.5390556,43.2370463 L16.0316389,43.3049815 L17.0723889,43.1908333 L16.7014074,42.4248056 L16.5881111,42.0395556 L16.6434815,41.6076667 L16.7716852,41.1538426 L16.772537,40.8405741 L16.5502037,40.0898796 L16.5097407,39.7088889 L16.5521204,39.0161204 L16.4588426,38.6783611 L16.3314907,38.5224722 L15.8337963,38.1864167 L15.6664074,37.9909167 L15.2392037,37.2112593 L15.1156852,37.0585648 L14.7787778,36.7623333 L14.6935926,36.6624537 L14.5509074,36.4352222 L14.4346296,36.3570648 L14.3300648,36.3542963 L14.1422315,36.4499167 L14.0630093,36.4603519 L12.9926574,36.1345185 L12.5969722,36.0887315 L11.7796204,35.8399907 L11.6005185,35.2826667 L11.9263519,33.7163241 L12.0019537,32.8295463 L12.0886296,32.4027685 L12.2619815,31.9647037 L12.2630463,31.963 L12.5324444,31.6774167 L14.1339259,30.8553796 L14.4772222,30.8151296 L14.8296759,30.8151296 L15.2558148,30.7508148 L15.5413981,30.5376389 L15.5667407,30.5186852 L15.3416389,30.243537 L14.5979722,29.8254907 L14.1995185,29.5147778 L14.0057222,29.3156574 L13.7612407,28.8531019 L13.6128056,28.8230741 L13.4328519,28.8988889 L13.2113704,28.9372222 L12.3035093,28.576037 L12.2841296,27.9175556 L12.9217407,26.3467407 L12.9790278,25.9286944 L13.449463,24.4869352 L13.3563981,24.3297685 L12.6191204,24.3287037 L12.24175,24.4083519 L11.5628241,24.7936019 L11.1965278,24.9320278 L10.8698426,24.9626944 L10.4694722,24.9441667 L10.0810278,24.8636667 L9.78862963,24.7107593 L9.48962963,24.3876944 L8.4507963,22.9082407 L8.31705556,22.619037 L8.23208333,22.2976759 L8.17138889,21.8860185 L8.16116667,21.4871389 L8.84115741,16.6109259 L8.7589537,16.2233333 L8.42417593,16.2514444 L8.35027778,16.22525 L8.27744444,16.0604167 L8.3300463,15.99525 L8.41587037,15.9718241 L8.44525926,15.9288056 L8.41757407,15.8304167 L8.3760463,15.5148056 L8.31066667,15.4136481 L8.20823148,15.3874537 L8.10856481,15.3819167 L8.04872222,15.345287 L7.98398148,15.1979167 L7.92690741,15.0128519 L7.9424537,14.8527037 L8.32536111,14.7055463 L8.54492593,14.5294259 L8.61328704,14.3528796 L8.38818519,14.2723796 L8.21653704,14.0724074 L8.40841667,13.6170926 L8.76917593,13.126213 L9.10416667,12.8165648 L10.0128796,12.4741204 L10.4234722,12.2434815 L10.7654907,11.797963 L10.8255463,11.5351667 L10.9169074,11.2908981 L11.0489444,11.0664352 L11.2306019,10.8617778 L11.2306019,10.8617778 Z" id="Fill-1"></path>
        </g>
    </g>
</svg>