<svg width="137px" height="115px" viewBox="0 0 137 115" version="1.1" xmlns="http://www.w3.org/2000/svg" xmlns:xlink="http://www.w3.org/1999/xlink">
    <g id="Page-1" stroke="none" stroke-width="1" fill="none" fill-rule="evenodd">
        <g id="Artboard" fill="#D8D8D8">
            <g id="Group">
                <polygon id="Path" points="125.97332 80.9358082 129.886364 76.0440835 130.242095 73.4648105 132.109684 71.7304718 134.199605 71.6415313 135 69.7737819 133.26581 67.3723898 130.197628 57.5 130.286561 49.9845321 129.3083 48.783836 129.752964 45.1372776 128.952569 43.8476411 130.108696 35.1759474 129.219368 33.9307811 129.530632 31.4849188 125.261858 27.1268368 122.238142 25.9261408 114.412055 16.6763341 114.145257 14.8085847 113.033597 14.8085847 108.364625 9.82791957 103.162055 8.62722351 102.272727 7.42652746 94.8023715 7.38205723 93.5573123 8.67169374 87.0652174 8.62722351 85.8646245 9.87238979 83.7747036 9.87238979 79.1501976 12.3182521 77.0158103 12.3182521 76.0375494 11.1175561 72.8359684 11.0730858 71.9911067 9.82791957 65.3656126 11.0730858 62.8754941 6.18136118 59.8073123 4.89172467 58.9179842 3.60208817 56.7391304 3.69102862 54.9160079 1.20069606 51.7588933 1.20069606 50.8250988 0 47.312253 2.44586234 44.0217391 2.44586234 42.8211462 3.60208817 39.4416996 4.89172467 35.5286561 2.44586234 31.215415 2.44586234 27.7025692 4.89172467 24.4565217 4.89172467 23.7005929 6.71500387 22.0108696 7.33758701 15.8300395 13.6078886 14.7183794 13.6078886 9.16007905 19.0777262 8.98221344 20.3673627 2.57905138 27.74942 2.26778656 30.1952823 1.06719368 31.4849188 0 38.9114462 1.02272727 40.1121423 0.800395257 48.7393658 1.68972332 50.0734725 0.84486166 56.1658933 1.77865613 57.4555298 0.666996047 66.0382831 1.4673913 67.3279196 1.15612648 69.8182521 3.86857708 73.4648105 3.55731225 75.9551431 4.49110672 77.2447796 5.73616601 83.3816705 10.6719368 90.1856148 12.7173913 91.3863109 19.076087 91.3418407 20.0098814 92.6314772 25.3458498 92.6759474 35.2618577 98.8573086 38.1077075 101.392111 41.2648221 101.303171 45.2667984 103.749033 48.6017787 102.548337 49.5355731 103.793503 55.9387352 103.749033 57.9397233 105.03867 59.1403162 103.749033 60.0741107 105.03867 65.4100791 105.08314 66.2549407 106.283836 69.5009881 106.194896 70.4347826 107.484532 72.5247036 107.529002 74.4367589 109.974865 76.4822134 109.974865 80.3063241 113.710363 84.5750988 113.710363 85.4644269 114.866589 98.3152174 115 99.6047431 113.710363 102.717391 113.710363 116.146245 105.705723 116.45751 103.12645 120.192688 99.4798917 122.01581 94.4992266 127.08498 88.3623357 127.396245 85.7830626 125.617589 83.3816705"></polygon>
                <polygon id="Path" points="128.701 90.137 128.517 91.379 127.275 92.621 127.091 93.863 127.505 94.599 128.655 94.599 130.587 92.667 130.909 90.137 130.403 89.401"></polygon>
                <polygon id="Path" points="130.873 79.78 130.137 80.424 131.057 81.758 130.873 83.092 129.585 84.288 131.011 86.22 132.161 86.22 134.047 84.288 134.415 81.758 133.035 79.826"></polygon>
                <polygon id="Path" points="133.93 74.6725 131.866 74.6725 131.264 75.3175 132.21 76.4785 130.92 77.7255 130.748 78.8865 131.264 79.5315 134.317 79.5315 136.123 77.6825 136.252 73.4685 135.177 73.5115"></polygon>
            </g>
        </g>
    </g>
</svg>