
<svg width="126px" height="116px" viewBox="0 0 126 116" version="1.1" xmlns="http://www.w3.org/2000/svg" xmlns:xlink="http://www.w3.org/1999/xlink">
    <!-- Generator: Sketch 51.2 (57519) - http://www.bohemiancoding.com/sketch -->
    <desc>Created with Sketch.</desc>
    <defs></defs>
    <g id="Page-1" stroke="none" stroke-width="1" fill="none" fill-rule="evenodd">
        <g id="CV-EPS-01-0001" transform="translate(-224.000000, -145.000000)" >
            <path d="M238.59829,152.94716 L238.79861,152.78276 L239.666661,152.438302 L239.867902,152.273902 L240.076971,152.257324 L241.757352,150.436028 L242.033655,149.960787 L242.118388,149.451929 L241.948462,149.106551 L241.306979,148.563616 L241.167906,148.303891 L240.919234,148.156529 L239.825075,147.862727 L239.576402,147.631094 L239.559363,146.533711 L239.375162,146.155636 L238.942748,145.826836 L238.272253,145.645858 L237.085072,145.679935 L236.547663,145.317518 L236.013477,145.137 L235.261933,145.317518 L232.435816,146.698111 L231.359617,146.958296 L230.25855,147.647672 L229.377144,148.026207 L228.248447,149.106551 L227.779192,149.451929 L227.341252,149.468968 L226.729702,149.418773 L226.054142,149.519623 L225.397923,149.960787 L224.253568,151.273225 L224.027,151.962601 L224.283962,152.78276 L224.588816,152.997355 L225.392396,153.144716 L225.552652,153.2755 L226.189991,154.394987 L226.218081,157.607468 L226.331366,158.217636 L226.893642,158.624723 L227.317767,158.642222 L227.728076,158.460783 L228.268709,158.364998 L230.026916,158.364998 L232.051755,158.116325 L233.203477,157.279128 L234.116198,156.08596 L235.394098,154.767996 L238.199954,153.439439 L238.59829,152.94716 Z M312.742772,250.039513 L312.625804,249.859456 L312.515283,249.633809 L312.337989,249.287969 L312.203061,249.186198 L312.064449,249.140608 L311.884852,248.959169 L309.982507,245.363548 L309.952574,245.216647 L310.010138,244.820153 L309.982507,244.673252 L309.85725,244.645161 L309.44648,244.705948 L309.316617,244.673252 L309.2457,244.673252 L308.906768,244.396949 L308.618032,244.118804 L308.682502,244.05111 L308.418173,243.919406 L308.303047,243.790464 L308.228445,243.627906 L308.07832,243.395351 L307.380195,243.491597 L306.594114,242.998396 L305.160562,241.444653 L304.452767,240.278655 L304.060417,239.949855 L303.260059,239.770258 L303.601754,239.423959 L302.066431,238.571104 L301.340676,238.047049 L300.720836,237.156894 L301.31719,236.585407 L301.059307,235.765249 L300.320658,235.319941 L299.447541,235.845837 L299.357282,235.58381 L299.262879,235.403752 L299.188277,235.206656 L299.159725,234.842858 L298.814347,234.842858 L297.516184,235.845837 L297.817815,235.896953 L298.499362,236.172795 L297.53967,236.683495 L297.231132,236.795398 L297.75841,237.093805 L298.268188,237.863308 L298.659617,238.786159 L298.814347,239.588359 L298.713496,239.850846 L298.481402,240.099058 L298.254834,240.409899 L298.153062,240.936256 L298.10563,241.490243 L297.957808,241.97101 L297.672756,242.281851 L297.231132,242.411253 L297.82288,244.05111 L297.860642,244.673252 L297.697162,245.120862 L297.039562,246.2864 L296.908318,246.658948 L297.029891,247.055443 L297.206264,247.303655 L297.387703,247.484173 L297.516184,247.676203 L297.835774,248.779112 L297.860642,248.959169 L298.505809,249.272312 L299.255971,249.503025 L299.787393,249.876955 L299.794761,251.453723 L300.51407,252.274803 L302.307736,253.851571 L303.550638,254.276617 L304.739661,254.683703 L306.025851,254.853169 L307.571765,254.88126 L307.917144,254.931915 L308.310415,255.14651 L308.682502,255.181969 L309.031565,255.130853 L309.758241,254.931915 L310.125264,254.88126 L310.791154,254.655612 L311.145282,254.07906 L311.432176,253.327056 L311.884852,252.568605 L311.539934,252.240265 L312.619357,251.438066 L312.939869,250.979864 L313.154464,250.254108 L312.910857,250.170757 L312.742772,250.039513 Z M246.306679,161.289203 L246.08932,161.022571 L245.423891,160.825935 L244.75662,160.366812 L244.363809,159.90861 L244.513473,159.710593 L244.745568,159.513036 L244.559524,159.071412 L244.140464,158.607684 L243.676736,158.364998 L242.862564,158.953523 L242.398375,159.037795 L242.118388,158.364998 L241.801561,158.364998 L241.525258,158.692417 L240.212359,159.417251 L240.503859,160.055511 L239.910268,160.333195 L238.454152,160.366812 L237.826484,160.581407 L237.148161,161.152893 L236.613054,162.00713 L236.406748,163.025306 L237.015075,162.731504 L237.240722,163.222402 L237.610968,163.56778 L238.077459,163.828426 L241.001664,164.964951 L241.338293,165.010081 L241.519732,164.913835 L241.968264,164.456094 L242.262066,164.353862 L243.435892,164.274655 L244.71149,164.025982 L245.845253,163.619357 L246.589889,163.025306 L246.659886,162.567103 L246.530023,161.893846 L246.306679,161.289203 Z M255.34086,256.691964 L255.047518,256.001668 L254.526688,255.510309 L253.828102,255.82161 L252.979392,255.934894 L252.428628,256.244354 L252.616975,257.148324 L251.983781,257.148324 L252.185482,257.557253 L252.247189,257.968023 L252.185482,258.376951 L251.983781,258.807062 L252.32962,258.478723 L252.65842,259.050209 L253.54305,259.659917 L253.890731,260.137 L254.238412,260.137 L254.521162,259.659917 L254.945286,259.396048 L255.335794,259.050209 L255.50526,258.298205 L255.474406,257.494163 L255.34086,256.691964 Z M349.058635,197.91959 L348.701744,197.444349 L348.529975,197.359155 L348.694375,195.522202 L348.512016,194.718621 L347.720408,194.374164 L347.525154,194.192265 L347.243786,193.271255 L347.059123,192.925416 L346.595395,192.597997 L346.091603,192.405967 L343.340087,191.699092 L342.508416,191.845072 L342.154748,192.586024 L341.685954,193.01107 L340.611136,192.897786 L339.429481,192.485174 L338.631887,192.105718 L338.06869,191.699092 L337.863765,191.449959 L337.680945,191.087542 L337.267411,192.586024 L337.775348,196.782143 L336.888416,197.670457 L336.194436,197.91959 L335.722879,198.541732 L335.464075,199.412546 L335.4323,200.310991 L335.715971,201.346666 L336.286076,201.872562 L337.970602,202.642526 L338.509393,202.805545 L339.167914,203.365518 L339.613683,203.598073 L340.093989,203.67682 L342.766298,203.496762 L343.626061,203.236577 L345.326244,202.314186 L347.865006,200.284281 L348.643259,199.786015 L348.760228,199.327353 L348.837592,198.886189 L348.976665,198.672054 L349.259415,198.428447 L349.058635,197.91959 Z M273.404618,255.770955 L273.252651,255.244598 L273.483825,254.701202 L273.520205,254.096099 L272.98648,251.748446 L272.387363,250.142206 L271.96508,249.401254 L271.312084,248.829767 L270.307724,248.597212 L269.344348,248.677801 L268.515439,248.943512 L265.670441,250.403312 L264.538981,251.22255 L263.710994,252.240265 L263.066748,253.388303 L262.806562,254.374244 L263.080563,255.361566 L263.719283,256.261853 L266.394815,258.511879 L267.975267,259.332959 L269.76571,259.558606 L271.725157,258.807062 L273.34245,257.314106 L273.653751,256.856364 L273.636712,256.29547 L273.404618,255.770955 Z M285.043414,174.002356 L284.12747,173.267391 L283.083966,172.854318 L279.252567,172.543477 L278.873111,172.464271 L277.176151,171.644572 L276.724857,171.5603 L274.139583,171.955413 L273.653751,171.921336 L273.082265,171.644572 L271.990868,170.671526 L271.434579,170.315095 L270.800003,170.048923 L270.467058,170.015767 L267.624823,170.937698 L267.248591,172.034159 L267.525815,173.119569 L268.286568,173.940188 L269.365992,174.268068 L269.788274,174.335762 L270.028197,174.56233 L270.137797,174.924287 L270.161283,175.433605 L270.271804,176.089824 L270.529226,176.501976 L270.840528,176.813277 L271.114528,177.220363 L271.767524,179.012648 L272.17507,179.601633 L272.610247,177.780798 L273.959987,175.348412 L274.606535,174.56233 L276.424608,173.844864 L278.345373,174.302606 L281.935468,175.907925 L285.216564,175.874308 L285.744302,175.761484 L285.744302,174.104128 L285.530167,174.285567 L285.043414,174.002356 Z M336.480409,170.608437 L337.048672,174.268068 L337.583778,173.990844 L337.993167,173.844864 L338.325191,173.662964 L338.631887,173.267391 L338.547154,173.199236 L338.428344,172.905895 L338.339466,172.543477 L338.316902,172.283292 L338.459198,172.034159 L338.88977,171.739897 L338.977265,171.463594 L339.024697,170.971314 L339.223636,170.015767 L339.265541,169.477437 L339.142587,169.195148 L338.523668,168.624122 L338.316902,168.313281 L338.189342,167.391351 L338.316902,164.535301 L338.216972,164.353862 L338.033691,164.274655 L337.9508,164.139266 L338.275456,163.664486 L338.578468,163.093 L338.631887,162.878405 L338.45183,162.516448 L337.611869,161.730366 L337.364578,161.384988 L335.141722,162.781699 L334.183872,163.534624 L334.150716,165.061657 L334.254329,165.699917 L334.560104,166.158119 L335.110407,166.322059 L335.110407,166.650399 L334.684901,167.147744 L334.543066,168.013032 L334.605694,168.952462 L334.794962,169.658876 L335.7786,169.150018 L336.480409,170.608437 Z M328.1508,237.207549 L328.090474,236.45094 L327.811408,235.845837 L327.271236,235.568153 L326.226811,235.810839 L325.560461,235.482499 L325.907681,235.189157 L325.560461,234.842858 L325.435203,235.076794 L325.327445,235.171197 L324.929109,235.482499 L324.943384,234.99114 L324.929109,234.842858 L324.302822,235.222314 L323.657195,235.482499 L323.761729,235.646899 L323.752519,235.715054 L323.786597,235.765249 L324.004415,235.845837 L323.338065,237.04361 L322.333244,237.796995 L322.067072,238.48545 L322.837957,238.571104 L323.022159,239.097461 L322.728817,239.719142 L322.067072,240.099058 L322.446528,240.653046 L322.2568,241.230058 L321.894383,241.818583 L321.750245,242.411253 L322.038981,243.033855 L322.56718,243.594289 L323.657195,244.37991 L324.645438,244.922845 L325.25883,245.087706 L325.907681,245.03659 L326.148525,244.855151 L326.367265,244.283665 L326.540875,244.05111 L326.845729,243.937365 L327.582076,243.836054 L327.811408,243.757308 L328.556504,242.540654 L328.620054,241.230058 L328.101065,238.48545 L328.1508,237.207549 Z" id="Fill-3"></path>
        </g>
    </g>
</svg>