<svg width="104" height="115" version="1.1" id="Layer_1" xmlns="http://www.w3.org/2000/svg" xmlns:xlink="http://www.w3.org/1999/xlink" x="0px" y="0px"
	 viewBox="0 0 104 115" enable-background="new 0 0 104 115" xml:space="preserve">
<path fill="#878787" d="M36.5,3.3l0.4,0.3l0.2-0.2l0.2-0.2l0.4,0.2l0.2-0.5L38,2.2l0-0.6l-0.1-0.2l0-0.1V1.1l-1.4,1.2l-0.3,0.4
	L36.3,3L36.5,3.3z M15.9,76.1l0.4-0.1l0.3,0l0.8,0.1l0.2,0.1l0.1,0.1h0l0.1-0.2l0.1-0.3l0.1-0.3l0.1-0.1l0.3-0.2l0.1-0.2l0.9-0.4
	l0.2-0.2l0.1-0.1l0.1-0.1l0.1-0.1l0-0.1l-0.8-0.2l-1.2-0.8l-0.8,0l-0.4,0.1l-1,0.5L14.6,74l-0.2,0.2l-0.3,0.7L13.5,76l-0.1,0.3
	l-0.2,2.6l0.2,0.5l0.2,0.1l0.4,0.1l0.4,0l0.3-0.1l0.4-0.2l0.7-0.2l0.2-0.2l0.1-0.3l0.1-0.4l0-0.4l-0.2-0.2L16,77.7l0-0.2l0-0.3
	l0-0.2L15.9,77l-0.4-0.2l-0.1-0.1l0.1-0.3L15.9,76.1z M103.7,42.6l-0.2-0.1l-0.1-0.2l0-0.2l0-0.3v-0.2l-0.8-2.7v-0.2l0.1-0.3l0-0.2
	l0-0.2l-0.1-0.3l0-0.2l0.1-0.2l0.2-0.1l0.2-0.1l0.2-0.2l0-0.2l0-0.1l0-0.1l0-0.2l0.1-0.7l-0.1-0.3l-0.2-0.3l-0.1,0l-0.2,0.1l-0.1,0
	l-0.1-0.1l-0.1-0.2l-0.1-0.1l-0.7-0.5l-0.1-0.1l-0.1-0.1l-0.2,0l-0.2,0l-0.2-0.1l-0.3-0.3l-0.5-0.7L99.7,32l-0.6-2L99,29.7l-0.3-0.2
	l-0.4-0.1l-0.2-0.1L97.7,29l-0.2-0.1l-0.2,0l-0.4,0l-0.2,0l-0.2-0.2l-0.2-0.3l-0.1-0.4l0.1-0.3l0.3-0.1l0.3,0.1l0.3,0.1l0.3,0.1
	l0.3,0h0.2l0.2,0.1l1.3,0.7l0.5,0l0.5-0.3l0.2,0l0.6,0.1l0.3,0l0.2-0.1l0.2-0.1l0.4-0.3l0.2-0.3l-0.3-0.2l-1.1-0.4l-1-0.2l-0.3-0.3
	l-0.4-0.1l-1-0.6l-0.8-0.8l-0.3-0.1l-0.2-0.1l-0.2-0.3l-0.3-0.2L96.3,24l-0.3,0l-0.8,0.2l-0.4,0l-0.4,0L94,24.2l-0.3-0.1l-0.5-0.3
	l-0.7-0.5L92.3,23l-1.1-0.7l-0.5-0.4l-0.2-0.3l-0.1-0.3l-0.1-0.2l-1.2-1.5l-0.1-0.2L89,19.1l-0.4,0l-0.5,0.1l-0.3,0l-0.1-0.1
	l-0.1-0.5l-0.1-0.2l-0.2-0.1l-0.2,0l-0.4,0l-0.4,0l-0.4-0.1l-0.4-0.2l-0.3-0.2l-0.5-0.5l-0.2-0.1l-0.2,0.1L84,17.6l-0.1,0.1
	l-0.1,0.1l-0.4,0.5l-0.2,0.1l-0.2,0l-0.4,0l-0.2,0v0.1l0,1.3l0.2,1.2l-0.3,0.2l-1.8,0.2L80,21.7l-0.3,0l-0.3-0.1L79,21.2L78.7,21
	l-0.3-0.1l-0.9-0.1l-0.6-0.2l-0.2,0.1l0,0.7l-0.3,0l-0.6-0.3l-0.2,0l-1.2,0.2l-0.3,0l-0.3-0.1L73.5,21l-0.4-0.4L73,20.5l-0.3-0.1
	l-0.2,0l-0.7,0l-0.5-0.2l-0.7-0.8l-0.6-0.2l-0.3,0.1l-0.9,0.3l-0.4,0L68,19.5l-0.3-0.1l-0.3-0.1l-1.9-0.4l-0.6-0.2l-0.5-0.4
	l-0.2-0.4l-0.1-0.5l-0.2-0.6l-0.1-1.9L63.6,14l-0.7-0.2l-0.6,0.1l-0.7-0.2l-1.2-0.8L60,12.2L59.9,11l-0.5-0.4h-0.4l-1.4,0.5
	l-0.4,0.1h-0.4l-0.4-0.1L56,10.9l-0.2-0.2l0-0.2l0-0.2l-0.1-0.2L55.5,10l-0.1,0l-0.1,0h-0.2l-1.2-0.5l-1.3,0l-0.8-0.4l-2.3-1.8
	l-0.4-0.2l-1.1-0.3l-0.4-0.2l-0.4-0.3l-1.7-1.9l-0.3-0.3l-1-0.2l-0.3,0l-0.3,0.1L43.7,4l-0.4-0.4l-0.1-0.2l0-0.3l-0.2,0l-0.3,0.1
	l-0.3,0L42.1,3l-0.3-0.3l-0.3-0.4L41.3,2l-0.2-0.3l-0.5-0.4l-0.4-0.5l-1-0.7l0,0.2l0.1,0.3l0,0.3l-0.1,0.2l-0.7,0.7l-0.2,0.2
	l-0.1,0.2l0.1,0.2l0.3,0.1l0.4,0l0.3,0.1l0.1,0.3l-0.8-0.3l-0.3,0l-0.3,0.3l-0.1,0.2l0,0.1l0,0.1l-0.2,0.2l-0.2,0.1h-0.1l-0.1-0.1
	l-0.1-0.2l-0.2,0.3L37,3.8l-0.1,0.2l-0.1,0.8l-0.1,0.3l-0.2,0.3l-0.3,0.2l0-0.5l-0.1-0.4l-0.2-0.4L35.5,4l-0.4-0.2L34.8,4l-1.4,1.8
	L33.1,6l-0.5,0.1l-0.5,0.2l-0.5,0.1l-0.4-0.2L31,6.2l-0.2,0l-0.5,0l-0.2,0l-0.4,0.2l-0.2,0l-1.3-0.1l-0.4,0.1l-1.2,1.1L25.9,8
	l-0.8-0.2L24.8,8l-0.2,0.3l0,0.3l0,0.4l0,0.1l-0.1,0.2v0.1l0.1,0.1l0.2,0.2l0.3,0.8L25,10.4l-0.2-0.5l-0.2-0.2l-0.2-0.1l-0.2-0.2
	l-0.1-0.3L24.5,8l0-0.2l-0.1-0.2L23.9,8l-1.1,0.3l-0.4,0.2l-0.1,0.1L22,9l-0.1,0.1l-0.5,0.4l-0.1,0.1L21,9.7L20.6,10L20.1,10
	l-0.4,0.2l-0.3,0l-0.2,0.1l-0.4,0.3l-0.3,0.1l-0.6,0.1l-0.3,0l-0.3-0.1L16.8,11l-0.4,0.6l-0.2,0.8v0.8l0.1,0.3l0.1,0.3l0.2,0.2
	l0.2,0.1l0.3,0l0.3,0.1l0.2,0.2l0.1,0.5l0.1,0.3l0.1,0.4l0,0.4l-0.2,0.3l-0.2,0.2l-0.1,0.2L17.3,17l0.1,0.4l0.1,0.3l0.4,0.7l0.2,0.2
	l0.1,0.2l0,0.2l0,0.2l-0.2,0.3l0,0.2h-0.1l-0.1-0.3l-0.1-0.1l-0.1-0.1l-0.2-0.1l0,0.1v0.2l-0.2,0.5l0,1.4l0.1,0.8l0,0.4l-0.3,0.9
	l0,0.2l-0.1,0.1L17,23.8L17,23.9l-0.2,0.5l-0.1,0.2l-0.1,0.1l-0.1,0l-0.1,0.1l0,0.2l-0.1,0.4l-0.3,0.4l-1.1,0.9L13.8,28l-0.3,0.2
	l-0.4,0.2l-0.4,0.1l-0.3-0.2l-0.4,0.6l-0.5,0.5l-0.1,0.2l-0.1,0.2l0,0.4l0,0.2L11,30.6l-0.3,0.3l-0.6,0.6l-0.4,0.3l-0.3,0.1L9.1,32
	l0.1,0.4l0.6,1l0.3,0.7l0.3,0.4l0.2,0.4l0,0.2l0.1,0.1l0.3,0.3l0.3,0.6l0.2,0.2l0.4,0.1l1.3,0l0.3,0.1v0.1l-1.5,0.1l-0.5,0l-0.3-0.1
	l-0.2-0.2l-0.2-0.3l0-0.2l0-0.2l0-0.1l-0.2,0l-0.2,0.1l-0.2,0.2L10,36.1L10,36.2l-0.1,0.4l-0.7,0.9l-0.4,1l-0.1,0.3L8.7,40l-0.1,0.3
	l-0.7,1.1l-0.2,0.2l-0.2,0.1L7.2,42L6.9,42l-0.2,0l-0.3-0.2l-0.2,0l-0.2,0L6,41.9L5.9,42L5.8,42l-0.2,0l-1.2,0l-0.2,0L4,42.2l-0.2,0
	l-0.2,0l-0.2-0.1l-0.2-0.1l-0.2,0.1L3,42.3l-0.1,0.5l-0.1,0.1l-0.1,0.1l-0.2,0.2l-0.1,0.2l-0.1,0.2l-0.1,0.1l-0.3,0.2l-0.1,0.1
	l-0.1,0.7L2,45.3L2.3,46l2,2.7l0.2,0.7l0,0.3l-0.2,0.5l-0.1,0.2l0,0.2l0,0.5l0,0.2L4,51.5l-0.2,0.1l-0.2,0.1l-0.1,0.1l-0.1,0.2
	l0,0.2l0,0.5L3.4,53l-0.5,0.7l-0.1,0.2l0,0.3l0.1,0.2l0.3,0.3l0.4,1l0.2,0.3L4,56.3l0.2,0.3l0.1,0.3l0.1,0.8L5,59.5l0,0.4L5,60.3
	l-0.4,0.2l-0.1,0.1l0,0.2l0.1,0.1l0.1,0.7l-0.1,0.9l-0.4,0.6l-2,1.5l-0.4,0.2l-0.4,0.1l-0.1-0.1l-0.2-0.3L1,64.5l-0.2,0l-0.5-0.1
	l-0.1,0l0-0.1l-0.1-0.1l-0.1,0L0,64.2l0,0.2l0.1,0.2l0.1,0.1l0.7,0.5l0.2,0.3l0.3,0.4l0.1,0.3l0.1,0.6l0.1,0.2l0.2,0h0.3l0.4,0.2
	l0.8,0.7l0.3,0.1L4.8,68l0.5,0.1l0.5,0.2v-0.1l0.6,0.5L7.9,70l1.9,2.2l0.7,0.4l0.2,0.1l0.3,0l0.1,0l0.1,0.1l0.2,0.2l0.3,0.1l0.8,0.6
	l0.8,0.3l0.4,0.1l0.2-0.2l0-0.4l0-0.2l-0.1-0.1l-0.5-0.5l-0.1,0l-0.1-0.4l0.1-0.3l0.2-0.1l0.3,0.1l0.1,0.1l0.1,0.1l0.1,0.1H14
	l0.2-0.1l0.1-0.2l0.1-0.2l0.6-0.3l0.6-0.6l1.2-1.7l0.8-2l0.2-0.2l0.2-0.1l0.2,0l0.4,0l0.2-0.1l0.2-0.2l0.1-0.1l0.2,0l-0.4,0.6
	l-0.1,0.1l-0.2,0.1l-0.2,0L18,67.6l-0.1,0.2l-0.1,0.4L17.5,69l-0.1,0.4l0.1,0.3l0.3-0.1l0.4-0.2l0.4,0l0.4,0.4l0.2,0.1l0.1-0.4
	l0.1,0.2l0,0.2L19.4,70l-0.2,0.1l-0.2,0L18.8,70l-0.1-0.2l-0.1-0.1l-0.5,0.1L17.9,70l-0.1,0.3l-0.2,0.4l-0.5,0.4l-0.2,0.3l0.1,0.3
	l0.2,0.2l0.1,0l0.4,0l0.1,0L18,72l0.2,0.1l0.3,0l0.6-0.4l0.3-0.1l0.2-0.1l0.5-0.5l0.1-0.2l0.2-0.7l0.3-3.5l0-0.5L20,65l-0.1-0.5
	l0-0.5l0.2-0.7l0.2-0.4l0-0.1l0.1-0.2l0.6,0l0.1-0.1l0-0.3l0-0.2l0.1-0.1l1.1-0.6l-0.1,0.4l-0.3,0.2L21.7,62l-0.1,0.2l-0.1,0.4
	l-0.2,0.1l-0.3,0.1l-0.3,0.3l0.1,0.2l0,0.2l-0.1,0.2l-0.1,0.2l0,0.2l0,0.1l0.1,0.1l0,0.1l0.1,0l0.2,0.3l0,0.1L21,65l0,0.2l-0.1,0.4
	v0.2l0.1,0.8l0,1l0,0.3l0.1,0.2l0.2,0.3l0.3,1l0.2,0.3l0.1,0.1l0.2,0l0.4,0l0.1,0.1l0.3,0.6l0.1,0.8l0,0.4l-0.2,0.3l-0.5,0.5
	L22.2,73l-0.4,1l-0.1,0.4l-0.2,0.4l0,0.1l-0.4,0.7l-0.6,1.8l0,0.3l-0.2,0.7l-0.1,0.4l0.2,0.3l-0.2,0.4l-0.6,1l-0.3,0.6l-0.1,0.7
	l-0.1,0.4L19,82.6l-0.3,0.3l-0.6,0.3L18,83.4l-0.1,0.2l-0.1,0.2l-0.1,0.2l-0.2,0.1l0.1-0.8l-0.1-0.4l-0.4-0.1L16.9,83l-0.7,1.4
	l-0.1,0.1l-0.4,0.5L15.6,85l-0.1,0l-0.1,0l-0.2,0l-1.3,0.3l-0.2,0.1L13,84.8L12.8,85l-0.1,0.6l-0.2,0.2l-0.1-0.4l0.1-0.1l0.2-0.5
	L12.5,85l-0.1,0.3l-0.1,0.2l-0.2,0.1L12,85.8l0,0.1l0,0.1l0.1,0.1l0.3,0.2l0.7,0.2l0.3,0.2l0,0.3l-0.1,0.4l0,0.4l0.1,0.1l0.3,0.1
	l0.1,0.1l0,0.2v0.2l0,0.3l-0.1,0.5v0.1l0.1,0.1l0.2,0.1l0.2,0.1l0,0.2l0,0.2l0.1,0.3l0,0.2l0,0.2L14.2,91l0,0.2v0.2l0,0.1l0.1,0.3
	l0,0.2l-0.1,0.1l-0.1,0.1l0,0.1l0.1,0.4l0.4,0.6l0.2,0.4l0,0.2v0.3l0,0.2l0.2,0.2l0.2,0.1l0.1,0.1v0.2l-0.3,0.3l-1.4,0.6l-0.3,0.3
	L13,96.6L12.7,97l-0.4,0.2L12,97.1l-0.8-0.4l-0.4-0.1l-0.4,0l-0.4,0l-0.3,0.1l-0.3,0.2l-0.2,0.3l-0.2,0.4L9,98.1l0,0.3L9,98.6
	L9.3,99l0.1,0.2l0,0.2l-0.1,0.3v0.2l0.4,0.8l0.6,0.1l0.8-0.2l0.8-0.1l-0.2,0.4L9.4,104l-0.1,0.3l0.2,0.4l0.2,0.2l0.8,0.5l0.3,0.1
	h0.3l0.1,0l0.2-0.2l0.7-0.4l1.4-1l0.3-0.3l0.1-0.3l0.2-0.6l0.2-0.3l0.2-0.1l0.2-0.1l0.2-0.1l0.7-0.1l0,0l0.1,0.2l0.3,0.1l0.4,0.1
	l0.3,0.1l0.3,0.3l0.6,0.6l0.4,0.3l0.5,0.3l0.5,0.1h0.5l0.5,0.1l0.5,0.4l0.4,0.6l0.4,0.5l0.7,0.1l1.2-0.4l0.6-0.4l0.6-0.1l0.5,0.2
	l0.9,0.9l0.1,0.1l0.3,0.2l0.1,0.1h0.4l0.4,0.2l0.1,0.2l0,0.3l-0.4,0.7l0,0.4l0.5,0.8l0.2,1.1l0.5,0.9l0.1,0.4l0.1,0.4l0.3,0.3
	l0.4,0.2l0.3,0.2l0.1,0.2l0.1,0.4l0.1,0.2l0.2,0.1l0.3,0.1l0.2,0.1l0.2,0.3l0.2,0.4l0.2,0.3l0.4,0.1l1.3,0l0.3,0.1l0.6,0.2l0.3,0.1
	h0.2l0.3-0.1l0.2,0l0.2,0.1l0.2,0.1l0.3,0.3l0.5-0.4l0.5-0.5l0.1-0.4l0.2-0.9l0.2-0.3l0.4-0.1l0.5,0l0.4-0.1l0.2-0.4l-0.1-0.4
	l-0.4-0.8l0-0.5l0.2-0.5l0.3-0.5l0.8-0.8l0.7-0.4l1.6-0.7l0.7-0.5l0.2-0.3l0-0.4l0-0.3l0-0.3l0.3-0.4l0.3-0.3l0-0.3l-0.4-0.3
	l-0.2-0.3l-0.1-0.7l0-0.7l0.1-0.4l0.3-0.3l0.2-0.3l0.2-0.8l1.1-2.3l0.2-0.8l0-1.1l0.1-0.3l0.2-0.2l0.2-0.1l0.2,0l0.2-0.1l0.2-0.1
	l0.1-0.1v-0.1l0.2-1.3l0.1-0.3l0.2-0.3l0.1-0.1l0.2-0.1l0.1-0.1l0.4-0.4l0.1-0.3l-0.2-1.2v-0.2l0-0.1l0.1,0l0.2,0l0.1-0.1l0-0.2
	l-0.1-0.4l0-0.6l0-0.3l0.1-0.4l0.3-0.7l0.3-0.8l0.1-0.8l0-0.2l-0.1-0.4l0-0.1l0.2-0.3l0.3-0.1l0.4,0l0.8,0.2l0.2,0.2l0.1,0.3
	l0.3,1.2l0.2,0.3l0.2-0.1l0.3-0.2l0.3-0.1l0.3-0.1l0.2-0.4l0-0.5L51,86.5l-0.3-0.2l-0.2-0.3v-0.4l0.2-0.2l0.7-0.5l0.2-0.3l0.5-1.1
	l0.3-0.3l0.9-0.7l1.8-2.4l1.3-1.1l0.3-0.2l1.2-0.4l2.3-0.8l2.3-0.8l2.3-0.8l2.3-0.8l2.3-0.8l2.3-0.8l2.3-0.8L76,72l1.7-0.6l1.1-0.6
	l1-0.8l1.1-0.8l1.1-0.8l1.1-0.8l1.1-0.8l1.1-0.8l1.1-0.8l1.1-0.8l1.1-0.8l0.9-1l0.9-1l0.9-1l0.9-1l0.9-1l0.9-1l0.9-1l0.9-1l0.7-0.8
	l1-0.9l0.4-0.5l0.2-0.6l0.3-1l0.5-2.1l0.5-2.1l0.5-2.1l0.5-2.1l0.2-0.9l0.1-0.2l0.5,0.5l0.3,0.3l0.1,0.2l0.2,0.1l0.4,0l0.8-0.1h0.8
	l0.1,0v-0.1L103.7,42.6z M406.1,274.9l0.2,0.3l0.2-0.1v-0.3l-0.2-0.1L406.1,274.9z"/>
</svg>
