
<svg width="144px" height="116px" viewBox="0 0 144 116" version="1.1" xmlns="http://www.w3.org/2000/svg" xmlns:xlink="http://www.w3.org/1999/xlink">
    <g id="Page-1" stroke="none" stroke-width="1" fill="none" fill-rule="evenodd">
        <g id="ES-EPS-01-0001" transform="translate(-242.000000, -134.000000)" fill="#7F807C">
            <path d="M375.520883,170.069874 L375.747845,169.828121 L378.041031,168.774207 L379.506803,167.834006 L379.622364,167.805809 L379.749018,167.805809 L379.850249,167.777612 L379.892314,167.663438 L379.907105,167.563594 L380.077673,167.406431 L380.133604,167.378696 L380.248241,167.33617 L380.333293,167.249731 L380.404479,167.150811 L380.490918,167.064834 L380.603705,167.022769 L380.959632,166.964989 L381.402923,166.780092 L382.926013,165.655455 L383.524617,165.028654 L384.363126,164.502159 L384.550334,164.302008 L384.690856,163.917885 L384.97606,163.433916 L385.018586,163.134845 L384.96173,163.020671 L384.748636,162.849641 L384.705648,162.765051 L384.690856,162.664744 L384.634,162.351806 L384.592398,162.251499 L384.521213,162.009746 L384.564664,161.696808 L384.578069,161.355211 L384.435698,161.026556 L384.27946,160.899439 L383.894874,160.656762 L383.70859,160.457535 L383.638329,160.186661 L383.652659,159.816866 L383.751116,159.246921 L383.879158,158.919191 L384.021991,158.805017 L385.132298,158.847543 L385.317657,158.93352 L385.403172,158.77682 L385.503479,158.690843 L385.588532,158.578056 L385.630596,158.349246 L385.674047,158.192545 L385.943996,157.652183 L385.674047,157.467286 L385.531676,157.437703 L385.417964,157.551877 L385.346316,157.551877 L385.20487,157.338783 L384.933071,157.35265 L384.676527,157.395176 L384.564664,157.281002 L384.521213,157.140018 L384.3206,156.810902 L384.264668,156.612137 L384.264668,156.42724 L384.3206,156.085643 L383.552352,156.214146 L383.252819,156.228013 L382.968539,156.198892 L382.741116,156.127707 L382.598283,156.042192 L382.484571,155.928942 L382.398594,155.786109 L382.328333,155.615542 L382.256223,155.601674 L381.927569,155.587345 L381.814781,155.557761 L381.614168,155.686265 L381.244836,155.543894 L380.87458,155.828636 L380.689682,155.857295 L380.490918,155.857295 L380.305096,155.871162 L380.120199,155.971469 L379.778602,156.298736 L379.593705,156.41291 L379.351027,156.455437 L378.910048,156.384714 L378.6817,156.399043 L378.481549,156.497963 L377.998505,156.868682 L377.912528,156.997185 L378.012834,157.281002 L378.153818,157.437703 L378.153818,157.509813 L377.854747,157.52368 L377.599127,157.481154 L377.073095,157.310586 L376.859076,157.310586 L376.774024,157.395176 L376.673255,157.652183 L376.601607,157.722907 L376.487895,157.722907 L376.360779,157.68038 L376.133355,157.551877 L375.918412,157.495483 L375.704394,157.324453 L375.534751,157.082238 L375.448773,156.840485 L375.264801,156.840485 L374.907949,156.768375 L374.253414,156.455437 L374.109194,156.341263 L373.795793,156.170233 L373.440791,156.214146 L372.743266,156.42724 L372.201518,156.356517 L372.016158,156.441107 L371.959303,156.527547 L371.873788,156.754508 L371.817856,156.840485 L371.546058,157.053579 L371.361623,157.252806 L371.232657,157.338783 L371.048684,157.381309 L370.749613,157.409506 L370.592451,157.381309 L370.451004,157.296719 L370.222194,157.109973 L370.108482,156.868682 L369.966112,156.298736 L369.809874,156.042192 L369.639306,155.957139 L369.424363,155.943272 L369.152564,155.885491 L368.513282,155.444974 L368.27153,155.344667 L367.572618,155.244823 L367.359524,155.160232 L367.359524,155.117706 L367.345195,155.073793 L367.316998,155.045596 L367.288339,155.031267 L367.174627,155.160232 L367.046124,155.216164 L366.903753,155.216164 L366.776174,155.173638 L366.746591,155.131573 L366.718394,155.117706 L366.690659,155.131573 L366.647208,155.173638 L366.520092,155.587345 L366.149835,155.744045 L365.437519,155.842965 L365.379739,155.914613 L365.338137,155.999665 L365.266951,156.085643 L365.138448,156.156366 L365.052933,156.170233 L364.369276,156.085643 L364.241235,155.985336 L364.241235,155.800439 L363.913504,155.288274 L364.098401,155.202297 L364.169125,155.188429 L364.397473,155.031267 L364.354946,154.789976 L364.155257,154.618022 L363.899175,154.647605 L363.941701,154.475651 L364.126598,154.147921 L364.126598,154.091527 L364.027216,154.020804 L364.041546,153.878433 L364.098401,153.721733 L364.155257,153.621426 L363.985614,153.408332 L363.798868,152.880913 L363.585774,152.581842 L363.38701,152.225915 L363.286241,152.169522 L363.186859,152.169522 L363.130003,152.111741 L363.172529,151.898647 L362.901655,151.826537 L361.507531,151.826537 L361.12202,151.955041 L360.993979,151.941174 L360.795214,151.798341 L360.680578,151.585247 L360.595526,151.342569 L360.480889,151.129475 L360.281663,150.944578 L360.039447,150.872468 L359.070587,150.801745 L358.986921,150.744427 L358.800174,150.587727 L358.701717,150.5452 L358.586156,150.587727 L358.486774,150.673242 L358.373987,150.730097 L358.244559,150.673242 L358.060586,150.502674 L357.959355,150.431026 L357.61822,150.30391 L357.135176,150.018706 L356.935487,149.990047 L356.721469,150.004838 L356.522242,149.960925 L356.137656,149.804687 L355.937967,149.790358 L355.624566,149.818555 L355.368484,149.918399 L355.311628,150.147209 L355.340287,150.474477 L355.183125,150.900665 L355.311628,151.071695 L355.225651,151.143805 L355.183125,151.214066 L355.111939,151.370766 L355.270026,151.428546 L355.41101,151.599576 L355.482196,151.826537 L355.466942,152.083544 L355.368484,152.240245 L355.225651,152.296638 L354.826735,152.240245 L353.418282,152.282309 L353.231535,152.197718 L352.805348,152.311892 L352.577,152.326222 L352.348652,152.282309 L352.291334,152.225915 L352.277929,152.169522 L352.277929,152.097412 L352.250194,152.041018 L351.936793,151.770144 L351.73618,151.840867 L351.537878,152.041018 L351.224477,152.482922 L351.052985,152.511119 L350.882418,152.296638 L350.640202,151.869988 L350.455305,151.784011 L349.856701,151.627773 L349.672266,151.655508 L349.457785,151.798341 L348.760723,151.898647 L347.892169,152.225915 L347.493253,152.268441 L347.050887,152.097412 L346.980164,152.025764 L346.923308,151.941174 L346.837793,151.869064 L346.69496,151.826537 L346.582173,151.770144 L346.553051,151.669837 L346.539646,151.555663 L346.467537,151.471073 L346.282177,151.314372 L346.139806,151.086024 L346.068621,150.816075 L346.09728,150.5452 L345.897591,150.631177 L345.569861,150.715768 L345.271252,150.673242 L345.142286,150.3885 L344.459554,149.975255 L344.288986,149.818555 L344.231206,149.975255 L344.146153,150.089429 L344.061563,150.117626 L343.961256,150.018706 L343.420432,150.445356 L343.149558,150.601594 L342.807498,150.631177 L342.195489,150.345974 L341.909823,150.345974 L341.896417,150.715768 L341.796111,150.744427 L341.611214,150.872468 L341.525236,150.886798 L341.411525,150.816075 L341.411525,150.730097 L341.426317,150.629791 L341.354669,150.5452 L341.312605,150.530871 L341.126321,150.530871 L341.055136,150.502674 L341.055136,150.445356 L341.083795,150.37417 L341.069465,150.302523 L340.628948,149.719172 L340.428334,149.54768 L340.045597,149.305927 L339.930961,149.29206 L339.816325,149.305927 L339.703538,149.29206 L339.589826,149.177886 L339.531121,149.035515 L339.545451,148.950463 L339.589826,148.878353 L339.589826,148.764179 L339.375807,148.223817 L339.077199,148.12351 L338.20772,148.280211 L337.310044,148.209487 L336.883857,148.067117 L336.484941,147.768046 L336.34257,147.611345 L336.156286,147.554489 L335.757371,147.511501 L335.673243,147.440315 L335.486497,147.326141 L335.388039,147.283615 L334.960926,147.326141 L334.589283,147.02707 L334.206084,146.813976 L333.550624,146.699802 L333.337067,146.571299 L333.152633,146.343876 L333.094852,146.130782 L333.180829,145.93063 L333.422582,145.731404 L333.166962,145.660681 L332.909955,145.760063 L332.710266,145.974081 L332.624751,146.287482 L332.596555,146.685473 L332.496248,146.899954 L332.297021,146.970677 L331.983621,146.94248 L331.712746,146.87037 L331.456202,146.727999 L331.256975,146.500576 L331.115066,146.158978 L331.215373,146.030937 L331.684549,145.532177 L331.827383,145.333413 L331.99795,144.848058 L332.126916,144.235586 L332.083003,143.667027 L331.755273,143.32543 L331.614289,143.32543 L331.485323,143.367956 L331.357744,143.381824 L330.887643,143.139146 L330.530791,143.040226 L330.303368,143.040226 L330.1328,143.139146 L330.047748,143.41002 L329.976562,143.552391 L329.848521,143.624501 L329.705688,143.638368 L329.576722,143.624501 L329.434814,143.552391 L329.377958,143.481668 L329.291518,143.210794 L329.277651,143.068423 L329.305848,142.982446 L329.305848,142.911723 L329.193061,142.825746 L328.979042,142.727288 L328.87966,142.712958 L328.651312,142.811878 L328.409097,142.840075 L328.281056,142.911723 L328.153014,142.926052 L328.096159,142.797549 L328.052708,142.498478 L327.911724,142.313581 L327.583994,142.15688 L327.583994,141.971983 L327.598785,141.644715 L327.669046,141.217141 L327.469357,141.102504 L327.056112,141.316985 L326.629924,141.701109 L326.173229,141.915589 L326.245338,141.986313 L326.344721,142.100487 L326.415906,142.142551 L326.259668,142.256725 L326.173229,142.185077 L326.088176,142.028377 L325.945343,141.914203 L325.774775,141.914203 L325.646734,141.971983 L325.390189,142.142551 L324.592358,142.441622 L324.350143,142.470281 L324.208697,142.512807 L323.880966,142.769352 L323.794989,142.740693 L323.76633,142.669507 L323.738133,142.598322 L323.681278,142.570125 L323.610092,142.584455 L323.554161,142.626981 L323.511634,142.655178 L323.481589,142.669507 L323.339218,142.626981 L323.24076,142.512807 L323.153859,142.399558 L323.082673,142.341777 L322.955556,142.356107 L322.5853,142.455951 L322.085153,142.512807 L321.602109,142.455951 L321.146338,142.313581 L320.049436,141.800953 L319.836342,141.459356 L319.579797,141.359511 L319.095829,141.259205 L318.440369,140.974463 L318.08398,140.90374 L317.956401,140.847346 L317.828359,140.803433 L317.699856,140.832092 L317.643,140.88941 L317.629595,140.974463 L317.629595,141.06044 L317.615265,141.131163 L317.528364,141.415905 L317.485375,141.473685 L317.442849,141.146417 L317.316194,140.761369 L317.215425,140.590339 L316.988464,140.362916 L316.745787,140.190962 L316.602954,140.162765 L316.404651,140.234412 L316.161512,140.333795 L315.619763,140.391575 L315.036875,140.362916 L314.751671,140.391575 L314.566774,140.504362 L314.566774,140.604669 L314.637497,140.604669 L314.637497,140.803433 L314.4526,140.861214 L313.954302,141.160285 L313.826261,141.316985 L313.669561,141.359511 L313.613167,141.430235 L313.613167,141.488015 L313.683428,141.602189 L313.725954,141.787086 L313.855845,142.15688 L313.855845,142.271054 L313.299767,141.787086 L312.94384,141.558738 L312.687295,141.758427 L312.472814,141.729306 L311.960187,141.572605 L311.705029,141.273534 L311.590855,141.202811 L311.448022,141.174614 L310.93447,140.975388 L310.237408,140.875543 L309.695197,140.690646 L309.539884,140.661987 L309.198286,140.761369 L309.040661,140.74704 L308.913545,140.562143 L308.75592,140.847346 L308.656538,140.775236 L308.528496,140.604669 L308.300611,140.562143 L308.48597,140.461836 L308.571485,140.377245 L308.614011,140.291268 L308.656538,140.206216 L308.75592,140.234412 L308.870556,140.305136 L308.913545,140.347662 L308.997673,140.319465 L309.06932,140.333795 L309.112309,140.319465 L309.127101,140.177094 L309.112309,140.078174 L309.06932,139.992197 L309.012465,139.935341 L308.229425,139.792971 L308.128656,139.73519 L308.002002,139.608073 L307.844839,139.493899 L307.646075,139.47957 L307.660404,139.208696 L307.375201,139.194828 L306.506184,139.46524 L306.378605,139.536426 L306.263044,139.6506 L306.135928,139.73519 L305.809122,139.764774 L305.680156,139.821167 L305.766133,139.935341 L305.722683,139.949671 L305.708815,139.949671 L305.694486,140.034261 L305.608509,139.977868 L305.537323,139.964 L305.381085,139.935341 L305.381085,140.034261 L305.452733,140.106371 L305.523918,140.248742 L305.551653,140.391575 L305.509126,140.461836 L305.409744,140.41931 L305.308975,140.263071 L305.210517,140.234412 L305.167991,140.276939 L305.009904,140.490495 L304.939643,140.562143 L304.769076,140.646733 L304.668769,140.661062 L304.541652,140.661062 L304.541652,140.590339 L304.555519,140.576472 L304.583716,140.576472 L304.626243,140.562143 L304.569849,140.533946 L304.512069,140.490495 L304.397895,140.347662 L304.555519,140.177094 L304.769076,140.034261 L305.266911,139.8073 L304.95351,139.594206 L304.611913,139.522096 L304.270316,139.594206 L303.943048,139.792971 L303.885267,139.721323 L303.857071,139.706993 L303.7147,139.792971 L303.52934,139.73519 L303.331038,139.821167 L302.945528,140.106371 L302.945528,140.204829 L303.045372,140.291268 L303.101766,140.319465 L303.031043,140.333795 L302.974649,140.333795 L302.917331,140.347662 L302.859551,140.41931 L302.589601,140.220545 L302.503624,140.190962 L302.419033,140.220545 L302.405166,140.291268 L302.390836,140.362916 L302.318727,140.405442 L301.807024,140.405442 L301.535225,140.447969 L300.824296,140.675392 L300.510895,140.917607 L299.099668,141.074308 L298.573635,141.017914 L298.458999,141.074308 L298.346212,141.273534 L298.274102,141.273534 L298.061008,141.06044 L297.747607,140.974463 L297.434669,141.032243 L297.191529,141.259205 L296.89292,140.960134 L294.329784,140.733172 L294.101436,140.661062 L293.175564,140.220545 L292.365252,140.048591 L292.108707,139.907144 L291.979742,139.877561 L291.8517,139.907144 L291.695462,140.048591 L291.608561,140.078174 L290.812579,139.835497 L290.669283,139.921474 L290.556034,139.721323 L290.28516,139.6506 L289.302894,139.608073 L288.917383,139.46524 L288.106147,138.923954 L287.921712,138.853231 L287.451149,138.810705 L287.279657,138.838901 L287.222801,138.923954 L287.194604,139.023798 L287.110014,139.124105 L286.99584,139.180499 L286.753162,139.266476 L286.638526,139.337199 L286.568265,139.237355 L286.767954,139.051995 L286.9094,138.810705 L286.881666,138.596686 L286.539606,138.497304 L284.260749,138.596686 L283.677861,138.497304 L283.548433,138.22643 L283.46338,138.154782 L283.406987,138.38313 L283.336264,138.38313 L283.121783,138.055862 L282.495444,137.314887 L282.252766,137.101793 L281.88251,136.915971 L281.697613,136.901642 L281.625965,137.044013 L281.569109,137.22891 L281.441068,137.300557 L281.071274,137.300557 L281.099471,137.343084 L281.127667,137.457258 L281.157251,137.514113 L281.013494,137.684681 L281.05602,137.813185 L281.127667,137.927359 L281.071274,138.069729 L279.760353,138.069729 L279.574994,138.154782 L279.404889,138.282823 L279.233859,138.354933 L279.048962,138.268956 L278.876545,138.369263 L277.994586,138.268956 L277.852215,138.212562 L277.49675,137.941688 L277.34005,137.969885 L277.254073,138.055862 L277.183812,138.140452 L276.912475,138.212562 L276.613404,138.354933 L276.442374,138.38313 L275.8581,138.38313 L275.275211,138.497304 L275.117124,138.453853 L274.847637,138.297153 L274.690936,138.268956 L274.719596,138.340604 L274.747792,138.511633 L274.76166,138.582357 L274.476456,138.582357 L274.349339,138.610553 L274.235165,138.696531 L273.82192,138.468183 L273.237645,138.255089 L272.668624,138.198233 L272.042285,138.525501 L271.743214,138.497304 L271.273113,138.354933 L270.589918,138.411327 L270.417964,138.354933 L269.307657,138.397459 L268.652659,138.53983 L268.552352,138.909625 L268.396576,139.023798 L268.325391,139.237355 L268.281016,139.493899 L268.210755,139.750906 L268.140031,139.750906 L268.040187,139.47957 L268.097967,139.266476 L268.210755,139.080192 L268.295807,138.909625 L268.281016,138.596686 L268.153899,138.497304 L267.95421,138.468183 L267.827093,138.369263 L267.640809,138.482974 L266.943285,138.511633 L266.51571,138.439986 L266.288749,138.354933 L266.116795,138.354933 L265.975348,138.411327 L265.889371,138.497304 L265.803394,138.53983 L265.648081,138.468183 L265.648081,138.297153 L265.718341,138.255089 L265.746538,138.212562 L265.775197,138.154782 L265.818648,138.084059 L265.278286,137.813185 L264.564121,136.816589 L264.109736,136.461124 L263.169997,135.933243 L263.041493,135.890717 L262.599589,135.832936 L262.442889,135.905046 L262.328715,136.01922 L262.230257,136.104273 L262.086962,136.047417 L261.987118,136.275303 L261.844747,136.474992 L261.745365,136.517518 L261.774024,136.260511 L261.48882,135.720149 L261.446293,135.505669 L261.247067,135.605975 L261.175881,135.620305 L261.090367,135.648502 L261.076037,135.720149 L261.076037,135.790872 L261.061707,135.832936 L260.961863,135.876849 L260.87681,135.890717 L260.819492,135.819069 L260.819492,135.592108 L261.076037,135.264378 L261.118563,135.178401 L261.090367,135.0217 L261.004852,134.907526 L260.919799,134.865 L260.87681,134.92278 L260.805163,135.164533 L260.606398,135.392881 L260.363721,135.563449 L259.908412,135.676698 L259.680526,135.80474 L259.480837,135.975769 L259.324137,136.146799 L259.352334,136.204117 L259.381455,136.318291 L259.409652,136.360818 L259.12491,136.260511 L258.982539,136.260511 L258.854498,136.346488 L259.068054,136.688086 L258.96821,136.802722 L258.398264,136.773138 L258.398264,136.674218 L258.455583,136.660351 L258.484242,136.646022 L258.555427,136.574374 L258.64048,136.646022 L258.683468,136.660351 L258.79718,136.574374 L258.725995,136.459738 L258.725995,136.332621 L258.78285,136.19025 L258.868365,136.061747 L258.925683,136.089943 L259.039395,136.11814 L259.110118,136.161591 L259.110118,136.061747 L258.939551,135.848653 L258.854498,135.577778 L258.725995,135.348968 L258.412594,135.306442 L258.184708,135.605975 L257.900429,135.86252 L257.587028,136.047417 L257.244969,136.147724 L256.860383,136.147724 L256.689353,136.19025 L256.618167,136.318291 L256.575641,136.503188 L256.518785,136.674218 L256.546982,136.844786 L256.760538,137.015816 L256.703682,137.044013 L256.646826,137.101793 L256.6043,137.12999 L256.6043,137.22891 L256.632959,137.244164 L256.746671,137.22891 L256.618167,137.28669 L256.490588,137.272823 L256.390282,137.186383 L256.347755,137.015816 L254.696162,138.282823 L254.367969,138.453853 L254.097557,138.411327 L254.026372,138.439986 L253.826683,138.411327 L253.784619,138.411327 L253.770289,138.582357 L253.826683,138.739057 L253.912198,138.867098 L253.998175,138.953075 L253.855804,139.166169 L253.727301,139.109776 L253.669983,139.351529 L253.627919,139.678797 L253.542404,139.921474 L254.040702,139.907144 L254.268587,139.821167 L254.397091,139.622403 L254.51034,139.693126 L254.553791,139.736577 L254.468276,139.778641 L254.439155,139.8073 L254.397091,139.863694 L255.080748,139.750906 L255.33683,139.636732 L255.393686,139.6506 L255.408016,139.764774 L255.365027,139.863694 L255.279512,139.935341 L255.193997,139.964 L254.054569,140.120238 L253.841475,140.291268 L254.026372,140.362916 L254.296784,140.661987 L254.496473,140.733172 L254.881059,140.704513 L255.080748,140.733172 L255.307709,140.847346 L255.094615,140.989717 L254.966112,141.102504 L254.909256,141.244875 L254.909256,141.488015 L254.994771,141.957654 L254.994771,142.199407 L254.909256,142.455951 L254.823741,142.213274 L254.710029,142.056574 L254.453947,141.800953 L254.382761,141.630386 L254.339773,141.459356 L254.268587,141.316985 L254.111887,141.259205 L253.784619,141.046111 L253.556271,141.004047 L253.456889,141.202811 L253.485086,141.572605 L253.442559,141.715438 L253.300189,141.886006 L253.043644,141.658582 L252.944262,141.501882 L252.901735,141.302656 L252.289264,141.459356 L252.218078,141.516212 L252.188957,141.586935 L252.146893,141.644715 L251.890348,141.730692 L251.776174,141.815283 L251.690659,141.929457 L251.647671,142.07229 L251.548288,142.17121 L250.950146,142.455951 L250.566022,142.284921 L250.138448,142.413887 L249.739995,142.640848 L249.426594,142.755485 L249.212575,142.727288 L248.771134,142.584455 L248.571907,142.556258 L248.37268,142.470281 L248.016753,142.100487 L247.874383,142.014509 L247.745879,142.044093 L247.660364,142.114354 L247.574849,142.228528 L247.219385,142.327448 L246.734492,142.655178 L246.27872,142.855329 L246.165471,142.869659 L246.079956,142.911723 L246.179338,142.9977 L246.321709,143.068423 L246.379027,143.068423 L246.549595,143.41002 L246.678098,143.495998 L246.919851,143.481668 L246.720625,143.638368 L246.421553,143.753005 L246.12202,143.766872 L245.908926,143.580588 L245.823873,143.580588 L245.766555,143.809398 L245.652381,144.022492 L245.510473,144.19306 L245.368102,144.321563 L245.225269,144.379344 L245.02558,144.42187 L244.826816,144.42187 L244.399241,144.236973 L244.029447,144.435737 L243.488161,144.948364 L243.587543,145.219239 L243.744243,145.233106 L244.099708,145.048671 L244.085841,145.191042 L244.2712,145.204909 L244.527745,145.147591 L244.726509,145.048671 L244.726509,145.161458 L244.527745,145.191042 L244.44223,145.219239 L244.356715,145.261303 L244.256408,145.34728 L244.214344,145.418003 L244.186147,145.504443 L244.128829,145.589033 L243.958262,145.731404 L243.815891,145.77393 L243.673058,145.731404 L243.502028,145.589033 L243.445172,145.77393 L243.316669,145.873775 L243.188627,146.002278 L243.131771,146.287482 L243.046256,146.429853 L242.903886,146.429853 L242.804503,146.514443 L242.889556,146.886086 L243.060586,147.013203 L243.146101,147.09918 L243.103575,147.241551 L243.060586,147.326141 L243.01806,147.440315 L242.989401,147.568819 L242.975071,147.668663 L242.747185,148.309794 L242.676,148.452165 L242.676,148.551085 L242.775382,148.651392 L242.889556,149.006856 L242.946874,149.049383 L243.01806,148.907012 L243.131771,148.593611 L243.217286,148.466494 L243.316669,148.380517 L243.445172,148.295465 L243.558884,148.309794 L243.60141,148.509021 L243.61574,148.551085 L243.716046,148.522888 L243.786769,148.436911 L243.716046,148.266343 L243.716046,148.167423 L243.857955,148.223817 L244.029447,148.509021 L244.128829,148.579282 L244.328056,148.593611 L244.413108,148.651392 L244.4279,148.750312 L244.413108,148.892682 L244.385374,148.978659 L244.285529,149.092833 L244.256408,149.149689 L244.2712,149.235666 L244.328056,149.434431 L244.342848,149.548605 L244.555941,149.633658 L244.712642,149.733502 L244.798157,149.904532 L244.726509,150.061232 L244.640994,150.175406 L244.54115,150.2318 L244.399241,150.2318 L244.513415,150.502674 L244.569809,150.744427 L244.640994,150.944578 L244.798157,151.071695 L245.011713,151.115146 L245.154084,151.043498 L245.410166,150.758294 L245.368102,150.502674 L245.609855,150.459223 L246.179338,150.5452 L246.478409,150.502674 L246.734492,150.3885 L246.905522,150.175406 L246.94851,149.818555 L247.190263,149.947058 L247.219385,150.203603 L247.148199,150.445356 L247.077014,150.559068 L246.805677,150.631177 L246.63511,150.787878 L246.350368,151.200198 L246.022638,151.385096 L245.994441,151.414217 L245.865938,151.456743 L245.780423,151.570917 L245.723567,151.669837 L245.595988,151.854734 L245.52434,152.168135 L245.481352,152.481535 L245.495681,152.667819 L245.353773,152.89478 L245.197072,153.294158 L245.139754,153.663953 L245.310784,153.83452 L245.566866,153.949156 L245.624185,154.204777 L245.652381,154.489518 L245.823873,154.675802 L245.980112,154.475651 L246.065626,154.390598 L246.165471,154.362401 L246.250524,154.019879 L246.27872,153.934827 L246.691965,153.821115 L246.820007,153.706479 L246.663306,153.507252 L247.034025,153.222511 L247.190263,153.151787 L247.133407,153.308488 L247.290108,153.436529 L247.418611,153.350552 L247.660364,152.994625 L247.546652,152.866584 L247.574849,152.681687 L247.745879,152.268441 L247.902579,152.481535 L248.016753,152.724213 L248.159124,152.92344 L248.37268,153.009417 L248.571907,152.937307 L248.729069,152.766739 L248.842319,152.524986 L248.927834,152.282309 L248.999019,152.282309 L248.913504,152.624368 L248.500722,153.564108 L248.358351,153.74993 L248.21598,153.792456 L248.073609,153.90663 L247.973765,154.091527 L247.931238,154.318951 L247.945568,154.589825 L248.087939,155.116319 L247.945568,155.230493 L247.945568,155.401061 L247.973765,155.572091 L247.931238,155.728791 L247.817064,155.772242 L247.646497,155.743121 L247.489797,155.671935 L247.390414,155.600288 L247.546652,155.501368 L247.546652,155.358997 L247.446808,155.230493 L247.304899,155.188429 L247.133407,155.230493 L246.905522,155.3308 L246.691965,155.458841 L246.606913,155.615542 L246.691965,155.671935 L247.077014,155.743121 L247.21846,155.828636 L247.304899,155.985336 L247.361293,156.27054 L247.4616,156.441107 L247.73155,156.612137 L248.102268,156.654201 L248.457733,156.626004 L248.70041,156.555743 L248.857111,156.455437 L249.14139,156.228013 L249.383605,156.071313 L249.412727,156.042192 L249.454791,156.027862 L249.554173,156.013995 L249.668809,156.056059 L249.753862,156.056059 L249.853706,155.999665 L249.768191,156.228013 L249.611491,156.384714 L249.240772,156.626004 L249.042008,156.797034 L248.614433,157.310586 L248.528918,157.509813 L248.472525,157.551877 L248.05928,157.452032 L247.902579,157.481154 L247.860053,157.52368 L247.88825,157.594403 L247.916909,157.722907 L247.916909,158.221204 L247.845723,158.335378 L247.689023,158.093625 L247.617838,158.093625 L247.617838,158.306719 L247.503664,158.648317 L247.4616,158.833214 L247.674231,158.762491 L248.272836,158.805017 L248.401339,158.77682 L248.528918,158.648317 L249.14139,158.363575 L249.369276,158.306719 L249.65448,158.192545 L249.81118,157.921671 L249.939221,157.637854 L250.110251,157.480229 L250.210095,157.452032 L250.25216,157.4659 L250.266951,157.566206 L250.266951,158.036307 L250.223963,158.164348 L250.152777,158.235072 L249.924429,158.391772 L249.725665,158.477749 L249.369276,158.819346 L249.31242,158.847543 L249.170511,158.905324 L248.571907,159.361095 L248.358351,159.630583 L248.301033,159.674496 L248.187321,159.745219 L248.130465,159.88759 L248.102268,160.02996 L248.074071,160.100684 L247.775,160.257384 L247.717682,160.315164 L247.760209,160.414084 L247.973765,160.514391 L248.031083,160.628565 L247.945568,160.770936 L247.73155,160.827329 L247.275778,160.827329 L247.148199,160.927636 L247.11954,161.197586 L247.347426,164.159638 L247.318767,164.374118 L247.503664,164.444379 L247.689023,164.287679 L247.874383,164.074585 L248.05928,164.003862 L248.287165,163.932214 L248.500722,163.761184 L248.671751,163.534223 L248.799793,163.277216 L248.913504,163.177372 L249.170511,163.048868 L249.46912,162.963815 L249.696544,162.807115 L249.782059,162.650877 L249.896695,162.323147 L249.996077,162.166447 L250.195766,162.024076 L250.394993,161.981549 L250.808238,161.966295 L251.021332,161.881705 L251.405918,161.610369 L251.619474,161.525778 L253.371374,161.241037 L253.556271,161.14073 L253.841475,160.869856 L253.940857,160.799132 L254.026372,160.784803 L254.225599,160.770936 L254.439155,160.684958 L254.781677,160.443668 L254.881059,160.586038 L254.980441,160.813 L254.952244,161.467998 L254.994771,161.710675 L255.137141,161.823925 L255.322501,161.809595 L255.521727,161.710675 L255.763943,161.696808 L255.977499,161.781398 L256.148529,161.951966 L256.233581,162.180776 L256.205385,162.450264 L256.091211,162.636548 L255.906313,162.793248 L255.579046,163.006342 L255.251315,163.334072 L254.809874,163.988608 L254.696162,164.259482 L254.68137,164.544686 L254.809874,164.81556 L255.208327,164.97226 L255.293842,165.085048 L255.307709,165.285199 L255.265645,165.683652 L256.248373,165.741432 L256.760538,165.598599 L257.131257,165.213551 L257.244969,165.028654 L257.387339,164.886283 L257.54404,164.81556 L257.729399,164.843757 L257.942955,164.843757 L258.0428,164.64453 L258.099193,164.387986 L258.156511,164.217418 L258.384397,164.130979 L258.412594,164.544686 L258.484242,164.986128 L258.840169,164.986128 L258.911354,164.900151 L258.95388,164.801231 L259.010736,164.715253 L259.12491,164.673189 L259.438311,164.687057 L260.135835,164.516489 L260.448773,164.345459 L260.620728,164.387986 L260.933666,164.615409 L261.132431,164.715253 L261.745365,164.74345 L261.574335,165.213551 L261.588664,165.356384 L261.774024,165.456229 L261.97325,165.470558 L262.215928,165.441899 L262.442889,165.356384 L262.613919,165.227881 L262.670312,165.114631 L262.68418,165.014787 L262.713763,164.928347 L262.79974,164.857624 L262.884793,164.857624 L263.055823,164.97226 L263.169997,164.986128 L263.326235,165.042521 L263.469068,165.241748 L263.581855,165.498755 L263.624382,165.741432 L263.782006,165.612929 L264.052881,165.299528 L264.208656,165.199684 L264.380611,165.171025 L264.792931,165.185354 L264.993082,165.157158 L265.803394,164.886283 L266.174575,164.65886 L266.401536,164.316338 L266.429733,164.074585 L266.359472,163.576749 L266.387669,163.362269 L266.473646,163.277216 L266.644214,163.148713 L266.844365,163.034539 L267.000141,163.006342 L267.369935,163.23469 L267.712457,163.534223 L268.067922,163.690923 L268.467762,163.519894 L268.738174,163.319742 L268.994256,163.447784 L269.264668,163.662264 L269.578069,163.732987 L270.27698,163.676594 L270.546468,163.50464 L270.618115,163.049793 L270.959713,163.106186 L271.372033,163.747317 L271.713631,163.847161 L272.526253,163.81804 L272.909915,163.704791 L273.068002,163.377061 L273.33749,163.49031 L273.49419,163.676594 L273.536716,163.917885 L273.452126,164.572883 L273.536716,164.673189 L273.736867,164.701386 L274.036401,164.801231 L273.906973,165.086434 L273.637023,166.325245 L273.59311,166.468078 L273.508519,166.595195 L273.437796,166.737566 L273.465993,166.866069 L273.536716,166.994573 L273.59311,167.136943 L273.622693,167.421685 L273.679087,167.719832 L273.83625,167.962509 L274.14965,168.076683 L274.263362,168.048486 L274.434392,167.962509 L274.591092,167.862202 L274.66274,167.777612 L274.747792,167.705502 L274.90403,167.705502 L275.829903,167.891786 L276.384594,168.091013 L276.898146,168.418281 L277.382576,168.930908 L277.538814,169.159256 L277.653451,169.301627 L277.112627,170.098995 L276.813093,170.412396 L276.741908,170.569096 L276.755775,170.682346 L276.783972,170.78219 L276.783972,170.882497 L276.356397,171.579559 L276.356397,171.708063 L276.000933,171.736259 L275.844232,171.79404 L275.701861,171.906827 L275.730058,171.906827 L275.730058,171.993266 L275.715729,172.10744 L275.687532,172.192031 L275.645006,172.20636 L275.502635,172.177701 L275.458722,172.192031 L275.103257,172.776306 L274.733463,173.1461 L274.364131,173.431304 L273.694803,173.716045 L273.59311,173.786768 L272.853521,173.801098 L272.65337,173.844549 L272.526253,173.98692 L272.128262,174.599391 L272.042285,174.826815 L271.970638,174.940989 L271.572184,175.282586 L271.429814,175.467483 L271.386363,175.56779 L271.414097,175.937584 L271.315177,176.208458 L270.859406,176.877324 L270.703168,177.034024 L270.389767,177.062221 L269.692243,177.005827 L269.449565,177.120001 L269.407501,177.405205 L269.278998,177.604432 L269.307657,177.789329 L269.421831,177.959434 L269.777295,178.344945 L269.919666,178.600565 L270.161419,179.213037 L270.26265,179.525975 L270.361108,179.654941 L270.532138,179.697005 L270.660641,179.783444 L270.759561,180.02566 L270.717035,180.210094 L270.532138,180.267413 L270.517808,180.638131 L270.532138,180.737051 L270.575589,180.893752 L270.560335,180.979729 L270.532138,181.064319 L270.517808,181.207152 L270.517808,181.491894 L270.546468,181.704988 L270.688838,182.190343 L270.773891,182.68864 L270.803012,182.944261 L270.803012,183.130544 L270.717035,183.385702 L270.460028,183.870133 L270.389767,184.098481 L270.417964,184.354101 L270.517808,184.512188 L270.646312,184.639305 L270.759561,184.839456 L270.817342,185.095076 L270.787758,185.265644 L270.517808,185.636825 L270.304715,186.14899 L270.3759,186.632958 L270.632445,187.060995 L271.016568,187.41646 L270.817342,187.771924 L270.717035,187.872231 L270.233067,188.228158 L270.161419,188.313673 L270.118431,188.427847 L270.104563,188.6696 L270.076367,188.755577 L269.863273,188.89841 L269.650179,188.912277 L269.421831,188.89841 L269.20735,188.926145 L268.724306,189.240008 L268.523693,189.339852 L268.425235,189.481298 L268.310599,189.82382 L268.210755,189.994388 L268.310599,190.207482 L268.396576,190.705779 L268.523693,190.906393 L268.666526,190.948457 L268.965597,190.991446 L269.094101,191.03351 L269.221217,191.147684 L269.378842,191.390361 L269.634925,191.703762 L270.090234,192.529327 L269.891469,192.856595 L269.833689,193.013758 L269.848019,193.169996 L269.805492,193.298499 L269.734769,193.668294 L269.706572,193.726074 L269.592398,193.810664 L269.564202,193.882774 L269.564202,193.967365 L269.606728,194.109735 L269.606728,194.181845 L269.592398,194.308962 L269.578069,194.55164 L269.534618,194.693548 L269.250801,195.121585 L269.136165,195.192308 L268.87962,195.306482 L268.79503,195.377205 L268.709977,195.576432 L268.724306,195.73267 L268.766833,195.875503 L268.7807,196.003544 L268.738174,196.146377 L268.608746,196.389055 L268.552352,196.531425 L268.552352,196.672872 L268.580549,196.772716 L268.594878,196.887352 L268.467762,197.200291 L268.295807,197.271014 L266.630346,197.485032 L266.27442,197.471165 L266.031742,197.314465 L265.832978,197.370858 L265.377206,197.356991 L265.162726,197.399517 L264.978753,197.485032 L264.821128,197.528021 L262.371241,197.413385 L262.471086,197.656524 L262.842267,198.681779 L263.041493,198.866676 L263.383091,199.321985 L263.567988,199.507807 L263.953036,199.706571 L264.052881,199.835537 L264.16613,200.163267 L264.33716,200.305176 L264.579837,200.417963 L265.049476,200.546004 L265.134529,200.688837 L265.134529,201.001776 L265.077673,201.329506 L264.993082,201.544449 L264.935302,201.743213 L264.935302,202.070019 L264.993082,202.384344 L265.077673,202.554911 L265.292154,202.725479 L265.846845,203.409598 L265.690145,203.679548 L265.676277,203.979544 L265.760868,204.263823 L265.918493,204.492171 L266.20231,204.648409 L266.517097,204.734386 L266.786585,204.862428 L266.92988,205.133302 L266.901221,205.275673 L266.772717,205.55949 L266.786585,205.687531 L266.901221,205.802167 L267.071788,205.88722 L267.242818,205.916803 L267.385189,205.858099 L267.654677,205.687531 L267.95421,205.659796 L268.253281,205.745311 L268.509826,205.916803 L268.69611,206.086446 L268.851423,206.342991 L268.923071,206.627271 L268.851423,206.88474 L268.979927,206.984122 L268.994256,207.111239 L268.9374,207.254072 L268.823226,207.396443 L268.439565,208.13788 L268.182096,208.493345 L267.93988,208.692109 L268.097967,208.976388 L268.040187,209.205661 L268.054054,209.404425 L267.968077,209.461281 L267.827093,209.574993 L267.68426,209.717826 L267.499363,209.804265 L266.971944,209.917053 L266.858694,210.016435 L266.800914,210.159268 L266.644214,210.344165 L266.459317,210.501327 L266.288749,210.573437 L265.619884,211.113337 L265.605554,211.170193 L265.505248,211.356477 L265.461797,211.455859 L265.391074,211.954157 L265.362877,212.281887 L265.362877,212.423333 L265.377206,212.537969 L265.4336,212.638276 L265.505248,212.680802 L265.575971,212.736734 L265.605554,212.85137 L265.547774,213.050134 L265.077673,213.734254 L264.878446,214.460437 L264.764272,214.631929 L264.893238,214.815902 L264.878446,214.987394 L264.764272,215.143632 L264.608034,215.3142 L264.764272,215.401101 L265.092002,215.642854 L266.288749,217.180274 L266.331275,217.267175 L266.401536,217.452072 L266.445449,217.536201 L266.517097,217.62264 L266.715399,217.765473 L266.772717,217.83481 L267.228489,219.004284 L267.499363,219.245112 L267.669006,219.245112 L267.95421,219.188256 L268.225084,219.060215 L268.367455,218.861451 L268.425235,218.874856 L268.453432,218.874856 L268.752503,218.789341 L269.065904,218.761144 L269.250801,218.903977 L269.136165,219.317222 L269.051574,219.530316 L268.894412,220.014284 L268.680856,220.455726 L268.580549,220.883763 L268.481629,221.06866 L268.381784,221.411182 L268.097967,221.437992 L267.457299,221.182834 L267.256685,221.168042 L267.157766,221.281754 L267.042205,221.580825 L266.92988,221.737063 L266.844365,221.795768 L266.700607,221.838294 L266.559161,221.908555 L266.415866,221.894226 L266.27442,221.852624 L266.132049,221.838294 L266.003545,221.92196 L265.648081,221.994995 L265.575971,222.079123 L265.575971,222.192835 L265.605554,222.335668 L265.605554,222.478038 L265.547774,222.735508 L265.306483,223.403449 L265.177055,223.888341 L264.863192,224.443495 L263.824533,225.312974 L263.624382,225.612045 L263.469068,226.038695 L263.368761,226.722352 L263.310981,226.93637 L263.240258,227.049158 L262.941187,227.376888 L262.828399,227.448073 L262.856134,227.53405 L262.842267,227.605236 L262.81407,227.662091 L262.79974,227.733277 L262.68418,227.877034 L262.642116,227.932966 L262.642116,228.089204 L262.656445,228.103533 L262.698971,228.103533 L262.75629,228.303222 L262.770619,228.402604 L262.79974,228.488119 L262.89866,228.645282 L262.983713,228.730335 L263.183864,228.887497 L263.240258,228.973012 L263.326235,229.229557 L263.396958,229.570692 L263.426542,229.884093 L263.396958,230.041255 L263.624382,230.511356 L263.710359,231.636455 L263.824533,232.105632 L263.75381,232.318725 L263.810665,232.632126 L263.981233,233.259852 L264.16613,233.358772 L264.366743,233.444749 L264.579837,233.415628 L264.806799,233.216401 L264.978753,233.145678 L267.726786,233.074492 L267.570548,233.003307 L267.242818,232.959856 L267.085656,232.874804 L267.982407,232.959856 L268.353588,233.074492 L269.350645,233.558461 L269.506421,233.544131 L269.492092,233.386969 L269.378842,233.132273 L269.136165,232.745838 L269.136165,232.662172 L269.492092,232.662172 L269.805492,232.432437 L270.3759,231.792693 L270.246934,232.0497 L269.848019,232.646456 L269.706572,232.760167 L269.635849,232.932122 L269.706572,233.301916 L269.905337,233.615317 L270.133222,233.729028 L270.361108,233.829335 L270.831671,234.213921 L271.030436,234.298974 L271.30131,234.371084 L271.600381,234.527322 L274.377536,236.535767 L274.705266,236.877364 L274.961811,237.317881 L275.331605,238.258545 L275.645006,238.671328 L276.042997,238.671328 L276.115107,238.51509 L276.042997,237.659941 L276.128974,237.361332 L276.34253,237.190302 L276.827885,237.004481 L277.040979,237.190302 L277.324796,237.190302 L277.609538,237.075666 L277.824018,236.919428 L277.49675,237.347465 L276.570416,237.275355 L276.186754,237.603085 L276.128974,237.929891 L276.229281,238.51509 L276.115107,238.841896 L275.958406,238.969937 L275.530369,239.1271 L275.317738,239.226482 L275.103257,239.45483 L275.046863,239.711375 L275.117124,239.966533 L275.275211,240.237407 L275.388461,240.508281 L275.530369,241.064359 L275.701861,241.234927 L275.902013,241.291321 L276.669798,241.348176 L276.783972,241.419362 L277.239743,241.833531 L277.34005,242.102557 L277.26794,242.530593 L277.353917,242.744612 L277.552682,242.772809 L277.781954,242.701161 L277.866545,242.715953 L277.623867,242.986365 L277.49675,243.171724 L277.410773,243.257239 L277.26794,243.285436 L277.097372,243.084823 L277.011395,242.944301 L277.069176,242.829665 L276.969331,242.701161 L276.613404,242.373431 L276.514484,242.360026 L276.370727,242.430287 L276.456704,242.559715 L276.697995,242.772809 L276.954539,243.257239 L277.26794,243.683427 L277.538814,244.295899 L277.795821,244.75167 L277.894279,244.995272 L277.966389,245.249968 L277.994586,245.478316 L278.066696,245.678005 L278.621387,246.090325 L278.876545,246.518362 L279.105355,246.988925 L279.404889,247.372587 L279.874527,247.543154 L280.372825,247.443772 L280.61504,247.443772 L280.828596,247.586605 L281.569109,248.312326 L281.811787,248.668253 L281.981892,248.824029 L282.466785,248.966862 L282.694208,249.109695 L282.936886,249.196135 L283.206836,249.094903 L283.406987,249.252066 L283.877088,249.523865 L284.290333,249.865 L284.431779,249.836341 L284.603733,249.736034 L285.941464,249.338968 L285.969661,249.237737 L286.040384,249.1684 L286.112494,249.068093 L286.155945,248.910931 L286.126823,248.796295 L286.069968,248.653462 L286.040384,248.52542 L286.098164,248.426963 L286.026054,248.242066 L286.012187,248.041452 L286.069968,247.870885 L286.170274,247.757173 L286.212338,247.615264 L286.425432,247.615264 L286.696307,247.714646 L286.881666,247.842688 L286.966256,248.071036 L287.194604,248.071036 L287.250536,247.401246 L287.308316,247.258875 L287.821406,246.489703 L287.807076,246.390321 L287.76455,246.261817 L287.75022,246.161973 L287.936042,246.090325 L288.021094,246.035318 L288.106147,245.962284 L288.162541,245.892948 L288.262847,245.678005 L288.447745,245.16584 L288.661763,244.951821 L288.976088,244.396668 L289.117072,244.197441 L289.260367,244.111464 L289.444802,244.054608 L289.857585,243.996828 L290.000418,243.940896 L290.527837,243.613166 L291.295622,243.413477 L292.094378,242.986365 L292.221495,242.88652 L292.335669,242.858324 L292.592676,242.871729 L294.002054,243.129198 L294.472155,243.142603 L294.956123,243.043683 L295.199263,242.944301 L295.297721,242.88652 L295.382311,242.801468 L295.597254,242.345696 L296.964568,241.490547 L297.050545,241.362506 L297.093072,241.135082 L297.206321,240.936318 L297.363484,240.76575 L297.434669,240.651114 L297.747607,240.095036 L297.89044,239.967457 L298.089205,239.910601 L300.111517,240.066839 L300.424456,240.024313 L301.735376,239.582871 L302.021042,239.554212 L303.130425,239.683178 L304.270316,239.368853 L304.769076,239.412304 L305.637168,239.696583 L306.135928,239.654519 L306.861649,239.45483 L306.975823,239.511686 L307.104788,239.624473 L308.799371,240.108441 L309.212616,240.123695 L309.709064,239.937874 L309.937875,239.767306 L310.094575,239.611068 L310.265143,239.498281 L311.419825,239.355448 L314.324559,239.540345 L314.751671,239.48164 L314.964765,239.498281 L315.207443,239.638802 L315.520843,240.053434 L315.635479,240.123695 L315.735324,240.095036 L315.833782,239.967457 L315.933164,239.937874 L316.147182,240.039105 L316.37553,240.209672 L316.602954,240.323384 L316.830839,240.223077 L317.03099,240.295187 L317.344391,240.237407 L317.629595,240.108441 L317.756249,239.981787 L317.81403,239.937874 L318.098309,239.639727 L318.326657,239.013388 L318.625266,238.557154 L318.810625,238.45731 L319.779486,238.301072 L319.920932,238.328806 L320.234333,238.45731 L320.33464,238.485969 L320.562063,238.429113 L320.933244,238.229424 L321.146338,238.18736 L321.402421,238.215095 L321.64556,238.315401 L322.044476,238.557154 L322.343085,238.884884 L322.613959,239.26947 L322.92736,239.597201 L323.353547,239.72478 L323.5953,239.696583 L323.824573,239.611068 L323.994678,239.468235 L324.10839,239.198285 L324.208697,239.154834 L324.335813,239.11277 L324.437969,239.041123 L324.492976,238.927411 L324.549832,238.656537 L324.592358,238.557154 L324.77818,238.357928 L324.963077,238.315401 L325.09158,238.143909 L325.205292,237.559634 L325.362455,237.374737 L325.760446,237.104787 L325.903279,236.961954 L325.97354,236.933295 L326.231009,236.919428 L326.316524,236.891694 L326.37338,236.819584 L326.387709,236.69108 L326.37338,236.578293 L326.330853,236.463657 L326.302194,236.335615 L326.316524,236.164123 L326.558739,235.766595 L326.899874,234.897116 L326.957655,234.4982 L327.098639,234.113614 L327.184154,233.615317 L327.383842,233.045833 L327.669046,232.646456 L328.337912,231.97759 L328.679047,231.493622 L328.837134,231.207494 L328.893065,230.952798 L328.992447,230.824757 L329.576722,230.411049 L330.161459,230.154042 L330.332489,230.125846 L330.431409,230.083319 L330.660219,229.884093 L330.759139,229.812445 L330.844192,229.812445 L330.901972,229.855896 L330.973158,229.870225 L331.07254,229.79904 L331.085945,229.698733 L331.201506,229.228632 L331.229703,229.157447 L331.271304,229.086724 L331.357744,229.001209 L331.442796,228.929561 L331.498728,228.901827 L331.727076,228.858376 L331.913822,228.730335 L332.410733,228.232037 L332.596555,228.117863 L332.795319,228.046677 L333.307946,228.005076 L333.934747,227.834508 L334.063713,227.834508 L334.476034,227.961163 L334.546757,228.033272 L334.603613,228.103533 L334.661393,228.13173 L335.229952,228.304147 L335.486497,228.331881 L335.331183,228.217245 L335.301599,228.074874 L335.360304,227.932966 L335.486497,227.81833 L335.658913,227.748069 L335.856753,227.719872 L336.585248,227.733277 L336.95458,227.804925 L337.409427,228.019867 L337.510658,228.089204 L337.780608,227.904307 L337.936846,227.834508 L338.079216,227.804925 L338.507253,227.804925 L338.834059,227.634357 L339.019418,227.590906 L339.332357,227.477194 L339.446993,227.406471 L339.545451,227.477194 L339.645757,227.477194 L339.746064,227.421263 L339.830654,227.320032 L339.986892,227.191991 L340.031268,227.020961 L339.959158,226.850393 L339.746064,226.735757 L339.645757,226.906325 L339.418334,226.87859 L339.161789,226.750086 L338.791533,226.509258 L338.677821,226.366425 L338.307102,225.69756 L338.264576,225.426685 L338.364882,225.227459 L338.619116,225.155811 L338.763798,225.02777 L339.033748,224.272927 L339.347148,224.657513 L339.404929,224.515142 L339.347148,223.930868 L339.375807,223.703444 L339.830654,222.56494 L339.945291,222.378194 L340.15746,222.151233 L340.330339,222.036597 L340.428334,221.908555 L340.457456,221.638606 L340.372403,220.612889 L340.4006,219.999955 L340.443126,219.772531 L340.643277,219.345419 L340.798591,219.11892 L340.999204,218.946503 L341.256211,218.874856 L341.66807,218.903977 L341.868683,218.848046 L341.9958,218.662686 L341.967141,217.437743 L342.066061,216.86826 L342.466363,216.895994 L342.508427,216.6829 L342.622139,216.568264 L342.778377,216.525738 L343.149558,216.511408 L343.220743,216.468882 L343.220743,216.326511 L343.263269,216.04177 L343.391773,215.828214 L343.805018,215.37198 L343.889146,215.3142 L343.961256,215.157961 L344.132748,215.02992 L345.214396,214.574149 L345.569861,214.318529 L345.855527,214.204817 L346.368154,214.090181 L346.839642,214.090181 L347.008361,214.019457 L347.179853,213.83456 L347.251038,213.633947 L347.236709,213.435645 L347.236709,213.222551 L347.363825,212.979411 L347.521912,212.85137 L347.677226,212.794514 L348.02021,212.794514 L348.23238,212.751988 L348.389542,212.680802 L348.54578,212.638276 L348.775053,212.695132 L348.688613,212.481113 L348.804174,212.252765 L348.916961,212.153383 L349.045927,212.082198 L349.186911,211.92596 L349.27335,211.882509 L349.486444,211.868179 L349.528971,211.812248 L349.558554,211.783589 L349.687058,211.484518 L349.842371,211.32828 L350.013863,211.227973 L350.19876,211.185909 L350.412779,211.172042 L350.497832,211.085602 L350.497832,210.859103 L350.426184,210.671895 L350.313397,210.701016 L350.14098,210.458801 L350.05639,210.358957 L349.927886,210.302101 L350.041598,210.216124 L350.084124,210.187927 L349.72866,209.789936 L349.243767,209.519062 L348.702943,209.362823 L348.190778,209.304119 L347.877839,209.220453 L347.6347,209.035093 L347.208512,208.593651 L346.780937,208.251592 L346.609907,208.037573 L346.182333,207.297523 L345.75522,206.713248 L345.484346,206.000932 L345.142286,205.318199 L345.09976,205.061192 L345.128419,204.904029 L345.286506,204.761196 L345.329033,204.604958 L345.300836,204.506501 L345.156616,204.235626 L344.558936,202.640426 L344.274657,201.586051 L344.18868,200.960636 L344.17435,200.305176 L344.244611,199.706571 L344.360172,199.450027 L344.716099,198.937399 L344.800689,198.738635 L344.857545,198.495495 L345.001302,198.239413 L345.156616,198.026319 L345.42749,197.726785 L345.555531,197.541888 L345.627641,197.299211 L345.655838,196.944208 L345.712694,196.787508 L346.880782,194.836843 L347.593098,194.037626 L347.892169,193.59757 L348.376137,192.557524 L348.674746,192.12995 L349.387987,191.688045 L349.701387,191.360778 L350.526491,189.993463 L351.067315,189.424442 L351.451901,188.882694 L351.594734,188.725994 L351.893343,188.470373 L352.020922,188.313673 L352.79148,186.775791 L353.090551,186.47672 L353.161737,186.09121 L353.317975,185.849919 L353.516739,185.635438 L353.71689,185.351621 L354.25679,184.041163 L354.4856,183.813277 L354.671422,183.613588 L354.897921,183.456426 L355.838585,183.157355 L356.180182,183.129158 L356.42286,183.257661 L355.881111,183.769826 L355.510855,183.940856 L355.09761,183.870133 L355.296836,184.225598 L355.582502,184.21173 L355.881111,183.998636 L356.123326,183.755497 L356.67848,183.029775 L356.990494,182.745034 L357.717602,182.530553 L357.902499,182.418228 L358.017135,182.203748 L358.089245,182.146892 L358.159044,182.076169 L358.187703,181.961995 L358.159044,181.876017 L358.089245,181.833491 L358.002806,181.805757 L357.93162,181.747976 L357.776307,181.576484 L357.476311,181.335193 L357.205437,180.993596 L357.077396,180.865555 L356.921158,180.779578 L356.73626,180.76571 L356.892498,180.879422 L356.935487,180.993596 L356.878631,181.064319 L356.73626,181.064319 L356.406681,180.935816 L356.109459,180.76571 L356.322553,180.337673 L357.34827,179.341078 L357.975533,178.515975 L359.255946,177.248505 L359.628051,176.97763 L360.053777,176.778404 L360.523416,176.692427 L361.021713,176.678097 L361.107691,176.706756 L361.37764,176.877324 L361.493201,176.82093 L361.550057,176.734953 L361.592583,176.621704 L361.79181,176.264852 L361.877787,176.194129 L362.673769,176.023561 L365.523034,174.955318 L366.491895,174.883208 L368.64271,174.30032 L369.026372,174.314187 L369.139159,174.285991 L369.367507,174.14362 L370.123274,173.943469 L370.892446,173.872746 L371.346369,173.744704 L372.144662,173.3028 L372.514456,172.961203 L372.842186,172.505431 L373.398727,171.537495 L373.697336,171.123788 L374.025066,170.868167 L374.865423,170.511316 L375.520883,170.069874 Z M339.516792,226.251789 L339.746064,226.523587 L339.587977,225.996631 L339.602306,225.653184 L339.703538,225.34117 L339.645757,225.256118 L339.573647,225.113285 L339.531121,225.056429 L339.516792,225.02777 L339.516792,224.985243 L339.502924,224.956584 L339.446993,224.956584 L339.489519,225.3555 L339.47519,225.825601 L339.516792,226.251789 Z M370.19446,155.999665 L370.451004,156.042192 L370.477814,156.042192 L370.592451,156.013995 L370.634977,155.999665 L370.50786,155.786109 L370.392299,155.529564 L370.279512,155.358997 L370.151009,155.41539 L370.022967,155.686265 L370.036373,155.885491 L370.19446,155.999665 Z" id="Fill-3"></path>
        </g>
    </g>
</svg>