
<svg width="108px" height="116px" viewBox="0 0 108 116" version="1.1" xmlns="http://www.w3.org/2000/svg" xmlns:xlink="http://www.w3.org/1999/xlink">
    <!-- Generator: Sketch 51.2 (57519) - http://www.bohemiancoding.com/sketch -->
    <desc>Created with Sketch.</desc>
    <defs></defs>
    <g id="Page-1" stroke="none" stroke-width="1" fill="none" fill-rule="evenodd">
        <g id="GA-EPS-01-0001" transform="translate(-233.000000, -134.000000)" >
            <path d="M339.849725,191.452512 L340.603822,189.83416 L340.735672,189.234455 L340.566819,188.682386 L340.134266,187.791761 L339.90289,187.552304 L339.16368,187.045319 L338.756646,186.498355 L338.128019,186.110035 L337.421133,185.799549 L336.903515,185.651963 L336.589202,185.700449 L336.300833,185.836978 L336.018419,185.931399 L335.716865,185.862072 L335.377458,185.724267 L335.056765,185.726394 L334.748831,185.830598 L334.441323,185.996049 L334.408998,185.307451 L334.269918,184.546974 L334.04152,183.807764 L333.727206,183.176585 L333.248718,182.704902 L332.566926,182.376553 L331.819634,182.261291 L331.144647,182.43865 L331.013648,182.259164 L330.863934,182.134119 L330.681046,182.064792 L330.017117,181.988234 L329.874209,182.037146 L329.801904,182.160064 L329.756394,182.29319 L329.677284,182.376553 L329.428471,182.466722 L329.30938,182.489689 L329.198796,182.407176 L328.341771,181.392357 L328.360486,180.870061 L328.556559,180.411563 L329.624544,178.997365 L329.814238,178.819155 L330.010737,178.580974 L329.989471,178.387027 L329.891647,178.181596 L329.860173,177.910666 L329.938007,177.729053 L330.200431,177.390071 L330.2251,177.198676 L330.079214,176.97283 L329.858047,176.931148 L329.640281,176.926469 L329.522467,176.800999 L329.443782,175.47059 L329.351487,175.021024 L329.173277,174.447689 L329.081407,173.986214 L329.159241,173.547281 L329.795099,172.612848 L330.450096,171.147611 L330.842243,170.729094 L332.218162,169.977124 L332.565225,169.581999 L332.635828,169.20091 L332.517589,168.821522 L332.307054,168.437881 L332.871457,167.661242 L333.793557,167.537473 L334.836448,167.65231 L335.765777,167.603823 L336.015016,167.508976 L336.119646,167.433269 L336.1911,167.336296 L337.566593,166.154324 L337.684408,165.759625 L337.741401,164.813282 L338.277733,164.046425 L339.129229,163.318273 L339.76466,162.559923 L339.640041,161.701196 L339.582622,161.474074 L339.7183,161.323935 L339.942445,161.194212 L340.114276,161.020255 L340.14575,160.771016 L340.007094,160.623004 L339.561356,160.401836 L339.207913,160.082419 L338.899554,159.717917 L338.638832,159.315137 L338.429148,158.883009 L338.140353,157.939218 L337.889413,157.563658 L337.000064,157.153647 L336.711695,156.770006 L336.5539,156.298323 L336.574316,154.907944 L336.528381,154.426904 L336.253197,153.275556 L336.142188,153.069274 L335.938884,152.916583 L335.729625,152.828967 L335.57098,152.72689 L335.511434,152.524011 L335.289416,152.482329 L335.152037,152.382804 L335.032947,152.260736 L334.869623,152.151428 L334.140194,151.952802 L333.768888,151.91665 L333.434159,152.001289 L332.77023,152.255207 L332.377232,152.232665 L332.084185,152.025107 L331.808576,151.756729 L331.472996,151.557678 L331.151878,151.488776 L327.648496,151.162553 L327.386922,151.225076 L327.366507,151.313117 L327.194251,151.789053 L326.966703,152.230538 L326.907584,152.27222 L326.704279,152.345375 L326.654091,152.327512 L326.435901,152.223733 L326.344882,152.205444 L326.213032,152.25308 L325.987611,152.426612 L325.870647,152.484456 L325.530814,152.546553 L325.359409,152.558887 L325.181199,152.552082 L324.814571,152.583981 L324.552998,152.755386 L324.31184,152.95146 L323.644509,153.207929 L323.223865,153.774884 L322.981005,153.946289 L322.359184,154.059 L321.802437,154.061127 L321.223998,153.952669 L320.575381,153.723846 L320.292541,153.697901 L319.885508,153.745537 L319.525259,153.844637 L319.375546,153.982442 L319.256881,154.310791 L318.942993,154.394154 L318.607413,154.442641 L318.261626,154.861584 L317.921368,155.007044 L317.540279,155.084878 L316.897191,155.036391 L316.517378,155.097638 L316.326408,155.071268 L316.268139,154.815224 L316.090354,154.696559 L315.868761,154.60639 L315.679067,154.442641 L316.032085,154.405213 L316.171165,154.178516 L316.24347,153.922897 L316.38893,153.800404 L316.649653,153.762975 L316.964392,153.65707 L317.227667,153.47886 L317.40375,153.108829 L317.514334,153.04418 L317.560269,152.947632 L317.40375,152.722636 L317.338251,152.598867 L317.33102,152.45766 L317.345906,152.307522 L317.319962,151.436036 L317.339101,151.280793 L317.044353,151.095352 L316.709624,150.203025 L316.328109,150.009504 L316.439119,149.747505 L316.414025,149.495714 L316.283025,149.279225 L316.07164,149.116751 L315.947446,149.255407 L315.599957,148.783298 L315.299679,148.249944 L315.621649,147.885017 L315.679067,147.440555 L315.568909,146.601819 L315.632707,146.213925 L315.765408,145.867287 L315.818148,145.543191 L315.679067,145.226326 L315.91427,145.090648 L316.104815,144.844386 L316.250275,144.5658 L316.439119,143.889111 L316.464213,143.595213 L316.385953,143.374896 L316.294084,143.238793 L316.143945,142.903214 L315.901511,142.578692 L315.97892,142.492777 L316.201789,142.42983 L316.326408,142.14061 L316.451028,141.925822 L316.576923,141.778235 L316.700692,141.661697 L316.792987,141.533249 L316.832542,141.346108 L316.728763,141.001596 L316.735568,140.847204 L316.905697,140.779578 L317.003096,140.712802 L317.338251,140.344898 L317.449685,140.259408 L318.109786,139.89916 L318.299905,139.457675 L318.365405,138.865201 L318.360726,137.758086 L318.353496,137.296611 L318.43133,136.74114 L318.353496,136.471485 L318.175711,136.25372 L317.901803,136.006182 L317.612158,135.800751 L317.400773,135.714836 L317.269774,135.74546 L317.001395,135.854342 L316.830415,135.85179 L316.705796,135.800751 L316.451028,135.602126 L315.933835,135.5026 L315.362627,135.477081 L315.206534,135.541305 L314.988343,135.69357 L314.615761,136.050416 L314.438826,136.122295 L313.65198,136.221821 L313.126706,135.997251 L312.833659,135.928348 L312.579741,136.050416 L312.376862,136.105708 L312.054893,136.052542 L311.498571,135.854342 L311.308877,136.03 L311.097492,136.105708 L310.862289,136.087419 L310.601566,135.980238 L310.436541,136.205233 L310.076718,136.124847 L309.65097,135.941959 L309.337507,135.85179 L309.101028,135.948764 L308.883263,136.116766 L308.62892,136.281791 L308.248256,136.354947 L305.740129,135.98364 L305.299069,135.821167 L305.00347,135.599999 L304.568365,135.699525 L304.246821,135.599999 L303.212011,135.264845 L302.497469,135.216358 L301.475844,135.44986 L301.141541,135.382234 L300.532479,135.012203 L300.301103,134.929691 L300.126296,134.950106 L299.740103,135.156388 L299.544454,135.206151 L299.179953,135.25804 L298.466262,135.494945 L298.096231,135.565123 L297.290245,135.530246 L296.540826,135.412432 L296.20312,135.400098 L295.111317,135.483461 L293.706902,135.395419 L292.289727,135.518763 L290.664994,135.470276 L290.034241,135.555766 L289.747148,135.523441 L288.792724,135.213806 L288.415463,134.905873 L288.233425,134.804646 L287.974829,134.777 L287.73835,134.830165 L287.255183,135.00072 L282.301451,135.181482 L282.26785,135.350335 L282.35249,135.589791 L282.383538,135.836053 L282.272104,136.094649 L282.12877,136.288597 L282.01053,136.498281 L281.979056,136.801961 L281.979056,137.032486 L281.946307,137.259183 L281.871875,137.474821 L281.754061,137.668768 L281.895268,138.375229 L281.902073,139.857478 L281.932696,144.69127 L281.959917,149.519107 L281.990115,154.347794 L282.017335,159.176056 L276.461346,159.158193 L270.907058,159.139904 L265.351495,159.120764 L259.795506,159.105027 L257.77097,159.098222 L256.866734,159.213485 L256.769761,159.484415 L256.769761,160.029253 L256.702985,160.269986 L256.48522,160.483072 L256.189621,160.547722 L255.85872,160.498809 L255.530371,160.360154 L255.223288,160.121974 L254.742673,159.57671 L254.437717,159.361497 L254.148923,159.257293 L253.604935,159.197322 L253.533906,159.428698 L253.383767,159.743011 L253.209385,159.352565 L253.059672,158.564442 L252.810007,158.15911 L252.50973,158.068941 L251.427283,158.039594 L251.095107,158.095311 L250.912218,158.285005 L250.783345,158.536371 L250.602583,158.758815 L250.274234,158.853236 L249.93908,158.853236 L249.666873,158.906402 L249.426566,159.08844 L249.193064,159.482288 L249.102895,159.855722 L249.204122,160.073487 L249.361492,160.263181 L249.446556,160.556228 L249.497595,161.000265 L250.156845,162.73388 L250.344412,164.918762 L250.281039,165.81917 L250.344412,166.198558 L250.595778,166.566462 L250.450317,166.86036 L250.258072,167.65869 L250.141959,167.824141 L249.973956,167.962796 L249.883362,168.288593 L249.881236,168.665003 L249.965024,168.955924 L249.645607,168.887022 L249.497595,168.725399 L249.317258,168.198424 L249.479731,167.922815 L249.576705,167.393714 L249.543955,166.86036 L249.314706,166.564335 L249.292164,166.805068 L249.19519,166.990934 L249.030591,167.121082 L248.809423,167.192962 L248.697563,166.70214 L248.262883,166.465235 L247.720172,166.43206 L247.290171,166.564335 L247.546215,166.189626 L247.942615,166.141139 L248.74605,166.309567 L249.056535,166.145818 L249.122886,165.761751 L248.98423,165.336429 L248.681826,165.040829 L248.325831,165.001274 L247.997482,165.142482 L247.704435,165.327072 L247.367154,165.459347 L247.117064,165.629476 L246.963948,165.669456 L246.712157,165.63458 L246.548833,165.567379 L246.385935,165.521869 L246.138822,165.554194 L245.947002,165.629476 L245.570166,165.847666 L245.366862,165.930179 L244.943666,166.017795 L244.539609,166.055224 L244.407759,166.279794 L244.334179,167.294614 L244.352042,167.564268 L244.597028,167.853488 L244.888374,167.867949 L245.216723,167.839877 L245.560809,168.009156 L246.076725,168.587169 L246.312779,168.933382 L247.204255,170.960469 L247.468381,171.221192 L247.662328,171.361974 L247.775889,172.019097 L247.920924,172.229207 L248.050647,172.204113 L248.466188,172.021224 L248.618453,171.977416 L248.85238,172.016545 L248.95701,171.952747 L249.06334,171.727751 L249.189661,171.727751 L249.296843,172.094805 L249.559692,172.367862 L250.204481,172.746824 L251.095107,173.408626 L251.289054,173.503048 L251.882804,173.481782 L252.03592,173.567697 L252.310253,173.816936 L252.546307,173.975156 L253.382491,174.255869 L253.624925,174.175908 L255.060814,174.085315 L255.421913,173.967075 L255.768551,173.803751 L256.055219,173.616184 L256.412915,173.90753 L256.780819,174.010883 L257.709724,173.993019 L257.709724,174.129548 L256.961581,174.369855 L256.685972,174.392397 L256.383568,174.334979 L255.845109,174.138905 L255.543981,174.131675 L255.310053,174.21759 L254.65931,174.624198 L254.458132,174.820272 L254.116173,175.261757 L253.886924,175.402539 L253.596003,175.142241 L253.119217,175.118423 L252.753865,175.285575 L252.804903,175.585853 L253.068603,175.932065 L253.745717,177.16465 L253.139632,176.686162 L252.568849,175.790858 L251.893862,175.111193 L250.969211,175.263883 L250.777816,174.887048 L250.616193,174.773912 L250.334204,174.762853 L250.165777,174.882369 L249.643481,175.398285 L249.561819,175.528009 L249.436774,175.349799 L249.27983,174.711815 L249.182856,174.50851 L248.946802,174.386018 L248.031508,174.129548 L247.835434,174.462576 L247.815019,174.79773 L247.914119,175.585853 L247.859252,175.784053 L247.729104,175.786605 L247.578965,175.689206 L247.4603,175.585853 L247.398203,174.887898 L247.225947,174.528926 L246.740228,174.055117 L246.637726,173.816936 L246.548833,173.761644 L245.942323,173.754414 L245.734766,173.810131 L245.618653,173.944107 L245.519127,174.11296 L245.362183,174.259271 L245.304339,174.09212 L245.293706,173.880309 L245.327307,173.69742 L245.42428,173.61831 L245.611848,173.55834 L245.605042,173.406074 L245.519127,173.204897 L245.487653,172.989683 L245.662461,172.305765 L245.702441,171.931056 L245.625458,171.480639 L245.465962,171.11954 L245.288177,170.991093 L245.084873,171.041706 L244.493249,171.566554 L244.412013,171.619294 L244.377136,171.720946 L244.282289,172.206239 L244.224871,172.37254 L244.433704,172.966716 L245.084873,176.456913 L245.110818,176.852889 L245.154626,176.995372 L245.237138,177.144235 L245.272015,177.300753 L245.17972,177.47386 L245.038513,177.647391 L244.936861,177.846442 L244.877315,178.068461 L244.855624,178.299836 L245.066584,178.770243 L245.110818,178.939947 L245.099334,179.160689 L245.013844,179.557515 L244.994279,179.758267 L244.905387,180.130425 L244.484317,180.952148 L244.347789,181.341743 L244.361399,183.721849 L244.093871,184.487004 L243.635373,185.201546 L241.976615,187.012995 L241.643588,187.678625 L240.543278,188.652188 L240.395266,189.132377 L240.543278,189.441162 L240.757641,189.734634 L240.797196,190.16421 L240.543278,189.674664 L240.325088,189.769085 L240.305098,189.930283 L240.342101,190.122103 L240.293614,190.314774 L240.189835,190.378147 L239.883603,190.484903 L239.773444,190.554231 L239.636916,190.700542 L239.611822,190.765191 L239.636916,190.868544 L239.658182,191.123312 L239.555679,191.426567 L239.116321,191.907182 L239.014669,192.255521 L238.966607,193.373694 L238.890475,193.719482 L238.763303,193.719482 L238.637833,193.459609 L238.770108,192.810993 L238.763303,192.440962 L238.551067,192.109636 L237.878207,191.485262 L237.734873,191.123312 L237.679581,190.841749 L237.543053,190.526585 L237.358037,190.267563 L236.908046,190.058305 L236.72941,190.043418 L236.595009,190.16421 L236.590755,190.376446 L236.7158,190.570393 L236.910173,190.71798 L237.091785,190.803895 L237.091785,190.929365 L236.764287,190.910651 L236.440616,190.841749 L236.188825,190.861739 L236.091852,191.123312 L236.035284,191.487814 L235.946392,191.813611 L235.928953,192.123246 L236.093979,192.43841 L235.790298,192.348242 L235.697578,192.091772 L235.663552,191.81914 L235.518092,191.696647 L235.256518,191.608606 L235.079159,191.393818 L234.971977,191.123312 L234.887338,190.351352 L234.726992,189.725277 L234.451808,189.271458 L234.050303,189.284218 L233.983528,189.161299 L233.952905,189.068154 L233.969067,188.957995 L234.050303,188.788291 L233.456553,188.675581 L233.247294,188.513958 L233.416573,188.159665 L233.278343,188.023136 L233.024,188.412732 L233.458254,189.769085 L234.029463,190.501491 L234.279552,191.46995 L234.674252,192.142385 L235.161671,193.242695 L235.446212,193.719482 L235.543186,193.944903 L235.695877,194.601601 L235.834106,194.601601 L236.021674,194.485062 L236.162881,194.7981 L236.28027,195.252344 L236.403188,195.547518 L236.722605,195.628329 L237.265317,195.265955 L237.487761,195.35825 L237.391212,195.389723 L237.244051,195.528804 L237.091785,195.739339 L236.981201,195.989003 L237.246177,196.102139 L236.967591,196.191882 L236.703466,196.060032 L236.222426,195.609615 L238.062371,197.958247 L238.374984,198.769337 L238.511512,199.899844 L238.571483,200.096343 L238.688872,200.114632 L238.751819,199.948756 L238.862403,199.449428 L238.626775,198.894382 L238.970861,199.164887 L239.294956,199.59744 L239.380446,200.03212 L239.019347,200.292417 L239.065708,200.415761 L239.098457,200.464247 L239.158003,200.53315 L239.028279,200.868304 L239.074639,201.24514 L239.239664,201.551797 L239.465085,201.677693 L239.742821,201.781046 L240.399519,202.268891 L240.667472,202.421157 L240.90778,202.463264 L240.989016,202.416478 L241.023893,202.345875 L241.208908,202.268891 L241.313112,202.197862 L241.403281,202.165112 L241.467504,202.282076 L241.592974,202.39904 L241.636783,202.423709 L241.588296,202.581503 L241.557673,202.937073 L241.612965,203.322841 L241.820947,203.5657 L242.131433,203.607381 L243.020357,203.441506 L243.212603,203.316886 L243.357638,203.049783 L243.545205,202.786509 L243.848885,202.684857 L243.970953,202.752483 L244.123219,203.005975 L244.292497,203.062118 L244.488571,203.007676 L244.674011,202.874551 L244.810115,202.689961 L244.861153,202.49091 L244.72505,201.52968 L244.733556,201.161351 L244.907513,201.260877 L244.978542,201.344665 L244.960679,201.428028 L244.861153,201.540739 L245.200986,202.180849 L245.260531,202.500267 L244.967059,203.038725 L244.881143,203.38749 L244.733556,203.5657 L244.58597,203.616738 L244.144485,203.656293 L243.97308,203.70478 L243.97308,203.815364 L244.15129,203.960399 L244.2304,204.222823 L244.195523,204.469936 L244.038154,204.580519 L243.714483,204.614971 L243.443553,204.723428 L243.293839,204.9178 L243.328716,205.209146 L243.423563,205.241896 L243.59837,205.264438 L243.769775,205.306545 L243.845483,205.400967 L243.832298,205.736121 L243.845483,205.903698 L243.977758,206.175479 L244.001151,206.471078 L244.102803,206.607182 L244.246137,206.679061 L244.365652,206.673107 L244.482191,206.633552 L244.606385,206.607182 L245.21247,206.560821 L245.715626,206.41366 L246.141374,206.108278 L246.601573,205.493687 L246.684086,205.431165 L246.74916,205.336743 L246.77468,205.146624 L246.69642,204.869313 L246.703225,204.754476 L246.837627,204.705139 L247.074532,204.694081 L247.153642,204.705139 L247.521546,204.910995 L247.671685,204.957355 L247.590023,205.261461 L247.614266,205.665092 L247.786522,206.353264 L248.006839,206.721168 L248.29776,206.938083 L249.065467,207.234107 L248.507869,207.3566 L246.970753,207.153296 L246.390613,207.234107 L246.515658,207.451872 L246.522463,207.753851 L246.390613,208.380352 L246.11628,208.225959 L246.011226,207.959282 L246.035044,207.647521 L246.141374,207.361279 L245.688831,207.400408 L245.195457,207.553099 L244.760777,207.801062 L244.482191,208.1141 L244.442636,207.952902 L244.345662,207.801062 L244.202329,207.728332 L244.037303,207.801062 L243.988817,207.939292 L244.158095,208.188531 L244.102803,208.380352 L243.882486,208.479452 L243.769775,208.191083 L243.593692,205.899445 L243.048854,205.738248 L242.894036,205.65616 L241.998732,204.941618 L241.886022,204.8187 L241.638909,204.659629 L241.050688,203.93573 L240.937978,203.754968 L240.838877,203.393869 L240.404623,202.943453 L240.212377,202.363738 L239.983554,202.145973 L239.690081,202.021779 L239.407667,202.048999 L239.045292,201.646644 L238.816468,201.326376 L238.631453,200.77771 L238.381789,200.287738 L238.471957,200.673931 L238.633154,201.076287 L238.818595,201.533934 L238.996805,201.8525 L241.319492,205.080699 L242.347922,206.138051 L242.773245,206.715639 L243.08373,207.483772 L243.104146,207.666235 L243.08373,208.239144 L243.139022,208.452656 L243.300219,208.865645 L243.335521,209.064696 L243.335521,209.825172 L243.318508,209.97999 L243.238122,210.299407 L243.221535,210.515896 L243.273424,211.064562 L243.429943,211.429064 L243.700023,211.524336 L244.109608,211.261061 L244.532804,211.567719 L244.574911,211.775277 L244.361399,212.141054 L244.562151,212.141054 L244.729303,212.183161 L244.872637,212.271203 L245.007039,212.405605 L244.999383,212.183161 L245.041065,211.982409 L245.142291,211.833546 L245.31795,211.778254 L245.360057,211.682982 L245.415349,211.473297 L245.50339,211.256808 L245.642046,211.135591 L245.968693,211.265315 L246.434847,212.125742 L246.783186,212.407731 L246.714284,212.000272 L246.71641,211.825465 L246.781059,211.651508 L246.875481,211.736997 L247.162574,211.905 L247.352268,211.728066 L247.696354,212.078532 L248.299886,213.11164 L248.327107,213.234984 L248.152725,213.352373 L247.932408,213.675618 L248.036186,213.887854 L248.492132,214.198765 L248.695436,214.432692 L248.868968,214.428439 L249.030591,214.683207 L249.150957,215.050686 L249.199444,215.383713 L249.139048,215.444109 L248.8779,215.541508 L248.820481,215.635504 L248.769868,215.777987 L248.670768,215.628699 L248.578047,215.403278 L248.563586,215.315237 L248.187176,215.06302 L248.161231,214.926917 L248.163783,214.6075 L248.114871,214.496491 L248.013644,214.468419 L247.609588,214.432692 L247.501981,214.392286 L247.382466,214.29744 L247.160447,214.055006 L247.572159,213.722403 L247.620646,213.345142 L247.359073,213.038059 L246.844432,212.910888 L245.89171,212.910888 L245.92446,212.987871 L245.829613,213.131205 L245.702441,213.211166 L245.637792,213.097604 L245.653529,212.96618 L245.702441,212.886219 L245.783253,212.833479 L245.89171,212.7952 L245.753055,212.407731 L245.637792,212.407731 L245.494033,212.7952 L245.362183,212.894726 L245.119749,212.7952 L245.168236,212.753093 L245.192905,212.747564 L245.214596,212.730551 L245.256278,212.659522 L244.877315,212.698652 L244.456246,212.56425 L244.116413,212.305228 L243.975206,211.967522 L243.896096,211.896493 L243.761269,212.015584 L243.714483,212.193794 L243.910983,212.284813 L243.938203,212.368176 L244.095998,212.54511 L244.271231,212.702905 L244.356721,212.730551 L244.476662,212.921521 L245.254151,213.680296 L245.510196,214.382079 L245.741571,214.7066 L246.141374,214.816333 L246.067793,214.997946 L246.015904,215.067699 L246.282156,215.277383 L246.846134,215.943863 L247.338657,216.223726 L249.182856,218.023265 L249.317258,218.292069 L249.427417,219.966564 L249.573302,220.385933 L249.573302,220.489711 L249.765123,220.968199 L250.186192,221.513888 L250.680417,221.989399 L251.097233,222.265008 L250.930081,222.005986 L250.51922,221.513888 L250.345263,221.245935 L250.671485,221.457745 L251.445572,222.377718 L251.739045,222.507867 L251.910875,222.272238 L251.845376,222.000457 L251.612724,221.562375 L251.644623,221.435629 L251.727987,221.373532 L251.850905,221.361197 L252.007849,221.387142 L252.123111,221.465827 L252.118433,221.587894 L252.090361,221.735481 L252.123111,221.888172 L252.197543,221.88562 L252.402548,221.983019 L252.548434,222.097005 L252.444655,222.151872 L252.379155,222.196105 L252.169046,222.392605 L252.123111,222.450023 L252.171598,222.66949 L252.29239,222.877898 L252.45784,223.046325 L252.641154,223.145426 L253.075409,223.028036 L253.498605,222.623555 L253.940089,222.293504 L254.414324,222.390053 L254.445798,222.361981 L254.716728,222.218648 L254.783504,222.205463 L254.82476,222.017895 L254.917481,222.017895 L255.107175,222.147619 L255.135246,222.293504 L255.557166,223.145426 L255.88594,223.111825 L256.397178,223.19689 L256.873539,223.354259 L257.090029,223.533745 L257.030483,223.688988 L256.847595,223.70515 L256.63068,223.69877 L256.45885,223.786812 L256.421847,223.973954 L256.531155,224.355468 L256.456723,224.541334 L256.692777,224.688921 L256.9535,224.805885 L257.004113,224.648941 L257.09896,224.468179 L257.215073,224.292095 L257.345222,224.148336 L257.363086,224.061996 L257.339268,223.936526 L257.332462,223.830195 L257.402641,223.782133 L257.541296,223.802549 L257.771821,223.887613 L257.910476,223.908454 L258.056362,223.989691 L258.267322,224.334202 L258.415334,224.412462 L258.495294,224.479663 L258.580784,224.623422 L258.728797,224.761226 L258.990795,224.802908 L258.74028,223.857416 L258.613959,223.531193 L258.74028,223.531193 L258.986117,223.841679 L259.43866,224.012233 L259.798908,224.192995 L259.764882,224.537081 L259.908216,224.58812 L260.259533,224.801206 L260.153202,225.032157 L259.981797,225.118497 L259.49863,225.167409 L259.2932,225.123176 L258.907007,225.136361 L258.500824,225.196331 L258.23202,225.29373 L258.121436,225.434512 L257.982781,225.772218 L257.841999,225.919805 L257.634016,226.056333 L257.471543,226.127362 L257.398387,226.067392 L257.460059,225.806669 L257.270365,225.793484 L257.09896,225.830912 L256.9535,225.919805 L256.827179,226.060587 L256.757001,225.842396 L256.699582,225.167409 L256.613667,225.177617 L256.595804,225.191653 L256.598356,225.224402 L256.573262,225.29373 L256.403983,225.182295 L256.295526,225.167409 L256.2279,225.249496 L256.193874,225.430259 L256.068829,225.430259 L255.999927,225.03003 L255.726444,224.607259 L255.687315,224.600029 L255.581409,224.514539 L254.917481,224.282738 L254.628261,224.40353 L254.471743,224.208307 L254.412197,223.864221 L254.418577,223.529067 L254.379022,223.623488 L254.325857,223.696218 L254.251426,223.749809 L254.154452,223.782133 L254.09916,223.552885 L254.149773,223.354259 L254.235689,223.145426 L254.282049,222.889381 L253.931158,223.245802 L253.69723,223.543953 L253.443313,223.702598 L253.015438,223.654111 L252.612658,223.451232 L252.083131,222.889381 L251.74585,222.635038 L252.148631,223.342775 L256.318068,227.457346 L257.303541,228.078742 L257.640821,228.526607 L260.48623,230.771885 L261.408329,231.250373 L263.698266,233.175383 L265.753425,235.315606 L265.91845,235.419385 L266.194909,235.555914 L266.41948,235.879584 L266.743576,236.557548 L267.502776,237.312921 L267.630373,237.507294 L267.762223,237.657433 L268.419347,238.019807 L268.656251,238.192063 L269.037766,238.70245 L269.216401,239.049939 L269.290833,239.406359 L269.225333,239.822325 L269.116876,240.137914 L269.094334,240.427559 L269.290833,240.735918 L272.454382,242.801709 L274.622251,244.784138 L275.16071,245.379164 L275.413351,245.758552 L275.517555,246.106466 L275.540098,246.531363 L275.614529,246.896715 L275.734045,247.230594 L275.910128,247.558092 L276.560446,248.404909 L278.159659,249.777 L279.430523,246.368465 L279.735054,245.785347 L280.216094,245.375336 L280.85025,244.967452 L281.401894,244.515334 L282.002024,244.14743 L282.763351,243.99559 L283.470663,243.758685 L283.885352,243.23086 L284.23199,242.661778 L284.741952,242.311738 L285.672132,242.445289 L286.360304,242.970988 L287.833197,245.339184 L288.144533,245.675189 L288.546463,245.812993 L289.558305,245.681994 L289.931313,245.727504 L290.998873,246.029908 L291.34466,246.03884 L291.715967,245.898909 L292.11662,245.601183 L292.443694,245.212863 L292.589154,244.795196 L292.45858,244.40475 L292.101734,244.21293 L291.662801,244.070447 L291.278735,243.842048 L291.09372,243.456281 L291.144758,243.027556 L292.202961,240.539844 L292.453901,240.094956 L293.253082,239.499505 L293.502747,239.102679 L293.308374,238.508503 L292.589154,238.172073 L291.711288,237.933042 L291.036301,237.613624 L290.290285,237.000309 L289.899839,236.767232 L288.847166,236.330001 L288.701705,236.224095 L288.542635,236.067577 L288.508609,235.997824 L288.537105,235.894045 L288.557096,234.615951 L288.649391,234.29228 L288.894376,233.834208 L289.088324,233.71852 L289.342666,233.738935 L289.793508,233.714267 L290.25073,233.433979 L290.25073,233.037153 L289.979374,232.611831 L288.565602,231.12065 L287.925492,230.195998 L287.623513,229.856165 L287.252631,229.735374 L286.725657,229.895295 L285.974962,230.420143 L285.656396,230.473309 L285.558997,230.03948 L285.780164,229.196915 L287.132265,227.004803 L287.304521,226.537373 L287.393838,226.152882 L287.393838,225.769241 L287.294738,225.297558 L287.118655,224.88457 L286.649098,224.137278 L286.505765,223.749809 L286.499385,223.425288 L286.633362,222.404088 L286.567011,221.997905 L286.168484,220.921839 L286.317347,220.559889 L286.358603,220.548406 L287.045074,220.570948 L287.983335,220.852937 L288.237253,220.983085 L288.352941,221.125143 L288.426522,221.280811 L288.567729,221.44456 L289.194229,221.931555 L289.531935,222.111041 L289.839443,222.134434 L290.149078,221.955798 L290.777705,221.37821 L291.189843,221.213185 L291.860151,221.082186 L292.640618,220.831671 L293.221183,220.545003 L293.413004,220.65899 L293.748158,220.903975 L294.37721,221.680615 L294.945441,222.066382 L295.521753,222.128479 L302.887915,220.559889 L302.677381,220.152005 L302.811357,219.555703 L303.058895,218.920696 L303.188193,218.39117 L303.056768,217.628566 L303.091219,217.355934 L303.223069,217.073945 L303.558224,216.5525 L303.639035,216.232232 L302.915561,215.90601 L302.528943,215.316938 L302.370298,214.570071 L302.21548,212.582539 L302.286509,212.332874 L302.492791,212.380936 L303.064849,212.985319 L303.391497,213.086546 L303.631804,212.957248 L303.713041,212.769255 L303.727077,212.571055 L303.759401,212.411984 L303.872962,212.178057 L303.964407,212.058116 L304.078393,211.953487 L304.986032,211.349103 L305.185933,211.276798 L306.101227,211.251704 L306.886798,211.576651 L308.195516,212.518315 L308.980236,212.769255 L309.288595,212.982767 L309.503383,213.433609 L309.910417,214.771674 L310.080971,215.16212 L310.18475,215.2995 L310.473544,215.581063 L310.559459,215.692072 L310.632189,216.111866 L310.599014,216.119522 L310.599014,216.204586 L310.578598,216.315595 L310.617303,216.413419 L310.971597,216.503588 L310.959688,216.609918 L310.887808,216.731561 L310.855058,216.819603 L310.777649,216.958258 L310.744474,217.074796 L310.784029,217.198565 L311.027314,217.434194 L311.097492,217.563917 L311.109401,217.756163 L311.194891,218.084512 L311.45689,218.074304 L311.906881,217.845055 L312.0634,218.003701 L312.411739,218.567678 L312.588673,218.779914 L312.681819,219.276266 L312.734559,219.423853 L312.866409,219.565485 L312.984648,219.563359 L313.069713,219.581222 L313.115648,219.78963 L312.959129,219.953805 L312.85535,220.103518 L312.822601,220.291511 L312.808565,220.450156 L312.757951,220.613055 L312.679267,220.767447 L312.593352,220.89717 L312.383242,221.069851 L312.291373,221.241256 L312.341561,221.35184 L312.5908,221.338655 L313.142018,220.791265 L313.384452,220.721087 L313.841673,220.802323 L315.040658,221.340782 L315.427701,221.435629 L315.63058,221.393947 L315.984874,221.188516 L316.201789,221.16002 L316.384677,221.202127 L319.613726,222.395156 L319.948455,222.434286 L320.302749,222.34667 L320.709357,222.410468 L320.802078,222.410468 L321.062801,222.330933 L321.18104,222.359855 L321.337984,222.586552 L321.434958,222.617175 L321.631457,222.50574 L321.710567,222.357728 L321.76118,222.186748 L321.864959,222.008964 L322.0504,221.830753 L322.652656,221.41734 L322.811302,221.262522 L323.078404,220.923966 L323.26342,220.760642 L323.485438,220.650058 L323.932027,220.509701 L324.114065,220.381254 L324.19275,220.218355 L324.250168,219.827059 L324.374788,219.634813 L325.782605,218.276332 L325.932744,218.069626 L325.997819,217.87823 L326.029718,217.513304 L326.076078,217.308724 L326.272152,216.942521 L326.658345,216.368761 L326.704279,216.269235 L326.765526,216.292628 L326.962025,216.430858 L327.215943,216.673717 L327.438386,217.023332 L327.60171,217.411652 L327.765034,218.173404 L328.190782,219.028728 L328.420031,219.368986 L328.75561,219.710946 L328.879805,219.893409 L328.945304,220.407199 L329.090765,220.542877 L329.287264,220.637298 L329.476532,220.772125 L329.733002,221.114085 L329.655168,221.234876 L329.432299,221.371405 L329.170725,221.927727 L328.784532,222.119547 L328.647578,222.282021 L328.633968,222.991033 L328.614403,223.082903 L328.914681,223.347454 L329.335325,223.488661 L329.792547,223.511203 L330.178314,223.429966 L330.500284,223.238146 L330.678068,223.15776 L330.861383,223.15776 L331.032362,223.281954 L331.08255,223.619235 L331.20802,223.728968 L331.347101,223.731095 L332.203701,223.465268 L332.31556,223.444427 L332.506956,223.458038 L332.788945,223.621787 L332.980765,223.69877 L333.144514,223.673251 L333.255523,223.534596 L333.459253,222.965939 L333.615772,222.800914 L333.792281,222.661834 L333.923705,222.503188 L333.919027,222.020022 L334.004942,221.83288 L334.155081,221.673384 L334.508524,221.375658 L334.679929,221.262522 L334.862392,221.178734 L335.747063,220.973728 L335.826599,221.023491 L335.687518,220.436971 L334.286505,219.255425 L334.22696,218.625097 L334.47705,218.43115 L335.112482,218.199774 L335.361721,217.931396 L335.361721,217.795718 L335.251137,217.464392 L335.268575,217.281928 L335.365974,217.194312 L335.687518,217.080751 L335.819368,216.953579 L335.904007,216.693282 L336.009487,215.718868 L336.126451,215.356493 L336.145165,215.173604 L336.052445,215.01666 L335.902306,214.906501 L335.80916,214.811655 L335.795975,214.695116 L335.892949,214.522435 L335.881465,214.311475 L335.927825,214.147726 L336.020971,214.011197 L336.159201,213.876795 L338.352164,213.021472 L338.848941,212.756496 L338.980791,212.502153 L338.835331,211.697868 L338.848941,211.54305 L338.967606,211.066689 L339.018219,209.596349 L339.135183,209.199098 L339.366984,208.95156 L339.799112,208.687434 L339.660031,208.565367 L339.267458,208.499867 L338.953996,208.402894 L338.724747,207.656878 L338.363223,207.458677 L338.246259,207.322149 L338.409583,207.176689 L338.791522,207.042287 L338.969307,206.956371 L339.145391,206.829625 L339.27001,206.642483 L339.341464,206.430247 L339.459704,206.269475 L340.070893,206.15719 L340.063237,205.877328 L339.852702,205.5443 L339.609418,205.303568 L339.845472,204.771915 L339.878222,204.328728 L339.942445,204.155197 L340.160636,203.949341 L340.395839,203.799627 L340.526839,203.586115 L340.42391,203.204601 L339.769764,202.775025 L339.501386,202.495163 L339.390377,202.141294 L339.441415,201.93799 L339.566035,201.804864 L339.72383,201.686624 L339.854404,201.53606 L339.959458,201.342113 L340.023682,201.163478 L340.102792,200.75134 L340.120655,200.175028 L340.087906,200.008302 L339.942445,199.770121 L339.549447,199.38648 L339.417597,199.163186 L339.417597,199.002414 L339.514996,198.684698 L339.534561,198.527328 L339.468636,198.312115 L339.272137,197.915289 L338.74261,196.470043 L338.749841,196.203791 L338.945914,195.812494 L339.038209,195.015014 L339.135183,194.593094 L339.417597,194.1397 L339.745946,193.781579 L339.956056,193.386454 L339.878222,192.826729 L339.753602,192.357173 L339.753602,191.905055 L339.849725,191.452512 Z M238.069177,190.270541 L238.15254,190.427485 L238.15254,190.715853 L238.101926,190.960839 L238.104053,191.19264 L238.267802,191.432522 L238.558723,191.629446 L238.809238,191.646885 L239.076766,191.527369 L239.405115,191.307052 L239.387251,190.729889 L239.456154,189.948571 L239.306015,189.315691 L238.631453,189.169806 L238.631453,189.032852 L238.794777,188.976284 L238.876014,188.865275 L238.871335,188.717263 L238.774362,188.532247 L238.611888,188.733425 L238.212936,188.976284 L238.002401,189.169806 L237.794844,189.454772 L237.751035,189.59768 L237.747633,189.798858 L237.812707,190.001737 L238.069177,190.270541 Z" id="Fill-3"></path>
        </g>
    </g>
</svg>