<svg width="174px" height="100px" viewBox="0 0 174 100" version="1.1" xmlns="http://www.w3.org/2000/svg" xmlns:xlink="http://www.w3.org/1999/xlink">
    <!-- Generator: Sketch 51.2 (57519) - http://www.bohemiancoding.com/sketch -->
    <desc>Created with Sketch.</desc>
    <defs>
        <path d="M83,42 L166,42 L166,84 L83,42 Z M83,42 L83,84 L0,84 L83,42 Z M83,42 L0,42 L0,0 L83,42 Z M83,42 L83,0 L166,0 L83,42 Z" id="path-1"></path>
    </defs>
    <g id="Page-1" stroke="none" stroke-width="1" fill="none" fill-rule="evenodd">
        <g id="Flag_of_the_United_Kingdom" transform="translate(4.000000, 8.000000)">
            <polygon id="Shape" fill="#00247D" fill-rule="nonzero" points="0 0 0 84 166 84 166 0"></polygon>
            <path d="M0,0 L166,84 M166,0 L0,84" id="Shape" stroke="#FFFFFF" stroke-width="16.625" fill="#000000" fill-rule="nonzero"></path>
            <g id="Clipped">
                <mask id="mask-2" fill="white">
                    <use xlink:href="#path-1"></use>
                </mask>
                <g id="Shape"></g>
                <path d="M0,0 L166,84 M166,0 L0,84" id="Shape" stroke="#CF142B" stroke-width="11.0833333" fill="#000000" fill-rule="nonzero" mask="url(#mask-2)"></path>
            </g>
            <path d="M83,0 L83,84 M0,42 L166,42" id="Shape" stroke="#FFFFFF" stroke-width="27.7083333" fill="#000000" fill-rule="nonzero"></path>
            <path d="M83,0 L83,84 M0,42 L166,42" id="Shape" stroke="#CF142B" stroke-width="16.625" fill="#000000" fill-rule="nonzero"></path>
        </g>
    </g>
</svg>