<svg width="113px" height="116px" viewBox="0 0 113 116" version="1.1" xmlns="http://www.w3.org/2000/svg" xmlns:xlink="http://www.w3.org/1999/xlink">
    <g id="Page-1" stroke="none" stroke-width="1" fill="none" fill-rule="evenodd">
        <g id="LR-EPS-01-0001" transform="translate(-220.000000, -126.000000)" fill="#7F807C">
            <polyline id="Fill-3" points="276.520569 142.119812 276.523375 142.109791 276.488502 142.196374 276.520569 142.119812 276.16983 143.302706 276.10369 144.459143 276.367847 145.593134 276.996372 146.73955 277.705066 147.637042 277.942366 148.107634 278.63703 148.991497 278.339203 149.694178 278.071839 150.666628 278.114729 151.58817 278.691946 152.251168 278.39492 152.486063 278.161227 152.833194 278.002092 153.242858 277.869011 153.976003 277.674201 154.284654 277.185972 154.853854 277.289791 155.228644 277.057301 155.813476 276.438797 156.740631 275.876812 157.163121 275.617866 157.421666 275.509638 157.757173 275.493204 158.137174 275.419448 158.450635 275.251494 158.72842 274.95086 158.992978 275.061093 159.079961 275.287169 158.962915 276.080041 158.192491 276.384683 157.747553 276.912595 158.662682 277.222449 158.934054 277.634116 158.335592 277.793252 158.287491 277.930742 158.203714 277.989265 157.903882 278.101502 157.807279 278.351629 157.757173 278.806989 157.747553 279.195808 157.799262 279.392623 157.8646 279.621505 158.010908 279.810303 158.241394 279.999903 158.789349 280.163047 158.972535 280.591149 159.038674 281.520709 158.800172 281.939992 158.845066 282.334424 159.398633 282.705606 161.107034 283.381832 161.724335 283.545777 161.76442 284.155061 161.733956 284.308585 161.850201 284.321813 162.322797 284.533459 162.483936 285.067785 162.753705 285.165591 163.122482 284.911055 164.064067 285.222111 163.783476 285.590086 163.660817 285.973294 163.602294 286.334455 163.485648 286.713254 163.219086 287.056377 162.897608 287.432369 162.697587 287.900556 162.736469 288.121422 162.609802 288.725495 162.429822 288.845348 162.417396 288.93674 161.983281 289.061002 161.946403 289.350011 162.078281 289.495518 161.435326 289.843852 161.648976 290.361744 162.465097 290.722905 162.429822 291.903393 161.973661 292.20523 161.798892 292.381601 161.264967 292.25734 160.743468 292.056516 160.252433 291.997592 159.781841 292.128668 159.492832 292.374386 159.118042 292.869831 158.500741 293.12557 158.335592 293.572512 158.212533 293.802196 158.000085 293.905213 157.757173 293.947302 157.2008 294.043905 156.952277 294.208252 156.81639 294.967452 156.356621 295.428824 155.865586 295.699395 155.363327 295.805218 154.823389 295.775555 154.189253 295.702602 154.063788 295.581146 154.023704 295.470112 153.976003 295.439647 153.814864 295.48815 153.649715 295.650492 153.37193 295.690175 153.218807 295.754711 152.271611 295.943109 151.704816 296.657414 150.840594 296.87347 150.289032 300.123921 150.464602 299.977212 151.482347 300.145967 152.235935 300.656243 152.850431 301.533292 153.495791 302.358631 154.01729 303.497031 154.594507 303.986863 155.555332 304.54524 157.478987 304.875537 160.128171 305.02425 160.655683 305.201824 160.982772 305.667606 161.638554 305.843577 162.003724 306.057227 162.851912 306.187101 163.061153 306.51379 163.465606 306.624022 163.687273 306.636448 163.871261 306.578727 164.210375 306.600773 164.389954 306.698178 164.555904 307.099424 164.959555 307.266977 165.248163 307.341935 165.499493 307.379615 166.163693 307.845797 168.770387 307.777654 169.425368 307.571219 169.685115 307.017251 170.110011 306.86974 170.347712 306.833664 170.829527 306.86974 171.274465 306.842082 171.705374 306.496152 172.457759 306.629233 172.66179 306.850099 172.813309 306.985584 172.965229 307.004424 173.343226 306.960331 173.718016 306.731048 174.534938 306.389528 175.333421 306.001109 175.930279 303.014814 179.250878 301.046666 180.812169 300.674682 181.254301 300.611348 181.254301 300.157191 181.507234 300.127128 181.512445 300.157191 181.552931 300.035334 181.928121 299.977212 182.053185 299.852148 182.128945 299.524658 182.178649 299.394784 182.23597 298.725373 183.082555 299.18434 183.111816 299.4497 183.169939 300.10468 183.150298 300.418943 183.246901 300.724387 183.516269 301.533292 184.594542 302.035149 184.75488 302.375868 184.477495 302.589117 183.976439 302.712978 183.470172 302.846059 183.246901 303.01762 183.352323 303.333887 183.765594 304.189691 184.219752 304.548848 184.624204 304.507561 184.785344 304.30794 184.957707 304.166843 185.402645 304.21775 185.661992 304.461464 186.162246 304.523194 186.374293 304.387708 186.613197 304.136779 186.760708 304.039775 186.922248 304.36486 187.250139 304.657477 186.961531 304.991782 186.836868 305.326888 186.846889 305.615095 186.971552 305.969041 186.673323 306.250034 186.789969 306.51379 187.087797 306.8032 187.346743 306.935479 187.337924 307.024466 187.210856 307.140711 187.124675 307.338328 187.229696 307.475417 187.452165 307.506683 187.674634 307.506683 187.866639 307.546767 187.973263 307.795692 188.070268 309.908946 188.54086 310.232027 188.667126 310.529053 188.838287 310.709433 188.971768 310.941923 189.051536 311.383254 189.041515 311.758444 188.954933 312.366125 188.615818 312.684396 188.481936 313.95267 188.309172 314.691427 188.288728 315.163622 188.404973 315.60856 188.702 317.366666 189.116473 317.514177 189.137718 317.630822 189.087612 317.757089 189.051536 317.925844 189.107655 317.972342 189.205461 318.044494 189.522128 318.139094 189.647994 319.349645 190.618038 319.771735 191.129115 319.841081 191.504707 319.480722 192.555723 319.352451 193.121315 319.28551 193.749038 319.358464 194.29579 319.65549 194.669779 319.669119 194.548723 319.931271 194.402415 320.270386 194.317035 320.515703 194.335073 320.780261 194.573576 320.887687 194.826509 320.97908 195.441405 321.065262 195.538409 321.211971 195.584907 321.351064 195.65265 321.411992 195.82822 321.354271 195.969719 321.105747 196.116829 321.044418 196.239086 321.02638 197.011915 321.05484 197.215545 321.409988 197.656073 322.485856 198.21445 322.818156 198.542742 323.301175 199.214959 323.681977 199.02095 324.001451 198.483016 324.302084 198.117446 324.479659 198.261349 324.776284 198.606877 325.178732 198.924747 325.662552 199.002912 325.703438 199.097912 326.265022 199.40536 326.339178 199.424601 326.92842 199.674728 327.067513 199.860319 326.846247 200.138506 327.054285 200.311671 327.415848 200.763423 327.609857 200.869246 327.926123 200.727748 328.264035 200.439139 328.46526 200.359371 328.375871 200.811925 328.797961 200.89009 328.98275 201.245238 329.117835 201.628847 329.375979 201.793193 329.586423 201.583151 329.72271 201.140618 329.806887 200.331312 330.68113 200.707305 330.802987 201.648488 330.625814 202.806129 330.601362 203.793009 331.104022 205.932719 332.040796 207.810677 332.381915 208.242387 331.809909 208.156206 331.62512 208.484898 331.754192 208.992769 332.123771 209.465365 331.581428 209.502243 331.404254 209.493424 331.726935 209.802075 331.581428 210.02294 331.26436 210.281485 331.067144 210.67752 331.086785 211.698071 330.962122 211.98668 330.579716 211.784253 330.586531 212.229592 330.69516 212.709403 330.883156 213.171577 331.140498 213.545565 331.543748 213.768034 331.829952 213.707908 332.03318 213.757212 332.181493 214.268289 332.25605 214.786982 332.22759 215.095232 332.070058 215.373418 331.73896 215.837997 331.674023 216.021985 331.573812 216.470932 331.437124 216.637282 331.171764 216.751523 331.108832 216.653717 331.107629 216.443674 331.019844 216.267703 330.990582 216.127408 331.129275 215.988715 331.171764 215.884496 330.860709 215.828377 330.794569 215.904137 330.089082 216.289349 329.885854 216.540679 329.770811 216.779181 329.483005 217.675871 329.705875 218.963786 329.687837 219.415939 329.523891 219.896151 328.789944 221.228961 328.407939 221.070226 327.946566 221.063813 327.500827 221.263433 327.156902 221.754068 327.091564 222.228668 327.304413 223.807596 327.310025 223.807596 327.269539 224.394433 327.461945 224.770025 327.714076 225.124372 327.872009 225.644668 327.872009 226.057939 327.766186 226.050323 327.539308 225.893192 327.178547 225.857116 326.346393 226.509692 326.333566 226.759418 326.529179 227.608808 326.491499 227.917459 326.337575 228.472228 326.332364 228.716343 326.470254 229.032609 326.67669 229.22261 326.891142 229.390163 327.054285 229.580564 327.12764 229.830291 327.24629 231.236455 327.12764 237.049909 327.166121 237.299234 327.240678 237.551766 327.288379 237.831155 327.237872 238.523414 327.431481 239.070969 327.469962 239.321897 327.384582 239.591265 327.099581 240.102743 327.064707 240.370909 327.211818 240.689981 328.120533 241.312894 326.699538 241.458 326.291878 241.399076 325.650527 241.131311 325.303395 241.074391 323.438664 241.074391 323.216997 240.98821 323.095541 240.795003 323.006954 240.599791 322.882292 240.513609 322.438155 240.486753 321.366296 240.052638 321.033194 239.860633 320.724143 239.591265 320.5618 239.292636 320.413889 238.928669 320.163761 238.611199 319.346439 238.357865 318.694665 237.849995 318.389622 237.734151 317.939874 237.674425 317.666097 237.543749 317.456856 237.35896 317.187889 237.18339 316.701664 236.981765 315.522779 236.675119 314.587608 236.530013 312.871992 235.867817 309.555 235.462964 308.590567 235.13387 307.421703 233.853972 306.991998 233.632305 306.466089 233.534899 303.65336 232.526775 300.616158 230.390672 299.045247 229.51202 295.243634 228.135919 294.394645 227.683365 292.479007 226.075977 291.77352 225.624225 290.934551 225.240617 290.649951 225.183296 290.087566 224.941586 289.253007 224.808105 288.579587 224.603674 287.941442 224.305045 287.474057 223.949094 287.561441 223.894179 287.580682 223.884959 287.5891 223.854495 287.644015 223.75749 286.446291 223.422384 285.481858 222.863205 283.920567 221.524383 283.488456 221.246999 282.547673 220.803263 281.693473 220.17995 281.202839 219.992755 280.747078 219.763472 280.385115 219.284462 280.739061 219.284462 280.381507 218.783005 279.833552 218.482371 279.226673 218.263109 278.691946 217.981315 275.509638 215.007447 275.315229 214.604197 275.026219 213.612507 274.780902 213.132294 274.4951 212.852505 274.053369 212.553474 273.572355 212.30455 273.175518 212.209149 273.097754 212.169866 272.327331 212.017144 272.159377 212.026363 272.125706 211.753789 272.449989 211.349336 272.517732 211.08999 272.071592 210.447034 269.349454 208.868106 265.388304 205.075312 261.635995 202.018067 260.67036 200.928571 260.467532 200.754604 259.99213 200.484836 259.824978 200.281206 259.746011 200.003421 259.862256 199.668715 259.824978 199.340824 259.571243 198.914726 259.140335 198.56078 258.655713 198.307045 258.240438 198.222868 257.94742 198.058121 256.020559 196.538918 254.907012 195.327164 253.450341 194.419651 252.955298 194.20079 251.923924 194.007182 251.439703 193.727392 251.157107 193.374248 251.227255 192.995449 251.476982 193.150576 251.691434 193.181041 251.866603 193.063994 251.988861 192.813466 251.443311 192.690006 251.051685 192.381355 250.706157 192.012578 250.29489 191.698716 249.410225 191.147153 248.958072 190.96517 248.436172 190.935908 248.436172 191.137934 249.846745 191.859856 250.467253 192.370933 250.666473 192.995449 250.256008 192.48798 249.499213 192.033021 248.632987 191.678674 243.103732 190.322616 239.590727 188.54086 239.060811 188.049424 239.264039 187.588452 239.391107 187.806913 239.536613 187.962842 239.735032 188.070268 240.025243 188.145627 239.571888 187.394844 239.480896 186.739463 239.75307 186.122563 240.380392 185.509671 239.988366 185.509671 239.704167 185.585029 239.478491 185.722118 239.264039 185.89368 238.609058 184.594542 237.707558 183.632113 236.657344 182.91901 232.355076 180.599721 227.465169 178.855645 224.193473 177.413806 223.597016 176.709121 223.579378 175.620827 223.734906 175.018357 223.770581 174.767428 223.779801 174.401456 223.40942 173.707995 223.306804 173.57291 222.794524 173.429808 222.255788 173.090694 221.794416 172.715503 221.529457 172.436515 220.838 171.457651 221.685787 171.050393 221.896631 170.92573 221.838509 170.24229 221.95275 169.780516 222.698321 169.356022 222.960875 168.905071 223.130031 168.385175 223.188555 167.981524 223.089947 167.432768 223.178533 167.251987 223.774189 167.18224 223.975814 167.105678 224.120118 166.962176 224.176236 166.720065 224.086447 166.386162 223.699632 165.748417 223.628682 165.469429 223.712459 165.362404 224.205498 164.911453 225.154699 163.429129 225.618877 163.333728 227.862807 162.322797 228.097301 162.099526 230.35967 159.205426 234.407001 156.01911 235.520147 155.391787 236.557935 155.15088 236.918695 154.999761 237.223738 154.756849 241.148411 149.992807 242.183793 149.114155 243.469704 148.416685 243.669324 148.346938 244.296647 148.248731 244.226499 141.6396 244.265381 141.320528 244.377617 141.0704 244.622534 140.865168 245.312789 140.482361 245.602199 140.203373 246.236736 139.038117 246.637982 138.539065 247.278532 138.220794 247.822479 138.134211 250.021915 138.124992 250.582296 138.046827 251.116622 137.884084 251.645337 137.575434 252.315549 136.932879 252.390908 136.422203 252.178059 135.872244 251.978839 135.102621 252.034557 134.486122 252.513967 133.446731 253.352936 130.08725 253.372978 128.673871 253.668401 128.691107 253.954604 128.634588 254.516188 128.420537 254.729838 128.887922 255.187603 128.624968 256.108344 127.719058 256.570919 127.575956 257.032291 127.585978 258.581958 127.980008 258.992022 128.20849 259.178014 128.613744 258.903034 129.894844 259.019279 130.263221 259.384048 130.386681 259.966075 130.288474 261.059179 129.645118 262.126228 128.816972 262.587601 128.579271 263.025324 128.43176 263.483088 128.376444 264.013406 128.36522 264.150495 128.343975 264.535306 128.238152 264.66037 128.305494 264.788239 128.43176 264.920518 128.604925 265.16343 128.538786 265.65647 128.279038 266.333096 128.087034 266.371176 127.901443 266.279383 127.690598 266.277378 127.469733 266.464573 127.237243 266.659384 127.036419 266.792063 126.796313 266.775228 126.458 267.239005 126.52895 267.525609 126.883296 267.68234 127.352285 267.858311 128.642204 267.983775 129.125222 268.265168 129.605033 268.642363 130.010288 268.748186 129.944549 268.755001 129.550518 268.823545 128.982922 269.155846 128.604925 269.693379 128.604925 270.240131 128.856255 270.593676 129.210602 270.741187 129.798641 270.516313 130.127735 270.157156 130.375056 269.900215 130.724192 269.864139 131.224447 270.10665 131.299405 270.516313 131.205206 270.987707 131.195185 271.206167 131.224447 271.437856 131.195185 271.640282 131.086957 271.77176 130.9174 271.96657 130.693728 272.187436 130.84645 272.538977 131.341494 273.905858 131.916706 274.384867 132.253015 274.578075 132.464661 274.722379 132.540822 274.384867 132.74405 274.271428 132.793755 274.089044 132.889156 273.920288 133.021835 273.623663 133.330887 273.87379 133.563377 274.013685 133.851184 274.119107 134.160636 274.271428 134.427999 274.405311 134.543844 274.446598 134.669308 274.403306 134.79357 274.271428 134.919435 274.002461 135.354753 273.828094 136.132392 273.874993 136.863533 274.271428 137.152141 274.934025 137.288429 275.204595 137.429927 275.295988 137.759421 275.295988 138.077291 275.793036 140.060672 275.736517 140.33966 275.43909 140.830294 275.400208 141.148565 275.728099 140.753733 276.017509 140.520441 276.306117 140.55291 276.62519 140.925695 276.765886 141.224726 276.814388 141.504115 276.75346 141.782301 276.557848 142.032428 276.520569 142.119812"></polyline>
        </g>
    </g>
</svg>