<?xml version="1.0" encoding="UTF-8"?>
<svg id="Mexico" xmlns="http://www.w3.org/2000/svg" viewBox="0 0 154.18 115">
  <defs>
    <style>
      .cls-1 {
        fill: none;
      }

      .cls-2 {
        fill: #878787;
      }
    </style>
  </defs>
  <path class="cls-2" d="m21.82,38.71l-.03-.09v-.09s0-.06,0-.06v-.06s-.07-.08-.07-.08l-.1-.15-.05-.03-.09.03-.1.13.02.15.06.15.02.13-.07.16-.26.23-.09.16.12-.03h.11s.09.05.09.05l.13.12.09.07.09.04h.04s.02,0,.02,0h.04s.04-.02.04-.02l.02-.02.03-.22v-.08s0-.04,0-.04l.05-.13v-.05s-.01-.09-.01-.09l-.09-.16Zm9.66-1.7l-.19-.1-.13-.05.05.07.02.03v.03s.03.02.03.02l.08.03.03.02.15.13.09.05h.06s-.04-.1-.04-.1l-.16-.11Zm.99-.35h-.07s-.06-.01-.06-.01l-.04.05.02.16.03.05h.08s.07-.03.07-.03l.04-.07v-.09s-.03-.08-.03-.08l-.06.02Zm-23.21-1.36l-.06-.08-.18-.14-.04-.08v-.05s.06-.1.06-.1v-.04s-.04-.03-.04-.03h-.06s-.07,0-.07,0l-.06.02h.03-.04s-.09.03-.09.03l-.09.11v.03s.04.04.04.04l.02.04-.04.09v.05s.04.04.04.04l.03.03.03.02.07.03.03.02.02.03.02.06.02.03.03.06.04.2.04.08v.04s.01.05.01.05v.06s-.02.05-.02.05v.04s.02.05.02.05l.03-.05h.06s.06,0,.06,0l.03-.02.02-.07.08-.12.02-.07-.03-.38-.03-.11Zm19.05-1.72l-.05.08-.03.08v.06s.19.21.19.21l.14.22v.04s0,.04,0,.04v.03s.03.01.03.01h.08s.08.03.08.03l.06.03.06.05.04.06.02.07.05.08.37.27.35.36.21.12.1.05.1.03.04-.04v-.03s.03-.05.03-.05v-.02s-.01-.02-.01-.02h-.03s-.02,0-.02,0l-.04-.04-.07-.04-.03-.03-.05-.14v-.02s-.03-.12-.03-.12v-.49s0-.06,0-.06l-.05-.03-.29-.02h-.09s-.08.04-.08.04l-.04-.04-.06-.03h-.07s-.07-.02-.07-.02l-.04-.03v-.07s.03-.12.03-.12l.05-.08v-.03s0-.03,0-.03l-.04-.06-.03-.1-.05-.07-.28-.26-.09-.07-.13-.08-.02-.02h-.02s-.04-.02-.04-.02h-.02s-.03.04-.03.04h-.02s-.06-.02-.06-.02l-.02-.06-.02-.04-.05.02.06.22v.08s-.03.07-.03.07Zm15.45,21.64l-.15-.2-.15-.25-.04-.13-.11-.1-.03-.04-.04.1.03.13.05.13.06.24.07.13.09.11.09.08.03-.03.03.03.05.02h.05s.04-.02.04-.02v-.03s-.06-.1-.06-.1l-.02-.07Zm-7.05-.75l-.07-.03-.07.02-.06-.06-.1-.02h-.11s-.1.04-.1.04l-.03-.02h-.03s-.02.03-.02.03v.05s.08,0,.08,0l.26-.03h.09s.09.03.09.03l.17.08.03-.03-.07-.03-.07-.05Zm-1-.37l-.05-.04-.13-.04-.05-.05-.03-.06-.03-.04h.06v-.04s-.03-.03-.03-.03l-.02-.03-.03-.02v.03s0,.03,0,.03l-.12-.03-.55.03v.05s.25.08.25.08l.06.06.04.05.09.05.18.08.06.05.07.08.09.07.19.06.09.08.07.09.04.06.04-.07.02-.07v-.16s-.22-.18-.22-.18l-.07-.08Zm6.01-.01l.02-.06v-.03s-.04-.04-.04-.04l-.04-.04-.04-.02-.08-.06-.13-.23h-.08s-.02.06-.02.06l.06.16.03.15.02.03.03.02.03.04v.03s.01.03.01.03v.03s-.04.04-.04.04l.05.02.02.05v.05s.02.02.02.02h.06s.03-.05.03-.05l.02-.04.04-.03-.02-.06.02-.05.03-.05Zm-22.26-1.98h0s0,0,0,0h0s0,0,0,0h0s0,0,0,0h0Zm20.63-.56h-.01s0,0,0,0h.01s0,0,0,0Zm-.06.07v.07s.04.06.04.06l.1.13.11.24.04.04h.02s.03.02.03.02l.05.02.04.03.1.11.05.03.06.03h.06s.02-.07.02-.07l-.18-.55-.15-.02-.13-.06-.22-.15h0s0,0,0,0h0s-.01-.02-.01-.02l-.03.09Zm.04-.09h0s0,0,0,0h0,.01s0,0,0,0h0Zm-5.55,2.1l-.05-.08-.06-.07-.07-.03-.11-.03-.04-.08.03-.26v-.05s-.02-.02-.02-.02l-.06-.1-.07-.21-.02-.02h-.03s-.03-.03-.03-.03l-.03-.03v-.08s.06-.56.06-.56l.02-.02.03-.02.03-.03v-.05s0-.03,0-.03v-.04s-.02-.04-.02-.04l-.02-.02v-.05s.17-.6.17-.6l.02-.17-.04-.13-.06.04v.05s.04.14.04.14v.07s-.05.13-.05.13l-.02.1-.12.37-.03.2-.2.62-.07.11-.08.1-.08.07.13.06.04.03v-.03l.02-.03.02-.02h.02s.02.02.02.02h.02s.04,0,.04,0h.03s.05.01.05.01l.03.02h.03s.06.07.06.07l.03.03.03.04v.14s0,.05,0,.05v.04s-.04.02-.04.02h-.06s0,.02,0,.02v.03s.02.04.02.04h.01s.07.1.07.1l.11.06.03.02.04.07.08.22.04.04.14.03.02-.03-.03-.11-.04-.08Zm5.13-4.57l-.06.08-.02.14.03.13.08.06.04-.06v-.13s-.04-.14-.04-.14l-.03-.09Zm-1.19-1.11l.05.02.07-.02-.02-.05-.1-.09v-.07s.08-.16.08-.16v-.06s-.06,0-.06,0l-.14.04h-.06s-.04.01-.04.01l-.06.07-.02.02h-.05s-.02.02-.02.02v.03s0,.1,0,.1l.02.08v.04s0,.03,0,.03l-.06.06-.07.37-.03.09v.06s.01.05.01.05l.08.07.11-.39.17-.36v-.02s-.02-.01-.02-.01v-.05s.07.04.07.04l.11.11Zm-8.36-2.9l-.06-.08-.05-.06h-.02s-.03,0-.03,0l-.02.02h-.01s-.03,0-.03,0v-.02s-.03-.02-.03-.02h-.04s-.04-.02-.04-.02l-.06.03-.05.03-.03.04.03.02h.05s.1.04.1.04l.12.03.11.04.04.03.03.02h.03v-.03s-.04-.05-.04-.05Zm17.67,5.16l-.05-.02-.21-.07h-.07s-.46-.02-.46-.02l.02.06.06.02h.25s.04,0,.04,0h.03s.04.02.04.02h.03s.11.05.11.05l.15.08.13.06.07-.04-.05-.04-.08-.11Zm-4.75-6.77l-.11-.07h-.1s.08.08.08.08l.09.05.08.06.05.11h.03l-.04-.12-.09-.11Zm-2.22-.95h-.04s-.03,0-.03,0l.07.03v-.03Zm-.15-.03l-.06-.08-.03-.11-.02-.23-.03.06-.03.1v.1s.02.07.02.07l.08.06.07.04Zm-6.9-6.29l.2-.45.02-.19-.05-.17-.19-.37v-.02s0-.05,0-.05v-.03s.02-.03.02-.03v-.03s-.04-.05-.04-.05l-.03-.09.03-.08v-.05s-.1,0-.1,0l-.02.03-.02.02h-.03s-.2.01-.2.01l-.05.02-.05.11-.07.02h-.17s-.06.03-.06.03l-.05.05-.04.05-.03.06-.05.15-.03.17v.18s0,.17,0,.17l.04.04.02.04-.02.05-.02.04-.02.04-.02.03h-.03s-.08.04-.08.04l-.07.06-.04.07v.07s.06.05.06.05l.09.06.1.04.07.02.04.02.1.07.04.02.14.03.14.1.02.03h.09s.04,0,.04,0l.07.03.08-.02.17-.09v-.03l-.04-.02-.02-.02v-.03s0-.04,0-.04l.03-.16Zm-10.21-12l-.13-.02-.05.19.15.17.19.08.09-.06.03.03.04.03.05.02h.05l-.07-.13-.17-.17-.18-.14Zm69.14,37.05l-.03.04-.06.06-.02.05.1-.04.09-.12.05-.13-.02-.08-.04.05-.07.17Zm-69.22,17.82l-.09.05v.05l.07.03.14-.02h.03s.03,0,.03,0l.03-.02v-.02s.03-.03.03-.03v-.03s-.01-.01-.01-.01h-.21Zm15.69-1.79l-.06-.02.02-.09-.06-.09-.1-.07-.08-.03-.15.13-.06.08-.04.09-.02.07v.03s.18.07.18.07l.06.03.06.05.06.06.07-.04h.08s.07,0,.07,0l.05-.07v-.07l-.03-.07-.05-.06Zm.52-2.23l-.04-.02v.06l-.02.04-.05.09v.04s-.02.04-.02.04v.03s.02.01.02.01h0s.02-.05.02-.05l.04-.04.1-.07-.04-.08-.03-.03Zm18.78-8.15h-.11s-.08-.01-.08-.01l-.1.07.06.15.14.12h.13s0-.23,0-.23v-.02s-.04-.07-.04-.07Zm-.55-.68h-.04s-.15.06-.15.06l-.05-.04-.09-.03h-.1s-.09-.01-.09-.01l-.08.09-.07.09v.09s.07.07.07.07l.08.02h.29s.06,0,.06,0h.03s.06-.07.06-.07l.13-.08.03-.03-.04-.12v-.02Zm-1.26-.76h0s0,0,0,0h0s0-.03,0-.03v.03Zm.6.57v-.03s-.02-.01-.02-.01h-.02s0-.02,0-.02v-.03s.02-.05.02-.05l.09-.11-.09-.04-.07-.08-.03-.1.02-.09-.14-.05-.12-.03h-.11s-.12.08-.12.08l.02.09.02.27.02.08.05.07.07.06.25.14h.06s.02-.08.02-.08l.02-.02.03-.02.02-.02Zm-.58-.91l-.04-.04-.04-.11-.03-.05v.04s-.03.02-.03.02h-.02s-.03.03-.03.03v.05s.02.11.02.11l.02.04h.04s.05-.02.05-.02l.04-.05.03-.04Zm60.51,12.75l.12-.02.13-.05.21-.12-.08.14.14-.03.12-.09.16-.21h.06s.14-.05.14-.05h.08s-.04,0-.04,0l-.03.02-.03.02-.02.03h.05s.05-.03.05-.03l.09-.06v.02s.03.01.03.01v-.06s-.01-.04-.01-.04l-.02-.03-.03-.03h-.07s-.18.09-.18.09l-.19.05-.06.03-.32.2-.11.03-.18.07-.04.03-.06.06-.02.03h.03s.08,0,.08,0Zm-23.82-12.81l-.04-.08-.02-.09-.02-.08-.06-.06.02.16.06.18.1.14.12.02.03-.05-.05-.05-.15-.1Zm39.89,14.61h-.01s-.01,0-.01,0h0s0,.02,0,.02h0s-.01,0-.01,0l-.02.02v.05s.06-.03.06-.03h0s0,0,0,0v-.02s0-.02,0-.02v-.02s-.02,0-.02,0Zm2.21-1.1l-.03.1-.02.04-.04.05-.07.08-.02.03h.03l.16-.21.05-.14-.04-.18-.03.22Zm.03-.22h0s0,0,0,0h0Zm.03-.07l-.02.03v.03s.07-.14.07-.14l-.03.04-.02.03Zm.22-.77l.04.33-.02.11.05-.09v-.1s-.02-.2-.02-.2l-.06-.06Zm2.15-7.58h-.02v.02s-.04.06-.04.06l-.06.05-.07.03h-.05s-.09.04-.09.04h-.06s-.04,0-.04,0l-.1-.04h-.04s-.01-.02-.01-.02h-.02s-.03-.02-.03-.02h-.03s-.03.02-.03.02l-.06.06h-.03s-.13.18-.13.18l-.16.29-.05.16v.17s0,.09,0,.09l.05.17v.08s.04.04.04.04l.07-.03.21-.19.04-.04.02-.03.02-.04.04-.03.04-.02.02-.02.02-.07.1-.18.05-.07.12-.1.07-.07.05-.13.14-.24.05-.06h0s0-.04,0-.04h-.02Zm.06-2.64l-.04-.1v-.09s-.05.06-.05.06l.04.12.08.12.08.06-.11-.18Zm-.6,1.58v-.04s.1-.21.1-.21l.07-.22v-.05s.01-.09.01-.09v-.03s.03-.03.03-.03l.02-.02.06-.02.02-.02h.02s.02,0,.02,0h.01s0-.04,0-.04v-.02s-.03-.04-.03-.04v-.03s.05-.11.05-.11l.02-.03.09-.18.02-.02v-.02s.02-.04.02-.04l-.2.02-.1-.19-.03-.26v-.2s0-.05,0-.05l.04-.1v-.06s0-.05,0-.05l-.06-.21-.04-.02h-.1s-.09-.03-.09-.03h-.04s-.02.06-.02.06h-.04s-.04-.03-.04-.03l-.03-.03-.02-.08-.02-.03-.03-.03-.02-.04-.22-.3-.12-.11-.07-.04-.28-.09-.09.02-.45.21-.12.03-.09-.02-.04-.02-.13-.02h-.1s-.03,0-.03,0l-.03.02-.04.04-.13.1v.05s.01.04.01.04h.03s.04,0,.04,0h-.02s0,0,0,0h0s0-.02,0-.02l.08-.03.11-.08.07-.03v.03s.03.06.03.06l.03-.03.08.03.1.02h.1l.08-.04.07-.05.09-.05.1-.03h.09s.06.02.06.02v.02s0,.02,0,.02v.03s0,.03,0,.03l.02.03v.04s-.01.04-.01.04l-.03.04-.05.08-.04.04-.29.12h-.08s-.06-.02-.06-.02l-.07-.02h-.25s-.23-.06-.23-.06h-.09s-.18.01-.18.01h-.08s-.04-.05-.04-.05h.03v.02s.03,0,.03,0h.02s.03-.03.03-.03h-.05s-.03-.03-.03-.03l-.02-.03v-.02s-.05,0-.05,0h-.11s0,0,0,0h-.1s-.23-.09-.23-.09l-.27-.03-.02.02.07.04.08.02h.17s-.07.04-.07.04h-.07s-.13-.03-.13-.03h-.28l-.13-.02-.14-.04-.12-.06-.1-.07.09.03.29.05.06.03.04.02h.05s.05,0,.05,0h.04s.03-.04.03-.04h-.01s-.25-.08-.25-.08l-.36-.05-.17-.04-.25-.1h-.1s-.35-.01-.35-.01l-.18-.05h-.06s-.04,0-.04,0l-.09.04-.11.02-.09.03-.08.05-.02.03h.03s.16-.04.16-.04l.14-.07h.1s.1.02.1.02l.08.03h-.26s-.06.02-.06.02l-.05.04-.07.02-.22.02-.13.04h-.07s-.07,0-.07,0l-.14-.06h-.07s-.32-.01-.32-.01l-.08.02-.15.07-.08.02-.25.03-.08.03-.25.22-.14.09-.49.11-.15.06-.08.02-.18.02-.27.08-.35.05h-.03s-.09.05-.09.05h-.04s-.04,0-.04,0l-.1-.03-.16.02-.33.09-.78.07-.57.09h-.32l-.44.07-.41.14h-.07s-.07.04-.07.04l-.25.17-.22.08h-.13s-.05.03-.05.03l-.09.04-.14.11-.27.09-.08.06-.46.27-.07.06-.04.07-.19.55h0s-.06.18-.06.18l-.08.1v.03l.1-.04.08-.1.05-.12v-.06s.01,0,.01,0v-.03s.02-.03.02-.03l.07-.15.06-.22h.03v.14s-.11.24-.11.24l-.02.1-.03.12h0s-.05.1-.05.1l-.23.25-.04.11-.03.39-.09.35v.18s.06.34.06.34v.16s-.06.23-.06.23v.09s0,.23,0,.23l-.04.2v.31s-.01.08-.01.08v.04s.01.05.01.05l.12.22.02.07v.07s-.02.06-.02.06l-.03.06-.17.21-.37.26-.23.21-.08.12-.08.17-.03.1v.07s.02.07.02.07v.09s0,.08,0,.08l-.04.17-.07.79-.05.13-.11.14-.14.11-.13.04-.08.06-.32.39-.32.2-.19.07-.08.04-.34.29-1.03.42-.08.06-.16.17-.04.06-.09.11v.03s.09,0,.09,0h.08s.05-.02.05-.02l.09-.06.02.02.04-.02v-.1s.1-.09.1-.09l.27-.13.27-.2.1-.02-.06.08-.11.1-.12.09-.19.06-.09.07-.08.09-.06.1.08.03.12.14.08.02.03-.02v-.03s.03-.03.03-.03h.04s.05,0,.05,0h.03s.07.08.07.08l.08.12v.13s-.13.31-.13.31l.06-.03.19-.05.1-.05h.05s.07.02.07.02l-.06.04-.16.04-.03.04-.03.02h-.07s-.14,0-.14,0l-.02.03-.07.13-.04.04-.05.03-.07.03h-.07s-.06,0-.06,0l-.12.07-.23.08-.1.05-.03.03-.09.1-.02.04.02.02.11-.05h.04s0-.03,0-.03l.02-.03v-.02h.03v.05s.03.12.03.12v.05s-.05.03-.05.03h-.04s-.03-.05-.03-.05v-.06s-.08.04-.08.04l-.09.02-.2.02h-.1s-.19-.05-.19-.05l-.08.02-.12-.05-.25-.06-.1-.05-.03.06.04.05.06.05.04.05h-.05s-.05,0-.05,0l-.04-.02-.03-.03.03.08.04.06.02.06-.04.07h-.05s-.08-.07-.08-.07l-.08-.07-.03-.05.03-.06.1-.12v-.06s-.03-.05-.03-.05l-.16-.05-.07-.05h.02s0,0,0,0h0s0-.02,0-.02l.06.03-.02-.05-.04-.04-.05-.03-.05-.02.05-.08-.1.04h-.05s-.05-.05-.05-.05l-.08-.04.02.13.09.08.11.07.11.08-.07-.02-.08-.04-.06-.05-.03-.05-.02-.02h-.05s-.09.03-.09.03h-.05s-.04-.03-.04-.03l-.07-.06-.07.04-.02.02v-.04s.03-.04.03-.04l.02-.03.03-.03-.02-.02v-.02s0-.02,0-.02v-.02s.04.03.04.03h.05s.05.01.05.01h.05v-.05h-.06s-.03-.03-.03-.03v-.02s.07-.01.07-.01h.04s.02.02.02.02h.02s.08-.07.08-.07h.03s.03,0,.03,0l.02.03v.05s-.02.04-.02.04l.04.02h.11s.05-.01.05-.01l.05-.02v.03s-.03.03-.03.03h.05s.04-.04.04-.04l.03-.05v-.05l-.03-.03-.22-.14-.15-.23-.12-.05h-.11s-.7.18-.7.18l-.43.04h-.52s-.26.05-.26.05l-.07.02-.36.14h-.09s-.19,0-.19,0h-.1s-.06.04-.06.04v.05s.11.19.11.19l.02.08-.03.17v.09s.03.06.03.06l-.03.11-.05-.11-.03-.4-.05-.13-.02-.03h-.04s-.04.01-.04.01l-.02.04-.03.05-.07.07-.4.27-.16.07-.17.05-.67.03-.08.02-.06.04v.03s.08.02.08.02l.09.03.03.07-.03.06h-.08s.03.04.03.04l-.03.03-.06.09h-.03v-.06s.05-.08.05-.08v-.06s-.03.03-.03.03l-.06.03-.06.02h-.04s-.03-.04-.03-.04v-.09s-.03-.03-.03-.03l.04-.02.03-.03.04-.06v-.03l-.61.02-.57-.02-.44.05-.18.04-.76.27-.05.04-.04.04-.08.02-.08.04-.03.08.05-.04h.05s.05-.01.05-.01l.04-.02.14-.1.18-.03.03-.02.04-.05.03-.02.29-.09.05-.04.02-.02.05-.02.06-.02h.03s.02.01.02.01l.04.09-.06.13-.05.05-.26.05h-.08s-.03-.09-.03-.09l-.05.04-.06.03h-.06s-.06,0-.06,0l-.02.02-.05.03-.03.02-.02.04v.03s.03.03.03.03v.04s-.04.04-.04.04l-.06.03-.07.02-.33.04-.04-.02v-.06s.05-.04.05-.04l.04-.04.03-.04-.45.14-.08.04-.07.06-.31.07-.11.05-.1.05h0s-.29.08-.29.08l-.6.09-.14.05h-.09s-.12.03-.12.03h-.12s-.14-.04-.14-.04h-.12s-.05-.03-.05-.03l-.13-.09h-.02s-.19-.4-.19-.4l-.1-.12-.27-.25-.08-.13-.12-.31-.07-.12-.09-.05-.19-.02-.07-.03-.53-.08-.09-.04-.04-.05-.02-.08-.05-.06-.35-.22-.14-.12-.07-.03h-.08s-.27-.02-.27-.02l-.36.03-.53-.02-.36-.06-.33-.12-.28-.2.02.18.22.11.27.09.16.1-.07.06-.09-.05-.09-.08-.08-.04-.09-.02-.43-.12h-.04s-.04,0-.04,0v.02s-.02.02-.02.02v.02s-.11.04-.11.04h-.05s-.07.01-.07.01l-.04-.03-.05-.06-.02-.06.04-.03h.06s.11.06.11.06h.07s0-.03,0-.03l-.18-.11-.09-.08-.04-.07-.08-.02-.15-.06-.09-.07.09-.05.09.02.14.14.22.06.19.14.1.05v-.11s0-.03,0-.03l-.05-.04-.09-.03-.09-.02h-.07s-.08-.04-.08-.04l-.09-.06-.15-.13-.08-.1-.07-.13-.06-.15-.06-.29-.03-.05h-.06s-.11-.01-.11-.01l-.1-.02-.08-.05-.07-.07-.05-.08-.06-.21-.04-.06-.03-.08v-.1s-.05-.06-.05-.06l-.1.04-.06-.04-.34-.27-.1-.05-.05-.07-.03-.09-.03-.15-.06-.13v-.06s0,0,0,0v-.03.02s.04-.1.04-.1l-.02-.08-.14-.15-.04-.07-.14-.48-.05-.36-.14-.39-.07-.13-.22-.25-.27-.39-.27-.3-.14-.24-.03-.04-.04-.02h-.02s-.04-.05-.04-.05l-.04-.04-.05-.12-.08-.08-.25-.2-.28-.32-.11-.1-.06-.07-.06-.16-.08-.06-.16-.09-.14-.12-.47-.54-.19-.37.04-.05.02-.02h.02s-.04-.08-.04-.08l-.04-.14-.29-.48-.29-.52-.24-.61-.03-.15-.03-.05-.06-.02v-.05s-.28-.53-.28-.53l-.02-.08.04-.17v-.08s-.04-.05-.04-.05l-.06.05-.06.02h-.06s-.07-.04-.07-.04l-.06-.06-.33-.55-.06-.16-.06-.35-.08-.27-.02-.34-.03-.17-.1-.22-.03-.08-.04-.05-.07-.15-.02-.09.06.13.33.57.11.07.05.09.07.28v.05s.02.04.02.04l.09.07.19.26.22.21.06.1.2.17.16.1.08.07.04.07v.07s-.02.06-.02.06l-.03.06-.04.07-.04-.03-.08.02-.08.04-.06.05-.07.07v.03s.03.03.03.03l.03.13.1.2.05.28h.03l.03-.19.03-.09.04-.07.05-.06.11-.18.02-.07.04-.18.06-.17v-.17s-.09-.17-.09-.17l-.29-.18-.04-.06-.04-.02-.22-.19-.07-.04-.42-.46-.61-1.06-.04-.15v-.5s-.04-.08-.04-.08l-.07-.19-.03-.04-.02-.05-.04-.21-.02-.06v-.12s-.11-.41-.11-.41l.08-.33v-.11s0-.06,0-.06v-.04s-.04,0-.04,0l-.04.05v.05s0,.13,0,.13v.04s-.04.04-.04.04l-.05.02h-.05l-.04-.03v-.06s0-.06,0-.06l.14-.3v-.08s-.09-.09-.09-.09l.11.03h.03s.02-.03.02-.03v-.06s.01-.03.01-.03l.14-.13.03-.06.12-.42.04-.05v.07s0,.24,0,.24l.05-.5-.11-1.18.04-.74.07-.39.08-.83-.04-.14-.04.12-.02.27-.03.11h-.03l.03-.37-.02-.1-.06-.05h-.09s-.11,0-.11,0v-.03l.29.03.07-.03.03-.07.03-.83.02-.17.02-.14.23-1.76.79-2.71.57-.86.24-.45.15-.35.11-.25.05-.16.05-.07.04-.08v-.19s.03-.08.03-.08l-.04-.16.12-.56-.27.02h-.2s-.05,0-.05,0h0v.07s-.06.04-.06.04l-.02.02h0s-.1.03-.1.03l-.07-.05-.09.06h0l-.02.02v.07s.04.09.04.09v.08s0,0,0,0l-.08.03h-.04s-.02-.04-.02-.04v-.03s-.04-.02-.04-.02h-.03s0,.02,0,.02v.02s0,0,0,0l-.02.02h-.09s-.04-.07-.04-.07l-.02-.06-.03-.03h-.09s-.07-.01-.07-.01l-.06-.03-.07-.04-.18-.17-.12-.05-.04-.06-.03-.07-.04-.05-.08-.05-.08-.03-.08-.02-.36-.02h-.05s0-.08,0-.08l-.08-.02h-.31s-.26.03-.26.03l-.24-.03h-.06s-.13.06-.13.06l-.09.03-.04-.02-.03-.1-.08-.02-.19.05h-.14s-.15-.05-.15-.05l-.32-.15-.04-.04-.1-.13-.03-.03h-.11s-.05-.02-.05-.02v-.04l.03-.08-.11-.03-.13-.07-.11-.03h-.01s-.05.07-.05.07h0s-.08-.09-.08-.09l-.12-.04-.13-.03-.12-.06-.24.08h-.05s-.04-.04-.04-.04l-.08-.07h-.03s-.04-.01-.04-.01v-.02s.04-.06.04-.06l-.04-.04-.05-.02h-.05s-.06,0-.06,0l.02-.07-.04-.05-.14-.08-.06-.07-.02-.02h-.04s-.03.01-.03.01h-.03s-.05-.01-.05-.01h0s-.03.03-.03.03h0s-.03,0-.03,0h-.04s-.04-.03-.04-.03l-.09.02-.15-.1-.06.06-.04-.06-.04-.02h-.1s-.07.02-.07.02h-.03s-.02,0-.02,0l-.03-.04h-.02s-.08-.01-.08-.01h-.08s-.08,0-.08,0l-.09-.06v-.05s.02-.05.02-.05l.04-.05.02-.05v-.05s-.06-.11-.06-.11l-.05-.06-.11-.02-.1-.04-.03-.1-.03-.2v-.07s-.18-.43-.18-.43l-.05-.2-.06-.18-.06-.07-.07-.06-.06-.07-.13-.14-.04-.05-.16-.12-.04-.03-.02-.04v-.08s0-.05,0-.05l-.03-.03h-.03s-.04,0-.04,0h-.04s-.06-.06-.06-.06l-.02-.02-.07-.09.08-.13v-.04s0-.04,0-.04l-.02-.03-.02-.02v-.02s0-.08,0-.08l.06-.18.02-.08v-.08s-.04-.07-.04-.07l-.04-.07-.06-.06h-.01s-.05-.03-.05-.03h-.01s0-.05,0-.05h0s-.03-.03-.03-.03l-.12-.04.03-.04h0s0,0,0,0l.07-.07v-.04s.02-.04.02-.04l.02-.05v-.08s.05-.09.05-.09v-.05s0-.15,0-.15v-.02s-.01-.06-.01-.06l-.02-.03-.03-.02h-.06s-.02-.02-.02-.02v-.04s0-.09,0-.09v-.16l-.03-.06-.08-.07-.08-.04-.07-.02-.02-.02-.05-.08-.04-.02h-.05s-.09.05-.09.05h-.05s-.02-.02-.02-.02l-.04-.07-.02-.02h-.15s-.02-.02-.02-.02l-.02-.03-.05-.07-.03-.02v-.04s-.02-.05-.02-.05l-.02-.03-.03-.02-.07-.02-.04-.02-.05-.05-.03-.05-.04-.04h0s-.1-.02-.1-.02v-.02l-.05-.05-.05-.04h-.02s0-.04,0-.04v-.09s0-.04,0-.04l-.03-.04-.04-.02-.03-.02v-.05s.02-.06.02-.06l.02-.04v-.02s-.07-.03-.07-.03l-.07-.06-.06-.07-.04-.06.05-.06-.05-.03-.09-.02-.06-.02-.06-.06-.04-.05-.03-.05-.03-.07v-.03s.02-.03.02-.03v-.02s-.03,0-.03,0l-.06-.04-.05-.05v-.03s-.02-.05-.02-.05l-.03-.09-.08-.07-.4-.18h-.07s-.03-.04-.03-.04l-.02-.05v-.06s-.02-.03-.02-.03h-.03s-.11-.03-.11-.03l-.07-.04-.07-.07-.04-.08.03-.07v-.07s-.07-.09-.07-.09l-.12-.14-.04-.14-.02-.15-.02-.02-.03-.02-.03-.03v-.05s.02-.03.02-.03h0s.12-.06.12-.06h0s-.17-.06-.17-.06l-.08-.05-.06-.08v-.05s0-.1,0-.1l-.02-.04-.04-.03-.1-.04-.05-.03v-.07s-.14-.17-.14-.17l-.05-.09-.1-.39-.02-.04-.02-.02-.02-.04-.02-.02h-.03s-.06-.02-.06-.02h-.03s-.01-.04-.01-.04l.03-.05v-.03s-.03-.01-.03-.01l-.06-.03h-.01s-.02-.08-.02-.08l-.05-.04-.05-.03-.02-.03v-.05s0-.04,0-.04l-.02-.03-.03-.03.04-.09-.02-.09-.08-.16-.04-.24-.03-.06h-.04s-.05-.02-.05-.02h-.05s-.02-.04-.02-.04v-.02s-.23-.16-.23-.16l-.03-.06.03-.09-.09-.14-.05-.06-.08-.05-.19-.08-.03-.02-.08-.09-.1-.08-.3-.12-.04-.03-.04-.03-.03-.04-.02-.04-.02-.06-.02-.12-.03-.07-.12-.04-.27-.07-.12-.06-.08-.09-.04-.02h-.04s-.04-.01-.04-.01l-.04-.04v-.06s.02-.12.02-.12v-.11s-.07-.05-.07-.05h-.1s-.1.06-.1.06l-.07.06-.05-.02v-.06s.04-.09.04-.09v-.06s-.03-.02-.03-.02h-.11s-.05-.02-.05-.02l-.03-.03-.03-.04-.05-.1-.03-.07-.07-.09-.03-.05v-.05s0-.05,0-.05l-.04.02h-.04s-.04.02-.04.02h-.04s-.04-.02-.04-.02l-.03-.05h-.03s-.08.01-.08.01l-.06.05-.06.03-.09-.02v-.03s.05-.07.05-.07v-.02s0-.04,0-.04l-.03-.03h-.03s-.01,0-.01,0l-.02.08-.04.04-.06.02-.21.02-.66-.08-.03-.02v-.04s-.04,0-.04,0l-.05.03h-.14l-.08-.02h-.04s-.03,0-.03,0l-.03.02h-.03s-.04.02-.04.02h-.04s-.05-.02-.05-.02l-.06-.04-.06-.02-.06.05-.11-.02-.39.04-.15-.06-.05-.04-.19-.09h-.15s-.06-.04-.06-.04l-.02-.07-.07.02-.05-.04-.05-.05-.08-.02-.04.02h0s-.04.07-.04.07h0s-.05.02-.05.02h-.05s-.03.04-.03.04h0s-.02.04-.02.04v.11s-.02.04-.02.04l-.1.12h0s-.44-.02-.44-.02h-.03s-.03.06-.03.06h0s-.04.03-.04.03h0s0,0,0,0h0s-.01,0-.01,0h-.03s-.02,0-.02,0l-.02-.04h-.02s-.08.02-.08.02l-.15.07h-.07s-.15.01-.15.01h-.03s-.03.03-.03.03h0s-.01.03-.01.03v.04s-.02.04-.02.04l-.12.18-.02.06h0s-.02,0-.02,0l-.07.11h0s-.04.08-.04.08l-.03.03-.05.02h0s.02.05.02.05h0s0,.01,0,.01l-.04.02h0s.02.06.02.06l-.02.03h0s-.04.03-.04.03h0s-.13.3-.13.3l-.03.04-.02.04v.06s0,.05,0,.05l.02.05v.05s-.04.05-.04.05v.02s.03.06.03.06v.02s0,0,0,0l-.04.02h-.03s-.02,0-.02,0h-.02s-.05.04-.05.04h0s-.02.03-.02.03v.04s0,.08,0,.08l-.06.16v.05s.03.04.03.04l.1.06.04.05h0s-.04.02-.04.02l-.11.02-.18.12h0s-.02.03-.02.03h0s-.09-.04-.09-.04l-.03.02-.05.04h0s-.11.21-.11.21l-.03.04h0s-.03.02-.03.02l-.16.08-.03.03h0s-.02.04-.02.04l-.02.07h0s-.02,0-.02,0h-.04s0,0,0,0l-.02.14-.05.11h0s-.1.05-.1.05l-.16-.02-.22-.05h-.24s-.06-.03-.06-.03l.02-.06v-.03s-.05.02-.05.02h-.02s-.05-.06-.05-.06h-.04s-.04.05-.04.05h0s-.05.03-.05.03l-.06-.02-.11-.1-.04-.02h-.05s-.17-.1-.17-.1l-.21-.18-.02-.03v-.03s-.02-.03-.02-.03l-.03-.02h-.03s-.11,0-.11,0l-.36-.08-.12-.06-.19-.14-.04-.02h-.05s-.03-.03-.03-.03l.03-.09-.02-.04-.04-.03h-.04s-.29-.03-.29-.03l-.26-.05-.37-.11-.16-.08-.2-.19-.14-.06-.09-.07-.13-.13-.07-.15-.03-.02h-.03s-.1-.08-.1-.08l-.07-.07-.1-.03h-.11s-.07.04-.07.04l-.04-.06-.33-.18h-.03s-.03-.03-.03-.03l-.02-.04v-.04s-.03-.03-.03-.03l-.06-.05-.19-.12-.06-.06-.02-.04v-.04s0-.06,0-.06l-.03-.06-.07-.12-.04-.17-.05-.06-.07-.05-.08-.07-.02-.03-.06-.19-.08-.08-.02-.04v-.02s-.06-.06-.06-.06l-.02-.02v-.04s0-.06,0-.06v-.04s-.08-.22-.08-.22v-.1s0-.08,0-.08l.06-.15.02-.09v-.15s0-.09,0-.09l-.06-.06-.08-.15-.04-.03-.07-.03-.03-.02-.05-.08-.05-.11-.06-.1-.08-.04-.02-.02v-.04s-.01-.05-.01-.05v-.03s-.03-.03-.03-.03l-.05-.03-.03-.03-.03-.05v-.02s0-.03,0-.03v-.06s0-.04,0-.04l-.04-.05v-.04s0-.03,0-.03l.02-.05v-.03s-.01-.02-.01-.02l-.07-.03v-.04s-.02-.09-.02-.09v-.04s-.06-.07-.06-.07l-.12-.12-.02-.04h-.03s-.13-.03-.13-.03h-.04s-.03-.05-.03-.05v-.04s-.02-.05-.02-.05v-.04s-.06-.06-.06-.06l-.08-.05-.09-.04h-.08s-.08-.04-.08-.04l-.19-.2-.03.03h0s-.05-.05-.05-.05h-.02s-.01,0-.01,0v-.04s-.03-.03-.03-.03h-.03s-.04-.01-.04-.01h-.04s-.04-.07-.04-.07h-.03s-.03-.02-.03-.02h-.04s-.02,0-.02,0l-.03.03h0s-.02.01-.02.01h-.02s-.04-.02-.04-.02l-.03-.02-.02-.02-.03-.02-.23-.1-.12-.03-.05-.04-.16-.18-.33-.22-.14-.14-.1-.04-.04-.06-.05-.14-.05-.08-.06-.04-.07-.03-.08-.05-.1-.1-.03-.02-.07-.02-.31-.17-.04-.05-.03-.07-.31-.32-.07-.05-.07-.02h0s-.05-.05-.05-.05l-.08-.04-.03-.04-.03-.07-.03-.04-.05-.04-.18-.11-.07-.02h-.1s-.08-.04-.08-.04l-.14-.07-.17-.04-.09-.03-.04-.05-.14-.07-.02-.03v-.02s-.01-.02-.01-.02l-.02-.04-.04-.06-.17-.17-.05-.07-.11-.28-.08-.14-.11-.14-.14-.12-.15-.05h-.18s-.08,0-.08,0l-.05-.05h-.05s-.17-.01-.17-.01h-.21s-.11,0-.11,0h-.11s-.11,0-.11,0h-.11s-.11,0-.11,0h-.11s-.11,0-.11,0h-.11s-.11,0-.11,0h-.11s-.11,0-.11,0h-.11s-.11,0-.11,0h-.11s-.11,0-.11,0h-.11s-.11,0-.11,0h-.1s-.11,0-.11,0h-.11s-.11,0-.11,0h-.11s-.11,0-.11,0h-.11s-.11,0-.11,0h-.11s-.11,0-.11,0h-.11s-.1,0-.1,0h-.11s-.11,0-.11,0h-.11s-.11,0-.11,0h-.11s-.1,0-.1,0h-.11s-.11,0-.11,0h-.11s-.11,0-.11,0h-.11s-.11,0-.11,0h-.1s-.11,0-.11,0h-.11s-.11,0-.11,0h-.11s-.11,0-.11,0h-.1s-.11,0-.11,0h-.11s-.11,0-.11,0h-.11s-.11,0-.11,0h-.1s-.11,0-.11,0h-.11s-.11,0-.11,0h-.11s-.1,0-.1,0h-.11s-.11,0-.11,0h-.11s0,.89,0,.89v.03s0,.92,0,.92h-.17s-3.84,0-3.84,0h-.17s-.17,0-.17,0h-2.62s-.17,0-.17,0h-4.24l-.25-.03-.11-.04-.21-.07-.21-.07-.21-.07-.21-.07-.21-.07-.21-.07-.21-.07-.21-.07-1.67-.52-1.67-.52-1.67-.52-1.67-.52-1.67-.52-1.67-.52-1.67-.52-1.67-.52-.15-.05h0s-.01,0-.01,0h0s.05-.05.05-.05l.06-.17v-.09s-.03-.08-.03-.08l.06-.11.02-.03h0s.09-.07.09-.07l.03-.03h0s.05-.07.05-.07l.03-.07.03-.1h0s-.16,0-.16,0l-.3.02-.3.02-.3.02-.3.02-.3.02-.3.02-.3.02-.3.02-.3.02-.3.02-.3.02-.3.02-.3.02-.3.02-.3.02-.3.02-.3.02-.6.05-.3.02-.3.02-.3.02-.3.02-.3.02-.3.02-.3.02-.3.02-.3.02-.3.02-.3.02-.3.02-.3.02h0s0,0,0,0v.03s0,.05,0,.05v.09s0,.08,0,.08v.07s.06.07.06.07l.08.13.06.14.2.38.06.05.18.03.07.04.06.05.04.06.07.17.07.19.03.26v.14s.05.09.05.09l.09.11.16.03h.14s.05.06.05.06v.12s.06.07.06.07l.07.03.09.02.06.05.06.06.06.04.17.04.06.04.02.1v.09s-.09.11-.09.11l-.04.08-.05.08-.07.04h-.07s-.12-.08-.12-.08l-.1-.02v.03s.14.11.14.11l.03.02.06.02.03.02.05.08.03.08-.03.11-.03.07v.06s.07.09.07.09h-.09s-.05,0-.05,0h.02s-.02.04-.02.04l.02.06.1.06.02.04.15.11.03.04v.03s.02.02.02.02l.04.03.05.02.08.06.05.02.04.03.07.07h.02s.04.07.04.07l.2.27.43.49.13.29v.36s-.07.18-.07.18l-.02.1.02.07.07.04h.17s.08.03.08.03l.1.12.03.05.07.09.04.03.51.29.04.04v.08s.09.22.09.22l.02.42-.04.63.03.16.08.15.08.07.02-.05-.02-.09-.04-.05h-.04s0-.05,0-.05l.02-.04.03-.02h.04s.05,0,.05,0h.04s.03.03.03.03v-.07s-.04-.05-.04-.05l-.04-.05-.04-.06.07.02.07.05.06.07.03.06v.06s-.06.05-.06.05l-.11.09h.17s.15.03.15.03l.13.06.11.11.07.13.06.16.04.18v.18s-.02.13-.02.13v.05s0,.03,0,.03l.04.06v.02s.02.26.02.26v.09s-.1.29-.1.29l.02.05h.18s.07.04.07.04l.06.05.03.06.05.14.04.06.03.08v.1s-.04.1-.04.1v.08s.03.07.03.07l.29.21.16.06.07.05.07.14.05.07.07.03h.11s.06,0,.06,0l.06.03.09.08.28.18.3.12.27.15.18.25.34.04.54.17.06.03.32.34.03.07.03.04.41.26.05.02.03.02.02.05.02.1.03.04.03.04.04.03.04.03.17.06.12.04.03.06.02.07.04.07.02.06-.03.06v.03l.05.04.04.05.05.03h.05s.02.04.02.04l.07.09.03.05v.04s.04,0,.04,0l.03-.02h.06s.1,0,.1,0l.11.04.07.1.04.06h.08s.03.07.03.07v.09s.03.07.03.07l.08.05.04.07.06.03.03.08.02.08v.05s.18.07.18.07l.1.09.04.06-.04.03h-.02s.03.03.03.03l.08.03h.04s.11,0,.11,0h.1s.04.02.04.02l.04.04.06.11v.06s.01.05.01.05l-.02.06v.04s.03.02.03.02h.13s.06.04.06.04l.04.04v.04s.04.03.04.03l.04.02.02.05v.05s.02.04.02.04l.03.04.03.06v.14s-.03.05-.03.05l-.09.26-.08.18-.05.09-.03.04v.03s0,.04,0,.04l.03.03h.04s.04,0,.04,0h.04l.03.03.02.06v.05s.03.02.03.02l.02.03-.03.02-.03.04-.03.08-.04.09-.05.06-.03.02v.03s-.01.04-.01.04l-.03.02-.03.03-.02.05-.08.09-.12.16-.09.09h.19s-.14,0-.14,0h-.05l-.02.02-.06.06-.03.05-.08.06-.03.03-.02.06v.07s-.02.05-.02.05l.02.03h.04s.04-.03.04-.03l.03-.04.08-.03h.05s.04-.01.04-.01l.03-.02h.03s.02-.04.02-.04v-.03s.04-.02.04-.02h.03s.03.02.03.02v.03s-.02.03-.02.03l.02.03.02.02h.04s.02.03.02.03v.02s-.03.01-.03.01l-.03.02h0s.02.02.02.02h.04s.02.02.02.02v.05s-.06.05-.06.05l-.06.08-.02.04-.03.03v.04s0,.05,0,.05v.06s.05.06.05.06l.03.04.03.04v.05s.02.05.02.05l.04.03.03.04.03.02h.05s.05-.01.05-.01l.05-.03.03-.02h.04l.03.02h.02s0-.02,0-.02v-.02h.04v-.03s0-.05,0-.05l-.03-.04-.03-.02v-.04s-.03-.06-.03-.06l-.02-.04v-.02s.04.01.04.01l.04.04.02.03.03.06.05.07h.02s.02,0,.02,0h.05s.04,0,.04,0l.03-.03h.02s.03.02.03.02v.03s.03.01.03.01h.04s.06.03.06.03l.02.02h.04s.04.04.04.04l.02.04v.05s-.07.04-.07.04l-.02.04-.03.04-.03.04v.02s-.07,0-.07,0l-.11-.02-.07-.03-.03-.02v-.03s-.04-.01-.04-.01h-.05s-.02,0-.02,0v-.03s-.03-.01-.03-.01h-.05s-.03.02-.03.02l-.02.02v.02s.03,0,.03,0h.03s0,0,0,0h.01s0,.04,0,.04l.03-.02.03.02-.02.06-.04.05-.07.05v.03s-.03.03-.03.03l-.05.03-.04.02v-.03s0-.04,0-.04h-.04l-.03-.02v-.04s-.02-.03-.02-.03l-.04-.06-.06-.05-.1-.04-.08-.05-.11-.02-.07-.04-.09-.08-.08-.04-.09-.12-.03-.06.02-.04.03-.05.02-.06.02-.06-.02-.08v-.03s-.01-.03-.01-.03l-.02-.02h-.05s-.04,0-.04,0l-.04.02-.04.03-.08.05-.08.05-.04.04-.04.04-.11.07-.12.05-.07.02h-.07s-.07.02-.07.02l-.62-.02-.08-.02-.06-.03-.08-.06-.07-.03h-.07s-.1,0-.1,0h-.1s-.16-.07-.16-.07h-.07s-.24-.02-.24-.02l-.25.03-.07-.02-.17-.11h-.06s-.02.07-.02.07l.02.09h.02s.03.02.03.02l.03.02v.03s.01.05.01.05v.02s.04.05.04.05v.04s.02.09.02.09l.03.07.08.02h.08s.05-.02.05-.02l.06.05.09.14.06.03.05-.02.02-.04.02-.03h.06s.04.02.04.02l.03.03.02.04v.05s0,0,0,0h-.04s-.02.02-.02.02l.05.04.21.07.08.06.02.03.04.12v.02s.07.07.07.07v.02s.05.05.05.05l.09.04.18.04.23.12.06.02.03.02.13.12.1.06.04.03.1.13.05.14.03.16v.18s.01.17.01.17l.02.05.05.02h.1s.03.02.03.02v.04s0,.04,0,.04v.04s.03.02.03.02l.09.07.08-.02.13.03.13.06.1.06h.04s.13-.05.13-.05l.07-.02h.06s.06.02.06.02l.11.04.14.07.13.07.08.03.04.02.09.17.04.06.2.24.05.02.04-.02.03-.03.02-.02.25-.02h.09s.16.07.16.07l.13.09.13.09.13.3.07.13v.06s.05.06.05.06l.24.12.2.19.07.03h.19s.06-.04.06-.04v-.07s.05-.05.05-.05l.06-.07.07-.06.08-.02v-.08s.1-.03.1-.03h.12s.09.05.09.05h0s.13-.01.13-.01l.1.04.27.17.06.02.02-.04-.02-.06v-.05s0-.03,0-.03v-.03s0-.04,0-.04l.02-.05.05-.05.05.03.18-.17v-.04s.01-.25.01-.25l.03-.09.06-.03.07.02.06.06.02.07v.21s-.02.04-.02.04l-.02.07-.04.04-.06.03-.04.05-.05.05-.03.02-.06.04-.03.03h-.08s-.03.02-.03.02l.03.02v.06s.03.05.03.05l.03.04.04.02.05-.02v-.03s-.01-.04-.01-.04h.04s.06-.02.06-.02v-.05s.03-.05.03-.05l.06-.02.05-.02h.03s.04.02.04.02l-.03.02-.06.03v.05s-.01.05-.01.05l.02.04.04.07.04.05.05.03.06.08.04.06.05.07.03.03v.04s-.01.04-.01.04l.02.07.03.05.05.03.08.11.06.06.07.03h.08s.02,0,.02,0h.01s0,.03,0,.03v.02s0,0,0,0l.18.11h.04s.07.06.07.06l.08.07.13.09.02.04.03.03.05.03.06.06h.06s.12.07.12.07l.09.06.15.22h.05s.17,0,.17,0h.07s.02.02.02.02l.05.03.02.03.05.03h.04s.05-.03.05-.03l.02.04v.06s0,.02,0,.02l.24.15h.07s.04-.05.04-.05l.03-.04.05-.02h.04s.16.09.16.09l.1.08.15.17.09.19.03.12.02.13.08.03.1.03.1.05.07.08.03.07.07.09.1.06.23.83.03.15v.69s-.02.09-.02.09v.04s.02.02.02.02h.04s.02-.03.02-.03l.02-.08v-.18s-.02-.35-.02-.35l.05-.17.03.14v.47s0,.08,0,.08l.04.16v.08s-.01.06-.01.06l-.02.05v.04s0,.04,0,.04v.03s0,.69,0,.69v.07s-.04.05-.04.05l-.08.08-.07.1-.04.11v.51s-.04.14-.04.14l-.09.08v.02s.02.05.02.05v.02s-.05.01-.05.01v.03s0,.08,0,.08v.05s-.05.06-.05.06v.03s0,.05,0,.05h.02s.03,0,.03,0h.04s.01-.03.01-.03l.03-.1.03-.07v-.09s.01-.04.01-.04l.02-.02.04-.07v-.02s0-.05,0-.05v-.03s.03-.01.03-.01h.05s.01.02.01.02v.04s0,.09,0,.09v.05s.05.05.05.05v.03s0,.03,0,.03l-.05.03-.02.02v.03s.01.02.01.02l.02.02.03.09-.02.03-.07.06-.04-.03.03.11h.02s.03.02.03.02l.02.03v.04s0,.12,0,.12v.08s.04.06.04.06l.04.05.06.04h-.04s-.03.03-.03.03l-.02.04v.05s.06-.02.06-.02l.05-.06.03-.08v-.08s-.01-.13-.01-.13v-.05s.08-.04.08-.04l.02.04v.04s-.02.03-.02.03l-.04.03.07.2.06.07.07-.07.02.04.03.02h.03s.04,0,.04,0l-.02-.02-.04-.05-.02-.02.07-.04h.02s-.09-.09-.09-.09l-.03-.09-.02-.11-.03-.12.05.04.04.08.03.09v.07s.04.06.04.06l.06.08.08.08.08.05h-.08l.04.06.18.17.13.07.03.02.06.07.04.34.04.12-.03.03h.02s0,.02,0,.02v.03s.03-.03.03-.03l.04-.02h.05s.06,0,.06,0l-.06-.06-.03-.03-.02-.04.24.04h.11s.09-.07.09-.07l-.04-.03v-.04s.04-.03.04-.03l.06.02.03.04.02.05.03.11.1.22.08.12.09.08.17.06.05.02.04.03.19.2.11.08.13.07.15.04v.03l-.31-.11-.09-.05-.03.03.81.41.13.11.38.14.05.07.11.06.2.08.24.18.13.13.13.09.06.07.11.22.04.03.08.02.09.04.15.09.27.24.42.46.26.2.13.07.62.21.07.04.27.22.06.08.21.53.1.14.14.1.06.06.03.08v.09s.16.43.16.43l.09.5.1.27v.08s.03.04.03.04l.1.14.06.11.05.05.12.08.07.06h.03s.05.02.05.02h.09s.05-.02.05-.02l.06-.04.03-.02.18-.03h.03s.06-.05.06-.05l.11-.04.07-.06.07-.07.07-.06.17-.08.06-.06.02-.1.03-.06.08-.06.57-.29.11-.08.13-.14.05-.07.02-.06v-.02s.07-.07.07-.07l.02-.04v-.04s0-.09,0-.09v-.04s.02-.02.02-.02l.03-.05.02-.05-.04-.05.05-.22.03-.07v-.07s-.03-.06-.03-.06l.04-.08v-.07s-.02-.07-.02-.07l-.04-.06-.15-.16-.03-.05-.02-.09-.02-.05-.06-.05-.14-.05-.07-.05-.05-.03-.42-.1-.09-.03-.04-.05v-.08s-.05-.14-.05-.14v-.09s.02-.17.02-.17l-.02-.07-.07-.08-.08-.07-.19-.12v-.02s-.02-.05-.02-.05h-.02s-.03-.01-.03-.01h-.02s-.02-.02-.02-.02l-.02-.02-.02-.04v-.04s-.02-.09-.02-.09v-.08s.05-.1.05-.1l.05-.09.04-.05-.08-.1h-.02s-.01-.03-.01-.03v-.02s-.02-.02-.02-.02h-.02s-.06.05-.06.05l-.2.08h-.07s-.17-.04-.17-.04l-.09-.11-.05-.14-.02-.16-.02-.04-.04-.05-.09-.08-.07-.05-.14-.05-.34-.16-.03-.05-.02-.07-.05-.06-.1-.08-.04-.06-.02-.05-.04-.04-.09-.02h-.05s-.09.01-.09.01l-.09.04-.02.02-.02.07v.22s.13.26.13.26l-.02.18-.03.02-.08.05h-.02s-.04.03-.04.03l-.02.05v.05s-.03.04-.03.04l-.09.05-.08-.02-.06-.06-.07-.17v-.04s.05-.02.05-.02l.12.04.03.05h.06s.07-.05.07-.05l.07-.05-.02-.04h-.08s-.21,0-.21,0l-.21-.04-.13-.02h-.05s-.05-.02-.05-.02l-.11-.06h-.05s-.07-.05-.07-.05l-.16-.22-.03-.06-.07-.04-.08-.09-.12-.18-.07-.16.03-.21-.05-.14-.07-.1-.08-.22v-.2s.01-.19.01-.19l.05-.16.11-.13.04-.07.02-.09v-.25s0-.07,0-.07l-.03-.13v-.05s-.02-.04-.02-.04l-.03-.03-.03-.02v-.02s-.03-.09-.03-.09l-.05-.07-.06-.07-.05-.07-.02-.05v-.04s-.02-.04-.02-.04l-.04-.05-.03-.03-.04-.02h-.03s-.08-.03-.08-.03l-.04-.02-.17-.13-.17-.25-.03-.07-.02-.1-.04-.08-.05-.07-.04-.07v-.03s0-.12,0-.12v-.04s-.07-.14-.07-.14l-.15-.2-.04-.07-.03-.07-.02-.08v-.32s-.04-.08-.04-.08l-.1.03-.02-.06-.07-.02h-.17s-.07-.04-.07-.04l-.14-.15-.05-.04-.03-.03-.08-.15-.02-.1-.04-.08-.02-.1h-.02s-.03,0-.03,0l-.04-.02-.16-.21v-.03s-.02-.17-.02-.17v-.04s-.03-.04-.03-.04h0s-.03.02-.03.02h-.03s-.02,0-.02,0v-.02s-.04-.11-.04-.11v-.13s-.03-.04-.03-.04l-.04-.07-.03-.08v-.08s.01-.08.01-.08l.07-.08v-.13s.03-.18.03-.18l.02-.16-.09-.07-.05-.08-.19-.48v-.15s.03-.02.03-.02v-.03s0-.06,0-.06l-.05-.07-.07-.05-.05-.05v-.05s-.14-.12-.14-.12l-.04-.07.02-.12.05-.09.06-.08.02-.07-.08-.06-.07.03-.09-.02-.09-.05-.07-.05-.05-.05-.02-.05v-.07s0-.36,0-.36v-.09s-.04-.08-.04-.08l-.05-.03-.07-.02-.08-.05-.11-.09-.12-.13-.03-.02-.16-.08-.07-.05-.03-.05-.28-.18-.13.04.04.16.05.16.02.22.06.19.03.04.08.02.07.08.13.13.14.13.04.07v.05s-.15.13-.15.13h-.07s-.1-.03-.1-.03l-.05-.05-.1-.19-.06-.07-.05-.03-.1-.04-.04-.02-.02-.03-.02-.08-.02-.04-.06-.07-.06-.05v-.05s.05-.12.05-.12v-.04s.03-.02.03-.02h.03s.02-.04.02-.04v-.04s0-.08,0-.08v-.04s-.22-.18-.22-.18l-.06-.07-.04-.03-.08-.04-.03-.03v-.06s0-.04,0-.04l-.04-.02-.07-.05-.06-.11-.04-.12v-.09s.06-.09.06-.09l.08-.04.1-.02.1-.04-.02-.06-.02-.03-.02-.03h-.08s-.29-.1-.29-.1l-.11-.02h-.02s-.26-.14-.26-.14h-.06s-.03,0-.03,0l-.05-.04-.12-.06-.05-.04-.04-.09v-.06s.05,0,.05,0l.04.07-.02-.11-.06-.08-.08-.08-.06-.1v-.03s-.05-.03-.05-.03l-.05-.03-.04-.05v-.04s0-.06,0-.06v-.05s-.04-.02-.04-.02v-.05s-.03-.23-.03-.23l-.02-.06.03-.06-.11-.22-.04-.03h-.08s-.19-.07-.19-.07l-.08-.04-.1-.1-.06-.05-.07-.02h-.01s-.03-.07-.03-.07l-.02-.02h-.02s-.01.03-.01.03h-.02s-.13-.01-.13-.01h-.04s-.05-.05-.05-.05l-.06-.06-.04-.07-.02-.08-.04-.06-.09-.03-.1-.03-.08-.03-.04-.05-.03-.07-.02-.08v-.08s-.04-.06-.04-.06l-.15-.08-.05-.06v-.05s-.03-.08-.03-.08v-.03s-.02-.04-.02-.04v-.03s0-.03,0-.03l.02-.03.03-.08-.03-.17.05-.06-.02-.02-.02-.02-.04-.03h-.06s-.06-.03-.06-.03l-.03-.05v-.06s.02-.06.02-.06v-.06s-.07-.15-.07-.15l.02-.13.06-.1v-.05s.03,0,.03,0l-.04-.14-.25-.2-.05-.15.05-.23.02-.15-.03-.09v-.04s.02-.04.02-.04v-.04s-.02-.02-.02-.02h-.03s-.02.02-.02.02h-.02s-.03-.02-.03-.02l.03-.03-.13-.03h-.41s-.05-.02-.05-.02l-.26-.16-.04-.04-.02-.06-.07-.33-.02-.07-.08-.11-.02-.08-.04-.05-.08-.18v-.07s0-.07,0-.07v-.06s-.06-.04-.06-.04v-.06s-.02-.05-.02-.05l-.06-.04h-.07s-.22.06-.22.06l-.04.03-.06.03-.07.02-.06-.02-.02-.04-.02-.12-.02-.04.03-.05.02-.05v-.05s-.05-.05-.05-.05l.03-.04v-.04s-.03-.03-.03-.03l-.05-.02.02-.07v-.02s-.08.03-.08.03h-.05s-.02-.01-.02-.01v-.06s-.01-.02-.01-.02h-.08s-.11.06-.11.06l-.04.02-.02.04v.04s.03.03.03.03l.02.07v.02s0,0,0,0h-.06s-.05.01-.05.01l-.11-.03-.03-.03-.12-.22.05-.02v-.05s-.03-.07-.03-.07l-.02-.07v-.06s.07-.13.07-.13v-.02s-.07-.2-.07-.2l-.04-.05-.04-.03-.05-.02-.06-.04v-.02s-.02-.07-.02-.07v-.02s-.04-.01-.04-.01h-.07s-.03-.03-.03-.03l-.05-.06-.02-.04v-.21s-.01-.04-.01-.04l-.04-.06-.41-.43-.64-.5-.4-.31-.14-.04-.04-.05-.03-.06-.04-.06-.52-.5-.03-.02-.1-.02-.04-.02-.03-.02h-.02s-.05,0-.05,0l-.06.06h-.05s-.06,0-.06,0l-.04-.03-.03-.04-.04-.04-.05-.02h-.04s-.03-.02-.03-.02l-.04-.03-.03-.04v-.04s0-.06,0-.06l-.02-.18-.03-.09-.04-.05-.08-.02h-.08s-.06-.02-.06-.02l-.06-.16-.07-.05-.18-.08-.03-.05-.09-.19v-.04s-.16-.25-.16-.25l-.03-.02h-.03s-.02-.02-.02-.02v-.06s-.07-.13-.07-.13l-.02-.02-.02-.03v-.05s0-.02,0-.02l.04-.06v-.03s.01-.06.01-.06l-.03-.08v-.05s0-.03,0-.03l.02-.06v-.13s.05-.16.05-.16l.03-.4v-.06s-.06-.08-.06-.08l-.02-.05v-.04s0-.09,0-.09v-.04s-.05-.07-.05-.07l-.11-.1-.02-.07-.03-.25.03-.45v-.1s-.09-.22-.09-.22v-.04s0-.14,0-.14v-.04s-.03-.03-.03-.03l-.02-.02v-.02s-.05-.04-.05-.04l-.29-.08-.07-.05-.04-.07v-.08s.05-.09.05-.09v-.06s-.06-.07-.06-.07l-.09-.07-.06-.06-.04-.13v-.16s.13-1.39.13-1.39l.04-.16.07-.14.14-.15.03-.08-.05-.1-.06-.08-.03-.09-.05-.29-.03-.05-.06-.02h-.11s-.1-.09-.1-.09l-.05-.07v-.06s-.04-.05-.04-.05l-.05-.05-.06-.04-.07-.03-.11-.02h-.03s-.04-.03-.04-.03l-.02-.02-.06-.09-.02-.05v-.05s0,0,0,0h.01s.01-.02.01-.02h0s.03.02.03.02v.05s.02.05.02.05v.02s.04,0,.04,0l.06.04h.04s.05.01.05.01h.05s.09.05.09.05h0s.24.15.24.15l.08.02.05.03.1.13.06.04h.04s.14.03.14.03h.05s.08.07.08.07h.04s.01.03.01.03l.08.07.04.02h.04s.3,0,.3,0l.07.02.61.46.08.02.36.17.04.04.02.05.02.03.05.02.05.02.04.02.07.06.08.05.17.07.33.09.19.02.17-.02.04-.02.02-.03.02-.02h.05s.04-.02.04-.02l.04-.03.03-.04.03-.09h.03s.02-.02.02-.02l-.04-.05h0s-.02.01-.02.01h-.03s-.03-.04-.03-.04v-.04s0-.22,0-.22v-.05s.07.03.07.03l.02.16.07.06h.05s.05-.02.05-.02l.11-.04.04.07.1.04.22.06.6.27.07.08.03.13.02.31.03.11h-.08s-.03,0-.03,0l.07.05.52.2h.06s.16,0,.16,0l.66.17.24.03-.07-.03-.06-.02-.05-.03-.05-.06h.06s.06-.04.06-.04h.05s.04.11.04.11l.05.05.12.07.12.09.06.04h.06s.05,0,.05,0l-.03-.04-.06-.05-.05-.03.15-.04.11.1.08.12.08.04.02.16-.02.22-.06.21-.09.14v-.07s-.07-.12-.07-.12v-.08s-.02-.04-.02-.04l-.03-.03h-.04s-.03.02-.03.02v.03s.13.32.13.32l.03.17v.17s-.11.35-.11.35v.15s.2.5.2.5l.1.16.49.52.2.26.06.11.05.16v.17s-.09.15-.09.15l.04.02h.02s.01-.04.01-.04h.02s.03,0,.03,0l.05.04h.01s.06.03.06.03l.05.05.13.19.02.11v.46s0,.06,0,.06l.03.07.04.06.03.06v.08s-.07.21-.07.21v.06s.04.05.04.05h.05s.06,0,.06,0l.05-.04v.02s.04.04.04.04v.03s.07,0,.07,0l.06.1.08.24.05.07.07.07.06.08.04.16.03.06.04.05.11.03.03.04.02.05.19.3.07.07.14.1.04.06v.1s.04.02.04.02l.11.04.03.02v.03s0,.14,0,.14l-.03.08-.09.16-.02.08.02.1.05.07.16.09.06.07.03.02v-.05s0-.03,0-.03l-.02-.03v-.03s.04,0,.04,0l.26-.02.09.02.11.1.05.15-.02.17-.08.17.07.03.07.05.06.05.02.05.03.1v.04s0,.04,0,.04l-.04.08v.04s0,.08,0,.08l.07.19v.04s-.03.01-.03.01v.02s.03.03.03.03l.03.02h.04s.09.02.09.02h.04s.02.04.02.04l.03.05.03.04.06.03.09.06.02.04.02.07.02.04.03.03.08.06.27.15.08.06.08.03h.08s.06-.01.06-.01l.05.08v.04s0,.05,0,.05l-.02.04h-.02s-.04,0-.04,0l-.02-.03-.02-.04-.03-.04-.07-.03-.06.03-.04.06v.07s.07.12.07.12l.65.55.09.12.07.13.07.17.05.07.07.03h.09s.09.04.09.04l.47.21.17.05.14-.02-.02.07-.04.04-.03.05.03.09.05.07.18.14.02.04v.09s.05.06.05.06v.02s.02.02.02.02h.02s.06,0,.06,0h.01s.04.05.04.05l.11.16.05.12.13.18.03.02.39.36.15.11.11.02v.06s-.01.02-.01.02l-.02.03h.1s.15-.09.15-.09l.09-.02.1.02.1.05.08.06.07.07h-.04s-.02.02-.02.02l-.05.04.03.02.02.02v.02s.03.02.03.02h.03s.06.02.06.02h.02s.09.12.09.12h.02s.02.05.02.05l.04-.03.04-.07.02-.05v-.06s-.02-.04-.02-.04h-.03s-.06,0-.06,0l.08-.08.04-.06.02-.07v-.11s.02-.04.02-.04h.05s.05.03.05.03l.02.04v.05s0,.04,0,.04l.02.04.03.05-.12.05h-.04v.04l.15-.03h.14s.14,0,.14,0l.29.06.07.03.13.08h.06s.02-.01.02-.01l-.05-.04h.1s.24.08.24.08l.08-.03.02.08-.05.04-.2.03h-.04s-.03,0-.03,0l-.02.08-.02.02h-.03s-.02-.05-.02-.05l-.02.05v.05s.05.03.05.03h.06s-.05.11-.05.11v.06s.08.03.08.03h.14s-.02.05-.02.05h-.04s-.05.02-.05.02l-.05.02-.02.03-.04.14.03-.05.06-.03h.05s0,.08,0,.08l-.04.05-.08.02h-.09s-.06-.04-.06-.04l.03.2.15.31.05.32.08.15.02.1v.1s.01.03.01.03l.04.02h.04s.05-.03.05-.03l.08-.06.03.03.02.02.06.02v.03s-.02.03-.02.03v.02s.03.05.03.05l.11.12-.05.05h-.07s-.08-.01-.08-.01l-.08.02.06.03.15.03.07.02.19.12.1.09.15.17.06.11h.07s.09,0,.09,0h.08s.16.09.16.09l.08.03.19.02.09.02.17.06.08.05h.05s.05,0,.05,0l.02-.02.03-.02.03-.02h.03s.07,0,.07,0h.07s.07.04.07.04l.06.04.1.14.19.51-.09-.06-.12-.16-.08-.04.03.08.13.13.03.06v.06s.07.13.07.13v.09s.04.12.04.12l.08.15.1.14.19.19.1.07.12.05.03.03.1.05.09-.04.08-.07.06-.04.56.08h0s-.03-.04-.03-.04l-.05-.02h-.06s.01-.01.01-.01h0s.01-.03.01-.03h.02v-.04l-.08-.02h-.07s-.03-.04-.03-.04l.04-.07.07-.04h.07s.04.05.04.05v.08s.04-.01.04-.01h.04s.06.01.06.01h0s.05.04.05.04l.06.02h.02s.03.07.03.07h-.04s-.07.01-.07.01l-.03.03h.02s.14.04.14.04l.05.03.09.11.42.36.09.1.07.14.04.16.02.16-.06.29v.06s.05,0,.05,0l.12-.12h.04s.04,0,.04,0l.08.02v-.03s-.03-.02-.03-.02l-.02-.02h-.02s.11.04.11.04l.07.13.09.17h.11s.02.05.02.05l-.03.02h-.05s-.03.04-.03.04v.05s.06.1.06.1v.04s-.06,0-.06,0l-.19-.16-.09-.03v-.03l.05-.03.03-.06v-.06s0-.02,0-.02l-.03-.08-.05-.03-.08-.02h-.08s-.04.04-.04.04v.22s-.02.07-.02.07h0s-.12.22-.12.22l-.03.12-.02.05-.03.03h-.04s-.02-.05-.02-.05v-.04s.03-.05.03-.05v-.04s0-.09,0-.09l.02-.06h0s.01-.03.01-.03l.02-.03.02-.03.03-.02.04-.09v-.05s-.04,0-.04,0l-.02.04v.07s-.09.14-.09.14l-.02.03-.15.25-.05.16-.07.08-.15.15-.15.23-.02.07v.18s0,.08,0,.08l.03.09.03.06v.04s.02.06.02.06v.08s.03-.02.03-.02h.04s0,.04,0,.04l-.02.03-.04.02v-.02s-.02-.05-.02-.05h0s0,0,0,0l-.02.04-.05.16v.08s0,.07,0,.07l.09.03.03.04v.09s0,.1,0,.1l-.02.07.04.06.02-.03v-.24s.03-.05.03-.05l.05-.02h.08s.06.01.06.01l.09.04.08.05.03.05h0s.01.02.01.02h0s0,.04,0,.04v.02s-.04.03-.04.03v.02s-.02.07-.02.07v.07s-.11-.04-.11-.04h-.12s-.11.03-.11.03l-.09.06.15.04h.45s.14.03.14.03l.11.1.09.11.1.08.02-.08-.07-.09-.28-.22-.03-.03-.02-.05v-.05s0-.02,0-.02l.11.07.13.06h.05s.04.03.04.03l.03.04.03.08.05.1.05.05h.07s.1-.06.1-.06l.11.03.08-.06.13-.18.08-.06.2-.06.1-.04.07-.06.06-.13.06-.08.09-.17.05-.05.04.06-.02.08-.16.13-.04.08v.13s0,.03,0,.03h-.02s-.02.01-.02.01h-.01s-.01.04-.01.04v.02s.02.02.02.02v.02s-.05.06-.05.06l-.22.2h-.03s-.02.02-.02.02v.02s0,.05,0,.05v.02s-.03.05-.03.05v.03s-.02,0-.02,0l-.04-.02-.02-.08-.03-.04-.04.02h-.03s-.14-.04-.14-.04l-.05.02-.03.04-.02.05-.03.04-.03.02-.09.04.2.21.13.08h.12s-.05-.07-.05-.07v-.04s.07-.03.07-.03l.2-.02h.03s.03.04.03.04v.02s-.04.01-.04.01h-.02s.04.05.04.05l.05.03h.06s.07-.05.07-.05l.03-.03.02-.02v-.03s.02-.05.02-.05v-.05s-.02-.03-.02-.03l-.02-.03v-.04s-.01-.07-.01-.07h.03s.05,0,.05,0h.07s.02,0,.02,0l.04-.02h.02s.02,0,.02,0v.02s.01.02.01.02h0s.14.06.14.06h.04s.03-.02.03-.02h.02s0,.06,0,.06v.19s-.01.06-.01.06l-.04.13h.03s.05-.05.05-.05h.02s.04,0,.04,0v.02s0,.03,0,.03l.02.03.05.07-.04.03h-.17s.06.07.06.07h.1s.22-.07.22-.07l.12.03.16.12.1.04-.3-.08h-.17s-.09.05-.09.05h.14s.17.02.17.02l.16.04.24.15.42.16.06.04.07.05.06.06.04.08v.06l-.02.18v.04s.06-.07.06-.07l.1-.44.03.03.1.04.04.04v.05s.01.12.01.12v.05s-.03-.02-.03-.02l-.09-.06h-.03s0,.02,0,.02l.02.13.07.03.11.02h.11s.06-.04.06-.04l.06.02.04-.02.04-.03h.06s.02.02.02.02l.09.14.07.07.04.03h.05s.05,0,.05,0l.03-.02v-.02s-.03-.03-.03-.03h.07s.05.03.05.03l.42.35v.04s0,.05,0,.05l-.03.03-.14-.05-.17-.02-.07-.03-.08-.08-.03-.04h-.02s-.02,0-.02,0l-.03.03v.02s-.06.07-.06.07v.02s.04.03.04.03h.05s.04-.01.04-.01l.02.06v.09s0,.03,0,.03h-.04s-.02,0-.02,0l-.08-.05h-.01s-.02.02-.02.02h-.02s-.02,0-.02,0v-.02s-.06-.12-.06-.12l-.25-.27-.03-.07-.07-.04-.09-.02h-.09s.02.05.02.05l.04.03.08.04.14.11.1.11.32.59.13.16.15.09h.02s0-.04,0-.04v-.02s.04.02.04.02l.02.02h.02s.02.02.02.02h.03s.02-.02.02-.02v-.04s.02-.14.02-.14l.03-.13v-.05s0-.02,0-.02v-.02s-.06-.22-.06-.22v-.08s.05.01.05.01l.16.13.05.06-.06.11-.02.05v.06s.02.14.02.14v.07s-.06.04-.06.04l.05.03.06.06.05.07.02.07-.03.09h-.07s-.07-.05-.07-.05l-.03-.03-.07-.04h-.04s-.04-.02-.04-.02h-.02s0,.04,0,.04l.02.03h.02s.05.04.05.04l.04.06.04.07.02.07.02.15.02.06.04.05.35.29.3.17.11.03-.05-.06-.17-.09-.07-.05-.13-.13-.06-.04-.03-.03-.02-.04.1.02.1.04.09.06.08.07.06-.03h.05s.17.17.17.17h.03s.06.03.06.03l.03.02v.03s.02.05.02.05v.03s.03.03.03.03l.08.06h.03s.03.02.03.02h.03s.08-.06.08-.06l.08.05.06.08.07.05.12-.04.04-.03.11-.1.02-.04-.03-.03-.11.04h-.06s.04-.06.04-.06l.05-.03h.07s.07,0,.07,0l.07.03.04.04.15.32.02.06v.08s-.03.04-.03.04l-.04.03-.04.05h.01s.03,0,.03,0h.01v.02s-.02.02-.02.02h0s-.13-.08-.13-.08l-.08-.03v.04s.05.03.05.03l.12.07.04.04-.07-.03-.05-.03-.06-.03-.57-.33h-.04s-.32-.17-.32-.17h-.01s0-.05,0-.05v-.02s-.02-.02-.02-.02l-.03-.02-.03-.02h-.03s-.01.04-.01.04l.03.07.07.07.95.53.25.22.15.1.16.06.05.05.02.1.05.04.26.16.58.37.22.19.05.03.08.03.2.14.55.55.12.2.05.18.07.08.07.07.05.07.04.19.04.08.17.06.07.05.12.12.09.13.06.07.11.05.03.05.04.1.02.03.02.02.17.14.08.05.07.02.05.04.15.28h0s.02.02.02.02v.02s.02.03.02.03l-.05.03v.03s.08.05.08.05l.15.21.02.06v.15s0,.03,0,.03l.04.02.04-.02.04-.03h.05s.07.03.07.03l.38.41.08.06.04.02.07.02.03.02.77.91.04-.04.05-.03.05-.02h.05s-.08.1-.08.1v.03s.03.02.03.02h.02s0,.03,0,.03l.03.02.17.1.07.06.18.22.33.3.14.2.04.23h.03l.04-.05.04.02.04.05.03.06-.03.02-.04.02.05.13.15.22.15.35.03.13-.06,1.22.02.08.05.08.35.4.4.75.07.23.04.07.06.05.09.02.3.14.15.11.07.02.19.02.05.04.02.06.02.08.04.08v.04s-.05.03-.05.03l-.09.11-.04.08-.02.09.04.34v.59s-.04.17-.04.17v.08s-.02.02-.02.02l-.05.08-.03.03h-.03s-.07.02-.07.02h-.04s-.07.05-.07.05l-.04.05-.03.06-.05.06-.19.16-.24.26-.03.05v.05s-.02.05-.02.05l-.02.05-.02.03-.05.03h-.04s-.04,0-.04,0h-.04l-.04.02-.09.07-.02.02v.02s.03.03.03.03h.05s.02-.03.02-.03l.33.13h.09s.14-.04.14-.04h.06s.11,0,.11,0l.06.03.21.27.07.09.06.13v.17s-.03.08-.03.08l-.05.05-.06.03h-.07s-.06.04-.06.04l-.15.13-.08.04-.28.03-.07.04-.06.02-.29-.03-.18.05-.44.26v.06s.02.09.02.09v.09s.1.08.1.08l.11.19.08.11.06.11.04.03.07.04.03.04.02.07.03.27v.22s.05.08.05.08v.04s.03.08.03.08l.24.33.1.18.05.07.12.1.04.05.03.07.12.12.22.35.19.21.25.21.08.05.08.07h.04s.05,0,.05,0h.05s.13.33.13.33l.02.03.03.03.02.03v.04s0,.08,0,.08v.03s.13.05.13.05l.04.08.05.19.1.11.15.1.32.16.03-.04h.03s.03,0,.03,0h.04s.03,0,.03,0l.07-.04h.04s.06.01.06.01v.05s-.01.11-.01.11v.11s.02.02.02.02h.09s.11-.03.11-.03h.03s.04.01.04.01v.02s.01.02.01.02l.03.03h.05s.05,0,.05,0h.03s.01.07.01.07l.02.04.05.03.15.07.18.04.36.08.07.04.07.06h.06s.14-.02.14-.02h.02s.02.04.02.04l.02.02h.03s.06-.07.06-.07l.04-.02.03.03.02.04v.02s.11,0,.11,0l.04.02v.05l-.03.2.02.06.07.02h.04s.08.05.08.05l.13.03.23.11.4.14.43.16.08.04.04.05.84.73.15.13.1.16-.09.09v.03l.05.03.17.08.03.03v.03s.03.02.03.02l.08.02.03.02.15.16.33.57.1.11.19.06.17.08.05.04.06.03.16.02.07.02.24.07.04.03.32.1h.07s.13.05.13.05l.16.02.16.06.2.04.39.22.56.23.21.04.49.04.23.07.17.02.22.1.7.17.08.04.15.09.09.02h.01s.08,0,.08,0l.06-.02.09-.08.15-.11.16-.05h.16s.17.05.17.05l.29.17.06.02.24.12.11.11.06.08.05.16.07.07.16.14.35.44.16.12h.08s.18-.01.18-.01l.07.02.19.16.05.07v.1s0,.05,0,.05l.2.06.07.05.45.19.47.26.19.13.12.13.06.11v.13s.21.02.21.02l.2.06.28.17.22.04.22.07.2.04.32.15.32.07,1.03.39.58.26.08.02h.27s.09.03.09.03l.26.15.17.04.08.03.07.06.03.04.04.11.03.04h.05s.01-.02.01-.02l-.02-.1-.02-.03v-.02s.06,0,.06,0h.03s.03.03.03.03l.03.02v.02s0,.08,0,.08v.02s.02.01.02.01h.02s.02.02.02.02h0s0,.03,0,.03v.03s-.02.02-.02.02l-.05.03.06.05.19.06.22.17.1.04.12.04.13.03.09.03h.2l.14.05h.05s.68.04.68.04l.09.02.09.03.14.08.08.03.43.04.91.25.21.12.09.02h.08s.05-.03.05-.03h0s0-.04,0-.04v-.03s.02-.02.02-.02h.02s.04.03.04.03h.02s.18.01.18.01l.13.08.4.5.24.19.12.16.03.04.06.03h.09s.26.11.26.11l.53.09.41.13h.08s.03,0,.03,0l.03-.02.02-.02h0s.02,0,.02,0l.02.02v.02s.02,0,.02,0l.09.02.08.03.05-.04.06.03.06.04h.06s-.06.05-.06.05h-.13s-.24-.08-.24-.08l.07.08.13.06.15.05.48.22.09.07.28.2.02-.06v-.02s.05.1.05.1v.04s-.05,0-.05,0l.03.04.03.02h.04s.04.02.04.02l.1.11.04.03.08.03.26.03.13.05h.05s.04,0,.04,0l.08-.04h.05s1.75.18,1.75.18l.18.05.16.06,1.13.63.16.02.44.1.32.13.17.05.35.06.08-.02.05-.05.04-.07.06-.06.07.03.07.02.45.04h.13s.27-.09.27-.09l.38-.2.26-.1.27-.16.14-.06.2-.06.06-.04.07-.03.18-.02.07-.02.09-.04.04-.03.02-.03h.02s.08-.04.08-.04l.09-.05.26-.04.97-.29.13-.08v-.09s.07-.12.07-.12l.13-.08.14-.06.1-.06.13-.15.06-.04.07-.02.16-.02.07-.02-.02-.04v-.04s0-.04,0-.04l.02-.02h.05s.04.01.04.01l.03.03h.04s.32-.04.32-.04h.04s.09.02.09.02h.03s.04,0,.04,0l.08-.04.25-.03h.32s.21.07.21.07l.02-.02-.06-.09-.12-.04h-.37s-.14-.03-.14-.03h.12s.17-.05.17-.05l.13-.06-.02-.06h-.03s-.07.09-.07.09l-.04.03h-.05s-.66-.03-.66-.03l-.08-.02v-.04s.04-.07.04-.07l.03-.02h.05s.03-.03.03-.03l-.02-.07h.24l.04-.03.18-.25.08-.07.09-.05.11-.02.04.02.06.04.05.05.03.03.02.06v.04s.02.05.02.05l.06.06.04.07-.03.04-.06.03-.04.04v.05s.01.05.01.05l.05.07.05-.04.07-.1.06-.02.11-.06h0s.03-.04.03-.04l.05-.04h.02s.05-.02.05-.02h.02s.01-.03.01-.03v-.06s.04-.01.04-.01h.03s.03,0,.03,0l.03.03.06.04.16.05.04.04-.03.18-.16.11-.35.11-.05.04-.02.05.03.04.09.02h.17s.08,0,.08,0l.07-.03.07.04.11.02h.22s-.03,0-.03,0h.38s.19.05.19.05l.14.08.06.04,1.15.45.4.16-.03-.05-.06-.03-.14-.05-.05-.04-.11-.15-.1-.08h-.04s-.09-.04-.09-.04l-.29-.06v-.03h.06v-.03l-.14-.08-.06-.03h-.04s-.11,0-.11,0l-.08-.02-.17-.06h-.11s0,.02,0,.02l.31.11-.11.03-.22-.09-.37-.24h.06s.04-.02.04-.02v-.02s-.05,0-.05,0h-.03s0-.04,0-.04h.02s.04,0,.04,0h.03v-.06s-.01-.07-.01-.07v-.06s.08-.03.08-.03h.09s.06.05.06.05l.09.09.14.11.17.09.17.05.17-.02.09-.04.08-.03.06.02.02.12.02.05.06.06.08.06.04.03.13.06.49.1.1.05.05.07.05.09.08.1-.05.05-.05.03h-.04s-.03-.05-.03-.05h-.05s-.1,0-.1,0l-.05.02.75.43.42.27.69.53.07.03.99.81.12.04.05.05.07.12.38.41.33.22.06.11.08.05.17.07.24.19h.07s-.05-.04-.05-.04l.02-.03h.04s.01.08.01.08l.07-.02.09.02.08.03.06.03.05.07.03.17.04.08-.06-.02-.04-.06-.03-.08v-.08s-.04-.04-.04-.04l-.18-.06-.07-.04v.08s.06.1.06.1l.51.56.78.78.51.5.31.28.22.26.02.02h0l.15-.1.09-.24.06-.11.03-.05.02-.06v-.08s-.08-.2-.08-.2v-.03s0-.06,0-.06v-.03s-.04-.1-.04-.1v-.03s-.01-.09-.01-.09l.02-.05h0l.08-.1h0s.05-.12.05-.12v-.26s0-.13,0-.13h0s.05-.05.05-.05h.05s.05-.02.05-.02l.05-.02.04-.05.02-.04.06-.15-.53-.67-.03-.07v-.08s.03-.07.03-.07l.08-.13.2-.33.42-.69.19-.31.32-.54.28-.47.2-.33.08-.13.07-.12.02-.03h0s.05-.06.05-.06l.07-.03h.19s.56,0,.56,0h.56s.56,0,.56,0h.56s.54,0,.54,0h.58s.56,0,.56,0h.56s.37,0,.37,0h.08s.07-.04.07-.04h0l.02-.02.03-.06v-.03s-.01.01-.01.01h-.01s0,0,0,0h-.01s-.03.01-.03.01l-.02-.07h0l.1-.08-.05-.05v-.03l.09-.04h0s-.03-.04-.03-.04l-.12-.06-.02-.08.03-.06.05-.04.05-.02h0s-.05-.02-.05-.02l-.04-.03v-.04s0,0,0,0l.05-.05.02.02h.01s.05.01.05.01h0s-.02-.02-.02-.02l-.02-.05-.02-.02h.02s0,0,0,0h0s0-.02,0-.02l.02.02h.03s.02,0,.02,0v-.04h-.02s-.06-.01-.06-.01l-.04-.03h0s.03-.02.03-.02l.08-.02.06-.06h0s.02-.07.02-.07l-.03-.05h-.03v.03h-.03v-.06h.01l.04-.02h.06s.06.02.06.02h0s-.05-.08-.05-.08v-.02s0-.05,0-.05v-.06s-.03,0-.03,0l-.04.02h-.05s-.02,0-.02,0l-.03-.02-.04-.02-.13-.02v-.02s0-.03,0-.03l-.02-.04-.02-.02-.04-.03h-.05s-.1.03-.1.03l-.03-.04-.02-.09h-.04l-.11.03h-.02s-.02,0-.02,0h-.06s-.07-.01-.07-.01h-.05s.02-.03.02-.03l.04-.03.03-.03v-.04s-.05-.03-.05-.03h-.06s-.04-.02-.04-.02l.03-.06-.02-.07.03-.07v-.06s-.04-.03-.04-.03v.03s-.03.01-.03.01h-.02s-.03.01-.03.01v-.03l.05-.1-.06-.15-.28-.38-.06-.05-.15-.07-.06-.05v-.05s.01-.03.01-.03l-.06-.03-.04.03h-.05s-.28-.08-.28-.08l-.08-.04-.12-.12-.08-.04h0s.06-.07.06-.07v-.03s-.07,0-.07,0h-.07v.02s0,.04,0,.04v.04s0,0,0,0l-.04.02h-.02s-.05-.06-.05-.06l-.02-.02-.16-.05-.05-.04-.02-.08-.02-.04-.14-.17-.02-.04-.02-.08-.02-.03h-.04s-.1,0-.1,0l-.04-.02-.15-.15-.04-.06-.02-.04-.02-.07-.02-.03-.04-.02-.08-.02-.02-.03v-.06s-.03-.07-.03-.07l-.04-.06-.04-.04h-.11s-.11.01-.11.01h-.08s-.03-.11-.03-.11l-.06-.03-.13-.03-.09-.04.02-.06h.02s0,0,0,0h1.79s0,.01,0,.01v-2.24s0,0,0,0l.03-.03.08-.02h1.07s.9,0,.9,0h.9s.9,0,.9,0h.9s.9,0,.9,0h.69s.2,0,.2,0h.9s0-.35,0-.35l.03-.16.03-.05.05-.07h0l.34-.12.09.03.07.06.06.07.07.05h.05s.05,0,.05,0h.04s.06.12.06.12l.05.04.16.09h.04s0-.01,0-.01l.02-.03.02-.09.02-.03h0s.21-.15.21-.15l.04-.04h0s.06-.16.06-.16l.02-.04h0l.06-.05h0s.06-.03.06-.03l.05-.04h0l.04-.06v-.04s.03-.09.03-.09v-.04s.11-.16.11-.16v-.05s0-.06,0-.06h-.02s0-.01,0-.01l.09-.06.03-.02h0l.12-.05.05-.04.04-.06.02-.06v-.06s.02-.07.02-.07l.04-.07.13-.14.05-.08v-.05s.03-.1.03-.1l.04-.1.02-.12.02-.04.03-.03.09-.07.04-.03h.04s.04.02.04.02h.04s.04,0,.04,0l.08-.03.05-.02h.03s.02,0,.02,0l.04.04.03.02h.02s.02-.02.02-.02h.03s.25-.01.25-.01h.03s0,0,0,0h.02s.02-.02.02-.02h.05s.03-.08.03-.08l.09-.13.02-.07.11-.2.1-.12.1-.2h.02s.05-.03.05-.03l.03-.03-.04-.02h-.04s-.04.04-.04.04l-.03.04-.02.03v-.08s.04-.05.04-.05l.02-.05-.03-.07-.05.08-.07.08-.08.06-.08.03v-.04s.03-.04.03-.04l.02-.03.18-.15.03-.02h.1s.07-.02.07-.02l.05-.05v-.03s-.01.08-.01.08v.07s.02.03.02.03l.04-.02.03-.06.02-.07v-.06s.04-.11.04-.11l.08-.12.1-.1.09-.07.03.16.03.07.04.06.03.07v.09s-.02.17-.02.17h0s-.01.02-.01.02v.03s-.02.03-.02.03v.02s.03.02.03.02l.02.02h0s0,.05,0,.05l-.04.07v.04s-.04.07-.04.07l-.06.08-.04.09.03.09-.14.15v.03s-.01.06-.01.06v.06s.05.03.05.03l.1.03.21.11.11.03h.08s.04.03.04.03l.02.04.02.07h-.01s-.02.03-.02.03v.03s.01.02.01.02h.01s.11.03.11.03l.02.03v.07s0,.02,0,.02l.06.07h0s-.01.07-.01.07l-.02.04v.04s.01.05.01.05l.02-.03.02-.04.02-.04v-.04s.02.05.02.05v.11s-.04.1-.04.1l-.03.05-.03.03.02.05.05.02.07-.08.02.09v.11h.04v-.33s.07-.13.07-.13v-.06s.03-.06.03-.06l.2-.28.04-.09.02-.29.02-.06.05-.08v-.09s-.01-.18-.01-.18l.02-.18.06-.15.08-.13.1-.11.07-.12.15-.5.08-.53.09-.13.09-.2.06-.13-.03-.09.05-.08.05-.22.04-.1.11-.15.07-.06.08-.04v-.03h-.08s-.05.05-.05.05l-.04.05-.05.04.08-.17h-.19s-.1.04-.1.04l-.04.06-.02.07-.04.07-.11.12-.08.07h-.04s-.04-.03-.04-.03l-.07-.02-.04-.04.03-.09.09-.17-.06-.02.03-.05.06-.07.03-.06h-.03l-.03.08h-.03l.05-.16.15-.13.19-.09.14-.04-.02.06v.05s-.04.04-.04.04l-.07.02.15-.02.04-.02.11-.11h.03s.07-.03.07-.03l.07-.05.06-.07.04-.08.04-.27.03-.04v-.04s-.02-.09-.02-.09l-.08-.15v.07s-.04.1-.04.1v.03s0,.03,0,.03l-.25-.03h-.08s.06.03.06.03l.05.02.11.02h.17s0-.04,0-.04l-.02-.04h.06s0,.09,0,.09l-.06.08-.11.03v-.03l.05-.03h-.02s-.01-.01-.01-.01h0s-.02-.02-.02-.02l-.03.03h-.02s-.03-.03-.03-.03h-.04s-.02.02-.02.02v.03s-.01.03-.01.03h-.03s-.03,0-.03,0l-.09-.05-.11-.03-.06.03-.12.04-.05.03-.05.06-.04.06-.05.04h-.08s.02-.07.02-.07v-.12s.04-.06.04-.06h-.05s-.05,0-.05,0h-.04s-.03-.03-.03-.03v-.04s-.13-.07-.13-.07l-.04-.06v-.06s0-.09,0-.09v-.08s.04-.05.04-.05h.04s.22,0,.22,0h.04s.02.04.02.04l-.02.06-.04.05-.04.03h.05s.04-.04.04-.04l.05-.13.07-.13.04-.12.07-.14.08-.11h.06s.03-.06.03-.06h.03s.03,0,.03,0l.04.04h.03s.03-.02.03-.02l.03-.03.02-.02.04-.04.17-.24-.04.02h-.02s-.02.03-.02.03v-.04s.02-.06.02-.06l-.02-.13v-.03s-.05-.03-.05-.03v-.03s0-.03,0-.03h.03s.03,0,.03,0v.03s.02.07.02.07l.02.04.07.06v.16s-.01.05-.01.05l-.02.04h-.03s-.03.04-.03.04h-.05s-.01.02-.01.02v.04s0,.17,0,.17l.02-.05.05-.18.03-.02h.03s.02-.02.02-.02l.03-.15v-.04s-.01-.09-.01-.09l-.09-.17-.03-.09v-.34s0-.17,0-.17l.09-.32.05-.12.08-.1.13-.08-.02-.04v-.04l.03-.03h.05s.05-.15.05-.15l.49-.68.22-.22.17-.1.06-.06.22-.13.04-.05.08-.13.38-.4.28-.38Zm.28-2.7v.05s.01.03.01.03l.03.05v.08s.03.03.03.03v-.12s-.03-.06-.03-.06v-.05s-.02-.04-.02-.04l-.02-.02v.02s0,.04,0,.04Z"/>
  <rect class="cls-1" y="-.32" width="720" height="540"/>
</svg>