<?xml version="1.0" encoding="UTF-8" standalone="no"?>
<!-- Created with Inkscape (http://www.inkscape.org/) -->

<svg
   version="1.1"
   id="svg295"
   width="175"
   height="115"
   viewBox="0 0 175 115"
   sodipodi:docname="NG-EPS-01-0001.eps"
   inkscape:export-filename="NG-EPS-01-0001.eps.svg"
   inkscape:export-xdpi="300"
   inkscape:export-ydpi="300"
   xmlns:inkscape="http://www.inkscape.org/namespaces/inkscape"
   xmlns:sodipodi="http://sodipodi.sourceforge.net/DTD/sodipodi-0.dtd"
   xmlns="http://www.w3.org/2000/svg"
   xmlns:svg="http://www.w3.org/2000/svg">
  <defs
     id="defs299" />
  <sodipodi:namedview
     id="namedview297"
     pagecolor="#ffffff"
     bordercolor="#000000"
     borderopacity="0.25"
     inkscape:showpageshadow="2"
     inkscape:pageopacity="0.0"
     inkscape:pagecheckerboard="0"
     inkscape:deskcolor="#d1d1d1"
     showgrid="false"
     inkscape:zoom="0.32777778"
     inkscape:cx="305.08475"
     inkscape:cy="242.54237"
     inkscape:window-width="1441"
     inkscape:window-height="567"
     inkscape:window-x="1939"
     inkscape:window-y="298"
     inkscape:window-maximized="0"
     inkscape:current-layer="g303" />
  <g
     id="g303"
     inkscape:groupmode="layer"
     inkscape:label="Page 1"
     transform="matrix(1.3333333,0,0,-1.3333333,-189.15254,594.91524)">
    <g
       id="g305"
       transform="matrix(0.02627825,0,0,0.02627825,113.78918,333.46319)">
      <path
         d="m 5666.9491,1075.4238 h -4248.305 v 3386.4406 h 4248.305 V 1075.4238"
         style="display:inline;fill:#fbfcfc;fill-opacity:1;fill-rule:nonzero;stroke:none;stroke-width:0.608298"
         id="path307" />
      <path
         d="m 5353.03,3605.96 -1.35,2.8 -3.51,1.85 -2.46,-0.93 -4,-2.05 -3.84,-1.36 -1.63,1.36 -1.87,6.17 -4.62,3.79 -5.85,3.09 -5.78,4.11 2.86,1.57 1.14,0.5 v 2.15 l -3.18,1.36 -8.67,6.49 -2.06,2.17 -0.6,2.65 1.57,4.44 -0.97,2.99 -8.01,4.22 -18.64,4.54 -59.93,1.84 -4.53,0.93 -3.81,2.37 -2.69,4.54 -0.18,3.37 1.74,9.19 0.11,5.65 -1.96,6.28 -0.43,22.96 -32.86,158.29 -133.45,186.47 -72.06,3.09 -8.87,-1.42 -2.66,-2.18 0.21,-5.13 -4.43,-3.13 -11.65,-10.89 -2.05,-2.71 -1.53,-3.08 -0.11,-1.14 1.43,-2.12 0.52,-1.67 -0.82,-2.38 -1.87,-0.38 -2.06,0.09 -1.31,-0.53 -2.7,-4.11 0.64,-1.45 4.12,-0.5 -5.36,-6.89 -7.02,-2.58 -7.92,-1.46 -7.85,-3.48 1.03,2.35 0.64,3.01 -0.64,2.34 -2.76,0.63 -1.63,-1.23 -2.16,-5.04 -2.16,-2.06 0.1,3.2 -0.1,1.02 -4.86,-1.66 -5.44,-0.21 -3.29,1.23 1.62,2.88 v 1.87 l -8.13,-0.73 -7.41,-2.66 -26.26,-13.16 -8.01,-1.57 -8.16,1.84 -1.25,-4.93 -2.66,-0.21 -3.69,1.74 -4.54,1.35 v -2.27 l 2.48,-0.72 2.06,-1.14 1.74,-1.84 1.84,-2.37 -3.79,-3.2 -8.12,-9.05 -0.22,-0.81 0.39,-2.37 -0.17,-0.83 -0.87,-0.21 -2.54,0.39 -0.75,-0.18 -1.2,-0.74 -3.94,-1.31 -0.83,-1.14 1.14,-3.52 1.85,-2.15 0.1,-1.14 -4.11,-0.4 -0.61,1.12 -1.67,2.04 -1.74,1.25 -0.7,-1.14 -0.43,-0.18 -1.95,-4.96 -7.52,-9.15 -4.84,-3.7 -6.59,-1.55 -3.41,-1.53 -2.06,-6.92 -2.48,-1.53 -4.39,0.93 -2.98,2.05 -2.49,2.55 -3.1,2.38 -0.42,-4.75 -0.48,-1.85 -1.96,-1.95 -1.99,-1.52 -2.17,-0.64 -0.91,1.74 -1.53,-1.1 -10.61,-10.01 -0.81,-4.82 -3.83,-5.47 -2.06,-4.44 4.64,-1.73 -1.73,-6.6 -1.68,-3.09 -2.38,-2.66 -2.15,-0.75 -6.57,-1.13 -1.34,-1.14 -2.48,-15.87 -1.33,-3.46 -4.11,-1.96 -4.76,0.92 -5.57,1.95 -6.67,1.13 -18.35,0.61 -4.71,1.35 -2.81,-1.63 -2.16,1.53 -2.17,2.59 -2.87,1.63 -2.77,-0.43 -1.76,-1.42 -1.33,-1.56 -1.03,-0.71 -2.38,0.43 -0.53,1.13 -0.06,1.64 -1.14,2.06 -3.3,1.74 -14.73,5.25 -4.86,-1.03 -6.17,-4.22 -4.11,-0.72 -9.7,-0.81 -17.06,4.22 -5.78,2.77 -13.39,10.72 -40.55,24.8 -32.25,13.09 -88.25,22.35 -142.01,-0.85 -53.01,6.28 -28.11,-2.23 -149.73,-32.16 -12.13,-5.13 -55.29,-30.98 -5.25,-4.97 -1.24,-3.09 -1.03,-7.3 -1.46,-2.99 -2.27,-2.38 -1.24,-0.28 -1.41,0.28 -3.09,-1.13 -5.57,-3.58 -9.79,-9.26 -52.1,-61.49 -3.41,-2.89 -3.09,-2.06 -2.05,-0.91 -6.17,-0.43 -62,7.21 -5.24,-0.29 -15.54,-4.44 h -10.83 l -95.24,11.11 -76.82,22.75 -10.72,6.21 -5.03,6.06 -8.34,13.81 -5.78,6.27 -12.67,9.58 -6.99,3.38 -7.81,1.66 h -3.51 l -7.2,-0.81 -3.41,-1.14 -3.3,-1.67 -1.25,-0.81 -1.13,0.11 -2.88,1.14 -2.16,1.34 -29.13,26.54 -7.2,8.76 -3.91,3.3 -4.15,1.95 -8.62,2.39 -4.23,2.06 -9.9,7.69 -8.01,4.97 -6.81,6.56 -3.41,2.49 -8.02,3.09 -73.95,10.5 -9.97,-0.92 -9.97,-4.44 -106.1,-63.93 -9.04,-2.88 h -10.51 l -30.38,5.64 -6.59,-1.21 -17.71,-20.89 -13.8,-12.18 -6.18,-3.08 -6.98,-1.14 -21.72,-0.11 -9.69,1.04 -8.97,3.4 -9.38,6.99 -10.6,9.9 -17.28,19.87 -31.02,56.84 -47.54,52.09 -40.98,38.82 -19.48,11.25 -21.12,4.5 -5.54,-1.13 -16.88,-9.47 -3.02,-0.82 -1.95,0.82 -1.84,1.67 -2.67,1.41 -165.07,65.5 -9.47,2.06 -43.14,-7.52 -8.03,-4.11 -3.41,-4.45 -4.85,-10.88 -4.02,-4.76 -8.94,-6.49 -3.4,-1.31 -9.97,-1.96 -41.84,1.84 -29.56,-5.35 -16.85,1.03 -6.71,2.98 -6.49,6.29 -6.7,2.97 -9.38,-1.03 -92.74,-22.64 -15.87,-6.27 -13.59,-9.69 -45.92,-43.86 -8.16,-4.01 -8.72,-1.67 -18.84,-0.6 -0.65,-71.36 -10.18,-70.64 -46.56,-73.03 -18.94,-17.99 -63.73,-47.9 -1.25,-3.2 2.88,-73.81 -7.8,-38.92 -0.22,-12.88 7.31,-21.72 1.35,-10.11 -4.97,-9.86 -4.93,-5.14 -3.29,-4.23 -1.25,-4.86 1.67,-16.78 0.92,-2.98 1.63,-3.09 1.03,-1.03 1.25,-0.71 6.81,-7.31 3.58,-5.47 1.46,-5.89 -2.06,-6.38 -3.51,-3.47 -15.02,-8.98 -6.38,-6.78 -20.3,-34.43 -3.51,-13.37 -1.74,-4.43 -5.85,-15.93 0.49,-6.82 4.34,-8.03 52.29,-73.61 6.99,-6.71 2.38,-0.39 2.8,0.49 2.66,-0.1 2.48,-2.35 -2.97,-11.53 v -6.38 l 1.21,-5.89 2.16,-5.47 2.97,-5.04 6.01,-26.37 -0.33,-8.61 -6.38,-15.58 -0.32,-5.14 1.45,-3.49 2.38,-2.48 2.55,-2.06 2.18,-2.58 1.44,-3.2 2.78,-9.65 2.69,-3.19 3.79,-1.14 4.13,-0.85 3.71,-2.16 2.67,-5.64 1.46,-8.56 0.1,-16.25 -2.17,-7.96 -7.52,-14.61 -2.59,-7.9 -0.28,-15.16 -1.99,-5.47 -4.4,-5.57 -4.54,-0.71 -18.73,9.8 -6.06,1.14 -5.8,-1.85 -5.68,-5.69 -1.95,-2.76 -0.81,-1.88 -0.32,-5.85 -1.1,-3.52 -7.35,-11.21 -6.06,-13.37 0.32,-5.47 4.11,-6.81 19.87,-20.37 2.59,-3.73 0.93,-4.61 -1.03,-6.91 -2.7,-6.5 -3.7,-2.66 -4.21,-2.06 -4.54,-4.33 -1.85,-4.72 -1.84,-25.13 -2.91,-5.88 -9.44,-11.21 -7.74,-14.03 -5.14,-4.82 -17.53,1.95 -11.32,-3.09 -21.01,-8.54 -4.72,-3.53 -2.59,-5.85 -0.61,-6.7 1.04,-5.75 3.58,-9.08 2.27,-8.94 -2.06,-7.63 -9.47,-5.36 -5.15,0.32 -5.66,1.03 -4.74,-1.45 -2.15,-7.21 0.31,-1.95 1.54,-3.79 -0.29,-1.46 -17.85,-23.28 -2.13,-1.85 -4.75,-1.63 -2.06,-1.55 -5.68,-9.06 -1.14,-8.16 1.99,-8.23 3.69,-9.15 1.02,-4.94 v -19.06 l -1.84,-6.06 -5.96,-11.46 -9.68,-30.16 -4.54,-9.15 -7.1,-4.94 -19.98,-5.14 h -3.4 l -2.88,1.31 -2.87,1.95 -3.2,1.56 -3.19,0.32 -8.97,-0.21 -3.09,-0.64 -3.09,-2.06 -2.48,-2.55 -2.88,-2.07 -3.9,-0.52 -22.46,1.88 0.92,-7.84 -0.6,-18.52 -1.64,-8.06 -0.95,-1.85 -3.27,-4.93 -0.75,-0.63 0.54,-2.35 1.24,-0.64 1.42,-0.49 1.14,-2.07 -0.11,-4.43 -3.58,-8.44 -1.14,-4.44 0.39,-2.65 1.45,-4.44 -0.31,-2.7 -1.53,-1.53 -4.93,-2.26 -1.67,-2.18 -0.11,-3.08 6.39,-80.31 -2.27,-9.89 -2.34,-3.51 -5.79,-6.5 -1.56,-3.69 -0.07,-2.58 0.71,-5.44 v -2.68 l -2.17,-12.14 -0.42,-5.58 1.03,-6.98 2.27,-6.49 5.79,-12.18 1.95,-6.28 -0.11,-6.36 -2.38,-5.35 -2.98,-4.97 -2.27,-4.92 -0.81,-5.36 -0.61,-17.5 -3.73,-18.56 -1.02,-18.42 -1.03,-2.58 -2.98,-5.54 -0.71,-2.27 0.28,-2.48 2.37,-3.59 3.31,-8.34 6.99,-7.84 2.59,-4.11 0.81,-4.22 -3.4,-49.02 1.46,-11.42 5.85,-10.93 8.66,-10.19 6.5,-10.71 -0.83,-12.23 -0.75,-2.6 -0.21,-1.63 -0.92,-0.65 -6.28,1.25 h -3.08 l -2.17,-1.25 -0.7,-3.29 6.06,-71.75 -0.29,-4.11 -0.95,-2.7 -2.34,-3.09 -2.7,-5.57 -1.24,-1.84 -0.29,-2.06 1.14,-3.8 2.44,-3.09 7.75,-6.28 1.63,-2.8 -1.14,-3.19 -2.98,-1.53 -3.8,-1.13 -3.41,-1.57 -7.52,-10.49 0.92,-10.62 4.05,-11.21 1.42,-12.24 -3.09,-12.28 -0.82,-6.29 1.46,-5.73 2.24,-2.99 2.48,-1.76 2.98,-0.83 3.62,-0.38 1.73,-1.35 0.53,-2.88 1.04,-13.52 -1.67,-3.26 -3.58,-2.38 -5.25,-4.65 -3.41,-6.28 -0.11,-5.97 2.59,-12.34 -0.63,-6.18 -6.39,-18.56 -3.3,-18.94 -0.11,-17.82 65.5,6 45.11,-2.16 38.43,4.4 32.71,-1.52 17,1.84 1.44,6.49 -1.55,1.42 -0.5,1.67 -0.75,1.52 -1.42,1.56 -1.55,2.6 1.24,1.73 2.05,1.64 1.14,2.05 0.82,3.52 4.12,6.28 1.23,3.08 -0.21,2.71 -1.63,4.28 -0.43,2.07 1.13,2.38 2.71,0.62 2.98,0.19 2.38,0.85 6.38,6.99 3.59,3.09 5.03,2.88 -0.28,-4.13 -2.06,-6.17 0.28,-3.59 1.25,-3.83 0.81,-0.91 1.95,-1.47 3.52,0.22 3.83,-1.35 0.61,-0.71 3.79,0.22 3.41,0.7 3.4,1.14 10.19,5.46 3.09,0.42 5.24,0.11 14.23,4.51 15.66,9.09 16.35,6.18 16.57,-3.94 2.16,0.63 h 1.78 l 1.85,-0.81 2.26,-1.77 -24.3,-3.49 -3.62,-1.45 -1.53,-6.27 -4.22,-4.66 -5.78,-3.47 -6.57,-2.6 -3.94,1.23 -12.84,-4.11 -6.21,-1.24 h -11.92 l -2.87,-1.02 -0.12,-2.48 0.61,-3.26 -0.61,-3.21 -3.92,-4.54 -4.51,-2.37 -4.98,-0.93 -5.53,-0.11 -3.83,-1.41 -2.27,0.07 -0.93,2.38 -1.74,0.21 -10.29,-9.37 -1.13,4.33 -0.53,4.44 -1.74,1.53 -4.54,-4.23 -1.75,1.56 -1.73,0.4 -1.85,-0.51 -2.8,-1.45 4.11,-2.99 2.88,-3.3 3.62,-2.55 6.49,-1.02 124.37,6.17 74.66,-6.17 81.57,-15.06 30.17,-13.19 11.1,-7.2 17.92,-16.69 9.69,-6.06 21.93,-13.8 8.98,-7.2 10.19,-10.62 7.4,-11.42 5.25,-5.96 11.54,-4.98 5.85,-5.53 35.52,-45.85 10.82,-23.86 3.09,-0.23 14.62,13.71 4.33,3.09 22.03,11.63 11.53,3.41 10.02,8.83 6.06,1.13 -6.7,-11.09 -23.88,-8.67 -9.15,-8.02 -0.33,-2.86 1.14,-3.03 0.71,-2.56 -1.52,-1.84 -2.18,0.5 -5.88,4.65 -3.27,1.14 -3.73,-2.27 -2.65,-5.36 -1.78,-6.61 -0.71,-5.86 1.03,-6.69 2.77,-5.26 2.8,-4.01 2.65,-8.23 3.64,-5.96 4.6,-5.79 4.44,-4 3.9,-2.7 1.77,-0.82 7.43,2.7 6.78,4.01 3.18,0.81 7.03,0.6 5.04,1.99 3.69,3.8 3.2,5.75 7.94,21.65 h 1.85 l 0.38,-5.47 -0.59,-4.23 -5.47,-15.85 -0.11,-5.04 2.38,-4.11 5.57,-3.09 4.83,-0.32 5.25,1.23 4.75,2.38 3.08,2.66 3.59,8.98 2.8,2.88 5.54,0.1 5.08,-2.26 5.95,-4.11 4.94,-4.95 2.16,-4.54 v -3.19 l -0.39,-1.85 -1.56,-0.84 -3.09,-0.07 -0.7,1.31 -1.57,6.49 -0.81,2.05 -3.09,2.28 -4.43,1.25 -4.76,0.09 -3.69,-1.56 -2.27,-3.41 -4.83,-10.39 -2.87,-4.11 h -1.98 l -6.08,3.41 -10.82,1.74 -28.49,1.23 -2.17,-0.38 -2.48,-1.78 -4.82,-5.15 -1.96,-1.14 -0.74,-2.76 0.53,-6.18 2.17,-6.28 6.06,-4.12 9.16,-8.44 1.14,-1.56 1.34,-3.19 1.35,-1.52 32.93,-11.04 16.78,-0.93 -1.74,2.49 -1.95,4.01 -0.74,3.8 1.46,1.67 3.61,-0.55 1.1,-1.41 0.54,-1.88 1.73,-1.95 6.18,-2.56 4.75,1.04 3.8,4.28 3.4,7.14 -1.84,7.52 4,6.35 6.99,3.52 6.82,-1.46 1.34,1.46 1.86,1.24 0.7,1.45 5.36,-1.56 4.12,2.16 4,3.41 4.66,1.95 -4.12,-6.49 -3.41,-3.79 -3.51,-1.67 -9.75,0.21 -4.44,-0.92 -3.8,-2.49 -1.88,-3.37 -0.6,-4.64 0.42,-4.76 1.03,-4.12 2.77,-4.28 6.99,-6.12 2.16,-3.58 h -1.74 l -2.98,1.95 -4.54,0.22 -4.76,-0.92 -10.18,-3.94 -1.63,-1.14 -1.56,-1.94 -2.27,-4.34 -2.35,-1.84 -2.48,3.5 -0.81,1.86 -0.71,2.76 -5.47,-1.63 -19.37,-0.43 -6.78,-1.31 -1.67,-3.93 6.18,-26.16 1.24,-13.38 -0.49,-10.61 0.49,-2.37 3.09,-1.54 7.03,1.25 3.79,-1.67 4.22,1.57 2.16,0.28 2.67,0.11 1.03,1.25 -0.21,5.34 1.13,1.25 3.01,-1.74 7.92,-8.77 2.16,-3.51 -5.89,1.46 -6.24,0.6 6.18,-15.86 -3.73,2.27 -5.25,7.1 -3.2,2.69 -4.43,1.46 -4.51,0.39 -3.52,-1.36 -1.44,-3.58 0.95,-4.54 2.06,-3.09 2.05,-2.15 0.92,-2.17 0.61,-4.83 1.67,-4.43 3.69,-7.63 1.56,-4.51 2.67,-13.59 8.01,-22.46 9.29,-10.5 2.56,-6.89 -9.96,5.96 3.18,-3.73 7.32,-12.44 1.41,-4.72 3.41,-5.58 12.67,-7.85 0.1,-5.42 -2.05,1.21 -0.93,0.42 -1.23,0.33 2.76,-12.35 8.13,-11.25 27.21,-25.13 1.75,-1.23 7.8,-8.03 2.27,-3.09 6.18,-6.71 4.11,-1.63 4.15,-0.91 3.48,-1.67 2.27,-3.69 -2.17,1.13 -3.79,1.73 -2.07,1.25 3.49,-4.43 11.85,-6.78 4.85,-4.86 h 1.75 l -0.21,3.19 0.81,2.17 2.06,0.92 3.3,-0.28 -2.97,-7.35 3.5,-6.99 6.46,-5.35 6,-2.17 2.26,-1.52 3.8,-3.21 4.44,-2.86 4.43,-0.53 3.27,3.3 -0.93,4.82 -4.33,9.89 4.45,-2.69 1.55,-1.2 2.16,9.86 h 1.74 l -0.32,-4.93 0.32,-4.93 0.54,-1.03 3.69,-5.68 -0.49,-0.81 -1.67,-0.42 0.42,-10.3 2.27,-1.56 6.36,-0.28 4.53,-1.89 3.41,-2.98 2.27,-0.29 0.72,6.29 -1.25,4.5 -2.37,3.41 -1.53,3.2 1.24,3.79 -1.24,2.58 -1.25,4.13 -0.59,4.22 0.91,2.98 3.52,1.13 3.47,-1.45 2.99,-0.81 3.3,-0.3 -1.14,-7.83 v -4.65 l 1.34,0.53 3.3,0.71 1.36,0.64 -0.85,-4.04 -4.01,-6.89 -1.14,-4.82 -0.21,-5.26 1.03,-4.12 2.59,-2.9 4.75,-1.74 1.02,1.24 1.96,1.35 0.93,1.31 7.42,-1.95 10.77,0.64 8.28,2.77 1.63,2.77 -3.91,1.02 h -1.94 l -2.28,-1.02 v 4.11 l 1.74,1.66 2.38,0.83 1.85,1.35 2.05,4.22 1.95,5.64 0.32,7.74 -1.95,4.82 -3.19,4.55 -3.2,6.7 5.36,-1.13 3.3,-2.6 2.44,-3.19 2.92,-2.77 -2.27,5.15 -1.46,7.2 -0.5,7.42 0.4,5.78 h 1.77 l 4.62,-14.12 1.34,-15.66 9.98,11.97 2.37,0.91 1.74,-0.09 2.37,-0.54 3.84,-0.28 -19.05,-21.44 -6,-12.34 7.02,-8.06 5.64,2.05 13.49,0.44 5.57,2.48 5.36,1.31 7.31,0.54 4.75,1.73 -2.16,5.47 3.79,1.14 3.91,0.7 8.05,-5.46 16.96,-1.53 14.55,3.41 0.49,9.65 3.84,11.25 1.1,11.85 -2.87,10.19 -8.24,6.38 8.95,0.92 4.32,-7.52 1.25,-10.6 -0.4,-13.17 0.82,-9.08 3.3,-9.38 1.64,-1.73 8.13,0.82 9.07,-0.11 2.99,0.93 2.16,3.18 -0.21,3.41 -2.88,10.08 -2.38,5.56 -3.51,6.29 -1.21,4.75 -0.21,13.6 -1.55,4.11 1.84,1.14 1.66,1.3 1.35,1.67 1.14,1.96 1.53,-3.52 0.81,-17.81 0.86,-4 2.76,-6.61 0.49,3.84 0.11,5.74 1.35,2.39 -1.95,9.67 1.95,13.17 4.43,12.27 5.54,6.68 0.32,-8.44 -0.61,-3.2 -6.59,-17.39 -1.14,-4.64 v -10.08 l 0.72,-1.25 2.69,-2.26 0.6,-1.43 -0.28,-1.45 -1.45,-2.05 -1.14,-17.21 0.93,-4.11 6.38,-3.7 10.81,-0.92 11.65,0.81 9.15,1.63 7.21,3.91 -3.69,4.22 -6,5.18 0.75,6.67 -4.05,4.66 -2.98,8.54 -5.75,28.5 0.6,4.15 1.46,2.33 6.5,5.58 -5.47,9.37 -3.8,4.54 -3.72,1.95 -2.59,2.16 -1.21,5.04 -1.14,10.83 -2.48,10.5 -2.05,5.25 -2.56,2.17 -3.73,1.74 -1.46,4.11 -0.6,5.24 -1.23,4.94 2.57,-1.21 2.46,-0.42 2.37,0.42 2.48,1.21 0.51,-2.66 0.82,-2.16 2.9,-3.3 3.59,3.3 2.58,-0.22 0.81,-2.45 -2.04,-3.62 -2.99,-4 -1.02,-3.73 0.92,-7.1 4.43,-18.02 5.15,-9.69 7.52,-4.18 4.83,-1.99 0.82,-4.4 -1.25,-4.65 -1.2,-2.89 -2.27,-2.9 -1.95,-2.06 -1.46,-2.76 -0.49,-5.36 1.2,-7.31 3.19,-9.15 4.44,-7.63 5.04,-2.56 -2.07,-5.07 0.44,-5.16 2.27,-4.6 3.37,-3.4 6.7,2.48 6.5,-1.46 6.49,-2.98 6.38,-1.95 -1.03,1.63 -0.42,1.35 -0.11,1.36 5.47,-2.49 3.09,-1.35 3.79,-0.5 2.8,1.25 1.74,2.76 0.53,2.77 -3.72,4.65 -10.39,20.46 -0.53,6.82 2.8,20.08 -2.38,3.69 -5.25,1.25 -5.47,-1.35 -2.88,-4.5 -2.05,3.26 0.93,1.78 1.95,1.31 1.13,2.59 -0.39,2.27 -1.14,1.84 -2.48,2.99 -4.12,7.12 -1.45,3.9 -0.5,4.83 8.44,-9.47 3.09,-4.94 2.55,-5.57 2.81,1.14 1.13,0.82 1.21,-2.45 1.56,-1.14 2.06,-0.42 h 2.98 l -6.48,17.43 -3.27,4.6 1.3,2.39 -0.7,6.87 1.34,4.44 3.49,-6.39 1.23,-4.72 1.86,-0.1 5.45,7.42 1.25,-2.6 1.46,-6.28 1.19,-3.18 6.01,-6.5 1.83,-3.2 -1.83,0.53 -2.7,0.5 -1.42,0.75 0.61,-4.02 -0.83,-6.09 -1.44,-5.36 -1.25,-2.36 -3.26,-2.25 1.31,-4.83 4.86,-7.95 0.61,-14.83 1.84,-7.2 3.5,-6.78 h 2.18 l 7.91,1.95 -3.08,4.39 -1.53,5.19 0.7,4.82 3.91,3.41 -1.13,-5.67 1.76,-4.34 4.01,-3.19 5.37,-2.45 -0.21,1.42 0.21,4.54 6.06,-2.38 4.94,2.18 8.05,8.97 1.84,5.14 -2.58,4.94 -4.41,4.32 -3.83,2.66 7.63,3.74 -1.13,9.57 -6.61,9.87 -8.94,4.54 -5.36,1.74 -2.76,4.32 -2.91,10.01 -1.85,2.16 -1.84,0.18 -1.57,0.54 -0.81,2.87 0.71,0.43 1.56,1.95 1.46,2.76 0.38,2.88 3.2,-4.5 4.75,-13.2 2.27,-2.99 5.25,-4.33 2.46,-2.66 0.81,-0.32 h 6.5 l 4.11,1.96 h 1.88 l 0.81,-2.67 v -7.95 l 2.56,-5.95 18.45,-20.09 6.57,-9.36 1.34,-1.64 13.11,2.06 1.72,2.55 0.43,2.6 -1.45,1.95 -7.92,1.63 -4.96,3.94 -3.79,1.41 1.84,1.77 -2.07,0.93 -1.94,1.25 v 1.84 l 2.76,1.14 1.04,2.06 0.32,1.94 0.91,0.93 5.36,0.31 1.95,0.61 1.78,1.03 3.69,-4.94 6.39,-2.97 7.63,-1.57 7.31,-0.38 10.07,-5.36 6.39,-0.65 2.59,6.01 h 1.95 l 2.66,-2.48 3.41,0.3 3.31,1.86 2.76,2.16 4.85,5.36 0.93,0.71 -0.93,2.48 -4.03,4.72 0.09,1.84 2.39,3.52 0.11,2.88 -0.93,3.18 -0.75,4.34 0.96,2.8 2.16,2.56 4.95,3.61 h 1.73 l -5.25,-13.48 -0.92,-7.42 4.44,-5.07 -1.46,-2.87 -0.82,-1.14 5.36,-6.6 0.82,-1.42 -1.14,-3.09 -1.95,-1.77 -2.06,-1.21 -1.03,-1.78 0.61,-3.29 2.48,-0.17 3.4,0.5 3.7,-1.15 -1.64,-0.92 -0.82,-0.92 -0.53,-0.92 -1.02,-1.25 25.87,-1.74 4,-1.13 3.8,-3.83 8.55,-1.31 9.47,0.49 6.28,1.56 -1.84,1.24 -2.27,0.71 -2.7,0.22 -3.19,-0.11 2.16,3.09 3.51,1.13 3.73,-0.43 2.78,-1.63 49.8,5.75 h 12.88 l 5.58,0.71 9.79,5.07 5.54,0.11 12.16,-1.78 h 24.92 l 16.67,-1.83 h 12.67 l 2.77,0.53 2.91,1.3 4.01,8.88 2.77,4.72 5.67,3.41 4.51,4 -0.91,6.82 -2.56,2.27 -3.41,0.93 -2.76,1.63 -1.15,4.22 0.38,2.69 2.39,6.46 1.02,1.78 -3.69,4.82 -4.31,12.56 -2.99,2.49 -2.81,1.62 -3.3,3.85 -2.98,4.6 -1.84,4.01 4.73,3.19 -1.12,6.81 -7.61,13.81 -3.9,5.04 -15.99,15.04 v 1.85 h 1.75 l 1.56,-2.15 2.87,-3.31 3.52,-3.2 3.26,-1.36 3.52,-1.02 2.16,-2.55 3.3,-6.28 1.64,-4.86 0.31,-0.18 6.88,-3.93 8.06,-5.97 2.34,-3.19 -1.31,-3.91 5.75,-3.18 2.37,-0.65 -1.35,-2.76 -0.82,-1.25 7.53,-6.78 8.34,-0.42 6.5,5.04 1.84,10 h 1.84 l -1.31,-10.2 -2.91,-10.41 0.54,-7.92 8.66,-3.29 3.79,0.71 5.68,2.8 2.55,0.71 1.24,-1.35 -0.6,-2.77 -1.45,-3.08 -1.13,-1.96 -1.35,-2.8 1.95,-0.7 2.9,0.2 1.32,0.32 4.33,-1.34 3.93,-0.64 3.37,1.34 2.48,4.65 0.23,2.66 -1.97,4.22 -0.21,2.88 0.82,2.9 2.59,5.55 0.6,2.58 1.15,2.38 2.54,2.88 3.13,2.58 2.24,1.14 2.69,-0.63 1.95,-1.36 0.61,-1.41 4.96,4.82 -1.03,4.22 -0.96,4.01 -0.91,6.18 2.58,4.43 7.92,5.9 1.88,5.25 11.43,17.98 v 0.12 l 4.31,5.99 2.67,5.74 4.34,12.68 1.84,3.9 5.68,8.65 2.87,3.09 3.31,1.46 3.4,0.6 3.09,1.35 2.04,3.8 7.82,39.56 -0.29,3.09 -2.37,6.99 -0.32,3.79 1.83,7.14 6.29,12.23 1.88,6.61 -0.1,6.07 -1.04,5.67 -0.42,5.65 1.74,6.28 4.44,5.67 5.46,5.25 4.44,5.64 1.35,7.14 -3.02,7.69 -5.43,5.79 -6.6,4.94 -5.9,5.67 -3.79,7.42 2.28,4.23 5.14,3.67 5.14,6.29 1.25,7.32 -2.6,5.14 -3.09,4.53 -0.48,5.97 3.08,4.75 10.29,6.89 3.9,4.93 4.97,4.75 6.28,-0.81 6.38,-2.28 5.16,0.61 1.02,3.83 0.61,8.24 1.66,2.06 4.62,2.37 3.73,3.9 6.17,8.94 v 0.11 l 26.96,27.93 39.95,32.11 7.42,10.29 8.34,17.6 4.02,4.43 3.99,2.28 3.41,0.32 3.73,-0.32 4.62,0.32 8.12,4.83 8.76,16.99 8.67,5.36 13.37,4.92 5.96,2.99 4.65,4.55 6.82,12.87 4.29,3.59 8.66,1.77 14.01,0.1 3.58,2.88 22.36,70.65 5.47,6.17 6.99,-0.53 5.67,-2.77 5.68,-1.66 6.77,2.91 71.48,60.32 6.79,3.94 4.14,-0.96 2.33,-4.72 4.22,-21.43 2.99,-5.75 6.21,-4.75 8.01,-2.35 75.05,1.1 0.22,6.49 1.23,4.65 2.38,3.9 3.59,4.86 1.87,1.32 1.64,0.43 1.24,0.93 1.62,22.34 2.5,11.01 3.68,10.6 4.22,8.23 5.36,-6.88 1.58,-14.42 5.24,-4.11 7.71,-2.58 20.4,-10.82 23.97,-8.94 9.59,-6.5 4.75,-11.64 2.67,-13.27 5.85,-12.66 9.3,-9.38 27.18,-4.96 9.96,-7.8 5.58,-11.65 0.92,-13.91 -0.39,-11.64 0.92,-11.31 4.82,-22.54 5.79,-13.91 4.72,-4.44 7.92,-1.02 26.57,2.76 1.67,-0.49 3.2,-2.06 2.13,-0.32 1.77,0.71 3.09,2.81 1.02,0.6 3.2,-0.32 6.38,-1.53 3.19,-0.21 7.21,1.74 7.52,3.72 5.65,5.25 1.87,6.71 1.74,12.04 4.34,9.9 7.69,6.17 11.54,1.13 7.95,4.4 6.87,9.59 8.45,19.68 1.88,7.7 0.82,7.96 -1.45,5.24 -6.4,7.21 -1.95,4.43 1.67,7.81 5.22,7.31 17.92,16.49 16.89,10.58 1.14,1.56 1.03,3.79 1.13,1.35 1.45,0.44 2.98,-0.32 3.29,0.71 4.55,0.21 1.96,0.71 1.62,2.26 0.54,2.81 0.92,2.66 4.33,2.78 12.35,11.25 3.41,1.94 3.91,1.24 3.29,-0.31 2.56,-1.24 2.48,-0.61 2.88,1.13 2.59,6.58 -3.62,7.3 -11.33,12.38 -14.51,20.9 -4.12,3.48 -6.91,1.35 -1.74,1.67 2.38,2.65 5.25,3.92 5.86,5.46 18.13,26.85 35.4,34.52 7.74,11.54 4.61,3.2 3.62,3.25 1.14,6.01 -4.12,17.18 -0.53,6.21 0.93,6.34 1.98,6 10.5,19.05 28.93,40.14 11.11,11.53 1.66,4.21 -0.82,4.87 -2.05,7.19 -1.57,11.23 v 11.42 l 1.64,7.13 11.84,16.89 2.28,6.28 0.31,5.74 -4.64,23.72 -0.71,13.27 2.26,12.66 6.67,9.58 6.29,2.56 11.25,-1.84 6.17,0.82 3.47,2.48 2.28,3.4 1.85,3.48 2.27,3.09 8.77,6.1 2.48,2.66 -0.11,8.12 -0.82,4.12 -6.91,16.6 -2.39,4.22 8.06,-2.57 4.12,-0.61 4.11,0.38 4.54,1.95 3.37,2.39 3.73,1.83 5.26,0.65 3.79,-1.03 9.37,-4.33 4.32,-0.81 4.55,1.02 29.84,15.75 5.15,5.65 4.32,9.47 2.59,8.23 2.06,3.53 3.4,1.63 4.12,-0.19 3.69,-0.74 h 3.63 l 3.89,1.66 6.28,8.66 3.31,12.57 6.5,55.28 -2.06,10.71 0.28,11.81 5.89,14.03 13.49,24.09 1.73,5.05 1.14,5.46 0.32,11.64 -2.38,8.87 -2.77,5.84 -8.34,1.35 -1.36,0.93 1.96,5.36 1.95,1.42 17.11,8.04 2.49,1.64 3.18,3.31 8.45,10.82 3.9,3.08 20.19,8.84 22.96,3.52 19.06,7.51 8.13,20.9 1.45,19.06 3.79,19.76 2.77,6.99 2.8,4.86 0.72,4.71 -3.2,6.62 -8.55,8.86 -2.98,4.62 -0.42,6.7 2.16,5.97 6.91,10.82 1.25,6.98 -1.13,5.58 -3.52,9.68 -0.11,5.86 5.14,9.96 9.79,3.84 22.87,2.48 5.47,2.36 6.87,3.99 6.17,4.76 3.41,4.44 4.65,9.85 0.6,4.06 -0.49,3.37 -1.96,6 0.08,3.79 6.5,18.35 10,55.61 10.89,36.82 8.05,17 51.98,74.16 3.63,8.23 -1.85,11.21 1.21,5.96 3.19,5.19 4.75,4 11.11,6.4 3.51,4.6 4.94,11.75 7.03,12.35 9.64,12.27 11.05,11.11 11.09,9.05 h 9.09 l 11.43,-3.27 20.47,-8.66 6,-0.92 6.46,1.64 6.21,3.19 5.24,3.8 8.02,8.33 3.59,1.56 7.85,0.93 2.27,0.92 26.04,23.98 5.45,3.13 17.29,5.43 6.1,3.62 10.69,9.58 6.09,3.7 15.12,5.45 4.94,2.67 3.51,5.45 3.08,7.03 2.28,7.42 1.02,6.18 -0.1,7.41 -1.74,5.96 -3.2,5.04 -4.75,4.83 -1.52,1.98 -1.04,2.07 -1.23,1.95 -2.16,1.35 -4.94,-0.12 -1.24,0.4 -2.7,3.62 -0.39,2.55 1.45,2.59 10.58,14.19 2.28,4.97 6.17,30.17 3.29,9.26 1.14,10 -0.11,2.06 -0.49,3.3 -5.47,12.74 -0.63,5.68 5.28,3.4 -0.74,3.19 5.04,21.2 1.76,3.5 1.43,1.74 0.75,1.88 5.63,5.64 z m -2078.58,-2254.88 -4.94,-0.6 -10.61,-2.58 -5.25,-0.61 -5.14,1.25 -10.4,5.35 -3.51,1.14 -14.13,-4.23 -2.87,-1.55 -2.66,-5.25 1.74,-3.69 4.43,-2.39 21.4,-1.23 5.14,0.53 14.55,5.13 4.5,0.83 11.16,-0.43 5.04,1.03 2.65,3.51 1.57,3.91 -2.99,0.93 z m -77.86,2.18 -4.54,1.67 -4.51,7.8 -4.04,2.38 -1,-4.83 -1.23,-2.8 -5.68,-6.4 -6.6,-10.06 -9.26,-9.92 -2.78,-5.45 2.78,-3.37 9.89,-0.92 25.95,5.35 4.11,1.63 4.01,2.5 2.69,2.86 1.25,4.54 0.08,4.51 0.62,3.9 1.75,3.41 3.51,3.2 -3.72,1.35 -13.28,-1.35"
         style="fill:#818283;fill-opacity:1;fill-rule:nonzero;stroke:none"
         id="path309" />
      <g
         id="g311"
         transform="scale(10)" />
    </g>
  </g>
</svg>
