<?xml version="1.0" encoding="UTF-8"?>
<svg width="175px" height="88px" viewBox="0 0 175 88" version="1.1" xmlns="http://www.w3.org/2000/svg" xmlns:xlink="http://www.w3.org/1999/xlink">
    <!-- Generator: Sketch 51.2 (57519) - http://www.bohemiancoding.com/sketch -->
    <desc>Created with Sketch.</desc>
    <defs>
        <path d="M43.75,21.875 L43.75,43.75 L0,43.75 M43.75,21.875 L87.5,21.875 L87.5,43.75 M43.75,0 L87.5,0 L43.75,21.875 M0,0 L43.75,21.875 L0,21.875 L0,0" id="path-1"></path>
    </defs>
    <g id="new-zealand-flag-seeklogo.com" stroke="none" stroke-width="1" fill="none" fill-rule="evenodd">
        <polygon id="Fill-1" fill="#282E60" points="0 87.49125 175 87.49125 175 0 0 0"></polygon>
        <path d="M0,43.75 L87.5,0 M0,0 L87.5,43.75" id="Fill-3" fill="#0A0B09"></path>
        <path d="M0,43.75 L87.5,0 M0,0 L87.5,43.75" id="Stroke-4" stroke="#FFFFFE" stroke-width="8.75"></path>
        <g id="Group-9">
            <mask id="mask-2" fill="white">
                <use xlink:href="#path-1"></use>
            </mask>
            <g id="Clip-7"></g>
            <path d="M0,43.75 L87.5,0 M0,0 L87.5,43.75" id="Fill-6" fill="#0A0B09" mask="url(#mask-2)"></path>
            <path d="M0,43.75 L87.5,0 M0,0 L87.5,43.75" id="Stroke-8" stroke="#BA252F" stroke-width="5.83333333" mask="url(#mask-2)"></path>
        </g>
        <path d="M0,21.875 L87.5,21.875 M43.75,0 L43.75,43.75" id="Fill-10" fill="#0A0B09"></path>
        <path d="M0,21.875 L87.5,21.875 M43.75,0 L43.75,43.75" id="Stroke-11" stroke="#FFFFFE" stroke-width="14.5833333"></path>
        <path d="M0,21.875 L87.5,21.875 M43.75,0 L43.75,43.75" id="Fill-13" fill="#0A0B09"></path>
        <path d="M0,21.875 L87.5,21.875 M43.75,0 L43.75,43.75" id="Stroke-14" stroke="#BA252F" stroke-width="8.75"></path>
        <polyline id="Fill-16" fill="#FFFFFE" points="131.25 15.6046042 131.25 18.5212708 137.083333 15.6046042 131.25 15.6046042"></polyline>
        <polyline id="Fill-17" fill="#FFFFFE" points="132.364021 19.0334375 130.649604 16.6737083 137.083333 15.6046042 132.364021 19.0334375"></polyline>
        <polyline id="Fill-18" fill="#FFFFFE" points="131.25 15.6046042 131.25 18.5212708 125.416667 15.6046042 131.25 15.6046042"></polyline>
        <polyline id="Fill-19" fill="#FFFFFE" points="130.135833 19.0334375 131.85025 16.6737083 125.416667 15.6046042 130.135833 19.0334375"></polyline>
        <polyline id="Fill-20" fill="#FFFFFE" points="133.0525 16.9143333 130.278604 17.8155833 134.855146 22.462125 133.0525 16.9143333"></polyline>
        <polyline id="Fill-21" fill="#FFFFFE" points="130.135833 19.0334375 131.85025 16.6737083 134.855146 22.462125 130.135833 19.0334375"></polyline>
        <polyline id="Fill-22" fill="#FFFFFE" points="129.447354 16.9143333 132.22125 17.8155833 131.249854 11.3663958 129.447354 16.9143333"></polyline>
        <polyline id="Fill-23" fill="#FFFFFE" points="133.0525 16.9143333 130.278604 17.8155833 131.249854 11.3663958 133.0525 16.9143333"></polyline>
        <polyline id="Fill-24" fill="#FFFFFE" points="129.447354 16.9143333 132.22125 17.8155833 127.644708 22.462125 129.447354 16.9143333"></polyline>
        <polyline id="Fill-25" fill="#FFFFFE" points="132.364021 19.0334375 130.649604 16.6737083 127.644708 22.462125 132.364021 19.0334375"></polyline>
        <polyline id="Fill-26" fill="#BA252F" points="131.25 16.0784167 131.25 18.2659167 135.625 16.0784167 131.25 16.0784167"></polyline>
        <polyline id="Fill-27" fill="#BA252F" points="132.085479 18.6500417 130.799667 16.8802083 135.625 16.0784167 132.085479 18.6500417"></polyline>
        <polyline id="Fill-28" fill="#BA252F" points="131.25 16.0784167 131.25 18.2659167 126.875 16.0784167 131.25 16.0784167"></polyline>
        <polyline id="Fill-29" fill="#BA252F" points="130.414375 18.6500417 131.700188 16.8802083 126.875 16.0784167 130.414375 18.6500417"></polyline>
        <polyline id="Fill-30" fill="#BA252F" points="132.602021 17.06075 130.521417 17.7366875 133.953896 21.2216667 132.602021 17.06075"></polyline>
        <polyline id="Fill-31" fill="#BA252F" points="130.414521 18.6500417 131.700187 16.8802083 133.953896 21.2216667 130.414521 18.6500417"></polyline>
        <polyline id="Fill-32" fill="#BA252F" points="129.897979 17.06075 131.978438 17.7366875 131.249854 12.8998333 129.897979 17.06075"></polyline>
        <polyline id="Fill-33" fill="#BA252F" points="132.601875 17.06075 130.521417 17.7366875 131.249854 12.8998333 132.601875 17.06075"></polyline>
        <polyline id="Fill-34" fill="#BA252F" points="129.897979 17.06075 131.978438 17.7366875 128.545958 21.2216667 129.897979 17.06075"></polyline>
        <polyline id="Fill-35" fill="#BA252F" points="132.085479 18.6500417 130.799667 16.8802083 128.545958 21.2216667 132.085479 18.6500417"></polyline>
        <polyline id="Fill-36" fill="#FFFFFE" points="148.579375 30.9060208 148.579375 33.4581042 153.683542 30.9060208 148.579375 30.9060208"></polyline>
        <polyline id="Fill-37" fill="#FFFFFE" points="149.555 33.90625 148.054375 31.8415417 153.683542 30.9060208 149.555 33.90625"></polyline>
        <polyline id="Fill-38" fill="#FFFFFE" points="148.579375 30.9060208 148.579375 33.4581042 143.4755 30.9060208 148.579375 30.9060208"></polyline>
        <polyline id="Fill-39" fill="#FFFFFE" points="147.605208 33.90625 149.104375 31.8415417 143.4755 30.9060208 147.605208 33.90625"></polyline>
        <polyline id="Fill-40" fill="#FFFFFE" points="150.157292 32.0519792 147.729167 32.8406458 151.73375 36.9063333 150.157292 32.0519792"></polyline>
        <polyline id="Fill-41" fill="#FFFFFE" points="147.605208 33.90625 149.104375 31.8415417 151.73375 36.9063333 147.605208 33.90625"></polyline>
        <polyline id="Fill-42" fill="#FFFFFE" points="147.002917 32.0519792 149.429583 32.8406458 148.579375 27.197625 147.002917 32.0519792"></polyline>
        <polyline id="Fill-43" fill="#FFFFFE" points="150.157292 32.0519792 147.729167 32.8406458 148.579375 27.197625 150.157292 32.0519792"></polyline>
        <polyline id="Fill-44" fill="#FFFFFE" points="147.002917 32.0519792 149.429583 32.8406458 145.425 36.9063333 147.002917 32.0519792"></polyline>
        <polyline id="Fill-45" fill="#FFFFFE" points="149.555 33.90625 148.054375 31.8415417 145.425 36.9063333 149.555 33.90625"></polyline>
        <polyline id="Fill-46" fill="#BA252F" points="148.579375 31.3798333 148.579375 33.20275 152.225208 31.3798333 148.579375 31.3798333"></polyline>
        <polyline id="Fill-47" fill="#BA252F" points="149.276458 33.5228542 148.204583 32.0480417 152.225208 31.3798333 149.276458 33.5228542"></polyline>
        <polyline id="Fill-48" fill="#BA252F" points="148.579375 31.3798333 148.579375 33.20275 144.933833 31.3798333 148.579375 31.3798333"></polyline>
        <polyline id="Fill-49" fill="#BA252F" points="147.88375 33.5228542 148.954167 32.0480417 144.933833 31.3798333 147.88375 33.5228542"></polyline>
        <polyline id="Fill-50" fill="#BA252F" points="149.706667 32.1983958 147.972708 32.76175 150.8325 35.6657292 149.706667 32.1983958"></polyline>
        <polyline id="Fill-51" fill="#BA252F" points="147.88375 33.5228542 148.954167 32.0480417 150.8325 35.6657292 147.88375 33.5228542"></polyline>
        <polyline id="Fill-52" fill="#BA252F" points="147.453542 32.1983958 149.186042 32.76175 148.579375 28.7310625 147.453542 32.1983958"></polyline>
        <polyline id="Fill-53" fill="#BA252F" points="149.706667 32.1983958 147.972708 32.76175 148.579375 28.7310625 149.706667 32.1983958"></polyline>
        <polyline id="Fill-54" fill="#BA252F" points="147.453542 32.1983958 149.186042 32.76175 146.32625 35.6657292 147.453542 32.1983958"></polyline>
        <polyline id="Fill-55" fill="#BA252F" points="149.276458 33.5228542 148.204583 32.0480417 146.32625 35.6657292 149.276458 33.5228542"></polyline>
        <polyline id="Fill-56" fill="#FFFFFE" points="111.031958 35.9460208 111.031958 38.8626875 116.865292 35.9460208 111.031958 35.9460208"></polyline>
        <polyline id="Fill-57" fill="#FFFFFE" points="112.145979 39.3748542 110.431708 37.015125 116.865292 35.9460208 112.145979 39.3748542"></polyline>
        <polyline id="Fill-58" fill="#FFFFFE" points="111.031958 35.9460208 111.031958 38.8626875 105.198625 35.9460208 111.031958 35.9460208"></polyline>
        <polyline id="Fill-59" fill="#FFFFFE" points="109.917937 39.3748542 111.632354 37.015125 105.198625 35.9460208 109.917937 39.3748542"></polyline>
        <polyline id="Fill-60" fill="#FFFFFE" points="112.834604 37.25575 110.060708 38.157 114.63725 42.8035417 112.834604 37.25575"></polyline>
        <polyline id="Fill-61" fill="#FFFFFE" points="109.917938 39.3748542 111.632354 37.015125 114.63725 42.8035417 109.917938 39.3748542"></polyline>
        <polyline id="Fill-62" fill="#FFFFFE" points="109.229313 37.25575 112.003208 38.157 111.031813 31.7079583 109.229313 37.25575"></polyline>
        <polyline id="Fill-63" fill="#FFFFFE" points="112.834604 37.25575 110.060563 38.157 111.031813 31.7079583 112.834604 37.25575"></polyline>
        <polyline id="Fill-64" fill="#FFFFFE" points="109.229312 37.25575 112.003208 38.157 107.426812 42.8035417 109.229312 37.25575"></polyline>
        <polyline id="Fill-65" fill="#FFFFFE" points="112.145979 39.3748542 110.431562 37.015125 107.426812 42.8035417 112.145979 39.3748542"></polyline>
        <polyline id="Fill-66" fill="#BA252F" points="111.031958 36.4198333 111.031958 38.6073333 115.406958 36.4198333 111.031958 36.4198333"></polyline>
        <polyline id="Fill-67" fill="#BA252F" points="111.867583 38.9914583 110.581625 37.2217708 115.406958 36.4198333 111.867583 38.9914583"></polyline>
        <polyline id="Fill-68" fill="#BA252F" points="111.031958 36.4198333 111.031958 38.6073333 106.656958 36.4198333 111.031958 36.4198333"></polyline>
        <polyline id="Fill-69" fill="#BA252F" points="110.196479 38.9914583 111.482146 37.2217708 106.656958 36.4198333 110.196479 38.9914583"></polyline>
        <polyline id="Fill-70" fill="#BA252F" points="112.383979 37.4021667 110.303521 38.0781042 113.735854 41.5630833 112.383979 37.4021667"></polyline>
        <polyline id="Fill-71" fill="#BA252F" points="110.196479 38.9914583 111.482146 37.2217708 113.735854 41.5630833 110.196479 38.9914583"></polyline>
        <polyline id="Fill-72" fill="#BA252F" points="109.680083 37.4021667 111.760396 38.0781042 111.031813 33.24125 109.680083 37.4021667"></polyline>
        <polyline id="Fill-73" fill="#BA252F" points="112.383979 37.4021667 110.303375 38.0781042 111.031813 33.24125 112.383979 37.4021667"></polyline>
        <polyline id="Fill-74" fill="#BA252F" points="109.680083 37.4021667 111.760396 38.0781042 108.327917 41.5630833 109.680083 37.4021667"></polyline>
        <polyline id="Fill-75" fill="#BA252F" points="111.867583 38.9914583 110.581625 37.2217708 108.327917 41.5630833 111.867583 38.9914583"></polyline>
        <polyline id="Fill-76" fill="#FFFFFE" points="131.25 67.867625 131.25 71.148875 137.8125 67.867625 131.25 67.867625"></polyline>
        <polyline id="Fill-77" fill="#FFFFFE" points="132.503292 71.7250625 130.5745 69.0704583 137.8125 67.867625 132.503292 71.7250625"></polyline>
        <polyline id="Fill-78" fill="#FFFFFE" points="131.25 67.867625 131.25 71.148875 124.6875 67.867625 131.25 67.867625"></polyline>
        <polyline id="Fill-79" fill="#FFFFFE" points="129.996563 71.7250625 131.925354 69.0704583 124.6875 67.867625 129.996563 71.7250625"></polyline>
        <polyline id="Fill-80" fill="#FFFFFE" points="133.277812 69.3409792 130.157271 70.3551042 135.305917 75.5823542 133.277812 69.3409792"></polyline>
        <polyline id="Fill-81" fill="#FFFFFE" points="129.996563 71.7250625 131.925354 69.0704583 135.305917 75.5823542 129.996563 71.7250625"></polyline>
        <polyline id="Fill-82" fill="#FFFFFE" points="129.222042 69.3409792 132.342583 70.3551042 131.249854 63.0998958 129.222042 69.3409792"></polyline>
        <polyline id="Fill-83" fill="#FFFFFE" points="133.277813 69.3409792 130.157125 70.3551042 131.249854 63.0998958 133.277813 69.3409792"></polyline>
        <polyline id="Fill-84" fill="#FFFFFE" points="129.222042 69.3409792 132.342583 70.3551042 127.194083 75.5823542 129.222042 69.3409792"></polyline>
        <polyline id="Fill-85" fill="#FFFFFE" points="132.503292 71.7250625 130.5745 69.0704583 127.194083 75.5823542 132.503292 71.7250625"></polyline>
        <polyline id="Fill-86" fill="#BA252F" points="131.25 68.3415833 131.25 70.8936667 136.354167 68.3415833 131.25 68.3415833"></polyline>
        <polyline id="Fill-87" fill="#BA252F" points="132.22475 71.3416667 130.724562 69.2769583 136.354167 68.3415833 132.22475 71.3416667"></polyline>
        <polyline id="Fill-88" fill="#BA252F" points="131.25 68.3415833 131.25 70.8936667 126.145833 68.3415833 131.25 68.3415833"></polyline>
        <polyline id="Fill-89" fill="#BA252F" points="130.275104 71.3416667 131.775292 69.2769583 126.145833 68.3415833 130.275104 71.3416667"></polyline>
        <polyline id="Fill-90" fill="#BA252F" points="132.827188 69.4873958 130.400083 70.2762083 134.404521 74.34175 132.827188 69.4873958"></polyline>
        <polyline id="Fill-91" fill="#BA252F" points="130.275104 71.3416667 131.775292 69.2769583 134.404521 74.34175 130.275104 71.3416667"></polyline>
        <polyline id="Fill-92" fill="#BA252F" points="129.672667 69.4873958 132.099771 70.2762083 131.249854 64.6331875 129.672667 69.4873958"></polyline>
        <polyline id="Fill-93" fill="#BA252F" points="132.827042 69.4873958 130.400083 70.2762083 131.249854 64.6331875 132.827042 69.4873958"></polyline>
        <polyline id="Fill-94" fill="#BA252F" points="129.672667 69.4873958 132.099771 70.2762083 128.095333 74.34175 129.672667 69.4873958"></polyline>
        <polyline id="Fill-95" fill="#BA252F" points="132.22475 71.3416667 130.724563 69.2769583 128.095333 74.34175 132.22475 71.3416667"></polyline>
    </g>
</svg>