<svg width="58px" height="116px" viewBox="0 0 58 116" version="1.1" xmlns="http://www.w3.org/2000/svg" xmlns:xlink="http://www.w3.org/1999/xlink">
    <g id="Page-1" stroke="none" stroke-width="1" fill="none" fill-rule="evenodd">
        <g id="PT-EPS-01-0001" transform="translate(-298.000000, -146.000000)" fill="#7F807C">
            <path d="M310.204042,228.685305 L310.074407,228.707143 L310.053034,228.794496 L310.053034,228.858616 L310.204042,228.989645 L310.290465,228.794496 L310.204042,228.685305 Z M306.771275,220.74227 L306.879537,220.417022 L306.858163,220.288316 L306.749902,220.352901 L306.70669,220.396113 L306.597964,220.482536 L306.404674,220.698594 L306.231363,221.022449 L306.080354,221.388121 L306.188616,221.433656 L306.512935,221.107943 L306.771275,220.74227 Z M306.987798,219.533275 L306.965031,219.878968 L307.095595,219.770242 L307.202927,219.339055 L307.116968,219.207562 L306.987798,219.533275 Z M307.159715,220.590333 L307.397611,220.504374 L307.439894,220.288316 L307.3544,220.115934 L307.246138,220.03044 L307.116968,220.115934 L307.008707,220.417022 L307.159715,220.590333 Z M310.419635,192.504653 L310.61339,192.504653 L310.959083,192.331342 L310.419635,192.051163 L310.225415,191.986578 L310.138527,192.02979 L310.074407,191.986578 L310.138527,192.137122 L310.182668,192.266757 L310.419635,192.504653 Z M298.654,208.372137 L298.826382,208.176988 L298.71812,208.133312 L298.654,208.372137 Z M355.300222,159.53885 L355.06372,159.194552 L354.329123,158.416278 L353.552708,157.920042 L352.710314,157.618025 L351.307564,157.337847 L351.069668,157.337847 L350.940033,157.445179 L350.832701,157.574814 L350.595734,157.727216 L350.336464,157.855457 L350.163153,157.898668 L349.68829,157.727216 L349.450394,157.35922 L349.364436,156.905266 L349.32076,156.473615 L349.234801,156.257092 L349.127469,156.064731 L349.083793,155.870046 L349.192054,155.653988 L349.32076,155.459304 L349.386274,155.243246 L349.796552,153.365168 L349.990772,152.933052 L349.535888,152.782973 L349.234801,152.74069 L349.105631,152.588753 L349.234801,151.595815 L349.170216,151.228285 L348.93232,150.948106 L348.522971,150.774795 L348.28554,151.271032 L347.70288,151.444343 L346.471117,151.486625 L345.953972,151.337011 L345.327636,150.364053 L344.808632,150.278094 L344.700836,150.96948 L344.291487,151.228285 L343.2335,151.313778 L342.758637,151.206446 L342.348359,150.883521 L341.95992,150.689301 L341.550106,150.990388 L340.944679,151.249658 L340.405696,151.011762 L339.887157,150.558737 L339.326335,150.213974 L339.088904,150.257185 L338.785493,150.430032 L338.528082,150.624716 L338.397054,150.753422 L338.353842,151.076347 L338.461639,151.833247 L338.419821,152.199849 L338.073199,152.716994 L337.512377,153.063616 L336.282009,153.473894 L335.979527,153.516641 L335.353656,153.495732 L335.094851,153.538479 L334.857884,153.688558 L334.446677,154.163421 L334.210175,154.358105 L334.14559,153.991504 L333.972279,153.603064 L333.75715,153.301047 L333.519254,153.213695 L333.345943,153.191857 L333.087603,153.020404 L332.957503,153.020404 L332.828798,153.127736 L332.784192,153.2583 L332.763284,153.407915 L332.677325,153.581226 L332.417591,153.77591 L332.071898,153.904151 L331.705296,153.947363 L331.40328,153.925525 L331.122637,153.77591 L331.100799,153.559852 L331.360533,152.847558 L330.431251,152.804346 L330.129699,152.652873 L329.654372,152.30811 L329.394637,152.242131 L328.91931,152.500936 L327.863181,152.761599 L327.388318,152.738367 L327.215472,152.804346 L327.128584,152.933052 L327.063999,153.084989 L326.956202,153.213695 L326.415825,153.213695 L326.308028,152.545541 L326.265281,151.919205 L325.919589,152.049305 L325.833166,152.30811 L325.747207,152.69562 L325.595734,152.999031 L325.272809,152.999031 L324.991236,152.954425 L324.753805,153.063616 L324.537747,153.279674 L324.365365,153.559852 L323.804544,154.142047 L323.027664,154.358105 L321.537561,154.272147 L321.602146,153.667184 L321.580308,153.365168 L321.450673,153.191857 L320.84664,152.954425 L320.651956,152.545541 L320.674258,152.11389 L320.84664,151.703147 L321.516188,150.71021 L322.012424,150.213974 L322.50866,149.88919 L322.789303,149.651758 L322.96215,149.371115 L323.004897,148.960837 L322.875727,148.616074 L322.616922,148.357269 L322.293067,148.227169 L321.926001,148.248543 L321.623984,148.400016 L321.36425,148.464136 L321.149121,148.292684 L321.083607,147.925153 L321.126819,146.93268 L320.97581,146.585593 L320.825267,146.37 L320.307192,146.737996 L319.983337,146.86856 L319.680856,146.889468 L319.551221,146.910842 L319.400678,147.018174 L318.968097,147.428452 L318.688383,147.580854 L316.032032,148.010647 L315.708177,148.141211 L315.125982,148.551489 L314.802127,148.680194 L314.175792,148.702032 L313.873775,148.768011 L313.571294,148.981746 L313.420286,149.221501 L313.247904,149.717737 L313.117804,149.955169 L312.772576,150.1926 L312.319552,150.321306 L311.930647,150.515526 L311.758265,150.667463 L311.542207,151.508463 L310.959083,152.156637 L309.750552,153.170948 L309.620918,153.387006 L309.555868,153.623973 L309.491283,154.445458 L309.426698,154.725636 L309.33981,154.963068 L309.232478,155.049026 L309.167428,155.307831 L309.362113,155.89142 L309.750552,156.777025 L310.182668,156.905266 L310.397797,156.927104 L310.786701,156.884357 L312.686618,156.302162 L312.449186,156.539594 L312.167614,156.73242 L311.866062,156.884357 L310.808075,157.057668 L310.419635,157.207283 L310.204042,157.401967 L310.159901,157.942809 L310.333212,158.417672 L310.527896,158.826556 L310.635693,159.215925 L310.721652,159.734 L311.067344,160.510879 L311.132394,160.877945 L311.024133,160.877945 L310.959083,160.813825 L310.915872,160.792451 L310.873589,160.771078 L310.786701,160.705099 L310.786701,160.877945 L311.002759,161.267779 L311.110556,161.849509 L311.132394,163.554277 L311.175141,163.836314 L311.262029,164.159239 L311.498996,164.570446 L311.563581,164.807878 L311.477622,165.088056 L311.758265,165.109429 L311.844689,165.325952 L311.844689,166.016408 L311.931112,166.297051 L312.01707,166.534483 L312.060747,166.793288 L311.973859,167.09484 L312.298643,167.742549 L312.514236,168.519428 L312.837161,169.146229 L313.485335,169.298167 L313.485335,169.426872 L313.182854,169.728424 L313.161016,170.528071 L313.377539,172.059992 L313.377539,172.90285 L311.736892,180.610312 L311.952485,180.349649 L312.189917,179.874786 L312.383672,179.357176 L312.449186,178.991039 L312.491933,178.428824 L312.643406,177.782043 L312.837161,177.198455 L313.075058,176.744965 L313.161016,177.048376 L313.291116,176.961023 L313.398912,176.659471 L313.420286,176.291476 L313.593597,176.766803 L312.945423,177.694691 L313.075058,178.321491 L313.204228,178.516176 L313.593597,178.687628 L313.679091,178.687628 L313.744605,178.644417 L314.111207,178.558458 L314.543323,178.342865 L314.823501,178.321491 L314.543323,178.580761 L314.283124,178.774981 L313.982036,178.903686 L313.593597,178.948292 L313.269742,179.054695 L313.22653,179.292591 L313.377539,179.551396 L313.657717,179.724242 L313.441659,180.114076 L313.291116,180.285064 L313.118269,180.351043 L313.031846,180.285064 L312.966796,180.156823 L312.858535,180.090844 L312.686618,180.199105 L312.643406,180.328275 L312.686618,180.479748 L312.750738,180.610312 L312.794414,180.674433 L312.794414,180.803138 L312.686618,180.803138 L312.449186,180.653059 L312.21129,180.847744 L311.866062,181.429939 L311.866062,180.803138 L311.758265,180.869117 L311.715518,180.933702 L311.282938,181.904802 L311.110556,182.789942 L310.915872,184.668485 L309.771926,189.137401 L309.253851,190.172621 L309.037793,190.799421 L309.081005,191.253375 L309.253851,191.576301 L309.555868,191.77052 L310.333212,191.877852 L310.657531,191.986578 L310.915872,192.180798 L311.196515,192.440068 L311.196515,192.61152 L310.505594,192.590147 L310.225415,192.461441 L310.030731,192.159889 L309.771926,192.482815 L307.634578,198.766153 L305.842923,202.909355 L305.713288,203.341936 L305.670077,203.838172 L305.692379,204.184794 L305.670077,204.377155 L305.584118,204.681031 L305.217052,205.436072 L305.065579,205.673503 L304.849521,205.932773 L304.590716,206.126993 L304.35282,206.212951 L304.115853,206.385798 L303.598243,207.162213 L303.360347,207.421018 L303.360347,207.681681 L303.598243,207.83176 L303.877957,208.091494 L304.008056,208.373067 L303.814301,208.587731 L303.64099,208.544519 L303.554102,208.328461 L303.403094,208.091494 L303.057866,207.983233 L302.756314,208.112403 L301.935758,209.040291 L300.727227,209.192228 L300.532543,209.256813 L300.661713,209.472871 L301.288049,210.120581 L301.482269,210.553161 L301.569157,211.46014 L301.482269,212.279767 L301.288049,213.035737 L301.028779,213.703891 L300.640804,214.35253 L300.489331,214.675455 L300.18685,216.511251 L300.05768,216.856014 L300.2519,217.67657 L300.099962,218.626761 L299.366759,220.785482 L299.301245,221.217598 L299.086116,221.475473 L298.999693,221.692461 L298.999693,222.166859 L299.215751,223.11705 L299.107489,223.482722 L299.107489,223.914838 L299.453182,224.023564 L300.18685,223.914838 L300.596199,223.978958 L301.352634,224.304207 L301.762447,224.367398 L302.23731,224.109987 L302.453833,224.066311 L303.684666,224.045402 L305.043741,223.655104 L305.30301,223.50456 L305.49723,223.222988 L305.562745,222.771357 L305.62733,221.929892 L305.692379,221.561432 L305.800176,221.19483 L305.972558,220.912793 L306.490168,220.310154 L307.439894,218.410703 L308.282752,217.222616 L308.606142,216.596745 L308.8222,216.402525 L310.311838,216.231072 L311.542207,215.323164 L311.369826,215.647484 L311.110556,215.927662 L310.48422,216.402525 L310.16083,216.53216 L309.426698,216.596745 L309.081005,216.683633 L308.476507,217.135728 L308.023018,217.826184 L307.28935,219.382731 L307.439894,219.898947 L307.548155,220.43793 L307.721001,220.785482 L308.109441,220.763179 L307.980271,221.107943 L308.088067,221.561432 L308.282752,221.994477 L308.455598,222.273726 L308.455598,222.404755 L308.368711,222.425664 L308.260449,222.511623 L308.195864,222.554369 L308.088067,222.404755 L307.915221,222.511623 L307.095595,222.815033 L306.728064,223.181635 L306.512935,223.439975 L306.404674,223.741527 L306.555217,224.045402 L306.555217,224.195946 L306.296877,224.215925 L305.7565,224.367398 L305.49723,224.498427 L305.605491,224.951916 L305.49723,224.951916 L305.324384,224.691717 L304.439708,224.045402 L304.030359,224.237763 L302.540256,224.498427 L302.540256,224.648041 L303.079239,225.360335 L303.598243,226.225032 L303.985754,227.238878 L304.09448,228.383289 L304.02943,228.663467 L303.684666,229.550466 L303.554102,229.743757 L303.489982,229.807878 L303.447235,229.96028 L303.447235,230.110359 L303.511355,230.219085 L303.576405,230.219085 L303.77016,230.088521 L303.856583,230.046703 L303.985754,230.024865 L304.374193,229.765595 L306.447421,229.290732 L308.390084,228.297795 L309.016884,228.167231 L309.686432,228.405127 L310.290465,228.728052 L310.635693,228.815405 L311.045971,228.836778 L311.196515,228.663467 L311.196515,228.297795 L311.024133,227.972082 L310.635693,227.908426 L310.635693,227.78065 L310.980457,227.670994 L311.325685,226.980073 L311.606792,227.02375 L311.498996,227.281625 L311.542207,227.5855 L311.715518,227.844305 L311.952485,227.930264 L311.952485,228.081737 L311.800548,228.189069 L311.715518,228.405127 L311.692751,228.685305 L311.715518,228.989645 L311.823315,229.290732 L311.973859,229.485881 L313.225601,230.088521 L313.679091,230.175408 L314.19763,230.197247 L313.333862,230.478819 L311.606792,230.003027 L310.894963,230.024865 L310.873589,229.743757 L310.505594,229.528628 L309.728714,229.268894 L309.102378,228.707143 L308.713939,228.557529 L308.455598,228.815405 L308.929997,229.010554 L309.555868,229.528628 L310.095781,230.175408 L310.333212,230.714392 L310.87266,233.629548 L310.959083,235.616817 L310.87266,235.961116 L310.743025,236.264991 L310.48422,237.191485 L310.376424,237.817821 L309.728714,239.911957 L309.599544,240.042057 L309.469909,240.106177 L309.362113,240.170762 L309.275225,240.364982 L309.987984,240.797098 L310.333212,241.120953 L310.635693,241.466645 L310.721652,241.918741 L310.765328,242.50233 L310.657531,244.898018 L310.808075,245.288316 L311.217888,245.351507 L311.606792,245.178196 L311.779639,245.028582 L311.779639,245.114076 L311.69368,245.63215 L311.262029,245.504374 L310.980457,245.82637 L310.829448,246.387192 L310.743025,246.97171 L310.505594,247.920971 L310.54927,248.20115 L310.700278,248.590519 L310.743025,248.806577 L310.808075,250.834734 L310.678905,251.851368 L310.376424,252.563662 L310.053034,252.99392 L309.793299,253.492015 L309.620918,254.073745 L309.513121,255.304114 L309.383486,255.821724 L309.167428,256.253375 L308.865876,256.534018 L309.016884,257.181728 L308.778988,257.700267 L308.43376,258.131918 L307.851101,259.340913 L307.764213,259.470548 L307.678719,259.773029 L307.570458,260.377063 L307.829263,260.269266 L308.023018,260.377063 L308.217238,260.570353 L308.476507,260.680473 L308.649818,260.615888 L308.995046,260.335245 L309.167428,260.269266 L309.297063,260.161005 L309.750552,259.664768 L309.923399,259.513295 L310.182668,259.470548 L310.721652,259.535133 L310.981386,259.513295 L311.196515,259.406892 L311.650004,259.124855 L311.866062,259.06027 L312.924049,259.06027 L313.463962,258.477611 L313.679091,258.325209 L313.938825,258.241109 L314.737078,258.174665 L315.47121,258.305229 L316.68067,258.844677 L318.79618,258.910656 L319.076359,258.952474 L319.659483,259.168532 L322.162968,259.168532 L322.854353,259.361822 L324.085651,260.053208 L324.711058,260.570353 L325.099498,261.133033 L325.07766,260.959722 L325.01261,260.831946 L324.840228,260.570353 L325.01261,260.658635 L325.228203,260.786411 L325.423352,260.809179 L325.573896,260.570353 L325.877306,260.680473 L326.934829,260.701382 L327.301895,260.765502 L327.5607,260.873764 L327.798596,260.873764 L328.359418,260.356154 L330.950255,258.584943 L331.078961,258.389794 L332.071898,257.744408 L332.35347,257.635682 L333.043927,257.160819 L333.411457,257.009346 L333.778059,256.966134 L334.166499,256.986578 L334.5331,257.096698 L334.813744,257.312756 L334.944308,257.160819 L334.944308,257.032113 L334.836046,256.986578 L334.792835,256.923387 L334.750088,256.836964 L334.706411,256.729167 L334.446677,255.778048 L334.360719,255.304114 L334.469445,254.980259 L334.296134,254.267965 L334.166499,252.563662 L333.864482,251.894115 L333.884926,251.656219 L333.842644,251.180427 L333.734383,250.663281 L333.604748,250.273912 L333.518325,250.144277 L333.217238,249.906381 L333.087603,249.777676 L332.93613,249.540709 L332.892454,249.410145 L332.871545,249.260531 L332.784192,248.956191 L332.720072,248.956191 L332.698234,248.934353 L332.698234,248.697851 L332.763284,248.612357 L332.93613,248.396299 L332.957503,248.288502 L333.00118,248.20115 L333.022088,248.094282 L332.979342,247.964183 L333.151723,247.856386 L333.604748,247.36015 L333.712545,247.186839 L333.799897,246.862519 L333.950441,245.82637 L334.188337,245.178196 L334.491283,244.725636 L336.065951,243.409773 L336.540349,242.56645 L336.735498,241.833247 L337.1021,240.818007 L337.189452,240.429567 L337.189452,240.214438 L337.145776,239.997451 L337.145776,239.825999 L337.253108,239.696364 L337.793021,239.589032 L337.98724,239.458468 L338.202834,239.479376 L338.419821,239.543497 L338.635879,239.565335 L338.851937,239.458468 L339.066136,239.393883 L339.1967,239.306995 L339.368153,239.069099 L339.541464,238.615145 L339.692937,238.444621 L339.995418,238.46553 L340.967447,238.853041 L341.397239,238.810294 L341.550106,238.292219 L341.636065,237.969294 L341.787538,237.322049 L342.110928,236.651572 L342.348359,235.918369 L342.477529,235.59405 L342.65084,234.968179 L342.369268,234.751191 L341.89487,234.794868 L341.441845,234.925432 L341.397239,234.925432 L341.31221,234.903594 L341.096152,235.206075 L340.685874,235.39983 L340.255617,235.486253 L339.995418,235.486253 L339.58514,235.120581 L338.894684,233.348905 L338.808261,233.242038 L338.506244,233.02598 L338.397054,232.895416 L338.332933,232.76671 L338.224672,232.486067 L338.160551,232.356432 L336.346129,230.024865 L335.850822,229.658263 L335.611996,229.528628 L335.850822,229.268894 L336.023204,229.030998 L336.045042,228.773587 L335.850822,228.492944 L336.023204,228.231816 L336.32522,227.13294 L337.037979,226.095397 L337.123938,225.793381 L337.081191,225.62007 L336.973394,225.534576 L336.865597,225.469991 L336.778245,225.318518 L336.757336,225.144277 L336.757336,224.928219 L336.800083,224.431983 L336.90788,223.677871 L336.973394,223.527327 L337.123938,223.244826 L337.145776,223.159796 L338.160551,222.34017 L338.419821,222.231444 L338.700464,221.994477 L338.937431,221.713834 L339.024319,221.498241 L339.1967,221.345374 L339.995418,221.173922 L340.275597,221.043357 L340.492584,220.8273 L340.706783,220.654918 L340.838277,220.568959 L340.815045,220.267407 L340.901003,219.920785 L340.664966,219.488669 L341.031567,219.187582 L341.420007,218.647669 L342.002666,217.524168 L342.175978,217.30811 L342.26333,217.092981 L342.240563,216.897832 L342.046343,216.74543 L342.154139,216.359778 L342.046343,215.927662 L341.808447,215.537364 L341.528268,215.279023 L341.139828,215.020218 L340.685874,214.889654 L340.232385,214.935189 L339.823036,215.1926 L339.606049,215.279023 L339.348173,215.236276 L339.088904,215.105712 L338.916522,214.935189 L338.894684,214.74004 L339.088904,214.307924 L339.131651,214.092331 L338.916522,213.680659 L338.506244,213.487368 L338.031381,213.357733 L337.598801,213.120767 L337.361834,212.776003 L337.232199,212.343887 L337.253108,211.890398 L337.491469,211.48012 L336.649539,210.444435 L336.32522,210.184701 L336.196515,209.923573 L336.109627,209.450104 L336.109627,208.953868 L336.196515,208.651386 L336.32522,208.328461 L336.411643,207.83176 L336.411643,207.356432 L336.282009,207.140839 L335.56925,206.946155 L335.201719,206.772844 L334.944308,206.55725 L334.770997,206.061478 L334.620453,205.866329 L334.036864,205.565242 L333.755292,205.284599 L333.238146,204.593213 L332.93613,204.31257 L332.374379,202.757882 L332.223371,202.39221 L335.937245,202.562733 L336.173747,202.499077 L336.45439,202.370836 L336.778245,202.304857 L337.469631,202.325766 L337.771182,202.240737 L338.139643,202.477704 L338.677697,202.499077 L341.203949,202.176152 L341.463683,202.066497 L341.656974,201.592098 L341.636065,201.420181 L341.592389,201.268708 L341.592389,201.053115 L341.679741,200.837057 L341.873032,200.471385 L341.938546,200.255327 L341.916708,200.060177 L341.852123,199.844584 L341.830285,199.606688 L341.95992,199.304671 L342.08909,199.19641 L342.477529,199.022635 L342.65084,198.916232 L343.081562,198.267593 L343.148006,198.051535 L343.168915,197.685398 L343.188895,197.491178 L343.188895,197.383846 L343.124309,197.167788 L343.124309,197.037689 L343.168915,196.930357 L343.342226,196.800722 L343.384973,196.714299 L343.49277,196.152083 L343.557355,195.959258 L343.535517,195.721826 L343.62194,195.482536 L343.924886,194.9863 L343.2335,193.734557 L342.84506,193.259694 L342.606235,192.894022 L342.412944,192.720246 L342.218724,192.656126 L341.76477,192.590147 L341.550106,192.526026 L341.355886,192.22401 L341.225787,191.468968 L341.073385,191.14372 L341.225787,190.88538 L341.397239,190.36777 L341.550106,190.151247 L341.852123,189.99931 L342.585326,189.524911 L342.909181,189.4817 L343.255803,189.503073 L343.579193,189.4817 L343.901189,189.265642 L343.945794,189.137401 L343.967633,188.769405 L344.031753,188.597953 L344.140944,188.467853 L344.875076,187.928405 L345.02469,187.776932 L345.327636,187.237484 L344.744512,186.696643 L344.356072,186.050327 L344.24874,185.316195 L344.571666,184.538386 L344.982873,183.977564 L345.02469,183.718295 L344.938732,183.329855 L344.765886,183.027838 L344.571666,182.833154 L344.420193,182.595723 L344.37791,182.206353 L344.485707,181.862055 L344.875076,181.127922 L345.046529,180.674433 L345.046529,180.394254 L345.003782,180.004885 L344.875076,179.249844 L344.659018,178.516176 L344.615342,178.190927 L344.615342,177.759276 L344.636251,177.543218 L344.679927,177.414513 L344.700836,177.283949 L344.636251,177.046517 L344.615342,176.896438 L344.636251,176.334223 L344.916894,176.248264 L344.982873,175.96855 L344.895985,175.664675 L344.700836,175.536434 L344.442031,175.471849 L344.291487,175.277165 L344.140944,174.802766 L343.772483,173.873949 L343.535517,173.463672 L342.996533,172.881477 L342.823222,172.622672 L342.780475,172.340635 L342.974695,172.038618 L343.03928,171.606502 L343.405882,171.43505 L344.463869,171.521008 L344.938732,171.477797 L345.176163,171.24083 L345.868014,170.22466 L346.017628,169.815776 L345.97581,169.253561 L346.040395,169.103482 L346.255989,168.82098 L346.859557,168.303371 L346.968748,168.132383 L347.098382,167.785761 L347.70288,166.857408 L347.8971,166.64135 L348.199117,166.576765 L349.32076,166.555392 L349.472233,166.44713 L350.487008,166.016408 L351.04783,165.584757 L351.60958,165.022077 L352.148564,164.137865 L352.214078,164.116957 L352.431065,164.159239 L352.494256,164.137865 L352.538862,164.008231 L352.559771,163.83492 L352.559771,163.706214 L352.516095,163.706214 L352.732153,163.533368 L352.969119,163.447409 L353.509961,163.402339 L353.509961,163.209978 L354.156741,162.150597 L354.156741,162.000982 L354.11353,161.849509 L354.092621,161.676663 L354.199488,161.438767 L354.654372,160.963439 L355.474463,159.755373 L355.300222,159.53885 Z M326.54546,260.937884 L326.567763,260.896531 L326.632348,260.896531 L326.653721,260.831946 L326.54546,260.831946 L326.394452,260.873764 L326.265281,260.873764 L326.243908,260.937884 L326.329402,260.959722 L326.438128,261.090286 L326.718771,261.024307 L326.610974,260.959722 L326.54546,260.937884 Z M326.178394,261.37 L326.265281,261.37 L326.265281,261.197618 L326.178394,261.133033 L326.178394,261.37 L326.178394,261.37 Z" id="Fill-3"></path>
        </g>
    </g>
</svg>