
<svg width="123px" height="65px" viewBox="0 0 123 65" version="1.1" xmlns="http://www.w3.org/2000/svg" xmlns:xlink="http://www.w3.org/1999/xlink">
    <!-- Generator: Sketch 51.1 (57501) - http://www.bohemiancoding.com/sketch -->
    <desc>Created with Sketch.</desc>
    <defs></defs>
    <g id="Page-1" stroke="none" stroke-width="1" fill="none" fill-rule="evenodd">
        <g id="USA-flag" fill-rule="nonzero">
            <polygon id="Shape" fill="#B22234" points="0 0 122 0 122 64.4952545 0 64.4952545"></polygon>
            <path d="M0,7.44176014 L122.540984,7.44176014 M122.540984,17.364107 L0,17.364107 M0,27.2864538 L122.540984,27.2864538 M122.540984,37.2088007 L0,37.2088007 M0,47.1311475 L122.540984,47.1311475 M122.540984,57.0534944 L0,57.0534944" id="Shape" stroke="#FFFFFF" stroke-width="5" fill="#000000"></path>
            <polygon id="Shape" fill="#3C3B6E" points="0 0 49.0163934 0 49.0163934 34.728214 0 34.728214"></polygon>
            <g id="Group" transform="translate(2.199454, 1.488352)" fill="#FFFFFF">
                <path d="M1.8852459,0 L3.05112166,3.58858211 L0,1.37259131 L3.7704918,1.37259131 L0.719370147,3.58858211 L1.8852459,0 Z M1.8852459,6.9456428 L3.05112166,10.5342249 L0,8.31823411 L3.7704918,8.31823411 L0.719370147,10.5342249 L1.8852459,6.9456428 Z M1.8852459,13.8912856 L3.05112166,17.4798677 L0,15.2638769 L3.7704918,15.2638769 L0.717716422,17.4798677 L1.8852459,13.8912856 Z M1.8852459,20.8369284 L3.05112166,24.4255105 L0,22.2095197 L3.7704918,22.2095197 L0.717716422,24.4255105 L1.8852459,20.8369284 Z" id="Shape"></path>
                <polygon id="Shape" points="1.8852459 27.7825712 3.05112166 31.3711533 0 29.1551625 3.7704918 29.1551625 0.717716422 31.3711533"></polygon>
                <path d="M5.96994536,3.4728214 L7.13582111,7.06140351 L4.08469945,4.84541271 L7.85519126,4.84541271 L4.8040696,7.06140351 L5.96994536,3.4728214 Z M5.96994536,10.4184642 L7.13582111,14.0070463 L4.08469945,11.7910555 L7.85519126,11.7910555 L4.8040696,14.0070463 L5.96994536,10.4184642 Z M5.96994536,17.364107 L7.13582111,20.9526891 L4.08469945,18.7366983 L7.85519126,18.7366983 L4.80241588,20.9526891 L5.96994536,17.364107 Z M5.96994536,24.3097498 L7.13582111,27.8983319 L4.08469945,25.6823411 L7.85519126,25.6823411 L4.80241588,27.8983319 L5.96994536,24.3097498 Z" id="Shape"></path>
                <g transform="translate(8.169399, 0.000000)" id="Shape">
                    <path d="M1.8852459,0 L3.05112166,3.58858211 L0,1.37259131 L3.7704918,1.37259131 L0.719370147,3.58858211 L1.8852459,0 Z M1.8852459,6.9456428 L3.05112166,10.5342249 L0,8.31823411 L3.7704918,8.31823411 L0.719370147,10.5342249 L1.8852459,6.9456428 Z M1.8852459,13.8912856 L3.05112166,17.4798677 L0,15.2638769 L3.7704918,15.2638769 L0.717716422,17.4798677 L1.8852459,13.8912856 Z M1.8852459,20.8369284 L3.05112166,24.4255105 L0,22.2095197 L3.7704918,22.2095197 L0.717716422,24.4255105 L1.8852459,20.8369284 Z"></path>
                    <polygon points="1.8852459 27.7825712 3.05112166 31.3711533 0 29.1551625 3.7704918 29.1551625 0.717716422 31.3711533"></polygon>
                    <path d="M5.96994536,3.4728214 L7.13582111,7.06140351 L4.08469945,4.84541271 L7.85519126,4.84541271 L4.8040696,7.06140351 L5.96994536,3.4728214 Z M5.96994536,10.4184642 L7.13582111,14.0070463 L4.08469945,11.7910555 L7.85519126,11.7910555 L4.8040696,14.0070463 L5.96994536,10.4184642 Z M5.96994536,17.364107 L7.13582111,20.9526891 L4.08469945,18.7366983 L7.85519126,18.7366983 L4.80241588,20.9526891 L5.96994536,17.364107 Z M5.96994536,24.3097498 L7.13582111,27.8983319 L4.08469945,25.6823411 L7.85519126,25.6823411 L4.80241588,27.8983319 L5.96994536,24.3097498 Z"></path>
                </g>
                <g transform="translate(16.322261, 0.000000)" id="Shape">
                    <path d="M1.90178315,0 L3.0676589,3.58858211 L0.0165372448,1.37259131 L3.78702905,1.37259131 L0.734253667,3.58858211 L1.90178315,0 Z M1.90178315,6.9456428 L3.0676589,10.5342249 L0.0165372448,8.31823411 L3.78702905,8.31823411 L0.734253667,10.5342249 L1.90178315,6.9456428 Z M1.90178315,13.8912856 L3.0676589,17.4798677 L0.0148835203,15.2638769 L3.78702905,15.2638769 L0.734253667,17.4798677 L1.90178315,13.8912856 Z M1.90178315,20.8369284 L3.0676589,24.4255105 L0.0148835203,22.2095197 L3.78702905,22.2095197 L0.734253667,24.4255105 L1.90178315,20.8369284 Z"></path>
                    <polygon points="1.90178315 27.7825712 3.0676589 31.3711533 0.0148835203 29.1551625 3.78702905 29.1551625 0.734253667 31.3711533"></polygon>
                    <path d="M5.9864826,3.4728214 L7.15235835,7.06140351 L4.1012367,4.84541271 L7.8717285,4.84541271 L4.81895312,7.06140351 L5.9864826,3.4728214 Z M5.9864826,10.4184642 L7.15235835,14.0070463 L4.1012367,11.7910555 L7.8717285,11.7910555 L4.81895312,14.0070463 L5.9864826,10.4184642 Z M5.9864826,17.364107 L7.15235835,20.9526891 L4.09958297,18.7366983 L7.8717285,18.7366983 L4.81895312,20.9526891 L5.9864826,17.364107 Z M5.9864826,24.3097498 L7.15235835,27.8983319 L4.09958297,25.6823411 L7.8717285,25.6823411 L4.81895312,27.8983319 L5.9864826,24.3097498 Z"></path>
                    <g transform="translate(8.169399, 0.000000)">
                        <path d="M1.90178315,0 L3.0676589,3.58858211 L0.0165372448,1.37259131 L3.78702905,1.37259131 L0.734253667,3.58858211 L1.90178315,0 Z M1.90178315,6.9456428 L3.0676589,10.5342249 L0.0165372448,8.31823411 L3.78702905,8.31823411 L0.734253667,10.5342249 L1.90178315,6.9456428 Z M1.90178315,13.8912856 L3.0676589,17.4798677 L0.0148835203,15.2638769 L3.78702905,15.2638769 L0.734253667,17.4798677 L1.90178315,13.8912856 Z M1.90178315,20.8369284 L3.0676589,24.4255105 L0.0148835203,22.2095197 L3.78702905,22.2095197 L0.734253667,24.4255105 L1.90178315,20.8369284 Z"></path>
                        <polygon points="1.90178315 27.7825712 3.0676589 31.3711533 0.0148835203 29.1551625 3.78702905 29.1551625 0.734253667 31.3711533"></polygon>
                        <path d="M5.9864826,3.4728214 L7.15235835,7.06140351 L4.1012367,4.84541271 L7.8717285,4.84541271 L4.81895312,7.06140351 L5.9864826,3.4728214 Z M5.9864826,10.4184642 L7.15235835,14.0070463 L4.1012367,11.7910555 L7.8717285,11.7910555 L4.81895312,14.0070463 L5.9864826,10.4184642 Z M5.9864826,17.364107 L7.15235835,20.9526891 L4.09958297,18.7366983 L7.8717285,18.7366983 L4.81895312,20.9526891 L5.9864826,17.364107 Z M5.9864826,24.3097498 L7.15235835,27.8983319 L4.09958297,25.6823411 L7.8717285,25.6823411 L4.81895312,27.8983319 L5.9864826,24.3097498 Z"></path>
                    </g>
                </g>
                <g transform="translate(32.661058, 0.000000)" id="Shape">
                    <path d="M1.90178315,0 L3.0676589,3.58858211 L0.0165372448,1.37259131 L3.78702905,1.37259131 L0.734253667,3.58858211 L1.90178315,0 Z M1.90178315,6.9456428 L3.0676589,10.5342249 L0.0165372448,8.31823411 L3.78702905,8.31823411 L0.734253667,10.5342249 L1.90178315,6.9456428 Z M1.90178315,13.8912856 L3.0676589,17.4798677 L0.0148835203,15.2638769 L3.78702905,15.2638769 L0.734253667,17.4798677 L1.90178315,13.8912856 Z M1.90178315,20.8369284 L3.0676589,24.4255105 L0.0148835203,22.2095197 L3.78702905,22.2095197 L0.734253667,24.4255105 L1.90178315,20.8369284 Z"></path>
                    <polygon points="1.90178315 27.7825712 3.0676589 31.3711533 0.0148835203 29.1551625 3.78702905 29.1551625 0.734253667 31.3711533"></polygon>
                    <path d="M5.9864826,3.4728214 L7.15235835,7.06140351 L4.1012367,4.84541271 L7.8717285,4.84541271 L4.81895312,7.06140351 L5.9864826,3.4728214 Z M5.9864826,10.4184642 L7.15235835,14.0070463 L4.1012367,11.7910555 L7.8717285,11.7910555 L4.81895312,14.0070463 L5.9864826,10.4184642 Z M5.9864826,17.364107 L7.15235835,20.9526891 L4.09958297,18.7366983 L7.8717285,18.7366983 L4.81895312,20.9526891 L5.9864826,17.364107 Z M5.9864826,24.3097498 L7.15235835,27.8983319 L4.09958297,25.6823411 L7.8717285,25.6823411 L4.81895312,27.8983319 L5.9864826,24.3097498 Z"></path>
                </g>
                <g transform="translate(40.830457, 0.000000)" id="Shape">
                    <path d="M1.90178315,0 L3.0676589,3.58858211 L0.0165372448,1.37259131 L3.78702905,1.37259131 L0.734253667,3.58858211 L1.90178315,0 Z M1.90178315,6.9456428 L3.0676589,10.5342249 L0.0165372448,8.31823411 L3.78702905,8.31823411 L0.734253667,10.5342249 L1.90178315,6.9456428 Z M1.90178315,13.8912856 L3.0676589,17.4798677 L0.0148835203,15.2638769 L3.78702905,15.2638769 L0.734253667,17.4798677 L1.90178315,13.8912856 Z M1.90178315,20.8369284 L3.0676589,24.4255105 L0.0148835203,22.2095197 L3.78702905,22.2095197 L0.734253667,24.4255105 L1.90178315,20.8369284 Z"></path>
                    <polygon points="1.90178315 27.7825712 3.0676589 31.3711533 0.0148835203 29.1551625 3.78702905 29.1551625 0.734253667 31.3711533"></polygon>
                </g>
            </g>
        </g>
    </g>
</svg>