<svg width="174" height="100" xmlns:xlink="http://www.w3.org/1999/xlink"><defs><clipPath id="gbrClip"><rect x="3" y="8" height="85" width="168"></rect></clipPath><path d="M83 42h83v42L83 42zm0 0v42H0l83-42zm0 0H0V0l83 42zm0 0V0h83L83 42z" id="a"/></defs><g fill="none" fill-rule="evenodd" clip-path="url(#gbrClip)"><path fill="#00247D" fill-rule="nonzero" d="M4 8v84h166V8z"/><path d="M4 8l166 84m0-84L4 92" stroke="#FFF" class="white" stroke-width="16.6" fill="#000" fill-rule="nonzero"/><g transform="translate(4 8)"><mask id="b" fill="#fff" class="white"><use xlink:href="#a"/></mask><path d="M0 0l166 84m0-84L0 84" stroke="#CF142B" stroke-width="11.1" fill="#000" fill-rule="nonzero" mask="url(#b)"/></g><path d="M87 8v84M4 50h166" stroke="#FFF" class="white" stroke-width="27.7" fill="#000" fill-rule="nonzero"/><path d="M87 8v84M4 50h166" stroke="#CF142B" class="lighter" stroke-width="16.6" fill="#000" fill-rule="nonzero"/></g></svg>