<svg xmlns:xlink="http://www.w3.org/1999/xlink" width="175" height="87.5"><path fill="#00247D" d="M0 0h175v87.5H0z"/><defs><clipPath id="NZLclip"><rect x="0" y="0" width="86" height="44"></rect></clipPath><path id="a" d="M0 0h87.5v43.7H0z"/></defs><clipPath id="b"><use xlink:href="#a" overflow="visible"/></clipPath><g clip-path="url(#NZLclip)"><path clip-path="url(#b)" fill="none" stroke="#FFF" class="white" stroke-width="8.7" d="M0 0l87.5 43.7M0 43.7L87.5 0"/><path d="M0 43.7L43.7 22 0 43.7zM43.7 21.9zM43.7 21.9l43.8 21.8L43.7 22zM43.7 21.9z"/><defs><path id="c" d="M0 43.7h43.7V22L0 43.7zM43.7 22l43.8 21.8V22H43.7zm0-21.9v21.9L0 0v21.9h43.7L87.5 0H43.7z"/></defs><clipPath id="d"><use xlink:href="#c" overflow="visible"/></clipPath><path clip-path="url(#d)" fill="none" stroke="#CC142B" class="lighter" stroke-width="5.8" d="M0 0l87.5 43.7M0 43.7L87.5 0"/></g><path fill="none" stroke="#FFF" class="white" stroke-width="14.6" d="M43.7 0v43.7M0 21.9h87.5"/><path d="M43.7 21.9v21.8V22zM0 21.9h43.7H0zM43.7 21.9h43.8-43.8zM43.7 0v21.9V0z"/><path fill="none" stroke="#CC142B" class="lighter" stroke-width="8.7" d="M43.7 0v43.7M0 21.9h87.5"/><path fill="#FFF" class="white" d="M142.7 30.6l3.6 2.7-1.4 4.3 3.7-2.7 3.6 2.7-1.4-4.3 3.7-2.7H150l-1.4-4.2-1.4 4.2z"/><path fill="#CC142B" class="lighter" d="M145 31.4l2.2 1.6-.9 2.7 2.3-1.7 2.2 1.7-.8-2.7 2.2-1.6h-2.8l-.8-2.7-.9 2.7z"/><path fill="#FFF" class="white" d="M124.6 15.3l4.1 3-1.5 4.8 4-3 4.1 3-1.5-4.8 4-3h-5l-1.6-4.8-1.5 4.8z"/><path fill="#CC142B" class="lighter" d="M126.9 16l2.7 2-1 3.2 2.6-2 2.7 2-1-3.2 2.7-2h-3.3l-1-3.1-1 3.2z"/><path fill="#FFF" class="white" d="M104.4 35.7l4.1 3-1.6 4.8 4.1-3 4.1 3-1.5-4.8 4-3h-5l-1.6-4.8-1.5 4.8z"/><path fill="#CC142B" class="lighter" d="M106.7 36.4l2.7 2-1 3.2 2.6-2 2.7 2-1-3.2 2.7-2h-3.3l-1-3.2-1.1 3.2z"/><path fill="#FFF" class="white" d="M123.9 67.6l4.5 3.3-1.7 5.3 4.5-3.3 4.6 3.3L134 71l4.6-3.3H133l-1.8-5.3-1.7 5.3z"/><path fill="#CC142B" class="lighter" d="M126.1 68.3l3.2 2.3-1.2 3.7 3.1-2.3 3.2 2.3-1.2-3.7 3.1-2.3h-3.9l-1.2-3.7-1.2 3.7z"/></svg>