<svg width="175" height="89" xmlns:xlink="http://www.w3.org/1999/xlink"><defs><path id="a" d="M0 0h87.5v44H0z"/><path d="M0 0l43.8 22H0V0zm43.8 0h43.7L43.7 22V0zm0 22h43.7v22L43.7 22zm0 0v22H0l43.8-22z" id="c"/><path id="e" d="M0 0h87.5v44H0z"/><path id="g" d="M0 0h87.5v44H0z"/></defs><g fill="none" fill-rule="evenodd"><path fill="#00247D" fill-rule="nonzero" d="M0 .5h175v87.8H0z"/><g transform="translate(0 .5)"><mask id="b" fill="#FFF" class="white"><use xlink:href="#a"/></mask><path d="M0 0l87.5 44M0 44L87.5 0" stroke="#FFF" class="white" stroke-width="8.8" fill="#000" fill-rule="nonzero" mask="url(#b)"/></g><g transform="translate(0 .5)"><mask id="d" fill="#FFF" class="white"><use xlink:href="#c"/></mask><path d="M0 0l87.5 44M0 44L87.5 0" stroke="#CC142B" class="lighter" stroke-width="5.8" fill="#000" fill-rule="nonzero" mask="url(#d)"/></g><g transform="translate(0 .5)"><mask id="f" fill="#FFF" class="white"><use xlink:href="#e"/></mask><path d="M43.8 0v44M0 22h87.5" stroke="#FFF" class="white" stroke-width="14.6" fill="#000" fill-rule="nonzero" mask="url(#f)"/></g><g transform="translate(0 .5)"><mask id="h" fill="#FFF" class="white"><use xlink:href="#g"/></mask><path d="M43.8 0v44M0 22h87.5" stroke="#CC142B" class="lighter" stroke-width="8.8" fill="#000" fill-rule="nonzero" mask="url(#h)"/></g><g fill-rule="nonzero"><g fill="#FFF" class="white"><path d="M131.3 15.9v3.3l6.6-3.3z"/><path d="M132.5 19.8l-2-2.7L138 16z"/><path d="M131.3 15.9v3.3l-6.7-3.3z"/><path d="M130 19.8l2-2.7-7.4-1.2z"/><path d="M133.3 17.4l-3.2 1 5.2 5.3z"/><path d="M130 19.8l2-2.7 3.3 6.6z"/><path d="M129.2 17.4l3.2 1-1.1-7.3z"/><path d="M133.3 17.4l-3.2 1 1.2-7.3z"/><g><path d="M129.2 17.4l3.2 1-5.2 5.3z"/><path d="M132.5 19.8l-2-2.7-3.3 6.6z"/></g></g><g fill="#CC142B" class="lighter"><path d="M131.3 16.6v2.2l4.3-2.2z"/><path d="M132 19.2l-1.2-1.8 4.8-.8z"/><path d="M131.3 16.6v2.2l-4.4-2.2z"/><path d="M130.4 19.2l1.3-1.8-4.8-.8z"/><path d="M132.6 17.6l-2 .7 3.4 3.5z"/><path d="M130.4 19.2l1.3-1.8 2.2 4.4z"/><path d="M129.9 17.6l2 .7-.6-4.9z"/><path d="M132.6 17.6l-2 .7.7-4.9z"/><g><path d="M129.9 17.6l2 .7-3.4 3.5z"/><path d="M132 19.2l-1.2-1.8-2.2 4.4z"/></g></g><g fill="#FFF" class="white"><path d="M148.7 31.3v3l5.8-3z"/><path d="M149.8 34.7l-1.8-2.4 6.5-1z"/><path d="M148.7 31.3v3l-6-3z"/><path d="M147.5 34.7l1.8-2.4-6.5-1z"/><path d="M150.5 32.6l-2.8 1 4.6 4.6z"/><path d="M147.5 34.7l1.8-2.4 3 5.9z"/><path d="M146.8 32.6l2.8.9-1-6.5z"/><path d="M150.5 32.6l-2.8.9 1-6.5z"/><g><path d="M146.8 32.6l2.8 1-4.6 4.6z"/><path d="M149.8 34.7l-1.7-2.4-3 5.9z"/></g></g><g fill="#CC142B" class="lighter"><path d="M148.7 32v1.8l3.6-1.8z"/><path d="M149.4 34.1l-1.1-1.4 4-.7z"/><path d="M148.7 32v1.8L145 32z"/><path d="M148 34.1l1-1.4-4-.7z"/><path d="M149.8 32.8l-1.8.6 3 2.9z"/><path d="M148 34.1l1-1.4 1.9 3.6z"/><path d="M147.5 32.8l1.8.6-.6-4z"/><path d="M149.8 32.8l-1.8.6.7-4z"/><g><path d="M147.5 32.8l1.8.6-2.9 2.9z"/><path d="M149.4 34.1l-1.1-1.4-1.9 3.6z"/></g></g><g fill="#FFF" class="white"><path d="M111 36.3v3.3l6.6-3.3z"/><path d="M112.2 40.2l-2-2.7 7.4-1.2z"/><path d="M111 36.3v3.3l-6.7-3.3z"/><path d="M109.7 40.2l2-2.7-7.4-1.2z"/><path d="M113 37.8l-3.2 1 5.3 5.3z"/><path d="M109.7 40.2l2-2.7 3.3 6.6z"/><path d="M109 37.8l3 1-1-7.3z"/><path d="M113 37.8l-3.1 1 1-7.3z"/><g><path d="M109 37.8l3 1-5.1 5.3z"/><path d="M112.2 40.2l-2-2.7-3.3 6.6z"/></g></g><g fill="#CC142B" class="lighter"><path d="M111 37v2.2l4.3-2.2z"/><path d="M111.8 39.6l-1.3-1.8 4.8-.8z"/><path d="M111 37v2.2l-4.4-2.2z"/><path d="M110.1 39.6l1.3-1.8-4.8-.8z"/><path d="M112.3 38l-2 .7 3.4 3.5z"/><path d="M110.1 39.6l1.3-1.7 2.3 4.3z"/><path d="M109.6 38l2.1.7-.7-4.8z"/><path d="M112.3 38l-2 .7.7-4.8z"/><g><path d="M109.6 38l2.1.7-3.4 3.5z"/><path d="M111.8 39.6l-1.3-1.7-2.2 4.3z"/></g></g><g><g fill="#FFF" class="white"><path d="M131.3 68.4V72l7.3-3.6z"/><path d="M132.7 72.7l-2.2-3 8.1-1.3z"/><path d="M131.3 68.4V72l-7.4-3.6z"/><path d="M129.8 72.7l2.2-3-8.1-1.3z"/><path d="M133.5 70l-3.5 1.2 5.8 5.8z"/><path d="M129.8 72.7l2.2-3 3.8 7.3z"/><path d="M129 70l3.5 1.1-1.2-8z"/><path d="M133.5 70l-3.5 1.1 1.3-8z"/><g><path d="M129 70l3.5 1.2-5.8 5.8z"/><path d="M132.7 72.7l-2.2-3-3.8 7.3z"/></g></g><g fill="#CC142B" class="lighter"><path d="M131.3 69v2.6l5-2.5z"/><path d="M132.2 72l-1.5-2 5.7-1z"/><path d="M131.3 69v2.6l-5.2-2.5z"/><path d="M130.3 72l1.5-2-5.7-1z"/><path d="M132.8 70.2l-2.4.8 4 4.1z"/><path d="M130.3 72.1l1.5-2 2.6 5z"/><path d="M129.7 70.2l2.4.8-.8-5.6z"/><path d="M132.8 70.2l-2.4.8.9-5.6z"/><g><path d="M129.7 70.2l2.4.8-4 4.1z"/><path d="M132.2 72.1l-1.5-2-2.6 5z"/></g></g></g></g></g></svg>