<svg id="svgNZL" width="175" height="88" xmlns:xlink="http://www.w3.org/1999/xlink"><defs><clipPath id="nzlClip"><rect x="0" y="0" height="44" width="86"></rect></clipPath><path d="M43.8 21.9v21.9H0m43.8-22h43.7v22M43.7 0h43.8L43.7 21.9M0 0l43.8 21.9H0V0" id="a"/></defs><g fill="none" fill-rule="evenodd"><path fill="#282E60" d="M0 87.5h175V0H0z"/><g clip-path="url(#nzlClip)"><path d="M0 43.8L87.5 0M0 0l87.5 43.8" fill="#0A0B09"/><path d="M0 43.8L87.5 0M0 0l87.5 43.8" stroke="#FFF" class="stroke-white" stroke-width="8.8"/><mask id="b" fill="#fff" class="white"><use xlink:href="#a"/></mask><path d="M0 43.8L87.5 0M0 0l87.5 43.8" fill="#0A0B09" mask="url(#b)"/><path d="M0 43.8L87.5 0M0 0l87.5 43.8" stroke="#BA252F" class="lighter" stroke-width="5.8" mask="url(#b)"/><path d="M0 21.9h87.5M43.7 0v43.8" fill="#0A0B09"/><path d="M0 21.9h87.5M43.7 0v43.8" stroke="#FFF" class="stroke-white" stroke-width="14.6"/><path d="M0 21.9h87.5M43.7 0v43.8" fill="#0A0B09"/><path d="M0 21.9h87.5M43.7 0v43.8" stroke="#BA252F" class="lighter" stroke-width="8.8"/></g><path fill="#FFF" class="white" d="M131.3 15.6v3l5.8-3h-5.8"/><path fill="#FFF" class="white" d="M132.4 19l-1.8-2.3 6.5-1.1-4.7 3.4"/><path fill="#FFF" class="white" d="M131.3 15.6v3l-5.9-3h5.8"/><path fill="#FFF" class="white" d="M130.1 19l1.8-2.3-6.5-1.1 4.7 3.4"/><path fill="#FFF" class="white" d="M133 17l-2.7.8 4.6 4.7-1.8-5.6"/><path fill="#FFF" class="white" d="M130.1 19l1.8-2.3 3 5.8L130 19"/><path fill="#FFF" class="white" d="M129.4 17l2.8.8-1-6.4-1.8 5.5"/><path fill="#FFF" class="white" d="M133 17l-2.7.8 1-6.4 1.8 5.5"/><path fill="#FFF" class="white" d="M129.4 17l2.8.8-4.6 4.7 1.8-5.6"/><path fill="#FFF" class="white" d="M132.4 19l-1.8-2.3-3 5.8 4.8-3.5"/><path fill="#BA252F" class="lighter" d="M131.3 16v2.3l4.3-2.2h-4.3"/><path fill="#BA252F" class="lighter" d="M132 18.7l-1.2-1.8 4.8-.8-3.5 2.6"/><path fill="#BA252F" class="lighter" d="M131.3 16v2.3l-4.4-2.2h4.3"/><path fill="#BA252F" class="lighter" d="M130.4 18.7l1.3-1.8-4.8-.8 3.5 2.6"/><path fill="#BA252F" class="lighter" d="M132.6 17l-2 .7 3.4 3.5-1.4-4.1"/><path fill="#BA252F" class="lighter" d="M130.4 18.7l1.3-1.8 2.3 4.3-3.6-2.5"/><path fill="#BA252F" class="lighter" d="M129.9 17l2 .7-.7-4.8-1.3 4.2"/><path fill="#BA252F" class="lighter" d="M132.6 17l-2 .7.6-4.8 1.4 4.2"/><path fill="#BA252F" class="lighter" d="M129.9 17l2 .7-3.4 3.5 1.4-4.1"/><path fill="#BA252F" class="lighter" d="M132 18.7l-1.2-1.8-2.3 4.3 3.6-2.5"/><path fill="#FFF" class="white" d="M148.6 31v2.5l5-2.6h-5"/><path fill="#FFF" class="white" d="M149.6 34l-1.5-2.2 5.6-.9-4.1 3"/><path fill="#FFF" class="white" d="M148.6 31v2.5l-5.1-2.6h5"/><path fill="#FFF" class="white" d="M147.6 34l1.5-2.2-5.6-.9 4.1 3"/><path fill="#FFF" class="white" d="M150.2 32l-2.5.8 4 4.1-1.5-4.8"/><path fill="#FFF" class="white" d="M147.6 34l1.5-2.2 2.6 5.1-4-3"/><path fill="#FFF" class="white" d="M147 32l2.4.8-.8-5.6-1.6 4.9"/><path fill="#FFF" class="white" d="M150.2 32l-2.5.8.9-5.6 1.6 4.9"/><path fill="#FFF" class="white" d="M147 32l2.4.8-4 4.1 1.6-4.8"/><path fill="#FFF" class="white" d="M149.6 34l-1.5-2.2-2.7 5.1 4.2-3"/><path fill="#BA252F" class="lighter" d="M148.6 31.4v1.8l3.6-1.8h-3.6"/><path fill="#BA252F" class="lighter" d="M149.3 33.5l-1.1-1.5 4-.6-3 2.1"/><path fill="#BA252F" class="lighter" d="M148.6 31.4v1.8l-3.7-1.8h3.7"/><path fill="#BA252F" class="lighter" d="M147.9 33.5l1-1.5-4-.6 3 2.1"/><path fill="#BA252F" class="lighter" d="M149.7 32.2l-1.7.6 2.8 2.9-1-3.5"/><path fill="#BA252F" class="lighter" d="M147.9 33.5l1-1.5 2 3.7-3-2.2"/><path fill="#BA252F" class="lighter" d="M147.5 32.2l1.7.6-.6-4-1.1 3.4"/><path fill="#BA252F" class="lighter" d="M149.7 32.2l-1.7.6.6-4 1.1 3.4"/><path fill="#BA252F" class="lighter" d="M147.5 32.2l1.7.6-2.9 2.9 1.2-3.5"/><path fill="#BA252F" class="lighter" d="M149.3 33.5l-1.1-1.5-1.9 3.7 3-2.2"/><path fill="#FFF" class="white" d="M111 36v2.9l5.9-3H111"/><path fill="#FFF" class="white" d="M112.1 39.4l-1.7-2.4 6.5-1-4.8 3.4"/><path fill="#FFF" class="white" d="M111 36v2.9l-5.8-3h5.8"/><path fill="#FFF" class="white" d="M110 39.4l1.6-2.4-6.4-1 4.7 3.4"/><path fill="#FFF" class="white" d="M112.8 37.3l-2.7.9 4.5 4.6-1.8-5.5"/><path fill="#FFF" class="white" d="M110 39.4l1.6-2.4 3 5.8-4.7-3.4"/><path fill="#FFF" class="white" d="M109.2 37.3l2.8.9-1-6.5-1.8 5.6"/><path fill="#FFF" class="white" d="M112.8 37.3l-2.7.9 1-6.5 1.7 5.6"/><path fill="#FFF" class="white" d="M109.2 37.3l2.8.9-4.6 4.6 1.8-5.5"/><path fill="#FFF" class="white" d="M112.1 39.4l-1.7-2.4-3 5.8 4.7-3.4"/><path fill="#BA252F" class="lighter" d="M111 36.4v2.2l4.4-2.2H111"/><path fill="#BA252F" class="lighter" d="M111.9 39l-1.3-1.8 4.8-.8L112 39"/><path fill="#BA252F" class="lighter" d="M111 36.4v2.2l-4.3-2.2h4.3"/><path fill="#BA252F" class="lighter" d="M110.2 39l1.3-1.8-4.8-.8 3.5 2.6"/><path fill="#BA252F" class="lighter" d="M112.4 37.4l-2.1.7 3.4 3.5-1.3-4.2"/><path fill="#BA252F" class="lighter" d="M110.2 39l1.3-1.8 2.2 4.4-3.5-2.6"/><path fill="#BA252F" class="lighter" d="M109.7 37.4l2 .7-.7-4.9-1.3 4.2"/><path fill="#BA252F" class="lighter" d="M112.4 37.4l-2.1.7.7-4.9 1.4 4.2"/><path fill="#BA252F" class="lighter" d="M109.7 37.4l2 .7-3.4 3.5 1.4-4.2"/><path fill="#BA252F" class="lighter" d="M111.9 39l-1.3-1.8-2.3 4.4L112 39"/><path fill="#FFF" class="white" d="M131.3 67.9V71l6.5-3.2h-6.6"/><path fill="#FFF" class="white" d="M132.5 71.7l-2-2.6 7.3-1.2-5.3 3.8"/><path fill="#FFF" class="white" d="M131.3 67.9V71l-6.6-3.2h6.5"/><path fill="#FFF" class="white" d="M130 71.7l2-2.6-7.3-1.2 5.3 3.8"/><path fill="#FFF" class="white" d="M133.3 69.3l-3.1 1 5.1 5.3-2-6.3"/><path fill="#FFF" class="white" d="M130 71.7l2-2.6 3.3 6.5-5.3-3.9"/><path fill="#FFF" class="white" d="M129.2 69.3l3.1 1-1-7.2-2 6.2"/><path fill="#FFF" class="white" d="M133.3 69.3l-3.1 1 1-7.2 2 6.2"/><path fill="#FFF" class="white" d="M129.2 69.3l3.1 1-5.1 5.3 2-6.3"/><path fill="#FFF" class="white" d="M132.5 71.7l-2-2.6-3.3 6.5 5.3-3.9"/><path fill="#BA252F" class="lighter" d="M131.3 68.3V71l5-2.6h-5"/><path fill="#BA252F" class="lighter" d="M132.2 71.3l-1.5-2 5.7-1-4.2 3"/><path fill="#BA252F" class="lighter" d="M131.3 68.3V71l-5.2-2.6h5.2"/><path fill="#BA252F" class="lighter" d="M130.3 71.3l1.5-2-5.7-1 4.2 3"/><path fill="#BA252F" class="lighter" d="M132.8 69.5l-2.4.8 4 4-1.6-4.8"/><path fill="#BA252F" class="lighter" d="M130.3 71.3l1.5-2 2.6 5-4.1-3"/><path fill="#BA252F" class="lighter" d="M129.7 69.5l2.4.8-.9-5.7-1.5 4.9"/><path fill="#BA252F" class="lighter" d="M132.8 69.5l-2.4.8.8-5.7 1.6 4.9"/><path fill="#BA252F" class="lighter" d="M129.7 69.5l2.4.8-4 4 1.6-4.8"/><path fill="#BA252F" class="lighter" d="M132.2 71.3l-1.5-2-2.6 5 4.1-3"/></g></svg>