<svg width="123" height="65"><g fill-rule="nonzero" fill="none"><path class="lighter" fill="#B22234" d="M0 0h122v64.5H0z"/><path d="M0 7.4h122.5m0 10H0m0 9.9h122.5m0 10H0M0 47h122.5m0 10H0" stroke="#FFF" class="white" stroke-width="5" fill="#000"/><path fill="#3C3B6E" d="M0 0h49v34.7H0z"/><g fill="#FFF" class="white"><path d="M4 1.5L5.4 5 2.2 2.9H6L3 5l1-3.6zm0 7L5.4 12 2.2 9.8H6L3 12l1-3.6zm0 6.9L5.4 19l-3.1-2.2H6L3 19l1-3.6zm0 7l1.3 3.5-3.1-2.2H6l-3 2.2 1-3.6zM4 29.3l1.3 3.6-3.1-2.3H6L3 33zM8.2 5l1.1 3.5-3-2.2H10L7 8.5 8.2 5zm0 7l1.1 3.5-3-2.2H10L7 15.5l1.2-3.6zm0 6.9l1.1 3.5-3-2.2H10L7 22.4 8.2 19zm0 6.9l1.1 3.6-3-2.2H10L7 29.4l1.2-3.6zM12.3 1.5L13.4 5l-3-2.2H14l-3 2.2 1.2-3.6zm0 7l1.1 3.5-3-2.2H14l-3 2.2 1.2-3.6zm0 6.9l1.1 3.6-3-2.2H14l-3 2.2 1.2-3.6zm0 7l1.1 3.5-3-2.2H14l-3 2.2 1.2-3.6zM12.3 29.3l1.1 3.6-3-2.3H14l-3 2.3zM16.3 5l1.2 3.5-3-2.2h3.7l-3 2.2L16.3 5zm0 7l1.2 3.5-3-2.2h3.7l-3 2.2 1.1-3.6zm0 6.9l1.2 3.5-3-2.2h3.7l-3 2.2 1.1-3.5zm0 6.9l1.2 3.6-3-2.2h3.7l-3 2.2 1.1-3.6zM20.4 1.5L21.6 5l-3-2.2h3.7l-3 2.2 1.1-3.6zm0 7l1.2 3.5-3-2.2h3.7l-3 2.2 1.1-3.6zm0 6.9l1.2 3.6-3-2.2h3.7l-3 2.2 1.1-3.6zm0 7l1.2 3.5-3-2.2h3.7l-3 2.2 1.1-3.6zM20.4 29.3l1.2 3.6-3-2.3h3.7l-3 2.3zM24.5 5l1.2 3.5-3-2.2h3.7l-3 2.2L24.4 5zm0 7l1.2 3.5-3-2.2h3.7l-3 2.2 1.1-3.6zm0 6.9l1.2 3.5-3-2.2h3.7l-3 2.2 1.1-3.5zm0 6.9l1.2 3.6-3-2.2h3.7l-3 2.2 1.1-3.6zM28.6 1.5L29.8 5l-3-2.2h3.7l-3 2.2 1-3.6zm0 7l1.2 3.5-3-2.2h3.7l-3 2.2 1-3.6zm0 6.9l1.2 3.6-3-2.2h3.7l-3 2.2 1-3.6zm0 7l1.2 3.5-3-2.2h3.7l-3 2.2 1-3.6zM28.6 29.3l1.2 3.6-3-2.3h3.7l-3 2.3zM32.7 5l1.1 3.5-3-2.2h3.8l-3 2.2 1-3.5zm0 7l1.1 3.5-3-2.2h3.8l-3 2.2 1-3.6zm0 6.9l1.1 3.5-3-2.2h3.8l-3 2.2 1-3.5zm0 6.9l1.1 3.6-3-2.2h3.8l-3 2.2 1-3.6z"/><g><path d="M36.8 1.5L37.9 5l-3-2.2h3.7l-3 2.2 1.2-3.6zm0 7l1.1 3.5-3-2.2h3.7l-3 2.2 1.2-3.6zm0 6.9l1.1 3.6-3-2.2h3.7l-3 2.2 1.2-3.6zm0 7l1.1 3.5-3-2.2h3.7l-3 2.2 1.2-3.6zM36.8 29.3l1.1 3.6-3-2.3h3.7l-3 2.3zM40.8 5L42 8.5l-3-2.2h3.7l-3 2.2L40.8 5zm0 7l1.2 3.5-3-2.2h3.7l-3 2.2 1.1-3.6zm0 6.9l1.2 3.5-3-2.2h3.7l-3 2.2 1.1-3.5zm0 6.9l1.2 3.6-3-2.2h3.7l-3 2.2 1.1-3.6z"/></g><g><path d="M45 1.5L46 5l-3-2.2h3.7l-3 2.2 1.1-3.6zm0 7L46 12l-3-2.2h3.7l-3 2.2 1.1-3.6zm0 6.9L46 19l-3-2.2h3.7l-3 2.2 1.1-3.6zm0 7l1.1 3.5-3-2.2h3.7l-3 2.2 1.1-3.6zM45 29.3l1.1 3.6-3-2.3h3.7l-3 2.3z"/></g></g></g></svg>