<svg width="175" height="92"><g fill-rule="nonzero" fill="none"><path class="lighter" fill="#B22234" d="M0 0h173.6v91.3H0z"/><path d="M0 10.5h174.3m0 14H0m0 14.1h174.3m0 14H0m0 14.1h174.3m0 14H0" stroke="#FFF" class="white" stroke-width="7.1" fill="#000"/><path fill="#3C3B6E" d="M0 0h69.7v49.2H0z"/><g class="white" fill="#FFF"><path class="lighter" d="M5.8 2.1l1.7 5-4.4-3h5.4L4.2 7l1.6-5zm0 9.8L7.5 17 3 14h5.4L4.2 17l1.6-5zm0 9.9l1.7 5-4.4-3h5.4l-4.3 3 1.6-5zm0 9.8l1.7 5-4.4-3h5.4l-4.3 3 1.6-5zM5.8 41.4l1.7 5.1L3 43.4h5.4l-4.3 3.1zM11.6 7l1.7 5.1L8.9 9h5.4L10 12l1.6-5zm0 9.9l1.7 5-4.4-3.1h5.4L10 21.9l1.6-5zm0 9.8l1.7 5-4.4-3h5.4l-4.3 3 1.6-5zm0 9.8l1.7 5-4.4-3h5.4l-4.3 3 1.6-5zM17.4 2.1l1.7 5-4.3-3H20l-4.3 3 1.6-5zm0 9.8l1.7 5.1-4.3-3.1H20L15.8 17l1.6-5zm0 9.9l1.7 5-4.3-3H20l-4.3 3 1.6-5zm0 9.8l1.7 5-4.3-3H20l-4.3 3 1.6-5zM17.4 41.4l1.7 5.1-4.3-3.1H20l-4.3 3.1zM23.2 7l1.7 5.1L20.6 9h5.3L21.6 12l1.6-5zm0 9.9l1.7 5-4.3-3.1h5.3l-4.3 3.1 1.6-5zm0 9.8l1.7 5-4.3-3h5.3l-4.3 3 1.6-5zm0 9.8l1.7 5-4.3-3h5.3l-4.3 3 1.6-5zM29 2.1l1.7 5-4.3-3h5.3l-4.3 3 1.7-5zm0 9.8l1.7 5.1-4.3-3.1h5.3L27.4 17l1.7-5zm0 9.9l1.7 5-4.3-3h5.3l-4.3 3 1.7-5zm0 9.8l1.7 5-4.3-3h5.3l-4.3 3 1.7-5zM29 41.4l1.7 5.1-4.3-3.1h5.3l-4.3 3.1zM34.9 7l1.6 5.1L32.2 9h5.4L33.2 12l1.7-5zm0 9.9l1.6 5-4.3-3.1h5.4l-4.4 3.1 1.7-5zm0 9.8l1.6 5-4.3-3h5.4l-4.4 3 1.7-5zm0 9.8l1.6 5-4.3-3h5.4l-4.4 3 1.7-5zM40.7 2.1l1.6 5-4.3-3h5.4L39 7l1.7-5zm0 9.8l1.6 5.1L38 14h5.4L39 17l1.7-5zm0 9.9l1.6 5-4.3-3h5.4l-4.4 3 1.7-5zm0 9.8l1.6 5-4.3-3h5.4l-4.4 3 1.7-5zM40.7 41.4l1.6 5.1-4.3-3.1h5.4L39 46.5zM46.5 7l1.7 5.1L43.8 9h5.4L44.8 12l1.7-5zm0 9.9l1.7 5-4.4-3.1h5.4l-4.4 3.1 1.7-5zm0 9.8l1.7 5-4.4-3h5.4l-4.4 3 1.7-5zm0 9.8l1.7 5-4.4-3h5.4l-4.4 3 1.7-5z"/><g><path d="M52.3 2.1l1.7 5-4.4-3H55l-4.4 3 1.7-5zm0 9.8L54 17 49.6 14H55L50.6 17l1.7-5zm0 9.9l1.7 5-4.4-3H55l-4.4 3 1.7-5zm0 9.8l1.7 5-4.4-3H55l-4.4 3 1.7-5zM52.3 41.4l1.7 5.1-4.4-3.1H55l-4.4 3.1zM58.1 7l1.7 5.1L55.4 9h5.4L56.5 12l1.6-5zm0 9.9l1.7 5-4.4-3.1h5.4l-4.3 3.1 1.6-5zm0 9.8l1.7 5-4.4-3h5.4l-4.3 3 1.6-5zm0 9.8l1.7 5-4.4-3h5.4l-4.3 3 1.6-5z"/></g><g><path d="M64 2.1l1.6 5-4.4-3h5.4l-4.3 3 1.6-5zm0 9.8l1.6 5.1-4.4-3.1h5.4L62.3 17l1.6-5zm0 9.9l1.6 5-4.4-3h5.4l-4.3 3 1.6-5zm0 9.8l1.6 5-4.4-3h5.4l-4.3 3 1.6-5zM64 41.4l1.6 5.1-4.4-3.1h5.4l-4.3 3.1z"/></g></g></g></svg>