<svg width="101" height="100"><g fill="#FC0" fill-rule="nonzero"><path d="M50.5.2L48.3 7l3.4 1.1z"/><path d="M50.5.2L52.7 7l-3.4 1.1z"/><path d="M57.3 5.2h-7.2v3.5z"/><path d="M57.3 5.2l-5.8 4.2-2-3z"/><g><path d="M54.7 13.2l-2.2-6.8-3.4 1z"/><path d="M54.7 13.2L49 9 51 6z"/></g><g><path d="M43.7 5.2h7.2v3.5z"/><path d="M43.7 5.2l5.8 4.2 2-3z"/><g><path d="M46.3 13.2l2.2-6.8 3.4 1z"/><path d="M46.3 13.2L52 9 50 6z"/></g></g><g><path d="M50.5 86.4l-2.2 6.9 3.4 1z"/><path d="M50.5 86.4l2.2 6.9-3.4 1z"/><path d="M57.3 91.4h-7.2V95z"/><path d="M57.3 91.4l-5.8 4.2-2-2.9z"/><g><path d="M54.7 99.4l-2.2-6.8-3.4 1.1z"/><path d="M54.7 99.4L49 95.2l2.1-2.9z"/></g><g><path d="M43.7 91.4h7.2V95z"/><path d="M43.7 91.4l5.8 4.2 2-2.9z"/><g><path d="M46.3 99.4l2.2-6.8 3.4 1.1z"/><path d="M46.3 99.4l5.8-4.2-2.1-2.9z"/></g></g></g><g><path d="M7.4 43.3l-2.2 6.8 3.4 1.2z"/><path d="M7.4 43.3l2.2 6.8-3.4 1.2z"/><path d="M14.2 48.3H7v3.6z"/><path d="M14.2 48.3l-5.8 4.2-2.1-2.9z"/><path d="M11.6 56.3l-2.2-6.8-3.4 1z"/><path d="M11.6 56.3l-5.8-4.2 2.1-3z"/><g><path d="M.5 48.3h7.2v3.6z"/><path d="M.5 48.3l5.9 4.2 2-2.9z"/><g><path d="M3.2 56.3l2.2-6.8 3.4 1z"/><path d="M3.2 56.3L9 52.1l-2.1-3z"/></g></g><g><path d="M24.7 19l5.8-4.3-2-2.9z"/><path d="M24.7 19L27 12l3.5 1.1z"/><path d="M22.1 11l5.8 4.2 2.1-3z"/><path d="M22.1 11h7.2v3.5z"/><g><path d="M29 6l-2.3 6.8 3.4 1.1z"/><path d="M29 6l2.2 6.8-3.5 1.1z"/></g><g><path d="M33.2 19l-5.9-4.3 2.2-2.9z"/><path d="M33.2 19L30.9 12l-3.4 1.1z"/><g><path d="M35.8 11L30 15.1l-2.2-3z"/><path d="M35.8 11h-7.2v3.5z"/></g></g></g><g><path d="M17.4 34.8l-2.2-6.9-3.5 1.1z"/><path d="M17.4 34.8l-5.8-4.3 2-2.9z"/><path d="M9 34.8l5.7-4.3-2-2.9z"/><path d="M9 34.8l2.1-6.9 3.5 1.1z"/><g><path d="M6.3 26.7l5.8 4.2 2.1-2.9z"/><path d="M6.3 26.7h7.2v3.6z"/></g><g><path d="M20 26.7L14.2 31 12 28z"/><path d="M20 26.7h-7.2v3.6z"/><g><path d="M13.2 21.7l2.2 6.9-3.4 1.1z"/><path d="M13.2 21.7l-2.3 6.9 3.4 1.1z"/></g></g></g><g><path d="M20 69.8h-7.2v3.6z"/><path d="M20 69.8l-5.8 4.3-2.1-3z"/><path d="M17.4 77.9L15.2 71l-3.5 1.2z"/><path d="M17.4 77.9l-5.8-4.2 2-3z"/><g><path d="M9 77.9l5.7-4.2-2-3z"/><path d="M9 77.9L11 71l3.5 1.2z"/></g><g><path d="M13.2 64.9l2.2 6.8-3.4 1.1z"/><path d="M13.2 64.9l-2.3 6.8 3.4 1.1z"/><g><path d="M6.3 69.8h7.2v3.6z"/><path d="M6.3 69.8l5.8 4.3 2.1-3z"/></g></g></g><g><path d="M35.8 85.6h-7.2v3.6z"/><path d="M35.8 85.6L30 90l-2.2-3z"/><path d="M33.2 93.7l-2.3-6.9-3.4 1.1z"/><path d="M33.2 93.7l-5.9-4.3 2.2-2.9z"/><g><path d="M24.7 93.7l5.8-4.3-2-2.9z"/><path d="M24.7 93.7l2.2-6.9 3.5 1.1z"/></g><g><path d="M29 80.7l2.2 6.8-3.5 1.1z"/><path d="M29 80.7l-2.3 6.8 3.4 1.1z"/><g><path d="M22.1 85.6h7.2v3.6z"/><path d="M22.1 85.6l5.8 4.3 2.1-3z"/></g></g></g></g><g><path d="M93.6 43.3l2.2 6.8-3.4 1.2z"/><path d="M93.6 43.3l-2.2 6.8 3.4 1.2z"/><path d="M86.8 48.3H94v3.6z"/><path d="M86.8 48.3l5.8 4.2 2.1-2.9z"/><path d="M89.4 56.3l2.2-6.8 3.4 1z"/><path d="M89.4 56.3l5.8-4.2-2.1-3z"/><g><path d="M100.5 48.3h-7.2v3.6z"/><path d="M100.5 48.3l-5.9 4.2-2-2.9z"/><g><path d="M97.8 56.3l-2.2-6.8-3.4 1z"/><path d="M97.8 56.3L92 52.1l2.1-3z"/></g></g><g><path d="M76.3 19l-5.8-4.3 2-2.9z"/><path d="M76.3 19L74 12l-3.5 1.1z"/><path d="M78.9 11l-5.8 4.2-2.1-3z"/><path d="M78.9 11h-7.2v3.5z"/><g><path d="M72 6l2.3 6.8-3.4 1.1z"/><path d="M72 6l-2.2 6.8 3.5 1.1z"/></g><g><path d="M67.8 19l5.9-4.3-2.2-2.9z"/><path d="M67.8 19l2.3-6.9 3.4 1.1z"/><g><path d="M65.2 11l5.8 4.2 2.2-3z"/><path d="M65.2 11h7.2v3.5z"/></g></g></g><g><path d="M83.6 34.8l2.2-6.9 3.5 1.1z"/><path d="M83.6 34.8l5.8-4.3-2-2.9z"/><path d="M92 34.8l-5.7-4.3 2-2.9z"/><path d="M92 34.8L90 27.9 86.4 29z"/><g><path d="M94.7 26.7L88.9 31 86.8 28z"/><path d="M94.7 26.7h-7.2v3.6z"/></g><g><path d="M81 26.7l5.8 4.2L89 28z"/><path d="M81 26.7h7.2v3.6z"/><g><path d="M87.8 21.7l-2.2 6.9 3.4 1.1z"/><path d="M87.8 21.7l2.3 6.9-3.4 1.1z"/></g></g></g><g><path d="M81 69.8h7.2v3.6z"/><path d="M81 69.8l5.8 4.3 2.1-3z"/><path d="M83.6 77.9l2.2-6.9 3.5 1.2z"/><path d="M83.6 77.9l5.8-4.2-2-3z"/><g><path d="M92 77.9l-5.7-4.2 2-3z"/><path d="M92 77.9L90 71l-3.5 1.2z"/></g><g><path d="M87.8 64.9l-2.2 6.8 3.4 1.1z"/><path d="M87.8 64.9l2.3 6.8-3.4 1.1z"/><g><path d="M94.7 69.8h-7.2v3.6z"/><path d="M94.7 69.8l-5.8 4.3-2.1-3z"/></g></g></g><g><path d="M65.2 85.6h7.2v3.6z"/><path d="M65.2 85.6L71 90l2.2-3z"/><path d="M67.8 93.7l2.3-6.9 3.4 1.1z"/><path d="M67.8 93.7l5.9-4.3-2.2-2.9z"/><g><path d="M76.3 93.7l-5.8-4.3 2-2.9z"/><path d="M76.3 93.7L74 86.8 70.6 88z"/></g><g><path d="M72 80.7l-2.2 6.8 3.5 1.1z"/><path d="M72 80.7l2.3 6.8-3.4 1.1z"/><g><path d="M78.9 85.6h-7.2v3.6z"/><path d="M78.9 85.6L73.1 90l-2.1-3z"/></g></g></g></g></g></svg>