<svg width="153px" height="116px" viewBox="0 0 153 116" version="1.1" xmlns="http://www.w3.org/2000/svg" xmlns:xlink="http://www.w3.org/1999/xlink">
    <!-- Generator: Sketch 51.2 (57519) - http://www.bohemiancoding.com/sketch -->
    <desc>Created with Sketch.</desc>
    <defs></defs>
    <g id="Page-1" stroke="none" stroke-width="1" fill="none" fill-rule="evenodd">
        <g id="ES-EPS-01-0001" transform="translate(-242.000000, -134.000000)" fill="#7F807C">
            <path d="M286.739251,249.054924 L286.558832,248.914849 L286.307694,248.775681 L286.096902,248.760721 L285.944588,248.790187 L286.042051,249.097082 L286.16762,249.376325 L286.334893,249.626556 L286.586484,249.865 L286.642242,249.626556 L287.131823,249.23625 L287.228833,248.943408 L286.935537,249.097082 L286.739251,249.054924 Z M372.955479,169.390023 L373.178058,169.152939 L375.42696,168.119377 L376.864426,167.197332 L376.977755,167.16968 L377.101964,167.16968 L377.20124,167.142028 L377.242492,167.030058 L377.256998,166.932142 L377.424271,166.778015 L377.479123,166.750816 L377.591545,166.70911 L377.674955,166.62434 L377.744766,166.527331 L377.829536,166.443014 L377.940145,166.401762 L378.289199,166.345097 L378.723929,166.163771 L380.217607,165.060852 L380.804651,164.446155 L381.626967,163.929828 L381.81056,163.733542 L381.948368,163.356836 L382.228064,162.882214 L382.269769,162.588919 L382.214012,162.476949 L382.005033,162.309222 L381.962874,162.226266 L381.948368,162.127896 L381.89261,161.821001 L381.851812,161.722631 L381.782001,161.485547 L381.824613,161.178652 L381.837759,160.843651 L381.698138,160.521343 L381.544917,160.396681 L381.167758,160.15869 L380.985071,159.963311 L380.916167,159.697667 L380.93022,159.335014 L381.026776,158.776075 L381.152345,158.454674 L381.29242,158.342705 L382.381285,158.38441 L382.563065,158.468727 L382.646929,158.315052 L382.745298,158.230736 L382.828708,158.120126 L382.86996,157.895735 L382.912572,157.742061 L383.177309,157.212134 L382.912572,157.030807 L382.772951,157.001795 L382.661435,157.113764 L382.591171,157.113764 L382.452456,156.904785 L382.185906,156.918385 L381.934315,156.96009 L381.824613,156.848121 L381.782001,156.709859 L381.585262,156.387098 L381.530411,156.192172 L381.530411,156.010846 L381.585262,155.675845 L380.83185,155.801867 L380.538101,155.815466 L380.259312,155.786907 L380.03628,155.717097 L379.896205,155.633233 L379.784689,155.522171 L379.700373,155.382096 L379.631469,155.214822 L379.560751,155.201223 L379.238443,155.18717 L379.127834,155.158158 L378.931095,155.28418 L378.568895,155.144558 L378.205789,155.423801 L378.024462,155.451907 L377.829536,155.451907 L377.647303,155.465506 L377.465977,155.563876 L377.130976,155.884824 L376.949649,155.996793 L376.711658,156.038498 L376.279195,155.969141 L376.055256,155.983193 L375.85897,156.080203 L375.385255,156.443763 L375.300938,156.569785 L375.399308,156.848121 L375.537569,157.001795 L375.537569,157.072512 L375.244273,157.086112 L374.993589,157.044407 L374.477716,156.877133 L374.26783,156.877133 L374.18442,156.96009 L374.085597,157.212134 L374.015333,157.281491 L373.903817,157.281491 L373.779155,157.239786 L373.556123,157.113764 L373.345331,157.05846 L373.135446,156.890733 L372.969079,156.653195 L372.884762,156.41611 L372.704342,156.41611 L372.354382,156.345393 L371.712486,156.038498 L371.571051,155.926529 L371.263703,155.758802 L370.915556,155.801867 L370.231502,156.010846 L369.700215,155.941488 L369.518435,156.024445 L369.462677,156.109215 L369.378814,156.331794 L369.323962,156.41611 L369.057412,156.625089 L368.876539,156.820469 L368.750064,156.904785 L368.569644,156.946491 L368.276348,156.974143 L368.122221,156.946491 L367.983506,156.863534 L367.759115,156.680394 L367.647599,156.443763 L367.507977,155.884824 L367.354756,155.633233 L367.187483,155.549823 L366.976691,155.536223 L366.710141,155.479559 L366.083204,155.047549 L365.84612,154.949179 L365.160706,154.851263 L364.951727,154.768306 L364.951727,154.726601 L364.937674,154.683536 L364.910022,154.655883 L364.881916,154.64183 L364.7704,154.768306 L364.644378,154.823157 L364.504757,154.823157 L364.379642,154.781452 L364.350629,154.7402 L364.322977,154.726601 L364.295778,154.7402 L364.253166,154.781452 L364.128504,155.18717 L363.765398,155.340844 L363.066837,155.437854 L363.010173,155.508118 L362.969374,155.591528 L362.899564,155.675845 L362.773542,155.745202 L362.689678,155.758802 L362.019224,155.675845 L361.893655,155.577475 L361.893655,155.396149 L361.572254,154.893874 L361.75358,154.809557 L361.822938,154.795958 L362.046876,154.64183 L362.005171,154.405199 L361.809338,154.236566 L361.558201,154.265578 L361.599906,154.096944 L361.781232,153.775543 L361.781232,153.720238 L361.683769,153.650881 L361.697822,153.51126 L361.75358,153.357585 L361.809338,153.259216 L361.642971,153.050237 L361.459831,152.533003 L361.250852,152.239707 L361.055926,151.890654 L360.957103,151.835349 L360.85964,151.835349 L360.803883,151.778685 L360.845588,151.569706 L360.579944,151.498988 L359.212742,151.498988 L358.834676,151.62501 L358.709108,151.611411 L358.514182,151.471336 L358.401759,151.262357 L358.318349,151.024366 L358.205927,150.815387 L358.010547,150.634061 L357.77301,150.563344 L356.822859,150.493986 L356.740808,150.437775 L356.557669,150.284101 L356.461112,150.242396 L356.347783,150.284101 L356.25032,150.367964 L356.139711,150.423722 L356.012782,150.367964 L355.832363,150.200691 L355.733086,150.130427 L355.398539,150.005765 L354.924823,149.726068 L354.728991,149.697963 L354.519105,149.712469 L354.323726,149.669404 L353.946567,149.516183 L353.750734,149.50213 L353.443386,149.529782 L353.192248,149.627699 L353.136491,149.85209 L353.164596,150.173038 L353.010469,150.590996 L353.136491,150.758723 L353.052174,150.82944 L353.010469,150.898344 L352.940658,151.052019 L353.095692,151.108683 L353.233954,151.27641 L353.303764,151.498988 L353.288805,151.751032 L353.192248,151.904707 L353.052174,151.960011 L352.660962,151.904707 L351.279707,151.945958 L351.096567,151.863001 L350.67861,151.974971 L350.454671,151.989023 L350.230733,151.945958 L350.174522,151.890654 L350.161376,151.835349 L350.161376,151.764632 L350.134177,151.709327 L349.826828,151.443684 L349.630089,151.513041 L349.435616,151.709327 L349.128268,152.142698 L348.960087,152.17035 L348.792814,151.960011 L348.555276,151.5416 L348.373949,151.457283 L347.786905,151.304062 L347.606032,151.331261 L347.395693,151.471336 L346.712092,151.569706 L345.860311,151.890654 L345.469099,151.932359 L345.035275,151.764632 L344.965917,151.694368 L344.91016,151.611411 L344.826296,151.540694 L344.686221,151.498988 L344.575612,151.443684 L344.547053,151.345314 L344.533907,151.233345 L344.46319,151.150388 L344.28141,150.996714 L344.141788,150.772776 L344.071978,150.508039 L344.100083,150.242396 L343.904251,150.326713 L343.582849,150.409669 L343.290007,150.367964 L343.163532,150.088721 L342.493984,149.683457 L342.32671,149.529782 L342.270045,149.683457 L342.186635,149.795426 L342.103678,149.823078 L342.005309,149.726068 L341.474929,150.144479 L341.209285,150.2977 L340.873831,150.326713 L340.27364,150.047016 L339.993491,150.047016 L339.980345,150.409669 L339.881975,150.437775 L339.700649,150.563344 L339.616332,150.577396 L339.504816,150.508039 L339.504816,150.423722 L339.519322,150.325353 L339.449058,150.242396 L339.407806,150.228343 L339.22512,150.228343 L339.155309,150.200691 L339.155309,150.144479 L339.183415,150.074669 L339.169362,150.004405 L338.737351,149.432319 L338.540612,149.264139 L338.165266,149.027055 L338.052844,149.013455 L337.940421,149.027055 L337.829812,149.013455 L337.718296,148.901486 L337.660725,148.761865 L337.674778,148.678454 L337.718296,148.607737 L337.718296,148.495768 L337.508411,147.965841 L337.215569,147.867472 L336.362881,148.021146 L335.48254,147.951788 L335.064583,147.812167 L334.673371,147.518871 L334.533749,147.365197 L334.351063,147.309439 L333.959851,147.267281 L333.877347,147.19747 L333.694208,147.085501 L333.597651,147.043796 L333.178787,147.085501 L332.814321,146.792205 L332.438521,146.583226 L331.795719,146.471257 L331.586287,146.345235 L331.405414,146.122204 L331.348749,145.913225 L331.433066,145.716939 L331.67015,145.52156 L331.419466,145.452202 L331.167422,145.549665 L330.97159,145.759551 L330.887726,146.066899 L330.860074,146.457205 L330.761704,146.667543 L330.566325,146.736901 L330.258977,146.709248 L329.993333,146.638531 L329.741743,146.49891 L329.546363,146.275878 L329.407195,145.940877 L329.505565,145.815309 L329.965681,145.32618 L330.105756,145.131254 L330.273029,144.655272 L330.399505,144.054628 L330.35644,143.497049 L330.035038,143.162048 L329.896777,143.162048 L329.770302,143.203753 L329.645186,143.217353 L329.184164,142.979362 L328.834203,142.882352 L328.611172,142.882352 L328.443898,142.979362 L328.360488,143.245005 L328.290677,143.384627 L328.165109,143.455344 L328.025034,143.468943 L327.898559,143.455344 L327.75939,143.384627 L327.703633,143.315269 L327.618862,143.049626 L327.605263,142.910004 L327.632915,142.825688 L327.632915,142.75633 L327.522306,142.672013 L327.312421,142.575457 L327.214958,142.561404 L326.991019,142.658414 L326.753482,142.686066 L326.627913,142.75633 L326.502344,142.770383 L326.446586,142.644361 L326.403975,142.351065 L326.265713,142.169739 L325.944312,142.016065 L325.944312,141.834738 L325.958818,141.51379 L326.027722,141.094473 L325.83189,140.98205 L325.426625,141.192389 L325.008667,141.569095 L324.560791,141.779434 L324.631508,141.848791 L324.728971,141.96076 L324.798782,142.002012 L324.645561,142.113981 L324.560791,142.043717 L324.47738,141.890043 L324.337306,141.778074 L324.170032,141.778074 L324.044463,141.834738 L323.792873,142.002012 L323.010449,142.295308 L322.772911,142.323413 L322.634196,142.365118 L322.312795,142.616709 L322.228478,142.588603 L322.200373,142.518792 L322.17272,142.448982 L322.116962,142.421329 L322.047152,142.435382 L321.9923,142.477087 L321.950595,142.50474 L321.92113,142.518792 L321.781508,142.477087 L321.684952,142.365118 L321.599729,142.254056 L321.529918,142.197391 L321.405256,142.211444 L321.042149,142.30936 L320.551661,142.365118 L320.077946,142.30936 L319.630976,142.169739 L318.555256,141.667011 L318.346277,141.33201 L318.094687,141.234094 L317.620065,141.135724 L316.977262,140.856482 L316.627755,140.787124 L316.50264,140.73182 L316.377071,140.688755 L316.251049,140.71686 L316.195292,140.773071 L316.182145,140.856482 L316.182145,140.940798 L316.168093,141.010156 L316.082869,141.289399 L316.040711,141.346063 L315.999006,141.025115 L315.874797,140.647503 L315.775974,140.479776 L315.553396,140.256744 L315.315405,140.08811 L315.17533,140.060458 L314.980857,140.130722 L314.742413,140.228185 L314.211126,140.28485 L313.639494,140.256744 L313.359798,140.28485 L313.178472,140.395459 L313.178472,140.493829 L313.247829,140.493829 L313.247829,140.688755 L313.066502,140.745419 L312.577827,141.038715 L312.452259,141.192389 L312.298585,141.234094 L312.24328,141.303451 L312.24328,141.360116 L312.312184,141.472085 L312.353889,141.653412 L312.481271,142.016065 L312.481271,142.128034 L311.935932,141.653412 L311.586878,141.429473 L311.335287,141.625306 L311.124949,141.596747 L310.622221,141.443073 L310.37199,141.149777 L310.260021,141.08042 L310.119946,141.052768 L309.616312,140.857388 L308.932711,140.759472 L308.400971,140.578145 L308.248657,140.55004 L307.913656,140.647503 L307.759075,140.63345 L307.634413,140.452123 L307.479832,140.73182 L307.382369,140.661102 L307.256801,140.493829 L307.033316,140.452123 L307.215096,140.353754 L307.298959,140.270797 L307.340664,140.18648 L307.382369,140.10307 L307.479832,140.130722 L307.592255,140.20008 L307.634413,140.241785 L307.716917,140.214132 L307.787181,140.228185 L307.829339,140.214132 L307.843845,140.074511 L307.829339,139.977501 L307.787181,139.893184 L307.731423,139.837427 L306.963505,139.697805 L306.864682,139.641141 L306.740473,139.516479 L306.586346,139.404509 L306.39142,139.390457 L306.405473,139.124813 L306.125776,139.111214 L305.273542,139.376404 L305.148427,139.446215 L305.035097,139.558184 L304.910435,139.641141 L304.589941,139.670153 L304.463466,139.725457 L304.547782,139.837427 L304.505171,139.851479 L304.491571,139.851479 L304.477518,139.934436 L304.393202,139.879132 L304.323391,139.865532 L304.17017,139.837427 L304.17017,139.934436 L304.240434,140.005154 L304.310245,140.144775 L304.337444,140.28485 L304.295739,140.353754 L304.198276,140.312049 L304.099453,140.158828 L304.002896,140.130722 L303.961191,140.172427 L303.806157,140.381859 L303.737253,140.452123 L303.569979,140.53508 L303.47161,140.549133 L303.346948,140.549133 L303.346948,140.479776 L303.360547,140.466176 L303.388199,140.466176 L303.429904,140.452123 L303.3746,140.424471 L303.317935,140.381859 L303.205966,140.241785 L303.360547,140.074511 L303.569979,139.934436 L304.058201,139.711858 L303.750852,139.502879 L303.415852,139.432162 L303.080851,139.502879 L302.759903,139.697805 L302.703238,139.627541 L302.675586,139.613488 L302.535965,139.697805 L302.354185,139.641141 L302.159712,139.725457 L301.781646,140.005154 L301.781646,140.10171 L301.879563,140.18648 L301.934867,140.214132 L301.86551,140.228185 L301.810205,140.228185 L301.753994,140.241785 L301.69733,140.312049 L301.432593,140.117123 L301.348276,140.08811 L301.265319,140.117123 L301.25172,140.18648 L301.237667,140.256744 L301.166949,140.298449 L300.665128,140.298449 L300.398578,140.340154 L299.701378,140.563186 L299.394029,140.800724 L298.010055,140.954398 L297.494181,140.899093 L297.381758,140.954398 L297.271149,141.149777 L297.200432,141.149777 L296.991453,140.940798 L296.684105,140.856482 L296.377209,140.913146 L296.138765,141.135724 L295.845923,140.842429 L293.332284,140.61985 L293.108345,140.549133 L292.200353,140.117123 L291.405689,139.948489 L291.154099,139.809774 L291.027624,139.780762 L290.902055,139.809774 L290.748834,139.948489 L290.663611,139.977501 L289.883,139.73951 L289.742472,139.823827 L289.631409,139.627541 L289.365766,139.558184 L288.402469,139.516479 L288.024403,139.376404 L287.228833,138.84557 L287.04796,138.776213 L286.586484,138.734508 L286.418303,138.76216 L286.362546,138.84557 L286.334893,138.943487 L286.251936,139.041856 L286.139967,139.097161 L285.901976,139.181478 L285.789554,139.250835 L285.72065,139.152919 L285.916482,138.971139 L286.055197,138.734508 L286.027998,138.524623 L285.692544,138.42716 L283.457695,138.524623 L282.886063,138.42716 L282.759134,138.161516 L282.675724,138.091252 L282.620419,138.31519 L282.551062,138.31519 L282.340723,137.994242 L281.72648,137.267576 L281.488489,137.058598 L281.125382,136.876364 L280.944056,136.862312 L280.873792,137.001933 L280.818034,137.18326 L280.692465,137.253524 L280.329812,137.253524 L280.357464,137.295229 L280.385117,137.407198 L280.414129,137.462956 L280.273148,137.630229 L280.314853,137.756251 L280.385117,137.868221 L280.329812,138.007842 L279.044207,138.007842 L278.862427,138.091252 L278.695607,138.216821 L278.52788,138.287538 L278.346553,138.203221 L278.177466,138.301591 L277.312539,138.203221 L277.172917,138.147917 L276.824317,137.882273 L276.670643,137.909926 L276.586326,137.994242 L276.517422,138.077199 L276.251325,138.147917 L275.95803,138.287538 L275.790303,138.31519 L275.217311,138.31519 L274.645679,138.42716 L274.490645,138.384548 L274.226361,138.230874 L274.072687,138.203221 L274.100793,138.273485 L274.128445,138.441212 L274.142045,138.51057 L273.862348,138.51057 L273.737686,138.538222 L273.625717,138.622539 L273.220453,138.398601 L272.647461,138.189622 L272.089428,138.133864 L271.475185,138.454812 L271.181889,138.42716 L270.720866,138.287538 L270.050865,138.342843 L269.882231,138.287538 L268.793366,138.329243 L268.151016,138.468865 L268.052647,138.831518 L267.899879,138.943487 L267.830068,139.152919 L267.78655,139.404509 L267.717646,139.656553 L267.648289,139.656553 L267.550372,139.390457 L267.607037,139.181478 L267.717646,138.998791 L267.801056,138.831518 L267.78655,138.524623 L267.661888,138.42716 L267.466055,138.398601 L267.341393,138.301591 L267.158707,138.413107 L266.474653,138.441212 L266.055335,138.370948 L265.832757,138.287538 L265.664123,138.287538 L265.525408,138.342843 L265.441091,138.42716 L265.356775,138.468865 L265.20446,138.398601 L265.20446,138.230874 L265.273364,138.189622 L265.301017,138.147917 L265.329122,138.091252 L265.371734,138.021895 L264.841807,137.756251 L264.141434,136.778901 L263.695824,136.430301 L262.774232,135.912614 L262.64821,135.870909 L262.214839,135.814244 L262.061165,135.884962 L261.949196,135.996931 L261.85264,136.080341 L261.712112,136.024583 L261.614195,136.248068 L261.474574,136.443901 L261.377111,136.485606 L261.405216,136.233562 L261.12552,135.703635 L261.083815,135.493296 L260.888436,135.591666 L260.818625,135.605719 L260.734762,135.633371 L260.720709,135.703635 L260.720709,135.772993 L260.706656,135.814244 L260.60874,135.857309 L260.525329,135.870909 L260.469118,135.800645 L260.469118,135.578067 L260.720709,135.256665 L260.762414,135.172348 L260.734762,135.018674 L260.650898,134.906705 L260.567488,134.865 L260.525329,134.921665 L260.455065,135.158749 L260.260139,135.382687 L260.022148,135.549961 L259.575632,135.661023 L259.352147,135.786592 L259.156314,135.954319 L259.00264,136.122046 L259.030292,136.178257 L259.058851,136.290226 L259.086504,136.331932 L258.807261,136.233562 L258.667639,136.233562 L258.542071,136.317879 L258.751503,136.65288 L258.653586,136.765302 L258.094647,136.73629 L258.094647,136.63928 L258.150859,136.625681 L258.178964,136.611628 L258.248775,136.541364 L258.332185,136.611628 L258.374344,136.625681 L258.485859,136.541364 L258.416049,136.428941 L258.416049,136.304279 L258.471807,136.164658 L258.55567,136.038636 L258.611881,136.066288 L258.723397,136.093941 L258.792755,136.136552 L258.792755,136.038636 L258.625481,135.829657 L258.542071,135.564014 L258.416049,135.339622 L258.1087,135.297917 L257.885215,135.591666 L257.606426,135.843257 L257.299077,136.024583 L256.963623,136.122953 L256.586464,136.122953 L256.418737,136.164658 L256.348926,136.290226 L256.307221,136.471553 L256.251463,136.63928 L256.279116,136.806554 L256.488548,136.974281 L256.43279,137.001933 L256.377032,137.058598 L256.335327,137.08625 L256.335327,137.18326 L256.363432,137.198219 L256.474948,137.18326 L256.348926,137.239924 L256.223811,137.226325 L256.125441,137.141554 L256.083736,136.974281 L254.464037,138.216821 L254.142183,138.384548 L253.876993,138.342843 L253.807182,138.370948 L253.611349,138.342843 L253.570097,138.342843 L253.556045,138.51057 L253.611349,138.664244 L253.695213,138.789813 L253.77953,138.874129 L253.639908,139.083108 L253.513886,139.027804 L253.457675,139.264888 L253.416423,139.585836 L253.33256,139.823827 L253.821235,139.809774 L254.04472,139.725457 L254.170742,139.530531 L254.281804,139.599889 L254.324416,139.642501 L254.240552,139.683752 L254.211993,139.711858 L254.170742,139.767163 L254.841196,139.656553 L255.092334,139.544584 L255.148091,139.558184 L255.162144,139.670153 L255.119986,139.767163 L255.036122,139.837427 L254.952259,139.865532 L253.834834,140.018753 L253.625855,140.18648 L253.807182,140.256744 L254.072372,140.55004 L254.268205,140.61985 L254.645364,140.591745 L254.841196,140.61985 L255.063775,140.73182 L254.854796,140.871441 L254.728774,140.98205 L254.673016,141.121672 L254.673016,141.360116 L254.75688,141.820685 L254.75688,142.05777 L254.673016,142.30936 L254.589152,142.071369 L254.477637,141.917695 L254.226499,141.667011 L254.156689,141.499737 L254.11453,141.33201 L254.04472,141.192389 L253.891045,141.135724 L253.570097,140.926746 L253.346159,140.885494 L253.248696,141.08042 L253.276348,141.443073 L253.234643,141.583148 L253.095022,141.750421 L252.843431,141.52739 L252.745968,141.373715 L252.704263,141.178336 L252.103619,141.33201 L252.033808,141.387768 L252.00525,141.457126 L251.963998,141.51379 L251.712407,141.598107 L251.600438,141.681064 L251.516575,141.793033 L251.474416,141.933108 L251.376953,142.030118 L250.790362,142.30936 L250.413656,142.141633 L249.994338,142.268109 L249.60358,142.490687 L249.296231,142.603109 L249.086346,142.575457 L248.653429,142.435382 L248.458049,142.40773 L248.26267,142.323413 L247.913617,141.96076 L247.773995,141.876443 L247.647973,141.905456 L247.56411,141.97436 L247.480246,142.086329 L247.131646,142.183338 L246.656117,142.50474 L246.209147,142.701026 L246.098085,142.715078 L246.014221,142.75633 L246.111684,142.840647 L246.251306,142.910004 L246.307517,142.910004 L246.474791,143.245005 L246.600813,143.329322 L246.837897,143.315269 L246.642518,143.468943 L246.349222,143.581366 L246.055473,143.594965 L245.846494,143.412279 L245.763084,143.412279 L245.706873,143.63667 L245.594904,143.845649 L245.455736,144.012923 L245.316114,144.138945 L245.176039,144.195609 L244.980207,144.237315 L244.785281,144.237315 L244.365963,144.055988 L244.00331,144.250914 L243.472477,144.753642 L243.56994,145.019285 L243.723614,145.032885 L244.072214,144.852012 L244.058615,144.991633 L244.240395,145.005232 L244.491985,144.949021 L244.686911,144.852012 L244.686911,144.962621 L244.491985,144.991633 L244.408122,145.019285 L244.324258,145.060537 L244.225888,145.144854 L244.184637,145.214211 L244.156984,145.298981 L244.100773,145.381938 L243.933499,145.52156 L243.793878,145.563265 L243.653803,145.52156 L243.486076,145.381938 L243.430318,145.563265 L243.304296,145.661181 L243.178728,145.787203 L243.12297,146.066899 L243.039106,146.206521 L242.899485,146.206521 L242.802022,146.289478 L242.885432,146.653944 L243.053159,146.778606 L243.137023,146.862923 L243.095318,147.002544 L243.053159,147.085501 L243.011454,147.19747 L242.983348,147.323492 L242.969296,147.421408 L242.745811,148.050158 L242.676,148.189779 L242.676,148.286789 L242.773463,148.385159 L242.885432,148.733759 L242.941643,148.775464 L243.011454,148.635843 L243.12297,148.328494 L243.206833,148.203832 L243.304296,148.119515 L243.430318,148.036105 L243.541834,148.050158 L243.583539,148.245537 L243.597592,148.286789 L243.695962,148.259137 L243.765319,148.17482 L243.695962,148.007546 L243.695962,147.910537 L243.83513,147.965841 L244.00331,148.245537 L244.100773,148.314441 L244.296152,148.328494 L244.379563,148.385159 L244.394069,148.482168 L244.379563,148.62179 L244.352364,148.706107 L244.254447,148.818076 L244.225888,148.873834 L244.240395,148.958151 L244.296152,149.153077 L244.310659,149.265046 L244.519637,149.348456 L244.673312,149.446372 L244.757175,149.614099 L244.686911,149.767774 L244.603048,149.879743 L244.505131,149.935047 L244.365963,149.935047 L244.477932,150.200691 L244.533237,150.437775 L244.603048,150.634061 L244.757175,150.758723 L244.966607,150.801335 L245.106229,150.731071 L245.357366,150.451374 L245.316114,150.200691 L245.553199,150.158079 L246.111684,150.242396 L246.40498,150.200691 L246.656117,150.088721 L246.823844,149.879743 L246.866003,149.529782 L247.103087,149.655804 L247.131646,149.907395 L247.061835,150.144479 L246.992025,150.255995 L246.725928,150.326713 L246.558654,150.480387 L246.279411,150.884745 L245.95801,151.066071 L245.930358,151.09463 L245.804336,151.136335 L245.720472,151.248305 L245.664714,151.345314 L245.539599,151.526641 L245.469335,151.833989 L245.427177,152.141338 L245.441229,152.324024 L245.302061,152.546602 L245.148387,152.938268 L245.092176,153.300921 L245.259903,153.468195 L245.51104,153.580617 L245.567251,153.831301 L245.594904,154.110544 L245.763084,154.29323 L245.916305,154.096944 L246.000168,154.013534 L246.098085,153.985882 L246.181495,153.649974 L246.209147,153.566564 L246.614412,153.455048 L246.739981,153.342626 L246.586306,153.147247 L246.949866,152.868004 L247.103087,152.798646 L247.047329,152.952321 L247.201003,153.077889 L247.327025,152.993572 L247.56411,152.644519 L247.452594,152.51895 L247.480246,152.337624 L247.647973,151.932359 L247.801647,152.141338 L247.913617,152.379329 L248.053238,152.574708 L248.26267,152.659025 L248.458049,152.588308 L248.612177,152.421034 L248.72324,152.183949 L248.807103,151.945958 L248.876914,151.945958 L248.79305,152.281412 L248.388239,153.203004 L248.248617,153.385238 L248.108996,153.426943 L247.969374,153.538912 L247.871458,153.720238 L247.829753,153.94327 L247.843806,154.208913 L247.983427,154.725241 L247.843806,154.83721 L247.843806,155.004483 L247.871458,155.17221 L247.829753,155.325885 L247.717784,155.368496 L247.55051,155.339938 L247.396836,155.270127 L247.299373,155.199863 L247.452594,155.102853 L247.452594,154.963232 L247.354678,154.83721 L247.215509,154.795958 L247.047329,154.83721 L246.823844,154.935579 L246.614412,155.061148 L246.531002,155.214822 L246.614412,155.270127 L246.992025,155.339938 L247.130739,155.423801 L247.215509,155.577475 L247.270814,155.857171 L247.369184,156.024445 L247.63392,156.192172 L247.99748,156.233424 L248.34608,156.205772 L248.584071,156.136868 L248.737746,156.038498 L249.016535,155.815466 L249.254073,155.661792 L249.282632,155.633233 L249.323884,155.61918 L249.421347,155.605581 L249.533769,155.646833 L249.617179,155.646833 L249.715096,155.591528 L249.631232,155.815466 L249.477558,155.969141 L249.113998,156.205772 L248.919072,156.373499 L248.499755,156.877133 L248.415891,157.072512 L248.360586,157.113764 L247.955322,157.015848 L247.801647,157.044407 L247.759942,157.086112 L247.787595,157.155469 L247.8157,157.281491 L247.8157,157.770166 L247.74589,157.882135 L247.592215,157.645051 L247.522405,157.645051 L247.522405,157.85403 L247.410435,158.18903 L247.369184,158.370357 L247.577709,158.301 L248.164754,158.342705 L248.290776,158.315052 L248.415891,158.18903 L249.016535,157.909788 L249.24002,157.85403 L249.519716,157.742061 L249.67339,157.476417 L249.798959,157.198081 L249.966686,157.0435 L250.064602,157.015848 L250.105854,157.029447 L250.12036,157.127817 L250.12036,157.58884 L250.078202,157.714408 L250.008391,157.783766 L249.784453,157.93744 L249.589527,158.021757 L249.24002,158.356758 L249.184262,158.38441 L249.045094,158.441074 L248.458049,158.888044 L248.248617,159.152328 L248.192406,159.195393 L248.08089,159.26475 L248.025132,159.404372 L247.99748,159.543993 L247.969828,159.61335 L247.676532,159.767025 L247.620321,159.823689 L247.662026,159.920699 L247.871458,160.019068 L247.927669,160.131038 L247.843806,160.270659 L247.63392,160.325964 L247.186951,160.325964 L247.061835,160.424333 L247.03373,160.68907 L247.257215,163.593921 L247.229109,163.80426 L247.410435,163.873164 L247.592215,163.719489 L247.773995,163.510511 L247.955322,163.441153 L248.178807,163.370889 L248.388239,163.203162 L248.555966,162.980584 L248.681534,162.72854 L248.79305,162.630624 L249.045094,162.504602 L249.337936,162.421192 L249.560968,162.267517 L249.644832,162.114296 L249.757254,161.792895 L249.854717,161.639221 L250.05055,161.499599 L250.245929,161.457894 L250.651194,161.442935 L250.860173,161.359978 L251.237332,161.093881 L251.446764,161.010924 L253.164833,160.731682 L253.346159,160.633312 L253.625855,160.367669 L253.723318,160.298311 L253.807182,160.284258 L254.002561,160.270659 L254.211993,160.186342 L254.547901,159.949711 L254.645364,160.089332 L254.742827,160.311911 L254.715174,160.95426 L254.75688,161.192251 L254.896501,161.303314 L255.078281,161.289261 L255.27366,161.192251 L255.511198,161.178652 L255.72063,161.261608 L255.888357,161.428882 L255.971767,161.653274 L255.944115,161.917557 L255.832146,162.100244 L255.650819,162.253918 L255.329871,162.462897 L255.00847,162.784298 L254.575553,163.426194 L254.464037,163.691837 L254.449531,163.971533 L254.575553,164.237177 L254.966312,164.390851 L255.050175,164.50146 L255.063775,164.697746 L255.022523,165.088505 L255.986273,165.145169 L256.488548,165.005094 L256.852107,164.627482 L256.963623,164.446155 L257.103245,164.306534 L257.256919,164.237177 L257.438699,164.264829 L257.648131,164.264829 L257.746047,164.06945 L257.801352,163.817859 L257.857563,163.650585 L258.081048,163.565815 L258.1087,163.971533 L258.178964,164.40445 L258.528018,164.40445 L258.597829,164.320134 L258.639534,164.223124 L258.695292,164.138807 L258.807261,164.097555 L259.114609,164.111155 L259.798663,163.943881 L260.105559,163.776154 L260.274192,163.817859 L260.581087,164.040891 L260.776013,164.138807 L261.377111,164.166459 L261.209384,164.627482 L261.223437,164.767557 L261.405216,164.865473 L261.600596,164.879526 L261.838587,164.85142 L262.061165,164.767557 L262.228892,164.641535 L262.284197,164.530472 L262.297796,164.432556 L262.326808,164.347786 L262.411125,164.278428 L262.494536,164.278428 L262.662263,164.390851 L262.774232,164.40445 L262.927453,164.459755 L263.067527,164.655134 L263.178136,164.907178 L263.219842,165.145169 L263.374422,165.019147 L263.640066,164.711799 L263.792833,164.613882 L263.961467,164.585777 L264.365825,164.59983 L264.562111,164.572177 L265.356775,164.306534 L265.720788,164.083502 L265.943366,163.747595 L265.971018,163.510511 L265.902114,163.022289 L265.929766,162.81195 L266.014083,162.72854 L266.181357,162.602518 L266.377643,162.490549 L266.530411,162.462897 L266.893064,162.686835 L267.228971,162.980584 L267.577571,163.134258 L267.96969,162.966531 L268.23488,162.770245 L268.486017,162.895814 L268.751207,163.106152 L269.058556,163.17551 L269.74397,163.120205 L270.008253,162.951572 L270.078517,162.505508 L270.413518,162.560813 L270.817876,163.189563 L271.152877,163.287479 L271.949807,163.25892 L272.32606,163.147858 L272.481094,162.826456 L272.745377,162.937519 L272.899051,163.120205 L272.940756,163.356836 L272.8578,163.999186 L272.940756,164.097555 L273.137042,164.125208 L273.430791,164.223124 L273.303863,164.50282 L273.039126,165.717708 L272.996061,165.857782 L272.913104,165.982444 L272.843747,166.122066 L272.871399,166.248088 L272.940756,166.37411 L272.996061,166.513731 L273.025073,166.792974 L273.080378,167.085363 L273.234505,167.323354 L273.541854,167.435323 L273.65337,167.407671 L273.821097,167.323354 L273.974771,167.224984 L274.045035,167.142028 L274.128445,167.07131 L274.281666,167.07131 L275.189659,167.253997 L275.733638,167.449376 L276.237273,167.770324 L276.712348,168.273052 L276.865569,168.49699 L276.977991,168.636611 L276.447611,169.418582 L276.153862,169.72593 L276.084052,169.879605 L276.097651,169.990667 L276.125303,170.088583 L276.125303,170.186953 L275.705986,170.870554 L275.705986,170.996576 L275.357386,171.024228 L275.203711,171.080893 L275.06409,171.191502 L275.091742,171.191502 L275.091742,171.276272 L275.077689,171.388241 L275.050037,171.471198 L275.008332,171.485251 L274.868711,171.457145 L274.825646,171.471198 L274.477045,172.04419 L274.114392,172.406843 L273.752193,172.686539 L273.095791,172.965782 L272.996061,173.035139 L272.270755,173.049192 L272.074469,173.091804 L271.949807,173.231425 L271.559502,173.83207 L271.475185,174.055101 L271.404921,174.16707 L271.014162,174.502071 L270.874541,174.683398 L270.831929,174.781767 L270.859128,175.14442 L270.762118,175.410064 L270.315148,176.066012 L270.161927,176.219687 L269.854579,176.247339 L269.170525,176.192034 L268.932534,176.304003 L268.891282,176.583699 L268.76526,176.779079 L268.793366,176.960405 L268.905335,177.127226 L269.253935,177.505292 L269.393556,177.755975 L269.630641,178.35662 L269.729917,178.663515 L269.826473,178.78999 L269.9942,178.831242 L270.120222,178.916012 L270.217232,179.15355 L270.175527,179.334423 L269.9942,179.390634 L269.980148,179.754194 L269.9942,179.851203 L270.036812,180.004878 L270.021853,180.089194 L269.9942,180.172151 L269.980148,180.312226 L269.980148,180.591469 L270.008253,180.800448 L270.147875,181.27643 L270.231285,181.765105 L270.259844,182.015789 L270.259844,182.198475 L270.175527,182.448706 L269.923483,182.923781 L269.854579,183.14772 L269.882231,183.398403 L269.980148,183.553438 L270.10617,183.6781 L270.217232,183.874386 L270.273897,184.12507 L270.244884,184.292343 L269.980148,184.656356 L269.771169,185.158631 L269.84098,185.633253 L270.09257,186.053024 L270.469276,186.401624 L270.273897,186.750224 L270.175527,186.848594 L269.700905,187.197647 L269.630641,187.281511 L269.588482,187.39348 L269.574883,187.630565 L269.547231,187.714881 L269.338252,187.854956 L269.129273,187.868556 L268.905335,187.854956 L268.694996,187.882155 L268.22128,188.189957 L268.024541,188.287873 L267.927985,188.426588 L267.815562,188.762495 L267.717646,188.929769 L267.815562,189.138748 L267.899879,189.627423 L268.024541,189.824162 L268.164616,189.865414 L268.457911,189.907572 L268.583933,189.948824 L268.708595,190.060793 L268.863176,190.298784 L269.114314,190.606133 L269.56083,191.415756 L269.365904,191.736704 L269.30924,191.890831 L269.323292,192.044052 L269.281587,192.170074 L269.21223,192.532727 L269.184578,192.589392 L269.072608,192.672348 L269.044956,192.743066 L269.044956,192.826023 L269.086661,192.965644 L269.086661,193.036361 L269.072608,193.161023 L269.058556,193.399014 L269.015944,193.538183 L268.737608,193.957953 L268.625185,194.027311 L268.373595,194.13928 L268.290638,194.208637 L268.207228,194.404017 L268.22128,194.557238 L268.262985,194.697312 L268.276585,194.822881 L268.23488,194.962956 L268.107951,195.200947 L268.052647,195.340568 L268.052647,195.479283 L268.080299,195.577199 L268.094352,195.689622 L267.96969,195.996517 L267.801056,196.065874 L266.167758,196.27576 L265.818704,196.26216 L265.580713,196.108486 L265.385787,196.163791 L264.938817,196.150191 L264.728478,196.191896 L264.548058,196.27576 L264.393478,196.317918 L261.990901,196.205496 L262.088817,196.44394 L262.45283,197.449396 L262.64821,197.630722 L262.98321,198.077239 L263.164537,198.259472 L263.542149,198.454398 L263.640066,198.580873 L263.751128,198.902274 L263.918855,199.041443 L264.156846,199.152052 L264.617416,199.27762 L264.700826,199.417695 L264.700826,199.72459 L264.645068,200.045991 L264.562111,200.256784 L264.505447,200.45171 L264.505447,200.772204 L264.562111,201.080459 L264.645068,201.247733 L264.855407,201.415007 L265.399386,202.085915 L265.245712,202.350652 L265.232113,202.644854 L265.31507,202.923643 L265.46965,203.147582 L265.747987,203.300803 L266.056695,203.385119 L266.320978,203.510688 L266.461506,203.776331 L266.433401,203.915953 L266.307379,204.194289 L266.320978,204.319858 L266.433401,204.43228 L266.600675,204.51569 L266.768402,204.544702 L266.908023,204.487131 L267.172306,204.319858 L267.466055,204.292659 L267.759351,204.376522 L268.010942,204.544702 L268.193628,204.71107 L268.345942,204.96266 L268.416206,205.24145 L268.345942,205.493947 L268.471964,205.59141 L268.486017,205.716072 L268.430259,205.856147 L268.31829,205.995768 L267.942038,206.722887 L267.68954,207.071488 L267.452003,207.266414 L267.607037,207.545203 L267.550372,207.770048 L267.563972,207.964974 L267.479655,208.020732 L267.341393,208.132248 L267.201319,208.272322 L267.019992,208.357093 L266.502758,208.467702 L266.391696,208.565165 L266.335031,208.70524 L266.181357,208.886566 L266.00003,209.040694 L265.832757,209.111411 L265.176808,209.640884 L265.162755,209.696642 L265.064386,209.879329 L265.021774,209.976792 L264.952417,210.465467 L264.924764,210.786868 L264.924764,210.925583 L264.938817,211.038005 L264.994122,211.136375 L265.064386,211.17808 L265.133743,211.232931 L265.162755,211.345354 L265.106091,211.54028 L264.645068,212.211188 L264.449689,212.923348 L264.33772,213.091528 L264.464195,213.271948 L264.449689,213.440128 L264.33772,213.593349 L264.184499,213.760623 L264.33772,213.845846 L264.659121,214.082931 L265.832757,215.590661 L265.874462,215.675884 L265.943366,215.857211 L265.986431,215.939714 L266.056695,216.024485 L266.251168,216.164559 L266.307379,216.232557 L266.754349,217.379447 L267.019992,217.615625 L267.186359,217.615625 L267.466055,217.559867 L267.731699,217.434298 L267.87132,217.239372 L267.927985,217.252518 L267.955637,217.252518 L268.248933,217.168655 L268.556281,217.141003 L268.737608,217.281077 L268.625185,217.686342 L268.542228,217.895321 L268.388101,218.369943 L268.178669,218.80286 L268.080299,219.222631 L267.983289,219.403958 L267.885373,219.739865 L267.607037,219.766157 L266.97874,219.515927 L266.782001,219.501421 L266.684991,219.612936 L266.571662,219.906232 L266.461506,220.059453 L266.377643,220.117024 L266.236662,220.158729 L266.097947,220.227633 L265.957419,220.213581 L265.818704,220.172782 L265.679083,220.158729 L265.553061,220.24078 L265.20446,220.312403 L265.133743,220.394907 L265.133743,220.506423 L265.162755,220.646498 L265.162755,220.786119 L265.106091,221.038616 L264.86946,221.693658 L264.742531,222.169187 L264.434729,222.71362 L263.416128,223.566308 L263.219842,223.859604 L263.067527,224.278015 L262.969158,224.948469 L262.912493,225.158355 L262.843136,225.268964 L262.54984,225.590365 L262.439231,225.660176 L262.46643,225.744493 L262.45283,225.814303 L262.425178,225.870061 L262.411125,225.939872 L262.297796,226.080853 L262.256544,226.135705 L262.256544,226.288926 L262.270597,226.302978 L262.312302,226.302978 L262.368514,226.498811 L262.382566,226.596274 L262.411125,226.680138 L262.508135,226.834265 L262.591545,226.917675 L262.787831,227.071803 L262.843136,227.155666 L262.927453,227.407257 L262.99681,227.741804 L263.025822,228.049153 L262.99681,228.20328 L263.219842,228.664303 L263.304158,229.767675 L263.416128,230.227791 L263.34677,230.43677 L263.402528,230.744118 L263.569802,231.359722 L263.751128,231.456732 L263.947868,231.541048 L264.156846,231.512489 L264.379425,231.31711 L264.548058,231.247753 L267.243024,231.177942 L267.089803,231.108131 L266.768402,231.06552 L266.614274,230.982109 L267.493708,231.06552 L267.857721,231.177942 L268.835524,231.652564 L268.988292,231.638511 L268.974239,231.484384 L268.863176,231.234607 L268.625185,230.855634 L268.625185,230.773584 L268.974239,230.773584 L269.281587,230.548286 L269.84098,229.920896 L269.714504,230.17294 L269.323292,230.758171 L269.184578,230.869687 L269.11522,231.038321 L269.184578,231.400974 L269.379504,231.708322 L269.602988,231.819838 L269.826473,231.918208 L270.287949,232.295367 L270.482875,232.378777 L270.748519,232.449494 L271.041814,232.602715 L273.765339,234.572374 L274.08674,234.907375 L274.338331,235.339386 L274.700984,236.261884 L275.008332,236.666696 L275.398637,236.666696 L275.469355,236.513475 L275.398637,235.67484 L275.482954,235.381997 L275.692386,235.21427 L276.168369,235.032037 L276.377347,235.21427 L276.655684,235.21427 L276.934926,235.101848 L277.145265,234.948627 L276.824317,235.368398 L275.915871,235.297681 L275.539619,235.619082 L275.482954,235.939576 L275.581324,236.513475 L275.469355,236.83397 L275.315681,236.959538 L274.89591,237.113666 L274.687384,237.211129 L274.477045,237.435067 L274.421741,237.686657 L274.490645,237.936888 L274.645679,238.202531 L274.756742,238.468175 L274.89591,239.013514 L275.06409,239.180788 L275.260376,239.236093 L276.013334,239.291851 L276.125303,239.361661 L276.572273,239.767833 L276.670643,240.031663 L276.599926,240.451434 L276.684242,240.661319 L276.879168,240.688971 L277.104013,240.618707 L277.18697,240.633213 L276.948979,240.898403 L276.824317,241.080183 L276.74,241.164047 L276.599926,241.191699 L276.432652,240.99496 L276.348335,240.857152 L276.405,240.744729 L276.307083,240.618707 L275.95803,240.297306 L275.86102,240.28416 L275.720039,240.353064 L275.804356,240.479993 L276.040987,240.688971 L276.292577,241.164047 L276.599926,241.582004 L276.865569,242.182649 L277.117613,242.629618 L277.214169,242.868516 L277.284887,243.118293 L277.312539,243.342232 L277.383256,243.538064 L277.927236,243.942422 L278.177466,244.362193 L278.401858,244.823669 L278.695607,245.199922 L279.156176,245.367196 L279.644851,245.269733 L279.882389,245.269733 L280.091821,245.409807 L280.818034,246.121514 L281.056025,246.470568 L281.222845,246.623335 L281.698374,246.76341 L281.921406,246.903485 L282.159397,246.988255 L282.424134,246.888978 L282.620419,247.043106 L283.081442,247.309656 L283.486707,247.644203 L283.625422,247.616098 L283.794055,247.517728 L285.105953,247.128329 L285.133605,247.029053 L285.202962,246.961056 L285.27368,246.862686 L285.316292,246.708559 L285.287733,246.596136 L285.231975,246.456061 L285.202962,246.330493 L285.259627,246.233936 L285.18891,246.05261 L285.17531,245.855871 L285.231975,245.688597 L285.330344,245.577081 L285.371596,245.437913 L285.580575,245.437913 L285.846218,245.535376 L286.027998,245.660945 L286.110955,245.884883 L286.334893,245.884883 L286.389745,245.228028 L286.446409,245.088406 L286.94959,244.334088 L286.935537,244.236625 L286.893832,244.110603 L286.879779,244.012687 L287.062013,243.942422 L287.145423,243.888478 L287.228833,243.816854 L287.284138,243.748856 L287.382507,243.538064 L287.563834,243.03579 L287.773719,242.825904 L288.081974,242.281472 L288.220236,242.086092 L288.360764,242.001775 L288.541637,241.946017 L288.946449,241.889353 L289.086523,241.834502 L289.603757,241.5131 L290.356716,241.317268 L291.140046,240.898403 L291.264708,240.800487 L291.376677,240.772835 L291.628721,240.785981 L293.010882,241.038478 L293.471905,241.051624 L293.946527,240.954615 L294.184972,240.857152 L294.281528,240.800487 L294.364485,240.717077 L294.575277,240.270107 L295.916187,239.431472 L296.000504,239.305903 L296.042209,239.082872 L296.153271,238.887946 L296.307399,238.720672 L296.377209,238.60825 L296.684105,238.06291 L296.824179,237.937795 L297.019105,237.882037 L299.002364,238.035258 L299.309259,237.993553 L300.594864,237.560636 L300.875014,237.53253 L301.962973,237.659005 L303.080851,237.35075 L303.569979,237.393362 L304.421307,237.672151 L304.910435,237.6309 L305.622142,237.435067 L305.734111,237.490825 L305.860586,237.601434 L307.522444,238.076056 L307.927709,238.091016 L308.414571,237.908782 L308.638962,237.741509 L308.792636,237.588288 L308.95991,237.477679 L310.092294,237.337604 L312.940934,237.51893 L313.359798,237.461359 L313.568777,237.477679 L313.806768,237.615487 L314.114116,238.022112 L314.226539,238.091016 L314.324455,238.06291 L314.421012,237.937795 L314.518475,237.908782 L314.72836,238.008059 L314.952298,238.175332 L315.17533,238.286848 L315.398815,238.188479 L315.595101,238.259196 L315.902449,238.202531 L316.182145,238.076056 L316.306354,237.951848 L316.363019,237.908782 L316.641808,237.616393 L316.865746,237.00215 L317.158589,236.554727 L317.340369,236.45681 L318.29052,236.303589 L318.429234,236.330788 L318.736583,236.45681 L318.834952,236.484916 L319.057984,236.429158 L319.421997,236.233325 L319.630976,236.192074 L319.882113,236.219273 L320.120557,236.317642 L320.511769,236.554727 L320.804612,236.876128 L321.070255,237.253287 L321.377604,237.574688 L321.795561,237.699804 L322.032646,237.672151 L322.257491,237.588288 L322.424311,237.448213 L322.535827,237.183476 L322.634196,237.140865 L322.758858,237.099613 L322.859041,237.029349 L322.912986,236.917833 L322.968744,236.65219 L323.010449,236.554727 L323.192682,236.359347 L323.374009,236.317642 L323.50003,236.149462 L323.611546,235.57647 L323.765674,235.395144 L324.155979,235.130407 L324.296054,234.990332 L324.364958,234.962226 L324.617455,234.948627 L324.701319,234.921428 L324.757077,234.850711 L324.771129,234.724689 L324.757077,234.61408 L324.715372,234.501657 L324.687266,234.376089 L324.701319,234.207908 L324.938856,233.818056 L325.273404,232.965368 L325.330068,232.574156 L325.46833,232.196997 L325.552193,231.708322 L325.748026,231.149836 L326.027722,230.758171 L326.683671,230.102222 L327.018218,229.6276 L327.173253,229.346997 L327.228104,229.09722 L327.325567,228.971652 L327.898559,228.565933 L328.472004,228.31389 L328.639731,228.286237 L328.73674,228.244532 L328.961132,228.049153 L329.058142,227.978889 L329.141552,227.978889 L329.198216,228.021501 L329.268027,228.035553 L329.36549,227.965743 L329.378636,227.867373 L329.491965,227.40635 L329.519618,227.33654 L329.560416,227.267182 L329.645186,227.183319 L329.728597,227.113055 L329.783448,227.085856 L330.007386,227.043244 L330.190526,226.917675 L330.677841,226.429 L330.860074,226.317031 L331.055,226.247221 L331.557728,226.206422 L332.172425,226.039148 L332.2989,226.039148 L332.703258,226.163357 L332.772616,226.234074 L332.828373,226.302978 L332.885038,226.330631 L333.442617,226.499718 L333.694208,226.526917 L333.541893,226.414494 L333.512881,226.274873 L333.570452,226.135705 L333.694208,226.023282 L333.863295,225.954378 L334.057314,225.926726 L334.77174,225.939872 L335.13394,226.010136 L335.580003,226.220928 L335.67928,226.288926 L335.944016,226.107599 L336.097237,226.039148 L336.236859,226.010136 L336.65663,226.010136 L336.977124,225.842862 L337.158904,225.800251 L337.465799,225.688735 L337.578222,225.619377 L337.674778,225.688735 L337.773148,225.688735 L337.871517,225.633884 L337.954474,225.534607 L338.107695,225.409039 L338.151213,225.241312 L338.080496,225.074038 L337.871517,224.961616 L337.773148,225.128889 L337.550116,225.10169 L337.298525,224.975668 L336.935419,224.739491 L336.823903,224.599416 L336.460344,223.943467 L336.418639,223.677824 L336.517008,223.482444 L336.766332,223.41218 L336.90822,223.286612 L337.172957,222.546346 L337.480305,222.923505 L337.53697,222.783884 L337.480305,222.210892 L337.508411,221.987861 L337.954474,220.871342 L338.066897,220.688203 L338.274969,220.465624 L338.444509,220.353202 L338.540612,220.227633 L338.569171,219.962897 L338.485761,218.956988 L338.513413,218.35589 L338.555118,218.132859 L338.751404,217.713994 L338.903719,217.491869 L339.100458,217.322782 L339.352502,217.252518 L339.756406,217.281077 L339.953146,217.226226 L340.077808,217.044446 L340.049702,215.843158 L340.146712,215.284672 L340.539284,215.311871 L340.580536,215.102893 L340.692051,214.99047 L340.845272,214.948765 L341.209285,214.934712 L341.279096,214.893007 L341.279096,214.753386 L341.320801,214.474143 L341.446823,214.264711 L341.852088,213.817287 L341.934591,213.760623 L342.005309,213.607402 L342.173489,213.481833 L343.234249,213.034864 L343.582849,212.78418 L343.862999,212.672664 L344.365727,212.560241 L344.828109,212.560241 L344.99357,212.490884 L345.16175,212.309557 L345.231561,212.112818 L345.217508,211.918345 L345.217508,211.709367 L345.34217,211.470922 L345.497204,211.345354 L345.649518,211.289596 L345.985879,211.289596 L346.193951,211.247891 L346.348079,211.17808 L346.5013,211.136375 L346.726145,211.192133 L346.641375,210.982247 L346.754704,210.758309 L346.865313,210.660846 L346.991788,210.591035 L347.130049,210.437814 L347.21482,210.395203 L347.423798,210.38115 L347.465504,210.326299 L347.494516,210.298193 L347.620538,210.004897 L347.772852,209.851676 L347.941032,209.753307 L348.122359,209.712055 L348.332244,209.698456 L348.415655,209.613685 L348.415655,209.39156 L348.345391,209.207967 L348.234781,209.236526 L348.065694,208.998988 L347.982737,208.901072 L347.856716,208.845314 L347.968231,208.760997 L348.009936,208.733345 L347.661336,208.34304 L347.185807,208.077396 L346.655427,207.924176 L346.153153,207.866604 L345.846258,207.784554 L345.607813,207.602774 L345.189856,207.169857 L344.770538,206.834403 L344.602811,206.624518 L344.183494,205.898758 L343.764629,205.325766 L343.498986,204.627206 L343.163532,203.957658 L343.121827,203.705614 L343.149932,203.551486 L343.304967,203.411412 L343.346672,203.258191 L343.319019,203.161634 L343.177585,202.895991 L342.591447,201.331597 L342.312657,200.297582 L342.22834,199.684245 L342.214287,199.041443 L342.283192,198.454398 L342.396521,198.202807 L342.745574,197.70008 L342.828531,197.505154 L342.884289,197.266709 L343.02527,197.015572 L343.177585,196.806593 L343.443228,196.512844 L343.568797,196.331518 L343.639514,196.093527 L343.667166,195.74538 L343.722924,195.591705 L344.868454,193.678711 L345.567015,192.894927 L345.860311,192.46337 L346.334933,191.443408 L346.627775,191.02409 L347.327242,190.59072 L347.634591,190.269772 L348.44376,188.928862 L348.97414,188.37083 L349.351299,187.839543 L349.491374,187.685869 L349.784216,187.435185 L349.909332,187.281511 L350.66501,185.773328 L350.958306,185.480032 L351.028116,185.101966 L351.181337,184.865335 L351.376263,184.654996 L351.572549,184.37666 L352.102023,183.091508 L352.326414,182.868023 L352.508647,182.672191 L352.730772,182.518063 L353.653271,182.224768 L353.988272,182.197115 L354.226263,182.323137 L353.694976,182.825412 L353.33187,182.993139 L352.926605,182.923781 L353.121984,183.272382 L353.402134,183.258782 L353.694976,183.049803 L353.932514,182.811359 L354.476947,182.099652 L354.782935,181.820409 L355.496002,181.610071 L355.677328,181.499915 L355.789751,181.289576 L355.860468,181.233818 L355.928919,181.164461 L355.957025,181.052492 L355.928919,180.968175 L355.860468,180.92647 L355.775698,180.899271 L355.705887,180.842606 L355.553573,180.674426 L355.259371,180.437795 L354.993727,180.102794 L354.868159,179.977225 L354.714938,179.892909 L354.533611,179.879309 L354.686832,179.990825 L354.728991,180.102794 L354.673233,180.172151 L354.533611,180.172151 L354.210397,180.046129 L353.918914,179.879309 L354.127893,179.459538 L355.133802,178.482188 L355.748952,177.673019 L357.004639,176.430025 L357.369558,176.164382 L357.787062,175.969003 L358.247632,175.884686 L358.736307,175.870633 L358.820624,175.898739 L359.08536,176.066012 L359.198689,176.010708 L359.254447,175.926391 L359.296152,175.815328 L359.491532,175.465368 L359.575849,175.396011 L360.356459,175.228737 L363.150701,174.181123 L364.100852,174.110406 L366.210133,173.538774 L366.586385,173.552373 L366.696994,173.524721 L366.920933,173.3851 L367.662105,173.188814 L368.416423,173.119456 L368.86158,172.993888 L369.644457,172.560517 L370.00711,172.225517 L370.328511,171.778547 L370.874304,170.829302 L371.167147,170.423584 L371.488548,170.1729 L372.312677,169.82294 L372.955479,169.390023 Z M337.646672,224.486993 L337.871517,224.753543 L337.716483,224.236763 L337.730536,223.899949 L337.829812,223.59396 L337.773148,223.51055 L337.70243,223.370475 L337.660725,223.314717 L337.646672,223.286612 L337.646672,223.244907 L337.633073,223.216801 L337.578222,223.216801 L337.619927,223.608013 L337.605874,224.069036 L337.646672,224.486993 Z M367.731916,155.591528 L367.983506,155.633233 L368.009798,155.633233 L368.122221,155.605581 L368.163926,155.591528 L368.039264,155.382096 L367.925935,155.130505 L367.815326,154.963232 L367.689304,155.018536 L367.563735,155.28418 L367.576881,155.479559 L367.731916,155.591528 Z M362.773542,210.283687 L362.55051,210.073801 L362.005171,209.30543 L361.977065,209.279138 L361.977065,209.251486 L361.963466,209.236526 L361.921307,209.236526 L361.879602,209.459558 L361.76718,209.627738 L361.599906,209.767813 L361.544148,209.682589 L361.446685,209.739254 L361.376421,209.836717 L361.418126,209.892475 L361.502443,209.949139 L361.502443,210.060655 L361.446685,210.186224 L361.390927,210.283687 L361.459831,210.283687 L361.390927,210.38115 L361.459831,210.605088 L361.502443,210.675352 L361.5854,210.660846 L361.906801,210.493572 L362.019224,210.409709 L362.145245,210.368004 L362.326572,210.368004 L362.969374,210.702551 L363.34472,210.814974 L363.610364,210.660846 L363.624417,210.353951 L363.34472,210.269634 L362.773542,210.283687 Z M394.225987,193.091666 L393.987089,192.700001 L393.946291,192.491022 L393.889626,192.253031 L393.751365,192.211779 L393.568225,192.225379 L393.401858,192.141062 L393.595877,192.058105 L393.611743,191.848673 L393.513374,191.610682 L393.401858,191.457461 L393.317541,191.415756 L393.150267,191.388103 L393.094509,191.359091 L392.98118,191.248482 L392.926329,191.177765 L392.857425,191.065795 L392.54917,190.856363 L392.480266,190.758447 L392.521518,190.563068 L392.451707,190.480111 L392.381896,190.535415 L392.395949,190.744848 L392.284433,190.912121 L392.200116,191.010038 L392.130306,191.052196 L392.059588,190.996438 L392.046442,190.884016 L392.074548,190.787459 L392.103107,190.744848 L391.852423,190.549468 L391.808904,190.423446 L391.781705,190.255719 L391.655684,190.32553 L391.474357,190.478751 L391.320229,190.549468 L391.194661,190.563068 L390.747238,190.549468 L389.672425,190.661437 L389.407688,190.549468 L388.639317,190.717195 L388.499242,190.898068 L388.471137,191.065795 L388.429431,191.136513 L388.429431,191.205417 L388.540947,191.373144 L388.639317,191.457461 L388.862348,191.540418 L388.945759,191.625188 L388.820643,191.750756 L388.778485,191.945682 L388.764885,192.155115 L388.722727,192.323748 L389.156551,192.477422 L389.952574,192.323748 L390.399544,192.323748 L390.775797,192.477422 L392.577729,193.663298 L393.359246,194.054963 L393.933145,193.984699 L393.959437,193.035001 L394.058713,193.091666 L394.141217,193.161023 L394.211028,193.24534 L394.253639,193.328297 L394.324357,193.328297 L394.225987,193.091666 Z M363.821156,204.557849 L363.876007,204.43228 L363.793504,204.33391 L363.695587,204.265006 L363.569565,204.237354 L363.374186,204.265006 L363.303015,204.237354 L363.122595,204.08368 L362.969374,204.069174 L362.815247,204.138531 L362.715971,204.278152 L362.479793,204.237354 L362.172444,204.319858 L361.865549,204.473078 L361.642971,204.654405 L361.515589,204.571448 L361.292557,204.738722 L361.194188,204.641259 L361.125284,204.641259 L360.85964,204.934554 L360.692367,205.074176 L360.538239,205.13084 L360.41403,205.284968 L360.41403,205.618609 L360.510587,206.219706 L360.244943,206.219706 L360.134334,206.247359 L360.049564,206.317169 L359.923542,206.234212 L359.79888,206.247359 L359.685551,206.317169 L359.588995,206.401486 L359.685551,206.56876 L359.643846,206.778645 L359.505585,207.114099 L359.54729,207.377929 L359.672405,207.532057 L360.022819,207.770048 L360.092629,207.588721 L360.272596,207.532057 L360.455736,207.588721 L360.538239,207.770048 L360.650662,207.742849 L360.663808,207.742849 L360.707326,207.755995 L360.77623,207.755995 L360.943504,207.685278 L361.13843,207.839405 L361.349222,208.035691 L361.544148,208.132248 L361.628918,207.770048 L361.75358,207.463153 L361.906801,207.197509 L362.088581,206.959972 L362.130286,207.01573 L362.201003,207.085087 L362.242708,207.141752 L362.368277,206.988531 L362.675626,206.82035 L362.815247,206.708835 L363.165207,206.177548 L363.555512,205.925957 L363.610364,205.842547 L363.638923,205.618609 L363.735932,205.438189 L363.89006,205.325766 L364.072746,205.31262 L363.89006,204.837998 L363.821156,204.557849 Z M384.142419,195.061325 L383.513669,194.68326 L383.191362,194.585343 L383.038594,194.655154 L382.7045,195.004661 L382.507307,195.088524 L381.738483,195.088524 L381.417988,195.004661 L381.068481,194.808828 L380.776092,194.529585 L380.650524,194.208637 L380.664576,193.914888 L380.74708,193.802919 L381.097493,193.719962 L381.278367,193.635192 L381.334125,193.593941 L381.404842,193.525036 L381.44564,193.412614 L381.432494,193.300645 L381.44564,193.202275 L381.558063,193.119318 L381.558063,193.035001 L380.705375,193.272993 L380.31507,193.202275 L380.343175,192.742159 L380.425679,192.742159 L380.553061,192.81197 L380.691322,192.700001 L380.84545,192.532727 L381.012723,192.44841 L381.152345,192.420758 L381.544917,192.238978 L381.655526,192.156021 L381.516358,192.071704 L381.489159,192.085304 L381.432494,192.141062 L381.278367,191.945682 L380.146889,192.44841 L379.532192,192.601631 L378.904349,192.658296 L378.554842,192.756665 L377.884388,193.202275 L377.563893,193.357309 L377.45147,193.371362 L377.229345,193.357309 L377.185827,193.384962 L377.116923,193.509624 L377.074311,193.538183 L376.907944,193.580341 L376.780562,193.678711 L376.656354,193.802919 L376.502679,193.928941 L376.165865,194.096668 L376.083815,194.110268 L376.013551,194.180532 L375.789613,194.446628 L375.748361,194.474281 L375.706656,194.543638 L375.441013,194.808828 L375.385255,194.822881 L375.258326,194.795229 L375.202568,194.808828 L375.175369,194.850987 L375.091959,195.03186 L375.049801,195.102577 L374.700747,195.479283 L374.519421,195.632957 L374.322681,195.703221 L374.09965,195.730874 L373.932376,195.815644 L373.387036,196.400875 L373.19211,196.526444 L372.955479,196.583562 L372.158096,197.085383 L372.088739,197.295268 L372.075592,197.58811 L372.130444,197.840608 L372.327183,198.007881 L372.424193,198.259472 L372.536162,198.342882 L372.605066,198.329283 L372.912414,198.147049 L372.969079,198.286671 L373.037983,198.329283 L373.1223,198.272618 L373.205257,198.147049 L373.499459,198.454398 L373.401089,198.511062 L373.359384,198.608072 L373.387036,198.720948 L373.415142,198.748147 L373.625028,199.111253 L373.932376,199.069548 L374.212072,198.775799 L374.336734,198.384134 L374.490862,198.21686 L375.202568,197.812502 L375.441013,197.728185 L375.733855,197.812502 L376.111014,198.035534 L376.431509,198.329283 L376.558437,198.622578 L376.39071,198.970272 L376.362605,199.209623 L376.530785,199.306179 L376.642301,200.08951 L376.921997,200.437657 L377.353554,200.60493 L378.331811,200.674741 L378.444233,200.660688 L378.6106,200.590878 L378.751582,200.577278 L378.848591,200.60493 L379.016318,200.744552 L379.127834,200.772204 L379.210791,200.828869 L379.238443,200.953531 L379.267456,201.121711 L379.323213,201.247733 L379.393478,201.303491 L379.560751,201.387354 L379.630562,201.442206 L379.93791,201.890536 L379.980069,201.946293 L380.077532,201.904588 L380.175901,201.834778 L380.217607,201.792166 L380.30147,201.652091 L380.733027,201.289438 L381.752989,200.660688 L382.103402,200.284436 L382.283822,199.697391 L382.325527,199.739096 L382.43795,199.809814 L382.535413,199.01379 L382.884466,198.329283 L383.345489,197.76989 L383.792006,197.351026 L383.708595,197.127088 L383.751207,196.904056 L383.875869,196.737689 L384.057649,196.666518 L384.21223,196.583562 L384.323292,196.387276 L384.476967,195.982464 L384.406249,195.802044 L384.435715,195.717274 L384.504619,195.661969 L384.519578,195.577199 L384.504619,195.46523 L384.462914,195.352808 L384.449768,195.242199 L384.519578,195.088524 L384.142419,195.061325 Z" id="Fill-3"></path>
        </g>
    </g>
</svg>