
<svg width="155px" height="116px" viewBox="0 0 155 116" version="1.1" xmlns="http://www.w3.org/2000/svg" xmlns:xlink="http://www.w3.org/1999/xlink">
    <!-- Generator: Sketch 51.2 (57519) - http://www.bohemiancoding.com/sketch -->
    <desc>Created with Sketch.</desc>
    <defs></defs>
    <g id="Page-1" stroke="none" stroke-width="1" fill="none" fill-rule="evenodd">
        <g id="GN-EPS-01-0001" transform="translate(-210.000000, -158.000000)" >
            <polyline id="Fill-3" points="287.217799 164.255309 287.212632 164.664535 286.81994 164.722923 286.318223 164.702771 285.995285 164.877416 285.906413 165.354848 286.043339 166.191903 286.050572 166.675534 285.661497 167.512073 285.071941 168.128497 284.735569 168.745437 285.114311 169.59541 285.505453 169.947283 286.77757 170.51307 287.148561 170.814307 287.990267 171.937614 288.334389 172.23885 288.739999 172.509085 289.166794 172.729716 289.574988 172.867675 289.980081 172.867675 290.649725 172.596924 290.988681 172.573673 291.316785 172.487384 291.625256 172.172713 291.847954 171.766586 291.978679 171.150162 292.116121 171.084541 292.29335 171.06904 292.457661 170.996185 292.752697 170.528571 292.867921 170.389062 293.538598 169.90388 293.776797 169.633129 294.047549 168.73097 294.203075 168.519122 294.484161 168.458152 294.968309 168.472103 295.872535 168.172416 296.286412 168.156399 296.794329 168.290741 297.16532 168.560975 298.000309 169.868745 298.484457 170.227335 298.970672 170.462434 299.34528 170.76367 299.478072 171.350642 299.422269 171.540271 299.217655 171.915396 299.189237 172.083324 299.286377 172.311189 299.842346 172.867675 300.687152 174.482881 301.289625 175.108606 302.150965 175.069853 302.460469 174.924144 302.666632 174.726247 302.893464 174.365074 303.079993 173.977548 303.156465 173.684062 303.317158 173.469115 303.695383 173.213865 304.124762 172.993233 304.446149 172.889893 304.30044 172.427963 304.531922 172.172713 304.947349 171.97275 305.369493 171.67048 305.373627 171.519086 305.31679 171.297422 305.32299 171.091775 305.517787 171.004453 305.591675 170.923331 305.421164 170.497569 305.442348 170.301223 305.818506 170.161714 306.812122 170.242319 307.014668 169.933849 307.159861 169.765921 307.874458 169.170682 308.14676 168.986737 308.283685 169.09731 308.421128 169.170682 308.730115 169.274022 308.71513 168.971235 308.832421 168.892697 309.02205 168.877713 309.21943 168.767139 309.308303 168.569242 309.349639 168.522739 309.497932 168.634863 309.557352 168.751638 309.611089 168.758355 309.736647 168.510338 310.526683 168.194634 310.692544 168.275756 310.793817 168.414232 310.924542 168.546508 311.610204 168.677233 312.338235 169.024972 312.744879 169.105061 313.253312 169.082843 313.402122 169.105061 313.606219 169.1991 313.888337 169.441433 314.053165 169.54529 314.266562 169.610394 314.613268 169.625895 314.823566 169.677049 315.075715 169.807774 315.500443 170.138979 315.75311 170.25472 316.148903 170.382345 316.87435 170.76367 317.290811 170.837042 317.671103 170.938832 318.386733 171.512369 318.763408 171.694765 318.962338 171.694765 319.387066 171.628627 319.532775 171.628627 319.753923 171.716983 320.091329 171.979467 320.303176 172.106575 320.676751 172.230583 321.83416 172.252801 322.335876 171.716983 322.595777 171.350642 322.694467 171.084541 322.65003 170.644829 322.679482 170.285722 322.826742 169.962267 323.141929 169.625895 323.805373 169.1991 326.143444 168.414232 326.553187 168.047891 326.892143 167.812793 327.739532 167.407699 328.097606 167.357579 329.37334 167.577177 329.859038 167.094062 329.961862 166.81401 329.897791 166.315911 330.171642 166.234789 330.356621 165.906167 330.448594 165.501591 330.434643 165.231356 330.317352 165.128016 329.967029 165.054128 329.812018 164.958021 329.711262 164.760125 329.701444 164.568429 329.644091 164.413936 329.07262 164.108049 328.696462 163.747392 328.395225 163.387768 328.286201 163.167654 328.585888 162.793562 329.568136 162.551746 329.913808 162.30373 330.057451 162.279962 330.177842 162.294946 330.454794 162.457707 330.74828 162.565697 330.90794 162.476825 331.062951 162.345583 331.332668 162.323365 332.921523 162.66232 333.798364 162.955806 336.98744 164.607182 337.360498 165.004008 337.59353 165.471622 337.626599 165.942336 337.439037 166.412534 337.166219 166.829511 336.945588 167.276457 336.909935 167.835011 336.978657 168.040658 337.18172 168.375996 337.252508 168.591977 337.403901 168.831726 337.656051 168.818809 338.063728 168.657081 338.377882 168.831726 338.649667 169.206334 338.813461 169.669298 338.793826 170.147246 338.482256 170.977067 338.391833 171.432281 338.479155 171.833757 338.861514 172.148945 339.320861 172.172713 339.795709 172.119493 340.22767 172.192864 340.605379 172.523553 340.695801 172.88266 340.67565 173.279486 340.707169 173.735216 340.809475 173.962047 340.949501 174.167177 341.062659 174.372308 341.07971 174.622907 340.036491 180.007962 340.424533 179.977476 340.77434 180.13972 341.117429 180.347434 341.491003 180.471959 341.921415 180.413055 342.256237 180.259595 342.545073 180.185707 342.828741 180.38257 343.288605 181.90167 343.358876 182.284028 343.531454 182.708239 343.761386 183.113333 343.994418 183.415086 345.128059 183.927653 345.689713 183.963305 346.222431 183.546328 346.338689 183.808812 346.513851 184.645867 346.679195 184.95382 346.924111 185.042693 347.499716 185.063361 348.754781 185.445203 349.380506 185.738689 349.843986 186.127248 349.469378 186.223354 349.037933 186.42125 348.788367 186.701302 348.957845 187.015456 349.339687 187.084177 349.719462 187.023207 349.932342 187.11828 349.815568 187.662365 349.572202 187.939834 349.192427 188.072109 348.772349 188.094844 348.404458 188.051958 347.601506 187.867495 347.405676 188.021472 347.188145 188.492703 347.204163 188.572792 347.269784 188.674065 347.314737 188.800657 347.277534 188.95205 347.208813 188.998037 347.002133 189.020771 346.927728 189.040406 346.75205 189.160281 346.325255 189.342159 346.174895 189.429998 345.923778 189.796856 345.804937 190.544522 345.628226 190.876243 345.444797 190.972866 345.022653 190.978033 344.854208 191.046238 344.662512 191.301488 344.655795 191.505068 344.709015 191.706065 344.693514 191.948397 344.475467 192.365891 343.51492 193.333672 343.330458 193.596672 343.159947 193.951129 343.080375 194.31747 343.174414 194.647125 343.490635 194.866723 343.81874 194.773717 344.176297 194.580471 344.588107 194.545335 344.937397 194.595972 345.312005 194.610956 345.680412 194.56807 346.014201 194.46473 346.388809 194.206379 346.595489 193.884991 347.132341 192.754967 347.480081 192.754967 347.896025 192.886209 348.318169 192.872258 348.538284 192.821105 348.727396 192.84849 349.113372 192.983349 349.317985 192.952347 349.718945 192.732232 349.967478 192.724482 350.425791 192.959581 350.857236 193.364157 351.178624 193.847272 351.303666 194.325737 351.333634 196.49743 351.286615 196.887022 351.164157 197.076135 351.016897 197.238379 350.581835 198.412323 350.537399 198.844284 351.085618 199.058715 351.178624 199.43384 351.502596 203.59328 351.733044 204.136333 352.368069 205.00904 352.887353 205.985604 353.268162 206.181951 353.716658 206.190218 354.194606 206.096178 354.515994 205.961836 354.692189 205.853329 354.831181 205.903966 355.038378 206.226903 355.107099 206.483187 355.131901 207.04174 355.244025 207.311975 355.647568 207.59306 356.188554 207.69485 357.318578 207.744453 357.722121 207.980069 358.029558 208.427532 358.243989 208.956116 358.380915 209.434064 358.423284 209.977634 358.310127 210.460749 357.859564 211.474515 357.647717 211.709614 357.494256 211.965381 357.388333 212.251633 357.318578 212.552353 356.921235 213.065953 356.443287 213.338255 355.384051 213.733014 354.994459 214.093154 354.574381 214.658425 354.351683 215.186493 354.550096 215.413325 354.813097 215.510981 354.733525 215.714044 354.476725 215.912457 354.031329 216.089169 354.014277 216.271564 354.079382 216.485995 354.155853 216.652889 354.225091 216.698359 354.341866 216.706626 354.46019 216.732978 354.536662 216.853369 354.584715 217.21971 354.61675 217.328734 354.582648 217.381954 354.482925 217.409856 354.420921 217.483227 354.50721 217.674923 354.594016 217.701792 354.983608 217.674923 355.078681 218.122386 354.286579 223.755973 354.297946 224.220487 354.369251 224.696369 354.467941 225.070977 354.623468 225.402182 355.833064 227.119695 356.181837 227.493269 356.521309 227.666881 356.973422 227.75627 357.438969 227.779005 357.821328 227.740252 358.246573 227.586276 359.037641 227.139846 359.477354 227.044773 360.33456 227.044773 360.443067 227.227685 359.895881 228.901795 359.82871 229.37716 359.087245 231.197496 359.109463 231.961697 360.166632 232.379191 360.423433 232.336305 360.63218 232.246916 360.805274 232.276884 361.09101 232.813219 361.316291 233.046768 361.778738 233.408975 362.645762 233.89054 362.907729 234.206244 362.545005 234.476479 362.050006 234.550367 361.640263 234.550367 361.238786 234.59687 359.37608 235.549149 359.061926 235.877254 359.060893 235.877254 358.858863 236.386205 358.75759 236.877587 358.668717 237.902721 358.290492 239.716857 358.499756 240.364283 359.451002 240.650535 359.910865 240.700138 361.157664 241.075263 361.249637 241.067513 361.467685 240.958489 361.590143 240.958489 361.726035 241.052528 361.892412 241.308812 361.990586 241.425586 362.383278 241.771776 362.526404 241.946937 363.022954 242.849613 363.2193 243.077995 363.798521 243.466554 363.946814 243.643782 364.055321 244.032341 364.005718 244.839944 364.052738 245.279656 364.311605 246.14358 364.310055 246.505787 364.161245 247.034889 364.096658 247.532471 364.22945 247.980451 364.660378 248.859875 363.450265 248.991117 362.875694 248.916712 362.403429 248.618059 361.75187 247.312357 361.306474 246.710917 360.852294 246.784289 360.774789 247.101026 360.829043 247.444632 360.792357 247.736051 360.43945 247.899845 360.090161 247.892612 359.752755 247.787721 359.455652 247.629611 359.227787 247.422414 359.067093 247.151146 358.955486 246.84991 358.812877 246.571925 358.553493 246.363694 358.25639 246.314091 357.938102 246.359561 357.318578 246.519221 357.126366 246.490803 356.762608 246.519221 356.59158 246.505787 356.456205 246.437583 356.228857 246.239686 356.051628 246.181816 355.631034 246.216951 354.940722 246.490803 354.515994 246.534206 353.772462 246.378679 353.480526 246.426215 352.472959 247.21625 352.357218 247.371777 352.359285 247.622377 352.467276 247.840942 352.613502 248.076557 352.722009 248.337491 352.755078 248.765319 352.497761 249.953214 352.497761 250.341773 352.546331 250.739632 352.48536 250.974731 352.147438 251.333838 352.116436 251.553953 353.842216 252.683977 355.867166 253.308668 356.066613 253.276633 357.318578 252.844671 357.575895 252.844671 357.59398 253.050318 357.473588 253.336053 357.318578 253.59337 357.193537 254.223228 357.202837 254.538932 357.318578 254.840685 357.705587 255.068034 358.053327 255.450392 358.30496 255.912839 358.421734 256.367536 358.053843 256.338601 357.80066 256.17584 357.600697 256.009462 357.395567 255.940741 356.525959 256.082317 356.209222 256.07405 356.248491 256.248695 356.213872 256.756095 355.999958 257.563698 354.96604 259.133951 354.918504 259.971523 355.071964 260.18337 355.537511 260.584847 355.643435 260.813228 355.603132 261.019909 355.483257 261.136166 355.348915 261.216772 355.252292 261.334063 355.171687 261.673018 355.095732 262.36333 354.998076 262.66405 354.328948 263.426184 354.314481 263.513506 354.372868 263.720703 354.35995 263.806475 354.275211 263.887081 354.041146 264.022456 353.94814 264.108229 353.532196 264.630096 353.433506 264.870879 353.424722 265.025372 353.492927 265.363811 353.482076 265.511071 352.885803 266.178131 352.130387 265.855194 351.342935 265.23722 350.646423 265.063608 349.907541 265.283723 349.520532 265.312141 349.022949 264.747904 348.499015 265.018655 347.556036 265.893429 346.927728 265.49557 346.258601 265.003154 345.869525 264.535023 345.740866 263.960969 345.852474 263.184884 343.374894 263.050542 343.210067 263.471137 342.665981 264.130447 342.521821 264.562408 342.472735 265.283723 342.441733 265.401014 342.318758 265.612861 342.281555 265.738936 342.304807 265.861911 342.389029 265.897563 342.482035 265.928565 342.537839 266.024671 342.560574 266.507786 342.479452 266.919597 342.273288 267.301955 341.921415 267.676563 341.342194 268.02792 341.217152 268.130743 341.142747 268.320372 341.111745 268.744584 341.033207 268.930079 340.858045 269.09129 340.517023 269.185329 340.322227 269.311404 339.944518 269.781602 339.757989 270.067337 339.657233 270.288485 339.702186 270.646559 339.854612 271.021167 339.950202 271.41851 339.81586 271.826186 339.585928 271.958462 338.685836 272.306718 338.410434 272.334103 338.015675 271.711479 337.749574 271.548718 337.639 272.039067 337.418369 271.93831 337.323813 271.966729 337.254058 272.297417 337.162602 272.306718 336.702222 272.44416 336.533777 272.540783 336.176737 272.510815 335.889968 272.663758 335.628518 272.908158 335.340199 273.112254 335.064797 273.201127 334.772345 273.245046 334.491776 273.339086 334.254094 273.553 334.448373 272.834786 334.374485 272.554218 333.966808 272.348054 333.806115 272.225079 333.795264 271.864939 333.677973 271.776066 333.213976 271.800351 333.088417 271.768833 332.57275 271.298635 332.290631 269.995516 331.989912 269.573888 331.669041 269.539786 330.961161 269.722181 330.634089 269.670511 330.510081 269.531519 330.365921 269.113508 330.222279 268.938346 330.048151 268.826222 329.897791 268.776619 329.600688 268.73735 329.253982 268.744584 329.062802 268.782819 328.977547 268.856191 328.933111 269.085606 328.827704 269.14916 328.706796 269.185329 328.393158 269.641576 328.157026 269.434379 327.754 268.73735 327.522001 269.076305 326.917461 269.663794 326.7454 269.752667 326.661178 269.687046 326.889559 269.485016 327.018218 269.273168 327.074022 269.033936 327.086939 268.744584 327.169611 268.488817 327.366991 268.291437 327.795336 267.969533 328.267083 267.262686 328.443795 266.816773 328.365257 266.531038 328.737281 266.097009 328.885574 265.861911 328.987364 265.30284 329.108272 264.990237 329.286534 264.725686 329.513365 264.546907 329.07262 264.041574 329.040584 263.339378 329.244164 262.597396 329.471513 262.061577 328.941378 261.387283 328.761049 261.029209 328.221097 260.345098 327.741599 259.47084 327.539569 258.605883 327.590206 257.724909 327.857856 256.822749 327.886792 256.756095 328.035601 256.565432 328.082105 256.353585 328.045419 256.140704 327.937945 255.912839 327.694579 255.628137 327.474465 255.603852 327.253833 255.781597 327.003234 256.082317 327.033719 255.839985 327.259517 255.465377 327.30292 255.252496 326.924178 253.74063 326.924178 253.498814 326.853907 253.247181 326.64826 253.13919 326.143444 253.035333 325.841174 252.815219 325.805005 252.258216 325.938313 251.665043 326.143444 251.333838 326.243167 251.237215 326.276752 251.143175 326.244717 251.047586 326.143444 250.958713 326.026669 250.754617 325.947097 250.519001 325.84014 250.299403 325.649478 250.122692 325.875276 249.886559 326.004451 249.785803 326.143444 249.712431 326.229216 249.674712 326.486533 249.520219 326.376992 249.461832 326.229216 249.300621 325.863909 249.044337 324.82224 248.605142 324.554072 248.22795 324.385628 248.111693 324.237335 248.282204 324.137095 248.411896 323.982601 248.494051 323.80589 248.516269 323.638996 248.494051 323.280405 248.501802 322.967801 248.573623 322.782823 248.516269 322.810724 248.134944 323.006554 247.868843 323.280405 247.680248 323.45195 247.429648 323.338792 246.980635 323.069591 246.710917 322.652614 246.519221 322.24287 246.519221 321.98917 246.80754 321.936984 247.239502 321.93285 247.540222 321.851211 247.590858 321.564442 247.281871 321.349495 246.915531 321.253389 246.54764 321.119563 245.564358 321.000205 245.207318 320.781641 244.936567 320.428734 244.882314 320.441135 245.140664 320.339862 245.323059 320.191569 245.476519 320.048443 245.654264 320.049993 245.821675 320.119747 245.982886 320.091329 246.124462 319.575145 246.270688 319.20002 246.468585 319.014008 246.519221 318.913251 246.387979 318.815595 246.29084 318.720005 246.239686 318.427036 246.320292 318.322662 246.336309 317.917569 246.344576 317.569313 246.387979 317.235524 246.499587 316.883651 246.680432 316.070364 247.312357 315.236926 247.802706 314.793597 247.877627 314.515095 247.783588 314.426223 247.503019 314.636003 246.526455 314.494427 246.216951 314.181823 246.042823 313.000129 245.742103 312.648772 245.73487 312.295866 245.843893 311.594186 246.534206 311.244897 246.734685 311.082136 246.378679 310.653791 246.541439 310.435743 246.584842 310.209945 246.571925 309.970713 246.60706 309.794001 246.54764 309.626074 246.452567 309.059253 246.277922 308.918194 246.270688 308.286785 246.359561 307.974698 246.474785 307.712214 246.645296 307.468848 246.872645 307.267852 247.159413 306.764069 248.177314 306.509852 248.501802 305.282171 249.69693 304.553106 250.180562 304.172815 250.326788 303.953217 250.284419 303.357461 249.894827 303.049507 249.770302 302.362296 249.732583 301.772223 249.925829 301.361446 250.358307 301.210053 251.063604 300.793592 250.687962 301.007506 250.014185 301.484938 249.308371 301.862646 248.859875 302.16905 248.356092 302.468736 246.557457 302.694017 246.526455 302.750854 246.359561 302.749821 246.108444 302.796841 245.83511 302.942034 245.58141 303.262905 245.279656 303.593593 244.670983 303.925315 244.230237 304.323691 243.891798 304.743769 243.812743 305.223267 243.775024 305.614926 243.50479 305.898078 243.100213 306.059806 242.652233 305.168497 241.456071 305.054823 241.259208 304.741702 241.032377 303.889146 239.900802 303.830242 239.848616 303.681949 239.746826 303.611161 239.666737 303.60031 239.585615 303.623562 239.366017 303.617362 239.276111 303.427732 238.681906 303.39363 238.476775 303.357461 236.950442 303.457184 236.224477 303.775472 234.990079 303.727419 234.677475 303.479402 234.469762 302.994221 234.330253 302.16905 234.249647 301.309776 234.279616 300.563144 234.052268 300.415367 233.296851 300.641682 232.386425 301.01164 231.733832 301.214703 231.594839 301.447219 231.491499 301.66785 231.350957 301.833711 231.109141 301.860063 230.918995 301.776874 230.560921 301.776357 230.383693 301.870397 230.118109 301.990271 229.88456 302.069843 229.657728 302.042975 229.392144 301.157866 228.621227 300.939819 228.519437 300.663384 228.334975 300.415367 228.115894 300.165801 227.747486 299.973072 227.705633 299.751924 227.705633 299.54731 227.675665 299.412968 227.705633 299.045077 227.690132 298.78776 227.602293 298.987724 227.420415 299.208871 227.264888 299.170119 227.147597 298.843047 226.934199 298.534577 226.597827 298.307229 226.282123 298.219906 225.908548 298.33048 225.387714 298.353732 225.093195 298.197172 224.954202 297.981707 224.850346 297.833414 224.65865 297.727491 224.087695 297.654119 223.910467 297.452089 223.705337 296.919371 223.338996 296.765394 223.134383 296.624851 222.582546 296.535462 222.420819 296.39957 222.311795 296.062164 222.186754 295.945907 222.112349 295.819315 221.914969 295.575432 221.205022 295.081467 220.25636 294.356019 219.334049 293.503979 218.511978 291.959044 217.535414 291.806101 217.293082 291.524499 215.905224 291.371556 215.443293 291.142657 215.244363 290.854338 215.216462 290.151625 215.002548 289.622524 214.950877 276.374319 215.024766 276.274596 216.301016 276.130953 216.497879 271.567969 217.489945 271.214029 217.474444 270.87094 217.400039 270.481348 217.254846 269.987899 216.953609 269.609157 216.610003 269.235583 216.367154 268.754534 216.351653 265.631595 217.01458 264.68965 217.358186 263.940434 217.790664 263.815909 217.983394 263.801958 218.114636 263.82831 218.254145 263.830377 218.474259 263.547225 220.027978 263.558592 220.093599 263.638164 220.329731 263.646432 220.433072 263.581327 220.483191 263.474887 220.469241 263.372063 220.469241 263.330211 220.572581 263.334861 220.830414 263.307476 220.903786 263.240305 220.916187 262.595462 221.313529 262.403766 221.505742 262.065327 222.098914 262.002807 222.164535 261.977488 223.052744 261.892749 223.235139 261.727405 223.250124 261.523825 223.222738 261.331613 223.295077 261.233956 223.470238 261.052077 224.16055 260.997307 224.25769 260.953388 224.308327 260.8857 224.344496 260.768926 224.380665 260.609782 224.454553 260.595831 224.541875 260.635617 224.639015 260.632517 224.738738 259.924637 227.015838 259.828014 227.147597 259.684371 227.264888 259.614616 227.346526 259.560879 227.470018 259.479757 227.602293 259.377967 227.578525 259.271527 227.506187 259.182654 227.493269 258.832331 227.690132 258.71504 227.795023 258.547629 228.013587 258.552796 228.180481 258.636502 228.373727 258.623584 228.534421 258.337332 228.61606 257.977192 228.797939 257.480126 229.620526 257.13342 229.905745 256.695257 229.979633 256.296365 229.951214 255.889721 229.979633 255.436058 230.221966 255.031481 229.804988 254.595903 230.103641 254.266764 230.749517 254.171691 231.350957 254.262114 231.564354 254.548366 231.916744 254.570068 232.085188 254.494113 232.107406 254.168591 232.143575 254.0513 232.204029 253.850304 232.489248 253.678242 232.790485 253.404391 233.450828 253.121756 233.794434 252.744564 234.0378 251.943161 234.426359 251.311753 234.890356 250.997083 234.940476 250.523785 234.770998 249.734783 234.279616 249.407711 234.200044 248.865176 234.295117 247.956299 234.581369 247.477318 234.940476 247.243252 234.801484 247.050523 234.623739 246.963717 234.38864 247.037089 234.075002 247.095476 234.060018 247.404463 234.075002 247.484551 234.0378 247.479384 233.964945 247.453033 233.875039 247.477318 233.794434 248.044655 233.216246 248.437347 232.571404 248.681747 232.254149 249.037237 232.05677 249.406161 232.042302 250.073222 232.173027 250.456097 232.05677 250.456097 231.931211 249.192764 231.976164 248.593908 231.916744 248.341758 231.703346 248.377927 231.622741 248.560839 231.45533 248.624393 231.344239 248.624393 231.073488 248.787671 230.646694 248.893594 230.214215 248.437347 230.69113 248.234801 231.197496 248.113893 231.748816 247.903079 232.358523 247.396712 232.139442 247.181765 231.996832 247.037089 231.777235 247.214834 231.668211 247.25772 231.476515 247.193132 230.927262 247.214834 230.935013 247.26702 230.831672 247.314557 230.69113 247.335225 230.573322 247.291305 230.498917 247.091342 230.383693 247.037089 230.345457 246.978185 229.920212 246.971984 229.303789 247.110977 228.91678 247.477318 229.202515 247.419447 228.747302 247.427714 228.547855 247.477318 228.341692 247.335225 228.341692 247.208117 228.497219 247.037089 228.586608 246.818008 228.621227 246.54674 228.628461 246.398447 228.724567 246.29614 228.936931 246.08791 229.905745 245.951501 230.103641 245.472002 229.869059 245.258088 229.804988 245.170766 229.669613 245.334043 229.357525 245.127363 229.172547 244.924816 228.843408 244.779107 228.446582 244.754822 228.050273 244.896398 227.652413 245.352128 227.058207 245.48957 226.617978 245.334043 226.617978 244.829227 227.007571 244.06141 227.058207 243.35818 226.83861 243.050743 226.405615 242.906584 225.77524 242.9102 225.452302 243.128765 225.112829 243.326661 224.885481 243.483738 224.61473 243.581395 224.285075 243.620147 223.9022 243.478055 223.9022 243.018191 224.835878 242.737622 225.231671 242.355781 225.341211 242.065395 225.159333 241.778626 224.776457 241.564195 224.315044 241.503225 223.9022 240.86975 224.168301 239.641552 224.874114 239.065431 225.047208 239.038046 225.093195 238.887686 225.186718 238.719241 225.224437 238.639669 225.112829 238.682039 224.939735 238.790546 224.878764 238.930572 224.850346 239.065431 224.76199 239.739209 223.800926 240.169103 223.306961 240.416603 222.759775 240.72559 222.259092 240.785011 221.937187 240.755559 220.734308 240.782944 220.588082 240.87595 220.483191 241.160135 220.375201 241.220589 220.240859 241.358548 220.00886 241.664435 219.862634 241.958955 219.669905 242.071079 219.310798 241.643767 219.545896 241.38335 219.604284 241.177703 219.481309 240.270377 218.400371 240.200622 218.165272 240.114333 218.18749 240.054396 218.217459 239.915403 218.297548 240.145335 218.959441 240.212506 219.545896 239.990842 220.012994 239.350133 220.31423 238.582832 220.235175 238.205124 219.735526 238.149837 219.067432 238.356518 218.451008 239.219924 217.374204 239.55888 216.683892 239.490159 215.993579 239.30983 215.839086 239.236459 216.119654 239.202357 216.522164 239.140869 216.720577 238.921788 216.85957 238.508944 217.454809 238.213391 217.578817 238.239743 217.666656 238.150871 217.732277 237.426456 218.011812 237.342234 218.011812 236.906655 217.983394 236.529981 217.902788 236.21686 217.790664 236.086652 217.644438 235.96316 217.409856 235.670707 217.050232 235.316768 216.71386 235.012948 216.567117 234.453361 216.213694 234.337103 216.058684 234.084436 215.560584 233.901524 215.479979 233.549135 215.464478 233.37604 215.406091 233.218963 215.282083 232.809219 214.851154 232.497649 214.716812 232.278568 214.680643 232.05432 214.607272 231.738099 214.340137 231.664211 213.81982 231.990765 213.205979 232.527617 212.890275 233.081004 213.272117 232.92651 213.021517 232.642325 212.678428 232.364857 212.427311 232.241365 212.478465 232.085838 212.744049 231.771168 212.639675 231.527802 212.389592 231.588256 212.25835 232.038302 212.076988 232.391208 211.640893 232.950795 210.680346 232.648525 210.827606 232.430994 211.019819 232.020734 211.474515 231.798036 211.612474 231.227082 211.876509 231.091706 211.972098 231.053987 212.230448 231.091706 213.198746 231.031769 213.430744 230.859191 213.647242 230.591023 213.800702 230.241217 213.850822 229.764302 213.703562 229.405195 213.388891 229.212466 212.979148 229.232617 212.55907 229.567439 212.214431 230.076906 211.84189 230.378659 211.459531 230.086207 211.112825 230.005085 211.421812 229.768436 211.590256 229.442914 211.671895 229.106026 211.686363 229.157179 212.155527 228.789805 212.50895 228.326324 212.648459 228.098976 212.478465 228.031288 212.339472 227.885579 212.155527 227.741936 211.921461 227.674765 211.612474 227.745036 211.459531 227.876278 211.328289 227.959983 211.201181 227.879895 211.046171 227.767771 211.003801 227.654613 211.03222 227.566774 211.108175 227.530089 211.181029 227.335292 211.525669 226.878529 211.266802 225.628113 210.12386 225.410582 210.02052 225.118647 209.954382 224.805526 209.977634 224.522374 210.057205 224.251106 210.086657 223.971571 209.954382 223.542709 210.364126 223.332412 210.152278 223.267308 209.630927 223.261108 209.16383 223.424902 208.488502 223.418185 208.222401 223.324662 207.952167 223.208921 207.817825 223.069928 207.731536 221.78231 206.402582 221.557546 205.942201 221.497608 205.499389 221.508459 204.96512 221.610249 204.487689 221.828813 204.210221 221.487791 204.237606 221.259926 204.392099 221.068747 204.596196 220.836231 204.781175 220.553079 204.885032 220.197589 204.935669 219.877235 204.876765 219.701557 204.634949 219.561014 204.634949 219.415305 204.898466 219.279412 204.81166 219.175555 204.502673 219.133186 204.136333 219.151787 203.769992 219.209658 203.481673 219.430289 202.902968 219.661771 202.97634 219.938722 202.755192 220.242542 202.427087 220.553079 202.199222 220.051363 202.191471 219.884985 201.91917 219.90927 201.529578 220.162454 200.355634 220.328315 200.062665 220.553079 200.187189 220.681738 200.187189 220.721524 199.879753 220.880668 199.711308 221.052212 199.622436 221.133851 199.526329 221.404602 198.588001 221.907869 197.581985 222.193087 197.466244 222.356881 197.179992 222.383233 196.848786 222.269559 196.563051 222.350681 196.466428 222.551678 196.158474 222.141934 196.277832 222.087164 196.44421 222.157952 196.672075 222.112999 197.01103 221.415453 197.493629 221.332264 197.581985 221.028961 197.8176 220.679154 198.345668 220.388769 198.905255 220.147469 199.584716 219.861734 200.040446 219.275279 200.752977 218.690374 201.266577 218.402571 201.369401 218.280113 201.119834 218.322999 200.789146 218.439774 200.561281 218.620619 200.406787 218.849517 200.321015 218.697091 200.291046 218.572566 200.291046 218.443907 200.348917 218.280113 200.467758 217.998511 200.187189 218.258412 199.351684 218.419622 198.991027 218.644387 198.661372 218.772529 198.543565 219.064982 198.345668 219.205007 198.229927 219.314548 198.059933 219.370352 197.913706 219.412721 197.868237 219.304731 197.825867 219.133186 197.722011 218.857785 198.082668 217.923073 198.808632 217.678674 199.167739 217.435824 199.954157 217.148022 200.187189 216.945475 199.78468 216.681441 199.518579 216.470627 199.232843 216.425675 198.743011 216.703659 198.749728 216.945475 198.558032 217.137171 198.272813 217.276164 198.008779 217.376404 197.736478 217.444092 197.420774 217.463726 197.150023 217.430657 197.01103 217.489045 196.887022 217.519013 196.790916 217.559316 196.563051 217.176441 196.848786 217.044682 197.019298 216.991978 197.215644 216.890705 197.31175 216.293399 197.581985 216.140972 197.581985 216.120821 197.339135 216.133222 197.119021 216.187476 196.906657 216.293399 196.717544 216.171458 196.524815 216.15544 196.343453 216.243796 196.165708 216.425675 196.003981 216.034015 195.969362 215.911041 195.718762 215.973561 195.403058 216.140972 195.139541 216.40294 194.971096 216.766697 194.838304 217.156289 194.742715 217.495245 194.707062 217.741194 194.573753 217.882254 194.279751 217.973193 193.978514 218.062066 193.847272 218.412389 193.751166 218.799914 193.291302 219.133186 193.113041 218.978176 192.997816 218.875869 192.864508 218.707425 192.528135 218.671772 192.724482 218.606668 192.917211 218.503845 193.063437 218.352451 193.113041 218.237744 193.145076 217.911706 193.276318 217.843501 193.326438 217.758762 193.744449 217.536581 194.097355 217.218293 194.26735 216.849369 194.120607 216.748096 194.22188 216.643722 194.26735 216.501113 194.279751 216.293399 194.279751 216.416891 193.877758 216.294949 193.619924 216.101703 193.56257 215.99888 193.766667 215.418108 194.553602 214.770166 194.434761 214.358355 193.231365 213.858706 193.260817 214.211612 193.619924 214.268449 194.008483 214.157359 194.383091 214.010616 194.707062 213.579687 194.383091 213.331671 194.286985 213.007183 194.279751 213.695428 194.801102 213.942411 195.08167 214.010616 195.425793 213.809619 195.814352 213.41486 196.204461 213.034051 196.475212 212.863023 196.49743 212.820137 196.436459 212.720414 196.416825 212.625858 196.436459 212.579871 196.49743 212.602606 196.628672 212.700779 196.826052 212.720414 196.937659 212.720414 197.655356 212.810837 197.774714 213.007183 197.868237 213.201462 197.994312 213.290335 198.229927 213.254166 198.338951 213.007183 198.743011 212.632058 198.558032 211.876642 198.442291 211.510818 198.229927 211.072656 197.774714 210.721299 197.296766 210.515136 196.841036 210.48 196.432326 210.621576 196.033949 210.940897 195.63764 211.092807 195.557035 211.503067 195.44026 211.586773 195.359655 211.610541 195.197928 211.676162 195.058935 211.761418 194.934927 211.857524 194.838304 211.857524 194.707062 211.763484 194.714813 211.74385 194.683811 211.747983 194.625423 211.729899 194.553602 212.305503 193.943379 213.003566 193.113041 214.996997 189.26052 215.409324 187.609145 215.723478 186.818076 217.784597 183.801061 218.158172 183.391318 218.661955 183.113333 219.521745 183.017226 221.249592 183.222873 222.108348 183.067863 225.88698 181.007261 226.151014 180.794897 226.28949 180.587183 226.530273 180.080816 226.693033 179.899971 226.915731 179.780613 227.025272 179.796631 227.14308 179.861219 228.882811 179.972826 229.362309 179.904622 229.572606 179.942341 229.753968 180.074099 229.933263 180.228076 230.13271 180.347434 230.472699 180.426489 230.761534 180.420289 231.384675 180.309198 231.713297 180.301964 232.62269 180.448707 233.010216 180.309198 233.906175 179.758395 234.070486 179.634387 234.522082 179.861219 234.938543 179.854502 235.298166 179.634387 235.566334 179.236528 235.624721 179.032431 235.668641 178.549316 235.574601 178.314217 235.637122 178.203643 235.949209 178.203643 236.131604 178.333852 236.200842 178.76168 236.37497 178.862436 236.67569 178.951826 236.688608 179.083067 236.642621 179.243761 236.76663 179.398255 237.18309 179.456125 237.716842 179.363119 238.219075 179.155922 238.549764 178.915656 238.657754 178.635088 238.766261 177.726728 238.769878 177.353154 238.452624 174.86524 238.521345 173.986332 238.70374 173.133259 238.674288 172.729716 238.446423 172.38456 238.24801 172.288454 237.516879 172.172713 237.178957 172.02597 236.933007 171.856492 236.477277 171.350642 236.36102 171.150162 236.308833 170.991018 236.211693 170.86546 235.644356 170.668597 235.435609 170.520821 235.029482 170.123995 234.633689 169.880629 234.212062 169.742153 233.666942 169.669298 233.507282 169.588693 233.594088 169.360828 233.595638 168.904581 233.648341 168.684467 234.100971 168.172416 235.365337 167.584411 235.86757 167.175701 236.26078 166.940602 236.831217 166.801609 237.18309 166.902366 236.914923 167.380831 238.323449 167.365847 238.926955 167.137465 239.275728 166.601646 239.358917 166.04516 239.524261 165.633349 239.545962 165.389983 239.479825 164.783893 239.501526 164.510559 239.545962 164.33333 239.910753 163.46114 239.988775 163.102549 239.933488 162.735692 239.697872 162.310964 238.651037 160.995961 238.452624 160.417256 238.416455 159.946542 238.583349 158.553 245.309242 158.8005 246.307507 159.073834 246.403614 159.11672 246.582909 159.240729 246.683665 159.278964 246.804573 159.270697 246.86141 159.219544 246.908947 159.16219 247.010737 159.123954 247.632845 158.993229 247.816273 158.978245 247.989368 159.028365 248.247202 159.197326 248.42753 159.228328 248.607342 159.197326 248.959732 159.093986 249.117326 159.089335 249.232033 159.139455 249.430963 159.351819 249.525002 159.402973 249.608708 159.390055 249.871709 159.308933 250.057721 159.308933 250.203947 159.286198 250.340356 159.302216 250.50725 159.409173 250.700496 159.174074 251.075621 159.374554 251.456429 159.35957 251.81502 159.302216 252.132791 159.351819 252.398891 159.638071 252.488281 160.033864 252.465029 160.460142 252.385974 160.827 252.07647 161.547797 252.002582 161.89037 252.094555 162.30373 252.334821 162.647853 252.640707 162.80958 253.001364 162.844199 253.404391 162.800796 253.774865 162.947539 254.115888 162.924804 254.355637 162.71244 254.422808 162.310964 254.771064 161.466158 255.526997 161.458925 256.338217 161.875385 256.854918 162.330599 256.845617 162.411721 256.813065 162.558464 256.856985 162.735692 257.075032 162.932555 257.274479 163.01316 257.889353 163.059663 258.221075 163.21829 258.31098 163.426004 258.433439 163.600132 258.8623 163.653352 260.204688 163.579981 260.632517 163.630617 261.038127 163.792345 261.379666 164.069813 261.965604 164.722923 262.074628 164.922886 262.091163 165.068595 262.167118 165.150751 262.462154 165.162635 262.645066 165.105281 263.252706 164.775626 263.657282 164.613899 264.008122 164.548795 264.367746 164.561195 264.804358 164.664535 265.706 164.995224 266.077508 165.258741 266.668097 166.161934 267.004469 166.338646 270.514417 165.420985 271.284301 164.995224 271.971513 164.363299 272.344571 164.18142 272.861271 164.166953 274.113754 164.583413 274.555016 164.6294 274.830934 164.568429 275.623036 164.143701 275.852968 163.981974 275.943391 163.947355 276.087033 163.947355 276.127336 163.966473 276.155755 163.997475 277.412371 164.525543 277.839165 164.621649 279.539627 164.694504 280.324496 164.561195 281.924201 163.966473 282.788124 163.807329 284.577975 163.665753 285.279655 163.739125 286.644261 164.232057 287.217799 164.255309"></polyline>
        </g>
    </g>
</svg>