
<svg width="86px" height="116px" viewBox="0 0 86 116" version="1.1" xmlns="http://www.w3.org/2000/svg" xmlns:xlink="http://www.w3.org/1999/xlink">
    <!-- Generator: Sketch 51.2 (57519) - http://www.bohemiancoding.com/sketch -->
    <desc>Created with Sketch.</desc>
    <defs></defs>
    <g id="Page-1" stroke="none" stroke-width="1" fill="none" fill-rule="evenodd">
        <g id="GD-EPS-01-0001" transform="translate(-261.000000, -235.000000)" >
            <path d="M345.631739,240.049757 L345.217057,240.750958 L345.761373,241.017592 L345.90942,241.442585 L346.184892,241.442585 L346.323365,240.74212 L346.86768,240.474013 L346.443424,240.049757 L345.631739,240.049757 Z M330.403438,260.791181 L330.826958,260.662283 L330.836533,260.3765 L330.413013,259.971394 L329.16897,260.939229 L329.297131,261.076965 L330.154482,261.076965 L330.403438,260.791181 Z M344.517329,276.278012 L344.386959,276.417222 L344.37812,276.988789 L344.517329,277.118423 L345.077848,277.100009 L345.485164,276.703005 L345.485164,276.417222 L345.356267,276.287588 L344.517329,276.278012 Z M332.34942,270.747212 L332.210947,271.172204 L332.477581,271.438838 L332.477581,271.725358 L333.169207,272.407409 L333.603775,272.278512 L333.603775,271.438838 L333.179519,271.042571 L332.34942,270.747212 Z M333.722361,248.632847 L334.156929,248.218166 L334.432401,246.826811 L335.81418,244.889668 L335.263236,244.336514 L335.263236,243.78336 L334.700507,243.249357 L334.70861,242.41042 L335.942341,242.262372 L336.357759,241.848427 L336.229598,240.880592 L334.847082,241.156064 L334.293928,240.622061 L333.999306,240.622061 L333.463829,239.774285 L333.169207,239.774285 L332.487892,240.188966 L332.487892,241.027167 L333.04031,241.848427 L332.77294,242.133474 L332.77294,242.686628 L332.339845,243.082895 L332.073211,242.815526 L331.657794,243.230207 L331.381585,244.336514 L329.730962,246.005551 L329.730962,246.273657 L330.421852,246.96381 L331.52816,246.96381 L333.179519,248.632847 L333.722361,248.632847 Z M335.951916,248.917894 L335.676444,249.176425 L334.570137,249.194839 L334.28509,249.462946 L332.910676,249.471048 L332.497468,249.868052 L332.487892,250.974359 L332.892998,251.398615 L333.454254,251.398615 L333.999306,251.951769 L334.562035,251.959871 L335.263236,251.535615 L335.401709,250.568517 L335.666869,250.835887 L336.367334,250.706989 L336.357759,249.314898 L335.951916,248.917894 Z M344.655065,240.750958 L344.093809,240.197805 L343.964175,239.221131 L342.997077,239.367706 L342.451289,240.474013 L342.443923,241.313687 L343.411022,241.433746 L343.687967,241.16564 L344.655065,241.017592 L344.655065,240.750958 Z M344.103384,238.538343 L343.550231,238.270973 L343.411022,237.84819 L342.581659,237.837142 L342.166242,238.261398 L342.166242,238.814552 L343.964175,238.953025 L344.103384,238.538343 Z M344.663904,242.125372 L344.673479,241.589896 L344.517329,241.433746 L344.24112,241.433746 L344.112223,241.581057 L344.103384,242.115061 L344.24112,242.271947 L344.507754,242.271947 L344.663904,242.125372 Z M345.077848,241.147226 L344.922435,241.304112 L344.922435,241.589896 L345.077848,241.718793 L345.347428,241.728369 L345.485164,241.570745 L345.485164,241.304112 L345.347428,241.156064 L345.077848,241.147226 Z M322.955381,312.231532 L322.679173,311.963426 L321.988283,312.092323 L322.679173,312.784686 L322.945806,312.784686 L323.221278,313.050583 L323.62933,312.921686 L323.62933,312.655052 L323.221278,312.241108 L322.955381,312.231532 Z M287.584477,347.094949 L286.772792,346.716359 L287.050474,346.29284 L286.947356,345.629202 L285.748979,345.620364 L285.805694,347.648103 L286.994496,348.808916 L287.648558,348.836905 L287.823122,348.607099 L287.538074,348.283751 L287.584477,347.094949 Z M323.914378,246.281759 L323.775905,246.125609 L322.679173,246.144023 L321.977971,246.558704 L321.968396,247.111858 L322.392652,247.535378 L323.914378,246.281759 Z M266.289163,348.607099 L265.450226,349.131527 L265.431812,350.256985 L265.91131,350.626 L266.823166,349.768649 L266.750247,349.030619 L266.289163,348.607099 Z M283.268994,344.171558 L283.545939,343.905661 L282.845474,343.481404 L282.163423,343.896086 L282.182574,344.734287 L281.306808,344.983979 L280.993036,346.118276 L281.158761,346.402586 L281.775995,346.402586 L282.283482,346.699419 L283.058339,346.56021 L283.840562,344.983979 L283.287408,344.743125 L283.268994,344.171558 Z M327.922717,246.152125 L328.061189,245.995975 L328.061189,245.729342 L327.636196,245.313924 L327.094828,245.304349 L326.954882,245.442822 L327.636196,246.144023 L327.922717,246.152125 Z M271.386869,345.941502 L270.981763,346.551371 L271.056892,346.818741 L271.249869,347.00288 L271.635088,346.91081 L272.043141,346.384173 L271.700642,345.941502 L271.386869,345.941502 Z M326.808307,269.918586 L326.965194,269.788952 L326.954882,268.682644 L326.817882,268.544908 L326.27504,268.544908 L325.850048,269.226223 L326.27504,269.918586 L326.808307,269.918586 Z M342.848293,237.580084 L343.005916,237.422461 L343.005916,237.137413 L342.859341,237.008516 L342.443923,237.422461 L342.581659,237.580084 L342.848293,237.580084 Z M334.578976,237.837142 L335.52987,237.156564 L335.52987,236.869307 L334.570137,235.626 L333.447625,235.643677 L333.317255,237.146989 L334.016983,237.837142 L334.578976,237.837142 Z M329.030497,294.264716 L328.892761,294.392877 L328.892761,294.679397 L329.297131,295.08524 L329.722124,294.688236 L329.297131,294.264716 L329.030497,294.264716 Z M320.594719,322.34224 L321.000561,322.739244 L321.424818,322.325299 L321.01161,321.900306 L320.594719,322.34224 Z M321.848337,320.805047 L321.711338,320.932471 L321.839499,321.089358 L322.116444,321.089358 L322.244605,320.942047 L322.116444,320.805047 L321.848337,320.805047 Z M323.914378,312.921686 L323.914378,313.206733 L324.05285,313.345942 L324.191323,313.216308 L324.191323,312.931261 L324.05285,312.794261 L323.914378,312.921686 Z M328.053087,288.594706 L327.804131,288.308922 L327.776142,285.285359 L327.241402,283.884429 L327.499197,282.233806 L327.794556,281.680652 L326.965194,280.842451 L326.954882,279.735407 L326.687512,279.468038 L326.687512,278.36173 L326.403938,277.808576 L325.306469,276.426797 L325.296894,274.480815 L325.850048,273.384083 L325.850048,272.831666 L326.954882,272.001567 L326.954882,271.162629 L326.560088,271.042571 L325.435366,269.918586 L324.873374,269.926688 L323.508535,269.106164 L319.626884,269.08775 L319.064155,269.649743 L318.522049,269.649743 L317.976261,270.202896 L317.415005,270.194058 L316.871427,270.765625 L315.755544,270.202896 L314.649237,270.202896 L314.373765,270.47174 L314.087244,270.202896 L313.542929,270.194058 L310.500215,267.438601 L309.956637,267.438601 L309.679692,267.723648 L307.458975,267.420187 L307.044293,267.862857 L306.906557,268.544908 L306.076459,268.829956 L304.416997,270.194058 L303.586162,270.47174 L302.609488,271.438838 L302.627902,271.725358 L302.204382,272.140039 L299.715559,272.683618 L298.747724,273.651453 L298.471515,274.75776 L297.787991,275.457489 L297.228208,275.449387 L296.121164,276.00254 L295.981955,276.703005 L295.438377,277.256159 L294.617116,278.906045 L293.640443,279.873143 L291.971406,280.703979 L291.427828,280.703979 L291.134678,280.990499 L290.599202,280.990499 L289.760265,281.819862 L289.492158,281.819862 L289.077477,282.78696 L287.409914,284.169476 L287.132968,284.72263 L287.141071,286.649461 L286.579815,287.478823 L286.570239,288.031977 L286.321283,288.585131 L285.620082,289.267918 L285.325459,289.286332 L284.643408,290.254167 L284.633833,292.180262 L283.812573,293.563514 L283.812573,294.669822 L283.535628,294.955606 L283.535628,295.508759 L282.293057,297.029012 L281.344373,297.177059 L280.772069,298.283367 L280.762493,299.647469 L280.495123,299.932516 L279.952282,300.77219 L279.94197,301.30693 L278.836399,302.422076 L278.836399,302.97523 L278.291347,303.528384 L278.282509,304.367321 L277.71978,305.179006 L278.567556,306.026783 L279.103769,307.114676 L279.103769,307.686244 L279.665761,308.220984 L279.656922,308.774137 L278.550615,309.6035 L278.567556,309.889284 L277.729355,310.995591 L277.73893,313.198631 L276.909568,313.750311 L276.49415,315.272773 L275.092483,315.548982 L274.687377,315.973975 L274.973898,316.812912 L274.142326,317.070707 L274.134224,317.623124 L274.834689,318.314751 L275.378267,318.314751 L276.198791,319.429897 L277.056142,319.69874 L277.729355,320.388893 L277.73893,321.781721 L277.45241,322.038779 L277.442834,322.611083 L276.631149,323.448548 L276.623047,323.984024 L276.356414,324.270544 L276.623047,324.823698 L276.614945,325.643485 L276.909568,325.930006 L276.889681,329.239353 L277.591619,329.377825 L278.291347,328.695038 L278.291347,328.409254 L278.697926,328.27962 L278.826087,328.962408 L279.388816,329.256294 L279.388816,329.801345 L279.94197,330.34566 L279.94197,330.630708 L279.516977,331.045389 L278.975608,331.045389 L278.844501,330.354499 L278.144036,330.216026 L277.71978,330.621869 L277.73893,330.90618 L277.166626,332.004385 L277.185776,332.843323 L276.889681,333.110692 L276.898519,335.055937 L276.631149,335.341721 L276.631149,336.151197 L275.931421,336.845033 L275.370165,336.833984 L273.719543,337.692072 L272.346602,337.683234 L272.051243,337.949867 L270.686404,337.120505 L270.123675,337.138182 L270.005826,337.821706 L270.815301,338.365285 L270.805726,338.651069 L269.017367,340.162482 L268.731584,340.162482 L268.188005,340.73405 L267.626749,340.724474 L265.413398,341.821943 L264.870556,341.821943 L263.764248,342.652779 L262.666043,342.652779 L261.285,343.481404 L261.285,344.587712 L262.656468,344.596551 L262.961402,344.882334 L263.219197,344.596551 L263.754673,344.596551 L264.06771,344.86392 L266.815064,344.86392 L267.220907,344.458815 L267.496379,343.362082 L267.902221,342.918675 L268.327214,344.449239 L268.769148,344.86392 L269.331877,344.983979 L269.552844,345.878158 L270.123675,346.64344 L270.704818,346.569785 L271.239558,345.730111 L271.562906,345.620364 L272.07113,345.868583 L272.374591,346.513806 L272.078495,347.224583 L272.624283,347.565609 L273.186276,347.279825 L273.646623,344.983979 L273.71144,343.499818 L274.134224,343.896086 L274.134224,344.449239 L274.576157,344.872759 L275.139623,344.983979 L275.100586,346.127114 L274.55848,346.73551 L274.510604,347.574447 L273.755634,349.223597 L273.969235,349.399634 L274.27196,350.053696 L274.586469,350.035282 L275.729605,349.371645 L276.254769,348.836905 L276.292334,348.477465 L276.540553,348.993055 L276.945659,349.242011 L277.176201,349.11385 L277.591619,348.634352 L277.609296,347.814565 L277.905392,347.344642 L277.657172,345.757363 L277.803747,344.983979 L278.144036,343.766452 L279.260655,343.766452 L279.397655,343.905661 L278.798098,344.983979 L278.725915,346.054195 L279.342413,346.625763 L280.312458,345.583536 L280.36549,344.983979 L282.421955,343.076298 L282.430793,341.958943 L282.156058,341.683471 L282.303369,340.715636 L282.835899,341.553837 L283.952519,342.116566 L284.228727,342.652779 L285.325459,342.652779 L285.472771,343.896086 L285.880086,344.310767 L286.707975,344.587712 L287.002598,344.319605 L287.83417,344.872759 L288.68121,344.882334 L289.345583,343.629452 L289.353685,343.076298 L288.790956,342.255775 L288.800532,341.702621 L289.492158,341.546471 L290.949066,344.983979 L291.196549,347.233422 L291.583241,347.713657 L292.598216,346.91081 L292.654194,346.13669 L293.353922,345.831019 L293.288369,344.983979 L293.087289,343.757613 L292.791193,343.757613 L292.119454,343.066723 L291.834407,342.2462 L291.290092,341.979566 L291.30114,341.407262 L291.7033,341.277628 L293.364234,342.383936 L294.461703,342.660144 L295.022222,343.481404 L295.291802,343.481404 L295.99153,342.799353 L295.99153,341.958943 L294.452128,341.000683 L294.203172,341.268789 L293.344347,341.259214 L292.940714,340.577163 L292.949553,340.042423 L293.353922,339.894375 L293.640443,340.162482 L295.014857,340.162482 L295.843483,340.724474 L296.94979,340.724474 L297.787991,339.894375 L298.618827,340.447529 L299.715559,340.438691 L300.268712,341.830782 L301.10765,341.830782 L301.246123,341.416837 L300.681921,340.863683 L300.681921,340.042423 L300.414551,339.747801 L300.831441,339.332383 L301.364708,339.341958 L301.797803,338.916965 L301.780126,338.365285 L302.204382,338.236387 L302.627902,338.660644 L302.6198,340.032848 L303.311426,341.268789 L303.725371,340.854108 L303.458001,340.032848 L303.863844,339.618167 L304.564309,339.48927 L304.564309,338.651069 L304.278525,338.382962 L304.416997,337.673658 L304.97899,337.673658 L305.110097,338.382962 L305.80025,339.074588 L306.076459,339.074588 L306.638451,338.504494 L307.587872,338.37486 L307.882494,337.821706 L307.587872,337.267079 L307.75507,336.567351 L308.556443,337.387138 L308.852539,336.861973 L309.662751,336.861973 L309.956637,336.576926 L310.785999,336.845033 L310.906794,336.160772 L310.372055,335.607618 L310.500215,335.193674 L310.77716,335.461043 L311.606523,335.461043 L312.169252,334.90789 L312.71283,334.916728 L313.117936,334.207425 L313.128248,333.396476 L312.030779,332.834484 L312.297413,332.5487 L312.297413,332.012487 L312.71283,331.865912 L313.830186,332.713689 L314.235292,332.557539 L314.373765,331.874751 L315.497749,332.428641 L315.903592,331.728176 L315.903592,331.175023 L317.009899,330.897341 L317.009899,330.630708 L316.161387,329.81092 L316.171698,329.5244 L317.82895,329.239353 L317.82895,328.971246 L316.871427,328.003411 L316.447907,327.864939 L317.415005,327.182888 L317.976261,327.450258 L318.382104,327.302946 L318.382104,326.749793 L317.82895,326.215053 L317.82895,325.643485 L317.563053,325.376852 L318.244368,325.247218 L318.797521,325.781221 L319.49725,325.65306 L319.212203,325.100643 L320.180038,324.970273 L320.31851,324.260969 L320.603557,323.992863 L319.774932,323.441182 L320.041565,321.209417 L319.774932,320.942047 L320.456983,320.259259 L322.116444,320.536204 L322.392652,320.251893 L323.084279,320.12226 L323.093854,319.569106 L322.392652,319.145586 L321.968396,318.462798 L321.701763,317.909645 L321.711338,317.088384 L321.434393,316.803337 L321.424818,315.69703 L320.308935,314.581147 L320.586617,312.378107 L321.424818,311.53917 L319.765356,310.166229 L319.755045,308.505294 L320.594719,307.382046 L320.871664,305.73216 L321.848337,304.762852 L322.955381,304.211172 L323.499697,304.486644 L325.703473,304.211172 L326.551249,305.049373 L327.361461,305.058948 L327.508036,304.348908 L327.794556,304.081538 L327.776142,303.537959 L327.10293,303.114439 L326.543147,303.389911 L326.118154,302.97523 L326.118154,302.422076 L325.850048,302.154706 L325.859623,296.891276 L326.135831,296.605492 L326.135831,295.793807 L326.67941,294.669822 L326.67941,291.636683 L326.974032,291.349426 L326.954882,290.797746 L328.071501,289.41523 L328.053087,288.594706 Z M330.28338,268.682644 L330.136805,267.991755 L329.59249,267.991755 L329.16897,268.406436 L329.177072,268.958116 L330.145644,270.202896 L330.689959,270.202896 L331.113478,269.503168 L330.689959,268.812278 L330.28338,268.682644 Z M320.594719,314.581147 L320.733191,314.71962 L321.000561,314.71962 L321.156711,314.590722 L321.156711,314.304938 L320.733191,313.899096 L320.603557,314.037568 L320.594719,314.581147 Z M289.484056,344.04266 L289.345583,344.181133 L289.363261,344.734287 L289.50247,344.86392 L289.788254,344.86392 L289.926726,344.734287 L289.906839,344.449239 L289.484056,344.04266 Z M297.511046,340.447529 L297.356369,340.577163 L297.356369,340.863683 L297.511046,340.993317 L297.779889,341.000683 L297.918362,340.863683 L297.918362,340.577163 L297.779889,340.447529 L297.511046,340.447529 Z M288.810107,345.499569 L288.479393,345.749261 L288.404264,346.210345 L288.56999,346.661854 L288.90144,346.937326 L289.271928,346.496129 L289.179122,345.749261 L288.810107,345.499569 Z M306.362979,339.056174 L306.225243,339.204222 L306.225243,339.470856 L306.362979,339.609328 L306.629612,339.609328 L306.766612,339.479694 L306.766612,339.194647 L306.638451,339.056174 L306.362979,339.056174 Z M308.990275,337.257504 L308.990275,337.544761 L309.116963,337.683234 L309.255435,337.544761 L309.255435,337.257504 L309.116963,337.13008 L308.990275,337.257504 Z M319.064155,326.068478 L318.935257,326.196639 L319.36025,326.620159 L319.488411,326.473584 L319.49725,326.206214 L319.36025,326.068478 L319.064155,326.068478 Z M309.800487,336.991607 L309.800487,337.257504 L310.224007,337.683234 L310.362479,337.554336 L310.362479,337.267079 L309.956637,336.845033 L309.800487,336.991607 Z" id="Fill-3"></path>
        </g>
    </g>
</svg>