<svg width="71px" height="106px" viewBox="0 0 71 106" version="1.1" xmlns="http://www.w3.org/2000/svg" xmlns:xlink="http://www.w3.org/1999/xlink">
    <!-- Generator: Sketch 51.1 (57501) - http://www.bohemiancoding.com/sketch -->
    <desc>Created with Sketch.</desc>
    <defs></defs>
    <g id="Page-1" stroke="none" stroke-width="1" fill="none" fill-rule="evenodd">
        <g id="GY-EPS-01-0001" transform="translate(-257.000000, -118.000000)" fill="#7F807C">
            <path d="M299.983189,141.956999 L300.694193,141.73876 L301.500504,141.149997 L301.518806,141.090603 L300.879627,140.994951 L300.436933,140.976995 L300.296735,140.994951 L300.246319,141.045712 L300.114409,141.24565 L299.899278,141.41002 L299.750101,141.696977 L299.66619,142.025717 L299.708318,142.258805 L299.983189,141.956999 Z M327.895709,212.405448 L327.809035,212.268013 L327.686448,212.172361 L327.384988,212.076708 L327.262746,211.998667 L327.167094,211.903015 L327.082837,211.780773 L326.545527,211.505902 L325.147,211.479313 L324.75852,211.323576 L323.378296,209.387739 L323.276428,208.963001 L323.168689,208.652563 L323.031599,208.027887 L322.849273,207.750254 L322.720815,207.690514 L322.39173,207.627667 L322.260855,207.558949 L322.201116,207.430837 L322.206986,206.916663 L322.045724,206.605534 L321.53155,206.163531 L321.427265,205.903853 L321.513593,205.703571 L321.540873,205.557157 L321.47181,205.416614 L321.238722,205.201482 L321.167242,205.069917 L321.125114,204.878613 L321.149286,204.741177 L321.221111,204.586131 L321.244593,204.430393 L321.125114,204.299174 L320.829524,204.508089 L320.629241,204.577152 L320.533589,204.445242 L320.611285,203.970088 L320.587803,203.865803 L320.232129,203.450734 L320.163065,203.319514 L320.145454,203.076758 L320.214172,202.894777 L320.259063,202.721428 L320.163065,202.539102 L319.858497,202.712795 L319.744543,202.625776 L319.658215,202.070164 L319.520779,201.810487 L319.156472,201.422007 L319.078776,201.230703 L319.129192,201.090159 L319.233822,200.907833 L319.260757,200.761074 L319.129192,200.692701 L318.636082,200.761074 L318.591536,200.797332 L318.495884,200.528677 L318.740712,200.014502 L318.645405,199.928174 L318.472057,199.954763 L318.185445,200.085983 L318.05388,200.119133 L317.880187,200.059393 L317.820447,199.928174 L317.779009,199.790738 L317.656422,199.730653 L317.605316,199.581132 L317.414356,198.855279 L317.542468,198.705758 L317.766923,198.532409 L317.925078,198.332127 L317.856705,198.125973 L317.378444,198.07245 L317.196462,197.970927 L317.318704,197.788255 L317.387076,197.657035 L317.378444,197.543427 L317.337006,197.415315 L317.318704,197.250599 L317.360487,197.197075 L317.56077,197.206054 L317.605316,197.146314 L317.593575,197.041684 L317.527965,196.859702 L317.510009,196.755072 L317.378444,196.434965 L317.127399,196.208093 L316.995834,195.94807 L317.214073,195.533001 L317.169528,195.506067 L317.163312,195.506067 L317.151571,195.491218 L317.127399,195.445982 L317.031747,195.533001 L316.912268,195.61933 L316.763092,195.664221 L316.625656,195.646265 L316.458524,195.523678 L316.493746,195.428371 L316.580765,195.31787 L316.625656,195.150047 L316.470264,194.821307 L316.434352,194.66626 L316.451963,194.492912 L316.530004,194.197667 L316.54796,194.032607 L316.493746,193.859258 L316.398784,193.745995 L316.374612,193.626171 L316.485113,193.44419 L316.512048,193.357515 L316.54796,192.861297 L316.503069,192.664468 L316.147395,191.94414 L315.696413,192.290837 L315.316912,192.359554 L314.934302,192.237313 L314.483321,192.048771 L314.492299,192.299815 L314.396301,192.428617 L313.990211,192.532557 L313.954298,192.577794 L313.858645,192.670683 L313.745037,192.73284 L313.703254,192.670683 L313.667686,192.60162 L313.580667,192.559837 L313.470166,192.532557 L313.356557,192.532557 L313.267466,192.472818 L313.087902,192.359554 L312.902468,192.323987 L312.765377,192.60162 L312.633812,192.619577 L312.478075,192.577794 L311.794006,192.195184 L311.387915,192.117488 L311.265328,192.063619 L311.19661,192.004225 L311.151719,191.935162 L311.09198,191.771137 L311.056067,191.612292 L311.067808,191.501791 L311.145504,191.242114 L311.145504,191.146462 L311.118914,190.973459 L311.118914,190.877462 L311.337154,190.459285 L311.352002,190.208241 L311.118914,189.948218 L310.822979,189.77487 L310.76324,189.751389 L310.736651,189.706498 L310.580913,189.688541 L310.512196,189.655391 L310.452456,189.583911 L310.4345,189.533149 L310.416889,189.482043 L310.30328,189.273127 L310.234217,189.031406 L310.183801,188.92643 L309.633714,188.580079 L308.940321,188.293122 L308.6986,188.138076 L308.543208,187.878053 L308.456879,187.572795 L308.420621,186.930854 L308.361227,186.65253 L308.056314,186.013006 L307.327008,184.955651 L307.094266,184.686995 L306.159152,183.949057 L305.812455,183.515686 L305.672257,183.013253 L305.480953,181.806031 L305.301389,181.191024 L305.325561,180.898197 L305.525498,180.592938 L306.774504,179.326667 L306.929895,179.093234 L307.025548,178.806277 L307.052482,178.450948 L307.010354,178.21786 L306.938528,177.999966 L306.885005,177.775857 L306.947852,177.515834 L307.088395,177.297595 L307.249657,177.115614 L307.389855,176.927072 L307.494486,176.458479 L307.754508,175.82448 L307.996574,175.42426 L308.223446,174.698407 L308.474836,174.333754 L308.59397,174.082365 L308.611926,173.81371 L308.492447,173.563011 L308.109838,173.075771 L307.918878,172.495987 L307.686136,172.328854 L307.440962,172.20903 L307.339094,172.017725 L307.434746,171.539809 L307.667834,171.211069 L307.927856,170.933435 L308.118816,170.700348 L308.402665,170.213453 L308.516619,170.111931 L308.689967,170.06704 L308.827057,170.111931 L308.967601,170.171325 L309.149927,170.213453 L309.496278,170.162692 L309.663411,170.031127 L309.878887,169.624691 L310.261497,169.260038 L310.736651,169.027295 L311.274306,168.991037 L311.838897,169.233449 L312.460464,169.018317 L312.791967,168.958232 L313.15662,168.940621 L313.234316,168.982404 L313.452555,169.191665 L313.547862,169.233449 L313.727426,169.227578 L313.972599,169.146774 L315.098672,169.035928 L315.459872,168.940621 L315.618372,168.880536 L315.723002,168.818034 L315.842481,168.776251 L316.04311,168.740338 L316.171221,168.767273 L316.28483,168.818034 L316.398784,168.827013 L316.54796,168.740338 L316.028261,168.2714 L315.956435,168.116009 L315.974392,167.924704 L316.016175,167.769312 L316.234069,167.285525 L316.329721,166.875982 L316.425373,166.675699 L316.580765,166.598003 L316.831464,166.606981 L317.014136,166.66085 L317.136723,166.807264 L317.214073,167.093875 L317.438183,166.998223 L317.665055,166.867003 L317.838749,166.702633 L317.907466,166.511329 L317.802491,166.22748 L317.324574,165.644933 L317.214073,165.375932 L317.151571,165.289258 L317.014136,165.247475 L316.849766,165.253345 L316.727179,165.325171 L316.703352,165.462606 L316.780703,165.60315 L316.927117,165.76752 L316.882226,165.862827 L316.786919,165.922566 L316.667094,165.940868 L316.54796,165.904955 L316.470264,165.827259 L316.440222,165.713651 L316.425373,164.724668 L316.380483,164.682539 L316.28483,164.682539 L316.147395,164.646972 L315.938134,164.733646 L315.810022,164.733646 L315.758915,164.605189 L315.801044,164.449797 L315.920523,164.291297 L316.613225,163.598249 L316.763092,163.37414 L316.816616,163.036422 L316.831464,162.731854 L316.876355,162.507744 L317.023114,162.211809 L317.023114,162.116157 L317.743096,161.076412 L317.907466,160.753888 L318.012097,160.242821 L318.003119,158.742772 L317.925078,158.250007 L317.934056,157.998963 L318.05388,157.762768 L318.194078,157.562485 L318.298709,157.311786 L318.367426,157.051763 L318.418188,156.57661 L318.555968,156.038954 L318.591536,155.811737 L318.555968,155.500953 L318.477927,155.258887 L318.194078,154.789949 L318.298709,154.885601 L318.272119,154.771992 L318.245185,154.730209 L318.194078,154.685318 L318.298709,154.233991 L318.167489,153.654552 L317.934056,153.107573 L317.715816,152.734287 L316.093526,151.156887 L315.836611,151.0343 L315.55587,150.774278 L315.472303,150.732495 L315.286869,150.705215 L315.16739,150.669648 L314.569649,150.340907 L314.336562,150.290146 L314.067906,150.194494 L313.849667,150.012167 L313.64973,149.91686 L313.407664,150.089863 L313.302688,150.340907 L313.338946,150.801213 L313.201511,150.983194 L313.111729,150.983194 L313.027817,150.385798 L312.305072,149.474512 L312.048158,148.617094 L311.830264,148.270397 L311.552285,147.974462 L311.300896,147.843242 L311.118914,147.792481 L310.580913,147.487568 L309.756301,146.848044 L307.686136,144.843144 L306.992743,143.976748 L306.651917,143.648008 L306.204043,143.406287 L305.648085,143.232594 L304.088297,142.996743 L303.962602,143.032656 L303.915294,143.197026 L303.861079,143.265744 L303.741945,143.206004 L303.616251,143.101374 L303.574467,143.050612 L303.50575,143.0147 L303.227771,142.754677 L302.370353,142.303696 L301.823374,142.139326 L301.225979,142.103413 L300.592671,142.258805 L300.072626,142.623112 L299.690017,143.143157 L298.190312,145.790343 L298.041136,146.388084 L297.981397,148.261419 L297.747964,148.832225 L297.852594,148.918554 L297.616399,148.927532 L297.497265,148.918554 L297.305615,148.832225 L297.245875,148.876771 L297.210653,148.963445 L297.156439,149.014206 L297.019003,149.10088 L296.577,149.501446 L296.540742,149.447577 L296.481002,149.414772 L297.437525,148.070115 L297.557004,147.601176 L297.557004,145.052405 L297.583594,144.897013 L297.712396,144.723665 L297.747964,144.574489 L297.712396,143.639375 L297.747964,143.334462 L298.085682,142.476699 L298.172356,141.930065 L298.268008,141.637237 L298.417185,141.350626 L298.632316,141.090603 L299.179295,140.672081 L299.361622,140.438993 L299.612666,138.939289 L299.53497,137.101522 L299.612666,136.48617 L299.508035,136.599779 L299.654449,136.130495 L299.552926,135.661557 L299.289796,135.219208 L298.070833,134.024072 L297.948247,133.7972 L297.852594,133.504373 L297.156439,132.574784 L296.923351,131.995346 L296.821828,131.836846 L296.621891,131.690432 L296.194391,131.508451 L295.997216,131.385864 L295.988237,131.567845 L296.003431,131.741539 L296.092523,132.073041 L295.997216,132.073041 L295.892585,131.845824 L295.008578,130.414838 L293.744724,129.124049 L292.118635,127.761436 L290.768452,126.530387 L290.654844,126.488604 L290.604082,126.434735 L290.50843,126.097362 L290.239429,125.741687 L290.057448,125.577317 L289.650667,125.44886 L287.039739,123.904265 L285.521733,122.819629 L284.221621,122.230867 L283.274767,121.666277 L282.817915,121.277797 L282.539936,121.086492 L281.960152,120.913144 L281.446323,120.503946 L281.21289,120.402423 L280.875517,120.461817 L280.839604,120.644489 L281.02193,121.041947 L281.135539,121.200101 L282.00228,121.666277 L283.311025,122.577563 L284.386336,123.010934 L284.983732,123.411154 L285.48582,123.895286 L285.817323,124.423964 L284.541728,123.333458 L284.350078,123.106241 L284.248556,123.001611 L283.442245,122.837586 L283.35557,122.846564 L283.304464,122.819629 L283.274767,122.709129 L283.250595,122.682194 L283.119375,122.454977 L282.694637,122.368302 L282.288892,122.153171 L281.506062,121.579602 L281.144172,121.397276 L280.448362,121.209079 L280.041926,120.999818 L279.513248,120.488752 L278.691398,119.24907 L278.186547,118.729025 L277.711393,118.424112 L277.433414,118.296 L278.290832,119.577465 L279.782249,121.241884 L280.352709,122.171127 L280.337861,122.463955 L280.155189,122.777501 L279.87721,123.028545 L279.581966,123.124197 L279.289138,123.142499 L278.578134,123.306524 L278.332961,123.420133 L278.177223,123.593481 L277.812916,123.876985 L277.711393,124.095224 L277.711393,124.304485 L277.744543,124.468855 L277.72935,124.633225 L277.561872,124.848356 L277.442393,125.421925 L277.292871,125.672969 L277.05115,125.819383 L276.749,125.837339 L276.175776,125.7776 L275.870863,125.88223 L275.57769,126.097362 L275.350818,126.333212 L275.109098,126.539365 L274.415705,126.799387 L274.250989,126.99967 L274.101813,127.226888 L273.833158,127.468608 L273.148743,127.934784 L272.828981,128.221741 L272.715373,128.553243 L272.369021,128.813266 L271.744691,128.873005 L270.531599,128.855049 L270.211837,128.959679 L270.008446,129.150984 L269.733576,129.679662 L269.410706,130.059163 L269.333355,130.199706 L269.327485,130.319185 L269.378246,130.588186 L269.378246,130.74634 L269.154137,131.13482 L269.186596,131.344081 L269.135835,131.53504 L269.004615,131.631038 L268.795354,131.595125 L268.699702,131.663843 L268.562266,131.855148 L268.353005,132.228433 L268.137874,132.506067 L267.486609,132.70635 L267.289434,133.085851 L267.307391,133.295112 L267.385432,133.504373 L267.714172,134.110747 L267.893045,134.179464 L268.096436,134.221593 L268.284633,134.361445 L268.347135,134.466421 L268.353005,134.553095 L268.335394,134.63977 L268.335394,134.759249 L268.389263,134.899447 L268.508397,134.968164 L268.639962,135.018926 L268.735615,135.096622 L268.840245,135.279293 L269.004615,135.679514 L269.124094,135.879796 L269.154137,135.990297 L269.154137,136.103561 L269.118224,136.217169 L269.058484,136.312822 L268.711788,136.623605 L268.526354,137.014848 L268.53844,137.43924 L268.744593,137.863632 L268.899985,138.019024 L269.897946,138.801854 L270.080272,138.801854 L270.399689,138.236918 L270.623798,138.013154 L270.928712,137.8992 L271.302343,137.8992 L271.475691,137.967918 L271.622105,138.063915 L271.777151,138.141611 L271.986412,138.150244 L272.2195,138.114331 L272.404934,138.132288 L272.578282,138.228285 L272.757156,138.428223 L273.253374,138.697223 L273.435355,138.861593 L273.545856,139.085358 L273.557942,139.330532 L273.495785,139.581576 L273.385284,139.823642 L273.244395,140.023924 L273.044113,140.187949 L272.802392,140.343686 L272.584153,140.525668 L272.464674,140.758755 L272.333109,141.469759 L272.091043,141.332324 L271.711541,141.418998 L269.879989,142.545416 L268.855094,142.79646 L268.589201,142.910069 L268.353005,143.101374 L267.955893,143.680813 L267.720042,143.925987 L267.417892,144.027509 L267.199652,143.949813 L266.680298,143.612095 L266.387471,143.543723 L266.219993,143.561334 L265.891253,143.639375 L265.759688,143.648008 L265.586685,143.594139 L265.457882,143.498832 L265.362575,143.406287 L265.269686,143.334462 L264.946816,143.247787 L264.764835,143.232594 L264.678506,143.292333 L264.714073,143.447725 L264.851509,143.648008 L264.887076,143.785443 L264.875336,143.899052 L264.851509,143.958791 L264.463029,144.368335 L264.385333,144.428075 L264.086636,144.469858 L263.438134,144.383184 L263.178111,144.583121 L262.873543,144.496447 L262.571738,144.455009 L262.443281,144.714686 L262.17428,144.628012 L261.860388,144.601423 L261.591733,144.652184 L261.45119,144.819317 L261.002971,145.330038 L260.722229,145.841105 L260.516076,146.370128 L260.411446,146.857022 L260.447359,147.149849 L260.584794,147.290393 L260.785077,147.400894 L261.002971,147.601176 L261.116579,147.81907 L261.25436,148.243463 L261.409407,148.458594 L261.44532,148.572203 L261.463276,148.694444 L261.463276,148.804945 L261.427363,148.927532 L261.304776,149.10088 L261.236059,149.301163 L261.149384,149.985233 L261.164233,150.14097 L261.271971,150.54119 L261.349667,150.669648 L261.600711,150.828147 L261.669429,150.92967 L261.71432,151.025322 L261.756103,151.051911 L261.797541,151.103018 L261.833799,151.243216 L261.756103,151.781217 L261.756103,151.9815 L261.702234,152.20561 L261.546842,152.250155 L261.337581,152.232199 L261.140406,152.256371 L260.95808,152.423504 L260.802688,152.785049 L260.66249,152.976353 L260.489142,153.07166 L260.256054,153.149701 L259.789878,153.23603 L259.598919,153.340661 L259.467354,153.540944 L259.285028,154.001249 L258.618914,155.058604 L258.409653,155.222974 L257.925521,155.482996 L257.776,155.647366 L258.018411,156.220935 L258.487004,156.723023 L259.563006,157.918159 L260.644534,159.107425 L261.731931,160.296691 L262.813804,161.491481 L263.889115,162.681092 L264.970988,163.86725 L266.058731,165.05617 L267.140258,166.242673 L267.167193,166.242673 L267.791523,166.09626 L268.111285,166.077958 L268.962487,166.138043 L269.124094,166.17361 L269.297442,166.251306 L269.446619,166.33798 L269.60201,166.415676 L269.811271,166.433633 L270.617928,166.329348 L270.904539,166.382871 L271.006407,166.451589 L271.10206,166.55622 L271.20669,166.624937 L271.311321,166.633916 L271.448756,166.529285 L271.615889,166.26063 L271.72639,166.164632 L272.022325,166.146676 L272.646655,166.364915 L272.966762,166.355937 L273.235417,166.164632 L273.808986,165.594171 L274.077986,165.462606 L274.675727,165.307215 L274.857708,165.366954 L274.998251,165.695694 L275.195426,165.878021 L275.838058,165.653911 L275.960645,165.818281 L276.417497,166.858025 L276.635736,167.108724 L276.928564,167.335941 L277.561872,167.691616 L277.962092,167.891899 L277.980394,168.29799 L277.72935,169.155753 L277.717264,169.711365 L277.666502,169.971387 L277.561872,170.23141 L277.460004,170.649586 L277.424782,171.507349 L277.224499,172.141003 L277.286655,172.756009 L277.256958,173.025355 L277.173392,173.276054 L277.041827,173.500164 L276.635736,174.091688 L276.563911,174.265037 L276.531451,174.420429 L276.513149,174.567188 L276.468258,174.698407 L276.331168,174.826865 L276.199258,174.87141 L275.915409,174.880388 L275.792822,174.895582 L275.410558,175.305126 L275.368775,175.573781 L275.4406,175.833458 L275.595992,176.039612 L275.820102,176.162199 L275.993105,176.198111 L276.121562,176.198111 L276.199258,176.135264 L276.235171,175.970894 L276.313212,175.860738 L276.462388,175.866609 L276.61778,175.947067 L276.695476,176.04859 L276.773172,176.308612 L276.922693,176.353849 L277.146803,176.293418 L277.424782,176.248873 L277.762155,176.362481 L277.935157,176.389071 L278.022177,176.293418 L278.081916,176.17981 L278.222114,176.135264 L278.386484,176.144242 L278.52392,176.170831 L278.655485,176.257851 L278.864746,176.526851 L278.942097,176.595224 L279.070899,176.577613 L279.348878,176.449156 L279.530859,176.449156 L279.593706,176.499917 L279.548815,176.682243 L279.608555,176.769263 L279.671748,176.786874 L279.826794,176.786874 L279.895512,176.795507 L280.197317,176.873203 L280.319904,176.846959 L280.433168,176.717811 L280.62171,176.968855 L281.455301,177.429505 L281.577542,177.548985 L281.679065,177.689182 L281.81063,177.802446 L281.977763,177.853553 L282.13937,177.871509 L282.192894,177.921925 L282.184261,178.157775 L282.088609,178.495494 L281.601024,178.997927 L281.455301,179.266237 L281.48189,179.326667 L281.619326,179.494145 L281.655584,179.586344 L281.619326,179.673018 L281.490868,179.846021 L281.455301,179.926825 L281.422151,180.177869 L281.422151,180.306672 L281.455301,180.455848 L281.619326,180.835349 L281.852413,180.99972 L282.470873,181.200002 L282.773024,181.435853 L282.730895,181.633373 L282.575503,181.878201 L282.52198,182.206596 L282.659415,182.430706 L283.145964,182.873055 L283.346247,183.237362 L283.433266,183.306425 L283.493006,183.393445 L283.484028,183.757407 L283.573464,183.810931 L283.711245,183.810931 L284.159464,183.879994 L284.332467,183.940079 L284.42812,184.06232 L284.464032,184.19941 L284.43986,184.304041 L284.36251,184.372759 L284.221621,184.400039 L283.952966,184.504324 L283.692943,184.773324 L283.484028,185.102064 L283.388375,185.389021 L283.433266,185.708783 L283.493006,185.950849 L283.448115,186.151132 L283.164266,186.369371 L282.581374,186.629048 L282.4025,186.802051 L282.288892,187.166704 L282.279914,187.331074 L282.294762,187.459531 L282.288892,187.582118 L282.201872,187.746143 L282.07376,187.841795 L281.750891,187.988209 L281.203911,188.484427 L280.03571,188.890518 L279.677273,189.28176 L279.671748,189.706498 L279.895512,190.011411 L280.155189,190.303893 L280.268798,190.668546 L280.023969,191.256963 L279.982186,191.51077 L280.23323,191.415463 L280.164167,192.099877 L280.191102,192.195184 L280.275013,192.386144 L280.260165,192.482141 L280.191102,192.550859 L280.095449,192.577794 L279.999797,192.577794 L279.955251,192.592642 L279.808838,193.070904 L279.435207,193.677277 L279.375467,193.817475 L279.184163,194.457344 L279.088856,194.588219 L278.98388,194.684217 L278.906529,194.788847 L278.906529,194.977044 L278.948312,195.063373 L279.070899,195.204261 L279.097488,195.299914 L279.061576,195.35033 L278.882357,195.377609 L278.837811,195.419393 L278.853005,195.506067 L278.966614,195.655243 L278.978355,195.751241 L278.933464,195.846202 L278.84679,195.888331 L278.760115,195.923898 L278.679657,195.983983 L278.300156,196.608313 L278.159612,196.937053 L278.093657,197.301706 L278.141656,198.108362 L278.099873,198.413276 L277.807045,199.572499 L277.717264,201.887837 L277.771133,202.165816 L278.222114,203.032557 L278.213136,203.109908 L278.141656,203.283256 L278.13544,203.33678 L278.204503,203.387887 L278.386484,203.45695 L278.446224,203.510128 L278.568811,203.752194 L278.583659,203.856825 L278.583659,204.039497 L278.637529,204.308152 L279.043619,205.234633 L279.070899,205.383809 L279.088856,205.694592 L279.121661,205.843769 L279.121661,205.999506 L278.978355,206.241572 L278.948312,206.372446 L279.097488,206.641792 L279.375467,206.829989 L279.940058,207.125924 L280.382406,207.498864 L280.555755,207.585884 L280.69319,207.612473 L280.968061,207.619034 L281.099281,207.654602 L281.404194,208.001298 L281.428366,208.487847 L281.35067,209.032064 L281.362411,209.560742 L281.490868,209.988242 L281.500192,210.13431 L281.446323,210.271746 L281.290931,210.526243 L281.248802,210.672311 L281.266759,210.863616 L281.422151,211.156443 L281.472912,211.314943 L281.463934,211.425444 L281.37726,211.661294 L281.35067,211.780773 L281.386238,212.154404 L281.37726,212.285969 L281.308887,212.432038 L281.135539,212.710017 L281.08167,212.874387 L281.075799,213.098496 L281.09341,213.412388 L281.15902,213.698999 L281.290931,213.854391 L281.463934,213.863369 L281.759524,213.758739 L281.924239,213.767372 L282.46224,213.976978 L282.635243,214.018761 L282.730895,213.991827 L282.766808,214.009783 L282.781657,214.183477 L282.479506,214.765678 L282.252634,215.067484 L282.270935,215.19007 L282.581374,215.518811 L282.722262,215.614463 L282.86246,215.692159 L283.023723,215.73705 L283.311025,215.719093 L283.561378,215.65003 L283.812768,215.614463 L284.117336,215.70977 L284.421904,215.952181 L284.819707,216.6031 L285.055212,216.904906 L285.503431,217.25471 L285.635342,217.401124 L285.91332,217.902867 L286.041432,218.049626 L286.113258,218.076215 L286.286261,218.10315 L286.363957,218.139408 L286.415063,218.216758 L286.510716,218.440868 L286.573563,218.500607 L286.746911,218.545153 L287.030415,218.468148 L287.158872,218.485759 L287.32635,218.70089 L287.362263,218.969546 L287.422003,219.211612 L287.682025,219.361478 L287.804267,219.51618 L288.105727,220.191961 L288.27942,220.43679 L288.539097,220.574225 L289.45073,220.860837 L291.834786,221.285229 L292.477763,221.527295 L292.764374,221.682687 L293.033375,221.900926 L293.257139,222.238645 L293.326202,222.543558 L293.457422,222.835695 L293.82173,223.131975 L294.105579,223.254217 L294.365601,223.296 L294.616645,223.269065 L294.903602,223.209671 L295.250299,223.072236 L295.518954,222.880931 L295.752042,222.638865 L296.143629,222.065297 L296.307654,221.942364 L296.525893,221.927516 L297.981397,222.055973 L298.076358,222.023513 L298.259376,221.88297 L298.321878,221.856036 L298.390595,221.891948 L298.467946,221.951343 L298.519053,222.005557 L298.519053,222.038362 L298.632316,222.073929 L298.745925,222.142647 L298.865749,222.134014 L299.308098,221.440967 L299.40306,221.189922 L299.397535,220.852204 L299.301882,220.556614 L299.032882,219.991679 L298.937575,219.70783 L299.152706,219.438484 L300.365453,219.229913 L300.757041,218.978524 L300.766019,218.841088 L300.678999,218.545153 L300.694193,218.399085 L300.801932,218.312411 L301.130326,218.162889 L301.250151,218.076215 L301.354781,217.902867 L301.434894,217.694296 L301.530547,217.514387 L301.692154,217.401124 L301.751894,217.434274 L301.901415,217.661146 L301.996722,217.77441 L302.248112,217.894234 L302.552334,217.980563 L302.863463,218.034777 L303.132119,218.04341 L303.314445,217.989886 L303.442902,217.902867 L303.601057,217.876278 L303.83449,217.998519 L303.947753,218.139408 L304.052729,218.449846 L304.147691,218.56311 L304.608341,218.683279 L305.283778,218.709869 L305.881173,218.59626 L306.114261,218.318281 L306.359089,217.869717 L306.454742,217.607277 L306.496525,217.356578 L306.419174,216.923208 L306.400873,216.708076 L306.487892,216.6031 L306.711656,216.63038 L307.139157,216.803728 L307.381222,216.818577 L307.626051,216.731558 L308.109838,216.43873 L309.254558,215.928009 L309.71141,215.805422 L310.225584,215.832702 L311.432461,216.056466 L311.874809,216.038855 L312.531944,215.87414 L312.965315,215.554033 L313.912515,214.356479 L314.05582,214.096457 L314.414603,213.161689 L314.561017,213.029778 L314.761299,212.961406 L315.053781,212.805669 L315.280999,212.596408 L315.459872,212.381276 L315.669478,212.181339 L315.992003,212.068076 L316.338354,212.103298 L316.858744,212.423405 L317.145356,212.476929 L318.367426,211.712056 L319.051841,211.434422 L319.484866,211.780773 L319.580519,212.190317 L319.744543,212.476929 L320.013889,212.701384 L320.38752,212.901321 L320.647543,212.952082 L320.880631,212.952082 L321.349223,212.901321 L321.663115,212.909954 L321.782594,212.979017 L321.878246,213.116453 L322.105118,213.298779 L322.296423,213.367151 L323.309578,213.534975 L323.509515,213.534975 L323.683209,213.453826 L324.289582,212.979017 L324.48952,212.934126 L324.776477,212.979017 L325.060326,212.987995 L325.260263,212.883365 L325.451913,212.736951 L325.693634,212.641644 L325.971613,212.673758 L326.198485,212.814647 L326.396005,212.979017 L326.611137,213.083648 L326.846987,213.065691 L327.280358,212.823625 L327.949578,212.569473 L327.895709,212.405448 Z" id="Fill-3"></path>
        </g>
    </g>
</svg>