<svg width="135px" height="116px" viewBox="0 0 135 116" version="1.1" xmlns="http://www.w3.org/2000/svg" xmlns:xlink="http://www.w3.org/1999/xlink">
    <!-- Generator: Sketch 51.2 (57519) - http://www.bohemiancoding.com/sketch -->
    <desc>Created with Sketch.</desc>
    <defs></defs>
    <g id="Page-1" stroke="none" stroke-width="1" fill="none" fill-rule="evenodd">
        <g id="LY-EPS-01-0001" transform="translate(-160.000000, -110.000000)" fill="#7F807C">
            <polyline id="Fill-3" points="181.487409 111.600151 181.796445 111.699043 181.624758 111.542464 181.077421 111.392753 180.935951 111.234802 181.342162 111.428121 182.247982 111.681187 184.212423 112.731568 184.561978 113.038201 184.882689 113.11958 185.422129 113.420032 186.085184 113.695761 186.458775 113.784352 189.666229 114.070382 190.459766 114.02231 192.5619 113.501068 192.906647 113.368183 193.178256 113.184134 193.320413 113.110652 193.514076 113.081122 194.097124 113.06155 194.891005 113.182074 194.987836 113.221906 195.075396 113.285086 196.738355 114.035358 197.120874 114.114334 198.550682 114.061454 198.912598 114.108153 199.627502 114.287394 200.265491 114.523979 201.81548 114.750262 201.896516 114.777389 202.049318 114.895509 202.09945 114.922636 202.242637 114.974485 202.543776 115.232359 203.004584 115.483709 203.734253 116.017655 204.114368 116.366179 204.285368 116.419402 205.646845 116.615812 205.781104 116.677619 205.910213 116.775137 206.275906 116.946481 206.446219 116.99318 207.995178 117.05018 209.707927 117.311831 210.087011 117.430638 210.272776 117.457421 210.388493 117.505494 210.701994 117.864663 211.00897 118.017464 211.121596 118.114982 211.196795 118.420928 211.269934 118.589525 211.454669 118.897187 211.807314 119.313356 211.85573 119.444525 211.839591 119.621363 211.765079 119.922845 211.728338 120.457135 211.777784 121.072117 211.85573 121.374286 212.863532 123.597288 213.065092 123.903921 213.977093 125.005464 214.518937 125.505416 215.140787 125.922615 217.520024 126.868953 220.159194 127.276538 223.264667 127.303664 225.060855 127.643604 226.897218 128.186822 228.327027 128.457744 228.624732 128.456714 228.700274 128.486244 228.759678 128.522641 229.068027 128.662051 229.307359 128.859491 229.396636 128.903786 229.473208 128.931943 230.709354 129.247503 231.362451 129.523576 232.070488 129.729257 232.679633 129.825401 232.790542 129.909871 233.021976 130.20998 233.174778 130.331534 233.337193 130.401239 234.094333 130.546143 235.42731 130.981884 235.703725 131.123354 235.933786 131.311867 236.677534 132.067289 238.730222 133.385501 239.191373 133.842531 239.442379 134.038598 239.996928 134.297845 240.347169 134.358279 240.512675 134.427984 241.734056 135.122285 242.086357 135.254141 242.833195 135.350972 243.584497 135.363334 244.37151 135.285045 244.808281 135.175508 245.201101 135.076617 245.87583 134.787153 246.813928 134.253206 246.986645 134.184875 247.365042 134.125815 247.535356 134.046839 248.648917 133.294163 250.038551 131.848903 250.407334 131.28783 250.609925 131.044722 250.916214 130.833203 251.067299 130.704095 251.598498 129.730287 251.991661 128.801804 252.03939 128.443322 251.991661 127.362381 251.835769 127.142622 251.627341 126.58979 251.449474 126.355266 251.081034 126.026314 250.946774 125.84982 250.379864 124.482849 250.329388 124.133638 250.322521 123.763137 250.291617 123.625788 250.144997 123.308854 250.093147 123.152962 250.064647 122.804094 250.085593 122.422263 250.207834 121.718346 250.322521 121.403129 250.304665 121.319003 250.270328 121.226979 250.25625 121.135985 250.293677 121.053575 250.399437 120.925496 251.1631 119.553375 251.36054 119.298248 252.958258 117.9275 253.090114 117.748602 253.494264 117.33724 253.664235 117.25174 253.999367 117.128469 254.147705 117.02168 254.262048 116.920041 255.486176 116.092854 257.451991 115.377606 258.60916 114.709057 259.590866 114.291172 259.974758 114.217003 261.573506 114.301129 261.952591 114.271599 262.648266 114.114334 262.982369 113.952262 264.276888 112.959568 264.399472 112.909435 264.808431 112.882652 265.182021 112.794405 265.412082 112.958538 265.781209 113.083526 266.18845 113.163532 266.535601 113.191002 268.374711 113.023779 268.417976 112.995966 268.507253 112.874068 268.547428 112.846598 268.73285 112.818785 268.8235 112.815008 268.923079 112.846598 268.990723 112.897074 269.003428 112.941369 269.003428 112.996996 269.037765 113.081122 269.304567 113.317364 269.64485 113.379171 270.419158 113.368183 270.752231 113.467074 271.577015 113.999304 271.739774 114.081027 271.883991 114.133906 272.038852 114.163093 272.429612 114.187473 274.394053 114.693606 274.84971 114.947702 274.998734 114.98513 275.095222 114.998178 275.374042 115.094666 275.487012 115.108401 275.775102 115.094666 275.967048 115.146859 276.316946 115.2976 276.696718 115.348419 276.862567 115.404046 276.966953 115.492636 276.986182 115.6111 276.93914 115.697631 276.792519 115.850775 276.761615 115.929408 276.842308 116.441378 276.923688 116.57289 277.050393 116.676589 277.221393 116.763463 277.154435 116.927595 277.049363 117.457421 276.881796 117.400421 276.913387 117.319728 276.894844 117.249337 276.838531 117.182722 276.761615 117.113361 276.634567 117.802512 276.646928 117.973512 276.77329 118.062102 277.28423 118.230356 277.473086 118.260229 277.609405 118.330277 277.773538 118.492006 277.909514 118.675025 278.016303 118.927404 278.13202 118.984748 278.265592 119.018398 278.367918 119.069218 278.432816 119.164332 278.511791 119.34632 278.593171 119.413278 278.578749 119.274899 278.482261 118.897187 278.646051 118.95041 279.01037 118.956591 279.085912 118.983031 279.321467 119.150597 279.375033 119.179097 280.431938 119.2567 281.596662 119.241248 283.032307 119.527622 284.362194 119.991863 284.163724 120.157369 284.126296 120.220893 284.194628 120.257978 284.413357 120.336267 284.943869 120.686852 285.136502 120.732864 286.733533 120.717412 288.961342 120.853045 289.719512 120.655605 289.907681 120.540574 290.004855 120.508641 290.343765 120.565984 290.41141 120.549845 290.475621 120.517912 290.539488 120.50246 290.608163 120.537484 290.640784 120.56049 290.742766 120.613026 290.860199 120.640153 291.026736 120.716038 291.300405 120.75587 291.644809 120.870557 292.623767 121.050484 292.926623 121.209123 293.056418 121.483822 292.982249 121.817925 292.962334 122.00163 293.025514 122.151341 293.311888 122.427413 293.758274 122.982305 293.801883 123.127209 293.925154 123.364137 294.08963 123.611709 294.057696 123.639866 294.044648 123.667336 293.514479 124.026848 293.279954 124.313909 292.971605 125.027783 291.606351 125.986139 291.502308 126.252941 291.499561 126.56026 291.583001 127.267267 291.591242 127.956075 291.785935 128.853997 291.843279 129.02431 292.137893 129.545895 292.248116 129.974426 292.614496 130.649842 292.72884 130.988408 292.67596 131.278559 292.550285 131.56665 292.4459 131.902813 292.357652 132.365337 292.102182 132.944266 292.074712 133.111489 291.995737 133.395115 291.831947 133.683549 291.340236 134.329092 291.085796 134.553658 290.859169 134.804321 290.779163 134.921412 290.63838 135.209846 290.289856 135.75478 290.15594 136.050081 290.152506 136.37457 290.228392 136.555528 290.46532 136.927401 291.189152 138.5028 291.226923 138.691656 291.216965 138.858536 291.075838 139.29668 291.131808 139.646235 291.564116 140.279416 291.685327 140.62485 291.683953 140.829501 291.608754 141.438303 291.627983 141.763134 291.710393 142.053629 292.408128 143.530479 292.556123 143.981672 292.614496 144.464799 292.614496 205.898146 292.613123 206.945779 292.613123 210.085933 292.611749 211.132879 292.611749 214.274406 292.611062 215.321009 292.611062 217.414559 292.608659 219.012277 292.608659 221.601659 292.600418 221.615051 292.59252 221.627755 292.584279 221.64046 292.576382 221.652822 292.557839 221.655225 292.539641 221.657972 292.521785 221.660033 292.503243 221.66278 291.656483 221.66278 290.429609 221.660719 289.403608 221.660719 288.356661 221.660033 287.232455 221.658659 286.283027 221.658659 285.564689 221.657972 284.21111 221.657972 284.21111 225.854 283.173091 225.340313 281.097739 224.316372 280.05972 223.802685 279.021702 223.290028 277.982996 222.778058 276.946007 222.264714 275.907301 221.7524 273.83195 220.72846 272.793931 220.215803 271.755569 219.702459 270.71858 219.190145 269.680218 218.677488 268.642199 218.165518 267.604523 217.652861 266.565818 217.140204 265.528485 216.62789 264.48978 216.11592 263.452448 215.602576 262.414429 215.089575 261.37641 214.577948 260.337361 214.063918 259.301059 213.551604 258.261666 213.039977 257.225364 212.526977 256.187345 212.01535 255.148639 211.502349 254.111994 210.989692 253.072945 210.477379 252.035269 209.964035 250.99725 209.452065 248.920526 208.427437 247.884224 207.915124 246.844831 207.40178 245.807156 206.889123 244.769137 206.377152 243.731805 205.863465 242.693442 205.351495 241.655767 204.839525 240.617748 204.325837 239.578699 203.813867 238.541023 203.30121 237.503004 202.78924 236.465329 202.275896 234.388604 201.250925 233.350585 200.738955 232.312909 200.226985 231.275234 199.713641 230.237215 199.201327 228.161864 198.176013 227.123845 197.664043 226.084796 197.151386 225.04815 196.639415 224.009101 196.127102 222.971426 195.613414 221.933407 195.100414 220.896075 194.588787 219.857025 194.0751 218.82038 193.56313 217.781331 193.050816 217.015951 192.672075 216.844264 192.694051 216.471017 192.863334 215.986173 193.082063 215.502016 193.302852 215.017172 193.521925 214.533702 193.740997 214.049201 193.960756 213.563327 194.180859 213.07917 194.400618 212.594327 194.620377 212.108796 194.840823 211.139795 195.279312 210.654951 195.499071 210.169421 195.7178 209.686981 195.938246 209.202824 196.157662 208.71695 196.377764 208.587841 196.436138 208.572733 196.443692 208.569299 196.445409 208.563462 196.448843 207.124726 197.174735 205.688393 197.89994 204.250687 198.626176 202.812981 199.351381 202.281438 199.619213 202.15233 199.633635 202.029402 199.575604 201.646884 199.259701 199.545093 197.53047 197.441585 195.798836 196.969789 195.408764 195.98362 194.899884 195.129993 194.708968 194.389335 194.543118 193.646961 194.377956 192.905617 194.212793 192.163243 194.0466 191.422243 193.881437 190.681242 193.716618 189.939898 193.550425 189.197867 193.384575 188.456523 193.219412 187.715523 193.05425 186.973149 192.890117 186.232148 192.723237 185.491834 192.559105 184.748773 192.391882 184.007429 192.228092 183.266429 192.061213 182.623633 190.861465 182.034747 189.765072 180.473426 186.849829 179.890721 185.763394 179.674395 185.50552 179.39901 185.368171 176.385561 184.456513 174.379915 183.850115 172.77739 183.364928 172.596088 183.332994 172.413757 183.35188 171.484587 183.666067 170.504599 183.998109 170.170839 184.029013 170.013574 183.972013 168.908941 183.159934 168.757169 183.005073 168.652097 182.712175 168.504446 181.932373 168.346151 181.703686 167.095584 181.035137 166.990855 180.810571 166.973343 179.64413 166.901234 177.35005 166.788264 176.81679 166.465149 176.280097 161.689163 170.24599 161.492754 169.779345 161.700495 169.382748 161.817585 169.247802 161.971417 168.913356 162.258134 168.669561 162.331616 168.547663 162.363206 168.404476 162.373507 168.236223 165.341287 166.962649 165.499239 166.793023 165.850167 165.713799 165.831281 165.534901 165.734793 165.301407 165.75883 165.009539 165.970004 164.114707 165.937041 163.993496 165.804155 163.891514 165.428161 163.703345 165.335793 163.62746 165.255444 163.462984 165.091998 162.58429 164.37984 160.342403 164.384304 160.204367 164.423106 160.067361 164.562172 159.735661 164.673425 159.24086 164.793262 159.062992 165.155178 158.707944 165.22248 158.546558 165.13904 158.371094 165.016455 158.183612 164.989672 158.008148 165.19604 157.874232 165.432624 157.759545 165.573064 157.592322 166.169161 155.843176 166.182896 155.512164 164.955678 152.632288 164.847172 152.144354 165.471426 147.787971 165.446359 146.193343 165.260594 144.909468 163.928991 140.87723 162.937327 139.246891 161.862224 137.848673 160.923097 136.876925 160.726 136.60154 162.685291 135.662412 164.565606 134.801574 164.813178 134.744918 165.425414 134.70955 165.640022 134.601731 166.684909 133.430139 167.5715 132.193307 168.33688 131.440975 168.855031 130.512149 168.98826 130.172896 168.991694 129.891329 168.780862 129.302787 168.743434 129.004395 168.790133 128.681967 168.778802 128.525732 168.513374 128.045008 168.256874 127.159104 167.629873 125.721741 167.614078 125.575808 167.703699 125.027783 167.835554 124.83309 168.372247 124.320433 168.939501 123.464059 169.372152 123.16704 170.316086 123.177342 170.776551 123.022137 170.913557 122.927709 171.036828 122.821263 171.13778 122.694558 171.278906 122.404064 171.633612 122.121124 171.743148 121.841961 171.813539 121.168948 172.002738 120.996575 172.16069 121.014774 172.311775 121.088256 172.46595 121.140105 172.629739 121.097183 172.911305 120.902147 173.216221 120.741105 173.491264 120.507267 173.830174 119.839748 174.059204 119.630634 178.856136 117.682674 179.443305 117.350632 179.715944 117.129843 179.865311 116.867505 179.835781 116.51383 179.640401 116.211661 179.077612 115.743299 178.905925 115.418124 178.899401 114.9556 179.022329 114.069352 178.961551 113.198213 179.111606 112.628899 179.115726 112.158477 179.136672 112.029368 179.377377 111.229651 179.369479 110.854 179.548377 110.890398 179.835781 110.983452 179.961113 111.050066 180.067558 111.265705 180.197354 111.356699 180.471709 111.464175 181.487409 111.600151"></polyline>
        </g>
    </g>
</svg>