
<svg width="81px" height="154px" viewBox="0 0 81 154" version="1.1" xmlns="http://www.w3.org/2000/svg" xmlns:xlink="http://www.w3.org/1999/xlink">
    <!-- Generator: Sketch 51.2 (57519) - http://www.bohemiancoding.com/sketch -->
    <desc>Created with Sketch.</desc>
    <defs></defs>
    <g id="Page-1" stroke="none" stroke-width="1" fill="none" fill-rule="evenodd">
        <g id="PW-EPS-01-0001" transform="translate(-424.000000, -130.000000)" >
            <g id="Group" transform="translate(424.000000, 129.000000)">
                <polygon id="Path" points="38.4512727 101.747636 38.5217273 101.674364 38.4484545 101.595455 38.192 101.595455 38.1271818 101.674364 38.192 101.747636"></polygon>
                <polygon id="Path" points="38.4230909 99.8369091 37.7298182 100.502 37.5381818 100.868364 37.0224545 101.009273 36.9632727 101.815273 37.0365455 101.888545 37.2958182 101.888545 37.355 101.815273 37.3521818 101.522182 37.9355455 101.009273 38.0595455 101.161455 38.4428182 101.161455 38.5104545 100.936 38.7669091 100.795091 38.7612727 100.349818 39.1473636 100.056727 39.1417273 99.6199091 38.9444545 99.4029091 38.7528182 99.6199091 38.6908182 99.9862727"></polygon>
                <polygon id="Path" points="37.5381818 105.191455 37.4649091 105.109727 37.3352727 105.109727 37.2704545 105.191455 37.2732727 105.343636 37.3380909 105.416909 37.4705455 105.411273 37.5381818 105.343636"></polygon>
                <polygon id="Path" points="37.479 105.989 37.603 105.989 37.665 105.921364 37.4761818 105.704364 37.4113636 105.777636 37.417 105.921364"></polygon>
                <polygon id="Path" points="38.3357273 102.190091 38.4569091 102.190091 38.5273636 102.108364 38.5245455 101.964636 38.4540909 101.897 38.3300909 101.897 38.2652727 101.964636 38.2652727 102.108364"></polygon>
                <polygon id="Path" points="37.6114545 106.583636 37.7467273 106.583636 37.8087273 106.507545 37.6086364 106.290545 37.5494545 106.363818 37.5522727 106.507545"></polygon>
                <polygon id="Path" points="38.1835455 105.484545 38.1835455 105.343636 37.9834545 105.109727 37.8481818 105.109727 37.7861818 105.191455 38.1159091 105.555"></polygon>
                <polygon id="Path" points="36.2361818 105.039273 36.239 105.191455 36.3122727 105.264727 36.4334545 105.264727 36.6250909 105.039273 36.5518182 104.971636 36.3038182 104.971636"></polygon>
                <polygon id="Path" points="36.5433636 103.647091 36.4757273 103.717545 36.5461818 103.799273 36.6701818 103.799273 36.7434545 103.717545 36.6701818 103.647091"></polygon>
                <polygon id="Path" points="36.9238182 103.354 36.797 103.354 36.7406364 103.432909 36.7998182 103.506182 36.9238182 103.506182 36.9858182 103.432909"></polygon>
                <polygon id="Path" points="36.7321818 102.835455 36.7913636 102.92 36.9181818 102.92 36.9773636 102.835455 36.9745455 102.694545 36.9125455 102.626909"></polygon>
                <polygon id="Path" points="36.9548182 105.264727 37.0844545 105.264727 37.1464545 105.191455 37.1436364 105.039273 37.076 104.971636 36.9491818 104.971636 36.8871818 105.039273 36.8871818 105.191455"></polygon>
                <polygon id="Path" points="36.9632727 105.994636 37.0872727 105.989 37.1577273 105.921364 37.1520909 105.628273 37.0816364 105.557818 36.8956364 105.777636 36.8984545 105.921364"></polygon>
                <polygon id="Path" points="35.092 101.894182 35.2949091 101.668727 35.2920909 101.527818 35.0835455 101.305182 34.9595455 101.305182 34.8975455 101.375636 34.906 101.820909 34.968 101.894182"></polygon>
                <polygon id="Path" points="31.9553636 108.635273 31.7073636 108.635273 31.6340909 108.705727 31.8313636 108.931182 31.9581818 108.931182 32.0258182 108.846636 32.023 108.705727"></polygon>
                <polygon id="Path" points="33.635 103.571 33.7054545 103.804909 34.0887273 103.804909 34.1563636 103.720364 34.1535455 103.571 33.8914545 103.286364 33.8886364 103.134182 33.8153636 103.066545 33.6941818 103.066545 33.5053636 103.286364 33.5025455 103.427273"></polygon>
                <polygon id="Path" points="32.9191818 88.1809091 33.3137273 88.474 33.5025455 88.8347273 33.5673636 88.7670909 33.4320909 88.1809091 33.1671818 87.8906364 33.1615455 87.5947273 33.0347273 87.4425455 33.1587273 87.1607273 33.0319091 87.0085455 33.0234545 86.5632727 32.6373636 86.2870909 32.4316364 85.6163636 32.24 85.8418182 32.2484545 86.2870909 32.3724545 86.428 32.3752727 86.5689091 32.5105455 86.7210909 32.3780909 86.862 32.3809091 87.1635455 32.9135455 87.8906364"></polygon>
                <polygon id="Path" points="28.8750909 110.250091 28.6890909 110.317727 28.6919091 110.763 28.9596364 111.056091 29.0244545 111.416818 29.4697273 111.205455 29.4640909 111.056091"></polygon>
                <polygon id="Path" points="30.9323636 108.635273 30.7970909 108.779 30.6730909 108.635273 30.4758182 108.852273 30.7294545 109.145364 30.7322727 109.294727 30.3518182 109.590636 30.2390909 110.176818 30.6843636 110.244455 31.0056364 109.878091 31.1268182 109.585 31.1183636 108.852273"></polygon>
                <polygon id="Path" points="30.5180909 107.454455 30.3940909 107.454455 30.3264545 107.688364 29.9403636 107.973 29.8276364 108.852273 30.1601818 108.931182 30.2137273 108.567636 30.5998182 108.125182"></polygon>
                <polygon id="Path" points="40.517 101.742 40.5902727 101.668727 40.579 101.223455 40.5085455 101.155818 40.3789091 101.155818 40.3140909 101.229091 40.3169091 101.668727 40.3873636 101.742"></polygon>
                <polygon id="Path" points="39.7955455 96.317 39.6771818 96.317 39.4827273 96.5368182 39.4911818 97.123 39.6828182 97.3484545 39.8800909 97.123 39.8716364 96.3959091"></polygon>
                <polygon id="Path" points="39.6546364 99.913 39.6574545 100.208909 39.8547273 100.276545 40.0379091 100.065182 40.0407273 99.4705455 39.8378182 99.2535455 39.5278182 99.7636364"></polygon>
                <polygon id="Path" points="38.9190909 97.4893636 38.719 97.5598182 38.7302727 98.0022727 39.1276364 98.4390909 39.1896364 98.673 39.5137273 98.5912727 39.5052727 98.1544545 39.1163636 97.8613636"></polygon>
                <polygon id="Path" points="38.2342727 114.494273 37.5860909 114.204 37.1859091 113.468455 36.9999091 113.691091 37.1267273 113.984182 37.0224545 115.156545 37.2112727 115.376364 37.6001818 115.376364 37.8566364 115.080455 38.8176364 114.871909 38.4963636 114.494273"></polygon>
                <polygon id="Path" points="33.5786364 104.379818 33.4518182 104.379818 33.3954545 104.450273 33.3982727 104.751818 33.4574545 104.825091 33.7195455 104.825091 33.7815455 104.751818 33.7787273 104.602455"></polygon>
                <polygon id="Path" points="32.4288182 119.992545 32.4316364 120.144727 32.7529091 120.212364 33.015 119.919273 33.5222727 119.778364 33.5786364 119.558545 33.0093636 119.485273"></polygon>
                <polygon id="Path" points="40.7678182 110.402273 40.5677273 110.165545 40.6269091 109.957 40.7621818 110.097909 41.0834545 110.024636 41.0778182 109.590636 40.8749091 109.370818 40.362 109.511727 40.0322727 109.151 39.8941818 107.826455 39.7673636 107.682727 39.7589091 107.240273 40.0012727 106.654091 40.5198182 105.924182 40.5141818 105.631091 40.6353636 105.490182 40.5085455 105.338 40.486 103.861273 40.2915455 103.793636 40.2239091 103.579455 40.0886364 103.427273 40.0548182 101.229091 39.8631818 100.710545 39.6067273 100.710545 39.5447273 101.088182 39.6715455 101.229091 39.6969091 102.846727 39.5672727 102.987636 39.5757273 103.585091 39.7081818 103.720364 39.5841818 104.306545 39.7194545 104.458727 39.7363636 105.478909 39.8631818 105.631091 39.5419091 105.856545 39.3446364 105.772 39.339 105.338 39.0740909 104.746182 39.0571818 103.585091 39.3108182 103.139818 39.3051818 102.846727 39.1135455 102.621273 38.8542727 102.621273 38.7274545 102.469091 38.595 102.469091 38.5301818 102.705818 38.8007273 102.987636 38.8035455 103.139818 38.5386364 103.280727 38.6767273 103.726 38.2878182 104.019091 38.2990909 105.039273 38.5048182 105.555 38.7612727 105.411273 38.8289091 105.484545 38.8401818 106.358182 38.6457273 106.583636 38.3244545 106.507545 38.254 106.138364 37.8735455 106.876727 37.3578182 106.868273 37.2253636 106.290545 36.9689091 106.431455 36.6391818 106.070727 36.6363636 105.777636 36.4390909 105.557818 36.0642727 106.146818 35.6725455 106.146818 35.3428182 105.783273 35.34 105.478909 35.5936364 105.197091 35.5908182 104.904 36.3489091 104.019091 35.898 103.943 35.774 104.092364 34.8721818 103.943 34.2888182 104.458727 34.1732727 104.751818 34.5621818 105.044909 34.5678182 105.631091 34.3733636 105.698727 34.0577273 106.217273 34.0661818 106.806273 33.8125455 107.096545 33.8153636 107.975818 34.2803636 108.632455 34.4776364 108.717 34.4832727 108.993182 34.9313636 109.511727 35.0722727 109.511727 35.1962727 109.661091 35.5823636 109.661091 35.8500909 109.951364 36.4926364 109.951364 37.1351818 109.365182 37.262 109.517364 37.7861818 109.517364 38.0285455 109.224273 38.1638182 109.224273 38.347 108.857909 38.0229091 108.779 38.0229091 108.635273 38.6767273 108.635273 38.9275455 108.494364 39.1191818 108.705727 39.0008182 108.998818 39.7814545 109.585 39.5334545 109.886545 39.5926364 110.097909 39.9871818 110.097909 40.0548182 110.464273 40.641 110.977182 40.9002727 110.977182 41.0947273 110.763 41.0890909 110.469909"></polygon>
                <polygon id="Path" points="66.2526364 74.6254545 65.9905455 74.3323636 65.7312727 74.3323636 65.6692727 74.5493636 65.9285455 74.6987273 65.999 74.9100909 66.2554545 74.9185455 66.3822727 75.0594545 66.4414545 74.9918182 66.4358182 74.6987273"></polygon>
                <polygon id="Path" points="29.2724545 85.8361818 29.0751818 85.6191818 28.4298182 85.6248182 28.1677273 85.7685455 28.0409091 85.6248182 27.6576364 85.6248182 27.2574545 85.3232727 26.4824545 85.3232727 26.226 85.6163636 25.8427273 85.6163636 25.3833636 85.3965455 25.3805455 85.1034545 25.2537273 84.9597273 25.6341818 84.6666364 25.6313636 84.5172727 24.7774545 83.2744545 24.459 83.3477273 24.4674545 84.0860909 24.7295455 84.3650909 24.7408182 85.1034545 25.1945455 85.7629091 25.3298182 85.7629091 25.5806364 86.0644545 26.1104545 86.2025455 26.6233636 86.6478182 27.1475455 86.6478182 27.3363636 86.2701818 27.0714545 86.1292727 27.2630909 85.9094545 27.7900909 86.0616364 27.9112727 86.2025455 28.5622727 86.056 28.6834545 86.2081818 29.0836364 86.2081818"></polygon>
                <polygon id="Path" points="64.5983636 76.9701818 64.542 77.0462727 64.6011818 77.1139091 64.8604545 77.1139091 64.9252727 77.0462727 64.8576364 76.9701818"></polygon>
                <polygon id="Path" points="60.8670909 77.9988182 60.5570909 78.5145455 60.7571818 78.7259091 60.9431818 78.6526364 60.9347273 78.0720909"></polygon>
                <polygon id="Path" points="69.3977273 73.3798182 69.068 73.0190909 68.8059091 73.0190909 68.5466364 72.4216364 68.4141818 72.4216364 68.231 72.7823636 68.3606364 72.9345455 68.3690909 73.5235455 68.696 73.8983636 69.0792727 73.8983636 69.3498182 74.183 69.533 74.1069091 69.5301818 73.6729091"></polygon>
                <polygon id="Path" points="61.0981818 75.795 60.9741818 75.9443636 60.8389091 75.795 60.6529091 76.0176364 60.6557273 76.1613636 60.8445455 76.3783636 61.2278182 76.3783636 61.3010909 76.3107273 61.2982727 76.0176364"></polygon>
                <polygon id="Path" points="63.1836364 76.9673636 63.1103636 77.0462727 63.116 77.4802727 63.1892727 77.5479091 63.3160909 77.5479091 63.3837273 77.4802727 63.3809091 77.1871818"></polygon>
                <polygon id="Path" points="77.5450909 50.5835455 77.2858182 50.5891818 77.221 50.6568182 77.2266364 50.8005455 77.2886364 50.8766364 77.5479091 50.8766364 77.6127273 50.8005455 77.6099091 50.6568182"></polygon>
                <polygon id="Path" points="60.791 76.756 60.4049091 76.3107273 60.1230909 75.7273636 60.1174545 75.2820909 59.4664545 74.5521818 59.7144545 73.8138182 59.7088182 73.3713636 59.8412727 73.2276364 59.8328182 72.6414545 59.3706364 72.1285455 59.1085455 71.9876364 58.6012727 71.9791818 58.2659091 71.7678182 58.714 71.2492727 58.9084545 71.1816364 58.8464545 70.9561818 58.5871818 70.9561818 57.8741818 71.7678182 57.7642727 72.2102727 57.4373636 72.5738182 57.1809091 72.7203636 57.0484545 72.5794545 56.4030909 72.5794545 56.0902727 72.9401818 55.9042727 73.4587273 55.6421818 73.4587273 55.5153636 73.3065455 55.1292727 73.8927273 54.2302727 73.8927273 53.9766364 74.0336364 53.7117273 73.7405455 53.3876364 73.6729091 53.3848182 73.3798182 53.1227273 72.9345455 53.1170909 72.6414545 53.2382727 72.5005455 53.1734545 72.2807273 52.9141818 72.1285455 52.2688182 72.1285455 52.1335455 71.8354545 51.8742727 71.8354545 51.7502727 71.9876364 50.9696364 71.4014545 50.3186364 71.4014545 49.2815455 70.8096364 48.763 70.8096364 48.7150909 71.4747273 48.8390909 71.6156364 48.8419091 71.7678182 49.104 71.9087273 49.166 72.1341818 49.6140909 72.2018182 49.6197273 72.4949091 49.2392727 72.788 49.2392727 72.9401818 49.5605455 73.0078182 49.6958182 72.8669091 50.0790909 72.8669091 50.1523636 73.0810909 49.7690909 73.3741818 50.0875455 73.4418182 50.1636364 73.6785455 50.4849091 73.8899091 50.7357273 73.8899091 50.871 74.0392727 51.1274545 74.0392727 51.5783636 73.6729091 51.4430909 73.3798182 51.4459091 72.9345455 51.6262727 72.5738182 51.7615455 72.7147273 52.142 72.7147273 52.2800909 72.8669091 52.4012727 72.7147273 52.731 73.0867273 52.7338182 73.3798182 52.8690909 73.5235455 52.8719091 73.8250909 52.7422727 73.966 52.7479091 74.2590909 53.2129091 74.9157273 53.537 74.9861818 53.6046364 75.5019091 53.8610909 75.5019091 54.4529091 76.1641818 54.6558182 76.6742727 54.7826364 76.6742727 55.0419091 76.9786364 55.3011818 76.9786364 55.4984545 76.7531818 55.366 76.601 55.3547273 75.8710909 55.6027273 75.578 55.5970909 75.2849091 55.8028182 75.2172727 56.3157273 74.9241818 56.7074545 75.4962727 56.9639091 75.4962727 57.0202727 75.2849091 57.3415455 75.0594545 57.8685455 75.8006364 59.4241818 75.9415455 59.4918182 76.3107273 59.6242727 76.4544545 59.3678182 77.19 59.1254545 77.3337273 59.055 77.7085455 58.6745455 77.7085455 58.4744545 77.3337273 58.466 77.0406364 58.2659091 76.8208182 57.9502727 76.8884545 58.2151818 77.4859091 58.0968182 77.6268182 58.0996364 77.9199091 58.4857273 78.213 58.2884545 78.2862727 58.1616364 78.1453636 57.9671818 78.3651818 57.9728182 78.6582727 58.1109091 78.7991818 57.8431818 79.0922727 57.9840909 79.3853636 58.5674545 79.8982727 58.6999091 79.7573636 58.9535455 80.042 59.4100909 79.9715455 59.5284545 78.7991818 59.5848182 78.7259091 59.7229091 78.8780909 59.8440909 78.7259091 60.109 78.8780909 60.4218182 78.3651818 60.5486364 77.779 60.8022727 77.6380909"></polygon>
                <polygon id="Path" points="80.4590909 22.9456364 80.3238182 22.8047273 80.2928182 20.7474545 80.1688182 20.6065455 80.1575455 19.8653636 80.0166364 19.7244545 80.011 19.2904545 79.7601818 18.9889091 79.7517273 18.4111818 79.6136364 18.2618182 79.5629091 14.2966364 79.0387273 13.7132727 79.0387273 13.5639091 79.4135455 13.1270909 79.4107273 12.8368182 79.918 12.2478182 79.9123636 11.8053636 80.2956364 11.2276364 79.7686364 10.6301818 79.7658182 10.4892727 79.4417273 10.1144545 78.9147273 10.1144545 78.8527273 9.45781818 78.9739091 9.31690909 77.8635455 8.35872727 77.6747273 8.28545455 77.7874545 7.69927273 77.5281818 7.26809091 77.5225455 6.82563636 77.1928182 6.448 76.9307273 6.448 76.4093636 6.014 76.0260909 6.01681818 75.888 5.87590909 75.3779091 6.169 74.5493636 7.11872727 74.431 7.41181818 74.4366364 7.998 74.5662727 8.13890909 74.1886364 8.58418182 74.0674545 9.31127273 74.4028182 9.53109091 74.5127273 9.39018182 75.0397273 9.39018182 75.2341818 9.89745455 75.4962727 10.2018182 75.5075455 10.7767273 75.8372727 10.8556364 76.0289091 11.0754545 75.9133636 11.5094545 76.4347273 12.5437273 76.4431818 12.9777273 76.5756364 13.1270909 76.6376364 13.3525455 77.1646364 13.6315455 77.5479091 13.6315455 77.7508182 13.8654545 77.8776364 14.3022727 78.2778182 14.7447273 78.2186364 14.9560909 77.8325455 15.1082727 77.5112727 15.4746364 77.6465455 16.0608182 77.5253636 16.3539091 77.1392727 16.647 78.1848182 17.5206364 78.0777273 18.4027273 78.5906364 18.9889091 78.5990909 19.7244545 78.4807273 19.8653636 78.4863636 20.3134545 78.3623636 20.4543636 78.2411818 21.3336364 78.0467273 21.5534545 77.593 21.6267273 77.6014545 22.0691818 77.4802727 22.2129091 77.2266364 22.8075455 76.973 22.9512727 76.9758182 23.2443636 76.5925455 23.6868182 76.5953636 23.8305455 75.8372727 24.5576364 75.5836364 25.4369091 75.3976364 25.6623636 75.0171818 25.8145455 74.6874545 26.1752727 74.6339091 26.4007273 74.1181818 26.6938182 73.9829091 26.8347273 72.9514545 26.8347273 72.6978182 26.6938182 72.5597273 26.3922727 72.1792727 26.3922727 72.0524545 26.2485455 71.5254545 26.2485455 70.8716364 25.6623636 69.9754545 25.668 69.8486364 25.8089091 69.5837273 25.8089091 69.2709091 26.4655455 68.9552727 26.8290909 68.6988182 26.8290909 68.5663636 26.9812727 68.0590909 27.125 67.611 27.6379091 67.6194545 28.2212727 67.363 28.3734545 67.3658182 28.5171818 66.7937273 29.1850909 66.5288182 29.3288182 66.1455455 29.3288182 65.7679091 29.6219091 65.2437273 29.3175455 64.9872727 29.3175455 64.6011818 29.0357273 64.077 29.0385455 63.2540909 29.8360909 63.2569091 29.9882727 62.9948182 30.1291818 62.8736364 30.4222727 62.8792727 30.8675455 63.4006364 31.31 63.271 31.5946364 63.2794545 32.0399091 63.8036364 32.767 64.0741818 33.3531818 63.6965455 34.2324545 63.5753636 34.5368182 63.581 34.9708182 63.7078182 35.1089091 63.7190909 35.8472727 63.5359091 36.2220909 63.0258182 36.5067273 62.7524545 36.5067273 62.6312727 36.6589091 62.1211818 36.7998182 61.7238182 36.2136364 61.2080909 36.2136364 61.0136364 36.4362727 61.1545455 37.4677273 60.9009091 37.9045455 60.9121818 38.347 60.7233636 38.5583636 60.3992727 38.6316364 60.4049091 39.0769091 60.1484545 39.37 60.2893636 39.6630909 60.2921818 40.1055455 59.9737273 40.3169091 59.7116364 40.0238182 57.908 40.1703636 57.7107273 40.3901818 57.7135455 40.6832727 57.9840909 41.1200909 57.8572727 41.2694545 57.8629091 41.7147273 58.125 42.1515455 57.7473636 42.7377273 57.8741818 42.8870909 57.8826364 43.4732727 57.3866364 44.3553636 57.8995455 44.7893636 57.9023636 45.0824545 58.4941818 45.7475455 59.0099091 45.5953636 59.2776364 45.7475455 59.5369091 46.1815455 60.5711818 46.1815455 60.698 46.3337273 61.2165455 46.4774545 62.0648182 47.1397273 62.0704545 47.5709091 61.752 47.9457273 61.6251818 47.9457273 60.9826364 48.2388182 60.6698182 48.6051818 60.9319091 49.0504545 60.8614545 49.1180909 60.4781818 49.1180909 60.357 49.259 59.706 49.259 59.6355455 49.0504545 59.5087273 48.7460909 59.6299091 48.6051818 59.7482727 48.019 60.016 47.7259091 60.0103636 47.4328182 59.5453636 46.7761818 58.6435455 46.7761818 58.5674545 46.5422727 58.2433636 46.3337273 58.1221818 46.4746364 57.7276364 46.4746364 57.536 46.7000909 57.6797273 47.4271818 57.3612727 47.647 57.102 47.5060909 57.0456364 47.7202727 56.8483636 47.9400909 56.3298182 47.647 56.0733636 47.7879091 55.6816364 47.6526364 55.2279091 47.8724545 54.9855455 48.4586364 54.994 49.1857273 55.7126364 49.9917273 55.8450909 49.9917273 56.0367273 50.2171818 55.149 51.0964545 55.025 51.3895455 55.0362727 51.8263636 55.4223636 52.1194545 54.9742727 52.4886364 54.7121818 52.4886364 54.5853636 52.3364545 53.9371818 52.3449091 53.6159091 52.5619091 53.8188182 52.9282727 54.1992727 52.7817273 54.6586364 52.9987273 54.529 53.1480909 54.5374545 53.878 54.3542727 53.9456364 54.0273636 54.4641818 54.033 54.7572727 53.7765455 54.9066364 53.723 55.4223636 53.2016364 55.4223636 53.1480909 55.7887273 52.9508182 56.0085455 52.5590909 55.862 52.3787273 56.2227273 52.4435455 56.3072727 52.7028182 56.3016364 52.7676364 56.668 52.9677273 56.8878182 53.227 56.8878182 53.3538182 57.0287273 53.7455455 57.0287273 53.8723636 57.1809091 54.5205455 57.1809091 54.901 56.8878182 55.1659091 57.1809091 55.3631818 57.2485455 55.366 57.6938182 55.0588182 58.2123636 54.6022727 58.28 54.4698182 58.5730909 54.4782727 59.0070909 55.1969091 59.3706364 55.7182727 59.6721818 56.0451818 60.0413636 56.3749091 60.6951818 56.637 60.8445455 57.2147273 60.915 57.5529091 61.7266364 57.7445455 61.6505455 57.8037273 61.4335455 58.1982727 61.4279091 58.5843636 61.721 58.8464545 61.5772727 59.3058182 62.2395455 59.1818182 63.1188182 58.7985455 63.705 58.8126364 64.4264545 59.086 64.8717273 59.2184545 65.4579091 59.8779091 66.9346364 59.892 67.8139091 59.3988182 69.13 59.4072727 69.8570909 59.6721818 70.4517273 59.6778182 70.7363636 59.2889091 70.8885455 59.7454545 70.9561818 59.8102727 71.3338182 60.078 71.6128182 60.2752727 71.9876364 60.5965455 72.0552727 60.6613636 72.2807273 61.3123636 72.5738182 61.8365455 72.5681818 62.0253636 72.7936364 62.0338182 73.3798182 62.2339091 73.5996364 62.4903636 73.3065455 62.6171818 73.4474545 62.8736364 73.4474545 63.2738182 74.0336364 63.5359091 74.0336364 63.6035455 74.5493636 63.3470909 74.8424545 63.674 74.9157273 63.8712727 75.2849091 63.8769091 75.7189091 64.0037273 76.012 63.7529091 76.4600909 63.7641818 77.3393636 63.643 77.4802727 63.8318182 77.5479091 64.0234545 77.3393636 64.0178182 77.0462727 64.0910909 76.9701818 64.2094545 77.1139091 64.5955455 76.6686364 65.1169091 76.9701818 65.5086364 76.9701818 65.6354545 76.8208182 65.8890909 76.9701818 66.3456364 76.8969091 65.8834545 76.2346364 65.6861818 76.1641818 65.6213636 75.9415455 65.1028182 75.9415455 64.5194545 75.2849091 64.2404545 74.1125455 63.7247273 73.6672727 63.4457273 73.0810909 63.643 73.0134545 63.7754545 73.1543636 64.294 73.0134545 64.945 73.4587273 65.4607273 73.4530909 65.7143636 73.1487273 65.8383636 73.1487273 66.2244545 72.8669091 67.0050909 72.8669091 67.1290909 73.0078182 67.5208182 73.0078182 67.8392727 72.6470909 67.8336364 72.0609091 68.1436364 71.6945455 68.2789091 71.6945455 68.4705455 71.3338182 68.4677273 71.1816364 68.0675455 70.7448182 68.0647273 70.4432727 68.1943636 70.3023636 68.3803636 69.936 69.9275455 69.7838182 70.2544545 70.1445455 70.0120909 71.3281818 70.4686364 71.6945455 71.4437273 71.7706364 70.9956364 71.982 70.4714545 71.9876364 70.1614545 72.3483636 70.1727273 73.2276364 70.3643636 73.4474545 70.8829091 73.5996364 71.1365455 73.2980909 72.168 73.3065455 72.3652727 72.9345455 72.3455455 71.9143636 73.0529091 71.548 73.3685455 71.176 73.3544545 70.1558182 72.8330909 69.2737273 72.8246364 68.5381818 72.5540909 68.2450909 72.5484545 67.952 72.4244545 67.8082727 72.4188182 67.363 72.2807273 67.2220909 72.261 66.0497273 71.9425455 65.9820909 71.7509091 65.7453636 71.7452727 65.1760909 72.2412727 64.7251818 72.5033636 64.139 72.4949091 63.5584545 72.6189091 63.4147273 72.6076364 62.6791818 72.4808182 62.527 72.4667273 61.3546364 72.3314545 61.2109091 72.3201818 60.6247273 72.4498182 60.4753636 72.2948182 59.0070909 72.4244545 58.8661818 72.4216364 58.5730909 72.8753636 58.3476364 73.191 57.9869091 73.1853636 57.6938182 73.5038182 57.1780909 74.152 57.0343636 74.2703636 56.8821818 74.8621818 56.8145455 74.8537273 56.3692727 75.1017273 55.9352727 75.0848182 54.6107273 74.9495455 54.4698182 74.9382727 53.6638182 74.9326364 53.1452727 75.5695455 52.266 75.5695455 52.1222727 76.1388182 51.4684545 76.5192727 51.3162727 76.9673636 50.8005455 76.9589091 50.2115455 77.531 49.7099091 77.7987273 49.7099091 78.4271818 48.825 78.9400909 48.5234545 79.1993636 48.5234545 79.5121818 47.8780909 79.5093636 47.5737273 79.7601818 46.996 79.1063636 46.5535455 78.8386364 45.8151818 78.647 45.6038182 78.5173636 45.6038182 77.7930909 44.7978182 77.4577273 44.1299091 77.066 44.1299091 76.9476364 44.423 76.6179091 44.0594545 76.6094545 43.3323636 76.2092727 42.8870909 76.0796364 42.3009091 75.547 41.5625455 75.5441818 41.4216364 75.8006364 41.1285455 75.7978182 40.827 76.1162727 40.7565455 76.5615455 40.2492727 76.5587273 39.9449091 76.4319091 39.804 76.4910909 39.2995455 77.1420909 40.1816364 77.3985455 40.1816364 77.6578182 40.0294545 78.0326364 39.4432727 78.1707273 39.4376364 78.4187273 39.1445455 78.9372727 39.0036364 79.3853636 38.4879091 79.4980909 37.9045455 79.3740909 37.7523636 79.3656364 37.1661818 79.2303636 37.0252727 79.2219091 36.4362727 79.0922727 36.2840909 79.0866364 35.6979091 78.8132727 35.1145455 79.0697273 34.8214545 79.2021818 34.3846364 79.3233636 34.2324545 79.3177273 33.9393636 78.7935455 33.511 78.7907273 33.3588182 78.5286364 33.0657273 78.523 32.6317273 78.9090909 32.1864545 78.9090909 32.0342727 79.1627273 31.8933636 79.6643636 31.0140909 79.6502727 29.9910909 79.4558182 29.9093636 79.3318182 30.0615455 79.1289091 29.6895455 79.1204545 29.2555455 79.5685455 29.0300909 79.8926364 28.6693636 80.1434545 28.0803636 80.1321818 27.6379091 79.8757273 27.3532727 79.9940909 27.0517273 79.9630909 24.9972727 80.4731818 23.9658182"></polygon>
                <polygon id="Path" points="56.7356364 77.7000909 57.0005455 77.7000909 57.3894545 78.1453636 57.5810909 78.0720909 57.6994545 77.7677273 57.5698182 77.19 57.4965455 77.1223636 57.3105455 77.3337273 57.2541818 77.5563636 56.9836364 76.9701818 56.8483636 76.9701818 56.7328182 77.2632727 56.4059091 77.4887273"></polygon>
                <polygon id="Path" points="49.2674545 83.9339091 49.7183636 84.0043636 50.1636364 83.4999091 50.158 83.1983636 49.5774545 83.1222727"></polygon>
                <polygon id="Path" points="42.6334545 95.5842727 42.5066364 95.5842727 42.4446364 95.6688182 42.6390909 95.8773636 42.7095455 95.8040909 42.7095455 95.6631818"></polygon>
                <polygon id="Path" points="51.2373636 82.2458182 51.4346364 82.1725455 51.0344545 81.437 50.9076364 81.2960909 50.8935455 80.5577273 50.7639091 80.2646364 50.5666364 80.1941818 50.3045455 79.7517273 50.0480909 79.7517273 49.9043636 79.4670909 49.5210909 79.4670909 49.259 79.1655455 49.135 79.1655455 49.0025455 79.3177273 48.7517273 79.1655455 48.3543636 78.7202727 47.6977273 78.2862727 47.1171818 77.6296364 47.1143636 77.4802727 46.9086364 77.4126364 46.7113636 77.0462727 46.7085455 76.601 46.841 76.4488182 46.7677273 75.6512727 46.5 75.6512727 46.3168182 76.0176364 46.3365455 77.4802727 46.7339091 78.2186364 46.7367273 78.5117273 47.3285455 79.1655455 47.585 79.1655455 47.7118182 79.3177273 47.8442727 79.1655455 48.1091818 79.6108182 48.6925455 79.9715455 48.6981818 80.2646364 49.2223636 80.7099091 49.3491818 81.003 49.0955455 81.2960909 48.7883636 82.2486364 48.5910909 82.1753636 48.7150909 82.0231818 48.7094545 81.7300909 48.3853636 81.3693636 48.0640909 81.5891818 48.0725455 82.0231818 48.2078182 82.1753636 48.2275455 83.3477273 48.484 83.3477273 48.3515455 83.6408182 48.3740909 85.1090909 48.0528182 85.1823636 47.7991818 85.4754545 47.5314545 85.4754545 47.2045455 85.1090909 47.1989091 84.6638182 46.8776364 84.5933636 46.8212727 85.25 46.9621818 85.3909091 46.965 85.6952727 47.2186364 85.8361818 47.1594545 86.0616364 46.7649091 86.0616364 46.5760909 85.8361818 46.5704545 85.3909091 46.4295455 85.1119091 46.1082727 84.7370909 45.849 84.7370909 45.5361818 85.2528182 45.5418182 85.6896364 45.8039091 86.2758182 45.6122727 86.4956364 45.229 86.4956364 45.0993636 86.6365455 44.9725455 86.6365455 44.5864545 87.0818182 44.3271818 87.0818182 44.2736364 87.3072727 44.0735455 87.3749091 43.7607273 87.7412727 43.7607273 87.8934545 43.5042727 88.1865455 43.5183636 88.9164545 43.3887273 89.0658182 43.3943636 89.652 43.2731818 89.7957273 43.276 90.086 42.7687273 90.8243636 42.7123636 91.0357273 42.439 91.0357273 42.191 91.3429091 41.6752727 91.1907273 41.6076364 91.4020909 41.7372727 91.7064545 41.4216364 91.9206364 41.1736364 91.9206364 40.8467273 92.4335455 40.8495455 92.5829091 40.4719091 93.0197273 40.4155455 93.2423636 40.2774545 93.093 40.2041818 93.1606364 40.2098182 93.465 40.0886364 93.6059091 40.2154545 93.899 40.2267273 94.3442727 40.0407273 94.5584545 39.773 93.8313636 39.5757273 93.9046364 39.5193636 94.1244545 39.0628182 94.1977273 39.1924545 93.9046364 38.3413636 93.3860909 38.0116364 92.7322727 37.2169091 91.8558182 37.1520909 91.3372727 36.6335455 91.3372727 36.5095455 91.1879091 36.2502727 91.1879091 35.4583636 90.1620909 34.937 90.0183636 34.6777273 89.7252727 34.0351818 89.7168182 33.7730909 89.4321818 33.5758182 89.5054545 33.7110909 89.6463636 33.7139091 89.9507273 33.9788182 90.2353636 34.0464545 90.4523636 35.216 90.7454545 35.5372727 91.2611818 35.2864545 91.7064545 35.4893636 92.0728182 36.0022727 91.9234545 36.1290909 92.0671818 36.3855455 92.0671818 36.518 91.9234545 36.6448182 92.0671818 36.9040909 92.0671818 37.6311818 92.8731818 37.6311818 93.1662727 37.8960909 93.6087273 37.8932727 93.9046364 38.1638182 94.1977273 38.2962727 94.7839091 38.1102727 94.8515455 37.975 94.7106364 37.7185455 94.7162727 37.665 95.077 38.3075455 95.6631818 38.3751818 95.883 38.8937273 95.883 39.0149091 95.7308182 40.052 95.4377273 40.4296364 95.1530909 40.5000909 95.3644545 40.3760909 95.5166364 40.3817273 95.8097273 40.1280909 96.2465455 40.1393636 97.123 40.2041818 97.1906364 40.3958182 96.9820909 40.393 96.8299091 40.6466364 96.3959091 40.6438182 96.1028182 40.7734545 95.9506364 40.7706364 95.6575455 41.013 95.0713636 41.2102727 94.9980909 41.5202727 94.4851818 41.7682727 93.6059091 41.8359091 93.5326364 41.9627273 93.6735455 42.222 93.6735455 42.5376364 93.3128182 42.2811818 92.7266364 42.594 92.3602727 42.9857273 93.0986364 43.245 92.9464545 43.3126364 93.1719091 43.5183636 93.2395455 43.8227273 92.8731818 44.0763636 92.287 44.392 92.2165455 44.6540909 91.7825455 44.8429091 91.698 45.2177273 90.8215455 45.2092727 90.0916364 45.0711818 89.7900909 45.3360909 89.5054545 45.4516364 89.0601818 45.8940909 88.5500909 46.0941818 88.474 46.159 88.2654545 46.2858182 88.5500909 46.4182727 88.5500909 46.6775455 88.4063636 46.7959091 88.1132727 47.3116364 88.1076364 47.6385455 87.8990909 47.4976364 87.5947273 47.5652727 87.5214545 47.8245455 87.6623636 48.2134545 87.6623636 48.4135455 87.8990909 48.4811818 88.2598182 48.8052727 88.3330909 48.5516364 88.6261818 48.5544545 88.9192727 48.8813636 88.9869091 49.1434545 89.4321818 49.3942727 89.2912727 49.662 89.7252727 49.8592727 89.7957273 49.8620909 90.086 50.251 90.5312727 50.2538182 90.6834545 50.5807273 90.8948182 50.8371818 90.8948182 51.1528182 90.5312727 51.1471818 89.9450909 51.2796364 89.8041818 51.274 89.2095455 51.398 89.0658182 51.3839091 88.0456364 51.2486364 87.8934545 51.2401818 87.3072727 50.9132727 86.9352727 50.5976364 87.1550909 50.8597273 87.4481818 50.6680909 87.9667273 50.5412727 87.9667273 50.282 87.6736364 49.8902727 87.6736364 49.8113636 86.5689091 49.5549091 86.2786364 49.8029091 85.9827273 49.7944545 85.4021818 49.5295455 84.816 49.5267273 84.5229091 49.2759091 84.5229091 49.4055455 85.5430909 49.2223636 85.7629091 49.0222727 85.4021818 49.0138182 84.9569091 48.887 84.816 48.7489091 84.5229091 48.7432727 84.0748182 48.9969091 83.6408182 48.9912727 83.0574545 49.4421818 82.5389091 49.8226364 82.3867273 50.0255455 82.6206364 50.0903636 82.9813636 50.8625455 82.832"></polygon>
                <polygon id="Path" points="42.3798182 96.0295455 42.2558182 96.0295455 42.191 96.1028182 42.3826364 96.3226364 42.4502727 96.2493636 42.4446364 96.0971818"></polygon>
                <polygon id="Path" points="41.2863636 101.155818 41.1623636 101.155818 40.9650909 101.375636 41.0327273 101.457364 41.2891818 101.457364 41.3624545 101.375636 41.3624545 101.223455"></polygon>
                <polygon id="Path" points="41.54 100.721818 41.4131818 100.721818 41.354 100.789455 41.3568182 100.938818 41.5428182 101.155818 41.6076364 101.082545 41.6048182 100.789455"></polygon>
                <polygon id="Path" points="57.9446364 80.7775455 57.7445455 80.5577273 57.9925455 80.1237273 57.7924545 79.6108182 57.5303636 79.4586364 57.1442727 79.4586364 56.9441818 79.0922727 57.3246364 78.7991818 57.319 78.5060909 56.7356364 77.9931818 56.482 77.9931818 56.2199091 77.8522727 56.0339091 78.3708182 56.4228182 78.8048182 56.5665455 79.3853636 56.5045455 79.4586364 55.9690909 79.0246364 55.7267273 79.3177273 55.4646364 79.3177273 55.2617273 78.6526364 54.8643636 78.0664545 54.8615455 77.7733636 54.5994545 77.4802727 54.5994545 77.3393636 54.0668182 76.7419091 54.0611818 76.3079091 53.4806364 75.6512727 53.3453636 75.6512727 53.1593636 75.2820909 52.9592727 75.2088182 52.2998182 74.6254545 51.9165455 74.6254545 51.5163636 74.3323636 50.8766364 74.4760909 50.7413636 74.3323636 50.0988182 74.3323636 49.5802727 74.0392727 48.9377273 74.0449091 48.7996364 73.8927273 48.4191818 73.8927273 47.6526364 74.3267273 47.2665455 74.3267273 47.2017273 74.8424545 47.4018182 75.0650909 47.7850909 75.0650909 47.9739091 74.8424545 48.0359091 74.4789091 48.6869091 74.4789091 48.8109091 74.6310909 49.073 74.6254545 49.7324545 75.5047273 50.2538182 75.5047273 50.3806364 75.6456364 50.5694545 75.2820909 50.3017273 75.144 50.499 74.9185455 50.8822727 74.9185455 51.0231818 75.0707273 51.2796364 75.0707273 51.3444545 75.2820909 51.1528182 75.5047273 50.7610909 75.5047273 50.4426364 75.8682727 50.3158182 76.3107273 50.4510909 76.4544545 50.4595455 76.7475455 50.716 76.8969091 50.7188182 77.19 50.9217273 77.4154545 51.1781818 77.4154545 51.553 76.8292727 51.6882727 76.8292727 51.8094545 76.6742727 51.9475455 76.8264545 52.142 76.6038182 52.1335455 75.8682727 52.3110909 75.5019091 52.7112727 76.0880909 52.9592727 76.0880909 53.0917273 75.9443636 53.5567273 76.4629091 53.5651818 77.0462727 53.6891818 77.1871818 53.692 77.3393636 54.0780909 77.7733636 54.2274545 78.3595455 54.4923636 78.8048182 54.5008182 79.5319091 54.1119091 79.825 54.1231818 80.5633636 54.2584545 80.7042727 54.2640909 81.1495455 54.3909091 81.2904545 54.5402727 82.0288182 54.7234545 82.0964545 54.9207273 81.8879091 54.9179091 81.7357273 54.6501818 81.4426364 54.5177273 80.7042727 54.715 80.631 54.8333636 80.3379091 55.2222727 80.7831818 55.9972727 80.7831818 56.0677273 80.8508182 55.5548182 81.2876364 55.5576364 81.5891818 55.0447273 82.0288182 55.0475455 82.1640909 55.8845455 82.2486364 56.0198182 82.0964545 56.4087273 82.0964545 56.5299091 81.9555455 56.7948182 82.1077273 57.1780909 81.7977273 57.5585455 81.7977273 58.1362727 81.2960909 58.1334545 81.1551818 58.3955455 80.8508182"></polygon>
                <polygon id="Path" points="57.7473636 76.2430909 57.8121818 76.1613636 57.8121818 76.0091818 57.6092727 75.8006364 57.4768182 75.8006364 57.4176364 75.8710909 57.4204545 76.012 57.6205455 76.2346364"></polygon>
                <polygon id="Path" points="40.9143636 102.035091 40.9763636 101.961818 40.9763636 101.820909 40.7734545 101.601091 40.7114545 101.668727 40.7142727 101.961818 40.7790909 102.035091"></polygon>
                <polygon id="Path" points="57.0991818 76.2346364 56.978 76.3868182 56.8427273 76.3755455 56.5806364 75.9415455 56.5270909 76.4600909 56.7215455 76.6770909 57.1048182 76.6770909 57.2457273 76.8208182 57.4289091 76.7531818 57.1668182 76.4600909"></polygon>
                <polygon id="Path" points="55.2983636 81.2904545 55.2927273 81.0086364 55.2250909 80.9240909 55.1010909 80.9240909 55.0278182 81.0086364 55.0306364 81.1495455 55.2307273 81.3693636"></polygon>
                <polygon id="Path" points="58.5702727 80.042 58.5110909 80.1237273 58.5139091 80.2759091 58.5730909 80.3435455 58.8351818 80.3435455 58.8971818 80.2759091 58.7111818 80.042"></polygon>
                <polygon id="Path" points="51.2204545 80.1941818 51.2711818 80.1237273 51.274 79.8306364 51.0795455 79.6051818 50.9386364 79.6051818 50.8879091 79.6784545 50.8850909 79.9828182 51.088 80.1941818"></polygon>
                <polygon id="Path" points="47.7822727 84.0071818 47.9682727 83.9339091 47.9626364 83.6323636 47.7738182 83.421 47.6385455 83.421 47.4553636 83.6323636 47.4469091 83.9339091 47.3257273 84.0748182 47.3257273 84.227 47.523 84.3002727"></polygon>
                <polygon id="Path" points="38.2427273 90.5284545 38.2427273 91.2555455 38.4456364 91.4894545 38.8373636 91.4894545 38.8965455 91.4049091 38.4315455 90.4608182"></polygon>
                <polygon id="Path" points="38.9726364 92.2137273 38.9134545 92.287 38.9190909 92.7322727 38.9782727 92.7999091 39.1050909 92.7999091 39.1755455 92.7322727 39.1727273 92.287 39.0966364 92.2137273"></polygon>
                <polygon id="Path" points="39.184 93.3156364 39.1868182 93.4593636 39.2516364 93.527 39.3756364 93.5382727 39.4376364 93.4593636 39.432 93.1662727 39.3756364 93.093"></polygon>
                <polygon id="Path" points="39.8321818 88.4063636 39.5644545 88.1132727 39.37 88.1809091 39.3840909 89.0601818 39.4573636 89.1334545 39.5785455 88.9925455 39.7758182 89.2123636 39.8462727 89.4378182 40.0407273 89.5054545 40.0435455 89.7985455 39.7842727 89.9422727 39.7870909 90.5284545 40.1252727 91.0385455 40.6353636 91.1907273 40.8298182 90.9709091 41.0101818 90.1620909 41.2130909 90.3790909 41.0834545 90.6721818 41.0890909 91.1174545 41.4103636 91.3344545 41.6696364 90.8976364 41.8584545 90.8243636 41.3427273 90.086 41.0721818 89.6463636 41.0665455 89.3645455 40.8720909 89.1278182 40.3563636 89.1278182 40.2887273 88.7670909 40.5930909 87.9667273 40.7199091 88.1076364 41.2440909 88.1076364 41.3793636 88.2598182 41.6301818 87.8145455 41.9486364 87.7469091 41.8838182 87.5214545 41.6865455 87.4538182 41.6752727 86.5745455 41.7457273 86.49 41.9373636 86.8676364 42.1374545 86.9352727 42.3290909 86.7267273 42.3234545 86.2786364 41.8612727 86.056 41.6048182 86.2081818 41.0778182 85.4754545 40.7565455 85.6952727 40.9059091 86.2786364 40.7114545 86.6478182 40.455 86.7971818 39.5447273 86.6478182 39.4827273 86.8563636 39.8716364 87.3016364 39.6856364 87.3749091 39.2910909 87.0930909 39.2375455 87.4538182 40.1478182 88.3330909"></polygon>
                <polygon id="Path" points="39.0459091 87.9723636 39.1079091 87.8906364 39.1050909 87.7356364 39.0402727 87.668 38.9839091 87.7356364 38.9839091 87.8906364"></polygon>
                <polygon id="Path" points="42.0388182 89.7252727 41.6527273 89.5759091 41.4639091 89.7957273 41.7231818 90.086 41.7936364 90.3114545 41.9880909 90.2381818 41.9824545 89.9450909 42.1036364 89.7957273"></polygon>
                <polygon id="Path" points="39.2882727 90.9709091 39.1586364 91.264 39.5447273 91.5570909 39.5503636 91.8501818 39.7448182 92.0728182 40.3986364 91.9206364 40.6466364 92.0728182 40.7142727 91.7092727 40.517 91.4866364 40.1337273 91.4866364 39.8603636 91.3344545 39.6687273 90.8215455 39.4038182 90.5284545 39.401 90.2353636 39.2713636 90.0916364 39.649 89.6463636 39.587 89.5787273 39.1980909 89.5787273 38.874 89.7985455 38.8852727 90.5284545"></polygon>
                <polygon id="Path" points="20.9841818 123.365909 21.111 123.506818 21.1138182 123.952091 21.3082727 124.025364 21.638 124.538273 21.8465455 125.344273 22.1001818 125.344273 22.4806364 125.051182 22.9991818 125.051182 23.2584545 124.910273 24.2701818 123.585727 24.7830909 123.444818 24.9803636 123.219364 24.9099091 122.858636 24.5266364 122.858636 23.5036364 123.887273 23.2387273 123.735091 23.1823636 124.101455 22.8695455 124.465 22.3369091 124.321273 21.5562727 123.295455 21.0377273 123.002364"></polygon>
                <polygon id="Path" points="21.7563636 113.987 21.7507273 113.834818 21.6971818 113.767182 21.5619091 113.767182 21.3674545 113.987 21.4350909 114.060273 21.7028182 114.060273"></polygon>
                <polygon id="Path" points="35.5513636 87.3805455 35.6894545 87.3805455 35.7458182 87.3129091 35.4189091 86.9352727 35.3512727 87.0085455 35.3540909 87.1607273"></polygon>
                <polygon id="Path" points="23.8981818 104.233273 24.0813636 104.010636 24.0165455 103.943 23.8897273 103.943 23.7009091 104.165636 23.7600909 104.233273"></polygon>
                <polygon id="Path" points="36.5969091 88.2598182 36.735 88.2598182 36.921 88.0343636 36.8533636 87.9667273 36.5940909 87.9667273 36.5320909 88.0343636 36.5377273 88.1865455"></polygon>
                <polygon id="Path" points="38.2032727 87.8934545 38.0764545 88.1865455 38.1525455 88.4063636 38.5358182 88.4063636 38.7922727 88.2541818 38.843 87.7356364 38.7218182 87.6003636 38.7133636 87.1635455 38.2596364 87.0818182 37.8228182 87.6003636 37.8256364 87.8934545"></polygon>
                <polygon id="Path" points="43.1012727 86.862 43.1097273 87.4481818 43.1773636 87.5214545 43.4901818 87.1550909 43.4873636 87.0141818 43.2900909 86.7943636"></polygon>
                <polygon id="Path" points="54.8587273 49.0448182 54.8587273 48.8926364 54.7910909 48.825 54.6699091 48.825 54.5966364 48.8926364 54.7939091 49.1180909"></polygon>
                <polygon id="Path" points="44.8372727 80.8451818 44.8316364 80.4111818 44.6935455 80.2759091 44.6146364 79.8982727 44.5667273 80.7099091 44.7696364 80.9297273"></polygon>
                <polygon id="Path" points="47.7287273 70.5165455 47.9851818 70.5165455 48.0471818 70.4489091 48.05 70.1558182 47.7118182 69.7781818 47.5906364 69.7781818 47.399 70.0149091 47.4018182 70.1558182"></polygon>
                <polygon id="Path" points="76.4572727 4.32872727 76.6460909 4.55418182 76.9025455 4.55418182 76.9758182 4.47809091 76.9673636 3.89472727 76.7700909 3.813 76.4572727 4.185"></polygon>
                <polygon id="Path" points="57.4570909 45.5953636 57.5923636 45.5953636 57.6515455 45.5249091 57.6487273 45.384 57.4486364 45.1500909 57.3274545 45.1500909 57.2654545 45.2318182 57.2654545 45.384"></polygon>
                <polygon id="Path" points="75.7696364 1.98681818 75.6484545 2.139 75.8457273 2.49972727 76.1021818 2.49972727 76.2966364 2.71954545 76.3670909 3.08590909 76.5587273 3.01263636 76.4121818 1.395 76.2092727 1.17518182 75.9528182 1.32736364 75.6963636 1.17518182 75.6343636 1.25972727 75.6428182 1.84590909"></polygon>
                <polygon id="Path" points="44.4934545 84.9597273 44.5582727 85.0358182 44.8231818 84.7427273 44.9443636 84.878 45.0091818 84.8103636 45.0063636 84.3735455 44.8119091 84.1565455 44.485 84.2241818 44.6230909 84.6666364 44.4934545 84.8103636"></polygon>
                <polygon id="Path" points="43.1322727 88.7727273 43.0026364 88.9164545 43.0674545 89.2771818 43.2619091 89.0658182 43.3802727 88.6205455 43.1886364 88.4007273 42.9293636 88.4007273 42.8589091 88.6205455"></polygon>
                <polygon id="Path" points="22.7934545 119.344364 23.3796364 119.259818 22.0156364 119.192182 21.9564545 119.417636 22.6694545 119.485273"></polygon>
                <polygon id="Path" points="44.7921818 82.6882727 44.9866364 83.049 44.8006364 83.2744545 44.6653636 83.1222727 44.6061818 83.2011818 44.7442727 83.638 44.8062727 83.7197273 44.9274545 83.5675455 45.1867273 83.5675455 45.2543636 83.7901818 45.1303636 83.9310909 45.3191818 84.1509091 45.4544545 83.9987273 45.5840909 84.3002727 45.6432727 84.2326364 45.6404545 83.4942727 45.3783636 83.2011818 45.2487273 82.7559091 44.9105455 82.3951818 44.6540909 82.3951818 44.5300909 82.5389091 44.2708182 82.3951818 44.2172727 82.7559091 44.6597273 82.8404545"></polygon>
                <polygon id="Path" points="42.7236364 87.6003636 42.7969091 87.6736364 42.8589091 87.6003636 42.8476364 87.0057273 42.6475455 86.9352727 42.5911818 87.1550909 42.718 87.3072727"></polygon>
                <polygon id="Path" points="43.4676364 85.3965455 43.6649091 85.6191818 43.8593636 85.5487273 43.8593636 85.3965455 43.5972727 85.1034545 43.5296364 84.8836364 43.2703636 84.8836364 43.0787273 85.1034545 43.4028182 85.1767273"></polygon>
                <polygon id="Path" points="42.0951818 89.0658182 42.098 89.3589091 42.1712727 89.4321818 42.2896364 89.28 42.4249091 89.28 42.4897273 89.2095455 42.4869091 89.0658182 42.2868182 88.846"></polygon>
                <polygon id="Path" points="43.7325455 85.9827273 43.7381818 86.428 43.8058182 86.5012727 44.0622727 86.5012727 44.1214545 86.428 44.1186364 86.2758182 44.0002727 86.1349091 44.0002727 85.9827273 43.9298182 85.9122727 43.7973636 85.9122727"></polygon>
                <polygon id="Path" points="17.1176364 109.511727 17.2388182 109.511727 17.3064545 109.438455 17.2951818 108.993182 17.2331818 108.925545 17.1091818 108.925545 17.0359091 108.993182 17.0415455 109.438455"></polygon>
                <polygon id="Path" points="22.5257273 118.606 22.2720909 118.606 22.072 118.831455 22.6638182 118.899091 22.9202727 118.746909 23.5515455 117.867636 23.7431818 117.794364 23.4247273 117.726727"></polygon>
                <polygon id="Path" points="24.7436364 130.039364 24.4843636 130.473364 23.9714545 130.180273 23.7037273 130.180273 23.2669091 130.698818 23.2725455 131.132818 22.9456364 131.355455 22.7652727 131.721818 22.9512727 131.941636 23.3486364 131.941636 23.6614545 131.580909 23.6558182 131.285 23.8474545 131.062364 24.1123636 131.214545 24.4956364 131.214545 25.0761818 130.845364 25.1973636 130.259182 25.0057273 130.039364"></polygon>
                <polygon id="Path" points="25.3608182 117.428 24.8422727 117.721091 24.3180909 117.580182 24.1349091 117.794364 24.1377273 118.098727 23.8840909 118.380545 23.8953636 118.825818 23.7600909 118.978 23.8333636 119.045636 24.2166364 119.045636 24.738 119.479636 24.9352727 119.406364 25.1156364 119.045636 25.7666364 119.045636 25.8934545 119.186545 26.1611818 119.195 26.2090909 119.113273 25.4256364 118.234"></polygon>
                <polygon id="Path" points="23.4839091 132.091 23.2218182 132.527818 22.8413636 132.677182 22.7765455 132.316455 22.5708182 132.082545 22.1199091 132.014909 22.1142727 131.721818 21.8521818 131.428727 21.8465455 130.991909 21.979 130.842545 21.9113636 130.772091 21.39 130.924273 21.2744545 131.358273 20.8235455 131.290636 21.0067273 130.915818 21.1391818 130.915818 21.3843636 130.622727 21.9085455 130.481818 22.3622727 130.112636 22.4778182 129.526455 22.7314545 129.233364 22.847 128.647182 23.1090909 128.354091 23.1006364 127.767909 23.3542727 127.474818 23.2133636 126.443364 23.3993636 126.223545 23.6586364 126.223545 23.7290909 126.009364 23.529 125.789545 23.0104545 125.789545 22.7568182 126.082636 22.2410909 126.223545 21.5985455 126.809727 21.2152727 126.809727 20.8968182 127.176091 20.7728182 127.469182 20.7812727 128.055364 20.3923636 128.500636 20.3951818 128.644364 20.0175455 129.086818 19.8935455 129.673 19.1354545 130.696 19.1354545 130.845364 18.5605455 131.355455 18.0448182 131.355455 17.143 131.941636 16.7540909 132.091 16.1960909 132.894182 16.3341818 134.215909 16.3539091 135.684182 16.4835455 135.836364 16.4976364 136.563455 16.1030909 136.856545 15.9847273 137.149636 16.3144545 137.510364 16.4469091 137.510364 16.8978182 138.028909 16.9034545 138.319182 16.6498182 138.615091 16.6526364 138.905364 16.8527273 139.128 17.112 139.128 17.4248182 138.753182 17.2839091 138.178273 17.4783636 137.955636 17.8080909 138.178273 17.8757273 138.392455 18.1321818 138.386818 18.4478182 137.885182 18.3801818 137.510364 18.1209091 137.510364 17.9997273 137.662545 17.7996364 137.437091 17.7911818 137.144 18.1124545 136.924182 18.1688182 136.557818 18.4957273 136.349273 18.755 136.349273 18.8761818 136.191455 19.0734545 136.416909 19.1439091 136.777636 20.1612727 135.757455 20.4233636 135.757455 20.9334545 135.464364 22.0156364 134.213091 22.8441818 133.407091 22.9738182 133.407091 23.8108182 132.454545 23.8023636 132.161455"></polygon>
                <polygon id="Path" points="5.68427273 150.051273 5.35736364 149.831455 4.96563636 149.093091 4.44990909 149.234 3.79327273 148.075727 3.52836364 148.075727 3.14790909 148.512545 2.88863636 148.512545 2.75054545 148.360364 1.97836364 148.363182 1.85718182 148.506909 1.59227273 148.363182 1.20618182 148.363182 1.02018182 148.726727 1.28509091 149.172 1.29354545 149.453818 1.54154545 149.899091 1.55281818 150.344364 1.69090909 150.485273 1.69372727 150.930545 1.56409091 151.223636 1.95863636 151.516727 1.96427273 151.809818 1.57536364 152.243818 1.33581818 153.278091 0.693272727 154.005182 1.02018182 154.365909 1.28790909 154.374364 1.41472727 154.515273 2.44618182 154.515273 2.83790909 154.081273 2.95909091 154.081273 3.01827273 153.855818 3.596 153.196364 4.10890909 152.903273 4.36254545 152.613 5.00227273 152.317091 5.32354545 151.950727 5.44754545 151.660455 5.43909091 151.071455 5.68990909 150.626182"></polygon>
                <polygon id="Path" points="23.3091818 128.714818 23.1147273 128.940273 23.1823636 129.010727 23.5656364 129.010727 23.7600909 128.799364 23.6924545 128.714818"></polygon>
                <polygon id="Path" points="19.0593636 115.012818 19.0706364 115.742727 18.9494545 115.894909 18.9550909 116.328909 19.1467273 116.548727 19.3383636 116.328909 19.3327273 116.044273 19.5130909 115.669455 20.1020909 115.599 19.4426364 115.012818 19.2481818 114.652091 18.9353636 114.863455"></polygon>
                <polygon id="Path" points="20.0513636 116.255636 19.5271818 116.255636 19.4623636 116.481091 19.9245455 116.991182 20.0598182 116.991182 20.305 116.698091 20.4402727 116.698091 21.0095455 116.182364 21.1335455 115.444 21.3843636 115.01 21.3139091 114.353364 21.0039091 115.162182 20.6178182 115.444 20.6178182 115.596182"></polygon>
                <polygon id="Path" points="18.3294545 113.034455 18.0617273 113.034455 17.9997273 113.259909 18.3999091 113.984182 18.8564545 114.502727 19.1213636 114.502727 19.0452727 114.133545 18.6535455 113.691091"></polygon>
                <polygon id="Path" points="22.7906364 104.165636 22.7934545 104.306545 22.9879091 104.377 23.2415455 104.092364 23.374 104.092364 23.5628182 103.872545 23.5656364 103.579455 23.3655455 103.494909 23.3007273 103.731636 23.1119091 103.799273"></polygon>
                <polygon id="Path" points="22.9061818 103.134182 23.1062727 103.354 23.2922727 103.286364 23.2894545 102.993273 22.9625455 102.621273 22.8329091 102.621273 22.7793636 102.841091 22.9033636 102.993273"></polygon>
                <polygon id="Path" points="21.2490909 104.602455 21.2575455 104.892727 21.4435455 105.118182 21.8380909 105.118182 22.0860909 104.825091 22.413 104.602455 22.4101818 104.306545 22.5313636 104.165636 22.5172727 103.286364 22.6469091 103.134182 22.2608182 102.982 22.6440909 102.841091 22.3256364 102.773455 22.1819091 102.480364 21.7986364 102.480364 21.4886364 102.846727 21.359 103.292 21.5619091 103.652727 21.6859091 103.500545 21.8803636 103.720364 22.0212727 104.013455 22.0212727 104.602455 21.8352727 104.825091 21.7028182 104.825091 21.6267273 104.013455 21.3054545 103.793636 21.2462727 104.306545 21.3730909 104.458727"></polygon>
                <polygon id="Path" points="22.8554545 103.799273 23.0499091 103.579455 22.9766364 103.494909 22.8498182 103.494909 22.6553636 103.720364 22.7201818 103.804909"></polygon>
                <polygon id="Path" points="16.9344545 111.197 16.9400909 111.490091 17.9292727 112.885091 18.259 112.662455 18.1124545 112.076273 18.2477273 111.935364 17.9151818 111.709909 17.391 110.988455 17.1317273 110.988455"></polygon>
                <polygon id="Path" points="27.9450909 128.134273 27.5618182 128.134273 27.4998182 128.207545 27.5026364 128.351273 27.5561818 128.427364 27.9479091 128.427364 28.0070909 128.345636 28.0070909 128.201909"></polygon>
                <polygon id="Path" points="18.6901818 101.595455 18.8226364 101.595455 18.879 101.527818 18.6845455 101.302364 18.6197273 101.375636 18.6225455 101.527818"></polygon>
                <polygon id="Path" points="18.1124545 102.114 18.1180909 102.254909 18.1800909 102.325364 18.3153636 102.325364 18.3773636 102.254909 18.3745455 101.961818 18.1829091 101.747636 18.0476364 101.747636 17.9856364 101.820909 17.9912727 101.961818"></polygon>
                <polygon id="Path" points="17.0049091 110.684091 17.1937273 110.469909 17.1880909 110.024636 17.1204545 109.957 16.9908182 109.957 16.8076364 110.176818 16.8132727 110.610818"></polygon>
                <polygon id="Path" points="17.8982727 109.957 18.1490909 109.951364 18.2195455 109.883727 18.2167273 109.590636 18.1434545 109.506091 17.7573636 109.511727 17.6981818 109.590636 17.701 109.731545"></polygon>
            </g>
        </g>
    </g>
</svg>