<svg width="104px" height="106px" viewBox="0 0 104 106" version="1.1" xmlns="http://www.w3.org/2000/svg" xmlns:xlink="http://www.w3.org/1999/xlink">
    <!-- Generator: Sketch 51.2 (57519) - http://www.bohemiancoding.com/sketch -->
    <desc>Created with Sketch.</desc>
    <defs></defs>
    <g id="Page-1" stroke="none" stroke-width="1" fill="none" fill-rule="evenodd">
        <g id="SL-EPS-01-0001" transform="translate(-238.000000, -145.000000)" >
            <path d="M340.977574,197.565867 L340.68759,197.4685 L340.413693,197.313136 L339.487015,197.027809 L339.257144,197.016379 L338.223785,197.161159 L337.714091,197.349543 L337.285677,197.62852 L336.888166,198.000208 L336.559235,198.468415 L335.735427,200.132542 L335.32056,200.662556 L333.313532,202.616244 L332.121423,203.406185 L331.499545,203.645792 L331.140981,203.576366 L330.167313,202.939671 L329.663122,202.73647 L328.540439,202.67424 L327.576507,202.990048 L326.904676,203.696169 L326.657872,204.849755 L325.976304,204.236343 L326.325978,203.133981 L327.106607,201.981242 L327.723828,201.248028 L328.224209,200.423796 L328.714006,197.48501 L329.082731,197.433363 L329.175441,197.161159 L329.173747,196.750949 L329.250371,196.303484 L329.488285,195.889887 L330.013219,195.395856 L330.553817,194.401444 L331.095261,193.680929 L331.745926,193.127631 L332.433421,192.998091 L333.217012,192.936708 L333.857093,192.49517 L334.320221,191.833499 L334.584382,191.101131 L333.128112,189.146597 L332.941845,188.824016 L332.430034,188.453599 L331.035994,186.604052 L330.940744,186.518961 L330.69775,186.353014 L330.581757,186.221357 L330.5644,186.089277 L330.6025,185.729866 L330.592764,185.583393 L330.282036,184.611841 L330.226156,184.27656 L330.167313,181.781852 L330.330296,180.595246 L330.850997,178.577636 L330.772257,178.067094 L330.367126,177.727157 L329.573798,177.498557 L328.224209,177.3669 L326.820009,177.417277 L325.600807,177.044319 L325.358236,175.809453 L325.727807,174.321857 L326.333175,173.254632 L326.665069,173.028148 L327.045223,172.858814 L327.405904,172.630214 L327.676838,172.233549 L327.720018,171.923669 L327.584128,171.338198 L327.582434,171.048214 L327.736951,170.61345 L327.932532,170.232872 L328.062918,169.862031 L328.018468,169.428114 L326.571935,168.167001 L326.215911,168.000631 L325.763791,167.69964 L325.358236,167.341076 L324.950142,166.739095 L324.635182,166.670938 L324.274501,166.670938 L323.939644,166.622255 L323.719933,166.670938 L323.118799,166.645538 L322.698428,166.502451 L323.025242,166.204424 L323.386346,165.950424 L323.323692,165.758653 L322.788598,165.409826 L322.28483,164.859915 L321.912719,164.34387 L321.770056,163.733846 L321.95082,162.882944 L321.988496,162.400766 L321.733226,162.172589 L321.381012,162.003679 L321.138018,161.690412 L320.965721,160.757383 L320.845917,160.467399 L320.514447,160.132965 L319.643648,159.532677 L319.392611,159.19909 L319.162741,158.296965 L319.01669,158.032381 L318.794017,157.854157 L318.243682,157.650534 L318.052758,157.527767 L317.845748,157.205186 L317.447391,156.044827 L316.639669,154.494154 L315.45391,152.986661 L314.061564,151.643422 L311.535952,150.047028 L311.286608,149.651634 L310.826021,147.382986 L310.57583,146.627758 L310.202026,146.302638 L309.731278,146.256494 L308.58235,145.907244 L307.717478,145.823 L286.062241,145.943227 L285.900104,148.029841 L285.66473,148.351152 L278.206852,149.972945 L277.628154,149.947545 L277.06766,149.826048 L276.430542,149.588981 L275.624514,149.09622 L275.004752,148.534879 L274.394304,148.137791 L273.60775,148.111968 L268.503186,149.19655 L266.96352,149.758315 L265.739237,150.464436 L265.536037,150.77982 L265.51233,150.994027 L265.55551,151.221781 L265.559743,151.582462 L265.095769,154.12162 L265.114819,154.229147 L265.245206,154.614804 L265.258753,154.783715 L265.152496,154.865841 L264.978082,154.842981 L264.810019,154.842981 L264.741438,155.011892 L264.749905,155.433109 L264.704608,155.552489 L264.594542,155.573233 L263.540439,156.222204 L263.227172,156.536318 L262.674298,157.506177 L262.572274,157.613704 L262.529941,159.065316 L262.392357,159.363767 L262.12227,159.38705 L261.788683,159.343024 L261.474145,159.461557 L261.315395,159.748155 L261.018214,160.87634 L260.928468,161.03509 L260.856501,161.118064 L260.74601,161.176907 L260.554663,161.236174 L260.29516,161.356401 L260.2723,161.499488 L260.33707,161.658662 L260.332413,161.822069 L259.175017,165.543176 L259.017537,165.758653 L258.782163,165.950424 L258.66871,166.084197 L258.580233,166.285704 L258.447306,166.502451 L258.281359,166.462658 L258.107792,166.344971 L257.962588,166.323381 L257.389394,166.645538 L257.19847,166.816565 L256.92415,167.174706 L256.932616,167.446487 L257.069353,167.762717 L257.04861,168.026031 L256.580402,168.158958 L255.991968,168.456139 L255.179589,169.800225 L254.613168,170.267586 L253.896463,170.387812 L253.244952,170.341246 L252.580741,170.387812 L251.839059,170.78363 L251.177388,170.102909 L250.465763,170.590166 L249.926859,171.645962 L249.771495,172.630214 L249.919662,172.978194 L250.387446,173.553929 L250.422583,173.829519 L250.29897,173.865926 L249.766839,173.92477 L249.574645,174.022983 L249.246561,174.489921 L248.965467,174.981412 L248.517579,176.061337 L248.055722,176.623525 L247.439347,177.020612 L246.129128,177.655614 L245.097039,178.414652 L244.582265,178.495509 L243.80968,178.219495 L242.519781,177.417277 L241.98511,177.286043 L241.098225,177.440983 L239.612322,177.909614 L238.83,178.495509 L238.83,178.711409 L239.373984,179.337097 L239.257568,180.954657 L239.989089,181.554098 L240.067829,181.350474 L240.143606,181.243371 L240.207953,181.098591 L240.398876,181.06176 L240.895024,181.554098 L240.901374,181.289938 L240.939474,181.231941 L241.012711,181.218817 L241.144791,181.06176 L241.384822,181.877525 L242.055806,182.360126 L242.908825,182.55105 L243.698343,182.468923 L245.144029,181.939756 L245.916191,181.806405 L246.504625,181.997329 L246.504625,182.24879 L245.732887,182.28562 L244.890029,182.444793 L244.210577,182.752557 L243.874027,183.438359 L243.761843,183.483655 L243.67252,183.591606 L243.698343,183.857036 L243.825343,183.905296 L244.07257,183.893866 L244.309214,183.96414 L244.416318,184.215177 L244.630102,184.555537 L245.122016,184.611841 L245.665154,184.517437 L246.038958,184.348104 L246.448745,184.542414 L247.080783,184.661794 L247.661174,184.661794 L247.918562,184.468754 L248.141235,184.361227 L249.540778,184.794298 L247.590478,184.757468 L246.617232,184.854411 L245.924234,185.153285 L245.38406,185.248959 L242.772088,185.261236 L242.495651,185.047028 L242.38135,184.826471 L242.229797,184.706244 L241.844139,184.794298 L240.895024,185.861523 L241.064781,189.481454 L240.895024,189.507277 L240.838721,190.552489 L240.861157,191.112137 L241.019484,191.486788 L241.337832,191.883029 L241.684966,192.4685 L241.964366,193.081911 L242.178997,194.08987 L242.430034,194.628351 L243.332159,196.127801 L243.537476,196.393231 L243.813067,196.502028 L244.164434,196.393231 L244.326571,196.152354 L244.326571,195.850517 L244.184754,195.565613 L244.906539,194.952202 L245.40692,194.222373 L245.351886,193.466722 L244.416318,192.766951 L244.884102,192.527343 L244.329958,192.348696 L243.813067,192.110783 L243.534936,191.737825 L243.698343,191.150661 L243.823227,191.523195 L244.013304,191.750525 L244.280428,191.796245 L244.627562,191.605745 L245.246476,192.42024 L245.726537,192.827911 L246.270522,192.998091 L246.657872,192.827911 L246.899173,192.42024 L247.22006,191.366561 L247.432997,191.366561 L247.540947,191.594315 L247.661174,191.725125 L247.848288,191.785239 L248.145469,191.833499 L248.145469,192.060829 L247.553224,192.43167 L247.20863,192.925701 L246.806039,193.346072 L246.038958,193.491275 L246.392018,193.95779 L246.956746,194.147867 L247.562537,194.103417 L248.444343,193.573826 L248.892653,193.573826 L249.403194,193.669499 L250.003059,193.692782 L251.213371,193.333372 L251.879276,192.633177 L252.422837,191.701418 L253.273739,190.671023 L252.049033,193.346072 L251.396675,194.15972 L251.420382,194.147867 L251.496159,194.531831 L252.135817,194.583478 L252.859295,194.495847 L253.484136,194.628351 L253.169175,194.772708 L252.488877,195.251076 L252.208207,195.347172 L251.830169,195.311612 L251.193898,195.130849 L248.946417,194.974215 L248.612406,194.878541 L248.406242,195.180802 L248.236909,195.516506 L248.136155,195.889887 L248.145469,196.282741 L247.700968,196.077847 L247.432997,196.271311 L247.220907,196.643845 L246.966906,196.979549 L246.532142,197.219156 L245.50852,197.615397 L245.114396,197.913848 L244.788429,198.730036 L245.28754,199.24481 L246.226071,199.571201 L247.22006,199.798531 L247.22006,200.025015 L246.756509,200.025015 L246.890283,200.435226 L247.14513,200.698116 L247.499884,200.865333 L247.918562,200.958044 L247.918562,201.190877 L247.00797,201.330578 L246.147331,200.731983 L245.318866,199.953895 L244.150887,199.342177 L243.457466,198.177161 L243.023548,197.697524 L242.500731,197.409233 L241.897903,197.219156 L241.279412,197.206879 L240.7041,197.44691 L240.551277,197.161159 L240.472537,197.073953 L240.242666,197.219156 L240.036502,197.087076 L239.313024,196.979549 L239.454841,197.301706 L239.893839,197.937131 L239.989089,198.264792 L239.934902,198.695322 L239.785465,198.970066 L239.313024,199.571201 L239.741015,199.689311 L239.951412,200.013585 L240.095769,200.348442 L240.345536,200.494069 L241.208715,201.632415 L241.378895,202.006219 L241.450862,202.255986 L241.612152,202.313983 L241.771326,202.338536 L241.844139,202.460033 L241.913566,202.484163 L243.089589,204.367577 L243.490486,204.690158 L243.323269,205.075392 L243.338086,205.495339 L243.490486,206.212467 L243.562029,207.66662 L243.490486,208.203408 L243.698343,208.203408 L244.206344,207.566713 L245.050049,206.924939 L245.982654,206.382648 L246.756509,206.083351 L248.255112,205.852633 L248.533666,205.864063 L248.69411,205.902163 L248.843123,205.902163 L249.075957,205.852633 L249.326994,205.720976 L249.503101,205.579583 L249.698258,205.446656 L250.003059,205.388659 L249.775729,205.794637 L249.635182,206.212467 L249.563215,206.657815 L249.540778,207.139146 L249.699528,207.689057 L250.085186,207.977771 L250.544503,208.172081 L250.933124,208.432432 L251.453402,209.297304 L251.722642,209.955165 L252.18196,210.373842 L253.273739,210.530899 L252.920678,210.892003 L252.617994,211.324651 L252.40548,211.805982 L252.325894,212.28435 L252.11338,212.73774 L252.054113,212.987931 L252.208207,213.110698 L252.279327,213.217801 L252.848288,214.887431 L253.58235,215.558839 L254.441718,216.157434 L255.127519,216.855089 L254.00272,216.369948 L253.438839,216.207811 L252.905015,216.130764 L252.268744,216.289514 L251.112195,216.938062 L250.44756,217.069296 L251.166805,217.910884 L251.619349,218.307125 L251.987226,218.459949 L252.501154,218.614466 L252.819925,218.989963 L253.273739,219.877271 L254.875635,220.91825 L256.601146,220.212129 L257.21625,220.114339 L256.616386,220.403052 L256.277718,220.703196 L256.171038,221.112561 L256.287455,221.738248 L256.594796,222.35928 L257.01813,222.671277 L257.511314,222.897761 L258.86175,223.857459 L259.207191,223.989963 L259.426478,224.027216 L259.641955,224.027216 L261.823396,224.443777 L262.088403,224.422187 L262.584551,224.815888 L263.683103,224.409911 L265.373053,223.363852 L266.380165,221.818682 L266.98892,221.278084 L267.674298,221.738248 L267.199317,221.856782 L267.000773,222.216193 L267.03083,222.694137 L267.23403,223.136521 L267.020246,223.363852 L266.838636,223.198751 L266.281105,222.897761 L264.974696,224.695238 L264.554325,225.849247 L265.373053,226.642998 L265.373053,226.160397 L265.60758,226.160397 L265.806547,226.353014 L266.030491,226.342008 L266.280682,226.171827 L266.534259,225.94365 L266.567702,226.279354 L266.547805,226.544785 L266.450439,226.749679 L266.281105,226.888532 L266.281105,227.108666 L266.848796,227.590844 L267.02956,228.308395 L267.27848,228.96414 L268.047255,229.24354 L268.421483,229.279947 L269.099664,229.436157 L269.318104,229.457747 L269.734665,229.351067 L270.458143,229.05177 L271.200248,228.90699 L271.897056,228.585256 L272.231067,228.499319 L272.883425,228.486195 L273.285169,228.295272 L273.88207,228.124668 L274.103474,227.984968 L274.194914,227.682284 L274.321914,227.493053 L274.647035,227.4304 L275.033962,227.4304 L275.37263,227.362666 L275.423007,227.493053 L275.624514,227.803357 L275.850997,227.6717 L276.089335,227.635294 L276.320052,227.623864 L276.530872,227.575604 L276.783179,227.575604 L276.637976,228.245318 L276.173578,228.486195 L275.550853,228.575519 L274.930669,228.763056 L274.995862,228.869736 L275.071639,229.12289 L275.136833,229.24354 L274.235977,229.291377 L273.58235,229.588981 L273.005768,229.947968 L272.337324,230.132542 L272.18196,230.059728 L271.770056,229.757891 L271.524522,229.691004 L271.294228,229.721484 L270.881054,229.864571 L270.70918,229.903518 L269.853622,229.891665 L269.461615,229.947968 L269.090774,230.132542 L268.479903,229.928072 L268.032438,230.301029 L267.674298,230.81284 L267.038873,231.366138 L266.601569,232.015956 L266.300155,232.646724 L266.409798,232.936284 L266.687929,233.069211 L266.968176,233.322365 L267.256044,233.467569 L267.860988,233.139485 L268.222939,233.175891 L268.85794,233.428199 L269.130567,233.630552 L269.405734,234.05304 L269.668202,234.122467 L270.003906,234.171573 L270.260023,234.30704 L270.425547,234.518707 L270.48185,234.822238 L269.367634,234.316777 L268.093399,233.90826 L266.851759,233.957366 L265.819247,234.822238 L272.331397,236.897422 L280.52503,240.134235 L288.478209,243.015024 L293.285169,245.807337 L295.084339,247.308056 L295.557627,247.802511 L295.868777,248.564089 L296.078751,248.564089 L296.357728,248.374435 L296.773443,248.311782 L297.720864,248.336335 L297.597674,248.539112 L297.495227,248.672886 L297.33309,248.747393 L297.027443,248.793959 L297.540101,249.25116 L298.183992,249.694391 L298.864713,250.052108 L300.26087,250.367069 L300.825597,250.823 L301.882239,250.314999 L302.144707,250.159635 L302.07274,249.307887 L302.21498,248.732576 L303.144199,248.203408 L303.470589,247.642067 L303.68141,246.993942 L303.75507,246.491021 L303.63188,245.807337 L303.74237,245.5817 L304.484475,245.494916 L304.736358,245.399666 L304.915852,245.221019 L304.985702,244.919182 L304.873942,244.503467 L304.391764,243.708022 L304.302864,243.360888 L304.407428,243.226691 L305.022532,242.66535 L306.204905,240.818343 L306.783603,240.698963 L309.579725,239.439121 L309.872249,239.161413 L312.691231,235.554606 L317.734834,231.584155 L319.121677,230.802257 L320.414963,230.502113 L320.864544,230.314152 L321.244275,230.010622 L326.135055,224.074207 L327.425377,222.979464 L329.02812,222.110359 L329.276618,222.023576 L330.058516,221.901232 L329.970886,213.665266 L330.019569,213.267755 L330.159269,212.955758 L330.464493,212.700487 L331.325132,212.223389 L331.685389,211.875409 L332.476601,210.423373 L332.976558,209.801495 L333.77412,209.40483 L334.452301,209.297304 L337.192543,209.28545 L337.891468,209.188083 L338.557373,208.985306 L339.216504,208.600919 L340.051319,207.799971 L340.144876,207.164123 L339.880292,206.478745 L339.631795,205.519469 L339.700798,204.751118 L340.29897,203.455715 L341.343758,199.269364 L341.368735,197.508717 L340.977574,197.565867 Z M266.072824,230.382732 L265.861581,229.386627 L265.893331,228.98954 L266.281105,228.763056 L265.924658,228.258865 L265.520797,227.841034 L265.037349,227.53962 L264.429018,227.362666 L263.119222,227.407963 L262.787751,227.229316 L263.288556,226.642998 L262.621804,226.365291 L261.92161,226.315761 L259.892145,226.486788 L258.606903,226.819952 L258.037095,226.888532 L254.331228,226.902925 L253.021855,227.108666 L252.519781,227.297896 L252.103643,227.734354 L251.970716,228.201715 L250.699444,228.499319 L250.699444,228.763056 L254.176711,229.691004 L257.062156,230.118995 L258.167905,230.682876 L261.265865,231.499911 L261.759896,231.545208 L262.461361,231.797515 L263.136579,232.433363 L263.735596,233.271988 L264.196184,234.122467 L263.497683,234.122467 L263.807987,234.627928 L264.355358,234.822238 L264.946756,234.734608 L265.373053,234.343447 L265.405226,233.90826 L265.111856,232.780497 L265.144029,232.244133 L265.44502,231.687448 L265.748551,231.354284 L265.981808,230.99572 L266.072824,230.382732 Z" id="Fill-3"></path>
        </g>
    </g>
</svg>