
<svg width="123px" height="109px" viewBox="0 0 123 109" version="1.1" xmlns="http://www.w3.org/2000/svg" xmlns:xlink="http://www.w3.org/1999/xlink">
    <!-- Generator: Sketch 51.2 (57519) - http://www.bohemiancoding.com/sketch -->
    <desc>Created with Sketch.</desc>
    <defs></defs>
    <g id="Page-1" stroke="none" stroke-width="1" fill="none" fill-rule="evenodd">
        <g id="SC-EPS-01-0001" transform="translate(-501.000000, -176.000000)" >
            <g id="Group" transform="translate(500.000000, 175.000000)">
                <polygon id="Path" points="69.1331579 82.7939474 66.7726316 80.0702632 63.02 78.43 58.2263158 75.5671053 56.3560526 71.8992105 55.5086842 61.6642105 53.7171053 58.2807895 50.9994737 59.2189474 48.6510526 61.8034211 47.0471053 64.9507895 46.4902632 67.5352632 45.2676316 68.3826316 40.2923684 68.2373684 39.1605263 69.0363158 38.9668421 71.1002632 38.41 72.4681579 37.1026316 72.8373684 34.7421053 72.6073684 41.4121053 79.2773684 43.2944737 80.2155263 50.9026316 82.7939474 54.1892105 85.1 55.7871053 86.6071053 57.0097368 88.6710526 58.0386842 88.8102632 59.0736842 89.2339474 59.5457895 90.8257895 59.4489474 92.3328947 59.2613158 93.3134211 59.1644737 94.4028947 59.5457895 96.0431579 57.1973684 98.4823684 60.8652632 103.790526 66.8694737 108.445 71.3786842 109.237895 70.1560526 107.077105"></polygon>
                <polygon id="Path" points="5.90736842 37.5686842 2.42710526 36.3521053 1.48894737 40.2984211 2.89921053 45.3160526 5.90736842 48.8871053 9.85368421 48.0457895 11.73 43.815 9.75684211 40.1531579"></polygon>
                <polygon id="Path" points="106.411316 1.31342105 104.819474 1.31342105 103.312368 1.59184211 100.594737 2.53 101.998947 5.82263158 104.165789 8.26184211 107.071053 9.62368421 110.738947 9.90815789 110.454474 12.3534211 112.427632 14.5081579 115.429737 15.7307895 118.062632 15.7307895 120.035789 14.1328947 120.035789 11.7844737 120.604737 9.99894737 123.982105 9.90815789 109.425526 4.03710526"></polygon>
            </g>
        </g>
    </g>
</svg>