
<svg width="175px" height="92px" viewBox="0 0 175 92" version="1.1" xmlns="http://www.w3.org/2000/svg" xmlns:xlink="http://www.w3.org/1999/xlink">
    <!-- Generator: Sketch 51.2 (57519) - http://www.bohemiancoding.com/sketch -->
    <desc>Created with Sketch.</desc>
    <defs></defs>
    <g id="Page-1" stroke="none" stroke-width="1" fill="none" fill-rule="evenodd">
        <g id="USA-flag" fill-rule="nonzero">
            <polygon id="Shape" fill="#B22234" points="0 0 173.577236 0 173.577236 91.285591 0 91.285591"></polygon>
            <path d="M0,10.5329528 L174.346928,10.5329528 M174.346928,24.5768899 L0,24.5768899 M0,38.6208269 L174.346928,38.6208269 M174.346928,52.6647641 L0,52.6647641 M0,66.7087011 L174.346928,66.7087011 M174.346928,80.7526382 L0,80.7526382" id="Shape" stroke="#FFFFFF" stroke-width="7.11382114" fill="#000000"></path>
            <polygon id="Shape" fill="#3C3B6E" points="0 0 69.7387711 0 69.7387711 49.1537798 0 49.1537798"></polygon>
            <g id="Group" transform="translate(3.129304, 2.106591)" fill="#FFFFFF">
                <path d="M2.68226043,0 L4.34102675,5.07922391 L0,1.94274462 L5.36452085,1.94274462 L1.02349411,5.07922391 L2.68226043,0 Z M2.68226043,9.83075596 L4.34102675,14.9099799 L0,11.7735006 L5.36452085,11.7735006 L1.02349411,14.9099799 L2.68226043,9.83075596 Z M2.68226043,19.6615119 L4.34102675,24.7407358 L0,21.6042565 L5.36452085,21.6042565 L1.02114125,24.7407358 L2.68226043,19.6615119 Z M2.68226043,29.4922679 L4.34102675,34.5714918 L0,31.4350125 L5.36452085,31.4350125 L1.02114125,34.5714918 L2.68226043,29.4922679 Z" id="Shape"></path>
                <polygon id="Shape" points="2.68226043 39.3230239 4.34102675 44.4022477 0 41.2657685 5.36452085 41.2657685 1.02114125 44.4022477"></polygon>
                <path d="M8.4938247,4.91537798 L10.152591,9.99460189 L5.81156426,6.8581226 L11.1760851,6.8581226 L6.83505837,9.99460189 L8.4938247,4.91537798 Z M8.4938247,14.7461339 L10.152591,19.8253578 L5.81156426,16.6888786 L11.1760851,16.6888786 L6.83505837,19.8253578 L8.4938247,14.7461339 Z M8.4938247,24.5768899 L10.152591,29.6561138 L5.81156426,26.5196345 L11.1760851,26.5196345 L6.83270552,29.6561138 L8.4938247,24.5768899 Z M8.4938247,34.4076459 L10.152591,39.4868698 L5.81156426,36.3503905 L11.1760851,36.3503905 L6.83270552,39.4868698 L8.4938247,34.4076459 Z" id="Shape"></path>
                <g id="Shape" transform="translate(11.623129, 0.000000)">
                    <path d="M2.68226043,0 L4.34102675,5.07922391 L0,1.94274462 L5.36452085,1.94274462 L1.02349411,5.07922391 L2.68226043,0 Z M2.68226043,9.83075596 L4.34102675,14.9099799 L0,11.7735006 L5.36452085,11.7735006 L1.02349411,14.9099799 L2.68226043,9.83075596 Z M2.68226043,19.6615119 L4.34102675,24.7407358 L0,21.6042565 L5.36452085,21.6042565 L1.02114125,24.7407358 L2.68226043,19.6615119 Z M2.68226043,29.4922679 L4.34102675,34.5714918 L0,31.4350125 L5.36452085,31.4350125 L1.02114125,34.5714918 L2.68226043,29.4922679 Z"></path>
                    <polygon points="2.68226043 39.3230239 4.34102675 44.4022477 0 41.2657685 5.36452085 41.2657685 1.02114125 44.4022477"></polygon>
                    <path d="M8.4938247,4.91537798 L10.152591,9.99460189 L5.81156426,6.8581226 L11.1760851,6.8581226 L6.83505837,9.99460189 L8.4938247,4.91537798 Z M8.4938247,14.7461339 L10.152591,19.8253578 L5.81156426,16.6888786 L11.1760851,16.6888786 L6.83505837,19.8253578 L8.4938247,14.7461339 Z M8.4938247,24.5768899 L10.152591,29.6561138 L5.81156426,26.5196345 L11.1760851,26.5196345 L6.83270552,29.6561138 L8.4938247,24.5768899 Z M8.4938247,34.4076459 L10.152591,39.4868698 L5.81156426,36.3503905 L11.1760851,36.3503905 L6.83270552,39.4868698 L8.4938247,34.4076459 Z"></path>
                </g>
                <g id="Shape" transform="translate(23.222729, 0.000000)">
                    <path d="M2.70578903,0 L4.36455535,5.07922391 L0.0235286003,1.94274462 L5.38804946,1.94274462 L1.04466985,5.07922391 L2.70578903,0 Z M2.70578903,9.83075596 L4.36455535,14.9099799 L0.0235286003,11.7735006 L5.38804946,11.7735006 L1.04466985,14.9099799 L2.70578903,9.83075596 Z M2.70578903,19.6615119 L4.36455535,24.7407358 L0.0211757403,21.6042565 L5.38804946,21.6042565 L1.04466985,24.7407358 L2.70578903,19.6615119 Z M2.70578903,29.4922679 L4.36455535,34.5714918 L0.0211757403,31.4350125 L5.38804946,31.4350125 L1.04466985,34.5714918 L2.70578903,29.4922679 Z"></path>
                    <polygon points="2.70578903 39.3230239 4.36455535 44.4022477 0.0211757403 41.2657685 5.38804946 41.2657685 1.04466985 44.4022477"></polygon>
                    <path d="M8.51735329,4.91537798 L10.1761196,9.99460189 L5.83509287,6.8581226 L11.1996137,6.8581226 L6.85623411,9.99460189 L8.51735329,4.91537798 Z M8.51735329,14.7461339 L10.1761196,19.8253578 L5.83509287,16.6888786 L11.1996137,16.6888786 L6.85623411,19.8253578 L8.51735329,14.7461339 Z M8.51735329,24.5768899 L10.1761196,29.6561138 L5.83274,26.5196345 L11.1996137,26.5196345 L6.85623411,29.6561138 L8.51735329,24.5768899 Z M8.51735329,34.4076459 L10.1761196,39.4868698 L5.83274,36.3503905 L11.1996137,36.3503905 L6.85623411,39.4868698 L8.51735329,34.4076459 Z"></path>
                    <g id="Group" transform="translate(11.623129, 0.000000)">
                        <path d="M2.70578903,0 L4.36455535,5.07922391 L0.0235286003,1.94274462 L5.38804946,1.94274462 L1.04466985,5.07922391 L2.70578903,0 Z M2.70578903,9.83075596 L4.36455535,14.9099799 L0.0235286003,11.7735006 L5.38804946,11.7735006 L1.04466985,14.9099799 L2.70578903,9.83075596 Z M2.70578903,19.6615119 L4.36455535,24.7407358 L0.0211757403,21.6042565 L5.38804946,21.6042565 L1.04466985,24.7407358 L2.70578903,19.6615119 Z M2.70578903,29.4922679 L4.36455535,34.5714918 L0.0211757403,31.4350125 L5.38804946,31.4350125 L1.04466985,34.5714918 L2.70578903,29.4922679 Z" id="Shape"></path>
                        <polygon id="Shape" points="2.70578903 39.3230239 4.36455535 44.4022477 0.0211757403 41.2657685 5.38804946 41.2657685 1.04466985 44.4022477"></polygon>
                        <path d="M8.51735329,4.91537798 L10.1761196,9.99460189 L5.83509287,6.8581226 L11.1996137,6.8581226 L6.85623411,9.99460189 L8.51735329,4.91537798 Z M8.51735329,14.7461339 L10.1761196,19.8253578 L5.83509287,16.6888786 L11.1996137,16.6888786 L6.85623411,19.8253578 L8.51735329,14.7461339 Z M8.51735329,24.5768899 L10.1761196,29.6561138 L5.83274,26.5196345 L11.1996137,26.5196345 L6.85623411,29.6561138 L8.51735329,24.5768899 Z M8.51735329,34.4076459 L10.1761196,39.4868698 L5.83274,36.3503905 L11.1996137,36.3503905 L6.85623411,39.4868698 L8.51735329,34.4076459 Z" id="Shape"></path>
                    </g>
                </g>
                <g id="Shape" transform="translate(46.468985, 0.000000)">
                    <path d="M2.70578903,0 L4.36455535,5.07922391 L0.0235286003,1.94274462 L5.38804946,1.94274462 L1.04466985,5.07922391 L2.70578903,0 Z M2.70578903,9.83075596 L4.36455535,14.9099799 L0.0235286003,11.7735006 L5.38804946,11.7735006 L1.04466985,14.9099799 L2.70578903,9.83075596 Z M2.70578903,19.6615119 L4.36455535,24.7407358 L0.0211757403,21.6042565 L5.38804946,21.6042565 L1.04466985,24.7407358 L2.70578903,19.6615119 Z M2.70578903,29.4922679 L4.36455535,34.5714918 L0.0211757403,31.4350125 L5.38804946,31.4350125 L1.04466985,34.5714918 L2.70578903,29.4922679 Z"></path>
                    <polygon points="2.70578903 39.3230239 4.36455535 44.4022477 0.0211757403 41.2657685 5.38804946 41.2657685 1.04466985 44.4022477"></polygon>
                    <path d="M8.51735329,4.91537798 L10.1761196,9.99460189 L5.83509287,6.8581226 L11.1996137,6.8581226 L6.85623411,9.99460189 L8.51735329,4.91537798 Z M8.51735329,14.7461339 L10.1761196,19.8253578 L5.83509287,16.6888786 L11.1996137,16.6888786 L6.85623411,19.8253578 L8.51735329,14.7461339 Z M8.51735329,24.5768899 L10.1761196,29.6561138 L5.83274,26.5196345 L11.1996137,26.5196345 L6.85623411,29.6561138 L8.51735329,24.5768899 Z M8.51735329,34.4076459 L10.1761196,39.4868698 L5.83274,36.3503905 L11.1996137,36.3503905 L6.85623411,39.4868698 L8.51735329,34.4076459 Z"></path>
                </g>
                <g id="Shape" transform="translate(58.092114, 0.000000)">
                    <path d="M2.70578903,0 L4.36455535,5.07922391 L0.0235286003,1.94274462 L5.38804946,1.94274462 L1.04466985,5.07922391 L2.70578903,0 Z M2.70578903,9.83075596 L4.36455535,14.9099799 L0.0235286003,11.7735006 L5.38804946,11.7735006 L1.04466985,14.9099799 L2.70578903,9.83075596 Z M2.70578903,19.6615119 L4.36455535,24.7407358 L0.0211757403,21.6042565 L5.38804946,21.6042565 L1.04466985,24.7407358 L2.70578903,19.6615119 Z M2.70578903,29.4922679 L4.36455535,34.5714918 L0.0211757403,31.4350125 L5.38804946,31.4350125 L1.04466985,34.5714918 L2.70578903,29.4922679 Z"></path>
                    <polygon points="2.70578903 39.3230239 4.36455535 44.4022477 0.0211757403 41.2657685 5.38804946 41.2657685 1.04466985 44.4022477"></polygon>
                </g>
            </g>
        </g>
    </g>
</svg>