<svg width="171" height="115"><path d="m0 0-.391-.392L0-.791h.262l.131.13v.54L.262 0Zm71.498-11.995-.132-.121v-.27l.385-.383.139.123v.522l-.131.129zM-138.56-42.542l-.66-.122-.009-3.653.669-.122.261-.27.522.262.644.913v1.564l-.906 1.176zM-1.564.261l-.402-.391.131-.148 1.052.017.114.375-.114.147zm8.73 4.305v.253l-.39.391-.13-.122v-.269l-.261-.27.13-.121.522.009Zm70.837-7.941-.522.521-.763-.007-.279.268-1.288-.007-.278.268-1.026.262-.662-1.165.13-.149h.785l.259.262.392-.391.392-.654.521.783h.531l.514-1.044.52-.009.53.541.253-.271.531-.008v.791zm-3.112-4.706-.402-.643.393-.401h.521l.13.393.271.269v.251l-.13.122zM13.438 25.45v-.252l.114-.131.39.375-.129.148h-.261zM72.402-5.332l.009.522.523.513v.27l-.54.253-.123 1.19-.782-.016-.269-.513-.783-.522-.504-.009-1.053-.513h-1.044l-.262.773-.52.009-.262-.269-.13.391-.783.53.009.522-.391.383h-.782l-.531-.261-.262-.505-1.557-.8h-.279l-.112.401.661.138 1.687 1.427.243.522-.235.252.114.392h.522l.261.262L66.801 0l1.166 1.452-.261.523.139.391.652-.131-.007-.522.651-.669.521-.252h.782l.122 1.435.271.539.529 1.036-.26.521.775.765.792 1.331-.149.373-.504.011-.791-.793-.27.793-.766.009-.269-.271-.783.009-.261-.271-1.817-.26-.792 1.035-1.549.278-.661-1.183-.399-.391-.523-.017-.009-.773-1.044.009-.505.251-.79-.784-.783-.269-.391.4 1.295 1.053.009.521-.392.13-.252-.269-1.044-.26-.791-.522-.783.008-.261-.268-.783.009-.53-.271L55.31 3.4l-.121.914.261.27-.01 1.044.262.251.009.793.262.513.633.139.663.913-.784.513.252.514-.113.399-1.044.009-.262-.27-2.861-.252-1.32 1.305-1.175.382-.252 1.044-1.036 1.567.244.521 1.687 1.175.663.914.007.52-.522.271-.017.773-.391.4-.505-.27-.279.262-.373-.383-.009-1.305-3.01-2.479h-.504l-.392-.39-.008-.523 1.043-.261.261-.522.008-1.835-1.444-.113-.261-.27h-.521l-.13.13.26.253.01.539-1.183.114-.53-.792-.523.009-.26-.253-.392.401.008.773.262.262.009 1.026-.262.269-.139 1.175-1.556-.262-1.315-1.035-.131.122-.512 1.844.905.636h.521l1.184 1.173-.514.784.113.391.522.269.523-.782h.522l.652.391-.01.522.279.252-.009 1.043-.651.149-.783.505h-.784l-2.087 1.312-.392.375.009 1.061-.523.26-.259.523.251.782-.652.653-1.045.26-1.432 1.427-.271 1.314-.626.651h-.793l-.259-.26-2.097-.009-.783-.513-1.836-.009-.244-.251-1.043.529-.782.775h-.521l-.541.531-.765-.018-.532-.522-.782.009-1.036-.783h-.782l-.26-.54-.532.01-.391-.392-.261-.522.252-.252.017-1.044-2.346-2.088-.783-2.6-.792-.791-.008-.791-.263-.244.019-1.062-1.324-1.305-.244-.521.131-.384h.785l.26.253.784.009.241-.271 1.053-.007.132.669-.393.131-.39.391.131.131.791-.009 1.166-1.175-.393-.643-1.557.008-.391-.66.384-.4 1.034-.009 1.582-.774.905-.905v-.522l-1.182-.138-.253.269-1.034.009-.775.773-.539.253-1.574-.262-.244.28-1.305-.018-1.036 1.573-1.07.253-.259-.26-.783-.017-.522.791-.766.009-1.061.503-1.027.009-.399-.661.652-.112.39-.419v-.503l-1.442-.131-.766-.791-.53.009-.915-.393-.269-.521.018-1.044.259-.27-.791-.765v-.271l-.791-1.058.009-1.568-.79-.512.148-.896 1.564-.279 1.036 1.052 1.573-.008.783.512 2.08.009 1.044.514.532.792h.503l.148-.905.26-.27-.009-.774-.26-.27-.008-.791-1.035-1.035-.922-1.949-1.297-.017-.252.278-1.837-.008-.774-1.044H1.826L.652.122V-.4l.636-.373.538.495 1.296.008.514-.521 1.835.261.391-.653-.008-.792-1.437-.113-.119-.913 1.173-.139.391-.392.262-.504.009-1.582-.279-.253.008-1.062-.374-.913-1.053-.244-1.182-.931v-.25l.522-.253.261-.523-.253-1.312.783-.774-.268-1.045 1.312-2.34-.008-1.312.652-.4.261-.253.783-.009.522-.522 2.609.009.529.262.254-.271h1.053l.26-.261 1.304-.252.262-.278 1.045.017 1.034-1.305 1.574.244.262-.252 1.826-.008.391-.382.121-.915 1.313-.009.262-.252.521.018.792 1.052h.505l.132-2.235-.263-.244-.007-.791.408-.4.26.018.514.52 1.044.262.26.251 1.313.009.766.514 1.305.009.27.252 1.043-.008.4.669v.522l.392.392 2.34-.018.514-.774 1.07.008.233-.269h.549l1.556-1.306.782-.008.522-.252.375.391-1.036 1.305.009.539 1.559 1.549v.268l.921.914 1.549-.009.279-.252.79-.007.382-.646-.521-.538-.009-1.296-.921-.652h-.784l-.904-1.184-.008-.765.93-.13 1.027-1.052 1.059.008 1.035 1.035.523-.251h.783l.522-.802.783.018.652-.391.939-.427.644.427.209.105.088-.105.103-.157 1.567-.009.086.166 1.191 1.687h.262l.799-1.035h.505l.391.375.01.791.26.268-.016.271-1.559 1.799.008.792h1.045l.121-1.443.662 1.184.791.791-.015.764-1.167 1.444-1.044.261-.931.906.008 1.06-.775 1.044-.015 1.027-.495.539-.278.783.39.391.782-.53 1.044-.009.27.269.261-.269 1.028.009 1.582-.783.512-.523.523.018 1.044-.8 1.043-.506.521-.006.784-.523h5.226l.262-.27 1.575.008.243.514.522.271.783-.009.382.651-1.288.522-.016.522.66.391.262-.251.261.251.521.018.139.644.635.913.782-.53h.523l.53.26.393.652-.774.522-.018.792.531.522v.513l-.784.784-.008 1.06 1.315.766zM50.874 12.813l-.13-1.714.653-.374.532.244 1.042.008.774.792 1.565-.009 1.052.531.506-.009.791.522.522.782 1.052.514.663.661-.018.52-.392.384-1.044.278-.783.505-.651-.39-.384-1.437-.792-.514-.781.254-1.567-1.566zm-5.618 7.689v-.523l.278-.278.113-.374h.278l.114.121v.522l.269.27v.252l-.13.122-.783.009zm12.656-11.1-.383-1.435.392-.13 1.312.514 1.028.016.921.653.269 1.043-.131.131-2.364-1.322zm5.48-1.826h1.835l.39.391-1.433.14-.784.522-.523.009-.399-.662.678-.13ZM63 6.923l.009-.513.13-.131h.523l.137.122v.271l.262.251-.131.392-.538.009Zm-4.827-.652-.374-.392-.01-.269.132-.122h.26l.27.262h.261l.131.129-.018.27-.113.122zm.016 13.299.131.149-.009 1.286-.39.131-.514-.495-.279-.018-.111-.644.651-.4zM46.97 21.406l.766.782.53.018.122-.669.391-.122.79 1.052h.262l.774.765h.54l.123.661-.655.654-.782-.019-.262.27-1.311.009-.775.513h-.532l-.634-.913.26-.253-.008-.521-.53-.784.017-.521.651-.922zM8.611 189.974l.253-.522h.269l1.175-1.175-.009-.251.781-.8 1.045-2.088.262-2.071 3.131-3.661.259-2.61.262-.252-.008-1.313.279-.252-.009-2.601.277-.279-.024-3.123-.515-1.06-.792-4.158-.513-.791-.513-2.079-.792-1.044-.008-.539-.244-.244-.009-1.835.905-1.175 1.053.01 1.035.521 1.314 1.305 1.036.26.791.514 1.035.539.539-.009.773.522h1.835l1.548-.801 1.316.019.522-.531 1.825-1.035.783-.791h.53l1.044-.513 1.288-.801 1.321-1.549 1.027-.26.541-.522 1.816-.017 1.827-.766.521-.522h.261l.783-.8.261.016 1.697-1.695.513-1.295.8-1.566-.147-2.488h.537l.123.644.792 1.313.642.644 1.052.53 1.029.261.26-.27 1.573.009.262-.252.791-.009.262-.269.782-.26.782-.775h.262l1.297-1.576h.53l.373.393.009.522-.4.13-.905.922v.791l-.261.252.269.244.254 1.061-1.027.784-.28.52v.776l.801 1.052.252 1.826-.538 1.036v1.826l.792.791.008 1.305.774 1.044.009 1.287.243.27.019 1.565-.262.271-.018.522.261.269.009 1.026-.782.522v.522l-.261.27v2.087l-.774 1.818-.01 1.313-.261.253.009.79-.261.253-.01 1.314-.78 1.566-.774 1.026-.262.8-.782.775-.539 1.042-.523.253.009.271-4.046 4.052h-.521l-.782.783h-.261l-.26.522-.653.382-.262.775-.652.669-.26-.017-1.165 1.444-1.324 2.348-.392.139-1.67 1.688-.017.269-1.434 1.696-1.819-.008-.26.269-.262-.261h-.53l-.26-.521-.792-.009-1.567 1.574-2.339-.008-.381-.391.242-.253v-.521l.54-.522-.01-1.045-1.564-1.574.391-.652 1.051.522.132-.131-.662-.643-.521.008-.253-.269-.277.269-2.079-.026-.262.27-.791.009-.523.252-.913.922.009 1.043-.26.253v2.609l1.313.783.12.661.914-.131.253-2.087-.375-.121-.399-.662v-.522l.391-.4 1.314.009.766.521 1.182.384.009.774-1.061 1.07v.252l-.784.522-.505.774-1.051 2.096-3.784 4.045-1.304.261-.774-.792-1.183-.382-.253-.793.262-.251-.009-1.044-.262-.521-.398-.392-.505.009-.262-.271-.26.271-.663-.14-.244-.522-.009-1.314-.269-.269-.008-1.557 1.061-1.304v-.774l-.531-.784-.009-.522.662-.13.784-.522 1.044-.261 1.174-.922.129-.382h.261l.262-.523.39-.131v-.269l1.566-1.817.269-1.044.783-.8v-.504l.261-.523-.792-.53.019-.522 1.297-2.618.641-.896.393-.13-.008-1.313 1.059-1.297v-.522l.261-.522-1.835-2.096-.251-1.305-.26-.253-.01-.52.521-.522v-.522l.262-.253.009-1.835.261-.522-.27-.27v-.521l-.532-.244v-.27l-.904-.913-1.025.01-1.061-.792-1.818-.009-.93.922.008 1.296.269.521.775 1.574.26 2.609-.26.253.009 1.314-.279.252.009.792-.261.251v.792l-.262.27-.009 4.167.261.52-.391.122-1.949 1.958v.522l-.26.27.269 1.295-.783.523-.277 1.313-.262.253.53.791.009.522-1.583 1.817.01 1.566 1.304 1.574v.775l-.514.791-.261.522-.01 2.087.271.244-.016.539-.636.653-1.313-.009-1.966-2.218-.243-.774-.793-.783.019-.269-1.975-.905-.382-.391V192.2l2.479-2.226zM56.503 10.308l-.01-.245.113-.13h.28l.113.122.009.253-.114.147h-.279z" fill="none" transform="matrix(.3637 0 0 -.3637 67.38 87.798)"/></svg>