<svg width="84" height="116"><path d="M83.8 104l-.7-1.9-.2-1v-.4l-.3-4.6.3-3v-.5l-.3-1.2V91.1l-.3-1.3-.4-1.3.2-.2h.3l.2-.1v-.5l-1-6.3v-.3l-.3-.6V79l-.1-1.6-.1-.3-.2-.3-.5-.4-.2-.3-.1-.6-.2-1.5-.2-.3-.6-.3-.4-.5-.1-.6V71l-.5-2.7v-.8l.1-.3.4-.7v-.7l-.1-.3v-.8l-.3-.3v-.6l-.2-.2-.2-.2-.1-.2-.1-.3-.1-1-.7-2.2v-.6l.2-.8v-.5l-.5-.2-.3.2-.2 1-.3.2-.2-.3-.2-.8-.3-.5-.8.2-.3.3-.6.9-.3.2-.4.1-.3-.1-.7-.9-.3-.3-.2-.3H71l-.1.3v1.1l.4 2.3v.8l-.4.7-.3.2-.2.2-1 .5-.3.2-.5.6-.5 1-.4 1 .1.7.3.6.3 1.3.2.6v.4l-.3.3H68l-.1.1v.2l-.4.5v.2l-.4.2-.1.2-.2.1-.5.1-.3.1H65.4l-.1.2v.2l-.2.1-.3.2v-.3l-.2-.2-.2-.1h-.2l-.3-.1-.2-.3v-.2l-.1-.6h-.2v-.2l-.2-.4-.4-1.5v-.2l-.2-.6-.3-.2v-.4l-.1-.1v.1l-.2-.3-.3-.3-.3-.3H61l-.2.3-.1.5v.8l.3 1.6v.7l-.7-.2-.4-.6-.2-.8-.4-3-.1-.3-.1-.1V65l.3-.2v-.2H59l-.2-.3-.2-.4-.2-.8-.1-.5v-.1l-.2-.2-.3-.2-.1-.1-.2-.3-.1-.7-.2-.3-.5-1v-.8h.5l.1-.3v-.3L57 58l-.3-.1v-.4l.1-.4.3-.1h.3l.4-.2.2-.3.3-1v-.7l-.2-.5V54l.7-1 .2-.3.2-.3h.9l.3-.1.1-.8v-.7l.3-.5.7-.1 1.4.3h1.4l.4-.2.3-.1.2-.3.1-.4.2-1.3V48h.3l.3.9.1.3.4.2h.3l.3-.1.2-.3V48l-.1-.3.1-.3 1.2.3h.2v.5l.1.2.6.6h.5l.2-.4.4-1.7v-.4l-.2-.8v-.3l.4-.1.2.1.4.3.4.1v-.3l-.5-.6v-.3l1.6.2h.5l.4-.3.4-.5V42l.3-.2.2-.2.3-.2.2-.3v-.3l.2-.6.1-.8 1-2.6V36l-.3-.6v-.7l.6-.2.7.2 1.2.7v.2l.2.1h.2l1.1-.3.6-.2.3-.4v-.5l-.1-.3-.2-.2-.5-.2.2-.1v-.1l-.3-.1-.5-.4v-.1l-.3-.1h-.2V32l-.5-.3-.5-.2-.3-.4-.2-.1-1-.1-.2-.1-.3-.1-.2-.2-.3-.2-.2-.4h-.6l-.2-.1h-.2l-.2-.1v-.1l-.2-.3-.2-.1-.5-.2-.5-.1h-1.1l-.3.2-1-.2-2 .3H67.3l-.1.3h-.7l-.1.3-.2.1-.4.1H65l-.3-.3-.1-.3-.2-.1H64l-.3.3h-.4l-.4.2H62l-2.6-.9-.9-.4h-.2l-.4.2h-1.2l-2.9.4-.6.2-2.1.3h-.5l-.3-.1-.2-.2-.3-.2H49.5l-.2.3h-1L48 29h-.5l-.7.2-1.5-.2-1.8.4h-.7l-1.4-.6-2.8-.6-4-1.7H34l-.6.3H33l-.2-.5-.1-.7-.1-.6.1-.8.4-1.5v-1.5l.2-1.4-.2-.8-.4-1-.3-1.8v-.5l.8-1.3.1-.5-.1-.1h-.3l-.4-.3h.4l.2-.3.1-.3-.2-.3h-.1l-.2.2h-.2l-.1-.2-.1-.2-.4-.5-.1-.2V11l-.3-.4-.1-.2V10l-.2-.3-.2-.1h-.6l-.3-.1V8.1h-.8l-.1.2V9l.2.3H28.7l-.2.1-.2.4.1.2.3.2h.4l-.2.2-.3.1-.2.2v.2h.7v.6l-.8.7-.2.5v.6l-.2.1h-.4l-.1-.2-.3-.5H25.6l-.4-.4h-.2l-.2.2-.3.2h-.3l-.3-.2-.4-.2-.4-.5-.6-.3-.2-.2v-.4l-.3-.2-.2-.2-1.2-.5-.3-.3-.1-.3-.1-1.3-.2-.3-.3-.6-.2-.3v-.5h.7V6L20 6l-.4-.2h-.3V5.1L19 5h-.4l-.2-.1-.2-.2-.2-.3-.2-.1-.3-.2-.2-.2h-.2L17 4l-.2.2-.2.4-.2.3v.4l.4.4.5.2.5.2.2.6v.1h.5V7l.1.2h.4l.1.4-.4.3-.7.2-.6-.2-.8-.8h-.4l-.4.2-.3.6-.3.1-.3-.1-.1-.3-.1-.3-.2-.3-.6-.3-1.6.6L12 7l.2-.1.6-.3.3-.2.1-.4v-.3l-.3-.1-.4-.3V5H12v-.4l.1-.1-.4-.1-.2-.1-.2-.2-.1-.1-.1-.3-.2-.2H10.2l-.4-.2-.4-.3-.1-.1-.2-.3-.2-.1-.3-.3-.3-.1-.6-.2-.2-.3V.7L7.3.3 7.2.2 7 .4l-.2.4-.1.3-.4 1.3-.2.4L6 3v.4l.1.2.2.1.1-.1V3l.1-.1h.2l.4.2 1 .2.5.2.3.4.3 1.1v.5H8.4L8 5.3l-.1.1-.1.2-.1.2-.9.5-.3.2-.2.4-.1.3V8l-.1.3-.3.2-1 .4h-.5l-.2.1v.2l-.2.1-.1.2-.6.3-.2.3-.2.6v.5l.1.1.1.1V12l-.5.4-.4.6-.3 1.2-.1.1h-.1v1l.2.3v.4l.3.3v.2l.2.4.2.2H3l.4-.2.3-.1.8-.3.6.3 1 1.3 1.4.9.5.5v1.2l.3.3.7.3.1.4.5.4.2.3.1.2H11l.3.2.6.4.4.1h.2l.2-.2.1-.2.2-.2h.7v-.4l.5.2.2.2.2.2.2.2.2.3v.4l-.3.7v.1l.2.2V25l.1.2.5.6.3.1h.3l.1.1.3.4H18v.1l.1.2v.2l-.1.2-.7.5-.2.2v.7l-.3.1.2.4h-.4l-1.3-.4v-.1H14.8l-.2.1-.1.5h-1.2l-1.1-.4-.6-.1H11l-.2.2-.1.1h-.4l-.5-.1-.5-.2-.3-.1-.7.1-.1.3v1.1L8 31.4l-.2.6-.5.5v.6l-.2.4-.7.8-.3.6-.1.1h-.4l-.7-.2h-.2v-.4l-.2-.3-.3-.4-.2-.2h-.4l-.3.1-1 .5.2.2v.2l.3.6v.4l-.1.3-.3.2-.2.4H2v.6l-.2.2h-.4l-.1 1-.3.3-.1.3-.1.6.3.1.3.2.2.4.3.2v1.2l.1.2.2.2.2.2v.2h.5L7.5 45l1.4 1 .4.1h1.1l1 .4h.3l.3-.5.2-.4h.4l.6.4.4.6v.8h.1v.4h.1v.2l-.3.3v.2l-.3.1-.4.2-.2.1-.1.3v1.6l.4.3v.3h.4v.2l-.2.3-.2.4.2.2v.4l.1.4v.4l-.2.2-.7.7-.2.2H11l-.3.2v.8l-.1.2-.3.4v.7l.1.2L10 59v.2h.4l.1.2v.2l-.1.2.2.3h.7l.2.3.5.8.3.3.5.4h.2l.2.6h.3l.2-.4.2-.2.3.2v.4l-1 2.3-.4.7-.2.4v.4l.2.4.3.2 1.2.4H14.6l.1-.2h.2l.2-.1h.3l1.3.5h.8v.5l-.2.2-.5.4-1 1-.2.6v1l-.2.5V72.3l.4.4.2.3.4 1 .2.2.5.2.2.2v1l-.1.2-.2.3-.2.3-.2.2v.4l.3.6v.2l.1.4.3.4.1.5.1.6-.1.4-.4.3.6.2.2.2.1.7.4.7v.7l-.1.2v.4l.1 1 .1.3.3.5-.2.2.1.4.8 1 .2.3v.4l.1.5-.3.3V90l.4.6.1.4v.4l-.1.8-.1.4v.3l.5 1.6v.1l.3.2.3.2h.3l.2-.2.1-.2h.2v.2l.1.2.6 1.6v.2l-.2.1-.1.4v.3l.4.2h.4l.3-.2.3-.2.3-.2-.4-.2v-.2l.2-.7.1-.5-.2-.7v-.5h.1l.1.2h.1l.1-.1.3-.7.1-.2.2-.3.3-.3v-.7l-.1-.3v-.5h.2v.3l.4.7v.8l-.2.6-.1.4v1.6l.5.5h.2l.7-.5.2-.4.2-.3v-1.5l.2-.4.2-.2.2-.2.2-.2.2-1v-.1l-.2-.2-.2-.5v-.2l-.1-.1-.1-.2v-.1h.3v-.1l.2-.5v-.5l-.2-.2v-.2l-.1-.2v-.2H27v.3l-.1.3h-.1l-.2-2.5.2-1.2.3.4v.4l-.1.8v.4l.9 2v.2l-.2.4V91.3l.4-.2.1-.3.2-1.2v-.2l.2-.4V88.2l-.1-.3-.4-.6V87l.2-.3.3-.3.1-.2-.1-.4v-.2l.3-.2.2-.5.2-.3.2-.1-.2.3-.1.4v.4l-.1.4-.1.3-.6.8v.2l.3.3.2.4.1.4.1.4-.1.4-.4.8-.1.4-.2 1 .1 1.5v.3l-.2.3-.3.4-.2.2v.5l.2.8v.3l.5.8.4.2.3-.3v-.2l-.2-.5v-.1H30l.4.2.4-.3.2-.4-.1-.2-.4-.2-.4-.4-.4-.5-.2-.3.5-1 .3.3v.2l-.2.3v.2l.1.2.1.2.2.2h.3l.4.1h.5l.3-.2h.2v.2H32.9l.1-.2h.1v-.1l.1-.2.5-.4h.4l.1-.1.2-.3-.1-.3-.2-.2-.2-.3-.2-.4v-1.4l-.3-.3-.3-.2-.4-.2.4-.1h.3l.2.1.3-.2.2-.2v-1l-.2-1.3-.2-.7-.2-.4.7-1.4.1-.5v-.3l-.2-.3v-.4l.5.4.4.1.1-.3.1-.3.2-.3.7-.7.5-.3-.2.2-.2.2v.2l-.1.3-1.5 2.1-.4.9V86.3l.1.2.3.4v.7l.2.8v1.4l.1.2.2.4v.2l.1.4.3.3.3.2.3-.3V90l.6-.4.1-.2.3-1 .2-.3.5-.2-.1.2-.2.2h-.2l-.1.2-.1.3v1.1l-.2.1-.1.1-.2.2-.2.2v.6l.5.2h.4l.1-.1V91l.3-.4.2-.4V90l1.2-1.2.3-.1.4-.1.3-.2.2-.4.3-.9v1.1l-.3.4-.4.3h-.1l-.1-.1h-.4v.1l-.2.2v.2l-.8.6-.2.3v.5l-.2.3-.1.2-.2.2h-.2l-.2.2-.2.5v1l-.2.5h.2l.3.2H37.5l.2-.3h.2l.2-.2.3-.8.2-.2-.1.2V93l-.2.2-.1.2.1.2H38l-.1.2v.3l.4.2h.3l.6.3.4.1h.4l.2-.2 1-.9.2-.2.1-.4.2-.7v-.8l.1-.3.4-.7v-.4h.1l.2-.3.4-.5v-.2l.1-.2v-.6l.1-.2h.2l.1-.3v-.1l.2-.1.1-.2V87.2h-.1l-.1-.1-.2-.2v-.2l.2-.9-.1-.4h.3v1.2l.2.5-.1.5-.4 1-.1.4v.1l.3.2.3.1.3.1h.2l.2-.3.5-1V88l.1-.3.1-.1.2-.2.5-.3h.3l.4-.7.6-1.5.1-.8v-.8l-.4-.7-.2-.3v-.5h.1l.3.2-.3-.7-.2-.6-.3-.6-.7-.4h-.6l-.3.1-.2.3v.9l-.2.1-.1.1v.2-.3l.1-1 .1-.3.2-.1h.4l.2-.2.2-.2V78.5l-.3-.7v-.6L45 77l-.2-.2-.3-.3h-.3l-.2.3-.3-.2-.5-.2-.3-.2.4-.2.2.2h.2l.1-.3-.3-.3.5-.1.2-.6.2-.6.4-.4h.7l.3-.1.1-.2v-.1l-.3-.2h-.1l-.1-.1v-.4h-.1l-.4-.5-.3-.6-.2-.6-.1-.6v-.3H45.3l.4-.1.2-.2.2-.2.2-.2h.2v.1l-.2.1-.1.2v.2h.3l.6-.8v-1.6l-.1-.4.1.2.2.2v.1-.7l-.1-.3-.5-.8-.2-.1-1.2-.2h-.2l-.5-.3-.6-.1-.2-.2v-.3l-.2-.2-.3-.2-2.4-1.4-.1-.2v-.3l.6.4.7.3 3.5.7.6.2v-.3l.2-.3.1-.3.1-.1.1-.2V61l-.2-.1h-.7l-.2-.1-.3-.1-.3-.2-.1-.3.4.3h1.1V60l.6-.3h.3l.1.2h.1v-.1l.2.1-.5.2-.3.5v.5l.2.8h.1l.3-.1.4-.2.4-.2h.2l.3.2.1-.4-.3-.2-.2-.2.4-.1h.2v.1l.2.3v.7l-.5.2h-1l-.5.3-.1.5v1.5l.2.6.3.4.4-.2v.1h.1l-.1.2v.3l.3.6h-.1v.7l-.3.4-.1.4v.8l-.2 1.2v.5l.2.5 1.4 1.9v.2l.1.4.2.4.1.3.2.3.1.7.2.5v.2l.1.1.3.4v.3l.2.1.2.1.1.1.2.7.1.1h.8v.6l.4.4v.1l.1.2.5.4.1.2.3.2h1.1l.4-.2v-.4l-.1-.5-.3-.6-.3-.3h.3l.2.1.2.6.2.4.1.2.2.2.3.2h2.7l.2-.2.1-.2.2-.3v-.2l-.2-.4-.4-.2-1-.3v-.1h.3l.2-.1-.1-.3-.3-.2h1.2v.4h.1l.6.2h.3l.3-.1.2-.2V77l-.4-.2-.3-.1h1l.3-.1.1-.2v-.2h-.4V76h.7l.3.2.2.2v-.9l.3-.3.4-.1.2-.3.3-1v-.3h.2v.4l-.3.9-.1.5-.2.3V76.2l.2.1h.1l.2.3.2.3.4.3.5.2 2.3 3.2 1.2 2.4.2.7.4 2.2.2.5h.4l.3-.2v-.4l-.1-.1-.3-.1-.1-.2V85l.5-.2.4-.2.2-.2.2-.2.2-.1v-.2l.1-.7v-.3h.4l-.4 1.3-.2.4-.4.2-.5.1-.3.3v.4l.2.1.2.1.2.2v.3l-.1.2-.2.1-.1.2-.1.3v.5l.1.5.2.4.2.3v-.4l.2-.2h.2v.2l-.2-.1v.7l.5 2V91.6l.3.3v.2l.2.8v.4l.1.2.2-.2h.1l.2-.2h.2v.1l-.3.2-.2.1v.4l-.2.2-.2.4v.4l.1.2h.3l.3-.2h.9l-.4.2-.2.3.2.2.3-.2-.2.4h-.2l-.2.1v.7l.2.3h.2v-.4h.2v.3l-.1.3v.5h.4l.2-.3.2-.6h-.1v-.1l.1-.2v.7l.2.2v.6l-.3.4v.3l-.1.3-.3.2-.1.2v.8l.3.3.2.2h-.4l-.2.1-.3.4-.1.3h-.1v-.1h-.1v.3l.1.4.2.2.2.1.2.2 1 1.8v.4l.1.5-.1 1.2v.4l.1.3.8 1 .2.3.3.5.2.3 1 .8v.2l.3 1.2 1.3 2.2.4 1 .1.2h.1l.1.2H78.3v-.5l-.2-.2-.3-1v-.4l-.1-.2-.6-.8-.1-.7-.1-.7v-.8l.1-.8-.7-.6-.1-.3-.1-.3-.5-.4v-.2l-.2-.4v-.3l.2-.5v-.4l-.1-.8v-.7l.6-.7.2-.8.2-.4H77.4l.7-.9.5.2.3.3v.7l.2.3.2.2h.2l.4.2H81.7l.3.8.2.8.1.4.2.2h.4l.4-.3.4-.3.1-.3v-.4zM57.4 84.9l-.1-.5-.2-.5-.1-.5v-.1l-.6-1V82h-.1l-.3-.3v-.8h-.3l-.1.4v.6l.1.3-.1.2v.5l-.1.7v1.3l-.3 1.9.1.5v.3l-.3 1h-.1l-.1.3-.1.2v.2h.3V89h.2l.4-.2.2-.3.2-.3.2-.2.6-.3.3-.1v-.2l.1-.4.3-.8v-.8l-.1-.7zm5.2-5.6l-.1-.1-.4-.3v.1l-.1.1v.1l.1.2v.1H62l-.3 1.5-.1.7.3.8.7 1.2.4.5.6.1 1-.8-.5-1.5-1.5-2.7zm-11.2 1.7l-.4-.3-.2-.2v-.2l-.3-.4-.1-.3-.2-.4v-.2H50l-.3-.2h-.2l-.4-.6-.3-.7-.3-1.5-.2-.1h-1l-.3.2-.2.1-.1.2-.4 1.6v1.4l.3.1 1 .7.3.3.2.4.2 1.2.2.4v.7l.2.6-.1.3v1.1l-.1.4-.1.3-.7 1.7-.2.7.2.4-.3.4-.2.6v.9h.3l1-1.5-.2.5-.3.6-.2.6.1.4h.4l.3-.2h.1l.5-.9h.2l.4-.5v.2h.1l.3-.2 1-1.5.1-.5.7-4.7V82l-.1-.6-.5-.6zm18.5 13.5l.3-.5v-.6l-.2-.7v-.2l-.1-.1-.5.5v.2l-.2.3.2 1L69 96l.1.4.2-.2.4-1 .1-.7zm1.8 5.7v-.4l.2-.8V97.7l-.7-1.2-.1-1v-.3h-.3l-.3.1.1.4v1l-.4.3v-.2l.2-.3.1-.3v-.3l-.3-.2H70l-.2.2-.2.4v.7l.3 1.2v1.5l-.2.4V100.7l.2.2H70.5v-.2l-.1-.1v-.1H71.6l.1-.4zm-14-17.9l-.1-.1-.2-.1v.8l.1.4.3.1.2-.1v-.7l-.2-.3zm-3.6 3.3v-1.1L54 84l-.1-.1-.2.3-.1.4-.1 1-.1.2-.2.3v.3h.2l.7-1zm-.7 1.4l-.2.1V87l-.2.4-.2.6v.5l.2.3h.4v-1.8zm.6-1l-.1.5v1l.2-.2v-.4l.1-.4v-.3L54 86zm-8.1-13.3h.7l.1-.1.1-.1h.3l.1.1.2.4.2.2h.1l.6.1-.1-.2-.1-.2-.2-.1-.2-.2h.6l-.4-.4-.7-.8-.4-.4h-.4l-.6.6-.4.6.3.4h.2zm-.4-2.3h-1v.4l.2.8.2-.1.4-.5.3-.3v-.1l-.1-.2zm.5-5.5l-.9-.4-.6-.3H44v.2l.2.3.5.6.3.2.4.1.3-.2.1-.2.4.2.6.4-.1-.4-.7-.5zm1.2 11l.4-.2.6-.2h.3l.1-.2.1-.4v-.4l-.2-.1H48l-.5-.3H46l-.1.2h-1.2l-.1.3v1.4l-.2.2.5.2.2.1v.4l.2.5.1.2h.4l.2-.4.1-1v-.3h1zm.2 6.6v-.1h-.2l-.1.1v.3H47.4l.1.4.2.8.1.3h-.1V84.8l.1.2.1-.3v-1.1.1l.3.4v-.5l-.3-.5-.2-.5-.3-.2zm.7.2l.2-.1V81.9l-.1-.2H48l-.2 1h.1l.1-.1zm-1 9.1H47v-.5l-1.2.9h-.1l-.1.2v.5l-.1.1.1.1v.1l.2.2h-.1l-.2.1h-.2v.2h.4l.3-.2.3-.5.2-.3h.2l.2-.4h.3l-.1-.4zm-1-2l-.7.6v.7H46l.4-.5.1-.7.1-.7.2-.6.1.2V89l.4-1.2H47l-.2.3-.1.2h-.2l-.5.5-.2.2-.4.1-.2.3v.4l-.1.5h.1l.1-.2.8-.5v.2zm-2 .5L44 90l-.2.2-.1.2v1l-.1.3-.1.2-.1.3v.3l.1.3h.6l.4-.5.4-.3.1-.6-.2-.5-.7-.7zM43 91l-.3.3-.4.8-.2.4V94l.2-.1.1-.2.5-1.5.4-.8V91H43zm.1-.6l.2-.5H43l-.3.5-.2.6-.1.4h.1l.1-.4.5-.6zm-22.7 4.7L20 95l-.2-.6-.2-1.3v-.3l-.1-.1-.2-.1h-.2v.1l.1.4v.3l.3.6v.4l-.2.4v.2l.8 1 .6.3.2-.3-.1-.5-.4-.3z" fill="#7F807C" fill-rule="evenodd"/></svg>