<?xml version="1.0" encoding="UTF-8"?>
<svg xmlns="http://www.w3.org/2000/svg" viewBox="0 0 720 540">

    <path d="m489.84,247.48l-2.53-7.24-1.76-2.69-1.88,1.61,1.67,1.57.52,3.8-.14,9.13.33-.77.39-.6.57-.43.86-.25.05.5-.05,1.55h1.03l-.03-3.57.26-1.48.7-1.12Zm-40.75-23.69l-1.41-1.99-2.8-2.06-2.23-.85-1.02.64-.02.89.46.42.52.76.86,1.05,1.3.58,1.21-.16.2.67.2,3.13.28,1.25,1.04.11.63-1.36.04-.91.42-.68.33-1.49Zm40.12-7.74l-2.15-.5-1.81-.05-1.51,4.09-.08.96,1.15.14,1.39-.76,1.67-1.43,1.26,1.92-.27,3.17-1.17,2.96-1.44,1.31-1.9-.26-2.23-.9-1.53.13-3.09,3.09-2.62,1.85-1.93,1.71-1.2,2.39-.72,7.23-1.39,5.33-.36,3.2-.21.54-.07.52-.19.5-.56.5,2.15,2.06.14-2.13.69-1.88.77-1.53.37-1.1.93-6.73,1.07-3.67,1.74-1.83,1.9-1.41,1.55-2.45,3,2.24,2.18-1.36,1.53-2.57,1.99-2.58,3.12-5.88.61-2.29-.92-3-1.85-1.49Zm-39.48-13.37l-2.08-1.68,1.93,8.35,1.33,3.57.76,1.46h1.03l-1.49-8.02-1.48-3.67Zm-2.53-10.73l1.39-4.89-1.75.75-8.56,5.61-3.16,1.4-.83.89-.22.46.02.71,4.89-.42,4.69-1.51,3.53-3.01Zm-20.83,26.29l-1.44-1.25-1.12-2.28-5.37-2.62-1.83-1.84-.66-3.61.69-3.23,1.59-2.76,3.9-4.47,1.2-2.52,3.67-12.46,1.83-12.52-.91-3.89,6.23-11.74.02-.05,2.58-1.68,5.66-13.84.49-2.36,2.12-3.61.48-2.36,1.2-13.81-1.22-17.83-.5-.82-1.46.26-1.54.64-1.23.83-1.14,1.8-1.31.53-1.08-.36.04-1.64.67-.65,3.44-1.41,2.99-2.2.83-1.39.29-2.11-.77-.56-1.78.23-5.22,1.53-4.55,3.02-3.2.47-1.98-.6-4.37-2.05-3.37-.44-2.5.44-2.37,1.07-5,3.43-2.53,2.73-1.34.91-1.16.07-.43-.68.82-1.33,3.45-4.17,1.4-2.33.85-2.19-7.22,3.12-2.13-.12-1.72-2.36,1.1-2.17,11.68-8.04,2.96-3.69-2.59-2.27v-.55h-.01s-.96-.16-.96-.16l-9.33.08-1.15.31-.88.47-.88.14-1.15-.66-1.45-1.34-.78-.27-1.02.26-1.64.78-3.01,1.04-1.33.17-1.56-.41-1.39-.74-1.51-.16h-.02s-1.33,1-1.33,1l-3.32,2.46-.65.63-.49.48-.79,1.64-.81,4.55-1.36,3.62-.59,3.82-.52,1.72-1.86,2.83-4.66,5.13-1.46,2.42-.57,2.56-.25,2.39-.14.55-.43,1.74-1.52,2.27h0s-1.79,1.31-1.79,1.31l-4.4,2.01h-.01s-.97.7-.97.7l-3.31,2.34h0s.55.43.55.43l.52,2.1-.51,1.69-3.75,6.02-.41,1.5-.46,3.41-.47,1.62-1.47,2.23h0s-1.79,1.3-1.79,1.3l-2.06,1.14-.02.02-.05.04-2.17,1.74h0s-.72,1.37-.72,1.37l-2.15,5.89h0s-1.41,1.59-1.41,1.59l-7.7,5.53h0s-.66,1.08-.66,1.08l-.68,3.34-.9,1.21h0s-1.35.37-1.35.37l-6.04-3.39-1.93-1.42-2.06-4.23-1.43-.32-1.71.35-1.8-.18-2.53-1.87-2.25-2.41-2.48-2.15-3.23-1.07-12.52,4.35v.02s-3.23,4.39-3.23,4.39l-1.12,5.97.14,13.12h0s-.36,9.03-.36,9.03l-2.79,70.37-5.46,137.77-2.78,70.29-.06,1.48-.02.46h0s1.25,1.99,1.25,1.99l.34-.49,1.42-.7,1.76-.56,1.36-.07,2.76-1.12,11.54.52,4.29-.71,4.83-.03,13.33,3.33,5.83-2.12h0s.55-3.54.55-3.54l-3.15-6.28.54-3.74,1.7-2.06,2.52-2,2.6-1.51,3.93-1.12.42-1.29-.11-1.67.35-1.67.67-.94.74-.78,1.67-1.37,1.46-.81,1.29-.5.93-.75.66-2.62.74-1.17.9-.95.76-.39,2.63-.47,2.13-1.4,1.43-2.29.55-3.13-.33-5.84.63-2.36,2.13-.96,2.01-.26,1.08-.61.71-.71.88-.56,5.08-.69,1.09-.34.43-1.03-.06-2.65.19-.54.53-.16,1.26-.24,1.27.11.58.84.94,1.95,2.08,1.26,2.12-.49,1.04-3.28h1.03v6.27l.71-2.4.32-.59.69-.36,1.82-.4.67-.36.41-.09,1.24.19.42-.09.1-.44-.21-1.27.11-.44.42-.72.62-1.98.46-.8,3.96-5.02,1.18-.64.59-.73,1.93-4.5.6-.75.19-.38.3-.32.97-.62v.27s.5.25.5.25h.8s.86-.52.86-.52l-.06-.73.27-3.59.3-.83,2.83-1.25,3.08-5.97,2.83-2.04-.54-1.07-.42-.83.27-1.81,1.13-1.52,1.61-1.04v-.94l-1.58.05-.8-.16-.38-.63-.32-1.32,1.39.58.93.14.8-.22,1.01-.49-2.09-.97-1-.16,3.27-3.68,4.07-9.87,3.97-1.97-.96,1.52-2.54,2.59-4.73,17.13.46,2.34,1.02-.09,1.07-1.33.63-1.38-1.01-3.8.53-2.66.82-1.88,1.73-6.16,1.5-1.91,1.32-1.31.93-1.64,1.38-10.67-.16-1.48-.71-2.37-.16-1.81.33-1.57.74-1.02.74-.75.33-.73.31-1.36.77-.92,1.91-1.46.63-.11,1.99.26.56-.15.14-.87-.39-.69-.52-.4h-.26s-.59-2.61-.59-2.61l-2.94-4.45-.68-2.77.74-2.42,1.74-2.62,2.05-2.29,1.65-1.47,1.5-.51,1.33.02.94-.38.36-1.75-.87-3.68-.38-4.77-.72-3.27-1.25-2.92-1.83-2.29-3.22-1.04-1.42-.78-.59-1.88-.79-3.47-.12-1.33-.03-.3-.58-2.88-1.06-3.17.53-5.92.16-3.16,1.46-15.29,6.24-19.95.38-2.34,1.75-1.35,3.86.56,3.88.03,1.83-2.93-1.42-1.24-6.31-1.06Zm37.34-82.24l1.22-1.03.33-1.57-.45-.43-.86.35-.46.03-.76.49-1.09,1.48.44.95,1.62-.27Zm2.51-2.28l.53.1,1.25-.9.87-1.56-.11-1.62-.36-.61-.24.22-.29.56-.27.83-.79.66-.78.41-.25.53.24.6.2.77Zm5.88,15.89l1.19-6.51h-.93l-.22,1.33-.34.91-1.41,1.97-1.12-2.15v-1.03l1.27-.61.87-.8.57-1.13.37-1.58,1.02.45,1.04.68,1.46-2.72,3.08-8.11,1.11-1.71,1.99-1.76.25-3.35-1.51-2.06-3.31,2.11-2.37-.97-1.48,1.35-2.23,7.93-.09,1.47-.33,1.18-.71.71-.71.54-.32.66-2.78,9.42-.64,4.68,2.39-.12-.78,3.88-1.96,2.64-5.49,3.77-.5.05-1.56-.05v1.03l6.51-1.71,4.71-4.4,2.93-6Zm-17.33-7.32l-.35,2.65,1.23-2.4-.88-.25Zm-3.52,27.72l1.25-.52-1.65-.26-2.35-.19.94,1.25,1.81-.28Zm1.85,20.37l-.84,2.4-.09,2.48.93-2.15v-2.73Zm-8.08,78.68v1.29l.35-.05-.02-.31.83-.61.52-1-1.03-.61-.66,1.29Zm87.54,1.67l.6.19.28-.29-.69-.44-.2.54Zm-78.55,25.78l.4.87.38.1-.37-1.61-.4.63Zm-3.65,4.6l.29.22,1.88-.75-1.22-.21-.95.74Zm-5.08,15.4l.31,1.05.72-1.4-.93.39-.11-.04Zm-.56-.64l.35.56.21.08-.77-2.61.21,1.97Zm-1.91,8.25l.52.73.15.44.33-.02-.48-2.08-.52.93Zm46.8,14.95l1.29-.45.87-1.48-1.43.84-.73,1.09Zm-56.35,7.68l.17.57.09.66.43.47-.14-2.06-.55.37Zm-17.24,23.3l-.72,1.18.34.12.5-.24,1.62-.19-.43-.79-1.31-.08Zm36.8,12.75l.49-.07-.23-.49-.25.56Zm-22.25,32.76l.05-.14-.2-.41.14.55Zm-10.23,16.79l.38.39.04-.09-.03-.49-.39.2Zm-10.04-7.78l-.02-.11-.29.13.16.23h.01s.06.08.06.08l.19-.09-.04-.26-.06.03Zm21.06-209.23h-.31l.19.86.21,1.12.07.74.18-.25.33-.09.66-.59.07-.79-.49-.93-.9-.08Zm105.02,14.41l-1.6-.24-1.28,1.04.03.87,2.21.97.76-.38.49-1.03-.61-1.22Zm-90.62,85.27l.21.76.7-1.83.05-1.92-1.04,1.19.08,1.81Zm10.31-136.14l-.75.09-.76,1.39-.14,1.75-.28,1.4.75.65.09,1.02-.63.84-.67-.27-.58,1.45.28.82,2.3-2.45-.47-2.59.23-2.71.62-1.41Zm66.3,92.3l-.19,2.36.61-1.65,1.64-1.84.09-.94-1.13-.7-1.03,2.76Zm-67.65,13.56l-.23-.72-2.53.24-.92,2.33,1.03-.68,1.63-.07.62.07.4-1.17Zm-100.29,133.82l-.02-.55-1.11,1.31-.09.75-.71.35.42.56.65.58.53-.72.28-.55.78-.68-1.04-.76.29-.3Zm81.76-199.69l-.93.12.28,1.32.63.87.97.91.47-2.06-.26-.44-1.16-.72Zm13.62,19.37l-1.12.79.16,1,1.05,1.5,1.13-1.14-1.22-2.14Zm-3.19,14.74l-.47,1.5-.09,2.87.37,1.17.19-.14.89-1.43.36-2.6-.77-1.62-.49.26Zm-13.24-40.21l-.28-1.19-.73.78-.94,1.74.07,1.14.85-.65.7-1.25.33-.57Z"/>
</svg>