<svg width="123" height="116"><path d="M30.4 40.5l-1-.3-1.2-.2h-.3l-.7.2.5 1 .3.3.6.2H30l.5-.1.5-.2v-.2h-.7L30 41l-.4-.1h-.1l-.4-.2h1.3v-.2zm91.8 19.3l-.6-.4-.9-1.3-.7-.4h-1.6l-.9-.1-2.4-.9-.6-.4-.3-.7-.2-1.4-.2-.6-1 .3-1.5-1.5-2.1-2.8-.5-.3-1.7-2.5-.5-.5-.3-.5v-.6l-.1-.6-.2-.3-1-.2-.3-.2-.9.5-1.4-1.4-2.3-2.8-.5-.4-7-9-2.6-4.2-2.2-5.2-1.7-4.8-.2.5-.2.8-.1.5-.1-.3-.1-.3v-.2l.2-.2-.5.3-.3.3-.4.2-.6.2 1-1 .2-1.1-.7-2.9 1 2.3.5.7.1-1.2-.6-1.8-1-1.6-.7-.9h-.7l-.3.1v2l.4 1.3-.1 1-1.3.6-2.3.5H79l-2.4 1-.8.8-.1.1-1-.2-.3.1-.5.4H73.2l-.2-.1-2.2-1.7-.1-.7-.4-.2h-.5l-.2.3-.3.2-.6-.2-.9.6-.4-.4H67l-.4.3-.4-.2-.7-.6h-1.5l-.5.2-.1-.2-.8-.6-.1-.2-.2-.1v-.2l.1-.3h.2l.5-.4-.2-.8-.3-.3-.3-.2-.7-.4-.3-.3-.4-.3-1.7-.6-.3-.4-.2-.2-.4-.6-.2-.3v-.8l-.1-.3-.4-.2-.1.1-.2.1-2 1.3-.3.1h-.4l-.4-.2h-.1l-.2-.2-.3-.2-.8-1-.2-.1-.2-.1-.1-.1h-.2l-1.8-.8-.9-.3h-1.4l-1.4-1-.6-.3L45 6 38.5 10l-.8.3h-.8L30.4 8l-4.6-1.7-4-1.5-5.8-2-.6-.4-.6-.3-.5-.5-.5-.4-1-.6-1.3.5-1 1.4-.7 1.4L9 5.3l.3.1.4.4.4.5.1.5-.4.4H9L8.7 7l-.3-.2-.6.5-.2.2h-.2v.1l.3.3.2.2.7.3.2.1.3.5.1.4-.1.4-.5.2v.3l.1.2v.4l-.3.1h-.3l-.3-.3-.2-.2h-.8l-.7.1-.4.3.4.4v.2l-.3.3h-.2l-.5-.5H5l-.1-.1v-.3l.1-.3-.2-.3-.4-.1H2.6v.3h.3l.2.2.1.1.1.2-.8.1-1.6.7-.8.2v.3l1.4.2 1 .4.8.5 1 .4h.3l.7-.1h.3l.2.3-.1.2-.2.1h-.2l.3.3 1 .8h.2l.6-.4 1.2.2 1.2.5.5.7.2 2.3-.1 1.3-.6.5v.2h.2v.2l-.4.2v.4-.1h.1V21l.3.3h-.3l-.2.3-.5.4v.2h.2V22.7l1.6-1.5.4.3.2.3.1.3-1 1.1h-.6l-.4.5-.2.1-.2.2-.1.2v.5h-.7l-.8.3-.7.3-.5-.4h-.2l-.3.7-.3.2-.4.1v.3h.5v.2h-.2v.1l-.3.2.4.3.5.7.3.7-.8.5-.2.6-.4.4-.6-.3-.3.6-.4.7-.6.5-.3.3.5.3.8 1v.3l-.2.3-.5.5.3.5.1.6.1 1 1.4 3.4.5.7.3 1 .2.4L9.9 46l.4.9-.3.7.4.4h.2l.3-.2h.4l.3.1.1.2.3.1 1 .2 2 .6.2-.1h.4l.2.2v.1H16.1l.4.2.5.3H17.6l.5-.4h.4l3.9 1.3 1.2.7.8 1v.5l.1.3 1 .4.3.2.1.2.2.4 3 4.1 1 2h.3l.4-.5.4-.6.8-2.5.1-.3.9-.4.1-.2h.2l1.2-.6v-.2l-.5-.7-.1-.3.2-.5h.6l1.2.6.1-.2.2-.7.2-.3.8-.5.1-.1.3-.6.5-.4.7-.3.5-.3v-.2h-1.9l-.6-.3.5-.5.2-.2h.3l-.4-.5-.5-.6V48l.7-.2v-.2l-.4-.4-1-.6-.3-.3-.7.3h-.7l-.6-.2-1.4-.8-.6-.3-.3.1-.2-.1-2.2-1-.9-.6-.6-.6v-.3l.2.2h1V43h-.7l-.5-.9-.4-.4-1.1-.4-.4-.4-.1-.5.5-.3-.5-.7-.2-1v-1.7l-.3-.9-1-.7-.3-.8 1.6 1.1.6.8-.2.6v.3l1 1 .5.3.6.2h2.5l.6-.3.5.5h.2l.1.1v.3l-.3.4.4.2h.2l.1-.2h.4l.4.4.8.4 1.5 1.3.6.4-.2.1.3.4.5.3h.2l.2.2 1 1 1 .4.9.3 1 .2h1.2v.3h-1.9l-.4.2v.3l3.2-.4 1 .4-.1.5.1.3 1 .8-.6.8v.6l.5.2.4.3 1.5 2.2.6.5.2.4.2.4-.2.6-.2.4-.3.3-.2.6-.6.6-.3.4v.3l.2.4v.4l-.2.4h.6l.1.2v.8l.5.2.4.2.3.2.1.5.3.5 1.3 1 .6.4v-.3H50l-.1-.2h.5l.2.4.1.4.4.4h1l.5-.2H54l4.8 1.4h.9l1 .2 1.4 1h1l-.5-.3h-.2l-.3-.1v-.3l.9.3 1 .9.4 1-.4.6h.7l.3.4.3.3.5-.3.1.3.2.2h.2l.2-.2h.3l3.4 1.4.5.3 2.8 1.3 2.8 2.7.8.2 1.1.6.8.8v.9l1.4.3 1 1 .7 1.1.8 1 .3-.2.5.7.2.3 1 2.5-.4.3-.2.3-.2.3-.2.4h.1l.3.2v.2l-.4.3h.4l.2.1.2.2.2.2.5.2.3.3.2.2h-.4l-.4-.1-.7-.4.1.7.4.3.5.3.2.3-.1.4-.5.3-.9.5-.5.6-.1.6.1.3.4-.2.4-.4.3-.2H86v.3l-.9.2-1 .5-.5.7.4.5-.2.3-.9 1.3-.3.3v-.3H82l-.6.4-.3.3-1 1.7v1.1l.3.2.7.3h.2l.2.3 3.1 3 .9 1 .5.6.5.2h.6l2.2-.2h.8l2 1v-.5l.4.2.3.2.7.3H93l-.2-.1-.1-.1h-.3l.6.5 1.3.6 1.3.4h.8l.4-1 .1-1.3-.2-1.2-.5-.8v-.2l.2-.3v-1.3l-.4.3-.5-.3-.5-.6-.5-.3H94l-1.3-.5-.5-.2-.3-.4-.8-1.1-.1-.6-1.3-2h-.2v.1l-.3.2.2-.7.5-.2 1.2.2.5-.1.1-.2v-.3l.2-.2h.4l.2.2h.2l.2-.4.6.2.8.2.5.3-.1.5h.5l-.3.8.4.6 1.1.6.5-.2.5.2.5.5.2.5.6-.1h1.4l.3-.4h.2l.3.4.4.5.6.4.5.2v.3l-1.1.4h-.2v-.6l-.1-.3-.4-.5h-.2v.2h-.2v.3l.7 1.4.2.3.5.2h1.5l-.5.4-.5.1-.3.2v.6l.3.4 1.1 1.4.3.6-.3.6-.4.5-.2.3-.2.1-1 1.3 1.2 1.2 4.5 3.3.9.9 2.4 4.2.1.4-.1.6-.3.6v.6l.4.3.2-.8.2-1.6-1.9-4.2-.2-1.1-.2-.4-.6-.3h-.4l-.4.1h-.2l-.2-.2-.4-.5-.2-.2-1-.6-.3-.3v-.5l.3-.2 1.7-1 1.6-1.5 1-.5 1-.3 1-.5.8-1 .3-1 .1-1.3-.2-2.5-.3-1.1-.4-1-.6-.8L110 91l-.4-.4-.1-.6v-.5l.3-.3 1-.7.4-.4v-.5l-.3-.1-.2-.2.4-.5.4-.3 3.8-1.5 1-.6.5-.8v-.4l-1-1.6-.5-.3-1.6-.6-1.7-1.2-.8-.3-.2-.2-.2-.2-.1-.3-.1-.2-.1-.1-.2-.1h-.3l-.8.3-.3.1-.2-13.7.1-.7.3-.5.7-.2 2-.3.5-.3v-.3h-.1l-.3-.1-.1-.2-.3-1-.4-.8v-.3l.5-.6.6-.5.7-.2 2 .9 1.6 1.2.4.2.2-.2.4.5.5.8.4.4.3.2.7.2.6.1h.5l.2-.5.2-1.4.2-.4.6.1.6.3h.2l-.4-1.4z" fill="none" fill-rule="evenodd"/></svg>