<?xml version="1.0" encoding="UTF-8"?><svg xmlns="http://www.w3.org/2000/svg" viewBox="0 0 131.2 115"><path d="M118.4 96v.2l.1.1h.2l-.2-.3h-.1Zm-1.4-2.6h.2l.3.1v-.1l-.1-.1h-.1V93h-.2V93h.4-.5v.3ZM76.8 60v.2h.1l.2.1v.1h.2l.3-.1v-.4l-.2-.2h.2v-.2l.1-.2.1-.1h.1V59h-.3l-.6.4-.1.1v.5Zm.7 2.5H78l.3-.3.2-.1v-.5l-.1-.2-.4-.1h-.2v.1l-.1.3-.4.7.1.2Zm40.4 32.3v.1h.1v-.1h.4v.2h.2v-.3h.2v-.2l-.8-.3v.1h-.2v.3l.1.2Zm.9.8-.2-.2V95.1h-.2v.2l.1.1.2.2Zm-46.3-45 .5-.2.5.1.4.3.4.4.3.5-.6.2h-.4l-.2-.2H73l-.1-.1v-.1l-.2-.1v-.2l-.1-.1h-.2l.4 1.2.2.3h.7l.6.2h.8l.1-.3h.1l.2.3h.3l.7-.1h.4l.5.3.3.1h.4l.7-.2h.3l.3.2.2-.1V52.1H79.3L79 52l-.4-.2h-.2l-.1-.1V51.4l-.1-.1h-.1l-.1-.1h-.2l-.2-.1H76.8l-.1.3.1.1.3.1.2.1-.2.1-.2.5-.9-.3h-.2V52l-.3-.5v-.2l-.1-.3v-1.5H75.1v.1l.1.1v.1h-.4v-.2l.1-.2v-.2l-.2-.3-.4-.3-.6-.3-.6-.1h-.5l.2.2.1.1h.7l.2.3.1.2v.2H73.2l-.3.2v.3l.2.3v.1H73l-.5-.3h-.2l-.1.2v.6h.2Zm1.5-4.3.4.2.4.1h.3v-.2l-.2-.1-.2-.1-.2-.2v-.2l.3-.2.3-.1V45h-.3l-.2-.1-.5-.4-.1.3v.5h-.4l-.3.1-.1.3v.3l.1.1h.7Zm46.9 51v-.7l-.2-.2-.1-.1-.2-.1-.2-.2V96l-.1-.2-.3-.2-.4-.3v.5h-.1v.4l-.2.3-.2.2-.3.1-.2.2H118.1l.2-.3h-.5l-.4-.2-.3-.3-.2-.4-.2.1-.2.1h-.5v-.1l-.1-.3v-.4l-.1-.3-.3-.6-.1-.9-.2-.2-.1-.2-.2-.1-.3-.2h-.3l-.2-.1-.5-1-.8-.6-.1-.2v-.1l-.1-.1h-.1l-.1-.2v-.2l-.2-.1h-.2v.2l-.2.2-.1.1h-1l-.4-.1-.4-.3V90l-.1-.8-.3-.3-.2-1.8-.1-.4-.2-.2-.1-.1-.2-.3-.1-.5V85l-.1-.4-.3-.2h-.2l-.6-.8-.5-.4h-.4v.1h.5l.2.2.2.2v.4h-.2V84.4l.3.3v.2h-.1v-.2h-.2l-.3-.3-.2-.4v-.2h-.1l-.3-.3h-.6l-.1-.1-.1-.4V83h-.1l-.2-.1v-.3l-.4-.4h-.1l-.1-.3-.6-.4-.1-.3v-.3l-.1-.3-.2-.1-.2-.1-.6-.4h-1.1l-.3-.3-.3-.6H100.8l-.5.2h-.2l-1-.3-.1-.3-.2-.6-.6-1-.2-.4-.3-.2-.5-.3-.2-.2-.1-.1v-.2l-.2-.5v-.3l-.2-.2-.4-.5-.7-.6-.4-.4-.2-.6-.2-.4-.1-.1-.1-.1-.3-.1-.2-.2-.1-.2-.1-.6-.3-.6-.3-.4-.5-.3-.7-.5-.2-.3-.2-.6-.2-.2H91l-1.8-.5h-1l-.4-.1-.5-.4-.5-.2h-.8l-.3-.1v.3l-.2-.1H85.3l-.2.2v-.3l-.1-.2-.4-.3-.1-.2v-.2l.1-.3v-.7h-.2l-.7-.7v-.2l.3.1v-.2l-.5-.1h-.1v.3L83 64v-.2l-.1-.6V63l-.2-.1H82l-.1-.2V62.4l-.4-.2h-.1V62l-.2-.1v.3l.2.2v.1l-.2.1-.1.1h-.2l-.1-.1h-.1l-.2-.1V62.2l-.1-.1h-.5v.4l-.1.1h-.4V62l-.2.3-.2.3-.3.3-.3.2-.4.3h-.2l-.1-.3h-.1l-.2-.2-1.2-.4-.3-.2-.2-.3.1-.3v-.2l-.2-.1V61.2l-.2-.1H75v-1l-.3-.4v-.2l-.1-.1-.4-.3V59l-.1-.1v-.1l.1-.1V58.4h-.4l.3-.6v-.2l.2-.1.3-.2V57l.1-.2v-.2l-.1-.1-.2-.2h-.2l-.1-.1h-.3l-.3-.2-1.4-1.2-.3-.3-.3-.4-.1.1-.2.4-.2.1v-.2l-.2.3v.1h-.1l-.2-.1-.1.1-.1.6H70l-.1.1v2l.2.4.1-.2.1-.2h.3v.2l.3.6.3.6v.3l-.4.5-.1.1-.1.1v.7h-.1l-.4.1h-.4l-.1-.2H69v-.3H69l-.1-.2v-1.4l.2-.8-.1-.2-.1-.2-.1-.3V57h-.1l-.3-.1h-.1l-.8-2.7-.4-.5H67l-.3-.1h-.3l-.1.2-.1.1h-1v-.7l-.3-.4v-.2h.4l.3-.2V52h-.3l-.1.2v.2l-.2-.3.1-.2.2-.2h.3l-.4-.5-.1-.2v-.4l-.1-.2-.2-.2v-.5l.1-.2v-.2l-.1-.1-.6-.3-.1-.1-.1-.2-1-.6-.3-.6-.5-2-.4-.8v-1l-.5-2v-1l-.1-.3v-1.2L61 39l-.1-.1V38H60.5l-.2-.1v-.2h.1l.1-.3-.2-.8.2-.3v-.8l-.4-.7.2.1-.3-1.2-.5-1.2-.1-.2v-.7l-.3-.5-.1-.3v-.6l-.1-.3-.5-1-.1-.5v-.6l-.3-.5-.4-.5-.3-.4.2-.7-.2-.3-.4-1.3-1-1.9-1.1-2.5-1.5-2.2v-.3l-.4-.4V16l-.7-1-.1-.4-.2-.2v-.2l-2.2 1.9-.4.6-1 2.4-.4.7-.3.3-.7.3-.3.3v.6l-.1.3-.3.3H46l-.3-.1-.2-.3-.3-.1-.5.2h-.1v.5l-.2.3-.2.2h-.3V21.8l-.2-.2h-.3l-.4.2-1 .7-.5.6-.3.2-.4.1-.3-.1-.5-.4-.3-.1-.6.3-.6 1.2-.7.3h-.6l-2 .7-.2.1v.2l.2.7v.3l-.1.7-.1.3-.3.6-.1.4-.1.3-.9 1-1.4-.4h-.5l-.7.5h-.7l-.8.1h-.2l-.6-.4h-.5l-.3-.2-.2-.2H27v.4l.3.4v.6l-.4.6v.1l.2.2.2.2V33l-.1 1-.4 1-.2.2-.5.4-.2.2-.1.3v1.1l-.3.6v.3l.1.3.2.3.3.3.2.3V40.9l.4.7v.3l-.1.4-.7.7-.2.4-.5 1.4-.7 2-.8 2-.4.8-.7.8-.2.3-.9 3v.7l.2.7-.5.3-.3.5-.8 2.3-.3.5-1 1-.2.3v.4l.1 1.5.3 2.6.3 2.4.3 2 .2 2 .3 2.9h.3l.1-.3.2-.2h.6l.2-.1.5-.2.3-.1H23.1l.3-.2H25l1 .3.5.1.3.4.2.1v.1h.4l.3-.2h.5l.2-.1.2-.2V73l.1-.4V72l.2-.3.2-.3.5-.4h1.7l.3-.2h.2l.4.3.3.2.5.8.3.3V73.3h.3l.6.6h.1l.1.4v.4l.2.2H35l.2.1.1.2v.5l.2.3.1.2.3.1.2-.1.5-1.4.9-2 1-2.4 1-2.4 1-2.4.6-1.5.3.3.1.2.3.6H42.1v.5l.1.1v.1h.2l.2.2v.2l.1.2h.2l1.6.8h.3l.9-.1h.6l.1.3.2.3v.4l.1.2h.2l.1.2.2.1v.2l.2.6.2.3.2.2.2.2.8.5h.1l.1.4.1.1.2.2h1l1.2-.2.6-.1 1-.5h.5l.3.1h.6l.9-.4.7-.1.2-.2.5-.5.7-.3.3-.2.2-.3v-.8l.3-.2.5.1.5.1h.1l.4.3.3.3.2.3.2.3.5 1.3.3.6h.4l.3-.5.2-.2H63.7L65 70l.6-.3.3-.4.1-.3h.3l.3.2.2.2.3.3.1.1h.1l.8.3h.4l.9-.1h.5l.4.1.5.3.8.7.2.1h.6l.5-.4.3-.1.6.1h.2l.8-.2h.3l1.3.3.7.3.6.4 2.2 2 1 .5 1.6.8.4.1 1.4.2 1 .4 1 .7 1.6 1.8 1.6 1.8 1.2 2.1 1 2 .5.4 2 1.3 2.8 1.7 1.6 1.4 1.1 1 .6.6.6.6.4.8 1.2 2.6.8 1.1 1.2.8 1 .4.8.5.7.6 1 1.7 1.3 1.7.7.8.8-.9h.7l.7.4 2.4 2.1.2-.3.5-.1.3-.3v-.2h.5l.2-.1.1-.5-.1-.5v-.4l.6-.7.4-.8.2-.2h.2l.2.1h.1l3.4-1.4V98l-.4-.8Z" class="cls-1"/></svg>