<svg width="153" height="116"><path d="M44.7 115h-.1l-.3-.2H44l.1.3.2.3.1.2.3.3v-.3l.5-.4.1-.3-.3.2h-.2zM131 35.5l.2-.2 2.2-1 1.5-1H135.3V33l.2-.2h.2v-.2h.1l.1-.2h.5l.4-.2 1.5-1.1.6-.7.8-.5.2-.2.1-.3.3-.5v-.4l-.2-.2V28l-.1-.3-.1-.3v-.7l-.1-.3-.2-.1-.3-.2-.2-.2v-1.2l.2-.3v-.2h1.2l.2.2v-.2h.1l.1-.2V24l.1-.2.3-.5-.3-.2h-.1l-.1.1h-.1l-.1-.2h-.6l-.1-.2-.2-.3v-.7l-.8.1h-.8l-.1-.2h-.1l-.1-.2v-.2h-1.1l-.4.2H135.6l-.1.2-.4.3-.2.1h-1l-.5.4-.1.2.1.2.1.2h-.5l-.5-.1H132.2l-.1.3h-.5l-.3-.1-.2-.2-.1-.2-.1-.3h-.5l-.7-.4h-.1l-.3-.2h-.4l-.7.2h-.7v.1l-.1.2v.1l-.3.2-.2.2-.1.1H126l-.2-.2-.2-.3V22l-.2-.3h-.4l-.3-.1-.6-.5h-.3l-.6-.1-.2-.1v-.1h-.2l-.2.1H122.3l-.2.4-.3.1-.7.1v.1h-.1l-.1.2H120l-.1-.1v-.2l-.3-.5h.2v-.1l.2-.2v-.2l-.2-.2h-.2v-.1l.2-.3-.1-.1V19.4l.1-.1-.2-.2-.1-.6-.2-.3-.2-.3h-.2l-.1-.1v-.2l-.2-.1h-1.4l-.4.1-.3-.1-.1-.2V17l-.2-.2-.2-.2h-.2l-1-.1-.2-.2H114.3l-.2.1-.3-.2-.4-.2-.5-.3H112.3l-.4-.2h-.5l-.2.1v.6l-.2.4.1.2v.1l-.2.2h.2l.1.2.1.2v.3l-.1.1h-3v-.1l-.4-.4-.2.1-.2.2-.3.4h-.1l-.2-.1-.2-.5h-.2l-.6-.2h-.2l-.2.2h-.7l-.8.4h-.4l-.5-.1v-.1l-.2-.2h-.2v-.2l-.1-.1-.2-.2-.2-.2v-.6l-.2.1-.3.1h-.3l-.1-.3-.7-.4-.2-.2v.2l-.1.1h-.1l-.6.3-.3.2H99l-.6-.3H98v.4h-.1l-.2.2h-.2v-.4h-.3V16l-.5-.6-.2-.1-.3-.3H95.9l-.2-.1v-.4l-.2-.5-.3-.1-.8.1h-1l-.3-.2-.4-.3-.2-.1h-.1l-.4-.1-.1-.1-.2-.1h-.5l-.4-.3-.4-.2-.6-.1-.2-.2-.2-.2v-.4l.3-.2h-.5l-.2.3-.1.3v.4l-.1.2H88l-.3-.2-.2-.2v-.4l.5-.6.1-.2.2-.4.1-.6v-.6l-.4-.3h-.4l-.4-.2-.4-.1h-.4v.3l-.1.2h-.6V8.7l-.2-.1-.2-.1h-.5l-.2.2h-.1v-.2l-.1-.2-.1-.2-.4-.2v-.5l.1-.4-.2-.1-.4.2-.4.4-.4.2.1.2h.1l-.2.1-.1-.2-.2-.1H82l-.2.2-.8.3h-.4l-.3.3h-.1v-.2H80v.1h-.2l-.1-.1-.1-.1v-.1h-.2l-.4.1h-.9l-.5-.1-1-.5-.3-.4h-.2l-.5-.2L75 7l-.4-.1h-.1l-.1-.1h-.2V7l-.1.3L74 7l-.1-.4-.1-.1-.2-.2-.3-.2H73l-.3.1h-1.3l-.2.2v.3h-.1l-.5.3-.1.2h-.2v.5l.2.3v.1l-.6-.4-.3-.3-.3.2h-.2l-.5-.2-.2-.3H68l-.5-.2-.7-.1-.5-.2h-.6l-.2-.1-.1.2h-.1l-.1-.2H65l.2-.1.1-.1V6h.2v.1H65.9V6l-.8-.2h-.1l-.2-.2-.1-.1h-.2V5h-.3l-.8.3H63v.2h-.5l-.1.1V6H62.2V6l.1.1v.2h-.1l-.1-.1H62l-.2.2-.2.1H61.3h.1v-.1l-.2-.2.2-.1.2-.2.5-.2-.3-.2H61l-.3.2H60.2l-.4.3v.1l.1.1h-.1l-.1.1-.3-.2h-.1v.2H58.3l-.7.3-.3.2L56 7l-.5-.1h-.1l-.1.2h-.1L55 7h-.6l-.3.2-.3-.3-2.5-.2h-.2l-.9-.5-.8-.2h-.2l-.2-.1H49l-.2.1-.8-.2-.2.1v-.2h-1.3l-.4-.2-.8-.6h-.8V5l-.1.1-.2.1H44l-.1.2v-.1l.1-.2.2-.3v-.2h-3.2l-.1-.3-.1-.1v.2h-.1l-.3-.3-.6-.7-.2-.2-.4-.2H39V3.2H38.2v.2h.1l-.1.2V4H37l-.2.2h-.4l-.1.1-.9-.1h-.1l-.4-.3h-.2v.2h-.3l-.3.2h-.8l-.6.1h-.1l-.3-.2h-.1V4.6h-.4v.1l-.5-.2-.6-.2h-.5l-.6.3h-.3l-.5-.2H26.8l-.6.2-.1.3-.2.1v.3l-.1.2v.3h-.2v-.5l.1-.2.1-.2v-.3h-.1l-.2-.1-.2-.1-.1.1H24l-.3-.1H23.5v.1H23.1v-.2h.1V4l-.5-.3-.7-1-.4-.4-1-.5H20l-.2.1h-.2v.2l-.2.2h-.1v-.2l-.3-.5v-.2h-.2v.1h-.2v.2h-.2v-.2l.2-.3V1l-.1-.1-.1.3-.2.2-.3.1-.4.2h-.2l-.2.3-.2.1v.2h-.5l.3.4H16l.1-.2.1.1h.2V2h.2v.1-.3l-.2-.2v-.3H16l-.2.3-.3.2-.3.2-.3.1H14.4v.4l-.1.1v.2l.2.2h-.1v.2h-.2L14 3l-1.6 1.2-.4.2h-.5V4.6h.1v.4h-.2v.5l-.2.2h.7l.2-.3v.1h.1v.1h-.1.6l.3-.2V5.9H13l-1.2.2-.2.2h.2l.3.4h.7l.3.1-.2.2h-.2v1.4l-.1-.2-.1-.2-.3-.2v-.4l-.2-.1H12l-.3-.3h-.3v.7l-.2.2-.3-.3v-.1l-.1-.2-.6.1v.2H10l-.3.1h-.1v.2l-.1.1-.1.1-.6.3-.4-.2-.4.2-.4.2-.3.1h-.2l-.4-.2h-.4L5.9 8l-.1-.1h-.2l-.1.2H5l-.4.4-.5.2h-.1v.1l.2.1.2.3.1.1h.2l-.2.2h-.8v.1l-.2.2-.1.2-.2.1-.1.1h-.4l-.4-.1-.4.2-.5.5v.2h.2l.4-.1.1.1h.3l.2-.1h-.2v.1h-.2v.1l-.1.1v.1H2l-.2.2h-.2l-.2-.1v.2h-.2l-.1.2v.3l-.2.1H.8v.5h.3v.5l-.1.1v.1l-.3.7v.2l.2.4H1l.1-.4.1-.1h.1l.1-.2h.1v.2h.2V14h.1l.2.2.1.1h.2V15.3l.2.1.2.1v.4h-.1v.1h-.2v.3l.1.2.1.2.2.2H3l.3-.3v-.3h1l.3-.1.1-.2v-.4l.3.2v.4l-.1.2h-.3l-.1.2-.3.4-.3.2h-.2v.1l-.1.1-.2.2v.8l-.2.2-.2.4v.4l.2.2h.2v.6l.3.2.1-.2H4l.1-.1v-.4h.1l.4-.1.1-.2-.1-.2.3-.2.2-.1v.2h.2l.3-.4h-.1v-.3l.1-.4.2.2.1.3.2.2h.4l.1-.2.1-.2.1-.3v.4l-.4.9-.2.2-.2.1-.1.2v1.6h-.5l-.1-.1.2-.1V21l-.1-.2H5l-.2.1-.2.2v.1l.4.1.1.1.1.2v.3l.2.1.2.2h1l.1-.2.3-.2.3-.1H7.6l.1-.1v.2l-.2.2-.4.2-.2.2-.4.5v.2h-.7v.7l-.2-.2v.3l-.2.3v.2l.2-.1h.6l.2-.1.6-.3h.2l.3-.2.2-.2.1-.3.2-.2h.1v.7l-.3.2-.2.1-.4.4H7l-.5.5-.3.3H6v.2l-.1.1v.1l-.3.2v.1l.2.1V26.3h-.7l-.1.1v.3l.2 2.9v.2H5.5l.2-.3H6l.2-.1.2-.2.2-.2v-.3h.2l.2-.2h.3l.3-.2V28l.2-.3v-.2l.3-.1h.6l.2-.1.3-.3h.2l1.8-.4h.1l.3-.3.1-.1H12l.2-.1.3-.3.1.2.1.2V27.2l.2.1h.2l.2-.1h.4l.2.2v.7l-.2.2-.4.2-.3.3-.4.6-.1.3v.5l.5.2V31h1.5l.4-.5v-.2h.2l.2-.2H15.6l.1-.1.1-.3v-.1l.3-.1v.8h.5v-.2h.1l.1-.1h.3l.7-.2.3-.1h.2l.3.2.2.1h.6l-.2.5v.2H20.1l.1-.2.1-.2.1-.1h.3v.1h.2l.2.3v.2l.1.2h.2l.2-.4h.2l.2-.1H22.6l.8-.3.3-.2.2-.4V28.8h.1l.2-.2.2-.1h.1l.4.2.3.3.4.1.4-.1.2-.2.3.1.3.2H27.7l.3-.1v-.5h.4l.4.7h1.5l.2-.4.2.1.2.2V30.1h.2l.3.1-.1.3-.3 1.2v.2l-.2.2v.1l.1.2.1.1v.6l.2.2.3.1H31.8l.2-.2.1-.1h.2l.9.2.5.1.5.4.5.5.2.2v.1l-.5.8-.2.3-.1.2v.2l-.4.8v.1h-.5l-.1.2v.2h-.2l-.4.6-.4.4-.3.3-.7.3h-1l-.2.2-.3.6-.1.3h-.1l-.4.4-.1.2v.4l-.1.3-.5.7-.1.1h-1l-.3.1v.3l-.1.2v.2l.1.1.4.4v.3l.3.6.1.3h.1l.2.1.1.1.1.3v.1H28V46.9l.1.5.1.5V48.4l-.3.5v.7h.2l.1.3v.4l-.2.4-.2.5v.4l.3.5.4.3-.2.4h-.1l-.5.4-.1.2V53.7l-.3.2H26.7l-.5.3H26v.2l-.2.4V55l.1.5.1.2h.2l.3.1.2.2.2.2.2.3.5.8-.2.3V58l-.1.2v.3h-.1l-.1.2V59.5l-.4.5-.3.1-.1.1v.8l-.2.2v.5l-.1.3h-.2l-1.6.3h-.4l-.2-.2H22.7l-.2.2H20v.1l.5 1 .1.2.4.5.2.2.3.2h.1l.2.4.1.1.3.2h.4l.1.2v.6l-.1.3v.9l.3.2.5.7-.2.3v.2l.1.3.2.2.2.2h.4l.2.2.2.3v.1l-.2.3v.1l.1.1.2.1H24.9l.3-.2h.6l.2.2.2.2.1.3.1.2V72l-.5.7-.2.4-.2.2.1.2v.5h-.1l-.2.1-.1.2H25l-.5.2h-.1v.2l-.2.2-.2.1-.2.1-.6.5v.1l-.1.2-.1.6v.6l.1.1V77.5l-.5.7-.2.7v.7l-.2.2h.1l.4.3 1.1 1.5.1.3.2.1.2.2.5 1.2.2.2h.5l.2-.2.2-.2H26.8v.5l-.2.2-.1.5-.2.4-.1.4-.1.2-.1.3h-.3l-.6-.2h-.2l-.1.1-.1.3-.1.2H24.2l-.1.1h-.5l-.4.1v.7l-.3.7-.2.5-.3.5-1 .9-.2.3-.1.4-.1.6v.3h-.2l-.3.4V92l-.2.2v.5h.1l.1.2v.1l.3.2.1.3.1.3v.5l.2.5.1 1 .1.5v.5l.2.7h.2l.1.1h.3l.2-.2h.1l2.7-.1h-.1l-.3-.1-.2-.1h.9l.4.2 1 .5v-.5l-.3-.3v-.1h.4l.3-.3.5-.6v.3l-.5.6h-.1V97.5l.2.3.2.1.2.1.5.4h.2l.2.1.3.2 2.8 2 .3.3.2.4.4 1 .3.4h.4v-1.3l.3-.2.5-.2.2.2h.3l.2-.1.2-.2-.3.5-.9-.1-.4.3v1.2l-.2.2-.4.1-.2.1-.2.2v.5l.1.3.2.3.1.5.2.2H34l.1.2.5.4V106.7h.5l-.2.2v.2H34.5l-.2-.1V106.7l-.4-.4H33.7l.1.2.2.2.3.5.3.4.3.6.2.4.1.3v.2l.1.2v.2l.6.4.3.5.2.4.3.4.5.2.4-.1h.3l.2.1.7.7.3.4.1.1.5.2.2.1h.5l.2.1.5.3.4.3H41.8l1.3-.5.1-.1v-.1l.1-.2v-.2l-.1-.2V111.6l.1-.1v-.2h.3l.2.1.2.2.1.2h.2v-.7l.1-.1.5-.8v-.2l.2-.2h.1v-.2l.2-.2.2-.5.2-.2.3-.5.1-.2.2-.1h.1l.4-.1h.2l.5-.4.8-.2.7-.4.2-.1h.3l1.4.2h.9l.3-.1v-.1h.2l.2-.5 1.3-.9h.1v-.3l.2-.2.1-.2.4-.6.1-.2h.2l2 .1h.3l1.3-.4h1.3l1.2-.2h.5l.8.3h.5l.7-.3h.1l.2.2 1.6.5h.4l.5-.2.2-.2.2-.1.2-.1 1-.2 3 .2H71.5l.2.1.3.4H72.7l.3.2H73.9l.3-.1.1-.1.3-.4.3-.6.3-.4.1-.1 1-.2h.1l.3.2h.4l.3-.3h.5l.2.1.4.3.3.3.3.4.3.3.4.1h.2l.3-.1.1-.2.1-.2h.1l.2-.1.1-.2v-.2l.1-.1.2-.2h.2l.1-.3.1-.5.2-.2.4-.3.1-.1h.4v-.8l.2-.4.4-.8v-.4l.2-.4v-.5l.2-.6.3-.3.7-.7.3-.5.2-.3v-.2l.1-.1.6-.4.6-.3h.2l.3-.3h.4v-.6h.1v-.1l.1-.1h.1V93h.3l.2-.2.5-.5h.2l.2-.2h.5l.6-.2h.1l.4.2.1.1.6.2h.3-.2V92h.2l.2-.1H93l.5.2h.3l.2-.2h.6l.3-.2h.2l.3-.1h.4v-.2h.2V91l-.2-.1-.1.1h-.2l-.3-.1-.4-.3v-.1l-.4-.7v-.4h.3l.1-.2.3-.8.3.4V88l.5-1.1v-.2l.3-.2.1-.1.1-.2V84.1l.3-.4.1-.2.2-.2H98v-1.5l.1-.5h.4v-.2l.2-.1h.5v-.2l.1-.3.1-.2.5-.5.1-.2.2-.1 1-.5.4-.2.3-.1.5-.1h.4l.2-.1.2-.2V77.7l.1-.2.2-.2h.7l.1-.1h.4v-.4l.2-.1v-.1l.2-.2H105.4v-.1l.2-.3.2-.1.1-.1h.2l.2-.1h.1v-.5h-.2l-.1-.2-.1-.1h-.1v-.1h.1l-.3-.5-.5-.2-.5-.2h-.5l-.4-.1-.2-.2-.4-.4-.4-.4-.2-.2-.4-.7-.4-.6-.3-.7-.3-.6v-.4l.1-.2v-.2l-.1-.3-.6-1.6-.3-1V64.5l.1-.3.3-.5.1-.2v-.2l.2-.3.2-.2.2-.3.2-.2V61.7l.1-.1 1.2-2 .7-.7.3-.4.4-1 .3-.5.7-.4.3-.3.8-1.4.6-.5.4-.6v-.1l.4-.3.1-.1.8-1.5.3-.3V51l.2-.2.2-.2.2-.3.5-1.3.2-.2.2-.2.2-.2 1-.3h.3l.2.1-.5.5-.4.2h-.4l.2.3h.3l.3-.3.2-.2.6-.7.3-.3.7-.2.2-.1v-.2h.2V47l-.1-.1-.2-.2-.3-.3-.3-.3-.1-.1-.2-.1h-.2.2v.2h-.5l-.3-.2.2-.4 1-1 .6-.8 1.3-1.3.4-.2.4-.2.4-.1h.6l.3.2h.1v-.2h.1l.2-.4v-.1l.9-.2 2.8-1h.9l2.1-.7h.5l.2-.1.8-.2h.7l.5-.2.7-.4.4-.4.3-.4.6-1 .3-.4.3-.2.8-.4.7-.4zm-35.4 55l.3.4-.2-.6V90l.1-.3-.1-.2v-.1h-.1V90.4zm30.1-68.8h.4v-.2l-.2-.3V21h-.2l-.1.3v.2h.1zm-5 54.7l-.1-.2-.6-.8-.1.2-.1.1-.2.2v-.1h-.2v.1l.1.1v.2l-.1.2v.3h.1l.4-.1h.1l.1-.1h.2l.7.3.3.1.3-.1v-.3l-.3-.1h-.5zM152.3 59l-.2-.4v-.2l-.1-.2H151.6l-.2-.2h.2v-.5l-.2-.1-.2-.1h-.1l-.1-.2-.1-.1-.4-.2v-.4h-.1v.2l-.1.2-.1.1h-.1v-.2l-.2-.3-.1-.2h-.1l-.2.2h-.8l-1 .2-.3-.2-.8.2-.1.2v.5h.1l.3.1V57.8l-.1.1v.4l.4.2.8-.2h.4l.4.2 1.8 1.2.8.4.5-.1v-1h.2v.2h.1v.1h.1v-.2zm-30.4 11.5v-.2l-.1-.1h-.4l-.2-.2H120.8v.2h-.6l-.3.2-.3.2v-.1l-.3.1h-.1l-.3.2-.2.2h-.2v1.1h-.3l-.2.1H117.6l-.1.1v1.1l.4.3v-.2h.5v.2h.2l.2-.1.2.1.2.2.2.1.1-.3.2-.3.1-.3.2-.2h.1v.1l.2-.1.3-.2h.1l.4-.6.4-.3v-.3l.1-.2h.4l-.2-.6v-.2zm20.3-9.5l-.6-.4-.3-.1h-.2l-.3.4h-1.3l-.3-.2-.3-.3-.1-.3v-.4h.4l.2-.2h.1v-.4h.2V59l-.9.3-.4-.1v-.5h.1l.2.1v-.1l.2-.2h.4l.3-.3h.2l-.2-.1-.2-.2-1.2.5-.6.2h-.6l-.3.2-.7.4-.3.2h-.4v.1H134.8l-.1.2-.1.1-.2.1-.3.2h-.1l-.3.3v.1l-.4.3h-.2l-.1.2v.1l-.4.4-.2.1-.2.1h-.2l-.2.1-.5.6-.2.1h-.2l-.8.6-.1.2v.5l.2.2.1.3h.2l.3-.2v.2h.2l.1-.2.3.4h-.1v.2l.2.4h.3l.3-.3.1-.4.2-.2.7-.4h.5l.4.2.3.3.2.3-.2.4v.2l.1.1.1.8.3.3.5.2h1.4l.2.1h.1l.1.1V67.1l.1.1v.1h.3v.1l.3.5h.2l.1-.1.1-.1.4-.4 1-.6.4-.4.2-.6.1.1.1-.8.4-.7.4-.5.5-.4v-.7h.3l.1-.1.1-.2.2-.4V61h-.4z" fill="#7F807C" fill-rule="evenodd"/></svg>