<svg width="118" height="116"><path d="M116.3 30l-1.4-.8h-.7l-.7-.2h-.1l-.2.2h-1l-.1-.3-.3-.2h-.4l-.2-.1-.1-.2-.2-.3-.1-.2v-.3h-.5v-.2h-.5l-.1.1-.1.3h-.1l-.2.1h-.1v.1l-.1.2H107.9l-.1-.1h-.2l-.3-.3h-.1V28.1l-.3.1-.2-.1v-.9h-.3l-.5-.3h-.8l-.1.1v.7h-.2l-.3-.1h-.5l-.2-.3v-.1l.1-.2v-.2h-.2v-.1h-.1l-.1-.3-.2-.1V26l-.6-.6-.2-.2V25h.2v-.2l-.4-.4-.1-.1V23.9l-.2-.2-.8-.4h-.2l-.2.1H100.4l-.3-.1-.4-.3-.3-.1h-.7v.1H98.5V23.4h-.2v.2h-1l-.1.1-.1-.4-.2-.1-.6-.2h-.2l-.2-.2-.3-.4-.3-.1h-.1l-.2.1v.1h-.3l-.2-.1h-.4l-.1.2v.1H93.7l-.2-.1h-.2l-.1.2H93l-.2.2h-.3V22.1l-.5-.8-.1-.1-.3-.1-.1-.1-.1.1H91.1V20.5l-.1-.2-.2-.2h-.4l-.2.1H90l-.2-.2-.1-.1-.3-.3-.1-.3h-.1l-.1-.1h-.3l-.1-.2-.4-.3h-1.2v-.6L87 18V17.6l.1-.2v-.7h-.3l-.2-.1-.1-.2v-.3l.3-.6V15l.1-.1.1-.3h.1v.1h.1V14H87l-.1-.3-.3.1-1 1V16l-.2.1v.1H85l-.3.2-1 .5h-.3l-1.1-.3h-1l-.6-.3V15.5l.1-.2h.1l.1-.1.1-.1h.1l.1-.1h.1V14.7l-.2-.7h-.5V13.5l.2-.2v-.4l.1-.1.3-.2V12.3l-.1-.1-.1-.1h-.2v.2h-.2l-.2-.4v-.1l-.3-.2h-.1v-.1l-.4-.4H79.4l-.4.1-.2.1h-.4v-.1h-.1L78 11h-.9v.2l-.2.2v.1l-.1.1-.1.1-.3-.3v-.6l-.1-.6v-.6l-.2-.2-.2-.2-.2-.1h-.7l-.2-.1v-.2h.1v-.1l-.2-.1h-.2v.1h-.1l-.1.1-.3.1H74l-.2.1h-.2l-.4-.2v-.1l-.2-.2V7.9l-.3-.8-.1-.4v-.2h.1V6l-.1-.1h-.2l-.1-.1-.2-.3v-.2l-.1-.1-.2-.2-.1-.2H71l-.2.2h-.1l-.4.1h-.1l-.1.1-.1.1-.1.1-.1.2-.2.3h-.2l-.7-.3h-.1l-.2-.1v-.1l-.1-.3V5h-.1l-.3-.3v-.1l-.1-.1v-.1H67.2v-.1l-.1-.1L67 4h-.2v-.4h.1v-.4l-.2-.3V3h.2v-.2h.1v-.4l-.1-.2-.4-.3v-.3l-.1-.7-.2-.3-.1.1-.4.2-.7.2h-.7l-1.6.5-1.4.2-.3.2h-.2l-1.7.7-.3.2-.2.4-.2.2H58l-.2.2V4l.1.5v.8l-.3.6v.5l.1.7v.8l.3.4-.3.2v1.2l-.2.5v.1l.5.4h-.3l-.2.4V12l.4.2v.2l.1.1.2.1.1.1h.2v.1h-.2v.1h.1v.1h.2v.2h-.2l-.9-.5h-.3l-.3.5-.2.7v.2h-.2l-.4.6-1.2 1-.4.4h-.2l-.2.2-3.7 1.2h-.8l-.7.3-.3.2-.4.1-1 .7-.2.1-1.2.6h-.1l-.5.4-.1.2-.4 1.2-.4.8v.5h.1v.2l.3.1h.2l.1.1h.2l.6.2.8.1h.7l.7-.5-.2.2-.2.2-.4.2-2.2.5-.6.4-.2.4H43.9l-.3.3-.4.2-1.4.4-.2.2-.9-.6h-.4L40 25l-.2-.1h-.6l-.4-.2h-.2l-.3.2H38l-.4-.2H36l-1-.5h-1.4l-.1.2v.4H33.3l-.1-.2H33l-.1.1h-.1v-1l-.7-.9-.2-.4-.1-.2-.1-.3v-.3l.2-.1h.2V21.2l.3-.2V21l-.3-.4v-.3L32 20l-1-.2h-.3l-.4.1-.1.1-.2.3-.2.2h-.6l-.1.1H29v-.1h-.2l-.6-.3h-.6l-.2-.1h-.2v-.3h-.5l-.3-.2H26V20.4l.3.1h.3v.2l.1.1.1.2v1l-.3.2v.2l.3.4V23l.2.3v1l.2.1H27.7v.1l.1.1.2.3h.2v-.2h.1l.2.3h-.2v.3l.2.2.2.2h-.1l.1.2.2.5.1.2v-.3h.3l.2.2h.2v.1l-.3-.1H29V27.5l.1.2h.2l-.2.2v.2l-.1.2v.2h.1V29.5l.1.1.1-.2.2-.1h.4v.1h-.3l-.1.2-.1.8h.1v.4h-.1l-.1.7v.2l-.2.1v.2h.1l.1.2v.7l.2.4.3.3v.3h.1l.1.1.3.1.1.2v.1h.1v-.1h.4l.2.1.1.3-.3-.2-1 .3-.7-.1h-.1l-.5.2-.7.1h-1l-.2-.3v-.3l.2-.4v-.2l-1 .1v.1h-.3v.2l-.2.1-.1.1-.1.2v.2l.2.4.1.1h.2v.1l.2.2h-.2v-.1.4l.3.2-.3.2v.1-.3l-.1-.2-.2-.3v-.2l-.2-.1V34.9l-.2-.4h-.5l-.4.2.1.2.1.1h-.1l-.1-.1H24l-.1.2v.1h.1v.1h-.2v-.2l-.1-.2v.4l-.2.1V35.1l-.1-.1h-.1v-.5H23l-.2.3H22.6l.2-.3v-.1l.1-.2V34h-.1V34l-.1-.2-.1.3-.3.2-.2.2h-.3v-.1H21l.2.2h.1l-.1.2-.6.4h-.2v.1h-.2l-.2.4-.1.2H19.4v.4h-.1l-.1-.1V36H19v-.2l.1-.2-.5-.3-.2-.1h-.1v-.1l-.1-.1V34.7l-.1-.4-.6-.5v-.2l-.2-.1-.2-.2v-.5H17l-.5-.1-.2-.1v-.1h-.1l.1-.2h.2v-.1h-.1V32h-.5l-.1.3-.3.6h-.1v-.1l.2-.3.2-.4v-.7l-.2-.1h-.1l-.2.2H15l-.2.3-.2.3-.1.1v.2h-.1v-.1l.1-.2v-.7h-.1l-.3.3H13.8l-.7.3-.2.2h-.4l.1-.1-.4-.3H12l-.3.4-.2.1-.1.2v.2l.3.4h.2l-.5.1V33.6l.1.4H10.8v-.3l-.3.1h-.2l-.3-.2h-.6l-.2-.3V33.6H9l-.1.1v.5l-.1-.1V34v.7l-.1-.1-.3-.2-.1-.1v-.1l.1-.1H8.2l-.3.3V33.8l-.1-.1V33.3h-.4l-.1.2H7V34L7 34h-.1v-.1H6l-.2.1-.1.2V34.5l-.2-.1h-.2l-.3.2h-.2v-.3l-.1-.2h-.5l-.3.2h-.2v.2H4h-.2l-.3.2H2.5V35l.3.1H2v.2l.2.3-.4-.2H1.3l-.1.2H1l-.1.2-.2.4-.1.4.2.2-.2.1v.2l-.1.3v.2l.1.4v.2H.5v.3l.1.1h.6v-.2H1.6l.3.1H2.1l.3-.1.4-.1.6-.4h.3l.6-.2h.2l.3-.2h.1l-.8.4-.1.1-.6.7h.4v-.1H4v.1H4l.3-.2h.1l.1-.1v.2h.2l.2-.2H5l-.2.2h-.1v.1l-.1.1v.1H5l.1.1H5.4l.2.1h.2v.1l-.7.2-.2-.1h.2H3l-.3-.2.2-.4-.2-.1h-.1l-.2.5v.2h-.4v.4h.6l.1.2h-.1v.4l.1.2v.4l.1-.1.2-.3.1-.3.2-.2.2-.1.5.3H4l.1.2h.5l.1.2v.4l.2.2v.5l-.2.2-.5-.2-3 .6h-.1v.2H1v.2H1l.7.2H2l.3.3.1-.1.1-.1.1-.1h.1l.8.7.4.5.2.3v.3l.2.4V45.4h-.2v.4h1.7l.3-.3v-.1h-.3v-.5l.3.3V45h.2l.1-.1v-.2l-.2-.2V44.3v.2l.2.2v.2H7l.3.3V45h.2l.1-.1v.1l-.1.1h-.1.2l.2-.2v-.5h.2l.2.2.2.2v.2H8.6v.4l.3.4h.5l.2.1.4-.3h.1v.3H10.8l.1.1h.1v.1h.9v.1l.2.2v.2l.3.4.2.1.8-.2v-.1h-.1l-.1-.1h.2l.2-.2.3-.3.2-.2-.1.2-.1.1-.1.3h-.2v.2l-.1.1v.1h.3l.1.1h.2v.2l-.4-.2H13.3l.2.1.4.1h.3l.2.4h.2V47.5h.2l-.1-.2.2-.1h.2v-.4l-.2-.1h-.1H15l.1-.1v.3h.2v.2h.1v.1l-.6.3-.2.4v.2l.1.1h.2l.2.2v.2l.1.2v1.4h.5l-.2-.2-.2-.3v-1.1h.2l.1.1v.1h-.1l.1.1h.2l.3-.2v.1h.2V48.5v.2l.1.2h.1v-.3l.1.2.1.1h.2v.2h.1v-.2l-.2-.2V48.1l-.1-.3v.1l.1.1.1.1h.1v.5l.1-.1h.1v.1h.3l.1-.1.1-.2h.1l.5-.1.2-.1h-.2.4l.1.2h-.2l-.1-.1.4.3h.2V48l.2.2v.2l-.4.5v.1l-.1.1h-.5l-.2-.2V49.3H18v-.1H18v.1h-.1l-.2-.3h-.2l-.2.1.2.1v.1h.2v.1l.2.3.2.2h.4l.5-.1h.5v-.3h.5l-.1-.1h-.1.4l.1-.2v.2l-.2.1-.1.1h-.2l.1.1H20.6l.3-.1h.2l.7.2H22.3 22l-.4.1h-.5l-.1.1.1.2v.3h.2l.2.2-.1.1.1.1h.4v.1l-.3.2-.1.1v-.1l-.2-.1h-.2l-.7.4.4.2.1.2v.4l.1-.1V52h.1l.1.1.2.2.1.2-.1.2h-.3l-.3-.2h-.2l.8.5h.3v-.2h.5l.3.3v.1H23.3l.2-.2h.3v-.2h.1v-.1l.1-.1.3-.2h1.6l.1.1h.3l.2.2.3.1.3.3.3.3.1.2h.4l.2.2h-.5l-.2-.2-.2-.2-.5-.1-.3-.3h.1v-.2h-.9v-.1l-.1-.1h-.1l-1 .1-.1.1-.1.2v.1l-.1.2V53.6l.1.2v.5H24l-.3.1h-.1l-.1.2h-.1l.3.2 1 .2.6.3.1.2.1.1.1.2v.3h-.1l-.1.3-.2.5-.1.2-.4.2V57.6l-.3.2v1.1h.2l.2.2.3.2.5.5.2.5.1.1H26.2l.1.2.1.3.1.1.2.2.1.1v.2l.1.1v.2h.2v.3l.2 1h.2v-.5.2l.1.3.2.1.3.1.3.3h.4l.2.2-.1.2h.8l.3.1.2.2.1.2.1.3v.3h.3l.5-.1h.1l.2.2.3.2h.2l.2.3.2.2h.2v-.4l.3-.2h.4l.2.3v.2l.1.1V66.2l-.7.4v.4h-.1l-.1.2V67.5h.4v.2h.1l.3.2-.1.1v.1h.1l.1.1v.2l.1.2v.2l.2.1h.1v.1h.1v.1l-.1.3h-.5l.2.4v.1l.2.1-.1.2v.2l.1.1V70.8h-.2l-.2.1v.1h-.1v.1l-.1.1h-.1v.2l.1.2V71.9l.1.1.2.3.8.7.2.2-.6-.3-.2-.2-.6-.6h-.1l-.6.1v.2l-.2.9h.5l.2.1v.2l.2.1h.1l.2.1.3.1.5.5.3.1v.3l1.4 1 .4.5.2.3.2.4.3.8v.5l.4 2.4.1.4.2.3.3.3.4.1.4.2.2.4-.2-.2h-.2l-.3-.1h-.2.2l.2.3v1.1l.1.2-.1-.1v-.2l-.1-.3V82.4l-.2-.1-.3-.2-.3-.3-.3-.4-.3-.7v-.2l-.2-1.2-.1-.4v-.3l-.2-.4-.2-.4-1.1-1.2h-.1l-.4-.2-.6-.5-.1-.1-.1-.2V75h-.2l-.2.2-.3.6v.2l-.2 2.7-.4 2-.5 6.3v-.2l.1-.3.1-.5.4-.6v-.2h.1v-.1h.2l.2.1.6.6.1.2.1.3v.1l-.2.2h-.3l-.5-.1h-.2l-.2.2-.2.6v.2l-.3.4v.4l.1.2v.8l-.3 1.8-.6 3.5-.3 1.6-.2.7-.4 2-.2.8v.4l-.2.4v.2l-.5.3-.1.1v.2l-.3.3v.2H29l-.2.2h-.2l-.8.2h-.2v.2l-.2-.1v.7l.2.1.1.2v.2l.1.1h.4l.2-.2.2.1.1.1v.5h.5v-.1l.2-.2H30l.3.2H30.6l.3.2v.9l-.2.4-.1.2-.4.4v.4l.2.1.2.2h.6l.1-.2v-.5l.2-.2.3-.1h.2l-.2.2-.1.2v.1l.2.2.2.1.5.1.3.2.3.2h.3l.2.1h.1l.3.1h.2v.2l.4.2.3.1.8.1.6-.1h.3l.2.5v.4H37.3l.3.2.2.1.3.5v.1h.2v.1h.1v.2h.4v-.3h.3l.4.2h.3l.2-.2.5-.3h.1l.1-.2.2.2.5.3.1.2h.5l.2-.1v.4l.1.2.2.1V110.8H42.8v.2h.1l.4.2h.3l.7-.3.5-.1.2-.1H45.5l.2.1.2.4.1.2h.1l.3-.4.2-.2h.1l.3.2v.1h2.4l.1-.1v-.4l-.1-.1h-.2v-.2h.1v-.2l.1-.4v-.4l.2-.1h.4l.4.1h.4l.4.3.3.1.2.2h.2l.2-.1.2.1.8.1.2.1.2.1v.2l.1.2.1.2h.2v.1l.4-.1h1.3v.2h.1v.1l.2.3.2.3.2.4v.1h.3l.1-.5h.3l.3-.1h.1l.5.3h.1l1 .2V112.4h.3l.1.2h-.2l-.2.2v.3l-.1.3.2.2h.6l.2.1.5.4h.5l.1.3.1.4.1.2.2.2H62.2l.1-.2.3-.2v-.2l.1-.1H63.2l.5-.2h.3l.3.1v.1l.6.3h.4l.1.2.1.2.2.1h.2l.2.2h.2v-.2l.2-.1h.1l.4.1h.5l-.1-.1-.1-.2v-.2l.4-.3H68.6l.2-.1.2-.3h.5l.1-.1.3-.2h.9v.2h.1l.1.2H71.3l.2.1h.3l.6-.1v-.4l-.3-.4-.6-.6-.1-.3-.1-.9v-.2H71l-.1-.1v-.4l.2.2.1-.6v-.7l-.1-.1-.3-.1h-.2v-.2l-.1-.1-.1-.1.3-.4h.2v-.4h.2l.2-.1v-.1l-.3-.2v-.5h.2l-.1.1v.2h.1v-.1l.1-.1.1-.2v-.4l.2-.3v-.2l-.1-.1-.2-.2v-.4H71.7l-.2.2.2.1v.1h.1l.3-.3v-.2l.2-.1.2-.2v-.1l.1-.2v-.2l.2-.1 1.3-1 .3-.2h.2l.4.2.2-.1.7-1 .3-.2 1-.5 1.8-1.5h-.3l-.3.3-.5.5-.4.4-.3.1h-.3l.7-.3.2-.2V101l.6-.5.3-.1.5-.2.4-.3h.3l.5-.2v.2l-.2.1-.1.1h-.2l-.5.1h-.2v.2l.2-.1h1.1l.2.2.2.7.1.1.2.1h.2l2.8.2h.4l.3.3v.4l-.2.2v.1l.2.2h.4l1.3.1.4-.1-.3-.2-.2-.2-.3-.3-.1-.4v-1l-.3-.5h.1l.2.2v.3l.1.1v1l.2.3.3.3.3.2.4.1v-.2h-.2V102.1h.1l.3-.1v-.1l.3-.1.5.3h.4l.2-.2.1-.3-.1-.3h-.1l-.2-.1v-.8h.1l.2.1H89.3l.2.1v.2l.1.2.2.2h.5l.2-.2v.6l-.2.2-.2.1-.2.1H89l-.2.2-.2.2v.3l.3.2.3.1h1l1.2-.3.3.2v.7h.1v.6l-.1.1v.2H93v.1H93.3l.2-.2.3.4h.2v.1h.2v-.1h.5l.2.1v.2l.3.2h.1l.2.1h.1v.2H95.8l.1.1-.3.2v.3l.5.2H96.4v-.2l.1-.1h.4l-.1-.1-.2-.2h-.1l.2-.2H97v.2h.7l.2.1h.7v.5h-.4l.2.1h.8v-.1H98.9l.1-.3v-.4l.3-.1H100.5V106h.5l-.1-.2v-.4h.5l.1-.2H102l.2-.2.1-.1.2-.1H102.8v.2l.1.2h.1l.2-.1h.1v-.2l.3-.3v-.5l.1-.2v-.1h-.8v-.2l.3-.1h.2v-.2h.1l.1-.3h.2v-.1l.2-.1v-.4l.1-.2.1-.2.1-.1h.2l.2.2h.5v-.2H105.6v-.2h.2l.4-.6v-.5h.2l.2-.1.1-.2.2.1h.2l.3-.2h.2v.1h.2v-.9h.1l.1-.2.2-.1h.2l.2-.1v-.1l.2-.3h.8v.1l.1-.1v-.2l.1-.1h.2V98l.1-.2h.2l.2.1v-.1h.4V97.5H111.2l-.2-.7v-.5l.5-.5.1-.3.5-.4.2-.2V95l.2-.3v-.2h.1l.1-.2.1-.1v-.5l-.3-.2v-.7h-.2l-.4.2h-.3l-1.5.5h-.4l-.2-.1V93h-.4l-.2-.2-1-.6h-.3l-.6-.4h-.6V91.5l-.1-.1-.1-.1-.2-.2-.1-.1-.1-.3-.1-.1-.2-.2v-.8l.4-.2-.2-.2-.3-.3-.2-.4v-.5l.5-.4.3-.5.1-.1v-.5l.2-.2.2-.1h.6v-.1l-.3-.5v-.5l-.2-.2V84.7h.1v-.2l-.2-.2-.5-.2h-.7l-.7-.3-.3-.3-.1-.2v-1.1l-.3-.2h-.4l-.1-.3v-.2l-.2-.2-.1-.3V81l.2-.1.3-.2h.4l.2-.2h.4l.3.2.3.1.3-.1V80.3h.3v-.1l.2-.1.1-.3.2-.1.3-.2h.3l.2.1.3-.3.2-.2v-.5l-.1-.4.3-.4.2-.3V77l-.4-.2h-.1v-.2l-.1-.2-.1-.1-.4-.3-.4-.3v-.1l-.1-.6-.2-.2v-.2l.1-.3v-.2h-.1l-.3-.2h-.1l-.2-.3h-.4l-.2-.2-.2-.3-.1-.5V72l.1-.2h.2l.2-.1v-.1h.1v-.1h.7l.2-.1.2-.2V71l.1-.1.1-.2.1-.1h.1V70.2l-.1-.2-.1-.3v-.2h-.1l-.6-.7h-.6v-.6h.1V68l-.8-.2V67.2l.2-.5.3-.6-.2-.4-.3-.3-.2-.3v-.2l.3-.2V64l-.2-.1-1.3-.4h-.6l-.6.1-.8.6h-.6l-.3.1-.2.3-.3.3-.2.3v.5l.2.3.1.1h.2v.3l-.2.2-.5.4-.5.5-.3.2-.3-.2h-.4l-.4.1-.2.2v-.3l.1-.1V67.2L97 67v-.2l.3-.1.5-.3h.4V66l.1-.3v-.1l.4-.7v-.1l-.2-.2-.1-.2-.5-.3h.1v-.7h.1l.3-.6.3-.4-.2-.2V62l.1-.2 1.2-1 .7-.4v-.1l.3-.3.3-.1v-.1l.2-.1v-.5h-.1V59l.1-.5h.1v-.8h-.1l.1-.5.5-.3 1-.3.5-.5.2-.3v-.4h.1l.2-.2h.1l.1-.1v-.3h.3l.6-.6.2-.3.2-.3.6-.4v-.6l.2-.2h.1l.2-.2h.2v-.1l.1-.2V52l-.2-.1-.1-.1h-.2l-1 .1V51.5l.2-.2.3-.1v-.3h.2l.1-.1.2-.1v-.5l-.1-.1h.2v-.2h.2v.1h1l.2.1h.3l-.2.3v.3h.2l.3.2h.1v.1h.1l.4-.1h.8l.3-.2.2-.2v-.2l-.1-.2H111v-.4h.1v-.2l-.1-.1.4-.4h.2l.3-.2v-.4l-.1-.1-.2-.4-.1-.2h-.2V47l.1-.2V46l.1-.5.2-.1v-.7l.1-.2V44l.3-.2.1-.2v-.4l-.4-.7v-.8l.1-.2v-.1l.1-.1V41l.2-.2.5-.8.1-.2v-.5l.2-.2.1-.2h.2v-.2l.1-.2v-.2l-.1-.2v-.8l.2-.2v-.4l.1-.2h.1l.3-.3-.2-.3v-.5l.1-.5.4-.5.1-.1h.2l.1-.2.2-.3h.1l.2-.2v-.1l.1-.1V33l.2-.1h.2l.1-.1v-.2h.1v-.1h.2l.3-.2.2-.3.4-1 .2-.6.2-.2v-.1z" fill="none" fill-rule="evenodd"/></svg>