<svg width="171" height="45"><path d="M4.6 44.1l-.8-.7-1-.3v-.4l.2-.5.4-.8-.1-.9-1.1-2.8v-4.2l-.4-.7-1-1.1-.2-.8.5-1-.3-.2-.5-1.3.5-.6.6-1.8.6-.4.7-.2.7-.4.7-.5 3.3-4 1.4-1.2.1.6.4.4.5.3.5.3 1-.5h1l1 .3.5.6.3 1-.6.2h-1l-.6.8.9.7.7 1.7.4 1.7v1l2 2.4.5.4h2.8l.8.3.8.5.4.4.6.3h1.1l.6.5.3.9v1l-.3.8 1.1-1h.5l.7.6-.3-.6-1-1-.2-.2-.2-.7-.4-.5-.6-.2h-.8V32h2.5l.6-.4.6 1.2.7-.3.7-.8 1-.4 1-.3 2-1.4 1.2-.3 1.6.5.2 1-.2 1.4.1 1 1 .3 1.4-.4 2-1v-.5H38l-.6.3-.5.3-.4.5-.6.3-.2-.3-.3-1.6v-.6l-.1-.6-.4-.2-.3-.1-.2-.4v-.9l.1-1 .5-.8 2.2-1.9.4-.5.2-.6.3-.2h.5l1 .4 7.9.5 3-.7 1-.1h1.8l.4-.2.3-.3.3-.2.1-.1 1.3-.1 3.6.4 1.2-.1 3.3-1 .5-.3 1-.8.6-.1.5.1.8.9.6.2h.8l.6-.1.5-.3.7-.4.4-.6 1-1.4.5-.4h.7l.7.2.6.4.5.4.6.2h.6l.6-.3.5-.1 1 .3.8.7.5.8.6.6 2 .6 2.4.2 2-.9.6-2.3h-.4l-.1.8-.4.8-.6.6-.7.2-1-.1-2-.6-.8-.1-.8-.3-1-.7-1.3-1.2-.5-.2h-.5l-.5.3h-1l-.4-.3-.4-.3-.2-.1-.8-.2-.6-.3-.8-.2-1 .3-.6.5-.9 1.1-.5.4h-1l-1.5-.7-1-.1-1 .2-2.5 1.4-2 .6L42 22.5l-1.8-.7-1.1-.1-1 .2-1.1.6-1.6 1.1-2.4 2.4-.5.4-.4.2-.4.4-.5.1-.5-.3v-.4l.2-.6V25l-.2-.7-1 .9v.5l.3.6-.6.3-.2.1v.4h.3l.2.2.3.1-1.1.6-2 .3H24l-4.4-1.1-1.8-.1.3-.5.7-1.5.2-.6-.2-.8-.5-1.1-.1-.4-.3-.4-1-.8-.4-.7-.5-.3-.2-.2v-1.2l.5-2.4v-1l-.4-.7-.3-.6h14l3.5.1h24.6l3.5.1h13.2l1-.3v-2.3l.3-1.1.4-1.3.6-1.2.6-1L79 5.1l2.4-1.7 2.6-1 2.4.4.5.5L88 4.7l.5.4 1.2-.3L94 2l4-1.5h1.3l3.4 1.3 5.7.3 2 .6 2 1.7.7 1 .5 1 1.1 3.7.4.5 2.3 1.4.8.3.7-.3 3.5-1.9 2.3-.6 2.3.2 2.4 1.1 1.1.9.8 1 .5 1 .8 2.6.4.7.5.6 4.6 3.3 1.3.7h1l1-.1 3.4-1.2 3.1-2 1-.5 3.3-.7 2.6-1.3 1.2-.3h2.2l.6-.3 1.2-.7.7-.1 1.2.2 1.4.5 1.4.7 1 .7.2.6.4 1 .3.5.5.5 1.3.7.6.5 1.3 2.7-.2 3-1.6 2.4-2.8 1.2-4.3.4-2.2.6h-2.3l-2.4 1-1-.1-.9.4-2.7 2-1.2.6-1.6.1-3.1-.6-3.2.3-1.5-.1-1.5-.4-2-1.1-.7-.4-.5-.5-.4-.6-.7-.6-.7-.2-1.8-.1-.8-.2-.8-.5-2.1-2-.7-.2-1.8.5-2 .2-2.1-.2-2-.8-1.5-1.4-1.1-1.6-.7-.4-1.1-.2-1-.3-2-1.2-.8-.2-2.1-.2-2-.5-3.6-2-2.9-2-2.5-2.3-1.6-1-1.3.5-2.4 2.5-.8 1.3-.2 3.6-.4 1.6-1.1 1.5-1.6 1-1.9.7-1.8.4h-2.1L76 25.7l-1.7-.1-1.4.5-1.3.7-1.7.6H69l-3.8-.3h-.7l-2.5.8-4 .4-.6.4-.3.8v5l-.2 4-.4.3h-7.2l-7.4-.1-12.5-.1-8.5-.1H9l-2 .3-.8 1.5-.2.5-.9.9-.3.5-.2.6V44" fill="none" fill-rule="evenodd"/></svg>