<svg width="165" height="116"><path d="M28 52v.2h-.1v.2h.1l.2-.2V52h-.1zm30.8 63.1l-.1.2-.1.2.2.1h.2v-.5h-.2zM40.2 86.4v.1l.2.2.1-.1v-.2l-.3-.2v-.1L40 86v.2l.1.1v.1zm-7.6-12l.2-.2.2-.1.1-.3-.1-.2h-.2l-.2.2v.6zm-1-7.9l.3.4h.2l.1.1h.1v-.3l-.3.1-.2-.3-.3-.4-.4-.5.1.4.2.1.2.4zm-4-13.4V53h-.2v.1h.2zm-3.1-9h-.2v.2l.1-.1.2-.2h-.1zm1.6-.2l-.3.2v.3l.2-.2v-.3zm2.6-2.1v-.3l-.2.1-.2.2v.1l.4-.1zm7.9-.6V41h.1v-.2l-.2.2v.2h.1zM21 40.9v-.1l-.1.1-.1.2.2-.2zm79-25.1v-.2h.2v-.4H99.6l-.1.2v.3h.2l.3.1zm64.6 38.4l-.3-.2v-.2l.1-.4v-2.1l-.5.8-.5.8v.2h-.1l-.3.6h-.1l-.2-.2v-.1h-.7l.1-.3.1-.2H162.5v-.3l-.3-.3-1.1.3v-.3l.4-.2h.5l.6-.3v-.4l.1-.3.2-.4.1-.2-.2-.1h-.5l-1 .2-2.3-.2-1.8.3-.4-.3h.9l.9-.3h2l1.8-.4.4-.2.6-1 .3-.3-.2-.6-.4-.4-.7-.5-.4-.1-1.5.4h-.7l-2.4.8-.2-.3.4-.3 1.2-.2.6-.4.4-.1h.7l.5-.2.3-.4v-.6l-1.2-.5-.4-.3.6-.3 1.4.2.5-.4V43.1l-.1-.3.5-.3.1-.2V42l-.2-.7v-.2l.1-.3.3-.4.2-.5V39l-.6-.6h-.4V37.8l-.1-.1-.5-.1-.4.2-.6 1-.3-.2-.1-.2-.1-.2V37l-.3-.1h-.5v-.2h.2l.1-.3V36l-.1-.4-.2-.2h-.3l-1.6.4-.4-.1-3.3-2 .2.4.4.5.2.3-1.2-.9h-.4l-.3.2-1.8 2.8-.3.5-.2.3-.5.5h-.1l-.2.3-.3.7-.2.3V39l.3-.5.2-.5 1.1-1.3.3-.8.8-1 .4-.9.4-.3.8-.3-.3-.3-1-.6-.2-.3h-.1V32l-.2-.3v-.3l.3-.4.7-1.5-.5-.6-.6.2-1.1.6-3.3 1-1.1.6-.6.1-.5-.2.2-.7.4-.8.2-.7-.6.9-.4.3h-.5l.8-.8.2-.5v-.6l.4-.5 1-.8 1-1.2.2-.2v-.2l.4-1v-.8l.3-.2V22.8l-.2-.8v-.4l-.1-.1h-.2l-.2-.2v-.4l-.2-.9-.2-.5-.3-.3-.3-.2h-.8l-1.2 1.2h-.7l-1-.4h-1.7l-.3-.3.2-.1.3-.3.1-.2v-.6l-.2-.3h-1l-.1-.2-.5-.3.3-.9.4-.3h1l.2-.2 1.4-1.4.1-.3.2-.6V13.2l-.1-.2-.3-.6-.1-.1V12l-.3-.2-.3-.1.3-.7.5-.4 1.4-.3 1.1-1 2.7-1.1.7-.8-2.9.4-.3-.1-.6-.5-.3-.1-1.3.2-.4.3-.6.6-.3.5v.5l-.2.5-1 .7-.1.3v.3l-.1.3-1 .4h-2l-.3.2-.1.4v2l-.1.5-.2.5-.2.1v.2l.2.1-.4.3-.2-.3-.3-.5-.5-.4-.5-.5-.4-.2-.1-.2-.1-.3v-.4l-.2.2h-.2l-.2-.2V13h-.2l-.5.2h-1.1l-.2-.3v-.5l.2-.4-.1-.2-.5-.3-.2-.2h-.2l-.2.1-.2-.5.5-.4.3-.5.7-1.1-.3-1v-.6l-.1-.4-.3-.2-.3-.1H130V6l.1-.2-.2.1h-1.4l.2-.3-.1-.1-.1-.3-.1-.2.3-.2v-.3h-.2V4l.3-.3.2-.1.2-.3-.7-.3-1.2-1.3-.7.3h-.2l-.9-.3h-.4l-.3.2-.1.2-.1.7-.2.2h-.2l-.1-.5v-.1l-.2.2-.2.4-.1.3v.2l-.4.2h-.3l-.2-.2.3-.2h-.3l-.2-.3-.1-.3-.3-.2-.5.4-.3.1v.2l.1.2v.4l-.1-.2-.1-.2V2.3h-.3l-.4.2-.2.2V3l-.1.4v.1h-.3V3l-.1-.3-.3.1-.3.5-.2.5.5.5.3 1.2.2.3v.3h-.3l.1.4.1.2.1.1V7l-.1.3v.1h.1v1l.4.3V9.5l.2.1.2.1v.1l.3.6.1.3.1.3v.9l-.1.3-.1.3v.4l-.3.3-.3.4-.1.4v1l.3.4.5.6v.2h-.4l-.5-1-.4-.3h-.3l-1.3.5.4-.4 1.3-.8h-.3l-.7.4-1 .4-.6.4.2.3.1.3v.4l.1.4.2.3.2.3.5.3v.3l-.5-.2-.3-.5-.4-.7-.4-.4-.1.1-.2.3-.3.8h-.1l-.3-.6h-.2l.2-.3.3-.2h.4l-.5-.3-1.9.6-.5.4.2.2h.1l-.2.2H113.6l-.2-.2V17h.2v-.5l-.6-1.6-.3-.7-.4-.3-1.5-.1-.4-.4-.1.6-1 .4-.4.4-.3.6v.2l.1.1.1.2v.4l-.1.5-.2.2-.3.1-.5.4-.4.5-.2.5V20l-.1.2-.3.3v.8l-.2.3-.2.2v.2l.2.2v.8h-.2l-.2-.7v-.4l-.2-.2h-2.4l.3.4 1.4-.1-.2.2-.4.2-.3.1h-.3l.1.5.2.5.2.5-.1.7-.2-.4-.5-1.6-.4-.7-.3-.4-.4-.3-.2-.5-.3-1-.1-.5-.6-.9-.2-.2-.3-.1-.5-.7-.2-.2-.6.1h-.2l-.1-.3-.2-.8-.1-.2-.6-.3-1.5.3-.6-.3h.1v-.2l-.2-.1H95.3L95 15l-.2-.1-1.3-.1h-.3l-.4 1.1v1.7l.2 1.7.4 1v.3h-.1v.3l.1.3.3.8.5.3.2.3v.5l-.1.6.1.2.5.6.2.2v-.1l.2-.4h.1v.1h.1l.1.2.3.7H96.3v.6l.5 1.8V29h-.1l-.3.3v.2l-.1.4v1l-.1.2V31.7l.1.2.3.2.1.1.2.5.1.6v.7l-.2.4h-.2l-.2-.6v-1.1l-.7-.7-.4-.7H95v-2.1l-.4-.7v-1.7l-.2-.4v-.1h-.5l-.1-.1V25.9l-.2-.5-.1-.4-.1-.4-.4-.2-.2-.6-.2-.3-.1-.1-1.1-.2-.7-.4-1-.3-.1-.3.1-.6.3-1.1-.2-.6v-.7l-.2-.7-.3-.3-.2-.1-.1-.2-.2-.2-.2.2-.2.2-.2.1h-.4l.5-.9.2-.6-.2-.2-.3-.3-.3-.5-.3-.4-.5-.1-1 1.1h-.2v-.5l.3-.8.1-.5-.8-.4-.4-.1-.2.2v.5l-.2.8-.3.3-.2.2v-1.2l-.4-.3-1.3.5-.5.5-.2.2v.4l-.3.9v.5l.1.2h.1V18.6l.2.2.2.2-.3-.1-.5-.6h-.3v-.4l.1-.2H80.6v.1l-.2.2v.6l-.4-.1-.6-.5-2 .3-.9.5-.2.3-.2.3v1l.2.4.2.2.1.3-.2.4-.3.3-.3.2h-.3l-.2.2v.3l-.1.3v.3l.8 1v.2l.5 1.2.2 1 .1.8v2l-.3 1v.5l-.2.2-.3.2h-.1l-.1-.3v-.2h.1l.2-.2H75.5l-.1-.1-.2-.3-.5-.1-.1.3-.1.7-.3-.4-.8-.3-.3-.4-.1-.4-.1-1v-.4l-.2-.3-.3-.7v-.8l-.2-.3H71.8l-.2-.4h-.4l-.6-.4-.8-.1-.2-.3v-.7l-.3-.4-.4-.4-.2-.5v-.4l.1-.1-.1-.2-.1-.2v-.3l-.2-.3-.6-1.2-.2-.5-.1-.6-.1-.3-.2-.1.1-.3-.3-.2-.3-.3-.2-.5v-.7l-.4.3h-.4l-.7-.4-.2.2-.6.7-.2.1h-.8l-.1.1-.3.4h-1.1l-.3.3.2.4v.6l-.3.6-.2.4.2.3.3.4.1.4.1.6.1 1.3.1.3.6 1.3.4 1.2.1 1-.4.4v.3l.4.4.3.7.3.8.2 1v.5l-.2.5-.1.4-.2.2-.2.2v.5l.2.5h.3l-.3.1h-.3v.1l-.2.3V35.1l-.3.4-.4.7-.2.5.2.5-.1.4-.2.5.1.6-.2-.6v-1.6l-.2-.3h-.2l-.4.4H61l-.4.1-.5.2.2.3H61l.2.6.2.1-.2.8v.5l-.2.4-.3.2H60.2l-.1-.2-.2-.2v-.2l-.1-.3-.1-.2-.1-.1-.3-.2V37l-.2-.2-.3-.3-.2.3v.5l.2.7-.4.1-.2-.3V37l.2-.6-.1-.5v-.7l.1-1.5h.1v-.5h-.2l-.4-.4-.1-.1h-.2v.4l-.3.1-.2.1-.3.2-1 1.2-1.6 1.3-.5 1v.1l-.2 1v.2l-.2.4v.2l-.1.5v1.4l.1 1.1.3 1.2.4 1 .3 1v.2L54 45l-.5-.2v-.2l-.2-.3-.4-.9-.4-1.5-.4-.6-.4-.3-.2.5v1.2l.4 2.7v.5l-.1.5-.1.2-.2.2v.6l-.3.5.1.3.3.5v.4l.1.2v.6l.3.9-.1.5-.3.2-.2-.2V51l.1-.6-.1-.7-.3-.6-.3-.3v-.2l-.1-.4-.6-1.8V43l-.2-.2v-.6l-.1-.3-.6-.6-.4-.7-.2-.2h-.7l-.5.6-1.5.6v-.3l.7-.3.8-.9.8-1.2.3-1.4-.3-1.5-.8.2-1 .8-.6.4v-.2l.3-.4.7-1.2.2-.4-.2-.4-.4-.3h-2.5l-.3-.2-.2-.2-.2-.3v-.5l-.1-.2-.2-.1-.2-.3.2-.3.1-.2V31.4l-.4-.6-.3-.3-.6-.5h-.3l.4-.3h.5l.4.2.4.6v.3l.2.5.3.5.3.2.3.5.1.2 2 .1.5-.3 1.2-1.6-.2-.2-.8-.5h-1.1V30l1.5-.6.4-.4.3-.5.7-1.7v-.3l-.7-.5.5-.3.1-.5v-.6l-.2-.7-.4-.4-1.6.5v-.2l.6-.5.2-.3-.4-.3-1.4.3-.9.4-.4.1-.3-.5h.2l1.6-.5.4-.3 2.1-.2-.2-.8-.2-.4-.4-.2-.4-.1-1.6.4-.4-.3-.3-.5v-.6h.2l.3-.3.2-.3-.3-.1v-.2l-.1-.2-.1-.3-.1-.1H44l-.5.3-.2.2.3.7V20.3l-.3.2-.2.2H43l.1-.3.2-.5.1-.4V19l-.2-.3H43l-.3.2h-.2l-.2-.1-.1-.3-.1-.7v-.7l-.2-.4v-.2l.2-.2v-.5l-.1-.4-.3-.2v-.4h.1l-1-.6h-.1l-.3.2h-.2l-.3-.4-.6-.5-.3-.1-.2.1-.2.2-.2.1-.2-.1.9-.8.1-.2-.6-1-.1-.2H38.2v.2l-.3-.2-1.1.2v-.8h-.3l-.2.5-.2.3-.1-.1-.1-.3-.1-.2h-.3l-.2.1-.3.2-.2.3-.2-.3v-.3l.3-.2v-.3l-.2-.3V9.3h.4v-.2l-.7-.1-.2-.3.2-.3-.3-.7-1.2-.7-.3-.5-.1-1-.4-.7-.5-.4-.4-.1v.3l.5.3v.8l-.2.1-1-.5-.5-.6-.5-.4-.6.2V5l.1.1-.3.3-.6.7h-.4l-.3-.1-.5-.7-.7-.3-.5-.5-.3-.1h-1.5l.7.7h.3l.2.3v.6h-.4v-.3l-.2-.4V5h-.2l-1.6.3.1.2v.1l.2.5-.5-.3-.4-.4-.5-.2-.5.4.4.5.4.6.5.3h.4l-.3 1.3h-.7l-.7-.2h-.6l-.2.3.1.3.3.2.4.6.6.3 2.4.6.3-.4h.1l.6-1.1.3-.4.2-.2.5-.2v.3l-.2.3-.2.5v.5l.1.2.6-.1.3-.2 1.2-1.3.5-.3.6-.2-.7.4-.2.2v.2l-.2.8v.2l-.3.4-.1.3v.3l.1.1.7.2.9-.1.7-.4.6-.7h.2l.3.2v.2h-.2l-.2.2-.2.2-.2.3-.3.2h-.2v.1l.2.3.7.3 2-.3-.4.3h-.7l-.7.6-.3.1h-.8l.2.5v.1l.1.2-.2.2h-.2l-.4-.5v-.1l-.1-.2v-.1l-.2-.1h-.5l-1.5-.5h-.5l-2.2.6-.7.4.6 1.7 1 1 3.6 1.6.8.9 1.3.6h.2l.4-.4.7-.3h.3l-.2.5H32l-.3.1-.3.2-.2.3-.1.4-.1.5-.2.5.4.1.3.4.3.5.2.5.1.6.1.8.2.8.3.3v.3l-.5.3-.6 2-.6.4v-.2l.2-.4.4-.7v-.5l.2-1.2v-.3h-.1l-.1.2-.1.4v.2l-.2-.2v-1.1h-.1l-.1.1H31l-.3-.5-.1-.5-.2-.4H30v1.1L29 26l-.4 1.4-.2.1-.1-.3.1-.7.8-2.1V24l.1-.4v-.4l.2-.8v-.1l-.2-.2-.5-1-.6-.6v-.2l-.2-.3v-.5l-.1-.1-1-.1h-.1l-.1.3-.2.7-.1.8V23l-.6 1.8v-.6l.1-.8v-1l-.1-1h-.2l-.2.6-.3 1-.2.3-.3.1H24l.5-.3.4-.7.4-.8.2-.9-.2-.2-.2.2-.3.4-.2.2v-.1l.1-.2-.2-.9-.1-.2-.2-.1h-.1l-.1.3-.1.3v.3l-.4.5-.8 1-.3.6h-.1l.1-.4.7-1.3.3-.5.1-.3v-1.5l-.1-.2-.3-.4-.2-.4-.1-.3h-.5l-.7 1.2-.1-.7v-.6l-.2-.7-.4-.5-.3-.3h-.4l-1.6-1.2-2.3-.7-.4.2v.5l-.2.2H15l-.3.2-.2.2-.2.4-.2.3v.2l.4.3H16l.3.2.6 1 .4.3-1.3-1.1-1-.2-1.3.1-.5.4.5.7.9.8.4.7h.2l.3.2.7.3h.4l.3.3.4 1.2.3.4v.2l-.3-.1-.3-.4-.2-.5v-.5l-.6.3-.8-.2-2.7-1.7-.7-.2-.6.3-.3.4v2l.7.9.7.6.3.2.2.3.4.2.8 1.2.4.2 1.5.4.7.6.4.3h1.2l.4.6 1.2.4-.5.2-.5-.2-1.1-.8h-.6l-1.9-.8-1 .3h-.2l-.3-.3-.4-.5-.3-.2-1.1-.3-.9-.5H11l-.6.8v1l.3 1.3.4 1 1 1 .1.3.2.2.8-.3.5.5.8.3h4l.6-.5.5-.2.8-.1-.2.3-.7.4v.3h.2l.2.2-.3.3h-.3l-.7-.3h-.3l-.4.4-1.2.2-.2-.2h-.2l-1 .3V32l.3.5.2.2.6.4.8.3 1.8-.2-.2.2H18l-.7.5h-.2v.4h.1l.2.1v.3l-.4.1-.8-.2-.2.3-.2-.3v-.2l-.7.9-.3.3-.3-.2.1-.5.2-.4v-1l-.2-.2-.4-.3-.2-.6-.2-.2-6.3-3.5H7l-.7.5.2.5V31l.7 1.2.5.8.3.3.7.3.8.5.6.2.4.4.5.4.2.6-.4-.2-1.5-.8-2.2-.5.2.5.5.7.4.7.7.8.3.2.3.3.2.4.2.4.3.1.3.1h.8l-.9.4H10l-.5-.2-.2-.3-.2-.4-.3-.4-1-.2-.6-.4-.8-1-.3-.2h-.5l-1.4-1H3.5l-.2.4-.5.3v1.2l-.1.6-.3.3-.9.5-.2.3-.1.4-.3.3-.7.4.3.6h.6l4.2-.4 2.3 1 .4.5.1-.5h.4l.2.3v.7l-.1-.2h-.4l.2.1.1.3v.8l.6.4h.7l2.7-.7.6-1h.1l.1-.1V40.6l.5.3 2-.5.8-.6.4-.2v-.1l-.1-.1.1-.2h.2l.2.3.2.2.2.1h.3l.4.3h1.2l.2-.2.4-.6.2-.2V39l-.3-.5v-.8l.2-.7.4-.2v.7l.4.5.9.4.4-.2.9-.3.3-.4v-.3l.1-1.2v-.2l.2.1.1.4v.4l.2.4.3.2.3-.3.3-.7.1-.8.6.4.2.2.2.4-.4.2-.7 1-.4.3v.3h.5v.3h.2l.5-.1h.2l.2.2v.8h.2l.3.1.3.1.2-.2-.4-2.8-.2-.4-.1-.8V35h.4l.4.2h.1V35l.2-.1.1.2-.3.7-.1.6v.6l.4 1.1v.3l.2.1H28.4l.2-.4v-.9h.2l.3.7.2.4h.2l.1-.3.3-.6.1-.3V37l-.2-.8V35.2l.1-.4.2.5.3 1.3.2.6v1.4l.1.7h.2l.9-.3.2-.2v-.3l-.1-.3v-.3h.2l.2.2.2.2.3-.1.4-.5.2-.3h.3v.3l-.2.2-.6.5v.2h1l.5-.3.5-.4 1.1-1.6.5-.1-.4.2-.1.2-.2.3V38l-.2.2h-.4l-.6.6-1.7.3-.3.3-.3.6v.3l.7.3.9.8.4.6.2.2.6-.1.1-.2.2-.3v-.3l.1-.2h.1l.2-.2.3-.3.2-.4.1-.4v-1.1l.2.2.2.9.2.3.1.1h.4l-.1-.6H38l.2-.2v.5l.3.4.5.5-.3.5-.3.5h.3l.9-.2 1 .2h.6l1.4-.5-1 .6-1.9.6-.9.6.1.1.1.6h-.2l-.4-.5h-.2v.2h.1l-.3.4-1 .5-.5.7-1.4 1-1.7.6-.4.3-.4.8-.2.2-.5-.1h-.2v.7l-.3.3-.6.3-.6.6-.2.6-.2.5.7-.3h.4l.4.3v.3H31l-.1-.1-.1-.2-.4.3-.4.1-.2.2.2.3.4.2 1.4-.2.2-.2h.2l1.1 1 4.3.8.7-.3 2.2-2v-.5l.4-.5h.7l.4.5v1.2l-.6 1.8-.2.4-.3.3h-.2l-.2.2-.2.5h.5l.3.4v.5l-.4.3-1.7.3-.4-.3-.3.3-.3-.2-.3-.2-.3-.1h-1.3l-.2.4h-.1l-1.4-.6-2-.4-1.2.3-1.3-.1-.2.1v.5h-.4l-.2.2-.4.5.4.7.1.2.2.1v.2h-.2l-.7-.7-.5-.2-.1-.3-.1-.7-.2.2-.3.1H27l.1-.2.5-.3.2-.3v-.5l-.3-.1-.2-.1.2-.3-.6.2-1.1 1.2-.7.1v.3l1.1-.2.3.2-1 .6-.8.2-.3.2-.3.4-.3-.6-.4-.4h-.5l-.4.6v.3l-.1.4-.1.2H22l-.3.1-.1.1-.2.4v1.3l-.8-1.2.1-.3.2-.2v-.2h.3l-.1-.3v-.2l.4-.3.2-.3V57l-1.2-.2-.6.2-.4.5v1l.2.5v.7l-.3.3-.3.1-.2-.2-.3.4v-.8l-.1-.3h-.2v.2l-.2.2-.2-.2v-.5l-.1-.2h-.6V59h.1v.4l-1.3-.2-.6.2-.5.9-.2.1h-.6l-.1.2-.3.4-.1.1-1.7-.3-1.2-.8h-.3l-1.6.4-.3.2-.5.7-.3.1-.3-.3-.1.3.4 1.5.2.6.3.5.6 1 .1.3v.6l.2.2h.2l.3.4 1 .6h.3l.7-.4H13l.4-.4.3-.8v-.7l.5-.6.6-.3h.2l-.2.1h-.1l-.2.2 1.7.6h.2l.2-.2.2-.1v-.2l.3-.4v-.1l1.5-.4h.8l.9 1 2 .2h1.8l1.8.1.4.1.7.6h.4v-.2l-.8-.5-.2-.2H28l.2.1.2.3.1.2v.4H27.8l.4.2 1.3-.2-.3-.2v-.3l.2-.1.4-.5.2-.2.9.3v-.2l.1-.2h.2l.2.4V64l.2-.3h.1l.2-.1-.1.4-.3.7-.1.3h.3l-.2.5H33l.3.5-.2.3v.1h-.2l.1.3-.1.4-.2.2-.3.3-.4.6-.2.1.3.4.4-.3.4-.5.5-.3h.4l.5-.3 1-.8v.2l-.5.5-1.7.9V68.5l.2.2-.2.1-.2.2-.1.3-.1.3h.3l-.4.3-.4-.2-.4-.4-.3-.2.1.3.2.4.2.2.2.1.1.1.2.3.1.3h.3v.3l-.2.3v1.1l.3.5h.3l.4-.2.7-.5v.2l-.1.4.2.1h.1l.1.2-.1.2v1l-.2.5-.2.4H34.5l.1-.2.1-.2.2.5.2.5.3.3.2.1h.1l.2-.1v-.1l.2-.1v-.2h.6l.1-.2V75l.4-.7v-.7l.1-.5.2-.4.3-.1-.2.8v.3l.1.3.2.1.3-.1.3-.4.9-.8.4-.1.4.1v-.4l.2-.2.8-.3.6-.6.1-.1.2-.2.1-.8.1-.2.2-.1.6-.7v.4l-.2.2-.4.4v.3l.4-.1 1-.9h.3l1.1.2v.3l-1.1-.2h-.3l-.3.4-.8.5v.2h1.6v.3l-.7.2.3.2.3.5.2.3h.8l.3.2h-1.3l-.2-.3-.1-.4h-.4l-.3-.1V71h-.9l-.3.4-.5.2-.5.8-.3.2v.3h.4v.1l.1.4h-.8l-1.7.9-.4.4v.3l-.2.5v.3l-.2.6-.2-.1-.2.6v.9l-.2.3.3.6.2.1h.2l.3-.2.4-.2 1.3.2-.2.1-.7.2-.3.3-.3-.2-.3.2-.5.8-.6.5-.6.4v.3l1.3.5h.7l.6-.4.2-.3.7-.5H40.4l.3-.2h.1l.2-.3v-.4l.1-.1 1.2-1 1.2-.3 2.8.1h-.1v.2l-.2.2h-.2v.3l.3.2.7-.4-.4.7H46l-2-.5h-.4l-.3.2-.6.5h.1l.2.1.3.2H43l-.7-.1H42l-.3.2-.1.2-.3.7-.3.6-.5.5-.9.7.1.5-.1.3-.5.4h.6l.1-.1.1-.1H40.8l.2.3-.1.5.3-.1.4-.1h.5l.3.2-.5.3-.2.2-.1.4.1.2h.3l.5-.3-.3.7h-.5l-.5-.2-.4.2.3.2-.2.1v.1l-.2.3.1.1.2.1H41.3l-.2.2h-.3l-.4-.2-.1-.1v-.2H40l-2.2-.5-.5.4h.5l.5.3 1 .8h-.2l-.2.2h.3v.3l-.2.1h-.6l-.3-.1.3-.2h.1l-.3-.2H38l-.3.3-.2.5.2-.1h.5l.3.3.3.3v.2l-.1.2h-.2l-.1-.2-.4.6-.4.3-1.2.2-.8.6-.4.2H35l-.4-.4H34.2l-.6.4-.7.1-.2.1-.2.2-.2.2v.6l-.2.2-.3.1h-1.5l-.3-.2-.3-.3h.2l-.2-1-.3-.8-.4-.6-.6-.3-.4-.5-.2-.1-.2.1-.2.3V91.6l-.3.7v.6l.3.4.4.3h.2l.4-.2h.1v.4h-.7l-.1.3-.3 1.3-.2.3.1.3.2.1.1.2v1l-.1.2-.1.3.1.1.3.5H28v-.1l.1-.2h.1l.3-.2 1.5.2h.1l.2-.2.3-.2.5-.2.5-.4h.4l-.2.3.3.2.3-.3.2-.4.4-.2 4 .9.8-.3h.8l2.4-1 .5.2.5.3.5.5.5.4 4.4-.6v-.2h.2l-.2-.6.3-.4.4-.1.6-.1h.7l.3.2-.1-.5-.4-.3-.8-.3v-.2l.2-.1.5-.5v-.2l.2-.2.8-.2h.3l.7.5h1l-.3.4-.7.1h-1.1l.1.7V95.7l.3.5.3.4.4.1.6.5 2 .7 1.3 1 .6.5-.2-.6.4.2.4-.1.3-.3.6-.7.3-.6V97l-.4-.2v-.2l.6.2.2.9-.2 1-.5.7v.2h.4l1-.3v.2h-.1v.3h.3v.2H58.2v.2h-.3l-.4-.4h-1.2l1.1.8.5.2.7.6.7.4v-.1l.2-.3v-1.1l.1-.1.4-.1.3-.3.4-.5.6-.9.2-.3V97.4l.2.2.1.4v.3l-.5.9 1.1.7.2.2.4.6.2.3h-.5l-.8-.9-.5-.2-1 .1-.4.3-.4.5.1.6.2.1-.2.2.2.8.5.6 1 1-.2-.6-.3-.6-.6-.7v-.2h.4l.2.1.1.5.3.5.2.3.3.3.3.3.2.5-.5-.2v.2l.3.2.3.1.2-.2.3-.4v.7h.1l.3.2h.2l-.2.3h-.5l-.2-.2.2.2 2.3 2H66.8v-.4l.1.2h.1v-.1h.1l.3.3 3.9.3-1.5-.3v-.2l1.4.2h.2l.2-.2h.2l.2.2v.1l-.1.1h-.2l.5.5 2.4.7 1.7 1.2 1.2.2.8.6h.2l2 .5.3-.4.2.2.3.1.5.2v.1H81.5l.5.2 1.2-.3 2.8.9h.8l3.1-.9 1.9-.9 3.2-.5H93.7v-.7l-.1-.5-.2-.2v-.1l-.4-.6-.1-.2v-.1l.2-.1-.1-.3h.3l1 .7h.4l.8-.2h.4v.2h-.5l-.1.3-.3.3-.1.2-.4.1-.2.3.5.7.9-.3 1-.7 1.5-.7.7-.8.5-1 .4-1.1-.2.2h-1.1V104.8H98.2l.2-.2h.4v-.3h.6v.1h-.1l.4.3.4-.3.6-1.3-.4.2-1.2-.2-.2.1-.3.3-.2.1h-.2l-.1-.3v-.3l.2-.3.3.3.3-.1.2-.4v-.6l.2-.4.2-.4.3-.2.2.2.2-.2.1-.1h.4v-.2l-.3-.3h.4l.4.2.3.1.4-.3v-.9l.4.4 1 .5v.3h-.4l-.5.2-.4.4-.2.8 2-1.4v-.5l-.1-.2.2.2h.2l.2-.4.1-.5v1l-.2.3 1.4-.4 2-.7 1.9-1.1v.5h.2l.2-.2.2-.1.6.4h.2l1 .1.6-.1.3-.4-.3-.3V98l-.1-.4-.2-.4.1-.4h.5l.3-.3-.2-.3v-1.3H113.3l.2.3v2.1l-.1.1v.2l-.1.3v.6l-.1.8h.3l.2-.2.1-.3-.2-.3V96.7l.1-.2.2.2v.4l.1.3v1.2l.2.1V96.6h.4l.2.2.5.7.3.3v.8l.1.1.2-.2V97.3h.3l.2-.2h-.1l-.1-.1-.2-.2v-.2l.2.3.3.1 2-.6 2.2-1.8v.4l-.2.2-.2.2h-.2l.5-.2.7-1 1-1 .3-.3.3-.8-.1.2-.2.2h-.2l.2-.6.4-.5.8-.6-.1.5.3-.1 1-.6v-.2h-.3V90l.2-.2.1-.1h.2l.1.4.1-.3.2-.2.3-.3.5-.6.2-.1.3-.1 1-.8v-.2h-.7l.5-.5 3.9-1.2.5-.4-.3-.2-1.3.4 1.4-1 .4-.6v.1l.1.2v.1l.5-.3.9-.3h.8l1-.4.3-.4h-.7l-.2-.2.4-.3.8.3.4-.2.2-.5.1-.6V81l-.3-.3v-.3.2h.4v-.5l-.3-.8-.2-.4-.3-.2-.5-.2-.3-.2.4.1.6.3.3.3.3.3.4.6.2.8-.1.5v.1l.2.2.4.2.2.1v-.6l-.2-.1-.1-.2v-.2l.2-.2.2.1.1.4.1.5.1.2h.7v.2l-.3.9H139.6l.1-.2-.2-.3.2-.2h.2l.2.2h.1l.2-.1.3-.5h.4l.3.3.5.6.3.2.3.2h.6l.3-.1.5-.6h.3l-.1-.4-.1-.5-.1.1h-.2l-.3.1h-.2v-.3l-.1-.3V81l.2-.1.3-.2.2-.3.1-.4h.1v.4l-.1.2v.4l.1-.4.3-.4.3-.4.9-.5.1-.2.3-.6h.1l.2-.2.3-.3h.1v-.7l.2-.1 1.6.3.4.2-.7.3-1.3.4-.6.5.4-.2 1-.4 1.6-.1V78l.2-.6V77.2l.1-.1h.1v-.2l.1-.1v-1l.5-.8v-.3l.1-.7v-.3l.2-.4 1.4-1.7.2-.4v-.1l-.5.3-1 1.4-.6.1v.3h-.3l-.3-.2-.2-.4h-.1l-.3-.4-.2-.4.2-.3h2l.2-.2.2-.2v-.3l-.1-.4-.3-.4-.6-.3-.3-.3.8-.6 2.5.8V69l-.2-.3-.8-.2-.2-.2-.2-.5-.2-.6V66.6h-.3l-.7-.5-.3-.3v-.2l.2-.4v-.4l-.2-.2h-.5l-.2-.2 1.2.2.2.2.4.8.4.4.4 1.4.2.2.3.2.6.2 3.3-.7.7-.7h.2l-.2-.5-.3-.4-.4-.6V65l.3-.2.1-.1.1-.2.5.2h1.7l.4-.1v-.4l-.3-.2-1.6-.7.4-.4 1.6.6.2-.1.4-.5h.2l.2-.2v-.3l-.2-.3-.1-.2-1-.8-2.1-.5-1-.7.3-.1 1 .4 1.4-.3 1.3.7h.8l.6-.5-.3-.5-1.5-.7-.7-.6-.2-.2v-.4l-.2-.3-.2-.3h-.2l-4.7-.5v-.3l3-.1.6-.6-.2-.1-.2-.2-.1-.3-.1-.4.5.2.8.8.8.3.5.3.2.1.2.2.2.4.1.5.1.3.3.2 1-.2 1 .3.3-.1.4-.5.3-.1V57l-.1-.3-.3-.5.3-.2.6-.2.3-.3.3-.5.1-.4v-.4zM64 110.7v-.2h-.4l-.3.1v.4l.1.4.1.3v.3h.2l.1-.1.2-.3v-.9zm27.7-89v.2l.1.2.2.2h.4v-.5l-.3-.5-.1-.2-.1-.2-.3-.4-.1.2.1.5.1.4zm9.7 79.8h-.4l-.2.2-.5.5v.2l.7-.2H101.3v.3l-.1.2-.1.1.3-.4V101.5zM97.7 1.8l.3-.2v-.4H98l-.4-.6-.1.2v.6l.3.4zm51.2 5.5h.1zm-37.9 92h1.5-1.5zm-2 0l-1 .1v.1l1.3-.1v-.1h-.3zm1 0H110.6h-.7zm4.7-.3l-.1.2-.6.2 1.5-.2-.1-.2h-.7zm2.4 0h.1zm-1.1.1l1-.2-.6.1-.4.1zm1.5-.4h-.1l-.1.2.6-.1-.1-.1h-.3zm-4.7-.4v.5l.2-.3v-.3l-.2.1zm5 0v.2h.2l.3-.4-.4.2zm.8-1.1V97.5l.9-1.2V96l-.2.2-.7.9zM30.3 55l.2-.3h.2l.9-.1v-.2H31l-.6.1h-.2v.4zm-2-3.3h.2V51.4l.2-.2v-.1l.3-.1V51h-.1l-.6.4-.1.3v.1zM155 71.5h-.4v-.1h-.1V71.8l.2.2H155v-.4zM25.5 48l.1-.1v-.1h-.2l-.2.3.2-.1h.1zm3.8 5.3L29 53l-.1.1h-.1v.3h.2v.2H29l-.1.1h.3l.1-.1v-.4zm.3-.4h-.2v.1l.1.2h.2V53h.2v-.1l.1-.1v-.2l-.1.1h-.1l-.1.1v.1l-.1-.1z" fill="none" fill-rule="evenodd"/></svg>