<svg width="113" height="116"><path d="M56.5 16.1v.1l-.3 1.1-.1 1.2.3 1 .6 1.2.7 1 .2.4.7.9-.3.7-.2 1v.9l.6.7-.3.2-.2.3-.2.4-.1.8-.2.3-.5.6v.3l-.1.6-.7 1-.5.4-.3.2v.4l-.1.3v.4l-.2.2-.3.3h.3l.8-.8.3-.5.5 1 .3.2.4-.6h.2l.1-.1v-.3h.2l.3-.1h1l.2.2.2.2.2.6.2.2h.4l1-.2h.3l.4.6.4 1.7.7.6H64.2l.1.2v.4l.2.2.6.3v.3l-.2 1 .3-.3.4-.1.4-.1.3-.1.4-.3.4-.3.3-.2h.7l.6-.3h.1l.1-.4h.5l.1-.6.3.2.6.9h.3L72 36l.3-.2.2-.5-.1-.6-.2-.4-.1-.5.1-.3.3-.4.5-.6.2-.2h.5l.2-.3.1-.2v-.6l.1-.2.2-.2.8-.4.4-.5.3-.5.1-.6v-.6l-.1-.1h-.1l-.1-.1v-.4l.2-.2v-1.2l.2-.5.8-.9.2-.5 3.2.2-.1 1 .1.7.6.7.8.6.9.5 1.1.6.5 1 .5 1.9.4 2.6.1.6.2.3.5.6.1.4.3.9v.2l.4.4.1.2v.7l.1.2.4.4.2.2v1l.5 2.6v.6l-.2.3-.6.4-.1.2v1.4l-.4.8.1.2.3.1v.2l.1.3v.4l-.3.8-.3.8-.4.6-3 3.4-2 1.5-.3.5-.5.2-.2.4v.2h-.5l-.1.1-.7.9h1.4l.3.1.3.3.8 1 .5.3.4-.3.2-.5.1-.5.1-.3.2.2.3.4.9.4.3.4v.2l-.2.2-.1.4v.3l.3.5v.2l-.1.2-.3.2v.1l.3.4.3-.3.3-.2h.3l.3.2.4-.3h.3l.2.4.3.2h.2l.1-.2.2.1.2.3v.4l.3.2 2.1.4.3.2.3.1.2.2h1.1l.6-.4.3-.1 1.3-.2h.7l.5.1.4.3 1.8.4h.5v.1l.1.3.1.1 1.2 1 .5.5v.4l-.3 1-.1.6-.1.6v.6l.4.4v-.2l.2-.1H100.5l.3.2v.2l.2.6v.1h.2l.2.2V70l-.3.1v1.1l.3.5 1 .5.4.3.5.7.4-.2.3-.5.3-.4.2.2.3.3.4.3.5.1v.1l.6.3.6.3.2.2-.3.2.3.2.3.5h.5l.4-.4h.2l-.1.4h.4l.2.4.1.4.3.2.2-.2.1-.5.1-.8.9.4.1 1-.2 1.1v1l.5 2.1 1 2 .3.3h-.6l-.2.3.2.5.3.5h-.7l.3.3-.1.2-.3.3-.2.4v1l-.1.3-.4-.2v.4l.1.5.2.5.2.3.4.3h.5l.2.5v.8l-.1.3-.4.4v.2l-.1.5-.2.1-.2.2v-.4l-.2-.1V90l.1-.1v-.1H110.9l-.7.4-.2.2-.1.3-.3.9.2 1.3v.4l-.2.5-.7 1.3-.4-.1h-.5l-.4.2-.3.5-.1.4.2 1.6v.6l.2.4.2.3.2.5v.5h-.1l-.3-.2h-.3l-.9.6v.3l.2.8v.3l-.2.6v.2l.2.3.2.2.2.2.2.2v.2l.1 1.4v7.3l.2.6v.5l-.3.5v.3l.1.3 1 .6-1.5.2-.4-.1-.6-.3h-2.3l-.2-.1-.1-.2v-.2h-.2l-.5-.1-1-.4-.4-.2-.3-.3-.1-.3-.2-.4-.2-.3-.9-.2-.6-.6h-.3l-.5-.1-.2-.2-.2-.1-.3-.2-.5-.2-1.2-.3-1-.2-1.6-.6-3.3-.4-1-.4-1.2-1.2-.4-.3h-.5l-2.8-1-3-2.2-1.7-.9-3.8-1.4-.8-.4-2-1.6-.6-.5-.9-.4h-.3l-.5-.3h-.8l-.7-.3-.7-.3-.4-.4.1-.1-1.2-.4-1-.5-1.5-1.4-.4-.3-1-.4-.8-.6-.5-.2-.5-.2-.3-.5h.3l-.3-.5-.6-.3-.6-.2-.5-.3-3.2-3-.2-.4-.3-1-.2-.5-.3-.2-.4-.3-.5-.3h-.4l-.1-.1-.8-.2h-.1v-.2l.2-.5.1-.2-.4-.7-2.8-1.5-4-3.8-3.7-3-1-1.2-.1-.1-.5-.3-.2-.2v-1l-.2-.4-.5-.3-.4-.3h-.5L38 72 36 70.5l-1-1.2-1.5-.9-.5-.2-1-.2-.6-.3-.2-.3V67l.3.2h.2l.2-.1v-.3l-.5-.1-.3-.3-.4-.4-.4-.3-.9-.6-.4-.1h-.6v.1l1.4.8.7.5.2.6-.4-.5-.8-.5-.9-.3-5.5-1.4-3.5-1.8-.5-.5.2-.4v.2l.2.2h.2l.3.1-.4-.7-.1-.7.3-.6.6-.6h-.7l-.2.2-.2.2-.7-1.3-.9-1-1-.7-4.3-2.3-5-1.7-3.2-1.5-.6-.7v-1l.1-.7V48.4l-.3-.7v-.1l-.6-.2-.5-.3-.5-.4-.3-.3-.7-1 .9-.3.2-.2v-1.1l.8-.4.3-.5.1-.5v-1.1l.7-.1H4L4 41v-.6l-.4-.7V39.4l.5-.5 1-1.5h.4l2.3-1L8 36l2.3-2.9 4-3.2 1.1-.6 1-.2.4-.2.3-.2 4-4.8 1-.9 1.3-.7h.2l.6-.2v-7.1l.3-.2.7-.4.3-.3.6-1.2.4-.5.7-.3H30l.6-.2.5-.1.5-.3.7-.7v-.5l-.1-.5L32 9v-.6l.5-1 .9-3.4V2.7h.6l.5-.3.2.5.5-.3 1-.9.4-.1h.4l1.6.4.4.2.2.4-.3 1.3.1.4h1l1-.7 1.1-.8.5-.2.4-.2h1.2l.3-.2.2.1v.1l.2.2h.3l.5-.3.6-.2V1.5l.2-.3.2-.2V.5h.5l.3.4.2.5.2 1.2v.5l.4.5.3.4h.1v-.4l.1-.6.4-.4h.5l.5.3.4.3.1.6-.2.3-.3.3-.3.3v.5l.2.1h.4l.5-.1h.4l.2-.1.2-.2.2-.2.2.1.3.5L54 6l.5.4.2.2h.1l-.3.2h-.1L54 7l-.2.1-.3.3.3.3.1.3.1.3.2.2.1.1v.2l-.1.2-.3.5-.2.7v.8l.5.3h.6l.3.2.1.4v.3l.5 2v.2l-.4.5v.3l.3-.3.3-.3h.3l.3.4.2.3v.6l-.2.2v.1" fill="#7F807C" fill-rule="evenodd"/></svg>