<svg width="108" height="115"><g fill="none" fill-rule="evenodd"><path d="M56.4 75.8V64.7h-30v.1l-.2.3V65.4l-.2.8-.4.8h-.1v.2l-.5.8-.1.3-.2 1-.2.4-.1.6-.2.4-.4.8-.4.4-.8.6-1.2.8-.7.4h-.1l-.8.1-.1.1v.1l-.2.1v.2l-.6.5-.4.2h-.3v.1l-.4.5-.1.3v1l-.1.1-.1.4v.2l-.2.3-.5.7-.3.7v.2l-.1.2v.3l-.3.5v.1H16l-.3.5-.2.7v.2l-.3.8v.9l.1.2v1.4l-.2.3-.1.5v.4l-.2.2-.3.2-.1.1-.2.2v.4l-.3.2h-.4l-.2.1h-.1l-.1.2-.2.2-.2.2-.5.7-.3.4-.6.5-.1.2H11l-.3.3-.2.2-.3.4v.1l-.2.2h-.2l-.2.1v.1l-.4.2h-.2l-.5.5-.2.2v.1l-.4.6-.3.5-.2.2v.2h.1l.3-.2v-.2l.1-.1v-.1l.2-.2V93h.1V93l.2-.1H8.8l.1-.2V92.4h.2v.8l-.1.1-.1.2-.1.1V94h-.1v.1h-.2v.1l-.3.4-.2.4-.1.2-.1.1-.1.5-.3.5-.2.1v.1l-.5 1.2-.4.3-.2.3v.2l.3-.1h.1v.7l-.3.3-.2.2h-.2l-.1.1-.1.2V100.1l-.1.2-.1.1v.3l-.1.1v.6l-.1.5-.1.1-.3.3-.1.1v.1l-.2.9-.2.2v.1l-.2.1-.7.3h-.1v-.1H3l-.2.1-.1.1-.1.3h-.2V104.9h-.1l-.3.3-.7 1.5v.4l-.2.3V108.2l-.1.2v.6l-.3 1V111l-.4 2v.4l-.1.2V114H.1v.2l.2.4.1.1-.1-.7v-.2l.1-.7v-.2l.4-.8v-.7l.2-.6H27.6l-.3-4.8-.3-3.6v-.4l-.4-1v-.9l.3-.5.5-.8.2-.1.6-.5.9-.6.7-.5.4-.3h.4l1.1-.3h.3l1.4-.7.7-.2.1-.1V77h22.2V75.7M105.4 26l-.4-.1-.3-.2-.9-1.5.3-.2.1-.1V23l-.3-.2-.2-.1v-.2l-.2-.3-.1-.2-.3-.3-.1-.3v-1l.2-.2V20l.2-.2v-.4l-.3-.8-.1-.1-.3-.1v-.1l-.1-.1v-.2h.2v-1.4l.3-1.3V15l-.5-1.5-.2-.4-.2-.3.7-.9H102.6l-.8-.9v-.1l.4-.6.1-.3.1-.1v-.2l-.8-.4-.2-.2-.4-.3-.1-.2v-.2h-.4l-.2-.2-.3-.2-.2-.2h-.2l-.1-.2v-.6h-.3l-.1-.1h-.2l-.1-.1-.7-.3H98l-.1.2-.2.1-.1.1h-1.2l-.3-.1-.3-.2-.3-.3V6l-.4-.4H95l.1.2.5.6.3.2h-.5l-.2-.1-.2-.1v-.2h-.1V6l-.1-.2v-.2l.1-.2-.1-.1H94.5V4h-.1v.1l-.2.3-.3.6-.2.2H93.3l-.3.3-.2.1-.8.3H91l-.2-.2h-.5l-.2-.1-.2-.3h-.2l-.1-.1h-.2l-.2.2V6h-.9v-.1l-.1-.2-.1-.1-.3.1-.5.1-.6.3-1 .2-.3.2H85l-.8-.2-1-.2-.9-.3-.2-.2-.4-.3-.3-.1-.1-.1-.2-.3-.2-.2h-.2v-.1h-.2l-.1-.1-.6-.8-.2-.3-.3-.2-.2-.1v-.2l-.2-.4V2H79l-.1-.2v-.4l-.2-.4V.8l-.1-.2-.1-.1-.1-.2V.1h-.4l-.1.1-.2.1-.2.3-.1.1-.4.3-.1-.1H76V1l-.2.2h-1v.1l-.1.1v.2l-.1.4-.1.2v.1l-.2.5-.2.3v.5l-1.2 3-.6 2-1.5 3-.1.3-.1.3v.2l-.8 1-.5 1-.5 1-.8.8-.6.5-.3.1-.2.2h-.4l-.2.2-.3.1-.2.2-.6.4H65l-.2.2-.2.1-.2.3h-.1l-.2.1-.1.1h-.2l-.1.1h-.4l-.2.1-.1.1-.1.1h-.2l-.2.2-.5.1h-.1l-.2.3h-.1l-.4.1-1 .4-.8.3H59l-.2.3-.4.4-.3.2-.2.2h-.4v-.1h-.1l-.6.7v.5l-1 .9-.7 1-.2.2-.7.5-.7.9-1 .8-.1.2v.4l.1.1v.4l-.2.4V28.8l.1.1V30l-.1.2-.3.3v.5l-.1.2-.1.1-.8.8v.2l-.1.1-.2.1-.3.5-.6.6v.2l-.2.6v.2h-.1l-.1.2v.1l-.2.2-.2.6-.2.2-.2.3v.1h.2v.8l-.1 1-.1.3v.3h.1V40.6l.1.1V41l-.2.3-.1.2-.2.3v.3l.1.1H48.7l.5.4.1.2.1.1h.1l.1.3.2.4v.1l.2.1v.1l.2.1v.4l-.2.5v1l-.1.2-.5 1-.6 1.2-.9 1-.3.4v.2l-.4.3-.1.2v.4H47l-.3.5v.1l-.3.2v.2l-.2.2-.1.2-.2.3-.3.2h-.2l-.1.3-.7 1-.9.8-.2.2-.6.3-.4.3-2 1-.2.2-.1.2-.3.2v.2h-.1l-.3.2v.1l-.4.4-.4.3V58.6h-.2v.2l-.2.1-.3.4-.1.3-.2.1-3.5 1.5h-.1v.1l-.2.2-1.9.3-1.2.4h-1l-1.2.2-.6.2-.1.1-.1.1v.2l-.3.5-.2.5-.1.1h-.3l-.2.3h-.2v.1l-.1.2h30V56.8l.2-.1.8-.5.3-.2.3-.2h.1l.2-.5h.1l.3-.2.5-.4.5-.4.7-.3.3-.1.6-.6.7-.5.4-.4.3-.1.1-.1.4-.4.2-.1h1.1l.5-.5.5-.6v-.1l1.1-.6h.3l.8.1h.8l1.1.3h.5l.5-.3.1-.2v-.1l.1-.2v-1l.1-.1H71.2l.2.1H72.8l.1-.1.1-.1.3-.1h.3l.2.1h.3l1.7-.3 1.3-.2.4-.2.2-.1.6-.4.5-.3 1.1-1.3.3-.4.5-1 .4-.7.1-.2.2-.1 2.3-.9h.4l.5-.1.8-.5.7-.3.2-.2 1-1 .2-.1 1-.2h1.1l.3-.2.2-.3v-.7H90l-.3-.2-.3-.4-.2-.1-.3.2h-.2V37.8l.1-.2v-1l.4-.3V36H89l-.3-.2h-.2v-.2l-.1-.2v-1.3l.2-.2.2-.2h.8l.6.2.3.1h.2l.7-.4L94 33l.3-.3v-1l.2-.5.4-.2h1.3l1.2-.4h.6l7.8.4h.3v-.6H105.4v-.1l.1-.1.1-.2.1-.9.1-.3.1-.1.1-.2h.4l.2-.2.3-.1.3-.5v-.1l-2-1.5"/></g></svg>