<svg width="59" height="116"><path d="M40.4 11.7v.2l-.1.1v.5l.2.1H40.9l.3.1h.2v.1H41.7V12.4h-.1l-.1-.2.1-.2v-.5l-.2-.1V11l-.1-.1H40.9v.6h-.2v-.1h-.4v.2zM54.5 40V40.3l-.1.2-.6.8-.1.3h-.1v.7l-.3.4v.4l.2-.2.2-.5.3-.3.4-.9.2-.6.3-.6v-.2l-.3.1v.1zM58.7 28v-.3l-.1-.2h-.1l-.2-.1v-.1l-.1-.3v-.1l-.5-.5-.1-.2-.6-1.3v-.5l-.1-.2h-.1V24l-.3-.2.1-.2v-.5l-.2-.5v-.9l-.1-.4v-.5l.2-.6v-.3l-.2-.2-.2-.2V18l-.1-.6-.1-1.6v-.3l-.3-.4v-.6h-.1l-.1-.1v-.5h-.1l-.1-.2-.1-.2-.1-.5v-.7h-.4v-.7l-.3-.3V9.6l-.2-.2v-.1L54 9h-.1l-.1-.1h-.1l-.1-.2v-.1h.1v-.2h-.2l-.2-.1-.1-.3v-.3l-.3-.2-.2-.1v-.1l-.1-.1h-.1l-.1.3-.1.1v.1H52l.1-.3V7l-.1-.2-.2-.1-.1-.2H51.4l-.1-.1V5.2v.3l.1.2.1-.1v-.4l-.3-.5-.1.2H51l-.1-.2-.2-.1v-.1h.4v-.2h-.2V4H50.5l-.2.1v.1-.2l-.2-.2v-.4l-.3-.4H49.6v.2l.1.2v.1h-.4v-.2h-.1l-.1.1H49V3h-.4l.1-.3v-.4h.2v.2l.1.1h.1l.1-.1h.1l.4.3v-.1l-.1-.3v-.7l-.2-.2V1.3l-.1-.1-.2-.3h-.4l-.3.3v.2h-.1v.1l-.1.1h.2v.2l.1.2V2l-.3-.3-.2-.1v.1l-.4.1-.1.2h.4v.1H48.3l.1.1v.2h-.1v.1H48V3.3l-.1.1h-.4l-.1.3H47.2l-.1.1H47V4h-.4v.4l-.1.2V5h-.1v.2H46l-.3-.4-.1-.2H45l-.2-.1-.2.2-.1.1.3.2v-.2l.1.1.1.3.3.3v.4l.2-.1h.2v.6h-.1v.2h.1l.2.2v.5l.1.2.2.3v1h-.1L46 9H46v.2l-.1.2v.1l-.3.3-.1.3-.2.6v.5l.1.2v.1l-.2.4-.2.2.2.2-.2.2-.3.3-.3.1-.3.1h-.5L43 13l-.2-.1v-.2l-.1-.1v-.1h-.2v.4l.2.3v.2l.2.3h-.2l-.1-.1v.1h-.5l-.1.2H42v.2l-.1.2-.2-.4H41.4v.2l.2.3v.1l-.2.3V15.8l-.3.1H40.5l-.2-.2-.1-.2.1-.2h-.1V15l-.2-.4v-.2l-.1-.1-.1-.1-.3.1V13.7H39l.2.2H39v.2h-.2v-.2h-.1v-.4l-.2.1v.4l-.1.2H38l-.1.1v.3l-.1.1v.3h.2v.2l-.3.2v.9l.3.4v.1l.4.1.4.3v.1l-.6.3.3.3.1.1.4.1v.7l-.2.3v.4l.1.2v.1h-.2v.4h-.2v-.9l.1-.2V19h.1V18.6h-.1v-.1l-.4-.3H38l-.1.1h.2v.3l.2.2v.5h-.1v.2h-.7l-.3-.2H37l-.1.1v.5h-.1l-.2.1-.2.3v.2l-.1.3v.5l.1.3.1.1V22.2l.1.3v.1h.2v-.1l.3-.3v.1l.1.1.2.1h.2l.3-.2h.2l.1.1.2.2.2.1.2.1V23.6l-.2.2V23l-.2-.2h-.2l-.2.1v.1l.1.2V23.4l-.1-.1v-.2l-.1-.2h-.3l-.2-.2-.4-.5v.2H37l-.1.2h-.1v.2l-.1.1-.2.2-.2.1V23.6l-.3.3v.1l-.1.2-.6 1.1v.4h-.1l-.3.2v.2l-.2.2v.3h-.2l-.2.2H34v-1.4l.2-.2.5-.6V24.2l-.1-.2v-.5l-.2-.3V23h-.2l-1 1.1-.2.4v.2H33.4v-.1l.2-.1.1.2v.2l-.3.1h-.2l-.1.2-.4.3-.1.2-.2.5-.3.2-.4.3-.2.2-.2.3-.1.2v.2l.2.1v.2H31.7v.4h.2v-.1h.1l.2.6.1.3H32.6V29.5h-.1l-.3.2-.3-.1h-.2l-.3.2h-.2l-.3.1h-.2v.1l-.1.3-.1.1-.1-.2v-.3l.4-.7h.1l.1-.1.1-.1.2-.2V28.4l-.4-.1v-.1h-.2V28l-.1-.2V27.5l-.1-.1h-.2l-.2.1-.3.1-.6.6-.8.6-.5.1v.2h.2v.1h-.5l-.2.2-.1.1-.3.3-.3.2v-.1h-.3l-.5.6-.3.3-.2.2v.3l-.2.2v.2H25.5V32l-.2.3v.1h-.1v.2H25.9l.3.4h.2l.2.4v.2h-.2l-.1-.2-.2-.2h-.2v.5h-.1l-.2-.2-.1.2v.2l-.2-.2-.1-.2-.3-.5v-.2l-.2-.1-.2-.2h.2V32.1l.1-.2v-.2l-.1-.2H23.7l-.2.1-.2.1-.1.2-.2.1-.1.2v.2l.2-.2h.2v.1l-.1.1v.4h-.1l-.2-.1h-.4l-.1-.2v-.4H21.7l-.5.3h-.1l-.3-.2h-.6l-.3.1-.2.3V33h.1v.5l-.1.2h-.1v.8h-.1v-.2h-.2v-.7H19l-1.3.2v.4h.2v.2l-.1.2h-.3v.2h-.1l-.1.2H17v-.7l-.1-.5V33.5h-.1l-.3.1-.5.2-.2.2-.2.1-.2.3-.3.4-.1.2-.3.2-.4.2-.3.1H14l-.1.1-.1.2h-.1l-.1.1h-.2l-.1-.1-.2-.2h-.3l-1.8-.1h-.6v.2h-.1v.6l-.1.1v.1l-.2.1v.8l.4.4v.7l-.1.2v-.2H10v.5l.1.3v.5l-.2.4-.3.3-.2.3-.2.3v.2l-.2.1v.1l-.1.2-.3.3-.3.8-.2.3H8v.5l-.1.1-.2.2-.6 1v.2h-.2l-.2.4-.4.6v.3l-.2.5v.4l.6.8.1.3.2.2v.5l-.2 1v.6l.3 1.6v1.9l.6.8.5.8.4 1 .2.6v.6h-.1v1l-.1.5v.3l.2.3.7 1 .2.2v.3l.5.4.1.3.1.3.2.5v.5h-.3v.4h-.1l-.2.2v.8l-.1.2-.2.3v.2l.1.2.1.1.1.1h.2l.1.1v.2h.2v1.3l-.2.3-.2.2-.5.5-.2.2-.6 1.2v.6h-.1l-.4.4v.1l-.3.5V71.4l-.2.3-.2.4v.4l-.1.3-.5.8-.1.2h-.3l-.1.2-.5 1-.3 1.6-.3.8v.3l-.1.2-.2.2-.3.2H3.4v.2l-.3.1-.2.2v-.2l-.1.2-.2.4v2.5H2l-.6.7v.1l-.1.4v.8l-.2.2v-.5H1V83.8H1v.4H.8v.4l-.2.2v.9l.1.3h.3v.6l-.2-.1H.7l-.1.1V87.4l.3.4v.4l.2.8v.8l.1.2.1.4.1.2v.5l.2.2v.4l.1.3.2.2.3.3.1.1.1.1.2.3v.1l.6.4.2.3.1.3.1.7v.8l.1.3v.2H4v.1H4l.4.4.1.2.2.1.1.2V97.4l-.2.1v.2l.1.2v.2l-.1.2-.5.2-.2.2V99.6l-.2.1.1.2.1.1v.4l.2.2v.2l-.1.2.1 1-.1 1.4.1 1.3.3.6.3.3.5.4.3.2v.3l.1.1.4.5.1.1V108.6l.7.8V110.3l.2.2.6.5H8l.2.1.5.6h.5l.1.1h.1l.1.2.3.2h.2v.2H9.7l-.3-.3-.1-.1-.2-.1v.2l.3.3.2.3.1.1 1.2.2h.8l.9.2.3.1.5.3.6.4.2.1v.3l.2.1.2.2.9.3.2.2v.1l.1.4h.1l.2.1h.2l.1-.1 2.3-.1.5-.1.4-.4h.4l.1-.2.8-.8 1.2-.6 1-.5 1.5-.7 1.2-.3h1.8l.3.2.6-.2h.1v-.1H29l.2-.2.3-.2h.1l.2-.2.5-.3.2.1.4-.4.3-.3h.1l.2-.1.1-.1v-.7.1l.1.2.2.2v-1.1l.5-.3v-.5l.3-.4.6-1.7.3-1.4-.2-.4v-.1h.3v.1h.1l.5-1.4.1-.3V102.2h.2v-.1l.2-.1.2-.3.4-1.2.4-1.8v-.2l-.2-.1h-.1V98h.2l.1.1 1-2.9.1-1.2.3-.9.3-1v-.7l.2-.6.3-2.2.3-.6.1-.6 2-4.7 1-3.3.2-.2.1-.3.1-.7v-.4l.4-.7v-.6l.1-.1.1-.3v-.1l.1-.1v-.2l-.2.1v-.2l.2-.2v-.1l.8-3 .7-2 .4-1.2.7-1.4v-.2l-.2-.3v-.1h.1l.1.1v.1l.3-.7v-.5l.3-1.4 1-2.6.8-2.6.3-.4.6-1.5.4-1.5.5-1 .1-.6h.1l.2-.3.2-1.7.3-.5.1-.1V51.7H50v-.5l.3-1.2.3-1 .1-.6v-.5l-.4-2.1-.2-.4v-.7l.4-1 .4-1 .5-1.1.1-.1.1-.1H52.3l.2-.2h.5l.2-.2.3-.1H53l-.2-.1-.2-.2-.1-.1V39.9l.3-.3.2-.2.4-.8v-.4l.1-.2v-.4l-.2-.2v-.6l.1-.8v-.2l-.2-.3-.2-.1-.5-.2-.2-.2-.1-.2V34l.2-.5v-.1l.1-.1v-.1l-.1-.3-.1-.2v-.4l-.2-.3v-.3H52l-.1-.2V31l-.1-.5v-.2l.4-.7.2-.1.2-.1H53.6l.2-.2h.1l.1.1v1.1l.2.3h.2v.1l.2.2-.1.2v.6l.1.1.1.1.1.1h.1v.5l.2.3.1.2.4.3h.2l.1.1.2.4h.4v-.1l.2-.1.2-.5.5-.7V32l.8-1.4V30.4l.2-.5v-.2l.2-.2V28.6l.1-.1v-.7z" fill="none" fill-rule="evenodd"/></svg>