<svg xmlns="http://www.w3.org/2000/svg" width="171" height="115" fill="none"><path fill="#CCC" d="M109 113H109.4v-.1h.1v-.1h.1v-.1h.1v-.1.1h-.1v.1h-.2v.1h-.4l.1.1Zm-.4-.5v-.2h-.1v.1Zm-5.2-10V102.9h-.2v-.1h-.1v.2h.2v-.2l.1-.1v-.1h-.1Zm-.4 0h.1l-.1-.1Zm14.5-1.8h-.1v-.1h-.1v-.1.1h.1v.1Zm.7-1.1v.2h-.1v.4h-.1v.6h-.4v-.1h-.1v.1h.1v.1H118v-.4h.1v-.4l.1-.1v-.2l.1-.1v-.1Zm24.6.2v-.1h-.1v.1h.1v.1h.1v.1h.1-.1v-.1h-.1v-.1Zm-.1-.1v-.2h-.1v.1Zm-.3-.6V99h-.1l-.1-.1h-.1v-.1h-.1v-.1h-.1.1v.1h.1v.1h.1v.1h.1v.1h.1V98.7v.2Zm-23.5-.5h-.1v-.1h-.1v-.1h-.1v-.1h-.1v-.1h-.1.1v.2h.1v.1h.2v.1h.1Zm20-.5h-.1v-.2h-.1v-.2V98h.2v.1Zm1.6.1h.1v.2h.1v.1H141.7v.1h.2-.2v-.1H140.7v-.1h-.1v-.1h-.1v-.1H139.6v.1h-.1v.1H139.2v-.1h-.1v-.1h-.2.2v.1h.1v.1h.4v-.1h.2v-.1h.5Zm-24.2 1.2h-.1v-.1h-.1.1v.1h.1Zm2.6-.3H118.5v.1h-.1v.1h-.1v.1h-.1v.1-.1h.2v-.1h.1v-.1h.2V99h.1v-.2.1Zm-1.5-1.5V97.2h-.1v-.4.1h-.1v.2h.1V97.6l.1.1Zm21.2-.3v-.6.5Zm-21.7-.8v-.2h-.1v.2Zm23-8.4h-.1.4V88H140.6v-.2h.1v-.2h-.1.1V88H140.2v.1H140Zm-2.9.3V88h-.1v.2h.1v.1h.1v.2h.1v.2h.2v.1H138.4v.2h.2v.1h.2v.1h.2-.2v-.1h-.2V89h-.1V89h-.2v-.1H137.3v-.1h-.1v-.1l-.1-.1v-.1h-.1v-.1Zm2 .2v.1h-.1V89 88.6h.1v-.1h.1v-.1h.1v-.2h.4v-.1h.1-.4v.2h-.1v.1h-.1Zm-4-.5h.2V87.7h-.1v-.1h-.1.1v.1h.1v.2h-.2Zm-2.5-.2H132.9v.1h.2v.1h.2l.1.1h.2l.1.1h.7v-.1h.4V88h.2-.6v.1H134v.1h-.6v-.1h-.2V88H132.8V88H132.5v-.1h-.2v-.1H132v-.1h-.1v-.2h-.1v-.2h-.1v.2h.1v.1h.1v.1h.2v.1H132.6v.1Zm5.4-1.6v.1h-.1v.1-.1h.1Zm-28.4-.3v.1h.7-.7Zm-.8-.2h.2v.1h.5-.6v-.1h-.1Zm-.5-.3h.2v.1-.1H108h.1Zm-.7-.7v.2h.1v.1-.7h-.1v.4Zm4-1.5v-.1h.1V83h-.1v-.1h-.2.2v.1h.1v.2l-.1.1Zm-7.1-2H104.8 104.3Zm-.5-4v.1-.1h-.1Zm-2-.4v.1ZM96 76v-.1H96Zm37.7-4v-.1h-.1v.1h.1Zm-34.3-.4v.2h-.1.1v-.2Zm0-.5v-.5h.1v-.1V70.8l-.1.1V71.2 71Zm33.6 4.9v-.1h-.1Zm-3-6h-.2v.1h.1Zm-49.9-.3H80h.1Zm10.5-3.9v-.1h-.1v.1Zm6.2-.8h.1v.1-.1h-.1Zm27-.6h.1v.2-.1h.1v-.1h-.1Zm-90.5-3v-.1H33 33.3Zm81.4-.6h.2v-.1h-.2v.1Zm-32-2h-.2.1Zm29.3-.1v-.1h-.1v.1Zm-.2-.2v.1Zm-29.3-1h.1V57h-.2v.1h.1v.1Zm47.7-1.2V55.8h-.1V56.3Zm-39.4-9v.1h-.1.4l.1-.1V47v.1H91Zm29.2-.6h.2v-.1h-.1v.1h-.2.1Zm-73.6-1.2h.1v-.1h.1v-.1.1h-.2v.1Zm31.7-1.7v-.1h.1v-.1.1Zm0-1v-.2H77.8h.2v.1Zm-32.5-.5V42h-.1v.1h.1ZM112 12v.2h-.1l-.1.1h-.1v.1h-.1.2v-.1h.1v-.1h.1V12Z"/><path stroke="#FF0505" stroke-width=".5" d="M119 98.7h-.1v-.1h-.2v-.1h-.1v-.2h-.2v-.1h.1v.1h.1v.1h.1v.1h.1v.1h.1Zm16.2-10.8v-.1h-.1v-.1h-.1.1v.1h.1v.2h-.2m.2 0Zm0 0h-.2m0 0h-.1l-.1.1H134.4v.1h-.5v.1h-.6v-.1H133V88h-.2V88H132.5v-.1H132.2v-.1h-.2v-.1h-.1v-.1h-.1v-.1h-.1v-.2h.1V87.7h.1v.1h.2v.1H132.6v.1H132.9v.1H133.2v.1h.2v.1H133.7v.1h.6v-.1h.5V88h.2Zm-11-23.8.1.1v.2h-.1v-.2ZM78.1 42.7v-.2h-.2.2v.1Zm31 70.3h.2v-.1h.1v-.1h.1v-.1h.1v-.1.1h-.1v.1h-.2v.1h-.4l.1.1Zm-.5-.5v-.2h-.1v.1Zm-5.2-10V102.9h-.2v-.1h-.1v.2h.2v-.2l.1-.1v-.1h-.1Zm-.4 0h.1l-.1-.1Zm14.5-1.8h-.1v-.1h-.1v-.1.1h.1v.1Zm.7-1.1v.2h-.1v.4h-.1v.6h-.4v-.1h-.1v.1h.1v.1H118v-.4h.1v-.4l.1-.1v-.2l.1-.1v-.1Zm24.6.2v-.1h-.1v.1h.1v.1h.1v.1h.1-.1v-.1h-.1v-.1Zm-.1-.1v-.2h-.1v.1Zm-.3-.6V99h-.1l-.1-.1h-.1v-.1h-.1v-.1h-.1.1v.1h.1v.1h.1v.1h.1v.1h.1V98.7v.2Zm-3.4-1h-.2v-.2h-.1v-.2V98h.2v.1Zm1.5.1h.1v.2h.1v.1H141.7v.1h.2-.2v-.1H140.7v-.1h-.1v-.1h-.1v-.1H139.6v.1h-.1v.1H139.2v-.1h-.1v-.1h-.2.2v.1h.1v.1h.4v-.1h.2v-.1h.5Zm-24.2 1.2h-.1v-.1h-.1.1v.1h.1Zm2.6-.3H118.5v.1h-.1v.1h-.1v.1h-.1v.1-.1h.2v-.1h.1v-.1h.2V99h.1v-.2.1Zm-1.5-1.5V97.2h-.1v-.4.1h-.1v.2h.1V97.6l.1.1Zm21.2-.3v-.6.5Zm-21.7-.8v-.2h-.1v.2Zm23-8.4h-.1.4V88H140.6v-.2h.1v-.2h-.1.1V88H140.2v.1H140Zm-2.9.3V88h-.1v.2h.1v.1h.1v.2h.1v.2h.2v.1H138.4v.2h.2v.1h.2v.1h.2-.2v-.1h-.2V89h-.1V89h-.2v-.1H137.3v-.1h-.1v-.1l-.1-.1v-.1h-.1v-.1Zm2 .2v.1h-.1V89 88.6h.1v-.1h.1v-.1h.1v-.2h.4v-.1h.1-.4v.2h-.1v.1h-.1Zm-1-2.3h-.1v.1h-.1v.1-.1h.1Zm-28.5-.3v.1h.7-.7Zm-.8-.2h.2v.1h.5-.6v-.1h-.1Zm-.5-.3h.2v.1-.1H108h.1Zm-.7-.7v.2h.1v.1-.7h-.1v.4Zm4-1.5v-.1h.1V83h-.1v-.1h-.2.2v.1h.1v.2l-.1.1Zm-7.1-2H104.8 104.3Zm-.5-4v.1-.1h-.1Zm-2-.4v.1ZM96 76v-.1H96Zm37.7-4v-.1h-.1v.1h.1Zm-34.3-.4v.2h-.1.1v-.2Zm0-.5v-.5h.1v-.1V70.8l-.1.1V71.2 71Zm33.6 4.9v-.1h-.1Zm-3-6h-.2v.1h.1Zm-49.9-.3H80h.1Zm10.5-3.9v-.1h-.1v.1Zm6.2-.8h.1v.1-.1h-.1Zm-63.5-3.7H33 33.3Zm81.4-.5h.2v-.1h-.2v.1Zm-32-2h-.2.1Zm29.3-.1v-.1h-.1v.1Zm-.2-.2v.1Zm-29.3-1h.1V57h-.2v.1h.1v.1Zm47.7-1.2V55.8h-.1V56.3Zm-39.4-9v.1h-.1.4l.1-.1V47v.1H91Zm29.2-.6h.2v-.1h-.1v.1h-.2.1Zm-73.6-1.2h.1v-.1h.1v-.1.1h-.2v.1Zm31.7-1.7v-.1h.1v-.1.1Zm-32.5-1.5V42h-.1v.1h.1ZM112 12v.2h-.1l-.1.1h-.1v.1h-.1.2v-.1h.1v-.1h.1V12Z"/></svg>