<svg width="71" height="116"><path d="M18.1 109.5l-.1.2v.3-.2h.2l.1.1h.1l.1-.3v-.2h-.1l-.3.1zm17-32.3v.1l-.2 1V78.8h.1l.2-1V77.3zM16.8 35.8h-.2l-.2-.3h-.7v.2l-.2.1h-.2l-.2-.2-.1.1-.2.1v.2h-.2l-.2.1-.2.1h-.2l-.1.1h-.2l-.5.1H13v.2l-.1.1h-.4l-.3-.1H12l-.2-.2h-.5l-.3-.2H11l-.2.2H10.5l-.8.1H9.4l-.1-.2H9v.1h-.2v-.2h-.1v.2H8.1l-.1-.1-.1-.1v.1l-.1.1h-.2l-.1-.2v.1l-.1.3-.1-.1H7V36.8L7 37l-.3.1v.1l-.3.4v-.1l-.1-.2v-.2l.1-.1h.2l.1-.1V36.6l-.1.1h-.7l-.3-.2h-.3l-.2-.2h-.4l-.4-.2H4V36h.1l1.2.3h.3l.4.2h.4l.2-.1H7v-.1H7l.1-.2h.4v-.2h1.8v.1h.1v-.1h.1v.2h.2V36h.2l1-.2h.1l.2-.1h.2l.2.2.3-.2h.1l.2.2H12.5l.1-.1h.1l.5-.1.6-.2h.1l.2-.2h.1l.1-.1v.1l.3.1h.2l.1-.1h.4l.2.1H15.9v-.1h.7v.2h.2V35.9zm54.2-5.7V29.2h-.1v-.1l-.1-.1V29l.1-.4v-.2h-.2l-.2.1v-.1l.1-.1h.2l.1-.1v-.4l-.2-.2h-.2l-.5.2-.2.6-.1.1-.1.2V27.9h.1V27l.1.2h.2l.2-.1v-.4l.1-.1v-.1H70v-.3L70 26h-.4l-.2.2v.2l-.1.1H69l.2-.1h-.1v-.2H69V26h-.1l.2-.2h.2l.1-.1v-.2l-.2-.1.3-.1.1-.3V24.4h-.1v-.1l-.2-.2V23.8L69 23v-.1l-.2-.4V22.2l.3-.2v-.1l-.1-.1-.1-.1-.1-.1-.1-.1v-.1l.1-.2V21l.3-.3v-.1H69v-.6l-.2.2h-.1v-.2h.1l.1-.1v-.1l.1-.6V18.4l.1-.4v-.3H68.9v-.1H68.5v.4h-.2l-.3-.3v-.4l.2-.1.2-.1h.1v.1h.1v.1h.1v-.1l.1-.2v-.2l-.1-.1h.2l.1-.1v-.2.1H69.5l.2-.1v-.2h-.1l-.1-.2V16h-.2l-.1-.3v-.1H69.5l-.2-.2H69v-.6h-.5l-.1-.2.1-.3.1-.2h.2V14l.1-.2H68.7v-.5l-.1-.2-.2-.1h-.1V13H68.7l.1-.1V12.2l-.1-.1v-.4l.1-.3.1-.1-.2-.4V10.3l.1-.2h-.2v-.5h-.1l-.1-.2V9h-.1v-.4h.1v-.1l-.1-.1-.1-.1v-.1l.1-.1V8l.1-.2v-.3l.1-.2V7h-.2l-.2-.2-.2-.1v.1l-.1-.2h-.1v-.1H68v-.1l.2-.2v-.1l.5-.3V5.3l.2-.2.1-.1.1-.2v-.2l-.1-.1-.2.2h-.1V4l.2-.2h.1l.4-.3.1-.1-.1-.1-.5-.3h-.2v.1V3l.5-.5h.5v-.1h-.1l-.3-.1L69 2V1.7h-.2l-.1-.1h-.2v-.2l.1-.1.1-.1V1h-.1l-.2.1h-.1V1l-.1-.1h-.1l-.1.2-.2.2-.3.2-.4.2-.3.2-.4.3v.2h-.2l-.1.2-.9.6h-.1l-.7.4-.7.4h-.1l-1.1.3H62v.1h-.2l-1.3 1.1-.1.1h-.5l-.3-.2h-.1l-.3.1h-1.1l-.2.1-.2.2h-.2l-.1.1-.3.3h-.5l-.3.1-.1.1-.1.2-.7.5-.2.2L55 7h-.5l-.2-.2-.4-.4-.2-.2h-.9v-.1H52v.1h-.5l-.4.3v.2L51 7h-.1v.2l-.2.3V8l-.2.1-.5.3-.3.2h-.4l-.2.1-.2.1h-.2V9l-.1.1v.2h-.8l-.2-.2h-1.4l-.2-.2-.2-.2-.2-.2v-.2h-.2l-.1.1H44l-.3.3-.2.3h-.1l-.3.2H43l-.2.1h-.1l-.4.1H42v-.1L42 9h-1.2l-.2.1H39.9v-.5l-.1-.2v-.1h-.2v-.1h-.1v-.1H39.1V8l-.3-.2h-.5v-.5H37.7l-.3-.1h-.1l-.2.3H37l-.4.1V8h-.1v.1l-.2.1v.1l-.4.2h-.4v.1h-.2v-.1l-.1-.1H31.6V10l-.3.6-.2.7v.2l-.4.1v.2h-.1v.1h-.2v.1l-.2.1-.2.3-.2.1.1.1V14l-.1.1v.2l.1.1.1.2.2.3.1.2v.2l.1.1.1.2.1.3.1.1v.2l-.2.3v.1l-.1.4-.1.2V17.9l.3.5V20l-.1.1v.2l.2.2.2.1v1l.3.1.7.7.5.5.6.7.7.8.6.8.6.6.5.9.5.7.7 1 .5.5.3.4h.1v.2l.1 1.4H38l-.3.7-.1.4-.4.7v.4l.2.7.2.8v.8l-.1.9v.6l-.2 1V38.7l-.1.1-.1.1-.5.4H36.3l-.6.2h-.2v.1H35.1v-.1l-.2-.1h-.5l-.5.5-.2.2-.1.3v.6l-.1.2v.4l-.1.2h-.1l-.5.4v.3l.2.2v.1h.1l.2.1.1.1v.1h.1l.2.2v.6l.2.3v.2l-.1.1v.4l-.1.1v.1l.2.1V46.4h-1.5V46l-.3-.3v-.3h.2l.2-.2h.1l.1-.3V44.3l-.2-.2H32l-.2-.1-.1-.2-.2-.1h-.1v-.1l-.1-.2-.1-.1H31v-.1l-.1-.1v-.2h-.1l-.3-.3-.1-.1-.1-.2-.1-.1-.4-.3h-.1l-.1-.2v-.1l-.3-.2-.2-.2-.1-.5-.2-.1h-.5l-.1-.2-.3-.6v-.2l.1-.5V39l-.1-.1-.6-.6-.3-.2-.1-.2V37l.3-.2v-.1h.2l.1-.1.5-.6v-.2l.1-.3v-.7l.2-.1v-.2l.2-.1V34.2h.1l.1-.2h.2v-.1l.2-.2v-.2l-.1-1V31.9l.1-.1.1-.1v-.2l-.1-.2-.1-.2V30.2l-.1-.2-.2-.2v-1.1l-.4-.3-.1-.2-.3-.4-.1-.2-.2-.1h-.4l-.7.3H26l-.2.1v.3h-.1L25 28h-.4l-.4.3h-.4l-.3-.2h-.2v.1l-.1.3V28.9H22.8v-.1l-.2-.4v-.1h-.2l-.1-.1-.1-.1-.1-.2-.1-.1-.3-.2h-.1l-.1-.2-.4-.7v-.1l-.2-.3h-.2v-.1l-.2-.3v-.7h-.2l-.4-.3-.5.2-.6.2-.8.3-1.1.3-1.2.4-1 .4-1.3.4-.5.1-.3.1-.5.2-.6.3-1 .2-.9.4-.4.2-.7.3-.5.2-.7.2-.9.2-.7.2-1 .2-.7.2-1 .3-.5.2-.7.3-.6.3-.5.2H.2v.1H0V32.5l.3.8.2.4.2.1H1l.1.1v.1l.1.2v.6l.2.2v.1l-.1.2V35.5l.1.2.1.3v2.5h3.3l.3.2v.2h.5l.1-.2h.2l.1-.1.2-.1h.3l.7.2h.1l.1.1.1.1.1.3h.1l.1.1h.1v.1l.1.1H8v.1h.4l.1.1.3.2h1.1l.2.1.2.2.4.4v.1l.4.2.1.1v.3l.1.1h.1l.7.2h1.8l.7.3 1 .4.9.3v.4l.2.2.1.2h1.3l.2-.1h.1v.1l-.2.7-.1.3-.1.1-.5.5.7 1.2.2.4V47.5l.2.1.2.1V48l-.2.2-.2.5-.1.1v.4l.2.1.2.1.1.2v.2l-.1.3v.8l-.2.1h-.1l-.1.2v.9h-.1V52.8l.3.7v.4l-.1.1v.4l.4.2v.2l.1.1-.2.2-.1.2v.5h-.2l-.2.1v.1H17.8l-.1.2v.5l.3.4v.8H17.1l-.6.4v.5h.2l-.1.1-.2.1V59.2h.1v.2l.1.1h.7v.2h.1v.1h.1l.1.1v.3l-.2.8v.4l-.1.2-.3.3v.7H17.5l.1.2V64.1h.5l.2-.2h.2v.5l.1.2h.2l.1.2V65.4l-.1.4v.7h-.3l-.1.1v.3h-.1l-.1.1h-.2v.5l-.2.2v.7l-.4.3-.4.6-.2.4-.2.4-.2.2H15.4l-.2.3V72l.1.7v.3l-.2.3-.3.4-.5.7.1.1h.1v.2l.5.9-.3-.1-.2.3-.3.3-.4.4-.3.4-.4.4-.3.4-.4.3-.3.4-.4.4-.3.4-.4.4-.3.4-.4.4-.3.4-.4.3-.3.4-.4.4-.3.4-.4.4-.4.3-.5.4-.1.1.6 2 .4 1 .3 1 .4 1.3v2.5l.7.6.1.3.3 1 .3.5v.2l.2.1.4.3.1.1V95.8l.1.3.6 1.3.2.6V105.3l-.1.2V106l.1.1V107l-.2.1v.1l-.3.8v.4l.3.8.1.2.2.1.5.1-.1.2v.3l.1.3v.4l-.2.6v1l.1.2.3.6v2.6H14l.3.1H17l1-.1-.1-.2v-1.3l.1-.2.1-.5v-2.1l.3-1.2v-.2l-.3.1-.1.2-.1.3v.3l-.1.2v.4H17.5l-.2-.2v-.2l-.2-.2H17l-.2-.1H16.5v-.1l-.1-.3v-.3h-.1l-.1-.1-.1-.3-.1-.1h-.2v-.1l-.1-.2H15.3v.2h-.2V109.3h.1l.1-.1h.4v.1h.2l.2-.2v-.1l.4-.3v-.4l.1-.1h.1v-.1h.1v.1-.4l.1-.1.1-.5.2-.3.3-.5.2-.2 1.9-1.3.3-.2h.2v-.2l-.1-.1H20.4v-.1l.1-.1.3-.2v.2h-.2v.1h.2l1-.5.8-.3 1-.5 1.3-.5 1.5-.6h.3l.8-.4h.1l1-.4 1-.3 1.1-.5 2-1 .5-.5V98.4l.8-.8 1-1.6.1-.1v-.1l.1-.1V95.1l.4-1.3-.1-.4-.4-.2v.7h-.2l-.2-.2h-.2v.5l-.2.4h-.1V94l.1-.2v-.5l.1-.3v-.4h-.1v-.1h.2v.5h.1v-.2l.1-.2v-.6l.1-1 .4-1.1V88.9l.1-.2.3-.7.1-.2.3-.5v-.2H35.7v.1l-.1.1-.2-.3-.2-1.5v-1l.4-1v-1.7V82.1l-.1.4V82.8l-.2-1.2v-.4H35v.1H35v.2l-.2.2v.1l.2.4h-.1l-.2-.2v.2l-.1.3v.7l.2.2-.1.1v.5h-.1l-.2-.3h-.1l-.2-.1V83l.1-1.8v-.6l-.1-.4v-.5l-.3-.5V78l-.2-.5h-.1l-.1-.2-.4-.7-.2-.5V74.7l-.2.8-.1.2v-.3l-.1-.1h-.1V75h.2v-.2h-.1v-.5h-.1l-.1-.1H32V74h.4v-.6h.2v-.6h-.5v-.2l.1-.1v-.1l-.3-.2v-.1l.1-.2v-.1H32V71.6l-.3-.3H31v-.1h.2V71H31v-.2l-.1-.1-.1-.1-.1-.1h-.1l-.1-.1v-.2l-.2.1V70h-.5l.3-.2v-.4H29.7v-.1h-.1v-.2l-.1-.2.2.1.2-.1-.2-.2v-.1l.2-.2.1-.3.1-.1V68l-.4-.3-.1-.1v-.1h.5l.2.1v-.1l.1-.1V67l-.1-.1v-1.3l-.1-.1H30h.1l.2-.2v-.2l.1-.1V65l-.2-.2v-.1h-.1l-.2-.1-.4-.6-.1-.3-.2-.1h-.2l-.1.1h-.1l.1-.3h.4v.1l.1.1v.1l.1.2h.1l.3.5.4.1.3.3h.1v.4h.1v.1h.3l.3-.1.2-.3h.1l.3-.1.3-.4h.2l.2-.1.7-.7.7-.6.7-.7.4-.5v-.1l.1-.1h.1l.3-.4v-.1l.3-.3.1-.2h.2v-.1h-.1v-.2l.2-.1h.1l.1-.2h.1l1-.7V59h-.1V59h.2l.1.1h.2v-.2l.1-.1v-.1l.1-.1h.1v.2h.2l.1-.1.4-.5.2-.2h.1v.5l.1.1H40.4v-.2h-.1l.1-.3V58l-.2-.5v-.2l.3.4.1.2h.1l.2.1h.5V57.5l-.1-.1h-.1V57.2h.1v.1l.1-.1.3-.6.1-.1v-.2l.2-.1V56h.2v.1l.1-.4h.2l.3-.3.7-.7.2-.3.5-.5v-.2l-.2.2h-.1v-.1l.1-.1.1-.1h.5v-.2l.2-.2.1-.1.2-.4-.1-.1h-.1l-.2-.1v-.1l-.1-.3V52l-.1-.2-.2-.2-.2.2v-.2h.5v.2h.1v.2l.1.1h.1v.1l.1.1.1.1v.1l.3-.1.5-.9.4-.4.2-.2v-.3H47.2V50.1h.4V50l.2-.2h.2l.2-.2.9-.5.2-.2h.2l.3-.1.2-.3h.2l.9-.5.4-.2.8-.2.5-.2.1-.1h-.1l.1-.2V47l-.2-.1-.1-.2.1.1h.2v-.2V47.2l.2.2h.2l.2-.2V47l2-.7-.1-.1v-.1H55.7l.4-.3v.2h.2l.2-.2.1-.1-.1-.2.2.2h1.1l.3-.2.4-.2h.7l.1-.1h.1V45l.1-.1v-.2h-.2.2V44.4h.2l.3-.3 1-.7 1.3-.6.1-.2.4-.1.2-.2.2-.1.2-.1V42h.1v-.2l.1-.1h.2v-.2h-.1H64v.1h.1l.3-.2h-.1l-.1-.2-.1-.1v-.4h-.1v-.2l.1-.2.4-.2H65l.2-.2.2-.2.3-.5.2-.2V39l.1-.2v-.1l.1-.2v-.2l-.2.2h-.2v-.1H66V38l.4-.2 1.3-1.4.4-.6.1-.2.3-.2.1-.3h.4l.1-.2v-.5l.1-.1.2-.1V34l.3-.3v-.2l.1-.3V33l-.1-.1-.2-.1H69.2v.2H69l-.3-.1v-.4H69.4l.1-.2h.4l.2-.2-.2-.3-.1-.2v-.1h.6l.1.1v-.4H69.7l-.2-.2v-.4.1l.1.2h.4l.1-.1.2-.3h.1l.3-.2v-.1z" fill="none" fill-rule="evenodd"/></svg>