<svg width="133" height="115"><path d="M130 17.7h-.1zm-6.5 58.1l-.2.5v.6l.8-.8.1-.2-.3-.2-.4.1zm8.5-59.4l-.2-.2h-.4l-.4.2-.2.3-.1.3-.2.3-.4.2v.1l-.1.1 1.4.1.5-.2.2-.7-.1-.5zM50.5 87.1l-.2-.2-.6.2h-.3l-.2-.2-.8.5v.5l.1.2.3.3h-.2l-.3.1h2.5l-.1-1-.2-.4zM116 17.9l.6.2.3.2.1.2h.2l-.1-.2-.4-.4v-.4h.2l.2.1.5.5.2.4.1.4-.1.3v.1l.3.4.2.5v.5l-.2.5-.3.3-.3-.2-.3-.4-.3-.3-.2.2-.4-.2-.1-.3V19.7l.1-.2h.2V18.8l-.1-.3-.4-.5v-.2zm-38.1 87l-.3.3-1.1.9h-1l-.1.2-.7.2-.3.1-.5-.1-.5-.5-.5-.1h-.5l-4.8-1.1h-1.3l-.6-.2h-.8l-.3-.1-.5-.6-.3-.2-1-.4-.9-.2h-1l-2.4-.9-.4-.3-.3-.3-.3-.2-.8-.5-.4-.1-.4-.1-.9-.1-3.2-3.2-.5-.8-.8-2.8-.1-.4-.9-1.4-.4-.4v.4l-.2-.2-.1-.2-.1-.2V91h.1l.3.1h.2l-.4-1.5-.2-.4.2-.2v-.2l-.2-.2h-.2v.6l.2.5-.4-.3-.9-.9-.1-.3V88l.2-.3.2-.2.5-.2V87l-.2-.5v-1.2l-.2-.7-.5-.3-.3-.2.3-.5.4-.2.1.6h.2l-.3-.8-.2-.3h-.5l-.2-.3v-1.4l.4-.8.8-1.7.5-.6.7.3.8-.2.6-.4.5-.3.4.4 1.8 1 .6.2.2.1v.3l.2.2h.6l.2-.1v.2h.2l.6-.5.8.7 1.2 1.4.2.2.5.8.3.7 1.3 1.2.6-.5 1.1.2 1.2.6.7.5.3.3.1.4.3.4.4.2h.3l.2.1.4.5.2.1h.5l.3.2 1 1.5 1 1.2v.3h.1l.1.1h.2l.1.1.5.5.2.2.2.7.3.3.6.5 1.1 1.3.6.4.9 1.2.2.2H74.1l.2.2.1.2v.8l.2.6.3.3.4.2.3.5h-.1l-.2.2.1.3h.6l.2.1.8.8.2.3.2.6v2.7l.4.9v.5zM42.6 73l-.3 2-.2.6-.2.3-.8.3-4 .1h-.6l-.1-.2v-.5h.1l.4-.1.3-.4.1-.4V74l-.4-.9-.7-.3-.9.2-.7.5-.3.3-.3.3h-.3l-.9-.6-2.3-1-.8-.4-.5-.7v-1.8l.1-.1.2-.2h.2l.1.2v.2l.3.3.4.2h1.2l.6-.4.4-.6.4-.6.9-.2h.3l.7-.3.4-.1.5-.2.3-.3.3-.2.5.1h.1l.2-.1h.2l.2.1.2 1.5-.1.2v.2l.8.7.3.2.3.4.4 2v.7l.7-.6.7-.8.7-.4.7.3.2.6v.5zM120 1h-.3l-.4.1-.3.2h-1.3l-.3-.1-.2-.2V.9l.3-.2h-1.6l-.4.2-.2-.3-.1-.1-.1-.1h-.2l-.2-.1-.3-.3-.3.5-.4.4-.5.3H112.3l-.3-.5-.2-.2h-.6v.2l.1.2-.1.2V1.7l-.3-.3-.2.1v.7h-.1l-.4-.2v.1l.1.2-.3.2-.7.5-.6.2-.1.3V4l-.2.3h-.2L108 4l-.5-.1h-1.1l-.5.3v.1l-.1.2.2.7h-.2V5l-.3-.1H105v.4l-.5.2H103l.2.4.2.1.2.2h-.5l-.6.1-.2.1-.2.2-.4.3-.1-.2-.1-.1h-.1l-.2-.1.1.2v.2l-.3-.1-.2-.3-.2-.2h-.2l-.1-.1v.3l-.2.3v.2l.2.2-2.7.2h-.4V7H96.1l-.1-.2-.1-.1-.6-.4h-.2l-.3.3.3.6.2.2.2.3v.2H94.7V8l-.2.1-.2.1-.6.2H93l-.6-.7-.1-.1-.1-.1-.3-.1-.4-.2h-.3l-.1.4.1 1.2-.1.6-.6.3h-.3l-.6-.2h-.4l-.2-.2-.2-.6-.3-.3-.3.5-.2.3-.2.4-.5.6-1 .3-.7.4H85l-.2-.3-.3-.1H84v-.4l.1-.2h-1.9l-.6-.2-1-.4-.5-.1-.5.3-.4-1-.3-.4-.5-.3V7h-.6V7l.2-.3-.3-.7-.6-.4-.3-.1-.4-.1h-.7l-.8.2-.8.1-.2.1-.2.1-1.2 1.2-.5.3-.2.2-.3.1-.3.4-.3.4-.1 1v.1h-.2l-.5.2.2.3.7.5-.5.5-.2.2h.7v.1l-.2.4-1 .9-.5.3-.5-.4-.4-.4-.5-.1-.2.3-.1.8v1.3l-.1.2-.7.6v.8l-.7.5.4.3.5.4.4.5v.7l-.3.4-.6.3-.6.2-.7.1h-1l-.3.1-.6.3H63l-.1.2-.1.2-.2.2v.2h-.1v.1H62l-.2.1-.1.1-.2.2-.1.2-.3.4-.2.7-.2.5-.3.5-.3.4-.3.3-.4.2-.4.3-1 .3-.1.3-.1.4-.3.4-.5.2H56.4l-.6.3-.3.3-.2.3-.5.1-.4.2v.3h-.1v.1h-.4l-.6.4-.3.2h-.5l-.3-.1v.1l-.1.6-.3.8v.8h.4l.2.4-.1.4-.2.4-.3.3-.4-.5h-1.1l-.6-.2-.5-.5-.2-.5-.3-.5-.6-.2H47.5l-.3.1-.3-.1-.2-.2-.6-.7-1.9-1.3v-.7l.3-.6V26l-2 .3-.4.2-.3.2-.2.3v.2l-.3.4-.3.3-.3.1-.3.2-.3.1-1 1.4-1.7 1.9-.4.6-.2.8v.2l-.1.2-.4.4-.4.1-.4.2H33.7l-.2-.2-.4-.4h-.4l-.4.2-.4.2-.4-.2-1-.4h-1l-2.1.4-1.2-.1h-.5l-.6.3-.4.2v.1l-.1.2v.4l-.2 1.9v.2l.2.1v.1h.1l.2.2.1.2v.8l-.1.4v.5l.8 3.2v.4l-.3.7v.7h.2l.2.1.1.2.1.1.1.2v.2l.2.7v.4l-.2.4-.4.3-.2.1-.2.2h-.5l-1.5-.8h-.5l-.4.1-.3.2-1.3 1.1-.2.3-.2.3-.2.8v.2l.2.4v.1l-.2 1.4v.2h.2l.1.1v.3h-.1v.1l-.3.1-.2.1-.1.1-.6 1-.3.3-.7.4-.6.3-.1.4h-.3l-.7-.4h-.3l-6.1.4-.2.1-1.3.6-.3.5.3.2H10.7v.2l-2.7.2-1.1-.2-1-.9v-.1l.1-.5v-.1l-.1-.1-.3-.2h-.2l-.4-.7-.2-.1-.7-.6H4l-.1-.2h-.3l-.4-.1h-.3v-.2l.2-.6h-.2l-.1 1-.6.7-.8.4-.7.7-.5.9v.8l.4.6.6.6 3.2 1.8.5.6.4.3h.3V60l-.4-.3-.7-.5V59l.6.1.6.3.4.4v.4l.3.2h.1v.2l-.3-.2-.2-.2.3.7 3 3.3.2-.3.1-.2.2.5v.3l.3.2 1.7 1.2.3.2.5.5.7.8.4.4-.2-1h.1l.6 1.1.3.2.3.1.4.3.6.7-.6-.1-.6-.3-.5-.3-.3-.4v.6l2 .8.7.9 1.5.8.4.4 5.4 3.3.7.6.2.4 1 2.5 1 1.7.5.6v.2l.7.5.4.3v.3l.2.4.4.9.4.6.7.7.3.1.3.2.7 1.6.4.4.1.2 3.2 2.4.3.9.4.4.4.3 2.4 1 1 1 .8.4.3.8v.2l.5.3 1.1.7 1 1 .6.3 1 1 .4.4.9.3.5.4.3.2 2.9 3.1.5.7.2 1 .2.5.4.2h.5l1.3.6.7-1 .5-1 .7-1 .9-.4.7.4.4.3.4.3.4.3.5.2 4.2 1.6 3 1 3.4 1.3 4.7 1.7h.6l.6-.1 4.8-3.1.8-.2.5.2 1 .7h1l.6.2 1.3.6h.2l.1.1h.2v.2l.7.7.2.2h.1l.1.1.3.1h.6l1.4-1h.5v.8l.2.2.4.5v.2l.3.2 1.2.5.3.2.3.2.5.3.2.2.2.2.1.6-.3.2h-.1l-.2.3v.1l.2.1v.1l.6.5.2.2.3-.2h1.1l.5.5h.3l.3-.2h.2l.3.4.7-.5.5.1.1-.1.2-.2h.3l.3.2.1.4 1.6 1.3h.2l.3.1h.2l.4-.3H102l.6-.6 1.7-.7 1.9-.4 1-.5v-.7l-.2-1V109.4l.1-.1H107.7l-.5-.2H106.3v.2l-.4.1-.2-.5-.2-.5-.5-.3-.2-.3-.6-1-.3-.6-.8-1.2-.6-1.4-.8-3.5v-2.7l.1-.5.3-.4.8-1h.8l.3-.9.3-1.2.2-.9.3-.2h.2l.2-.1h.4l.2-.1.3-.4h.2v-.1l.4-.2h.4l.2-.2.1-.1v-1.6l-1.2-4.8-.3-.2h-.4l-.3.1-.1.3-.2.5v.2l.2.2v.1h-1l-.2-.2-.2-.5-.4-.4-.4-.4-.3-.2v-.3l.3-.2.2-.2h.3l.1-.2.5-.6h.1l.2-.1.1-.1.1-.2v-.5l-.1-.1v-.2l.3-.5V80.1l-.2-.3-.1-.2-.7-.3-.3-.2h.1l1.1.3h.5l.2-.6v-.4l.4-.6.1-.4V77l-.2-.2-.5-.5h-.2l-.3.4-.5-.3V76h.8l.5.2.5.4.3.5.2.5-.2.6-.4.3-.3.2.3.7.7.8.2.5-.1.5h.2l.1-.1-.2-.6-.2-3.4.6-3.2 1.3-2.4-.1-.2-.6-.1-.2.1-.2.4-.4 1.3-.1.3v-.5l.1-.5V72l-.1-.4-.8.2-.5-.2-.2-.5v-.5l.2-.6.2-.5-.2-1.2-.2-.3h-.4l-.4-.1H104.2v-1.4l.2-.3.5-.2 1.1-.1.9-.4 1.4-1.1.8-.5-.3-.4V63.2l.1-.2v-.8h-.1l-.1-.1-.1-.2v-.2l-.1-.5V61l-.7-.3-.2-.5v-.5l.2-.5.6-.3h1.4l.5.5V60.4l-.1.1-.1.1-.1 1.6-.1.3-.2.3v.2l.3.8-.2 1.2-.7.8-.9-.3h-.2v.1l-.2.1.2.7V68l.5.5.2.4v.7l-.1.2-.6.4-.2.2.6.2h.6l.6-.3.7-.1h.9l.5-.2.3-.5v-.8l-.1-.6-.8-1-.2-1-.4-.7-.1-.2v-1.6l.9-7-1.5-8.7-.1-.4.2-.1-.2-.4v-.6l.2-3.5.5-1.7.5-1.4v-.5l.2-.6v-1.3l.6-3 1-3.4.6-2.5.4-.8.5-.8 1.3-.8.2-.4.1-.4 1-1.1 2.2-3.5.7-1.7.1-.9-.1-1-1.3-3.7-.2-1.3-.3-.5v-.1l-1-4.7-.3-.2-.2.2v.6l-.2-.4-.3-.2-.3-.1-.3.1.2.1.5.3.2.2-.4.5-.4-.1-.4-.4-.3-.2-.2-.3-.3-1-.4-.3-.3.4.3-.7 1.1-1.5.6-.4.3-.2.4-.2.4.1.2.5v.6l.3.7v.5l-.2-.3h-.5l-.3.1v.2l.2.1.3-.1V5.8l-.1.1v.2-.2l-.3.2v.1l-.1.2.9-.4.3-.2.2-.3v-.3l.1-.6v-.2l.2-.2.4-.3v-.2l.1-.3.3-.5.3-.4.3-.1.2-.3.3-.6.3-.3.4.5.2-.3.5-.2.2-.3H120zM59.2 94.7v-.2l-.2-.2h-.3l-.4-.1-.3-.1-.3-.1-.3.1-.4-.3-.1-.4v-1l-.2-.2-.3-.2-.3-.2h-.2l-.2-.3-.3.2h-1.1l-.6.2-.3.5-.5 1-.3.3 1 .6.5.2h.5l.8-.2h.5l.6.3.5 1.5.6.4h.3l.3.1h.2l.4-.3h.1l.4-.1.3-.3v-.4l-.1-.4-.3-.4z"/></svg>