<svg width="171" height="71"><path d="M23.7 8.3l.4.7.1-.2V8.2l.3-.4-.2-.8-.8-1.1H23l-.5.2-.8.5 1.4 1.1.6.6zm2.5.7l.4.2.3.6-.4-.2v.2l.3.2V11l.3.4h.1l.3-.6.4-.4.6-.3.6.1-.4-.4-.3-.2-.7-.4-.7-.6-.3-.1h-.3l-.2.1h-.3l-.2-.1-.2-.2h-.2l-.2.2v.1l.5.3.6.1zm144.4 39.7l-.3-.3-.3-.2-.3-.3-.2-.4v-.7l-.7-2.3-.8-1.5-.3-.4-.7-1.1-.6-1.3-.3-.3-.3-.2h-.4l-.4-.2-.3-.5-.3-1-.2-2-.4-1-.5-.8-.3-.2-.5-.2-.8.1-.3-.2v-.6l.2-.9.2-.2.2-.1.8-.9.3-.7v-.5l-.2-.3v-.2l.5-.3.5-.1h.5l.3-.3v-.4h-.1l-.2-.1-.2-.1v-.2l-.6.4h-.9l-1-.1-.6-.4-.7-.6-.1-.3-.1-.4V25.5l-.4-.3v.5l-.5-.4-.7-1.2-.5-.2-.1-.2-.3-.4-.3-.3-.2.2v.3l.3.1.1.2.2.3-.6-.3-.7-.6-.6-.7-.3-.6-.3.1-1-1.2-.3-.7.2-.6-.3-.2-.3-.2-.2-.3-.1-.4-.7-.5v-.4l-.1-.2L151 16l-.3-.5h-.2v.8l.4.8-1.5-1.6-.4-.2-.5-.4-1-1.5h-.6l-.2-.3-.6-.6-.2-.4-.3-.2h-.5l-1-.2-.7-.4-.7-.2h-.5l-.4-.3h-1.2l-.3-.2-.8-.6h-.3l-.2-.1H138.4l-.7-.4h-.2l-.8-.5h-.6l-.7-.5h-.1l-.8-.6-1-.3-.3-.2V7l-.3-.2h-1l-.4-.2-.7-.4h-.7l-.4.4-.4.1h-.3l-.6-.3H126.7l-.2-.1-.6-.4-.3-.1h-.2l-.2.2h-.3l-.4-.1h-.3l-1 .7-.2-.5-.4.2-.8.7-.3-.3H120.6v-.3l-.2-.2-.2-.2h-.6l-.7-.2h-.6l-.5.4-.2.2h-.1L117 6h-.9l-.1-.4V4l.2-.3.4-.2 1-.2.2.1h.3v-.2l.8-.3-.6-.2h-2l-.7.2h-1.4l-.4-.2h-.2l-.6.4-1.1.2-1.2-.2-1-.5-1-.3-2.8-.2-.6-.6-.2.2h-.2l-.2-.1-.2-.3-.2.6V2l-.6-.2h-.2l-.2-.2h-.2v.2h-.1l-.1.1-.2.1V2h-.1l-.3-.2v-.2l.3-.1V1l-.1-.2-.2-.4-1.1.7-.5.1h-.9l-.2.1-.2.2-.7.4-.1.2h-.1l-.2.1-.1.1v.3h.4l.4-.2-.2.3-1 1.5-.6.6h-.1L97 5h-.1v.2l-.2.2-.5.4-.9.3-.4.4-.3.5v.4l.2.4.1.7-.2-.4-.2-.2-.6-.2-.4-.1-.5-.2h-.3v.3l-.2.1-.2-.1.1.2v.5l.1.2-.5-.3-.2.2v.6l-.2.5-.3.2H91l-.3-.2-.1-.2-.1-.3v-1l-.7.3-.9.8-.7.8-.6.8-1.6 1.3-.8.5-1 .4-1 .3h-1l-.3.2-1 .5-.4.2-2.4.4-3.7 1-1.3.6-2.7 1.2-.3.1-.4.2-1.1 1-1 .4-.3.1-.2.2v.2l-.2.1-.3.2-.3.4-.5.8-.2.3-.4.3-.4.3H64l-.9.1-4 1.7-.7-.1-.2.2-.3.2h-.5l-1 .3-1 .2h-2.1l-3 .4H50l-.3-.3-.6-.1-.6-.1-.5.2-1.7-.4-.5.2h-.3l-.2-.1-.3-.3h-.2l-.3-.2-.3-.2-.3-.4-.2-.2-.6-.4-1.1-1.2-1.8-2.5-.4-.3-.1-.1-.6-.9-.3-.2-.9-.5h-1l-.3-.1-.2-.1-.2-.3-.2-.7-.2-.2v-.2h.2l.3.1h.2V15l-.7-.5-.7-.8-.5-.3H34l-.2.3.4.3 1 .5-.3.3h-.7l-.7-.2H33l.1.2.5.4.5.4.4.2.3.2 1 1.5 2 1.1v1.2l-.1.5-.5.2-1.7-.8-.3.1-.2.2-.3-.1-.2-.3h-.1l-.4-.2h-.3l-.3.1.1.3-.3.4-.4.2-.4.1H32l-.3-.3-.3-.1h-.7l-1.3.4H28.2v-.3H28l-.2-.2-.4-.7v-.2l-.4-.2-1-.4-.5.3h-.7l-.7-.4-.5-.5.1.1.2.1h.1l.2-1.8-.1-.4-.7-.3-.2-.4h.4l.2.2v-.2l-.2-.3-.1-.6v-.5l.4-.2h.7l.5.2.9.6.2-.4-.1-.8v-.4h-.1v.2h-.2l-.2-.2v-.1l-.2-.3v-.2h-.1l-.1.2-.2-.2H25l-.1.3v.4h-.4l-.2-.1v-.4h-.2v.7l-.3.2-.3-.1-.2-.3v-.3l-.2-.3-.4-.1.4.5-.2.1h-.4l-.2.4h-.2l-1-.6-.2-.3v-.4l-.2-.4-.3-.3-.2-.2h-.4v-.2l.2-.2v-.3h.7l.4-.3v-.3l-.2-.2-.3-.2-.3-.3v-.7l.8-1.4.1-.3.1-.5-.7.5-1.1-.6-1.7-1.7L15 2l-.4-.2.3 1-.2.1-.4-.2-.5-.1-.2.3v1.1l-.3.4h-.9l-.5-.2-.3-.1-.3-.4-.4-.7-.3-.3-.2.1h-.3L9 1.7l-1.6-.7-.6.1-.5.4-.3.5v.3l.3.6.2.8v.1l.3.1h.1v.3l-.5.3-1.5.2-.5.2-.3.4v11.5l.3-.2.6-.2h.4l.1.1.1.2v.3l.2.1.2.1.6.3 1.4 1 1.3.4.4.3.7 1.2.1.3-.4.7-.9.5-3 1.2-.3.2-.3.4.2.2h.2v.5l-.3.3-.8.5-.3.3v.4l.2.4.2.4 1 1 .4.7.4.7.2.9.2 2-.1 1-.3.9-.6.8-.8.3-.8.3-.8.4-.8.8-.5.4-1.3.7-.3.2v.4l.3.3.8.5.1.1.3.4.2.2h.1l.4-.2h.2l.6.3.1.3.2 1 1.5 3.2-.1 1.3-.2.7.6.3.3-.2.1-.5.4-.4v-.2l-.7-2-.2-1.1V41l.5-1 .7-.7.9-.5 2-.7 1.1-.1h1.2l1 .2 2 .8 1.2.3.8-.1.2.1h.2l.6-.1-.1-.2v-.2l-.2-.2-.1-.2v-.2l.5-.2.1-.4v-.4l.4-.2v.5l.1.2.3.1v.2l-.6.2.1.3.4.3.6.2.3-.1.9-.4.4-.1v-.2l-.1-.4v-.2l.4.2h.5l.6-.2.4-.2-.1.6.2.4.4.2h.6v-.1l.5-1h.2l.3-.1h.7l-.5.1-.2.2v.7-.1l-.1-.1-.1.2-.1.1v.2l.2.1v.2l-.2.3v.4l.4.9h-.1l-.2.1H25v.3h.3l.3.5h.7l.5-.3h.4v.2h-.2l-.1.2v.1l-.1.3.2-.1v.2l-.2.7h.2v-.2h.2l.7-1.5v-.5h.3l.4.3 1 .3h.9l.4-.2.6.5.4.2h.2l.1-.4.4-.4.3-.2.4-.1-.5.8-.1.4.3.2h.4l1.2.3.3.2 2.2.8.5.4h.2l.2-.2.5-.5.1-.2-.3-.1v-.6l.2-.3h.1l.1.5.3.5.6.7 1 1.8h-.2v-.1h-.5l-.2.1h-.2l-.3-.2v.2l.5.3v.8l.3.3v-.5l.2-.5.2.3.4 1.1.2.3.5.7.1.3v.2l.1.2h.2l.2.1h.1v-.3l-.2-.4v-.4h.2l.4-.1-.1.3v.5l-.1.2.4.3.1.2v.3l-.4-.2-.2.3v.4l-.1.5h.4l.3.1v.2l-.3.2v.3l.2.2h.2l.2-.2h.4l.2.2v.2l-.4.5-.2.3v.4l.1.4.3.2.2.3-.2.2v.2l.3.1.7.5v-.5h.3l1.2.2-.4.3-.5.3-.2.1v.4l.6.3h1.8l.2.3.2.3.1.3h.8l2.4.6h.7l.3.1.2.4h.2l1 .5.2.2h.2l.1-.2.4-.3v-.1l.1-.3v-2.1l-.5.2-.3.2h-.2l-.2-.3-.2-.3.2.1h.2l.4-.1-.4-.5-.1-.2H53v-.3h.8v.2l-.1.1v.5l.7-.4.6-.7.3-.7-.5-1v-.2l.1-.2V52l-.5-.3-.5-.5-.1-.2.4-.1v-.2l-.1-.1-.3-.1h.5v.5l.2.4.7.3h.4l.4.3h1.5v-.1l-.2-.2-.2-.1v-.2l-.2-.3h.2l.4.5.4-.4.6-1.1v1.8l.2.7.6-.3h.2v.3l-.2.2h-.7l-.3.1-.2.1-.1.2h-.2l-.2.2v.5l.3.4.6.1v.1l-.2.1.2.1.2.1h.6l-.5.9v.1l.3.1.3.2.4.2.1.3-.3-.1h-.3l-.2.2-.2.3v.3l.3.1.3.2 1.4 1.4v.2h-.2v.2l.3.2.3.3.3.4v.4l-.1.2v.3l-.1.2-.4.2.2.3.2.2 1.1 1.1.2.4-.3 1v.5l.7.4.1.5v.5l-.1.4-.1.1-.4.3-.1.2v.8l-.1.2h-.2l-.1.3v.2h.3l.3.1.2.1.2.1.2.2.4.7.4.2.4-.4h.2l.1.2H65.1l.1-.2h.2l.6.2h2.4l3.1-.7h.2l3.5-.4h.3l.6.2h.2l.2-.2v-.4l.2-.2.3-.2.2-.1.2-.1.1-.3v-.2l.3-.1.2-.2h.2l.7-.1v-.3l-.4-.8.1-.8.8-.5 2-.7-.1-.2-.3.2h-.2l-.4.2h-.3V64l.9-.3h.5l.2.2.8.1.4.2.3-.2H85l2-.8h1.1l.3-.1.2-.3.5-1v-.6l-.3-.9-1.4-2.4-2.6-3.4L83 53l-2.7-2.2-.4-.8-.4-1.3-.6-1-.8-.2h-.2l-.3-.3-1.1-.5H76l-.2-.3-.2-.6-.2-.6-.4-.2.1-.2v-.1l.1-.4v-2.7l.2-.6 1.8-1.8.5-.3.1-.2v-.2l.3-.2-.2.1.2.2.4.3.8.2h.2l.5-.3h.8l.3.1 1.3-.2.9-.3 2-1 1.3-.7 1.2-.8 2-1.3.6-.5V34l.2-.2.3-.5.1-.1h.3l.2-.2.5-.4v-.1h.4l.1-.1.1-.1V32l.1-.1 1.7-.7h.3l.2-.3.5-.2 1-.4-.1-.1h-.1l-.1-.1.2-.2v-.2h-.7l-1.9-.6V29l1-.3h.2v-.4l.4-.1.4-.2h.1l.2-.3.1-.2.1-.2.1-.3.1-.1v-.4l-.1-.1h-.1L96 26l-.1-1.7V24l.3-.5.4-.4.5-.2h.5l-.1-.2-.1-.1v-.2h.2l.2.2.2-.1h.2l.2.2h.4v-.1l-.2-.4.4-.2 1.3-.2.7.2.4-.3.2-.6-.3-.7h.2V20l-.1-.1v-.2h.1l.2.5.4.6.4.4.4.3V21l-.6-.8h.3v-.5l.1-.3.8-.5h.1l.1-.1V18.6h.3l.2-.1.4-.1.5-.1.3-.1h.2l.3.1.6-.3 1.7.2.7-.3v.2h.2l.7-.1 2.3.4.5-.2V18h.2l.2.3v.1l.7.2.2.1.4.1.5-.3.2-.5.2-.4-.1-.6-.3-.2-.4-.1-.2-.2V16h.2l.2-.1h.3l.3-.1.1-.1.1-.2.3-.2.3-.5.2-.1h.3v.1l.1.2h.3l.5-.4.1-.2h.7l.1-.1v.2l-.4.2-.5.2-.5.3h-.3l-.2-.3h-.2l-.2.4-.3.4-.5.3h-.6v.3h.5l.3.3V18.1l-.2.2v.4l.1.2.7.5 1.5.3 3.8 2 .2.5.1.5.2.5.6.6.3.1h.4l.5-.3.2-.3-.1-.3-.2-.5.3.3.2.3.3.2.4.2v.2h-.2v.2l.4.4.6 1.2.6.3h.8l.9 1.2.4-.6.5.1v-.4l-.1-.6V25h.2l.2.6v.6l-.2.5-.4.3.3.7.2.4.2.1h.2l.3-.1h.2l.2.1.1-.1H130.5l-.2.5 1.8.5v1l.1.3.5.4-.4.1h-.2l-.4-.1h-.4l.3.3.9 1.2.2.5-.2 1v.3l.1.4.3.4.2.3v-.5l.2-.2.2-.1.2.3.1.5v.6l-.1.3.3.2.7.8.1.1.3.1.2.2.1.2.8-1.7v-.5l-.6-.4-.3-1.4-.5-1.4v-.7h.3v.6h.2V32h.1v.2l-.1.2.2.6.3 1.7.3.5.4-.2.5-.5.4-.6v-.3l.2-.2.3.9.3.3h.4l.4-.8.2-.2.1-.1V33l.4.1v.3l-.3.6h-.2v.4h.1l.2.2.2.1.1.2H140.1l.1-.1v-.3l-.2-.3.1-.3.3-.4V33l-.2-.3-.3-.3-.1-.2.2-.4h.2l.5 1.5.1.9v1l-.2-.1-.2-.2-.8.4-.2.2v.7l.3.1h.5l.6-.3.4-.3.2-.5v-.6l.3-.4.4-.3h.5l.3.3.3.4.6 1h.1l.2-.3V35l-.5-1v-1.2h-.2l-.3-.3-.2-.3v-.7l-.1-.3.3.2.1.2v.3l.2.3.3.3h.2l.2.1V33.2l-.2.2v.7l.3.4.3.4.3.2.4.2-.5.5.2.8.6 1.2.2.7.3.5.5.4.6.3 2.6.4.4.3.3.2 1.5 1.9.5-.1 1 1.3h.8l-.2.3-.5.2-.4-.1-.2-.4-.1-.5-.3-.3-.3-.2-.3.2-.3-.2-.2-.2v-.3l-.1-.4-.2-.2-.7-.4-.5-.6-.7-.2-1.5-.3.2.3.4.3.4.3h.4v.3H148.5l-.3-.2-.2-.2-.2-.4h-.3l-.3.1H146.6l-.4-.3-.3-.4-.5-1.4-.2-.4-.3-.2h-.5l-.5-.3-.4-.2-.3-.3-.1-.2-.1-1-.2-.2h-.2l-.3.2-.1.1V37l-.2.2-.5.6h-.1v1.1h-.1l-.4.6-.4.2h-.2l-.3-.1-.2-.1-.3-.3-.3-.2v.3h-.4l.1.2v.1l.2.1h.1v.3l-.3.2h-1.1v.2l.4.2.8 1 .3.3.3.2.1.4.1.6-.4 1-1 1-1.1.6-.8-.4-.4.3h-.4l-.5-.1-.3-1-.3.3-.4.5-.1.5v.4l.6 1v.9l.2.9.4.9.5.7.7.7.7.7.2 1 .2.3.8 1.3.2.5v.4l-.1.4-.3.5h.3l.3.3v.5h.6l.4.4.6.8.4.3v.2l.2.3v.3l-.1.2v.7l.1-.5.3-.3.3.2.2.5v1.3l.2-.5h.2l.2.6.1.3.2.1.3.1.1.3v.3l.2.1.3.2.5.4.7.8h.1l.3-.2h.2l.4.6h-.2V64.9l.2.1h.1l.1-.2.2.1.2.3v.3l-.2.3v.6l.3.3.4.3 1.3 1.5.8.8.6.2 2.2-7 .7.2.7-.1.5-.4.4-.5.3-.7v-.7l-.7-1.2-.3-1-.1-1.1.1-1.1.7-.4.3.2 1.5 1.2.3.3-.2.3v.2h.4v.1l.8 1.1.2.4.4 1.4.3.4h.7l.7-.7 1.3-1.3 4-2.5.9-.8-.2-.5-.6-.5-.4-.9.1-.3.9-1.1.7-1.7.6-.6 1-.4.9-.4.9-.1h1l.2-.1-.2-.5zM42 64.9h-.9l-.3-.1h-.2l-.2.2-.2-.1-.1-.3v-.3L40 64l-.5-.4-.2-.4v-.1l.3-.9V62l1-.3.1-.2v-.4l-.1-.2h-.2l-.3-.2h-.3l-.1-.1V60.3l-.2-.4-.1-.4-.7-1.8h-.1v.2h-.2v-.2H38l.1.2v.4l.2.2H38v-.1l-.3.1-.8.6-.5.1-.2.2-.2.2v.5l-.1.4-.4.6v.2H34.6l.2.8v.1l.3.3.7 1.3 1.2 1 .5.4.7.7.3.3.6.1 1.2.1 1 .6h.6l.7-.2.5-.2-.8-1.5-.2-.2zM58 59.6l-.4-.1-.8.2-.5.2-.4.2-.3.2-.2.4-.3.2-1 .2-.4.1-.3.2-.2.3-.3.4h.2l.8-.3.3.2h.6l.4-.6.8-.4.2-.1v-.2l.2-.2h.8l.1.1.2.2h.5l.3-.1.3-.2.3-.2.3-.6h-.8l-.4-.1zm-20.6 8.3h-.5v-.1h-.2l-.2.1v.1l.2.2v.2l.4 1.3h.2l-.1-.2-.1-.1.2-.4.4-.7.3-.3h-.4l-.2-.1zm85-31.1v-.5l.3.2V36l-.2-.2-.3-.2-.1-.4V35l-.1-.4-.1-.3-.2-.2-.2-.1h-.2l-.1.1v.3h-.3v-.2l-.1-.1V34l-1.3.3-.6.4.2.5-.2.1.2.7.1.2v.4l-.2.2v.4l.3.2.2.3v.6h-.2v-.1l-.2-.3v.3l-.2.5v.2l.2.1.7.2h.1l.2.6.2.6.2.5.6.2v-.2l-.3-.3-.2-.4-.3-1.1h.2l.2-.2.2-.1v-.3.1h.1v.2l.1.1h1.2v-.4l.5-.6-.1-.6-.2-.5zm-7.2-.3l.4.3.1-.3v-.8l-.3.1-.2-.1-.2-.3h-.2l-.4.3.3.4.5.4zm0 2v-.2h-.2l-.3.5-.2.3v1h-.4v.4l.3.5.2.5.5-.4.1-.5.3-.5h.7v-.2l-.3-.2-.7-1.2zm-93 2l-.8-.6v-.2l.5.1.3-.1v-.3l-.4-.3-.6-.2-1.5 1h-.8l.1.4.4.4.4.4.4.2.4-.2 1-.5.6-.1zm2.2.5l-.6-.1-.4-.2-1 .2-.2.3.2.5h.2l.6.1h.2l.8.7-.2-.5v-.4l.2-.2h.4l.6.3-.2-.4-.6-.3zm2.8 1.8zm-5 1l-.1-.2h-.4l-.3.2-.3.4-.2.3v.4h.4l.3-.1.5-.3v-.7z" fill="none" fill-rule="evenodd"/></svg>