<svg width="122" height="116"><path d="M66.8 9l.2.1.6.2 3.4.2 4.7.2 7 .4 4.4.2 5.3.3 6.7.4 2.9.1 2.3.1.8-.2.2-.2.3-.6.3-.2h.3l.7.5H107.5l.2.2v.2l.1.2h.6v.8l.1.3h.6l.2-.1h.2l.8.7.4.3 1 .4.5.4.1.1.2.5.1.1.2.1h.2l.1.2.2.2.2.5.1.4.1.5.2 1v.4l-.2.3-.1.1v.1l-.1.1v.4l.1.2h.1l.1.2v.9l.1.5.2.5.1.5.1 1.1.2.4.2.5v1.2l.4 1.4 1 3.2.6 1.2.2.6.5 2 .2.5.2.3.1.3.1.3.2.3.2.2.2.2.1.3v.7l-.2.3-.2.3v.3l.1.4.4.5.1.2V39l.1.5V39.8l-.1.3V40.8l.2 3-.2 1-.5.5-1.6 1.1-2 .6-1 .6-1.2 1-1.4 2.2-.5.6-.3.3-.5 1.2.2.2.1.2V53.9l.3.1.8.3.2-.1.2.2.7.2h.3v.2l-.1.2H113l.2.1.2-.2v.1l.2.1v.1l.3-.2v.5l.3.7h.8l.2.2.1.1v.2l.1.1h.2l.1.2v.4l.2.3.1.7.2.3-.2.2-.2.2-.2.6v1l-.2.2h.1v.1l-.1.1v.4l-.2.2.2.3.2.3-.1.5-.3.2-.2.2-.2.2v.2l-.1.2V65h.1l-.1.2h-.1l-.1.1v.2l.1.1v1l.1.3.3.4h-.2l.2.3.1.1.2.1v.3l.1.4.2.1h.2l.2.2-.2.4v.1l.5.7.1.3h-.1l-.1.2v.4l-.2.1-.2.2-.2.3v.7l.2.1h.3l.2.2.6 1.4.3.4.6.4.6.5.1.3h-.2v.3l.2.3.3.5.1.3.1.8V78l.2.1.2.1.1.2V78.7l.1.3.2.3.8.8 1 .5.2.3-.1.3h-.8l-.3.2-.3-.2h-.3l-.3.3-.1.3v.4l.2.2.3.1h.3v.2l-.2.3.2.3.3.2.4.1-.1.4v.4l.4.8-.3.5.1.9.1.2v.1l-.1.3-.2.2-.8.4V88.7l-.1.1-.3.7-.6.2h-2.2l-.4.2-.2.1-.2.2-.1.3-.2.5-.2.2-1 1-.3.4-.6.5-.6.4-2.8 3-.3.6-.5.3-.5.6-1.3 1.9-.5.5v.2l-.1.3v.2h-.2l-.2.2h-.1l-.1.2-.8 1.3-.2.2-.1.1h-.3l-.1.2-.1.2-.2.6-1 1.2-.2.7.2.7v.3l.1.7v.3h.1l.2.3.2.3.1.1v.3l.2 1.7v.3l-.2.6-.2.6-.2.4v.3l.3-.2.1.1.4.3.3.5.3.2.5.3.2.2v.1l-.2.4v.4l.3.3v.1l-.1.3-.3-.1-.2-.2-.2-.2h-.2l-.2-.3-.1-.1h-1.4l-.3-.2-.5-.5h-.2l-.3.2-.4-.2h-1l-.4-.2-.6-.6-.3-.1H99l-.6-.2v-.5l-.1-.1H97.6l-.1-.1-.4-.3-.9-.1-.3-.3v-.6l-.2-.6-.4-.6-.4-.4-.7-.3-.4-.4-.3-.1h-.2l-.2.2-.2.2H92.6l-.4-.7-.2-.2H91.7l-.2-.1-.2-.2-.2-.1H90l-.4.2h-.8l-1.2-.3-.7-.4h-.1l-.2.1-.4.6-.2.2h-.5l-.1-.3-.3-.1h-.6l-.2.1-.3.3.2.2.3.2.1.2v.2h-.7l-.3.3-.4.6-.3.2-.2.2h-.3l-.2-.2-.2-.2-.2-.2h-.7l-.2-.2-1-1.3h-1.2l-.2.3-.1.2h-.6l-1-.5h-.2v.4H76l-.5-.2h-.2v.1l-.1.1v.2l-.1.2-.1.3-1 .2h-.2l-.2.4h-.4l-.1.1-.3.5v.2l-.1.2-.2.2v.7l-.2.4-.2.2-.4-.2-.7-.6-.3-.1h-.4l-.2.2-.4.4h-1.1l-.2-.3v-.2l.5-.8h.2v-.4l-.2-.1V109l-.1-.3-.1-.3-.1-.1-.4.1h-.5l-.7-.2v-.8h-.7l-.2-.2v-.1l-.3-.6-.2-1-.2-.3-.2-.2-.1-.1-.2-.4h-.2l-1.1 1.2-.1.1H62.8l-.2.1-.2.1-.2.2-.2.3-.2.6.1.2v.1h-.3V108.1l-.2.2-.3.1h-.5l-.3-.2h-.4l-.5.3H59v-1.1l-.1-.2v-.6l-.3-.2-1.2-.1v-.7l-.1-.8-.1-.2-.1-.3-.1-.2v-.6l-.1-.2-.2-.1h-.4l-.2.1H56l-.3-.4-.1-.1H55l-.2-.2v-.1l-.2-.6-.3-.6-.2-.5v-.5l.3-.4-.3-.2v-.9h-.3l-.4.2H53l-1-.5-.4-.1h-.5.1l-.3.4h-.2l-.3-.2v-.1l-.1-.3V98l-.2-.1H50l-.1-.1-.4-.4h-.2l-.8-.2-.1-.2v-.3l-.7-.5-.3-.1v.4h.2l.2.2v.2l-.5.1h-.4l-.3.1-.3.3-.5.2-.4-.1-.8-.8-.1-.2-.1-.2-.1-.2v-.3l-.2-.1-.1-.1v-.4l-.4-.2h-.7l-.6-.8V94h.8l.3-.2.5-.3.3-.2V93l-.1-.3-.1-.2V91.8h.1v-.1l-.2-.4h-.1l-.2-.1-.1.1v.2l-.5.5-.2.2h-.2l-1.1-.1h-.6l-.4.4v.1h-.2l-.1-.4-.3-.2h-.2l-.2.3h-.1l-.1-.3v-.5H39v-.1l-.1-.1.2-.1-.2-.1H38l-.4-.3-.1-.2-.1-.1-.1-.3V90H36.6l-.3-.3-.2-.1-1.2-.4h-.3l-.5-.2h-.3l-.3.1v.3l.4.6.1.3.1.4.1.4.3.2.2.2.3.2.1.4v.4l.2.2v.4H35l-.2-.2v-.1h-.3v.2h-.4l-.2.1-.2.3h-.1l-.3.2h-.5l-.3.2-.2.3-.1.3-.2.2-.2.2-.4.5H31l-.5-.2-.4-.4-.2-.3-.1-.2-.2-.7-.1-.3-.4-.4-.1-.3-.2-.2-.3-.6-.2-.2-.2-.2-.6-.2-.2-.3v-.5l-.1-.2H26.3v.1H26l-.1-.1V90l-.2-.5h-.4l-.1-.4v-.3h.3v-.2l.1-.1.2-.2.3-.1.1-.2.1-.2h.8l.1-.2.3-.2v-.5l.2-.1V86.4l.3-.1V86L27 84.9l-.4-.2-.4-.1H25.6v.2l-.2.2-.1.2h-.4l-.4-.3H24l-.7.7h-.6v-.1l.2-.2v-.5l-.1-.3-.2-.3-.2-.1h-.2l-.7.2h-.3l-.7-1V83H20l-1 .2-.2-.1-.1-.3h-.2l-2.4-1-.5.1-.1.2-.1.2-.2.1h-.1l-.1-.2V81.6l-.1-.3-.2-.2-.2-.1-.3-.2v-.2l-.2-.3-.1-.4V79.3l.1-.2V79l-.1-.3-.4-.1H13l-.1-.3V78h-.4v.3l-.1.2H12l-.2-.2V78L11 78l-.2-.2v.1l-.1.1-.2.1h-.1l-.1.1v.3l.2.2.2.2v.6l-.2.2v1.2l-1.4-.1h-.7v-.3l.2-.3.4-.4.6-1.5.6-1.4V76h.2V75l.2-.6.1-.5.2-.4v-.7l-.2-.3-.2-.4-.3-.4v-.4l-.2-1.4.1-.2v-.3l-.3-.3-.2-.1-.3-.1-.5-.2-.3-.2-.3-.1-.8-.3-.2-.3V67l.3-.4.1-.4v-.5l-.1-.5-.2-.3-.6-.5-.3-.3v-.5l-.1-.6-.2-.2-.2-.1-.2-.3V62l.1-.3.7-.7.2-.3.2-.4.1-.3v-1.2l.1-.2.3-.5v-.5l.2-.2.2-.3-.8-.6-.1-.2v-.6l.2-.3V55l-.1-.3v-.1l.2-.3V54l-.2-.4-.3-.1h-.4l-.4-.3-.3-.3.1-.4-.2-.6-.3-.8-.1-.8.6-.6.3-.4.2-.5v-.2l-.3-.2.1-.5.3-.7-.3-.3-.8-.9-.7-.3-.3-.4-.3-.1V45l-.5-.8-.2-.2L2 43l-.3-.1-.4-.5-.2-.1H.8l-.3-.1-.2-.2-.1-.2.3-.4.1-.2V40.6l-.1-.7v-.4l.5-.4.7-.4.8-.5.3-.4.2-.4v-.2l.4-1.1v-.3l-.1-.3v-.8l.2-.2h.1l.1-.2.3-.6-.1-.2v-.1l-.3-.2v-.6l-.1-.2-.3-1.6-.2-1-.2-.5-.1-.4-.3-.4-.1-.5V26.6l-.3-.8-.2-.4v-.8H2l.2-.2.2-.1V24l-.2-.1.1-.1v-.1l-.1-.1v-.2l.2.1.1.1.2.1.1.4.2.2.3.1.3.3h.1l.5.2.7.2.2.2.2.2.4.8.1.2.1-.4V26h.2l.1-.2V25.5h-.4l-.1-.1-.4-1V24l.4-.9.1.1h.5l-.1-.6v-.8l.1-.4v.3l-.2.1-.3.3.1.2-.2-.1v-.4l.2-.1-.2-.4-.3-.1L4 21l-.2-.2.1-.4v-.1l-.2.2h-.5v.2L3 21h.4l.2.1V21.6h-.4l-.3.2H2.7v.2h.1v.1H2.2l-.2-.2-.5-.9-.3-.1-.2-.3-.2-.3H1l.3-.6h.2v.2l.5.1h1.7l.4-.3.9-.6 3.2-1.4 2.8-.8 3.3-1.4 2.2-.6 2.4-.6 2.4-1 2-.3 1.3-.5-.2.2-.6.2.3.2 1-.2v-.2h.5v-.5h-.3l-.6.2.4-.3.5-.3.7-.9-.1.3-.3.3-.1.2.3-.1h.2l.2-.3.4-.2.1-.2-.1-.3h-.2l-.2.2-.1.1.5-.8 1.4-1.9v.4h.2l.2-.2V8h-.2l-.2.2.3-.5.4-.5.8-.5 2.6-.4 1-.4h.5l.4-.2 1.2-1.3 3.7-1.7 4.5-.9 2.1-.7 3.3-.3h2l.2.1.5.4h.1l.3.1L56.3 4l.8 1 .1.3.2.3v.3H57v-.2l-.1-.1-.3-.2-.1-.4-.2-.2-.6-1h-.1l-.4-.1h-.1l-.2-.3-.3-.1-.7-.5-.8-.4v-.1l-.5-.3h-.2V2l-.3.6v.5l.4.1v.1l.2.3.2.4v1l.1.1h.2l.2-.3v.7l.2.2.3 1 .1.1V9l.2.4h.2l.4.3H55.2l.2.1.2.2v.1l.3.3 2 .7h.5l.3-.2.1.1h.2l.3.2 4.6-.7 1-.5h.5l.3-.3.8-.7h.3" fill="#7F807C" fill-rule="evenodd"/></svg>