<svg width="158" height="115"><path d="M113.7 31.7l.8.2h.3l.4-.3.4-.3.3-.2h.4l.4.1.2.2v.3l.2.7v.2l.3.3.1.2v1.1l.2.4.2.4.3.4 1.5 1 .3.3.2.5-.1.3-.4.1h-1l-.2.1.2.3.6.6.2.2h1.5l.3.2v.2l.2.2v.2l-.2.7v.2l.1.2.7.3 1 1 .6.2h.3l.8-.3h.7l.2.2.3.5 1.4.8.4.3.3.2.6.1.3.2.2.2.1.3.6 2v.4l.4.2.8 1 .5.4 1.6.7 1.4 1.1.2.8.5.5.2.3.2.3.4.2h.7l-.2.4-.1.2v.5l.2.1h.3l.1.2v.5l-.1.2-.5.5-.2.2v.6l-.2.3-.1.2-.5.3-.2.4v.6l.4 1.1V60.6h.3l2.4 1 .2.3-.1.3-.4.2.2.3.3.3.3.3 1 .4.3.2.3.4 1 2.2v.6l-.2 1-.6 2v1.1l.3.7.4.4.5.4.4.5.2.5v.5l-.2 1.1-.4 1.2-.9.8-2.1 1.3.3.3.4.5.5 1 .3 1 .6.8.4.5 1.5 1.1.2.2.2.4.2.2.2.1h.3l.2.1.1.3v.5l-.4 1.4v.3h.3l.7.4.2.1v.2l.2.5.1.2.4.2.2-.1 1.1-.8v-.5l.2-.5.3-.5.4-.2h.3l.2.3.2.2.2.2h1.5v.7h.7l.1-.2v.6l.2.5.7.9.5.5.1.2v.3l-.3.5-.1.3v.4l.3.4.3.3.2.3v.9l.2.4.4.1.4.2.3.3.3.2h.4l.3.2v.2l-.2.2v.1l.3.5.2.3v.2h.2l.2.2v.1l-.2.1V97.2l-.1.6-.1.2h.7l.2-.3v-.5l.3.2v.3l.1.3V98.8l-.2.1-.2.2H156.3l-.1-.1h-.2v.4h.2l.1.2-.1.3-.2.3V101l-.1.1v.2h.2v.1l.2.1v.2l.2.2V103l-.2.2.3.6v.2l-.2.4h-.3l-.4.1-.2.7-.2.2-.2.1v.4h.1l.2.2.2.1.1.3v2l-.6.3-.1.1.2.1.2.1.3.5.2.2v-.2l.2-.2.2-.1.1.4v.2l.2.4v.3l.3-.3v-.2l.4.5-.1.6-.2.7v.6h-.7l-1.7-.6h-3.1l-1 .3-2 .7-1 .2-2-.1-.6-.1-1.5-.7H143l-.4.2-1 .5-.3.1h-.5l-1.6-.6h-.6l-.5.3-.8.7-1 .6-4.3 1.1-.4-.2-.7-1.1-.5-.4-1-.4h-.6l-.4-.1h-.5l-.5.3-.7.4H126.2l-.1-.2-.1-.3-.8-.8-.4-.3-.5-.2h-2.7l-.1-.3-.1-.2-.5-.2h-.7l-.3-.2-.2-.2v-.5l-.7-.6-1-.5h-.9l-.4 1-.1.5-.3.3h-.4l-.5-.1h-.9l-.4-.2-.3-.5v-.9l.4-.9v-.4l.1-.5-.1-.5-.3-.4h-1.3l-.5-.2-.2.3-.2-.1H110.6l-.3-.2-.1-.1h-.2l-.5.1h-.4l-.3-.2h-.5l-.7.1h-.1l-.1.2H107l-.3-.2-1.3-.4-8.3-.3H70.1l-9-.1H59l-.6.4-1.5 1-1.6.8-1.4 1-6.4 3-1 .2-4.6-.3-2 .2-.5-.1-1.6-.5-.9-.1-2 .3h-.1l-.1.2H34.4l-.6-.2h-.5l-1.8 1-2 1-.8.3h-1.3l-1.3.4h-.5l-3.5-.2-1 .2-.5.4-.1-.3-.2-.4v-.5l-.2-.2-.4-.2-.6-.6-.3-.4v-1.6l.2-.2v-.3l.3-.2 1.2-.8H22l.8-.5.3-.2.2-.2v-.2l.2-.3 1-.7.5.5.4 1 .3.3v-.5l.3-.3.4-.1.5.1.9.5.8.2.8.4h.5l.5-.2.6-.8.4-.2h.6l.5.2h.5l.6-.3.3-.1.2.2.2.3.1.2 2-.7.4-.1h.7l.4-.2.3-.2.4-.2h.5l.5.3 1 .8.3.2.3.1h1.6l.2.1.3.4H43.5l.7-.1.3-.2.3-.3.3-.3.6.3.1-.1.2-.1h.1l.4.2h.4l.2.2.2.4.1.2.2.2.2.1h.8l1.2-.5.4-.4.8-1 .3-.3.3-.1.1-.2.1-.3-.1-.2-.3-.1-.2-.2.3-.2-.3-.6-.2-.7-.1-.9.2-.6.3-.2h1.1l.4-.2.2-.1.2-.3v-.3l.6.5.5.2.3-.3v-.8l-.3.5H54l-.4-.2h-.4l-.4.1-.6.5h-.7l-.4.1-.4.2-.1.4v1.5l.3 1V106.2l-.7.6-.2.2-1.3 1.2-.3.2H48l-.3-.1-.2-.2.1-.8-.7-.3-1.8-.3-1.3.8h-.5l-.1-.2-.2-.2h-.6l-.5.2-.3.1h-.3l-.3-.3-.7-.4v-.5l-.4-.1h-.2v-.1l-.3-.2-.3-.7v-.1H39l-.1-.2-.1-.5-.1-.3h-.2V104.3l-.3.5-.1.2-.1.9-.7.4-1 .2-.4.1-.5.4H35l-.6-.2h-1l-.3.1-.5.2-.2.1H32l-.9-.2-.2.1-.4.2-.2.1-.1.1-.1.3-.2.3-.2.2-1-.4-1-.4-.3-.4-.2-.3h-.1l-.2-.2h-.3l-.1-.3v-.2l.2-.3.2-.1h.3v-.3h-.4l-.2-.2-.2-.3v-.4l-.3 2.2h-.1l-.4-.5-1-.8v-.5l-.3.3-.2.2-.3.3h-.7l-.2-.2V105l.3-.7.5-.5.3-.6-.1-.9-.1.7v.2l-.2.2-.1.2h-.2l-.5.5-.2.3-.1.3v.6l.2.9-.1.4-.8.3-1 1-1 .3-.4-.3-.2-.7v-1.8l.5-.9.6-.5 1 .3v-.4l-.4-.3h-1l-.5.7-.3.2H19l.1-.3.1-.2v-.2l-.2-.2.5-.8.2-.4-.2-.4h-.2v.3h-.4v-.7l.1-.4 1-1.3V99l-.1-.6v-.8l.3-1.1v-1.1l-.1-.3v-.6l.1-.2.2-.3.4-.4v-.2l.4-.6 1-.2H36.8l3.3.1h3.4v-2l.1-2.2.1-.4.3-.1 1.8-.2 1.2-.4h.3l1.7.2h.4l.8-.3.6-.3.6-.2h.8l2.8.6h.9l.8-.2.9-.3.7-.5.5-.6.2-.8v-1.6l.4-.6 1.1-1.1.6-.3.7.5 1.2 1 1.2 1 1.7.9.9.2h1l.4.2.8.5.5.2h.5l.3.2.5.7.7.7.9.3.9.2 1-.2.8-.2.3.1 1 1 .3.1.3.1h.8l.4.2.3.3.2.2.2.2.3.2.9.5.7.2H83l1.4.2h.7l.6-.3 1.2-1 .4-.1h.4l1.1-.4h1l1.1-.3 2-.2 1.2-.5.7-1.1.1-1.4-.6-1.2-.3-.2-.5-.3-.3-.2-.1-.3-.2-.5v-.2l-.5-.3-.6-.3-.7-.3h-.9l-.5.3-.3.1h-1l-.5.2-1.2.6-1.4.3-.5.2-1.4 1-1.5.4-.5.1H81l-.7-.3-2-1.5-.3-.3-.1-.3-.4-1.2-.2-.4-.4-.5-.5-.4-1-.5h-1.1l-1 .2-1.6.9H71l-1-.7-.2-.2-.5-1.7-.2-.4-.4-.5-.9-.7-.9-.3-2.6-.2-1.5-.5h-.5l-2 .6-1.8 1.3h-.8l-.5-.7-.2-.3-1.1-.1-1.2.4-1.1.8-.8.9-.3.4-.2.6-.2.5-.1.6v1l-.5.1H25l-.3-.4v-1.1l.4-.4.6-.3.6-.5-.3-.3h-.2l.3-.4.3-.3v-.4h-.6v.9l-.3.4H25l-.2.5-.4.3-.5.2-.5-.2-.4-.4-.1-.5.2-1V77l.1-.3.2-.3 1-1 .1-.4h.2l.4.2.1.1-.2-.5.9-.2v.5l.2.5.3.3h.4l-.2-.6v-.7l-.2-.5-.3-.2v-.4l.6-2.4v-.4l-.5.8-.2.5-.2 1-.3.7-.3.5-.3-.1h-.2l-.3.3-.4.2h-.6l-.5.2-.2.2-.1.2v.2l-.2.3-.1.1-.3.2-.2.1-.3.5-.2.2-.2-.1v-.6l-.1-.3-.3-.1-.3-.2-.1-.6v-.5l.2-.3-.2-.4v-.4l-.2-.8V72l.1-.2.2-.2.6-.5h.3l.3-.1h.8l.3.2.3.2v.3l.3-.3.3-.4.3-.2.6.2v-.5l.2-.3.3-.2.4-.2H25l-.4.1h-.3l-.3-.3 1.2-.7.4-.4.7-.8.3-.3.9-.2.4-.6h.5l.2.2.2.1h.2l.2-.2.4-.2.2-.1-1.6-.1-.7-.3v-.5l-.3.2-.2.4v.3l.4.3-.3.2h-.3l-.3-.1h-.5v.2l-.1.2-.1.2-.7 1.2-.2.3h-.2l-.6.2-.3.2-.2.3-.3.6-.3.3-.6.2-.5-.1-.6-.2h-.6l.6-1.2v-.1l.5-.2.7-.8-.4.1-.3.6H21l-.2.1-.2.2.3.3v.2l-.4.5v.2l-.2.4v.2l-.6.6-.1.2-.1.8V75l-.2-5-.1-.8-.5-1.3-.4-1-.3-.2-.3-.1-.7-.2-.2-.2-.1-.4-.3-1.4-.1-.5-.2-.3-.5-.5-.2-.1h-.2L15 63v-.7l.1-.5v-.7l-.4-.5-.8-.8-1.8-.8-.3-.3-.2-.4-.9-1.3-.6-1.8-1-1.5-.8-.6-.4-.3-.5-.3h-.6l-.4-.2-1-.5-.3-.2h-.8l-.7-.1H3l-.5.4.2.3H3l-.2.5-.3.1v.1l.2.2v.4h-.2v.2l-.4-.2-1.7-2.1L0 51l4.2-1.1 1.3-1 3.8-1.7.8-.7 4.1-4.8.8-1.2 1.8-2 3.6-6.3L22 30l3.4-5.7v-.5l-.1-.3.5-1 .3-1.5V18l.2-.3.4-1.2.4-1 .1-1.8.2-.5.4-.4 1-.2.3-.2.2-.3v-.3l1.1-4.5.2-1 .1-.6.4-.5.5-.4.5-.3.6-.2.8.2h.6l.3-.2.7-.5.3-.1h.7l.2.1.2.2.3.5.4.4.5.3H39l.2-.2H40.1l.2.1h.2l1-.5h.3l1 .2h.1l.7-.1h.4l1.1.4h1.1l.6.4H48l.3-.3.6-.5.3-.2h.4l1 .2h.4l.3-.2.3-.2.6-1 .3-.2.4-.2h.4l.2.2.2.3.1.3.4.1h.3l.4-.1 1-.4.5-.1h.8l1.2.1h.4l2.8-.4.5-.2.2-.1V2l-.4-.4-.2-.4V1l.3-.3.4-.1.3.1.3.3.2.3.2.2H64l.1-.1.2-.2V1l.1-.3.2-.3.2-.2.6-.2.3.2.3.3.2.4.3.4h.5l.8-.1 4.3.3h.3l.9-.3h.5l.7.4h.5l1.1-.2h.3l1 .2h.6l.2-.1.3-.2.7-.4h.7l1.6.6h.2l.1.3V2l-.1.5v.2H83l.2.1v.2l.1.5.1.2.3.1h.6l.3.1.2.1.4.6.2.2.6.4.9 1 1.5 1.4.9.5.1.1.5.6.2.1.5.2.3.2.1.1v.2l-.1.4v.4l.2.4.1.2v1.1l.4.3 1 .2.2.2.5.3.1.2.1.2.3.7v.2l.2.3.2.2.3.1H95l.4-.3.4-.3.2-.2.5-.6.2-.2.2-.2h.7v.3l-.3.8v.3h.2l.2.2h.1v.1l.1.1h.1l.2.1.2.2.2.1h.2l.7-.4H100.3l.2-.1.8-.4 1.3-.2.4-.2h.4v.4l-.3.8v.4l.2.2.9-.4h.4l.1.1.2.4.1.1.7.5.2.2v.7l.1.2.4.9.1.2.2.3.3.2.6.5.2.2v.5l-.1.4v.4l.2.2.4.5.3.4V24l-.1.2v.3l.1.2h.2l.4.3.2.2.2.2.3.4v.2l.1.2v.2l-.4.6-.1.2v.5l.2.6h.4l.8-.1H111.5l.4.4h.2l.6.2.3.2.3.3.2.3v.4l-.1 1v.4l.1.3h.2" fill="none" fill-rule="evenodd"/></svg>