<svg width="123" height="109"><g fill="none" fill-rule="evenodd"><path d="M68.1 81.8L65.8 79 62 77.4l-4.8-2.8-1.8-3.7-.9-10.2-1.8-3.4-2.7 1-2.3 2.5L46 64l-.5 2.5-1.2.9-5-.2-1.1.8-.2 2.1-.6 1.4-1.3.3-2.4-.2 6.7 6.7 1.9 1 7.6 2.5 3.3 2.3 1.6 1.5 1.2 2 1 .2 1 .4.5 1.6v1.5l-.2 1-.1 1.1.3 1.6-2.3 2.5 3.7 5.3 6 4.6 4.5.8-1.2-2.1zM5 36.6l-3.6-1.2-1 3.9 1.5 5 3 3.6 4-.9 1.8-4.2-2-3.6zM105.4.3h-1.6l-1.5.3-2.7 1 1.4 3.2 2.2 2.5 2.9 1.3 3.6.3-.2 2.5 2 2.1 3 1.2h2.6l2-1.6v-2.3l.5-1.8h3.4l-14.6-6z"/></g></svg>