<?xml version="1.0" encoding="UTF-8"?><svg xmlns="http://www.w3.org/2000/svg" data-name="East Timor" viewBox="0 0 171 115"><path d="m44.3 72.1-.8.2-.3.4-.5.2-3.8.8-2.6.8-1.2.5-.4.4-.9 1.2-.4.3-.7.1-3.2 1.3-.7.2 1.3 2.2 1 .9 1.2.2.5-.3.8-1 .5-.5.7-.3h.5l.6.2.5.5.5.5.4.7.3.7v2.4l.3-.1.4-.1.8-.1.6-.2.6-.3.3-.5V83l-.1-.7V82l.1-.3.4-.5.1-.3.1-1.2.3-.4H41.8l.4-.2 1.1-1 .8-1 .1-.2.2-.1.1-.4.2-1.3.6-2.2V72h-1Zm42.8-35 .5.2 1.3.4.3.2.1.1h.4l.4-.4.1-.3.3-1.2 1.5-3.7.4-1.2-.8-.3-1 .7-1 1-.4.7-.3.5-1.4 1-.5.5-.3.5-.1.4.1.4.4.4Zm70.2 4-.8-.5-1.8-.5-.8-.5-.3-.4V39l-.2-.3h-.8l-1.2.9-.7.3-1 .1h-1l-.7-.3-2.7-1.3-.7-.5-.6-.1-.9.4-4 2.8-1.7.8-1.7.3h-.3l-.7-.2h-.4l-.3.1-.8.5-1 .3-3 1.4-1.6.6-1.5-1.4-.5-.2h-1l-.9-.2-.8-.4-.7-.5-.4.2h-.8l-.4.1-1.3.7-1.3.4-1.7 1.2-.8.4-1.6.2H112l-.8.2-1.7.5-.9.2-1-.1-1.6-.8-4-.7h-2l-4.5 1.6-2.1.3h-1.2l-.7-.3-1 1H90l-1-.2h-1L86 48l-.9.2-2.5-.2-.8.1-2.6.8-1.2.7h-.4l-1.5-.1h-.3l-.7.5-1.8.2-.8.3-.7.5-.5.9-.3.9-.3 3.5-.1.7-.6.5-1.7.6-.4.4-.2.6-1.9 2.9-.8.8-1.4.7.2 1-.6 1.3v.7l.2.6.3.5.5.4.5.1h.8l.5-.2 1-.7 1.8-.8.6-.5v-.3l.3-.7v-.3l.5-.1h.2l.1.3.3.3.8.4.7.5.5.6.4.8v.9l-.7 2.4v.4l.2.4.1.5-.1.3-.3.2H71l-.6.3-.4.3-.3.3H69L69 73l-.5-.5-.2-.2-.3-.1H67l-1.3.2-.7.8-.1 1.2.2 1.3.2.7.3.5 1 .8.8.5.2.3V79.7l.9 1.4.2.6.4 2.4 1.4-1 .7-.6.6-.4.8-.3h1.8l.6-.3.4-.3.5-.5.7-1 .4-.6 1.1-.5 2-1.7 1.5-.8 6.8-2.6.8-.4.8-.7.6-.1 2 .3h.7l2.5-1.4.8-.2h1.7l.4-.2.9-.7.4-.3h.8l2.3.3.7-.2 6.9-4.7 1.7-.7 10.4-1.3 1.6-.5 1.4-1.2 1.5-2.5 1.5-1.7.4-.2h1.2l.3-.2 1.1-.9.5-.2.8-.2 6-.4 1.1-.6 2.6-1.8 2.7-.6h.5l.2-.4 2.6-2.5 3.6-2.8 1.7-1.8 3-2.1.3-.7-.3-.8Z" class="cls-1"/></svg>