<svg width="127" height="115"><path d="M112.4 15.4l-.2.2H112.5v-.2zM29.7 61.3v.1h.1v-.1h-.1zm90.9-50.6l-.2-.2h-.4l.1.2-.1.1.1.1H120.4l.2-.2zm-3.4 1.8h-.1v.2h.4v-.2h-.3zM30 61.5V61.1h-.2v.2l.2.1zm-2.9.2v-.2l-.2.1v.1h.2zM25.3 60l-.4.1h.4zm2.3 1.4v.1h.2v-.3h-.2l-.1.1v.1zm2.2.1v.2h.1v-.2h-.1zm95-55.3l-.1-.1h-.2v.2h.2zm-.1.6l-.1.1V7h.2l.1-.1h-.2zm-4.3 4.2v.1h.2V11h-.1zm5.6-5.3l-.3-.1.1-.2v-.2l-.3-.1-.2.1-.1-.2-.2-.2h-.2l-.1.3v.2h.2v.1l-.1.2v.1l-.1.2h.4v.2h.2v-.2h.2l.2.2h.2l.2-.3-.1-.1zm-5.4 5l-.1.2h.2v-.1zm3.3-5.6v.1h-.2l-.1.2v.3h.2l.1-.2h.2V5h-.2zm.5-4.9l-.2.1-.1.1v.2h.1l.3-.2-.1-.2zM123 6h-.4v-.4l-.1-.1v-.2l.2-.1h.1l.4-.3-.1-.3v-.3l.4.3v-.7h.2l.2-.3v-.2h-.3V3l.2-.1v-.2h-.3v-.1l.2-.2-.2-.2h-.5V2l-.2-.2.1-.1v-.4h-.3l-.2.2v.3h-.2V2l-.3-.2-.2.2h-.5V2h-.3v.1h-.3l-.2-.2-.2.3.3.5.5.1v.7l-.1.1h-.5v.2h-.5l-.1.3-.5-.1V3.7h-.2l-.2-.2v-.2l-.3-.3h-.2v-.1h-1l-.6.6h-1.3v.1h-.1V4h-.5l-.5.2-.4.3v.2h-.1l-.2.1.2.3v.2h-.5V5h-.2v-.2l-.2.1h-.5v.2h-.2l-.2.1.1.2-.7.1h-.5l-.3.2h-.3v.5h-.2l-.2-.1h-.1l-.2.2v-.1l-.1-.1h-.4l-.1.1v.1h-.5v.2h-.4l-.2.2V7l.2.2-.1.2v.1h-.2l-.6.3-.2.3h-.1l-.3.1-.2.1v.5h-.5l-.2.1v.3h-.3v.2l-.8.1-.2.1v.2h-.4l-.2.1h-.1V10.2h-.2l-.2.2-.1.3h-.2l-.1.3h-.2l-.1.2h-.1l-.3.3v.2h-.2l-.4.2h-.5l-.2.1-.2.3v.1h.4v.4l-.2.3h-.1l-.4.4.1.1v.1l-.3.2-.4.1-.1.1h-.3v.4h.1v.7h-.2l-.1.1H98.8v.1h-.3l-.1.2.2.3v.2l-.2.2-.2.2h-.9l-.1.1v.2h.3l.2-.1.2.1v.2l-.3-.1h-1.3v-.4l-.2-.1h-.2l-.2.4v.3l.3.7-.2.1v.1h-.2l-.2.2V18.9l.4.2 1.2-.4H98l.2.2.7.1h.3V19.9h.9v.1h.5l.3-.4V19h.1v.2l.2.2h.5l.2-1.5.2-.2.3-.3.3-.1H103.4V17l.3-.2.5-.6V16l.4-.3h.4l.2.4.3.4h.4l.2.2h.4l.3.1.1-.4h.1l.2-.3h.3l.2.2H108V16l.2-.1v-.2l.1-.1v-.3l.3-.3V15h.3v-.1h.3l.3.2h.4l.7-.1v-.1h.5l.1.2h.1l.1.2v.2h.2l.3-.3h.4v.1h.3l.4-.3.3-.2.4-.3.2-.3.3-.1v-.2l.2-.2.2-.3h.2l.2-.2V13h.1l.2-.2h.2l.2-.2.3-.1.1-.2h.4l.2-.2h.2v.2h.3l.1-.1V12h-.1l.1-.1-.1-.3h-.2v-.1l.2-.2.1-.3.2-.3h.2l.5-.3v-.3h.4l.2-.2h.4v.2h.8V10.4H120.8l.2-.2V10l-.1-.2.2-.1v-.3l-.2-.4h-.1v-.4h.1l.2-.1h.2l.3.3V9h.2l.4.3h.2l.2-.3V9l.2-.2v-.5h.3l.1-.1v-.5l.1-.2-.3-.2.2-.1V7l-.1-.1h.2l.2-.3v-.4L123 6zM21.2 59.4l.1.1.1.1.2-.1.1.2h.7l-.2-.3V59.1l.2.2.3-.2.1.2.2-.1h.2V59l-.2-.5v-.2l-.1-.1V58l.2.2h.1V58l-.2-.4h-.2l-.1.2h-.2v-.1H22l-.2.2h-.4l-.2.5v.6l-.4.4-.2.2.3.1.2-.2zM119 3h-.2v.1h.2zm.2.3V3l-.2.1v.1h.2zm-3.7.1h.1v-.2h-.2v.2zm7.7-3.1l.2-.1-.2-.2-.2.2v.1h.2zM113 2.8l.2-.2h-.1l-.2-.1V2.8h.1zm10.8 1.7v.1h.2v-.1h-.2zm-.7-3.6h.4l.5-.3V.4l-.1-.1h-.2l-.2.2h-.5V1zm-.4 0h.1V.5h-.2v.2h.1zm-42.1 57h.1-.1zm-55.8 2.7h-.4v.2H24v.4h1v.2h.5V61h.2l.1-.3v-.2h-1zM88.7 46h-.2l-.2-.2H88l-.4-.3-.2-.2h-.1l-.2.2H87l-.3.2v.2l-.2.2h-1.2l-.2-.1h-2.8l-.5-.2v-.1l-.1-.2-.3-.2h-.2v.2l-.7-.1h-1.1v.1h-.5l-.1.2-.2-.2h-.3l-.1.2v.1l-.2.2v.2l-.3.2v.1h-.4l-.5-.2H76v.1h-.2l-.2.2h-.5l-.2.1h-.2l-.5.2H74v.1h-.7l-.2.1H73l-.1.1H72v.2h-.4v-.1h-.5l-.3-.2-.3.1h-1.1l-.5.4h-.2l-.2.2v.2h-.2l-.3.2v-.1H67.2l-.2.3-.4-.1-.1.1-.2.1-.2.2h-.1l-.4.5h-.2l-.3.1h-1.1v.2h-.8l-.4-.3-.1.2-.3.2h-.8l-.2-.2-.1.1-.2.2h-.5v-.1H60v-.2H60v.2h.1H58l-.3-.1h-.1l-.2-.3h-.2v.1h-2.3v-.1h-.6l-.1-.1h-.7l-.1-.2h-.2l-.3-.2h-.4l-.3-.1H52l-.4-.2-.2-.2-.2-.1H50l.2.4-.1.1v.3l-.8.8-.3.2-.5.2h-.6l-.3.2v.2h.2l-.2.3-.1.1h-.8l-.3-.1v-.2l-.2-.3H46l-.4.4-.3.2v.1h.2v.2H45l-.2.2h-.1l-.1.1v.5l.2.1v.2l-.1.2h-.3v.1h-.7l-.4-.2.1-.2h.2V52h-.2l-.1-.1v-.2l.3-.3-.3-.3-.1.2-.3.1h-.3v.5h-.1l-.2.3h-.5l-.3-.3.2-.2v-.3h-.3l-.2-.2h-.6l-.2-.2h-.1l.1.4V51.8l.2.1v.2l.1.1-.1.1-.2.3v.1l-.3.1-.3.4H39.6l-.3-.1v-.5H39l-.2-.3h-.2l.2.4v.2l-.4.2h-.3l-.1-.3-.4-.3v-.2h-.2v.2l-.4.3v.3l-.2.1h-.2l-.1.2H36l-.2-.2h-.3v.1h-.3l-.6.4-.2.1h-.1l-.2-.1H34l-.2-.2-.1.1h-.5l-.2-.1h-.3l-.4.3-.3.1-.3.1-.3-.1h-2.1l-.1-.1h-.7l-.1.1v.1l-.4.3v.3l-.1.1H27.3v.2h-.2l-.2.2h-.1v.1H26.4v.2h-.1l-.3.3-.1.3-.2.2h-.4l-.2.3h-.6l-.3.2h-.5l-.2.2-.1.2.1.3.1.2v.2h.4l.2-.2v.3l-.2.2v.2l-.3.3v.1l.2.2.4.2v.1l-.2.1-.1.2h.2v.1h.5l.3.2h.2v-.1H27V60l-.3.2v.5h.2l.2.2h.3l.5-.3h.3v-.1h.3l.2-.3v-.1h-.2l-.1-.1-.2-.2h-.4v-.1l.2-.2h.4l.3-.2h.1l.2-.3h.2l.2-.2h.2v.3l.3.2h.1l1 .1.5.2.5.1.3.2H33v-.4h.2l.1.3h.5v.1l.6.2.4.3.3.2v.4l.1.1v.2l.2.2h.1l.1.2h.3l.4.2h.1l.2.2.4.2.2.2v.1h.5V62.9l.2.3h.1l.2-.1h.1l.2-.1.3.3v.3l-.6.6v.3l.2.2h.1l.5.2.3.3v.6l.4.7v.1l.3.3v.2l.2.2.2.5v.4l.1.5.2.2v.3l.1.2.2.1v.6l.2.4v.4h.1v.3l.2.4v.5l-.1.8-.1.3-.1.2-.6.6v.3l.2.4v.2h.1v.3l.1.3v.5h-.1v.6l-.3.4v.3l-.3.3v.3l-.2.2V78.8l-.3.2-.1.6h-.1v.3l.1.1v.1l-.1.1v.6l-.1.1-.2.1-.1.1v.2l-.3.4V82h-.4l-.1.1v.2h1v.3l-.2.3v.2l-.2.3v.1l.3.3v.5H39.6l.4.1.1.1v.5l-.1.5v.2h-.1v.4l.1.3h.1l.3.3.2.2h.1l.3.2.3.3v.2h.1v.3l.1.2.1.5.2.3v.2h-.1v.6l.1.3-.4.6h-.2V91h.3l.3.2-.3.2v.2l.2.2h.1v.4l.2.1.1.3v.4l-.1.1-.2.3-.7.6v.3l-.2.2v.8l-.2.1-.2.3v.4l-.2.2-.4.1-.1.1h-.1l-.7.5-.1.1h-.2l-.2.2h-.2l-.1.2H38l-.3.1-.2.2-.3.3H37l-.2.1h-.1l-.4.2-.4.3H35v.2h-.8l-.1.1-1.2-.1-.1-.1h-.7v-.2h-.4l-.3-.2-.4-.2-.1-.1-.4-.1-.5-.2h-.3l-.3-.1-.9-.4-.3-.1-.2-.1h-.2l-.4.2H27l-.3.3h-.1l-.2.2v.7l.1.1V99.2h.2l.2.4-.1.2-.3.4-.7.7-.7.6-.6.3h-.2l-.2.1H24l-.4.2v.5h-.3l-.3-.3h-.2l-.6.2h-.4l-.1.2.2.4v.3l-.3.2-.3.1v.5l-.2.1h-.2l-.3.2h-.1l-.2.1-.3.1-.7.4H19v.1h-.4l-.3.2h-.5l-.3.2H16.5v.1h-2v.2h-1.1l-.4.3H13l-.4.2h-.3v.3l-.2.2H11.7l-.1.1H11l-1 .1V108.4l-.5.5-.2.6-.6.4h-.3l-.3.2H8l-.3.3h-.2l-.3.2H5l-.3.3-.2.1H2.8l-.1.2.1.2v.2l-.2.3-.3.3h-.1l-.8.8-.3.1-.2.2v.9l.1.3.5.3h.2l.2.1h.2l.1.1H4l.2-.2h.3l.6-.5 1.1-.9h.5v-.1l.6-.1h.3l.5-.4h.2v-.1h.3l.6-.5.2-.1.1-.1.6-.3.3-.2h.2l.2-.1h.3v-.1h1.6l.7.3.1.2h.1l.1.3.2.1.1.1h.2l.5-.3.2-.1h.2l.4-.2.4-.1h.5l.1-.2h.3l.1.1h.1l1.2-.1v-.1h3.4l.2.2h.1l.3.2h.9l.2.2h.2l.2.1.4.2.3.4.1.3h.1l.2.1.3.3v.1l.2.2h.3l.2.2h.2v-.1H27l.3.1v.1h.3l.4-.2.1-.2h.3l.2-.2h.1l.2-.1h.7v-.2l.2.1h.4l.5-.3.5-.2H31.7l.1-.1h1.5l.1.1h1.1v-.1h.3v-.1h1.3l.4.3h.6l.3-.2h.5v.1h.3l.4.4h.4l.1-.1h2l.3-.2h.6l.3-.2h2.2l.4-.2h1l.1-.1h.4l.3.2h.6l.3.1h.5l.2.3h.3l.3-.2h2.3l1.1-.1v-.1h.7l.4-.2.2-.2H54.3v-.1h.8l.6-.3h.4v-.1h.3l.1-.1h.4v-.1h1l.2.2h.5l.1.1.3.2H59.6l.2-.2h.3l.7.3h.3l.3.2h.5v.2h.7l.1.2h1.1l.4-.2h.2l.7-.3h.3l.2.2h.8l.2.1h1.6l.3-.3.6-.3h.5l.3-.3h.5l.2-.2H71l.6-.6h.4l.1-.2h.4l.4-.2v-.1l.3-.1.2-.2.4-.2h.4l.3-.3H75.3v-.1h.3l.6-.1.4-.3.1-.1v-.2l.1-.1.2-.3v-.2l.4-.4v-.1h.1l.2-.2.3-.1.4-.4.3-.2.8-.6.6-.3h.5v-.2h.6l.3.2h.2v.2l.1.1v.4l.2.3v.2h.2l.2.2h.3l.3-.3-.4-.2v-.2l-.1-.1v-.3l-.2-.3-.1-1.1v-.3l-.1-.1v-.3H82v-1.1h-.2v-.8l-.1-.1v-1.3l-.1-.1v-1l.1-.2v-.8l.1-.1v-.9h.1v-1.6l.2-.1v-2.8l.1-.5.2-.4v-.2l.2-.3v-.2l.5-1h.4l.3.1h.6V90l.3-.6v-.2H84.1v.1h-.5l-.2.3h-.7v-.2l-.2-.3-.3-.1-.5-.8V88l-.6-1v-.4l-.3-.3v-.5h-.1l-.2-1-.3-.2-.1-.1V84l-.2-.3v-.3l-.3-.6v-.6l-.3-.4v-.4h-.1v-.2H79V81l-.2-.5v-.3h-.1v-.5l-.1-.2v-.3l-.1-.1v-.7l-.2-.1V77h-.1v-1.2H78v-1h.1v-.3l.2-.3.2-.2.2.1h.5l.5-.7h.3v-.1l.5.1.2-.1v-.6l-.1-.2V72l-.2-.3v-.6h-.1v-.8l-.2-.4v-1.3H80V68H80v-.4l-.1-.1v-1h-.2v-1h-.1v-.2l-.2-.2-.3.2h-.3l-.2.1v-.2l.5-.1.3-.4v-.2l-.1-.3V64l-.1-.1v-.3H79v-.8h-.2v-1.1h-.1v-.9h-.1v-.5l-.1-.1V59.2l.2-.1.3-.1V58.7l.1-.1.1-.5.1-.1.5-.3.2-.2h.3l.2.1H80.9l.1.1h.8l.4-.2V57h.1v-.3l.2-.2.2-.3h.2l.2.2.2-.1V55.7l.1-.3.1-.1.1-.2v-.3l.3-.1.3-.3h.2l.1-.2v-.4l.4-.3v-.1l.4-.3h.3l.1-.3h.2l.1-.2h.1v-.2h.1l.2-.1V52l.1-.5.2-.2v-1.2l.4-.3v-.1l.1-.2v-.4l.3-.2h.8l.1-.2v-.2h.3v-.1h.1l.2-.3h.1l.2-.1h.2v-.5l-.1-.2-.2-.3.1-.1.4-.4.1-.2-.1-.2h-1zm-65 12V58v.1zm-4.7-.4l.2.3h.2v.4l-.1.3v.3l-.2.2h.4V59l.2-.2v.1l.5-.2-.2-.3V58H19.7v-.2h-.3v-.2l-.1-.1h-.1l-.2-.1H19l-.1-.2h-.3l-.1.3h.6zM37.4 52h.2v-.3h-.4l-.1.1v.2h.3zm-21.2 6v-.2h-.1v.1h.1zm-.4 2.5l.3-.3h.7v.2h.6v-.2L17 60l-.3-.2-.4-.1-.1-.1V59.3h.1l.2-.2h.3l.1-.2.3.2v.2l.3.1.1.2h.3l.2.1.2-.1-.1-.2h-.1l-.1-.2V59L18 59h-.1l-.4-.4-.5-.3-.3-.2H16l-.1.1v.7l-.2.2v.2h.2v.8h-.2l-.2.1-.2.3.1.1h.4z" fill="#7F807C" fill-rule="evenodd"/></svg>