<svg width="50" height="115"><path d="M41.1 74.4v.1h.1v-.2zm-2.9 2.4v-.2H38v.1l.2.1zm.1.5h-.1l-.3.3v.2l.4.4h.1l.3.4h.1l.2-.2v-.1l.2-.1v-.6h-.4l-.5-.3zm4-6.9l-.2-.3v-.4H41.5v.1l-.4.3v.1h-.6l-.2-.1v-.4l-.4.3h-.2l-.1.8-.5.6v.3l.2.3.2.2-.2.1v.5H39l-.4.5v.5l.4.4v.6h.9v.5l.2.2.3-.2v-.2l-.1-.1.4-.6h.2l-.1-.3.2-.3-.1-.2v-.3l-.1-.1.2-.4.1-.7.7-.4h.5l.1-.2.2-.5-.3-.2v-.4zm-5.2-34h.2l.1-.3V36h-.1l-.2-.2H37v.4l.1.1zm4.2 37.8l.1.2v-.2h-.1zm0-.5l-.2.2v.1h.3l.2-.1v-.2h-.3zM35.7 83v.2H36l-.2-.2zm4.6-14.5v-.1H40v.1h.1zm-4.7 15.1v-.1h-.1v.2h.1zM32.3 57h-.1v.2h.2V57h-.1zm4.7-9.2l-.5.3-.3.3v.8l-.2.2h-.4l-.1-.1H35l-.2.2h-.3l-.7.7-.4.1-.3.4H33v.2H33l-.5.5-1.4.7-.2.2v.6l.3.4 1.2-.1.3.2-.6 1-.2.3h-.1l-.6.6H28.6l-.9.4-.2-.2H27l-.2.3-.2.1H26l-.2.2h-.3l-.2.1v.2h1l.1-.1.3-.1 1.6.1.2.1h.6l.6.4h.3l.6.3h.4v.2h.4l.3-.4.1-.1.3-.2V56l.3-.1.5.1V56.7l.4-.1.2-.2v-.6l.4-.3h.3l.2-.4h.4l.4-.8-.2-.4.5-.3V53l.2-.5-.3-.1h-.3V52h-.4l-.1-.1.2-.2h.4v-.5h.7v-.2l.5-.2v-.2l.2-.2H37.3l-.1-.2v-.4h-.1v-.4l.2-.3v-.6l.1-.2-.4-.7zm-.8 34.5v.7h.4l.1-.2v-.5h-.5zm0-.3H36v.1h.1zm.1-.1v-.1h-.1v.1h.1zm4-12.6v.2h.2v-.2h-.2zm7.8-9.6h-.5v.1l-.3.2-.3.3-.2.1v.4l.5.4.2-.2.6-.2.2-.2v-.7l-.2-.2zm-1 1.6H47v.3h.3v-.2H47zm-1.9-1.5v.1h.2v-.1h-.2zm.1.6h-.1v.1h.2v-.1zm4.3-45.7v-1.3l.1-.1V12l-.1-.1-.1-1.6-.2-.1V8.8L49 7.3 49 7h-.2l-.3-1.1-.4-.4v-.3l-.3-.3v-.3l-.3-.4v-.6l-.4-.7v-.2l.3-.3V2l-.2-.2H47l-.1-.1h-.9l-.1-.2v-.1L46 1 46 .7l-.4-.1-.2.2H45L45 1h-.6l-.2-.5H44V.1h-1.1l-.2-.2h-1.3v.1h-.6l-.3.3h-1.1l-.9.9-.2.3h-1l-.4.4-.3.2-.1.2v.8l-.4.2-.2.5V4l-.1.1v.6l-.2.2h-.4V6l.1.1-.8.7-.4 1-.1.2v.4l-.1.1-.1.6-.7.6-.5.2-.3.3v.7l.1.1v.5h.2v.8l-.5.7h-.7l-.3-.3-.2.2v.4l-.2.1h-.2l-.4.3H29l-.3.4v.5l.3.2v.4l-.6.7v.5l.3.1.3.5-.3.1h-.4l-.2.7-1 .4v.4l.3.7v.3H27l-.2-.1-.1.3.2.2-.2.2v.6l.2.4v.9l-.3.7v.5l.2.2v.7l-.2.1-.2 1v.6h.7l.3.3v1l.6.2v.4l-.3.5v.4l.4.1v.3l.5.3h.7l.1.2v.3l.2.2.1-.1h.1v.3h-.1l.2.3v-.1h.8l.3.5.1.4-.3.1v.2l.3.2v.2l-.3.2v.2l.1.2h.8v.1l.3-.2h.2l.2-.1h.7l.8.3.3.5v.3l-.2.3v.2l-.3.2-.2.5v.1l.3.3h.5l.2-.2h.4v-.1h.6v-.2l.6.2.1.1v.3h.3l.4.3h.2l.7.6h.5l.3.3h.2l.2.3h-.2l-.3.4v.1l.3.2.2-.1h.4l.2-.3.1.1.3-.2.6.1.1-.1h.2l.2.2h.4l.1.2.5-.2.3-.4.1-.7.2-.3h.3v-.5l.4-.4v-.3l.7-.7.2.1h.4l.6-.6V33l.3-.3v-.3h.2v-2.1l.2-1.5.1-.2v-.3l.5-.4v-.5h.1V27l.1-.2.3-.5.4-.5.2-.9.4-.7V24l.2-.2V23l.2-.4.1-.8h.1v-.2l1.1-1v-.8l-.1-.1-.1-1.2-.2-.1v-.8l.3-.3v-.6h-.1V16l-.2-.1v-.7l.3-.6zm-1.2 45.3v.2h.2v-.2h-.2zm-1-.3h-.2v.1l.2-.1zm-4.9-23V37H42.8v-.2h-.3zm0 33.4v.3l.2-.1V70h-.2zM32 58.1l.1.2.1-.1V58H32zm10 9.6v-.4l-.2-.1h-.3l-.3.3.5.3.3-.1zm1.3 3.4v.3h.2V71h-.2zm2.9-4.8l-.2.2.2.3h.2l.2-.3-.2-.2h-.2zm-.2 0v-.1h-.1v.2h.1v-.1zm-5.2 1.3h-.5v.5l.5-.2h.4l-.1-.3h-.3zm5.8-5.3l-.2-.1-.5-.1v-.6l.2-.2V61h.1v-.3h-.4v-.2h-.2l-.1.2h-.3l-.3.7.2.1v.4l.2.2v.2l.2.4v.9h.2l.2-.3h1v-.5l-.3-.5zm-11 21.5v.3-.2zm-25.3 30.4h.2-.2zm0-.6h-.4l-.5-.3h-.2l-.3.3v.5l.6.3.5-.2h.2l.2-.2-.2-.4zm-1.2-10v-.3h-.2l-.1-.2h-.1v.3l.1.2H9.1zm2.2 2.1l-.5-.5v-.6l-.5.3v.2h.2l-.1.3-.3-.3h-.4v1h-.1v.2l-.5.3v.2h.3l.2.2v.2l-.5.6v.2H10l.2-.3V107l.5-.3h.2l.2-.1h.4l.2-.2-.1-.7h-.3zm3.6 1.4l-.1.2h-.2v.3l.2.1.5-.4v-.1h-.4zm-1.8-3.5v.1l-.2.2v.1l.4-.3v-.1H13zm1.9 4.3l-.2.1v.3h.2l.2-.1v-.3H15zm-13 3.5v-.2H2v.2H2zm-.7-.5v-.1h-.1v.1h.1zm.1 1.6v-.2h-.2l-.2.1v.1h.4zM31.1 12.3v-.2l-.4-.3-.2.2.4.5.2-.2zM6.7 111.2l-.2.1v-.1h-.7v-.1h-.3l-.4.2-.1-.1h-.6l-.5-.5v-.5l-.2-.4h-.5l-.2.4-.2.2h-.7l-.2-.2-.1.2h-.3l-.1.1v.7l.3-.1h.5v1l-.8.5-.7.1-.4.5v.2l.3.3.8.2.1.1.8.2h.3l.5-.5.5-.1.2-.5.5-.1.1.5h.4l.7-.4v.1h.6v-.1h.6v-.5l.2-.2h.2l.3-.2v-.5l-.4-.5h-.3zm1 1l-.1.1v.3h.2v-.3h-.2zM3.8 114l-.2.2v.6l.1.2.3-.2v-.9h-.2zm4-2.5h-.2V111.8l.1.2H8v-.4zm7.4-5.2l-.4.3v.4h.3l.2-.2v-.4zm9.8-50.2v.2h.1V56zm2 5.8H27v.6h.4v-.3l-.3-.3zm-1 22.2H26l.1.1v.1l-.1.3.2.2h.2l.3-.4-.3-.3h-.3zM24.8 56h-.1v.2h.2V56h-.1zm7.3 1.6v-.2h-.3v.2l.1.1.2-.1zm-.2.6h-.6l-.3.6v.2h.8l.3-.2v-.3l-.2-.3zM15.7 107v.3l.1.2h.2v-.3l-.2-.2zm15.8-47l-.2-.4h-.6l-.3.3v.3l-.2.2v.1l-.4.5h-.4l-.7.3h-.3l-.4.3v.1l.3.5h.4l.2-.2.5-.4.3.1.1.4h.2l.2-.2.3.1h.3V60.8l.1-.2h.4l.3-.2-.5-.3.4-.2zm-2.7 48.8v.2l.1.2v-.3zM16.6 98.5h-.2l-.1.1v.3h.1l.2-.1v-.3zm-.5.5v.1l-.1.2v.1l.2-.2V99H16zm.4 9.8v.2h.5v-.1h-.5zm5.3-15.3l.3-.1.1-.5-.2-.1v-.1l-.2-.3v-.1l-.4-.2-.3.4h-.2l-.1.4-.2.2h-.5l-.5-.6h-.3l-.3-.4h-.2v.5l-.3.3v.7l.1.2v.2l.2.2.4.5v.8l.1.3h.3v1l-.7.5h-.6V97H18v.3l-.4.3-.2.1H17l-.6-.4-.5-.2V97l-.4.2v.3l.3.2h.4l.4.4.1.4.4.4h.4l.8-.6h.5l.4.4h.4v-.2l.6-.4v-1.2l.2-.8.1-.1v-.4l-.2-.2.2-.2h.2l.1-.1 1.3.1.2-.2-.1-1-.4-.4zm.4-1v.1h.1v-.2h-.1zM19.5 96l-.1-.2h-.2l-.1.1v.1l.2.2.2-.2zm2-.9v.2l.2-.1h-.2z" fill="none" fill-rule="evenodd"/></svg>