<svg width="94px" height="105px" viewBox="0 0 94 105" version="1.1" xmlns="http://www.w3.org/2000/svg" xmlns:xlink="http://www.w3.org/1999/xlink">
    <!-- Generator: Sketch 51.2 (57519) - http://www.bohemiancoding.com/sketch -->
    <desc>Created with Sketch.</desc>
    <defs></defs>
    <g id="Page-1" stroke="none" stroke-width="1" fill="none" fill-rule="evenodd">
        <g id="Desktop-Hi-fi-Copy-2" transform="translate(-251.000000, -1096.000000)" fill="#000E84">
            <g id="Angola" transform="translate(198.000000, 1071.000000)">
                <path d="M61.3260275,25 L61.1434112,25.1042561 L61.0579884,25.2781284 L60.99678,25.4587269 L60.8945418,25.5808074 L60.7583362,25.658495 L60.6349104,25.7566976 L60.5279638,25.8777692 L60.3648535,26.1824661 L60.2794307,26.2695704 L60.160377,26.3132907 L59.3196019,26.4663118 L58.803366,26.6344668 L58.6896932,26.6445561 L58.484544,26.6186602 L58.41291,26.7242615 L58.422663,27.0484644 L58.3866778,27.2058575 L58.0698738,27.8313942 L57.9905046,27.9238794 L57.8828854,27.9655819 L57.6256082,27.9918141 L57.5105902,28.0193915 L57.4006168,28.0614302 L57.3330185,28.1192756 L57.2381791,27.9430491 L57.1688992,27.8562811 L57.0976015,27.8132334 L57.0074704,27.8132334 L56.9718215,27.8475371 L56.7417854,28.6223954 L56.5420173,28.9428988 L55.6494505,29.7022869 L55.7755667,29.6979149 L55.897311,29.6784089 L55.9992129,29.6837899 L56.0634481,29.7547513 L56.1162488,29.7022869 L56.233621,29.5354771 L56.2749871,29.4961289 L56.3772254,29.5025187 L56.4266629,29.5536379 L56.4387701,29.6276261 L56.425654,29.7022869 L56.3940409,29.7486977 L56.2669157,29.8808675 L56.2231954,29.9144985 L56.1260018,29.9363587 L56.075219,29.9168527 L56.031835,29.8822128 L55.9595283,29.8576621 L55.8075162,29.845555 L55.7308375,29.8680878 L55.7291559,29.9498111 L56.0388975,30.5255739 L56.4048028,31.0421461 L56.834607,31.8721593 L56.9990626,32.3460201 L57.0733871,32.693092 L57.1779796,32.8625923 L57.2926613,33.132313 L57.3155304,33.2284976 L57.3141851,33.4659325 L57.2859351,33.5634624 L57.2112743,33.6414863 L57.1080271,33.6848703 L57.0199138,33.6909239 L56.9375179,33.7111025 L56.84436,33.7965253 L56.6701514,34.2764397 L56.7807974,34.7543363 L57.1493932,35.3751646 L57.5139533,35.1743875 L58.1613501,35.0822385 L58.8517946,35.0896374 L59.4090603,35.0953546 L59.4359651,34.3941482 L59.4547985,33.9031356 L59.4904474,32.9607948 L59.5260962,32.0567935 L59.5509832,31.4120871 L59.5738523,30.8312797 L59.5237421,30.576693 L59.4315931,30.5121215 L58.9644585,30.3480022 L58.9214108,30.3083176 L58.8921518,30.2360109 L58.8780268,30.1552965 L58.8817262,30.090725 L58.9193929,30.0174094 L58.9671489,30.0026118 L59.023649,30.0106832 L59.0875479,30.0026118 L59.7231739,29.7840102 L60.006347,29.6034118 L60.1291001,29.3182208 L60.1516329,29.1641909 L60.2195675,29.1130717 L60.5118209,29.0912116 L60.6971278,29.0286579 L60.7522826,28.9418899 L60.7687618,28.8224999 L60.8356875,28.6607347 L60.9480151,28.5675769 L61.2880245,28.3708355 L61.3606675,28.2793592 L61.376474,28.103469 L61.4245664,27.9343051 L61.5103254,27.7748941 L61.6391322,27.6339802 L61.8661415,27.5048371 L63.3573401,27.1584378 L63.6277334,27.0612442 L63.6916323,26.8446605 L63.3385068,26.669443 L62.8404316,26.0778737 L62.5407794,25.8397662 L62.3907851,25.6722838 L62.2569337,25.3094052 L62.1449425,25.1573931 L62.0268976,25.0897948 L61.9357576,25.0995478 L61.8446176,25.1402413 L61.7272454,25.1641193 L61.6229893,25.1425955 L61.4302836,25.038003 L61.3260275,25 Z M69.2515098,36.0501388 L67.9960645,36.1513681 L67.3964237,36.0878055 L67.324117,36.1029395 L67.1875751,36.1604485 L67.0940809,36.1644842 L66.8721163,36.0952044 L66.2670946,36.0844424 L66.0155347,36.0800704 L65.967106,36.114374 L65.8120671,36.2784933 L65.7289985,36.3390291 L65.4905547,36.2129129 L65.1750959,36.13388 L64.5347616,36.0800704 L64.4227703,36.1221092 L64.1147103,36.2869011 L63.9838857,36.3373476 L63.8977904,36.3434012 L63.5715696,36.2562969 L63.4962362,36.249907 L63.2880603,36.2869011 L63.1511821,36.2912731 L63.0284289,36.2808475 L62.9130746,36.2929547 L62.7953661,36.3622345 L62.7230594,36.4533745 L62.6157765,36.672985 L62.5353984,36.77825 L62.4392138,36.8623276 L61.8072872,37.1824947 L61.6791531,37.2171346 L61.1867952,37.2450484 L61.0741313,37.2961675 L60.9453246,37.2632091 L60.8222351,37.2026733 L60.7152885,37.1703875 L60.6271753,37.2114174 L60.447922,37.3883164 L60.3514011,37.4293463 L59.9108349,37.4293463 L59.8536622,37.4407808 L59.807924,37.471385 L59.7272096,37.5584893 L59.6905518,37.5631977 L59.563763,37.5312482 L59.4988551,37.5322571 L58.7862142,37.7266443 L58.379279,37.7602753 L58.1630317,37.8309005 L58.0402785,37.8470433 L57.9350135,37.880338 L57.749034,38.0199067 L57.6256082,38.049502 L57.6256082,38.0020823 L57.7702215,37.9634066 L57.7550876,37.9005166 L57.5741528,37.7437962 L57.6767273,37.7246265 L57.7668584,37.6953675 L57.8512723,37.650302 L57.9356861,37.5840489 L57.653522,37.605909 L57.4867122,37.7434598 L57.4594711,37.9502905 L57.599376,38.1833534 L58.1996894,38.881533 L58.2555169,38.9935242 L58.35002,39.3473224 L58.5370084,39.7095283 L58.6167139,40.060636 L59.0273484,40.6976072 L59.6670101,41.966505 L60.2690051,42.4998927 L60.9164019,43.3396588 L61.4645873,44.1017374 L61.6176083,44.1669815 L61.8368825,44.025395 L61.8745492,44.082904 L61.8691682,44.1094725 L61.8476444,44.1333505 L61.8291473,44.2117107 L61.8045967,44.2497138 L61.7538139,44.3102496 L61.7356532,44.3455621 L61.7460788,44.3728033 L61.7699568,44.4000444 L61.7807187,44.4397289 L61.7968616,44.5604643 L61.8715224,44.7928545 L61.9788053,46.305577 L62.0326149,46.5248512 L62.1207281,46.734036 L62.1930348,46.8406463 L62.359172,47.0370513 L62.4365233,47.14837 L63.0923278,48.9446019 L64.0689722,51.2614417 L64.5724283,52.16208 L64.6366635,52.5091519 L64.7705149,52.7956881 L64.8239882,52.8750572 L64.9147919,53.0768433 L64.9739825,53.1615934 L65.0382177,53.2927543 L65.1455006,53.6374721 L65.2363043,53.7070883 L65.937847,54.8074947 L66.0098174,54.986748 L66.0447936,55.1515399 L66.0367222,55.7252848 L66.0155347,55.7999456 L65.9617251,55.8803237 L65.9028708,55.8917583 L65.8309005,55.8823416 L65.7289985,55.9038654 L65.8063498,56.1486991 L65.9055613,56.660563 L65.9943471,56.8868997 L66.2159754,57.1966412 L66.2509517,57.3082961 L66.2294278,57.4236505 L66.116764,57.7074961 L66.0178888,58.0942527 L65.8359451,58.1601694 L65.3671289,58.0932437 L65.3136556,58.1023241 L65.2820425,58.12822 L65.2685901,58.1682409 L65.2628728,58.2210416 L65.2440394,58.3037738 L65.1959471,58.3340417 L65.1347387,58.3474941 L64.9958426,58.4376252 L64.7436101,58.5506254 L64.6366635,58.614188 L64.7274672,58.4695747 L65.1024529,58.0932437 L64.9686015,58.137973 L64.8347501,58.2385297 L64.6127855,58.4833634 L64.5808361,58.5597058 L64.5939521,58.7386227 L64.586217,58.8223639 L64.5431693,58.907114 L64.3531542,59.1078911 L64.2616778,59.2612485 L64.1786093,59.5107905 L64.0689722,59.6126925 L63.9885941,59.6264812 L63.8846743,59.6298443 L63.7958884,59.6550675 L63.7558675,59.7377998 L63.740061,59.8148148 L63.3146288,60.5335094 L63.2342507,60.601444 L63.1377297,60.5119855 L63.1888488,60.3098632 L63.4615963,59.6762551 L64.0077638,59.2219002 L64.1708741,58.9780754 L63.7911801,59.1418584 L63.3650753,59.6527134 L63.076185,60.2516816 L63.1084707,60.6771137 L63.263846,60.8990784 L63.4807659,61.4035434 L64.0508114,62.3505925 L64.2243474,62.4817534 L64.2569695,62.6492358 L64.3982197,62.9155933 L64.4305055,63.0343108 L64.4116721,63.3753292 L64.4251245,63.5212877 L64.6716398,64.2285477 L64.6635683,64.3159883 L64.7247767,64.3694616 L64.7869941,64.4965868 L64.832396,64.6509531 L64.845512,64.7807688 L64.7943929,64.9183196 L64.6235474,65.0975728 L64.586217,65.2283974 L64.6423808,65.3726745 L65.2440394,66.0829612 L65.4501975,66.395057 L65.6163346,66.7276676 L65.6778794,67.0387544 L65.6324775,67.1985016 L65.5598346,67.3057845 L65.5416738,67.4177758 L65.9943471,68.140506 L66.2855916,68.4415035 L66.4059906,68.5975514 L66.4914134,68.9718644 L66.5852439,69.1427099 L66.9948695,69.718809 L67.0591047,69.882592 L67.0836553,70.0504107 L67.0994619,70.5669829 L67.1367923,70.7112599 L67.2494562,70.8652899 L67.7310521,71.2597816 L68.4487378,72.1227532 L68.4803509,72.2091848 L68.5287796,72.2855272 L68.844911,72.5465038 L68.9357147,72.6685843 L68.9861612,72.7910012 L68.9730451,72.9150996 L68.7403186,73.1915465 L68.6787738,73.3206895 L68.6814643,73.4511778 L68.7403186,73.597809 L69.417647,74.597995 L69.5296382,74.8435013 L69.5699954,75.1226387 L69.561924,75.6856217 L69.5541888,76.132914 L69.3665278,77.2286121 L69.3665278,77.4381333 L69.3453403,77.5299459 L69.2030812,77.7280325 L69.1657508,77.8111011 L69.1580156,77.8827351 L69.1607061,78.3000959 L69.1391823,78.394599 L69.1065602,78.4887658 L69.0991614,78.5751975 L69.1607061,78.6444774 L69.0961346,78.7800103 L69.0641851,78.9548915 L69.0318994,79.7862499 L69.1607061,81.1785735 L69.1418727,81.3379844 L69.0692298,81.5686931 L68.9461403,82.3348074 L68.8876224,82.5049803 L68.8153157,82.6492573 L68.7241757,82.7760461 L68.6145386,82.8924094 L68.5583748,83.013481 L68.4803509,83.5488866 L68.3922377,83.7984286 L68.1675826,84.2558103 L67.987993,84.8645315 L67.9133322,84.9788769 L67.6668169,85.2499428 L67.5141322,85.4978033 L67.3937332,85.6158481 L67.3594296,85.5415236 L67.3698552,85.4786336 L67.4176112,85.4308776 L67.4979893,85.400946 L67.4979893,85.347809 L67.4475428,85.347809 L66.9706552,85.8112442 L66.8267145,86.0375809 L66.7675239,86.1788311 L66.7379286,86.3227718 L66.7217857,86.6412574 L66.6925268,86.7630016 L66.6229106,86.85885 L66.4547556,86.9859752 L66.1144098,87.3454906 L65.8947994,87.5183539 L65.6270966,87.5698094 L65.4989624,87.5318063 L65.3671289,87.4288955 L65.2363043,87.406699 L65.1401196,87.4406663 L64.9020121,87.6760833 L64.8135626,87.6300089 L64.644735,87.6017588 L64.6366635,87.5698094 L64.4900323,87.5883064 L64.3608893,87.6609494 L64.1416151,87.8586997 L64.095877,87.9185629 L63.9647161,88.1496079 L63.9031713,88.2040901 L63.7050847,88.3076736 L63.2100364,88.7825434 L63.0284289,88.8878084 L62.6773213,89.2479965 L62.5865175,89.44272 L62.6426813,89.6885626 L62.7526547,89.909182 L62.8249614,90.1166853 L62.8222709,90.3214981 L62.7176785,90.5286651 L62.2518891,91.0670974 L62.1207281,91.2729192 L62.0430405,91.3576693 L61.8264569,91.5127082 L61.3280454,92.1567419 L61.2399322,92.2213135 L61.1037266,92.280504 L61.0926284,92.2932838 L60.9537323,92.3864417 L60.9133751,92.3773613 L60.8599018,92.3494476 L60.8171905,92.3534833 L60.7980208,92.4389061 L60.7475743,92.5276919 L60.5336811,92.641701 L60.482562,92.7621 L60.4660828,92.8155733 L60.3941124,92.8929246 L60.3779695,92.94438 L60.3914219,93.0008801 L60.4129458,93.0546897 L60.4314428,93.1125351 L60.4260619,93.1841691 L60.3648535,93.3200384 L60.2861569,93.3664491 L60.1879544,93.3873004 L60.0631834,93.4528808 L59.957582,93.5678988 L59.9175611,93.6499585 L59.8600521,93.7000687 L59.7040042,93.7172205 L59.5950398,93.7528694 L59.5112986,93.8413189 L59.4598432,93.9610453 L59.4420187,94.0848074 L59.4584979,94.2062153 L59.5314772,94.4507127 L59.5503106,94.5690938 L59.5462748,94.8149365 L59.5267688,94.8445317 L59.5112986,94.8761449 L59.5237421,94.9329813 L59.6027749,95.0399279 L59.5738523,95.1435114 L59.4655604,95.3473152 L59.4420187,95.4384553 L59.4689235,96.2015427 L59.4120871,97.0120499 L59.3629859,97.2878241 L59.2375422,97.4596786 L59.1817148,97.4643869 L59.1319409,97.4381547 L59.0273484,97.3554225 L58.970512,97.3443242 L58.9288096,97.3739195 L58.8857619,97.4142767 L58.7044908,97.4697679 L58.6419371,97.5639347 L58.6183954,97.6836611 L58.6076335,97.9570811 L58.586446,98.035105 L58.4586482,98.2352095 L58.4156005,98.3532543 L58.394413,98.4712992 L58.3591004,98.583963 L58.2064157,98.7659067 L58.1670674,98.9317076 L58.047341,99.1301305 L58.095097,99.2394313 L58.1859007,99.3440237 L58.2471092,99.4513066 L58.2524901,99.5175597 L58.2477818,99.5928931 L58.2302937,99.6625093 L58.1996894,99.7213636 L58.1640406,99.7422148 L58.0732369,99.7590303 L58.0079927,99.7903071 L57.9730165,99.7748369 L57.946448,99.7721464 L57.9356861,99.8283101 L57.9437575,99.8720305 L57.9780611,99.946355 L57.9884867,99.9860396 L57.9972308,100.067427 L58.0127011,100.125272 L58.0681922,100.251724 L58.1492429,100.51371 L58.1724483,100.76796 L58.148234,101.266372 L58.0661744,101.782944 L57.9780611,102.055692 L57.8586711,102.253442 L57.820668,102.358371 L57.772912,102.97819 L57.6515041,103.549581 L57.5923135,103.72917 L57.5741528,103.825019 L57.5865963,103.972995 L57.6195546,104.111218 L57.6225814,104.250114 L57.4712419,104.496966 L57.4063341,104.71355 L57.3414262,104.815452 L57.2876166,104.835967 L57.2368338,104.823187 L57.1863873,104.823187 L57.1292146,104.895157 L57.1123991,104.947958 L57.1103812,105.053895 L57.041774,105.481682 L56.9990626,105.586274 L56.9297828,105.66598 L56.84436,105.74703 L56.771717,105.831781 L56.7411128,105.937382 L56.700083,106.210129 L56.5006512,106.680963 L56.425654,106.927142 L56.407157,107.09328 L56.4438148,107.103033 L56.5248655,107.079155 L56.6375293,107.136327 L56.6836038,107.239574 L56.6899937,107.379816 L56.6563627,107.510977 L56.5847287,107.591018 L56.5231839,107.591018 L56.407157,107.529474 L56.3506569,107.541917 L56.089344,107.791459 L56.022082,107.892688 L55.9823974,108.014433 L55.9077366,108.931214 L55.8075162,109.375816 L55.7819566,109.606188 L55.8609895,109.813019 L55.7701858,110.021531 L55.6181736,110.610074 L55.5926141,110.838092 L55.4944115,111.018018 L55.0279495,111.292783 L54.8729106,111.477417 L54.852732,111.584027 L54.8449969,111.803638 L54.8211188,111.910584 L54.756211,112.028293 L54.3738265,112.39588 L54.2638531,112.430856 L54.1780941,112.387472 L54.1431178,112.251267 L54.0751832,112.205865 L53.9214895,112.266737 L53.7617422,112.369311 L53.6729564,112.438591 L53.5485217,112.893955 L53.7644327,113.303581 L54.0381891,113.713206 L54.0913261,114.16218 L53.9201443,114.515642 L53.8838228,114.641086 L53.8797871,114.796797 L54.2046625,117.773141 L54.1431178,118.59811 L54.212734,119.34539 L54.1713679,119.548185 L54.1569065,120.165987 L54.0738379,120.45555 L53.832031,120.407794 L53.8932395,121.090167 L53.8838228,121.319867 L53.7297928,122.133737 L53.7247481,123.175289 L53.6729564,123.477295 L53.6645486,123.581552 L53.6800189,123.680427 L53.7193672,123.758114 L53.7812482,123.806543 L53.7812482,123.865061 L53.8784418,123.880868 L54.009939,123.951829 L54.0913261,123.967299 L54.2036536,123.95721 L54.241993,123.922234 L54.2588085,123.870778 L54.3032014,123.806543 L54.4424337,123.713385 L54.7538568,123.563055 L55.1113544,123.294679 L55.4210959,123.148384 L55.7695131,123.045473 L56.1206208,122.998054 L56.1734215,122.984601 L56.2181507,122.968458 L56.2722966,122.974176 L56.3506569,123.021595 L56.6106245,123.102646 L56.6967199,123.084485 L56.738086,123.045473 L56.7750801,123.025631 L56.84436,123.049509 L56.893125,123.091884 L56.9109494,123.145357 L56.9233929,123.207239 L56.9533245,123.26912 L56.9953632,123.311495 L57.070024,123.364968 L57.1557831,123.411379 L57.2354886,123.429539 L57.3074589,123.464516 L57.3437804,123.538504 L57.3646316,123.611147 L57.3898549,123.644778 L57.9356861,123.591977 L58.4273713,123.608456 L58.5370084,123.566081 L58.6402556,123.480322 L58.7186158,123.474605 L58.898878,123.581552 L59.0414735,123.630653 L59.486748,123.667311 L59.7544507,123.728519 L59.8502991,123.72112 L60.034597,123.626953 L60.3725886,123.332682 L60.5602496,123.26912 L60.7502648,123.239188 L60.8918513,123.166545 L61.1598904,122.938863 L61.496873,122.778443 L61.7538139,122.699074 L61.8045967,122.631812 L61.8661415,122.516121 L61.9357576,122.455249 L61.9946119,122.430699 L62.1287996,122.388324 L62.1957253,122.342922 L62.2253206,122.272969 L62.238773,122.184183 L62.2761034,122.106832 L62.4580471,122.056049 L62.6050146,121.98307 L62.8404316,121.929597 L63.2392953,121.697543 L64.0555198,121.555284 L64.2270379,121.496093 L64.3935114,121.486004 L64.5347616,121.589924 L64.633973,121.536787 L64.6901368,121.579162 L64.7412559,121.656513 L64.8209614,121.697543 L64.9928158,121.724111 L65.0809291,121.726465 L65.158953,121.697543 L65.158953,121.756061 L65.3536765,121.66593 L65.4690309,121.636334 L65.5228405,121.670638 L65.5709328,121.673665 L65.8894184,121.589924 L66.0286508,121.63768 L66.2963535,121.82265 L66.4305412,121.863344 L66.6121487,121.887222 L66.7702144,121.952129 L66.8822056,122.06143 L66.9814171,122.372517 L67.0910542,122.479127 L67.1583162,122.607598 L67.0836553,122.831917 L67.7310521,123.191768 L68.3952645,123.737263 L69.1253936,124.143189 L69.8376982,124.543062 L69.931865,124.625458 L70.2796096,125.091584 L70.3892467,125.180033 L70.5664821,125.215346 L70.6593036,125.19584 L70.7820568,125.118488 L70.8496551,125.098982 L70.9350779,125.110081 L71.0736376,125.152792 L71.2377569,125.174316 L71.36051,125.215346 L71.4519864,125.215346 L71.5347186,125.187768 L71.6530998,125.118488 L71.7062368,125.098982 L72.0401926,125.156155 L72.2090203,125.128578 L72.2783001,124.973539 L72.2867079,124.932845 L74.8379558,124.932845 L76.783173,124.936881 L82.6194974,124.936881 L84.5643783,124.938226 L98.1788812,124.938226 L100.125107,124.942262 L104.421132,124.942262 L104.479986,124.946298 L104.490748,124.995399 L104.517653,125.069387 L104.568099,125.098982 L104.616528,125.13934 L104.741635,125.439328 L104.755424,125.51937 L104.776948,125.536186 L104.958555,125.591677 L105.218523,126.095133 L105.242737,126.183919 L105.343966,126.237392 L105.740476,126.566639 L105.76469,126.624485 L105.802357,126.764726 L105.842378,126.836696 L105.914012,126.908667 L106.055935,126.975929 L106.12925,127.026375 L106.562418,127.48443 L106.714766,127.685207 L106.819359,127.77601 L107.113966,127.845627 L107.788604,128.183618 L108.778701,128.365226 L109.421053,128.33294 L109.681021,128.231374 L109.841777,128.196398 L109.927536,128.199425 L110.154545,128.246844 L110.491528,128.220276 L110.611927,128.300318 L111.816589,128.659497 L113.117773,128.642681 L113.548586,128.544815 L113.723131,128.528672 L113.877834,128.569029 L113.947113,128.71028 L114.017066,128.766443 L114.172105,128.838077 L114.34934,128.89525 L114.469067,128.905676 L114.50707,128.862628 L114.595519,128.715997 L114.643948,128.683039 L115.839866,128.683039 L116.12573,128.843795 L116.391415,128.937962 L116.463721,128.94906 L116.907987,128.905676 L117.114145,128.908703 L117.213357,128.891887 L117.320639,128.843795 L117.376803,128.905676 L117.489467,128.808818 L117.668384,128.760726 L117.871852,128.769134 L118.050769,128.843795 L118.312754,128.624184 L118.395823,128.677994 L118.500751,128.670259 L118.754665,128.624184 L118.840761,128.65647 L119.13705,128.905676 L119.332782,128.854893 L119.522798,128.937962 L119.694652,129.090983 L119.841283,129.25342 L119.916953,129.315301 L120.176248,129.443436 L120.395522,129.607555 L120.492043,129.655647 L120.684412,129.604192 L120.982383,129.590739 L121.257485,129.617308 L121.377884,129.681543 L121.433711,129.748469 L121.559491,129.802278 L121.683253,129.823802 L121.739081,129.791853 L121.795917,129.7219 L121.924051,129.756876 L122.154424,129.871222 L122.31787,130.021889 L122.513939,130.006419 L122.737921,129.922677 L122.986791,129.871222 L123.090374,129.663046 L123.792926,129.473031 L124.493796,129.283352 L124.616549,129.336153 L124.743002,129.30723 L124.871136,129.248039 L125.010368,129.223489 L125.120005,129.246022 L125.428402,129.223489 L125.550819,129.25342 L125.896882,129.443436 L126.327695,129.598138 L126.55235,129.710466 L126.67813,129.871222 L126.720841,129.888037 L126.862428,129.847344 L127.408595,129.740397 L129.30942,129.377182 L131.212598,129.009932 L133.11544,128.646717 L135.017946,128.279466 L136.568335,127.974433 L138.115698,127.669064 L139.662724,127.361004 L141.210759,127.056307 L141.843695,126.932545 L141.801319,126.831315 L141.793248,126.72975 L141.849076,126.614059 L141.675876,126.472473 L141.534289,126.29591 L141.378241,126.183919 L141.266587,126.130109 L141.156613,126.097823 L140.910771,126.076636 L140.778264,126.095133 L140.650467,126.127419 L140.519642,126.143225 L140.388481,126.106231 L140.297005,126.006683 L140.291624,125.894019 L140.308439,125.771603 L140.285906,125.64515 L140.205528,125.560064 L139.871909,125.429239 L139.688956,125.281599 L139.504658,125.067706 L139.359709,124.831616 L139.301527,124.620077 L139.255789,124.528601 L138.94033,124.189264 L138.830693,124.125029 L138.468487,124.026153 L138.011442,123.828067 L137.807302,123.693879 L137.504959,123.420795 L137.269542,123.294679 L137.171339,123.210265 L137.09836,123.091884 L137.015291,122.724634 L136.908681,122.513431 L136.75566,122.307946 L136.415651,121.940695 L136.308704,121.860653 L135.856367,121.679046 L135.75951,121.679046 L135.717471,121.643733 L135.685521,121.577144 L135.685521,121.436903 L135.669379,121.376367 L135.572185,121.274465 L135.33206,121.199131 L135.224777,121.132878 L135.157515,121.032994 L135.077137,120.811702 L134.528615,119.938978 L134.470097,119.869025 L134.397454,119.828668 L134.277728,119.80479 L134.234344,119.78293 L134.194659,119.737864 L134.143204,119.642016 L134.023141,119.481596 L133.972358,119.376667 L133.897697,119.30167 L133.696584,119.266694 L133.666989,119.250887 L133.610489,119.189006 L133.573158,119.168155 L133.546253,119.180935 L133.519349,119.204477 L133.447378,119.22331 L133.332024,119.266694 L133.27317,119.275102 L133.171604,119.237435 L132.518154,118.70472 L132.467707,118.59811 L132.449546,118.462913 L132.417261,118.350585 L132.333856,118.302829 L132.189242,118.281305 L132.157293,118.225142 L132.176463,118.142409 L132.181171,118.033445 L132.14115,117.920781 L132.009989,117.702852 L131.975686,117.604986 L131.981066,117.473825 L132.020415,117.326185 L132.081959,117.189307 L132.154266,117.088414 L132.168391,116.989202 L132.044629,116.932366 L131.794078,116.874184 L131.779617,116.825083 L131.774572,116.654574 L131.76381,116.575877 L131.737242,116.542246 L131.645765,116.461868 L131.61348,116.415794 L131.57884,116.301112 L131.565724,116.201564 L131.539155,116.102689 L131.458777,115.993052 L131.520658,115.998769 L131.710337,115.993052 L131.447679,115.566947 L131.247238,115.313369 L131.228068,115.144878 L131.228068,114.045144 L131.221006,114.022611 L131.222351,113.669486 L131.222351,112.869741 L131.225042,112.069659 L131.228068,111.271259 L131.228068,108.238752 L131.225042,107.060994 L131.225042,103.535456 L131.222351,102.363752 L131.222351,100.018662 L131.221006,98.8489753 L131.221006,95.3385712 L131.218315,94.1732569 L131.218315,91.8406105 L131.215625,90.6756325 L146.537237,90.6756325 L146.448788,90.3927958 L146.319981,90.1479621 L146.15149,89.9259975 L145.736147,89.5022468 L145.583126,89.2866721 L145.514519,89.038139 L145.564965,88.7327695 L145.712605,88.384016 L145.856546,87.8139705 L145.990734,87.277556 L146.083891,87.0542461 L146.427264,86.5528078 L146.683869,86.1778221 L146.745077,86.0469975 L146.766937,85.9148277 L146.69194,85.5674194 L146.659654,85.0969217 L146.582303,84.9015256 L146.389261,84.7010848 L146.226151,84.4623047 L146.18613,84.1172506 L146.237585,83.0363501 L146.282651,82.0455807 L146.445761,81.6712677 L146.458541,81.5929074 L146.421883,81.4035649 L146.389261,80.8281384 L146.325026,80.6418227 L146.247674,80.4958641 L146.188484,80.3462061 L146.188484,80.1528279 L146.229177,80.0008157 L146.362356,79.6937647 L146.573895,79.3705707 L146.606181,79.2801033 L146.606181,79.1556686 L146.58802,78.9700255 L146.590374,78.8724956 L146.609208,78.7884181 L146.688913,78.6737363 L146.927357,78.4887658 L147,78.384846 L146.994619,78.2923608 L146.659654,77.5507971 L146.617279,77.3547284 L146.648556,76.2607118 L146.499234,76.2375064 L146.45585,76.1305598 L146.491163,75.8352796 L146.485446,75.4095111 L146.512014,75.2726329 L146.561115,75.1253292 L146.53152,75.012329 L146.38388,74.7863286 L146.338478,74.6561767 L146.285341,74.280182 L146.143418,74.3501345 L146.081537,74.5041645 L146.049252,74.6861082 L145.985353,74.8404746 L145.915064,74.9070639 L145.751953,75.0022397 L145.68301,75.0631118 L145.636599,75.1411357 L145.578417,75.3119812 L145.526962,75.3849605 L145.270357,75.4781184 L144.968015,75.4219546 L144.654574,75.3224068 L144.365683,75.2887758 L144.065695,75.3129902 L143.814135,75.2941568 L143.17481,75.1159125 L142.700613,74.9857605 L142.406678,74.9598646 L142.101644,74.9773527 L141.780132,75.0684928 L141.273985,75.3493116 L140.441954,75.8110653 L139.821126,75.9153214 L139.060056,76.0458097 L138.72072,76.0458097 L138.428802,76.002762 L138.276118,75.9375179 L137.992945,75.7485116 L137.836897,75.6667883 L137.655289,75.6600621 L137.486798,75.7438033 L137.323351,75.8615118 L137.162931,75.9536608 L136.886821,76.002762 L136.592886,75.9728304 L136.303323,75.8911071 L136.02284,75.7781069 L135.444387,75.5443715 L135.165922,75.585065 L134.928151,76.1991671 L134.708541,76.3871644 L133.94848,76.64276 L133.838507,76.720784 L133.506569,77.0769363 L133.364646,77.1653858 L133.171604,77.1754751 L133.278214,76.8606889 L133.305119,76.5381676 L133.21667,75.8605029 L133.168577,75.715217 L133.040779,75.4902255 L133.016565,75.3573831 L132.989997,75.3197164 L132.880359,75.2393383 L132.856145,75.2006626 L132.856145,74.9077366 L132.696062,74.3719947 L132.625436,74.2529409 L132.622746,74.1268247 L132.753571,73.959006 L132.930806,73.8009402 L133.067684,73.7024014 L133.383143,73.5712405 L133.573158,73.5160856 L133.717771,73.4935529 L133.789406,73.428645 L133.814292,73.2816775 L133.789406,72.9880789 L133.803194,72.9642009 L133.843215,72.9177901 L133.720462,72.7193672 L133.701965,72.4493102 L133.714745,72.1375508 L133.688176,71.8140206 L133.616206,71.652928 L133.522039,71.552035 L133.447378,71.4494605 L133.428545,71.2860138 L133.482354,71.1266028 L133.651518,70.8504923 L133.688176,70.735138 L133.696584,70.6567777 L133.736269,70.5061108 L133.74434,70.4186702 L133.720462,70.330557 L133.607798,70.195024 L133.543563,69.9643154 L133.367,69.6505381 L133.230458,69.2906864 L133.04616,68.9466412 L132.906592,68.5975514 L132.957711,68.3493546 L132.922735,68.2545151 L132.856145,67.9319938 L132.699761,67.5139604 L132.639225,67.2445761 L132.580371,67.0740669 L132.478805,66.9533316 L132.183861,66.7676885 L132.058081,66.6590603 L131.975686,66.6166853 L131.921876,66.6721764 L131.868403,66.6886556 L131.794078,66.6452716 L131.357548,66.1384524 L131.266071,65.9245592 L131.249256,65.6773713 L131.20419,65.7032672 L131.085809,65.7513596 L131.037717,65.7769191 L130.931107,65.4799574 L130.450183,64.9768375 L130.262522,64.676849 L130.183826,64.3586997 L130.096049,63.6884338 L130.002218,63.377347 L129.951435,63.2993231 L129.823301,63.1439479 L129.791016,63.0602067 L129.80245,62.964022 L129.882492,62.8069652 L129.930584,62.5412803 L130.162638,62.0650653 L130.243353,61.7442255 L130.246043,61.4324661 L130.152549,60.6656792 L130.262522,59.7919457 L130.243353,59.3954362 L130.307924,58.7894055 L130.382249,58.6064529 L130.441775,58.353884 L130.494912,58.301756 L130.572264,57.8167969 L130.663404,57.2585222 L130.743782,57.0278136 L130.883014,56.7836525 L130.82685,56.7792804 L130.794565,56.7654917 L130.770687,56.7490125 L130.732684,56.7355601 L130.912946,56.1500444 L130.944895,55.8144069 L130.883014,55.4881862 L130.698716,55.192906 L130.610267,54.999864 L130.649615,54.9114145 L130.764969,54.8485245 L130.690645,54.7079469 L130.468008,54.4913633 L130.406127,54.3548214 L130.326421,53.9919429 L130.307924,53.6670674 L130.2864,53.5385969 L130.240326,53.436695 L130.04762,53.215403 L129.967242,53.080879 L129.916459,52.9285305 L129.900653,52.7442326 L129.850206,52.6561194 L129.61109,52.5212591 L129.536429,52.4600507 L129.501453,52.3245177 L129.479929,51.8069366 L129.506497,51.7339573 L129.616807,51.5836267 L129.640685,51.4948409 L129.630259,51.4057187 L129.584521,51.2093136 L129.627905,50.8756941 L129.670617,50.7505868 L129.755703,50.5094525 L129.814894,50.3399522 L129.911078,50.0591333 L129.999528,49.8015198 L130.087977,49.5536593 L130.101766,49.4120728 L130.126317,49.3670073 L130.238644,49.256025 L130.262522,49.197507 L130.262522,48.9119798 L130.243353,48.83631 L130.216111,48.7949439 L130.200641,48.7478605 L130.206358,48.6526848 L130.230236,48.5665894 L130.299516,48.4125594 L130.313305,48.3153658 L130.296489,48.2713092 L130.221829,48.2013567 L130.206358,48.1576364 L130.213421,48.1199697 L130.254451,48.0503535 L130.262522,48.0046153 L130.243353,47.9097759 L130.197614,47.8536121 L130.146832,47.7998025 L130.101766,47.7147161 L130.117909,47.6726773 L130.155239,47.6188677 L130.174073,47.556314 L130.133379,47.4850163 L130.090668,47.4365877 L129.919486,47.0740455 L129.871394,47.0172091 L129.812539,46.980215 L129.764111,46.9627268 L129.734852,46.9253964 L129.737879,46.8991642 L129.582503,46.8941196 L129.327917,46.8958011 L128.776704,46.8974827 L128.22482,46.8991642 L127.673271,46.9005095 L127.123068,46.902191 L126.570847,46.9038726 L126.019635,46.9055541 L125.46775,46.9065631 L124.916202,46.9089172 L124.365998,46.9092535 L123.813777,46.9109351 L123.262565,46.9129529 L122.71068,46.9139619 L122.159468,46.9153071 L121.608929,46.9179976 L121.057044,46.9186702 L120.505495,46.9203518 L120.151697,46.921697 L120.143962,46.5483929 L120.133873,46.1882048 L120.181629,45.8344067 L120.339358,45.420409 L120.457403,45.1110038 L120.662889,44.5722351 L120.84046,44.1098088 L120.404266,44.112163 L119.748462,44.1131719 L119.113508,44.1155261 L118.715317,44.116535 L118.626195,44.1299874 L118.564314,44.1790887 L118.503106,44.2937704 L118.468802,44.4030712 L118.436516,44.6529495 L118.436516,44.7629229 L112.579341,44.7629229 L112.718573,45.0639204 L112.737743,45.1446348 L112.688978,45.2670516 L112.477439,45.5317276 L112.392016,45.6716326 L112.317691,45.91613 L112.234286,47.1463521 L112.258501,47.3874864 L112.317691,47.6477904 L112.518805,48.1525917 L112.513424,48.3880088 L112.298522,48.5591906 L112.293477,48.5622174 L112.285069,48.5665894 L112.279688,48.5709614 L112.175096,48.7044765 L112.097745,49.0017746 L111.988108,49.1157837 L111.843494,49.1494147 L111.319187,49.1073759 L111.305734,49.3057988 L111.367279,49.5092664 L111.452702,49.7123977 L111.51122,49.9098117 L111.51391,50.0934369 L111.487342,50.2928688 L111.337684,50.7600034 L111.265377,50.9880216 L111.15305,51.3361025 L111.13119,51.5738737 L111.156076,51.7689335 L111.319187,52.3605029 L106.907808,52.3605029 L106.789763,52.1795681 L106.744361,52.0860739 L106.706358,51.8721807 L106.639769,51.8304783 L105.504386,51.8304783 L104.956537,51.8294693 L104.865397,51.8940409 L104.849927,52.041681 L104.889275,52.3261993 L104.739617,52.3322528 L104.693543,52.3245177 L104.22809,52.3322528 L104.10231,52.349741 L103.936173,52.4388631 L103.821155,52.4724941 L103.722952,52.4664406 L103.438434,52.3574761 L103.069838,52.3436874 L102.501138,52.3214909 L102.381411,52.3393154 L102.070661,52.4859465 L101.952952,52.5158781 L101.816747,52.5982741 L101.744104,52.7734916 L101.736369,52.9853669 L101.784461,53.1760547 L101.107469,53.191525 L100.903665,53.1461231 L100.515227,52.8178845 L100.292926,52.7109379 L100.039685,52.6830242 L99.9159225,52.7085838 L99.4447521,52.9672062 L99.3515943,52.9786407 L99.0939808,52.8831287 L98.8669715,52.8649679 L98.224283,53.0902957 L98.0100535,53.0943314 L97.5866392,52.9900753 L97.5284576,52.9231496 L97.4642223,52.8057774 L97.5553624,52.5891937 L97.5284576,52.4600507 L97.4642223,52.4042232 L97.2980852,52.3188004 L97.2207339,52.2481753 L97.179704,52.1738508 L97.113451,51.9320439 L97.078811,51.9687017 L97.0307187,52.0077137 L97.0095312,52.0403357 L96.9873347,51.9845083 L96.9688377,51.9633207 L96.9742186,51.9411243 L97.0095312,51.8849605 L96.8464208,51.8045824 L96.7788225,51.7548085 L96.7495635,51.704362 L96.7895844,51.6011148 L96.8618911,51.5301534 L96.8887959,51.4628914 L96.8027005,51.3650252 L96.6930634,51.3979836 L96.6661586,51.3404746 L96.6715396,51.2436173 L96.6476616,51.1578582 L96.5760275,51.1396975 L96.4737893,51.1386885 L96.4226702,51.1225457 L96.4926226,51.0536021 L96.4926226,51.0021467 L96.3480093,51.0008014 L96.3103426,50.9311852 L96.3187504,50.8373547 L96.3046253,50.7653844 L96.2299645,50.7277177 L96.0567648,50.7028307 L96.0214523,50.6618009 L95.991857,50.5931937 L95.8556514,50.4717857 L95.8149579,50.3745921 L95.8418627,50.3063212 L95.8902914,50.2346872 L95.8876009,50.1680978 L95.7614846,50.1152971 L95.7967972,50.0820024 L95.7967972,50.078303 L95.7783001,50.0651869 L95.7614846,50.0070053 L95.6498297,50.0601423 L95.6303237,49.9397433 L95.6390678,49.7614989 L95.6034189,49.6384095 L95.6303237,49.4954777 L95.4810021,49.3828138 L95.111061,49.197507 L94.9983972,49.0327151 L94.8705993,48.6684913 L94.7690337,48.4976458 L94.6987449,48.4317291 L94.6351823,48.3859909 L94.5860811,48.3358807 L94.567584,48.2639104 L94.6082775,48.1737793 L94.6963907,48.1310679 L94.784504,48.1008 L94.8248612,48.0537166 L94.7982927,47.998898 L94.7283402,47.9632492 L94.567584,47.9215467 L94.505703,47.889261 L94.4609737,47.8573115 L94.4159082,47.8714365 L94.3567176,47.9780468 L94.2470805,47.9070854 L94.2036965,47.8021567 L94.2016787,47.5371444 L94.1667024,47.422799 L94.0863243,47.3461203 L93.8879014,47.2522898 L93.6333147,47.0710187 L93.4305198,47.0094739 L93.3955435,46.9190065 L93.3955435,46.8016343 L93.3770465,46.6822443 L93.2536207,46.5103898 L93.1604628,46.4108421 L93.0874835,46.3664491 L93.047799,46.301205 L93.0605787,45.8949425 L92.9058761,45.3982125 L92.9213464,45.2081974 L93.1648349,45.2737778 L93.1729063,45.107977 L93.2267159,44.9784976 L93.2566475,44.8601165 L93.1927486,44.7266014 L93.1520551,44.6680835 L93.1197693,44.607884 L93.0747038,44.5608006 L92.9859179,44.5429761 L92.9196648,44.5103541 L92.9196648,44.4390563 L92.9462333,44.3674223 L92.9617036,44.3361455 L92.9058761,43.9026418 L92.8143998,43.7166624 L92.6297656,43.5885283 L92.5440065,43.5693586 L92.3623991,43.5505252 L92.2793305,43.5226115 L92.1935715,43.4412245 L92.1582589,43.3396588 L92.1485059,43.2290128 L92.1189106,43.1176942 L91.7012136,42.5352052 L91.642023,42.4114431 L91.6077194,42.2759102 L91.5858592,41.9961002 L91.5545824,41.8622488 L91.4419185,41.6083348 L91.4180405,41.484909 L91.4462906,41.3530754 L91.5407937,41.195346 L91.5434842,41.1223668 L91.4762222,41.0362714 L91.3958441,40.964301 L91.3504422,40.8936759 L91.3450613,40.8082532 L91.3958441,40.6976072 L91.2297069,40.6905447 L91.2297069,40.6162202 L91.2996594,40.5112914 L91.3450613,40.4127526 L91.3292547,40.3138774 L91.2888975,40.3037881 L91.2381147,40.3142138 L91.1873318,40.2829369 L91.1449568,40.2143297 L91.1308318,40.1857433 L91.1368853,39.8931536 L91.165808,39.8174838 L91.2297069,39.7936058 L91.2996594,39.7882249 L91.3450613,39.7609837 L91.353469,39.6856503 L91.3363172,39.6116621 L91.3127755,39.5407007 L91.3023499,39.4761291 L91.2969689,38.9212176 L91.315466,38.7967829 L91.3689393,38.7005982 L91.3884452,38.6007141 L91.3208469,38.4860324 L91.1873318,38.3363744 L91.1523556,38.2348088 L91.0716412,38.1846986 L90.9707482,38.1530855 L90.8819623,38.1063384 L90.7541645,37.9301119 L90.6626882,37.8621773 L90.5100034,37.8470433 L90.6707596,37.6617365 L90.6411643,37.5864031 L90.5739023,37.5958197 L90.501932,37.6314686 L90.4595569,37.6358406 L90.43467,37.5504179 L90.4057473,37.0752118 L90.3922949,37.004923 L90.3526103,36.9252175 L90.2796311,36.8297055 L90.2796311,36.7812768 L90.3811967,36.6612142 L90.4057473,36.5973152 L90.1245921,36.4587555 L90.0684284,36.4281513 L89.7818922,36.3121243 L89.6477045,36.2805112 L89.5111626,36.2758029 L89.361841,36.2983356 L89.1183525,36.369297 L89.006025,36.3857762 L88.8795724,36.3655976 L88.716462,36.2805112 L88.596063,36.1849991 L88.4655747,36.10563 L88.2725328,36.0669543 L87.8249041,36.0736805 L87.1344596,36.0844424 L86.4416609,36.0962133 L85.7508801,36.1076478 L85.059763,36.119755 L84.3673006,36.1318622 L83.6761835,36.1432967 L82.9827122,36.1547312 L82.2929404,36.1658295 L81.5991327,36.1769277 L80.9080156,36.1883622 L80.2155533,36.1997968 L79.5247725,36.2119039 L78.8309649,36.2230022 L78.141193,36.2341004 L77.4504122,36.2458713 L76.7576135,36.2573058 L76.0506898,36.269413 L75.0861526,36.4456394 L74.8517445,36.422434 L74.3694759,36.3006898 L74.0234129,36.3602167 L73.339022,36.3457553 L72.5456666,36.3309577 L72.3993717,36.311788 L71.9497252,36.153386 L71.7755166,36.13388 L70.8738694,36.202151 L70.7612056,36.1594396 L70.5792618,36.0561924 L70.2839816,35.9680792 L69.2515098,36.0501388 Z M53.1143454,118.260454 L53.0312768,118.370091 L53,118.487127 L53.015134,118.648556 L53.500093,119.964873 L53.7180219,120.243338 L53.7657779,120.278651 L53.8195876,120.300511 L53.8838228,120.300511 L53.5902241,119.667912 L53.5219532,119.435521 L53.4752061,118.868166 L53.4738608,118.546654 L53.4435929,118.375472 L53.3669142,118.249356 L53.2317176,118.201264 L53.1143454,118.260454 Z" id="Fill-1"></path>
            </g>
        </g>
    </g>
</svg>