<svg width="136px" height="305px" viewBox="0 0 136 305" version="1.1" xmlns="http://www.w3.org/2000/svg" xmlns:xlink="http://www.w3.org/1999/xlink">
    <!-- Generator: Sketch 51.2 (57519) - http://www.bohemiancoding.com/sketch -->
    <desc>Created with Sketch.</desc>
    <defs></defs>
    <g id="Page-1" stroke="none" stroke-width="1" fill="none" fill-rule="evenodd">
        <g id="AL-EPS-01-0001" transform="translate(-288.000000, -110.000000)" fill="#7F807C">
            <path d="M423.603,313.381 L423.101,311.631 L422.329,310.223 L420.302,307.759 L418.141,305.697 L417.805,304.944 L417.638,304.141 L417.37,303.386 L416.615,302.775 L417.938,301.216 L418.409,299.087 L418.274,294.33 L418.24,291.665 L417.604,289.779 L416.331,288.54 L412.543,287.417 L408.521,286.829 L406.947,287.215 L404.417,289.344 L403.076,289.881 L401.148,289.453 L399.338,287.921 L398.251,285.6 L396.775,279.811 L395.303,273.243 L394.514,271.615 L393.693,270.98 L392.822,270.847 L391.867,270.895 L390.828,270.786 L388.649,269.773 L388.113,268.407 L388.181,266.624 L387.777,264.344 L386.572,261.998 L383.756,258.01 L382.785,255.445 L381.512,249.993 L381.092,246.951 L381.394,244.773 L382.483,245.117 L383.589,244.445 L384.578,243.189 L385.299,241.808 L385.835,240.124 L385.852,238.75 L385.398,237.5 L384.494,236.218 L383.908,235.833 L382.65,235.624 L382.098,235.163 L381.945,234.618 L381.779,232.959 L381.545,232.181 L380.572,230.329 L379.986,229.717 L379.133,229.331 L378.595,227.823 L378.814,225.084 L378.528,223.644 L382.248,222.831 L383.354,222.37 L384.376,221.741 L385.029,221.08 L385.432,220.025 L385.432,219.144 L383.824,214.428 L383.422,212.257 L382.818,204.901 L383.053,203.829 L383.655,202.471 L384.393,201.483 L386.168,199.74 L386.672,198.843 L386.488,196.741 L385.869,194.168 L385.969,191.915 L387.913,190.726 L387.944,189.98 L387.578,188.723 L387.56,187.978 L387.913,186.747 L388.381,186.193 L388.934,185.774 L389.554,184.97 L390.359,183.102 L390.359,181.811 L389.988,180.462 L389.62,178.426 L387.242,172.142 L386.772,170.233 L386.756,166.957 L386.555,165.147 L385.733,162.416 L382.853,156.149 L381.394,154.155 L379.5,152.12 L370.084,145.199 L368.91,145.006 L363.716,145.132 L362.795,144.989 L362.175,144.303 L361.504,142.619 L361.404,141.881 L361.538,140.499 L361.354,139.695 L360.917,139.075 L359.728,138.052 L359.359,137.416 L359.46,136.753 L360.264,135.548 L360.264,134.692 L359.895,133.905 L358.873,132.908 L358.454,132.331 L356.31,127.144 L356.31,127.119 L356.293,127.119 L355.002,125.477 L351.199,123.374 L349.624,121.648 L347.663,120.517 L346.021,121.698 L343.273,125.359 L341.33,125.921 L337.627,125.811 L335.733,127.127 L335.733,127.135 L335.716,127.144 L335.013,127.823 L332.131,129.531 L330.908,129.917 L329.533,129.75 L328.226,129.088 L325.73,127.144 L324.406,123.961 L324.154,122.997 L324.104,122.302 L324.255,120.744 L324.372,120.014 L324.941,118.8 L325.311,118.229 L325.444,118.338 L325.311,116.27 L324.657,113.639 L323.484,111.402 L321.742,110.497 L319.982,111.343 L317.838,113.287 L315.827,115.641 L314.553,117.719 L314.118,119.143 L313.682,121.85 L313.263,123.08 L312.325,124.17 L311.236,124.799 L310.314,125.586 L309.896,127.135 L309.896,127.144 L308.957,129.071 L307.918,130.789 L306.661,132.221 L305.17,133.218 L304.131,134.903 L300.243,139.426 L299.842,140.012 L299.137,141.696 L298.97,142.442 L299.037,143.851 L298.954,144.378 L291.664,155.755 L289.386,158.202 L289.168,159.282 L289.938,160.941 L291.128,162.256 L295.501,165.499 L296.825,167.116 L297.01,168.096 L295.619,171.146 L295.25,172.906 L295.149,174.933 L295.434,176.885 L296.138,178.426 L296.154,178.443 L296.725,179.155 L296.322,180.872 L295.854,181.25 L295.25,181.333 L294.848,181.702 L295.334,184.057 L295.149,184.785 L294.848,185.322 L294.764,185.833 L294.814,186.511 L294.748,186.939 L294.949,187.341 L295.652,188.027 L296.256,189.109 L296.189,191.781 L296.306,192.879 L301.483,191.22 L302.875,191.832 L303.963,192.56 L313.079,196.33 L313.581,196.296 L314.185,198.24 L314.151,200.385 L313.414,201.709 L312.023,201.232 L312.007,203.066 L312.408,206.467 L312.542,209.652 L311,212.409 L313.23,214.428 L313.581,215.249 L314.218,214.586 L314.586,215.298 L315.19,218.021 L314.453,218.382 L313.917,218.28 L313.632,217.686 L313.581,216.571 L313.063,216.571 L311.571,220.073 L308.739,220.936 L302.086,220.041 L302.94,221.113 L304.165,223.207 L305.253,224.255 L306.309,224.773 L307.147,225.025 L307.667,225.67 L307.851,227.346 L307.264,230.035 L305.773,232.137 L303.896,233.689 L302.086,234.71 L302.421,237.308 L301.148,238.707 L299.473,238.799 L298.433,237.467 L298.669,238.641 L299.774,239.679 L300.042,240.583 L300.042,244.756 L300.411,246.675 L301.382,247.571 L302.791,247.83 L304.45,247.839 L305.689,248.3 L306.812,249.547 L307.617,251.308 L307.851,253.351 L307.314,255.286 L304.214,260.322 L304.081,261.462 L304.097,262.828 L303.829,263.967 L302.171,264.711 L302.12,265.382 L302.421,266.177 L302.875,266.857 L303.276,268.466 L302.421,276.132 L302.12,276.593 L302.054,277.138 L302.605,278.269 L303.059,278.629 L304.298,279.14 L304.684,279.642 L304.852,281.737 L304.298,283.563 L303.427,284.987 L302.605,285.824 L303.059,286.43 L303.076,286.854 L305.036,283.849 L305.99,281.536 L306.242,278.957 L306.711,280.933 L307.7,282.743 L308.504,284.729 L308.386,287.19 L307.097,288.757 L303.092,290.692 L302.086,292.058 L301.953,291.279 L301.852,290.937 L301.852,290.627 L301.618,292.058 L301.047,292.058 L301.047,289.938 L301.668,287.921 L301.031,285.574 L302.086,284.384 L300.847,285.28 L299.339,287.449 L298.183,287.878 L297.545,288.44 L298.3,289.747 L299.456,291.254 L300.042,292.402 L299.842,292.578 L299.339,293.182 L298.802,293.995 L298.433,294.799 L298.718,295.436 L299.289,296.373 L299.489,297.228 L298.685,297.605 L297.277,298.007 L296.591,299.097 L296.339,300.722 L296.256,306.678 L295.954,308.354 L295.284,309.928 L294.312,310.926 L293.088,311.855 L292.066,312.835 L291.664,314.026 L292.1,314.913 L297.396,322.73 L297.931,324.272 L298.333,321.517 L300.16,320.996 L302.187,322.036 L303.125,323.963 L302.991,326.35 L302.488,328.227 L301.534,328.746 L300.042,327.063 L299.489,327.063 L298.869,327.247 L298.669,326.385 L298.433,325.639 L297.931,325.019 L298.3,327.163 L300.411,330.154 L303.025,332.802 L304.969,333.94 L305.187,335.425 L304.684,344.464 L303.963,345.15 L302.372,345.921 L300.78,346.307 L300.042,345.854 L299.875,344.497 L299.473,343.048 L298.433,340.692 L297.73,339.578 L295.016,336.271 L293.809,335.44 L292.569,335.54 L290.541,336.613 L290.541,337.292 L290.994,337.451 L290.994,337.569 L291.112,337.962 L292.049,339.236 L294.714,341.874 L295.284,343.105 L296.306,347.555 L296.691,348.385 L297.529,349.758 L304.768,357.868 L307.298,359.796 L311.604,361.246 L314.05,363.44 L318.273,365.953 L323.3,367.579 L324.037,368.358 L324.339,368.156 L324.941,369.13 L325.512,370.301 L325.612,370.696 L326.132,371.165 L326.601,371.466 L326.97,371.9 L327.221,372.798 L327.305,372.321 L327.422,372.037 L327.723,371.374 L329.801,372.798 L329.198,373.41 L330.036,373.854 L331.243,374.072 L333.673,374.156 L334.292,374.592 L334.828,375.654 L335.331,376.88 L338.917,383.757 L340.224,385.039 L339.454,385.584 L338.715,386.319 L337.577,387.745 L337.577,388.355 L338.163,388.758 L339.486,388.802 L340.224,389.094 L341.263,389.706 L341.598,390.048 L341.665,390.484 L341.665,390.877 L341.799,391.122 L343.475,391.733 L344.647,391.825 L345.452,392.394 L345.955,394.439 L345.787,395.629 L344.379,400.571 L343.24,403.111 L343.608,403.463 L344.916,404.016 L343.709,406.989 L343.441,408.632 L343.876,410.073 L344.379,410.073 L344.48,409.493 L344.697,409.403 L345.887,408.606 L348.451,409.461 L351.484,410.441 L354.969,412.285 L357.147,414.228 L358.706,414.965 L359.912,414.664 L360.181,414.127 L360.147,413.423 L360.23,412.653 L360.833,412 L361.454,411.781 L362.107,411.781 L362.761,412 L363.432,412.401 L363.648,410.239 L364.805,409.126 L366.229,408.305 L367.268,407.032 L367.502,405.959 L367.268,405.439 L366.866,405.004 L366.564,404.132 L366.43,403.84 L365.877,403.135 L365.693,402.81 L365.777,402.507 L366.263,401.325 L366.363,400.814 L366.129,400.035 L365.677,399.617 L365.492,399.215 L366.028,398.478 L366.664,398.209 L367.42,398.327 L370.352,399.458 L371.692,400.27 L372.999,400.421 L374.322,399.048 L374.942,397.077 L374.641,395.361 L371.122,389.547 L369.313,387.745 L368.91,387.158 L367.771,381.142 L367.385,380.363 L368.307,380.071 L372.11,379.961 L373.367,379.693 L373.703,377.91 L374.34,376.148 L375.211,374.584 L376.215,373.401 L377.656,372.74 L380.204,373.042 L381.394,372.347 L382.785,371.986 L386.823,372.581 L388.716,372.397 L393.475,370.135 L394.044,369.739 L394.363,369.044 L395.502,365.819 L395.619,365.367 L395.252,363.524 L395.234,363.021 L394.982,361.925 L395.017,361.312 L395.369,360.768 L396.491,360.425 L396.928,360.09 L397.764,357.719 L397.781,355.673 L397.631,353.688 L397.967,351.418 L398.568,350.453 L399.407,349.868 L400.245,349.432 L400.831,348.904 L402.238,345.412 L403.059,343.859 L403.412,343.031 L403.662,341.799 L403.63,340.761 L403.295,338.047 L403.428,337.107 L404.098,336.404 L405.691,336.027 L406.361,335.642 L406.98,334.628 L407.283,333.673 L407.684,332.827 L408.723,332.146 L410.75,332.105 L412.492,332.943 L414.186,333.363 L416.096,332.063 L416.832,331.025 L417.085,330.531 L417.303,329.953 L417.234,328.713 L417.705,327.825 L418.508,327.264 L419.497,326.995 L420.018,325.974 L420.721,325.404 L421.425,325.002 L421.943,324.432 L422.346,323.427 L422.463,322.646 L422.497,321.817 L422.631,320.661 L423.436,317.185 L423.703,315.35 L423.603,313.381 Z M290.357,329.392 L289.921,329.105 L289.653,328.922 L289.386,328.645 L289.083,328.01 L288.547,328.135 L288.347,328.788 L288.682,329.434 L289.017,330.097 L289.419,331.101 L289.671,331.837 L290.19,331.955 L290.257,331.837 L290.458,330.857 L290.676,329.912 L290.357,329.392 Z" id="Fill-3"></path>
        </g>
    </g>
</svg>