<svg width="52px" height="115px" viewBox="0 0 52 115" version="1.1" xmlns="http://www.w3.org/2000/svg" xmlns:xlink="http://www.w3.org/1999/xlink">
    <!-- Generator: Sketch 51.2 (57519) - http://www.bohemiancoding.com/sketch -->
    <desc>Created with Sketch.</desc>
    <defs></defs>
    <g id="Page-1" stroke="none" stroke-width="1" fill="none" fill-rule="evenodd">
        <g id="Desktop-Hi-fi-Copy-2" transform="translate(-73.000000, -1094.000000)" fill="#007FFF">
            <g id="Group-2" transform="translate(0.000000, 1071.000000)">
                <path d="M86.1690331,23 L85.5042648,23.319542 L84.6944562,24.0538088 L83.9345052,24.9425586 L83.4536814,25.7278162 L83.2893778,26.2652964 L83.1246966,27.2877553 L82.9664364,27.7527154 L82.6117674,28.1644185 L82.2004421,28.4016199 L81.8525719,28.6992548 L81.6943117,29.2839487 L81.3400204,30.0155715 L80.9475805,30.6640982 L80.4728,31.2049779 L79.9092578,31.581554 L79.5171956,32.2179941 L78.0486621,33.9267507 L77.896823,34.1480883 L77.6309157,34.783773 L77.5931447,35.5977364 L74.8082945,40.0939872 L73.9478728,41.0182417 L73.8655322,41.4261677 L74.1563683,42.0527873 L74.6058423,42.5498527 L76.2579426,43.7747638 L76.7576519,44.3855196 L76.8275281,44.7556747 L76.3021345,45.9073102 L76.1627598,46.5724561 L76.1249889,47.3376951 L76.2322583,48.0753612 L76.4981656,48.6570334 L76.719881,48.9323835 L76.5672864,49.581288 L76.3905185,49.724062 L76.1627598,49.7554119 L76.0109207,49.8944089 L76.1944874,50.7839142 L76.0109207,51.2617164 L75.9980786,51.7108127 L76.314599,52.2837976 L76.5427353,52.6921013 L76.5174288,53.7013404 L76.5612431,54.1160651 L78.5170215,53.4894455 L79.0424151,53.7209813 L79.4537405,53.9959536 L82.8969379,55.4199174 L83.086548,55.4070753 L83.3146844,56.1413421 L83.3014645,56.9511507 L83.0230928,57.4516154 L82.498077,57.2710704 L82.4920336,57.9641669 L82.643495,59.248756 L82.6941081,60.45176 L82.1116804,61.4927266 L82.953972,62.2553216 L83.086548,62.5654209 L83.3271488,62.3153774 L83.4661458,62.5839286 L83.6942821,63.6128086 L83.4159104,63.7487839 L83.2130806,63.7106353 L83.086548,63.0651302 L82.8905169,63.0651302 L82.3273524,64.387868 L81.2576798,64.7134533 L78.7447802,64.3754036 L79.0673439,64.7803079 L79.52966,65.5716087 L79.9409854,65.9670703 L80.3398464,66.1631014 L80.6563667,66.2582841 L80.8527755,66.5015289 L80.922274,67.1345696 L80.7005587,68.1506075 L80.1373942,68.9441746 L79.4288117,69.5303793 L78.7447802,69.9163982 L78.8716905,70.8973091 L78.390489,71.4257243 L77.7574483,71.4604735 L77.3650084,70.9573648 L77.4541477,71.4011732 L77.8715165,71.7928577 L77.9727425,72.1343068 L77.9727425,73.7108652 L78.1121172,74.4356893 L78.4788729,74.7741167 L79.0110652,74.8719434 L79.6373072,74.8753428 L80.1056666,75.0494668 L80.5298341,75.5200925 L80.8335123,76.1852385 L80.922274,76.9568984 L80.7194441,77.6877658 L79.5489232,79.5902873 L79.4983102,80.0204981 L79.5043535,80.5364489 L79.4031274,80.9666598 L78.7768855,81.2480532 L78.8716905,81.8017749 L79.0424151,82.0586172 L79.1942542,82.6659737 L78.8716905,85.5614927 L78.7326935,85.9414682 L78.9408113,86.3686574 L79.1122913,86.5050104 L79.5802731,86.6976421 L79.7260688,86.8872521 L79.789524,87.678553 L79.5802731,88.3682501 L79.2512883,88.9064858 L78.9408113,89.2222507 L79.1122913,89.4511425 L79.8586448,88.4762749 L80.2193571,87.6030112 L80.3145398,86.6285213 L80.4916855,87.3748748 L80.8648622,88.0589062 L81.1689181,88.8086591 L81.1243485,89.7382015 L80.6371035,90.3300719 L79.124378,91.061317 L78.7447802,91.5768901 L78.6563963,91.153478 L78.5680123,91.5768901 L78.3523403,91.5768901 L78.3523403,90.7765242 L78.5868978,90.014307 L78.346297,89.1282011 L78.7447802,88.6783494 L78.2767985,89.0171546 L77.7072129,89.8364059 L77.270581,89.9980655 L77.0296026,90.2107158 L77.3151507,90.704004 L77.7514049,91.2732119 L77.9727425,91.7068221 L77.7072129,92.0014353 L77.5043831,92.3085129 L77.3650084,92.6121911 L77.6883275,93.2067055 L77.7638693,93.5296469 L77.4601911,93.672421 L76.9283765,93.8242601 L76.6692679,94.2355855 L76.5744629,94.849363 L76.5427353,97.0989992 L76.4286671,97.7320399 L76.175602,98.3265543 L75.8084686,98.7035081 L75.3465302,99.0547777 L74.9601336,99.424555 L74.8082945,99.8747845 L74.9729757,100.209435 L76.9729462,103.162366 L77.1753983,103.744793 L77.3268597,102.703827 L78.0173122,102.50704 L78.7829289,102.900235 L79.1372201,103.628081 L79.0866071,104.529295 L78.8966193,105.238256 L78.535907,105.434287 L77.9727425,104.798602 L77.7638693,104.798602 L77.5296896,104.868478 L77.4541477,104.542515 L77.3650084,104.260744 L77.1753983,104.026564 L77.3151507,104.836751 L78.1121172,105.966479 L79.0994492,106.966275 L79.833716,107.396486 L79.9160566,107.957007 L79.7260688,111.371498 L79.4537405,111.630229 L78.8524274,111.921821 L78.251492,112.067239 L77.9727425,111.896514 L77.9096651,111.383963 L77.7574483,110.836284 L77.3650084,109.946779 L77.0994788,109.526011 L76.0743759,108.276549 L75.6184808,107.96305 L75.1501214,108.000443 L74.384127,108.406103 L74.5548516,108.722623 L74.9537126,109.396834 L75.9603077,110.392854 L76.175602,110.858192 L76.5612431,112.53862 L76.7070389,112.852119 L77.0235592,113.370713 L79.7574187,116.433935 L80.7134008,117.162159 L82.3394391,117.710215 L83.2640713,118.538909 L84.8587597,119.488092 L86.7575041,120.10187 L87.0358758,120.396483 L87.377325,120.687697 L87.5929969,121.129994 L87.826799,121.456713 L88.0043223,121.570403 L88.1433193,121.734329 L88.2381243,122.073134 L88.4281121,121.535654 L89.2129919,122.073134 L88.9852332,122.304292 L89.3017536,122.471995 L89.7572709,122.554714 L90.6751044,122.586441 L90.9096618,122.750745 L91.1113585,123.15225 L91.3013463,123.614943 L92.6561893,126.21245 L93.1498553,126.696673 L92.8586415,126.902902 L92.5798921,127.180519 L92.150059,127.719132 L92.3713966,128.101374 L92.8711059,128.117993 L93.1498553,128.228284 L93.5422952,128.45982 L93.6937566,128.753678 L94.3774104,129.225437 L94.8204633,129.259808 L95.1245192,129.474725 L95.314507,130.247518 L95.2510518,130.696992 L94.7196149,132.563631 L94.2890264,133.522635 L94.9216894,133.864462 L94.466172,134.987391 L94.364946,135.607967 L94.5296272,136.152624 L94.7196149,136.152624 L94.8393488,135.899559 L95.2888228,135.598525 L96.2572693,135.921466 L97.4024837,136.291621 L98.7191781,136.988117 L99.5418288,137.721628 L100.130678,138 L100.586195,137.886687 L100.674957,137.41795 L100.934443,136.88047 L101.168623,136.797751 L101.415267,136.797751 L101.661911,136.88047 L101.915731,137.031931 L101.997694,136.214946 L102.433949,135.794556 L102.971806,135.484456 L103.364624,135.00401 L103.453008,134.598728 L103.212785,134.237638 L103.099094,133.908276 L102.839231,133.532077 L102.984649,132.848424 L102.934413,132.361179 L102.763311,132.203296 L102.896265,131.772708 L103.136488,131.671104 L103.422036,131.716051 L104.529479,132.142863 L105.03561,132.449563 L105.529276,132.506597 L106.028985,131.988002 L106.263165,131.243915 L106.149097,130.595388 L104.820316,128.399386 L104.136662,127.719132 L103.984823,127.497417 L103.55499,125.22474 L103.408816,124.930882 L103.756686,124.820214 L105.193492,124.779043 L105.668273,124.677817 L105.795183,124.003984 L106.035784,123.338838 L106.364769,122.747723 L106.743989,122.301271 L107.288268,122.051605 L108.250671,122.165295 L108.699767,121.903165 L109.225538,121.766812 L110.750728,121.991549 L111.465354,121.922051 L113.26325,121.067295 L113.477789,120.917722 L113.598656,120.655592 L114.028867,119.437479 L113.93444,118.570637 L113.832458,117.966679 L113.978632,117.529292 L114.402421,117.399738 L114.56748,117.273205 L114.882867,116.377657 L114.889666,115.604864 L114.83301,114.855111 L114.95992,113.997711 L115.187301,113.633221 L115.503821,113.412261 L115.820342,113.24758 L116.041679,113.04815 L116.573116,111.729189 L116.883216,111.142984 L117.016547,110.830241 L117.110974,110.364526 L117.09851,109.972463 L116.972355,108.947738 L117.02259,108.592691 L117.275278,108.327162 L117.877346,108.184766 L118.130412,108.03897 L118.364214,107.65635 L118.478659,107.295638 L118.630121,106.976096 L119.022183,106.718876 L119.788177,106.70339 L120.446147,107.01991 L121.085609,107.178548 L121.807033,106.687526 L122.085027,106.295464 L122.262928,105.89056 L122.237622,105.4222 L122.415145,105.086417 L122.718068,104.874522 L123.092,104.773296 L123.288409,104.387277 L123.553939,104.171983 L123.820224,104.020143 L124.015877,103.804849 L124.168094,103.425251 L124.225128,102.817517 L124.275741,102.380508 L124.579797,101.06759 L124.680645,100.374494 L124.642497,99.6307843 L124.453264,98.9701708 L124.161673,98.4379785 L123.396056,97.5073029 L122.579449,96.7288442 L122.452538,96.4444291 L122.288613,95.8555804 L122.003442,95.6251778 L122.503151,95.0359514 L122.681052,94.2321861 L122.630062,92.4350455 L122.61722,91.4284504 L122.376997,90.7164685 L121.896173,90.248109 L120.46541,89.8239415 L118.946641,89.6022262 L118.351749,89.748022 L117.396145,90.5517872 L116.889637,90.7546171 L116.161413,90.5933352 L115.477759,90.014307 L115.06719,89.1376438 L114.509691,86.951085 L113.953703,84.4706684 L113.655312,83.8557578 L113.345591,83.6159124 L113.016606,83.5652994 L112.655894,83.5834294 L112.263454,83.5422591 L111.440425,83.1600173 L111.237973,82.6436888 L111.263657,81.9702332 L111.111063,81.1090562 L110.656301,80.223328 L109.592294,78.7170235 L109.225538,77.7481993 L108.744715,75.6885508 L108.586077,74.5395593 L108.699767,73.7169086 L109.11147,73.8468405 L109.529217,73.5933976 L109.902771,73.1186171 L110.175099,72.5970007 L110.377552,71.9609383 L110.383973,71.4419658 L110.212493,70.970207 L109.871043,70.485606 L109.649706,70.3405656 L109.174548,70.2612467 L108.966052,70.0871227 L108.845563,69.2550293 L108.757179,68.9611715 L108.389668,68.2612763 L108.16833,68.0301182 L107.845767,67.8843224 L107.642937,67.3151146 L107.726033,66.2801913 L107.61763,65.73629 L109.022709,65.4292124 L109.440077,65.2550884 L109.826474,65.017887 L110.073118,64.7678435 L110.224957,64.3693602 L109.617978,62.2553216 L109.466139,61.4353148 L109.238381,58.6572633 L109.326764,58.252359 L109.554145,57.7394299 L109.832895,57.3658754 L110.503329,56.7079059 L110.693694,56.3691008 L110.624196,55.5747782 L110.390394,54.60331 L110.428165,53.7523311 L111.162431,53.3028571 L111.035899,52.5463055 L111.162431,51.799952 L111.339199,51.5910788 L111.547695,51.432441 L111.781875,51.1287627 L112.086308,50.4235796 L112.086308,49.9355792 L111.946178,49.4260495 L111.807181,48.6570334 L110.908988,46.2838863 L110.731465,45.5628393 L110.725422,44.3250861 L110.649502,43.6418101 L110.339025,42.6099085 L109.250845,40.2431823 L108.699767,39.4896524 L107.984764,38.7210141 L104.428253,36.1068884 L103.984823,36.0343683 L102.022623,36.0819596 L101.675131,36.0279472 L101.440573,35.7684609 L101.187508,35.1323986 L101.20035,34.331655 L100.965793,33.7941747 L100.516319,33.4074005 L100.377322,33.1671774 L100.719149,32.4619942 L100.579774,31.841418 L100.193755,31.4648418 L100.035495,31.2465259 L99.2253085,29.2873481 L98.7316425,28.6577067 L97.2952143,27.8633842 L96.7003222,27.2114581 L95.9596344,26.7842689 L95.3394358,27.2307212 L94.3018685,28.6135148 L93.5676017,28.8254097 L92.1689444,28.7842393 L91.4535631,29.2813047 L91.1812347,29.5441903 L90.0930544,30.1893177 L89.631116,30.3347358 L89.1117658,30.2716583 L88.6180998,30.0216148 L87.6753376,29.2873481 L87.1752505,28.0850995 L87.0800678,27.7209878 L87.1182164,26.8700089 L87.377325,26.1357421 L87.5166997,25.9204479 L87.5166997,25.1801377 L87.2700555,24.1867624 L86.8270026,23.3414492 L86.1690331,23 Z M73.6309748,105.203506 L73.5554329,105.450151 L73.6815878,105.694151 L73.8081204,105.944572 L73.9599595,106.323792 L74.0551423,106.602164 L74.2515511,106.646733 L74.2764799,106.602164 L74.3527771,106.232009 L74.4351178,105.875073 L74.3146285,105.678287 L74.150325,105.570262 L74.0487212,105.501141 L73.9478728,105.396138 L73.8338046,105.156293 L73.6309748,105.203506 Z" id="Fill-1"></path>
            </g>
        </g>
    </g>
</svg>