
<svg width="93px" height="115px" viewBox="0 0 93 115" version="1.1" xmlns="http://www.w3.org/2000/svg" xmlns:xlink="http://www.w3.org/1999/xlink">
    <!-- Generator: Sketch 51.2 (57519) - http://www.bohemiancoding.com/sketch -->
    <desc>Created with Sketch.</desc>
    <defs></defs>
    <g id="Page-1" stroke="none" stroke-width="1" fill="none" fill-rule="evenodd">
        <g id="BB-EPS-01-0001" transform="translate(-260.000000, -145.000000)" fill="#7F807C">
            <polyline id="Fill-3" points="278.6006 146.35056 280.23682 148.00748 281.23364 148.01852 281.89236 148.91874 282.99222 149.43532 283.18864 150.69756 284.16522 151.30154 286.68878 153.88076 288.54396 154.2759 290.36602 155.82288 290.39914 156.49264 290.01642 157.04188 290.97046 157.71026 291.46404 158.6436 291.44196 159.39018 291.01646 159.87272 290.4548 159.89572 290.48792 160.42196 291.23404 160.58664 293.35418 164.42856 293.38592 165.15306 293.7369 165.62502 293.78244 167.79852 294.3855 169.69648 295.63532 172.04616 296.11878 172.10136 296.67768 172.66118 297.019 174.04394 297.62068 174.647 298.97262 177.33708 299.04898 178.28146 299.52002 178.44568 299.68516 179.00504 300.97086 180.23416 303.9006 184.28446 303.98938 185.23988 306.4467 188.09372 307.26044 188.4999 307.89662 189.59746 308.76326 190.77092 309.43164 191.05658 309.8392 191.80362 311.53936 192.78112 313.16454 193.11002 315.6007 194.10914 316.4149 194.0981 318.03824 195.26098 319.79406 197.5113 322.13178 199.00446 324.6466 199.04862 325.3711 199.4548 325.9852 200.07948 325.99762 201.39692 326.39092 201.68304 327.54184 201.67108 328.66378 202.02206 329.7825 203.21898 330.68318 203.40574 332.84472 205.93022 334.5803 205.90768 335.58034 204.93018 336.90744 204.73376 339.57406 207.8613 340.70382 208.07014 340.82434 208.57522 340.57318 208.894 340.8133 209.79376 341.28618 210.74872 341.89108 210.58404 342.49368 210.93594 343.10962 212.17518 345.09682 212.52708 345.49058 212.17518 347.47594 211.89044 347.92812 212.7465 348.76118 212.86702 349.71568 213.88868 349.78192 215.29352 350.40706 215.80918 351.68172 216.10542 351.30682 217.63124 351.99912 218.1032 352.0327 219.19018 351.67068 219.82682 351.61502 221.1208 350.25296 224.12966 349.70418 224.44752 349.27546 226.12652 348.3872 227.13622 347.67282 229.387 346.00624 231.35166 344.05262 233.3706 342.79084 236.27964 341.59392 237.44344 341.04514 237.60812 339.93562 238.27742 339.5069 238.91452 338.79436 241.24166 336.91848 243.18378 335.9534 243.71094 335.4474 244.66544 334.50302 245.13832 333.64742 245.13832 332.76836 245.533 330.67168 247.70604 328.55338 248.85834 326.1485 251.15374 324.29608 251.07692 323.9106 251.44952 322.05542 251.73518 319.76048 254.95058 319.4762 256.66316 319.15742 257.27726 317.60998 257.2883 316.94022 257.86008 315.89602 257.93598 314.15308 259.27504 312.53894 259.62648 311.66126 259.25342 310.25504 259.92318 309.10274 260 307.64316 259.47284 306.49086 258.25476 305.94162 256.49848 305.0322 255.14838 304.0432 253.50158 301.25468 252.41552 300.52006 252.46934 300.0044 252.08616 295.84324 252.35986 293.81326 252.42564 292.66096 251.43848 290.88306 251.38374 285.82214 249.44024 284.17488 248.72678 281.37808 248.8036 280.86196 248.4195 275.75688 246.68622 275.61382 246.14802 276.54716 245.22572 276.61386 244.33608 276.52646 242.98644 276.8204 242.5476 276.58028 241.80102 275.30608 240.88976 273.75864 240.83594 272.3998 239.92376 271.52074 239.77058 271.02716 239.25492 269.62094 238.8377 269.02892 238.2995 268.95118 236.74056 269.65452 235.86242 269.62094 235.39138 270.33532 234.77636 269.67614 233.28366 269.30216 230.68236 268.4576 229.76052 267.07392 227.93846 266.71328 226.37906 266.09918 225.546 266.02144 224.5685 266.29606 224.09654 265.72474 223.39366 265.7137 221.96674 265.12168 221.19854 265.05498 220.61618 265.0214 217.61974 265.36272 217.19194 265.647 215.60034 265.69116 213.6251 265.3848 212.72488 265.74682 212.17518 265.39584 211.36374 265.35168 209.40966 265.59318 208.98232 264.80382 206.24808 265.0214 202.84638 264.14418 201.03444 263.74858 200.28786 263.70442 198.86186 264.33094 197.09408 264.39626 195.8208 264.71366 195.2941 264.06782 193.39568 264.05494 192.19922 263.62668 191.47426 264.05494 190.83762 264.07748 189.9259 263.69338 189.38862 263.71546 186.57894 263.47442 186.19438 263.7265 185.85398 263.70442 185.28358 263.03604 184.18556 262.84882 181.10172 263.06916 178.54458 262.68368 177.29246 263.0917 175.82184 263.00292 174.84526 263.29824 174.04394 262.44264 172.09032 262.38836 170.81704 261.77426 169.38966 261.6427 167.99632 260.76456 166.48108 260.79676 158.73146 260.44578 158.23788 260.403 156.37212 262.45368 153.70458 263.0917 152.58448 264.73758 150.89444 265.91058 148.38054 267.372 147.68916 268.17194 147.6565 269.30216 146.98766 270.1826 147.02032 270.93838 146.4053 271.37768 146.42784 272.69512 145.6808 274.86816 145.36248 275.22972 145 276.06462 145.15364 276.45976 145.60444 277.68796 145.74658 278.6006 146.35056"></polyline>
        </g>
    </g>
</svg>