
<svg width="100px" height="116px" viewBox="0 0 100 116" version="1.1" xmlns="http://www.w3.org/2000/svg" xmlns:xlink="http://www.w3.org/1999/xlink">
    <!-- Generator: Sketch 51.2 (57519) - http://www.bohemiancoding.com/sketch -->
    <desc>Created with Sketch.</desc>
    <defs></defs>
    <g id="Page-1" stroke="none" stroke-width="1" fill="none" fill-rule="evenodd">
        <g id="CG-EPS-01-0001" transform="translate(-227.000000, -116.000000)" fill="#7F807C">
            <polyline id="Fill-3" points="326.763427 119.447869 326.871647 119.812971 326.976871 121.466602 326.824839 123.377115 326.704262 123.671818 326.675054 123.828344 326.586306 124.04703 326.374734 124.224901 325.911897 124.461562 325.636292 124.644674 325.463664 124.883956 325.021797 126.185966 324.816591 126.511001 324.764915 126.646556 324.715112 126.936017 324.653325 127.07307 324.413294 127.41533 324.096872 128.08562 324.050439 128.260494 324.003631 128.617732 323.67298 129.514573 322.661179 131.220629 322.619614 131.329597 322.484058 131.374907 321.725769 132.081146 321.548648 132.296088 321.444922 132.508409 321.29963 133.282425 321.214627 133.541928 321.098168 133.791321 320.953251 134.030977 320.766019 134.488197 320.630463 134.688535 320.404662 134.756313 320.352986 134.891495 320.032071 135.270077 319.931714 135.423233 319.417202 136.811369 319.417202 137.007214 319.496213 137.407515 319.529915 137.81231 319.468877 139.072006 319.544519 139.680134 319.539651 139.888711 319.498086 140.116759 319.362904 140.55226 319.340062 140.780683 319.438171 144.558645 319.409338 144.834625 318.621841 146.540306 318.545825 146.798686 318.484787 147.280995 318.022325 148.757879 317.97664 149.579078 317.876659 149.83933 317.329567 150.758264 317.034864 151.0818 316.77611 151.579462 316.692979 151.883527 316.842765 152.798341 316.842765 153.84272 317.235951 155.521065 317.235951 155.882423 317.034864 156.899091 317.043852 157.270185 317.123238 157.5911 317.37675 158.223194 317.573343 158.330665 317.713392 158.543361 317.797272 158.79837 317.821987 159.024172 317.736235 160.302965 317.662091 160.514162 316.526343 162.096645 315.480466 164.925343 315.237439 165.397167 314.700084 167.852524 314.664885 168.184299 314.700084 168.517946 315.022872 169.834185 315.140828 172.168591 315.040846 172.299279 314.853614 172.559906 314.004705 173.346279 313.93543 173.438771 313.878886 173.541374 313.850052 173.734972 313.832078 173.789269 313.785644 173.837575 313.630991 173.94954 313.461359 174.143886 313.180511 174.34722 310.65101 177.373634 310.310623 177.691554 310.038013 178.018086 309.935036 178.101217 309.580044 178.272347 309.542598 178.33975 309.279725 178.647934 309.145667 178.728443 308.452535 178.923913 307.784492 179.017529 307.526486 179.086805 306.642378 179.447413 306.000173 179.626033 305.579276 179.694934 305.498392 179.729759 305.35647 179.825996 305.277084 179.858949 305.242259 179.939458 304.927335 180.300067 304.409826 180.753917 303.997916 181.232481 303.380426 181.730143 303.074115 181.909511 302.984992 181.996387 302.928823 182.092624 302.783157 182.459973 302.475348 183.005191 302.273886 183.490871 302.052578 183.801675 301.555665 184.778276 301.120164 185.344091 300.813853 185.955964 300.370114 186.634867 300.276498 186.851307 300.20535 187.06887 300.190745 187.217532 300.194116 187.665765 300.120346 188.055207 299.948842 188.388854 298.861774 189.808071 298.792124 189.966469 298.752431 190.14696 298.669675 190.184781 298.436009 190.36003 298.230803 190.445033 298.169766 190.479858 298.046942 190.587329 297.846978 190.847581 297.00818 191.659793 296.446859 192.081064 295.706545 192.784307 295.332081 193.037819 294.999932 193.329526 294.677144 193.750423 294.517623 194.028649 294.419139 194.324475 294.438611 194.630038 294.458083 194.732641 294.453215 194.818018 294.280587 195.408922 294.256247 195.624613 294.297813 195.827572 294.419139 196.009561 294.453215 196.078463 294.475683 196.202785 294.486917 196.838624 294.927286 200.003589 294.650932 201.94743 294.337131 202.88958 294.301183 203.072693 294.286953 203.26292 294.436739 204.501645 294.385063 205.157706 294.456211 205.899143 294.400041 206.612871 294.456211 206.831932 294.582031 207.080576 294.582031 207.382394 294.503019 207.95757 294.572295 208.235047 294.727322 208.388952 294.881976 208.49455 294.956494 208.637221 294.928784 208.945779 294.867746 209.18918 294.696242 209.587609 294.039807 210.715119 293.768696 211.420234 293.473993 211.992789 292.646054 212.992981 292.107201 214.077053 292.009092 214.3755 291.822234 214.561234 291.597556 215.190333 291.184897 215.906307 291.089409 216.009659 291.015265 216.141845 290.773362 216.91998 290.389537 217.287329 289.875024 217.555445 289.288988 217.72957 288.693591 217.819816 288.109803 217.905193 286.194796 218.511824 285.960757 218.620044 285.75967 218.77657 285.588165 219.023342 285.181872 220.323479 285.111099 220.438065 284.817519 220.745874 284.765469 220.833124 284.649385 220.878434 284.32173 221.051062 283.805719 221.236421 282.331456 221.976736 282.068582 222.146368 281.708349 222.301395 281.384438 222.488627 281.244014 222.749628 281.169496 222.925626 279.975331 224.614457 279.685122 224.879202 278.977386 225.23719 278.870289 225.379111 278.786035 225.551739 277.760379 226.553429 276.673312 228.362088 276.574828 228.577779 276.439272 228.775121 276.228449 228.947749 275.606091 229.215116 274.725727 229.760709 274.337783 229.899261 273.832257 229.947941 273.683595 229.892895 273.266817 229.644625 273.103925 229.588081 273.042513 229.55438 272.935042 229.37988 272.874005 229.318842 272.761666 229.308732 272.480818 229.322212 272.41978 229.268664 272.312684 229.12487 272.069657 229.117006 271.806784 229.186282 271.653628 229.268664 271.377648 229.557375 271.218876 229.637885 270.966113 229.678327 270.731699 229.720267 270.675155 229.318842 270.889722 228.291314 270.838795 228.153886 270.77289 228.034432 270.716346 227.908612 270.711478 227.752087 270.744431 227.628139 270.843663 227.395597 270.867255 227.269778 270.815579 226.940624 270.670287 226.731299 270.468825 226.544067 270.26699 226.295798 270.159893 225.792145 270.060286 225.498565 270.071145 225.393715 270.178242 225.20199 270.389814 225.011763 270.889722 224.804684 271.048869 224.64329 271.198655 224.437335 271.418839 224.191687 271.60682 223.926942 271.648011 223.678672 271.558889 223.588427 271.100171 223.294847 270.842166 222.994902 270.627598 222.665748 270.538101 222.475146 270.534731 222.404373 270.58079 222.333599 270.63696 222.142997 270.660551 221.972242 270.660551 221.831818 270.627598 221.726968 270.553454 221.665556 270.30481 221.683156 269.733753 221.99134 269.128995 222.136631 268.860879 222.322365 268.365838 222.755994 267.865929 222.991532 267.360029 223.156296 266.193575 223.294847 265.698534 223.491441 265.309467 224.016064 265.286999 224.053136 265.254046 224.08197 265.042849 224.234002 264.822664 224.501743 264.68224 224.583751 264.54968 224.588993 264.152374 224.475905 263.777162 224.499871 263.65621 224.469539 263.510918 224.340349 263.322938 223.995094 263.201986 223.832202 262.901292 223.640477 262.629431 223.612767 261.791382 223.904474 261.636354 223.988354 261.584678 224.140386 261.725102 225.414685 261.679043 225.671193 261.472713 226.205178 261.425905 226.493889 261.603027 227.06195 261.513904 227.17766 261.414671 227.1668 261.3072 227.134596 261.195236 227.190766 261.14356 227.33456 261.179883 227.576463 261.110607 227.671203 260.9934 227.682811 260.68971 227.598931 260.562018 227.591067 260.281545 227.770061 259.995829 228.298803 259.719849 228.386428 259.561077 228.31191 259.298952 228.041173 259.130069 227.966654 258.979535 227.989497 258.548902 228.237766 258.681088 228.352352 258.736508 228.466938 258.70056 228.565422 258.5504 228.642561 257.866255 229.144342 257.500779 229.586584 257.360729 229.695927 257.079881 229.120376 256.980649 228.660535 256.911373 228.498767 256.784804 228.376317 256.587836 228.26997 255.788731 227.982756 255.545704 227.82623 254.923346 227.28925 254.572099 227.06195 254.440662 226.931263 254.277022 226.499132 254.037365 226.155374 253.934762 225.956534 253.643804 225.619517 253.320268 225.655465 253.100832 225.947172 253.134159 226.392035 252.516294 226.085724 251.645292 225.05183 251.121418 224.635427 250.858544 224.34372 250.624879 223.70788 250.427911 223.443135 250.221207 223.325553 250.062435 223.341655 249.902539 223.412429 249.696209 223.454743 249.51422 223.415799 249.177577 223.23381 248.995588 223.166032 248.676545 223.348395 248.52676 223.652834 248.419289 223.967758 248.240295 224.182326 248.000638 224.317507 247.786445 224.490135 247.599963 224.701707 247.313498 225.233819 247.16521 225.387349 246.957009 225.463366 245.48649 225.730733 244.583284 226.024686 244.384819 226.043784 244.026831 225.998848 243.901012 226.18271 243.917863 226.750397 243.854953 227.024879 243.301496 228.118312 243.162944 228.281204 242.97384 228.354224 242.524858 228.39916 242.323022 228.447466 242.131671 228.521609 242.01409 228.623089 241.848203 228.31528 241.727251 228.162124 241.602929 228.087981 241.444531 228.087981 241.383493 228.14752 240.980196 229.502704 240.63157 230.062152 239.070806 231.39 238.828154 231.290018 238.644292 231.073953 238.345845 230.58041 237.848183 229.977149 237.568833 229.513938 237.395457 229.304238 236.525203 228.510375 236.355197 228.223536 236.264202 227.858434 236.346959 227.858434 236.421102 228.099214 236.523705 228.057274 236.718801 227.677943 236.574632 227.498949 235.809978 226.776235 235.753434 226.611845 235.83619 226.460187 236.036528 226.271083 236.255964 225.88576 236.164595 225.525901 234.854721 224.02243 233.457972 222.956332 232.250328 221.888362 231.681517 221.258889 231.32353 221.0769 230.72027 220.526813 230.65736 220.444431 230.483609 220.157217 230.449158 220.028027 230.464511 219.737818 230.45103 219.588033 230.400103 219.482808 229.178978 218.365035 227.806943 217.274597 227.715574 217.274597 227.548563 217.048421 227.331 216.861564 228.239074 214.425678 228.457012 214.009275 228.800395 213.715695 229.25387 213.423988 229.64818 213.102699 230.076567 212.837953 230.621037 212.730107 231.126937 212.56085 231.422763 212.183016 231.670284 211.776349 232.035011 211.528079 232.699309 211.623568 233.191729 211.999154 234.244346 213.691355 234.466777 213.932135 234.753991 214.028747 235.477454 213.935131 235.743698 213.967709 236.50648 214.183775 236.753626 214.189766 237.019121 214.090159 237.305211 213.877464 237.539251 213.599612 237.643351 213.302662 237.549736 213.022189 237.294726 212.884761 236.980925 212.783656 236.706818 212.622262 236.574632 212.344784 236.610955 212.039597 237.367372 210.260146 237.546365 209.944099 238.117797 209.518334 238.295667 209.232618 238.157115 208.808351 237.643351 208.568694 237.015751 208.39719 236.533442 208.169516 236.000205 207.731768 235.72123 207.564757 234.969307 207.252455 234.865206 207.176813 234.750995 207.063725 234.726655 207.014296 234.747625 206.940527 234.761106 206.026461 234.827386 205.795043 235.00226 205.468136 235.141186 205.386128 235.322426 205.400732 235.628363 205.369278 235.954895 205.16894 235.954895 204.885096 235.760923 204.580657 234.750995 203.515683 234.293401 202.855129 234.077335 202.612102 233.812589 202.526725 233.435879 202.640562 232.899647 203.0154 232.671225 203.053221 232.601949 202.74279 232.761096 202.141027 233.727212 200.573523 233.848912 200.239876 233.913695 199.965769 233.913695 199.691661 233.842547 199.353895 233.716727 199.059192 233.381956 198.525207 233.279353 198.247355 233.273736 198.016311 233.369974 197.286482 233.322417 196.995524 233.038199 196.227125 233.143798 195.967996 233.174129 195.960132 233.664302 195.976234 234.334592 196.17807 234.516955 196.270562 234.598963 196.372791 234.651762 196.483632 234.752493 196.600839 235.199977 196.949839 235.441131 197.076033 235.661316 197.093259 235.882249 196.965941 236.331606 196.552908 236.626308 196.435326 237.105247 196.341336 237.663572 196.163466 238.078104 195.95826 238.215157 196.039144 238.454814 196.214393 238.903796 196.768973 239.310463 197.044953 239.721999 197.090263 244.986581 195.967996 244.835673 195.677038 244.931535 195.250898 245.108282 194.797048 245.201149 194.41884 245.106784 193.873621 245.131873 193.678151 245.226238 193.477439 245.465895 193.103724 245.522813 192.87605 245.006802 192.642385 244.730823 192.221488 244.616237 191.688627 244.50577 190.267537 244.556697 190.088544 244.704236 190.123369 245.113899 190.555125 245.346066 190.627771 245.517945 190.535279 245.576362 190.400846 245.586098 190.258925 245.609314 190.145462 245.689824 189.978077 245.756104 189.89195 245.837363 189.818181 246.486682 189.385301 246.628979 189.334 247.283166 189.316026 247.844113 189.548567 248.779148 190.221478 249.341218 190.400846 249.560654 190.553253 249.713809 190.875292 250.005142 191.831672 250.127217 192.111396 250.20211 192.208382 250.408439 192.410218 250.469102 192.48923 250.520778 192.790298 250.497187 192.795166 250.497187 192.856578 250.482583 192.935216 250.511042 193.004491 250.76343 193.069274 250.755192 193.144915 250.703891 193.233289 250.6803 193.295075 250.624879 193.394308 250.601288 193.479311 250.629373 193.566187 250.803124 193.734695 250.854425 193.827562 250.862663 193.964616 250.924075 194.199405 251.110184 194.191915 251.432222 194.029398 251.544936 194.140988 251.792456 194.54466 251.919399 194.695943 251.985305 195.050935 252.023875 195.156533 252.117865 195.257264 252.202494 195.256141 252.262783 195.269621 252.29611 195.418283 252.183771 195.535116 252.109627 195.642962 252.086036 195.776645 252.076674 195.890482 252.040351 196.006191 251.983807 196.116658 251.922395 196.209525 251.77261 196.333847 251.70633 196.455173 251.742653 196.535308 251.920897 196.524823 252.314458 196.133883 252.487835 196.083331 252.814742 196.141747 253.671889 196.526321 253.947868 196.593724 254.093909 196.564142 254.346298 196.417352 254.502074 196.39788 254.631639 196.427088 256.939458 197.279367 257.179114 197.307826 257.432252 197.245291 257.722835 197.292099 257.788741 197.292099 257.975224 197.233683 258.059853 197.254653 258.172192 197.416795 258.241467 197.438514 258.381891 197.359502 258.438061 197.25278 258.474384 197.131454 258.548902 197.004136 258.681088 196.877193 259.111721 196.581367 259.224809 196.470526 259.415785 196.229746 259.547971 196.11179 259.707118 196.032404 260.025412 195.932047 260.156474 195.840678 260.211895 195.723846 260.253834 195.44487 260.342582 195.307817 261.348391 194.336458 261.456237 194.188545 261.502296 194.051866 261.525887 193.791239 261.558091 193.645947 261.699264 193.383074 261.975243 192.973036 262.008196 192.902637 262.050885 192.918739 262.191309 193.017598 262.372924 193.190974 262.531696 193.441116 262.648529 193.718593 262.766485 194.263812 263.0698 194.874188 263.233441 195.117215 263.473098 195.361739 263.562594 195.492427 263.608279 195.859401 263.71238 195.957136 263.852804 196.024914 263.988734 196.120777 264.171472 196.364178 264.115677 196.450305 263.956904 196.54804 263.770796 196.946844 263.494816 197.083148 263.395584 197.198858 263.38772 197.706256 263.372367 197.772536 263.58656 197.960516 263.887629 198.061247 264.215284 198.077349 264.490889 198.020431 264.720061 197.883002 264.847379 197.824961 264.978066 197.824961 265.099767 197.914832 265.136465 198.154863 265.225587 198.233126 265.32482 198.234624 265.938191 198.044022 266.017203 198.029792 266.154256 198.039903 266.355718 198.15711 266.492772 198.211407 266.609979 198.193807 266.689739 198.0942 266.835031 197.687907 266.946996 197.571074 267.072816 197.471467 267.166431 197.357256 267.163061 197.011626 267.224473 196.879066 267.331944 196.764105 267.585082 196.55141 267.706782 196.470526 267.83747 196.410986 268.469939 196.264197 268.526483 196.300145 268.42725 195.880371 267.426309 195.036331 267.38362 194.585851 267.561865 194.446925 268.015715 194.281412 268.194334 194.089687 268.194334 193.992701 268.114948 193.756414 268.128054 193.625726 268.19733 193.562817 268.42725 193.482681 268.521615 193.391312 268.582653 193.204829 268.657171 192.508327 268.741051 192.249947 268.754531 192.11926 268.688251 192.006921 268.580406 191.927909 268.515249 191.860505 268.504764 191.777374 268.57404 191.653801 268.565802 191.502893 268.599129 191.38606 268.665035 191.287951 268.764267 191.192088 270.331397 190.580963 270.687138 190.391485 270.780754 190.20987 270.676653 189.634694 270.687138 189.523853 270.771017 189.18384 270.807715 188.133095 270.892344 187.848877 271.056733 187.672131 271.365666 187.483401 271.267182 187.396525 270.985585 187.350466 270.761656 187.281191 270.597641 186.746831 270.340384 186.60491 270.255756 186.507549 270.373337 186.403448 270.645947 186.307585 270.77289 186.246173 270.89871 186.155928 270.987457 186.022244 271.039133 185.870212 271.122639 185.756001 271.558889 185.675117 271.554395 185.474779 271.404235 185.236994 271.230859 185.06549 271.398618 184.685409 271.42221 184.368239 271.467894 184.244291 271.623671 184.097502 271.79218 183.990405 271.886544 183.838373 271.811652 183.565763 271.344696 183.258703 271.152596 183.058365 271.073584 182.805977 271.109907 182.659936 271.199404 182.564822 271.311743 182.480568 271.406108 182.373097 271.479877 182.234546 271.52631 182.106853 271.58248 181.811776 271.595586 181.400241 271.572369 181.280787 271.467894 181.110406 271.187421 180.837048 271.093805 180.676403 271.093805 180.563315 271.163081 180.334143 271.175813 180.222553 271.129379 180.068274 270.988955 179.784805 270.610747 178.752035 270.616364 178.561807 270.756788 178.282832 270.823068 177.712898 270.892344 177.411081 271.093056 177.086421 271.32747 176.831037 271.478379 176.548691 271.42221 176.14839 271.332338 175.813619 271.332338 175.489334 271.401989 175.167295 271.940842 174.009454 272.035206 173.581068 271.914255 173.186383 271.604948 172.550918 271.440558 172.37904 270.911441 172.016933 270.621232 171.625619 270.171876 171.348141 269.665976 171.126459 269.296006 171.02086 269.071702 171.055685 268.864998 171.153046 268.663537 171.220824 268.448969 171.17102 268.205942 171.072162 267.976396 171.074034 267.756211 171.148178 267.536776 171.266883 267.513185 170.774838 267.413952 170.231117 267.251435 169.702749 267.026008 169.251895 266.684122 168.914877 266.196945 168.680089 265.663709 168.598081 265.1814 168.725024 265.087035 168.596209 264.979939 168.506712 264.848877 168.457283 264.374806 168.402611 264.272203 168.437062 264.22165 168.525061 264.188323 168.620549 264.131779 168.680089 263.953909 168.744496 263.870029 168.760598 263.789894 168.701808 263.177271 167.976846 263.190752 167.603132 263.331176 167.27585 264.093958 166.265173 264.229514 166.137481 264.369938 165.967475 264.355708 165.828923 264.286058 165.682134 264.262841 165.489285 264.318262 165.358597 264.505493 165.117443 264.523093 164.980015 264.419367 164.817872 264.261343 164.788289 264.105192 164.784919 264.021687 164.695422 263.965143 163.744659 263.898863 163.424493 263.772294 163.014455 263.706388 162.683804 263.761809 162.370004 264.216408 161.702335 264.683738 160.655335 264.964586 160.355764 265.947927 159.819532 266.195073 159.536438 266.246 159.263829 266.16212 158.99384 266.012335 158.719359 266.414883 158.164404 267.073564 158.074907 267.819121 158.157289 268.482671 158.122464 268.662039 158.055435 268.736183 158.000763 268.78711 157.931113 269.770451 157.086698 269.853956 156.804352 269.895147 156.129194 270.278972 155.58098 270.886727 155.059726 271.340576 154.518627 271.251829 153.903757 271.211012 153.741989 271.308373 153.634518 271.467894 153.542026 271.590718 153.418453 271.613186 153.240208 271.514702 153.13386 271.195659 152.975462 270.942896 152.747414 270.723461 152.486787 270.536229 152.198825 270.386443 151.889893 270.17974 151.216607 270.001869 150.946993 269.365281 150.654163 269.158577 150.380056 269.046613 150.043787 269.061217 149.048838 269.028264 148.705455 268.832045 147.882758 268.752285 147.735968 268.606993 147.626251 268.456833 147.56409 268.344119 147.490695 268.30143 147.345403 268.143407 147.31582 268.044174 147.244672 267.959171 147.157797 267.842338 147.079159 267.322208 146.937238 267.055965 146.9114 266.816308 146.972063 266.342237 147.154052 266.06139 147.137201 265.85169 146.988914 265.654722 146.796814 265.41544 146.655267 265.186268 146.605838 262.681856 146.372921 262.494624 146.417108 262.48002 146.480018 262.357571 146.820405 262.194679 147.135703 262.153488 147.165661 262.007447 147.218085 261.971124 147.204979 261.816096 147.130835 261.750191 147.118104 261.655826 147.152929 261.495181 147.276127 261.411301 147.317318 261.168649 147.362628 261.045825 147.370492 260.919256 147.365624 260.656383 147.389215 260.4699 147.510916 260.298396 147.65134 259.82058 147.834078 259.519886 148.239247 259.346509 148.362072 258.902021 148.442581 258.503592 148.444079 258.090559 148.366565 257.626598 148.202925 257.425137 148.185325 257.134928 148.218278 256.876548 148.289426 256.769451 148.387535 256.684822 148.622324 256.460519 148.681863 256.220862 148.716689 255.973342 149.016259 255.730315 149.119986 255.457705 149.175781 254.998988 149.140956 254.727876 149.184393 254.590822 149.166045 254.548882 148.982932 254.422314 148.898303 254.263167 148.834645 254.127985 148.716689 254.380748 148.690102 254.479607 148.528708 254.530908 148.344846 254.635384 148.257596 254.821492 148.231009 255.046544 148.155368 255.234525 148.027676 255.360345 147.763304 255.439357 147.717245 255.47231 147.64797 255.360345 147.487325 255.314286 147.398951 255.308669 147.297846 255.319154 147.19075 255.300431 146.568017 255.314286 146.456801 255.104586 146.324241 254.86493 145.687278 254.59232 145.548352 254.671332 145.361121 254.653732 145.181378 254.559367 145.026725 254.408459 144.91139 254.319711 145.009499 254.07219 144.672482 253.856499 144.291653 254.086794 144.030652 254.127985 143.713481 254.048599 143.113216 254.094658 142.835739 254.189023 142.588218 254.226844 142.3568 254.127985 142.130998 254.296494 142.033263 254.431675 141.858014 254.535776 141.658425 254.671332 141.174244 254.690055 140.964544 254.633511 140.80727 254.567231 140.709535 254.460135 140.470252 254.286758 140.237711 254.342179 140.176673 254.501326 140.131363 254.590822 139.924659 254.67957 139.771503 254.769067 139.665905 254.857815 139.583523 254.92372 139.49103 254.95218 139.356972 254.878036 139.11095 254.882904 139.000483 255.005353 138.952177 255.074629 138.904246 255.313537 138.641747 255.393298 138.581084 255.865871 138.322704 256.000678 138.00778 256.047486 137.584262 256.044115 136.793395 258.323475 136.814365 260.36505 136.833088 263.06643 136.855556 265.435286 136.877649 267.541269 136.894875 268.936895 136.909104 269.062715 136.893751 269.647627 136.669073 270.484927 136.781412 270.694627 136.898619 270.947764 137.135655 271.139115 137.176471 271.214008 137.151382 271.485868 136.986244 272.530247 136.76531 272.651948 136.724119 272.694262 136.609533 272.661309 136.489331 272.661309 136.366881 272.782636 136.251546 272.852286 136.166917 273.189303 136.261282 273.630796 136.746587 273.94909 136.887011 273.83675 137.095213 273.963694 137.161493 274.309698 137.148386 274.492811 137.260725 274.756058 137.528467 274.951903 137.605606 274.863155 137.283942 274.956771 137.235636 275.317379 137.425864 275.125279 137.572654 275.041025 137.605606 275.172087 137.651665 275.312137 137.637061 275.428969 137.605606 275.495249 137.605606 275.507981 137.698473 275.500492 137.993925 275.541308 138.056835 276.356141 137.966589 276.552735 137.917909 276.64635 137.796208 276.669942 137.635563 276.669942 137.471923 276.764306 137.391413 276.956032 137.579394 277.127536 137.837399 277.170599 137.968087 277.427856 138.144459 277.287432 138.513306 277.232011 138.836468 277.760379 138.876161 278.046095 138.843208 278.168545 138.781796 278.275641 138.465 278.403333 138.483349 279.035428 138.980262 279.237264 139.039802 279.500137 138.955173 279.655165 139.191459 279.874226 139.124056 280.089917 138.907616 280.220979 138.694921 280.305983 138.694921 280.497333 138.767192 280.671085 138.379248 281.097224 138.532404 281.275469 138.45826 281.481798 138.397222 281.763395 138.506191 281.829675 138.585952 281.899325 138.787413 281.953622 138.876161 282.02477 138.91548 282.473003 139.080993 282.581598 139.163375 282.656865 139.265603 282.684201 139.363338 282.665103 139.535217 282.641137 139.609361 282.660609 139.664407 282.763587 139.776371 282.829867 139.787605 283.142544 139.924659 283.133182 139.956863 283.293078 139.932148 283.53985 139.804456 283.805719 139.716832 284.484996 139.317279 285.067286 139.237518 285.648079 139.343866 286.775589 139.677139 288.037531 139.81569 288.093701 139.877102 288.234125 139.952744 288.396642 140.017526 288.706698 140.06733 288.806679 140.123125 289.311831 140.766079 289.477718 140.85258 289.83271 140.97428 290.150629 141.18061 290.276449 141.24352 290.366695 141.336387 290.398898 141.534103 290.470046 141.64457 290.624325 141.63783 290.802196 141.568554 290.942619 141.492912 290.983062 141.70074 291.180029 141.798475 291.43766 141.855019 291.667206 141.943766 291.802762 141.871121 291.964156 141.874491 292.113941 141.93403 292.218417 142.033263 292.275335 142.184921 292.255863 142.313736 292.218417 142.438058 292.218417 142.573614 292.331505 142.802786 292.85126 143.472327 293.448155 142.621171 293.560869 142.588218 293.846584 142.684081 293.991502 142.621171 294.033442 142.414842 293.715896 140.957429 293.267289 139.804456 293.031752 139.406776 292.921659 139.305296 292.835158 139.267101 292.78498 139.196327 292.77075 138.711023 292.807448 138.58408 293.009284 138.302857 293.004416 138.187523 292.96285 138.08492 292.943004 137.968087 292.933268 137.961721 292.923532 137.926147 292.923532 137.866982 292.943004 137.787221 292.978578 137.729928 293.03999 137.713077 293.090917 137.71158 293.119002 137.698473 293.149333 137.511242 293.113759 137.389541 293.060585 137.274206 293.029879 137.103451 293.060585 136.953291 293.218983 136.657839 293.307731 136.366881 293.518929 136.238065 293.79004 136.284873 294.033442 136.519288 294.567427 136.122356 294.679017 135.978937 294.603001 135.861355 294.528857 135.80219 295.816262 133.091448 296.241653 132.18974 296.845288 130.919185 297.408481 129.727642 297.898654 128.693749 298.272743 127.892771 298.339023 127.5756 298.22294 127.337816 298.032712 127.123997 297.866076 126.876477 297.831251 126.293063 298.345764 125.314215 298.436009 124.83977 298.33116 124.54619 298.190736 124.275079 298.087758 123.996103 298.09712 123.67032 298.252148 123.367754 298.705249 122.737157 298.78089 122.454437 298.791001 122.130526 299.12315 121.301089 299.237361 120.19792 299.448933 119.609638 299.860469 119.117592 300.40419 118.762975 301.02168 118.58211 301.331361 118.562637 301.599477 118.58211 302.688043 118.853221 302.970763 118.837119 303.22727 118.706431 303.256104 118.594092 303.219032 118.455541 303.236632 118.348444 303.428732 118.329721 303.556049 118.361176 303.799825 118.451796 303.919279 118.475013 304.287002 118.43195 304.417315 118.443558 304.562607 118.524817 304.661466 118.635283 304.767813 118.701563 304.945309 118.642024 305.050159 118.622552 305.226157 118.645019 305.305169 118.640151 305.417882 118.592595 305.568042 118.463405 305.658288 118.402367 305.877723 118.298266 306.000173 118.268309 306.355164 118.2919 306.53603 118.263816 306.894017 118.124515 307.074509 118.07546 307.608494 118.091937 307.795726 118.063478 308.020029 117.964245 308.137611 117.842544 308.247329 117.70212 308.43119 117.549714 308.62329 117.480438 308.79105 117.497289 309.132935 117.610751 309.615244 117.5763 309.90096 117.311929 310.162335 116.981652 310.850974 116.630031 311.052809 116.482492 311.267003 116.39 311.57219 116.436808 311.62836 116.496348 311.68041 116.669724 311.745192 116.722149 311.926807 116.74237 311.986721 116.775323 312.480264 117.184986 312.962948 117.394686 313.498056 117.4722 314.58063 117.470702 314.654774 117.456098 314.805309 117.398056 314.904916 117.393188 314.994038 117.432881 315.121356 117.578173 315.205236 117.625355 315.325813 117.627228 315.584193 117.5763 315.695408 117.585662 315.90024 117.703618 316.071744 117.894969 316.192321 118.136123 316.258976 118.398997 316.347349 118.605701 316.539449 118.642024 316.786221 118.570876 317.297363 118.326351 317.371507 118.270181 317.442655 118.298266 317.908862 118.593343 318.034682 118.640151 318.200569 118.623301 318.612479 118.422214 319.06558 118.301262 319.528417 118.296394 319.98339 118.448052 320.21743 118.674977 320.38519 119.201472 320.559315 119.39507 320.849899 119.433265 321.125879 119.302577 321.361416 119.083142 321.511202 118.856591 321.562878 118.725529 321.656493 118.327849 321.735131 118.146608 321.833615 118.115154 321.954566 118.148106 322.099858 118.152974 323.15959 118.05861 323.240474 118.077333 323.383894 118.151476 323.479008 118.152974 323.529186 118.104669 323.58573 117.924552 323.647142 117.869131 323.796927 117.84891 324.021231 117.862016 324.14368 117.811089 324.382588 117.5763 324.534246 117.399554 324.705376 117.39169 325.033031 117.664299 325.252092 117.918186 325.795439 118.786941 326.007011 119.27262 326.165409 119.433265 326.763427 119.447869"></polyline>
        </g>
    </g>
</svg>