
<svg width="117px" height="116px" viewBox="0 0 117 116" version="1.1" xmlns="http://www.w3.org/2000/svg" xmlns:xlink="http://www.w3.org/1999/xlink">
    <!-- Generator: Sketch 51.2 (57519) - http://www.bohemiancoding.com/sketch -->
    <desc>Created with Sketch.</desc>
    <defs></defs>
    <g id="Page-1" stroke="none" stroke-width="1" fill="none" fill-rule="evenodd">
        <g id="CD-EPS-01-0001" transform="translate(-171.000000, -92.000000)" fill="#7F807C">
            <path d="M287.486473,112.237833 L287.139581,112.042867 L287.01303,111.944902 L286.966778,111.840835 L286.9459,111.71332 L286.936585,111.451224 L286.641727,111.562358 L286.539908,111.578418 L286.458003,111.574885 L286.188841,111.528954 L286.101155,111.482701 L286.070641,111.428098 L286.090234,111.402724 L286.124602,111.385379 L286.133917,111.351332 L286.117857,111.306044 L286.104688,111.28099 L285.760366,110.896198 L285.656941,110.830995 L285.430819,110.830353 L285.330606,110.996732 L285.244526,111.19234 L285.070116,111.276494 L284.967333,111.230241 L284.852345,111.129065 L284.754059,111.00958 L284.690463,110.910009 L284.674724,110.820717 L284.67633,110.728855 L284.661555,110.655301 L284.601813,110.620291 L284.174301,110.616436 L284.085972,110.589777 L284.06927,110.485709 L284.125158,110.35948 L284.200639,110.235498 L284.248176,110.138176 L284.252994,110.02929 L284.231795,109.805095 L284.237898,109.692677 L284.263272,109.630365 L284.382436,109.445356 L284.397532,109.397498 L284.414234,109.295679 L284.619157,108.749646 L284.625902,108.717526 L284.628151,108.657784 L284.64421,108.623416 L284.670549,108.606714 L284.743139,108.592902 L284.766586,108.581018 L284.809626,108.519991 L284.960267,108.111751 L284.969261,107.86989 L284.902131,107.629957 L284.762411,107.384885 L284.655774,107.288205 L284.371515,107.091633 L284.298925,107.000734 L284.28961,106.884783 L284.314985,106.75502 L284.657379,105.727514 L284.768192,105.511992 L284.788749,105.498501 L284.865514,105.481799 L284.892495,105.467024 L284.911767,105.436189 L284.917869,105.372271 L284.930075,105.3424 L285.050202,105.13555 L285.225896,104.943475 L285.30491,104.831378 L285.343775,104.701293 L285.332212,104.63063 L285.270221,104.503758 L285.261228,104.434701 L285.302983,104.26254 L285.300092,104.208579 L285.221078,104.064041 L285.123435,104.097766 L285.007483,104.196052 L284.873865,104.244553 L284.803202,104.117359 L284.862945,103.804193 L284.774937,103.69595 L284.584468,103.621433 L284.504811,103.56169 L284.46402,103.470471 L284.445711,103.262015 L284.431579,103.231501 L284.421301,103.201309 L284.309203,103.121331 L284.213808,103.190709 L284.112953,103.310194 L283.980941,103.382463 L283.811671,103.381178 L283.739723,103.390814 L283.633728,103.43 L283.442296,103.535674 L283.366815,103.554624 L283.243797,103.570042 L283.181485,103.568436 L283.127524,103.549485 L283.065212,103.498736 L283.06746,103.468222 L283.101828,103.43 L283.135875,103.355804 L283.182127,103.119083 L283.186302,103.00024 L283.04048,102.109243 L282.999366,102.030229 L282.956647,101.951214 L282.897547,101.931622 L282.834914,101.938045 L282.775493,101.954105 L282.716393,101.96342 L282.593375,101.960529 L282.53845,101.951214 L282.307511,101.877018 L282.059226,101.731516 L281.814796,101.585372 L281.404629,101.454003 L281.008273,101.448222 L280.907097,101.414175 L280.862129,101.357002 L280.852493,101.295011 L280.850245,101.231093 L280.83804,101.165248 L280.796284,101.097797 L280.649819,100.924351 L280.5965,100.784952 L280.561811,100.643626 L280.499178,100.524784 L280.359137,100.447697 L280.102501,100.395984 L280.012566,100.33849 L279.921989,100.208085 L279.778414,99.9360317 L279.683983,99.8236131 L279.542014,99.7384962 L279.470709,99.7262908 L279.398119,99.7262908 L279.333879,99.711837 L279.286021,99.6540217 L279.280561,99.5801467 L279.317177,99.5155863 L279.364072,99.4548803 L279.383665,99.3941743 L279.32328,99.2698715 L279.189662,99.1452475 L279.031955,99.0546702 L278.898659,99.0350773 L278.618897,99.0379681 L278.452518,98.9043506 L278.382497,98.6811195 L278.384746,98.4145269 L278.439349,98.2320877 L278.448342,98.1694545 L278.439349,98.1158148 L278.396309,98.0152805 L278.391491,97.9622831 L278.428749,97.9012559 L278.486886,97.8312352 L278.507442,97.7669961 L278.43164,97.7223498 L278.372219,97.6966542 L278.231535,97.6128221 L278.192028,97.5970835 L278.055841,97.6311302 L278.008947,97.6224579 L277.920939,97.5697818 L277.744281,97.4130382 L277.672654,97.3638953 L277.417946,97.2460164 L277.347283,97.2312414 L277.161953,97.2283506 L276.97855,97.1493364 L276.954782,97.1425913 L276.907887,97.1287799 L276.870628,97.1342402 L276.776518,97.1811348 L276.746004,97.1618631 L276.684014,97.0992299 L276.657676,97.0831701 L276.528876,97.0594016 L276.435408,97.0754614 L276.383374,97.1515848 L276.36892,97.3638953 L276.351897,97.4702111 L276.356394,97.5325231 L276.344831,97.5993318 L276.231449,97.7050053 L276.190014,97.7689232 L276.151792,97.9105706 L276.099116,98.0335886 L276.024599,98.1450436 L275.711754,98.4132421 L275.65169,98.5018922 L275.589057,98.6473939 L275.49848,98.7925744 L275.396982,98.8137734 L275.274606,98.7877565 L275.126214,98.7909685 L275.056514,98.8632375 L275.040454,98.977262 L274.994202,99.0749056 L274.839707,99.0967469 L274.70095,99.0305806 L274.313588,98.6390428 L274.24421,98.5892575 L274.003313,98.48519 L273.986932,98.4932199 L273.968945,98.4055334 L273.902458,98.378553 L273.607279,98.1826235 L273.58351,98.1569278 L273.560063,98.1312322 L273.189724,98.2230942 L273.055464,98.2362632 L272.76703,98.2128159 L272.579452,98.2381904 L272.516497,98.2381904 L272.361039,98.175236 L272.33181,98.0573571 L272.323137,97.9211701 L272.234166,97.8032912 L272.193374,97.7901222 L272.150334,97.7775955 L272.097979,97.806182 L272.045303,97.8575733 L271.963719,97.89965 L271.838453,97.89965 L271.785456,97.9083222 L271.530747,98.3939704 L271.438885,98.519558 L271.347987,98.5789792 L271.095206,98.6380792 L271.021331,98.683689 L270.999811,98.750819 L270.985357,98.8214821 L270.941995,98.8760854 L270.886428,98.8921451 L270.828292,98.8863636 L270.767586,98.873837 L270.710092,98.8709462 L270.574226,98.903387 L270.485255,98.964093 L270.250461,99.2714774 L270.136436,99.3790781 L270.007315,99.457771 L269.869522,99.4731884 L269.723378,99.4275786 L269.671023,99.3697634 L269.652073,99.2846465 L269.598112,99.1568105 L269.392547,99.0061697 L269.135269,99.0177327 L268.866107,99.0678393 L268.624567,99.0363621 L268.511185,98.9538147 L268.399088,98.8413962 L268.228854,98.6258738 L268.203158,98.5083161 L268.164615,98.4591731 L268.114829,98.4546764 L268.065686,98.4517856 L268.009798,98.4861536 L267.907658,98.5931118 L267.845667,98.5995357 L267.658731,98.3342279 L267.630466,98.2764127 L267.611194,98.2282333 L267.60188,98.178448 L267.598025,98.1135664 L267.617297,97.9757734 L267.647811,97.8710635 L267.628218,97.8039336 L267.313446,97.7589662 L267.244389,97.7682809 L267.203597,97.7599298 L267.141285,97.6934422 L267.111414,97.6831639 L267.05681,97.7120716 L267.031115,97.7310221 L267.042999,97.739052 L267.035611,97.753827 L267.033363,97.7836983 L267.018909,97.8103575 L266.98165,97.8138907 L266.877583,97.7698868 L266.843857,97.7653901 L266.669448,97.7907646 L266.621911,97.7862678 L266.552533,97.7448336 L266.440435,97.6259911 L266.378766,97.5752421 L266.330265,97.5591823 L266.270202,97.5469769 L266.179624,97.5283475 L266.153929,97.5283475 L266.108319,97.4294192 L266.081981,97.2835963 L266.069454,97.0340271 L266.118597,96.6794269 L266.098041,96.5480578 L266.071703,96.4921697 L266.032838,96.4231126 L265.981447,96.3604794 L265.923631,96.328681 L265.870313,96.3312506 L265.75147,96.3636914 L265.704897,96.3636914 L265.626846,96.300737 L265.587982,96.1995603 L265.539481,95.9480639 L265.460467,95.8035258 L265.351903,95.7351111 L264.813257,95.6766534 L264.764435,95.6589877 L264.688633,95.6329708 L264.578463,95.5423936 L264.546022,95.4820088 L264.520648,95.3516032 L264.498164,95.2941092 L264.447736,95.234688 L264.25534,95.0895074 L264.211979,95.0721629 L264.173114,95.0503215 L264.134249,95.0226987 L264.101808,94.9909003 L264.143243,94.7188474 L264.132322,94.6401544 L263.970439,94.5784848 L263.912945,94.565637 L263.828471,94.5084641 L263.759092,94.4946527 L263.643141,94.4888712 L263.583077,94.4773081 L263.531365,94.4577152 L263.445284,94.395082 L263.36627,94.3247401 L263.283401,94.2659613 L263.177407,94.2415504 L263.043147,94.2267754 L262.902463,94.1875895 L262.400434,93.9409111 L262.150865,93.8500126 L261.889733,93.8317045 L261.607401,93.9126458 L261.387703,94.0266703 L261.204622,94.1487248 L261.034709,94.298402 L260.853555,94.4940103 L260.823684,94.5450805 L260.764583,94.6905822 L260.733106,94.7435795 L260.661801,94.8142426 L260.62679,94.8402594 L260.51919,94.8303024 L260.512124,94.8168121 L260.493494,94.7862985 L260.458805,94.7564273 L260.417371,94.7429371 L260.376579,94.7586757 L260.314267,94.8225937 L260.268657,94.8293388 L260.230756,94.796898 L259.977975,94.5315902 L259.93365,94.5055734 L259.848212,94.4924043 L259.556566,94.4924043 L259.491684,94.5245239 L259.408816,94.5903691 L259.349073,94.6218463 L259.266205,94.5903691 L259.215777,94.595187 L259.178197,94.659105 L259.139654,94.659105 L259.091795,94.5910115 L258.985801,94.5772 L258.873703,94.6151012 L258.802719,94.7047148 L258.759037,94.659105 L258.715996,94.70343 L258.637946,94.7442219 L258.559574,94.7747355 L258.507219,94.7875833 L258.402188,94.7782686 L258.233881,94.718205 L258.157758,94.7040724 L258.143947,94.6652077 L258.030243,94.4316983 L257.955083,94.3738831 L257.862258,94.3199222 L257.775856,94.2537558 L257.718362,94.1599666 L257.58892,94.2110368 L257.548449,94.239302 L257.489349,94.1670329 L257.386245,94.1628574 L257.26933,94.175384 L257.114193,94.1477612 L256.996956,94.0989394 L256.88518,94.0176769 L256.83957,93.9100763 L256.811305,93.9222817 L256.741605,93.9396263 L256.714625,93.9518317 L256.712377,93.855473 L256.714625,93.8233534 L256.636253,93.8545094 L256.59771,93.803118 L256.543749,93.6158608 L256.524798,93.6377022 L256.460559,93.6951962 L256.443214,93.6691794 L256.40435,93.6441261 L256.376085,93.6152185 L256.294501,93.65055 L256.255636,93.6052614 L256.214202,93.5329923 L256.128443,93.4896309 L256.097929,93.5529065 L256.06324,93.5962679 L256.020521,93.6152185 L255.97202,93.6142549 L255.933798,93.6081521 L255.902642,93.5969103 L255.874055,93.5776385 L255.893006,93.7327761 L255.913241,93.7815979 L255.857996,93.7565446 L255.804677,93.7494783 L255.763885,93.7748528 L255.747183,93.8439099 L255.715063,93.8487278 L255.644079,93.8477643 L255.560247,93.8622181 L255.498256,93.9100763 L255.4186,93.853867 L255.311963,93.7321337 L255.247402,93.6951962 L255.161964,93.6807424 L255.106397,93.6993718 L255.080059,93.758793 L255.080059,93.86543 L254.987555,93.824317 L254.880275,93.8384496 L254.800619,93.9078279 L254.789698,94.0318095 L254.678886,93.9396263 L254.624282,93.8288137 L254.553619,93.7465876 L254.413899,93.7420908 L254.392379,93.7790283 L254.335206,93.850655 L254.272573,93.8827746 L254.227927,93.762005 L254.198055,93.7183223 L254.181996,93.6624342 L254.200946,93.5795657 L254.174608,93.5904864 L254.108121,93.6065462 L254.079855,93.6174668 L254.064438,93.468432 L253.980606,93.4302096 L253.92536,93.4549417 L253.998914,93.4925216 L253.940456,93.5741054 L253.855982,93.5802081 L253.770544,93.5426282 L253.704056,93.4925216 L253.53318,93.3055857 L253.450312,93.2432737 L253.313803,93.2047302 L253.305773,93.1973427 L253.277187,93.186422 L253.231256,93.1334247 L253.196888,93.1189709 L253.122692,93.1331035 L253.079651,93.1703622 L253.035005,93.1819253 L252.946355,93.1189709 L252.946355,93.0804274 L252.978154,93.060192 L252.995498,93.0377083 L253.012522,93.0152246 L253.028581,92.9940257 L252.893037,92.9953105 L252.843894,92.9419919 L252.822695,92.8620142 L252.774837,92.7852484 L252.737578,92.7852484 L252.657279,92.7968114 L252.546466,92.783 L252.479979,92.8038777 L252.529443,92.9121207 L252.455247,92.9285017 L252.306854,92.9869594 L252.253857,92.9731479 L252.189618,92.907624 L252.170025,92.8983093 L252.156856,92.920793 L251.882876,93.0698279 L251.751507,93.1016263 L251.644227,93.0386719 L251.578703,93.1144741 L251.490696,93.1430606 L251.447013,93.1809617 L251.525385,93.2879199 L251.400761,93.3277482 L251.324637,93.4157558 L251.28513,93.539095 L251.274531,93.6807424 L251.235987,93.7565446 L251.157937,93.8400556 L251.105903,93.9438018 L251.148301,94.0774193 L251.191341,94.1027938 L251.309541,94.1246351 L251.354187,94.1647846 L251.359326,94.2094308 L251.326565,94.3305216 L251.318213,94.393476 L251.299584,94.4316983 L251.210934,94.536087 L251.193589,94.6025745 L251.187808,94.7545002 L251.16147,94.8152062 L251.105903,94.875591 L251.013399,94.9000019 L250.745521,94.9253763 L250.690276,94.9777313 L250.616079,95.0140264 L250.22679,95.0377949 L250.172829,95.0156324 L250.129146,94.9864036 L250.083215,94.9623139 L250.018334,94.9587807 L249.971439,95.0204503 L249.924866,95.0612422 L249.870263,95.0795504 L249.843924,95.1055672 L249.779685,95.2279428 L249.744354,95.3506397 L249.692962,95.3666995 L249.475834,95.3034239 L249.266736,95.1890781 L249.040614,95.1251602 L248.971235,95.1251602 L248.928837,95.1473227 L248.814492,95.2279428 L248.781409,95.2456086 L248.644258,95.2745162 L248.423918,95.4103821 L248.3009,95.4572767 L248.231842,95.4514952 L248.176597,95.4254783 L248.127133,95.4094185 L248.07542,95.4341506 L248.00829,95.5044925 L247.942445,95.5597382 L247.875315,95.5668045 L247.80144,95.4977474 L247.699621,95.5655197 L247.583348,95.5732284 L247.178641,95.5314729 L247.11922,95.5009593 L247.137849,95.4376837 L247.216864,95.3310467 L247.133031,95.2706619 L246.954447,95.211883 L246.881214,95.1617765 L246.846525,95.0911134 L246.848773,94.969059 L246.793206,94.9125285 L246.717404,94.8816937 L246.561303,94.8585676 L246.502203,94.8325507 L246.465586,94.7875833 L246.410983,94.6713104 L246.376615,94.6244158 L246.259058,94.5389777 L246.096532,94.4561092 L245.928547,94.4159597 L245.787863,94.4577152 L245.766664,94.5258087 L245.769555,94.6106044 L245.752853,94.6597474 L245.668378,94.6244158 L245.635938,94.5720609 L245.575553,94.3915488 L245.543754,94.3253825 L245.459601,94.4137114 L245.369666,94.5556799 L245.329838,94.6873702 L245.395041,94.7458279 L245.547288,94.7776263 L245.558208,94.8515013 L245.481442,94.9343698 L245.372878,94.9950758 L244.935731,95.0509639 L244.873419,95.1010705 L244.862177,95.1168091 L244.791192,95.290576 L244.769351,95.3602755 L244.769351,95.4164848 L244.75843,95.4624158 L244.708003,95.497105 L244.667853,95.497105 L244.627061,95.3499973 L244.526206,95.3072782 L244.403509,95.3374706 L244.289485,95.4103821 L244.118608,95.6323284 L244.055654,95.6634844 L243.97407,95.6467822 L243.856513,95.5645561 L243.787777,95.5395028 L243.671504,95.5571686 L243.567757,95.6178746 L243.410693,95.7473165 L243.097848,95.8924971 L242.989284,95.9586634 L242.898706,95.869371 L242.862733,95.8565231 L242.823225,95.8751525 L242.798493,95.91209 L242.776973,95.9731172 L242.774725,96.0408895 L242.801705,96.1015956 L242.809414,96.1799674 L242.662949,96.1790038 L242.404065,96.1234369 L242.35974,96.1356423 L242.295179,96.1899244 L242.239934,96.207269 L242.196572,96.2024511 L242.075482,96.1700103 L242.004818,96.1626228 L241.894648,96.1973119 L241.658891,96.3636914 L241.523988,96.4150827 L241.247439,96.4491295 L241.124742,96.4867094 L240.889305,96.6209693 L240.609222,96.6884204 L240.477853,96.7465568 L240.107836,97.0382027 L239.999593,97.0786734 L239.856339,97.0950543 L239.755484,97.1425913 L239.686748,97.2209631 L239.643065,97.3288849 L239.631502,97.3989056 L239.631502,97.4519029 L239.62829,97.496228 L239.597777,97.5402318 L239.548313,97.5601459 L239.436536,97.5556492 L239.389321,97.5810237 L239.282684,97.5206388 L239.17701,97.4824165 L239.066519,97.4628236 L238.949282,97.4576845 L238.929368,97.4419459 L238.860953,97.3719252 L238.844894,97.3516898 L238.819198,97.3365936 L238.685902,97.3096132 L238.63451,97.291305 L238.554533,97.1210712 L238.386226,97.0173249 L238.364706,96.996126 L238.291152,96.9540494 L238.138584,96.7423813 L238.048649,96.6646519 L237.775311,96.8008389 L237.624349,96.825571 L237.490732,96.7674346 L237.426493,96.7118677 L237.354545,96.6662579 L237.279064,96.6347807 L237.196838,96.6225752 L237.124247,96.5891709 L237.08474,96.5091931 L237.060972,96.4189371 L236.993842,96.2911011 L236.929603,96.1272912 L236.879817,96.0794331 L236.804658,96.0733303 L236.731104,96.1009532 L236.660441,96.1382119 L236.588814,96.1632652 L236.501449,96.159732 L236.443312,96.1411027 L236.39706,96.144957 L236.33796,96.2079114 L236.302307,96.2840348 L236.299416,96.3585522 L236.325755,96.4308213 L236.379715,96.499236 L236.330572,96.5592997 L236.194064,96.6617611 L236.125007,96.8284618 L236.024152,96.8104748 L235.907236,96.7471992 L235.814411,96.7105829 L235.711307,96.7471992 L235.652528,96.8352069 L235.584756,97.0426994 L235.536255,97.135525 L235.482294,97.2119696 L235.415164,97.2758876 L235.330047,97.3295273 L235.332296,97.401154 L235.368912,97.5251356 L235.375015,97.5819873 L235.36024,97.6243851 L235.301782,97.7310221 L235.287971,97.7689232 L235.269663,97.8010428 L235.188079,97.8627124 L235.169771,97.8951532 L235.169771,98.0387278 L235.154996,98.1029669 L235.120949,98.1627094 L235.037438,98.2044648 L234.907354,98.2166703 L234.638834,98.2086404 L234.529949,98.2725583 L234.495581,98.4199872 L234.509392,98.5873303 L234.539263,98.7064939 L234.644294,98.8311179 L234.660354,98.8767277 L234.632731,98.9438577 L234.57588,99.0090604 L234.502968,99.0601306 L234.431341,99.0800447 L234.384126,99.136254 L234.20522,99.460983 L234.207147,99.5290765 L234.244727,99.6562701 L234.246011,99.7095886 L234.211322,99.769331 L234.099867,99.8663322 L234.076099,99.8933126 L234.029525,99.9877442 L233.919998,100.093096 L233.704796,100.244701 L233.551265,100.308619 L233.495377,100.331745 L232.764335,100.368682 L232.177831,100.237313 L232.042287,100.150269 L231.90096,100.098236 L231.83897,100.060013 L231.724624,99.9434192 L231.694753,99.9164387 L231.576553,99.8753257 L231.265956,99.8165468 L230.968529,99.6777902 L230.92324,99.6633364 L230.849365,99.6652636 L230.818852,99.6729723 L230.794762,99.6874261 L230.735983,99.7089462 L230.606541,99.7317511 L230.250335,99.7089462 L230.106439,99.6822869 L230.009438,99.6206173 L229.925606,99.5509178 L229.814472,99.4972781 L229.760511,99.4898906 L229.584175,99.4972781 L229.517045,99.4882846 L229.486531,99.4651585 L229.470471,99.4378569 L229.440279,99.4144096 L229.310837,99.3665514 L229.224114,99.355952 L229.015979,99.3720118 L228.785039,99.35274 L228.681936,99.3623759 L228.095111,99.6633364 L228.032799,99.6350712 L227.912993,99.6344288 L227.846826,99.6222233 L227.800253,99.5923521 L227.754964,99.5509178 L227.698755,99.5133379 L227.61942,99.4972781 L227.35636,99.5088412 L227.237839,99.4995265 L227.100367,99.459377 L226.998548,99.4144096 L226.705939,99.228116 L226.675425,99.185397 L226.63367,99.1423567 L226.571679,99.123085 L226.492022,99.1288665 L226.433886,99.1436415 L226.388918,99.1680524 L226.340418,99.2024203 L226.304123,99.242891 L226.269112,99.292034 L226.227678,99.3398922 L226.175002,99.3720118 L226.096309,99.3774721 L226.048451,99.3459949 L226.003483,99.3080938 L225.94342,99.2891432 L225.820723,99.2830405 L225.774471,99.2650535 L225.725649,99.164198 L225.652095,99.1279029 L225.504024,99.0784387 L225.441391,99.0023153 L225.323191,98.7903261 L225.273726,98.7463222 L225.174156,98.7273717 L224.587973,98.5134552 L224.026202,98.3939704 L223.786268,98.4103514 L223.702757,98.4533916 L223.631773,98.5099221 L223.53959,98.5584227 L223.392803,98.5789792 L222.908119,98.5789792 L222.388103,98.6576722 L222.24774,98.6258738 L222.122795,98.5452536 L221.467877,97.9330543 L221.405565,97.8023276 L221.435757,97.6860547 L221.495821,97.5842356 L221.532437,97.496228 L221.491645,97.3712828 L221.392075,97.2338109 L221.273874,97.1226772 L221.170449,97.0767462 L221.120985,97.0330635 L220.987368,96.7446297 L220.866277,96.5557665 L220.773451,96.4558746 L220.674844,96.4118708 L220.547972,96.3954898 L220.261144,96.3013794 L220.151616,96.2454913 L220.032452,96.1472054 L219.754618,95.8073802 L219.638024,95.7318991 L219.23396,95.5761191 L219.039636,95.4450712 L218.89574,95.3230168 L218.731288,95.2224825 L218.191037,95.1091004 L218.040396,95.0544971 L217.978405,94.9729133 L217.94757,94.8791241 L217.792111,94.6186343 L217.720806,94.5351234 L217.637295,94.4773081 L217.360424,94.3488298 L217.174131,94.3109287 L217.051755,94.2537558 L216.995867,94.240908 L216.299835,94.2267754 L216.075641,94.1239927 L215.953265,94.1471188 L215.761511,94.240908 L215.633675,94.2537558 L215.237962,94.240908 L215.099848,94.2739912 L215.00927,94.3558961 L214.882398,94.5351234 L214.336044,94.8714154 L214.049537,95.001821 L214.006818,95.0544971 L213.914314,95.2128466 L213.798041,95.3702326 L213.696864,95.3936799 L213.41646,95.3904679 L213.312714,95.4302962 L213.112288,95.6191594 L213.02428,95.7296508 L212.95715,95.8725829 L212.903832,96.0627309 L212.873639,96.1211885 L212.821606,96.1751494 L212.768929,96.2149777 L212.724926,96.2650843 L212.675783,96.4976301 L212.59195,96.5849953 L212.486919,96.6537312 L212.374501,96.7446297 L212.166045,97.0979451 L212.140028,97.1197864 L212.021828,97.1621843 L211.995811,97.1849892 L211.982963,97.1943039 L211.911979,97.3719252 L211.70545,97.540553 L211.557057,97.7480455 L211.245176,98.517952 L211.100959,98.7170934 L210.90503,98.8587408 L210.618523,98.9557419 L210.495184,98.9807952 L210.372808,98.9888251 L210.251718,98.965699 L210.141226,98.8959995 L210.022062,98.887006 L209.90322,99.0003881 L209.811037,99.1600225 L209.783093,99.292034 L209.831272,99.3964226 L209.998936,99.5383912 L210.035231,99.6039152 L210.068636,99.7192245 L210.287691,100.122646 L210.366063,100.360331 L210.451823,100.873602 L210.443471,101.25968 L210.422272,101.406466 L210.37859,101.543617 L210.251718,101.751109 L210.238227,101.887296 L210.244972,102.162561 L210.123882,102.916087 L210.329768,104.330955 L210.37859,104.499261 L210.426769,105.260174 L210.357712,106.13993 L210.301182,106.275474 L210.287691,106.347422 L210.2469,106.447956 L210.149898,106.530183 L209.937267,106.638747 L209.809752,106.723221 L209.730417,106.833391 L209.526778,107.432743 L209.432668,107.582099 L209.409542,107.644732 L209.385773,107.778028 L209.357187,107.841304 L209.247659,107.998048 L209.101194,108.307038 L209.079995,108.387658 L209.059117,108.551789 L208.906228,108.964847 L208.440494,109.750171 L208.421222,109.800278 L208.35891,109.821155 L208.009449,110.146205 L207.928187,110.245134 L207.880329,110.342456 L207.81352,110.699305 L207.774334,110.81879 L207.721015,110.933457 L207.653885,111.043948 L207.568126,111.254331 L207.506457,111.346514 L207.401747,111.377349 L207.377657,111.439661 L207.230228,111.614071 L207.183976,111.684412 L206.947255,112.323592 L206.947255,112.413848 L206.983871,112.597893 L206.999931,112.784187 L206.971665,113.364267 L207.005712,113.644028 L207.003464,113.740066 L206.984513,113.844776 L206.92188,114.045202 L206.911602,114.150554 L206.957212,115.88983 L206.943721,116.016702 L206.581412,116.802026 L206.546081,116.920868 L206.517816,117.142815 L206.305505,117.822465 L206.283985,118.200513 L206.238054,118.32064 L205.9872,118.742691 L205.850692,118.892369 L205.732492,119.121702 L205.692985,119.261423 L205.762684,119.682189 L205.762684,120.162698 L205.943518,120.934853 L205.943518,121.102196 L205.850692,121.569215 L205.854867,121.740733 L205.891805,121.888484 L206.007757,122.179487 L206.098334,122.22863 L206.162894,122.326595 L206.201438,122.443831 L206.213001,122.547899 L206.174136,123.136651 L206.139126,123.233652 L205.616861,123.962445 L205.135389,125.263931 L205.023291,125.481702 L204.775649,126.61199 L204.75959,126.763915 L204.775649,126.918732 L204.924363,127.524507 L204.978966,128.598265 L204.932714,128.659292 L204.847597,128.778777 L204.45606,129.140444 L204.42394,129.183484 L204.397923,129.2307 L204.384433,129.319028 L204.376403,129.344403 L204.354883,129.366887 L204.283577,129.417957 L204.205527,129.507892 L204.076406,129.60136 L202.913035,130.994386 L202.756291,131.14053 L202.630703,131.290529 L202.582203,131.329393 L202.419357,131.408086 L202.402333,131.439242 L202.281885,131.580247 L202.219252,131.618148 L201.900946,131.708083 L201.592598,131.751123 L201.473756,131.782922 L201.06648,131.948659 L200.771622,132.030885 L200.576977,132.063005 L200.540361,132.079064 L200.4758,132.123389 L200.438863,132.138807 L200.422482,132.175744 L200.277623,132.340518 L200.039295,132.549937 L199.849469,132.77092 L199.565531,133.000254 L199.424526,133.08248 L199.383735,133.121987 L199.357397,133.166312 L199.290909,133.335904 L199.149262,133.586758 L199.056436,133.81031 L198.955259,133.953242 L198.725604,134.402595 L198.524857,134.663406 L198.384494,134.944774 L198.179893,135.257297 L198.136852,135.357189 L198.10409,135.457402 L198.097988,135.525496 L198.099594,135.731382 L198.065547,135.910931 L197.986211,136.064463 L197.485467,136.718096 L197.45399,136.790686 L197.435361,136.872912 L197.397138,136.890899 L197.289216,136.971841 L197.195106,137.011348 L197.166841,137.027729 L197.11031,137.076872 L197.019091,137.196357 L196.63205,137.569907 L196.374129,137.764231 L196.032698,138.087675 L195.86118,138.203948 L195.707969,138.33885 L195.560219,138.532853 L195.486023,138.660689 L195.440413,138.796554 L195.449728,138.937559 L195.4584,138.985096 L195.456152,139.02364 L195.376816,139.296335 L195.365896,139.394942 L195.384525,139.48841 L195.440413,139.572242 L195.456152,139.604362 L195.467394,139.660893 L195.471569,139.953823 L195.674244,141.411089 L195.547371,142.305619 L195.403154,142.739555 L195.386131,142.824029 L195.379707,142.911716 L195.448764,143.481838 L195.424674,143.783441 L195.457758,144.125194 L195.43142,144.453135 L195.457758,144.55399 L195.515252,144.668336 L195.515252,144.807414 L195.479278,145.072721 L195.511076,145.200557 L195.582382,145.270578 L195.653687,145.319079 L195.688697,145.384281 L195.675207,145.526892 L195.646621,145.639632 L195.568249,145.822714 L195.265683,146.340803 L195.141059,146.666174 L195.005193,146.929555 L194.624897,147.389186 L194.376291,147.88993 L194.331003,148.026439 L194.244922,148.112519 L194.141818,148.400632 L193.95167,148.731142 L193.907666,148.778037 L193.873941,148.840028 L193.762807,149.196234 L193.585507,149.366468 L193.349107,149.490128 L193.078981,149.570748 L192.805965,149.611861 L192.536803,149.651368 L191.65512,149.930488 L191.547198,149.979309 L191.454694,150.052221 L191.37568,150.166567 L191.189065,150.764312 L191.156945,150.816667 L191.020758,150.957672 L190.997311,150.999749 L190.94335,151.019984 L190.79303,151.098998 L190.555345,151.185079 L189.876337,151.525546 L189.755246,151.602312 L189.589831,151.674581 L189.441438,151.760019 L189.375914,151.880146 L189.341546,151.96173 L188.792622,152.738703 L188.658684,152.862042 L188.333634,153.025852 L188.283527,153.092018 L188.24402,153.170711 L187.772183,153.631627 L187.272403,154.464488 L187.227114,154.563738 L187.164802,154.654315 L187.068122,154.733329 L186.781615,154.856668 L186.375945,155.108807 L186.197039,155.17144 L185.965135,155.194566 L185.896399,155.169192 L185.704967,155.053883 L185.628843,155.028508 L185.600899,155.012448 L185.552078,154.932792 L185.523491,154.904205 L185.471779,154.900351 L185.342337,154.906133 L185.314393,154.881722 L185.264928,154.815555 L185.152831,154.811701 L185.032061,154.843821 L184.96172,154.881722 L184.834526,155.013733 L184.761936,155.052598 L184.64502,155.070264 L184.537741,155.089857 L184.511403,154.904205 L184.610331,154.431726 L184.586884,154.368451 L184.556049,154.313847 L184.530032,154.256675 L184.528748,154.183442 L184.543201,154.127554 L184.588811,154.019632 L184.600053,153.961817 L184.576606,153.80957 L184.509476,153.71289 L184.416008,153.628415 L184.323825,153.513427 L184.273718,153.28056 L184.228751,153.145658 L184.233247,153.098121 L184.282069,153.009792 L184.380355,152.922748 L184.610331,152.826389 L184.682922,152.753157 L184.752942,152.65744 L184.853798,152.544058 L184.939878,152.422325 L184.959471,152.3083 L184.917716,152.26783 L184.70669,152.132928 L184.588169,151.994171 L184.48924,151.842566 L184.448449,151.754238 L184.447164,151.721476 L184.46772,151.688714 L184.494058,151.601027 L184.504979,151.523298 L184.504979,151.458416 L184.48924,151.409916 L184.455515,151.381329 L184.34149,151.390323 L184.077789,151.532934 L183.799312,151.598136 L183.676294,151.684217 L183.447923,151.884643 L183.218268,151.992565 L182.985723,152.067404 L182.448362,152.132928 L182.220634,152.222862 L182.041728,152.463759 L182.030807,152.481746 L182.015711,152.494915 L181.919031,152.563972 L181.817533,152.687312 L181.752973,152.725213 L181.691946,152.727461 L181.508543,152.674785 L181.33574,152.686669 L181.280815,152.671573 L181.213685,152.614079 L181.126962,152.453481 L181.071074,152.379285 L180.93296,152.290313 L180.807694,152.278429 L180.422259,152.412689 L180.350953,152.450911 L180.327185,152.520611 L180.391745,153.108078 L180.370225,153.225957 L180.275151,153.471029 L180.254594,153.604968 L180.334893,153.8661 L180.294423,153.919098 L180.248492,153.913316 L180.19967,153.899184 L180.147636,153.9252 L180.123868,153.991688 L180.14057,154.103464 L180.108771,154.146504 L180.05481,154.151965 L179.914448,154.113421 L179.856311,154.109567 L179.72687,154.191151 L179.594858,154.435259 L179.468949,154.475088 L179.396359,154.441362 L179.274305,154.317381 L179.197218,154.28237 L179.127839,154.292006 L178.929661,154.406994 L178.990689,154.459991 L179.015742,154.512025 L178.999361,154.557635 L178.929661,154.59393 L178.614889,154.823906 L178.447225,155.027866 L178.383307,155.078936 L178.253223,154.813307 L178.208256,154.600996 L178.176136,154.527443 L178.117357,154.471233 L178.02678,154.422412 L177.658368,154.2904 L177.547234,154.21781 L177.260407,153.970168 L177.099487,153.8661 L177.03846,153.806037 L176.963622,153.606574 L176.852809,153.448225 L176.806236,153.357326 L176.672297,153.202189 L176.522298,153.218248 L176.421443,153.352829 L176.43686,153.558395 L176.38579,153.732483 L176.167377,153.810855 L174.967711,154.089331 L174.783023,154.194363 L174.680883,154.307102 L174.611183,154.434938 L174.57264,154.571125 L174.559149,154.713415 L174.501334,154.786326 L174.227354,154.944997 L174.137098,155.019836 L174.082174,155.148957 L174.069647,155.245637 L174.025001,155.315657 L173.876287,155.366085 L173.639887,155.383108 L173.585605,155.4239 L173.566975,155.547561 L173.468368,155.777216 L173.24064,155.922396 L172.728654,156.09809 L172.677263,156.105157 L172.632295,156.09809 L172.592788,156.110617 L172.562917,156.170038 L172.560026,156.22143 L172.571268,156.286632 L172.594073,156.344769 L172.629405,156.37721 L173.005846,156.509542 L173.079079,156.560612 L173.120192,156.764572 L173.100599,157.232554 L173.080685,157.75257 L173.051456,158.480079 L173.02287,159.239065 L172.986253,160.198155 L172.537864,160.193659 L171.982516,160.188198 L171.460573,160.261431 L171.167,160.423635 L171.405006,160.823524 L171.511643,160.957784 L171.922774,161.370199 L172.05061,161.532724 L172.074378,161.548463 L172.148896,161.588612 L172.179731,161.616878 L172.200608,161.662166 L172.231764,161.772979 L172.263241,161.82437 L172.263241,161.745998 L172.27352,161.7142 L172.267738,161.656385 L172.275126,161.600175 L172.325232,161.575122 L172.380478,161.580904 L172.494824,161.609169 L172.55553,161.616878 L172.647713,161.645143 L172.686256,161.716769 L172.674372,161.805098 L172.618163,161.888609 L172.473304,161.972441 L172.443432,162.020942 L172.513453,162.078115 L172.601782,162.091605 L172.690753,162.0688 L173.35595,161.730902 L173.555091,161.700067 L173.973288,161.700067 L174.132923,161.628762 L174.264934,161.450177 L174.367395,161.168488 L174.417181,161.095577 L174.539556,160.969347 L174.585809,160.943651 L174.699512,160.948148 L174.749297,160.925985 L174.901865,160.830269 L175.123169,160.766993 L175.352182,160.736801 L175.524985,160.738407 L175.626483,160.765387 L175.839436,160.847292 L175.922305,160.869134 L176.268233,160.90318 L176.34275,160.926949 L176.42883,160.985406 L176.536431,161.020417 L176.646922,161.034549 L176.739106,161.031016 L176.93375,160.967419 L177.030109,160.953287 L177.113299,160.993115 L177.628818,161.035834 L177.882563,161.099752 L178.074638,161.200608 L178.141768,161.152107 L178.266713,161.019774 L178.305257,160.992152 L178.50761,160.995042 L178.994864,161.004999 L179.173449,161.059603 L179.24893,161.057033 L179.358779,161.010781 L179.417558,160.998254 L179.901279,161.049324 L180.910797,160.967419 L181.742373,160.901574 L181.980058,160.971916 L182.125881,161.055106 L182.216459,161.089153 L182.942682,161.034549 L183.082081,161.05093 L183.44439,161.178445 L183.563554,161.193541 L184.201449,161.206068 L184.752942,161.21731 L185.031098,161.169773 L185.420066,161.267738 L185.608287,161.286046 L186.384938,161.143435 L186.953776,161.13412 L187.512015,161.124484 L188.067683,161.115491 L188.623031,161.105855 L189.181591,161.097183 L189.737581,161.087226 L190.294856,161.078232 L190.850524,161.068596 L191.409084,161.059603 L191.963789,161.05093 L192.522349,161.042258 L193.077696,161.033265 L193.635292,161.022665 L194.190961,161.01335 L194.747272,161.003715 L195.303905,160.993758 L195.860216,160.985406 L196.220277,160.979625 L196.375093,161.010781 L196.48173,161.074378 L196.578089,161.152107 L196.709458,161.220201 L196.811277,161.236582 L196.901854,161.223091 L197.098105,161.165597 L197.218232,161.14761 L197.328081,161.151465 L197.436645,161.17716 L197.667264,161.27095 L197.712553,161.294397 L197.939959,161.405852 L197.919724,161.457886 L197.838783,161.554566 L197.838783,161.593109 L197.896919,161.670517 L197.929039,161.734114 L197.940923,161.790644 L197.963085,162.17351 L197.982999,162.241925 L198.017046,162.237749 L198.075183,162.209163 L198.129144,162.201133 L198.151948,162.26216 L198.023149,162.411837 L198.145846,162.423079 L198.219078,162.478004 L198.323146,162.620936 L198.39413,162.657873 L198.475393,162.682605 L198.540917,162.72404 L198.568218,162.804339 L198.676461,162.925429 L198.730422,163.017934 L198.714684,163.098875 L198.671643,163.175962 L198.655905,163.276496 L198.660402,163.723922 L198.669395,163.775314 L198.687703,163.832487 L198.702157,163.892229 L198.694448,163.952614 L198.657832,163.975419 L198.601623,163.979594 L198.551195,163.999187 L198.527105,164.060214 L198.52293,164.295972 L198.534172,164.318777 L198.568218,164.374986 L198.609331,164.399718 L198.650444,164.390725 L198.687061,164.399718 L198.699587,164.478411 L198.663292,164.557747 L198.606762,164.6419 L198.606762,164.702606 L198.740058,164.707103 L198.699587,164.796074 L198.704084,164.864489 L198.740058,164.921662 L198.805261,164.980119 L198.859222,165.048534 L198.856973,165.107634 L198.781492,165.234506 L198.758045,165.341465 L198.776674,165.439108 L198.867573,165.644352 L198.892626,165.752595 L198.910292,165.977111 L198.937915,166.08696 L198.985452,166.18621 L199.322065,166.655477 L199.34487,166.745733 L199.353863,166.834062 L199.381165,166.916609 L199.451507,166.982454 L199.517994,167.004617 L199.663496,167.019392 L199.733196,167.035773 L199.880946,167.138877 L199.955142,167.288875 L200.000431,167.638015 L199.987583,167.663389 L199.966384,167.720884 L199.966384,167.778378 L200.020024,167.805037 L200.091008,167.819812 L200.127624,167.857071 L200.153641,167.906214 L200.186403,167.953108 L200.236831,168.060709 L200.213705,168.155462 L200.170022,168.25985 L200.163277,168.393468 L199.967026,168.34047 L199.9545,168.493681 L200.07816,168.893891 L200.068203,169.220547 L200.09968,169.272259 L200.158459,169.308876 L200.233619,169.388211 L200.332868,169.526647 L200.348928,169.623005 L200.348928,169.718079 L200.377193,169.790991 L200.540361,169.839491 L200.745284,169.986278 L200.904918,170.063044 L200.970121,170.123429 L200.997744,170.215291 L200.999029,170.429528 L201.035324,170.514003 L201.122368,170.570533 L201.170868,170.484774 L201.207163,170.473853 L201.243459,170.498906 L201.293244,170.525887 L201.422686,170.559612 L201.479216,170.58852 L201.499773,170.632845 L201.467011,170.669783 L201.395705,170.695478 L201.325042,170.729525 L201.292602,170.802758 L201.307698,170.859931 L201.346562,170.900401 L201.398275,170.937018 L201.454484,170.990015 L201.535426,171.127166 L201.639172,171.421702 L201.729107,171.553714 L202.02814,171.701785 L202.148267,171.793005 L202.126747,171.907993 L202.154691,172.006921 L202.148267,172.150817 L202.163685,172.247175 L202.25362,172.203814 L202.266789,172.251672 L202.282848,172.26195 L202.282848,172.265162 L202.254262,172.291822 L202.356081,172.333898 L202.358008,172.38818 L202.318501,172.445996 L202.296981,172.501241 L202.329743,172.578971 L202.440556,172.676614 L202.464324,172.732181 L202.492589,172.764943 L202.631988,172.784857 L202.692052,172.814407 L202.703294,172.872544 L202.69687,172.948025 L202.727062,173.004877 L202.843978,173.006161 L202.843978,173.047596 L202.787768,173.102841 L202.828239,173.116331 L202.911107,173.116974 L202.96828,173.131106 L202.98691,173.200485 L202.982734,173.278857 L203.004254,173.32543 L203.091941,173.29845 L203.161961,173.377464 L203.14012,173.431425 L203.081984,173.488919 L203.049222,173.571787 L203.07299,173.611937 L203.127272,173.652407 L203.258963,173.716647 L203.230697,173.761935 L203.226201,173.779601 L203.240976,173.795982 L203.258963,173.841592 L203.275665,173.814611 L203.313566,173.783455 L203.341831,173.754226 L203.395792,173.948229 L203.427912,174.007971 L203.490866,174.064823 L203.624162,174.133559 L203.676196,174.177884 L203.697716,174.281951 L203.62352,174.456682 L203.675232,174.550471 L203.722448,174.604753 L204.062916,174.688906 L204.236362,174.685694 L204.753808,174.504861 L204.935926,174.518994 L205.142455,174.596723 L205.218257,174.588051 L205.598232,174.379274 L205.697481,174.358396 L205.901762,174.380558 L206.080347,174.465996 L206.393192,174.730983 L206.557323,174.767278 L207.102392,174.755715 L207.063527,174.602183 L207.069951,174.431628 L207.127767,174.289981 L207.237937,174.223815 L207.33269,174.199404 L207.582901,174.081525 L207.679581,174.067392 L208.137606,174.084095 L208.434713,174.095979 L208.663404,174.183665 L208.742418,174.188483 L208.835565,174.16086 L208.969182,174.088591 L209.070038,174.074459 L209.445195,174.068356 L209.482132,174.074459 L209.602259,174.070283 L209.570782,173.841592 L209.583309,173.722428 L209.657505,173.671358 L211.011988,173.671358 L211.065628,173.705726 L211.09582,173.877887 L211.132437,173.953689 L211.227511,174.098227 L214.777367,174.098227 L214.645998,173.622857 L214.626726,173.46515 L214.644071,173.273717 L214.734648,172.992671 L214.792142,172.809589 L214.912591,172.432827 L214.933147,172.27255 L214.93122,172.125442 L214.884325,171.966772 L214.814626,171.802962 L214.765804,171.640115 L214.776725,171.479517 L215.199097,171.513564 L215.315049,171.48562 L215.403378,171.393116 L215.466011,171.154146 L215.549843,171.047188 L215.553697,171.043012 L215.560764,171.0398 L215.565261,171.038515 L215.738706,170.900401 L215.742882,170.709932 L215.580678,170.303941 L215.532499,170.093557 L215.514512,169.900519 L215.580678,168.909308 L215.641063,168.712415 L215.71012,168.599354 L215.880354,168.387365 L215.919218,168.287794 L215.904122,168.223876 L215.792025,167.980731 L220.508465,167.980731 L220.508465,167.892723 L220.534803,167.691012 L220.562104,167.603326 L220.611569,167.511143 L220.660712,167.471957 L220.732017,167.460394 L221.053534,167.460394 L221.564235,167.459109 L222.091639,167.457824 L222.442706,167.456539 L222.039605,168.510704 L221.913054,168.843784 L221.873226,169.129327 L221.882219,169.419046 L221.888964,169.720007 L222.173544,169.718079 L222.617437,169.718079 L223.061329,169.716795 L223.504901,169.714867 L223.948794,169.714867 L224.392686,169.713583 L224.8369,169.711977 L225.280793,169.710371 L225.724364,169.710371 L226.168257,169.708765 L226.612471,169.708765 L227.056685,169.70748 L227.500256,169.705553 L227.943506,169.705232 L228.38772,169.703947 L228.831934,169.703304 L229.275827,169.701698 L229.481713,169.700735 L229.606016,169.704589 L229.604089,169.726109 L229.626894,169.75598 L229.666401,169.770434 L229.714259,169.799663 L229.752481,169.845594 L229.891238,170.138204 L229.925606,170.177068 L229.958368,170.234241 L229.942951,170.283705 L229.912437,170.327388 L229.899268,170.361113 L229.936205,170.429528 L229.976997,170.472247 L230.013614,170.518499 L230.029352,170.594302 L230.022607,170.631239 L229.990166,170.687127 L229.983742,170.71732 L229.996911,170.752972 L230.057296,170.809182 L230.070465,170.84355 L230.059223,170.922564 L230.003335,171.045903 L229.984706,171.115602 L229.980209,171.191726 L229.992736,171.229948 L230.014898,171.263995 L230.030316,171.325022 L230.030316,171.553714 L230.011686,171.601251 L229.920788,171.690864 L229.901516,171.726517 L229.890596,171.84022 L229.818648,172.040968 L229.747342,172.247175 L229.670255,172.473297 L229.553019,172.804129 L229.518651,172.904342 L229.483962,173.17222 L229.52122,173.331533 L229.52925,173.402517 L229.510621,173.473822 L229.422292,173.594913 L229.400772,173.654013 L229.417474,174.070926 L229.446061,174.179169 L229.505803,174.228954 L229.69852,174.338161 L229.738991,174.40786 L229.751839,174.556252 L229.793594,174.679913 L229.857834,174.788156 L230.01265,174.965456 L230.05023,175.047682 L230.066932,175.151107 L230.082028,175.413203 L230.14691,175.704528 L230.196374,175.81534 L230.374638,175.990071 L230.435023,176.102811 L230.342197,176.152917 L230.310399,176.224223 L230.381704,176.380324 L230.529775,176.617687 L230.578918,176.880747 L230.553865,177.150873 L230.409327,177.622388 L230.439841,177.63363 L230.45847,177.64712 L230.484166,177.657398 L230.529775,177.661895 L230.417678,177.857503 L230.353439,178.043476 L230.279885,178.493471 L230.216931,178.883403 L230.17389,178.926122 L230.125711,179.128797 L230.06629,179.275904 L230.014898,179.765086 L230.030316,180.083712 L229.942308,180.787452 L230.017789,181.404148 L230.015541,181.655644 L229.950659,181.913886 L229.763723,182.297394 L229.72518,182.510989 L229.659656,182.638504 L229.650983,182.715591 L229.676679,182.783684 L229.779783,182.908951 L229.82186,182.971905 L229.897341,183.222438 L229.968004,183.762368 L230.030958,184.018361 L230.181599,184.259258 L230.568961,184.664286 L230.655684,184.903256 L230.694549,184.882699 L230.78898,184.844156 L230.825918,184.822957 L230.839729,185.021777 L230.912962,185.195223 L231.26435,185.603784 L231.324735,185.638473 L231.367454,185.625304 L231.411137,185.579694 L231.478267,185.61342 L231.579122,185.700785 L231.818092,185.850783 L231.898391,185.948106 L231.94657,186.084935 L231.995071,186.301421 L232.120337,186.637713 L232.174298,186.897561 L232.201921,186.974327 L232.160808,187.17411 L232.272584,187.456442 L232.421298,187.73267 L232.531468,188.022067 L232.673758,188.274527 L232.725149,188.460821 L232.815726,188.570349 L232.834998,188.641333 L232.82761,188.711354 L232.795812,188.833087 L232.788746,188.896363 L232.759196,188.989831 L232.62333,189.211777 L232.579647,189.339613 L232.595065,189.470982 L232.65545,189.553208 L232.730609,189.634792 L232.788746,189.764234 L232.810908,190.025687 L232.799988,190.27622 L232.814441,190.493348 L232.914012,190.653946 L232.881571,190.690884 L232.87033,190.709192 L232.889601,190.946235 L232.87033,191.064113 L232.812193,191.116147 L232.69592,191.133171 L232.543995,191.17878 L232.289286,191.284775 L232.179116,191.363468 L232.035863,191.490661 L231.930832,191.625885 L231.93308,191.727383 L231.988968,191.822136 L232.11841,192.254144 L232.11841,192.489259 L232.137682,192.520737 L232.225047,192.585618 L232.246888,192.615489 L232.266481,192.722448 L232.369585,192.903602 L232.408129,193.02116 L232.479434,193.565908 L232.457914,193.825755 L232.372476,194.079821 L232.527935,194.070828 L232.64228,193.999844 L232.909194,193.713337 L232.997844,193.650061 L233.609401,193.444175 L233.78638,193.292891 L233.977492,192.798571 L234.201686,192.765488 L234.667099,192.953387 L234.893542,193.044928 L235.12673,193.110131 L235.363773,193.133899 L235.585398,193.093429 L235.715482,193.020196 L235.846852,192.925122 L235.982396,192.857671 L236.129183,192.86281 L236.254449,192.927692 L236.482819,193.080581 L236.605837,193.132294 L236.840631,193.168267 L237.113648,193.168267 L237.726168,193.062273 L238.22627,192.978762 L238.895321,192.606496 L239.303561,192.380695 L239.561482,192.308105 L239.807839,192.29333 L240.04456,192.313565 L240.426462,192.418918 L240.941339,192.56185 L241.144014,192.576946 L241.385553,192.557353 L241.618099,192.584333 L241.870559,192.664632 L242.114025,192.710885 L242.31959,192.634761 L242.361025,192.575982 L242.408883,192.438832 L242.446142,192.375877 L242.501708,192.326413 L242.633078,192.25029 L242.689929,192.195686 L242.740357,192.071062 L242.765731,191.925239 L242.815517,191.801579 L242.92922,191.74537 L243.137997,191.751794 L243.422577,191.807039 L243.687242,191.902756 L243.826641,192.035088 L243.826641,192.088086 L243.792595,192.198898 L243.787134,192.256071 L243.802552,192.323201 L243.845913,192.447504 L243.859082,192.518167 L243.84784,192.724696 L243.886705,192.800819 L244.009723,192.783475 L244.13242,192.743325 L244.235202,192.746216 L244.462288,192.813025 L244.582736,192.830048 L244.808858,192.829406 L244.923204,192.844181 L245.061639,192.905208 L245.237976,193.017627 L245.390865,193.153171 L245.460243,193.279722 L245.438402,193.350707 L245.387332,193.404346 L245.34108,193.46441 L245.336904,193.552096 L245.371272,193.623081 L245.47534,193.715906 L245.518701,193.769546 L245.551463,193.87811 L245.557245,194.007231 L245.546645,194.139564 L245.522877,194.259049 L245.47534,194.35894 L245.280695,194.666004 L245.202644,194.746624 L244.9489,194.824674 L244.870528,194.890198 L244.922562,195.00069 L245.021811,195.047584 L245.276198,195.049512 L245.387974,195.068783 L245.52384,195.150367 L245.73069,195.340836 L245.853066,195.400257 L245.995677,195.41182 L246.125119,195.387731 L246.379506,195.292657 L246.439248,195.287196 L246.510875,195.293299 L246.575435,195.2827 L246.6143,195.232593 L246.635499,195.162251 L246.658946,195.103151 L246.695563,195.052081 L246.749524,195.004544 L246.803484,194.980133 L246.941278,194.94962 L247.00648,194.918785 L247.064617,194.858079 L247.176072,194.70808 L247.242559,194.645768 L247.478317,194.548767 L247.937306,194.547482 L248.174348,194.49577 L248.628841,194.271575 L248.883549,194.192561 L249.118664,194.213439 L249.99039,194.134103 L250.355268,194.056695 L250.93599,193.768261 L251.127423,193.735178 L251.200013,193.801344 L251.213825,193.939459 L251.207401,194.097808 L251.22057,194.224681 L251.216073,194.284744 L251.168215,194.328106 L251.041021,194.376285 L250.969716,194.430246 L251.003763,194.483886 L251.070893,194.537204 L251.103012,194.590844 L251.051942,194.703584 L250.979994,194.760756 L250.929566,194.829171 L250.936633,194.980776 L250.983527,195.106363 L251.121963,195.346939 L251.167573,195.454861 L251.158579,195.514924 L251.076995,195.612889 L251.0513,195.671668 L251.0513,195.730126 L251.068644,195.839653 L251.231812,196.345537 L251.289948,196.450247 L251.339734,196.502923 L251.382774,196.527012 L251.434486,196.534079 L251.512216,196.533436 L251.591872,196.549496 L251.632664,196.591573 L251.660608,196.642964 L251.713927,196.693713 L252.063388,196.861377 L252.17131,196.954845 L252.180624,196.987929 L252.184479,197.020691 L252.180624,197.054737 L252.128269,197.208911 L252.168098,197.293707 L252.25996,197.335141 L252.379123,197.330645 L252.436296,197.301094 L252.473876,197.25966 L252.517238,197.223044 L252.594325,197.212123 L252.659206,197.192209 L252.682653,197.133751 L252.699998,197.071118 L252.749141,197.030969 L253.026654,197.040605 L253.236395,197.173901 L253.430076,197.349274 L253.663264,197.483855 L253.774398,197.504411 L254.125144,197.505696 L254.194522,197.49863 L254.315613,197.442099 L254.361544,197.430215 L254.42771,197.442099 L254.457261,197.462977 L254.481029,197.492848 L254.813146,197.762653 L254.945157,197.811796 L255.031237,197.875714 L255.114748,198.068753 L255.222028,198.117896 L255.302006,198.128174 L256.353922,198.114041 L256.492357,198.167039 L256.614733,198.24541 L256.739999,198.305153 L256.959376,198.290057 L257.084643,198.351084 L257.157875,198.354296 L257.225005,198.32603 L257.345454,198.243162 L257.407766,198.21586 L257.63453,198.178923 L257.869645,198.171535 L258.014505,198.216503 L258.117608,198.296159 L258.212361,198.389627 L258.323174,198.47635 L258.541587,198.545728 L259.036871,198.579775 L259.265241,198.627312 L259.383763,198.695727 L259.486866,198.776347 L259.593503,198.824848 L259.717806,198.798188 L259.808705,198.706326 L259.879689,198.599689 L259.971872,198.522281 L260.128937,198.520354 L260.413195,198.55151 L260.674006,198.495622 L260.910085,198.359756 L261.123038,198.153548 L261.241559,197.912973 L261.267255,197.406447 L261.325713,197.161695 L261.420787,197.024866 L261.5104,196.939428 L261.573676,196.844675 L261.583954,196.678938 L261.508794,196.417485 L261.504298,196.298642 L261.585239,196.211277 L261.639521,196.203889 L261.772175,196.22284 L261.832881,196.220913 L262.0635,196.144147 L262.32688,196.122948 L262.500647,196.056782 L262.540475,196.051321 L262.6439,196.200678 L262.709103,196.483009 L262.733835,196.785896 L262.722915,196.99371 L262.870344,197.533961 L264.009946,198.234168 L264.293884,198.726883 L264.319258,198.974846 L264.617007,199.830512 L264.712081,199.957384 L265.073747,200.250315 L265.337449,200.537464 L265.508325,200.593352 L265.779414,200.616478 L266.058534,200.60363 L266.252857,200.555772 L266.36913,200.461019 L266.435296,200.376866 L266.515595,200.328687 L266.668806,200.343783 L266.79343,200.390999 L267.14,200.597849 L267.228329,200.709304 L267.251776,200.865084 L267.289998,200.997416 L267.429076,201.039172 L267.539246,201.0199 L267.629502,201.014119 L268.079498,201.058765 L268.136028,201.091848 L268.15787,201.144524 L268.170075,201.203945 L268.198662,201.260476 L268.344484,201.378676 L268.434419,201.340775 L268.524997,201.251161 L268.677886,201.211654 L268.794801,201.263367 L268.887627,201.353944 L268.9933,201.426534 L269.15454,201.426534 L269.274989,201.408547 L269.397364,201.416256 L269.511068,201.451909 L269.617705,201.510045 L270.123909,201.950083 L270.207742,202.083701 L270.326263,202.3898 L270.401423,202.530484 L270.606988,202.747291 L270.67187,202.864528 L270.667694,203.026411 L270.59671,203.128872 L270.495533,203.19825 L270.436754,203.287864 L270.479473,203.446214 L270.605703,203.610023 L270.740606,203.745889 L270.835358,203.893639 L270.856557,204.214514 L270.92176,204.272651 L271.014264,204.276826 L271.109338,204.233786 L271.167475,204.15959 L271.254519,203.97972 L271.334818,203.927365 L271.618434,203.988392 L271.864149,204.240852 L272.277849,204.78014 L272.385771,204.873929 L272.430096,204.940738 L272.482772,205.164611 L272.50911,205.193198 L272.590694,205.222748 L272.613499,205.248765 L272.609323,205.280563 L272.582343,205.348978 L272.579452,205.377243 L272.583627,205.404545 L272.575597,205.469105 L272.583627,205.504437 L272.607075,205.531417 L272.641764,205.541695 L272.674205,205.549404 L272.695725,205.563537 L272.751934,205.780023 L272.811998,205.815033 L272.930198,205.820493 L272.985765,205.843298 L273.054822,205.936766 L273.241758,206.855065 L273.341328,207.112664 L273.528586,207.294461 L273.608884,207.392747 L273.70717,207.41491 L273.819589,207.39082 L273.93008,207.349707 L274.091321,207.348101 L274.24421,207.324332 L274.390354,207.322726 L274.526541,207.385038 L274.57986,207.463731 L274.624185,207.557842 L274.674612,207.631396 L274.769365,207.650667 L274.833604,207.614051 L274.95052,207.472404 L275.032103,207.425188 L275.172787,207.367051 L275.526103,207.130972 L276.387871,206.797571 L276.512816,206.719842 L276.868701,206.384834 L277.009064,206.323165 L277.152317,206.330552 L277.263451,206.394149 L277.366876,206.481514 L277.485076,206.556353 L277.558309,206.563419 L277.610021,206.546717 L277.658843,206.547681 L277.713446,206.616417 L277.729506,206.67905 L277.720191,206.746822 L277.697387,206.807207 L277.666873,206.855708 L277.620621,206.887506 L277.513662,206.914165 L277.46998,206.960417 L277.458738,207.013736 L277.472549,207.13836 L277.460344,207.196496 L277.422122,207.215768 L277.363985,207.227974 L277.316127,207.260093 L277.316127,207.348101 L277.339896,207.419406 L277.372336,207.488142 L277.413771,207.55206 L277.464198,207.605057 L277.558951,207.659018 L277.690963,207.712016 L277.934108,207.778824 L278.327252,207.783 L278.419114,207.766619 L278.511939,207.57069 L278.513866,206.881403 L278.513866,205.951862 L278.515472,205.069537 L278.519006,204.137427 L278.519006,203.0505 L278.52286,201.087351 L278.52286,200.364018 L278.524787,199.704282 L278.52286,199.671199 L278.260122,199.69304 L278.13068,199.737365 L277.92383,199.887042 L277.605525,200.035114 L277.501778,200.054707 L277.434648,200.018411 L277.324478,199.91049 L277.245785,199.881582 L277.164844,199.881582 L277.109277,199.903102 L277.0187,199.986934 L276.899857,200.058882 L276.632943,200.150423 L276.537869,200.219159 L276.499005,200.298494 L276.425772,200.540355 L276.402325,200.685856 L276.378556,200.741102 L276.369563,200.792815 L276.39301,200.840673 L276.576092,201.074825 L276.670202,201.110156 L276.765597,201.116259 L276.839472,201.149021 L276.866453,201.260476 L276.845896,201.376749 L276.785511,201.46829 L276.692686,201.525141 L276.576734,201.536704 L276.531446,201.521929 L276.505429,201.496555 L276.483909,201.470217 L276.451468,201.451909 L276.410355,201.449018 L276.324274,201.456405 L276.284125,201.451909 L276.122242,201.392487 L275.867534,201.253088 L275.819676,201.243452 L275.574282,201.236386 L275.503619,201.225144 L275.44741,201.202339 L275.370644,201.137137 L275.261437,201.015403 L275.198483,200.985532 L274.70095,200.994847 L274.552879,201.032427 L274.424722,201.088957 L274.321618,201.155445 L274.254488,201.034033 L274.158451,201.048487 L274.051814,201.10052 L273.96477,201.094418 L273.903742,201.06294 L273.855242,201.063583 L273.828261,201.046559 L273.816698,200.965618 L273.802244,200.903306 L273.304712,199.990789 L273.147005,199.793896 L272.784375,199.591221 L272.728808,199.518631 L272.702791,199.402679 L272.636303,199.284479 L272.552471,199.182981 L272.476348,199.112639 L272.261147,198.997972 L272.177315,198.931806 L272.142304,198.838338 L272.123354,198.664571 L272.068429,198.615107 L271.85387,198.647548 L271.726998,198.614464 L271.427001,198.450654 L271.348629,198.389627 L271.23878,198.15676 L271.156554,198.095733 L271.014264,198.177959 L270.995314,198.120786 L270.92176,198.000338 L270.893174,197.966612 L270.839855,197.919397 L270.784288,197.884707 L270.721655,197.879889 L270.640071,197.924857 L270.575832,197.82914 L270.523156,197.528501 L270.449923,197.462977 L270.351637,197.433106 L270.301852,197.354734 L270.240825,196.926901 L270.224765,196.862983 L270.136436,196.780115 L270.095644,196.723584 L270.116843,196.697246 L270.120376,196.634934 L270.014703,196.26588 L269.978729,196.210313 L269.890079,196.118451 L269.842542,196.055176 L269.771236,195.872415 L269.739438,195.823272 L269.711173,195.728198 L269.701216,195.397045 L269.719203,195.287196 L270.033653,194.825959 L270.051962,194.801548 L270.18847,194.69459 L270.22348,194.676924 L270.175301,194.445985 L270.201639,194.31044 L270.259133,194.220505 L270.315021,194.153696 L270.428403,193.917939 L270.4223,193.710125 L270.428403,193.643959 L270.445105,193.608306 L270.498424,193.530255 L270.512878,193.47244 L270.511593,193.394389 L270.445105,193.065485 L270.448638,193.004779 L270.535683,192.885936 L270.613733,192.735938 L270.637823,192.669771 L270.64232,192.606496 L270.631078,192.474163 L270.637823,192.413136 L270.674118,192.355642 L270.782682,192.245472 L270.80356,192.18059 L270.820262,192.116672 L270.877756,191.990121 L270.892531,191.923312 L270.892531,191.650296 L270.923045,191.504794 L270.978612,191.362826 L271.056662,191.231456 L271.159766,191.120644 L271.208267,191.060901 L271.251307,190.92632 L271.344775,190.77568 L271.370149,190.742918 L271.406123,190.726215 L271.484174,190.731676 L271.519827,190.72204 L271.604622,190.655231 L271.700018,190.558551 L271.777426,190.444527 L271.810188,190.319581 L271.777426,190.279432 L271.634494,190.170225 L271.602374,190.107592 L271.612331,190.036608 L271.646057,189.905881 L271.644129,189.832649 L271.495095,189.66916 L271.414796,189.556099 L271.413511,189.471624 L271.439528,189.413809 L271.388779,189.320341 L271.413511,189.262205 L271.451091,189.206317 L271.473896,189.13469 L271.482889,189.056961 L271.476144,188.983728 L271.433104,188.863279 L271.376252,188.765315 L271.329358,188.656108 L271.309765,188.501934 L271.329358,188.372492 L271.363725,188.274527 L271.380428,188.179453 L271.348629,188.059326 L271.337387,188.056114 L271.283427,188.023352 L271.26833,188.012432 L271.251307,187.979991 L271.23878,187.914467 L271.224326,187.88588 L271.018761,187.708902 L271.074649,187.595519 L271.224326,187.420789 L271.321649,187.230641 L271.374967,186.990065 L271.39167,186.498636 L271.347987,186.055706 L271.370792,185.922089 L271.559013,185.524127 L271.618434,185.258498 L271.677213,185.148328 L271.788025,185.104003 L271.802479,185.075417 L271.642523,184.912249 L271.627106,184.822957 L271.588563,184.787625 L271.536208,184.768353 L271.473896,184.726919 L271.390706,184.606471 L271.352805,184.483132 L271.347023,184.196625 L271.333854,184.131101 L271.279893,184.003265 L271.266724,183.944165 L271.23878,183.860975 L271.125077,183.730891 L271.098739,183.672754 L271.131501,183.63935 L271.267688,183.595025 L271.30848,183.546524 L271.117047,183.551664 L271.043493,183.522114 L271.013622,183.440209 L271.009125,183.336462 L270.997241,183.256485 L270.973473,183.188712 L270.928826,183.125115 L270.78204,183.017515 L270.70945,182.947173 L270.678936,182.851778 L270.689535,182.763449 L270.701098,182.651994 L270.687929,182.533794 L270.562663,182.380262 L270.350353,182.268165 L270.049713,182.205532 L269.786975,182.105319 L269.689331,181.879839 L269.80978,181.65436 L270.071555,181.481556 L270.62626,181.218497 L271.192849,180.801585 L272.207186,179.805235 L272.987692,178.77259 L273.216062,178.245508 L273.246576,177.699154 L272.985765,177.154085 L272.964244,177.038133 L273.1242,176.975821 L273.853957,176.864366 L274.91037,176.704089 L275.874279,176.556981 L277.258312,176.347562 L278.88003,176.099599 L280.500463,175.853241 L281.728394,175.664378 L283.29583,175.426051 L284.336184,175.267701 L284.190361,174.71685 L283.743256,173.63442 L282.440486,171.608317 L282.275712,171.03177 L282.216291,170.62867 L282.00109,169.859727 L281.543707,168.877189 L281.176901,168.313169 L280.301,167.292087 L279.822097,166.896374 L278.971892,166.463081 L278.149951,165.841888 L277.95884,165.639856 L277.817835,165.408273 L277.512699,164.586976 L277.097071,164.05379 L276.923305,163.766641 L276.847823,163.526387 L276.746968,162.798236 L276.563565,162.116016 L276.547505,161.874477 L276.667954,161.487757 L277.126943,160.873951 L277.322551,160.531236 L277.380687,160.05972 L277.263451,159.548055 L276.670845,158.155029 L276.423524,157.170563 L275.94719,156.303334 L275.742267,155.807087 L275.617643,155.283859 L275.60062,154.774763 L275.721711,154.260529 L276.091728,153.257113 L276.149865,152.743521 L276.128345,152.501982 L276.109715,152.423931 L275.917319,150.955102 L275.714323,150.257144 L275.337239,149.623103 L275.105015,149.373534 L275.01251,149.244092 L274.95341,149.082209 L274.90234,148.364979 L275.003838,147.66702 L275.01765,147.191972 L274.902983,145.647983 L274.916794,145.470683 L274.944417,145.390384 L275.112402,145.234604 L275.00962,145.151093 L274.965295,145.032572 L274.949235,144.628186 L274.970755,144.505168 L275.016365,144.402707 L275.093452,144.359024 L275.121396,144.289967 L275.075786,143.900035 L275.018292,143.810101 L274.933175,143.74554 L274.830071,143.706354 L274.71701,143.6919 L274.600416,143.645006 L274.549346,143.536763 L274.525256,143.412139 L274.48864,143.314817 L274.395814,143.253468 L274.286608,143.216209 L274.190891,143.167066 L274.152348,143.070708 L274.140464,142.972743 L274.118301,142.911716 L274.027724,142.779383 L273.970872,142.617179 L273.942607,142.569321 L273.850424,142.528529 L273.72323,142.516966 L273.61306,142.484846 L273.564881,142.383349 L273.575159,142.253907 L273.615951,142.149839 L273.694001,142.08303 L273.819589,142.067292 L273.737684,141.920184 L273.64518,141.81708 L273.520556,141.755411 L273.339401,141.737103 L273.25846,141.704341 L273.029447,141.55659 L272.981268,141.508411 L273.022381,141.044604 L272.981268,140.904242 L272.919277,140.840645 L272.849899,140.807883 L272.796901,140.770945 L272.774739,140.692895 L272.796901,140.613559 L272.901932,140.519449 L272.881376,140.44461 L272.818743,140.335083 L272.797544,140.214634 L272.782769,140.085513 L272.829342,139.926843 L272.915101,139.852325 L273.079233,139.796116 L273.206426,139.758857 L273.312421,139.696224 L273.400107,139.608859 L273.469485,139.49901 L273.517665,139.408433 L273.538543,139.343551 L273.54593,139.290554 L273.607921,139.232738 L273.659633,139.21443 L273.835328,139.219569 L274.106417,139.148585 L274.315515,138.98349 L274.468405,138.746769 L274.563157,138.459299 L274.599774,138.205875 L274.585962,137.987783 L274.424722,137.035116 L274.411553,136.81317 L274.442067,136.596363 L274.55577,136.328164 L274.939599,135.717892 L275.068077,135.476032 L275.142274,135.368431 L275.437774,135.125928 L275.500086,135.045629 L275.665502,134.703556 L275.737771,134.612978 L275.832845,134.572829 L276.2989,134.553557 L276.31496,134.550666 L276.328129,134.541352 L276.341298,134.52754 L276.479733,134.311376 L276.690759,134.093926 L276.933583,133.919195 L277.172874,133.835363 L277.231331,133.479799 L277.229083,133.363848 L277.204993,133.295433 L277.133688,133.1737 L277.130155,133.110103 L277.187649,132.956893 L277.194715,132.904859 L277.156172,132.774132 L277.094181,132.681949 L277.045038,132.584305 L277.043753,132.438483 L277.118913,132.063647 L277.125979,131.95444 L277.100605,131.837204 L277.009706,131.604016 L276.992683,131.497057 L277.011633,131.424788 L277.042147,131.372433 L277.064952,131.312691 L277.058849,131.22372 L277.035081,131.109695 L277.030584,131.04931 L277.04022,130.993744 L277.10735,130.887428 L277.287219,130.826401 L277.356277,130.74578 L277.373621,130.658094 L277.389681,130.293215 L277.374906,130.165701 L277.322551,129.929622 L277.326727,129.802749 L277.401244,129.324489 L277.423406,129.293333 L277.458096,129.267958 L277.485718,129.236481 L277.494712,129.189265 L277.479295,129.15297 L277.434006,129.08841 L277.422764,129.051793 L277.446533,128.985627 L277.504348,128.969246 L277.569551,128.965071 L277.618051,128.932309 L277.632505,128.847513 L277.610021,128.47621 L277.582077,128.382742 L277.502742,128.215078 L277.487324,128.100733 L277.636681,127.230613 L277.77351,126.419593 L277.881432,125.801934 L277.972009,125.578703 L278.004771,125.464357 L278.000274,125.348726 L277.926399,125.084382 L277.935393,124.97903 L277.989354,124.815541 L278.257873,124.442954 L278.290635,124.374539 L278.36451,124.402483 L278.407229,124.441348 L278.45027,124.457087 L278.510976,124.418864 L278.532817,124.372933 L278.726177,123.374978 L278.769217,123.245215 L278.841807,123.131511 L279.279276,122.628198 L279.386556,122.396937 L279.371138,122.160215 L279.256792,121.67007 L279.261932,121.545446 L279.337091,121.033781 L279.302723,120.719652 L279.311396,120.657982 L279.427347,120.418049 L279.507004,120.372118 L279.726702,120.20349 L279.984301,120.088502 L280.635044,119.941394 L280.69318,119.908632 L280.76031,119.830582 L280.871123,119.626622 L280.890395,119.60446 L280.917375,119.507137 L281.056774,119.362921 L281.097566,119.250823 L281.065446,119.004466 L281.063519,118.886908 L281.140285,118.81496 L281.161805,118.761642 L281.178507,118.698366 L281.19007,118.568603 L281.206772,118.529096 L281.392102,118.339912 L281.446063,118.312931 L281.497455,118.296871 L281.5527,118.30715 L281.619188,118.360147 L281.725825,118.408648 L281.798736,118.329633 L281.875181,118.207579 L281.976679,118.127922 L282.048306,118.122141 L282.186741,118.137558 L282.268004,118.127922 L282.384598,118.099015 L282.469393,118.063362 L282.547765,118.009722 L282.668856,117.90694 L283.909957,116.319269 L284.736715,115.656963 L285.575357,114.982451 L286.010578,114.633954 L286.580058,113.923469 L286.971596,113.433003 L287.336153,112.977868 L287.510562,112.663739 L287.564523,112.357639 L287.486473,112.237833 Z M175.687832,160.961638 L175.483551,160.990867 L175.087195,160.945257 L174.901865,160.993758 L174.672853,161.116776 L174.476602,161.27384 L174.395661,161.427372 L174.429707,161.501568 L174.515788,161.546857 L174.619855,161.554566 L174.707542,161.511525 L174.91921,161.263241 L175.020065,161.199323 L175.216959,161.151465 L175.612993,161.119988 L175.778088,161.028126 L175.814704,161.028126 L175.778088,160.965492 L175.687832,160.961638 Z" id="Fill-3"></path>
        </g>
    </g>
</svg>