
<svg width="123px" height="116px" viewBox="0 0 123 116" version="1.1" xmlns="http://www.w3.org/2000/svg" xmlns:xlink="http://www.w3.org/1999/xlink">
    <!-- Generator: Sketch 51.2 (57519) - http://www.bohemiancoding.com/sketch -->
    <desc>Created with Sketch.</desc>
    <defs></defs>
    <g id="Page-1" stroke="none" stroke-width="1" fill="none" fill-rule="evenodd">
        <g id="CR-EPS-01-0001" transform="translate(-161.000000, -116.000000)" fill="#7F807C">
            <path d="M191.402195,156.470282 L190.332053,156.150609 L189.177217,155.954156 L188.872826,155.974534 L188.18763,156.201234 L188.691338,157.118226 L189.021201,157.451272 L189.649404,157.707903 L190.265189,157.780498 L190.880019,157.72828 L191.435946,157.595826 L191.874382,157.436308 L191.874382,157.212154 L191.492621,157.223298 L191.198738,157.144653 L190.997191,156.975901 L190.64313,156.893754 L190.487751,156.901077 L190.143242,156.717679 L191.402195,156.717679 L191.402195,156.470282 Z M283.246243,175.801933 L283.243059,175.791744 L282.631094,175.424311 L281.722699,174.072703 L281.019991,173.700494 L280.222717,173.638087 L279.371316,173.666425 L278.509407,173.575999 L276.080971,172.744339 L275.519314,172.31832 L275.187223,171.648725 L274.985039,170.190771 L274.778716,169.620517 L273.852809,169.901983 L272.279276,168.43193 L270.191846,165.643384 L269.653114,165.262896 L267.966231,162.789884 L267.495317,162.302414 L267.231682,161.80157 L267.11483,161.235455 L267.089358,160.562676 L266.890358,160.284713 L265.937068,160.11819 L265.606569,159.911549 L264.744661,160.39074 L263.316955,158.997741 L261.009193,156.201234 L260.457087,155.78222 L253.544944,146.846963 L250.949666,142.558116 L248.749522,137.431559 L246.993865,132.642188 L246.791363,133.095271 L246.637576,133.924066 L246.499709,134.352951 L246.358976,134.053336 L246.294341,133.791611 L246.333504,133.568732 L246.499709,133.385333 L246.025611,133.683037 L245.674416,133.999208 L245.298067,134.247879 L244.745325,134.352951 L245.791269,133.467799 L245.852083,132.297997 L245.240437,129.406289 L246.191179,131.725514 L246.723544,132.372821 L246.807283,131.227537 L246.152016,129.444179 L245.226746,127.764938 L244.498247,126.933914 L244.354648,126.917357 L244.209776,126.900482 L244.096744,126.903984 L243.981484,126.908124 L243.769429,126.862911 L243.505157,127.046309 L243.547505,127.230026 L243.531903,127.405464 L243.565653,128.962758 L243.896471,130.250368 L243.793309,131.23295 L242.520346,131.878983 L240.152088,132.438093 L239.955635,132.484898 L237.552671,133.385333 L236.810162,134.239282 L236.675161,134.321111 L235.685892,134.12625 L235.443908,134.206805 L234.938926,134.551314 L234.761577,134.586656 L234.585184,134.622317 L234.247361,134.570099 L234.003149,134.455475 L231.820199,132.754583 L231.654313,132.136887 L231.253765,131.869113 L230.766295,131.949986 L230.55233,132.161404 L230.336455,132.372821 L229.719078,132.228586 L228.820235,132.797567 L228.380525,132.372821 L228.133765,132.372821 L227.716979,132.685172 L227.299239,132.529793 L226.627096,131.878983 L226.192162,131.951578 L225.900508,131.912415 L225.618405,131.871342 L225.054837,131.860198 L224.648559,132.148031 L224.458156,131.903182 L223.660564,131.272431 L223.578417,131.145071 L223.431635,130.991921 L223.36286,130.787508 L223.524608,130.508908 L223.6733,130.407657 L224.177009,130.147524 L224.042007,129.277337 L223.729339,129.019115 L223.415715,128.760893 L222.725742,128.412882 L222.401611,128.056911 L222.017621,127.799007 L220.334559,127.162525 L219.951524,126.810693 L219.849954,126.555973 L219.369807,125.957063 L219.209333,125.697249 L219.135465,125.247987 L219.142469,124.8831 L219.058093,124.609913 L218.713903,124.437022 L218.560434,124.529358 L218.406966,124.621057 L216.458358,125.873006 L216.115123,126.01533 L215.719352,125.974257 L215.331859,125.826519 L215.169157,125.734502 L215.006136,125.642802 L214.697925,125.386172 L213.876135,124.374297 L213.720119,124.265086 L213.546909,124.171795 L213.358417,124.097289 L213.162919,124.044753 L211.358547,123.258624 L210.52211,122.996262 L209.743304,123.037336 L209.109688,122.947866 L207.731335,121.972925 L207.089759,121.693688 L205.956574,121.959871 L199.538905,126.138551 L198.690051,126.440076 L197.857117,126.349969 L191.405698,123.996675 L186.834112,122.327941 L182.734076,120.834008 L176.951297,118.725564 L176.365759,118.40016 L175.781814,118.074118 L175.269827,117.621672 L174.75784,117.16827 L173.722721,116.641 L172.514394,117.138341 L171.493604,118.49154 L170.832605,119.912241 L169.960508,121.311927 L170.294828,121.44852 L170.737404,121.773925 L171.127444,122.278271 L171.226148,122.805541 L170.788666,123.202267 L170.062396,123.211819 L169.686684,122.869221 L169.365419,122.696966 L168.811721,123.202267 L168.566235,123.378342 L168.382836,123.415277 L168.382836,123.501563 L168.687545,123.819963 L168.948315,123.999222 L169.557414,124.250758 L169.822323,124.437022 L170.116206,124.858902 L170.241655,125.328223 L170.087868,125.727178 L169.552638,125.922039 L169.552638,126.193316 L169.727121,126.395181 L169.765966,126.640349 L169.666943,126.845717 L169.429417,126.933914 L169.135215,126.868642 L168.811721,126.552153 L168.563688,126.440076 L167.834552,126.402186 L167.061477,126.517129 L166.66889,126.777261 L167.080262,127.180992 L167.080262,127.405464 L166.810896,127.675149 L166.585469,127.675149 L166.11965,127.248493 L165.966818,127.180992 L165.898362,127.067324 L165.985604,126.797321 L166.032408,126.470324 L165.843279,126.193316 L165.386693,126.088244 L163.595375,126.193316 L163.595375,126.440076 L163.923327,126.492612 L164.093353,126.572849 L164.200017,126.709442 L164.337884,126.933914 L163.47502,127.031663 L161.943517,127.720362 L161.123,127.922546 L161.123,128.191594 L162.485433,128.363848 L163.424076,128.771718 L164.263378,129.254731 L165.326834,129.653368 L165.618807,129.660691 L166.31865,129.59128 L166.585469,129.653368 L166.792429,129.906177 L166.702003,130.106451 L166.488675,130.201971 L166.315784,130.147524 L166.604255,130.456372 L167.604349,131.272431 L167.821497,131.272431 L168.365961,130.909137 L169.563782,131.100177 L170.762557,131.626174 L171.306066,132.260426 L171.512071,134.646834 L171.393308,135.876494 L170.788666,136.351547 L170.788666,136.621232 L171.037018,136.621232 L171.037018,136.845703 L170.627874,136.95778 L170.610999,137.064444 L170.5193,137.364377 L170.631695,137.296876 L170.707474,137.217913 L170.756826,137.14882 L170.788666,137.115388 L171.037018,137.364377 L170.724349,137.463399 L170.466127,137.654121 L170.046794,138.105294 L170.046794,138.331994 L170.22287,138.314801 L170.264262,138.37657 L170.25853,138.481324 L170.294828,138.601361 L171.777616,137.115388 L172.246301,137.440793 L172.440525,137.669722 L172.520125,137.97061 L171.429605,139.095199 L170.982572,139.052533 L170.852665,139.024196 L170.5193,139.589674 L170.327623,139.748555 L170.121937,139.873687 L169.998398,140.102616 L170.046794,140.57735 L169.822323,140.57735 L169.267351,140.513989 L168.541081,140.914536 L167.832005,141.204598 L167.327341,140.801822 L167.080262,140.801822 L166.771415,141.487019 L166.505551,141.738237 L166.091312,141.814971 L166.091312,142.062049 L166.585469,142.062049 L166.585469,142.308809 L166.417672,142.349883 L166.320879,142.4021 L166.091312,142.558116 L166.470208,142.939559 L167.015627,143.619025 L167.313331,144.268242 L166.545351,144.844865 L166.282034,145.404293 L165.946122,145.788283 L165.326834,145.546618 L165.031996,146.143618 L164.606932,146.761314 L163.979047,147.25165 L163.712547,147.608576 L164.195559,147.898957 L164.967361,148.871987 L165.044095,149.164596 L164.838409,149.514199 L164.337884,149.997212 L164.550257,150.451887 L164.704362,151.075314 L164.832677,152.09897 L166.245418,155.516675 L166.691178,156.201234 L166.984742,157.174901 L167.20412,157.572901 L170.913479,162.077942 L171.295877,162.991431 L171.037018,163.66421 L171.360512,164.08609 L171.599949,164.069851 L171.865813,163.908423 L172.273047,163.889637 L172.559607,164.031962 L172.746189,164.204853 L172.977984,164.346223 L173.957064,164.496507 L176.003738,165.147317 L176.030802,165.077906 L176.168988,164.959779 L176.378814,164.908198 L176.633852,165.023778 L176.765033,165.187754 L176.813111,165.296646 L176.895258,165.35555 L177.128327,165.371789 L177.525372,165.454254 L178.014752,165.809589 L178.364992,165.890144 L178.60029,165.806405 L179.119282,165.446931 L179.465701,165.371789 L183.360687,166.74855 L184.562328,167.418782 L185.422645,168.362838 L185.451938,168.6131 L185.436973,168.944236 L185.51307,169.22984 L186.421784,169.602368 L186.758969,169.811239 L186.906707,169.980946 L187.096155,170.430527 L187.104752,170.447083 L190.120954,174.495538 L191.132829,176.567367 L191.402195,176.567367 L191.83299,176.00157 L192.164763,175.366044 L192.958852,172.87743 L193.133017,172.588004 L193.99015,172.156254 L194.122604,171.970945 L194.320649,171.922549 L195.494271,171.354205 L195.580557,171.214109 L195.024313,170.5114 L194.864157,170.217517 L195.124927,169.734823 L195.72734,169.784493 L196.865301,170.341056 L197.01272,170.059909 L197.19771,169.391906 L197.359776,169.126042 L198.211814,168.644621 L198.348089,168.497839 L198.585297,167.861676 L199.145681,167.49074 L199.795535,167.21819 L200.303383,166.880049 L200.303383,166.654622 L199.000172,166.692512 L198.366557,166.622145 L197.831326,166.384619 L198.269763,165.937585 L198.548363,165.744317 L198.843201,165.643384 L198.366557,165.19253 L197.931304,164.582794 L197.895961,164.06412 L198.618411,163.889637 L198.618411,163.66421 L198.204809,163.309512 L197.292594,162.744353 L196.865301,162.405894 L196.213218,162.684493 L195.519743,162.665708 L194.874346,162.459066 L193.475934,161.66434 L192.89772,161.430316 L192.63886,161.526791 L192.365037,161.373641 L190.168077,160.488489 L189.335143,159.761264 L188.659498,159.169995 L188.659498,158.944886 L188.924407,159.060784 L189.233255,159.15121 L189.558978,159.193557 L189.873876,159.169995 L189.819111,158.919414 L189.692706,158.825805 L189.402325,158.944886 L189.177217,158.944886 L188.699298,158.034899 L188.305119,157.615885 L187.199316,157.230621 L186.772024,156.758753 L186.703886,156.257273 L187.177347,155.954156 L186.749417,155.283924 L186.530676,154.295929 L186.43452,152.615096 L186.194765,151.733765 L185.148821,150.976292 L184.928488,150.244609 L186.480369,151.316024 L187.113985,152.080503 L186.906707,152.738635 L186.906707,152.963107 L187.814147,153.906526 L188.393634,154.307392 L189.041578,154.470094 L191.493576,154.434433 L192.143749,154.223016 L192.620075,154.651582 L192.763355,154.719083 L192.920008,154.823836 L192.926057,154.827657 L192.853144,155.074735 L192.63886,155.459999 L192.961081,155.705486 L193.165812,155.677148 L193.325012,155.540555 L193.504271,155.459999 L193.731609,155.536734 L194.107321,155.875511 L194.896953,156.264596 L196.382607,157.642312 L196.988203,157.954344 L196.81372,158.115773 L197.136896,158.457735 L197.598258,158.764354 L197.831326,158.82071 L197.997849,159.011432 L199.09028,159.911549 L199.953462,160.371 L200.885418,160.68526 L201.914805,160.865475 L203.069642,160.921831 L203.069642,161.169228 L201.812917,161.159358 L201.242663,161.220172 L200.798814,161.393063 L200.798814,161.66434 L204.009877,161.347851 L205.04786,161.66434 L204.859049,162.193202 L205.024936,162.546945 L205.912635,163.272578 L205.402239,164.10201 L205.327734,164.65316 L205.912635,164.900238 L206.322734,165.216091 L207.78992,167.374206 L208.35317,167.933953 L208.635591,168.311894 L208.756583,168.743962 L208.640367,169.268367 L208.38501,169.661591 L208.130927,169.967892 L207.884804,170.578583 L207.263287,171.195642 L207.047412,171.600965 L207.059511,171.929872 L207.151847,172.298897 L207.192921,172.693395 L207.047412,173.106041 L207.616711,173.080569 L207.715415,173.328284 L207.666063,173.705907 L207.78992,174.072703 L208.176458,174.31214 L208.580507,174.467838 L208.897634,174.710777 L209.026586,175.208436 L209.286718,175.747168 L210.631321,176.606848 L211.229595,177.08413 L211.149676,176.820176 L211.098414,176.713512 L211.004804,176.567367 L211.503737,176.679443 L211.672171,177.02427 L211.814814,177.449016 L212.240196,177.805305 L212.727348,177.875672 L213.208769,177.777923 L213.672359,177.631777 L214.106975,177.555998 L215.032882,177.634006 L219.877655,178.970012 L220.793691,179.041971 L221.740931,179.243199 L223.233908,180.11466 L224.177009,180.277044 L223.696543,179.930306 L223.484489,179.844975 L223.166089,179.782887 L223.166089,179.535491 L224.070345,179.844975 L225.017585,180.665492 L225.533074,181.609548 L225.144308,182.276914 L225.765506,182.387717 L226.103328,182.726813 L226.398167,182.960518 L226.896781,182.749738 L227.030509,183.03375 L227.200216,183.18499 L227.40431,183.188174 L227.638653,183.021014 L227.864398,183.021014 L231.34833,184.379627 L231.794727,184.723817 L234.585184,186.009516 L237.428813,188.706682 L238.238504,188.913323 L239.335074,189.467339 L240.132347,190.26716 L240.04829,191.203255 L241.496691,191.456702 L242.448707,192.414767 L243.188668,193.637741 L244.00409,194.686232 L244.25085,194.439154 L244.843392,195.087734 L245.020741,195.40295 L245.982309,197.899524 L245.617741,198.200094 L245.364613,198.465002 L245.177394,198.759841 L245.014691,199.158159 L245.140141,199.280106 L245.391359,199.426252 L245.455357,199.61761 L245.014691,199.879016 L245.442303,199.908946 L245.633979,200.021341 L245.758792,200.190093 L245.982309,200.37381 L246.501937,200.648907 L246.777035,200.850136 L246.993865,201.115045 L246.550016,201.099762 L246.21283,200.998192 L245.510122,200.643495 L245.599592,201.275837 L246.028795,201.615888 L246.500982,201.870289 L246.723544,202.239315 L246.551289,202.645593 L246.137688,202.929924 L245.240437,203.364859 L244.733544,203.968545 L244.5632,204.582738 L244.703615,204.929157 L245.127087,204.733342 L245.546738,204.285353 L245.815467,204.072343 L246.208691,204.035727 L246.993865,204.128063 L246.993865,204.35158 L246.102346,204.575097 L245.107983,205.108417 L244.56129,205.75636 L245.014691,206.331391 L244.778757,206.579106 L243.896471,207.917659 L243.647164,208.166011 L243.531903,207.949181 L243.355509,207.846974 L242.964196,207.993757 L242.396489,208.331261 L242.13954,208.622915 L241.036284,210.308524 L241.148998,211.432476 L241.374744,211.576074 L242.114068,211.875688 L242.272631,211.916762 L242.472905,212.244714 L245.622835,215.15266 L246.504485,216.290622 L246.986542,216.786052 L247.509992,217.029946 L248.12514,217.029946 L250.342796,216.759943 L251.084667,216.86597 L253.174644,217.7715 L253.174644,217.254418 L253.472667,217.524103 L253.75859,217.70782 L254.456523,218.018578 L253.963958,217.961903 L253.831503,217.902362 L253.669756,217.7715 L253.445284,217.7715 L254.03719,218.26502 L255.288502,218.862338 L256.611772,219.285173 L257.42401,219.255243 L257.82583,218.355445 L257.919758,217.037906 L257.700062,215.772267 L257.153688,215.030076 L257.153688,214.78268 L257.371792,214.53783 L257.444706,214.170397 L257.42401,213.275693 L256.978887,213.546651 L256.520391,213.159158 L256.046612,212.583173 L255.547361,212.288653 L255.003852,212.218287 L253.650016,211.810416 L253.174644,211.568751 L252.884264,211.226471 L252.141755,210.06654 L251.974595,209.488007 L250.702269,207.590026 L250.477797,207.590026 L250.480981,207.60499 L250.207794,207.814179 L250.387053,207.092366 L250.876434,206.912789 L252.073936,207.094595 L252.563635,207.001304 L252.712009,206.778106 L252.756267,206.522749 L252.927248,206.331391 L253.294681,206.328843 L253.535392,206.501098 L253.725795,206.530709 L253.939123,206.103735 L254.544719,206.307829 L255.307924,206.465755 L255.818319,206.750723 L255.669626,207.341674 L255.917341,207.324162 L256.165375,207.341674 L255.942177,208.105833 L256.278725,208.651252 L257.42401,209.319256 L257.939499,209.05371 L258.441934,209.311296 L258.864451,209.823283 L259.131588,210.308524 L259.693883,210.198994 L260.447535,210.283689 L261.106305,210.258535 L261.37981,209.813731 L261.627207,209.813731 L261.892116,210.243252 L262.337557,210.703658 L262.861007,211.090514 L263.358029,211.297474 L263.358029,211.568751 L262.280882,211.995407 L262.121682,211.916762 L262.082519,211.430565 L261.976173,211.141458 L261.627207,210.555921 L261.37981,210.555921 L261.309444,210.760334 L261.249903,210.883873 L261.13305,211.073002 L261.852953,212.483832 L262.121682,212.781218 L262.639719,212.971939 L263.69617,212.916856 L264.122826,213.051858 L263.553208,213.410376 L263.102354,213.541238 L262.845087,213.728458 L262.863554,214.263369 L263.063191,214.676334 L264.246046,216.142884 L264.474976,216.723009 L264.225669,217.277025 L263.833718,217.760992 L263.628669,218.130973 L263.433808,218.23509 L262.369079,219.525246 L263.60065,220.72434 L268.100914,223.978069 L268.975877,224.890922 L271.443476,229.094119 L271.539952,229.539561 L271.376294,230.093576 L271.105336,230.703312 L271.048661,231.257328 L271.538041,231.638453 L271.539952,231.641 L271.738315,230.809976 L271.918848,229.191231 L270.010677,225.040251 L269.84479,223.890828 L269.596757,223.520847 L268.963459,223.187164 L268.632642,223.142906 L268.195479,223.315161 L267.967823,223.302106 L267.765321,223.142906 L267.416354,222.629964 L267.221812,222.427462 L266.2093,221.835875 L265.875936,221.481177 L265.915099,221.028094 L266.237956,220.769235 L267.885357,219.849696 L267.887268,219.848741 L269.488501,218.3287 L270.529987,217.801111 L271.553643,217.488442 L272.495151,217.027717 L272.497062,217.026762 L273.300066,216.046091 L273.638207,214.979132 L273.745826,213.705851 L273.531225,211.184442 L273.245938,210.080868 L272.795084,209.144772 L272.189169,208.299739 L271.051845,207.038239 L270.730261,206.560957 L270.551957,206.047696 L270.593667,205.50769 L270.593667,205.506735 L270.886913,205.196932 L271.965334,204.52861 L272.298699,204.144938 L272.303793,204.138252 L272.309206,203.646324 L272.022009,203.472159 L271.849755,203.308183 L272.201587,202.844593 L272.203497,202.843638 L272.623467,202.542432 L276.362118,201.024619 L277.440857,200.370307 L277.442768,200.368397 L277.944566,199.558706 L277.969083,199.519861 L277.825166,199.177263 L276.890662,197.616785 L276.400645,197.292654 L274.752607,196.736409 L273.08833,195.518211 L272.275137,195.157782 L272.063083,195.033606 L271.900699,194.811363 L271.800721,194.526395 L271.670496,194.251935 L271.589622,194.194304 L271.415776,194.066944 L271.083048,194.06981 L270.325574,194.382797 L270.00017,194.519709 L269.822502,180.844114 L269.917067,180.149684 L270.221139,179.646931 L270.221139,179.64502 L270.897739,179.407175 L272.827242,179.144495 L273.362791,178.839787 L273.367567,178.837558 L273.427426,178.543675 L273.25963,178.441787 L273.021785,178.371739 L272.867679,178.162232 L272.616462,177.170416 L272.178662,176.397978 L272.245844,176.062384 L272.654351,175.49213 L272.656899,175.487354 L273.261222,174.98078 L273.324902,174.927289 L273.329678,174.924105 L273.997681,174.849281 L276.093389,175.676165 L277.606425,176.941805 L277.955392,177.072667 L278.247046,176.938621 L278.617027,177.353178 L279.079662,178.225593 L279.463334,178.647792 L279.82217,178.815907 L280.452602,179.009494 L281.127291,179.123799 L281.605528,179.049931 L281.608712,179.048339 L281.843373,178.587296 L281.993021,177.196206 L282.248696,176.810942 L282.251243,176.806803 L282.803349,176.895318 L283.355136,177.186018 L283.633099,177.166595 L283.636601,177.166595 L283.246243,175.801933 Z" id="Fill-3"></path>
        </g>
    </g>
</svg>