
<svg width="171px" height="59px" viewBox="0 0 171 59" version="1.1" xmlns="http://www.w3.org/2000/svg" xmlns:xlink="http://www.w3.org/1999/xlink">
    <!-- Generator: Sketch 51.2 (57519) - http://www.bohemiancoding.com/sketch -->
    <desc>Created with Sketch.</desc>
    <defs></defs>
    <g id="Page-1" stroke="none" stroke-width="1" fill="none" fill-rule="evenodd">
        <g id="CU-EPS-01-0001" transform="translate(-173.000000, -206.000000)" >
            <path d="M257.611082,217.168921 L257.562661,217.173489 L257.610168,217.168921 L257.611082,217.155217 L257.611082,217.168921 Z M257.509671,217.068424 L257.523375,217.072535 L257.526116,217.073905 L257.509671,217.068424 Z M343.844912,257.926438 L343.774564,257.618095 L343.651227,257.33853 L343.461196,257.101448 L342.92308,256.759758 L342.612452,256.475625 L342.456682,256.368733 L342.262083,256.304323 L341.927702,256.330361 L341.629408,256.471057 L341.353954,256.640989 L341.090835,256.759758 L340.787516,256.736461 L340.43806,256.650581 L340.119667,256.650581 L339.909994,256.882638 L339.794422,256.882638 L339.665603,256.536837 L339.315234,256.197888 L338.892232,255.94162 L338.548715,255.840209 L338.335843,255.811431 L338.187839,255.738342 L337.420863,254.931624 L337.367874,254.825188 L337.250475,254.7521 L336.753014,254.062781 L336.581255,253.711498 L336.456091,253.561666 L335.741648,253.106688 L335.438786,252.862297 L335.383969,252.642117 L334.81342,252.452543 L334.623389,252.31002 L334.521064,252.248808 L334.455285,252.24424 L334.419197,252.196732 L334.410061,252.01401 L334.184856,251.614763 L334.248352,251.588725 L334.410061,251.501475 L334.163386,251.328803 L333.838141,251.224651 L332.596088,251.079387 L332.30693,250.889813 L332.08401,250.662781 L331.823631,250.474577 L331.437174,250.520258 L331.185931,250.512949 L331.07173,250.417933 L331.021938,250.262163 L330.896316,250.197297 L330.735521,250.159839 L330.583405,250.0767 L330.276889,249.974376 L329.01428,250.134257 L329.2372,250.362203 L329.120258,250.435292 L328.990526,250.427069 L328.848459,250.358549 L328.701368,250.247545 L328.68675,250.358549 L328.615032,250.510665 L328.584426,250.600655 L328.440076,250.210087 L328.181524,250.197297 L327.908811,250.268558 L327.726546,250.134257 L327.67447,250.167147 L327.662137,250.189988 L327.658025,250.214198 L327.629247,250.247545 L327.190714,250.134257 L327.190714,250.020513 L327.447438,249.948338 L327.393078,249.83505 L327.20122,249.726331 L326.46211,249.57193 L326.223201,249.552745 L326.33055,249.675625 L326.041849,249.595684 L325.626157,249.600709 L325.244267,249.701206 L325.042816,249.915448 L325.356185,249.995845 L325.950488,250.294596 L326.223201,250.474577 L325.337456,250.573704 L324.952826,250.491479 L324.817612,250.134257 L324.729905,250.290028 L324.71346,250.362203 L324.604284,250.362203 L324.528454,250.128776 L324.390956,249.915448 L324.765536,249.844643 L324.655903,249.654612 L324.333398,249.448593 L324.059315,249.335305 L323.752799,249.299675 L323.343045,249.308811 L322.965724,249.41753 L322.769298,249.675625 L322.93055,249.663748 L323.068962,249.685218 L323.326143,249.790283 L323.210115,250.134257 L323.072616,250.059798 L322.950193,249.97803 L322.845127,249.884842 L322.769298,249.790283 L322.672455,249.790283 L322.427151,250.095429 L321.503491,249.879817 L321.591198,250.247545 L321.242198,250.131517 L321.08186,250.017315 L321.107898,249.853322 L321.176419,249.678823 L321.02887,249.62629 L320.623684,249.675625 L320.732404,249.386468 L320.701798,249.096853 L320.550596,248.838758 L320.301637,248.639591 L320.144496,248.972602 L319.391681,249.602536 L319.219922,249.96798 L319.110746,250.14248 L318.864071,250.059798 L318.259718,249.718565 L318.080194,249.358602 L317.933103,249.20877 L318.004364,249.035641 L318.046847,248.838758 L318.061465,248.628171 L318.048218,248.52676 L318.208099,248.120661 L318.229112,247.90779 L318.145517,247.717759 L319.178353,247.838812 L319.481215,247.729636 L320.341379,247.597162 L320.391171,247.6232 L320.508113,247.717759 L320.576633,247.819169 L320.611807,247.938396 L320.663883,248.038436 L320.779455,248.080462 L320.992783,248.186897 L321.244939,248.355459 L321.465576,248.355459 L321.591198,247.955297 L321.372845,247.955297 L321.242198,247.855257 L321.179159,247.677103 L321.159517,247.447787 L321.06039,247.365562 L320.410813,247.031638 L320.066839,246.986871 L319.594046,247.00697 L319.179267,247.131221 L319.004767,247.395254 L318.907468,247.395254 L318.77134,247.108381 L318.568518,246.821964 L318.558469,246.617315 L319.004767,246.585796 L318.976445,246.471595 L318.91432,246.403074 L318.819761,246.366529 L318.691856,246.347344 L318.786414,246.285218 L318.879146,246.251871 L318.983297,246.267403 L319.110746,246.347344 L319.308086,246.227661 L319.405385,246.390283 L319.461572,246.64381 L319.5406,246.803235 L319.799151,246.807803 L320.056789,246.654317 L320.275142,246.434593 L320.410813,246.243649 L320.443246,246.143608 L320.479334,245.894193 L320.508113,245.78593 L320.569325,245.694569 L320.747479,245.549762 L320.839753,245.433733 L321.159517,244.748069 L320.616832,243.923536 L320.258697,243.692393 L319.639726,243.822582 L319.496746,243.244724 L319.186576,242.978863 L318.743475,242.906231 L318.200334,242.907602 L317.925337,242.984345 L317.774134,242.978406 L317.707441,242.850501 L317.66039,242.807104 L317.422851,242.700212 L317.337886,242.678742 L316.5266,243.262539 L316.605627,243.412828 L316.524316,243.484546 L316.392299,243.458965 L316.260739,243.167067 L316.109537,243.082101 L315.913568,243.041445 L315.718969,243.031852 L315.580557,243.079817 L315.338907,243.299997 L315.23978,243.364863 L315.040613,243.397753 L314.620809,243.38816 L314.488336,243.364863 L314.50204,243.664071 L314.407481,243.79426 L314.275008,243.737159 L314.165375,243.479521 L314.130201,243.554437 L314.082236,243.638033 L314.049803,243.71843 L313.952503,243.71843 L313.950676,243.507387 L313.893119,243.352073 L313.779374,243.232847 L313.619493,243.136461 L313.39246,243.078447 L313.219331,243.120473 L312.965805,243.262539 L312.810034,243.426989 L312.700401,243.438409 L312.546914,243.262539 L312.481591,243.058347 L312.491641,242.700212 L312.440022,242.564541 L312.371501,242.171232 L311.870843,241.836394 L310.199393,241.202348 L309.974188,241.056171 L309.561236,240.712196 L309.053726,240.513029 L308.829435,240.328937 L308.444805,240.208797 L306.562768,240.15124 L306.275438,240.246255 L306.169916,240.469633 L306.220621,240.739605 L306.411566,240.963439 L306.611646,241.038355 L307.124182,241.107333 L307.369029,241.192299 L307.185393,241.264474 L306.72402,241.534902 L306.640882,241.541754 L306.535817,241.530791 L306.448567,241.532618 L306.411566,241.587892 L306.369996,241.667376 L306.275438,241.761021 L306.169916,241.842332 L306.088148,241.87842 L305.94334,241.824517 L305.784372,241.533532 L305.650072,241.420244 L305.462782,241.430751 L305.289652,241.514803 L305.132968,241.522112 L305.007804,241.306043 L305.068559,241.282289 L305.220675,241.192299 L304.89817,241.192299 L304.89817,241.07764 L305.736865,241.042466 L305.917759,240.823657 L305.972576,240.15124 L305.86614,240.15124 L305.86614,240.503893 L305.765643,240.503893 L305.564649,240.239403 L305.216564,240.032014 L304.843354,239.914158 L304.56653,239.922837 L304.262755,240.042063 L304.255903,240.149869 L304.362795,240.391519 L304.454613,240.537697 L304.556024,240.61444 L304.89817,240.73458 L304.89817,240.837361 L304.56653,240.817718 L304.267323,240.751482 L304.00466,240.631799 L303.768035,240.447249 L303.515878,240.34995 L303.197942,240.29559 L302.990553,240.187327 L303.066382,239.922837 L303.042172,239.746054 L303.196115,239.751535 L303.340465,239.901367 L303.279253,240.15124 L304.161344,239.750622 L304.417612,239.693978 L304.53364,239.585715 L304.439081,239.34909 L304.225753,239.112922 L303.983647,239.00603 L303.811888,238.994609 L303.388887,238.891828 L303.124853,238.713674 L303.053135,238.687636 L302.930254,238.761182 L302.840264,238.76575 L301.875491,238.433196 L301.846713,238.63419 L301.783674,238.803208 L301.563037,239.131194 L301.671756,239.131194 L301.610088,239.330818 L301.569432,239.53501 L301.500911,239.708596 L301.349252,239.818229 L301.394019,239.399796 L300.590042,239.82097 L300.372146,239.408018 L300.431531,239.171393 L300.588215,239.011054 L300.81342,238.92015 L301.370265,238.885433 L301.563037,238.826505 L301.686374,238.65429 L301.777735,238.308488 L301.455231,238.308488 L301.563037,238.079629 L301.357931,237.921118 L300.490915,237.735655 L299.921736,237.461572 L299.656789,237.275652 L299.407374,237.047706 L297.719936,234.979293 L297.432606,234.803423 L297.134312,234.857326 L297.005493,235.023146 L296.608072,235.775504 L296.416214,236.667644 L296.275975,236.922085 L296.1266,236.940814 L295.979509,237.02715 L295.963064,237.047706 L295.574323,237.245503 L295.417182,237.287986 L295.54326,236.989692 L295.293844,236.960457 L294.941191,237.019384 L294.76258,236.984667 L294.694059,236.871836 L294.557018,236.579938 L294.457891,236.278447 L294.49946,236.140948 L294.777655,236.013043 L294.891399,235.733021 L294.809631,235.455284 L294.49946,235.326922 L294.061384,235.363466 L293.905614,235.326922 L293.758523,235.240129 L293.639753,235.125471 L293.50728,235.025887 L293.324101,234.983404 L293.146861,234.895241 L293.093871,234.710235 L293.22269,234.543501 L293.583109,234.514265 L293.720151,234.565884 L293.892823,234.719828 L294.030322,234.784694 L294.123053,234.841338 L294.202994,234.866462 L294.237254,234.80525 L294.260551,234.788349 L294.313084,234.729421 L294.352826,234.667752 L294.344147,234.639887 L294.637415,234.667752 L294.896424,234.744495 L295.903679,235.21272 L295.984077,235.277587 L296.254505,235.579535 L296.394744,235.670896 L296.496612,235.378541 L296.873019,234.971527 L296.930577,234.639887 L296.836018,234.491425 L296.679334,234.345248 L296.592998,234.142883 L296.714051,233.824947 L296.431746,233.899863 L296.200146,233.895751 L295.979509,233.828144 L295.748822,233.710289 L294.823335,233.010463 L294.610921,232.932806 L294.079656,232.496558 L293.858106,232.269525 L293.631988,232.1101 L292.830295,231.862512 L292.510531,231.704914 L290.841822,230.493011 L290.787919,230.40439 L290.686052,229.980475 L290.628494,229.840236 L290.080785,229.38069 L289.837308,229.342775 L289.547237,229.537374 L289.298735,229.839323 L289.16352,230.129394 L289.38233,230.022501 L289.487852,230.050367 L289.656413,230.310289 L290.246605,230.817799 L290.671434,231.346322 L290.891614,231.484734 L291.104942,231.287851 L291.330147,231.528588 L291.602859,231.388349 L291.766396,231.513513 L291.84725,231.742829 L291.865979,231.920526 L291.929932,231.968491 L292.241016,232.094569 L292.349736,232.159892 L292.420997,232.275007 L292.510531,232.666489 L292.702389,233.163036 L292.87095,233.386871 L293.281161,233.57142 L293.430993,233.774241 L293.525552,233.973865 L293.530577,234.064769 L293.48581,234.100857 L293.44287,234.180341 L293.3643,234.257541 L293.212184,234.294542 L293.111687,234.26485 L292.733909,234.064769 L292.257461,234.005385 L292.055553,233.939148 L291.973328,233.768303 L291.918512,233.498331 L291.687825,232.973919 L291.652651,232.666489 L291.707011,232.375504 L291.80431,232.3819 L291.960995,232.476915 L292.189397,232.447223 L291.871461,232.105989 L291.65996,231.934231 L291.437953,231.862512 L291.472213,231.919613 L291.513782,232.040666 L291.543475,232.102335 L291.366234,232.133398 L291.221884,232.113298 L291.129153,232.029246 L291.104942,231.862512 L290.698842,231.971689 L290.578703,232.087717 L290.56911,232.321601 L289.867914,231.872105 L289.604794,231.747397 L289.329341,231.717248 L288.374161,231.862512 L288.238947,231.8013 L288.112412,231.683901 L287.978111,231.614467 L287.750166,231.725471 L287.660175,231.710396 L287.214333,231.567416 L287.008771,231.467376 L286.86168,231.319828 L286.804122,231.115636 L286.781739,230.916469 L286.712305,230.627311 L286.593535,230.366019 L286.423147,230.253645 L286.03669,230.257756 L285.900105,230.19426 L285.720581,230.022501 L285.583539,229.860792 L285.484413,229.683095 L285.42046,229.456063 L285.39899,229.155029 L285.507253,229.012962 L286.009738,228.922058 L286.150434,228.746645 L285.896908,228.74162 L285.474363,228.673099 L285.300777,228.746645 L285.215354,228.914292 L285.140438,230.173247 L285.052275,230.340438 L284.863615,230.367389 L284.754438,230.249534 L284.488121,229.760295 L284.433761,229.62097 L283.711552,228.880946 L283.521064,228.746645 L283.336058,228.681322 L283.210437,228.517786 L282.925848,228.019411 L282.823523,227.712438 L282.739471,227.59778 L282.437066,227.314561 L282.229677,226.870547 L282.079388,226.710665 L281.846874,226.791519 L281.650448,226.722085 L281.446256,226.675948 L281.252114,226.601032 L281.088578,226.445718 L281.138369,226.383592 L281.189988,226.358011 L280.787543,226.362579 L280.658724,226.330146 L280.573301,226.184425 L280.562338,225.993481 L280.532189,225.826747 L280.394691,225.755029 L279.616295,225.697014 L279.370077,225.629864 L278.834245,225.410141 L278.686697,225.400548 L278.520876,225.418363 L278.366933,225.414709 L278.244053,225.347102 L278.123456,225.244321 L277.840694,225.097686 L277.697714,224.990337 L277.583969,224.844159 L277.436421,224.520741 L277.331356,224.351267 L277.268774,224.398774 L277.108435,224.476888 L277.115287,224.364514 L277.100213,224.128803 L277.108435,224.016429 L276.819734,224.060282 L275.873234,223.898573 L275.497741,223.786199 L275.222287,223.640478 L274.862782,223.397458 L274.547129,223.130684 L274.414656,222.915985 L274.194476,222.759758 L272.476889,222.152664 L271.974403,221.646524 L271.507548,221.583485 L271.507548,221.699513 L271.640022,221.777627 L271.746457,221.88726 L271.946995,222.17185 L271.703975,222.706312 L271.558254,222.840612 L271.400656,222.622716 L271.254478,222.696262 L271.196007,222.737831 L270.8968,221.755244 L270.815032,221.583485 L270.079576,221.62277 L267.66262,221.34823 L267.304028,221.353255 L267.002537,221.426801 L266.412345,221.652462 L266.074766,221.699513 L265.893414,221.666623 L265.64811,221.517705 L265.489599,221.479333 L265.295457,221.500346 L265.254801,221.573435 L265.220541,221.682612 L265.050152,221.803665 L264.754143,221.80001 L263.932807,221.6214 L263.762876,221.641042 L263.634057,221.824678 L263.349467,221.725551 L263.053914,221.51131 L262.895403,221.353255 L262.475599,221.421319 L262.013769,221.20388 L260.710504,220.09293 L260.63102,219.900158 L260.21213,219.253322 L260.032606,219.204444 L259.576714,219.193481 L259.344657,219.148714 L259.253753,219.072884 L258.855876,218.623845 L258.710612,218.3758 L258.495,217.855042 L258.315475,217.5837 L258.136865,217.392755 L257.96739,217.2548 L257.775989,217.155217 L257.53708,217.077103 L257.144227,215.353121 L257.008556,215.268612 L256.651791,215.312922 L256.633519,215.35038 L256.564085,215.433518 L256.470897,215.517114 L256.382733,215.554572 L256.287261,215.523509 L256.23016,215.451791 L256.178541,215.369566 L255.254881,214.712223 L254.977601,214.618121 L254.329851,214.559194 L254.163574,214.513513 L254.014656,214.415757 L253.915072,214.304296 L253.744227,214.039806 L253.95116,213.425403 L254.125659,213.286992 L254.485165,213.461491 L254.77615,213.262781 L254.923698,213.126653 L254.923698,212.998291 L254.785743,212.964487 L253.821884,213.236743 L253.308435,213.719586 L252.983647,213.819169 L252.984104,213.780798 L252.975424,213.698116 L252.929744,213.614978 L252.821938,213.57752 L252.541916,213.591224 L252.456037,213.57752 L251.861277,213.230805 L251.827016,213.117974 L251.471165,212.476163 L251.416805,212.314454 L251.284332,212.167362 L251.11303,212.044482 L250.944469,211.954491 L250.883257,212.361505 L250.569889,212.419976 L250.19942,212.306231 L249.365294,211.889168 L249.100804,211.898761 L249.217746,212.302577 L248.281296,212.670305 L247.792971,212.773086 L247.277238,212.75527 L247.00818,212.694059 L246.745517,212.597673 L246.493817,212.453322 L246.256736,212.244106 L246.060766,212.185178 L245.174564,212.186548 L244.887691,212.111632 L244.679845,211.934392 L244.518136,211.736595 L244.369217,211.596813 L244.129394,211.505909 L243.492608,211.382571 L243.242279,211.364756 L242.919775,211.136353 L242.329583,210.071084 L241.892877,209.741728 L242.304001,208.927244 L242.438302,208.80345 L242.438302,208.698842 L242.284816,208.611135 L242.086562,208.575504 L241.872778,208.599258 L241.668129,208.698842 L241.957286,209.025 L241.871407,209.343394 L241.575854,209.602402 L241.248325,209.741728 L240.855929,209.757259 L240.123214,209.605143 L239.736757,209.616106 L237.268639,210.089356 L236.947962,210.193051 L236.592568,210.260658 L236.304781,210.16747 L236.185555,209.794717 L236.178703,209.526116 L236.151294,209.464447 L236.089169,209.494139 L235.980449,209.498707 L235.327675,209.383136 L235.227634,209.39684 L234.90513,209.479978 L234.726976,209.498707 L234.647035,209.587327 L234.481672,210.002563 L234.406299,210.142802 L234.166933,210.426935 L234.0573,210.601435 L233.921629,210.677264 L233.610088,210.668585 L233.049131,210.378514 L232.151966,209.330603 L231.453968,209.151535 L231.453968,209.04647 L231.674605,208.850501 L232.529744,208.329286 L233.244187,208.14291 L233.679522,207.961558 L233.902443,207.769243 L233.610088,207.653672 L233.351993,207.730872 L232.656279,208.141083 L232.273019,208.433438 L231.688766,208.722139 L231.453968,208.80345 L230.714857,208.913997 L230.326116,209.025 L230.156185,209.20955 L229.981685,209.28675 L228.658778,209.516066 L228.515341,209.520177 L228.398856,209.557635 L228.270037,209.678688 L228.213393,209.821668 L228.114723,210.235077 L228.054881,210.322784 L227.81917,210.416429 L227.6433,210.461195 L227.465146,210.436985 L227.271004,210.340142 L227.272374,210.288066 L227.369674,210.22457 L227.465146,210.089356 L227.540976,209.796087 L227.590768,209.406433 L227.536865,209.065199 L227.20157,208.8706 L226.929314,208.646309 L226.820594,208.5819 L226.610007,208.557232 L226.42226,208.564998 L226.247761,208.551294 L226.069607,208.455821 L225.86039,208.564998 L225.610974,208.598801 L222.751375,208.5819 L222.401462,208.698842 L221.934607,208.580986 L220.928266,208.482773 L220.460498,208.350756 L219.870762,207.932323 L219.717276,207.85695 L219.546431,207.884815 L219.374672,207.952422 L219.216161,207.991251 L218.852087,208.027795 L218.220326,208.186763 L217.875895,208.222851 L216.790526,207.961558 L216.291695,208.168948 L215.192622,208.350756 L214.468129,208.662297 L213.84322,208.757313 L213.599742,208.90349 L213.134715,209.267107 L212.887127,209.419223 L212.737751,209.476324 L212.544523,209.498707 L212.465495,209.553981 L212.310182,209.793347 L212.222018,209.847249 L211.876217,209.953228 L211.193293,210.345167 L210.872159,210.322784 L210.494382,210.479011 L209.03763,210.668585 L207.613769,210.602348 L207.266597,210.727513 L206.888363,210.791466 L206.325579,210.701475 L205.815784,210.711525 L205.59332,211.075141 L205.427043,211.494032 L205.084439,211.722891 L204.809443,211.699594 L204.84279,211.364756 L204.696155,211.539712 L204.574188,211.59864 L204.477802,211.542453 L204.41385,211.364756 L204.477802,211.271568 L204.63403,211.24553 L204.735897,211.192997 L204.637227,211.01667 L204.490593,210.936273 L204.374564,210.989719 L204.279549,211.087475 L204.198238,211.133613 L204.033331,211.07971 L203.815892,210.932161 L203.652356,210.902012 L203.560081,210.928507 L203.356803,211.07103 L203.232552,211.133613 L202.579777,211.259691 L202.229865,211.409066 L201.998721,211.601838 L201.981363,211.823845 L202.266866,212.060927 L202.155862,212.174671 L202.019734,212.34506 L201.858025,212.448297 L201.667081,212.361505 L201.546484,212.147263 L201.516792,211.909267 L201.577547,211.705989 L201.720984,211.596813 L201.720984,211.491748 L201.512681,211.307655 L201.258697,211.216294 L200.967712,211.231826 L200.647492,211.364756 L199.834836,211.88597 L199.622878,211.954491 L199.340116,212.093817 L199.045477,212.41358 L198.811136,212.783136 L198.71612,213.060873 L198.587758,213.195174 L198.337886,213.351858 L198.167041,213.403934 L198.278501,213.230805 L198.013554,213.114776 L197.825807,212.97271 L197.646283,212.900991 L197.409201,212.998291 L197.2749,213.197458 L197.148365,213.458293 L196.963816,213.634163 L196.658213,213.57752 L196.701153,213.509912 L196.72445,213.461491 L196.765563,213.345006 L196.113245,213.349574 L196.014575,213.403934 L195.818606,213.940223 L195.751455,214.039806 L194.968035,214.073153 L194.622233,214.174564 L194.287395,214.386978 L194.365052,214.394287 L194.379213,214.413473 L194.373731,214.451388 L194.395201,214.513513 L194.505748,214.439967 L194.619949,214.386978 L194.619949,214.513513 L194.504378,214.56833 L194.288309,214.709026 L194.180046,214.74557 L194.008744,214.741459 L193.809577,214.649184 L193.634164,214.618121 L193.376983,214.644616 L192.832471,214.838301 L191.749386,215.389665 L191.487637,215.439914 L190.804714,215.489249 L190.564434,215.647303 L190.415972,216.006809 L190.20036,215.786172 L189.244724,216.476404 L189.056521,216.568679 L188.844106,216.607051 L188.692447,216.513406 L188.589666,216.306473 L188.453538,216.100911 L188.200468,216.006809 L188.049722,216.039699 L187.907656,216.125121 L187.793455,216.243891 L187.72265,216.374537 L187.983486,216.35124 L188.192245,216.399204 L188.353954,216.517517 L188.474094,216.711202 L188.301422,216.868343 L188.15159,217.052436 L187.98714,217.140142 L187.776553,217.006298 L187.575559,216.921789 L187.461814,217.124154 L187.412936,217.413768 L187.401516,217.5837 L187.317921,217.663641 L186.910907,217.699728 L186.757878,217.761854 L186.671085,217.92676 L186.53313,218.560806 L186.400656,218.346564 L186.218391,218.252006 L186.005063,218.284439 L185.781228,218.455284 L185.624087,218.378997 L185.459638,218.329663 L185.459638,218.455284 L185.643273,218.672266 L185.570641,219.039538 L185.373758,219.418229 L185.186011,219.67404 L184.891829,219.843058 L184.219412,219.967309 L183.94807,220.187945 L184.269204,220.187945 L184.269204,220.314024 L183.988269,220.483498 L183.756212,220.747075 L183.420917,221.237227 L183.380261,221.318538 L183.318136,221.533693 L183.25464,221.641042 L183.17881,221.691291 L183.009335,221.707736 L182.927567,221.752046 L182.698251,222.18327 L182.659879,222.223926 L182.436045,222.968061 L182.366611,223.331678 L182.337832,223.722246 L182.278447,224.004552 L182.13364,224.311981 L181.957313,224.572817 L181.802,224.718995 L182.059181,224.774268 L182.203988,224.994905 L182.306769,225.276297 L182.436045,225.514292 L182.632014,225.672347 L182.918888,225.828574 L183.236367,225.941405 L183.528266,225.975665 L183.450609,226.086669 L183.303518,226.445718 L183.615516,226.604229 L183.669419,226.797458 L183.649776,227.045046 L183.742964,227.366637 L183.962231,227.558952 L184.139014,227.401811 L184.305291,227.109456 L184.493038,226.896128 L184.269204,227.827553 L184.030751,227.790095 L183.603639,228.099352 L183.528266,228.000682 L183.435991,227.810195 L183.213527,227.602805 L182.945839,227.435614 L182.718807,227.366637 L182.256977,227.485863 L181.899756,227.702389 L181.534312,227.80517 L181.040962,227.586817 L181.109483,227.454343 L181.01127,227.377143 L180.820782,227.351562 L180.611566,227.366637 L180.492796,227.429676 L179.637657,228.050474 L178.299675,228.649802 L177.158119,228.988295 L175.870843,229.678527 L175.872213,229.341405 L175.723752,229.177412 L175.483472,229.176498 L175.216241,229.323133 L175.47525,229.506312 L175.465657,229.720553 L175.281107,229.911041 L175.012506,230.022501 L174.870897,230.037119 L174.733398,230.021131 L174.604579,229.968598 L174.491292,229.878151 L174.44287,229.799581 L174.400387,229.699083 L174.349682,229.61229 L174.274766,229.570264 L174.170158,229.613204 L174.070117,229.725578 L173.988349,229.860792 L173.937644,229.970426 L173.881,230.253188 L173.916631,230.529098 L174.045907,230.769378 L174.261062,230.942507 L174.921602,231.148526 L175.605439,231.159946 L176.236287,231.005089 L177.824141,229.948499 L178.433976,229.658428 L179.681054,229.291157 L180.380422,229.184264 L181.007616,229.292984 L181.362096,229.784506 L181.2415,230.44733 L180.611566,231.770694 L180.816214,232.102335 L181.478582,232.042493 L182.153283,231.674308 L184.009738,230.122085 L184.501261,229.97545 L184.856655,229.750246 L185.029784,229.678527 L185.189209,229.667107 L185.515825,229.691318 L185.674336,229.678527 L185.965321,229.552906 L186.571501,229.181067 L186.912735,229.102953 L187.26219,229.175585 L187.85558,229.491694 L188.152047,229.563412 L188.344362,229.525954 L188.527084,229.431396 L188.696558,229.300749 L188.844106,229.155029 L188.914911,228.996517 L188.850502,228.873637 L188.744523,228.776337 L188.686965,228.69594 L188.817612,228.353336 L189.360296,227.952718 L189.449373,227.586817 L189.25112,227.741674 L189.069311,227.785984 L188.914911,227.704216 L188.796142,227.481752 L188.776956,227.205841 L188.884305,227.02586 L189.056521,226.987032 L189.234675,227.137321 L189.224625,226.886535 L189.200414,226.786038 L189.117276,226.676404 L189.193105,226.509671 L189.313245,226.04647 L189.332888,225.917651 L189.976526,225.284063 L190.325982,225.214171 L191.546565,225.284063 L191.775424,225.23016 L191.963171,224.991707 L192.142239,224.937804 L192.125794,224.987596 L192.144523,225.100884 L192.187006,225.217826 L192.249131,225.284063 L192.334097,225.296853 L194.073611,225.042413 L194.042548,225.107736 L194.008744,225.223764 L193.975397,225.284063 L194.406165,225.169861 L194.866167,224.876136 L195.255822,224.468209 L195.477829,224.016429 L195.585635,224.016429 L195.675626,224.214225 L195.791654,224.404256 L195.833224,224.575101 L195.701664,224.718995 L196.396007,225.000843 L197.208207,225.105909 L197.911687,224.925014 L198.278501,224.351267 L198.447519,224.608448 L198.619734,224.684734 L198.731195,224.568706 L198.739417,224.372737 L198.764085,224.425269 L198.814333,224.476888 L198.9564,224.367712 L199.033143,224.259449 L199.136381,224.016429 L199.154653,223.942426 L199.146431,223.883955 L199.160135,223.801273 L199.242816,223.660121 L199.436045,223.449534 L200.003854,223.083176 L200.012076,223.037039 L200.003854,222.799043 L200.029892,222.731893 L200.090647,222.737831 L200.160538,222.759758 L200.274282,222.719102 L200.346457,222.739202 L200.407669,222.745597 L200.432794,222.679817 L200.426855,222.443649 L200.432794,222.40208 L200.656628,222.338584 L200.871326,222.357769 L201.389343,222.506688 L201.899138,222.446846 L202.271434,222.080032 L203.168599,220.364729 L203.599366,219.913862 L204.113729,219.569431 L205.160726,219.023093 L205.402376,218.946349 L205.759597,218.917114 L205.947801,218.79606 L206.891103,217.992997 L207.422825,217.815757 L207.653968,217.658159 L207.74944,217.351186 L207.754922,217.020002 L207.807454,216.689276 L207.969163,216.416563 L208.296236,216.248459 L208.632901,216.242063 L209.295268,216.430267 L211.578837,216.711202 L211.734607,216.675115 L212.039296,216.51706 L212.222018,216.480059 L213.896666,216.516146 L214.583244,216.675115 L214.910316,216.711202 L215.25292,216.672374 L215.896101,216.506554 L216.256521,216.480059 L218.177843,216.893924 L218.851173,216.943259 L220.355432,216.828601 L221.614387,216.712573 L222.950542,216.807131 L223.621588,217.004471 L224.128642,217.300024 L224.769083,217.781496 L224.952262,218.049184 L225.682693,218.406863 L225.768115,218.403208 L225.811512,218.451629 L225.854908,218.687341 L225.841661,219.001166 L225.757609,219.425081 L225.623765,219.796464 L225.465254,219.957716 L225.307656,220.020755 L225.186603,220.164648 L225.083821,220.320419 L224.986522,220.418175 L224.81522,220.459288 L224.505049,220.459288 L224.342884,220.546081 L224.1661,220.513191 L222.924504,220.82062 L222.611136,220.837522 L222.329744,220.790928 L222.079871,220.660282 L221.677883,220.815596 L218.699971,220.921574 L218.303921,220.766261 L218.174645,220.951267 L217.93802,221.049937 L217.720581,221.184694 L217.661653,221.479333 L217.808287,221.766207 L218.075062,221.895483 L218.364219,221.931114 L218.577547,221.92883 L218.593992,221.995066 L218.77443,222.307521 L218.851173,222.40208 L218.982733,222.450501 L219.295645,222.485675 L219.435884,222.563789 L219.674336,222.761585 L219.900911,222.890404 L222.129206,223.784372 L222.401462,224.068504 L222.457192,224.316093 L222.601543,224.550891 L222.997136,224.990337 L223.220057,225.076216 L223.954599,225.167577 L224.128642,225.168491 L224.084332,225.050635 L224.058294,225.004955 L224.011243,224.937804 L224.306796,224.980287 L224.408207,224.926384 L224.450233,224.718995 L224.546619,224.718995 L224.764058,224.817208 L225.132243,224.856036 L225.478044,224.839591 L225.63016,224.771071 L225.71604,224.584694 L225.90333,224.588349 L226.087879,224.668289 L226.167363,224.718995 L226.820594,224.937804 L226.890029,224.991707 L226.927487,225.138799 L226.976822,225.168491 L227.073207,225.148848 L227.120258,225.105452 L227.149951,225.062055 L227.191063,225.042413 L227.375156,224.991707 L227.605385,224.767873 L227.728266,224.718995 L227.895,224.767873 L228.197405,224.991707 L228.376015,225.042413 L229.132941,225.042413 L229.729072,225.298224 L230.074873,226.421507 L230.644966,226.676404 L230.837281,226.630724 L230.882505,226.526116 L230.901234,226.410087 L231.015892,226.330146 L231.143797,226.366234 L231.250233,226.469015 L231.375854,226.532511 L231.561317,226.445718 L231.628467,226.316899 L231.610195,226.001247 L231.65953,225.859637 L231.757743,225.789289 L232.195819,225.629864 L232.343367,225.749547 L232.568115,226.236958 L232.634809,226.768679 L232.410974,227.137321 L232.73759,227.160161 L232.860471,226.638946 L232.849964,224.591546 L232.629327,223.870708 L232.625216,223.660121 L232.729824,223.485621 L232.906151,223.426693 L233.116738,223.472374 L233.327325,223.607588 L233.742561,224.25077 L233.815193,224.299191 L233.696881,225.016375 L233.708301,225.284063 L233.762204,225.448056 L234.166933,226.302281 L234.324074,226.559919 L234.563897,226.730307 L235.182411,226.854558 L235.770319,227.156507 L236.078662,227.262485 L237.443596,227.398613 L239.708892,227.146914 L241.644375,227.282585 L243.597217,227.226398 L244.271918,227.481752 L244.368304,227.084788 L244.27009,226.673664 L244.064071,226.290404 L243.832928,225.975665 L243.360592,225.632148 L243.211216,225.403746 L243.296182,225.042413 L243.521387,225.141539 L243.756185,225.170775 L243.94987,225.109563 L244.056762,224.937804 L244.178729,225.138342 L244.326277,225.282692 L244.701314,225.514292 L244.476566,225.769646 L244.495295,225.977036 L244.693092,226.09946 L245.003719,226.10083 L244.985904,226.32101 L245.12797,226.328776 L245.317544,226.278527 L245.442252,226.330146 L245.444079,226.467188 L245.37967,226.606056 L245.292877,226.749493 L245.227554,226.896128 L245.318915,226.852731 L245.559194,226.791519 L245.349978,226.969216 L245.080006,227.052812 L244.805923,227.065602 L244.584372,227.021292 L244.581175,227.221373 L244.626855,227.329179 L244.799527,227.481752 L244.861653,227.500024 L245.052141,227.470332 L245.121575,227.481752 L245.185071,227.57357 L245.197861,227.664931 L245.197861,227.754921 L245.227554,227.827553 L246.944684,229.664823 L247.427984,230.080059 L248.248862,230.341351 L248.711606,230.728722 L249.377171,230.873072 L250.021723,231.117463 L250.345141,231.173193 L250.612829,231.257702 L250.801032,231.481537 L250.908381,231.798559 L250.944469,232.159892 L251.060498,232.434432 L251.328642,232.735923 L251.620084,232.877533 L251.811942,232.666489 L251.684036,232.638624 L251.527809,232.554572 L251.430053,232.442655 L251.471165,232.321601 L251.612775,232.287798 L251.796867,232.330281 L252.115717,232.447223 L252.466087,232.501582 L252.770776,232.499755 L253.048513,232.414789 L253.31483,232.217906 L253.35777,232.423926 L253.341782,232.661464 L253.393858,232.851038 L253.637335,232.906312 L253.637335,233.010463 L253.31483,233.136998 L253.31483,233.2512 L253.667027,233.380475 L254.014656,233.562741 L254.281887,233.602483 L254.387866,233.308757 L254.565106,233.039242 L254.968922,233.030563 L256.027796,233.337992 L257.140116,233.365858 L257.33974,233.433008 L257.448916,233.59289 L257.523375,233.783377 L257.616564,233.939148 L257.742642,234.046497 L257.834916,234.084869 L258.508247,234.270788 L258.599151,234.31921 L258.748983,234.456251 L258.906581,234.539847 L259.060524,234.514265 L259.179294,234.404175 L259.226345,234.232417 L259.28847,234.092634 L259.426882,234.240182 L259.664877,234.639887 L259.816537,234.784694 L259.964085,234.875141 L260.309429,234.983404 L260.61823,234.986602 L261.434083,234.887018 L261.655634,234.921279 L261.947532,235.190794 L262.206541,235.350219 L263.467323,235.715206 L264.104109,235.774134 L264.728561,235.71886 L265.372657,235.546645 L266.200387,235.141916 L266.508731,235.088013 L267.186173,235.074765 L267.471676,235.007615 L267.743018,234.857326 L267.848997,234.983404 L268.015731,234.916254 L268.186119,234.929501 L268.375236,234.96833 L268.857166,234.998022 L268.978676,234.984775 L269.030295,234.921279 L269.059987,234.837683 L269.131705,234.744495 L269.220326,234.669579 L269.298439,234.639887 L270.028414,234.567712 L270.756561,234.399151 L270.953444,234.310074 L271.055768,234.241553 L271.170883,234.226478 L271.400656,234.294542 L271.725901,234.478178 L271.886697,234.596034 L271.995873,234.695617 L272.194583,234.964218 L272.27224,235.13552 L272.211028,235.21272 L271.777977,235.223227 L271.57881,235.188967 L271.400656,235.088013 L271.299245,235.318242 L271.373248,235.443864 L271.567847,235.507816 L272.401059,235.636635 L272.647277,235.727997 L272.903088,235.901582 L273.229247,236.23505 L273.549924,236.694139 L273.793858,237.229972 L273.888416,237.792299 L273.95511,238.033492 L274.250663,238.545113 L274.31827,238.829246 L274.350703,239.147639 L274.497337,239.692608 L274.533425,239.984963 L274.64717,240.105559 L275.159705,240.276861 L275.272992,240.447249 L275.211781,240.690727 L275.064233,240.803101 L274.889276,240.778433 L274.746753,240.609415 L274.644429,241.090888 L274.811163,241.566422 L275.052812,242.038301 L275.175693,242.50744 L275.230053,243.597377 L275.327352,244.16884 L275.436529,244.325981 L275.575854,244.341056 L276.153256,244.7837 L276.346484,244.976472 L276.581282,245.420486 L276.754411,245.674013 L276.952208,245.78593 L277.504485,245.756695 L277.717356,245.816993 L278.828763,246.625081 L278.943421,246.866731 L278.986361,247.007884 L279.085487,247.167309 L279.272778,247.395254 L279.301099,247.514024 L279.31252,247.672535 L279.367336,247.757958 L279.538638,247.665226 L279.78714,247.654263 L280.10462,247.852516 L280.394691,248.11792 L280.559597,248.307494 L280.836878,248.846067 L281.026909,249.028332 L281.370426,249.096853 L281.558173,249.180448 L282.072536,249.790283 L282.169835,249.552745 L282.288148,249.552745 L282.456709,249.91088 L282.992084,250.050662 L284.014871,250.020513 L284.25378,249.906312 L284.452947,249.711256 L284.687288,249.531275 L285.029435,249.448593 L285.605009,249.515287 L285.898735,249.600709 L286.315798,249.887126 L286.583486,249.974376 L287.359141,250.020513 L287.561048,250.005438 L287.617692,249.96798 L287.721387,250.029192 L288.02836,250.11964 L288.1485,250.134257 L288.613984,250.110504 L288.736408,250.134257 L288.841016,250.188617 L289.066221,250.362203 L289.209201,250.344388 L289.817665,250.020513 L290.616617,250.316066 L290.891614,250.362203 L291.0652,250.362203 L291.168895,250.332054 L291.271676,250.290028 L291.437953,250.247545 L291.548043,250.204605 L291.62707,250.154814 L291.716604,250.15253 L291.865979,250.247545 L292.070628,250.012747 L292.483123,249.831852 L292.976015,249.718565 L293.428252,249.675625 L293.872267,249.83505 L294.179697,250.202321 L294.447385,250.619841 L294.76258,250.930469 L294.874954,250.619841 L295.180557,250.683337 L295.748822,251.046497 L295.748822,251.160698 L295.417182,251.614763 L295.308462,251.674604 L295.166852,251.721655 L295.040774,251.788349 L294.988699,251.900266 L295.04717,252.271648 L295.213903,252.439753 L295.455553,252.554411 L295.748822,252.753578 L295.846122,252.642117 L295.745168,252.454827 L295.895913,252.47584 L296.458697,252.691452 L296.883069,252.976042 L297.036556,253.118108 L297.525337,253.903356 L297.314293,254.48898 L297.193696,254.597243 L297.086347,254.718296 L297.036556,255.517705 L296.392004,255.923348 L296.275975,256.019734 L296.23806,256.290619 L296.128884,256.539578 L295.963064,256.745597 L295.748822,256.882638 L295.516765,256.944764 L295.315314,256.935171 L295.220755,256.840156 L295.311203,256.644186 L295.207051,256.636877 L295.151778,256.639161 L295.104727,256.644186 L294.879522,256.835131 L294.633304,257.43857 L294.397593,257.565562 L294.094731,257.61307 L292.510531,258.355835 L292.215435,258.57099 L291.955513,258.947854 L291.283096,259.309187 L291.008556,259.498761 L290.730819,259.915824 L290.686052,260.014951 L290.619358,260.078447 L290.315583,260.17666 L290.159812,260.323751 L289.744577,260.187623 L289.604794,260.17803 L289.575559,260.280354 L289.787059,260.491855 L289.817665,260.634378 L289.068962,261.313647 L289.014145,261.440182 L288.988107,261.52058 L288.637281,262.006621 L288.340358,262.274765 L288.267269,262.401757 L288.314777,262.584479 L288.205143,262.648889 L288.099622,262.822018 L287.994556,262.924342 L287.878071,262.980986 L287.681645,263.001542 L287.565616,263.03763 L287.547344,263.19203 L287.252248,263.74385 L287.233976,264.047626 L287.337671,264.230348 L287.511257,264.378809 L287.721387,264.477479 L287.935629,264.512653 L288.238947,264.493467 L289.209201,264.232175 L289.871568,264.284251 L290.438463,264.228064 L291.435212,263.983673 L292.890593,263.946215 L293.184775,263.903732 L293.624679,263.730146 L293.905614,263.718269 L293.905614,263.604982 L293.47576,263.604982 L293.724719,263.308058 L294.132646,263.201166 L294.587624,263.236797 L294.988699,263.367443 L295.09285,263.199339 L295.246337,263.130818 L295.408502,263.153658 L295.524531,263.265575 L295.630966,263.265575 L295.848862,263.10478 L296.252221,263.179696 L297.036556,263.493521 L297.435346,263.554276 L299.466758,263.462458 L299.836314,263.367443 L300.169325,263.204364 L300.675921,262.791412 L300.920769,262.686347 L301.246928,262.711014 L301.590902,262.78593 L301.93579,262.803289 L302.260121,262.635184 L304.296101,262.463883 L306.29508,262.584479 L306.643623,262.508649 L307.302335,262.281161 L307.641285,262.233653 L308.781013,262.233653 L309.381712,262.146403 L310.635642,261.807454 L311.35648,261.778675 L312.77623,261.943125 L314.848755,262.443326 L315.078528,262.409523 L315.288658,262.279333 L315.602026,262.188429 L316.204096,262.120365 L316.5266,262.158737 L317.141459,262.319075 L317.439296,262.357904 L318.563494,262.319075 L318.907468,262.357904 L319.45472,262.642037 L320.10384,263.10478 L320.747479,263.446013 L321.268693,263.367443 L321.596222,263.558844 L322.064904,263.652033 L322.570131,263.661625 L322.994503,263.604982 L323.091802,263.554276 L323.221535,263.40079 L323.266758,263.367443 L323.376392,263.385258 L323.531705,263.467483 L324.056574,263.588537 L324.227876,263.604982 L325.779186,263.509966 L326.579052,263.315824 L326.641177,262.686347 L327.276136,262.392621 L327.686347,262.364299 L327.689545,262.250555 L327.766288,262.075141 L327.949467,262.006621 L327.876378,261.741217 L327.842118,261.665387 L327.810141,261.736649 L327.769029,261.796034 L327.710558,261.848109 L327.629247,261.901556 L327.517786,261.760403 L327.466167,261.586817 L327.494489,261.422824 L327.629247,261.313647 L327.833895,261.302227 L327.989666,261.390848 L328.271058,261.665387 L328.297096,261.335117 L328.388,261.050528 L328.549252,260.816187 L328.800495,260.634378 L328.824249,261.060121 L328.909671,261.382625 L328.885461,261.645745 L328.584426,261.901556 L328.40947,261.944495 L328.212587,261.964138 L328.070064,262.037683 L328.058187,262.233653 L328.181524,262.331866 L328.717813,262.295778 L328.745678,263.409926 L329.132135,263.239538 L329.345463,263.03763 L329.442763,263.03763 L329.715932,263.272884 L330.095537,263.120768 L330.691668,262.686347 L330.792165,262.594986 L330.810437,262.153255 L330.857488,262.006621 L330.980825,261.992003 L331.666947,262.006621 L332.015489,261.91663 L332.285004,261.701475 L332.529851,261.440182 L332.799823,261.212237 L333.194046,261.032256 L333.596491,260.93724 L335.52832,260.80431 L337.197485,260.756802 L338.13622,260.560376 L338.805439,260.5083 L339.794422,260.302281 L340.521656,260.327862 L341.182653,260.49825 L341.765993,260.515152 L342.262083,260.077076 L342.349333,259.484143 L342.432471,259.394153 L342.536623,259.358065 L342.856843,259.173973 L343.075196,258.94694 L343.409577,258.813097 L343.73939,258.611646 L343.881,258.246658 L343.844912,257.926438 Z M266.375344,217.020459 L267.316819,217.081214 L267.546592,217.172119 L267.634755,217.405546 L267.997002,217.210947 L268.00157,217.025027 L267.755352,216.882504 L266.282612,216.789316 L266.015838,216.826317 L266.214091,216.954679 L266.375344,217.020459 Z M265.908032,246.347344 L266.151966,246.339121 L266.229623,246.347344 L265.831289,245.856735 L265.222368,245.258777 L264.52574,244.836689 L263.861089,244.871863 L263.951079,245.045906 L264.074873,245.174725 L264.227903,245.263802 L264.406971,245.317705 L264.365401,245.23411 L264.355809,245.192997 L264.341191,245.160107 L264.289115,245.101179 L264.289115,244.976472 L264.63583,245.020782 L265.032337,245.357904 L265.380879,245.793239 L265.585985,246.128077 L265.382249,245.946269 L265.204096,245.72883 L265.001274,245.538342 L264.729475,245.433733 L264.729475,245.557984 L265.27353,246.190203 L265.571824,246.462915 L266.015838,246.689947 L265.951885,246.441902 L265.908032,246.347344 Z M267.173839,246.940277 L266.991574,246.866731 L266.88057,246.747962 L266.620648,246.677157 L266.333774,246.656601 L266.133237,246.689947 L266.299057,246.878608 L267.089787,247.395254 L267.46391,247.492554 L267.517813,247.55605 L267.56258,247.662942 L267.659879,247.571124 L267.796921,247.333586 L267.839404,247.085997 L267.543851,246.982759 L267.173839,246.940277 Z M261.770749,242.834056 L261.275572,242.907602 L261.411243,243.064742 L261.821911,243.364863 L261.936569,243.275786 L262.068129,243.29954 L262.181873,243.413285 L262.250394,243.593723 L261.926976,243.603772 L261.821911,243.593723 L262.031128,243.750864 L262.282827,243.827607 L262.54549,243.819384 L262.78714,243.71843 L262.170453,243.075706 L261.770749,242.834056 Z M269.324934,248.16086 L268.552933,248.185527 L268.548365,247.969458 L268.517759,247.796329 L268.445584,247.665226 L268.294382,247.654263 L268.138154,247.791761 L267.94721,248.080462 L268.303975,248.438597 L269.406702,248.569243 L269.675303,248.763842 L269.792245,248.763842 L269.609523,248.322569 L269.324934,248.16086 Z M257.637577,214.941539 L258.104431,214.74557 L258.401812,214.85429 L258.537026,215.092285 L258.618337,215.330737 L258.748983,215.439914 L258.824813,215.478285 L259.074685,215.667859 L259.129045,215.733183 L259.150972,215.926868 L259.213097,215.998586 L259.314965,216.037872 L259.673557,216.315609 L259.941701,216.445342 L260.229945,216.480972 L260.514535,216.374537 L261.040774,216.964272 L261.275572,217.173489 L261.485246,217.31053 L261.629139,217.376767 L261.767551,217.405546 L261.895457,217.444831 L262.250394,217.761854 L262.111982,217.456251 L261.855714,217.072535 L261.540062,216.744092 L260.898708,216.49559 L260.309886,216.012747 L259.586307,215.787999 L259.245987,215.510262 L258.428763,214.586145 L258.169755,214.464635 L257.847707,214.48108 L257.402779,214.618121 L257.428817,214.930576 L257.637577,214.941539 Z M270.419439,249.03153 L270.112923,249.096853 L270.297929,249.360886 L270.649212,249.654612 L271.032014,249.782974 L271.303357,249.552745 L270.751993,249.169028 L270.419439,249.03153 Z M242.80603,208.124181 L242.868156,208.222851 L243.135843,208.167577 L243.451496,208.259852 L243.730147,208.377708 L243.885917,208.402375 L244.019304,208.307816 L244.143099,208.247975 L244.23583,208.178084 L244.271918,208.053833 L244.230805,207.932323 L244.134876,207.926384 L244.024786,207.969781 L243.940734,207.991251 L243.540573,208.004041 L243.403988,207.991251 L243.319936,207.941916 L243.194771,207.790713 L243.131275,207.757823 L242.874551,207.777923 L242.706447,207.849641 L242.602752,207.991251 L242.546108,208.222851 L242.737509,208.118242 L242.80603,208.124181 Z M248.028226,211.954491 L248.016349,211.789585 L247.960162,211.657568 L247.859665,211.557984 L247.714857,211.491748 L247.792971,211.442413 L247.94463,211.307655 L248.028226,211.259691 L247.745463,211.077426 L247.396464,211.114884 L246.632686,211.491748 L246.499756,211.393535 L246.393777,211.375262 L246.300589,211.415918 L246.204203,211.491748 L246.444939,211.681322 L248.028226,211.954491 Z M252.462432,212.477533 L252.616832,212.40079 L252.780825,212.17056 L252.929744,212.124879 L253.264582,212.335467 L253.432229,212.174671 L253.444563,211.945812 L253.31483,211.954491 L253.068613,211.832067 L252.815086,211.833438 L252.566127,211.922058 L252.340008,212.060927 L252.462432,212.477533 Z M237.559624,208.855069 L238.068962,208.80345 L238.260363,208.855069 L238.428924,208.941862 L238.616671,208.958764 L238.877964,208.80345 L239.020944,208.664124 L239.021857,208.585554 L238.924101,208.471809 L238.770158,208.222851 L238.653216,208.222851 L238.653216,208.455821 L238.410652,208.234271 L238.341218,208.118242 L238.233868,208.222851 L238.297821,208.312385 L238.385985,208.489168 L238.44811,208.5819 L238.115099,208.508354 L237.809953,208.497391 L237.528105,208.557689 L236.575666,209.188537 L236.400253,209.383136 L237.177278,208.988913 L237.559624,208.855069 Z M249.118162,210.118135 L249.431988,209.974698 L249.562634,209.855929 L249.606487,209.785581 L249.523805,209.75132 L249.271192,209.741728 L249.052383,209.691936 L248.843166,209.559462 L248.673691,209.371259 L248.573651,209.151535 L248.456709,209.151535 L248.356212,209.318269 L248.25343,209.443434 L248.170749,209.568142 L248.135575,209.741728 L248.799313,210.057837 L249.118162,210.118135 Z M284.774538,252.05832 L284.59547,252.101717 L284.652114,252.11131 L284.795094,252.187139 L284.812452,252.373973 L284.855849,252.364836 L285.007051,252.236474 L285.002483,252.125014 L284.774538,252.05832 Z M281.439404,250.310584 L281.406057,250.362203 L281.479146,250.467725 L281.547667,250.486454 L281.662325,250.283176 L281.621669,250.251656 L281.439404,250.310584 Z M273.023684,249.450877 L273.071192,249.389665 L273.05155,249.364998 L273.001301,249.332565 L273.011807,249.248969 L273.115045,249.03153 L273.0986,248.891291 L273.035561,248.874846 L272.973893,248.948848 L272.953336,248.954787 L273.009067,248.816375 L272.989424,248.756533 L272.907656,248.806325 L272.847358,248.872562 L272.787059,248.902711 L272.724477,248.910477 L272.678797,248.972602 L272.698439,249.04295 L272.927299,249.438087 L273.023684,249.450877 Z M273.242951,247.621373 L273.186307,247.621373 L273.12007,247.641472 L273.092205,247.677103 L273.177628,247.881295 L273.257112,247.966261 L273.331114,247.945248 L273.350757,247.850689 L273.329287,247.757958 L273.242951,247.621373 Z M213.554062,235.40001 L213.507925,235.358898 L213.431181,235.32144 L213.115986,235.285352 L212.988537,235.305452 L212.97392,235.388134 L213.034675,235.468531 L213.184507,235.507816 L213.498332,235.67455 L213.616187,235.602375 L213.682424,235.505532 L213.657757,235.449802 L213.554062,235.40001 Z M215.76911,235.146027 L215.728454,235.100803 L215.736676,235.076593 L215.790123,235.063345 L215.807481,235.021776 L215.714293,235.029542 L215.545275,235.088013 L215.498224,235.15562 L215.505533,235.221857 L215.365294,235.158817 L215.221857,235.216832 L215.140546,235.205868 L215.050555,235.269821 L214.939552,235.432444 L214.952342,235.460766 L215.129126,235.39864 L215.466248,235.368948 L215.734849,235.283068 L215.867323,235.199473 L215.807481,235.192164 L215.76911,235.146027 Z M211.893576,232.62629 L211.806783,232.661464 L211.707656,232.63771 L211.658321,232.507978 L211.59985,232.477372 L211.518082,232.548633 L211.485649,232.617154 L211.467376,232.625833 L211.452759,232.540411 L211.480167,232.462754 L211.513971,232.41616 L211.480167,232.390122 L211.413473,232.359059 L211.280086,232.226586 L211.181416,232.18593 L211.169996,232.213795 L211.255876,232.301502 L211.341298,232.446309 L211.333533,232.584721 L211.30384,232.676996 L211.327137,232.708058 L211.379213,232.72359 L211.413473,232.775209 L211.41256,232.865656 L211.261814,232.955647 L211.513514,232.994018 L211.656951,232.946054 L211.743744,232.872051 L211.812264,232.906312 L211.859772,232.989907 L211.903625,233.025995 L212.035185,233.035588 L211.988591,232.883928 L211.893576,232.62629 Z M201.6214,231.991331 L201.623684,231.870278 L201.516792,231.605788 L201.435024,231.410732 L201.427715,231.364138 L201.351885,231.201058 L201.277883,231.117463 L201.248647,231.18507 L201.27971,231.395201 L201.525015,231.883982 L201.6214,231.991331 Z M210.765267,230.277399 L210.852974,230.310289 L210.951187,230.213903 L210.975397,230.086454 L210.831961,229.949869 L210.671622,229.897794 L210.593965,229.903275 L210.565186,229.944388 L210.634164,229.990068 L210.715932,230.069552 L210.805923,230.091936 L210.882666,230.082343 L210.820541,230.158173 L210.765267,230.277399 Z M210.186038,229.802778 L210.249534,229.870385 L210.381094,229.947585 L210.401193,229.929313 L210.296585,229.828816 L210.186038,229.802778 Z M198.750381,228.97185 L198.508274,228.923885 L198.393616,228.925256 L197.657246,229.148633 L197.705211,229.197968 L198.991117,229.08331 L199.029945,229.040827 L198.917114,228.986924 L198.750381,228.97185 Z M230.969755,227.579965 L230.888443,227.616052 L230.816268,227.663103 L230.750488,227.659449 L230.667806,227.624275 L230.575075,227.549359 L230.510665,227.437898 L230.508838,227.336488 L230.530308,227.266597 L230.41428,227.056923 L230.360377,227.109456 L230.374994,227.220459 L230.333425,227.257917 L230.273127,227.237818 L230.242978,227.184372 L230.180852,227.185285 L230.197297,227.305425 L230.258966,227.484036 L230.204606,227.612398 L230.037415,227.670412 L229.88667,227.677721 L229.790284,227.625645 L229.723134,227.439269 L229.682478,227.487233 L229.587006,227.472159 L229.285058,227.236904 L229.208771,227.133666 L229.172683,227.014897 L229.103249,226.966932 L229.035642,226.976982 L228.978085,227.004847 L228.850636,226.897498 L228.790338,226.972871 L228.846981,227.057837 L229.02879,227.128641 L229.839162,227.785984 L230.020514,227.791466 L230.19547,227.715179 L230.329771,227.694166 L230.407884,227.749439 L230.456762,227.803799 L230.510665,227.843085 L231.10908,227.642547 L231.082585,227.594583 L230.969755,227.579965 Z M277.795013,224.467295 L277.89551,224.442171 L278.077319,224.222904 L278.140815,224.039269 L278.318969,223.786199 L278.312573,223.691183 L278.001946,223.73458 L277.731517,224.004095 L277.704566,224.125148 L277.735629,224.237065 L277.885461,224.264017 L277.925203,224.335279 L277.876781,224.410195 L277.795013,224.467295 Z M284.127702,223.953389 L284.239162,223.89035 L284.491318,223.638651 L284.537913,223.567846 L284.467108,223.559167 L284.351079,223.632256 L284.236878,223.635453 L284.118109,223.565562 L284.050045,223.565562 L283.992487,223.634083 L283.976042,223.699406 L284.127702,223.866597 L284.127702,223.953389 Z M284.217692,222.506688 L284.267484,222.584802 L284.484466,222.75519 L284.513702,222.823711 L284.526492,222.955727 L284.596384,223.0311 L284.703733,223.018766 L284.734796,222.889034 L284.632471,222.69946 L284.505936,222.551912 L284.412291,222.490243 L284.180691,222.232605 L284.085219,222.209308 L284.037711,222.278742 L284.077453,222.351374 L284.217692,222.506688 Z M181.840828,221.433196 L182.011216,221.477049 L182.205358,221.57846 L182.389908,221.629165 L182.653941,221.500346 L182.704646,221.501717 L182.785044,221.522273 L182.851738,221.426801 L182.817934,221.304834 L182.73982,221.286105 L182.661707,221.328131 L182.587704,221.34823 L182.024007,221.168706 L182.029032,221.107951 L182.002994,221.078715 L181.929448,221.135816 L181.871434,221.21393 L181.839458,221.283364 L181.854989,221.353255 L181.776419,221.383404 L181.840828,221.433196 Z M280.332565,220.584452 L280.415247,220.604552 L280.474632,220.657084 L280.517114,220.626935 L280.57924,220.430052 L280.626748,220.363815 L280.662835,220.265146 L280.72359,220.261491 L280.835051,220.469337 L280.891695,220.704135 L280.995389,220.767174 L281.015489,220.634244 L280.899003,220.408582 L280.72359,220.199822 L280.532646,220.072831 L280.48194,220.104807 L280.485595,220.17013 L280.415247,220.308999 L280.286885,220.447868 L280.166745,220.503598 L280.10462,220.572575 L280.192783,220.613231 L280.332565,220.584452 Z M269.595362,219.90564 L269.700428,219.943098 L269.733774,219.922542 L269.778998,219.954518 L269.874014,220.076942 L270.012426,220.117597 L270.081403,220.060954 L269.958979,219.824329 L269.858482,219.643891 L269.792245,219.617853 L269.732861,219.629273 L269.543744,219.612371 L269.469741,219.652113 L269.414011,219.702818 L269.366503,219.809254 L269.424061,219.888281 L269.595362,219.90564 Z M272.165348,217.942292 L272.185904,218.010356 L272.149816,218.10263 L272.166261,218.131409 L272.241177,218.12273 L272.283203,218.160188 L272.310612,218.158361 L272.33802,218.085272 L272.381416,218.045987 L272.422529,218.079333 L272.32797,218.273019 L272.386898,218.351589 L272.466382,218.282612 L272.439888,218.220486 L272.406998,218.181658 L272.507495,218.190337 L272.648191,218.341539 L272.745033,218.346564 L272.777923,218.394072 L272.764219,218.456198 L272.874309,218.537966 L272.987597,218.501878 L272.962473,218.382652 L272.681537,218.024974 L272.36086,217.827177 L272.11921,217.815757 L272.038813,217.853215 L272.070789,217.897068 L272.165348,217.942292 Z M264.962446,217.755002 L265.050152,217.784694 L265.071622,217.903463 L265.1205,217.933156 L265.181712,217.851844 L265.206836,217.787892 L265.309161,217.792917 L265.310531,217.730791 L265.280839,217.67232 L265.266221,217.630751 L265.234245,217.596034 L265.251146,217.531167 L265.254801,217.45214 L265.151106,217.405546 L264.996249,217.425188 L264.730389,217.590095 L264.723993,217.697901 L264.829515,217.773274 L264.962446,217.755002 Z M259.551133,216.964272 L259.537429,216.889356 L259.496773,216.859664 L259.445611,216.902147 L259.409523,216.846873 L259.406326,216.711202 L259.429623,216.591062 L259.399931,216.521628 L259.321817,216.536246 L259.287556,216.567309 L259.295779,216.645422 L259.280704,216.689276 L259.226345,216.695671 L259.151885,216.819922 L259.108489,216.861491 L259.096155,216.919505 L259.108489,216.959247 L259.15691,217.041472 L259.177923,217.168007 L259.280704,217.292715 L259.438759,217.30916 L259.455661,217.240639 L259.422771,217.151562 L259.484896,217.03462 L259.551133,216.964272 Z M191.775424,214.864339 L191.757609,214.792621 L191.806487,214.663802 L191.935763,214.564218 L192.131732,214.559194 L192.231316,214.481994 L192.298923,214.467833 L192.369728,214.472401 L192.415865,214.509859 L192.395309,214.564218 L192.39805,214.623146 L192.461545,214.608985 L192.533264,214.538637 L192.520473,214.463721 L192.322677,214.387892 L192.1363,214.366422 L191.866785,214.53544 L191.687261,214.809066 L191.65026,214.98722 L191.716496,214.940169 L191.775424,214.864339 Z M254.145302,212.864904 L254.058966,213.065898 L254.048916,213.111578 L254.246713,213.088738 L254.305184,213.044428 L254.305184,212.909671 L254.247626,212.826989 L254.145302,212.864904 Z M252.186522,211.811054 L252.211646,212.029864 L252.292501,212.022555 L252.367417,211.982356 L252.407159,211.942614 L252.535978,211.887798 L252.562473,211.79598 L252.474309,211.663963 L252.279253,211.547935 L252.101556,211.543367 L252.065469,211.596813 L252.121199,211.64295 L252.186522,211.811054 Z M251.313111,211.212183 L251.471165,211.087475 L251.736112,210.725229 L251.705963,210.646202 L251.492635,210.486777 L251.401731,210.45343 L251.33321,210.510987 L251.294382,210.605089 L251.332297,210.639806 L251.414521,210.605546 L251.460202,210.600064 L251.434621,210.734365 L251.397163,210.775021 L251.236824,210.711525 L251.21033,210.68366 L251.139068,210.812935 L251.13313,211.050931 L251.205762,211.212183 L251.313111,211.212183 Z M236.020191,207.126519 L236.040291,207.039726 L235.998265,206.948365 L235.892743,206.977143 L235.768492,207.235238 L235.760726,207.392836 L235.835642,207.392836 L236.020191,207.126519 Z M331.776123,250.342104 L331.753739,250.380019 L331.764246,250.420674 L331.814038,250.420674 L331.794395,250.193642 L331.496101,250.08675 L331.559597,250.204605 L331.776123,250.342104 Z M276.914293,250.903974 L277.020729,250.970211 L277.17924,250.949198 L277.252329,250.81444 L277.147264,250.807131 L277.104324,250.712116 L277.049507,250.577358 L276.996518,250.570049 L276.939874,250.676942 L276.914293,250.759624 L277.001086,250.825403 L276.932565,250.856923 L276.914293,250.903974 Z M275.365267,249.275464 L275.40638,249.074013 L275.377144,249.016912 L275.305882,248.976257 L275.218176,248.807696 L275.12179,248.694865 L275.138235,248.796732 L275.190311,249.005492 L275.365267,249.275464 Z M271.848782,243.316442 L271.739149,243.181685 L271.670628,243.150165 L271.635454,243.097176 L271.408422,243.166153 L271.428978,243.193561 L271.465066,243.238785 L271.52445,243.291775 L271.574242,243.28675 L271.63454,243.289947 L271.711283,243.393185 L271.83188,243.44115 L271.892635,243.419223 L271.929179,243.546672 L271.987194,243.608797 L272.028306,243.610168 L271.950193,243.468558 L271.848782,243.316442 Z M270.990445,238.219868 L271.117437,237.966798 L270.979939,237.958576 L271.021051,238.107037 L270.940197,238.131705 L270.990445,238.219868 Z M222.864663,230.219384 L222.805735,230.303893 L222.760968,230.341351 L222.751375,230.388402 L222.776956,230.388402 L222.982518,230.293844 L223.112251,230.293844 L223.099917,230.227607 L222.864663,230.219384 Z M287.373758,229.990068 L287.319398,229.994636 L287.254989,229.927943 L287.214333,229.840236 L287.164542,229.821964 L287.003289,229.878151 L287.020191,230.0056 L287.340868,230.188322 L287.373758,230.163654 L287.439995,230.118887 L287.437254,230.073664 L287.423093,229.965401 L287.373758,229.990068 Z M281.922704,225.145651 L281.807132,225.063426 L281.69156,224.97709 L281.631262,224.897149 L281.583754,224.888926 L281.598829,224.946027 L281.662325,225.042413 L281.699326,225.191331 L281.837738,225.296396 L281.994422,225.390955 L282.146538,225.335225 L282.173946,225.184479 L282.131464,225.205949 L282.09629,225.210974 L282.09629,225.253 L282.065684,225.298224 L281.982088,225.28726 L282.018176,225.225135 L281.922704,225.145651 Z M214.431128,219.789611 L214.42656,219.66536 L214.333371,219.706016 L214.333371,219.848996 L214.287234,219.973247 L214.238356,220.038113 L214.237899,220.117597 L214.377225,220.193427 L214.411485,220.194798 L214.370829,220.074658 L214.394583,219.952691 L214.431128,219.789611 Z M267.652114,219.634298 L267.81565,219.55253 L267.910209,219.490404 L267.818848,219.282558 L267.681349,219.296719 L267.584963,219.35656 L267.564407,219.518269 L267.633842,219.54248 L267.61694,219.591815 L267.652114,219.634298 Z M264.939149,219.203074 L265.1406,219.128158 L265.085326,219.066032 L265.034621,218.975128 L265.002644,218.895644 L264.907172,218.858643 L264.813527,218.922595 L264.723993,218.93904 L264.760995,218.985635 L264.806218,219.039538 L264.734957,219.058267 L264.694301,219.025377 L264.626237,218.907064 L264.55726,219.066032 L264.939149,219.203074 Z M209.561586,218.363923 L209.561586,218.274846 L209.442816,218.096235 L209.371098,218.190337 L209.25507,218.28992 L209.394852,218.496853 L209.561586,218.363923 Z M286.755244,227.021292 L286.688094,226.973328 L286.541003,226.746296 L286.482532,226.676404 L286.304378,226.57408 L286.11252,226.49825 L285.894167,226.480892 L285.623281,226.56129 L285.446041,226.681429 L285.296209,226.811619 L285.119425,226.901609 L284.863615,226.896128 L284.618767,226.77279 L284.4196,226.59555 L284.201704,226.455311 L283.896101,226.445718 L284.014871,226.56129 L283.933103,226.94866 L284.133183,227.230052 L284.405439,227.449319 L284.540197,227.648486 L284.647546,227.920741 L284.884628,228.021238 L285.142266,227.952718 L285.300777,227.712438 L285.39899,227.712438 L285.505426,228.058696 L285.589935,227.917544 L285.615972,227.772737 L285.58628,227.627473 L285.505426,227.481752 L285.809658,227.567631 L285.977305,227.647572 L286.052678,227.769539 L286.00517,227.946779 L285.912439,228.135897 L285.851227,228.314507 L285.89234,228.460685 L286.109779,228.621024 L286.446444,228.781362 L286.782653,228.854451 L287.008771,228.746645 L287.202456,228.897847 L287.299756,229.04905 L287.376042,229.208932 L287.570641,229.472051 L287.617692,229.575746 L287.677077,229.655687 L287.768438,229.678527 L287.889948,229.605895 L287.878071,229.486669 L287.812291,229.375665 L287.768438,229.323133 L287.897714,229.052247 L288.065361,228.997888 L288.165401,229.137213 L288.091856,229.437791 L288.42304,229.186091 L288.611243,229.112546 L288.852893,229.102953 L288.672455,228.826586 L288.624947,228.662593 L288.964353,227.90384 L289.006836,227.67498 L288.971662,227.467134 L288.852893,227.262485 L288.577896,226.9916 L288.42304,227.008045 L288.296048,227.150111 L288.091856,227.262485 L287.909591,227.198533 L287.404364,226.868263 L287.233976,226.791519 L287.117491,226.82852 L286.890002,226.985205 L286.755244,227.021292 Z M278.407589,221.080086 L278.188322,221.353255 L278.286535,221.374268 L278.361908,221.371984 L278.434083,221.39254 L278.51174,221.479333 L278.864851,221.253215 L279.232579,221.414924 L279.481081,221.750219 L279.479253,222.045772 L279.336273,221.983646 L279.265012,222.11612 L279.275518,222.326707 L279.370077,222.506688 L279.518995,222.549628 L279.621777,222.439538 L279.682988,222.265038 L279.701717,222.107897 L279.879415,221.967201 L280.196437,222.131194 L280.348553,222.411672 L280.015086,222.622716 L280.405654,222.933344 L280.804445,223.016482 L281.184963,223.016482 L281.526197,223.083176 L282.292716,223.583834 L282.666839,223.688899 L282.930416,223.428977 L282.735817,223.402026 L282.518834,223.316603 L282.385447,223.313862 L282.049239,222.939739 L281.977977,222.762956 L281.915395,222.201999 L281.814441,221.937052 L281.677399,221.688093 L281.526197,221.479333 L281.230644,221.19246 L280.836878,220.936649 L280.43489,220.833411 L280.121521,221.006997 L279.998184,220.797323 L279.777547,220.806916 L279.272778,221.006997 L278.718216,220.99649 L278.407589,221.080086 Z M272.729502,218.856359 L272.563682,218.779615 L272.421159,218.813419 L272.366799,219.148714 L272.219251,219.080193 L272.16078,219.033142 L272.203263,219.608717 L272.456333,219.468934 L272.778837,219.229112 L273.020944,219.495429 L272.793911,219.681349 L273.071192,219.870466 L273.524343,220.014816 L274.17392,220.134956 L274.604687,220.436447 L274.959167,220.546081 L275.674067,220.558871 L276.097982,220.503598 L276.405869,220.366099 L276.614629,220.261948 L276.746189,220.338234 L276.800092,220.501771 L276.785017,220.660282 L276.721521,220.681295 L276.612802,220.658911 L276.508193,220.650689 L276.463426,220.712814 L276.45155,220.845288 L276.4214,220.914265 L276.380288,220.955835 L276.346484,221.006997 L276.346484,221.111148 L278.297499,220.660282 L278.426318,220.696369 L278.566557,220.766261 L278.680301,220.769458 L278.727352,220.602268 L278.667968,220.454263 L277.618686,219.377573 L277.546054,219.148714 L277.693602,219.230939 L277.75116,219.253322 L277.570265,219.007561 L277.252329,218.830321 L276.873181,218.723428 L276.518243,218.687341 L276.237308,218.797431 L276.021696,219.027661 L275.773194,219.230939 L275.391762,219.253322 L274.993885,219.219976 L274.547129,219.253322 L274.104028,219.219976 L273.723053,218.976042 L273.025512,218.831691 L272.85421,218.859556 L272.729502,218.856359 Z M283.050555,223.344925 L283.028172,223.958414 L282.977466,224.231584 L282.843166,224.509778 L282.639431,224.727217 L282.385447,224.823603 L282.537106,225.083525 L283.036851,225.44029 L283.146028,225.692903 L283.260229,225.784264 L283.809765,226.115905 L284.014871,226.205895 L283.8792,225.781067 L284.142319,225.643568 L284.47396,225.762337 L284.540197,226.10083 L284.663991,226.246551 L284.703733,226.315072 L284.756265,226.445718 L284.824329,226.412371 L285.005681,226.363036 L285.076486,226.330146 L285.249158,226.504189 L285.484413,226.218686 L285.836609,225.514292 L285.673073,225.408314 L285.351482,225.339793 L285.185205,225.284063 L285.069177,225.196356 L284.954976,225.084896 L284.820675,224.986226 L284.637496,224.937804 L284.853565,224.829998 L285.138154,224.766046 L285.310827,224.641338 L285.185205,224.351267 L285.066436,224.529421 L284.912493,224.553631 L284.756265,224.452221 L284.637496,224.246658 L284.547505,224.314265 L284.467108,224.393293 L284.39813,224.486938 L284.333264,224.591546 L284.540197,224.718995 L284.307226,224.696155 L284.195309,224.568706 L284.123134,224.398774 L284.014871,224.246658 L283.827124,224.186817 L283.438383,224.243461 L283.299971,224.183619 L283.208153,223.906795 L283.313675,223.696208 L283.485434,223.52719 L283.575424,223.370963 L283.497767,223.133424 L283.305909,222.983592 L283.061062,222.900454 L282.823523,222.862539 L282.997109,223.153524 L283.050555,223.344925 Z M211.32531,234.70521 L211.199689,234.492796 L211.310236,234.294542 L211.310236,234.169378 L211.093253,234.139229 L210.903679,234.050152 L210.549198,233.824947 L210.628226,233.681053 L210.658375,233.537159 L210.634164,233.391439 L210.549198,233.2512 L210.666597,233.2512 L210.844751,232.934177 L210.92789,232.738207 L210.925149,232.608932 L210.841554,232.453161 L210.761613,232.24166 L210.657918,232.056654 L210.499863,231.97717 L210.289276,231.989047 L209.583512,231.413016 L209.353283,231.141217 L209.340035,230.948445 L209.422717,230.741513 L209.47662,230.431342 L209.391654,230.166852 L209.178326,229.981846 L208.899218,229.859422 L208.017128,229.61092 L206.738987,229.294354 L204.686562,229.045852 L204.541298,229.156399 L204.438974,229.196141 L204.44811,229.227661 L204.637227,229.323133 L204.820406,229.323133 L204.992622,229.356023 L205.163924,229.437791 L204.904001,229.494435 L204.544496,229.677614 L204.228387,229.89825 L204.092259,230.074577 L204.005923,230.29293 L203.339901,230.817799 L203.175908,231.540465 L203.366396,232.208314 L204.716255,234.576391 L204.900804,234.753175 L205.368572,234.831288 L205.448056,235.02406 L205.163924,235.546645 L205.057488,235.442493 L205.204579,235.207239 L205.188591,235.03685 L205.105909,234.937267 L205.057488,234.921279 L205.005412,235.055123 L204.885272,235.162015 L204.637227,235.326922 L204.198238,235.70607 L204.145705,235.775504 L203.496128,235.775504 L203.232552,235.723428 L202.930147,235.582733 L202.681645,235.383565 L202.579777,235.150138 L201.788134,234.570909 L201.615005,234.399151 L201.505829,234.399151 L201.543287,234.568168 L201.720984,234.983404 L201.829247,235.442493 L201.974511,235.760886 L202.13759,235.952288 L202.579777,236.244643 L202.774833,236.424624 L203.286455,237.104807 L203.429892,237.173328 L203.994046,237.162821 L204.178595,237.208958 L204.485568,237.343716 L204.637227,237.391681 L205.665952,237.411323 L205.809389,237.568007 L205.995766,237.636985 L207.105802,237.515931 L208.305829,237.08288 L210.31303,236.071057 L210.608126,236.01487 L210.892259,235.886965 L211.257703,235.582733 L211.580207,235.240129 L211.739632,234.983404 L211.550972,234.884734 L211.32531,234.70521 Z M195.819976,228.825215 L195.58061,228.74299 L195.113299,228.649802 L194.956615,228.737509 L195.195981,228.845772 L195.549091,228.866785 L195.85515,228.856735 L195.938746,228.826586 L195.860175,228.822018 L195.819976,228.825215 Z M227.344093,227.421453 L227.308462,227.188483 L227.198829,227.060121 L227.123456,227.008045 L226.960377,226.923993 L226.787247,226.882423 L226.68675,226.947747 L226.68675,227.087986 L226.726492,227.215434 L226.79684,227.320043 L226.893226,227.345624 L227.055849,227.332833 L227.220755,227.431503 L227.344093,227.421453 Z M212.140707,217.614763 L212.11741,217.546242 L212.056198,217.418336 L211.981282,217.347532 L211.922354,217.361693 L211.929663,217.451683 L211.969862,217.593293 L211.934688,218.657192 L212.008234,218.72754 L212.072186,218.619734 L212.153954,218.506903 L212.244859,218.207696 L212.197808,217.817127 L212.140707,217.614763 Z M210.085084,228.939417 L209.725579,229.030778 L209.885917,229.318565 L210.322166,229.508596 L210.750193,229.48804 L210.934742,229.409926 L210.674363,229.205734 L210.085084,228.939417 Z M273.947344,250.624866 L273.95511,250.668719 L273.96516,250.694757 L273.976123,250.750487 L273.597432,250.678769 L273.518404,250.63857 L273.449884,250.686535 L273.476835,250.75734 L273.564085,250.81444 L273.644482,250.896665 L273.755943,250.936864 L273.886589,250.925444 L274.002618,250.845503 L274.000334,250.690646 L273.947344,250.624866 Z M272.851012,250.570049 L272.80122,250.586494 L272.778837,250.676942 L272.930953,250.778353 L273.172603,250.763278 L273.194073,250.668719 L272.97572,250.595174 L272.851012,250.570049 Z M220.520796,234.101771 L220.494301,234.125981 L220.475115,234.200897 L220.420755,234.319667 L220.278232,234.458078 L220.100992,234.542131 L219.914615,234.551723 L219.46649,234.725309 L219.36919,234.802053 L219.254075,234.932699 L219.106071,235.023146 L218.933398,235.071111 L218.620944,235.334687 L218.430456,235.402751 L218.496693,235.452086 L218.836099,235.439296 L219.056736,235.372145 L219.117491,235.29997 L219.199259,235.246524 L219.304324,235.216832 L219.762043,234.986602 L220.386495,234.755915 L220.653269,234.532538 L220.640022,234.233787 L220.520796,234.101771 Z M222.542615,233.836367 L222.43892,233.869714 L221.967497,234.074819 L221.92136,234.108623 L221.983486,234.114104 L221.920446,234.215515 L221.708946,234.384533 L221.44948,234.412398 L221.280463,234.228306 L221.235696,234.200897 L221.289142,234.426102 L221.499729,234.644912 L221.776096,234.641714 L222.266705,234.241553 L222.540331,234.066597 L222.774215,233.87885 L222.754572,233.792057 L222.542615,233.836367 Z M271.053484,219.414118 L271.193267,219.416859 L271.479683,219.320473 L271.520339,219.21358 L271.636367,219.027661 L271.646417,218.920768 L271.53313,218.863668 L271.497042,218.913003 L271.477856,219.038167 L271.331222,219.058267 L271.111498,218.995684 L271.018767,219.027661 L271.023792,219.304028 L271.053484,219.414118 Z M264.024168,217.513352 L264.024168,217.627096 L264.130604,217.626183 L264.39281,217.454424 L264.594261,217.283579 L263.983512,217.31053 L263.846014,217.367174 L263.973463,217.42062 L264.024168,217.513352 Z M256.191332,213.74471 L256.301879,213.775316 L256.387301,213.761612 L256.448513,213.795872 L256.494194,213.851603 L256.49328,213.971286 L256.60474,214.080462 L256.846847,214.037522 L256.988457,213.885863 L256.902121,213.76755 L256.686052,213.64467 L256.596061,213.544173 L256.498762,213.399366 L256.1959,213.332215 L256.08581,213.295671 L256.130577,213.021588 L256.024141,212.832927 L255.941003,212.889114 L255.929126,213.034835 L255.961102,213.142641 L255.764219,213.196544 L255.746404,213.366476 L255.88847,213.530469 L256.191332,213.74471 Z M253.968975,212.248674 L253.932888,212.333183 L253.835131,212.41358 L253.788537,212.514991 L253.890862,212.668477 L254.071756,212.780852 L254.252651,212.756184 L254.370964,212.631019 L254.344469,212.536461 L254.210625,212.51225 L254.138907,212.417235 L254.250824,212.294811 L254.438571,212.235883 L254.53313,212.154115 L254.51166,212.033518 L254.387866,211.859019 L254.196007,211.801462 L253.841527,211.89465 L253.683015,212.146806 L253.828736,212.227661 L253.968975,212.248674 Z M250.316362,210.60783 L250.442897,210.626559 L250.546592,210.604175 L250.612829,210.598694 L250.684547,210.677264 L250.773167,210.805626 L250.816107,210.764057 L250.753068,210.538852 L250.69414,210.412317 L250.642521,210.274819 L250.45112,210.072454 L250.281188,210.11311 L250.252866,210.316845 L250.227285,210.410947 L250.173839,210.398613 L250.169271,210.437442 L250.224087,210.531543 L250.316362,210.60783 Z M246.999501,209.175289 L247.026452,209.212747 L247.052947,209.291775 L247.122838,209.32101 L247.355809,209.45394 L247.48006,209.497337 L247.544469,209.624785 L247.618015,209.742641 L247.725364,209.817557 L247.813984,209.811162 L247.895752,209.713862 L247.914938,209.600118 L247.852356,209.487744 L247.812157,209.433384 L247.714857,209.301367 L247.484628,209.093978 L247.374538,208.975209 L247.376365,208.88065 L247.240694,208.840451 L247.122838,208.851871 L247.006809,208.873341 L246.852866,208.974752 L246.896719,209.111793 L246.999501,209.175289 Z M244.459208,209.105398 L244.674363,209.047841 L244.911902,208.94506 L245.062647,208.823093 L245.466006,208.77193 L245.590257,208.781523 L245.717706,208.74909 L245.745114,208.674174 L245.529045,208.634432 L245.349978,208.633062 L244.987274,208.664124 L244.872159,208.667322 L244.647411,208.699755 L244.569298,208.794771 L244.595336,208.94506 L244.453726,208.928615 L244.393885,208.961505 L244.432713,209.074335 L244.459208,209.105398 Z M240.642602,208.249345 L240.675491,208.134687 L240.793347,208.069364 L240.972415,208.105909 L241.05464,208.083982 L241.070628,207.963385 L241.119963,207.948311 L241.188484,207.955163 L241.229139,207.837307 L241.193052,207.705291 L241.152396,207.652758 L241.008959,207.687018 L240.737617,207.794368 L240.579562,207.97846 L240.590069,208.196813 L240.642602,208.249345 Z M238.327514,207.716254 L238.480086,207.754626 L238.927755,207.919075 L239.096773,207.931409 L239.387758,207.89989 L239.496021,207.919075 L239.68194,207.976176 L240.015408,208.127835 L240.079361,208.085352 L240.149252,207.979374 L240.261169,207.984398 L240.378111,208.047894 L240.469472,208.017745 L240.48409,207.911766 L240.46125,207.863345 L239.477749,207.749144 L238.929583,207.626263 L238.489679,207.461357 L238.184534,207.422528 L238.120124,207.515717 L238.210571,207.55957 L238.327514,207.716254 Z M237.051657,207.00912 L237.128857,207.128346 L237.307925,207.202348 L237.494301,207.228843 L237.668801,207.28503 L237.850152,207.314265 L237.971206,207.175397 L237.9205,207.028762 L237.847411,207.004095 L237.739149,207.009577 L237.308838,206.746 L236.950246,206.787569 L236.842897,206.886239 L236.982679,206.93466 L237.051657,207.00912 Z M276.249642,249.552745 L275.939014,249.458186 L275.78233,249.465038 L275.614683,249.552745 L275.584077,249.497928 L275.580422,249.48194 L275.497741,249.448593 L275.269795,249.650044 L274.723456,249.773381 L274.533425,249.915448 L274.807508,249.999043 L275.059665,250.134257 L275.311821,249.96798 L276.046363,249.79211 L276.249642,249.552745 Z M285.448325,223.303356 L285.623281,223.558253 L285.505426,223.786199 L286.135817,224.75965 L286.534151,225.178997 L286.911472,225.168491 L286.685353,224.869284 L286.401677,224.609818 L286.157286,224.327513 L285.957663,223.60302 L285.709617,223.184587 L285.362902,222.905479 L284.979186,222.968061 L285.171044,223.085003 L285.448325,223.303356 Z M277.704566,252.203128 L277.520017,252.098519 L277.376123,252.153793 L277.331356,252.412344 L277.065039,252.286266 L276.920231,252.158361 L276.688631,251.842708 L276.52007,251.670493 L276.290297,251.496907 L276.042709,251.440263 L275.821159,251.614763 L276.380288,251.895241 L276.663964,252.097149 L276.87044,252.549386 L277.072348,252.646685 L277.304861,252.715206 L277.487583,252.817987 L277.774,253.023549 L277.943018,252.969646 L277.978192,252.73896 L277.869472,252.412344 L277.704566,252.203128 Z M321.173221,248.824597 L321.332189,249.037925 L321.581148,249.166288 L321.859342,249.20877 L322.3801,249.353578 L322.674739,249.355862 L322.619922,249.152583 L322.491103,248.967121 L322.267269,248.539551 L322.12703,248.412559 L321.935172,248.386521 L321.159517,248.52676 L321.173221,248.824597 Z M230.019143,232.909509 L229.888954,232.958844 L229.396518,233.274497 L229.169486,233.478232 L229.07447,233.768303 L228.997727,233.899863 L228.810437,234.036904 L228.582491,234.098573 L228.376015,234.003101 L228.198318,233.950111 L228.048486,234.140142 L227.901395,234.389101 L227.728266,234.514265 L227.287906,234.444831 L227.139901,234.532538 L227.142642,234.857326 L227.661116,234.808448 L228.14807,234.597861 L229.391493,233.766019 L230.036502,233.175827 L230.102282,233.136998 L230.148876,233.083095 L230.113702,232.97803 L230.019143,232.909509 Z" id="Fill-3"></path>
        </g>
    </g>
</svg>