
<svg width="86px" height="116px" viewBox="0 0 86 116" version="1.1" xmlns="http://www.w3.org/2000/svg" xmlns:xlink="http://www.w3.org/1999/xlink">
    <!-- Generator: Sketch 51.2 (57519) - http://www.bohemiancoding.com/sketch -->
    <desc>Created with Sketch.</desc>
    <defs></defs>
    <g id="Page-1" stroke="none" stroke-width="1" fill="none" fill-rule="evenodd">
        <g id="DE-EPS-01-0001" transform="translate(-260.000000, -135.000000)" fill="#7F807C">
            <path d="M345.392382,194.580881 L345.35897,194.533761 L345.406518,194.107115 L345.27287,193.817116 L345.062974,193.571665 L344.892915,193.269672 L344.8655,193.169864 L344.825234,192.90471 L344.825234,192.89143 L344.73742,191.872363 L344.814954,191.688596 L344.719858,191.485126 L344.546372,191.307356 L344.404157,191.192128 L344.195974,191.09232 L343.761189,190.963384 L343.548294,190.8443 L343.548294,190.840873 L343.352534,190.702084 L342.751973,190.498613 L342.545504,190.28272 L342.494101,190.021421 L342.570349,189.733135 L342.751973,189.448704 L342.860777,189.150566 L342.842357,188.760758 L342.753687,188.383373 L342.634175,188.124216 L342.184825,187.751115 L341.975786,187.508235 L341.881118,187.128708 L341.844279,186.735902 L341.7162,186.561988 L341.548711,186.448473 L341.398357,186.213732 L341.369657,185.898459 L341.490454,185.638873 L342.019907,185.098712 L342.190394,184.872109 L342.333038,184.601815 L342.410571,184.309245 L342.443983,183.39384 L342.494101,183.249912 L342.695002,182.886663 L342.734411,182.744019 L342.751973,182.6078 L342.77896,182.474581 L342.851353,182.346501 L343.021412,182.134035 L342.419138,181.681258 L342.327041,181.467935 L342.382299,181.076415 L342.483392,180.802693 L342.519374,180.588513 L342.385726,180.379902 L342.385726,180.287805 L342.56478,180.047495 L342.566922,179.740789 L342.424707,179.476491 L342.165549,179.361263 L341.903821,179.299579 L341.58812,179.138087 L341.382508,178.90763 L341.437766,178.630909 L341.242862,178.192698 L341.025256,177.535166 L340.971711,176.931607 L341.451045,176.510958 L341.673364,176.154134 L341.82843,175.799452 L341.783024,175.638389 L341.612537,175.479468 L341.682788,175.127784 L341.941945,174.583768 L341.654944,174.346028 L341.066807,173.683356 L340.511653,173.461894 L340.246926,173.100786 L340.071299,173.0164 L339.972776,172.924302 L339.657932,172.299754 L339.513146,172.131837 L338.531774,171.407481 L338.280327,171.271262 L337.975763,170.913582 L337.792426,170.832622 L337.586385,170.815916 L337.394051,170.757659 L337.230846,170.629151 L337.12547,170.414543 L337.371348,170.202505 L337.466015,170.01574 L337.505425,169.728311 L337.486148,169.535121 L337.371348,168.995388 L337.316518,168.838608 L337.316518,168.743512 L337.764582,168.411962 L338.327875,168.116822 L338.871463,167.68118 L339.156751,167.386469 L339.280119,167.10675 L339.30325,166.97867 L339.583826,166.108244 L339.563693,165.888067 L339.507578,165.66789 L339.474165,165.420298 L339.49901,165.212115 L339.565406,165.026207 L339.657932,164.88956 L339.756026,164.836872 L339.82285,164.733638 L340.06573,164.259015 L339.942363,164.147213 L339.90638,164.061113 L339.766735,163.942029 L339.708478,163.844363 L339.679778,163.693152 L339.674638,163.41172 L339.661359,163.280642 L339.404771,162.088945 L339.306677,161.289626 L339.114343,160.959789 L339.017106,160.635949 L338.794787,160.289835 L338.727106,159.96985 L338.717682,159.623735 L338.742956,159.057872 L338.727106,158.904091 L338.534344,158.299247 L338.394699,157.995112 L338.430681,157.753089 L338.419972,157.317447 L338.353148,157.326014 L338.204936,157.306738 L338.068289,157.258762 L337.953917,157.191509 L338.371996,156.887802 L338.383133,156.880092 L338.458525,156.764435 L338.430681,156.511274 L338.388702,156.469723 L338.29789,156.383195 L338.149677,156.352781 L338.080283,156.399472 L337.970623,156.617936 L337.709752,156.695469 L336.967405,156.639782 L336.853033,156.595661 L336.623432,156.455159 L336.554038,156.436311 L336.330862,156.455159 L336.294023,156.420034 L336.146668,156.232412 L335.839534,156.163018 L335.159299,155.591158 L335.059063,155.613432 L334.90828,155.479784 L334.774632,155.281882 L334.715947,155.111823 L334.638413,155.056137 L334.464928,155.013729 L334.291871,154.930199 L334.211767,154.738294 L334.306006,154.536965 L334.970392,153.989949 L335.072342,153.845164 L335.131027,153.666538 L335.115178,153.519182 L335.000377,153.454928 L334.947689,153.447218 L334.889432,153.424086 L334.833317,153.391103 L334.786198,153.349123 L334.752785,153.335844 L334.620851,153.349123 L334.585725,153.32128 L334.58701,153.259596 L334.599004,153.189774 L334.590437,153.133658 L334.563022,153.061694 L334.534322,152.944752 L334.493628,152.837662 L334.428946,152.793541 L334.169788,152.682167 L334.113673,152.643615 L334.016435,152.482123 L333.748282,152.138151 L333.637765,152.05205 L333.885357,151.898698 L334.002299,151.623262 L334.076834,151.318699 L334.211767,151.086956 L334.211767,150.978153 L333.475417,150.362172 L333.195698,150.216958 L333.195698,150.120148 L333.284369,150.094018 L333.346481,150.0439 L333.360617,149.973649 L333.322064,149.893118 L333.05948,149.982217 L332.585286,150.303486 L332.311564,150.431137 L331.168272,150.658168 L331.168272,150.766115 L331.246233,150.835937 L331.34904,151.014563 L331.427858,151.086956 L331.427858,151.196188 L331.210251,151.190619 L331.039336,151.079246 L330.903117,150.888626 L330.785747,150.658168 L330.652099,150.294919 L330.600267,150.216958 L330.51588,150.195111 L330.457195,150.244801 L330.386944,150.283353 L330.278141,150.216958 L330.350105,150.152275 L330.395083,150.079883 L330.467904,149.893118 L330.287136,149.823723 L329.944448,149.998923 L329.712706,150.002778 L329.821509,149.887121 L329.962868,149.787313 L329.715704,149.564566 L329.408142,148.937019 L329.171259,148.808939 L328.850846,148.73055 L328.368085,148.457256 L328.064378,148.4851 L328.167184,148.415277 L328.229296,148.387005 L328.31454,148.384435 L328.31454,148.27092 L327.901173,148.27092 L327.799223,148.214376 L327.77395,148.083298 L327.77395,147.910669 L327.749105,147.737184 L327.483522,147.310537 L327.447112,147.067658 L327.620169,146.75624 L327.512222,146.650435 L327.109564,146.440967 L327.001189,146.287186 L326.931367,146.086286 L326.936507,145.896951 L327.053878,145.782579 L326.820422,145.712328 L326.451176,145.848974 L326.083215,146.089284 L325.849759,146.323597 L325.766229,146.479091 L325.671561,146.736107 L325.590601,146.865043 L325.489937,146.956284 L325.395269,146.984984 L325.216643,146.973847 L325.121119,146.992266 L325.088564,147.009829 L325.055152,146.981129 L324.895802,146.781085 L324.840115,146.677422 L324.795566,146.56562 L324.770292,146.440967 L324.686762,146.558338 L324.598092,146.633301 L324.496999,146.635871 L324.390766,146.540775 L324.288388,146.661144 L324.183868,146.613596 L324.087059,146.473951 L324.00567,146.323597 L323.975685,146.448249 L323.933706,146.554483 L323.816764,146.75624 L323.83861,146.558338 L323.894725,146.376713 L323.988964,146.250776 L324.126468,146.214365 L324.126468,146.096995 L324.008241,146.086286 L323.894725,146.10085 L323.785922,146.141972 L323.692111,146.214365 L323.70796,146.269624 L323.732377,146.386994 L323.754652,146.440967 L323.250472,146.731395 L322.97418,146.800361 L322.801123,146.650435 L322.801123,146.75624 L322.725732,146.696698 L322.662335,146.691986 L322.491419,146.75624 L322.491419,146.865043 L322.550961,146.878323 L322.673044,146.973847 L322.07334,147.263418 L321.917417,147.394496 L321.897284,147.461748 L321.890002,147.659651 L321.858304,147.737184 L321.818894,147.765027 L321.719087,147.798867 L321.6634,147.834421 L321.431657,148.063165 L321.345129,148.19767 L321.283445,148.384435 L321.473208,148.555351 L321.585438,148.607182 L321.728511,148.601185 L321.53018,148.724124 L321.302721,148.666724 L320.902633,148.384435 L321.005439,148.261067 L320.985735,148.123136 L320.906917,147.951792 L320.843948,147.737184 L320.996444,147.703772 L321.111244,147.564555 L321.156222,147.376933 L321.097537,147.188883 L321.158792,147.079223 L321.225616,147.137909 L321.278305,147.162753 L321.412381,147.188883 L321.359693,146.937008 L321.42052,146.696698 L321.546029,146.512932 L321.695098,146.440967 L322.031361,146.473951 L322.212129,146.56562 L322.36334,146.75624 L322.446441,146.574616 L322.613502,146.463242 L322.811832,146.443109 L322.990886,146.540775 L322.98746,146.471809 L323.002024,146.451676 L323.027725,146.451676 L323.057711,146.440967 L322.981891,146.42983 L322.924919,146.410554 L322.88808,146.35144 L322.870517,146.214365 L322.929203,146.198087 L323.010163,146.127408 L323.057711,146.096995 L323.116396,146.214365 L323.175081,146.002755 L323.262038,145.952637 L323.501491,146.000185 L323.692111,146.000185 L323.744799,145.958634 L323.84118,145.812564 L323.91443,145.782579 L324.156453,145.816419 L324.552257,145.964203 L325.542625,146.050732 L325.779508,146.000185 L326.00868,145.785577 L325.890881,145.606951 L325.62487,145.542269 L325.412403,145.662638 L325.065004,145.495149 L322.960045,145.495149 L322.56167,145.329802 L322.36334,145.015815 L322.428022,145.015815 L322.428022,144.914722 L322.238687,145.009818 L322.131597,145.149035 L321.986811,145.564544 L321.604715,146.228501 L321.543459,146.381425 L320.987877,147.188883 L320.654185,147.834421 L320.517109,147.999768 L320.165426,148.291909 L319.468913,148.674435 L319.348116,148.707847 L319.220036,148.794804 L318.999431,149.162765 L318.812666,149.332823 L318.49825,149.745334 L318.425429,149.893118 L318.514956,149.835718 L318.609624,149.79331 L318.710717,149.776176 L318.812666,149.787313 L318.731706,149.998923 L318.467409,150.149705 L318.370171,150.334328 L318.420289,150.487253 L318.464838,150.897621 L318.553509,151.086956 L318.339329,150.832939 L318.316626,150.462408 L318.352608,150.023767 L318.305917,149.571848 L317.959374,149.795023 L315.755892,150.269646 L314.980989,150.133427 L314.621167,150.183117 L314.328598,150.390015 L314.099854,150.802525 L314.063871,150.844504 L314.024034,150.90062 L313.996191,150.978153 L313.996191,151.061683 L314.063871,151.115228 L314.058303,151.196188 L314.018894,151.309703 L313.971346,151.410368 L313.91009,151.480619 L313.834699,151.505892 L313.71176,151.594134 L313.544271,152.010071 L313.361362,152.149716 L313.279973,152.152715 L313.042662,152.05205 L313.042662,152.149716 L313.106916,152.149716 L313.106916,152.267087 L312.791643,152.587928 L312.808349,152.662891 L312.830624,152.837662 L312.848187,152.910911 L312.772367,152.930188 L312.68027,153.00001 L312.610876,153.114382 L312.653283,153.365401 L312.582175,153.680674 L312.487936,153.931692 L312.474229,154.096611 L312.369709,154.096611 L312.301172,154.049063 L311.94649,153.600142 L311.941349,153.553023 L311.555826,153.553023 L311.49714,153.502904 L311.402473,153.278872 L311.333079,153.231753 L310.959121,153.553023 L310.884158,153.57187 L310.607866,153.553023 L310.49178,153.48577 L310.471647,153.32128 L310.510628,152.964456 L310.463937,152.885638 L310.133672,152.793541 L310.068133,152.685166 L310.009019,152.461991 L309.944337,152.372892 L309.864233,152.34205 L308.738933,152.492832 L308.245034,152.75713 L308.070263,152.793541 L307.919909,152.852226 L307.646187,153.136657 L307.529673,153.231753 L307.481269,153.239463 L307.338197,153.231753 L307.199408,153.189774 L307.165996,153.04713 L307.158286,152.860793 L307.090605,152.695447 L307.001934,152.659893 L306.645539,152.695447 L306.391094,152.61877 L306.212896,152.467988 L306.079248,152.243955 L305.956308,151.938107 L305.956308,151.837442 L306.051404,151.730781 L306.4078,151.176055 L306.443782,151.134932 L306.516603,151.086956 L306.602703,151.095523 L306.663959,151.165774 L306.728213,151.209895 L306.807031,151.140929 L306.879852,151.142643 L307.252096,151.014563 L307.415301,150.907902 L307.785833,150.431137 L308.859302,149.734625 L308.901281,149.595408 L308.989951,149.493887 L309.076908,149.352956 L309.116318,149.082233 L309.057632,148.627315 L309.048208,148.359162 L309.116318,148.16126 L309.04264,147.859266 L308.959538,147.230006 L308.859302,146.973847 L309.001517,147.035102 L309.054205,147.079223 L309.1523,146.925442 L309.495844,146.540775 L309.204988,146.42983 L308.558165,146.828204 L308.340558,146.677422 L308.181637,146.731395 L308.019289,146.658146 L308.250174,146.655147 L308.41852,146.650435 L308.41852,146.540775 L307.646187,146.641011 L307.328344,146.775516 L307.023781,146.973847 L306.4939,147.467317 L306.182054,147.659651 L305.761405,147.737184 L305.378451,147.642516 L304.555572,146.865043 L303.098293,146.214365 L302.536713,145.766301 L302.333243,145.662638 L301.940008,145.628797 L301.834204,145.662638 L301.747247,145.749167 L301.700555,145.838265 L301.638872,145.924794 L301.513362,146.000185 L301.164249,146.036596 L301.069582,146.096995 L301.005756,146.231499 L300.879818,146.75624 L300.66264,147.249282 L300.511857,147.436904 L300.309243,147.511438 L300.400484,147.361512 L300.433896,147.213728 L300.406053,147.079223 L300.309243,146.973847 L300.366643,146.867614 L300.364502,146.817495 L300.33366,146.793079 L300.309243,146.75624 L300.467308,146.708264 L300.634797,146.56562 L300.765018,146.367718 L300.818991,146.156537 L300.771015,145.902948 L300.69648,145.704617 L300.699051,145.533702 L300.879818,145.350364 L300.322522,144.859035 L300.149465,144.797351 L297.918996,145.329802 L297.516767,145.12162 L297.516767,145.015815 L297.907431,144.970409 L298.305805,144.839759 L298.676765,144.630291 L298.974903,144.354428 L299.091845,144.184369 L299.181372,143.999746 L299.246055,143.776999 L299.290176,143.495138 L299.346291,142.835036 L299.34115,142.515908 L299.290176,142.29873 L299.357,142.072984 L299.30731,141.975746 L299.200649,141.983885 L299.103839,142.069986 L298.961624,141.883649 L298.721314,141.896928 L298.479291,141.970178 L298.345643,141.958612 L298.349926,141.814255 L298.370488,141.779986 L298.408612,141.783413 L298.470295,141.743576 L298.501137,141.741434 L298.729881,141.559809 L298.724313,141.525969 L298.810841,141.5491 L298.922215,141.602217 L299.048152,141.615496 L299.165523,141.525969 L298.992466,141.336634 L298.908507,141.214551 L298.85025,141.089042 L298.724313,140.542027 L298.513131,140.271303 L298.211138,140.087537 L297.993531,140.101673 L298.03037,140.433223 L297.608007,140.594715 L297.365984,140.636266 L297.260608,140.48891 L297.165084,140.213047 L296.944907,140.053697 L296.705025,139.95089 L296.543534,139.827951 L296.158438,139.657464 L295.58872,139.627051 L295.140656,139.45999 L295.112384,138.88299 L294.992443,138.980227 L294.87593,139.192694 L294.649327,139.281364 L294.474557,139.50197 L293.924543,139.780832 L293.785326,139.777833 L293.648679,139.824953 L293.492328,139.805676 L293.305563,139.630049 L293.138503,139.66903 L293.03741,139.7577 L292.903762,139.797109 L292.814663,139.889207 L292.675018,139.91448 L292.00078,139.911481 L291.838431,139.848084 L291.771607,139.654894 L291.743764,139.432147 L291.698358,139.26937 L291.545862,139.133152 L289.58526,138.670523 L288.85662,138.371957 L288.117699,138.243877 L287.90352,138.277718 L287.272974,138.514172 L286.932428,138.497894 L286.614585,138.400657 L286.489076,138.865855 L286.444527,139.236815 L286.497643,139.657464 L286.623581,139.936326 L286.800922,140.257596 L286.92429,140.580579 L286.871173,140.870579 L286.871173,140.980239 L287.183875,141.136162 L287.685485,141.574373 L287.950211,141.743576 L288.07058,141.964181 L288.39185,142.831181 L288.076577,143.049216 L288.139974,143.169585 L288.243637,143.096335 L288.438969,143.040649 L288.627876,143.03508 L288.714833,143.108329 L288.759811,143.27796 L288.865615,143.448447 L289.623812,144.261902 L289.855555,144.630291 L289.855555,145.015815 L289.793871,145.272402 L289.641375,145.389344 L289.280268,145.564544 L288.89046,145.910658 L288.695557,146.033597 L288.460816,146.096995 L287.446032,146.096995 L286.695545,146.304749 L286.497643,146.214365 L286.405118,146.345872 L286.321587,146.510362 L286.293744,146.688988 L286.371277,146.865043 L286.51949,146.663714 L286.642429,146.702695 L286.768367,146.822636 L286.935427,146.865043 L286.935427,146.973847 L286.714822,146.959711 L286.432961,147.017968 L286.179372,147.132768 L286.051293,147.296402 L286.076566,147.709769 L286.265901,148.055455 L286.531055,148.297478 L286.776505,148.384435 L286.88488,148.351451 L287.192443,148.052456 L287.334658,147.994199 L287.666208,148.052456 L287.950211,148.019044 L288.432972,147.869118 L288.714833,147.834421 L288.695557,147.888395 L288.670712,148.00191 L288.650151,148.052456 L288.848481,147.965928 L289.197166,147.661792 L289.406634,147.620241 L289.317106,147.859266 L289.171893,148.108571 L289.027107,148.306474 L288.931583,148.384435 L288.77052,148.401569 L288.380284,148.515085 L288.265484,148.601185 L288.265484,148.707847 L288.333164,148.951155 L288.23507,149.199175 L288.092855,149.46947 L288.02089,149.787313 L288.045735,149.862276 L288.210225,150.216958 L288.460816,150.658168 L288.525069,150.658168 L288.68956,150.470547 L288.990696,150.322762 L289.314108,150.264506 L289.540282,150.334328 L289.540282,150.431137 L289.51201,150.610192 L289.641375,150.771683 L289.811005,150.925036 L289.919808,151.086956 L289.919808,151.332834 L289.870119,151.667383 L289.793871,151.980086 L289.721906,152.149716 L289.521006,152.247811 L289.323104,152.18013 L288.960711,151.938107 L288.739678,151.872996 L288.56405,151.88756 L288.210225,152.05205 L288.974419,153.605711 L289.280268,153.989949 L289.607534,154.238826 L289.822142,154.311219 L289.919808,154.152726 L290.025613,154.082475 L290.259926,154.147157 L290.613323,154.311219 L291.787885,154.339062 L292.133999,154.419594 L292.482684,154.631204 L293.068252,155.139667 L293.402801,155.273315 L293.416937,155.582591 L293.565149,156.089768 L293.779329,156.55925 L294.005074,156.764435 L294.141721,156.812839 L294.577363,157.058718 L294.672459,157.141391 L294.707584,157.415541 L294.733714,157.839189 L294.842518,158.33523 L295.146225,158.679202 L295.81318,159.113559 L296.153298,159.248064 L296.981746,159.342303 L297.329574,159.546202 L297.443946,159.749673 L297.321435,159.799791 L296.19185,159.546202 L295.640123,159.169246 L295.525751,159.113559 L295.307716,159.085716 L295.134659,159.007754 L294.992443,158.879246 L294.359756,157.942852 L294.231248,157.471228 L294.106167,157.306738 L293.843583,157.0947 L293.475622,156.656916 L292.572211,155.061705 L292.368741,154.790982 L292.289494,154.738294 L291.97465,154.754143 L291.824724,154.727156 L291.696216,154.631204 L291.542863,154.746432 L290.808655,154.738294 L290.072733,154.91949 L289.899676,155.123389 L289.528716,155.094261 L288.85662,155.261749 L288.460816,155.273315 L287.738173,155.092547 L287.387346,154.910494 L287.060508,154.631204 L286.831764,154.372903 L286.723389,154.325783 L286.531055,154.311219 L286.321587,154.358339 L286.115975,154.48085 L285.93435,154.654335 L285.802844,154.855236 L285.646921,155.273315 L285.398901,156.212708 L285.055785,157.079707 L284.997099,157.30888 L284.977823,157.572321 L285.005667,157.830622 L285.136745,158.184875 L285.203569,158.4813 L285.284529,158.714756 L285.379196,158.924224 L285.449019,159.015465 L285.689329,159.623735 L285.73602,159.699555 L285.64992,160.142907 L285.454588,160.330529 L285.24512,160.480455 L285.102904,160.817574 L285.094337,161.275062 L285.19543,162.242726 L285.167158,162.622681 L285.041221,162.337822 L284.985962,161.958295 L284.977823,161.087869 L285.03351,160.635949 L285.183436,160.3014 L285.384337,160.056379 L285.607512,159.863188 L285.607512,159.749673 L285.250688,159.576616 L284.46165,159.42155 L284.08812,159.227931 L283.976747,159.07672 L283.862375,158.86254 L283.725728,158.673634 L283.547102,158.592674 L283.161578,158.611522 L283.003085,158.673634 L282.882716,158.804283 L282.804755,159.024032 L282.737502,159.553913 L282.656971,159.807502 L282.640693,160.034104 L282.835597,160.066659 L283.198417,159.96985 L283.466142,160.285123 L283.415596,160.814575 L283.209555,161.347026 L283.014651,161.673865 L282.899851,161.785238 L282.802185,161.843495 L282.687813,161.869197 L282.533603,161.874337 L282.400383,161.80837 L282.303574,161.666154 L282.227754,161.517942 L282.152363,161.453688 L282.088109,161.40871 L281.912053,161.204811 L281.803678,161.143127 L281.647755,161.138415 L281.541522,161.183393 L281.424152,161.24165 L281.299071,161.108002 L281.215541,160.910099 L281.045482,160.393926 L281.209972,160.289835 L281.571936,160.259849 L281.739424,160.173749 L281.940325,160.022538 L282.026425,159.880323 L282.054697,159.598891 L281.951891,159.436542 L281.747563,159.379142 L281.602778,159.308463 L281.683309,159.113559 L281.683309,159.015465 L281.374034,158.798286 L280.989367,158.308243 L280.732779,157.744093 L280.794463,157.306738 L280.794463,157.191509 L280.052544,156.974331 L277.276774,157.364138 L275.913305,157.648997 L275.696127,157.596738 L275.598032,157.462233 L275.498224,157.392838 L274.075642,157.554758 L273.344432,157.839189 L273.001316,158.196869 L272.823547,158.321522 L272.488998,158.698479 L272.190003,158.904091 L272.059353,159.07672 L272.078629,159.281048 L272.19857,159.406557 L272.468865,159.543204 L272.549397,159.652007 L272.566959,159.849481 L272.499707,160.000692 L272.41018,160.047811 L272.360062,160.173749 L271.989102,160.091932 L271.805336,160.090219 L271.729945,160.229008 L271.690964,160.462892 L271.512338,160.931946 L271.470359,161.194102 L271.472929,162.340821 L271.609576,162.769609 L271.949693,162.940096 L274.055081,163.012489 L274.42347,163.149135 L274.647502,163.475974 L274.468876,163.405723 L274.150605,163.201823 L273.952703,163.151705 L273.735524,163.154704 L273.612585,163.219386 L273.377844,163.572783 L273.445525,163.744127 L273.414683,163.927465 L273.331153,164.091526 L273.250193,164.203757 L273.146102,164.3177 L273.054861,164.368675 L273.077136,164.800033 L273.085703,165.04891 L273.057859,165.288363 L272.993606,165.552661 L272.861671,165.893635 L272.839824,166.016146 L272.848392,166.200341 L272.882232,166.298864 L272.926353,166.379395 L272.962764,166.512615 L273.046294,167.610929 L273.032158,168.160943 L272.948628,168.649273 L272.747727,169.162448 L271.989102,170.359285 L271.822042,170.821056 L271.74408,171.332946 L271.657552,172.977847 L271.590299,173.513297 L271.420241,173.83885 L271.091689,173.736044 L270.952043,173.677359 L270.497554,173.745039 L270.006654,173.596827 L269.128088,173.610106 L268.818812,173.705202 L268.491974,173.942942 L268.569507,174.101435 L268.553229,174.238938 L268.508252,174.363591 L268.51125,174.4891 L268.578503,174.586766 L268.879211,174.846352 L268.366036,175.10551 L268.216539,175.119217 L268.327484,175.356528 L268.361324,175.626395 L268.374604,175.894548 L268.43029,176.120722 L268.611915,176.333188 L268.856936,176.453129 L269.588575,176.555935 L270.067909,176.739273 L270.327495,176.781681 L270.569518,176.764118 L270.801261,176.698579 L270.88779,176.614621 L270.946903,176.514813 L271.002162,176.486113 L271.565455,177.403231 L271.696104,177.790896 L271.618143,178.340482 L271.431806,178.772697 L271.364554,179.002297 L271.358557,179.278161 L271.442515,179.598574 L271.521333,179.740789 L271.493062,179.818751 L271.082693,180.070198 L270.982885,180.187997 L270.76485,180.538395 L270.581512,180.702885 L270.18528,180.875942 L270.006654,181.066134 L269.799756,181.483785 L269.685384,181.590018 L269.085681,181.655985 L268.937896,181.7408 L268.779403,181.905291 L268.732284,181.988821 L268.656464,182.181154 L268.581501,182.27625 L268.469699,182.331937 L268.371605,182.337077 L268.291073,182.376915 L268.226819,182.532837 L268.246952,182.761153 L268.392166,182.867386 L268.59478,182.925643 L269.200481,183.262762 L269.437364,183.51678 L269.484912,183.589601 L269.509757,183.689837 L269.499048,183.874032 L269.45407,183.919009 L269.382105,183.93186 L269.305857,184.016247 L269.094676,184.398772 L268.879211,184.654503 L268.631191,184.791578 L267.811311,184.815994 L266.891194,185.131695 L266.436704,185.483379 L266.282923,185.550631 L266.09573,185.550631 L265.502024,185.375004 L265.577415,185.711694 L265.541433,185.862905 L265.192748,185.958001 L265.164905,185.725402 L265.014122,185.638873 L264.660297,185.583186 L264.617889,185.533068 L264.517653,185.349302 L264.450829,185.285477 L264.372868,185.277338 L264.085438,185.338165 L263.773164,185.210085 L263.474598,184.970204 L263.176031,184.827988 L262.864185,185.001046 L262.978557,185.087146 L263.323815,185.450395 L263.446754,185.645299 L263.29897,185.60846 L263.080935,185.552345 L262.780227,185.471385 L262.403698,185.572477 L262.27005,185.645299 L262.079859,185.787086 L261.901233,185.862905 L261.522134,185.928873 L261.368782,186.038961 L261.33794,186.172181 L261.547408,186.333673 L261.669918,186.6241 L261.656211,186.924381 L261.449742,187.128708 L261.441603,187.288058 L261.533272,187.327039 L261.801425,187.318471 L261.90723,187.37116 L262.113699,187.527511 L262.205796,187.622178 L262.082857,188.043684 L262.294895,188.314836 L262.919443,188.587701 L262.813639,188.92225 L262.763521,189.134716 L262.802501,189.316341 L263.418911,190.164065 L263.78987,190.595851 L263.856694,191.079897 L263.901244,191.348479 L263.867832,191.641905 L263.798009,191.95675 L263.784302,192.227045 L263.923518,192.394533 L263.870402,192.525611 L263.842987,192.848594 L263.792012,193.033217 L263.700343,193.161297 L263.466459,193.325787 L263.368364,193.420026 L262.895027,194.29645 L262.699267,194.533761 L262.607169,194.697823 L262.526638,194.990821 L262.500936,195.321086 L262.565618,195.591381 L262.783225,195.710894 L263.243283,195.395621 L263.454893,195.468442 L263.382072,195.509565 L263.170462,195.682622 L263.365366,195.864246 L263.226577,196.047584 L262.699267,196.33587 L261.845546,197.00454 L261.720465,197.146755 L261.542267,197.520713 L261.430465,197.646222 L261.260407,197.665499 L261.137039,197.551555 L261.025665,197.40934 L260.897586,197.336518 L260.638,197.474022 L260.691545,197.815853 L260.83376,198.23693 L260.844898,198.607461 L260.969979,198.583045 L261.20986,198.463533 L261.335369,198.426694 L261.463449,198.444256 L261.706329,198.524788 L262.038308,198.485379 L262.057584,198.562484 L261.999327,198.683709 L261.965915,198.805792 L261.976624,199.019115 L262.001897,199.135629 L262.072148,199.210592 L262.288898,199.348095 L262.593462,199.453472 L262.573757,199.511729 L262.526638,199.593117 L262.509503,199.688641 L262.587465,199.988921 L262.584466,200.105863 L262.526638,200.257503 L262.423403,200.379585 L262.216505,200.362879 L262.088426,200.4357 L262.007466,200.579629 L262.015605,200.705995 L262.035309,200.839644 L261.987761,201.015271 L261.854541,201.13821 L261.714896,201.104798 L261.753877,201.291563 L261.823699,201.411075 L261.915368,201.476186 L261.976624,201.564856 L261.957776,201.754191 L261.954778,201.756762 L261.948781,201.767471 L261.940642,201.782463 L261.935073,201.807736 L261.935073,201.835151 L261.943212,201.851857 L261.948781,201.862995 L262.049445,201.91397 L262.102562,201.943955 L262.10813,202.050188 L262.10813,202.082743 L262.074718,202.236953 L262.096993,202.315343 L262.1107,202.359892 L262.233211,202.373171 L262.598602,202.270365 L262.752383,202.287071 L262.930581,202.462698 L263.033815,202.620763 L263.491304,203.321988 L263.494302,203.324558 L263.368364,203.402091 L263.477596,203.612416 L263.666931,203.713508 L264.305615,203.725931 L264.32789,203.814601 L264.28077,203.910982 L264.261494,203.943538 L264.157831,204.072474 L264.157831,204.125162 L263.95179,204.247245 L263.773164,204.395457 L263.658364,204.490124 L263.488305,204.755279 L263.491304,204.758706 L263.641658,204.951039 L263.569265,205.061985 L263.583401,205.12581 L263.583401,205.130094 L263.655794,205.160079 L263.762027,205.167789 L263.764597,205.167789 L263.692204,205.293299 L263.745321,205.340847 L263.764597,205.360123 L263.767167,205.360123 L263.78987,205.414525 L263.845557,205.527183 L263.895675,205.566592 L263.918378,205.586725 L263.945793,205.589295 L264.010047,205.591865 L264.277772,205.508335 L264.322321,205.494628 L264.339027,205.480492 L264.345024,205.475352 L264.366871,205.466356 L264.386575,205.475352 L264.40885,205.494628 L264.551065,205.561024 L264.949868,205.653549 L265.117357,205.66383 L265.014122,205.764923 L265.008553,205.795765 L264.991419,205.882293 L264.997416,205.907138 L265.019691,206.009944 L265.070237,206.158157 L265.094654,206.20185 L265.148199,206.288807 L265.200459,206.300372 L265.215023,206.300372 L265.234299,206.329072 L265.251433,206.349634 L265.251433,206.353917 L265.248435,206.40018 L265.242438,206.59337 L265.181611,206.91721 L265.178612,206.933916 L265.114787,207.12625 L265.125496,207.299307 L265.446337,207.85746 L265.466042,208.057504 L265.466042,208.060502 L265.39065,208.14189 L265.352098,208.180443 L265.349099,208.183013 L265.106219,208.223707 L264.98071,208.203146 L264.910887,208.177873 L264.874477,208.163737 L264.771671,208.154313 L264.721124,208.183013 L264.648303,208.223707 L264.557062,208.339364 L264.495379,208.476439 L264.475674,208.623795 L264.517653,208.751875 L264.515083,208.751875 L264.348023,208.904799 L264.113282,208.969481 L263.94922,209.017029 L263.75603,209.10827 L263.692204,209.206792 L263.666931,209.248772 L263.505439,209.362715 L263.457463,209.396984 L263.363224,209.51821 L263.360226,209.521637 L263.482736,209.657855 L263.496872,209.694694 L263.536281,209.822774 L263.530713,209.985122 L263.474598,210.12134 L263.454893,210.132049 L263.405203,210.16589 L263.221009,210.180026 L263.206873,210.189878 L263.142619,210.230144 L263.131481,210.257559 L263.125913,210.276835 L263.106637,210.368932 L263.095499,210.439183 L263.072796,210.509434 L263.167464,210.584825 L263.201304,210.672639 L263.201304,210.676923 L263.193165,210.701339 L263.173461,210.77159 L263.089931,210.869256 L263.025248,211.078296 L262.981127,211.276626 L262.922442,211.676714 L262.939148,211.68828 L262.995263,211.682711 L263.014539,211.68571 L262.981127,211.733686 L262.895027,211.901603 L262.995263,211.958575 L263.05609,212.075945 L263.111777,212.377939 L263.086932,212.53686 L263.125913,212.653803 L263.287833,212.896682 L263.42705,213.298912 L263.499871,213.423565 L263.600107,213.226948 L263.759028,213.485677 L264.063164,214.21603 L264.207949,214.362957 L264.520223,214.503031 L264.6543,214.589131 L264.699278,214.667521 L264.790947,214.915113 L264.802512,214.963089 L264.874477,214.968658 L265.014122,214.884271 L265.094654,214.888555 L265.251433,214.987934 L265.51873,215.238953 L265.675081,215.339617 L265.836573,215.383739 L266.280353,215.383739 L266.564784,215.467697 L266.601195,215.469839 L266.648314,215.520385 L266.629038,215.54009 L266.626039,215.663457 L266.611904,215.671596 L266.569924,215.980443 L266.566926,216.084107 L266.593056,216.145362 L266.590057,216.201049 L266.50053,216.279867 L266.492391,216.407946 L266.514666,216.524889 L266.559215,216.627695 L266.623469,216.714224 L266.542509,216.682953 L266.50053,216.706513 L266.470117,216.775907 L266.531372,216.848728 L266.551077,216.87957 L265.869985,217.319924 L265.728198,217.520396 L265.744904,217.567516 L265.803589,217.606925 L265.859276,217.66304 L265.867415,217.758136 L265.84257,217.821962 L265.772747,217.925625 L265.68065,218.117101 L265.438198,218.413098 L265.298981,218.632418 L265.245865,218.788769 L265.245865,219.238119 L265.167475,219.83568 L265.198317,220.26404 L265.198317,220.36856 L265.27585,220.375842 L265.373516,220.356994 L265.549572,220.237053 L265.624963,220.208782 L265.728198,220.225488 L266.575921,220.649564 L266.734843,220.802916 L266.790958,220.919859 L266.815803,221.036801 L266.818801,221.118189 L266.801667,221.124186 L266.865921,221.218425 L267.31527,221.695618 L267.345684,221.779148 L267.304133,221.89352 L267.142213,221.902087 L267.089096,222.031023 L267.147781,222.194228 L267.304133,222.384849 L267.917115,222.975556 L267.93168,223.03724 L267.914545,223.179456 L267.923112,223.238141 L267.972802,223.274123 L268.101738,223.320814 L268.140291,223.362794 L268.213112,223.62238 L268.243954,223.683207 L268.254234,223.714048 L268.271797,223.826279 L268.29707,223.876397 L268.338193,223.869971 L268.460704,223.78944 L268.500541,223.78944 L268.559227,224.012187 L268.51125,224.192098 L268.485977,224.364298 L268.603348,224.561772 L268.712151,224.60675 L269.125518,224.61189 L269.484912,224.746824 L269.601854,224.71898 L269.760347,224.506514 L269.727792,224.272201 L269.657969,224.043029 L269.710657,223.848982 L269.802755,223.826279 L270.189992,223.912379 L270.458145,223.888391 L270.560951,223.900813 L271.138808,224.23065 L271.33671,224.239646 L271.333712,224.738256 L271.439517,225.12378 L271.643416,225.285272 L271.927847,225.106217 L271.941983,225.033825 L271.911569,224.961003 L271.905572,224.883042 L271.989102,224.799512 L272.03922,224.804224 L272.393902,225.062096 L272.538688,225.140058 L272.683902,225.186749 L273.481936,225.194888 L273.729527,225.313115 L273.788213,225.321254 L273.841329,225.265567 L273.938995,225.06381 L273.996824,224.994415 L274.081211,224.966572 L274.267975,224.942584 L274.338226,224.911314 L274.385346,224.832924 L274.452598,224.626883 L274.49672,224.556632 L274.650501,224.469675 L274.867679,224.403708 L275.046305,224.420414 L275.084857,224.576765 L275.486659,224.604608 L275.653719,224.665435 L275.715403,224.869763 L275.646008,224.913884 L275.622877,224.945154 L275.606599,224.991845 L275.734251,225.12892 L275.944147,225.466039 L276.067086,225.621962 L276.267987,225.748328 L276.672358,225.819865 L276.877971,225.926526 L276.945652,226.010056 L277.035179,226.194251 L277.121279,226.266644 L277.249359,226.294487 L277.360732,226.266644 L277.469107,226.222523 L277.583479,226.196393 L277.687142,226.213099 L277.882474,226.283778 L277.972001,226.297914 L278.086373,226.266644 L278.303123,226.149701 L278.404216,226.12143 L279.174407,226.343748 L279.700861,226.287633 L279.867921,226.308623 L281.332911,227.089951 L282.24189,227.279286 L282.350265,227.378665 L282.155362,227.603126 L281.867932,228.149284 L281.447283,229.303713 L281.332911,229.498617 L281.276796,229.546593 L280.936678,229.727361 L280.854862,229.73293 L280.836014,229.767199 L280.794463,229.808321 L280.749485,229.883712 L280.729781,230.015647 L280.710933,230.090182 L280.65696,230.138158 L280.587994,230.16386 L280.325838,230.165573 L280.222603,230.201555 L280.171628,230.324495 L280.161347,230.592219 L280.11894,230.703593 L280.021702,230.835528 L279.898763,230.955468 L279.786961,231.027433 L279.536371,231.327713 L279.394155,231.451509 L279.240803,231.501627 L279.131999,231.580445 L278.741335,232.187002 L278.662945,232.64192 L278.662945,233.127252 L278.772177,233.423248 L278.772177,233.517059 L278.540863,233.70211 L278.429061,233.816482 L278.381513,233.941992 L278.361809,234.206718 L278.317688,234.340366 L278.256004,234.429893 L278.192178,234.563113 L278.14463,234.719464 L278.077378,235.087425 L278.06624,235.26905 L278.097082,235.436538 L278.155339,235.615593 L278.203744,235.798502 L278.192178,235.993406 L278.06624,236.19859 L277.895753,236.289831 L277.745827,236.413627 L277.681573,236.702341 L277.662726,236.985059 L277.603612,237.218515 L277.505946,237.419415 L276.922949,238.239296 L276.861693,238.407213 L276.84156,238.607257 L276.794441,238.716917 L276.733185,238.800447 L276.666789,238.922529 L276.605106,239.134996 L276.54642,239.40272 L276.574264,239.97201 L276.973067,240.677947 L276.992343,241.107163 L276.905814,241.271225 L276.658222,241.53381 L276.610674,241.717148 L276.621812,241.940323 L276.605106,242.001578 L276.54642,242.141224 L276.50744,242.208048 L276.445756,242.266733 L276.417913,242.328845 L276.410202,242.384532 L276.413201,242.420514 L276.420911,242.453498 L276.417913,242.514325 L276.468459,242.771341 L276.445756,242.925122 L276.320675,242.991946 L276.270557,243.059198 L276.13905,243.501694 L276.114206,243.694884 L276.228149,244.175075 L276.223009,244.397822 L276.169892,244.489491 L276.017396,244.650983 L275.983128,244.734941 L276.008401,245.028368 L276.039243,245.17658 L276.074796,245.239977 L276.2123,245.3098 L276.336953,245.485427 L276.54642,245.900936 L276.602536,245.97033 L276.660792,246.023875 L276.707912,246.092841 L276.728045,246.223919 L276.707912,246.274037 L276.66936,246.411541 L277.140555,246.271896 L277.350023,246.249193 L277.230082,246.593165 L277.12899,246.686548 L276.889537,246.684834 L277.366301,246.938423 L277.5702,246.964553 L278.339962,246.804775 L278.516018,246.706681 L278.660804,246.528483 L278.831291,246.265899 L278.958942,246.332723 L279.555647,246.369562 L279.611334,246.428247 L279.642176,246.556326 L279.658453,246.684834 L279.684583,246.740093 L280.888702,246.740093 L281.304639,246.648424 L281.39331,246.587168 L281.435289,246.528483 L281.4717,246.459089 L281.549661,246.369562 L281.624624,246.310876 L281.825525,246.202501 L281.996012,246.151098 L282.060266,246.085131 L282.104387,246.018307 L282.152363,245.987465 L282.651402,245.903506 L282.818462,245.900936 L283.058772,245.975471 L283.164577,245.987465 L283.214267,246.045722 L283.265241,246.176371 L283.328639,246.308735 L283.421164,246.369562 L283.772848,246.460802 L284.363984,246.464229 L284.648415,246.41711 L284.65998,246.352856 L284.768784,246.118543 L285.049788,245.932206 L285.32865,245.903506 L285.471294,246.037583 L285.57924,246.221349 L285.683332,246.346859 L285.805842,246.305308 L285.867098,246.199931 L285.878664,246.09841 L285.872667,246.001601 L285.884232,245.906933 L285.881234,245.859385 L285.859387,245.80584 L285.841825,245.745442 L285.864099,245.669194 L285.89794,245.640922 L285.944631,245.622502 L285.987039,245.619076 L285.995606,245.640922 L286.000746,245.725309 L286.059003,245.756151 L286.112976,245.432739 L286.029446,245.423315 L285.881234,245.362488 L285.752726,245.340642 L285.303805,245.418175 L285.164588,245.488426 L285.035652,245.579666 L284.899005,245.649917 L284.734943,245.658485 L284.545608,245.548825 L284.308297,245.368057 L284.261178,245.359918 L284.115964,245.30723 L284.174649,245.159017 L284.152374,245.041218 L284.112965,244.941411 L284.124531,244.841174 L284.212773,244.738368 L284.447514,244.610289 L284.548179,244.517335 L284.617573,244.240186 L284.65998,244.140806 L284.785061,243.956612 L284.857883,243.915061 L284.960689,243.918059 L285.457586,243.816967 L285.599801,243.748429 L285.513273,243.529966 L285.658487,243.446435 L285.888944,243.460571 L286.059003,243.535963 L286.076566,243.636199 L286.085133,243.814396 L286.115975,243.982742 L286.207215,244.048709 L286.321587,243.973318 L286.369564,243.674751 L286.453094,243.586081 L286.572606,243.624633 L286.661705,243.761708 L286.734955,243.921486 L286.804349,244.029433 L286.899016,244.052136 L287.002251,244.029433 L287.091778,244.046139 L287.153034,244.185356 L287.12776,244.239329 L287.004821,244.422667 L286.974408,244.512194 L287.013388,244.623568 L287.085781,244.715665 L287.111483,244.818471 L287.12776,244.907999 L287.61609,244.902002 L287.540271,244.815901 L287.623801,244.548176 L287.872678,244.559314 L288.173386,244.734941 L288.413696,244.960687 L288.243637,245.000096 L288.243637,245.096905 L288.383282,245.235265 L288.650151,245.434881 L288.876324,245.493566 L289.239145,245.461011 L289.576692,245.350494 L289.721906,245.192429 L289.897534,245.122178 L290.929024,245.239977 L291.4392,245.239977 L291.565566,245.434881 L291.911252,245.434881 L292.270646,245.518839 L294.827953,247.111909 L295.408381,247.27083 L296.002087,247.258836 L296.253106,247.140181 L296.387182,246.930284 L296.501126,246.682693 L296.705025,246.44838 L296.83953,246.377272 L296.976177,246.361423 L297.106398,246.408114 L297.215202,246.525056 L297.246043,246.686548 L297.229766,246.854893 L297.263606,246.998822 L297.452513,247.094346 L297.524906,247.089206 L297.639278,247.016385 L297.687254,247.004819 L297.965688,247.109339 L298.238553,247.127758 L298.378198,247.099915 L298.492998,247.011244 L298.516987,247.236562 L298.612511,247.365069 L298.729881,247.483297 L298.813411,247.664065 L298.813411,247.705615 L298.816838,247.746738 L298.830974,247.827698 L298.93378,247.886383 L299.014312,247.852971 L299.095272,247.781007 L299.200649,247.733459 L299.655566,248.39913 L299.736955,248.558908 L299.694976,248.701123 L299.483366,248.866042 L299.586601,248.982555 L299.608019,249.124771 L299.620013,249.273412 L299.666704,249.400635 L299.75923,249.486735 L299.820485,249.484593 L299.889879,249.434047 L300.013247,249.37579 L300.057368,249.382215 L300.152035,249.440044 L300.202153,249.440044 L300.241991,249.410058 L300.350366,249.289689 L300.757736,249.214298 L300.927366,249.305539 L300.919227,249.551417 L300.751739,250.054311 L300.774013,250.142982 L300.780011,250.226512 L300.754737,250.316039 L300.710188,250.360588 L300.587677,250.396571 L300.550838,250.421416 L300.467308,250.575197 L300.427899,250.661725 L300.470307,250.684 L301.203658,250.594473 L301.407557,250.51694 L301.819211,250.263351 L302.001264,250.098432 L302.165754,249.875257 L302.372223,249.462747 L302.42791,249.37579 L302.523434,249.311107 L302.718338,249.24257 L302.799298,249.189025 L302.952651,248.985982 L303.086299,248.708834 L303.169829,248.402557 L303.169829,248.112129 L303.130848,247.941642 L303.08073,247.822986 L303.002769,247.733459 L302.871262,247.664065 L302.966358,247.120048 L302.977496,246.994538 L302.915812,246.840757 L302.83528,246.689975 L302.821144,246.570462 L302.960361,246.516917 L303.114142,246.489074 L303.186107,246.460802 L303.216949,246.486932 L303.259785,246.614583 L303.24779,246.667272 L303.203241,246.731954 L303.169829,246.821481 L303.183536,246.938423 L303.234511,246.998822 L303.309474,247.053224 L303.454688,247.120048 L303.847494,247.181303 L303.956726,247.162027 L304.073239,247.066503 L304.260433,246.804775 L304.388084,246.714391 L304.611259,246.717818 L305.833369,247.181303 L305.868923,247.222854 L305.900193,247.292248 L305.947741,247.360358 L306.026559,247.381776 L306.298996,247.348363 L306.672954,247.177876 L306.803604,247.141894 L306.93254,247.150033 L307.029349,247.206148 L307.242244,247.365069 L307.164283,247.45888 L306.865716,247.664065 L306.929113,247.768584 L307.405877,247.993473 L307.867221,248.488657 L307.894636,248.550769 L307.897206,248.64201 L307.877073,248.737105 L307.847088,248.798361 L307.823528,248.800931 L307.919909,248.985982 L308.04756,249.060945 L309.013083,249.07551 L309.193851,249.019394 L309.796124,248.60003 L310.030437,248.536633 L310.229624,248.617593 L310.208635,248.988124 L310.430525,249.013397 L310.633996,248.9213 L310.764217,248.779085 L310.887156,248.614166 L311.065354,248.450533 L311.237983,248.393561 L311.636786,248.385851 L311.788425,248.321597 L311.868528,248.18495 L311.831689,248.083857 L311.731453,248.018746 L311.61751,247.987476 L312.052723,247.484153 L312.264333,247.434464 L312.490506,247.468304 L312.700403,247.532558 L313.135188,247.45888 L313.336088,247.381776 L313.503577,247.195439 L313.550268,247.069073 L313.622233,246.75123 L313.687343,246.605588 L313.943502,246.382841 L313.976914,246.344717 L314.146973,246.349429 L314.551773,246.42996 L315.303973,246.433387 L315.823573,246.540477 L315.921239,246.509207 L316.012479,246.277464 L316.116142,246.21321 L316.892759,246.057716 L319.016994,246.148956 L319.091529,246.132679 L319.354113,245.794703 L319.387525,245.708603 L319.398234,245.579666 L319.382385,245.214276 L319.356683,245.139741 L319.31042,245.106329 L319.233744,245.030938 L319.167348,244.941411 L319.137363,244.865163 L319.118944,244.755074 L319.264586,244.695532 L319.487761,244.508767 L319.56915,244.459506 L319.702798,244.399964 L319.724644,244.394395 L319.697229,244.459506 L319.672813,244.604292 L319.641114,244.713095 L319.579859,244.793198 L319.549017,244.891293 L319.601705,245.041218 L319.694659,245.122178 L319.792325,245.108899 L320.000936,245.000096 L320.201408,244.972253 L320.734716,245.084483 L320.893638,245.058781 L321.255601,244.919564 L321.407241,244.950835 L321.451362,245.028368 L321.546029,245.321366 L321.596147,245.432739 L321.670682,245.52141 L321.947831,245.745442 L322.075482,245.80584 L322.2691,245.811409 L322.464004,245.776284 L322.607076,245.711173 L323.019586,245.343212 L323.195214,245.254542 L323.522909,245.17658 L323.855316,245.17658 L324.37406,245.3098 L324.530411,245.287954 L324.434887,245.526978 L324.580529,245.705176 L324.820839,245.864097 L325.003748,246.040153 L324.75273,246.166519 L324.639214,246.484362 L324.688476,246.821481 L324.917648,247.004819 L325.059863,247.02795 L325.14682,247.060506 L325.224782,247.121761 L325.646288,247.588673 L326.100777,247.928362 L326.201014,247.969485 L326.278975,247.945068 L326.357793,247.903089 L326.451176,247.900519 L326.540703,247.947639 L326.593391,248.000327 L326.649506,248.037166 L326.750171,248.031169 L326.814425,247.975054 L327.076152,247.664065 L327.074439,247.549264 L327.051307,247.468304 L327.020894,247.39634 L327.001189,247.323519 L326.991765,247.236562 L326.991765,246.998822 L327.016182,246.964553 L327.104852,246.74352 L327.112135,246.723387 L327.093715,246.731954 L327.08472,246.41968 L327.109564,246.42996 L327.260347,246.235913 L327.267201,246.196504 L327.375147,245.926209 L327.399992,245.895368 L327.419268,245.730449 L327.425265,245.56296 L327.399992,245.387333 L327.325458,245.189002 L327.144262,244.879727 L327.032031,244.743937 L326.914661,244.65698 L326.772445,244.635133 L326.538133,244.738368 L326.398487,244.759786 L325.885741,244.665547 L325.734958,244.512194 L325.905874,244.24704 L325.908444,244.243613 L325.966701,244.146803 L325.983835,244.054706 L325.986834,243.967749 L326.005253,243.881649 L326.055371,243.772846 L326.652933,242.816318 L326.608812,242.771341 L326.410481,242.473202 L326.09478,241.747989 L325.938429,241.594208 L325.866465,241.553086 L325.680128,241.360752 L325.456525,241.229246 L325.381133,241.119586 L325.333585,240.9748 L325.305742,240.808597 L325.166953,240.498893 L324.516275,239.817801 L324.431032,239.681583 L324.34536,239.517521 L324.302095,239.332469 L324.317945,239.14956 L324.37406,239.048039 L324.434887,239.028762 L324.493572,239.032189 L324.549687,239.007344 L324.684192,238.800447 L324.720174,238.752042 L325.088564,238.495883 L325.208076,238.356238 L325.377706,238.08937 L325.461665,237.996416 L325.600453,237.925308 L326.114057,237.824215 L326.100777,237.790803 L326.24642,237.676003 L326.540703,237.508942 L326.887246,237.176535 L327.035458,237.072016 L327.994127,236.691204 L329.268069,236.468885 L329.579486,236.295828 L330.48204,235.503363 L330.613546,235.289183 L330.662808,234.993186 L330.682941,234.923364 L330.72492,234.851399 L330.766899,234.756303 L330.785747,234.610661 L330.766899,234.218284 L330.785747,234.090204 L330.828583,233.961268 L330.953235,233.696113 L330.978509,233.563322 L330.959232,233.440383 L330.872275,233.306306 L330.836293,233.053574 L330.80845,232.991033 L330.80331,232.940915 L330.853856,232.842821 L330.936529,232.768286 L331.23681,232.653914 L331.547799,232.612792 L332.508181,232.878803 L332.669673,232.96576 L332.819598,233.07799 L332.959244,233.29474 L333.337914,233.467798 L333.358046,233.487074 L333.442005,233.115686 L333.519538,232.957621 L333.550808,232.96576 L333.742285,232.934918 L333.815963,232.901506 L333.893496,232.826972 L333.938045,232.759291 L334.094397,232.416175 L334.152225,232.235407 L334.181354,232.031079 L334.189064,231.797195 L334.138946,231.347846 L334.162934,231.1795 L334.285873,231.063415 L334.172358,231.0073 L334.125239,230.966177 L334.026716,230.770417 L333.980025,230.78798 L333.999729,230.656045 L334.275164,230.073476 L334.094397,229.887139 L333.648474,228.99658 L333.432581,228.658604 L333.304502,228.586639 L332.959244,228.533094 L332.786615,228.450421 L332.626837,228.29407 L332.482051,228.073893 L332.384385,227.820304 L332.362539,227.555149 L332.192908,227.571855 L332.035272,227.485755 L331.879777,227.360246 L331.714002,227.26258 L331.503249,227.214604 L331.374313,227.273289 L331.287784,227.42964 L331.193545,227.675947 L330.975082,227.568857 L330.682941,227.360246 L330.418643,227.11094 L330.284994,226.896761 L330.278141,226.500956 L330.176191,226.255935 L329.78467,225.856703 L329.502381,225.480604 L329.388866,225.382509 L329.205528,225.313115 L328.64352,225.285272 L328.382221,225.131491 L328.237435,224.896321 L328.114496,224.617887 L327.249638,223.441612 L327.134838,223.376929 L327.133124,223.376929 L327.133124,223.374359 L326.837128,223.022248 L326.794292,222.892026 L326.781869,222.75538 L326.731751,222.641008 L326.568546,222.573755 L326.30896,222.297892 L326.176169,222.189088 L326.019817,222.105558 L325.665564,222.00832 L325.540055,222.0503 L325.579464,222.231067 L325.40555,222.255912 L324.861533,222.174952 L324.678623,222.1077 L324.532981,221.957346 L324.230131,221.279681 L324.041653,221.087347 L323.618433,220.887303 L323.436809,220.736521 L323.331432,220.530051 L323.287311,220.300879 L323.259468,219.83568 L323.247902,219.595371 L323.177651,219.539255 L323.080414,219.55382 L322.977607,219.522549 L322.876514,219.416316 L322.80455,219.31094 L322.745008,219.182003 L322.683753,219.01323 L322.64777,218.844884 L322.607076,218.530468 L322.539395,218.376687 L322.441301,218.270883 L322.221124,218.147943 L322.126885,218.034428 L322.134167,217.997589 L322.177003,217.886216 L322.104182,217.850233 L322.081479,217.832671 L322.15944,217.657043 L322.15173,217.467708 L322.075482,217.316497 L321.947831,217.25053 L321.641554,217.102317 L321.499338,217.006793 L321.364405,216.887281 L321.174642,216.610989 L321.077404,216.429793 L321.033283,216.279867 L321.142086,216.06483 L321.524183,215.899912 L321.670682,215.752128 L321.700239,215.517815 L321.704951,215.217535 L321.760209,215.015778 L321.947831,215.074463 L322.014655,214.851716 L322.229691,214.457625 L322.301656,214.240018 L322.332498,213.961584 L322.273812,213.857921 L322.142734,213.80609 L321.763636,213.5842 L321.774345,213.428705 L321.839027,213.2368 L321.813754,213.02776 L321.657403,212.87655 L321.317714,212.843137 L321.178068,212.703064 L321.166931,212.703064 L319.77005,211.953434 L319.737923,211.861766 L319.736638,211.733686 L319.716505,211.58633 L319.635974,211.444115 L319.502325,211.326316 L319.354113,211.242357 L319.223463,211.122845 L319.142503,210.906095 L319.137363,210.690202 L319.200332,210.362507 L319.175915,210.146614 L319.103094,209.973128 L318.999431,209.814206 L318.774114,209.564044 L318.316626,209.278757 L318.221958,209.10827 L318.336759,208.933499 L318.43314,208.872244 L318.494824,208.804563 L318.512386,208.617798 L318.478974,208.414755 L318.402726,208.285819 L318.188546,208.062215 L318.865355,208.112762 L319.044409,208.239128 L319.097097,208.37192 L319.094099,208.619511 L319.131366,208.732598 L319.233744,208.823839 L319.370819,208.866247 L319.635974,208.872244 L319.702798,208.908226 L319.734068,208.960057 L319.728071,209.027738 L319.685235,209.10827 L319.672813,209.112553 L319.66039,209.113838 L319.647968,209.122406 L319.635974,209.133115 L319.611129,209.161815 L319.601705,209.18923 L319.611129,209.223498 L319.635974,209.256482 L319.797465,209.417545 L319.836018,209.473661 L319.876283,209.565758 L319.892133,209.650145 L319.901128,209.725536 L320.012502,210.12134 L320.107169,210.269553 L320.262664,210.288829 L320.390743,210.194161 L320.390743,210.065225 L320.338055,209.911444 L320.310212,209.733246 L320.341482,209.477087 L320.38903,209.342582 L320.573225,209.10827 L320.597213,208.879954 L320.673461,208.76601 L320.777124,208.693189 L320.879502,208.584386 L321.166931,208.062215 L321.267596,207.966263 L321.537034,207.812053 L321.648836,207.714387 L321.682676,207.694255 L321.763636,207.697681 L321.803045,207.678405 L321.822321,207.62486 L321.816324,207.567032 L321.803045,207.518627 L321.803045,207.487785 L321.82789,207.42396 L321.846309,207.349425 L321.878436,207.279174 L321.947831,207.21749 L322.204418,206.999884 L322.575806,206.887653 L323.267178,206.838392 L323.763219,206.927919 L323.883588,206.912927 L323.986394,206.813119 L324.189865,206.497846 L324.310234,206.380904 L324.46016,206.325645 L324.608372,206.317078 L324.772863,206.339781 L324.831548,206.317078 L324.960484,206.230978 L325.043157,206.213415 L325.121119,206.236975 L325.977838,206.757432 L326.293111,206.777137 L326.568546,206.503843 L326.700481,206.349634 L326.761736,206.086192 L326.822992,205.494628 L326.897955,205.441083 L326.975916,205.421807 L327.051307,205.439369 L327.124129,205.490344 L327.205089,205.516474 L327.291189,205.525041 L327.378146,205.516474 L327.461248,205.494628 L327.464675,205.490344 L327.727259,205.40253 L328.21259,205.430374 L328.440906,205.260315 L328.574554,205.020434 L328.880831,204.197126 L329.059886,204.214689 L329.210668,204.320066 L329.362736,204.387746 L329.558496,204.289224 L329.656591,203.993656 L329.709279,203.901987 L330.055394,203.656537 L330.111509,203.595709 L330.117506,203.542165 L330.141922,203.525459 L330.256294,203.567009 L330.306412,203.622268 L330.434492,203.840731 L330.495747,203.918693 L330.702217,204.018929 L330.875274,203.97695 L331.031197,203.834734 L331.193545,203.634262 L331.285214,203.581145 L331.338759,203.513464 L331.34647,203.424794 L331.293781,203.306995 L331.447991,203.193908 L331.572643,203.03156 L331.608626,202.836656 L331.500679,202.613481 L331.879777,202.384737 L332.298285,202.30549 L333.128874,202.309774 L333.307072,202.276362 L333.659183,202.144855 L333.860084,202.124722 L334.283732,202.173127 L334.450792,202.137145 L334.719373,201.971798 L334.774632,201.969228 L334.82732,201.949095 L334.891574,201.860425 L334.895001,201.782463 L334.872726,201.68137 L334.860732,201.555861 L334.900141,201.414502 L334.986241,201.310839 L335.06506,201.308269 L335.154587,201.336541 L335.270672,201.316408 L335.36534,201.246157 L335.508412,201.065389 L335.606078,200.995995 L335.786846,200.957014 L336.123965,200.998565 L336.303019,200.987856 L337.744878,200.32604 L337.856679,200.220664 L338.026738,199.963648 L338.126974,199.866839 L338.458525,199.797016 L339.183738,199.852275 L339.457459,199.623959 L339.510148,199.258568 L339.264698,199.116353 L338.924152,199.014831 L338.687697,198.780519 L338.695836,198.627594 L338.773797,198.574906 L338.78879,198.544064 L338.603739,198.46953 L338.291036,198.426694 L338.18309,198.357299 L338.285039,198.206945 L338.417402,197.785011 L338.639721,197.560979 L338.933576,197.511717 L339.276692,197.626946 L339.346086,197.690772 L339.395347,197.771732 L339.457459,197.851835 L339.557696,197.906237 L339.657932,197.90795 L339.917518,197.794435 L340.252067,197.813711 L340.359156,197.758453 L340.439688,197.554982 L340.493233,197.679634 L340.511653,197.769162 L340.545065,197.855262 L340.631165,197.975203 L340.745537,198.056163 L340.994414,198.117418 L341.107929,198.206945 L341.220159,198.343164 L341.292981,198.460962 L341.320396,198.602321 L341.30369,198.823355 L341.231725,198.998982 L341.119495,199.207593 L341.069377,199.386219 L341.17561,199.471034 L341.685358,199.258568 L341.797588,199.261567 L341.847706,199.425628 L341.794161,199.620532 L341.638238,199.988921 L341.604826,200.251506 L341.650232,200.359452 L341.970645,200.44898 L342.103437,200.524371 L342.458119,200.792096 L342.802092,200.867915 L343.002135,200.875626 L343.149491,200.837073 L343.239018,200.73341 L343.328546,200.56378 L343.473331,200.170546 L343.47633,199.899394 L343.605266,199.685214 L343.934246,199.316825 L344.402015,198.206945 L344.814954,197.160034 L344.842797,196.992974 L344.842797,196.708972 L344.859503,196.566756 L344.910478,196.463093 L344.982442,196.397126 L345.044554,196.299031 L345.060404,196.109268 L345.071113,195.73788 L345.146504,195.32537 L345.27287,194.932136 L345.430935,194.620718 L345.392382,194.580881 Z M329.492529,144.41911 L329.45312,144.303881 L329.403002,144.094842 L329.294199,144.01431 L329.187109,143.968904 L329.137847,143.875093 L328.983638,143.838254 L328.275131,143.944059 L328.064378,144.047722 L328.147051,144.047722 L328.205737,144.084133 L328.243432,144.165093 L328.253285,144.303881 L328.272561,144.42682 L328.31454,144.463231 L328.359518,144.474368 L328.379651,144.524486 L328.451615,144.597736 L328.615677,144.580173 L328.890255,144.471798 L328.897538,144.583172 L328.884258,144.636288 L328.854273,144.661133 L328.822146,144.697972 L328.895824,144.839759 L329.006341,144.914722 L329.264213,145.015815 L329.205528,145.087779 L329.149413,145.118621 L329.137847,145.12162 L329.137847,145.230423 L328.948512,145.263407 L328.670079,145.414189 L328.418203,145.475873 L328.348809,145.558546 L328.189031,145.891382 L328.599828,145.782579 L328.694495,145.822416 L328.752752,145.910658 L328.822146,145.985193 L328.948512,146.000185 L328.948512,146.096995 L328.903535,146.262341 L328.951082,146.417836 L329.059886,146.521499 L329.208098,146.540775 L328.928808,146.727112 L328.803298,146.752385 L328.697065,146.650435 L328.63324,146.75624 L328.348809,146.568619 L328.117066,146.67528 L327.932015,146.956284 L327.807362,147.296402 L328.379651,147.737184 L328.379651,147.834421 L328.237435,147.777021 L328.114496,147.824141 L328.058381,147.930374 L328.123063,148.052456 L328.214304,148.042176 L328.498735,147.901674 L328.63324,147.944081 L328.580551,148.143697 L328.679931,148.2812 L328.844849,148.36216 L328.978926,148.384435 L329.037183,148.431983 L329.124568,148.524509 L329.216237,148.587906 L329.295912,148.543785 L329.366163,148.4851 L329.461687,148.464967 L329.648024,148.4851 L329.623179,148.428556 L329.58377,148.384435 L329.639885,148.303475 L329.701569,148.241791 L329.837359,148.16126 L329.740121,148.401569 L329.69343,148.587906 L329.620609,148.671436 L329.94659,148.886044 L330.239588,148.992277 L330.503886,149.032115 L330.649528,148.961864 L330.668805,148.794804 L330.600267,148.434125 L330.538155,148.407566 L330.096516,148.4851 L330.111509,148.499664 L330.136782,148.499664 L330.155201,148.520653 L330.152631,148.601185 L330.027122,148.707847 L330.063961,148.286341 L330.266575,148.180536 L330.493177,148.133416 L330.600267,147.890536 L330.704787,147.726903 L331.193545,147.29426 L331.357179,147.188883 L332.281579,147.079223 L332.384385,147.140479 L332.456349,147.244142 L332.535596,147.279696 L332.660249,147.13491 L332.749776,147.067658 L332.878712,147.056949 L333.126304,147.079223 L333.126304,147.188883 L332.953247,147.260848 L332.44307,147.620241 L332.626837,147.494304 L332.839303,147.428336 L333.322064,147.394496 L333.243674,147.574835 L333.101459,147.690064 L332.760913,147.834421 L332.760913,147.944081 L332.873143,147.994199 L333.020927,147.994199 L333.163143,147.941083 L333.256954,147.834421 L333.322064,147.834421 L333.358046,148.005765 L333.322064,148.111142 L333.235107,148.16126 L333.126304,148.16126 L333.330631,148.230654 L333.424442,148.241791 L333.452714,148.142412 L333.452714,147.890536 L333.488696,147.631807 L333.58165,147.428336 L333.701163,147.277125 L333.826672,147.188883 L333.5975,147.101926 L333.438578,146.892887 L333.195698,146.440967 L332.999938,146.304749 L332.563439,146.198087 L332.373676,146.096995 L332.279009,145.954779 L332.175346,145.721323 L332.091387,145.442461 L332.057975,145.177306 L332.146645,144.94385 L332.348403,144.747662 L332.760913,144.471798 L332.999938,144.086274 L332.939111,143.676763 L332.663676,143.367487 L332.249023,143.27539 L331.05133,143.506704 L330.662808,143.375197 L330.507313,143.244548 L330.384374,143.068492 L330.309839,142.839748 L330.278141,142.558316 L330.350105,142.33257 L330.520592,142.184786 L330.710784,142.072984 L330.853856,141.958612 L330.853856,141.860518 L330.610119,141.729868 L330.350105,141.732867 L329.082589,142.100827 L328.973786,142.181787 L328.871836,142.287164 L328.822146,142.396824 L328.816578,142.581447 L328.875263,142.600723 L329.011481,142.505199 L329.424848,142.396824 L329.45312,142.464076 L329.430417,142.614002 L329.392293,142.764785 L329.362736,142.831181 L329.232943,142.952406 L329.112574,143.219274 L329.04832,143.511844 L329.079162,143.701607 L329.266784,143.760721 L329.433844,143.634783 L329.589338,143.461726 L329.807802,143.331076 L329.955157,143.124607 L330.027122,143.049216 L330.150061,142.946409 L330.172764,143.009807 L330.278141,143.169585 L330.339824,143.280958 L330.370238,143.386763 L330.429352,143.461726 L330.568568,143.495138 L330.658096,143.546541 L330.721493,143.657486 L330.772468,143.769288 L330.819587,143.818978 L331.138287,143.838254 L331.23681,143.818978 L331.30449,143.763291 L331.363176,143.678904 L331.435568,143.609938 L331.552939,143.6018 L331.552939,143.701607 L331.480975,143.71917 L331.442422,143.746157 L331.411152,143.779569 L331.357179,143.818978 L331.357179,143.927781 L331.429571,144.019022 L331.480975,144.131252 L331.552939,144.354428 L331.552939,144.471798 L331.491684,144.518918 L331.447991,144.58617 L331.357179,144.797351 L331.427858,144.914722 L330.950665,144.926288 L330.721493,144.845756 L330.538155,144.580173 L330.59684,144.339863 L330.488037,144.120115 L330.322262,143.913217 L330.222882,143.701607 L330.096516,143.818978 L330.096516,143.927781 L330.176191,143.952626 L330.264862,144.025019 L330.342395,144.047722 L330.287136,144.222921 L330.20532,144.324014 L330.096516,144.362995 L329.962868,144.354428 L330.049825,144.120115 L330.096516,144.047722 L330.053252,143.973187 L330.010416,143.936349 L329.960298,143.927781 L329.899042,143.927781 L329.979574,143.838254 L330.049825,143.699466 L330.152631,143.375197 L329.997137,143.434739 L329.824508,143.567103 L329.654021,143.744015 L329.522514,143.927781 L329.597906,144.175373 L329.564493,144.357426 L329.492529,144.41911 Z M308.432656,145.380777 L308.482774,145.383776 L308.516186,145.447173 L308.544029,145.564544 L308.61428,145.564544 L308.680247,145.472446 L308.78134,145.439463 L309.02422,145.447173 L309.155298,145.498148 L309.197278,145.62023 L309.179715,145.94407 L309.282521,146.075577 L309.527971,146.114129 L309.899359,146.091854 L309.858236,146.064439 L309.817971,146.000185 L309.985459,145.902948 L311.148456,146.096995 L310.607866,145.068503 L310.463937,144.801635 L310.390259,144.703541 L310.15252,144.499641 L309.363909,144.159524 L308.917987,144.234487 L308.555595,144.589169 L308.296437,145.230423 L308.320425,145.451028 L308.432656,145.380777 Z M283.130737,140.868865 L283.189422,140.818747 L283.237398,140.600712 L283.262243,140.313283 L283.228831,139.440286 L283.256674,139.376032 L283.271238,139.060759 L283.296083,138.943389 L283.343203,138.896697 L283.622065,138.700509 L283.683749,138.675664 L283.772848,138.673522 L283.850381,138.711646 L283.928342,138.852576 L283.990026,138.88299 L284.62614,138.88299 L284.768784,138.842724 L285.022373,138.643108 L285.167158,138.563862 L286.321587,138.628544 L286.552902,138.444778 L284.537041,138.547584 L284.093689,138.436211 L283.781415,138.137644 L283.834531,137.568782 L283.754,137.270644 L283.850381,136.947233 L284.023438,136.687647 L284.400394,136.475609 L284.483925,136.252862 L284.408962,136.05753 L284.149376,136.032256 L284.224767,135.951725 L284.787632,135.920883 L284.347706,135.684 L283.956614,136.171473 L283.259244,138.140643 L283.170146,138.48333 L283.061771,140.220757 L283.070338,140.641835 L283.130737,140.868865 Z M284.988532,141.735865 L285.231841,141.643339 L285.309374,141.710592 L285.451589,141.766279 L285.607512,141.783413 L285.73602,141.743576 L285.810983,141.631774 L285.916788,141.325925 L285.993036,141.197417 L285.993036,141.089042 L285.828546,140.804183 L285.619078,140.672676 L285.102904,140.641835 L284.7932,140.670963 L284.54261,140.767772 L284.333142,140.971243 L284.149376,141.305792 L284.690394,141.643339 L284.988532,141.735865 Z M268.268799,159.249777 L268.436287,159.334593 L268.491974,159.317458 L268.628192,159.244209 L268.723717,159.227931 L268.80125,159.258773 L268.921619,159.400988 L269.002579,159.450678 L268.937896,159.299895 L268.871501,159.208655 L268.792683,159.152968 L268.689876,159.113559 L268.689876,159.015465 L268.859935,158.973914 L269.181205,158.834697 L269.387246,158.804283 L269.264306,158.561832 L268.91862,158.588818 L268.216539,158.804283 L268.107735,158.887814 L268.142861,159.069438 L268.268799,159.249777 Z M333.701163,150.216958 L333.813393,150.394727 L334.191634,150.790531 L334.272594,151.034268 L334.219049,151.44635 L333.970601,151.96338 L333.896066,152.267087 L334.082831,152.339908 L334.211767,152.210972 L334.347986,152.029347 L334.645696,151.898698 L334.72537,151.840441 L334.794765,151.862287 L334.842313,152.05205 L334.815754,152.155713 L334.74122,152.247811 L334.672682,152.37846 L334.655119,152.587928 L334.976389,152.464989 L335.031648,152.431149 L335.059063,152.313778 L335.125887,152.193837 L335.210702,152.097028 L335.290805,152.05205 L335.290805,151.938107 L335.207275,151.740205 L335.301514,151.618979 L335.485709,151.577856 L335.669047,151.623262 L335.814689,151.740205 L335.941055,151.907693 L336.043005,152.118874 L336.116683,152.372892 L336.330862,152.283365 L336.459799,152.545521 L336.475648,152.964456 L336.358277,153.349123 L336.431955,153.553023 L336.116683,153.454928 L336.133389,153.365401 L336.157805,153.310143 L336.193359,153.268163 L336.242192,153.231753 L335.867377,153.228754 L335.75172,153.29515 L335.606078,153.553023 L335.616359,153.305002 L335.692607,152.99744 L335.669047,152.910911 L335.730731,152.793541 L335.567097,152.724147 L335.101042,152.695447 L335.078339,153.101103 L335.421455,153.750925 L335.352917,154.204558 L335.265532,154.297083 L334.944262,154.48085 L334.648266,154.544675 L334.456789,154.692888 L334.33642,154.738294 L334.506907,154.969608 L334.830747,155.069416 L335.416315,155.05785 L335.946624,154.915635 L336.216062,154.759712 L336.431955,154.51469 L336.58745,154.626492 L336.794348,154.654335 L337.839117,154.533966 L337.76244,154.285946 L337.600949,154.088044 L337.688762,154.0602 L337.764582,154.006655 L337.923075,153.585578 L337.764582,153.468207 L336.138529,151.684518 L335.85624,151.505892 L335.508412,151.371387 L334.897571,151.014563 L334.655119,150.766115 L334.543746,150.562215 L334.356981,150.046899 L334.272594,149.893118 L334.100394,149.821153 L333.929478,149.887121 L333.784693,150.038332 L333.701163,150.216958 Z M327.380716,144.892876 L327.399992,144.734383 L327.433404,144.580173 L327.486092,144.45552 L327.616742,144.339863 L327.684423,144.253763 L327.77652,143.922213 L327.785088,143.615507 L327.838632,143.352923 L328.064378,143.169585 L328.064378,143.495138 L328.123063,143.495138 L328.123063,143.27539 L328.158189,143.280958 L328.187317,143.313942 L328.192458,143.334075 L328.192458,143.15245 L328.132916,143.059925 L328.030109,143.043647 L327.901173,143.049216 L327.752104,143.089053 L327.684423,143.199998 L327.620169,143.6018 L327.334025,144.647426 L327.304896,145.015815 L327.304896,145.230423 L327.36915,145.230423 L327.380716,144.892876 Z M328.195028,143.352923 L328.192458,143.334075 L328.189031,143.375197 L328.195028,143.352923 Z M288.02089,145.015815 L288.120698,145.193584 L288.310033,145.261265 L288.714833,145.230423 L288.930298,145.118621 L289.063518,144.939995 L289.183887,144.744663 L289.350947,144.580173 L289.339381,144.491074 L289.34495,144.420823 L289.364226,144.37456 L289.406634,144.354428 L289.001834,144.246053 L288.63987,144.2649 L288.310033,144.416111 L288.02089,144.697972 L288.092855,144.772507 L288.136976,144.867602 L288.120698,144.958843 L288.02089,145.015815 Z M283.772848,141.414595 L283.798121,141.397889 L283.822537,141.400888 L283.8401,141.383753 L283.834531,141.305792 L283.633631,141.381612 L283.466142,141.562379 L283.198417,142.069986 L283.382612,142.321861 L283.555669,142.639276 L283.772848,142.835036 L284.08812,142.723662 L284.212773,142.614002 L284.038002,142.514195 L283.577516,141.643339 L283.668756,141.5204 L283.772848,141.414595 Z M277.517083,156.414037 L277.598043,156.352781 L277.681573,156.232412 L277.907319,156.383195 L278.175472,156.366917 L278.435486,156.257257 L278.640671,156.126607 L278.772177,156.126607 L278.772177,156.017804 L277.988279,155.966829 L277.601042,156.053786 L277.366301,156.347641 L277.439122,156.414037 L277.517083,156.414037 Z M275.712404,156.893371 L275.983128,156.880092 L276.005402,156.605942 L276.320675,156.531407 L276.992343,156.550255 L277.017616,156.536119 L277.042889,156.539974 L277.054027,156.522412 L277.051456,156.455159 L276.864692,156.341644 L276.041813,156.347641 L275.757382,156.35835 L275.646008,156.430314 L275.598032,156.60894 L275.628874,156.818408 L275.712404,156.893371 Z M275.15211,156.988467 L275.221504,156.966621 L275.251918,156.941776 L275.282759,156.880092 L275.163247,156.784996 L274.984621,156.743445 L274.797428,156.774287 L274.647502,156.880092 L274.78115,156.874523 L275.15211,156.988467 Z M271.690964,157.406974 L270.43073,157.572321 L270.090184,157.741095 L272.045217,157.518348 L271.690964,157.406974 Z M279.348749,155.937272 L279.514096,155.928277 L279.90476,156.017804 L280.001569,156.007523 L280.091096,156.023801 L279.846075,155.873018 L279.70643,155.830611 L279.555647,155.814333 L279.363313,155.836179 L279.195825,155.897863 L279.156844,155.996386 L279.33547,156.126607 L279.348749,155.937272 Z M281.767268,157.035586 L281.818243,157.072425 L281.898774,157.0947 L281.942895,157.06086 L282.091108,156.916502 L282.180635,156.880092 L282.313855,156.880092 L282.118951,156.73959 L281.909483,156.707035 L281.728715,156.787566 L281.613915,156.988467 L281.613915,157.0947 L281.711153,157.030018 L281.767268,157.035586 Z M273.992112,157.145246 L274.421328,156.972189 L274.44703,156.972189 L274.460309,156.955055 L274.45731,156.880092 L273.408686,156.85696 L272.910075,156.941776 L272.488998,157.191509 L272.858672,157.295172 L273.992112,157.145246 Z M286.23206,144.123113 L286.065,144.251621 L286.006315,144.507352 L286.101839,144.735668 L286.221351,144.842758 L286.427392,144.845756 L286.689548,144.694545 L286.905013,144.354428 L286.979976,143.96719 L286.9607,143.794133 L286.366994,144.047722 L286.299313,144.09013 L286.23206,144.123113 Z M313.232425,151.730781 L313.354508,151.477192 L313.782011,151.084814 L313.937505,150.860782 L313.810711,150.988862 L313.182307,151.290427 L313.133046,151.407797 L313.129619,151.44635 L313.182307,151.730781 L313.232425,151.730781 Z M312.007745,153.122521 L312.155529,153.132373 L312.293033,153.016288 L312.251053,152.799538 L312.301172,152.66846 L312.379133,152.66846 L312.418542,152.852226 L312.35386,153.126376 L312.362427,153.234751 L312.474229,153.231753 L312.574037,153.083969 L312.848187,152.267087 L312.57061,152.138151 L312.189798,152.264088 L311.855249,152.553231 L311.717317,152.910911 L311.860389,153.033851 L312.007745,153.122521 Z M270.124024,158.452172 L270.26881,158.512142 L270.525397,158.221714 L270.483418,158.154462 L270.279519,158.07393 L270.112459,158.070932 L270.059342,158.118051 L270.020361,158.135614 L270.003655,158.182305 L270.009652,158.349365 L270.124024,158.452172 Z M286.804349,151.363676 L286.731956,151.363676 L286.656136,151.430072 L286.620583,151.477192 L286.589741,151.614695 L286.595309,151.68923 L286.626151,151.784326 L286.723389,151.923971 L286.840759,151.96338 L286.871173,151.872996 L286.87717,151.8066 L286.905013,151.734636 L286.899016,151.68666 L286.849327,151.653676 L286.812488,151.586423 L286.796638,151.516172 L286.809917,151.44635 L286.804349,151.363676 Z" id="Fill-3"></path>
        </g>
    </g>
</svg>