
<svg width="96px" height="116px" viewBox="0 0 96 116" version="1.1" xmlns="http://www.w3.org/2000/svg" xmlns:xlink="http://www.w3.org/1999/xlink">
    <!-- Generator: Sketch 51.2 (57519) - http://www.bohemiancoding.com/sketch -->
    <desc>Created with Sketch.</desc>
    <defs></defs>
    <g id="Page-1" stroke="none" stroke-width="1" fill="none" fill-rule="evenodd">
        <g id="DK-EPS-01-0001" transform="translate(-300.000000, -150.000000)" fill="#7F807C">
            <path d="M381.859521,253.87904 L381.554936,253.601162 L381.173723,253.601162 L380.790101,253.728343 L380.409852,253.776336 L380.080688,253.601162 L379.41706,252.969099 L379.240189,252.816003 L379.214646,252.662906 L378.935604,252.031323 L378.756805,251.829754 L378.247879,252.055799 L378.071972,252.080755 L378.172697,252.411425 L378.2233,252.537165 L377.968837,252.740654 L377.663288,252.713778 L377.381837,252.487253 L377.232918,252.109071 L377.281112,251.601788 L377.458465,251.273519 L377.611721,250.86942 L377.536057,250.210001 L377.686903,250.159609 L377.764495,250.084741 L377.813171,250.009392 L377.913896,249.934524 L377.86522,249.906208 L377.815099,249.906208 L377.790038,249.854856 L377.790038,249.703679 L378.475354,249.82894 L379.567907,250.867021 L380.280693,251.173214 L380.737088,251.072429 L381.421921,250.540191 L381.728434,250.41349 L382.211817,250.385655 L382.618573,250.235438 L382.898579,249.878852 L382.923158,249.222313 L382.161696,247.551688 L382.010367,247.47442 L382.214709,247.296367 L382.620019,247.070322 L382.798818,246.942182 L382.947736,246.866833 L383.079305,246.715176 L383.204127,246.358111 L383.02581,245.550874 L382.264831,245.295554 L380.562144,245.144377 L379.976108,244.690846 L379.874901,244.53775 L379.926468,244.181164 L380.0537,244.056383 L380.20551,244.005991 L380.308163,243.828418 L380.712991,243.549581 L381.117337,243.675322 L381.347221,244.156688 L381.195411,244.914492 L381.3718,245.067109 L381.550117,245.094464 L381.728434,244.966324 L381.879762,244.66253 L381.752049,244.052064 L382.006512,243.344652 L382.410376,242.737065 L382.91882,242.406876 L383.248466,242.079566 L387.491928,241.092837 L388.559902,240.334553 L388.688098,240.234248 L388.995092,239.853186 L388.71605,238.91733 L388.613397,238.412927 L388.584963,237.80534 L388.383513,237.299497 L387.925672,236.742303 L387.061076,236.009455 L386.73384,235.857318 L385.487067,235.757013 L385.131397,235.628393 L384.139569,234.770764 L383.606063,232.897611 L384.62247,230.798412 L386.300578,229.052439 L387.776753,228.214968 L388.181581,228.214968 L388.436526,228.367584 L388.663037,228.571073 L388.993646,228.696334 L389.451487,228.543237 L389.652937,228.112263 L389.784024,227.682729 L390.545004,227.15193 L391.355623,225.581611 L391.789367,225.024416 L391.610569,224.643354 L391.534422,224.468181 L391.509844,224.288209 L391.534422,224.061683 L391.664546,223.452656 L391.69057,222.693413 L391.7378,222.211566 L391.81491,221.85834 L391.559965,221.428806 L391.279959,220.717075 L391.052966,219.934315 L390.952241,219.24994 L390.822118,218.796409 L390.545004,218.238734 L389.985474,217.426699 L389.985474,217.150261 L390.23801,216.743763 L390.796094,215.302064 L391.076581,214.695437 L391.915153,213.556091 L392.196605,212.999856 L391.156101,212.111992 L390.571511,211.859551 L389.862098,211.227008 L389.478476,211.023519 L388.027843,211.023519 L386.276963,210.012793 L384.616687,209.945604 L382.990629,210.856504 L379.889359,213.487462 L377.960644,214.678639 L376.917249,215.563144 L376.56206,216.451488 L376.89267,216.755281 L377.474851,216.654497 L379.000666,216.097782 L379.433446,216.070426 L379.789116,216.275835 L380.095628,216.782157 L380.579012,218.703303 L380.654676,219.210106 L380.654676,220.473752 L381.494212,224.371716 L381.445536,225.155436 L380.986731,226.293342 L380.808414,227.02619 L380.123099,226.747832 L379.815623,226.494431 L379.687909,226.168081 L379.765983,226.092732 L380.400695,226.293342 L380.222378,225.838851 L379.942372,225.535058 L379.612727,225.435233 L379.30766,225.560494 L379.257539,226.140245 L378.799216,226.619692 L378.216553,226.899969 L377.810279,226.800144 L378.065224,226.293342 L378.776083,225.610886 L378.928857,225.204388 L379.078258,224.598241 L379.435374,224.547849 L380.171293,224.79885 L380.679737,224.041046 L380.631543,222.672296 L380.275873,221.20516 L379.892251,220.168999 L379.74285,219.888242 L379.637788,219.787937 L379.564051,219.63724 L379.463808,219.178911 L379.487905,218.900553 L379.564051,218.494535 L379.564051,218.142749 L379.357782,217.989653 L378.978015,217.786164 L378.264747,217.02692 L377.91004,217.001484 L377.76064,217.686339 L378.242096,218.750336 L378.647405,219.914158 L378.319688,220.924883 L377.961608,221.127412 L377.252195,221.328502 L376.945201,221.634695 L376.614592,222.443851 L376.463263,222.948734 L376.388563,223.354751 L376.438202,223.480492 L376.614592,223.936422 L376.665195,224.191263 L376.588085,224.265172 L375.749031,226.113369 L375.49505,226.439719 L375.139862,226.768469 L375.318179,226.163762 L375.446374,225.958353 L375.446374,225.7803 L375.295528,225.32581 L374.812144,224.594402 L374.481535,224.262772 L374.327315,224.440825 L374.124901,224.516654 L373.210183,224.594402 L372.929695,224.54305 L372.676196,224.262772 L372.827524,224.037207 L373.182231,223.88411 L374.812144,223.580317 L374.836723,223.325476 L374.683467,222.745245 L374.481535,222.165973 L374.350448,221.885216 L373.970681,221.836744 L373.615493,222.015756 L373.310908,222.268678 L373.029456,222.393938 L372.039074,222.497123 L371.709429,222.393938 L371.709429,222.116061 L372.089678,222.116061 L372.318598,221.912572 L372.674268,221.380334 L372.978371,221.253153 L373.615493,221.433126 L373.922487,221.380334 L374.202493,220.671002 L373.817425,219.685233 L372.827524,217.912384 L373.031384,217.608591 L373.282956,217.455974 L373.922487,217.406062 L373.843931,217.761687 L373.79381,217.886948 L374.124901,218.065481 L374.456474,218.015089 L374.582742,217.788563 L374.353339,217.409901 L374.531656,217.02932 L375.093114,216.347344 L375.16685,215.990758 L374.939858,215.684565 L374.534066,215.762313 L373.797183,216.216804 L372.373539,216.648258 L371.534485,216.69817 L371.153754,216.342545 L368.025496,215.863578 L367.492955,215.990758 L364.901093,214.751588 L365.07941,215.383171 L365.535805,215.790149 L367.161863,216.394377 L368.462132,216.495161 L369.044313,216.748562 L369.706013,217.937341 L369.605288,219.356483 L369.044313,220.317776 L368.361407,220.1642 L367.927181,220.645566 L367.46934,220.849055 L366.962341,220.771787 L366.454379,220.415681 L366.582574,220.696438 L366.93728,221.200361 L367.015354,221.479198 L366.988366,221.704764 L366.885231,222.18613 L366.859207,222.465448 L366.758963,222.997206 L366.530043,223.327876 L366.224976,223.505448 L365.537251,223.656145 L364.854345,224.137512 L364.525182,224.262772 L363.786853,224.262772 L363.457208,224.187904 L363.277927,223.984415 L362.998885,224.237816 L363.837456,224.970664 L363.332868,225.276377 L362.745867,225.096405 L362.239833,224.616958 L361.910187,224.007931 L362.088504,223.857714 L362.291882,223.781406 L362.494778,223.781406 L362.723216,223.806842 L362.723216,223.555841 L362.037419,223.680622 L360.766067,224.187904 L360.106294,224.288209 L356.902853,223.806842 L356.902853,224.032888 L357.23539,224.21286 L358.300473,224.288209 L358.6306,224.463382 L358.782411,224.664951 L358.909642,224.945708 L359.113984,225.301334 L359.597368,225.605127 L360.869683,226.136406 L361.198847,226.743513 L358.019985,226.465155 L358.019985,226.743513 L360.230152,227.34774 L361.222462,227.932291 L362.111155,229.04812 L362.391161,229.730576 L362.441765,230.414951 L362.237423,230.918874 L361.705846,231.124762 L361.424394,231.124762 L361.220052,231.225067 L361.092339,231.478468 L361.064868,231.961274 L361.169931,232.162363 L361.397405,232.087495 L361.752112,231.834574 L362.387306,231.881606 L362.6943,232.061579 L362.94539,232.365372 L363.200817,232.819863 L363.608054,234.084469 L363.757455,234.894585 L363.683718,235.249731 L363.935772,235.45322 L363.964206,235.882274 L363.757455,236.313248 L363.329012,236.516737 L363.100092,236.566649 L362.844665,236.69287 L362.618154,236.872363 L362.439355,237.097928 L362.235977,237.249105 L361.930429,237.275981 L361.397405,237.226069 L361.397405,237.47899 L361.676447,238.26415 L361.805125,238.417246 L362.110191,238.417246 L362.262484,238.188801 L362.363691,237.885488 L362.491404,237.680559 L362.695746,237.655123 L363.00033,237.655123 L363.2813,237.756387 L363.433593,237.93396 L363.408532,238.289106 L363.154551,238.417246 L362.874545,238.441722 L362.695746,238.542987 L362.874545,238.869337 L363.993122,239.907418 L364.347829,240.113307 L364.476506,240.313436 L364.425903,241.171065 L364.476506,241.376953 L364.95989,241.351997 L365.186882,241.272809 L365.39267,241.121632 L365.263028,241.602999 L365.009529,241.831444 L364.703017,241.831444 L364.425903,241.602999 L364.551206,242.565731 L364.881816,243.072534 L365.39026,243.247707 L366.103046,243.275543 L365.695809,243.046618 L365.695809,242.796096 L367.093428,242.796096 L367.37247,242.695791 L367.932,242.390078 L368.185981,242.339206 L369.581673,242.971749 L369.863607,242.820572 L370.218795,243.046618 L371.744128,243.428159 L372.480047,243.754989 L372.759571,243.779466 L373.039577,243.527984 L373.319583,243.147882 L373.651156,242.844089 L374.107551,242.844089 L374.412618,243.121966 L374.439606,243.527984 L374.262735,243.931122 L373.956223,244.260832 L374.285868,244.715802 L375.429025,244.639974 L375.859877,244.99368 L375.911444,245.274437 L375.782767,245.424654 L374.029959,245.755803 L374.538886,246.638868 L375.782767,247.577124 L376.240608,248.38676 L375.173116,248.158795 L373.037649,247.174946 L371.94606,246.946981 L372.251127,247.325643 L372.581254,247.631836 L372.962467,247.833885 L374.232855,247.909713 L374.384665,247.986982 L374.664189,248.313812 L374.767806,248.39252 L375.149501,248.466428 L376.496517,249.100891 L376.724955,249.452197 L377.104722,250.515715 L377.310992,250.795512 L377.310992,250.997081 L376.902309,251.400699 L376.623267,251.553796 L376.496517,251.348387 L376.421335,251.300395 L375.963976,251.779361 L375.734091,251.932458 L375.507099,251.832153 L375.101307,251.348387 L374.822265,251.247603 L374.617923,251.325351 L373.829473,251.932458 L373.829473,252.185859 L374.235747,252.363912 L374.439606,252.719537 L374.517198,253.198504 L374.517198,253.856003 L374.590935,254.538459 L374.819855,254.894564 L375.124922,255.147486 L375.480592,255.552064 L375.610715,255.827542 L375.610715,256.007994 L375.583245,256.183647 L375.632884,256.463924 L375.734091,256.765798 L375.809274,256.918415 L376.751462,257.879228 L376.957731,258.283326 L377.083035,258.458979 L377.312438,258.586639 L377.10665,259.17071 L377.182314,259.522496 L377.46232,259.729345 L377.87004,259.802773 L377.310992,260.688718 L377.057011,261.244953 L377.030986,261.956684 L377.179905,262.383338 L377.844015,263.700257 L378.124021,264.104835 L378.224746,264.586201 L378.65849,265.117 L379.06139,265.065168 L379.112475,263.825998 L378.885001,261.85254 L378.885001,260.73863 L379.165007,260.256304 L379.368384,260.101768 L379.902371,259.445228 L380.106713,259.294051 L380.206956,259.013294 L380.944803,257.47177 L381.252279,257.142061 L383.02822,255.673485 L383.02822,255.44744 L382.420496,254.739068 L381.859521,253.87904 Z M333.968397,250.662092 L333.81755,250.15577 L333.535617,249.95468 L332.417521,249.648967 L331.986669,249.293342 L331.173158,248.382441 L330.740377,248.204868 L330.512903,248.282136 L330.336514,248.435233 L330.183257,248.612806 L330.031447,248.713111 L329.85313,248.738547 L329.346613,248.713111 L328.202975,249.167601 L327.948994,249.167601 L327.772122,248.660799 L328.127311,248.382441 L329.042029,248.204868 L329.424205,248.003779 L329.781803,247.677429 L330.28832,246.990654 L329.805418,246.23237 L329.49746,245.930016 L329.218418,245.801876 L328.636237,245.801876 L328.381774,245.753403 L328.177914,245.600787 L328.431895,245.397778 L328.711901,245.322909 L329.294082,245.347386 L329.294082,245.094464 L328.938894,245.094464 L328.760095,244.842503 L328.760095,244.53775 L328.913833,244.387053 L329.167814,244.334741 L329.447338,244.20708 L329.928794,243.903287 L330.107593,243.675322 L330.235307,243.449756 L330.414587,243.271223 L330.693629,243.193955 L331.887871,243.419521 L332.167395,243.394085 L332.498968,243.29426 L332.751986,243.116207 L332.855121,242.863286 L332.902832,242.283055 L333.03151,241.979261 L333.184284,241.72394 L333.258502,241.320322 L333.184284,240.736251 L332.955846,240.509726 L332.701382,240.409421 L331.939921,239.119859 L331.734615,238.892374 L331.734615,238.638492 L332.016067,238.360615 L331.939921,238.006429 L331.711482,237.67624 L331.456537,237.450194 L331.051709,237.197273 L331.026167,236.942912 L331.15388,236.638159 L331.203038,236.23358 L331.128819,235.955703 L330.874838,235.423944 L330.771703,235.017926 L331.051709,234.86675 L331.736543,234.741009 L332.017995,234.53656 L332.244987,234.104626 L332.346194,233.62566 L332.27053,233.222041 L331.101349,232.589978 L330.897971,232.63989 L330.719172,232.740675 L329.729272,232.993596 L329.346613,233.018552 L328.991425,232.790107 L329.319143,232.486794 L330.08205,232.233873 L330.387117,231.829774 L330.313381,231.72755 L330.260849,231.577333 L330.542783,231.577333 L331.022311,231.769304 L331.276292,231.819216 L331.63148,231.741948 L332.089803,231.412718 L333.363083,231.109405 L333.436819,230.957268 L333.436819,230.626599 L333.46429,230.299769 L333.642607,230.149072 L334.099484,230.068924 L334.378526,229.893751 L334.938056,229.159463 L335.980487,228.323911 L336.308687,227.917893 L334.378526,227.917893 L333.973216,227.817109 L333.768875,227.539231 L333.615618,227.160089 L333.390553,226.728635 L332.348604,225.665598 L332.06908,225.514901 L330.620375,225.488025 L330.187595,225.286936 L330.187595,225.109363 L330.212656,225.007618 L330.240126,224.907314 L330.28832,224.755177 L330.773631,224.983142 L332.858976,224.983142 L333.035847,225.083447 L333.747669,225.71647 L334.992515,226.195437 L335.604576,226.146964 L336.619055,225.615205 L338.830185,224.956266 L339.313569,225.25958 L339.492368,225.056091 L339.568996,225.007618 L339.339594,224.425948 L339.593575,224.02041 L340.432147,223.542883 L340.432147,223.287562 L339.901051,223.287562 L339.618636,223.239569 L339.56996,222.961212 L339.749241,222.329148 L340.079368,221.596301 L340.152623,221.215239 L339.949245,221.064542 L337.052317,220.432479 L336.543873,219.873844 L337.029666,219.748103 L338.067278,219.796096 L338.601747,219.593567 L338.755003,219.415994 L338.881271,219.161153 L339.010912,218.883276 L339.263448,218.782491 L341.220115,218.682666 L341.474578,218.782491 L341.651449,219.009017 L341.729523,219.289774 L341.779645,219.540775 L341.88037,219.76874 L342.184955,220.274103 L342.389296,220.453595 L342.643277,220.528944 L342.847619,220.453595 L342.950754,220.274103 L343.024008,220.09749 L343.202325,219.844569 L343.129071,219.464947 L342.975815,219.109801 L342.874126,219.009017 L343.024008,218.782491 L343.253411,218.556926 L343.481849,218.402389 L343.582574,218.402389 L343.659202,218.150428 L344.142104,217.519325 L344.220178,217.213131 L344.245239,216.935254 L344.269818,216.302711 L344.245239,215.39229 L344.29536,214.93828 L344.801877,213.797014 L344.699224,213.543613 L344.343554,213.596405 L343.860652,213.82197 L344.217768,213.115039 L344.472231,212.481056 L344.545968,211.79668 L344.417291,210.887699 L344.112706,210.153412 L343.782578,209.673485 L343.654383,209.141727 L343.936317,208.304735 L344.417291,207.622279 L345.510325,206.734895 L346.019252,206.102832 L346.553239,204.913574 L346.704085,204.710565 L346.986019,204.658253 L347.162408,204.507076 L347.290604,204.202803 L347.36675,203.722876 L347.646274,203.950841 L348.154718,203.69792 L348.382193,203.850536 L348.583161,204.126974 L348.863649,204.329503 L349.144618,204.458123 L349.425106,204.458123 L348.840998,205.646422 L348.815455,206.100912 L349.144618,206.681143 L348.865095,207.186986 L348.509424,207.061725 L348.154718,206.681143 L347.873267,206.480054 L347.490126,206.632671 L346.806738,207.188906 L346.347451,207.237378 L346.780232,207.796013 L347.086744,208.300415 L347.414462,208.581172 L347.975919,208.480388 L348.434242,208.175635 L348.611595,208.149718 L349.451613,208.40168 L349.62752,208.603729 L349.782222,209.007347 L349.602941,209.083176 L349.272814,209.337057 L349.119558,209.51463 L349.272814,209.868335 L349.476192,210.552711 L349.681497,210.856504 L349.933551,210.956809 L350.288739,210.931853 L350.620312,210.779236 L350.822244,210.527755 L350.721037,209.920647 L350.466574,209.007347 L350.317655,208.173235 L350.977428,207.413511 L351.435269,206.630271 L351.942749,206.021244 L352.426133,206.198817 L352.655053,206.37735 L352.909517,206.424383 L353.112412,206.577959 L353.161088,207.061725 L353.058917,207.515256 L352.857467,207.718744 L352.348059,207.794573 L352.806382,208.629165 L353.516758,209.135968 L354.15147,209.007347 L354.433404,207.919354 L354.382801,206.805924 L354.485935,206.324558 L354.841123,205.820155 L355.782348,205.161216 L357.636363,202.502423 L357.865283,201.695186 L357.686966,200.962338 L357.787691,199.999606 L358.04119,199.162134 L358.52602,198.707644 L358.52602,198.479198 L357.281175,197.215552 L356.619474,196.076206 L356.313925,195.72346 L355.652707,195.343838 L354.990524,195.264171 L350.188014,196.023894 L348.534967,195.820885 L347.036141,194.960857 L346.425525,194.456934 L346.323836,194.328314 L346.299258,194.100829 L346.197087,193.317588 L346.119977,193.089623 L345.713703,192.811746 L345.358997,193.037791 L344.697296,193.949652 L343.859207,194.582195 L343.654383,195.063561 L343.579201,196.05125 L343.604261,197.418561 L343.376787,197.61917 L342.76569,197.644126 L343.020153,197.340813 L343.249555,196.859926 L343.35028,196.327688 L343.197988,195.898633 L343.274134,195.567484 L343.42739,194.379186 L343.604261,194.301918 L344.62115,193.163052 L345.993227,192.124491 L346.348897,191.08881 L346.248172,189.872196 L345.867923,189.06256 L345.384058,189.240132 L344.850071,189.570802 L344.010053,189.621674 L342.662555,189.365873 L342.76328,189.014087 L342.815811,188.885947 L342.154111,188.657982 L341.847116,188.737649 L341.695306,189.242532 L341.619642,189.470497 L341.4153,189.673506 L341.16421,189.826123 L340.934808,189.876995 L340.806612,189.826123 L340.525643,189.64807 L340.348772,189.598158 L340.196961,189.675426 L340.146358,189.852999 L340.146358,190.031531 L340.070693,190.1088 L339.766109,190.184148 L339.078383,190.613202 L336.029163,191.550979 L335.113963,191.400762 L335.113963,191.144961 L337.937155,190.741343 L338.851873,190.056488 L339.589238,189.77813 L340.198889,189.274207 L340.503955,189.121111 L340.833119,189.043843 L341.012882,188.966094 L341.470723,188.611909 L341.979649,188.385863 L342.408574,188.461212 L342.790268,188.742449 L343.120878,189.093755 L343.475584,188.742449 L343.782578,188.614308 L344.697296,188.614308 L344.952241,188.664701 L345.435143,188.890746 L345.587917,188.890746 L345.865514,188.562476 L345.815392,188.310515 L345.612978,188.105586 L345.435143,187.855064 L344.952241,186.309701 L344.799949,185.526941 L344.722839,184.057886 L344.497774,182.184732 L344.343554,181.579545 L344.4197,181.299268 L344.547414,180.287103 L344.649103,179.803817 L344.779226,179.500983 L345.338274,178.791652 L344.956097,178.588163 L343.328593,178.54017 L342.897741,178.385154 L342.109772,177.677742 L341.449036,177.348512 L339.46538,175.249314 L339.034045,175.069341 L338.679339,175.249314 L338.321259,175.500795 L337.890889,176.05799 L337.50823,176.009517 L337.890889,175.908733 L338.472588,174.972876 L338.879343,174.744911 L339.387788,174.898007 L340.072621,175.579983 L340.913603,175.908733 L342.157966,177.275564 L343.860652,178.413949 L344.216322,178.288689 L344.522835,178.21334 L345.488156,178.238296 L345.713703,178.161028 L345.892502,178.007931 L346.069855,177.75693 L346.323836,177.175739 L346.832281,175.40241 L347.059756,173.809054 L347.389883,172.794009 L348.102187,171.301918 L348.583161,170.694331 L349.626074,169.935087 L349.981744,169.378372 L349.549928,165.556237 L349.549928,163.607255 L350.133073,161.962067 L349.371611,160.141226 L348.356168,158.596822 L347.793265,156.900762 L348.404844,154.648466 L350.058854,152.067901 L351.096949,151.052377 L352.217936,150.648759 L351.735034,150.24466 L351.152371,150.117 L350.539828,150.194268 L350.007287,150.395357 L348.661235,151.408482 L346.195641,153.964091 L344.745008,155.027608 L343.093407,155.762376 L341.262526,156.06377 L339.406101,155.938029 L338.417165,156.139118 L337.930408,156.850849 L337.651848,157.053858 L336.96846,158.393333 L335.570358,159.960773 L334.808896,161.099639 L330.460853,169.148007 L328.936484,170.844068 L327.206809,172.00741 L325.375928,172.691305 L323.545046,172.917351 L318.488073,172.185463 L318.132884,172.338559 L317.165635,173.427033 L316.352606,173.857527 L314.521724,174.261145 L313.580018,174.213632 L311.902874,173.604605 L311.192016,173.579649 L310.555376,174.186276 L308.88016,176.84315 L307.787125,177.981056 L304.152832,183.902869 L303.696919,185.041255 L303.467517,186.558783 L303.51812,188.254363 L303.669449,189.014087 L303.975961,188.961775 L304.024637,188.457852 L303.923912,187.670293 L303.644388,186.330338 L303.974033,186.355774 L304.533563,186.734916 L304.813087,186.835221 L304.940801,187.038709 L305.167793,188.353228 L305.447799,188.859071 L305.855519,189.415786 L306.286371,189.869796 L306.641559,190.047849 L307.148076,190.148633 L307.709051,190.454347 L308.167374,190.885321 L308.346173,191.442515 L308.547623,191.873489 L309.05655,192.530509 L309.616079,193.037791 L310.021389,193.037791 L309.766926,192.884695 L309.766926,192.731598 L309.943797,192.605857 L310.225249,192.554025 L310.504773,192.427805 L310.709114,192.175363 L311.013699,191.643605 L310.864298,191.287019 L310.555376,190.805653 L310.555376,190.502339 L310.608389,189.792528 L310.555376,189.51465 L310.275852,189.38891 L308.85269,189.998416 L308.65124,189.920668 L308.217978,189.591919 L307.938454,189.491134 L306.974096,189.769971 L306.974096,189.491134 L307.227596,189.391309 L307.633869,189.06256 L307.88785,188.984812 L308.140386,189.06256 L308.625697,189.418185 L308.850762,189.493534 L309.130286,189.445061 L309.384749,189.265089 L309.515354,188.961775 L309.361616,188.507285 L309.184745,188.430496 L308.371716,188.507285 L308.371716,188.281719 L308.675819,187.95057 L308.703289,187.371298 L308.52449,186.130208 L308.675819,185.648362 L309.006428,185.394961 L309.336074,185.2673 L309.487402,185.116604 L309.590537,184.915994 L309.794396,184.81569 L310.25031,184.788334 L310.887431,183.802565 L311.013699,183.651388 L311.116352,183.471415 L311.143822,183.143625 L311.169365,183.066837 L311.29756,182.031156 L311.549614,181.625618 L311.856608,181.296868 L312.13565,180.865894 L312.236857,180.155603 L312.46626,179.877725 L312.9241,179.64976 L313.407484,179.548496 L314.11786,179.754384 L315.135713,179.222626 L315.875006,178.53777 L315.593554,178.209021 L315.923681,177.981056 L316.380077,177.928744 L316.787314,178.133672 L316.964185,178.613119 L317.115514,178.53777 L317.470702,178.08184 L317.878421,177.677742 L318.208549,177.704618 L318.536748,177.326916 L318.866394,177.045679 L319.22351,176.96985 L319.578698,177.196376 L319.452912,177.424341 L319.781112,177.424341 L320.035093,177.29668 L320.54161,176.918018 L321.203792,176.639661 L321.355121,176.38674 L321.226925,175.906813 L323.490587,177.803483 L323.871318,177.981056 L324.276628,177.928744 L328.90323,176.260519 L330.656038,176.233163 L331.469549,175.881857 L332.177998,175.222918 L332.562102,175.121653 L332.942833,175.500795 L333.323082,175.781552 L333.756344,175.575664 L334.137075,175.174445 L334.849861,174.211712 L335.00119,174.110448 L335.23011,174.186276 L335.63542,174.542382 L336.245553,174.767947 L337.438831,175.881857 L335.280714,176.136698 L334.313946,175.881857 L333.653691,176.313311 L332.865241,176.618064 L332.510053,177.149823 L332.177998,177.807802 L331.442079,178.971144 L331.238219,179.171753 L330.958695,179.197669 L330.679653,179.046493 L330.525915,178.820927 L330.552904,178.592482 L330.805439,178.413949 L330.805439,178.133672 L328.44298,177.149823 L327.780797,177.125347 L324.781216,178.133672 L324.731095,178.262293 L324.602417,178.793091 L324.501692,178.921232 L324.323375,178.946188 L324.172047,178.994181 L324.018309,179.071449 L323.383597,179.703992 L322.977805,180.313019 L322.597556,181.045387 L322.214898,181.955807 L322.545025,182.312393 L322.721414,182.439573 L322.948407,182.487566 L323.079012,182.692495 L323.179737,183.124428 L323.204798,183.555402 L323.103591,183.756012 L323.055879,183.931665 L322.597556,184.666912 L322.494422,184.791693 L322.466951,185.246184 L322.545025,185.678118 L322.670811,186.059179 L322.773945,186.309701 L322.925274,186.563102 L323.103591,186.816023 L323.306005,186.994556 L323.814449,187.172129 L323.83951,187.42505 L323.713242,187.930413 L323.509383,188.53656 L322.567676,189.093755 L322.340683,189.549685 L322.519482,190.031531 L322.948407,190.006095 L323.381187,189.725818 L323.585047,189.44938 L324.39904,189.068319 L324.804349,189.018886 L324.905556,189.093755 L325.111344,189.32172 L325.515208,190.284933 L325.338337,191.321094 L325.007727,192.484436 L324.983148,193.854146 L324.932545,193.854146 L324.882423,194.031719 L324.882423,194.232328 L325.06074,194.333113 L325.262672,194.360469 L325.365325,194.333113 L325.415929,194.232328 L326.050641,193.854146 L326.483903,194.15698 L326.483903,194.61099 L326.2545,194.891748 L325.974976,194.61099 L325.849191,194.789523 L325.569667,195.39807 L325.363879,195.373594 L325.289661,195.220497 L325.237612,195.019408 L325.161465,194.866311 L324.653021,194.561558 L324.451089,194.360469 L324.323375,194.080192 L324.295423,193.854146 L324.270844,193.675614 L324.043852,193.600265 L324.270844,193.116499 L324.728685,192.434044 L324.779289,192.080818 L324.60049,191.624408 L324.320966,191.597532 L324.013971,191.648884 L323.734447,191.471311 L323.276125,191.421879 L322.565748,191.548579 L322.032243,191.421879 L322.159957,190.613202 L322.032243,190.613202 L321.931036,191.118085 L321.777298,191.446355 L321.62597,191.724712 L321.474641,192.12881 L321.678501,191.978593 L321.88236,191.927721 L322.033689,192.053942 L322.162366,192.409087 L321.855372,192.488755 L321.500184,192.409087 L321.195117,192.488755 L320.915593,193.678013 L320.585466,194.056675 L320.253411,194.104668 L320.104492,193.752882 L320.028828,192.58906 L320.05437,192.13265 L320.230278,191.601851 L320.789326,191.044656 L321.018728,190.717826 L320.943064,190.387157 L320.943064,190.10688 L321.45199,189.981619 L322.033689,189.045282 L322.593219,188.893146 L322.340683,188.107986 L322.086702,187.704367 L321.756093,187.347782 L321.477051,186.841939 L321.348855,185.983351 L321.171984,185.526941 L320.764747,185.221707 L320.282809,185.068131 L319.925693,185.095487 L319.749304,185.221707 L319.646169,185.39928 L319.517974,185.551897 L319.263992,185.627245 L319.036518,185.579253 L318.656269,185.40168 L318.426866,185.350808 L318.044208,185.428556 L317.07985,186.366332 L316.444656,186.847699 L316.215736,187.151012 L315.911151,187.733163 L315.732352,188.390183 L315.936212,188.593671 L316.825387,188.618628 L317.310698,188.7962 L317.28371,188.871549 L316.165614,188.922421 L315.324633,189.175342 L315.019566,189.352915 L313.722671,191.555778 L312.806508,191.60521 L312.526984,191.856692 L312.526984,192.237274 L312.856629,192.413407 L312.958318,192.742156 L312.982897,193.072826 L313.086032,193.250399 L313.23736,193.327667 L313.44122,193.353583 L314.07786,193.859905 L314.126535,194.163699 L314.07786,194.28896 L313.975207,194.364308 L313.901952,194.569237 L313.771347,195.327041 L313.746286,195.683146 L313.746286,196.214425 L313.720744,196.568611 L313.645079,196.846488 L313.541945,197.025021 L313.414231,197.102769 L312.167458,197.35569 L311.81227,197.35569 L311.585277,197.203074 L311.205028,196.695791 L310.874901,196.420314 L310.744778,196.063728 L310.719235,195.735458 L310.794899,195.582842 L310.794899,195.304484 L310.185248,193.582028 L310.05898,193.582028 L309.905724,193.987566 L309.701864,194.394064 L309.42234,194.724253 L309.140407,194.849994 L308.150506,194.039878 L307.97219,193.987566 L307.568326,193.556112 L306.679632,193.380939 L305.687322,193.405415 L305.05261,193.608904 L305.05261,193.862305 L305.228999,194.217931 L305.178396,194.468932 L305.029477,194.569237 L304.850678,194.41854 L304.722483,194.09027 L304.772604,193.510039 L304.695012,193.17985 L304.974536,193.001797 L304.747544,192.8487 L303.908972,192.698483 L303.755716,192.544907 L303.654509,192.189761 L303.576917,191.835575 L303.50318,191.682959 L303.148474,191.658002 L303.017869,191.582654 L302.891601,191.456913 L302.891601,191.203992 L303.04052,190.875242 L303.501252,189.685504 L303.501252,189.432583 L303.324381,189.25501 L303.246789,188.951217 L303.118594,188.851392 L302.814009,189.332758 L302.40629,190.318527 L301.492054,193.480763 L301.338316,194.112827 L301.264579,194.719934 L301.492054,207.274812 L301.415908,208.13724 L300.932524,210.389536 L300.88192,211.199172 L300.983127,213.805173 L301.058792,214.236627 L301.161444,214.615289 L301.237591,214.793342 L301.516633,214.894126 L301.567718,214.668561 L301.492054,214.059054 L301.620249,213.248938 L301.644828,212.51609 L301.620249,210.971207 L301.798566,210.668373 L302.229419,210.716366 L303.781258,211.427617 L304.493562,211.93202 L304.999597,212.767572 L305.227072,214.059054 L305.227072,215.172004 L305.988052,216.162092 L306.317697,216.719767 L306.597703,217.326394 L306.727344,217.958457 L306.597703,218.538689 L305.78371,219.373281 L304.997669,220.005344 L304.539828,220.157961 L303.572579,220.918644 L302.658343,221.424487 L302.481472,221.321303 L302.40388,220.842336 L302.454484,220.436798 L302.658343,219.955432 L302.708465,219.601246 L302.658343,219.198108 L302.303155,218.235375 L301.796638,215.475797 L301.668443,215.297745 L301.617839,215.247352 L301.590851,215.147528 L301.542175,215.047223 L301.41398,214.994431 L301.363376,215.071699 L301.338316,215.249752 L301.363376,215.428285 L301.41398,215.505073 L301.515187,215.861178 L302.481472,222.896422 L302.431351,224.339081 L302.176887,225.807176 L301.796638,227.197523 L300.653,230.234499 L300.678543,230.766737 L300.985055,231.070051 L302.179297,231.298016 L302.687741,231.577333 L305.100804,233.602623 L305.355267,233.502318 L305.176468,232.895211 L304.720555,232.362973 L304.161507,232.007827 L303.702702,231.932479 L303.957648,231.577333 L304.083433,231.501025 L304.262232,231.451112 L303.652581,230.818569 L303.604387,230.48838 L303.82897,229.981577 L304.186086,229.678264 L304.642481,229.550603 L305.100804,229.575559 L305.482981,229.730576 L305.482981,229.956621 L305.05261,230.034369 L305.05261,230.286811 L306.881082,233.018552 L307.694593,233.778276 L308.661361,234.08207 L310.008859,234.109426 L310.744778,234.284599 L311.253222,234.691096 L311.533228,235.373552 L311.686002,236.133276 L311.862873,237.728072 L312.089866,238.614016 L312.116855,239.068027 L312.089866,239.37182 L311.911067,239.878143 L311.862873,240.283681 L312.014202,241.799769 L312.268183,243.318736 L312.650842,244.508474 L312.699036,245.165493 L312.295654,245.31811 L311.200691,245.065189 L309.983316,244.887616 L309.931267,244.482558 L310.288383,244.026148 L310.515375,243.850975 L310.794899,243.771307 L310.364047,243.318736 L309.499932,243.063895 L308.661361,243.192035 L308.279184,243.875451 L308.20352,244.786351 L308.077252,245.64686 L308.049781,246.481932 L308.276774,247.366917 L308.556298,247.746059 L308.861365,247.823807 L309.170287,247.646234 L309.449329,247.242136 L309.701864,246.961379 L309.905724,246.911466 L310.033919,246.735333 L310.084523,245.366583 L310.160187,245.062789 L310.414168,245.035913 L312.547707,245.416495 L312.321196,246.326916 L312.01613,247.187424 L311.786727,248.1252 L311.711545,249.261667 L311.913477,250.147131 L312.245532,251.009559 L312.421921,251.893104 L312.141915,252.855357 L312.295654,253.083802 L312.141915,253.693308 L312.829641,253.893918 L313.56556,253.919354 L314.937637,253.412551 L315.396441,253.337203 L317.022982,253.592524 L318.624461,254.252423 L322.919009,255.263148 L323.248654,255.568861 L323.351789,255.924487 L323.399983,256.405853 L323.551311,256.834908 L323.908909,256.962088 L325.384603,256.962088 L325.689669,256.912656 L325.893047,256.706767 L326.172571,256.631899 L326.401973,256.430809 L326.757161,256.354981 L327.160543,256.732683 L327.492599,256.782116 L327.797665,256.681811 L327.888269,255.951363 L328.169721,255.520389 L329.008293,254.813457 L329.363481,254.408879 L329.566859,254.20827 L329.897468,254.255302 L330.050724,254.20827 L330.151449,254.077729 L330.279645,253.799852 L330.509047,253.416391 L330.786643,252.708979 L330.914839,252.50789 L331.499429,252.327917 L331.982331,252.608194 L332.083056,253.012772 L331.549551,253.215301 L331.40015,253.343442 L331.526418,253.649635 L331.881606,254.153558 L331.856063,254.379123 L331.705217,254.507264 L331.679674,254.66036 L332.060405,254.885926 L332.314868,254.961754 L333.15344,254.885926 L333.331757,255.036623 L333.611281,255.695562 L333.838756,255.849138 L334.145268,255.695562 L334.220932,255.342816 L334.172738,254.935838 L334.094665,254.632525 L333.966469,254.379123 L333.762609,254.178514 L333.535617,254.028297 L333.281154,253.948629 L333.432964,253.521495 L333.662366,253.546451 L333.941408,253.724504 L334.245993,253.724504 L334.45178,253.572367 L334.477805,253.469183 L334.42672,253.320405 L333.968397,250.662092 Z M351.812626,247.701905 L352.72638,247.701905 L353.514831,247.750378 L353.769294,247.701905 L354.075324,247.448984 L354.252677,247.093838 L354.380873,246.686861 L354.560154,246.257806 L355.068116,245.598387 L355.141853,245.420814 L355.168841,244.711003 L355.217035,244.433126 L355.524029,243.723314 L355.652707,243.114767 L355.702828,242.406876 L355.652707,241.646672 L355.498487,241.115393 L354.964981,240.254885 L354.839196,239.823911 L354.992452,239.191848 L355.32017,239.091063 L355.67584,239.319028 L355.929821,239.69769 L356.081149,239.69769 L355.955364,239.116979 L355.446437,237.600891 L355.31776,237.295178 L353.336032,234.410819 L353.030965,234.130542 L351.657924,233.826749 L351.251651,233.725964 L351.09984,234.08015 L351.126347,234.206371 L351.228036,234.385383 L350.920559,234.561516 L350.59236,234.561516 L350.413561,234.335951 L350.51525,233.88098 L350.742724,233.677972 L351.09984,233.602623 L352.496978,233.728364 L353.43772,233.321866 L354.021829,232.945124 L354.199664,232.742115 L354.24834,232.463757 L354.120626,231.982391 L353.68881,231.551417 L353.641098,231.474149 L353.537482,231.346488 L353.48736,231.070051 L353.461817,230.764337 L353.412178,230.538292 L352.469989,228.968452 L351.885881,228.311913 L351.505632,228.336389 L351.505632,228.587391 L351.6319,229.475255 L351.6319,230.082362 L351.326833,229.750733 L351.226108,229.600516 L351.352376,230.207623 L351.555271,230.839206 L351.6319,231.397361 L351.379364,231.802899 L351.251651,231.649802 L350.971645,231.371445 L350.7167,231.245224 L350.666578,231.547098 L350.742724,231.72755 L350.895499,231.878247 L351.09984,232.005428 L351.275747,232.058219 L351.379364,232.183 L351.482017,232.434962 L351.530211,232.690283 L351.429486,232.790107 L350.668988,233.016633 L349.369201,233.699088 L349.143173,233.648696 L348.736899,234.433376 L348.023631,234.461212 L347.694468,233.878581 L348.456893,232.790107 L348.661235,232.690283 L348.863649,232.690283 L349.042448,232.614934 L349.144618,232.308741 L349.094979,232.108132 L348.78943,231.85521 L348.71473,231.701634 L348.815455,231.27114 L349.042448,231.094527 L349.34896,231.094527 L349.678606,231.220268 L349.068954,230.789774 L348.739309,230.664033 L348.35906,230.613641 L348.179779,230.513336 L348.001944,230.286811 L347.747963,229.855836 L347.441932,229.475255 L346.045276,228.512042 L345.4096,228.214968 L345.130077,228.290316 L345.206223,229.026523 L345.130077,229.303441 L344.77537,229.330317 L344.77537,229.203136 L344.644765,228.698734 L344.644765,228.598429 L344.494401,228.545157 L343.961377,228.598429 L343.452933,228.776002 L342.563276,229.433021 L339.944908,230.318486 L337.937155,231.684837 L336.895205,232.066378 L335.929884,231.53462 L335.751085,231.154038 L335.751085,230.850724 L335.675421,230.672192 L335.320232,230.596363 L334.226716,230.822409 L333.466218,231.786101 L333.212236,231.938718 L332.982834,232.014066 L332.806445,232.167163 L332.655116,232.522788 L333.416096,232.700361 L335.397824,234.47369 L334.864801,234.624387 L334.304789,234.272601 L333.722609,233.766278 L333.189103,233.512397 L333.189103,233.740362 L333.874419,234.599431 L334.153461,234.724691 L334.939502,234.825476 L335.323124,235.052961 L335.526502,235.457539 L334.994442,235.484415 L334.816125,235.457539 L335.933739,235.940825 L335.72988,236.344443 L335.400234,236.473064 L335.019985,236.524896 L334.687448,236.650637 L335.172759,237.2827 L335.451801,237.536101 L335.732289,237.635926 L336.31447,237.584094 L336.621946,237.60905 L336.826288,237.764066 L336.77713,238.97828 L336.826288,239.17889 L337.003641,239.785997 L337.054245,240.167058 L337.003641,240.368148 L336.826288,240.696897 L336.77713,240.924383 L336.826288,241.125472 L337.003641,241.431185 L337.054245,241.632274 L337.15497,241.812247 L337.382444,242.013336 L337.636907,242.164033 L338.449937,242.367042 L338.756931,242.545094 L338.782956,242.822972 L338.656206,243.153641 L338.605602,243.532783 L338.656206,243.911445 L338.93573,244.696605 L338.960791,245.002318 L338.910187,245.153015 L338.860066,245.128059 L338.860066,245.328668 L338.835005,245.481285 L338.885608,245.58207 L339.595021,245.70973 L339.69671,245.658858 L339.774302,245.077187 L339.087058,244.01415 L339.013804,243.455515 L339.265857,243.151722 L339.52032,243.252506 L339.975752,243.708916 L340.308289,243.758829 L340.562752,243.679641 L340.787335,243.5539 L341.094329,243.453116 L341.476988,243.605732 L341.75603,244.060223 L342.010975,244.642374 L342.365681,245.146296 L342.087121,245.653579 L340.535281,246.841877 L340.892397,247.01945 L341.653377,246.816441 L342.061097,246.816441 L342.389296,247.01945 L342.973405,247.501296 L343.278953,247.727821 L343.278953,246.970017 L343.43221,246.68926 L344.014872,246.741572 L345.590809,247.752777 L345.869851,247.777734 L346.37685,247.729261 L346.60336,247.777734 L346.782159,247.905394 L346.935897,248.058491 L347.137829,248.183272 L347.57061,248.309012 L348.917626,248.437153 L349.70463,248.866207 L350.136928,248.916119 L350.491635,248.562414 L350.74417,248.209188 L351.101768,247.953867 L351.484427,247.777734 L351.812626,247.701905 Z M376.602543,257.970894 L376.374105,257.642624 L375.358662,256.808032 L375.052631,256.171649 L375.126368,256.123176 L375.381313,255.947043 L375.052631,255.844339 L374.746119,255.615894 L374.262735,255.011667 L374.13213,254.504864 L372.583182,253.113077 L372.50559,253.516695 L372.480047,253.948629 L372.530169,254.379123 L372.707522,254.760665 L372.50559,254.785141 L372.022206,255.011667 L371.461231,255.011667 L371.002426,255.392728 L371.030378,255.693642 L371.256889,256.074704 L371.461231,256.681811 L367.851998,254.66036 L367.368615,254.5303 L366.882821,254.228906 L366.27558,252.885112 L365.920392,252.581319 L365.565204,252.403746 L364.598436,251.645462 L364.095775,251.39302 L361.198847,252.001567 L360.919805,251.848951 L360.080751,252.859676 L359.7993,253.416391 L359.7993,254.023498 L359.927977,254.252423 L360.994987,255.591898 L361.274993,255.794907 L361.605121,255.924487 L361.222462,256.655895 L360.640763,256.706767 L360.03063,256.606942 L359.522185,256.907856 L359.393026,257.489527 L359.597368,258.021286 L360.03063,258.402348 L361.124147,258.655269 L362.217182,259.160632 L363.233588,259.386677 L365.442791,260.80582 L366.690046,261.893813 L368.56864,263.007723 L369.025999,263.084991 L369.790352,262.37518 L370.75471,261.919249 L371.772562,261.690804 L374.92299,262.37518 L375.839154,262.069466 L376.474348,261.335179 L376.550012,260.576895 L375.762044,260.223669 L375.914818,259.843087 L376.091689,259.716866 L376.295067,259.639598 L376.524951,259.386677 L376.728329,258.983059 L376.728329,258.77957 L376.650737,258.528568 L376.602543,257.970894 Z M357.258523,245.772601 L356.57128,247.517613 L356.44453,248.506262 L355.301856,250.149531 L354.818472,250.505156 L353.697485,251.822075 L353.263741,252.454138 L352.984699,253.28873 L353.163498,253.438947 L353.341333,253.492219 L353.519168,253.438947 L353.697485,253.28873 L353.773149,253.671712 L353.823753,254.023498 L353.315308,254.20347 L353.214101,254.151158 L353.035784,253.973585 L352.909517,254.151158 L352.7312,254.735229 L352.400108,255.237232 L352.145645,255.543425 L351.842024,255.669166 L351.355749,255.695562 L351.96781,256.225881 L352.247334,256.531594 L352.448784,256.935212 L352.958192,258.984019 L353.211692,259.315648 L353.696521,259.290212 L353.975081,259.134716 L354.180869,258.708541 L356.13609,252.253049 L357.155389,250.126494 L357.538047,248.962192 L358.502887,244.633735 L358.044564,244.430726 L357.258523,245.772601 Z M309.617525,186.90577 L309.441136,187.03391 L309.28788,187.185087 L309.186673,187.36266 L309.109081,187.794114 L309.31294,187.81907 L309.948135,187.565669 L310.078258,187.590625 L310.561641,187.845946 L311.068158,188.377704 L311.295151,188.681498 L311.829138,189.897152 L312.035407,189.998416 L312.594455,189.692223 L314.220995,189.261729 L314.322202,188.628706 L315.162702,187.94673 L315.442226,187.590625 L315.696689,187.109259 L316.001273,186.274186 L316.281279,185.868169 L316.129951,185.715072 L315.978622,185.614767 L316.156939,185.614767 L316.30634,185.590291 L316.436463,185.512543 L316.562731,185.33401 L316.207543,185.183793 L316.028744,184.803212 L315.879825,183.588517 L315.801751,183.408545 L315.700544,183.233372 L315.650423,182.979491 L315.751148,182.600349 L315.827294,182.473168 L316.310677,182.06907 L316.463934,182.169375 L316.615262,182.346947 L316.717915,182.625785 L316.717915,183.057239 L316.869243,182.931018 L316.97286,182.751046 L317.121779,182.297035 L317.376242,181.081381 L317.426845,181.007952 L317.376242,180.704639 L317.172382,180.197356 L317.121779,180.0457 L317.172382,179.766382 L317.365639,179.319091 L317.496244,179.012898 L317.241299,178.912593 L317.012379,179.396359 L316.707794,179.800457 L316.249471,179.496664 L315.564156,180.913407 L315.158364,181.445645 L314.727512,181.292549 L314.143403,181.620819 L312.947234,181.822388 L312.363125,182.047953 L312.236857,182.047953 L312.058058,182.023477 L311.904802,182.047953 L311.829138,182.176094 L311.856608,182.780801 L311.904802,183.086034 L311.982394,183.061558 L311.804077,183.44022 L311.400213,183.971979 L311.295151,184.325685 L311.50142,184.476382 L311.755883,184.55125 L312.007455,184.578606 L312.2624,184.55125 L311.755883,185.211149 L310.332239,185.411758 L309.771263,185.843212 L309.821867,185.996309 L309.897049,186.347135 L309.922592,186.703721 L309.821867,186.858737 L309.617525,186.90577 Z M389.8327,249.317818 L388.053386,248.962192 L386.401785,248.861408 L385.714059,248.556654 L385.285617,247.773414 L384.977177,247.773414 L384.751148,247.898675 L384.674038,248.150637 L384.777172,248.506262 L384.95308,248.761103 L385.615262,249.24007 L385.615262,249.468995 L385.436463,249.594736 L385.335256,249.795825 L385.335256,250.073702 L385.436463,250.430288 L385.182482,250.582904 L384.523191,250.860782 L384.318849,250.885738 L384.011373,250.785433 L383.528471,250.456684 L383.197862,250.432207 L383.352082,250.913574 L383.197862,251.164095 L382.943881,251.013398 L382.691827,251.139139 L382.233505,251.645462 L382.337121,251.746726 L382.540499,252.024604 L382.640742,252.124428 L382.411822,252.253049 L382.237842,252.454138 L382.159768,252.732015 L382.237842,253.088601 L381.95639,253.088601 L381.95639,253.316086 L383.252803,253.948629 L383.835466,254.048934 L384.21957,253.822409 L385.285617,252.353353 L386.022982,251.748166 L386.708779,251.444373 L387.446144,251.344548 L389.833664,251.848951 L390.319457,251.822075 L390.647657,251.746726 L390.826456,251.545637 L390.853444,251.164095 L390.521389,249.975797 L389.8327,249.317818 Z M392.044794,225.596488 L392.019734,225.496184 L391.944551,225.293175 L391.664546,225.6488 L391.33249,226.536185 L391.10598,226.968118 L390.90212,227.21864 L390.647657,227.444686 L390.393676,227.750399 L390.166201,228.206809 L390.166201,229.018845 L390.470786,229.979178 L390.903566,230.638597 L391.334418,230.511416 L391.511771,230.253696 L391.841417,229.975818 L392.224075,229.747373 L392.528178,229.646589 L393.239518,228.838872 L393.239518,228.683856 L392.070819,225.749105 L392.044794,225.596488 Z M349.272814,254.98623 L349.272814,254.429996 L348.99329,254.101246 L348.613041,253.873281 L348.280504,253.546451 L348.56051,254.153558 L348.509424,254.432395 L348.230864,254.504864 L347.801458,254.504864 L347.572537,254.303775 L347.343135,253.268573 L347.03855,252.864475 L347.189879,253.443747 L347.089154,253.724504 L346.835172,253.799852 L346.52866,253.799852 L346.248172,253.671712 L346.023589,253.345841 L345.537796,252.585638 L345.032725,252.131627 L343.302086,251.168895 L343.022081,250.837745 L343.152204,251.39686 L343.480403,252.18154 L346.962404,255.976799 L347.418799,256.179328 L347.67278,256.079023 L348.105561,255.595737 L349.678606,255.216595 L349.476192,255.112451 L349.272814,254.98623 Z M339.385378,250.93805 L338.879343,250.15337 L338.369935,249.546263 L337.733777,249.142165 L336.84412,248.990028 L336.20989,248.634403 L335.01613,247.21622 L334.254668,247.036247 L333.541882,247.162468 L331.765941,247.99946 L331.765941,248.250941 L332.093659,248.45395 L332.423786,248.405958 L332.753914,248.277337 L333.136572,248.250941 L333.032956,248.531218 L332.653189,248.835012 L332.577524,248.987628 L332.678249,249.314458 L332.881627,249.393646 L333.136572,249.441639 L333.340432,249.594736 L333.619956,249.619692 L335.193965,249.468995 L335.193965,249.720476 L334.939502,250.051146 L335.09324,250.329023 L335.931811,250.909254 L336.08314,251.089227 L335.954463,251.164095 L335.881208,251.2644 L335.954463,251.493325 L336.08314,251.746726 L336.160732,251.871987 L335.753013,251.972772 L335.270111,251.570593 L334.786727,251.013398 L334.327922,250.708165 L334.327922,250.913574 L334.45901,250.913574 L334.381418,252.04956 L334.786727,252.959981 L335.471079,253.516695 L336.260011,253.567568 L336.463871,253.438947 L336.743395,253.16107 L336.949182,253.088601 L337.151114,253.113077 L338.067278,253.441347 L339.032599,254.278819 L339.032599,254.504864 L338.471624,254.254822 L337.83643,253.797452 L337.198826,253.516695 L336.667249,253.797452 L336.667249,254.023498 L336.997376,254.276899 L337.886551,254.580693 L338.217643,254.86049 L338.496203,254.961754 L338.879343,254.735229 L339.284653,254.429996 L339.589238,254.278819 L340.170936,254.303775 L340.45287,254.228906 L340.45287,253.900157 L339.665384,251.494765 L339.385378,250.93805 Z M352.472399,219.404476 L352.751441,218.872717 L352.70132,218.619796 L352.551919,218.845841 L352.374084,219.226903 L352.118657,219.37808 L351.764432,218.896714 L351.583706,218.490216 L351.555271,218.111554 L351.6319,217.732412 L351.809735,217.378706 L351.303218,217.22513 L350.847787,216.821511 L350.539828,216.187528 L350.387536,214.695437 L350.135001,214.620088 L349.827524,214.923402 L349.624147,215.404768 L349.548482,216.291672 L349.827524,216.671294 L350.233316,216.848867 L350.615975,217.127225 L350.895499,217.734812 L350.920559,218.341439 L350.769713,218.898633 L350.490189,219.355044 L350.135001,219.632921 L349.852585,219.785538 L349.626074,220.089331 L349.525831,220.821699 L349.701257,222.140057 L350.286329,222.948734 L350.996224,223.148863 L351.660816,222.544155 L351.862266,221.936089 L351.837687,220.745871 L351.94034,220.114287 L352.472399,219.404476 Z M357.201173,168.788063 L357.987213,168.635446 L358.291798,168.836535 L358.85422,169.698003 L359.080248,169.899572 L359.894241,169.648091 L360.352564,169.420126 L360.681728,169.167204 L361.012337,168.685358 L361.165593,168.128164 L361.11499,167.647277 L360.782935,167.36892 L362.461042,166.659588 L362.740084,166.709021 L362.893822,166.529528 L363.198407,166.57992 L363.404194,166.529528 L363.332868,166.084156 L363.154551,165.905624 L362.925148,165.829795 L362.3661,165.829795 L360.076414,166.084156 L359.873036,166.161425 L359.469654,166.487775 L359.160732,166.613515 L358.32216,166.665347 L357.659014,167.119838 L356.999723,167.931874 L356.541882,168.132483 L356.541882,168.358528 L356.871527,168.74007 L357.201173,168.788063 Z M370.040478,189.71526 L370.420727,189.943705 L370.824109,189.993617 L371.156646,189.865477 L371.387494,189.589519 L371.612077,189.158545 L371.892083,188.779883 L372.249681,188.60183 L372.377394,188.424257 L372.42607,188.373385 L372.529205,188.373385 L372.529205,188.095508 L371.666536,188.424257 L369.934934,188.60183 L369.707941,188.804839 L369.786015,189.311162 L370.040478,189.71526 Z M308.174121,237.577375 L308.045926,236.920355 L307.894598,236.541693 L307.843994,236.186068 L308.098457,235.400428 L308.098457,234.99729 L307.818451,234.691096 L307.410732,234.765965 L307.081086,234.585993 L306.954819,233.55511 L306.267575,233.732683 L306.063716,234.238526 L306.217454,234.99729 L306.851684,236.667434 L307.310007,237.525063 L307.843994,238.084657 L308.352438,237.881168 L308.174121,237.577375 Z M395.448239,227.196084 L395.397154,226.716637 L395.246307,226.43636 L395.04293,226.336055 L394.864131,226.412843 L394.685332,226.640329 L394.508461,227.476361 L394.508461,227.604021 L394.685332,228.008119 L394.815455,228.185692 L394.942205,228.260561 L395.019797,228.338789 L395.045339,228.491405 L395.145582,228.616666 L395.275224,228.539398 L395.498843,228.284077 L395.551374,228.156897 L395.551374,228.108424 L395.448239,227.905415 L395.448239,227.196084 Z M370.67278,251.292716 L370.76965,251.164095 L370.794229,250.988922 L370.719046,250.760477 L370.464583,250.556988 L369.882884,250.556988 L369.451068,250.760477 L370.187469,251.822075 L370.28964,251.871987 L370.67278,251.292716 Z M345.333454,222.207727 L345.104052,222.917058 L345.104052,223.044719 L344.039451,223.245808 L343.963787,223.425781 L344.112706,223.576957 L345.488156,223.804443 L345.639003,223.704138 L345.764789,223.072555 L345.664064,222.51344 L345.484783,222.157335 L345.333454,222.207727 Z" id="Fill-3"></path>
        </g>
    </g>
</svg>