
<svg width="170px" height="111px" viewBox="0 0 170 111" version="1.1" xmlns="http://www.w3.org/2000/svg" xmlns:xlink="http://www.w3.org/1999/xlink">
    <!-- Generator: Sketch 51.2 (57519) - http://www.bohemiancoding.com/sketch -->
    <desc>Created with Sketch.</desc>
    <defs></defs>
    <g id="Page-1" stroke="none" stroke-width="1" fill="none" fill-rule="evenodd">
        <g id="EE-EPS-01-0001" transform="translate(-237.000000, -190.000000)" fill="#7F807C">
            <path d="M278.34512,247.234367 L278.142034,246.898652 L277.637771,246.291465 L277.435375,245.856971 L277.401528,245.417641 L277.468532,244.911306 L277.468532,244.444345 L277.334523,243.936629 L276.96427,243.500062 L275.854202,242.82656 L273.430288,242.086054 L272.859712,242.052897 L272.286372,242.322989 L271.749644,243.030338 L271.649482,243.397137 L271.446395,244.476811 L271.379391,244.744139 L270.97529,244.947226 L270.13255,244.643978 L269.798217,244.911306 L269.695292,245.99098 L270.335636,246.66379 L271.715796,247.200519 L274.103789,249.489042 L274.407038,249.521508 L275.214548,249.051784 L275.584111,248.917084 L276.527703,248.98547 L276.998118,249.151946 L277.435375,249.455194 L277.838095,249.623742 L278.075029,249.319112 L278.278115,248.884618 L278.814844,248.478445 L278.74853,248.077798 L278.34512,247.234367 Z M294.497407,268.772591 L293.723053,269.038538 L293.250566,269.779044 L293.419805,270.992036 L294.160311,271.664847 L295.000978,271.226898 L295.50455,270.151369 L295.270379,268.938376 L294.497407,268.772591 Z M352.274142,262.782229 L352.274142,264.363403 L352.171907,265.036904 L351.937046,265.706951 L351.566793,266.245752 L351.095687,266.783863 L350.655666,267.39105 L350.456034,268.19787 L350.556195,269.138008 L350.826287,269.779044 L350.992762,270.386231 L350.759282,271.193051 L350.422877,271.596461 L350.252947,271.258674 L350.119628,270.519549 L349.716218,269.208467 L349.615366,267.79446 L349.41297,267.191417 L348.87486,266.516534 L348.43553,266.144209 L348.235206,265.573633 L348.335368,264.363403 L346.888204,262.376056 L346.65127,261.77025 L346.584956,261.368222 L346.417789,261.063592 L346.24786,260.694721 L346.181546,260.055758 L346.284471,259.615737 L347.024286,258.641751 L347.391776,257.598687 L347.628019,256.691015 L347.998963,256.017514 L348.771935,255.714265 L349.546289,255.714265 L350.38972,255.881432 L351.162692,256.320762 L351.733268,257.028111 L352.474465,258.204493 L352.576699,259.515576 L352.274142,262.782229 Z M406.684752,205.643766 L406.012632,205.03727 L405.708002,204.66978 L405.438602,204.196602 L404.801021,202.615428 L404.228372,202.009623 L403.051299,201.369278 L402.547036,200.394601 L401.500519,202.279023 L400.693699,203.256463 L399.649254,203.963122 L398.539186,204.330612 L394.333775,203.322777 L390.229217,203.053377 L386.091502,202.009623 L382.490515,202.279023 L378.248494,202.549114 L373.470434,202.109784 L372.933705,201.90877 L371.823637,201.202803 L370.509792,200.728934 L368.155646,198.141308 L367.178896,197.333797 L366.16899,196.761148 L365.127308,196.4579 L364.017931,196.354285 L363.647678,196.524214 L362.737933,197.26472 L362.299294,197.433959 L361.694179,197.400802 L360.617268,197.094791 L359.103099,196.187809 L357.45492,195.784399 L356.344161,195.043893 L355.837826,194.873273 L350.792439,194.976888 L350.556195,194.873273 L350.523038,194.474007 L350.489881,194.167305 L350.385575,193.966982 L349.378432,192.959838 L348.469378,192.452813 L348.099125,192.352651 L347.798639,192.519818 L347.461543,193.06 L347.424933,193.529724 L347.529239,194.000139 L347.461543,194.336544 L346.921361,194.474007 L346.451637,193.899977 L345.84445,192.925991 L345.274564,192.519818 L344.90362,193.766658 L345.103944,194.133458 L344.701225,194.910574 L344.263967,195.380989 L343.793552,195.48046 L343.287217,195.213823 L342.916964,194.640483 L342.717332,193.359795 L342.380236,192.686984 L342.580559,192.286337 L341.098856,190.705854 L340.292727,190.433 L339.651692,191.241892 L339.789156,191.308897 L340.023327,191.512674 L340.192566,191.545831 L340.055793,192.653136 L340.325884,193.326638 L340.730676,193.933134 L340.933072,194.840116 L340.595976,195.817556 L339.822313,195.987486 L338.949179,195.684237 L338.341991,195.213823 L337.535171,193.86682 L337.095151,193.293481 L336.524574,193.06 L336.021003,192.653136 L335.144415,190.905487 L334.674,190.502077 L334.504071,191.478827 L334.606995,193.596729 L335.011096,195.717394 L335.784068,196.694835 L336.05416,196.86131 L336.255174,197.231563 L336.255174,197.601816 L335.985773,197.768292 L333.496927,197.768292 L332.856583,198.038383 L332.48633,198.711884 L332.653496,199.922114 L332.620339,199.922114 L326.90076,198.275317 L325.587605,197.400802 L324.947261,197.367645 L324.577008,197.905064 L324.814633,199.282461 L324.31037,199.554624 L323.737031,199.385386 L322.626963,198.64488 L321.986618,198.47495 L319.902564,199.015133 L319.229063,198.847966 L317.411645,196.593982 L316.367891,195.750551 L315.560381,196.321128 L315.661233,196.727992 L315.728238,197.060943 L315.760704,197.433959 L315.760704,197.938221 L315.86432,198.408636 L316.064643,198.678727 L316.301577,198.91428 L316.468053,199.214765 L316.704987,200.022276 L316.637983,200.29513 L316.031486,201.606213 L315.86432,201.842456 L315.560381,202.076627 L314.820565,202.243103 L314.383308,201.63937 L314.046902,200.728934 L313.573725,199.922114 L313.27393,199.722482 L312.969991,199.654786 L312.733748,199.8558 L312.633586,200.428449 L312.533424,200.899555 L312.263333,201.035636 L311.556675,200.965868 L311.556675,201.402435 L312.059556,201.606213 L312.499577,202.076627 L312.599738,202.549114 L312.130014,202.783286 L311.656836,202.649276 L310.109511,201.539208 L309.605248,201.369278 L309.201838,201.709138 L308.762508,202.142941 L308.258246,202.379876 L307.721517,202.142941 L306.744768,201.001789 L306.204585,200.596306 L305.600852,200.529302 L303.850439,200.968632 L303.750277,201.336121 L303.446338,203.053377 L303.143781,203.690267 L302.202952,204.063283 L299.845352,204.23045 L299.308623,204.567546 L299.948967,205.171279 L300.652172,206.150792 L300.889797,207.057773 L300.149291,207.461183 L299.375628,207.124087 L297.861459,205.510448 L297.087796,204.937799 L296.617381,204.836946 L296.211208,204.970956 L295.840955,205.307361 L295.507313,205.84478 L295.437545,206.41812 L295.67448,206.924455 L297.391735,209.278601 L297.625215,210.252587 L297.087796,211.46558 L295.977728,210.319592 L294.630725,210.454983 L293.216718,210.993093 L291.972641,211.096018 L290.792805,210.792079 L288.438659,210.859083 L287.832162,211.162332 L287.530986,211.835833 L287.86601,212.139081 L288.068406,212.642653 L288.035249,213.21392 L287.732,213.686407 L287.32859,213.620093 L285.881426,212.239243 L285.344007,212.273091 L284.973754,212.642653 L284.637349,213.079911 L284.030161,213.383159 L283.660599,213.886731 L283.423665,213.987583 L283.12318,213.920578 L282.54984,213.686407 L282.246592,213.65325 L280.766271,214.59408 L281.169681,216.580735 L282.046269,219.135205 L282.013112,221.82921 L281.539934,221.189556 L281.272606,221.056238 L281.002514,221.289718 L279.792284,222.736882 L279.622355,223.377226 L279.825441,224.316674 L279.622355,224.284208 L279.252102,224.316674 L279.084935,224.284208 L279.792284,225.397039 L280.498943,226.003536 L282.212744,226.43803 L282.383365,226.60796 L282.516683,226.910517 L282.68385,227.144689 L282.95325,227.077684 L283.090023,226.505035 L283.090023,225.934459 L283.626751,225.227801 L283.829838,225.093791 L284.300253,225.024023 L284.536496,224.890705 L284.200091,224.217203 L283.426428,223.44354 L283.090023,222.770039 L283.726913,223.21006 L284.33341,223.849713 L284.770667,224.757386 L284.940597,226.003536 L284.940597,226.641117 L284.873592,226.978213 L284.670506,227.24485 L283.796681,227.985356 L283.323503,228.155286 L282.853088,228.122129 L282.383365,227.81819 L281.810025,228.591853 L280.025765,228.458534 L279.455188,229.265354 L279.455188,230.309799 L280.329013,231.620191 L280.565947,232.59694 L282.212744,234.817767 L282.013112,235.18802 L281.135833,235.354496 L280.632261,235.826983 L279.622355,237.678248 L281.135833,237.040667 L281.642859,236.937742 L282.482835,237.174676 L282.652765,237.140828 L282.853088,236.870737 L283.12318,236.634494 L283.660599,236.300852 L284.300253,236.164079 L286.250989,236.300852 L287.497829,235.860831 L288.035249,235.927835 L288.53882,236.567489 L289.245479,235.760669 L290.088909,235.826983 L290.928886,236.43417 L291.669392,237.274838 L291.165821,237.207833 L290.122066,236.601337 L289.685499,236.567489 L289.315246,236.937742 L289.145317,237.542166 L289.245479,238.081658 L289.652342,238.317901 L289.818818,238.485068 L289.851975,238.855321 L289.818818,239.225574 L289.752504,239.395503 L288.909073,239.395503 L288.472506,239.262185 L287.428061,238.588683 L286.891333,238.384906 L285.847579,238.485068 L284.870829,238.855321 L283.863686,239.022487 L282.819931,238.518225 L282.482835,238.518225 L282.313597,239.092255 L282.383365,239.762993 L282.819931,240.202323 L282.819931,240.436494 L282.71977,240.672047 L282.516683,240.775663 L281.943344,240.572576 L281.709173,240.63889 L281.472929,241.109305 L281.33961,242.289141 L281.539934,243.634071 L281.843182,244.911306 L282.013112,245.854207 L281.876339,246.357779 L281.642859,246.898652 L281.472929,247.438144 L281.573091,247.941716 L281.976501,248.345126 L282.212744,248.111645 L282.416522,247.571463 L282.786774,247.064437 L283.190184,246.898652 L283.290346,247.200519 L283.323503,247.771096 L283.52659,248.478445 L283.829838,248.85077 L284.33341,249.319112 L284.870829,249.65759 L285.207234,249.692819 L285.981588,249.285265 L286.384998,249.892452 L286.52108,251.138602 L286.487232,252.652771 L286.317993,253.896848 L286.317993,254.433577 L286.487232,255.107078 L286.791171,255.580256 L287.161424,255.881432 L287.461909,256.287605 L287.597991,257.060577 L287.631839,257.56484 L287.732,258.170645 L287.86601,258.741222 L288.035249,259.181243 L288.238335,259.382257 L288.438659,259.314561 L288.607897,259.114929 L288.775064,258.808917 L289.011998,258.574055 L289.279326,258.675599 L289.549418,258.875231 L289.78497,259.011313 L289.985985,258.911151 L290.155914,258.741222 L290.32239,258.607903 L290.559324,258.641751 L290.692643,258.77507 L290.995891,259.21509 L291.129901,259.382257 L291.636235,259.615737 L292.713146,259.717971 L294.497407,260.492325 L295.204065,261.40207 L296.447452,262.543223 L297.254962,263.923382 L297.558211,264.227321 L298.028625,264.429717 L298.26556,264.227321 L298.735284,263.082714 L299.172541,262.646147 L299.645028,262.646147 L300.619015,262.915548 L301.089429,262.782229 L301.462446,262.477599 L301.796778,262.005112 L302.606361,260.526173 L302.706523,260.088915 L302.740371,259.281404 L302.839842,258.675599 L303.076776,258.002097 L303.380715,257.39491 L303.68051,256.994263 L304.624102,256.521776 L305.734861,256.621938 L306.844929,257.094425 L309.098913,258.911151 L309.672253,259.785667 L309.906424,260.862578 L309.605248,262.043105 L308.864742,262.711771 L308.055159,263.250572 L307.51843,263.991078 L307.417578,264.563036 L307.417578,265.706951 L307.081173,266.783863 L307.081173,267.358584 L307.214491,267.893931 L307.417578,268.365036 L307.551587,268.904528 L307.51843,269.511715 L307.318107,270.61833 L307.318107,273.042243 L306.844929,273.919522 L305.567695,275.500696 L305.09728,277.488042 L303.850439,280.61516 L303.750277,281.1885 L303.683273,281.792924 L303.580348,282.36281 L303.380715,282.835987 L303.110624,283.307093 L304.253849,283.776817 L305.027512,283.744351 L305.667166,283.409327 L305.971795,282.969997 L306.407672,281.792924 L306.744768,281.388132 L307.787831,280.816174 L309.201838,279.505092 L309.739258,279.36901 L311.622989,279.53894 L313.240082,279.36901 L313.643492,279.033987 L314.147064,277.653827 L314.517317,277.114335 L315.357294,277.318113 L316.064643,277.75537 L316.771301,277.854841 L317.614732,277.081869 L318.252313,276.678459 L320.339131,276.407677 L321.013323,275.937953 L322.996525,273.885674 L323.569864,273.513349 L324.210209,273.313716 L325.487443,273.279868 L326.194102,273.749592 L326.564355,274.794037 L326.801289,276.040187 L327.135622,277.114335 L327.541104,277.451431 L327.945205,277.451431 L328.785182,277.014174 L329.32191,276.307515 L329.121587,275.500696 L328.382462,274.120536 L328.414929,273.246021 L328.752025,272.910306 L329.222439,273.010468 L329.692163,273.413878 L329.895941,273.749592 L330.199189,274.660028 L330.366355,274.961204 L330.602599,275.097286 L330.769765,275.060675 L330.939695,274.961204 L331.209095,274.961204 L332.286007,275.534543 L333.900337,277.52189 L334.944091,278.191247 L335.883539,278.394333 L336.155012,278.56219 L336.391256,278.931753 L336.45757,279.604563 L336.590888,280.009355 L337.164919,280.74917 L337.769343,281.120113 L338.476001,281.222348 L339.149502,281.153961 L340.899224,280.549537 L341.302634,280.549537 L341.706735,281.256195 L341.942978,282.262648 L342.280074,283.273245 L342.950812,283.912899 L348.572302,284.417161 L348.872097,284.584327 L349.075874,284.820571 L349.176036,285.291676 L349.075874,285.596306 L348.908708,285.897482 L348.83894,286.37066 L348.908708,287.412342 L349.142879,288.018148 L352.103521,290.506303 L352.979418,291.55282 L355.504184,295.724383 L356.411857,296.801294 L357.521234,297.608114 L359.978305,298.685026 L360.415563,299.121593 L361.323926,300.402281 L361.763256,301.006705 L362.166666,300.93901 L362.536228,300.603295 L362.906481,300.402281 L363.176572,300.469977 L363.680835,300.835394 L363.950235,300.93901 L364.218254,300.802928 L364.352954,300.501752 L364.453807,300.13219 L364.624427,299.795094 L365.397399,299.088436 L366.271224,298.582101 L367.178896,298.281616 L369.265023,298.381087 L369.735438,298.249149 L370.276311,297.741433 L370.612717,297.034775 L370.879354,296.294269 L371.286218,295.654615 L371.78979,295.421135 L372.126195,295.691226 L372.430825,296.060788 L372.833544,296.127793 L373.303268,296.028322 L373.773682,296.028322 L374.684118,296.327426 L375.324462,296.835142 L376.298449,298.34862 L376.83794,298.988274 L377.475521,299.28945 L379.629344,299.425532 L383.770513,300.93901 L384.644338,300.368433 L384.441251,299.862789 L384.20708,299.088436 L384.003993,298.249149 L384.003993,297.608114 L384.240237,297.170857 L384.576642,297.068623 L384.947586,297.034775 L385.283991,296.867608 L385.41731,296.597517 L385.484315,296.395121 L385.55201,295.353439 L385.518853,295.187655 L385.451158,295.017725 L385.384153,294.342842 L385.317148,294.140447 L385.281919,293.906275 L385.351687,293.433788 L385.484315,293.033141 L385.688092,292.72713 L386.124659,292.294017 L388.345486,291.518972 L388.81521,291.011947 L388.849748,290.372293 L388.547191,288.958286 L388.682582,288.118309 L388.94991,287.681052 L389.319472,287.377113 L390.059288,287.00755 L389.489402,286.504669 L389.287006,286.404508 L389.656568,286.20073 L394.030527,285.52792 L395.715316,284.820571 L396.35497,284.383313 L396.692066,283.710503 L396.455132,282.702669 L396.017874,282.196334 L393.290712,281.086266 L393.057231,280.816174 L392.887302,280.109516 L392.987464,279.53894 L393.189859,279.00152 L393.323869,278.361176 L393.156702,277.148183 L392.653131,276.744773 L392.415506,276.648756 L392.247648,277.014174 L391.775852,278.528343 L391.40629,277.451431 L391.205967,276.241201 L391.103733,274.99367 L391.069194,273.885674 L391.17281,272.672681 L391.069194,272.167037 L390.229217,271.76639 L389.959126,271.258674 L389.588873,269.878514 L388.209404,267.054645 L387.872999,266.076514 L387.805303,265.504556 L388.435977,265.000984 L388.433214,264.97957 L387.73968,265.504556 L387.705832,263.95723 L387.638137,263.656745 L387.335579,263.41912 L386.258668,261.906332 L386.461064,261.335756 L386.394059,260.862578 L386.22413,260.42532 L386.124659,259.854744 L386.124659,258.77507 L386.22413,258.442118 L386.427907,258.170645 L386.52876,257.901245 L386.325673,257.56484 L385.921572,257.229125 L384.071689,256.219909 L382.894616,256.187443 L382.287429,255.983666 L381.649157,255.207931 L381.44607,254.099244 L381.513766,251.609707 L381.44607,250.262014 L380.572246,245.72158 L379.596878,242.963333 L377.912779,239.662832 L377.275198,238.789007 L374.751813,237.040667 L374.077621,236.130922 L373.840687,234.886844 L373.97746,233.406523 L374.314556,231.992516 L374.684118,231.015766 L375.524786,229.568602 L376.431076,228.458534 L377.408517,227.651023 L382.927773,225.497201 L389.623411,224.724229 L394.381438,225.78318 L394.637024,224.790543 L395.78094,222.63672 L396.251354,221.525961 L397.802134,217.151312 L398.159953,215.475503 L398.608954,213.280234 L399.079369,212.172929 L398.842434,211.262493 L398.881808,211.208613 L398.879045,211.195489 L399.449622,210.422517 L400.929943,209.579086 L404.061205,209.648163 L404.548889,208.977425 L403.956899,209.007819 L402.007545,208.234846 L402.079385,208.196854 L402.007545,208.167842 L402.847522,207.731275 L405.035883,207.562036 L406.212265,206.584596 L406.852609,206.990769 L406.988,206.014019 L406.684752,205.643766 Z M275.821045,251.912265 L274.94722,251.306459 L274.273719,251.071597 L273.16296,250.801506 L272.086049,250.228166 L271.682639,249.858604 L271.479552,249.557428 L271.075452,248.512292 L270.538723,247.737939 L269.091559,247.064437 L267.844718,246.158146 L266.634488,245.72158 L266.027992,245.350636 L265.423567,245.217317 L264.010251,245.584116 L263.066658,245.080545 L262.496082,245.484645 L261.619494,246.596095 L261.048918,246.830957 L260.609588,246.66379 L260.17233,246.357779 L259.635601,246.191303 L259.465672,246.291465 L258.995257,246.763261 L258.725857,246.864805 L258.525533,246.763261 L258.254751,246.291465 L258.088275,246.191303 L257.785027,245.923975 L257.278002,244.710982 L256.977517,244.444345 L256.10162,244.710982 L253.77994,246.596095 L250.011787,246.996742 L249.102042,247.804943 L249.00188,248.818304 L248.968723,250.228166 L248.698632,251.238763 L247.891121,251.105445 L247.487712,250.801506 L247.38755,250.498257 L247.354393,249.892452 L247.317782,249.65759 L247.218311,249.355032 L247.118149,249.085632 L247.051145,248.98547 L246.544119,249.017936 L246.377643,249.185103 L246.244325,249.557428 L245.940386,250.262014 L245.60329,250.665424 L244.763313,251.138602 L244.390297,251.472244 L244.122968,252.013117 L243.987577,252.586457 L243.853568,253.930005 L243.987577,254.671202 L243.987577,255.107078 L243.753406,255.310856 L243.583477,255.310856 L243.450158,255.24316 L243.349305,255.074612 L243.316148,254.773436 L243.246381,254.066778 L243.079905,253.526595 L241.902832,251.339616 L241.22864,250.665424 L240.455668,250.398096 L239.445071,250.364248 L239.311752,250.665424 L239.311752,250.935515 L239.241984,251.105445 L238.838574,251.272611 L238.402007,251.272611 L236.988,250.632958 L237.728506,251.609707 L238.468321,252.350213 L238.838574,252.819937 L239.445071,253.930005 L240.01841,254.671202 L241.195483,256.994263 L241.532579,258.102259 L241.76606,258.675599 L241.195483,258.474584 L240.588987,258.641751 L240.252581,259.181243 L240.488825,260.055758 L239.98249,260.459168 L239.545232,260.055758 L239.108665,259.382257 L238.638251,259.045161 L238.064911,259.281404 L238.234841,259.887901 L238.704565,260.694721 L239.008504,261.469765 L237.594496,261.063592 L237.258091,261.301908 L237.258091,261.736403 L237.461178,262.342208 L237.898436,263.216724 L238.671408,263.923382 L239.545232,264.227321 L241.295645,264.227321 L241.902832,264.76405 L242.876818,267.154806 L243.383153,267.691535 L245.233727,268.032085 L246.277482,268.464507 L246.881215,269.138008 L245.874072,270.721945 L245.704142,271.226898 L245.536976,272.269271 L245.400894,272.607058 L245.063798,272.738995 L244.730156,272.607058 L244.39306,272.372196 L243.98965,272.235423 L243.719558,272.439201 L243.483315,272.910306 L243.0129,273.987217 L242.002994,275.568391 L241.835827,276.040187 L241.532579,277.081869 L241.328802,277.451431 L241.129169,277.52189 L240.42182,277.451431 L240.388663,277.653827 L240.388663,277.888689 L240.42182,278.092466 L240.488825,278.15878 L240.859078,278.327328 L241.129169,278.729357 L241.22864,279.302696 L241.129169,279.874654 L241.835827,280.948802 L242.676495,280.916336 L246.477805,277.451431 L246.848058,276.94855 L246.714049,275.80049 L246.747896,275.333529 L247.017297,274.893508 L247.321236,274.490098 L247.521559,274.020374 L248.262065,271.932175 L248.497618,270.823488 L248.631627,269.711348 L248.665475,267.828308 L248.731789,267.590683 L248.934876,267.424898 L249.271972,266.883334 L250.045635,266.178057 L250.852455,265.673104 L251.056232,265.641328 L251.559113,265.337389 L251.762199,265.170223 L252.030218,265.136375 L252.332776,265.337389 L252.636715,265.471399 L252.906806,265.204071 L253.2066,264.833127 L253.646621,264.496722 L254.117036,264.297089 L254.486598,264.329555 L254.486598,264.496722 L254.620608,265.269694 L254.620608,265.437551 L254.823694,265.405085 L254.890008,265.337389 L254.990861,265.237918 L255.193947,265.070061 L255.427428,264.193473 L255.664362,263.856377 L256.034615,264.159626 L256.337863,264.697736 L256.471182,264.800661 L256.641111,264.596883 L257.044521,264.159626 L257.481088,263.95723 L257.985351,263.923382 L258.491685,264.060155 L258.895095,264.329555 L259.265348,265.504556 L260.712513,265.303541 L261.619494,264.429717 L260.376107,263.656745 L260.678665,263.01571 L261.249241,262.849925 L262.462925,262.983243 L263.066658,262.883082 L263.470068,262.6123 L264.243731,261.601702 L264.683752,261.301908 L265.120319,261.165826 L265.523729,260.929583 L267.307989,258.474584 L266.73465,257.834931 L266.937736,257.39491 L267.54147,257.361062 L268.721306,258.305346 L269.258725,257.867397 L269.832065,257.160048 L270.435798,256.691015 L270.368793,256.420924 L270.302479,256.116985 L270.269322,255.78127 L270.269322,255.480785 L270.368793,254.907446 L270.605728,254.805902 L270.873056,254.907446 L271.042985,254.940603 L271.446395,254.603507 L271.612871,254.399729 L271.815958,254.066778 L271.916119,253.762839 L272.052892,253.022333 L272.086049,252.819937 L272.253215,252.552609 L272.286372,252.450375 L272.689782,252.450375 L272.959873,252.586457 L273.129803,252.920099 L273.229965,253.292424 L273.330126,253.526595 L273.869618,254.066778 L274.373881,254.367263 L275.517797,254.537193 L275.349939,254.066778 L275.114387,253.796687 L274.810448,253.626757 L274.474042,253.526595 L275.114387,253.057562 L276.830951,254.266411 L277.031275,253.526595 L276.627865,252.720466 L275.821045,251.912265 Z M388.377952,256.724172 L388.361374,256.706903 L388.312329,256.691015 L388.14309,256.691015 L387.975233,256.824334 L387.805303,257.028111 L387.705832,257.361062 L388.512652,257.834931 L388.919516,257.901245 L389.356083,257.734769 L389.152997,257.327215 L388.919516,257.060577 L388.377952,256.724172 Z M308.729351,197.094791 L309.435319,196.894467 L309.639096,196.390896 L309.135524,195.010736 L308.732114,194.27023 L308.32525,194.373155 L307.954997,195.313984 L307.988845,196.28728 L308.729351,197.094791 Z M272.119897,226.910517 L272.523306,227.177846 L272.826555,227.211693 L273.803304,226.978213 L273.936623,226.744042 L274.003628,226.505035 L274.173557,226.404873 L274.744134,226.540264 L275.653878,227.077684 L276.190607,227.077684 L276.998118,226.505035 L277.268209,226.404873 L277.53761,226.505035 L277.874706,226.744042 L278.175191,226.844203 L278.445282,226.574803 L278.681525,225.764529 L278.578601,225.193953 L277.908553,224.083885 L277.368371,223.543702 L276.761183,223.543702 L275.584111,223.88287 L273.700379,223.276374 L272.726393,223.176903 L272.119897,223.243217 L271.682639,223.44354 L271.346234,223.816556 L271.209461,224.42029 L271.346234,224.724229 L272.119897,226.910517 Z M246.577967,231.319015 L247.420707,231.386019 L249.17181,230.948762 L250.078792,230.879685 L250.852455,231.116619 L251.592961,231.620191 L252.872267,233.169589 L253.140286,233.740165 L253.2066,234.480671 L253.2066,235.726821 L253.409687,236.567489 L253.813788,237.611243 L254.320122,238.554836 L254.687612,239.092255 L254.251045,239.762993 L254.016874,240.002 L253.77994,240.169166 L254.823694,241.279925 L256.270858,241.682644 L257.751179,241.516169 L258.928252,240.875825 L259.635601,239.762993 L260.542583,236.768503 L261.115923,235.523735 L261.55318,235.087168 L262.192834,234.61399 L262.866335,234.313505 L263.302902,234.346662 L263.503916,234.886844 L263.100506,235.321339 L262.52993,235.760669 L262.225991,236.300852 L262.52993,236.870737 L263.236588,237.140828 L264.010251,237.107671 L264.480666,236.80166 L264.783914,236.501175 L264.984237,236.501175 L265.120319,236.367856 L265.154167,235.726821 L265.120319,235.254334 L265.017394,234.987006 L264.850228,234.853687 L264.613984,234.853687 L264.95039,234.213343 L265.39041,234.080024 L265.860825,234.080024 L266.297392,233.840327 L266.634488,234.147029 L266.768498,233.9771 L266.834811,233.640004 L267.037898,233.472837 L267.307989,233.506685 L267.575317,233.640004 L268.685386,234.414357 L269.091559,234.346662 L269.258725,233.80717 L269.225568,232.766179 L269.125406,232.733022 L268.921629,232.733022 L268.755153,232.63286 L268.685386,232.293692 L268.685386,231.722425 L268.652229,231.453024 L268.584533,231.219544 L268.3849,230.912842 L268.014647,230.478347 L267.844718,230.172336 L267.611238,229.871851 L267.037898,229.398673 L266.800964,228.895792 L266.73465,228.425377 L266.870732,227.617866 L266.800964,227.077684 L266.397554,226.404873 L263.807164,225.127639 L261.115923,225.296878 L260.678665,224.957709 L260.17233,224.25036 L259.905693,223.410383 L260.509426,221.929371 L260.039011,221.4258 L259.231501,221.122551 L258.525533,221.02239 L257.380927,220.819303 L257.110835,220.956076 L256.874592,221.392643 L256.841435,221.82921 L256.841435,222.266467 L256.741273,222.736882 L256.37102,223.477388 L255.96761,223.916027 L255.497195,224.117042 L254.890008,224.150199 L254.453441,224.623376 L254.453441,226.43803 L254.150193,226.471187 L253.543696,226.137545 L253.2066,226.270864 L253.243211,226.641117 L253.77994,227.01137 L245.907229,228.088281 L243.919882,227.785033 L242.876818,227.951509 L242.576333,228.828787 L243.046748,229.365516 L246.577967,231.319015 Z M275.080539,286.098496 L274.507199,285.630154 L274.103789,285.561077 L274.003628,285.863634 L273.96978,286.267044 L273.936623,286.705684 L274.240562,287.17748 L274.810448,287.54497 L275.349939,287.478656 L275.450101,286.874232 L275.349939,286.404508 L275.080539,286.098496 Z M255.361114,268.87068 L255.327266,268.567432 L255.260261,268.365036 L255.160099,268.331189 L255.093095,268.231718 L255.059938,267.998237 L254.990861,267.893931 L254.723532,267.79446 L254.620608,267.828308 L254.58676,268.398884 L254.117036,269.479249 L254.654455,270.082292 L254.687612,270.552016 L254.756689,270.585863 L255.531043,269.445401 L255.5642,269.208467 L255.394271,269.105542 L255.361114,268.87068 Z" id="Fill-3"></path>
        </g>
    </g>
</svg>