
<svg width="118px" height="116px" viewBox="0 0 118 116" version="1.1" xmlns="http://www.w3.org/2000/svg" xmlns:xlink="http://www.w3.org/1999/xlink">
    <!-- Generator: Sketch 51.2 (57519) - http://www.bohemiancoding.com/sketch -->
    <desc>Created with Sketch.</desc>
    <defs></defs>
    <g id="Page-1" stroke="none" stroke-width="1" fill="none" fill-rule="evenodd">
        <g id="FR-EPS-01-0001" transform="translate(-237.000000, -146.000000)" >
            <polygon id="Path" points="353.343967 175.983595 351.91795 175.223292 351.755506 175.203758 351.243497 175.258249 350.493475 175.041313 350.395289 175.069073 350.184008 175.183195 350.07297 175.213011 349.986607 175.199131 349.795889 175.130761 349.695132 175.115339 349.58358 175.138986 349.477168 175.183195 349.369729 175.209413 349.245325 175.183195 349.161018 175.112254 349.073627 174.932845 349.008341 174.852137 348.808883 174.748296 348.414081 174.677869 348.219251 174.556036 348.099987 174.402844 347.895903 174.075899 347.770472 173.941728 347.786408 173.895976 347.808512 173.86616 347.876883 173.823493 347.816737 173.624549 347.654293 173.564918 347.262575 173.538186 347.225562 173.384995 347.051808 173.369573 346.840013 173.433831 346.69042 173.518652 346.647239 173.586508 346.581953 173.787508 346.536715 173.86359 346.467316 173.893405 346.286365 173.917567 346.204115 173.944812 346.148082 174.012155 346.052465 174.208527 346.001573 174.263018 345.943998 174.254793 345.702387 174.140671 344.926148 174.131932 344.78478 174.08618 344.643927 174.010612 344.298475 173.759234 344.250153 173.754608 344.16893 173.83583 344.174071 173.912426 344.204401 173.982339 344.190007 174.05328 343.912926 174.227034 343.715011 174.070244 343.611683 173.694976 343.614768 173.209699 343.421993 173.201474 342.859606 172.880697 342.759363 172.867331 342.498218 172.891492 342.121922 172.807186 342.031447 172.829804 341.98004 173.01898 342.048411 173.241571 342.080797 173.469816 341.926063 173.67647 341.812455 173.703201 341.463405 173.572629 341.060378 173.566974 340.953966 173.523793 340.840872 173.331532 340.865033 173.162919 340.911813 172.988651 340.854751 172.771715 340.815682 172.771715 340.695905 172.850367 340.655808 172.856536 340.631647 172.807186 340.614683 172.698718 340.604916 172.668902 340.574586 172.608756 340.503131 172.35635 340.466118 172.316253 340.340686 172.270501 340.292364 172.235031 340.283625 172.177456 340.300589 172.039172 340.286709 171.97954 339.68988 171.404301 339.53823 171.218724 339.480141 171.059878 339.532576 170.934446 339.68988 170.926221 339.731005 170.814669 339.701189 170.733446 339.263205 170.269759 339.201003 170.176714 339.217968 170.171573 339.214369 170.092921 339.190208 169.978798 339.136745 169.864676 338.980984 169.716111 338.155909 169.303317 338.055666 169.286352 337.981127 169.314112 337.811485 169.430291 337.716383 169.449311 337.639787 169.4416 337.458322 169.423094 337.219282 169.292007 336.774101 168.958379 336.52735 168.859678 336.272374 168.833975 335.756252 168.890008 335.813313 169.01801 335.560393 169.042171 335.495107 169.067361 335.449869 169.151153 335.449869 169.240601 335.427764 169.314112 335.319297 169.354723 335.231905 169.487866 335.098763 169.537216 334.333319 169.58194 334.177044 169.635917 334.05521 169.240601 333.882484 169.069417 333.313414 168.933704 333.085683 168.82832 332.929921 168.681298 332.645643 168.304488 332.550541 168.280327 332.542316 168.276728 332.344401 168.157465 332.246214 168.141529 332.151626 168.192936 332.034419 168.347155 331.933663 168.390851 331.923895 168.395991 331.727008 168.361549 331.534234 168.265933 331.334263 168.219667 331.330664 168.219667 331.109616 168.33379 331.00012 168.480298 331.00012 168.483897 330.9811 168.581569 330.972875 168.593907 330.95077 168.635546 330.890624 168.642743 330.818655 168.654052 330.740003 168.632461 330.457781 168.502403 330.341603 168.553809 330.289168 168.577971 330.1807 168.662791 330.064521 168.755323 329.884598 168.859678 329.830622 168.890008 329.635791 168.839116 329.590553 168.744014 329.580272 168.716768 329.589525 168.593907 329.619855 168.463848 329.619855 168.320424 329.583356 168.192936 329.149485 167.407958 328.980872 167.258365 328.700706 167.155552 328.657525 167.129335 328.601492 167.093864 328.547515 167.085125 328.543402 167.085125 328.511016 167.120081 328.472975 167.196677 328.423625 167.26659 328.408717 167.272245 328.361423 167.288695 328.212858 167.258365 328.165564 167.203874 328.165564 167.202332 328.155797 167.139616 328.146544 167.077414 328.174817 166.881555 328.174817 166.878471 328.185613 166.87333 328.247301 166.833233 328.26118 166.813184 328.288426 166.783369 328.226224 166.575686 328.05247 166.363377 327.86278 166.175229 327.754312 166.178828 327.670005 166.180884 327.525039 166.222009 327.262352 166.295007 327.056211 166.233319 326.890682 166.110457 326.846473 166.07036 326.757025 165.982455 326.535463 165.66065 326.374561 165.42675 326.266093 165.324451 326.19361 165.301318 325.94583 165.231406 325.766936 165.127564 325.432793 164.795992 325.286285 164.717854 325.26932 164.706545 325.177817 164.7122 325.080144 164.717854 324.90382 164.78057 324.689969 164.854596 324.539348 164.878757 324.487941 164.885954 324.344517 164.867447 324.251985 164.854596 324.251985 164.850483 324.170763 164.74767 324.172819 164.506574 324.172819 164.226408 324.151743 164.14827 324.151743 164.145186 324.062295 163.999191 324.043275 163.92825 324.058183 163.843943 324.140433 163.751412 324.146602 163.735476 324.170763 163.678414 324.18053 163.634719 324.220113 163.507231 324.24119 163.453254 324.265865 163.391566 324.286942 163.271275 324.279231 163.187482 324.269978 163.089296 324.135807 162.836376 324.131694 162.833805 324.131694 162.832263 323.883401 162.730992 323.707076 162.657995 323.703992 162.657995 323.584215 162.46265 323.62534 162.24006 323.871577 161.623696 323.968735 161.37643 323.972848 161.349699 323.977989 161.226837 323.965137 161.111172 323.972848 161.021211 323.974904 160.985226 324.022198 160.879843 324.143518 160.617156 324.143518 160.613557 324.201093 160.600192 324.293111 160.703005 324.295167 160.705575 324.309047 160.562665 324.317272 160.458824 324.365594 160.171461 324.368678 160.106689 324.376389 159.92471 324.293111 159.816242 324.012945 159.874845 323.909618 159.832178 323.871577 159.633749 323.869521 159.623468 323.627396 159.733992 322.666608 160.705575 322.614687 160.817127 322.590526 160.955925 322.60749 161.015556 322.612631 161.039717 322.625483 161.070047 322.644503 161.10706 322.650672 161.15384 322.655813 161.205246 322.631652 161.352269 322.584358 161.650941 322.523184 161.873017 322.509818 161.897692 322.441961 162.033406 322.373591 162.076073 322.343261 162.095607 321.965937 162.156267 321.653385 162.313057 320.711618 162.778286 320.446874 162.826608 319.259897 162.500691 319.028054 162.435405 318.767937 162.472931 318.340235 162.535133 318.243076 162.508402 318.218915 162.500691 317.714617 162.22875 317.719758 162.22875 317.786072 162.233891 317.778875 162.106403 317.775277 162.031349 317.751116 161.922882 317.725927 161.815956 317.684801 161.800534 317.682745 161.800534 317.720786 161.635005 317.759855 161.545044 317.763967 161.533734 317.764996 161.531678 317.83131 161.449427 317.930525 161.357924 317.995811 161.295208 318.141291 161.191367 318.203493 161.148185 318.324299 161.086497 318.420429 161.039717 318.421457 160.974431 318.421457 160.948214 318.360283 160.835633 318.328411 160.760066 318.306306 160.705575 318.154657 160.10052 318.064182 160.054768 317.968565 160.07019 317.790185 160.151927 317.733638 160.124681 317.661669 160.087668 317.679661 159.87793 317.682745 159.834748 317.792241 159.481071 317.856499 159.272875 317.903793 159.017385 317.941834 158.914572 317.944918 158.903262 318.040021 158.764464 318.253872 158.600478 318.267237 158.583513 318.341263 158.499207 318.3536 158.42621 318.363368 158.352698 318.308363 158.259652 318.195782 158.163008 318.120215 158.114172 318.076005 158.086926 317.994783 158.057111 317.883231 158.105433 317.881688 158.105433 317.877576 158.195394 317.883231 158.246801 317.889399 158.293067 317.888371 158.293067 317.86421 158.317742 317.822057 158.357839 317.711533 158.306432 317.656528 158.279701 317.468894 157.874103 317.411319 157.752784 317.410805 157.7497 317.224713 157.584685 317.101337 157.51323 317.032967 157.473133 316.734809 157.142074 316.726584 157.13899 316.558998 157.057768 316.47572 157.068049 316.369308 157.079359 315.989928 157.240261 315.796126 157.320969 315.59307 157.320969 315.555029 157.304519 315.432681 157.244888 315.34529 157.186284 315.27692 157.13642 315.09237 157.041832 314.717617 156.997622 314.325385 157.024868 314.27295 157.047486 314.203551 157.071648 314.130554 157.155954 313.968624 157.428923 313.939836 157.516828 313.930583 157.547158 313.92133 157.563094 313.905394 157.589825 313.865296 157.617071 313.850389 157.603191 313.835995 157.611416 313.801038 157.703948 313.484888 157.404762 313.406236 156.832607 313.404694 156.175632 313.329126 155.62918 313.182618 155.363923 313.003723 155.193767 312.806836 155.095581 312.603266 155.051371 312.056815 155.049315 312.021858 155.049315 311.911334 154.965522 311.909278 154.965522 311.989986 154.82107 311.997697 154.807704 312.012091 154.693582 311.95246 154.62007 311.914419 154.609789 311.822915 154.581515 311.735524 154.58717 311.695427 154.590254 311.620373 154.641147 311.603409 154.65297 311.571023 154.684842 311.51499 154.742418 311.481576 154.767093 311.391614 154.834435 311.083175 154.948558 310.99784 154.978374 310.914562 154.989683 310.778849 155.005619 310.622059 154.96141 310.227771 154.755783 310.109022 154.66428 309.986674 154.502863 309.968682 154.481787 309.922416 154.321398 309.907508 153.870563 309.670524 153.075818 309.597013 152.666108 309.662299 152.543247 309.722444 152.429124 309.682347 152.293925 309.621174 152.089841 309.555887 151.973662 309.548176 151.959782 309.429427 151.921228 309.429427 151.919685 309.301939 151.902721 309.230484 151.818929 309.119446 151.550072 309.019717 151.367579 308.976536 151.29304 308.844935 151.056056 308.692772 150.912117 308.50668 150.854542 308.458358 150.842205 308.026029 150.97689 307.751004 151.064281 307.658472 151.090498 307.271895 151.212846 307.161371 151.283273 307.064213 151.342904 306.984533 151.430295 306.901254 151.520257 306.787646 151.715601 306.630342 151.989598 306.510565 152.08213 306.471496 152.070821 306.388217 152.05437 306.370225 152.052314 306.341951 152.038949 306.3291 152.030209 305.700398 151.742847 305.608894 151.70275 305.560058 151.661111 305.443365 151.563952 305.425373 151.528482 305.395043 151.473991 305.274752 151.188685 305.223345 151.094611 305.186332 151.058626 304.888175 150.77332 304.829057 150.667422 304.801812 150.570264 304.799755 150.570264 304.755546 150.488528 304.637311 150.42684 304.615206 150.422727 304.551976 150.418101 304.385419 150.440206 304.310879 150.436607 304.179279 150.409876 304.125302 150.385715 304.112964 150.379546 304.065156 150.298323 304.029686 150.214531 303.98856 150.119943 303.966456 150.095268 303.947435 150.073163 303.919162 150.059797 303.837939 150.018672 303.815834 149.981145 303.809666 149.969836 303.809666 149.967265 303.813778 149.93745 303.819947 149.904549 303.889346 149.744675 303.898085 149.651629 303.811722 149.345246 303.72176 149.028068 303.772653 148.898524 303.850277 148.821414 303.981363 148.691355 304.012721 148.639949 304.033798 148.604478 304.005525 148.321743 303.863128 148.107377 303.8621 148.107377 303.541838 147.752158 303.45239 147.475077 303.361915 146.845347 303.347007 146.80782 303.226716 146.522 303.094087 146.617616 302.727558 146.791884 301.993473 146.984145 301.454219 146.917316 301.379165 146.930168 301.284577 146.981574 299.740839 147.485358 298.296316 147.667851 297.987876 147.850345 297.828002 147.817444 296.103313 148.572606 295.826232 148.832723 295.564059 149.196168 295.414466 149.350387 295.242768 149.416187 295.055648 149.433152 294.978538 149.465024 294.759032 149.641862 294.761603 149.712289 294.781137 149.910204 294.927646 150.434037 294.984707 150.75944 294.935357 151.029324 294.833572 151.237521 294.642854 151.799908 294.59813 152.052314 294.602757 152.345331 294.696317 152.950386 294.734871 153.612502 294.783708 153.808875 295.027375 154.185685 294.747723 154.396966 294.701457 154.972719 294.694774 155.634835 294.531816 156.109831 294.531816 156.207504 295.027375 156.601792 295.027375 156.688155 294.682951 156.615158 294.497887 156.992996 294.421292 157.541503 294.407412 157.991824 294.494289 158.108517 294.879324 158.295123 294.966715 158.475046 295.023776 158.631836 295.165144 158.743388 295.345067 158.803533 295.519335 158.80559 295.519335 158.911487 295.3353 158.911487 295.384136 159.017385 295.43143 159.080101 295.493118 159.101691 295.586163 159.09398 295.586163 159.191653 295.511624 159.26465 295.423205 159.272875 294.531816 158.837462 294.221834 158.879101 293.915965 159.294466 293.713938 160.035234 293.637342 160.155011 293.530931 160.244972 293.05542 160.830493 291.882323 161.778429 291.523506 162.177344 291.307084 162.25394 291.087064 162.42718 287.382196 163.627008 286.607499 163.616213 285.904258 163.873759 285.550581 164.115884 285.239058 164.210986 284.112227 164.885954 284.021237 165.01704 282.84557 165.562464 282.75458 165.649855 282.657422 165.651397 282.207615 166.015869 282.07293 166.175229 281.71257 167.396649 281.250425 168.244342 281.222666 168.347155 281.212898 168.496748 281.241172 168.612927 281.36866 168.700832 281.39642 168.785653 281.473015 168.917768 281.652424 169.026235 281.859079 169.094092 282.017411 169.104887 282.200932 169.104887 282.84557 169.324907 283.589936 169.428234 284.332761 169.319253 284.97123 168.917768 284.822151 169.123394 284.649939 169.279156 284.235602 169.490436 281.995306 170.001417 281.39642 170.432204 281.182055 170.772001 281.10186 170.837287 280.89572 170.891778 280.649997 171.11077 280.228978 171.308685 278.787539 171.654137 278.558265 171.860791 277.715198 171.34981 277.263849 171.243399 276.99088 171.064504 276.832548 170.996648 276.21824 170.996648 275.830635 170.826492 275.611129 170.774057 275.282641 170.956551 275.062107 170.934446 274.676559 170.817753 273.133849 170.724707 272.068705 170.315511 270.882243 170.253309 270.726995 170.326307 270.57586 170.49235 270.509031 170.68204 270.603619 170.817753 270.603619 170.911827 270.427295 170.961691 270.332193 170.90463 270.262794 170.807472 270.167692 170.724707 270.066421 170.739101 269.969263 170.801817 269.895237 170.812098 269.86645 170.673301 269.884956 170.630633 269.924539 170.56072 269.965664 170.453795 269.983657 170.302145 269.952299 170.001417 269.865422 169.791679 269.179659 168.923936 269.044973 168.5425 268.889726 168.298319 268.776631 168.024836 268.821355 167.698405 268.878416 167.627978 268.957582 167.600732 269.156526 167.595078 269.193024 167.535446 269.215643 167.406416 269.254712 167.275329 269.482957 167.112885 269.443374 166.871274 269.245459 166.450768 269.202277 166.218925 269.166807 166.121253 269.091753 166.081156 268.011702 165.88324 267.847715 165.898148 267.432351 166.029235 267.301264 166.130506 267.070449 166.4446 266.929081 166.577228 266.776917 166.648684 266.668964 166.645085 266.482872 166.572088 266.377489 166.556152 266.28033 166.585968 266.156441 166.721681 266.073162 166.752011 266.007876 166.721681 265.986285 166.654338 265.982687 166.585968 265.978574 166.556152 265.834636 166.564377 265.163267 166.333047 264.566437 166.243086 264.370064 166.175229 264.324826 166.170603 264.226126 166.189109 264.185 166.175229 264.145417 166.110457 264.112003 165.942358 264.067793 165.88324 263.97886 165.844171 263.726454 165.88324 263.621585 165.852911 263.44269 165.722852 263.357869 165.692522 263.115231 165.725422 263.076162 165.830806 263.094154 166.036432 263.023213 166.365948 263.417501 166.534561 263.707434 166.590594 263.788142 166.68621 263.83852 166.822438 263.91049 166.977171 263.977318 167.172516 263.979888 167.402817 263.938763 167.836688 263.881702 167.974972 263.62724 168.208358 263.570178 168.401646 263.617472 168.483897 263.850858 168.768175 263.938763 168.917768 263.971663 169.023665 263.977318 169.096662 263.99017 169.161949 264.121256 169.403559 264.158783 169.490436 264.185 169.586053 264.191169 169.783968 264.156727 170.253309 264.185 170.432204 264.270849 170.53039 264.377261 170.519595 264.49601 170.465104 264.620414 170.432204 264.593682 170.486695 264.577746 170.526792 264.553071 170.622408 264.730938 170.72882 264.933479 170.950382 265.099522 171.056279 265.17252 170.817753 265.24089 170.817753 265.358097 171.099975 265.358097 171.187366 265.17252 171.187366 265.241919 171.401217 265.351929 171.553894 265.609475 171.75695 265.569378 171.778541 265.544703 171.797047 265.4861 171.860791 265.619757 172.023236 265.768321 172.527534 265.911232 172.696147 265.982687 172.435002 266.174433 172.440657 266.407305 172.555294 266.598023 172.611841 266.598023 172.696147 266.273134 172.601559 266.110175 172.611841 266.039748 172.746012 266.053628 172.992763 266.092697 173.261105 266.152842 173.518652 266.229438 173.738672 266.274162 173.670301 266.296781 173.650767 266.408333 173.738672 266.232522 173.860505 266.170835 173.944812 266.106062 174.120622 266.062881 174.298489 266.054656 174.450138 266.102464 174.552437 266.229438 174.580197 266.190369 174.718994 266.169806 174.862418 266.162095 175.190906 266.191397 175.308113 266.253599 175.443312 266.317343 175.521964 266.346645 175.467473 266.416558 175.256192 266.586713 175.158006 266.788741 175.158006 266.960953 175.242313 266.960953 175.326619 266.742475 175.220722 266.62167 175.28755 266.56358 175.491634 266.465394 176.284837 266.502921 176.364003 266.609332 176.390735 266.655084 176.466816 266.647373 176.58865 266.598023 176.743897 266.519371 176.629775 266.459739 176.768058 266.386742 177.422978 266.326596 177.579768 266.231494 177.701601 266.106062 177.761233 266.106062 177.861989 266.322998 177.918537 266.432494 178.130331 266.471049 178.453678 266.475675 178.831516 266.551243 179.154349 266.886413 179.452507 266.960953 179.77277 267.007733 179.856563 267.121855 179.930588 267.430294 180.019521 267.479131 180.074012 267.50946 180.150094 267.520256 180.236971 267.544931 180.299687 267.593253 180.278096 267.636435 180.225661 267.636435 180.193275 267.982401 180.225661 268.182372 180.330017 268.325282 180.565973 267.994738 180.440541 267.028295 180.657476 266.315801 180.565973 266.171863 180.598873 265.738506 180.834315 265.027553 180.945353 264.370064 180.934043 263.989141 180.829688 263.784544 180.598873 263.781459 180.280152 264.005078 179.916194 263.940819 179.819036 263.911518 179.748095 263.913574 179.688463 263.938763 179.629346 263.023213 179.816466 263.079246 179.916194 262.740477 179.916194 262.659769 179.960918 262.643319 180.054478 262.643319 180.150094 262.610932 180.193275 262.474705 180.234401 262.369836 180.335157 262.302493 180.456991 262.274734 180.565973 262.360583 180.730988 262.528168 181.136071 262.610932 181.214723 262.715288 181.220892 262.808848 181.25225 262.89007 181.333986 262.955356 181.491804 262.846888 181.409554 262.808848 181.369457 262.771321 181.306741 262.710661 181.306741 262.744075 181.523162 262.87619 181.765287 262.826326 181.871698 263.079246 182.046995 262.798566 182.230002 262.710661 182.324076 262.746132 182.025918 262.690613 181.843939 262.458769 181.491804 262.487043 181.43937 262.525084 181.306741 262.413017 181.265616 262.334365 181.167943 262.289642 181.03223 262.274734 180.885721 262.08453 180.533073 262.061397 180.473955 261.631124 180.517136 261.229639 180.657476 261.302636 180.853849 261.351473 180.945353 261.414189 181.02966 261.300066 180.90834 261.189542 180.896517 261.084159 180.975169 260.983916 181.13093 261.06411 181.200843 261.101637 181.214723 261.101637 181.306741 260.966952 181.383336 260.886244 181.306741 260.837921 181.136071 260.799366 180.934043 260.803993 181.102657 260.772121 181.241454 260.707863 181.344782 260.609676 181.399273 260.592198 181.25482 260.559298 181.102657 260.499152 180.983908 260.397367 180.934043 260.366009 180.864131 260.317687 180.546438 260.274506 180.473955 260.06888 180.57317 259.887415 180.763888 259.718801 180.879553 259.558927 180.750522 259.809791 180.473955 259.856057 180.397359 259.888443 180.318707 259.92854 180.247766 259.994854 180.193275 259.994854 180.093547 259.876619 180.113081 259.784602 180.071956 259.720858 179.970685 259.686929 179.816466 259.563554 180.060647 259.328112 180.294032 259.056685 180.473955 258.820729 180.565973 258.742591 180.378853 258.546218 180.350579 258.145762 180.473955 258.320544 180.557234 258.396111 180.565973 258.396111 180.657476 258.271193 180.799358 257.663054 181.179253 257.502152 181.233743 257.408592 181.306741 257.339193 181.391047 257.125856 181.727246 256.952102 181.916936 256.804565 181.982737 256.448318 181.963202 256.411305 182.063959 256.415418 182.259818 256.392799 182.387306 256.266339 182.283979 256.190771 182.180138 256.11469 182.101486 256.028841 182.053164 255.922429 182.046995 255.992342 181.982737 256.043235 181.903571 256.080247 181.808983 256.107493 181.684579 255.593942 181.433715 255.377006 181.270756 255.260827 181.214723 255.216104 181.171028 255.184231 181.086721 255.203766 181.01835 255.228955 180.956662 255.216104 180.885721 255.180633 180.777254 255.089643 180.373198 254.503095 179.864788 254.445006 179.729074 254.306722 179.569714 254.144277 179.427832 254.011135 179.341469 254.011135 179.257163 254.048661 179.238142 254.13451 179.164631 254.123715 179.072613 254.123715 178.991391 254.13451 178.877268 253.95613 178.812496 253.49964 178.787307 253.26831 178.70043 253.26831 178.597617 253.152646 178.597617 253.152646 178.51331 253.303781 178.393533 253.372151 178.353436 253.458514 178.328247 253.458514 178.263988 253.448233 178.248052 253.42767 178.248052 253.391686 178.233659 253.458514 178.141127 253.368553 178.06813 253.273965 178.040884 253.179377 178.065559 253.089416 178.141127 252.942907 178.10617 252.767097 178.367316 252.469453 178.976997 252.40211 178.976997 252.40211 178.877268 252.596427 178.621778 252.65503 178.51331 252.770695 178.158091 252.838038 178.049109 252.716718 177.94681 252.716718 177.861989 252.779948 177.729361 252.773779 177.585936 252.710035 177.463075 252.598483 177.389049 252.484875 177.422978 252.317804 177.626033 252.224758 177.58131 252.144049 177.685665 251.923515 177.875355 251.653631 178.212068 251.580634 178.34264 251.549276 178.51331 251.502496 178.426433 251.491187 178.387878 251.481933 178.328247 251.598112 178.189963 251.663398 177.943212 251.669053 177.676926 251.609936 177.482609 251.464969 177.448681 251.197655 177.783851 251.113349 177.761233 251.050633 177.761233 250.945763 177.839885 250.187003 178.127761 250.125315 178.168886 250.03484 178.27941 249.954131 178.333901 249.843093 178.345211 249.631298 178.328247 249.66317 178.263988 249.680135 178.219779 249.704296 178.182252 249.755188 178.141127 249.629756 178.130331 249.318747 177.94681 249.034469 177.929846 248.950676 177.861989 248.894129 177.861989 248.845807 177.976112 248.649434 178.328247 248.390345 178.445968 248.299869 178.561632 248.336882 178.784737 248.647377 179.172856 248.778464 179.257163 248.308608 179.341469 248.271596 179.436057 248.308608 179.64374 248.39857 179.957319 248.26954 180.028774 248.005824 180.030831 247.78529 179.960918 247.788888 179.729074 247.468112 179.819036 247.352961 179.816466 247.25169 179.761975 247.044008 179.577939 246.944793 179.536814 246.526858 179.558919 246.358245 179.506998 246.241552 179.341469 246.243608 179.427832 246.237954 179.501344 246.218933 179.56663 246.179864 179.629346 246.069854 179.541955 245.998399 179.697716 245.972182 179.957319 245.994801 180.193275 245.923346 180.120278 245.895586 180.079153 245.867312 180.001015 245.811279 180.001015 245.860116 180.275526 245.892502 180.389648 245.933627 180.473955 245.867312 180.565973 245.933627 180.657476 245.867312 180.750522 245.751648 180.595274 245.48382 180.424091 245.375352 180.278096 245.375352 180.193275 245.414935 180.174769 245.503868 180.093547 245.324974 180.049337 245.193887 180.117708 244.939425 180.373198 244.986205 180.21024 244.972325 180.074012 244.913207 179.974284 244.822732 179.916194 244.822732 179.816466 244.88442 179.816466 244.88442 179.729074 244.778522 179.692062 244.767213 179.621121 244.800113 179.523448 244.822732 179.392362 244.767213 179.349694 244.447464 179.444796 244.257774 179.563545 244.147764 179.603643 244.023874 179.629346 244.058317 179.75375 244.053176 179.85502 244.016163 179.935215 243.956532 180.001015 243.900499 180.001015 243.862972 179.900772 243.819276 179.836 243.768898 179.836 243.715949 179.916194 243.554533 179.819036 243.350449 179.806698 243.14071 179.846795 242.967984 179.916194 242.816335 180.025176 242.661601 180.182994 242.61585 180.321792 242.78909 180.373198 242.78909 180.473955 242.66777 180.473955 242.4642 180.392219 242.353676 180.373198 242.259088 180.39993 241.984063 180.565973 241.774325 180.587049 241.841153 180.288892 241.676652 180.093547 241.442753 180.082751 241.1996 180.177339 240.949764 180.324362 240.694274 180.373198 240.694274 180.473955 240.749793 180.489377 240.872654 180.565973 240.664458 180.571113 240.367328 180.715566 240.16273 180.750522 239.460517 180.750522 239.460517 180.834315 239.540197 180.885721 239.558703 180.929417 239.542253 180.973112 239.515008 181.02966 239.761759 181.13093 239.591604 181.136071 239.179837 181.02966 239.063659 181.111396 239.127403 181.295431 239.335599 181.583822 239.223019 181.616208 238.924861 181.447595 238.749565 181.399273 238.470427 181.428574 238.301814 181.48615 238.15839 181.583822 238.224704 181.684579 238.127546 181.646024 238.0345 181.583822 237.873083 181.819264 237.651007 182.234115 237.559504 182.625318 237.788777 182.79753 237.788777 182.878238 237.619649 182.932729 237.513752 183.119335 237.468 183.372255 237.481366 183.62826 237.635071 183.99119 237.648951 184.162373 237.481366 184.182422 237.538427 184.461045 237.617079 184.599329 237.736856 184.645595 238.190262 184.650221 238.27097 184.604984 238.286392 184.507311 238.285364 184.409639 238.317236 184.366457 238.491504 184.393703 238.805084 184.523761 238.962388 184.559232 239.137684 184.534557 239.40654 184.398843 239.84658 184.289347 240.414622 183.931044 240.694274 183.811781 241.301899 183.712566 241.480279 183.644196 241.762501 183.480723 241.92289 183.435485 241.063373 183.945438 240.962616 184.02666 240.44855 184.650221 240.44855 184.735042 240.572954 184.72219 240.694274 184.68672 240.797601 184.632229 240.872654 184.559232 240.939997 184.650221 240.907097 184.677981 240.897329 184.683121 240.872654 184.735042 241.074168 184.697515 241.359474 184.499086 241.492617 184.559232 241.526031 184.499086 241.58155 184.430715 241.610338 184.366457 241.676652 184.366457 241.676652 184.4667 241.610338 184.4667 241.610338 184.559232 241.751706 184.515022 241.955276 184.366457 242.107439 184.366457 241.933685 184.556661 241.845266 184.62092 241.803112 184.677981 241.800542 184.735042 241.723432 184.764858 241.685391 184.797758 241.610338 184.917535 241.994345 184.893374 242.05192 184.875896 242.100242 185.012123 242.212308 185.058389 242.337226 185.025489 242.419991 184.917535 242.458032 185.076895 242.563415 185.128816 242.845123 185.109796 242.845123 185.210038 242.108981 185.366828 241.92289 185.294345 242.055004 185.291261 242.112066 185.2671 242.168613 185.210038 241.564586 185.254248 241.140482 185.375567 241.032015 185.386877 240.914294 185.365286 240.845923 185.315936 240.785777 185.25579 240.694274 185.210038 239.892332 185.2671 239.643524 185.149893 239.761759 184.650221 239.611652 184.580822 239.49753 184.68929 239.335599 185.109796 239.353077 185.158632 239.375696 185.254248 239.355648 185.345238 239.241525 185.386877 239.143339 185.366828 239.068285 185.338041 238.993232 185.3329 238.894531 185.386877 238.91972 185.52002 238.894531 185.663958 239.435328 185.685549 239.546366 185.71228 239.60754 185.850564 239.573611 185.905055 239.503698 185.9652 239.460517 186.12199 239.48108 186.223261 239.536599 186.337384 239.639412 186.491603 239.59366 186.581565 239.515008 186.865843 239.747365 186.787191 239.906726 186.5317 240.032672 186.225831 240.16273 185.986791 240.413594 185.8994 240.893731 186.206297 241.118892 186.12199 241.140482 186.208867 241.180579 186.290604 241.237641 186.35589 241.308068 186.398557 241.690018 186.485948 241.811337 186.608296 241.856061 186.909538 241.882793 187.001042 242.009767 187.167599 242.05192 187.316678 241.964015 187.696572 241.92289 187.794244 241.789747 187.851306 241.274653 187.693488 238.377896 188.342752 238.325975 188.323732 238.255548 188.242509 238.224704 188.24508 238.193346 188.291346 238.182037 188.342752 238.175354 188.388504 238.120863 188.489775 238.084364 188.574082 238.039127 188.655304 237.979495 188.701056 238.655491 188.89383 238.959817 188.875324 239.114551 188.904625 239.383407 189.167827 239.501128 189.103055 239.611652 188.969398 239.732972 188.89383 239.822933 188.942666 240.620248 189.57291 241.048979 190.129129 241.184692 190.373824 241.271055 190.739324 241.406768 191.081692 241.437098 191.320732 241.404712 191.409666 241.327602 191.4292 241.241753 191.4292 241.186748 191.461586 241.171326 191.540752 241.191375 191.727872 241.186748 191.828115 242.50584 191.890831 242.727916 191.828115 242.864657 191.746892 243.157674 191.461586 243.157674 191.363914 242.911951 191.363914 242.911951 191.279607 242.942795 191.238482 242.967984 191.187589 242.836384 191.092487 242.862601 190.930043 242.987005 190.894572 243.157674 191.187589 243.248664 191.098656 243.3304 191.039025 243.41882 191.006124 243.531914 190.997899 243.531914 190.913079 243.422932 190.810265 243.301099 190.628286 243.247636 190.424716 243.34171 190.267927 243.370497 190.484862 243.457889 190.693573 243.574067 190.850363 243.682535 190.913079 243.82853 190.930043 243.947279 190.976309 244.202255 191.187589 244.248007 191.070382 244.316892 191.041595 244.406339 191.039025 244.514807 190.997899 244.484477 191.114592 244.431014 191.176794 244.359559 191.195814 244.268569 191.187589 244.453119 191.238482 244.654118 191.014863 244.719405 190.81335 244.638182 190.542437 244.875681 190.587675 245.116263 190.747549 245.285391 190.943408 245.314692 191.087347 245.42573 191.160344 245.481764 191.185019 245.560416 191.187589 245.522375 191.342323 245.555275 191.424573 245.618505 191.475466 245.682249 191.545893 245.854461 191.86667 245.867312 191.909337 246.030271 191.926301 246.232299 191.885176 246.423017 191.879521 246.554104 192.010608 247.023445 191.746892 247.102097 191.782363 247.177151 191.963314 247.349877 192.027058 247.690702 192.010608 247.732855 192.034769 247.835668 192.149405 247.905581 192.192073 247.981149 192.202868 248.213506 192.192073 248.531713 192.270725 248.67925 192.273295 248.778464 192.192073 248.812392 192.291802 248.851461 192.348863 248.950676 192.466584 249.079706 192.737496 249.347534 193.085004 249.386089 193.158516 249.514606 193.196556 250.252289 193.011493 250.252289 192.927186 250.209622 192.860358 250.153589 192.805353 250.08419 192.764228 250.272852 192.718476 250.546335 192.555517 250.794114 192.322131 250.989459 192.093372 250.989459 192.192073 250.873794 192.284091 250.792572 192.441909 250.677421 192.737496 250.621388 192.75446 250.467683 192.731841 250.435811 192.783762 250.435811 192.90868 250.426557 192.976537 250.389545 193.003782 250.307808 193.011493 250.307808 193.112764 250.686674 193.149777 250.846549 193.206324 250.989459 193.293715 250.989459 193.375451 250.630641 193.245393 250.469739 193.229457 250.307808 193.293715 250.548905 193.302454 250.944735 193.408351 251.174008 193.476208 251.448005 193.784647 251.51432 193.839652 251.598112 193.783105 251.625872 193.660757 251.669053 193.535325 251.793971 193.476208 251.700411 193.33484 251.665969 193.293715 251.793971 193.258758 251.864398 193.172395 251.927114 193.122531 252.034554 193.202725 252.047405 193.152861 252.046891 193.13127 252.056144 193.119961 252.101896 193.112764 252.061799 192.927186 252.005766 192.78736 251.919917 192.689174 251.793971 192.640338 251.936367 192.610008 252.057172 192.672724 252.153817 192.697399 252.224758 192.555517 252.280791 192.555517 252.275136 192.648563 252.280791 192.927186 252.321916 192.900455 252.428328 192.860358 252.469453 192.830028 252.469453 192.962657 252.478706 193.058273 252.497726 193.13127 252.531655 193.202725 251.856173 193.516305 251.747705 193.891573 251.726628 194.061728 251.762613 194.144493 251.848462 194.195385 251.949733 194.238567 252.034554 194.293058 252.162556 194.443165 252.26177 194.615891 252.325515 194.846706 252.348133 195.156173 252.327571 195.335068 252.244292 195.560743 252.224758 195.704681 252.239666 195.827028 252.348133 196.209493 252.40211 196.209493 252.461228 196.149861 252.649376 196.201268 252.771723 196.209493 252.572266 195.976107 252.422673 195.667154 252.372294 195.286232 252.469453 194.837967 252.426271 194.813806 252.387202 194.768054 252.348133 194.749034 252.422673 194.60818 252.52343 194.599441 252.628299 194.667811 252.716718 194.749034 252.657601 194.804039 252.598483 194.837967 252.724943 194.915077 252.867853 194.903767 253.152646 194.749034 253.210735 194.811235 253.262656 194.83077 253.391686 194.837967 253.337709 194.662157 253.367525 194.515648 253.42767 194.494057 253.458514 194.699683 253.50221 194.873951 253.58446 194.909422 253.634839 194.825115 253.582918 194.648277 253.703209 194.759829 253.799854 194.895542 253.880048 194.982933 253.95613 194.930499 254.048661 195.064156 254.073851 195.110421 254.097498 195.057987 254.111891 195.02046 254.13451 194.930499 254.04095 194.836425 253.940194 194.703282 253.860513 194.556259 253.827613 194.421574 253.827613 194.103368 253.81579 194.010836 253.772608 193.845307 253.760271 193.738895 253.827613 193.738895 253.85126 193.904938 253.910892 194.03037 254.00548 194.100797 254.13451 194.103368 254.057914 194.166084 254.030155 194.268383 254.039408 194.40461 254.073851 194.567054 254.13451 194.567054 254.173065 194.509993 254.201853 194.488402 254.320088 194.467326 254.320088 194.567054 254.256858 194.567054 254.256858 194.648277 254.55553 194.575794 254.732368 194.494057 254.81102 194.334183 254.903552 194.241651 255.367753 194.192815 255.55333 194.103368 255.431497 194.021631 255.709092 194.070467 255.816532 194.141922 255.922429 194.293058 255.743535 194.230856 255.55333 194.203096 256.003652 194.491487 256.050431 194.567054 256.155301 194.559343 256.195912 194.532098 256.235495 194.467326 256.107493 194.377364 256.218531 194.344464 256.273022 194.279692 256.259656 194.195385 256.173807 194.103368 256.173807 194.021631 256.375835 194.284319 256.33471 194.532098 255.983089 195.02046 256.050431 195.110421 255.859713 195.23791 255.614504 195.261557 255.387287 195.186503 255.245919 195.02046 255.195541 195.216319 255.186288 195.30371 255.103523 195.22146 255.041835 195.198841 254.989915 195.229171 254.94005 195.30371 254.877335 195.30371 254.744706 195.033826 254.499497 195.033826 254.349904 195.142294 254.503095 195.202439 254.509778 195.267725 254.495898 195.286232 254.523658 195.300626 254.625957 195.316562 254.712834 195.360257 254.749332 195.430684 254.783775 195.444564 254.922058 195.704681 254.94005 195.756087 255.06137 195.87021 255.178577 195.929842 255.313262 195.943721 255.48753 195.926757 255.955843 195.764827 256.107493 195.756087 256.405651 195.861471 256.52954 195.791558 256.542392 195.473866 256.63955 195.544807 256.74442 195.568968 256.972665 195.565883 256.95313 195.475922 256.916631 195.425029 256.862141 195.397784 256.787601 195.384932 256.941821 195.346377 257.07445 195.360257 257.202452 195.340723 257.341249 195.202439 257.272879 195.381848 257.138194 195.530413 256.980376 195.63117 256.843634 195.655845 256.937194 195.739637 256.992199 195.731926 257.044634 195.686175 257.125856 195.655845 257.464625 195.655845 257.757642 195.557658 257.875363 195.541208 258.017759 195.565883 258.705065 195.837824 258.87008 195.83988 259.111176 195.796699 259.257171 195.837824 259.070051 195.824458 258.741563 195.915962 258.179176 195.946292 258.079447 196.035739 258.207449 196.209493 258.13291 196.461899 258.246518 196.532326 258.435694 196.553403 258.581689 196.652103 258.499438 196.842307 258.646975 196.899369 258.869051 196.904509 259.006307 196.931755 258.978033 197.021202 258.668052 197.194442 258.581689 197.295713 258.514346 197.213977 258.553415 197.189815 258.563697 197.187759 258.581689 197.11322 258.431068 197.08289 258.33648 197.045363 258.240864 197.040222 257.526313 197.466897 257.898496 197.711078 258.001823 197.914133 258.017759 198.299682 258.084074 198.299682 258.13291 198.169624 258.128797 198.114619 258.084074 198.021059 258.111833 197.990729 258.141135 197.971195 258.207449 197.936238 258.344191 198.123358 258.5236 198.299682 258.607906 198.478577 258.452659 198.657472 258.248575 198.696027 257.861483 198.508907 257.653801 198.478577 257.653801 198.568539 258.497382 199.011149 258.76007 199.021944 258.770351 198.984417 258.783717 198.902681 258.817131 198.813234 258.889614 198.750004 258.955928 198.734068 259.040235 198.731497 259.190856 198.750004 259.334795 198.834824 259.553272 199.089801 259.686929 199.209064 259.849888 199.27692 260.027755 199.279491 260.19791 199.211634 260.408677 198.999839 260.677019 198.921701 260.770579 198.837395 260.817359 198.753088 260.854371 198.666211 260.916573 198.568539 261.198795 198.397355 262.442319 198.310478 262.783658 198.410721 262.90909 198.538209 262.989285 198.568539 263.200565 198.590643 263.38203 198.650275 263.692526 198.839451 264.010218 199.103166 264.282159 199.426513 264.438435 199.554002 264.808562 199.629569 264.988998 199.751917 264.503721 199.736495 264.297067 199.640365 264.098637 199.426513 264.007134 199.366882 263.631866 199.290286 263.262253 199.021944 263.262253 198.921701 263.447317 198.921701 263.367123 198.837395 263.279217 198.779819 263.183087 198.750004 263.079246 198.750004 263.138878 198.839451 263.002136 198.84562 262.541534 198.720702 262.473677 198.657472 262.402736 198.568539 262.335394 198.581904 262.274734 198.61172 262.213046 198.657472 261.384373 198.747433 261.167951 198.839451 261.088785 198.951517 261.030696 199.111906 260.995739 199.279491 260.983916 199.426513 261.010133 199.626999 261.105235 199.833653 261.101637 200.013576 261.074391 200.207893 261.047146 200.316875 260.978261 200.362626 260.684216 200.402723 260.579861 200.479833 260.482188 200.571337 260.364467 200.652559 260.682674 200.829912 261.720571 201.010863 262.263424 201.315189 262.402736 201.453473 262.49938 201.605636 262.599109 201.84005 262.616073 202.06264 262.458769 202.181389 262.35133 202.415289 262.198652 202.890285 262.089156 203.087686 261.745247 203.30308 261.61416 203.441363 261.665052 203.625399 261.434751 203.794012 261.374091 203.929211 261.352501 204.211433 261.362782 204.437622 261.398253 204.687457 261.464567 204.893084 261.56738 204.97739 261.80128 205.059127 262.079903 205.259612 262.581631 205.783959 262.847917 206.328868 262.924512 206.408548 263.073591 206.424484 263.22524 206.475377 263.34399 206.570993 263.434465 206.905135 263.542933 207.032623 263.681216 207.1524 263.816416 207.309704 263.872449 207.460326 263.913574 207.637164 263.984515 207.784701 264.128453 207.844332 264.089384 208.072063 264.290898 209.027711 264.37469 209.147488 264.459511 209.192726 264.497038 209.136178 264.4847 209.022056 264.433294 208.808205 264.429695 208.64833 264.516058 208.78867 264.616815 209.073976 264.682616 209.17936 264.796738 209.249787 265.050172 209.320214 265.351929 209.587014 265.832065 209.67132 265.978574 209.812174 265.90095 209.972563 266.145131 210.051215 266.746074 210.077946 266.992825 210.127296 267.201535 210.27072 267.343417 210.509761 267.39688 210.836192 267.494039 211.11533 267.722284 211.125097 268.201392 210.974476 268.32117 211.022798 268.525253 211.201693 268.801821 211.367222 268.891782 211.384186 269.037777 211.424283 269.200221 211.671548 269.372433 211.881287 269.614558 211.947601 269.603762 211.537891 269.937391 211.336892 270.339904 211.365165 270.536277 211.644303 270.560438 211.826282 270.601563 211.93732 270.609274 212.041161 270.536277 212.20669 269.916828 212.592239 269.817614 212.762909 269.86645 213.012745 269.782143 213.069292 269.693724 213.178788 269.63512 213.305248 269.645916 213.41423 269.731765 213.503677 269.80836 213.520127 269.890097 213.514986 269.983657 213.542232 270.118856 213.534007 270.167692 213.542232 270.179001 213.580273 270.167692 213.642475 270.164094 213.701592 270.20162 213.726781 270.270505 213.745802 270.481272 213.906704 270.373318 214.012087 270.373318 214.066064 270.427295 214.109246 270.481272 214.168363 270.511088 214.190468 270.626238 214.228509 270.659652 214.249586 270.67199 214.299964 270.668906 214.421283 270.733678 214.595037 270.743959 214.724582 270.774803 214.830993 270.945987 214.89628 271.005618 214.942546 271.056511 215.004748 271.09558 215.062323 271.09558 215.140461 270.996365 215.360481 270.876074 215.465864 270.726995 215.455583 270.536277 215.32501 270.664279 215.751684 270.762466 215.922354 270.910516 216.023111 270.865793 216.061152 270.774803 216.15574 270.726995 216.199435 270.781486 216.266778 270.8478 216.381414 270.899207 216.514043 270.910516 216.6477 270.87299 216.796265 270.8149 216.826081 270.743959 216.810145 270.659652 216.822996 270.519313 216.907303 270.419584 216.999835 270.376403 217.056896 270.330651 217.133492 270.266907 217.208545 270.167692 217.263036 270.244802 217.396693 270.304433 217.584327 270.343502 217.777102 270.357382 217.926695 270.405704 218.041845 270.637034 218.31944 271.4472 218.973845 271.6482 219.203633 271.017956 218.908559 270.910516 218.808316 270.808217 218.739946 270.235035 218.062408 270.059224 218.054183 269.461366 218.237704 269.462394 218.403747 269.308175 219.299249 269.470105 219.364535 269.785742 219.294108 269.952299 219.423653 270.062823 219.568105 270.190311 219.697649 270.337848 219.791209 270.508003 219.823081 270.778402 219.934633 271.261623 220.417855 271.559781 220.526837 271.615814 220.581328 271.651284 220.822424 271.6811 220.876401 272.95701 221.804289 273.373917 222.281856 273.575431 222.603146 273.755868 222.961964 274.055054 223.768018 274.173289 224.262035 274.516684 226.699732 274.629779 227.103274 274.793251 227.434846 275.114028 227.681597 275.504718 227.810113 275.864563 227.989008 276.088696 228.388437 275.887182 228.219823 275.678986 228.113412 275.447142 228.061491 275.167491 228.048126 275.3798 228.178698 275.580799 228.384838 275.68207 228.659863 275.596735 229.002231 275.653283 229.158507 275.685669 229.517324 275.720111 229.693649 275.600334 229.598547 275.524766 229.394463 275.486725 229.131775 275.475416 228.868574 275.501633 228.665004 275.487239 228.548311 275.413728 228.388437 275.334562 228.298475 275.045143 228.127806 274.70072 227.790065 274.393823 227.391664 274.09001 226.652438 274.053511 226.509014 273.884898 225.328206 273.765121 224.85321 273.743016 224.598234 273.638147 224.211657 273.385227 223.838445 272.296436 222.625251 272.156096 222.581556 271.777744 222.366676 271.173204 221.897335 271.09558 221.797092 271.000478 221.644415 270.972204 221.577072 270.973232 221.506131 270.992767 221.438788 271.016928 221.397663 271.022583 221.251155 271.028237 221.156567 271.005618 221.099505 270.910516 221.051183 270.766578 221.107216 270.637034 221.305132 270.329623 221.929721 270.273075 222.117355 270.111659 224.813113 269.737419 226.826193 269.189426 233.0726 269.249057 232.931746 269.328737 232.628447 269.430522 232.071201 269.835606 231.451752 269.894723 231.332489 269.9158 231.311412 269.928138 231.262062 269.945102 231.208085 269.983657 231.16696 270.045344 231.161819 270.088012 231.191121 270.125025 231.23019 270.167692 231.254351 270.266907 231.29856 270.944959 231.934973 271.033892 232.117466 270.910516 232.117466 271.133107 232.350338 271.13105 232.544141 270.949585 232.673685 270.631379 232.719951 270.079787 232.584752 269.853598 232.592463 269.675732 232.815567 269.514829 233.39389 269.49221 233.54554 269.45674 233.626762 269.218213 233.972214 269.209474 234.077597 269.286584 234.435901 269.308175 234.62045 269.245459 235.398745 268.999222 237.160961 268.418328 240.698244 268.102178 242.313437 267.889355 243.024389 267.520256 245.059574 267.30332 245.766413 267.241632 246.154019 267.097694 246.615649 267.028295 246.759588 266.553299 247.128686 266.475675 247.226359 266.435578 247.364642 266.240747 247.747621 266.162095 247.856089 265.993482 247.978436 265.793511 248.086904 265.583258 248.162986 264.786971 248.293558 264.620414 248.360901 264.553071 248.454461 264.411189 248.35062 264.359783 248.695043 264.3531 248.953104 264.355156 249.104753 264.613217 249.230185 264.725283 249.380806 264.755099 249.623959 264.802393 249.721118 264.898523 249.705182 265.00442 249.653261 265.197709 249.6291 265.380202 249.54942 265.462453 249.560729 265.633636 249.641952 265.72257 249.705182 265.720513 249.765327 265.696352 249.83781 265.71126 249.946278 265.777061 250.158073 265.820756 250.212564 265.930252 250.263456 266.02741 250.277336 266.141533 250.263456 266.238691 250.207423 266.29164 250.098956 266.362581 249.890245 266.497266 249.808509 266.674618 249.813649 266.955298 249.897956 267.330566 250.092787 267.430294 250.076851 267.530023 250.04138 267.638491 250.04138 267.896552 250.31075 267.93048 250.758501 267.833322 251.249434 267.69658 251.638067 267.581944 251.792801 267.211817 252.191201 267.137277 252.294528 267.249858 252.561842 267.413844 252.745364 267.611759 252.863085 267.833322 252.919118 268.080073 252.940194 268.233264 252.889302 268.30986 252.724287 268.330423 252.402996 268.394167 252.156245 268.548386 251.982491 268.750414 251.903325 268.95347 251.957302 268.764294 252.120774 268.691811 252.281677 268.732936 252.447206 268.884585 252.623016 269.054741 252.724287 269.575489 252.817847 269.884956 252.989545 270.179001 253.228585 270.516742 253.199283 270.594366 253.228585 270.743959 253.323687 270.811302 253.380234 271.121797 253.419303 271.271904 253.461457 271.381914 253.588945 271.694466 253.825929 272.038376 253.937481 272.756011 253.997627 273.449999 253.871167 273.690581 253.956501 273.859709 254.389858 273.855082 254.47725 273.825266 254.533797 273.815499 254.599083 273.865364 254.710635 273.957381 254.800597 274.0458 254.810878 274.133706 254.797512 274.224695 254.813962 274.533134 255.003652 274.693009 255.139366 275.043087 255.607165 275.055939 255.661142 275.03846 255.712548 275.036404 255.757786 275.095522 255.785546 275.242544 255.785546 275.281613 255.799939 275.334048 255.871909 275.32171 255.951589 275.320168 256.023558 275.407045 256.081133 275.476958 256.070852 275.628607 255.967525 275.707259 255.940279 275.723195 255.650346 275.952469 255.654973 276.438774 255.884246 276.712771 255.861113 276.930735 255.731569 277.363064 255.389201 277.441716 255.470424 277.511628 255.443178 277.574344 255.349104 277.623181 255.229327 277.761464 255.358871 278.304831 255.688387 278.412785 255.91509 278.653882 255.94542 278.913999 255.871909 279.075929 255.803538 279.055881 256.016875 279.108315 256.227642 279.216783 256.407051 279.364834 256.528884 279.420867 256.596741 279.432176 256.684132 279.456337 256.762784 279.551954 256.805965 279.666076 256.838865 279.728278 256.893356 279.770945 256.955558 279.822866 257.009535 280.178599 257.151417 280.489095 257.121087 281.184111 256.866111 281.736217 256.781804 281.905344 256.667168 282.051339 256.646091 282.529934 256.770495 282.674386 256.84195 282.867161 257.184317 283.006986 257.351903 283.140129 257.329798 283.393563 256.974579 283.55241 256.814704 283.716396 256.754559 283.965204 256.965325 283.984738 257.006451 283.982168 257.058885 283.987309 257.107207 284.032546 257.151417 284.211955 257.185345 284.387766 257.175064 284.730133 257.086131 284.879726 257.148333 286.002445 257.115947 286.320651 257.1581 286.438886 257.115947 286.517024 256.985374 286.526277 256.786945 286.464589 256.602909 286.357664 256.466682 286.229661 256.421444 286.285181 256.298583 286.318595 256.246662 286.385937 256.195256 286.286209 256.056972 286.412155 255.715633 286.39262 255.454488 286.435802 255.277649 286.641942 255.196427 286.889207 255.177406 287.048567 255.193342 287.359063 255.31569 287.515853 255.35116 287.690121 255.33471 287.844855 255.361956 288.233488 255.589687 288.500288 255.695584 288.578426 255.75573 288.722364 255.89607 288.81798 255.937195 288.904343 255.894013 288.98865 255.824101 289.081182 255.793771 289.157263 255.824101 289.306342 255.94542 289.374713 255.986545 290.142212 256.037952 290.329846 256.098097 290.48972 256.24255 290.577626 256.415276 290.645996 256.605994 290.7375 256.773579 290.891719 256.887187 290.991448 256.897983 291.292176 256.799796 292.400501 256.805965 292.612296 256.863026 292.573227 257.03678 292.617951 257.086131 292.7038 257.091785 292.778853 257.131883 292.937699 257.417189 293.110425 257.656229 293.262074 258.07365 293.392133 258.244834 293.59159 258.163098 293.730902 257.683475 294.014666 257.696326 294.278896 257.596084 294.416665 257.584774 294.905541 257.921487 295.002699 257.967239 296.026203 258.069024 295.94858 258.315775 296.093546 258.407279 296.30277 258.472565 296.414323 258.632953 296.189162 258.65403 296.024147 258.81596 295.924418 259.067852 295.892032 259.372179 295.91825 259.388115 295.936756 259.414332 295.942925 259.444662 295.938298 259.483731 296.104341 259.551074 296.662616 259.626127 296.851278 259.705293 297.35609 260.052801 297.567885 260.101124 297.736499 260.109863 297.876324 260.172579 297.998672 260.37512 298.117421 260.832124 298.202242 261.01873 298.379594 261.171407 298.490118 261.244405 298.611952 261.263939 298.845851 261.235666 298.99493 261.198653 299.098257 261.130282 299.249907 260.970408 299.464786 260.804879 299.507967 260.733424 299.57531 260.555043 299.618491 260.492841 299.76243 260.425499 300.187048 260.476391 300.742752 260.302637 301.024974 260.272821 301.276866 260.414189 301.384306 260.503637 301.908138 260.750902 302.188304 260.813104 302.331728 260.817731 302.398042 261.013589 302.538896 261.20328 302.71265 261.342077 302.879208 261.386287 303.062729 261.488586 303.162457 261.522 303.255503 261.518916 303.317191 261.46134 303.391217 261.263939 303.462672 261.200709 303.635398 261.195569 304.049734 261.336937 304.248677 261.373949 304.488746 261.362126 304.485661 261.307121 304.374109 261.182203 304.291859 260.951388 304.363314 260.844976 304.742694 260.546818 304.902054 260.462511 305.087118 260.44966 305.438224 260.503637 305.626372 260.473307 305.771853 260.384374 306.041737 260.118088 306.187218 260.033781 306.332184 260.016817 306.486918 260.022986 306.636511 259.998825 306.93364 259.767495 307.222545 259.879047 307.376251 259.778805 307.472381 259.797825 307.735582 259.80605 307.795728 259.821986 307.854331 259.957699 307.924244 260.071822 308.011635 260.164354 308.119075 260.231696 308.304138 260.291842 308.534954 260.316003 308.77091 260.304693 309.382133 260.19931 309.395499 260.125285 309.392415 259.825071 309.100425 259.420501 308.47378 258.785631 308.381248 258.542992 308.276893 257.620245 308.279977 257.47425 308.255816 257.406393 308.205438 257.374007 308.084118 257.381204 308.044021 257.363212 307.982848 257.269652 307.943779 257.178148 307.954574 257.072765 308.044021 256.947333 308.159172 257.118003 308.212635 257.164269 308.242965 257.076878 308.34732 256.458457 308.358115 256.238437 308.345264 256.02253 308.305166 255.809707 308.250676 255.709464 308.150433 255.664226 307.896485 255.581976 307.754603 255.56604 307.675437 255.522858 307.616319 255.445234 307.55823 255.275593 307.490887 255.193342 307.846106 254.818589 307.95149 254.761528 307.986446 254.696241 307.976679 254.417104 308.013691 254.351818 308.093372 254.370838 308.22086 254.436124 308.283062 254.428413 308.425458 254.289616 308.385361 254.172409 308.136553 253.967297 308.034768 253.787888 308.011635 253.595113 308.087203 253.453231 308.283062 253.424444 308.163284 253.642922 308.132441 253.752417 308.172538 253.85009 308.274837 253.888131 308.328299 253.789944 308.370453 253.657315 308.440366 253.592029 308.475836 253.521602 308.504624 253.364812 308.529813 253.046606 308.567854 252.919118 308.74058 252.728399 308.781705 252.579835 308.713848 252.465198 308.563227 252.37318 308.413634 252.204567 308.345264 251.865798 308.388445 251.776351 308.496913 251.740366 308.747777 251.740366 308.785818 251.781491 308.702539 251.870939 308.529813 251.998427 308.529813 252.077593 308.653189 252.146992 308.708708 252.227186 308.751889 252.272424 308.837224 252.251347 309.089116 251.865798 309.138466 251.719289 309.251561 251.591801 309.462841 251.404167 309.52967 251.287474 309.616033 251.053575 309.676693 250.943051 309.825257 250.755417 311.066211 249.808509 311.389558 249.646064 311.606494 249.604939 311.965825 249.783834 312.154487 249.699013 312.895255 248.790659 313.189815 248.543394 314.20458 247.992316 315.998667 246.512322 315.998667 246.420304 315.693827 246.523632 315.420344 246.751363 314.947918 247.273653 314.486801 247.677194 314.192756 247.835012 313.887401 247.856089 313.887401 247.777437 314.646676 247.460259 314.764911 247.310666 314.789072 247.120975 314.855386 247.003254 315.439878 246.512322 315.684573 246.365814 316.24182 246.194116 316.647418 245.902127 316.914732 245.809595 317.417487 245.736084 317.332153 245.923203 317.222657 246.042467 317.073064 246.115978 316.864353 246.167898 316.440763 246.205425 316.240792 246.268655 316.122557 246.420304 316.42637 246.278422 316.971793 246.220333 317.493055 246.27431 317.72387 246.466056 317.738778 246.510266 317.916645 247.164157 317.965995 247.273653 318.032824 247.348706 318.224056 247.446379 318.442534 247.493159 321.227739 247.584662 321.621513 247.665885 321.860554 247.856089 321.873405 248.073538 321.806063 248.328001 321.723812 248.540824 321.703764 248.629757 321.946917 248.75159 322.313445 248.854918 323.635621 248.915063 323.952799 248.790659 323.735864 248.553675 323.462895 248.357816 323.217686 248.103868 323.092254 247.687989 323.092254 246.800713 323.054213 246.67014 322.787413 246.244494 322.787413 246.167898 322.941633 246.26043 323.068093 246.442409 323.161653 246.65626 323.217686 246.843894 323.238763 247.054661 323.217686 247.777437 323.356484 248.103868 323.659782 248.391231 324.034022 248.603026 324.384614 248.706353 324.317272 248.505353 324.22988 248.429272 324.186699 248.363985 324.263295 248.193316 324.347601 248.11672 324.567107 248.067884 324.665808 247.989232 324.889426 247.885905 325.383443 248.171211 325.557197 248.107981 325.783386 248.171211 325.997237 248.019562 326.095423 247.74248 325.99004 247.433013 325.858439 247.324545 325.748943 247.2644 325.666693 247.162101 325.617343 246.928201 325.634821 246.835669 325.678002 246.665 325.73712 246.501527 325.797266 246.420304 325.851242 246.455261 325.980787 246.632099 326.019342 246.673225 326.231137 246.665 326.302078 246.673225 326.485085 246.737483 326.532379 246.800713 326.538034 246.906096 326.60332 247.095786 326.796094 247.321461 327.026396 247.362072 327.278288 247.270568 327.538405 247.095786 327.572333 247.388803 327.455126 247.665885 327.271091 247.89413 327.099393 248.032413 326.852642 248.107981 326.049157 248.107981 325.768992 248.266313 325.647673 248.516663 325.693938 248.7958 325.931951 249.04358 326.154541 249.104753 326.722069 249.094986 326.852642 249.04358 327.247958 249.101669 328.448814 248.827672 328.700706 249.001426 328.700706 249.639895 328.740289 249.712378 328.801463 249.780749 328.861609 249.819818 328.888854 249.808509 328.879601 249.90104 328.858524 249.979178 328.783471 250.182234 328.717156 250.307666 328.689911 250.43207 328.758281 250.557502 328.872404 250.600683 329.132521 250.584747 329.254354 250.650034 329.392638 250.598113 329.624481 250.581663 329.841417 250.611993 329.937033 250.687046 329.985869 250.744622 330.096393 250.717376 330.213086 250.65209 330.36782 250.532827 330.445958 250.572924 330.667006 250.873138 330.735891 250.937396 330.85978 250.985204 330.905018 251.026843 330.954882 251.056659 331.012972 251.069511 331.068491 251.042779 331.09368 250.985204 331.111672 250.926087 331.141488 250.899869 331.605689 250.920946 331.780471 251.01245 331.72598 251.231441 332.062179 251.418047 332.234905 251.475622 332.435904 251.496699 332.517127 251.53474 332.539232 251.703353 332.621482 251.740366 332.784441 251.752704 332.843558 251.778407 332.897535 251.824673 332.606574 251.972209 332.539232 252.082733 332.591666 252.251347 332.678029 252.313549 333.115499 252.504781 333.324723 252.516605 333.412628 252.457487 333.451183 252.288874 333.511329 252.194286 333.657838 252.19737 333.942116 252.251347 333.942116 252.16704 333.794579 252.101754 333.599748 251.884818 333.451183 251.824673 333.711814 251.692044 333.856781 251.650919 334.005346 251.656059 333.981185 251.716205 333.965249 251.835982 333.942116 251.908979 334.160079 251.819018 334.437161 251.814905 334.699848 251.879164 334.868461 251.998427 334.929121 252.038524 335.579414 252.077593 335.661664 252.132084 335.661664 252.256488 335.607687 252.459543 335.560393 252.498612 335.242187 252.504781 335.242187 252.579835 335.4108 252.614791 336.012257 252.619932 336.165962 252.579835 336.165962 252.504781 336.090394 252.504781 336.030249 252.481648 335.916126 252.418932 336.003003 252.163956 336.027164 251.953189 336.090394 251.781491 336.28831 251.656059 336.388552 251.638067 336.999262 251.656059 337.072773 251.670967 337.209001 251.727514 337.308729 251.740366 337.403831 251.792801 337.447013 251.908979 337.466033 252.023616 337.496363 252.077593 337.822794 252.088902 337.902989 252.017447 337.77036 251.824673 337.817654 251.732655 337.813541 251.656059 337.818682 251.559929 337.891679 251.404167 337.975986 251.341965 338.26232 251.319861 338.441215 251.222188 338.627821 251.151247 338.737317 251.146107 338.957336 251.171296 339.059635 251.151247 339.194835 251.045864 339.336717 250.899869 339.508414 250.79243 339.741286 250.818647 339.835874 250.894215 339.873915 250.996514 339.894992 251.092644 339.930976 251.151247 340.026592 251.17438 340.200346 251.093672 340.297505 251.069511 340.237359 250.899869 340.61057 250.600683 340.667118 250.521517 340.648097 250.486561 340.601831 250.440295 340.560706 250.383234 340.544256 250.312807 340.56379 250.196114 340.593606 250.149848 340.629077 250.12106 340.667118 250.060915 340.74834 249.853746 340.729319 249.783834 339.863634 249.827015 339.809657 249.808509 339.828677 249.705182 339.965933 249.591059 340.204973 249.462543 340.403916 249.431185 340.487195 249.338653 340.529348 249.206024 340.608 249.04358 340.753481 248.918148 340.891764 248.865713 340.995091 248.790659 341.063462 248.424131 341.128748 248.198456 341.226421 247.984605 341.342599 247.856089 341.519438 247.994372 341.747169 248.054518 342.209313 248.032413 342.21137 247.984605 342.254551 247.892073 342.308528 247.835012 342.333717 247.902869 342.355822 247.938339 342.409799 247.95736 342.471487 247.959416 342.522379 247.948106 342.567617 247.892073 342.585609 247.72346 342.612855 247.687989 342.678141 247.687989 342.714126 247.680278 342.735202 247.656117 343.060606 247.087561 343.076542 247.054661 343.08271 247.047464 343.093506 246.846979 343.076542 246.843894 343.194262 246.649064 343.332546 246.536483 343.476484 246.453205 343.622993 246.335998 343.829647 246.422875 344.049667 246.352962 344.279454 246.2301 344.518495 246.167898 344.54574 246.209024 344.562704 246.295387 344.597661 246.360673 344.678883 246.335998 344.722064 246.287676 344.731318 246.235241 344.725149 246.169955 344.736458 246.075881 344.733374 245.489332 344.765246 245.396801 344.833617 245.345908 344.901987 245.228187 344.993491 245.112008 345.141028 245.059574 345.270572 245.049806 345.371843 245.013308 345.45615 244.960359 345.539428 244.889932 345.713182 244.630843 345.818566 244.538312 345.941427 244.590746 346.027276 244.606682 346.46526 244.549621 346.426191 244.666828 346.405114 244.712066 346.578868 244.687905 346.617937 244.571726 346.627704 244.420077 346.711497 244.297729 346.862118 244.259174 346.885765 244.096729 347.018394 243.948165 347.192148 243.87671 347.396232 243.996487 347.458434 243.903955 347.545825 243.866942 347.637843 243.878766 347.700045 243.897786 347.751451 243.900871 347.825991 243.866942 347.830617 243.822733 347.816737 243.664915 347.825991 243.618649 347.860947 243.602713 347.89796 243.607853 347.937029 243.607853 348.056806 243.524575 347.876883 242.924147 347.830617 242.609539 347.971471 242.350964 348.362675 241.923261 348.544654 241.631786 349.008341 241.239041 349.20934 241.01645 349.279767 240.871998 349.353793 240.592861 349.411368 240.440183 349.510582 240.328631 349.641155 240.228388 349.742426 240.095759 349.757334 239.878824 349.615966 239.574497 349.418051 239.376582 349.306499 239.142682 349.432445 238.735029 349.152279 238.687221 348.782666 238.927803 348.522549 238.946824 346.959277 239.400743 346.594804 239.38892 346.508441 239.370927 346.425163 239.289191 346.375812 239.183808 346.315667 239.093846 346.196404 239.04758 345.962504 239.006455 345.791834 238.937056 344.836701 238.347423 344.475313 238.214281 343.945312 237.932059 343.831703 237.899673 343.710384 237.910982 343.603972 237.94491 343.495505 237.964959 343.375728 237.913038 343.292449 237.81845 343.251324 237.709982 343.221508 237.589691 343.163933 237.468372 343.079626 237.369671 342.903816 237.242183 342.822593 237.158905 342.771701 237.06226 342.664775 236.808312 342.594862 236.685964 342.395919 236.452065 342.357878 236.396032 342.325492 236.279339 342.328577 236.217137 342.349653 236.140541 342.426249 235.749338 342.488451 235.64087 342.789693 235.476369 342.555793 235.277426 342.281283 234.989035 342.080797 234.6369 342.050467 234.245183 342.149168 234.077597 342.607714 233.72392 342.914097 233.189807 343.042613 233.094704 342.938258 232.825334 343.003544 232.571386 343.170101 232.367816 343.375728 232.25318 343.541771 232.250095 343.867688 232.348796 344.027562 232.345711 343.975128 232.179668 343.701131 231.663547 343.667203 231.555593 343.617852 231.244069 343.51761 230.969045 343.522236 230.953109 343.56953 230.755193 343.584952 230.74594 343.581868 230.684766 343.593691 230.651866 343.595747 230.610741 343.574671 230.53723 343.538686 230.475028 343.375728 230.296133 342.92592 230.111584 342.768616 230.097704 342.325492 230.187665 342.154822 230.143456 341.535374 229.783096 341.239272 229.527091 341.082482 229.262348 341.098932 228.553452 341.041357 228.190008 340.804373 228.015226 340.490279 227.989008 340.394663 227.907786 340.286709 227.720152 340.262548 227.603459 340.273344 227.503217 340.259464 227.412741 340.112955 227.285253 339.955137 227.044156 340.062577 226.899704 340.225021 226.763991 340.536545 226.58561 340.617767 226.571216 340.780212 226.577385 340.851667 226.564533 340.927235 226.520324 341.090707 226.395406 341.15805 226.359421 341.473172 226.411856 341.804744 226.590237 342.128091 226.704873 342.42008 226.564533 342.440129 226.484853 342.385124 226.427792 342.344513 226.357365 342.38975 226.250953 342.461205 226.219081 342.673 226.215997 342.754223 226.196977 342.886851 226.077199 343.042613 225.803203 343.158792 225.69165 343.481111 225.545142 343.798803 225.457751 343.869744 225.488081 343.981296 225.62328 344.030647 225.643842 344.089764 225.581126 344.261462 225.268061 344.505643 225.062435 344.505643 224.861435 344.410027 224.606459 344.363761 224.237874 344.410027 224.160764 344.700988 223.813256 344.888108 223.480142 344.966245 223.287367 344.977555 223.127493 344.9061 223.073516 344.521579 222.904389 344.401802 222.815455 344.328805 222.670489 344.265575 222.511129 344.18024 222.369247 343.786466 222.076229 343.375728 221.845414 343.308385 221.658808 343.259549 221.128293 343.22305 221.034219 343.123836 220.88257 343.106871 220.778215 343.132061 220.672831 343.235388 220.446643 343.256464 220.374673 343.201973 220.184469 343.090935 220.105303 342.798432 220.032306 342.678141 219.940802 342.474057 219.73569 342.352738 219.693537 342.118838 219.643673 341.874657 219.461693 341.692164 219.190781 341.592949 218.656667 341.568788 218.427394 341.576499 218.197607 341.622765 217.985812 341.739458 217.798178 341.877741 217.713872 342.144027 217.676859 342.144027 217.654754 342.170244 217.597179 342.209313 217.538061 342.251467 217.503105 342.284367 217.507731 342.357878 217.557082 342.38975 217.56325 342.45298 217.550913 342.676085 217.553997 342.868859 217.496936 343.072429 217.394637 343.25338 217.238875 343.375728 217.033249 343.433303 216.858467 343.5063 216.704761 343.601916 216.584984 343.729404 216.524839 343.667203 216.419455 343.617852 216.288883 343.554622 216.052927 343.452323 215.787155 343.418909 215.648357 343.375728 215.618541 342.768616 214.93175 342.561448 214.842303 342.486395 214.872119 342.423165 214.936377 342.352738 214.988811 342.268431 214.978016 342.189265 214.918385 342.185152 214.878287 342.203145 214.823282 342.196976 214.722526 342.21137 214.71173 342.209313 214.577045 342.192349 214.448529 342.168188 214.459838 342.209313 214.394552 342.281283 214.304077 342.344513 214.207432 342.352738 214.106161 342.217024 213.972504 341.499389 213.816229 341.422279 213.599293 341.505558 213.154627 341.659778 212.689398 341.98004 212.070977 341.774414 211.717814 341.456208 211.381101 341.283482 211.082944 341.332832 210.933351 341.570844 210.653185 341.634074 210.436764 341.614026 210.189498 341.529205 210.06201 341.394006 209.993639 340.052296 209.647159 339.453924 209.627111 338.877656 209.741747 338.109643 210.267636 337.817654 210.344232 337.520524 210.358112 337.243443 210.447559 336.952996 210.700479 336.695963 211.038734 336.505245 211.296795 336.456923 211.473633 336.49445 211.604206 336.578756 211.824226 336.581327 211.875118 336.66769 212.088969 336.706245 212.146545 336.801347 212.195381 336.949912 212.125468 337.016226 212.152199 337.061464 212.453442 336.828592 212.697623 336.253353 213.081115 335.794293 213.617285 335.501276 213.767906 335.193865 213.631165 334.784155 213.645559 334.376501 213.742717 334.160079 213.87329 334.279343 213.59004 334.347713 213.460495 334.376501 213.349457 334.218169 213.150514 334.125637 212.970591 334.158023 212.816886 334.376501 212.678602 334.916783 212.413344 334.931177 212.40769 334.964077 212.40769 335.034504 212.431337 335.088481 212.437506 335.139888 212.431337 335.338831 212.369135 335.375844 212.284828 335.368647 212.163509 335.373787 212.024711 335.435989 211.655612 335.465291 211.554855 335.759336 210.903535 335.745971 210.758568 335.636989 210.562195 335.503332 210.420313 335.018054 210.121127 335.120867 210.023969 335.136803 209.937606 335.120867 209.850215 335.120867 209.749972 335.112642 209.708847 335.091566 209.657441 335.072545 209.595239 335.072545 209.526868 335.10853 209.44873 335.210829 209.337178 335.52338 208.798952 335.840559 208.400551 335.622595 208.15637 335.596378 207.982616 335.718211 207.824798 336.925751 206.716473 337.572445 206.364338 337.661892 206.288771 337.897848 206.020943 338.197034 205.862097 338.29265 205.79167 338.390837 205.663153 338.426821 205.554686 338.424765 205.336208 338.356908 205.262697 338.310642 205.19741 338.282369 205.124413 338.297277 205.059127 338.438131 204.632967 338.501361 204.521928 338.552253 204.39444 338.565619 204.211433 338.539401 204.068009 338.417054 203.839764 338.380555 203.720501 338.513184 203.25887 338.951168 203.006464 339.918124 202.702651 340.520609 202.244105 340.723151 201.948518 340.617767 201.703309 340.73703 201.494084 340.821851 201.410291 341.049582 201.329069 341.082482 201.244762 341.114868 201.223172 341.245441 201.154801 341.234132 200.92964 341.503502 200.838137 342.091592 200.291685 342.266375 200.009978 342.526492 199.740607 343.136687 199.290286 343.101731 198.964883 343.158792 198.692942 343.326891 198.517132 343.409142 198.508907 343.45695 198.490401 343.587522 198.310478 343.683139 198.256501 343.774642 198.23234 343.858949 198.177335 343.92989 198.030826 343.834788 197.897683 343.701131 197.772766 343.566446 197.663784 343.399889 197.74552 342.330633 197.849875 342.374842 197.681262 342.486395 197.474094 342.619023 197.30034 342.852923 197.162056 342.865775 196.912734 343.101731 196.860814 343.248239 196.777021 343.380868 196.662899 343.449239 196.55186 343.407086 196.390958 343.313526 196.209493 343.289365 196.0599 343.45695 196.008493 343.538686 195.946292 343.617852 195.926757 343.701131 195.946292 343.782353 196.008493 344.017281 196.044478 344.464004 195.965826 344.676313 196.008493 344.79352 196.076864 344.912269 196.095885 345.15902 196.071209 344.993491 196.448019 345.044383 196.664955 345.240242 196.782162 345.504472 196.866982 345.541485 196.896284 345.566674 196.942036 345.604715 196.9919 345.673085 197.021202 345.734259 197.007836 346.07457 196.860814 346.313611 196.809407 346.937172 196.836653 347.187007 196.736924 347.36693 196.50251 347.394176 196.380677 347.379782 196.304081 347.3366 196.242393 347.306785 196.209493 347.260519 196.128271 347.260519 196.047048 347.363846 196.016719 347.505214 196.065555 347.620879 196.139066 347.738599 196.155516 347.876883 196.032655 347.890249 196.008493 347.904129 195.972509 347.904129 195.938581 347.895903 195.90568 347.830617 195.813149 347.810569 195.761228 347.822906 195.718561 347.876883 195.690801 347.969415 195.710336 348.042412 195.686175 348.080967 195.609579 348.077883 195.475922 348.047553 195.479006 347.895903 195.361799 347.876883 195.354602 348.267573 195.033826 348.484508 194.912506 348.802715 194.80044 348.782666 194.79787 348.805799 194.789645 348.842812 194.657016 348.86286 194.60818 348.842812 194.479663 348.796546 194.412835 348.740513 194.361428 348.684994 194.293058 348.482452 193.889002 348.360104 193.717819 348.226447 193.649962 348.190977 193.58776 348.162189 193.443308 348.138028 193.158516 348.1699 193.076265 348.319493 192.919989 348.369872 192.830028 348.377069 192.612578 348.264488 192.146321 348.288649 191.958173 348.417166 191.526872 348.465488 191.461586 348.587835 191.396814 348.60994 191.247221 348.56059 190.997899 348.563674 190.93724 348.555449 190.905882 348.552879 190.870411 348.56059 190.81592 348.587835 190.756289 348.646953 190.698713 348.684994 190.633941 348.742569 190.497714 348.758505 190.438082 348.748224 190.221661 348.793461 190.042766 349.035586 189.786761 349.119893 189.627401 349.100872 189.208438 348.712239 188.522161 348.684994 187.968513 348.742569 187.707882 348.802715 187.500713 348.866973 187.381964 348.927118 187.300742 348.972356 187.19433 348.992405 186.9995 349.05255 186.836027 349.620078 186.037683 349.714152 185.842339 349.771728 185.615122 349.790748 185.340097 349.85295 185.058389 349.99843 184.938612 350.164988 184.849165 350.287849 184.650221 350.297616 184.461045 350.251351 184.282151 350.194289 184.108396 350.164988 183.945438 350.175269 183.768599 350.241583 183.410296 350.287849 183.258133 350.350051 183.129102 350.409169 183.040683 350.45235 182.910624 350.47137 182.653592 350.517636 182.531244 350.627132 182.419692 350.851779 182.239769 350.851779 182.14878 350.745367 181.860389 350.745367 181.387963 350.822991 180.945353 351.201343 180.354178 351.307755 180.278096 351.457348 180.22926 351.596145 180.108969 351.839812 179.816466 351.94828 179.746039 352.068571 179.629346 352.162131 179.501344 352.203256 179.392362 352.214566 179.132245 352.263402 179.012982 352.363131 178.976997 352.619135 178.975455 352.687506 178.951294 352.738398 178.904514 352.757419 178.831516 352.776439 178.703514 352.819621 178.630517 352.860232 178.59042 352.879252 178.556492 352.958418 178.550837 353.289476 178.374512 353.343967 178.328247 353.455519 178.139071 353.865229 177.01481 354.145395 176.48378 354.335085 176.265303 354.228674 176.168144"></polygon>
        </g>
    </g>
</svg>