
<svg width="171px" height="45px" viewBox="0 0 171 45" version="1.1" xmlns="http://www.w3.org/2000/svg" xmlns:xlink="http://www.w3.org/1999/xlink">
    <!-- Generator: Sketch 51.2 (57519) - http://www.bohemiancoding.com/sketch -->
    <desc>Created with Sketch.</desc>
    <defs></defs>
    <g id="Page-1" stroke="none" stroke-width="1" fill="none" fill-rule="evenodd">
        <g id="GM-EPS-01-0001" transform="translate(-112.000000, -206.000000)" >
            <polyline id="Fill-3" points="116.607557 250.129636 115.752671 249.38727 114.872741 249.091902 114.738264 248.693961 114.978401 248.212316 115.373598 247.395508 115.271368 246.514206 114.179089 243.664126 114.133806 242.991743 114.271713 240.277855 114.14101 239.542693 113.820942 238.758475 112.864169 237.666882 112.609281 236.911481 113.051475 235.990385 112.845987 235.67409 112.317 234.375637 112.819229 233.755741 113.430548 231.98559 114.017854 231.607889 114.703616 231.440823 115.439464 231.042882 116.086461 230.526931 119.390056 226.478569 120.831906 225.266907 120.949573 225.863133 121.272385 226.281657 121.757118 226.597951 122.34065 226.880626 123.331043 226.3585 124.337216 226.32248 125.210627 226.6597 125.80994 227.277538 126.115943 228.316644 125.501879 228.493316 124.561915 228.556438 123.913889 229.250433 124.80068 230.025045 125.543045 231.68096 125.940643 233.398966 125.80994 234.375637 127.890897 236.828462 128.351959 237.16431 131.207185 237.289182 132.020219 237.523486 132.755038 237.981118 133.195174 238.381118 133.775276 238.663107 134.922786 238.758475 135.472699 239.158131 135.79414 240.058987 135.820212 241.074766 135.486422 241.893975 136.597568 240.958814 137.098425 240.935486 137.834273 241.494319 137.503913 240.915932 136.47407 239.858988 136.255202 239.700154 136.115237 238.959161 135.717639 238.484376 135.104261 238.282662 134.331707 238.340637 134.331707 237.941667 135.988993 237.981118 136.760861 237.86551 137.444222 237.523486 138.005456 238.663107 138.658971 238.423313 139.421577 237.627431 140.341986 237.16431 141.394128 236.850417 143.475085 235.473748 144.600297 235.152994 146.175937 235.652478 146.411614 236.788325 146.175937 238.105646 146.313844 239.142694 147.328936 239.397582 148.695314 239.00067 150.629101 237.941667 150.629101 237.523486 150.001315 237.58455 149.431162 237.784206 148.911094 238.105646 148.456207 238.559848 147.919673 238.937549 147.679536 238.602043 147.41813 237.028119 147.387255 236.389355 147.269588 235.830522 146.910755 235.590043 146.632883 235.454194 146.448664 235.110455 146.349864 234.656597 146.313844 234.177009 146.496348 233.116977 146.960841 232.403085 149.221214 230.507034 149.643511 230.04803 149.822242 229.449403 150.066495 229.176333 150.622583 229.271702 151.540935 229.647344 159.464075 230.067584 162.484995 229.352319 163.562523 229.250433 164.182762 229.29057 164.495625 229.333108 164.781388 229.352319 165.314492 229.250433 165.737132 229.072045 166.039019 228.810639 166.265776 228.576678 166.433186 228.453522 167.665087 228.3904 171.308991 228.810639 172.472282 228.694002 175.761469 227.676508 176.294572 227.374622 177.355634 226.597951 177.879818 226.460387 178.430074 226.64049 179.234189 227.479253 179.789591 227.676508 180.583758 227.656268 181.172436 227.575308 181.711714 227.338944 182.350478 226.880626 182.833839 226.32248 183.731264 224.907388 184.277747 224.52317 184.955961 224.509104 185.657504 224.721797 186.300384 225.088863 186.799526 225.464506 187.385116 225.740663 187.990947 225.64255 188.574479 225.402756 189.098663 225.266907 190.167958 225.581486 190.862296 226.281657 191.393684 227.099494 191.994026 227.676508 193.928842 228.316644 196.410141 228.475477 198.430034 227.636371 199.00053 225.266907 198.57686 225.266907 198.469142 226.137232 198.059537 226.921449 197.471202 227.456611 196.843416 227.676508 195.784756 227.560556 193.847882 227.016132 192.97104 226.880626 192.167611 226.597951 191.233822 225.940319 189.866758 224.708075 189.368302 224.467595 188.869504 224.563307 188.386829 224.763649 187.92165 224.886805 187.410845 224.763649 186.979628 224.48955 186.636233 224.206189 186.399869 224.089894 185.612907 223.905675 184.98169 223.589038 184.238296 223.410993 183.122689 223.724886 182.553565 224.185606 181.724064 225.306701 181.157684 225.663476 180.193364 225.726255 178.677072 225.005501 177.687709 224.886805 176.66404 225.107731 174.184114 226.460387 172.169023 227.077881 154.073005 228.493316 152.288103 227.833969 151.169066 227.676508 150.112807 227.916988 149.089482 228.453522 147.510754 229.647344 145.137517 232.038077 144.600297 232.438076 144.167021 232.624354 143.755015 232.981472 143.327915 233.137903 142.848671 232.80377 142.810592 232.363291 142.975943 231.764321 143.08229 231.085764 142.848671 230.424358 141.894299 231.303602 141.773887 231.785248 142.114195 232.438076 141.543699 232.720066 141.303562 232.80377 141.303562 233.181128 141.572516 233.256943 141.836666 233.441848 142.114195 233.537903 140.988983 234.114574 139.070977 234.395534 137.119694 234.45694 135.905975 234.375637 131.530683 233.297423 129.703586 233.181128 130.042179 232.680271 130.730342 231.242195 130.857957 230.645627 130.7324 229.848716 130.175969 228.694002 130.054185 228.254208 129.818508 227.855238 128.777687 227.077881 128.421942 226.441519 127.860365 226.103612 127.737209 225.882344 127.737209 224.708075 128.224687 222.270687 128.156762 221.376692 127.837723 220.599678 127.45968 220.024036 130.971508 220.036729 134.476818 220.057655 137.981785 220.057655 141.488811 220.077552 144.999953 220.100537 148.506635 220.100537 152.012975 220.119405 155.518285 220.119405 159.024624 220.140331 162.534737 220.161943 166.039019 220.161943 169.550504 220.180468 173.058215 220.202767 176.564555 220.224036 180.076383 220.224036 183.578949 220.236386 186.342237 220.236386 187.231429 219.943762 187.344293 217.645653 187.55081 216.471385 187.996779 215.214441 188.580654 213.997976 189.206382 213.023021 190.965555 211.105015 193.354229 209.374658 195.970347 208.378777 198.413567 208.756821 198.941182 209.270713 200.037921 210.727314 200.514421 211.084432 201.717163 210.791465 205.968955 208.075518 210.089701 206.563 211.297932 206.619261 214.661562 207.895073 220.363094 208.157851 222.42484 208.838124 224.420719 210.453558 225.134611 211.449096 225.64027 212.507413 226.735637 216.249773 227.12706 216.691968 229.444722 218.084761 230.236831 218.389048 230.932884 218.147539 234.40286 216.208264 236.69102 215.592827 239.012113 215.770186 241.43818 216.910835 242.529087 217.790422 243.293408 218.745823 243.834059 219.839474 244.585001 222.350961 244.95241 223.129347 245.523249 223.748557 250.0783 227.016132 251.437474 227.656268 252.46869 227.794175 253.447762 227.560556 256.761648 226.379084 259.896119 224.427801 260.964041 223.946498 264.224755 223.230205 266.836071 221.870688 267.982552 221.597618 268.584952 221.57429 269.569856 221.659024 270.15922 221.57429 270.823027 221.274463 271.974311 220.599678 272.727997 220.476179 273.915645 220.678923 275.349947 221.177722 276.707749 221.870688 277.652515 222.636381 277.942395 223.150274 278.303972 224.228831 278.596253 224.721797 279.112204 225.161933 280.392819 225.925225 280.962972 226.379084 282.317 229.11184 282.101906 232.062777 280.492647 234.512858 277.695397 235.730694 273.429882 236.107366 271.160933 236.712853 268.886495 236.746816 266.460771 237.627431 265.484787 237.603761 264.636418 237.981118 261.926647 240.038061 260.693716 240.634286 259.057699 240.696036 255.988751 240.119708 252.778809 240.394836 251.251883 240.277855 249.775385 239.858988 247.719471 238.800328 247.117414 238.401701 246.58534 237.907362 246.150349 237.32383 245.519819 236.690555 244.767162 236.469629 242.989807 236.389355 242.173342 236.168086 241.423429 235.730694 239.28484 233.73653 238.642303 233.515604 236.809716 233.97701 234.714352 234.219205 232.655008 233.97701 230.764788 233.181128 229.191207 231.764321 228.051243 230.19074 227.446099 229.806178 226.293785 229.593828 225.255023 229.250433 223.370292 228.095375 222.520894 227.855238 220.356576 227.676508 218.446803 227.175651 214.757274 225.285775 214.746296 225.285775 214.73669 225.266907 214.726399 225.266907 211.925032 223.230205 209.387473 220.854223 207.83173 219.839474 206.542539 220.360228 204.088341 222.909451 203.301722 224.185606 203.089373 227.759184 202.744262 229.352319 201.584058 230.866896 199.959019 231.943395 198.110309 232.64528 196.271891 232.981472 194.190934 232.981472 188.027653 231.65969 186.26505 231.585934 184.947042 232.081645 183.641727 232.80377 181.941559 233.359172 181.020806 233.454541 177.210866 233.077183 176.50109 233.098109 173.965246 233.915603 170.026661 234.272378 169.374175 234.656597 169.148789 235.454194 169.031808 240.455556 168.92752 244.543026 168.547418 244.825702 166.431128 244.825702 161.295632 244.763952 153.937499 244.699801 141.440783 244.585908 132.862413 244.502203 123.557115 244.42879 121.100173 244.405119 119.130022 244.844569 118.292974 246.261376 118.11493 246.798253 117.221964 247.677154 116.866219 248.150909 116.658672 248.78933 116.607557 250.129636"></polyline>
        </g>
    </g>
</svg>