
<svg width="78px" height="116px" viewBox="0 0 78 116" version="1.1" xmlns="http://www.w3.org/2000/svg" xmlns:xlink="http://www.w3.org/1999/xlink">
    <!-- Generator: Sketch 51.2 (57519) - http://www.bohemiancoding.com/sketch -->
    <desc>Created with Sketch.</desc>
    <defs></defs>
    <g id="Page-1" stroke="none" stroke-width="1" fill="none" fill-rule="evenodd">
        <g id="GY-EPS-01-0001" transform="translate(-257.000000, -118.000000)" fill="#7F807C">
            <path d="M304.002921,144.210428 L304.78164,143.971404 L305.664743,143.326569 L305.684787,143.261518 L304.984735,143.156756 L304.499879,143.137089 L304.346329,143.156756 L304.291112,143.212351 L304.146638,143.431331 L303.911018,143.611355 L303.747635,143.925641 L303.655732,144.28569 L303.701872,144.540976 L304.002921,144.210428 Z M334.573777,221.368253 L334.478848,221.217729 L334.344586,221.112966 L334.014415,221.008204 L333.880532,220.922731 L333.77577,220.817969 L333.683488,220.684085 L333.095005,220.383036 L331.563286,220.353914 L331.137808,220.183345 L329.626133,218.063142 L329.514563,217.597953 L329.396564,217.25795 L329.246418,216.573781 L329.046727,216.269707 L328.906036,216.204278 L328.545609,216.135445 L328.40227,216.060183 L328.336841,215.91987 L328.343271,215.356726 L328.16665,215.015966 L327.603507,214.531867 L327.48929,214.247459 L327.58384,214.028101 L327.613718,213.867743 L327.538078,213.713815 L327.282791,213.478195 L327.204503,213.3341 L327.158363,213.124576 L327.184837,212.974051 L327.263503,212.804238 L327.289221,212.633669 L327.158363,212.489952 L326.834621,212.718764 L326.615264,212.794405 L326.510502,212.649932 L326.595597,212.129525 L326.56988,212.015308 L326.180331,211.560709 L326.104691,211.416992 L326.085402,211.151116 L326.160665,210.951803 L326.209831,210.761945 L326.104691,210.562254 L325.771116,210.75249 L325.646309,210.657183 L325.551759,210.048656 L325.401234,209.764247 L325.002231,209.33877 L324.917135,209.129246 L324.972353,208.975317 L325.086948,208.775626 L325.116448,208.61489 L324.972353,208.540006 L324.43228,208.61489 L324.383492,208.654602 L324.27873,208.36036 L324.546875,207.797217 L324.442491,207.702666 L324.252634,207.731788 L323.938726,207.875505 L323.794631,207.911812 L323.604395,207.846383 L323.538966,207.702666 L323.493581,207.552142 L323.35932,207.486334 L323.303346,207.322573 L323.0942,206.527591 L323.234513,206.36383 L323.480344,206.173972 L323.653561,205.954615 L323.578677,205.728828 L323.054867,205.670207 L322.855554,205.559015 L322.989438,205.358946 L323.064322,205.215229 L323.054867,205.090801 L323.009482,204.950487 L322.989438,204.770085 L323.0352,204.711464 L323.254558,204.721297 L323.303346,204.655868 L323.290487,204.541272 L323.218628,204.34196 L323.198962,204.227364 L323.054867,203.876771 L322.779914,203.628292 L322.635818,203.343506 L322.874842,202.888906 L322.826054,202.859406 L322.819247,202.859406 L322.806388,202.843144 L322.779914,202.793599 L322.675152,202.888906 L322.544293,202.983457 L322.38091,203.032623 L322.230386,203.012957 L322.047336,202.878695 L322.085912,202.774311 L322.181219,202.653286 L322.230386,202.46948 L322.060194,202.109431 L322.020861,201.939618 L322.04015,201.749761 L322.125623,201.426398 L322.14529,201.245617 L322.085912,201.055759 L321.981907,200.931709 L321.955432,200.800473 L322.076457,200.60116 L322.105957,200.506231 L322.14529,199.962754 L322.096124,199.747179 L321.706575,198.958249 L321.212643,199.337964 L320.796998,199.413226 L320.37795,199.279343 L319.884018,199.072844 L319.893851,199.347797 L319.788711,199.488867 L319.343945,199.602706 L319.304612,199.65225 L319.19985,199.753987 L319.075421,199.822063 L319.029659,199.753987 L318.990704,199.678346 L318.895397,199.632584 L318.774372,199.602706 L318.649943,199.602706 L318.552367,199.537277 L318.355702,199.413226 L318.152607,199.374271 L318.002461,199.678346 L317.858366,199.698013 L317.687797,199.65225 L316.938578,199.233202 L316.493812,199.148106 L316.35955,199.089107 L316.284288,199.024056 L316.235121,198.948416 L316.169692,198.768769 L316.130359,198.594796 L316.143218,198.473772 L316.228314,198.189363 L316.228314,198.084601 L316.199192,197.895122 L316.199192,197.789982 L316.438216,197.331979 L316.454479,197.057025 L316.199192,196.772239 L315.875073,196.582381 L315.809644,196.556664 L315.780522,196.507497 L315.609953,196.487831 L315.53469,196.451523 L315.469261,196.373236 L315.449595,196.31764 L315.430307,196.261666 L315.305878,196.032853 L315.230238,195.768112 L315.17502,195.653138 L314.572544,195.273801 L313.813113,194.959515 L313.548371,194.789702 L313.37818,194.504916 L313.28363,194.170585 L313.243919,193.467507 L313.178868,193.162675 L312.844915,192.462245 L312.046152,191.304189 L311.791243,191.009947 L310.767071,190.201729 L310.387356,189.727085 L310.233806,189.1768 L310.024282,187.854605 L309.827616,187.181026 L309.854091,186.860311 L310.07307,186.52598 L311.441028,185.139112 L311.611219,184.883447 L311.715981,184.569161 L311.745481,184.179991 L311.69934,183.924704 L311.620674,183.686058 L311.562053,183.440605 L311.630885,183.155818 L311.784814,182.916795 L311.961434,182.717482 L312.114984,182.510983 L312.22958,181.997763 L312.514366,181.303383 L312.779486,180.865047 L313.027965,180.070065 L313.303296,179.670683 L313.433776,179.395352 L313.453443,179.101111 L313.322585,178.826536 L312.903536,178.292892 L312.694391,177.65789 L312.439482,177.47484 L312.170958,177.343604 L312.059389,177.13408 L312.164151,176.610648 L312.419437,176.250599 L312.704224,175.946525 L312.91337,175.691238 L313.224252,175.157973 L313.349059,175.046781 L313.538916,174.997615 L313.689063,175.046781 L313.842991,175.111832 L314.042682,175.157973 L314.422019,175.102377 L314.605069,174.958282 L314.841067,174.513138 L315.260115,174.113756 L315.780522,173.858847 L316.369383,173.819136 L316.987744,174.084634 L317.668508,173.849014 L318.031583,173.783207 L318.430964,173.763919 L318.51606,173.809681 L318.755084,174.038872 L318.859468,174.084634 L319.056133,174.078205 L319.324657,173.989705 L320.557975,173.868302 L320.953574,173.763919 L321.127169,173.698111 L321.241764,173.629657 L321.372622,173.583894 L321.592358,173.544561 L321.732671,173.574061 L321.8571,173.629657 L321.981907,173.63949 L322.14529,173.544561 L321.576095,173.030962 L321.497429,172.860771 L321.517096,172.651247 L321.562858,172.481056 L321.801504,171.951195 L321.906266,171.502646 L322.011028,171.283289 L322.181219,171.198194 L322.455794,171.208027 L322.655863,171.267026 L322.790125,171.427384 L322.874842,171.741292 L323.120296,171.63653 L323.368775,171.492813 L323.55901,171.312789 L323.634273,171.103265 L323.519299,170.792382 L322.995867,170.154355 L322.874842,169.859735 L322.806388,169.764807 L322.655863,169.719044 L322.475839,169.725473 L322.341577,169.80414 L322.315481,169.954664 L322.400198,170.108592 L322.560556,170.288617 L322.51139,170.393001 L322.407006,170.45843 L322.27577,170.478474 L322.14529,170.439141 L322.060194,170.354046 L322.027291,170.229617 L322.011028,169.146446 L321.961862,169.100305 L321.8571,169.100305 L321.706575,169.06135 L321.477385,169.156279 L321.337071,169.156279 L321.281098,169.015588 L321.327238,168.845397 L321.458096,168.671802 L322.21677,167.912749 L322.38091,167.667296 L322.439531,167.297414 L322.455794,166.96384 L322.50496,166.718386 L322.665696,166.394267 L322.665696,166.289505 L323.454248,165.150737 L323.634273,164.797496 L323.748868,164.237757 L323.739035,162.594846 L323.653561,162.055151 L323.663394,161.780198 L323.794631,161.521507 L323.948181,161.30215 L324.062776,161.027575 L324.138038,160.742789 L324.193634,160.222382 L324.344537,159.633521 L324.383492,159.384664 L324.344537,159.044282 L324.259063,158.779162 L323.948181,158.265563 L324.062776,158.370325 L324.033654,158.245896 L324.004155,158.200134 L323.948181,158.150968 L324.062776,157.656657 L323.919059,157.022033 L323.663394,156.422961 L323.42437,156.014124 L321.647576,154.286496 L321.366193,154.152234 L321.058715,153.867447 L320.96719,153.821685 L320.764095,153.791807 L320.633237,153.752852 L319.978568,153.392803 L319.723282,153.337208 L319.42904,153.232446 L319.190017,153.032755 L318.971037,152.928371 L318.705917,153.11785 L318.590944,153.392803 L318.630655,153.896947 L318.480131,154.09626 L318.381798,154.09626 L318.289895,153.44197 L317.498317,152.443894 L317.216935,151.504817 L316.978289,151.125102 L316.673836,150.800982 L316.398505,150.657265 L316.199192,150.60167 L315.609953,150.267717 L314.706805,149.567286 L312.439482,147.371443 L311.680052,146.422533 L311.306766,146.062485 L310.816237,145.797743 L310.207332,145.607507 L308.498991,145.349195 L308.361326,145.388528 L308.309512,145.568552 L308.250134,145.643815 L308.119654,145.578386 L307.981989,145.46379 L307.936226,145.408195 L307.860964,145.368862 L307.556511,145.084075 L306.617435,144.590143 L306.018362,144.410118 L305.364072,144.370785 L304.670449,144.540976 L304.100876,144.93998 L303.681828,145.509553 L302.039295,148.408852 L301.875911,149.063521 L301.810482,151.115269 L301.554817,151.740437 L301.669413,151.834988 L301.410722,151.844821 L301.280242,151.834988 L301.07034,151.740437 L301.004911,151.789225 L300.966334,151.884154 L300.906957,151.93975 L300.756432,152.034679 L300.272333,152.473393 L300.232622,152.414394 L300.167193,152.378465 L301.214813,150.905744 L301.345671,150.392146 L301.345671,147.600634 L301.374793,147.430443 L301.515863,147.240585 L301.554817,147.077202 L301.515863,146.05303 L301.554817,145.719077 L301.924699,144.779622 L302.019628,144.180928 L302.12439,143.860212 L302.287774,143.546304 L302.523394,143.261518 L303.122466,142.803137 L303.322157,142.54785 L303.59711,140.905317 L303.512015,138.892524 L303.59711,138.218567 L303.482515,138.342996 L303.642873,137.829019 L303.531681,137.31542 L303.243491,136.830943 L301.908437,135.521984 L301.774175,135.273505 L301.669413,134.95279 L300.906957,133.934669 L300.65167,133.300045 L300.540479,133.12645 L300.321499,132.966092 L299.853285,132.76678 L299.637331,132.632518 L299.627498,132.831831 L299.644139,133.022066 L299.741715,133.385141 L299.637331,133.385141 L299.522736,133.136283 L298.554538,131.569013 L297.170317,130.155292 L295.389362,128.662906 L293.910591,127.314614 L293.786162,127.268852 L293.730566,127.209852 L293.625804,126.840348 L293.331185,126.4508 L293.131872,126.270776 L292.68635,126.130084 L289.826761,124.438385 L288.164184,123.250451 L286.740252,122.605616 L285.703221,121.987255 L285.202859,121.561778 L284.898406,121.352253 L284.263404,121.162396 L283.700639,120.714226 L283.444974,120.603035 L283.075471,120.668085 L283.036137,120.868154 L283.235828,121.303465 L283.360257,121.476682 L284.309545,121.987255 L285.742932,122.985331 L286.920654,123.459975 L287.574944,123.898312 L288.124851,124.428552 L288.487925,125.00758 L287.090845,123.813216 L286.880943,123.564359 L286.769751,123.449764 L285.886649,123.270118 L285.79172,123.279951 L285.735746,123.250451 L285.703221,123.129427 L285.676747,123.099927 L285.53303,122.85107 L285.067841,122.756141 L284.623453,122.520521 L283.766068,121.892327 L283.369712,121.692636 L282.607634,121.486515 L282.16249,121.257325 L281.583462,120.697585 L280.68334,119.339839 L280.130409,118.770266 L279.610002,118.436313 L279.305549,118.296 L280.244626,119.699509 L281.878082,121.522445 L282.502872,122.540187 L282.486609,122.860903 L282.28654,123.204311 L281.982087,123.479264 L281.658724,123.584026 L281.338009,123.604071 L280.55929,123.783717 L280.290766,123.908145 L280.120197,124.098003 L279.721194,124.408507 L279.610002,124.647531 L279.610002,124.876722 L279.646309,125.056746 L279.629669,125.23677 L279.44624,125.47239 L279.315382,126.100584 L279.151621,126.375538 L278.886879,126.535895 L278.555952,126.555562 L277.928136,126.490133 L277.594183,126.604728 L277.273089,126.840348 L277.024611,127.098661 L276.759869,127.324447 L276.000438,127.609234 L275.820036,127.828591 L275.656652,128.077448 L275.362411,128.34219 L274.612814,128.852763 L274.262598,129.167049 L274.13817,129.530124 L273.758833,129.81491 L273.075043,129.880339 L271.746418,129.860673 L271.396203,129.975268 L271.173441,130.184792 L270.872392,130.76382 L270.518773,131.179464 L270.434056,131.333393 L270.427626,131.464251 L270.483222,131.75887 L270.483222,131.932087 L270.237769,132.357565 L270.27332,132.586755 L270.217724,132.795901 L270.074007,132.901042 L269.844816,132.861709 L269.740054,132.936971 L269.58953,133.146495 L269.360339,133.555332 L269.124719,133.859406 L268.411429,134.078764 L268.195476,134.494408 L268.215142,134.723599 L268.300616,134.95279 L268.660665,135.616913 L268.856574,135.692175 L269.079335,135.738316 L269.285455,135.891488 L269.35391,136.006461 L269.360339,136.10139 L269.341051,136.196319 L269.341051,136.327177 L269.40005,136.480727 L269.53053,136.555989 L269.674625,136.611585 L269.779387,136.696681 L269.893983,136.89675 L270.074007,137.335086 L270.204865,137.554444 L270.237769,137.675469 L270.237769,137.799519 L270.198436,137.923948 L270.133007,138.02871 L269.753291,138.369092 L269.550197,138.797595 L269.563434,139.262406 L269.789221,139.727216 L269.959412,139.897408 L271.052417,140.754792 L271.252107,140.754792 L271.601945,140.136053 L271.847398,139.890978 L272.181351,139.766171 L272.590566,139.766171 L272.780423,139.841434 L272.940781,139.946574 L273.110594,140.031669 L273.339785,140.041124 L273.595071,140.001791 L273.798166,140.021458 L273.988024,140.126598 L274.183932,140.345577 L274.727409,140.640197 L274.926722,140.820221 L275.047747,141.065297 L275.060984,141.33382 L274.992907,141.608773 L274.871883,141.873893 L274.717576,142.093251 L274.498219,142.272897 L274.233477,142.443466 L273.994453,142.642779 L273.863595,142.898065 L273.7195,143.676784 L273.45438,143.526259 L273.038736,143.621188 L271.03275,144.854884 L269.910245,145.129838 L269.61903,145.254266 L269.360339,145.46379 L268.925406,146.098414 L268.667094,146.366938 L268.336167,146.478129 L268.097143,146.393034 L267.528327,146.023152 L267.207611,145.948268 L267.024183,145.967556 L266.664134,146.05303 L266.520039,146.062485 L266.33056,146.003485 L266.18949,145.899101 L266.085106,145.797743 L265.98337,145.719077 L265.629751,145.624148 L265.430438,145.607507 L265.335888,145.672936 L265.374842,145.843127 L265.525367,146.062485 L265.564322,146.213009 L265.551463,146.337438 L265.525367,146.402867 L265.099889,146.851415 L265.014794,146.916844 L264.687649,146.962606 L263.977385,146.867678 L263.692598,147.086657 L263.359024,146.991728 L263.028475,146.946344 L262.887783,147.230752 L262.593164,147.135823 L262.249378,147.106701 L261.955136,147.162297 L261.801208,147.345347 L261.310301,147.904709 L261.002823,148.464448 L260.777036,149.043854 L260.662441,149.577119 L260.701774,149.897835 L260.852298,150.051763 L261.071656,150.172788 L261.310301,150.392146 L261.43473,150.630791 L261.585633,151.095602 L261.755446,151.331222 L261.794779,151.455651 L261.814445,151.589534 L261.814445,151.710559 L261.775112,151.844821 L261.64085,152.034679 L261.565588,152.254036 L261.470659,153.003255 L261.486922,153.173824 L261.604921,153.612161 L261.690017,153.752852 L261.96497,153.926447 L262.040232,154.037638 L262.089398,154.1424 L262.135161,154.171522 L262.180545,154.227496 L262.220256,154.381046 L262.135161,154.970286 L262.135161,155.189643 L262.076161,155.435096 L261.90597,155.483884 L261.676779,155.464218 L261.460826,155.490692 L261.261135,155.673742 L261.090944,156.06972 L260.937394,156.279244 L260.747536,156.383628 L260.49225,156.469102 L259.981676,156.563652 L259.77253,156.678248 L259.628435,156.897605 L259.428744,157.401749 L258.699192,158.559804 L258.470001,158.739829 L257.939762,159.024615 L257.776,159.204639 L258.041498,159.832834 L258.554719,160.38274 L259.733197,161.691698 L260.917727,162.994227 L262.108687,164.296756 L263.293595,165.605337 L264.471317,166.908244 L265.656225,168.207369 L266.847562,169.50952 L268.032092,170.809023 L268.061592,170.809023 L268.745382,170.648666 L269.095597,170.628621 L270.027866,170.694428 L270.204865,170.733383 L270.394723,170.818478 L270.558106,170.913407 L270.728297,170.998503 L270.957488,171.018169 L271.840969,170.903952 L272.154877,170.962573 L272.266446,171.037836 L272.371208,171.152431 L272.485804,171.227693 L272.600399,171.237527 L272.750924,171.122931 L272.933973,170.82869 L273.054998,170.72355 L273.379118,170.703883 L274.062908,170.942907 L274.413501,170.933074 L274.707743,170.72355 L275.335937,170.098759 L275.630557,169.954664 L276.285225,169.784473 L276.484538,169.849902 L276.638466,170.209951 L276.854419,170.409642 L277.558254,170.164188 L277.692516,170.344213 L278.192878,171.48298 L278.431902,171.757555 L278.752617,172.006412 L279.44624,172.395961 L279.884577,172.615318 L279.904622,173.060084 L279.629669,173.999539 L279.616431,174.608066 L279.560836,174.892853 L279.44624,175.177639 L279.334671,175.635642 L279.296094,176.575097 L279.076737,177.269098 L279.144813,177.942677 L279.112288,178.237675 L279.020763,178.51225 L278.876668,178.757703 L278.431902,179.405564 L278.353236,179.595421 L278.317684,179.765612 L278.29764,179.926348 L278.248473,180.070065 L278.098327,180.210756 L277.953854,180.259545 L277.642971,180.269378 L277.50871,180.286019 L277.09004,180.734567 L277.044277,181.028808 L277.122943,181.313216 L277.293134,181.539003 L277.538588,181.673265 L277.728067,181.712598 L277.868758,181.712598 L277.953854,181.643765 L277.993187,181.463741 L278.078661,181.343094 L278.242044,181.349524 L278.412235,181.437645 L278.497331,181.548837 L278.582426,181.833623 L278.746188,181.883167 L278.991641,181.816982 L279.296094,181.768194 L279.665598,181.892622 L279.855077,181.921744 L279.950384,181.816982 L280.015813,181.692553 L280.169363,181.643765 L280.349388,181.653599 L280.499912,181.68272 L280.644007,181.778027 L280.873198,182.072647 L280.957915,182.147531 L281.098985,182.128243 L281.403438,181.987551 L281.60275,181.987551 L281.671583,182.043147 L281.622417,182.242838 L281.687846,182.338145 L281.757057,182.357433 L281.92687,182.357433 L282.002132,182.366888 L282.332681,182.451984 L282.466943,182.42324 L282.590993,182.281793 L282.797492,182.556746 L283.710472,183.061268 L283.844356,183.192126 L283.955547,183.345676 L284.099643,183.469726 L284.282693,183.5257 L284.459691,183.545367 L284.518313,183.600584 L284.508858,183.858897 L284.404096,184.228779 L283.870074,184.779063 L283.710472,185.072926 L283.739594,185.139112 L283.890118,185.32254 L283.92983,185.42352 L283.890118,185.518449 L283.749427,185.707928 L283.710472,185.796428 L283.674165,186.071381 L283.674165,186.21245 L283.710472,186.375834 L283.890118,186.791478 L284.145405,186.971502 L284.822766,187.19086 L285.153693,187.449172 L285.107552,187.665504 L284.937361,187.933649 L284.87874,188.29332 L285.029264,188.538773 L285.562151,189.02325 L285.781509,189.422254 L285.876816,189.497894 L285.942245,189.593201 L285.932411,189.991827 L286.030366,190.050448 L286.181269,190.050448 L286.672175,190.126088 L286.861655,190.191896 L286.966417,190.325779 L287.00575,190.475926 L286.979276,190.590521 L286.894558,190.665783 L286.740252,190.695661 L286.44601,190.809878 L286.161224,191.104498 L285.932411,191.464547 L285.827649,191.778833 L285.876816,192.129048 L285.942245,192.394168 L285.893078,192.613526 L285.582196,192.852549 L284.94379,193.136958 L284.747881,193.326437 L284.623453,193.725819 L284.61362,193.905843 L284.629882,194.046534 L284.623453,194.180796 L284.528146,194.360442 L284.387833,194.465204 L284.034214,194.625562 L283.435141,195.169039 L282.155682,195.613805 L281.763108,196.042308 L281.757057,196.507497 L282.002132,196.84145 L282.28654,197.161787 L282.410969,197.561169 L282.142823,198.205626 L282.097061,198.483605 L282.372014,198.379221 L282.296374,199.128818 L282.325873,199.233202 L282.417777,199.442348 L282.401514,199.547488 L282.325873,199.62275 L282.221111,199.65225 L282.116349,199.65225 L282.067561,199.668513 L281.907203,200.192323 L281.497988,200.856447 L281.432559,201.009997 L281.223035,201.710806 L281.118651,201.854145 L281.003678,201.959285 L280.918961,202.07388 L280.918961,202.28 L280.964723,202.374551 L281.098985,202.528858 L281.128106,202.63362 L281.088773,202.688837 L280.892486,202.718715 L280.843698,202.764478 L280.860339,202.859406 L280.984768,203.02279 L280.997627,203.12793 L280.94846,203.231936 L280.853531,203.278076 L280.758603,203.317031 L280.670482,203.382839 L280.254837,204.066628 L280.100909,204.426677 L280.028672,204.826059 L280.081242,205.70954 L280.03548,206.043492 L279.714764,207.313118 L279.616431,209.848965 L279.675431,210.153418 L280.169363,211.102706 L280.15953,211.187423 L280.081242,211.377281 L280.074435,211.435902 L280.150075,211.491876 L280.349388,211.567516 L280.414817,211.62576 L280.549079,211.890879 L280.565341,212.005475 L280.565341,212.205544 L280.624341,212.499785 L281.069107,213.514502 L281.098985,213.677886 L281.118651,214.018268 L281.154581,214.181651 L281.154581,214.352221 L280.997627,214.61734 L280.964723,214.760679 L281.128106,215.055677 L281.432559,215.261797 L282.05092,215.585917 L282.535398,215.994375 L282.725255,216.089682 L282.87578,216.118804 L283.176829,216.12599 L283.320546,216.164945 L283.654498,216.54466 L283.680973,217.077547 L283.595877,217.673594 L283.608736,218.252622 L283.749427,218.720836 L283.759639,218.880816 L283.700639,219.031341 L283.530448,219.310076 L283.484307,219.470055 L283.503974,219.679579 L283.674165,220.000295 L283.729761,220.17389 L283.719927,220.294915 L283.624999,220.553227 L283.595877,220.684085 L283.634832,221.0933 L283.624999,221.237395 L283.550115,221.397375 L283.360257,221.701828 L283.301257,221.881852 L283.294828,222.127305 L283.314116,222.471091 L283.385975,222.784999 L283.530448,222.95519 L283.719927,222.965024 L284.043669,222.850428 L284.224071,222.859883 L284.81331,223.089452 L285.00279,223.135215 L285.107552,223.105715 L285.146885,223.125381 L285.163148,223.315617 L284.832221,223.953266 L284.583742,224.283815 L284.603786,224.418077 L284.94379,224.778126 L285.098097,224.882888 L285.251647,224.967983 L285.428268,225.01715 L285.742932,224.997483 L286.017129,224.921843 L286.29246,224.882888 L286.626035,224.987272 L286.959609,225.25277 L287.395298,225.965681 L287.653232,226.29623 L288.144139,226.679349 L288.288612,226.839707 L288.593065,227.389235 L288.733378,227.549971 L288.812044,227.579093 L289.001524,227.608592 L289.086619,227.648304 L289.142593,227.733021 L289.247355,227.978474 L289.316188,228.043903 L289.506046,228.092692 L289.81655,228.008352 L289.957241,228.027641 L290.140669,228.263261 L290.180002,228.557502 L290.245431,228.822622 L290.530218,228.986762 L290.664101,229.156197 L290.994272,229.896339 L291.184508,230.164484 L291.468916,230.315009 L292.46737,230.628917 L295.07848,231.093727 L295.782693,231.358847 L296.096601,231.529038 L296.39122,231.768062 L296.636295,232.137944 L296.711936,232.471897 L296.855653,232.791856 L297.254656,233.116354 L297.565539,233.250238 L297.850325,233.296 L298.125278,233.2665 L298.439564,233.201449 L298.81928,233.050925 L299.113521,232.841401 L299.368808,232.576281 L299.797689,231.948087 L299.977335,231.813447 L300.216359,231.797184 L301.810482,231.937875 L301.914488,231.902324 L302.114935,231.748396 L302.18339,231.718896 L302.258652,231.758229 L302.343369,231.82328 L302.399343,231.882658 L302.399343,231.918587 L302.523394,231.957542 L302.647822,232.032804 L302.779059,232.023349 L303.263536,231.264297 L303.367541,230.989344 L303.36149,230.619462 L303.256728,230.29572 L302.962108,229.676981 L302.857725,229.366099 L303.093345,229.071101 L304.421591,228.842667 L304.850473,228.567336 L304.860306,228.416811 L304.764999,228.092692 L304.78164,227.932712 L304.899639,227.837783 L305.25931,227.674022 L305.390546,227.579093 L305.505141,227.389235 L305.592884,227.160801 L305.697646,226.963757 L305.874645,226.839707 L305.940074,226.876014 L306.103836,227.124493 L306.20822,227.248544 L306.483551,227.37978 L306.816747,227.474331 L307.157508,227.533708 L307.451749,227.543163 L307.65144,227.484542 L307.792131,227.389235 L307.965348,227.360114 L308.221013,227.493997 L308.345063,227.648304 L308.460037,227.988308 L308.564042,228.112358 L309.068564,228.243973 L309.808328,228.273094 L310.462618,228.148666 L310.717905,227.844213 L310.98605,227.352928 L311.090812,227.065494 L311.136575,226.790919 L311.051858,226.316275 L311.031813,226.080655 L311.12712,225.965681 L311.372195,225.995559 L311.84041,226.185417 L312.105529,226.20168 L312.373675,226.106373 L312.903536,225.785657 L314.157277,225.226296 L314.657639,225.092034 L315.220782,225.121912 L316.5426,225.366987 L317.027077,225.347699 L317.746796,225.167296 L318.22144,224.816702 L319.258849,223.505097 L319.415803,223.22031 L319.808756,222.196516 L319.969113,222.052043 L320.188471,221.977159 L320.508808,221.80659 L320.757665,221.577399 L320.953574,221.341779 L321.183143,221.1228 L321.536384,220.998749 L321.915721,221.037326 L322.485672,221.38792 L322.79958,221.446541 L324.138038,220.608823 L324.887635,220.304748 L325.361901,220.684085 L325.466663,221.132633 L325.646309,221.446541 L325.941307,221.692373 L326.350522,221.911352 L326.635309,221.966947 L326.890595,221.966947 L327.403816,221.911352 L327.747602,221.920807 L327.87846,221.996447 L327.983222,222.146972 L328.231701,222.346663 L328.441225,222.421547 L329.550871,222.605353 L329.76985,222.605353 L329.960086,222.516476 L330.624209,221.996447 L330.843188,221.947281 L331.157475,221.996447 L331.468357,222.006281 L331.687336,221.891685 L331.897239,221.731327 L332.16198,221.626944 L332.466433,221.662116 L332.714912,221.816423 L332.931244,221.996447 L333.166864,222.111043 L333.425176,222.091376 L333.89982,221.826256 L334.632776,221.547899 L334.573777,221.368253 Z" id="Fill-3"></path>
        </g>
    </g>
</svg>