
<svg width="124px" height="156px" viewBox="0 0 124 156" version="1.1" xmlns="http://www.w3.org/2000/svg" xmlns:xlink="http://www.w3.org/1999/xlink">
    <!-- Generator: Sketch 51.2 (57519) - http://www.bohemiancoding.com/sketch -->
    <desc>Created with Sketch.</desc>
    <defs></defs>
    <g id="Page-1" stroke="none" stroke-width="1" fill="none" fill-rule="evenodd">
        <g id="KE-EPS-01-0001" transform="translate(-195.000000, -62.000000)" fill="#7F807C">
            <path d="M317.628401,85.8856302 L316.944886,85.7445993 L316.271445,85.3916491 L315.543905,85.1580901 L314.89285,85.533053 L314.67123,85.5781978 L314.452968,85.5397688 L314.049276,85.3726211 L313.805271,85.3535931 L312.577034,85.6520711 L312.172969,85.6804266 L311.402896,85.8953307 L309.684036,85.988232 L308.118892,86.0811333 L307.317105,85.988232 L306.572776,85.6901271 L305.893365,85.1580901 L304.911745,83.7914339 L304.507681,83.4190826 L304.264048,83.2687243 L303.532777,83.0280764 L303.250342,82.8870455 L303.093268,82.7299715 L302.83695,82.2553915 L302.461614,81.8285679 L301.537825,81.2032565 L301.197933,80.7674786 L300.23273,81.3987596 L298.959721,81.8834133 L297.339732,82.4956663 L295.360822,83.2590238 L295.271279,83.3459555 L295.181363,83.5862303 L295.101147,83.6601036 L293.891938,84.0802114 L292.339479,84.6189642 L292.294707,84.6189642 L292.249935,84.6092636 L292.204791,84.5835199 L292.05779,84.5741925 L292.044732,84.6286647 L292.054432,84.721566 L291.983917,84.8144673 L291.291075,85.1580901 L289.806147,85.8759296 L288.484635,86.5083299 L287.172825,87.1336413 L286.865392,87.514947 L286.563183,88.3137487 L286.137106,89.4296834 L285.880415,89.9042634 L285.589026,90.2859421 L284.385786,91.3858336 L283.378796,92.2965646 L282.981074,92.7711446 L282.647152,93.7878353 L282.390834,94.1859303 L281.899838,94.2146589 L281.656578,94.0482574 L281.540918,93.8523812 L281.461448,93.637477 L281.326014,93.4707024 L280.857776,93.3132553 L278.940428,93.2557983 L279.081459,92.9770944 L279.010197,92.8200204 L278.81171,92.8006193 L278.119241,93.201326 L277.535343,93.220354 L276.93876,93.0893968 L275.361304,92.370811 L275.212811,92.3357398 L274.331555,92.5211693 L274.093892,92.5211693 L273.866675,92.4383416 L273.609611,92.3991664 L272.964899,92.5211693 L272.564192,92.5312429 L271.42214,92.2234375 L269.911469,91.8126571 L269.632765,91.6652836 L269.392117,91.4216509 L268.978352,90.882525 L268.985068,90.9754263 L268.962682,91.1907036 L268.965666,91.3026328 L268.070979,91.2354753 L267.990763,91.18063 L267.975093,91.0978023 L267.945991,91.0496727 L267.727729,91.1358583 L267.644528,91.142574 L267.445667,91.1261577 L267.234121,91.0683276 L267.169948,90.9754263 L267.143831,90.8534234 L267.016232,90.7157505 L266.727081,90.4717447 L266.647239,90.4366735 L266.499492,90.5008463 L266.467406,90.6232223 L266.480464,90.7605222 L266.464048,90.8470808 L265.682035,91.1907036 L264.822419,91.2645769 L263.186386,91.0780281 L261.557442,90.8925987 L261.079878,90.9306546 L260.595224,91.0496727 L260.409048,91.0235559 L260.056098,90.7157505 L259.597561,90.5750927 L259.402058,90.4657751 L259.164395,90.1866982 L258.773389,89.5707142 L258.491327,89.2823099 L258.019732,88.9838319 L256.489659,88.0059433 L255.030848,87.0661107 L253.449287,86.0621053 L252.044575,85.1580901 L250.804026,84.3686157 L249.055318,83.2433537 L247.561063,82.2938205 L246.066434,81.3349599 L245.239277,80.8021767 L245.148987,80.776433 L245.056086,80.7865066 L244.976243,80.7674786 L244.928487,80.6839048 L244.847898,80.3372972 L244.790068,80.1996242 L244.687466,80.0582203 L244.571805,80.022776 L244.264,80.0391923 L244.155056,79.9750195 L243.91105,79.5646123 L243.763676,79.4552947 L243.138365,79.3142639 L242.047801,78.7658105 L241.133712,78.5124773 L238.180272,78.5415789 L238.051927,78.5061347 L237.823964,78.3744312 L237.692634,78.3457027 L235.297348,78.3938323 L232.449121,78.4483045 L232.249887,78.419576 L231.971183,78.2912305 L231.820079,78.2431009 L231.660393,78.2528015 L231.130595,78.319959 L228.831195,78.3360022 L228.481603,78.2528015 L228.157754,78.0472247 L227.561171,77.527873 L227.285079,77.3610984 L227.182477,77.1364937 L227.189193,76.8865184 L227.233964,76.5783399 L227.220906,76.280235 L227.015702,75.9179573 L226.987347,75.6582814 L225.591962,74.1860387 L224.89912,73.4420822 L224.520799,72.8100551 L224.392454,72.0724413 L224.392454,72.0627408 L224.456627,68.8716378 L224.533485,68.6761347 L225.123725,67.9415057 L225.245355,67.6337003 L225.245355,67.3161943 L225.107682,66.9442161 L224.803234,66.3670343 L224.757716,66.0719142 L224.860691,65.715606 L225.274456,65.122381 L225.200583,64.9813502 L224.360367,64.6541436 L223.353377,64.0415175 L222.961998,63.9392888 L222.679563,64.0030885 L222.403471,64.1250914 L222.041567,64.2086652 L221.669588,64.1056903 L221.009206,63.5766381 L220.65924,63.3714344 L220.386506,63.2975611 L220.065642,63.2591321 L219.741794,63.2591321 L219.466074,63.3169622 L219.132898,63.538209 L218.507214,64.2179927 L218.160979,64.4586406 L217.792359,64.5160976 L217.509924,64.3750667 L217.278977,64.1250914 L216.778653,63.3326323 L216.717838,63.1949593 L216.733508,62.9994562 L216.842453,62.8423822 L216.977514,62.6819502 L217.067057,62.5054751 L217.002885,62.329 L216.152969,63.1565303 L215.303053,63.9870453 L214.450152,64.8242761 L213.603593,65.6611338 L212.750319,66.4886641 L211.900776,67.3161943 L211.05086,68.1564099 L210.197586,68.9839402 L209.347297,69.821171 L208.497381,70.6483281 L207.647465,71.4885437 L206.794564,72.3164471 L205.944648,73.1533048 L205.091747,73.980835 L204.245189,74.8079922 L203.391915,75.6485809 L201.846172,77.1752959 L200.297071,78.698653 L198.74797,80.2249949 L197.202227,81.7614104 L197.644348,81.9759414 L197.990955,82.2453178 L198.180116,82.5982681 L198.158103,83.0668785 L198.176758,83.2687243 L198.315177,83.4388568 L198.485309,83.5959308 L198.612909,83.7724059 L198.65768,83.9485079 L198.664396,84.1249831 L198.619625,84.4809181 L198.561794,84.6924644 L198.494264,84.8338683 L198.487921,84.9909424 L198.606566,85.234575 L198.792742,85.4013496 L199.014362,85.5487231 L199.190091,85.7255714 L199.229266,85.9785315 L199.068834,86.3699107 L198.872958,86.7224879 L198.850572,86.9829099 L199.206507,87.1138672 L199.447155,87.0661107 L200.05605,86.8444908 L200.351543,86.8541913 L200.691435,87.0310395 L200.730237,87.23587 L200.563089,87.4380889 L199.831445,87.8197676 L199.863905,87.9059532 L200.101195,87.9899001 L200.293713,88.2204744 L199.988892,88.4163506 L199.889275,88.5383534 L200.082167,88.6118536 L200.210139,88.6021531 L200.476158,88.5286529 L200.778367,88.5092518 L201.082441,88.4260511 L201.243246,88.4163506 L201.252947,88.4898508 L201.59545,88.9293596 L201.826771,89.5419857 L202.003246,89.634887 L202.073388,89.5804148 L202.140919,89.4296834 L202.301351,89.2823099 L202.718101,89.160307 L202.994193,89.2726093 L203.488174,89.8050195 L203.776951,89.952393 L204.065356,90.0359668 L204.28996,90.1866982 L204.392562,90.5008463 L204.354133,91.7290833 L204.209744,92.3357398 L203.917982,92.7812182 L203.776951,92.8550916 L203.619877,92.8935206 L203.481458,92.9576934 L203.395273,93.0893968 L203.404973,93.2557983 L203.597118,93.5830048 L203.661291,93.7497794 L203.635547,93.8971529 L203.481458,94.2691311 L203.436686,94.4392636 L203.475115,94.6254392 L203.597118,94.7825133 L203.738149,94.9395873 L203.853436,95.1097198 L204.049686,95.7122722 L204.200044,97.5852217 L204.367192,97.9381719 L204.687682,98.1437487 L205.412238,98.3489523 L205.733102,98.550798 L205.912935,98.8780046 L206.355055,101.187105 L206.509517,101.446781 L206.99641,101.985907 L207.22773,102.347811 L207.365776,102.489588 L207.573965,102.544061 L207.670224,102.517944 L207.843714,102.376913 L207.904529,102.347811 L207.942958,102.322441 L208.010489,102.200438 L208.048545,102.172082 L208.106748,102.200438 L208.141446,102.255283 L208.167563,102.313113 L208.196291,102.338857 L208.225393,102.376913 L208.657813,102.58249 L208.741387,102.601891 L208.843989,102.729863 L208.905177,102.871267 L209.215967,103.830128 L209.450272,105.151266 L210.094984,106.491805 L210.242358,106.629478 L210.450919,106.639179 L210.57628,106.52725 L210.678882,106.408978 L210.816555,106.379503 L210.970271,106.594407 L211.057203,107.348437 L211.146746,107.637215 L211.563496,108.063665 L211.704527,108.323341 L211.663113,108.669575 L211.435524,108.938952 L211.127345,109.115427 L210.851626,109.330331 L210.716938,109.702309 L210.816555,110.308593 L211.685499,112.393462 L212.378341,114.048149 L212.378341,114.336553 L212.234326,115.01671 L212.211567,115.314815 L212.230968,115.628963 L212.294767,115.936769 L212.403712,116.196818 L212.538773,116.357623 L212.897693,116.690426 L212.974924,116.866901 L212.917467,117.027706 L212.631674,117.38961 L212.564144,117.576159 L212.548474,120.536315 L212.455199,120.85979 L211.970919,121.886181 L211.858989,122.062657 L211.704527,122.20033 L211.550811,122.274576 L211.229947,122.342107 L211.076231,122.415234 L210.723654,122.938689 L210.399805,124.166926 L209.488701,124.910883 L209.546531,125.449636 L209.81255,126.071589 L209.972982,126.677873 L209.78009,127.293484 L209.293198,127.51473 L208.029517,127.646434 L207.712011,127.832609 L207.189301,128.336291 L206.445345,128.503066 L206.342743,128.781396 L206.316626,129.125019 L206.149851,129.404096 L205.829361,129.461926 L205.58237,129.320522 L205.329037,129.26605 L205.014889,129.574229 L204.863784,129.843605 L204.735812,130.148053 L204.655223,130.475259 L204.64888,131.155043 L204.559337,131.472549 L204.15863,132.447826 L203.719121,133.015307 L203.497874,133.631291 L203.234841,133.861865 L202.249863,134.355846 L202.125249,134.48755 L202.031974,135.026302 L201.781626,135.686685 L201.416363,136.078064 L200.919024,136.32804 L200.297071,136.552644 L199.844504,136.86045 L199.581843,137.325702 L199.196806,138.881519 L199.152035,139.009491 L199.042717,139.169923 L198.780056,139.484071 L198.709168,139.625475 L198.728569,139.903806 L198.902059,140.452632 L198.857288,140.770138 L198.725584,140.966388 L198.173773,141.392465 L196.810848,143.198257 L195.919518,144.381722 L195.874,144.676469 L196.823533,147.80713 L196.839203,148.399982 L196.557515,150.812058 L196.194491,153.949062 L195.938173,156.135786 L195.996003,158.210954 L196.085546,161.308783 L197.253341,161.308783 L197.313783,161.300202 L197.551446,161.308783 L197.580175,161.710236 L197.789109,161.841566 L198.356591,161.886711 L199.504239,162.52135 L202.795332,164.343185 L206.085679,166.168378 L212.666746,169.818018 L215.957466,171.64918 L219.245201,173.474 L222.53219,175.299193 L225.823283,177.124013 L229.113257,178.945848 L232.397634,180.770295 L235.687981,182.595861 L238.978701,184.430008 L242.269048,186.251097 L248.850115,189.90111 L252.141208,191.736004 L253.404516,192.43183 L253.642179,192.803436 L253.911555,194.461854 L254.251074,196.527322 L253.971997,196.546723 L253.821266,196.678053 L253.766793,196.889226 L253.789552,197.161961 L253.500775,197.17875 L253.135139,197.37388 L252.79189,197.642883 L252.571016,197.897336 L252.493785,198.024562 L252.416927,198.204768 L252.378125,198.38087 L252.404241,198.538317 L252.513186,198.649873 L252.763161,198.678975 L252.843377,198.797993 L252.782562,199.051326 L252.660559,199.349431 L252.705331,199.560604 L253.436229,199.516206 L253.763436,199.54195 L254.087284,199.628508 L254.379793,199.766927 L254.591339,199.96243 L254.706999,200.20569 L254.973018,201.145896 L255.127107,201.450343 L255.335295,201.72942 L256.172153,202.326376 L257.480979,203.255389 L258.786074,204.195222 L260.0949,205.138412 L261.403726,206.078245 L262.711806,207.008004 L264.020259,207.948209 L265.325354,208.887669 L266.637538,209.827502 L267.942633,210.757261 L269.248101,211.697466 L270.559539,212.640284 L271.865007,213.579743 L273.173833,214.519576 L274.481913,215.449335 L275.790739,216.38954 L277.099192,217.329 L277.147322,217.265573 L277.198436,217.245799 L277.252908,217.236099 L277.317081,217.216698 L277.618544,216.995824 L277.900979,216.566016 L278.227812,216.248137 L278.677394,216.379467 L278.766938,216.154862 L278.783354,216.071661 L279.151974,216.520871 L279.735872,216.668617 L280.248508,216.58467 L280.402597,216.379467 L280.165307,216.045545 L280.133594,215.914587 L280.178366,215.700056 L280.274625,215.689983 L280.380211,215.74744 L280.456696,215.757886 L280.582057,215.523208 L280.671601,215.292261 L280.783903,215.076983 L280.979779,214.920283 L281.037982,215.141156 L280.986495,215.587381 L281.082754,215.869816 L281.608448,214.295344 L281.656578,214.230425 L281.87484,214.034922 L281.92297,213.942394 L281.909911,213.755845 L281.929312,213.673018 L282.0543,213.503258 L282.18563,213.364839 L282.320692,213.355138 L282.45538,213.560715 L282.625512,213.121206 L283.128821,211.251242 L283.616086,210.003977 L284.385786,208.701493 L284.443989,208.329888 L284.142527,208.050811 L283.603774,207.893364 L283.096361,207.928435 L282.87213,208.227286 L282.80833,208.069839 L282.775871,207.919108 L282.769155,207.594886 L282.827358,207.492657 L282.962046,207.473629 L283.13479,207.482584 L283.292237,207.482584 L283.77316,207.371028 L283.917549,207.248652 L284.033209,206.969575 L283.625787,206.877047 L283.443342,206.8028 L283.292237,206.662142 L283.46237,206.523723 L283.64183,206.552825 L284.033209,206.764744 L284.302959,206.543124 L284.321987,206.748701 L284.2899,207.101278 L284.39586,207.287081 L284.514505,207.371028 L284.617107,207.713531 L284.76448,207.80009 L284.898795,207.723605 L285.033857,207.55683 L285.143174,207.371028 L285.18123,207.232608 L285.232718,207.130007 L285.556566,206.764744 L285.59798,206.504695 L285.431205,206.431195 L285.091687,206.450596 L284.937597,206.308446 L284.866709,206.171519 L284.815968,206.030115 L284.712993,205.873414 L284.655163,205.721937 L284.751422,205.604038 L285.091687,205.417489 L285.088329,205.936841 L285.399119,206.171519 L285.835643,206.094288 L286.23038,205.721937 L287.464587,202.326376 L287.497046,201.85105 L287.458617,201.620103 L287.358627,201.386171 L287.189241,201.264541 L286.656831,201.479445 L286.441927,201.415272 L286.377754,201.238424 L286.563183,201.013819 L286.252393,201.023147 L286.069202,200.882489 L286.027788,200.651542 L286.143449,200.372465 L286.303881,200.50081 L286.290822,200.558267 L286.23038,200.69594 L286.63743,200.725415 L286.71093,200.74407 L286.913522,200.96569 L286.983291,201.013819 L287.317213,201.161939 L287.448917,201.136195 L287.641062,200.959347 L287.81791,200.603412 L287.977969,199.731483 L288.388376,199.07707 L288.702897,198.25924 L288.971901,197.822716 L288.940187,197.730188 L288.882357,197.642883 L288.856614,197.559683 L288.94653,197.188077 L288.958842,197.049658 L288.956231,196.834754 L288.985332,196.629924 L289.107335,196.482177 L289.379696,196.415019 L289.350595,196.629924 L289.18382,197.207105 L289.064802,197.467154 L289.337536,197.42201 L289.543486,197.261578 L289.915464,196.834754 L290.113952,196.697081 L290.851193,196.360174 L291.072813,196.219516 L291.249661,196.032968 L291.386961,195.812467 L291.479862,195.577789 L291.486578,195.289011 L291.31943,194.741304 L291.329504,194.535727 L291.85184,193.791771 L291.948846,193.531349 L292.012272,192.759037 L292.095846,192.572488 L292.413352,192.143426 L292.955463,191.642729 L293.074108,191.456927 L293.058438,191.286421 L292.743917,191.521099 L292.423053,191.559529 L292.236877,191.379696 L292.320824,190.972273 L291.993617,190.729013 L292.032047,190.23839 L292.320824,189.259756 L292.336494,189.128052 L292.390593,188.897478 L292.374923,188.794876 L292.147334,188.486697 L292.118232,188.375141 L292.185763,188.114346 L292.641315,187.547238 L292.923003,186.90551 L293.058438,186.690979 L293.237898,186.505177 L294.00424,185.88882 L294.456807,185.609743 L294.838486,185.491098 L295.476483,185.032561 L297.028941,184.548653 L297.528892,184.494181 L298.01653,184.60611 L298.472083,184.810941 L298.939947,184.913916 L299.472357,184.718413 L300.408832,183.608821 L301.121075,183.310716 L301.59864,182.976794 L302.018747,182.556313 L302.19858,182.203736 L302.095979,181.989578 L301.659828,181.709754 L301.563568,181.488881 L301.66617,181.318375 L301.694899,181.219131 L301.621399,181.180702 L301.493053,181.132573 L301.412837,181.024001 L301.37105,180.882597 L301.364707,180.751267 L301.679229,180.921399 L301.999719,180.641949 L302.345954,180.231915 L302.730991,180.026338 L302.948879,179.981194 L303.058197,179.942392 L303.038796,179.914036 L303.195497,179.971866 L303.208928,180.035666 L303.186543,180.109539 L303.246984,180.231915 L303.616351,180.622548 L303.82827,180.760967 L304.094289,180.853496 L303.593965,181.107202 L303.641722,181.273977 L303.981986,181.209804 L304.360307,180.744924 L304.533051,180.352799 L304.507681,180.183786 L304.360307,179.971866 L304.167789,179.830462 L303.978629,179.820762 L303.808496,179.849863 L303.674181,179.802107 L303.48129,179.420055 L303.385404,178.836531 L303.359287,177.717238 L303.31153,177.62471 L303.198855,177.59822 L303.086552,177.560537 L303.038796,177.412417 L303.070882,177.325859 L303.211913,177.242658 L303.246984,177.140056 L303.198855,176.899408 L303.06454,176.72256 L302.866052,176.674431 L302.618688,176.777032 L302.660102,176.59123 L302.61533,176.386399 L302.512728,176.155452 L302.698904,175.940548 L302.839935,175.998005 L302.980966,176.164779 L303.141398,176.24798 L303.420475,176.462884 L303.706267,177.40309 L303.988329,177.614263 L304.315536,177.206841 L304.379335,175.420823 L304.921446,175.001088 L304.690126,175.343592 L304.626326,175.53014 L304.665128,175.745045 L304.674455,175.920774 L304.527455,176.350955 L304.511039,176.572202 L304.578196,176.796806 L304.677813,176.937464 L304.822202,177.040066 L305.027406,177.140056 L305.268054,177.159084 L305.431843,176.982609 L305.591902,176.777032 L306.008652,176.610258 L306.310115,176.277082 L306.499648,176.155452 L306.630606,176.164779 L307.230546,176.312153 L307.676398,176.350955 L307.817429,175.998005 L307.875259,175.632369 L308.183064,175.318221 L308.202465,175.642443 L308.372598,175.818172 L308.638616,175.847273 L308.927394,175.734971 L309.158341,176.023748 L309.475474,175.828245 L310.024301,175.16749 L310.896229,174.378015 L311.226794,174.173558 L311.300667,173.903808 L311.852478,173.07292 L313.019527,171.883112 L313.071015,170.6157 L313.019527,170.328042 L312.833352,169.99412 L312.243111,169.230762 L311.473784,168.243173 L310.697368,167.258569 L309.158341,165.272944 L307.612225,163.29105 L306.829467,162.277344 L306.066482,161.308783 L305.681819,160.808832 L305.290439,160.305524 L304.899433,159.801842 L304.507681,159.29816 L304.494996,158.146782 L304.481937,157.075619 L304.466267,155.995128 L304.443508,154.349768 L304.424107,152.691723 L304.398736,151.042632 L304.379335,149.387945 L304.366277,148.364911 L304.353965,147.338893 L304.334564,146.09424 L304.334564,108.027848 L304.315536,105.969096 L304.296135,104.00623 L304.289792,103.195116 L304.507681,102.768665 L305.033748,102.255283 L306.291087,101.016973 L307.554768,99.779035 L308.811361,98.5351279 L310.072057,97.2971904 L310.864143,96.1678243 L311.656229,95.0421891 L312.449061,93.9068534 L313.241147,92.7812182 L314.527214,90.9504288 L315.813281,89.1252358 L317.099348,87.2903423 L318.382431,85.4558219 L317.628401,85.8856302 Z M306.707837,177.226615 L306.245569,177.075883 L305.835535,177.046782 L305.652344,177.252359 L305.521387,177.560537 L305.206866,177.717238 L304.844588,177.829167 L304.562526,177.980272 L304.360307,178.323521 L304.174132,178.807056 L304.174132,179.150306 L304.511039,179.076805 L304.543125,179.263354 L304.610283,179.413339 L304.732659,179.506614 L304.921446,179.506614 L304.979276,179.346555 L304.860258,179.24358 L304.696841,179.140978 L304.616998,179.031661 L304.658412,178.817503 L304.761014,178.685426 L304.896075,178.666771 L305.033748,178.769373 L305.604214,178.471268 L305.880307,178.377248 L306.079168,178.352623 L306.098569,178.387321 L306.149683,178.454479 L306.233257,178.528725 L306.342574,178.557454 L306.435476,178.537679 L306.476889,178.499624 L306.505991,178.464925 L306.554121,178.445151 L306.650007,178.397022 L306.707837,178.268676 L306.733581,178.089589 L306.71791,177.922442 L306.926099,178.259349 L307.207787,178.201519 L307.32009,177.887744 L307.021985,177.40309 L306.707837,177.226615 Z" id="Fill-3"></path>
        </g>
    </g>
</svg>