
<svg width="111px" height="116px" viewBox="0 0 111 116" version="1.1" xmlns="http://www.w3.org/2000/svg" xmlns:xlink="http://www.w3.org/1999/xlink">
    <!-- Generator: Sketch 51.2 (57519) - http://www.bohemiancoding.com/sketch -->
    <desc>Created with Sketch.</desc>
    <defs></defs>
    <g id="Page-1" stroke="none" stroke-width="1" fill="none" fill-rule="evenodd">
        <g id="KN-EPS-01-0001" transform="translate(-270.000000, -176.000000)" fill="#7F807C">
            <path d="M379.855254,272.394791 L379.855254,271.213556 L379.572423,270.927644 L379.564413,267.677863 L379.281582,267.392567 L379.281582,266.781924 L378.998751,266.496628 L378.998751,265.314161 L378.717152,265.009147 L378.726395,262.36015 L378.443564,262.055137 L378.443564,260.873286 L378.141632,260.281744 L377.720158,260.144334 L377.596921,259.691435 L377.174215,259.553409 L376.185847,258.5102 L376.185847,257.918659 L375.056373,256.736192 L375.056373,256.145882 L374.631818,255.721328 L373.786407,255.712701 L373.504808,255.406455 L371.801661,255.406455 L370.126243,254.530234 L369.402221,253.79204 L369.11939,252.895485 L368.132255,251.860287 L366.446361,251.565748 L366.145661,251.260119 L365.60095,251.565748 L364.189877,251.565748 L363.907046,251.279837 L361.922301,251.270594 L360.810695,251.860287 L360.236407,251.860287 L359.954809,252.166533 L356.276775,252.156058 L355.570006,252.885626 L355.871939,254.087811 L355.01482,254.67812 L355.01482,255.269045 L353.594504,256.727565 L353.594504,257.031962 L353.311673,257.337592 L353.594504,257.928518 L353.311673,258.214429 L353.311673,259.110369 L351.053956,261.769225 L351.053956,262.340432 L350.206696,264.132926 L350.224565,265.009147 L349.915239,265.314161 L349.915239,265.906319 L349.65151,266.190998 L349.642267,270.032321 L349.923865,270.336719 L349.943583,273.005434 L349.642267,273.29073 L349.642267,273.882271 L349.361284,274.186669 L349.349577,276.826423 L348.231194,278.312055 L348.523267,278.618301 L348.512792,279.494522 L349.65151,280.389845 L350.206696,281.551978 L350.206696,282.448533 L351.336171,283.629152 L351.336171,284.219461 L351.901832,285.096298 L351.901832,286.277533 L352.74786,286.868458 L352.888967,287.310882 L353.171798,287.310882 L355.852837,290.126866 L355.992712,290.550188 L357.13143,290.855202 L357.979306,291.45537 L358.543735,291.45537 L358.825334,291.761 L360.519238,291.741282 L361.074424,291.150357 L362.223001,291.150357 L362.48673,290.855202 L363.051159,290.855202 L364.75369,289.388056 L366.738435,289.093517 L367.284379,288.501976 L369.259881,288.501976 L370.68143,287.617128 L373.212735,287.026202 L373.513435,287.310882 L374.624424,287.321357 L375.188237,287.036061 L377.606163,284.801143 L377.579051,284.210834 L377.888378,283.924306 L377.888378,283.028983 L378.726395,280.961669 L378.726395,280.389845 L379.292057,279.779818 L379.553937,278.597351 L379.844779,278.312055 L379.844779,276.549754 L379.564413,275.939111 L379.844779,275.654431 L379.844779,274.77821 L380.420299,273.576025 L379.855254,272.394791 Z M348.945973,243.88187 L349.230036,244.778425 L350.931334,244.778425 L351.053956,243.743843 L350.206696,242.561992 L350.912233,241.518168 L351.193831,241.518168 L352.474888,240.177956 L352.455786,238.720053 L351.911075,237.537586 L350.339177,235.616308 L349.510402,235.616308 L347.525657,234.433841 L347.102951,234.877497 L346.817656,236.059348 L345.840996,236.50362 L345.417058,236.059348 L345.708515,235.162793 L345.116357,234.592202 L345.116357,234.286572 L343.723154,233.089316 L343.723154,232.818193 L342.736019,231.773136 L341.324945,231.773136 L340.901007,231.034942 L340.901007,230.4434 L340.478918,229.69473 L339.056753,228.817893 L338.190391,227.635426 L337.625962,227.330412 L336.771307,227.330412 L336.487244,227.045117 L335.378104,226.4431 L334.108138,225.122607 L333.947929,223.772536 L332.263884,223.772536 L332.132635,223.348598 L331.839946,223.044201 L331.849188,220.392739 L332.132635,220.087109 L331.707465,219.357541 L331.284759,219.19117 L331.284759,218.61873 L331.56759,218.027188 L331.144884,217.584148 L329.733195,216.992607 L329.027042,215.948166 L329.027042,213.868528 L326.19442,210.62614 L325.629991,208.556977 L325.065562,207.678908 L325.065562,207.087366 L324.501749,206.496441 L324.501749,205.904899 L323.936087,205.313357 L323.936087,205.008344 L321.536647,202.494292 L321.273534,202.494292 L319.711494,200.887271 L319.569155,200.414037 L319.147681,200.276011 L318.56415,199.112646 L318.56415,198.502618 L318.01759,198.215474 L318.01759,197.910461 L317.735376,197.624549 L317.71689,197.033007 L317.172179,196.727378 L317.172179,196.137068 L316.174568,195.091395 L315.891121,195.091395 L314.903986,194.075299 L314.479432,193.316154 L313.634021,193.316154 L312.664755,192.300675 L312.664755,191.709133 L312.232806,191.256234 L310.819268,190.664692 L310.255455,190.072535 L309.398952,190.072535 L308.269478,189.195081 L307.140003,188.60354 L306.586049,188.60354 L306.001285,188.011998 L305.174976,187.726086 L303.894535,186.681029 L303.470596,185.931743 L302.625185,185.646448 L300.780931,183.703603 L299.811665,182.095966 L298.39936,181.504424 L297.260642,181.504424 L295.56797,180.321341 L295.012784,180.321341 L294.447122,179.730416 L293.027422,179.730416 L291.898564,180.311482 L291.351388,180.02557 L289.366643,177.077105 L286.816852,177.067246 L286.53587,176.761 L284.851825,177.067246 L282.583632,178.536857 L281.162084,178.536857 L280.897739,178.841871 L280.61614,178.555959 L279.2063,178.5461 L277.783519,179.423553 L276.955977,179.423553 L276.786525,179.877069 L276.100706,180.321341 L274.819649,181.356539 L274.255836,182.540238 L273.259458,183.555718 L272.411582,183.861348 L271.725147,184.600775 L271.725147,184.907021 L270.868028,186.079629 L270.868028,186.670554 L270.585197,186.977416 L270.585197,189.649213 L270.304831,189.935124 L270.304831,190.811962 L270.585197,191.118208 L270.585197,191.995661 L270.022,192.882973 L270.022,193.473899 L270.746022,194.23366 L272.995729,195.396409 L273.982864,196.431607 L274.529424,197.615306 L275.968842,199.694945 L275.957134,201.163323 L276.655276,202.197905 L277.219089,202.197905 L278.489055,203.243578 L278.489055,203.83512 L279.486666,204.870317 L280.052943,204.870317 L281.444915,206.338696 L281.745615,206.338696 L282.027213,206.929622 L283.713107,207.826793 L284.276304,207.826793 L284.840733,208.418335 L286.262898,208.70363 L288.220531,209.886713 L288.793587,209.886713 L289.358016,210.478255 L290.20466,210.764783 L290.769089,211.375426 L291.907807,211.660722 L293.742818,213.29732 L294.005315,214.784801 L295.144032,215.948166 L295.444733,216.845338 L295.869903,217.288994 L296.414614,217.288994 L296.695597,217.574906 L297.544705,217.574906 L299.246004,218.472077 L300.657693,219.939223 L302.060756,220.225751 L302.905551,220.845638 L304.609314,220.54124 L305.174976,221.132166 L309.116738,221.112448 L309.398952,221.417461 L310.819268,221.417461 L311.366444,222.009619 L311.948127,222.018246 L312.212472,222.325108 L312.495303,222.018246 L313.65189,222.018246 L313.915619,222.325108 L314.762263,222.325108 L315.61815,221.12169 L316.183811,221.12169 L316.46541,220.817293 L322.109702,220.82592 L322.534257,221.280051 L322.534257,221.870976 L323.0802,222.767532 L323.926844,223.635126 L323.926844,223.950615 L324.520851,224.236527 L324.641624,224.679567 L325.207285,224.679567 L325.488884,224.964862 L327.757076,224.964862 L328.038675,225.270492 L329.733195,225.280967 L330.418397,226.009919 L330.842952,226.74873 L331.125166,226.74873 L331.698838,227.340271 L333.109911,227.625567 L333.956555,228.216492 L334.530227,228.216492 L336.225364,229.093946 L338.633431,231.320237 L338.633431,231.626483 L339.481924,232.50332 L339.481924,233.113964 L339.76229,233.399259 L339.772149,235.173268 L340.06299,235.45918 L340.05498,236.050105 L340.318708,236.355735 L339.489318,237.527727 L339.489318,238.424282 L340.05498,238.995489 L340.05498,240.483586 L339.772149,240.7886 L339.76229,241.379525 L338.492324,242.700019 L337.777544,242.838045 L338.041273,244.325526 L338.793024,244.778425 L339.498561,245.222081 L339.498561,246.098918 L339.754279,246.383598 L339.754279,247.586399 L339.207103,248.177324 L340.194854,249.496585 L342.30407,249.358559 L342.585668,248.76825 L342.30407,248.158222 L342.31208,245.517236 L343.300448,244.7889 L344.12799,244.7889 L345.144702,245.803147 L345.287042,246.256663 L346.113351,246.256663 L346.255075,244.916451 L346.679013,244.48327 L347.242826,244.48327 L348.099329,243.88187 L348.381544,243.59719 L348.945973,243.88187 Z" id="Fill-3"></path>
        </g>
    </g>
</svg>