
<svg width="77px" height="116px" viewBox="0 0 77 116" version="1.1" xmlns="http://www.w3.org/2000/svg" xmlns:xlink="http://www.w3.org/1999/xlink">
    <!-- Generator: Sketch 51.2 (57519) - http://www.bohemiancoding.com/sketch -->
    <desc>Created with Sketch.</desc>
    <defs></defs>
    <g id="Page-1" stroke="none" stroke-width="1" fill="none" fill-rule="evenodd">
        <g id="KR-EPS-01-0001" transform="translate(-244.000000, -121.000000)" fill="#7F807C">
            <path d="M320.45499,176.836707 L320.394458,176.480892 L320.245071,176.320252 L319.896628,176.604671 L318.789993,177.807535 L318.503634,177.958475 L318.070603,178.006977 L317.670554,177.892123 L317.353153,177.585587 L317.204153,177.16342 L317.282145,176.691587 L317.396999,176.597686 L317.565012,176.530947 L317.742726,176.444418 L317.880861,176.255452 L317.953809,175.927187 L317.859132,175.803408 L317.7144,175.710283 L317.586741,175.148817 L317.492064,174.420891 L317.396999,174.311857 L317.282145,174.232313 L317.175827,174.039466 L317.11064,173.694904 L317.18708,171.097882 L317.282145,170.67688 L317.492064,170.303992 L318.030637,169.662206 L318.136566,169.256724 L318.240556,167.424879 L318.147819,166.535924 L317.913455,165.649297 L317.807913,164.772758 L318.136566,163.888847 L318.525363,163.139191 L318.703077,162.315035 L318.662334,161.426468 L318.081856,159.601607 L317.924319,158.702951 L317.764455,156.774877 L317.636796,156.099721 L317.648825,155.889414 L317.742726,155.655437 L317.913455,155.411372 L318.019384,155.160323 L317.946048,154.90617 L317.059033,153.661787 L316.733096,152.760416 L316.487867,151.116372 L316.223625,150.355852 L315.378128,149.435079 L315.262886,149.100605 L315.200414,148.762251 L315.029685,148.424673 L314.567165,147.834882 L313.76435,146.282799 L313.541238,146.049599 L313.269236,145.892839 L313.048452,145.501326 L312.542085,143.85767 L312.360492,143.484395 L311.748971,143.147981 L311.632953,142.692832 L311.632953,142.153484 L311.581346,141.710364 L310.683466,140.655336 L310.493724,140.4978 L309.14186,139.012069 L308.025525,137.376562 L305.122355,133.246858 L304.889542,132.60352 L304.268321,131.832523 L304.063835,131.482917 L302.875715,128.319773 L301.343422,125.290108 L300.922032,124.224215 L300.761391,123.52539 L299.951204,121.912 L299.917834,121.933341 L298.840689,122.460661 L298.979212,123.136205 L298.957871,123.358153 L298.862418,124.308415 L298.546957,125.250141 L298.125179,126.006006 L297.637825,126.711039 L296.582409,127.809913 L295.306209,128.635233 L293.934556,129.130348 L292.604422,129.235113 L290.821855,129.130348 L289.606574,129.384501 L288.981085,129.228129 L288.530981,128.770265 L288.476658,128.697705 L285.595605,128.952246 L284.496731,129.268483 L283.832051,129.330954 L282.175979,128.83584 L280.04497,129.003465 L279.568481,128.952246 L278.61977,129.057788 L277.615573,129.468702 L276.623016,130.07867 L275.8008,130.767795 L275.651024,130.944732 L275.052309,132.422703 L274.576207,132.974468 L273.880486,133.512653 L273.698117,133.691142 L272.18212,136.01655 L271.262123,136.7437 L270.756144,136.939263 L270.840733,138.364462 L270.258702,139.420267 L270.280043,139.630574 L270.440684,139.980956 L270.514019,140.30767 L270.429431,140.772906 L270.135311,141.542739 L271.134464,142.271054 L271.461566,142.609796 L271.039399,142.576038 L270.367736,142.293559 L269.836923,141.848888 L269.836923,141.343297 L269.931601,141.055385 L269.963806,140.649516 L269.92384,140.234334 L269.836923,139.980956 L269.602947,139.822256 L269.385267,139.863386 L269.13189,139.993761 L268.813325,140.056232 L267.864227,139.717878 L267.63219,139.760561 L267.567391,140.056232 L267.809904,141.848888 L267.999646,142.53258 L268.297258,142.976476 L268.709724,142.90314 L268.731453,143.013726 L268.75357,143.041275 L268.75939,143.070377 L268.709724,143.201527 L269.403892,143.419983 L269.700728,144.141313 L269.847012,145.027941 L270.135311,145.732586 L269.836923,145.859469 L269.531551,145.839292 L269.27895,145.859469 L269.175348,146.132635 L269.65727,146.937002 L269.847012,147.515153 L269.985923,147.642812 L270.502767,147.727012 L271.189175,147.957884 L271.389782,148.06847 L271.400647,148.518962 L270.914069,148.869345 L270.68048,149.100605 L271.444105,149.185194 L271.567495,149.279095 L271.83329,149.755972 L272.043985,149.911568 L272.328404,149.94455 L273.120742,149.761792 L273.077284,149.857633 L273.025677,150.123039 L272.982219,150.229745 L273.142859,150.272427 L273.275562,150.355852 L273.38188,150.493599 L273.469573,150.672865 L273.077284,150.722919 L272.815758,150.566159 L272.570529,150.525805 L272.28805,150.970476 L272.192985,151.432221 L272.105292,151.633216 L271.928743,151.704999 L271.760342,151.624679 L271.673425,151.443086 L271.654024,151.209109 L271.673425,150.970476 L271.411511,151.095807 L271.178311,151.022471 L270.946274,150.883172 L270.672332,150.810224 L270.334366,150.89326 L270.146176,150.904901 L270.018905,150.810224 L269.902111,150.915765 L269.858265,150.948747 L269.774452,150.970476 L269.92384,151.243255 L270.041022,151.527286 L270.151996,151.758934 L270.312637,151.853999 L270.778262,151.792304 L270.82948,151.86564 L270.617621,152.148507 L270.440684,152.257153 L270.207483,152.330489 L269.985923,152.454267 L269.902111,152.681259 L269.952942,152.974603 L270.112418,153.026598 L270.617621,152.912132 L270.367736,153.268335 L270.258702,153.469717 L270.258702,153.661787 L270.367736,153.778194 L270.55709,153.785178 L270.756144,153.712618 L270.914069,153.584571 L271.537618,152.912132 L271.866271,152.681259 L272.28805,152.468624 L272.277185,152.730926 L272.371862,152.898551 L272.527846,152.992452 L272.761047,153.048327 L273.120742,152.730926 L273.364807,152.602879 L273.469573,152.681259 L273.436203,153.081309 L273.343466,153.225264 L272.875901,153.353311 L272.454899,153.563618 L272.255068,153.639282 L271.983066,153.661787 L271.855407,153.796819 L271.673425,154.683446 L272.043985,154.683446 L271.928743,154.934883 L271.610954,155.21193 L271.461566,155.422237 L272.265933,155.665914 L272.592646,155.582101 L272.875901,155.126953 L272.931,155.516526 L273.088148,155.677167 L273.259265,155.589862 L273.343466,155.21193 L273.375672,154.862711 L273.469573,154.512329 L273.615856,154.316378 L273.814523,154.412607 L273.680268,154.978341 L273.857981,155.399732 L274.091958,155.77262 L274.164905,156.182369 L274.018622,156.066351 L273.847505,156.003492 L273.659703,155.988747 L273.469573,156.025997 L273.626333,156.149388 L273.698117,156.182369 L273.698117,156.315848 L272.516982,156.315848 L272.89763,157.007689 L273.509927,157.603689 L274.197111,158.008006 L274.775262,158.092207 L275.179967,157.954072 L275.306074,157.8074 L275.251363,157.13108 L275.400751,156.909908 L276.445303,156.625877 L276.401844,156.87615 L276.288154,156.952978 L276.127902,156.972767 L275.884613,157.110515 L275.8008,157.101978 L275.706123,157.110515 L275.612998,157.203252 L275.640548,157.247874 L275.811665,157.415887 L275.844647,157.509788 L275.7166,158.040988 L275.53617,158.251295 L275.272704,158.375074 L274.713179,158.798016 L273.953046,159.096016 L273.637585,159.144907 L273.275562,159.305547 L273.469573,159.676495 L274.059364,160.33225 L273.691908,160.28918 L273.343466,160.182474 L273.479661,160.721047 L273.392744,161.036895 L273.226284,161.322479 L273.120742,161.810221 L272.970966,161.743481 L272.875901,161.660445 L272.815758,161.532398 L272.761047,161.353908 L273.047794,161.260007 L273.088148,161.065997 L272.948849,160.394333 L272.794029,160.139792 L272.761047,159.962854 L272.772299,159.793289 L272.85456,159.495677 L272.875901,159.371899 L272.832831,158.746022 L272.761047,158.430561 L272.633388,158.251295 L272.454899,158.281173 L272.127409,158.702951 L271.928743,158.840699 L272.192985,157.902077 L272.170868,157.448093 L271.81156,157.066668 L271.472818,157.101978 L270.935022,157.575363 L270.851209,157.437616 L270.788738,157.182299 L270.55709,156.869942 L270.502767,156.699213 L270.451548,156.594059 L270.345619,156.826096 L270.195843,157.279692 L270.068184,157.428304 L269.847012,157.603689 L269.719741,157.736004 L269.6142,157.92497 L269.563757,158.104236 L269.490809,158.272248 L269.309215,158.397191 L269.363538,158.040988 L269.352286,157.836889 L269.175348,157.509788 L269.141979,157.353028 L269.153231,157.203252 L269.141979,157.066668 L269.065926,156.909908 L268.971249,156.836572 L268.709724,156.743447 L268.581677,156.625877 L268.242547,156.055099 L267.886344,155.632544 L267.63219,155.422237 L267.355532,155.285266 L267.039683,155.294966 L267.376873,155.643797 L267.599985,156.469505 L267.926698,156.625877 L268.171151,156.688736 L268.297258,156.826096 L268.275528,156.972767 L268.116828,157.066668 L267.893716,157.066668 L267.716779,156.985572 L267.567391,156.855197 L267.295,156.509471 L267.115735,156.338354 L266.966347,156.315848 L266.905816,156.549825 L266.988464,156.616564 L268.053969,157.736004 L268.193268,157.954072 L268.337612,158.397191 L268.465659,158.557832 L268.465659,158.694803 L268.214609,158.680446 L268.08695,158.535714 L267.988781,158.324243 L267.875479,158.092207 L267.567391,157.758509 L267.355532,157.618822 L267.260855,157.736004 L267.189071,158.240819 L266.87167,159.274506 L266.799886,159.81269 L266.745175,159.918232 L266.617904,159.845284 L266.490246,159.644289 L266.438251,159.371899 L266.438251,158.397191 L266.481709,158.259832 L266.639634,158.085611 L266.672227,158.018871 L266.65011,157.870259 L266.577162,157.736004 L266.555433,157.587392 L266.481709,157.408515 L266.312532,157.393382 L266.111537,157.509788 L265.96215,157.660728 L265.847295,157.313838 L265.952061,157.066668 L266.12279,156.87615 L266.206603,156.699213 L266.079332,156.41363 L265.774348,156.310028 L265.129845,156.315848 L265.129845,156.476489 L265.203181,156.636742 L265.14071,156.710465 L264.991322,156.681364 L264.825249,156.549825 L264.656848,156.455924 L264.476031,156.486966 L264.297153,156.604536 L264.169494,156.774877 L264.486895,156.754312 L264.751525,156.826096 L264.876468,157.026314 L264.759286,157.363892 L264.519877,157.182299 L264.435288,157.257575 L264.486895,157.459733 L264.656848,157.660728 L264.876468,157.758509 L265.330452,157.758509 L265.490704,157.8074 L265.617199,158.163603 L265.551624,158.651345 L265.308723,159.051006 L264.897809,159.144907 L264.897809,159.28537 L265.22491,159.423118 L265.37391,159.446011 L265.37391,159.583758 L265.023528,159.66175 L264.835726,159.738966 L264.759286,159.81269 L264.686338,160.044727 L264.519877,159.939961 L264.23119,159.583758 L264.042223,159.793289 L264.180359,160.277539 L264.541218,161.059789 L264.032911,160.710182 L263.809799,160.721047 L263.526156,160.986841 L263.399273,161.04776 L263.304208,160.933294 L263.25299,160.732687 L263.230872,160.543721 L263.292956,160.487846 L263.609192,160.28918 L263.70387,160.182474 L263.687185,160.099438 L263.581255,159.779321 L263.581255,159.583758 L263.687185,159.390912 L263.853257,159.211646 L263.959575,159.007548 L263.747328,158.441813 L263.665067,157.96804 L263.652651,157.502416 L263.70387,157.203252 L263.304208,157.330522 L263.219232,157.859395 L263.260362,158.513985 L263.230872,159.001339 L263.126495,159.20117 L262.999612,159.274506 L262.577058,159.28537 L262.332993,159.233764 L262.294191,159.08554 L262.394688,158.557832 L261.973298,158.718472 L261.679566,158.958269 L261.646196,159.255493 L262.04935,159.583758 L261.761438,160.044727 L261.783167,160.309745 L262.071079,160.433135 L262.51187,160.465341 L262.376839,160.721047 L262.177396,160.776534 L261.679566,160.623265 L261.856115,160.966664 L262.04935,161.216161 L261.889485,161.182791 L261.761438,161.142825 L261.646196,161.132736 L261.562772,161.216161 L261.434337,161.036895 L261.33966,160.870823 L261.268264,160.677588 L261.213941,160.465341 L261.15147,160.739672 L261.056017,160.944158 L260.612897,161.502908 L260.56129,161.64958 L260.602033,162.177288 L260.580692,162.714309 L260.645491,162.88465 L260.846098,162.703832 L260.950863,162.44929 L260.99471,161.909942 L261.089387,161.660445 L261.311722,161.836606 L261.594977,161.924299 L261.856115,162.063598 L262.04935,162.397296 L262.04935,162.726337 L261.867368,162.840803 L261.15147,162.840803 L261.067657,162.928884 L261.100251,163.126386 L261.162334,163.327769 L261.213941,163.430983 L261.426965,163.548553 L261.60623,163.53924 L261.783167,163.466293 L261.984162,163.430983 L262.311264,163.30798 L262.7765,162.726337 L263.104766,162.547072 L263.230872,163.139191 L263.07256,163.548553 L263.587075,164.382797 L263.347667,164.911281 L263.410138,165.038552 L263.453208,165.182508 L263.471833,165.343536 L263.471833,165.503789 L263.620445,165.278737 L263.809799,165.088995 L264.032911,164.96638 L264.297153,164.911281 L264.003033,164.522097 L263.981304,164.338951 L264.169494,164.180638 L264.054252,163.824436 L263.736851,163.314188 L263.581255,162.987475 L263.97044,162.980491 L264.097322,162.726337 L264.136513,162.375955 L264.297153,162.103564 L264.580408,162.049241 L264.77015,162.275069 L264.930791,162.601395 L265.129845,162.840803 L264.985114,163.126386 L264.759286,164.309461 L265.023528,164.233797 L265.129845,164.17249 L265.247028,164.034743 L265.37391,164.180638 L265.573741,163.87449 L265.984267,163.022785 L266.01686,162.840803 L265.952061,162.769019 L265.945077,162.620408 L266.006384,162.464035 L266.279938,162.347629 L266.522839,162.081447 L266.672227,161.953788 L266.723446,162.143918 L266.799886,162.275069 L267.039683,162.547072 L266.672227,162.776004 L266.827824,163.103881 L267.39899,163.718506 L267.260855,163.773217 L266.905816,164.034743 L267.166954,164.151925 L267.316342,164.318386 L267.366396,164.562063 L267.421107,165.195312 L267.410243,165.270588 L266.977211,165.205013 L266.672227,165.278737 L266.522839,165.467315 L266.490246,165.754838 L266.555433,166.092416 L266.639634,166.398952 L266.723446,166.525835 L266.893399,166.544072 L267.210412,166.544072 L267.260855,166.660478 L267.105258,166.925496 L266.734311,167.348827 L266.723446,167.590952 L266.827824,167.991389 L266.988464,168.391826 L267.156089,168.604074 L267.431584,168.550915 L267.809904,167.991389 L268.053969,167.853642 L269.065926,167.853642 L268.742317,168.024759 L267.875479,168.733284 L267.366396,168.943592 L267.200323,169.141482 L267.260855,169.48294 L267.039683,169.48294 L267.039683,169.628836 L267.178206,169.755331 L267.388125,169.999396 L267.50492,170.083208 L268.076086,170.083208 L268.348864,170.156156 L268.465659,170.442903 L268.297258,170.660195 L267.527037,170.849937 L267.260855,171.097882 L267.537513,171.232913 L268.264664,171.464562 L268.465659,171.697762 L268.203357,171.866163 L267.988781,172.308506 L267.63219,173.312316 L267.738508,173.46248 L267.875479,173.595183 L267.970544,173.651058 L268.105575,173.577334 L268.22043,173.595183 L268.413664,173.746123 L268.559948,173.912196 L268.813325,174.33475 L268.297258,174.262966 L267.77731,174.420891 L267.305477,174.756141 L266.905816,175.212065 L267.02843,175.316054 L267.083141,175.349424 L267.156089,175.368049 L267.376873,175.138729 L267.798651,175.05414 L268.253799,175.084794 L268.581677,175.212065 L269.065926,175.876744 L269.192421,175.959393 L269.436486,176.066874 L269.542028,176.192981 L269.309215,176.3932 L269.468692,176.65589 L269.751947,177.037314 L269.902111,177.270126 L269.985923,177.540965 L270.018905,177.731483 L270.102718,177.884751 L270.375108,178.006977 L270.734415,177.847113 L271.123988,177.786582 L271.444105,177.628657 L271.738613,177.353939 L272.094815,177.114918 L273.469573,176.691587 L273.436203,176.99696 L273.088148,177.237144 L272.28805,177.563858 L271.643159,178.052376 L271.272988,178.230089 L270.978868,178.144725 L270.690569,178.31429 L269.912587,178.545162 L269.596739,178.578532 L269.363538,178.728308 L269.192421,179.062393 L269.088044,179.499305 L269.065926,179.899354 L269.202898,180.266809 L269.902111,180.055338 L270.650603,180.477505 L271.083246,180.45888 L272.350521,179.93932 L272.411052,179.899354 L272.614763,179.97269 L272.804893,180.132942 L272.887154,180.289315 L272.815758,180.364979 L272.570529,180.403781 L272.487104,180.510098 L272.454899,180.670739 L272.350521,180.859317 L272.192985,180.942741 L271.983066,180.953994 L271.006806,180.888418 L270.851209,180.932265 L270.701821,181.047895 L270.55709,181.249278 L270.514019,181.426603 L270.672332,181.51352 L271.006806,181.587244 L271.422376,181.753316 L271.81156,181.998157 L272.043985,182.251923 L272.084339,182.46417 L272.054073,182.713667 L271.999362,182.958508 L271.928743,183.129626 L271.738613,182.808733 L271.461566,182.735009 L270.788738,182.844042 L270.469785,182.939883 L270.385973,183.201021 L270.367736,183.539763 L270.258702,183.856 L269.730218,183.539763 L269.214538,183.687987 L267.39899,185.172942 L266.87167,185.499656 L266.65011,185.702978 L266.672227,185.893496 L266.566298,186.568652 L267.115735,186.809613 L269.719741,186.631124 L269.985923,186.781288 L270.146176,187.137103 L270.375108,187.941081 L270.135311,187.855717 L269.817522,187.464592 L269.542028,187.362155 L269.27895,187.434326 L268.930507,187.84524 L268.642596,187.941081 L268.065609,187.995404 L267.55963,188.151777 L267.094006,188.424943 L266.672227,188.824216 L266.027725,189.7997 L265.733217,190.420533 L265.605947,190.91914 L265.690147,191.147684 L266.261701,191.793738 L266.302056,191.952438 L266.154996,191.960199 L265.839923,191.86397 L265.595082,191.537644 L265.490704,191.435207 L265.096864,192.013746 L264.952132,192.341623 L264.897809,192.669113 L264.919926,192.817724 L264.985114,192.955084 L265.002187,193.091279 L264.952132,193.246875 L264.835726,193.37919 L264.718931,193.458347 L264.623866,193.566992 L264.541218,193.768763 L264.675473,193.78506 L264.740273,193.828906 L264.791879,193.880901 L264.897809,193.915823 L264.580408,193.995755 L264.223817,194.01826 L263.897104,194.084224 L263.70387,194.32208 L264.202088,194.32208 L264.435288,194.28289 L264.656848,194.199854 L264.623866,194.482721 L264.708067,194.649958 L264.897809,194.788869 L264.857455,194.978999 L264.77015,195.094241 L264.686338,195.183098 L264.656848,195.283596 L264.781403,195.5944 L265.363046,196.259079 L265.530283,196.7313 L265.646689,196.847319 L265.784436,196.920267 L266.111537,197.007571 L266.196126,197.14493 L266.206603,197.511998 L266.163144,197.851516 L265.723129,198.841357 L265.540371,198.652391 L265.4131,198.440919 L265.384775,198.208107 L265.490704,197.967534 L265.352569,197.89575 L265.056897,197.879842 L264.897809,197.818922 L264.686338,197.690875 L264.623866,197.628792 L264.601749,197.511998 L264.541218,197.226803 L264.476031,197.196537 L264.403083,197.226803 L264.329747,197.218266 L264.297153,197.101472 L264.318494,196.976141 L264.39183,196.775147 L264.443437,196.382858 L264.424812,196.184967 L264.297153,195.93935 L264.15863,196.426316 L264.032911,196.668053 L263.809799,196.804248 L263.67438,196.476759 L263.358531,196.310298 L263.009313,196.359965 L262.754771,196.6471 L262.819571,197.007571 L263.260362,197.596974 L263.104766,197.818922 L263.347667,198.146412 L263.598328,198.135159 L263.715122,197.862769 L263.581255,197.387055 L263.907968,197.501521 L264.213341,197.779344 L264.708067,198.462649 L264.835726,198.906156 L264.34876,199.378765 L264.403083,199.837018 L263.97044,199.748937 L263.78031,199.743117 L263.581255,199.837018 L263.665067,200.026372 L263.769445,200.184296 L263.897104,200.319327 L264.054252,200.426809 L263.981304,200.45591 L263.809799,200.572705 L264.032911,200.709288 L264.329747,200.818322 L264.645208,200.797757 L264.897809,200.572705 L264.886556,200.374814 L264.803132,200.128033 L264.77015,199.931307 L264.952132,199.837018 L265.078239,199.793559 L265.173692,199.688794 L265.28971,199.590236 L265.490704,199.549494 L265.923735,199.6562 L265.817806,199.837018 L265.490704,200.066726 L265.247028,200.287898 L265.213658,200.63828 L265.319975,201.04803 L265.51321,201.397636 L265.723129,201.568366 L265.501569,201.764704 L265.43483,201.925345 L265.490704,202.229941 L265.47984,202.39873 L265.445694,202.545401 L265.384775,202.695177 L265.247028,202.88492 L264.897809,203.244615 L264.77015,203.456086 L264.825249,203.678422 L265.002187,203.761846 L265.384775,203.64544 L265.605947,203.75137 L265.646689,203.435521 L265.796077,203.357529 L266.261701,203.467727 L266.490246,203.394003 L266.65011,203.256255 L266.799886,203.191456 L267.039683,203.30825 L266.966347,203.423104 L266.87167,203.64544 L266.799886,203.75137 L266.905816,203.83557 L266.905816,203.889505 L267.251542,203.856911 L267.442448,203.605474 L267.63219,202.88492 L267.842497,202.474782 L267.875479,202.441412 L267.842497,202.252058 L267.727255,201.903227 L267.749373,201.72435 L267.937951,201.460108 L268.203357,201.343314 L268.432677,201.416261 L268.581677,201.72435 L268.570812,201.947074 L268.497864,202.0693 L268.403187,202.177946 L268.337612,202.318409 L268.337612,202.534537 L268.392323,202.674224 L268.413664,202.82012 L268.337612,203.022667 L269.246744,202.935362 L269.636317,203.011414 L269.902111,203.30825 L269.719741,203.295833 L269.57501,203.328815 L269.309215,203.467727 L269.425234,203.728864 L269.014708,203.699375 L268.22043,203.467727 L267.798651,203.567836 L267.588732,203.846047 L267.55963,204.21583 L267.63219,204.616268 L267.548766,204.586778 L267.50492,204.551468 L267.461849,204.510726 L267.39899,204.456015 L267.126987,204.510726 L265.617199,204.278302 L265.4131,204.224755 L265.213658,204.21583 L265.002187,204.333401 L264.857455,204.605403 L264.857455,204.909999 L264.974249,205.089265 L265.551624,204.761387 L265.973402,204.817262 L266.417298,204.96471 L266.849941,205.050075 L267.166954,205.197522 L267.738508,205.924673 L268.116828,206.20172 L267.988781,206.358092 L268.508729,206.812852 L268.802849,207.002594 L269.175348,207.054201 L268.731453,207.285461 L268.309674,207.162847 L267.893716,206.907529 L267.50492,206.76823 L267.50492,206.914902 L267.716779,207.108136 L267.66556,207.263344 L267.442448,207.307191 L267.039683,207.002594 L266.460368,206.69761 L266.261701,206.641735 L266.206603,206.586636 L266.206603,206.452769 L266.217467,206.303769 L266.206603,206.20172 L266.163144,206.071345 L266.174009,205.991025 L266.163144,205.903332 L266.079332,205.764033 L266.027725,205.808655 L265.37391,205.627061 L265.247028,205.620853 L265.490704,205.764033 L265.213658,206.15865 L265.14071,206.367793 L265.129845,206.641735 L265.396027,206.485363 L265.562488,206.58004 L265.839923,207.054201 L266.206603,207.285461 L266.217467,207.497709 L266.261701,207.623427 L266.356378,207.679302 L266.555433,207.645157 L266.406045,208.012612 L266.206603,208.028909 L265.839923,207.772427 L264.985114,207.63468 L264.759286,207.497709 L264.403083,206.493511 L264.34876,206.259147 L264.318494,206.050004 L264.370101,205.837756 L264.541218,205.620853 L264.003033,204.828127 L263.886627,204.586778 L263.791562,204.510726 L263.652651,204.471148 L263.526156,204.456015 L263.377156,204.532067 L263.358531,204.689991 L263.369784,204.893702 L263.347667,205.050075 L263.165297,205.511043 L263.020953,206.186975 L263.050055,206.790735 L263.410138,207.054201 L263.874987,207.285461 L263.947934,207.497709 L263.820664,207.606354 L263.642174,207.606354 L263.581255,207.497709 L263.504815,207.611787 L263.442732,207.645157 L263.410138,207.707628 L263.471833,207.919099 L263.516068,207.941216 L263.874987,208.278018 L263.981304,208.31876 L264.125648,208.300135 L264.24283,208.224471 L264.297153,208.140659 L264.34876,208.012612 L264.454689,208.107289 L264.541218,208.278018 L264.541218,208.35601 L264.952132,208.551185 L265.096864,208.741315 L265.129845,209.081997 L265.384775,208.971799 L265.595082,208.943862 L265.96215,208.933385 L266.133655,208.966367 L266.279938,208.966367 L266.438251,208.933385 L266.490246,208.741315 L266.566298,208.605896 L266.672227,208.512771 L266.788633,208.512771 L267.009805,208.645086 L267.156089,208.645086 L267.273271,208.57175 L267.421107,208.3855 L267.50492,208.35601 L267.716779,208.46776 L267.705526,208.660218 L267.537513,208.893419 L267.260855,209.081997 L267.431584,209.13244 L267.567391,209.220132 L267.67332,209.344687 L267.749373,209.511924 L267.316342,209.527445 L266.849941,209.606601 L266.511975,209.861142 L266.438251,210.371001 L266.712969,210.274772 L266.745175,210.409803 L266.68348,210.67521 L266.672227,210.936735 L266.628381,210.970105 L266.588027,211.075259 L266.606652,211.192053 L266.788633,211.244048 L267.050159,211.277418 L267.178206,211.3201 L267.260855,211.381019 L267.338071,211.59249 L267.284136,211.813274 L267.039683,212.257946 L266.966347,212.312269 L266.883699,212.278511 L266.827824,212.288599 L266.788633,212.624237 L266.756428,212.702229 L266.672227,212.828724 L266.672227,212.952503 L267.126987,212.933102 L267.349323,212.975396 L267.50492,213.113143 L267.537513,213.355268 L267.366396,213.862023 L267.39899,214.106864 L267.599985,214.145666 L268.403187,213.882976 L268.813325,213.9664 L268.813325,213.722336 L268.854067,213.523281 L269.27895,212.108946 L269.352286,211.971198 L269.542028,211.813274 L270.056931,211.679407 L270.195843,211.59249 L270.280043,211.381019 L270.280043,211.235899 L270.334366,211.127254 L270.55709,211.097376 L270.650603,211.118329 L270.807751,211.220379 L270.914069,211.244048 L270.968392,211.192053 L270.989733,211.087287 L270.968392,210.991058 L270.914069,210.936735 L270.650603,210.842834 L270.902428,210.611186 L271.567495,210.221225 L271.178311,209.736588 L271.115839,209.471958 L271.643159,209.29308 L271.643159,209.121963 L271.537618,208.870914 L271.461566,208.57175 L271.516277,208.373083 L271.662561,208.151135 L271.855407,207.973422 L272.043985,207.919099 L272.244203,208.069263 L272.360998,208.35601 L272.371862,208.667979 L272.28805,208.933385 L272.350521,209.344687 L272.277185,210.409803 L272.411052,210.814121 L272.56044,210.909186 L273.226284,211.097376 L273.710921,211.445042 L273.942958,211.518766 L273.847505,211.265001 L273.83664,211.045381 L273.909588,210.842834 L274.059364,210.653868 L274.524213,210.887457 L274.680197,210.738069 L274.652259,209.872783 L275.612998,208.933385 L275.484564,208.660218 L275.557512,208.436331 L275.727853,208.245036 L275.844647,208.079352 L275.874136,207.834899 L275.862884,207.606354 L275.884613,207.423985 L276.023524,207.358409 L276.233443,207.296714 L276.455391,207.168667 L276.804998,206.914902 L277.437859,206.537358 L277.574831,206.419787 L277.89262,206.009262 L278.081198,205.837756 L278.293057,205.764033 L278.724924,205.851337 L278.935619,205.86065 L279.190937,205.764033 L279.430345,205.470689 L279.780728,204.572421 L280.023629,204.183237 L280.456272,204.870809 L280.772121,205.133499 L281.150829,204.972859 L281.478706,204.723361 L281.5955,204.893702 L281.688625,205.26077 L281.933078,205.620853 L281.794943,205.837756 L281.562907,206.347616 L281.449217,206.493511 L281.184975,206.602157 L280.973115,206.526493 L280.834204,206.336751 L280.728662,206.063972 L280.812475,205.86065 L280.793462,205.704665 L280.667743,205.576619 L280.485373,205.481166 L279.990647,206.031379 L279.895582,206.20172 L279.906835,206.514464 L280.012764,206.674717 L280.1509,206.812852 L280.256829,207.054201 L280.256829,207.679302 L280.0019,208.028909 L279.580121,208.183341 L279.063278,208.215935 L279.324416,207.606354 L279.408228,207.263344 L279.419481,206.914902 L279.168819,207.031696 L279.041937,207.191172 L278.831242,207.645157 L278.480859,208.107289 L278.354752,208.215935 L277.966344,208.450299 L277.860026,208.626849 L277.881755,208.933385 L278.037351,209.239533 L278.27094,209.355939 L278.542942,209.409874 L278.831242,209.511924 L278.776531,209.431603 L278.703583,209.206552 L279.400856,208.849573 L279.601462,208.806114 L280.256829,209.511924 L280.90754,210.507973 L281.309917,210.957689 L281.688625,210.936735 L281.456589,210.697715 L281.688625,210.515345 L282.099539,210.409803 L282.460398,210.371001 L282.619487,210.180483 L283.34819,208.933385 L283.070755,208.893419 L282.165503,208.923296 L282.093331,208.879838 L281.933078,208.645086 L281.732084,208.215935 L281.688625,208.140659 L281.783302,207.984675 L282.028531,207.816274 L282.304026,207.685899 L282.521706,207.645157 L282.7875,207.728581 L283.579838,208.215935 L283.791697,208.162388 L284.129275,208.183341 L284.457541,208.140659 L284.657371,207.919099 L284.613913,207.467443 L284.319017,207.202037 L283.579838,206.914902 L283.707497,206.884636 L284.012481,206.884636 L284.191746,206.914902 L283.813814,206.376717 L283.274854,206.031379 L282.765771,205.587483 L282.521706,204.743538 L282.575252,204.689991 L282.670318,204.667486 L282.704075,204.593374 L282.575252,204.393156 L282.409568,204.322924 L282.082466,204.447479 L281.933078,204.333401 L281.995162,204.035401 L282.376974,203.83557 L283.103737,203.590729 L283.103737,203.467727 L282.735893,203.357529 L282.292773,203.162354 L282.060737,202.973 L282.34438,202.88492 L283.092484,202.907425 L283.443255,202.864742 L284.03615,202.652107 L284.129275,202.644347 L284.180882,202.607873 L284.297288,202.441412 L284.591796,201.69098 L284.657371,201.64791 L284.687249,201.553233 L284.773777,201.586215 L284.857978,201.68128 L284.890572,201.798074 L284.879707,201.903227 L284.803655,202.113923 L284.784642,202.229941 L284.824996,202.441412 L285.089626,202.989297 L285.035303,203.073886 L285.013574,203.201932 L285.013574,203.30825 L285.100879,203.402151 L285.20642,203.412628 L285.301485,203.412628 L285.372493,203.467727 L285.649928,204.05519 L285.79466,204.260453 L285.867995,204.616268 L285.712011,205.027181 L285.479199,205.459824 L285.372493,205.913809 L285.45747,206.376717 L285.657688,206.69761 L285.966165,206.864847 L286.387167,206.914902 L286.672362,207.211349 L286.839211,207.307191 L286.926516,207.141118 L286.798469,206.20172 L286.705732,205.903332 L286.566433,205.620853 L286.649857,205.59796 L286.672362,205.566142 L286.694479,205.554889 L286.798469,205.620853 L287.11587,204.922028 L287.505054,205.007392 L287.992408,205.249517 L288.224833,205.176957 L288.21358,205.239429 L288.137528,205.314705 L288.169734,205.343418 L288.276051,205.511043 L288.425051,205.587483 L288.602377,205.449348 L288.454541,205.376012 L288.381205,205.337598 L288.330374,205.271246 L288.392458,205.249517 L288.392458,205.197522 L288.308645,205.166869 L288.286528,205.154452 L288.602377,205.050075 L288.741288,204.805234 L288.941895,203.75137 L289.119608,203.162354 L289.173931,202.864742 L289.195272,202.441412 L288.868947,202.62223 L288.569395,202.601276 L288.254322,202.534537 L287.87639,202.58886 L287.33743,203.095615 L287.12751,203.234138 L286.936992,203.139461 L286.744146,202.88492 L286.471756,202.718071 L286.167159,202.295516 L285.889337,201.80855 L285.73374,201.437215 L285.712011,201.0814 L285.805524,200.660785 L285.995654,200.393439 L286.261836,200.500145 L286.599414,201.163272 L286.850464,201.386772 L287.220635,201.225743 L287.87639,200.703856 L288.033151,200.52071 L288.109203,200.382963 L288.232205,199.993002 L288.191851,199.88746 L288.169734,199.634083 L288.21358,199.466846 L288.413799,199.634083 L288.520116,199.837018 L288.559307,199.993002 L288.646611,200.099708 L288.887572,200.143554 L289.584457,200.128033 L289.880517,200.215726 L290.144759,200.426809 L290.250688,200.330968 L290.384944,200.309627 L290.556061,200.352697 L290.734938,200.426809 L291.200563,200.382963 L291.55987,200.066726 L291.75,199.528153 L291.799667,198.841357 L291.992513,198.992685 L292.109695,199.204156 L292.288185,199.705091 L292.742945,199.422223 L293.214002,199.4327 L293.426249,199.284476 L293.1104,198.53482 L293.532179,198.505719 L293.807285,198.222464 L294.029621,197.841039 L294.291923,197.511998 L294.270194,197.779344 L294.196082,197.974519 L294.114598,198.135159 L294.060275,198.251565 L294.029621,198.505719 L294.060275,200.066726 L294.029621,200.215726 L293.986163,200.374814 L293.975298,200.531962 L294.060275,200.703856 L294.207335,200.7834 L294.606996,200.818322 L294.862702,200.876525 L295.050504,200.836559 L295.13548,200.859452 L295.156821,200.943652 L295.156821,201.247473 L295.199891,201.364267 L295.518456,201.547412 L296.318167,201.503566 L296.688339,201.568366 L296.677474,201.259501 L296.720932,200.9324 L296.815609,200.680962 L296.98207,200.572705 L297.382119,200.616163 L297.575354,200.731405 L297.942809,201.225743 L298.345575,201.204014 L298.63077,200.648757 L298.913637,200.374814 L299.305538,201.163272 L298.90316,201.314212 L298.725447,201.431006 L298.769293,201.597467 L299.009478,201.947074 L299.24035,202.040975 L300.318271,202.158157 L300.234459,202.304053 L300.083907,202.324618 L299.917834,202.318409 L300.201089,202.82012 L300.656237,202.567907 L301.099357,201.998292 L301.343422,201.568366 L301.099357,201.291319 L301.044646,201.503566 L300.932896,201.670803 L300.772256,201.72435 L300.612391,201.568366 L300.739662,200.703856 L300.772256,200.266168 L300.761391,200.110184 L300.739662,199.993002 L300.622868,199.817228 L300.467659,199.727984 L300.393547,199.627098 L300.508014,199.422223 L300.729185,199.509916 L301.066763,199.528153 L301.406281,199.466846 L301.637542,199.349276 L301.776453,199.066409 L301.732607,198.82312 L301.637542,198.549177 L301.57701,198.179005 L301.278623,198.200347 L299.547275,199.116851 L299.547275,198.970179 L299.728092,198.779661 L299.757194,198.494854 L299.856139,198.222464 L300.540219,198.040094 L301.131951,197.735498 L301.460604,197.670698 L301.25961,197.397532 L301.248745,197.24116 L301.395029,197.163555 L301.977448,197.058014 L302.238586,197.06849 L303.168671,197.408008 L303.297106,197.501521 L303.463567,197.670698 L303.514785,197.808446 L303.526038,197.955506 L303.580749,198.062211 L303.770103,198.10567 L304.118933,198.10567 L304.268321,198.072688 L304.423918,197.967534 L304.296647,197.93494 L304.085564,197.841039 L303.950921,197.818922 L304.034733,197.54498 L303.990887,197.343985 L303.70802,196.954412 L303.547379,196.702199 L303.474819,196.496936 L303.359577,195.93935 L303.136465,195.486918 L303.136465,195.254494 L303.359577,194.916528 L303.558244,194.737651 L303.653697,194.798958 L303.836066,195.349559 L303.75885,195.509812 L303.907462,195.93935 L303.836066,196.236962 L304.181017,196.098439 L304.413441,196.288181 L304.636165,196.593553 L304.91166,196.804248 L304.918644,196.476759 L305.046303,196.288181 L305.195691,196.22571 L305.267475,196.298269 L305.267475,197.226803 L305.534045,197.029688 L305.743964,197.052582 L305.965912,197.163555 L306.271672,197.226803 L306.894057,197.052582 L307.0935,197.110009 L306.926651,197.511998 L307.66389,197.262501 L308.246697,197.163555 L308.540428,197.029688 L308.763152,196.891553 L308.836876,196.804248 L308.836876,196.6471 L309.057272,197.184897 L309.373897,197.036285 L309.756097,196.624207 L310.156534,196.374322 L310.061857,196.686678 L310.061857,196.94122 L310.156534,197.387055 L310.112688,197.683503 L310.050605,197.955506 L310.028488,198.231 L310.156534,198.53482 L310.229482,198.355555 L310.283805,198.302008 L310.505365,198.389701 L310.512737,198.028841 L310.62992,197.746362 L310.766115,197.683503 L310.861568,197.967534 L310.978362,197.967534 L311.073427,197.574857 L311.283346,197.123589 L311.54914,196.775147 L311.748971,196.7313 L312.076848,196.987782 L312.403174,197.080907 L312.687593,196.987782 L312.869187,196.6471 L312.803611,196.57066 L312.675952,196.458134 L312.615809,196.298269 L312.763257,196.086798 L312.952999,195.992897 L313.130324,196.00415 L313.320067,196.053428 L313.541238,196.086798 L313.851267,195.974272 L314.156639,195.697614 L314.673482,195.072124 L315.029685,194.32208 L315.029685,194.207226 L314.917159,194.039601 L314.906295,193.915823 L314.978079,193.799805 L315.212055,193.618987 L315.262886,193.534399 L315.339326,193.02842 L315.53838,192.731196 L316.223625,192.301657 L316.733096,191.781321 L316.92051,191.442191 L316.754049,191.286983 L316.677221,191.203171 L316.754049,190.999072 L316.943015,190.631228 L316.899169,190.389879 L316.710591,189.839278 L316.688474,189.689502 L316.825833,189.556411 L317.026439,189.533906 L317.204153,189.471823 L317.282145,189.189344 L317.25964,188.879703 L317.1929,188.613133 L317.059033,188.445896 L316.814192,188.385365 L316.964356,187.972511 L317.204153,188.035758 L317.426489,188.395065 L317.532418,188.89018 L317.648825,189.259575 L317.913455,189.122604 L318.186233,188.729539 L318.367827,188.385365 L318.618488,187.50805 L318.69454,187.042038 L318.724418,186.5574 L318.684452,186.327304 L318.525363,185.937343 L318.492769,185.682801 L318.525363,185.481031 L318.840824,184.881927 L319.118259,183.390763 L319.423243,182.713667 L319.79031,181.36452 L319.917969,179.855896 L319.97268,179.623471 L320.637359,178.144725 L320.678102,177.65155 L320.583037,177.228996 L320.45499,176.836707 Z M260.06346,151.527286 L260.107306,151.516421 L260.158525,151.633216 L260.264067,151.821794 L260.446436,151.907934 L260.645491,151.876893 L260.801863,151.799288 L261.023811,151.581221 L261.089387,151.443086 L260.96134,151.305338 L260.529085,151.072914 L260.412291,150.977849 L260.285796,150.765602 L260.147661,150.672865 L260.022718,150.854846 L259.914072,151.144698 L259.87527,151.494692 L259.864017,151.581221 L259.936189,151.603726 L260.06346,151.527286 Z M306.017906,201.630837 L305.850282,201.742587 L305.500675,201.874126 L305.77617,201.153572 L305.838641,200.899418 L305.850282,200.627416 L305.77617,200.415944 L305.667524,200.226978 L305.584875,199.972825 L305.574787,199.842838 L305.690029,199.066409 L305.690029,198.861534 L305.606993,198.684984 L305.300068,198.56819 L305.035438,198.779661 L304.929509,199.16031 L305.14098,199.549494 L303.928415,200.243275 L303.70802,200.215726 L303.718496,200.553692 L303.802697,200.913775 L303.980022,201.225743 L304.306735,201.437215 L304.306735,201.568366 L303.980022,201.547412 L303.748762,201.431006 L303.526038,201.280842 L303.23153,201.163272 L303.053041,201.163272 L302.410091,201.291319 L302.187367,201.386772 L301.909932,201.568366 L301.68876,201.786821 L301.57701,202.031662 L301.627453,202.435204 L301.827284,202.724667 L302.081437,203.001714 L302.271567,203.30825 L302.554434,203.083974 L303.168671,202.812748 L303.359577,202.58886 L303.590449,202.724667 L303.496548,203.106091 L303.485296,203.435521 L303.37083,203.666781 L302.936247,203.75137 L302.831481,203.866612 L302.820228,204.107184 L302.892788,204.353578 L303.053041,204.456015 L303.590449,204.183237 L303.507025,204.488997 L303.485296,204.743538 L303.580749,204.932116 L303.836066,205.050075 L303.23153,205.481166 L303.612567,205.449348 L304.87829,205.059387 L305.14098,204.828127 L305.006337,204.660114 L304.718425,204.542544 L304.508118,204.381903 L304.602795,204.107184 L304.91166,203.761846 L304.96249,203.605474 L305.016813,203.30825 L305.217032,203.456086 L305.534045,203.622547 L305.838641,203.728864 L305.977552,203.678422 L305.933318,203.350156 L305.700118,202.875219 L305.606993,202.58886 L305.838641,202.684701 L305.996177,202.534537 L306.072229,202.274563 L306.094346,202.031662 L306.082706,201.670803 L306.017906,201.630837 Z M294.175129,203.117344 L293.597366,203.022667 L293.192661,203.106091 L292.760018,203.277208 L292.425156,203.328815 L292.210193,202.957091 L291.843125,202.835641 L291.695677,202.724667 L291.600612,202.534537 L291.516412,202.167469 L291.454328,202.031662 L291.843125,201.62036 L291.992513,201.356894 L292.011914,201.0814 L291.876107,200.818322 L291.643682,200.609179 L291.388365,200.52071 L291.156329,200.63828 L290.884326,200.859452 L290.778396,200.987499 L290.694584,201.460108 L290.588654,201.524907 L290.460996,201.553233 L290.324412,201.64791 L290.12303,202.031662 L290.079183,202.39873 L290.13467,202.768125 L290.617756,204.333401 L290.651126,204.593374 L290.661602,204.776908 L290.683331,204.932116 L290.800514,205.125351 L290.95611,205.228176 L291.211427,205.314705 L291.461701,205.314705 L291.571123,205.125351 L291.621953,204.689991 L291.782594,204.333401 L292.000273,204.17276 L292.288185,204.333401 L292.487627,205.176957 L292.65564,205.587483 L292.941611,205.546741 L293.257848,205.397353 L293.543043,205.524624 L293.796421,205.671296 L294.060275,205.620853 L294.135939,205.408218 L293.986163,204.987603 L294.124686,204.899135 L294.218587,204.798637 L294.229452,204.542544 L294.185218,204.107184 L294.240316,203.83557 L294.33577,203.61207 L294.386988,203.402151 L294.291923,203.162354 L294.175129,203.117344 Z M261.984162,212.756552 L263.630922,211.84548 L263.70387,211.518766 L263.70387,211.381019 L263.842781,211.467936 L264.136513,211.753131 L264.169494,211.813274 L264.337507,211.698032 L264.486895,211.47492 L264.825249,210.748545 L264.919926,210.430369 L264.962996,210.103655 L264.940879,209.819236 L264.424812,208.988096 L264.403083,208.806114 L264.009242,209.049791 L263.937846,209.081997 L263.809799,208.988096 L263.736851,208.839096 L263.687185,208.711825 L263.642174,208.645086 L263.453208,208.551185 L263.198667,208.35601 L262.925888,208.19537 L262.639141,208.215935 L262.523123,208.395976 L262.966242,208.741315 L263.104766,209.005169 L262.999612,209.323346 L262.754771,209.483598 L262.471904,209.460705 L262.272073,209.206552 L262.216198,209.504551 L262.101344,209.598452 L261.933331,209.627942 L261.744365,209.736588 L261.584113,209.904989 L261.478183,210.071838 L261.318707,210.526598 L260.836009,210.557251 L260.351371,211.127254 L260.129036,211.824527 L260.496491,212.257946 L260.496491,211.813274 L260.99471,212.131451 L261.089387,212.257946 L261.034676,212.362711 L260.907017,212.490758 L260.801863,212.645578 L260.846098,212.828724 L261.045928,212.879167 L261.783167,212.817083 L261.984162,212.756552 Z M258.387211,205.903332 L258.426789,205.742691 L258.409328,205.576619 L258.354617,205.493194 L258.143534,205.299184 L257.993758,205.036882 L257.932451,204.987603 L257.815657,205.050075 L257.51106,205.481166 L256.994217,205.682936 L256.86617,205.837756 L257.02293,206.20172 L257.110235,206.165246 L257.383014,206.281264 L257.626691,206.43104 L257.637555,206.493511 L257.815657,206.514464 L257.932451,206.508256 L258.048857,206.412415 L258.311159,206.063972 L258.387211,205.903332 Z M258.819854,201.163272 L258.576177,201.374743 L258.270805,201.874126 L258.100076,202.031662 L258.100076,202.158157 L258.311159,202.158157 L258.882325,202.031662 L259.020461,202.0693 L259.136091,202.177946 L259.281987,202.229941 L259.524887,202.158157 L259.736747,201.991696 L259.864017,201.734826 L259.914072,201.437215 L259.886135,201.130678 L259.747223,200.891658 L259.546617,200.764387 L259.380156,200.803965 L259.304492,201.0814 L259.241632,201.218371 L259.092244,201.218371 L258.937036,201.174137 L258.819854,201.163272 Z M264.751525,140.837318 L265.37391,142.009528 L265.458111,142.124382 L265.551624,142.19733 L265.573741,142.304424 L265.423965,142.53258 L265.300962,142.609796 L264.759286,142.758408 L265.118593,143.231017 L265.458111,143.391658 L266.373839,143.335395 L266.438251,143.297369 L266.511975,143.224033 L266.606652,143.187947 L266.734311,143.275251 L266.922889,143.463829 L267.02067,143.51466 L267.156089,143.5069 L267.338071,143.346259 L267.527037,142.897319 L267.749373,142.758408 L267.69505,142.663343 L267.599985,142.431307 L267.50492,142.304424 L267.55963,142.124382 L267.50492,141.343297 L267.461849,141.171792 L267.305477,140.878448 L267.260855,140.728284 L267.284136,140.606058 L267.376873,140.30767 L267.39899,140.12724 L267.305477,139.783066 L267.083141,139.558014 L266.522839,139.274371 L266.261701,139.034574 L265.995519,138.725322 L265.723129,138.524715 L265.406892,138.608915 L264.991322,139.085405 L264.825249,139.147876 L264.751525,139.379136 L264.77015,140.416703 L264.708067,140.655336 L264.751525,140.837318 Z M277.299336,213.039419 L277.183318,212.901672 L277.131711,212.805831 L277.044795,212.735211 L276.878334,212.756552 L276.633105,212.828724 L276.499626,212.763149 L276.434438,212.574571 L276.317644,212.405394 L276.201238,212.288599 L276.149631,212.267646 L276.160108,212.334774 L275.990931,212.467865 L275.822918,212.668083 L275.727853,212.735211 L275.601746,212.756552 L275.557512,212.795354 L275.601746,212.828724 L275.7166,212.87257 L276.01266,212.901672 L276.127902,212.966471 L276.172524,213.069297 L276.116649,213.155825 L276.499626,213.228385 L276.561709,213.31181 L276.445303,213.388638 L276.36149,213.523281 L276.382443,213.70177 L276.561709,213.627658 L276.867081,213.388638 L276.994352,213.258263 L276.888422,213.20006 L276.834099,213.145349 L276.962146,213.091026 L277.139472,213.136036 L277.28886,213.206268 L277.383925,213.184539 L277.354435,213.091026 L277.299336,213.039419 Z M297.058898,203.496052 L297.226523,203.538734 L297.278906,203.473935 L297.27037,203.328815 L297.354958,203.277208 L297.54276,203.277208 L297.605619,203.168563 L297.509778,203.001714 L297.249028,202.718071 L297.037169,202.662584 L296.794656,202.835641 L296.677474,203.030815 L296.655357,203.147609 L296.772151,203.30825 L296.960729,203.445609 L297.058898,203.496052 Z M262.194081,197.452631 L262.354722,197.436722 L262.471904,197.314107 L262.428446,197.174808 L262.321352,197.20779 L262.23948,197.20779 L262.194081,197.123589 L262.090092,197.06849 L261.921691,197.153467 L261.783167,197.20779 L261.617095,197.090996 L261.416488,197.014168 L261.195316,197.090996 L261.089387,197.262501 L261.268264,197.702128 L261.361389,197.818922 L261.467707,197.862769 L261.540655,197.93494 L261.617095,197.945417 L261.761438,197.955506 L261.867368,198.051735 L262.311264,198.127011 L262.428446,198.157664 L262.394688,198.26243 L262.394688,198.440919 L262.460651,198.56819 L262.544852,198.672568 L262.754771,198.723398 L262.798617,198.790138 L262.860313,198.738919 L262.933649,198.53482 L262.903771,198.367583 L262.808706,198.251565 L262.765248,198.062211 L262.661258,197.912047 L262.471904,197.901571 L262.311264,197.828623 L262.122297,197.641597 L262.122297,197.524027 L262.194081,197.452631 Z M269.385267,217.290573 L269.425234,217.56374 L269.520299,217.585469 L269.596739,217.661909 L269.625064,217.756586 L269.719741,217.812461 L269.89047,217.756586 L269.975447,217.600602 L269.975447,217.389518 L270.007653,217.257591 L270.079048,217.251771 L270.135311,217.185032 L270.068184,217.080654 L270.007653,217.047672 L269.829163,216.785758 L269.858265,216.625118 L270.02977,216.48737 L269.985923,216.277451 L269.689864,216.131556 L269.542028,216.131556 L269.531551,216.203727 L269.393028,216.341475 L269.425234,216.43654 L269.531551,216.541693 L269.502062,216.808652 L269.385267,217.290573 Z M273.182825,212.952503 L273.109489,212.966471 L272.982219,212.923401 L272.887154,212.849677 L272.70944,212.891195 L272.475852,213.083266 L272.277185,213.161646 L272.116933,213.091026 L271.983066,213.069297 L271.91749,213.102667 L271.843766,213.145349 L271.673425,213.20006 L271.49416,213.217909 L271.516277,213.293185 L271.904685,213.461974 L271.972201,213.505432 L272.032344,213.534534 L272.199969,213.534534 L272.411052,213.461974 L272.592646,213.439857 L272.721081,213.491851 L272.815758,213.622226 L272.843307,213.788299 L272.931,213.905869 L273.088148,213.8725 L273.161096,213.796447 L273.248401,213.722336 L273.414862,213.693234 L273.564638,213.716127 L273.670567,213.600109 L273.691908,213.449557 L273.72101,213.388638 L273.814523,213.271844 L273.847505,213.113143 L273.698117,213.018466 L273.45832,212.966471 L273.259265,212.944742 L273.182825,212.952503 Z M272.931,211.214946 L272.843307,211.087287 L272.622136,211.045381 L272.265933,211.127254 L271.928743,211.3201 L271.683902,211.644485 L271.556243,211.908727 L271.482907,212.024357 L271.422376,212.152016 L271.49416,212.235052 L271.577972,212.235052 L271.662561,212.297912 L271.694766,212.479117 L271.694766,212.702229 L271.81156,212.828724 L271.904685,212.763149 L271.950084,212.545469 L272.116933,212.318865 L272.570529,212.108946 L272.655117,211.984779 L272.804893,211.940545 L273.161096,212.057727 L273.287203,212.035998 L273.275562,211.908727 L273.161096,211.741878 L273.025677,211.59249 L272.865424,211.486561 L272.85456,211.43185 L272.941864,211.352694 L272.931,211.214946 Z M264.147765,201.586215 L264.308406,201.568366 L264.329747,201.451571 L264.108575,201.225743 L263.798935,201.070923 L263.49395,200.994095 L263.304208,201.092264 L263.369784,201.302959 L263.49395,201.492314 L263.49395,201.642478 L263.410138,201.779449 L263.198667,201.840756 L263.176549,201.935433 L263.126495,201.991696 L263.060919,202.0693 L262.704716,202.200839 L262.428446,202.208212 L262.332993,202.324618 L262.438534,202.464305 L262.650394,202.534537 L262.903771,202.491855 L263.137747,202.378941 L263.642174,202.295516 L263.715122,202.336258 L264.202088,202.601276 L264.253307,202.684701 L264.191223,202.812748 L264.087234,202.928766 L264.264947,203.001714 L264.613002,202.684701 L264.569544,202.241581 L264.24283,202.124787 L264.003033,202.124787 L263.886627,202.085597 L263.86451,201.991696 L263.853257,201.860157 L263.886627,201.764704 L264.147765,201.586215 Z M267.284136,216.720959 L267.126987,217.024779 L267.137464,217.345672 L267.327206,217.585469 L267.654307,217.608362 L267.915445,217.45199 L268.098203,217.290573 L268.286005,217.164854 L268.348864,217.047672 L268.432677,216.952607 L268.603406,216.952607 L268.75939,217.039136 L268.824966,217.068237 L268.854067,216.985201 L268.919643,216.995677 L268.992591,217.062029 L269.036825,216.968904 L268.886273,216.785758 L268.742317,216.720959 L268.636388,216.701946 L268.443541,216.691081 L268.297258,216.735316 L268.193268,216.720959 L267.853362,216.510264 L267.588732,216.510264 L267.284136,216.720959 Z M274.353484,216.647623 L274.396942,216.386097 L274.2914,216.269303 L274.1327,216.120303 L273.953046,215.869254 L273.659703,215.79359 L273.403997,215.910384 L273.287203,216.024462 L273.215807,216.18355 L273.194078,216.386097 L273.077284,216.604165 L273.152948,216.922342 L273.215807,216.968904 L273.275562,216.857542 L273.392744,216.851334 L273.553385,216.985201 L273.743127,217.080654 L273.996505,217.062029 L274.208364,216.952607 L274.313129,216.753941 L274.353484,216.647623 Z M268.193268,215.393152 L268.053969,215.352798 L267.999646,215.393152 L268.08695,215.54254 L268.098203,215.603848 L268.053969,215.643814 L267.988781,215.676019 L267.981021,215.731118 L268.01051,215.774189 L267.999646,215.83666 L267.948815,215.931337 L267.864227,216.18355 L267.886344,216.247186 L267.970544,216.269303 L268.032628,216.298404 L268.076086,216.386097 L268.214609,216.510264 L268.476135,216.575063 L268.559948,216.510264 L268.476135,216.353891 L268.615047,216.331774 L268.86532,216.312373 L268.930507,216.079949 L269.046913,215.970915 L269.036825,215.79359 L268.963489,215.687272 L268.876184,215.624413 L268.686442,215.526243 L268.326747,215.463772 L268.193268,215.393152 Z M259.87527,213.810028 L259.758476,213.755705 L259.503158,213.788299 L258.904054,213.660252 L258.776396,213.745229 L258.765531,213.849994 L258.692583,213.957088 L258.70306,214.061078 L258.831107,214.239567 L259.187309,214.388955 L259.293239,214.378478 L259.325833,214.275265 L259.380156,214.275265 L259.453492,214.378478 L259.53614,214.410684 L259.631205,214.335408 L259.801934,214.316007 L259.886135,214.188736 L259.853541,214.043617 L259.87527,213.810028 Z M271.229529,213.293185 L271.134464,213.161646 L271.083246,213.006049 L271.028535,212.679336 L270.873327,212.267646 L270.661467,212.024357 L270.479874,211.897087 L270.280043,211.835003 L269.975447,211.867985 L269.869129,211.88855 L269.689864,211.984779 L269.55328,212.180342 L269.479945,212.447688 L269.468692,212.712706 L269.479945,212.975396 L269.531551,213.20006 L269.65727,213.355268 L269.858265,213.482539 L270.090301,213.545786 L270.26879,213.505432 L270.418566,213.545786 L270.461637,213.693234 L270.30216,213.818953 L270.30216,213.957088 L270.628874,214.061078 L270.894668,214.123161 L271.039399,214.199213 L271.123988,214.145666 L271.145717,214.028484 L271.218665,214.010635 L271.346324,214.092895 L271.505024,214.165843 L271.589225,214.188736 L271.673425,214.199213 L271.738613,214.145666 L271.632295,213.912466 L271.599701,213.788299 L271.28424,213.472062 L271.229529,213.293185 Z M285.024051,211.147819 L285.024051,211.02404 L284.951103,210.819941 L284.561918,210.409803 L284.403218,210.419892 L284.253054,210.580145 L284.170017,210.601874 L284.158377,210.537074 L283.919356,210.485467 L283.791697,210.409803 L283.663262,210.348496 L283.579838,210.399327 L283.609715,210.493228 L283.62058,210.611186 L283.558109,210.769887 L283.674515,210.853311 L283.865033,210.980582 L283.821187,211.054306 L283.908879,211.170324 L284.074952,211.220379 L284.191746,211.352694 L284.202611,211.530795 L284.297288,211.58473 L284.580155,211.497037 L284.897168,211.297207 L285.024051,211.147819 Z M260.139512,207.898146 L260.107306,207.795321 L260.06346,207.750698 L260.052983,207.568328 L259.8419,207.446102 L259.715018,207.318831 L259.503158,207.14655 L259.368903,207.242391 L259.485697,207.606354 L259.652546,207.875253 L259.736747,208.08944 L259.652546,208.289271 L259.453492,208.450299 L259.198174,208.450299 L258.964198,208.489877 L258.871073,208.594643 L259.252885,208.678455 L259.273838,208.754896 L259.165192,208.839096 L259.080992,208.923296 L258.97545,208.933385 L258.871073,208.966367 L258.937036,209.068416 L259.136091,209.13244 L259.325833,209.104114 L259.674275,208.901567 L259.812799,208.763044 L259.957918,208.660218 L260.052983,208.551185 L260.06346,208.35601 L260.129036,208.12281 L260.139512,207.898146 Z M258.831107,206.957972 L258.681331,207.14655 L258.619247,207.552032 L258.681331,208.278018 L258.831107,208.395976 L258.986315,208.31876 L259.165192,208.311388 L259.325833,208.255901 L259.380156,208.012612 L259.231156,207.71888 L259.053442,207.446102 L258.831107,206.957972 Z M248.898167,205.764033 L248.697948,205.819908 L248.54856,205.830772 L248.487641,205.671296 L248.410037,205.620853 L248.27617,205.641418 L248.126782,205.742691 L247.999511,205.947178 L247.883105,206.181543 L247.788428,206.43104 L247.766698,206.70343 L247.883105,207.012683 L248.053834,207.085243 L248.116693,207.002594 L248.211758,206.884636 L248.327,206.686358 L248.381323,206.537358 L248.65449,206.219569 L248.697948,206.103551 L248.780984,206.009262 L248.931536,205.86065 L248.898167,205.764033 Z M260.390173,205.197522 L260.455749,205.166869 L260.550814,205.081504 L260.729691,205.089265 L260.89654,205.322077 L261.100251,205.524624 L261.318707,205.503671 L261.416488,205.299184 L261.416488,205.070252 L261.350912,204.893702 L261.328407,204.754015 L261.350912,204.645369 L261.289993,204.532067 L261.173199,204.426525 L261.00247,204.381903 L260.790611,204.371427 L260.645491,204.289554 L260.539561,204.183237 L260.368444,204.107184 L260.158525,204.078083 L259.968395,204.08856 L259.8419,204.162283 L259.704153,204.162283 L259.53614,204.107184 L259.609476,204.289554 L259.946666,204.645369 L260.107306,204.932116 L260.139512,205.125351 L260.264067,205.206059 L260.390173,205.197522 Z M261.257788,203.634575 L261.213941,203.549599 L261.089387,203.378482 L260.917493,203.30825 L260.790611,203.412628 L260.539561,203.518169 L260.107306,203.590729 L259.936189,203.739341 L260.147661,203.866612 L260.434408,203.972541 L260.667608,204.162283 L260.868215,204.278302 L261.078134,204.224755 L261.184452,204.107184 L261.140993,203.824317 L261.206569,203.685794 L261.257788,203.634575 Z M259.747223,202.281159 L259.491906,202.41231 L259.442239,202.578771 L259.557869,202.801495 L259.704153,203.001714 L259.968395,203.295833 L259.957918,203.378482 L260.001377,203.496052 L260.158525,203.518169 L260.340895,203.412628 L260.401426,203.211633 L260.390173,202.973 L260.496491,202.855818 L260.678473,202.855818 L260.790611,202.779378 L260.836009,202.578771 L260.751421,202.252058 L260.983069,202.106938 L260.972204,201.977339 L260.889944,201.851621 L260.801863,201.80855 L260.685845,201.819027 L260.463509,201.80855 L260.297436,201.977339 L260.329642,202.218688 L260.285796,202.347511 L260.129036,202.357988 L259.957918,202.262146 L259.747223,202.281159 Z M294.345858,202.529105 L294.250405,202.390193 L294.146803,202.031662 L294.102957,201.779449 L294.018369,201.734826 L293.934556,201.64791 L293.880233,201.503566 L293.713772,201.530728 L293.509674,201.851621 L293.404132,202.085597 L293.32032,202.020798 L293.298202,201.819027 L293.363778,201.586215 L293.480572,201.247473 L293.397148,201.0166 L293.121653,201.092264 L292.964117,201.291319 L292.803476,201.586215 L292.571052,201.895079 L292.443781,202.218688 L292.604422,202.513972 L292.866335,202.674224 L293.1104,202.706042 L293.543043,202.567907 L294.33577,202.768125 L294.513871,202.724667 L294.419194,202.578771 L294.345858,202.529105 Z M307.443106,197.945417 L307.242888,197.955506 L307.065174,198.062211 L307.010851,198.222464 L307.103976,198.389701 L307.169552,198.557326 L307.13657,198.705549 L307.188565,198.82312 L307.316223,198.958151 L307.400036,199.32677 L307.443106,199.414851 L307.536619,199.393122 L307.653025,199.233645 L307.726749,198.790138 L307.738002,198.26243 L307.62082,197.988487 L307.443106,197.945417 Z M262.682599,186.94736 L262.733042,187.085108 L262.808706,187.158832 L262.914636,187.137103 L262.966242,187.085108 L263.104766,186.980342 L263.315073,186.747918 L263.642174,186.474751 L263.70387,186.315275 L263.665067,186.188004 L263.587075,186.125921 L263.526156,186.200033 L263.399273,186.30441 L263.198667,186.271817 L263.126495,186.264056 L263.15482,186.38085 L263.094289,186.409176 L262.987971,186.430905 L262.925888,186.514329 L262.828107,186.568652 L262.787365,186.620647 L262.871565,186.672642 L262.893294,186.715324 L262.715969,186.809613 L262.682599,186.94736 Z M266.291191,151.465591 L266.481709,151.410104 L266.639634,151.233554 L266.65011,151.10512 L266.723446,150.95612 L266.91668,150.89326 L266.988464,150.810224 L266.91668,150.548698 L266.734311,150.418323 L266.345514,150.388057 L266.03859,150.55607 L265.890754,150.74426 L265.857772,151.032948 L265.901618,151.305338 L266.01686,151.378674 L266.154996,151.360049 L266.291191,151.465591 Z M267.705526,152.077111 L267.69505,152.181101 L268.105575,152.126002 L268.982114,151.432221 L269.076791,151.233554 L269.036825,151.043812 L268.992591,150.935167 L268.897914,150.854846 L268.570812,150.716711 L268.370982,150.599917 L268.297258,150.418323 L268.348864,150.239446 L268.297258,150.221597 L268.04388,150.432292 L267.760237,150.294932 L267.727255,150.333347 L267.853362,150.483122 L267.981021,150.706234 L268.076086,151.032948 L268.065609,151.282445 L267.842497,151.549403 L267.915445,151.666585 L267.893716,151.821794 L267.705526,152.077111 Z M265.300962,146.970372 L265.363046,147.033231 L265.467423,147.126356 L265.657553,147.220257 L265.784436,147.092986 L265.784436,146.852802 L265.617199,146.643658 L265.37391,146.483018 L265.213658,146.439172 L265.14071,146.526476 L265.023528,146.531908 L264.708067,146.376312 L264.623866,146.453528 L264.730184,146.736783 L264.759286,146.852802 L264.835726,146.926525 L264.940879,146.970372 L265.162051,146.883455 L265.300962,146.970372 Z M253.098878,141.722005 L252.909912,141.702992 L252.771777,141.722005 L252.750047,141.898942 L252.84356,142.176377 L252.899435,142.293559 L253.004201,142.249325 L253.171826,142.081312 L253.226149,141.848888 L253.098878,141.722005 Z M262.610039,201.030181 L262.672511,200.964993 L262.733042,200.753522 L262.721789,200.660785 L262.628276,200.616163 L262.332993,200.616163 L262.194081,200.686783 L262.155279,200.891658 L262.248404,201.0814 L262.460651,201.092264 L262.610039,201.030181 Z M281.17217,219.920965 L281.079045,219.827064 L280.856321,219.466981 L280.824115,219.243093 L280.888527,219.055291 L280.844681,218.960226 L280.812475,218.968374 L280.772121,219.023861 L280.68986,219.055291 L280.624285,219.033174 L280.572678,219.04365 L280.561425,219.139491 L280.572678,219.233004 L280.540084,219.316817 L280.583543,219.455728 L280.634761,219.529064 L280.706933,219.572522 L280.739139,219.738207 L280.804714,219.887595 L280.844681,219.950067 L281.079045,220.005165 L281.332422,220.130884 L281.351435,220.026507 L281.299829,219.950067 L281.17217,219.920965 Z M260.645491,198.418026 L260.740556,198.412206 L260.801863,198.451396 L260.823204,198.53482 L260.907017,198.549177 L261.00247,198.505719 L261.078134,198.549177 L261.224418,198.723398 L261.318707,198.761036 L261.405235,198.705549 L261.478183,198.643466 L261.489048,198.434323 L261.467707,198.324125 L261.426965,198.231 L261.350912,198.135159 L261.206569,198.091313 L260.972204,198.10567 L260.823204,198.040094 L260.718827,198.051735 L260.580692,198.146412 L260.550814,198.241477 L260.62415,198.26243 L260.697098,198.251565 L260.751421,198.273682 L260.62415,198.367583 L260.645491,198.418026 Z M289.002814,206.419787 L288.675713,206.674717 L288.602377,206.76823 L288.497999,207.162847 L288.569395,207.401092 L289.184408,208.028909 L289.38579,208.129018 L289.573592,208.107289 L289.752858,207.941216 L289.869264,207.645157 L289.923975,207.351425 L289.91311,207.045277 L289.763723,206.514464 L289.636452,206.207152 L289.480467,205.954551 L289.301202,205.913809 L289.513061,205.714754 L289.59571,205.481166 L289.552251,205.293752 L289.363673,205.206059 L289.151814,205.228176 L288.964012,205.314705 L288.93103,205.481166 L289.195272,205.764033 L289.056749,206.303769 L289.002814,206.419787 Z M279.917699,210.930139 L279.968918,210.537074 L279.780728,210.199108 L279.536275,210.093179 L279.263884,210.064077 L278.714835,210.12616 L278.142893,210.231702 L277.871278,210.348496 L277.626049,210.526598 L277.79445,210.631363 L277.860026,210.726816 L277.849161,210.819941 L277.754096,210.936735 L277.754096,211.097376 L278.16501,211.370543 L278.366005,211.47492 L278.641499,211.518766 L279.357397,211.381019 L279.685663,211.258017 L279.917699,210.930139 Z M256.70747,205.176957 L256.910016,205.206059 L257.1211,205.110606 L257.266995,204.922028 L257.361672,204.681067 L257.393878,204.393156 L257.488555,204.339221 L257.710503,204.381903 L257.944091,204.381903 L258.100076,204.183237 L258.187768,204.237559 L258.387211,204.289554 L258.459383,204.333401 L258.459383,203.879416 L258.409328,203.75137 L258.343753,203.685794 L258.259552,203.678422 L258.143534,203.685794 L257.572756,203.91007 L257.266995,203.972541 L257.02293,203.889505 L256.812235,203.961289 L256.622881,204.08856 L256.485134,204.278302 L256.434303,204.532067 L256.466509,204.817262 L256.561574,205.036882 L256.70747,205.176957 Z M260.264067,196.448433 L260.139512,196.7313 L260.052983,196.869824 L259.853541,196.964889 L259.652546,197.029688 L259.524887,197.101472 L259.442239,197.292378 L259.304492,197.967534 L259.380156,197.974519 L259.431762,198.010992 L259.464356,198.062211 L259.524887,198.10567 L259.695616,198.085104 L260.158525,198.200347 L260.25359,198.179005 L260.318778,198.010992 L260.463509,197.787493 L260.667608,197.596974 L260.846098,197.511998 L260.612897,197.14493 L260.539561,196.920267 L260.550814,196.709571 L260.678473,196.530306 L261.206569,196.22571 L260.939611,196.163238 L260.580692,196.236962 L260.264067,196.448433 Z M268.275528,145.267737 L268.171151,145.205654 L268.076086,145.196342 L267.875479,145.205654 L267.77731,145.205654 L267.67332,145.165688 L267.578255,145.111753 L267.48319,145.068295 L267.376873,145.078383 L267.305477,145.143571 L267.260855,145.239024 L267.02843,146.132635 L266.883699,146.472541 L266.672227,146.62775 L266.955094,146.547429 L267.749373,146.049599 L267.875479,146.039898 L268.021763,146.060075 L268.171151,146.049599 L268.22043,145.977427 L268.253799,145.816786 L268.326747,145.721721 L268.443541,145.650714 L268.581677,145.606479 L268.538606,145.532755 L268.275528,145.267737 Z M264.180359,141.034044 L264.097322,140.888925 L264.076369,140.815589 L264.020106,140.416703 L264.003033,140.320474 L263.959575,140.256063 L263.897104,140.211829 L263.791562,140.234334 L263.693781,140.320474 L263.609192,140.43494 L263.559526,140.539706 L263.464461,140.953724 L263.388021,141.119797 L263.230872,141.266857 L264.413947,142.176377 L264.759286,142.153484 L264.952132,141.921447 L264.908674,141.710364 L264.751525,141.520234 L264.530353,141.353773 L264.286288,141.151227 L264.180359,141.034044 Z M264.857455,165.428513 L264.825249,165.293094 L264.601749,165.226742 L264.297153,165.351685 L264.11944,165.816921 L264.065117,166.598783 L264.11944,167.424879 L264.297153,168.002254 L264.541218,167.718223 L264.656848,167.853642 L264.337507,168.290165 L264.286288,168.604074 L264.476031,168.696811 L264.897809,168.445761 L264.897809,168.67935 L264.857455,168.868316 L264.77015,169.038657 L264.656848,169.185328 L264.897809,169.229175 L265.679283,169.185328 L265.839923,169.256724 L265.741366,168.930011 L265.51321,168.562167 L265.002187,168.002254 L265.086387,167.940558 L265.279233,167.781082 L265.37391,167.718223 L265.118593,167.580087 L265.002187,167.55797 L265.002187,167.424879 L265.37391,167.424879 L265.162051,167.330978 L264.740273,167.213408 L264.541218,167.118343 L264.541218,166.965462 L264.601749,167.010085 L264.77015,166.987192 L264.919926,166.886306 L265.002187,166.714413 L264.952132,166.504106 L264.509012,165.754838 L264.464778,165.626791 L264.476031,165.543367 L264.857455,165.428513 Z M262.394688,139.918097 L262.598787,139.822256 L262.754771,139.760561 L263.482698,139.907232 L263.86451,139.885115 L264.169494,139.622425 L264.286288,139.230136 L264.11944,139.052423 L263.809799,138.996936 L263.464461,139.012069 L263.137747,138.807582 L262.860313,138.736962 L262.616248,138.801374 L262.394688,139.012069 L262.194081,139.612725 L262.166144,139.684509 L262.226675,139.928962 L262.394688,139.918097 Z M280.1509,215.624413 L280.169913,215.548749 L280.245965,215.475801 L280.235488,215.448251 L280.256829,215.213887 L280.235488,215.105629 L280.180777,215.025309 L280.096965,215.009788 L280.012764,215.053634 L279.939816,215.11921 L279.873853,215.222423 L279.696527,215.393152 L279.558392,215.83666 L279.862988,215.76022 L280.180777,215.825019 L280.268082,215.79359 L280.224624,215.720642 L280.1509,215.624413 Z M275.74609,213.206268 L275.651024,213.161646 L275.218381,213.184539 L274.989449,213.31181 L274.935902,213.449557 L274.924262,213.627658 L275.008462,213.722336 L275.095767,213.777046 L275.146986,213.8725 L275.272704,213.882976 L275.411228,213.832145 L275.506681,213.818953 L275.852407,213.567127 L275.928459,213.461974 L275.917983,213.31181 L275.74609,213.206268 Z M259.252885,213.512416 L259.314968,213.556651 L259.336697,213.482539 L259.304492,213.355268 L258.954109,213.155825 L258.627008,213.113143 L258.565312,213.145349 L258.4815,213.206268 L258.248688,213.113143 L258.176516,213.155825 L258.165651,213.184539 L258.205229,213.239638 L258.205229,213.31181 L258.259552,213.409979 L258.492365,213.461974 L258.849344,213.409979 L259.252885,213.512416 Z M274.769442,211.796201 L274.747324,211.644485 L274.691061,211.664662 L274.608801,211.867985 L274.503259,212.00612 L274.353484,212.013881 L274.208364,211.961886 L274.091958,211.867985 L273.996505,211.824527 L273.942958,211.84548 L273.553385,211.824527 L273.425726,211.731402 L273.30932,211.687167 L273.30932,211.759727 L273.38188,211.84548 L273.375672,212.079844 L273.364807,212.405394 L273.403997,212.501235 L273.447455,212.395693 L273.553385,212.267646 L273.670567,212.202071 L273.691908,212.278511 L273.648062,212.490758 L273.680268,212.564482 L273.732263,212.661487 L273.857981,212.756552 L273.996505,212.817083 L274.081093,212.817083 L274.113687,212.795354 L274.208364,212.774401 L274.323606,212.668083 L274.396942,212.564482 L274.545942,212.564482 L274.663124,212.427899 L274.597548,212.196638 L274.673989,212.131451 L274.769442,211.796201 Z M280.307272,212.04725 L280.224624,211.919204 L280.180777,211.796201 L280.117918,211.731402 L280.075236,211.708508 L280.0019,211.570761 L279.906835,211.547868 L279.852124,211.59249 L279.862988,211.708508 L279.885494,211.774084 L279.958441,211.801633 L280.034493,211.857508 L280.04497,211.930456 L280.0019,212.013881 L280.0019,212.122526 L280.075236,212.224576 L280.328613,212.297912 L280.390696,212.278511 L280.412426,212.245917 L280.412426,212.202071 L280.379832,212.131451 L280.307272,212.04725 Z M276.666474,211.370543 L276.739422,211.708508 L276.804998,211.779904 L276.834099,211.687167 L276.878334,211.658066 L276.910539,211.614607 L276.910539,211.467936 L276.983487,211.358514 L276.793745,210.842834 L276.666474,210.704311 L276.605555,210.748545 L276.423186,210.653868 L276.222579,210.697715 L276.138378,210.792004 L276.423186,211.467936 L276.506222,211.541272 L276.572573,211.541272 L276.605555,211.453967 L276.572573,211.370543 L276.594691,211.308071 L276.666474,211.370543 Z M289.668657,210.726816 L289.617439,210.631363 L289.529746,210.67521 L289.502585,210.798212 L289.513061,210.947212 L289.469215,211.045381 L289.363673,211.220379 L289.437397,211.277418 L289.447098,211.308071 L289.363673,211.414001 L289.426145,211.541272 L289.636452,211.708508 L289.657017,211.679407 L289.679134,211.59249 L289.712892,211.541272 L289.72298,211.43185 L289.701251,211.336397 L289.817657,210.842834 L289.668657,210.726816 Z M259.304492,209.883259 L259.158208,209.854158 L259.103497,209.986861 L258.997567,210.103655 L258.893578,210.165738 L258.882325,210.221225 L258.954109,210.371001 L258.986315,210.611186 L259.103497,210.557251 L259.252885,210.399327 L259.453492,210.253431 L259.491906,210.165738 L259.453492,210.136637 L259.347562,210.145949 L259.314968,210.103655 L259.397229,209.976384 L259.304492,209.883259 Z M289.984118,209.809924 L289.840163,209.839413 L289.668657,209.926718 L289.573592,210.064077 L289.563116,209.819236 L289.426145,209.489031 L289.214673,209.104114 L289.119608,208.966367 L289.002814,208.870914 L288.879036,208.839096 L288.868947,208.828619 L288.866231,208.829783 L288.708694,208.711825 L288.381205,208.754896 L288.098726,208.893419 L288.003273,209.068416 L288.120455,209.220132 L288.148005,209.229057 L288.286528,209.333434 L288.348999,209.431603 L288.425051,209.606601 L288.497999,209.660148 L288.55271,209.767241 L288.708694,209.948059 L289.301202,210.180483 L289.363673,210.221225 L289.552251,210.114132 L289.552251,210.30465 L289.59571,210.33802 L289.668657,210.244119 L289.72298,210.231702 L289.774199,210.283309 L289.891381,210.293397 L289.994983,210.210749 L289.974418,210.083478 L289.923975,209.986861 L290.017488,209.861142 L289.984118,209.809924 Z M283.748627,210.180483 L284.129275,210.083478 L284.286811,210.093179 L284.436199,209.999278 L284.462973,209.926718 L284.436199,209.819236 L284.379936,209.736588 L283.821187,209.566247 L283.726122,209.504551 L283.791697,209.471958 L283.897239,209.504551 L283.925952,209.437812 L283.875898,209.323346 L283.748627,209.239533 L283.736986,209.184434 L283.865033,209.17745 L283.969411,209.081997 L283.802562,208.923296 L283.525127,208.943862 L283.380395,209.104114 L283.326072,209.25971 L283.34819,209.344687 L283.336937,209.366804 L283.263601,209.377281 L283.263601,209.431603 L283.525127,209.489031 L283.547244,209.566247 L283.569361,209.649671 L283.653174,209.755989 L283.674515,209.819236 L283.535992,209.809924 L283.39902,209.894512 L283.410273,210.019843 L283.525127,210.145949 L283.62058,210.231702 L283.748627,210.180483 Z M287.60982,208.183341 L287.559377,208.238828 L287.358771,208.238828 L287.304448,208.201966 L287.271854,208.101469 L287.19813,208.012612 L287.12751,207.990495 L286.945141,208.079352 L286.839211,208.172865 L286.766263,208.362607 L286.787992,208.436331 L286.872193,208.405289 L287.050294,208.660218 L287.271854,208.605896 L287.358771,208.615984 L287.453836,208.544976 L287.559377,208.333505 L287.621849,208.414601 L287.644354,208.501906 L287.747955,208.46776 L287.820903,208.362607 L287.737091,208.215935 L287.60982,208.183341 Z M255.801053,207.085243 L255.673395,207.085243 L255.284598,207.307191 L255.103392,207.285461 L254.975734,207.211349 L254.891921,207.202037 L254.870192,207.234243 L255.196905,207.508185 L255.196905,207.568328 L255.081275,207.590058 L255.081275,207.71888 L255.196905,207.772427 L255.347069,207.707628 L255.484429,207.707628 L255.746731,207.623427 L255.84102,207.552032 L255.873613,207.454638 L255.84102,207.234243 L255.801053,207.085243 Z M297.858997,207.012683 L297.786825,207.012683 L297.786825,206.875324 L297.237388,206.586636 L297.110505,206.610694 L297.047646,206.686358 L297.037169,206.797331 L296.993323,206.896277 L296.98207,207.002594 L297.058898,207.054201 L297.132234,207.075542 L297.205182,207.14655 L297.216435,207.255196 L297.164828,207.391391 L297.171812,207.467443 L297.278906,207.446102 L297.377075,207.358409 L297.553625,207.263344 L297.692148,207.242391 L297.847744,207.285461 L297.964538,207.263344 L298.037874,207.223766 L298.208991,207.012683 L298.230333,206.907529 L298.187262,206.853206 L297.858997,207.012683 Z M260.529085,207.401092 L260.612897,207.391391 L260.718827,207.318831 L260.813892,207.278089 L260.917493,207.278089 L260.972204,207.263344 L261.023811,207.191172 L261.129741,207.141118 L261.268264,207.191172 L261.37303,207.191172 L261.478183,207.064678 L261.79442,206.896277 L261.772691,206.819837 L261.573248,206.834581 L261.529014,206.558311 L261.33966,206.347616 L261.056017,206.558311 L261.034676,206.485363 L261.118488,206.347616 L261.107624,206.219569 L260.99471,206.165246 L260.907017,206.181543 L260.580692,206.419787 L260.507356,206.514464 L260.390173,206.568787 L260.329642,206.654152 L260.423543,206.747277 L260.550814,206.812852 L260.496491,207.351425 L260.529085,207.401092 Z M301.57701,204.572421 L301.289099,204.660114 L301.227404,204.732674 L301.510271,204.878569 L301.6162,204.909999 L301.933601,204.909999 L301.966195,204.861109 L301.700013,204.637997 L301.57701,204.572421 Z M302.387973,204.371427 L302.026726,204.21583 L301.909932,204.300031 L301.977448,204.393156 L302.355768,204.471148 L302.502828,204.564273 L302.660752,204.586778 L302.758533,204.542544 L302.758533,204.416049 L302.597893,204.353578 L302.387973,204.371427 Z M301.215763,204.224755 L301.248745,204.310895 L301.322081,204.339221 L301.604948,204.371427 L301.805555,204.266661 L301.9045,204.078083 L301.838924,203.889505 L301.700013,203.846047 L301.627453,203.720716 L301.510271,203.295833 L301.449352,203.285357 L301.427622,203.244615 L301.427622,203.147609 L301.354675,203.128985 L301.248745,203.26324 L301.248745,203.402151 L301.289099,203.467727 L301.278623,203.560851 L301.237492,203.622547 L301.173081,203.549599 L301.121474,203.423104 L301.088104,203.467727 L301.110222,203.772323 L301.237492,204.026088 L301.25961,204.120765 L301.227404,204.183237 L301.215763,204.224755 Z M296.498985,202.779378 L296.772151,202.601276 L296.993323,202.545401 L297.004575,202.441412 L296.277813,202.274563 L296.087295,202.336258 L296.011243,202.485258 L296.306914,202.928766 L296.498985,202.779378 Z M288.454541,201.470584 L288.381205,201.503566 L288.232205,201.431006 L288.033151,201.451571 L287.842632,201.586215 L287.747955,201.72435 L287.770461,201.80855 L287.927221,201.977339 L288.066132,202.020798 L288.254322,201.991696 L288.634971,201.547412 L288.541846,201.482225 L288.454541,201.470584 Z M303.70802,199.604981 L303.697155,199.743117 L303.748762,199.800932 L303.841887,199.705091 L303.917939,199.688794 L304.013004,199.770666 L304.053746,199.865731 L304.296647,199.676765 L304.339329,199.455593 L304.350582,199.261971 L304.390936,199.066409 L304.380847,198.841357 L304.296647,198.855713 L304.235728,198.958151 L304.140663,198.978716 L304.053746,199.033427 L304.053746,199.182427 L303.959069,199.261971 L303.814337,199.32677 L303.836066,199.393122 L303.885345,199.4327 L303.852751,199.528153 L303.70802,199.604981 Z M260.446436,198.877831 L260.35758,198.906156 L260.285796,198.970179 L260.25359,199.066409 L260.202371,199.105987 L260.06346,199.149057 L260.001377,199.204156 L260.022718,199.299609 L260.139512,199.36014 L260.25359,199.32677 L260.318778,199.36014 L260.779746,199.349276 L260.889944,199.315906 L260.950863,199.32677 L260.89654,199.422223 L260.707574,199.509916 L260.667608,199.953812 L260.539561,200.237455 L260.517832,200.374814 L260.56129,200.382963 L260.612897,200.339892 L260.836009,200.287898 L260.857738,200.237455 L260.823204,200.110184 L260.857738,199.982913 L261.184452,199.898713 L261.405235,199.720223 L261.434337,199.4327 L261.405235,199.32677 L261.279129,199.261971 L261.15147,199.189411 L261.118488,199.066409 L261.107624,198.958151 L261.078134,198.916245 L261.012558,198.894903 L260.983069,198.855713 L260.950863,198.813031 L260.868215,198.802167 L260.790611,198.768797 L260.645491,198.738919 L260.529085,198.790138 L260.446436,198.877831 Z M265.984267,170.189526 L265.901618,170.083208 L265.817806,169.850008 L265.75223,169.755331 L265.668418,169.744466 L265.47984,169.794909 L265.458111,169.912479 L265.37391,169.955549 L265.247028,169.882214 L265.14071,169.850008 L265.023528,169.850008 L264.974249,169.966414 L265.045645,170.100669 L266.144907,170.399057 L266.279938,170.333481 L266.27179,170.260146 L265.984267,170.189526 Z M265.690147,155.538643 L265.784436,155.589862 L266.057215,155.516526 L266.101449,155.422237 L266.057215,155.241419 L265.635436,155.138594 L265.584217,155.241419 L265.635436,155.378003 L265.690147,155.538643 Z M264.087234,150.861831 L263.959575,150.872307 L263.315073,150.651523 L263.241737,150.683729 L263.187026,150.765602 L263.209531,150.831953 L263.464461,151.022471 L263.587075,151.022471 L263.747328,151.116372 L263.915729,151.18156 L264.108575,151.126849 L264.23119,150.948747 L264.180359,150.831953 L264.087234,150.861831 Z M265.341317,148.052949 L265.47984,148.508098 L265.701012,148.508098 L265.890754,148.404496 L265.9346,148.264421 L265.9346,148.161595 L265.869413,148.06847 L265.774348,148.003671 L265.573741,147.718088 L265.423965,147.60983 L265.319975,147.642812 L265.247028,147.821301 L265.257504,147.969525 L265.341317,148.052949 Z M266.438251,144.772235 L266.291191,144.750506 L266.174009,144.817245 L266.12279,144.889029 L265.973402,144.961977 L265.817806,145.128438 L265.890754,145.223503 L266.395569,145.375995 L266.460368,145.322448 L266.500722,145.223503 L266.522839,144.889029 L266.438251,144.772235 Z M264.962996,144.911534 L264.876468,144.817245 L264.370101,144.801725 L264.125648,144.540199 L263.842781,144.394691 L263.747328,144.394691 L263.725987,144.445522 L263.897104,144.668633 L264.009242,144.984482 L264.076369,145.05743 L264.180359,145.013972 L264.740273,145.005435 L264.962996,144.911534 Z M262.715969,142.271054 L262.260821,142.313736 L262.260821,142.38746 L262.471904,142.640838 L262.754771,142.853473 L262.838972,142.820879 L262.7765,142.737067 L262.721789,142.685072 L262.743518,142.365731 L262.715969,142.271054 Z M261.301246,141.955593 L261.434337,141.955593 L261.711772,142.209359 L261.856115,142.22682 L261.899962,142.092953 L261.816149,141.806205 L261.700907,141.593958 L261.056017,141.819786 L261.184452,141.937356 L261.301246,141.955593 Z M281.467842,219.382392 L281.394894,219.330786 L281.383641,219.22214 L281.343287,219.07702 L281.309917,219.012221 L281.234253,219.07702 L281.122503,219.023861 L281.046063,218.990492 L281.024334,219.129015 L281.133368,219.316817 L281.228821,219.466981 L281.43874,219.560882 L281.478706,219.560882 L281.5113,219.506947 L281.5113,219.477457 L281.489571,219.426627 L281.467842,219.382392 Z M303.125989,206.654152 L302.96884,206.841954 L302.842346,206.907529 L302.831481,207.002594 L302.924994,207.031696 L303.063517,206.970001 L303.220278,206.864847 L303.220278,206.76823 L303.14733,206.747277 L303.125989,206.654152 Z M299.452597,206.76823 L299.19146,206.537358 L298.990465,206.347616 L298.935366,206.412415 L299.019566,206.537358 L299.115408,206.58004 L299.136749,206.641735 L299.063801,206.654152 L299.019566,206.718951 L299.136749,206.896277 L299.317178,206.864847 L299.401379,206.864847 L299.601597,206.970001 L299.684246,206.864847 L299.580644,206.797331 L299.452597,206.76823 Z M297.226523,206.230045 L297.299859,206.253327 L297.458948,206.219569 L297.521031,206.093074 L297.458948,206.050004 L297.377075,206.041467 L297.299859,206.031379 L297.237388,206.093074 L297.142323,206.050004 L297.047646,206.126056 L296.920375,205.998009 L296.954909,206.165246 L297.058898,206.20172 L297.226523,206.230045 Z M296.465615,205.437319 L296.255696,205.3861 L296.106308,205.364371 L295.989125,205.532772 L296.095443,205.714754 L296.26656,205.776061 L296.443886,205.819908 L296.465615,205.880439 L296.487732,205.880439 L296.593662,205.776061 L296.582409,205.682936 L296.465615,205.437319 Z M298.418911,204.47852 L298.345575,204.381903 L298.165533,204.278302 L298.091809,204.322924 L298.069692,204.416049 L298.143416,204.605403 L298.230333,204.626744 L298.353723,204.667486 L298.336262,204.593374 L298.345575,204.520814 L298.418911,204.47852 Z M295.262751,202.695177 L295.401274,202.978821 L295.444344,202.978821 L295.539798,202.957091 L295.55687,202.812748 L295.506816,202.747172 L295.262751,202.695177 Z M302.336367,199.842838 L301.988312,200.055473 L302.059708,200.226978 L301.999177,200.436897 L302.026726,200.627416 L302.081437,200.913775 L302.143521,200.869928 L302.260703,200.7834 L302.282044,200.666606 L302.209096,200.616163 L302.282044,200.572705 L302.282044,200.426809 L302.198231,200.330968 L302.355768,200.077202 L302.336367,199.842838 Z M302.820228,197.945417 L302.715075,197.787493 L302.492739,197.818922 L302.619622,197.955506 L302.831481,198.157664 L302.820228,197.945417 Z M263.947934,221.218506 L263.791562,221.164959 L263.581255,221.218506 L263.67438,221.377206 L263.842781,221.641836 L263.907968,221.71362 L263.97044,221.67249 L263.959575,221.534355 L263.992169,221.387683 L264.15863,221.387683 L264.180359,221.354701 L264.23119,221.345777 L264.213341,221.237131 L264.264947,221.157199 L263.947934,221.218506 Z M274.17577,220.860363 L274.564955,220.786251 L274.408194,220.465358 L274.280148,220.448285 L274.1327,220.530157 L274.154041,220.764522 L274.17577,220.860363 Z M268.424528,218.124818 L268.476135,218.139174 L268.676354,218.157799 L268.802849,218.217942 L268.813325,218.17914 L268.75939,218.021604 L268.653849,217.839622 L268.53007,217.818281 L268.476135,217.872604 L268.53007,217.999875 L268.476135,218.05187 L268.424528,218.124818 Z M271.389782,216.374456 L271.505024,216.55217 L271.545378,216.414423 L271.662561,216.269303 L271.694766,216.163761 L271.694766,216.100514 L271.654024,216.024462 L271.589225,215.813767 L271.335459,216.013985 L271.346324,216.131556 L271.305194,216.298404 L271.389782,216.374456 Z M257.310454,215.127358 L257.215777,215.086616 L257.129248,215.159952 L257.098982,215.265882 L257.034571,215.236004 L257.066777,215.339605 L257.066777,215.448251 L257.1211,215.433118 L257.183571,215.410225 L257.215777,215.448251 L257.350808,215.404405 L257.543654,215.19953 L257.372149,215.137059 L257.310454,215.127358 Z M268.897914,215.3171 L268.982114,215.339605 L269.09852,215.236004 L269.192421,215.254629 L269.09852,215.076527 L268.952236,215.003968 L268.86532,215.009788 L268.813325,215.043158 L268.770643,215.009788 L268.75357,215.076527 L268.615047,215.19953 L268.7202,215.3819 L268.897914,215.3171 Z M259.410033,214.989611 L259.347562,215.003968 L259.252885,214.939168 L259.187309,215.003968 L259.209427,215.11921 L259.103497,215.19953 L259.063919,215.287999 L258.986315,215.222423 L258.904054,215.213887 L258.831107,215.213887 L258.714312,215.3171 L258.831107,215.371035 L258.914919,215.404405 L258.97545,215.564657 L259.063919,215.371035 L259.165192,215.475801 L259.293239,215.519647 L259.387916,215.3171 L259.442239,215.19953 L259.503158,215.213887 L259.431762,215.127358 L259.410033,214.989611 Z M257.012454,214.843715 L256.85647,214.792496 L256.685352,214.853804 L256.550321,215.032293 L256.561574,215.105629 L256.612405,215.086616 L256.739675,215.159952 L256.8231,215.236004 L256.833964,215.180905 L256.783522,215.086616 L256.793998,215.032293 L256.844829,215.009788 L256.917777,215.003968 L256.961623,214.950033 L256.951147,215.076527 L256.994217,215.159952 L257.034571,215.105629 L257.012454,214.843715 Z M284.835861,214.64272 L284.97322,214.792496 L285.04578,214.749814 L285.04578,214.610515 L284.97322,214.589174 L284.835861,214.64272 Z M267.853362,214.349377 L267.683797,214.293114 L267.683797,214.486736 L267.842497,214.464619 L267.999646,214.505749 L268.076086,214.464619 L268.231682,214.378478 L268.127693,214.293114 L267.853362,214.349377 Z M281.976925,214.145666 L281.86013,214.209689 L281.80542,214.061078 L281.765065,214.653197 L282.017279,214.371106 L282.060737,214.261684 L282.132521,214.209689 L282.082466,214.117341 L281.976925,214.145666 Z M282.428193,214.293114 L282.460398,214.444054 L282.505021,214.400208 L282.565552,214.371106 L282.586893,214.388955 L282.632292,214.349377 L282.649364,214.092895 L282.409568,214.106864 L282.428193,214.293114 Z M266.566298,213.206268 L266.588027,213.083266 L266.511975,213.028555 L266.417298,213.006049 L266.395569,213.122844 L266.490246,213.258263 L266.566298,213.279216 L266.566298,213.206268 Z M246.228197,212.013881 L246.134296,211.940545 L245.973655,211.897087 L245.868502,211.919204 L245.922824,212.013881 L246.090837,212.297912 L246.20608,212.196638 L246.268939,212.235052 L246.373704,212.21798 L246.450921,212.174521 L246.373704,212.122526 L246.228197,212.013881 Z M246.06872,210.893665 L246.06872,210.830418 L245.98452,210.798212 L245.868502,210.970105 L245.817283,211.075259 L245.857249,211.170324 L246.090837,210.991058 L246.06872,210.893665 Z M265.51321,210.781139 L265.562488,210.842834 L265.523298,210.67521 L265.51321,210.704311 L265.51321,210.781139 Z M265.406892,210.601874 L265.490704,210.653868 L265.523298,210.664733 L265.47984,210.46335 L265.406892,210.601874 Z M277.881755,209.660148 L278.015622,209.511924 L278.026875,209.323346 L277.903484,209.279111 L277.849161,209.460705 L277.78669,209.511924 L277.743232,209.388145 L277.637302,209.344687 L277.582979,209.437812 L277.466573,209.437812 L277.47705,209.606601 L277.582979,209.627942 L277.659419,209.755989 L277.881755,209.660148 Z M282.725804,208.31876 L282.735893,208.224471 L282.565552,208.45806 L282.725804,208.31876 Z M282.735893,208.224471 L282.747146,208.19537 L282.735893,208.19537 L282.735893,208.224471 Z M282.765771,208.19537 L282.810005,208.107289 L282.747146,208.19537 L282.765771,208.19537 Z M277.564354,207.590058 L277.4495,207.475203 L277.405266,207.454638 L277.332706,207.467443 L277.28886,207.518662 L277.405266,207.780576 L277.498779,207.728581 L277.564354,207.590058 Z M285.257639,207.278089 L285.100879,207.337068 L285.035303,207.412732 L284.93985,207.391391 L284.847501,207.318831 L284.763301,207.467443 L284.803655,207.584237 L284.951103,207.606354 L285.04578,207.497709 L285.05742,207.63468 L285.119116,207.772427 L285.247162,207.801917 L285.301485,207.707628 L285.323215,207.611787 L285.446217,207.590058 L285.522657,207.561732 L285.522657,207.446102 L285.416728,207.337068 L285.257639,207.278089 Z M257.804792,206.957972 L257.76599,206.797331 L257.666657,206.757753 L257.572756,206.757753 L257.455961,206.875324 L257.372149,206.914902 L257.466438,207.108136 L257.626691,207.141118 L257.698862,207.108136 L257.76599,207.234243 L257.910722,207.296714 L257.910722,207.085243 L257.870755,206.970001 L257.804792,206.957972 Z M249.109638,206.526493 L249.036302,206.526493 L249.00332,206.610694 L248.909419,206.641735 L248.854708,206.76823 L248.931536,206.841954 L249.024661,206.907529 L249.141844,206.780259 L249.265622,206.624662 L249.30908,206.508256 L249.170557,206.508256 L249.109638,206.526493 Z M247.228902,206.084926 L247.377902,206.281264 L247.472579,206.148173 L247.566868,206.063972 L247.439597,205.976668 L247.228902,206.084926 Z M259.957918,205.532772 L260.096054,205.664311 L260.191119,205.554889 L260.191119,205.299184 L260.012241,205.408218 L259.957918,205.532772 Z M244.519354,205.299184 L244.475896,205.26077 L244.421185,205.299184 L244.413424,205.511043 L244.210101,205.903332 L244.169747,205.87423 L244.076234,205.924673 L244.032,205.976668 L244.076234,206.126056 L244.054117,206.219569 L244.181,206.376717 L244.210101,206.259147 L244.286542,206.20172 L244.359101,206.181543 L244.308271,206.009262 L244.381219,205.954551 L244.547679,205.837756 L244.653997,205.59796 L244.664862,205.493194 L244.653997,205.26077 L244.519354,205.299184 Z M263.926593,204.012507 L264.020106,203.889505 L263.959575,203.824317 L263.907968,203.761846 L263.831528,203.739341 L263.769445,203.83557 L263.630922,203.91007 L263.791562,204.322924 L263.853257,204.310895 L263.86451,204.20613 L263.820664,204.151807 L263.831528,204.05519 L263.926593,204.012507 Z M283.432002,203.917442 L283.535992,203.950036 L283.569361,203.932963 L283.598851,203.816945 L283.707497,203.728864 L283.780445,203.685794 L283.791697,203.622547 L283.813814,203.467727 L283.674515,203.590729 L283.525127,203.560851 L283.464596,203.582969 L283.421525,203.64544 L283.432002,203.783575 L283.358666,203.856911 L283.432002,203.917442 Z M263.325549,200.077202 L263.187026,199.993002 L263.11563,199.909577 L263.050055,199.916562 L263.050055,199.982913 L262.944901,199.931307 L262.871565,199.939455 L262.977107,200.088843 L263.07256,200.266168 L263.126495,200.360069 L263.187026,200.59327 L263.464461,200.680962 L263.526156,200.564168 L263.442732,200.352697 L263.325549,200.077202 Z M262.090092,199.572387 L261.984162,199.627098 L261.848743,199.720223 L261.783167,199.898713 L261.816149,200.026372 L261.910826,200.193997 L261.995027,200.243275 L262.028008,199.972825 L262.079227,199.800932 L262.060214,199.743117 L262.101344,199.6562 L262.090092,199.572387 Z M262.914636,199.32677 L262.871565,199.261971 L262.721789,199.149057 L262.616248,199.116851 L262.533599,199.168846 L262.650394,199.299609 L262.661258,199.559971 L262.628276,199.688794 L262.566193,199.770666 L262.672511,199.770666 L262.743518,199.842838 L262.838972,199.760189 L263.009313,199.748937 L263.020953,199.644947 L263.009313,199.444341 L262.914636,199.32677 Z M258.70306,197.596974 L258.754278,197.661774 L258.765531,197.292378 L258.681331,197.14493 L258.576177,197.163555 L258.492365,197.20779 L258.4815,197.387055 L258.576177,197.534503 L258.70306,197.596974 Z M260.762285,193.566992 L260.907017,193.449422 L260.99471,193.406352 L260.939611,193.311675 L260.907017,193.123097 L260.823204,193.02842 L260.707574,192.962844 L260.678473,193.02842 L260.645491,193.091279 L260.580692,193.166555 L260.580692,193.240279 L260.634238,193.333792 L260.707574,193.494044 L260.762285,193.566992 Z M258.470635,191.749504 L258.532719,191.803051 L258.609547,191.858538 L258.648737,191.952438 L258.609547,191.960199 L258.543971,191.918293 L258.4815,191.94041 L258.426789,191.975332 L258.4815,192.035087 L258.58743,192.119287 L258.55406,192.235694 L258.754278,192.162358 L258.831107,192.151881 L258.871073,192.098334 L258.997567,192.003657 L258.954109,191.86397 L258.925784,191.793738 L258.831107,191.749504 L258.797737,191.67578 L258.692583,191.570626 L258.55406,191.697897 L258.470635,191.749504 Z M269.468692,182.452142 L269.341809,182.262399 L269.153231,182.419936 L269.13189,182.641108 L269.192421,182.729188 L269.403892,182.568548 L269.468692,182.452142 Z M266.383928,182.038512 L266.566298,182.019887 L266.617904,182.059853 L266.65011,182.019887 L266.756428,181.935686 L266.628381,181.880587 L266.490246,181.769613 L266.323397,181.747496 L266.228332,181.638462 L266.006384,181.59772 L266.01686,181.714514 L266.057215,181.807639 L266.090196,181.870111 L266.090196,182.030751 L266.174009,182.147933 L266.228332,182.081582 L266.291191,181.935686 L266.302056,181.807639 L266.334649,181.870111 L266.323397,181.998157 L266.383928,182.038512 Z M264.751525,181.332702 L264.930791,181.249278 L264.897809,181.121231 L264.791879,181.143736 L264.664609,181.154213 L264.656848,181.208535 L264.635119,181.26053 L264.580408,181.26053 L264.623866,181.324554 L264.751525,181.332702 Z M257.965433,175.710283 L258.070586,175.643544 L258.037216,175.505796 L258.122193,175.485231 L258.226958,175.623367 L258.165651,175.388614 L257.944091,175.309458 L257.793927,175.465442 L257.849026,175.614442 L257.965433,175.710283 Z M259.957918,173.195522 L259.896999,173.024793 L259.663411,172.995303 L259.597835,173.003451 L259.590463,173.090368 L259.524887,173.134214 L259.442239,173.280886 L259.641682,173.324344 L259.957918,173.195522 Z M264.708067,170.799106 L264.580408,170.660195 L264.541218,170.420786 L264.454689,170.377328 L264.39183,170.579099 L264.264947,170.704041 L264.191223,170.937242 L264.213341,170.989236 L264.370101,170.916676 L264.530353,171.022606 L264.558679,171.010577 L264.635119,170.886411 L264.708067,170.799106 Z M259.524887,163.561746 L259.609476,163.612964 L259.695616,163.56873 L259.747223,163.466293 L259.790682,163.263358 L259.768952,163.181485 L259.704153,163.169457 L259.619952,163.368123 L259.464356,163.423222 L259.231156,163.518287 L259.146955,163.580371 L259.26375,163.683972 L259.524887,163.561746 Z M258.100076,155.948781 L258.176516,156.066351 L258.459383,156.033369 L258.55406,155.866521 L258.514482,155.866521 L258.409328,155.948781 L258.300294,155.910755 L258.154399,155.842851 L258.187768,155.760979 L258.081451,155.611979 L257.944091,155.611979 L258.037216,155.910755 L258.100076,155.948781 Z M257.361672,154.98843 L257.427248,155.028784 L257.477691,154.967477 L257.500196,154.833222 L257.488555,154.683446 L257.594097,154.716816 L257.698862,154.716816 L257.698862,154.556175 L257.455961,154.473139 L257.405131,154.430068 L257.372149,154.490599 L257.361672,154.628735 L257.288337,154.695086 L257.27786,154.833222 L257.361672,154.896081 L257.361672,154.98843 Z M259.579986,154.451021 L259.410033,154.599245 L259.485697,154.683446 L259.579986,154.683446 L259.619952,154.695086 L259.790682,154.163498 L259.453492,154.240714 L259.358815,154.412607 L259.453492,154.389714 L259.579986,154.451021 Z M264.940879,154.229074 L265.023528,154.261667 L265.14071,154.368373 L265.067374,153.989665 L264.940879,153.995485 L264.940879,154.229074 Z M262.819571,152.869061 L262.944901,152.869061 L263.031818,153.014569 L263.187026,153.081309 L263.104766,152.921056 L263.020953,152.836468 L262.977107,152.658366 L262.808706,152.531095 L262.721789,152.636249 L262.566193,152.62422 L262.661258,152.813962 L262.819571,152.869061 Z M259.968395,152.898551 L260.21246,152.898551 L260.242338,152.836468 L260.223713,152.760416 L260.223713,152.681259 L260.275319,152.58503 L260.21246,152.564853 L260.180254,152.58503 L260.06346,152.447283 L259.87527,152.454267 L259.8419,152.564853 L259.886135,152.760416 L259.968395,152.898551 Z M269.479945,151.507885 L269.319692,151.432221 L269.202898,151.589369 L269.27895,151.769799 L269.563757,151.887369 L269.479945,151.507885 Z M266.345514,146.335958 L266.417298,146.198599 L266.428162,146.082969 L266.511975,145.995664 L266.481709,145.688352 L266.174009,145.668175 L266.079332,145.660802 L266.111537,145.84938 L266.279938,145.977427 L266.250449,146.243221 L266.345514,146.335958 Z M253.255638,143.187947 L253.204031,143.397478 L253.33169,143.358288 L253.448096,143.241882 L253.425979,143.12664 L253.255638,143.187947 Z M260.656356,141.648281 L260.729691,141.688635 L260.779746,141.532263 L260.580692,141.43875 L260.455749,141.492685 L260.485238,141.62694 L260.656356,141.648281 Z M262.387316,140.888925 L262.533599,140.878448 L262.428446,140.751177 L262.216198,140.743029 L262.111433,140.793083 L262.343857,140.933159 L262.387316,140.888925 Z M274.723655,231.191412 L274.61889,231.285313 L274.535465,231.385034 L274.364736,231.136313 L274.197111,230.518972 L273.942958,230.264819 L273.098625,229.926853 L272.843307,229.727022 L272.487104,229.522535 L272.094815,229.522535 L271.262123,229.682788 L269.858265,229.693652 L269.596739,229.747587 L268.952236,230.153845 L267.178206,230.464261 L264.435288,231.370677 L263.809799,231.668677 L263.504815,231.878596 L262.523123,232.882794 L261.910826,233.229296 L261.733113,233.421366 L261.434337,233.93821 L261.129741,234.782155 L261.311722,235.434417 L261.79442,235.973378 L262.743518,236.774641 L263.020953,236.912 L263.304208,236.861945 L263.937846,236.331133 L264.253307,236.246545 L267.988781,236.213563 L269.141979,235.846495 L269.806658,235.74173 L272.054073,234.942795 L272.350521,234.716579 L272.508833,234.632767 L272.941864,234.590861 L273.120742,234.515197 L273.215807,234.387926 L273.574726,233.78921 L274.091958,233.174585 L274.323606,232.828859 L274.418283,232.460627 L274.448161,232.395828 L274.597548,232.194833 L274.652259,232.090068 L274.652259,231.974438 L274.545942,231.783919 L274.535465,231.668677 L274.663124,231.518901 L274.81872,231.465355 L274.902921,231.385034 L274.775262,231.108764 L274.723655,231.191412 Z M274.979361,230.309053 L274.989449,230.254342 L274.913785,230.177514 L274.850926,230.136772 L274.796603,230.177514 L274.673989,230.526733 L274.673989,230.693193 L274.734908,230.780498 L274.924262,230.830553 L275.062785,230.736652 L275.041056,230.474738 L274.979361,230.309053 Z" id="Fill-3"></path>
        </g>
    </g>
</svg>