
<svg width="70px" height="116px" viewBox="0 0 70 116" version="1.1" xmlns="http://www.w3.org/2000/svg" xmlns:xlink="http://www.w3.org/1999/xlink">
    <!-- Generator: Sketch 51.2 (57519) - http://www.bohemiancoding.com/sketch -->
    <desc>Created with Sketch.</desc>
    <defs></defs>
    <g id="Page-1" stroke="none" stroke-width="1" fill="none" fill-rule="evenodd">
        <g id="LK-EPS-01-0001" transform="translate(-281.000000, -127.000000)" fill="#7F807C">
            <path d="M287.251043,137.508574 L286.906576,136.795812 L286.756917,136.687121 L286.153265,136.643227 L285.645344,136.484789 L285.522021,136.172093 L285.319689,135.925031 L285.124881,135.884899 L285.038765,136.192996 L285.038765,137.399883 L285.340173,137.771104 L286.034541,137.996429 L286.775311,137.952534 L287.251043,137.508574 Z M340.65883,205.080459 L340.216542,205.943297 L340.146729,206.041955 L340.117884,206.138523 L340.107433,206.381405 L340.070227,206.535245 L339.888379,207.05069 L339.810205,207.20453 L339.513813,207.357115 L339.439402,207.064904 L339.503362,205.995134 L339.449853,205.767302 L339.270095,205.775662 L338.903472,206.090866 L338.745452,206.405652 L338.551062,207.291065 L338.38928,207.597907 L337.807784,207.724992 L337.379709,207.757599 L337.092932,207.697819 L337.426529,207.432363 L338.116717,206.654387 L338.38928,206.494277 L338.493791,206.270624 L338.401403,205.804089 L338.075749,205.380195 L337.496342,205.286135 L337.215,205.414892 L336.623471,205.806179 L336.38017,205.890206 L336.060368,205.79531 L335.876848,205.586289 L335.845495,205.380195 L335.97258,205.286135 L336.556166,205.203781 L337.490072,204.89025 L338.098323,204.881889 L337.854604,204.480986 L337.768488,204.073814 L337.889302,203.713043 L338.276409,203.440062 L338.276409,203.860612 L338.493791,204.378984 L339.023868,204.610161 L340.418456,204.665343 L340.701888,204.788665 L340.65883,205.080459 Z M328.865866,182.905423 L327.192444,184.926237 L327.106328,185.109758 L326.949144,185.234752 L326.794468,185.788658 L326.694556,185.914907 L326.613038,185.955875 L325.893588,186.216315 L325.441266,186.555765 L325.016954,186.750573 L324.642806,187.00307 L324.371915,187.522696 L324.279528,187.1034 L324.45845,186.639791 L324.767801,186.26857 L325.076734,186.114731 L325.633984,186.036975 L326.018582,185.822519 L326.30954,185.503553 L328.797725,181.693937 L328.972049,181.978624 L329.033919,182.290483 L328.865866,182.905423 Z M319.079922,203.272845 L319.127161,203.440062 L318.995895,203.792889 L318.9265,204.261096 L318.590395,204.144463 L318.336225,203.993968 L317.920273,203.659534 L318.121352,203.969303 L318.506368,204.881889 L318.215829,205.502263 L318.014751,205.728424 L317.701219,205.890206 L318.062408,205.138148 L317.8676,204.538676 L317.439943,204.360172 L317.101329,204.881889 L316.827512,204.826707 L316.563309,204.929127 L316.296598,204.881889 L316.20881,204.775288 L316.165751,204.610161 L316.040757,204.476806 L315.692528,204.464683 L315.921615,204.273638 L316.141087,204.165365 L316.335476,204.154914 L316.497677,204.261096 L316.899415,203.860612 L317.163199,204.030755 L317.271054,203.940876 L317.267292,203.758192 L317.210438,203.659534 L316.894816,203.634869 L316.673672,203.575508 L316.493496,203.505695 L315.671626,203.283714 L315.131515,203.061316 L314.723925,202.680062 L314.483968,202.049654 L314.685047,202.252405 L315.041218,202.529567 L315.549139,202.764506 L317.038205,203.268665 L317.238865,203.248599 L317.316621,202.965166 L317.459591,202.846442 L317.786082,203.000282 L318.129712,203.254451 L318.322012,203.440062 L318.269338,203.065914 L318.119261,202.840172 L317.701219,202.453483 L317.536093,202.203494 L317.101329,201.246596 L317.295719,201.298015 L317.488854,201.400435 L317.641857,201.552184 L317.701219,201.759533 L317.734245,201.991128 L317.828304,202.012449 L317.957897,201.981932 L318.10463,202.049654 L318.393915,202.264528 L318.640142,202.392031 L318.772661,202.60356 L318.725422,203.057972 L319.012199,202.942592 L319.127161,202.872779 L319.073651,203.112735 L319.079922,203.272845 Z M350.783806,209.920967 L350.479472,208.88046 L350.405478,208.414761 L350.548867,201.490732 L349.811441,198.984153 L349.358701,198.271391 L349.293069,197.646836 L349.202772,197.413151 L348.938987,197.160654 L348.773443,197.090841 L348.722023,197.185318 L348.801869,197.413151 L348.801869,197.615901 L348.621275,197.863382 L348.496281,198.209939 L348.423123,198.617112 L348.395951,199.041424 L348.19529,199.041424 L348.201561,198.60248 L347.978327,197.413151 L347.79606,197.413151 L347.556522,197.716649 L347.314894,197.66732 L347.263475,197.439488 L347.577006,197.214163 L347.357534,197.026462 L347.276016,196.856737 L347.218326,196.687848 L347.073266,196.499311 L346.921935,196.241797 L347.048601,196.061621 L347.263475,195.899839 L347.374256,195.696253 L347.341649,195.580455 L347.204113,195.297441 L347.173178,195.202963 L347.346247,194.455504 L347.374256,194.398232 L346.829129,193.025801 L346.671528,192.790861 L345.985521,192.290883 L345.641472,192.16756 L345.747655,192.571389 L345.565807,192.790861 L345.426181,192.516625 L345.375179,192.311367 L345.415729,192.143732 L345.565807,191.967318 L345.246004,191.436405 L344.938744,191.086922 L344.157005,190.359947 L344.205916,190.044743 L344.019469,189.822763 L343.702175,189.664743 L343.353528,189.538076 L343.134893,189.837394 L342.841427,189.943995 L342.502395,189.899265 L342.143715,189.739155 L342.356498,189.087845 L342.662087,188.773896 L343.065079,188.739198 L343.554189,188.915194 L343.935443,189.243775 L344.660328,190.15636 L344.961318,190.359947 L345.614299,190.164721 L345.541142,189.593676 L345.133969,188.949891 L343.859777,187.633477 L343.558369,187.136425 L343.353528,186.521904 L343.15245,186.521904 L342.526223,186.631849 L341.913792,185.939571 L341.569743,184.935016 L341.746157,184.29165 L341.85025,184.222673 L342.01245,184.118162 L342.143715,184.109802 L341.932186,183.756138 L341.336894,183.299636 L341.125365,182.90375 L341.11575,182.541726 L341.217334,182.30595 L341.279204,182.065158 L341.125365,181.698954 L340.971943,181.815587 L340.673043,181.959394 L340.520876,182.080208 L340.502482,181.950197 L340.459842,181.872023 L340.400898,181.805554 L340.339028,181.698954 L340.469875,181.553057 L340.339028,181.277149 L340.251239,181.411341 L340.064374,181.553893 L339.919314,181.698954 L339.558962,180.866214 L339.345342,180.519239 L339.014253,180.163485 L338.765936,179.752968 L338.528488,178.69156 L338.292712,178.262231 L338.110864,178.262231 L337.936959,178.895146 L337.440743,178.936114 L336.924461,178.559458 L336.683251,177.94201 L336.633922,177.848787 L336.38017,177.773121 L336.279422,177.659414 L336.238454,177.480492 L336.238454,177.332923 L336.261028,177.248897 L336.279422,177.256422 L336.248905,176.96421 L336.279422,176.033649 L336.500567,176.033649 L336.951216,177.261438 L337.285231,178.646411 L337.821997,177.910657 L337.588312,176.570415 L336.883493,174.204297 L336.820369,173.728565 L336.560347,172.815562 L336.3739,171.690611 L336.056606,171.549313 L335.654868,171.549313 L335.278212,171.372899 L335.116848,171.00544 L334.966771,169.977057 L334.975131,169.764692 L335.31918,169.928982 L335.708377,170.709048 L336.080852,170.970743 L336.054516,170.176045 L335.593415,168.661061 L335.384813,167.483018 L335.143184,167.078772 L334.810841,166.732215 L334.452579,166.530301 L334.131105,166.505636 L333.819663,166.59886 L333.047122,166.950015 L333.351456,167.639366 L332.892028,167.927815 L331.538826,167.95457 L330.89546,167.768959 L330.432687,167.324581 L330.047253,166.793667 L329.629629,166.34678 L329.017197,166.848849 L328.558187,166.919498 L328.427758,166.653205 L328.808594,166.145702 L329.301884,165.939608 L329.811477,166.056241 L330.323578,166.368937 L330.819376,166.748937 L331.034668,166.295361 L330.923469,165.995625 L330.712776,165.716791 L330.63711,165.32216 L330.868705,164.817583 L331.190179,164.870674 L331.389167,165.251929 L331.236582,165.724734 L331.968574,165.61019 L331.878695,164.892412 L331.236582,163.514128 L331.069365,163.604425 L330.63711,163.716042 L330.913854,163.393732 L331.217352,163.25327 L331.434316,163.040068 L331.438078,162.508737 L331.165933,162.069375 L330.348243,161.183126 L330.432687,160.900948 L330.148001,160.744182 L329.98162,160.70823 L329.887143,160.819012 L329.811477,161.100772 L329.396361,159.561541 L329.036009,158.796525 L328.312797,158.469198 L327.977109,158.124731 L327.346284,156.603894 L326.9157,156.259428 L326.373082,156.102662 L325.992664,155.706776 L325.047889,154.099405 L323.981046,152.822705 L323.780386,153.306797 L323.479395,153.832276 L323.077657,154.210604 L322.576007,154.248228 L322.110726,153.888294 L322.385798,153.560131 L322.703092,153.270846 L322.356953,153.023783 L322.34483,152.464025 L321.279241,151.47661 L320.948151,151.014673 L321.412178,151.228293 L322.223597,151.433133 L322.576007,151.617072 L322.899571,152.133772 L322.977745,152.21947 L323.2478,152.122485 L323.384918,151.91639 L323.391189,151.709877 L323.278317,151.617072 L322.708944,151.251703 L322.155875,150.407676 L321.738669,149.464156 L321.572288,148.802395 L321.436842,148.896873 L321.33484,148.942021 L321.244543,149.016015 L321.148811,149.187412 L320.948151,149.187412 L320.876248,148.512692 L320.447755,148.245981 L319.972859,148.167808 L319.745445,148.062461 L319.909735,147.642747 L320.300604,147.650272 L321.148811,147.961713 L319.745445,145.18466 L319.429823,144.272075 L319.241704,144.142481 L318.834113,144.238213 L318.762628,144.485276 L318.901836,144.820546 L319.141374,145.18466 L318.543156,144.859423 L317.015631,143.448532 L316.862627,143.140853 L317.087116,143.06686 L317.623882,143.155066 L317.798205,143.244527 L318.111319,143.639159 L318.338733,143.739907 L318.694487,143.553878 L318.295257,143.038433 L317.660669,142.448575 L317.330834,142.041403 L317.091296,141.646353 L308.96247,135.117792 L307.813691,134.468572 L307.244318,134.055547 L303.387463,129.569121 L303.117407,129.16571 L302.849025,128.20505 L302.439343,127.918691 L301.853249,127.81 L300.635074,127.870616 L299.817802,128.003553 L299.201608,128.272354 L299.25888,128.718823 L299.703259,129.036535 L301.399255,129.431585 L302.472369,130.004302 L304.595604,132.428528 L307.180357,134.524172 L308.247618,135.061356 L308.247618,135.279156 L306.060005,134.280454 L305.141149,133.70899 L301.718639,130.023532 L301.399255,129.834159 L301.148848,129.866766 L300.800619,129.971277 L300.487505,129.982564 L300.35415,129.72296 L300.209089,129.645622 L299.502181,129.465028 L299.25888,129.431585 L299.006383,129.347976 L298.921102,129.133521 L298.945349,128.517327 L298.775206,128.12395 L298.339188,128.073784 L297.138989,128.207558 L294.834742,128.005226 L294.314698,128.235149 L293.151287,129.297811 L292.512519,129.613015 L292.710671,129.953719 L293.126623,130.492575 L293.31934,130.820738 L293.437646,131.204083 L293.495336,131.541861 L293.62033,131.825711 L293.942222,132.044765 L293.97692,131.83658 L294.210187,131.932312 L294.533752,132.134644 L295.205545,132.371256 L296.33384,133.250816 L297.74724,134.029628 L298.455821,134.319331 L299.168583,134.456449 L298.842928,134.097351 L298.267285,133.601135 L297.942048,133.250816 L298.574963,133.515855 L299.676086,134.468572 L300.235426,134.760366 L300.436086,134.922148 L300.649288,135.037946 L300.874612,134.967296 L301.066912,134.596075 L300.878793,134.301774 L300.559409,134.062654 L300.35415,133.853633 L300.284755,133.1346 L300.649288,133.142543 L301.200267,133.455239 L303.037561,134.249518 L303.932171,134.826834 L306.029488,136.623579 L306.300379,136.703425 L307.262294,136.677924 L307.414043,136.705097 L307.80951,136.99062 L307.916111,136.931258 L308.014351,136.776582 L308.247618,136.687121 L308.853779,136.656186 L309.054857,136.687121 L309.25719,136.805009 L309.787685,137.202985 L309.967861,137.289102 L310.582801,137.419949 L311.27048,137.738497 L313.276245,139.098387 L311.879149,138.832512 L310.02137,138.006044 L308.452041,137.576296 L307.739279,137.508574 L305.077188,138.554515 L303.619058,138.906506 L303.004536,138.495153 L303.186384,138.296165 L303.084382,138.092996 L303.004536,137.893172 L303.360708,137.711742 L303.190983,137.392358 L302.494525,136.788705 L302.050146,136.505691 L300.35415,136.084305 L298.576636,135.063028 L297.685788,134.706856 L296.735579,134.675921 L297.172015,135.217286 L299.350849,136.484789 L299.926493,136.908683 L300.356658,137.332996 L300.694436,137.783227 L300.974942,138.296165 L300.637164,138.347584 L300.372544,138.44666 L300.15349,138.572908 L299.971642,138.715461 L299.322004,139.566594 L299.055712,139.701204 L298.467945,139.789411 L297.736789,140.016825 L297.08966,140.339136 L296.735579,140.706177 L296.753973,141.099972 L296.891508,141.789323 L297.122686,142.443141 L297.43998,142.73577 L298.255161,143.155066 L298.599628,143.219863 L298.6569,143.388752 L298.587087,143.639995 L298.587087,145.351041 L298.285678,146.557092 L297.339231,148.985498 L297.138989,150.008864 L296.789088,150.745036 L296.58801,151.461978 L296.218879,151.784289 L295.33054,152.21947 L293.62033,153.745741 L293.358218,153.825588 L292.961078,153.898745 L292.688097,154.045478 L292.805148,154.339361 L292.961078,154.598965 L293.044686,154.942596 L293.118262,155.637799 L293.063498,157.749329 L293.007899,158.067041 L293.721078,159.895975 L293.45604,162.762489 L293.182222,163.351928 L293.118262,163.614458 L293.054719,163.673402 L292.712761,164.720179 L292.331925,165.128188 L291.859119,165.450498 L291.459471,165.835097 L291.289746,166.437496 L291.289746,167.662358 L291.226204,168.092942 L291.072364,168.289003 L290.882155,168.450786 L290.705742,168.777276 L290.421055,171.653823 L290.14891,172.885375 L290.083695,173.501569 L290.005521,173.827223 L289.622595,174.327202 L289.479206,174.60729 L289.423607,174.936289 L289.479206,175.056685 L289.586225,175.154089 L289.681957,175.411184 L289.69408,175.670788 L289.657292,176.278621 L289.681957,176.635629 L289.773926,176.856355 L289.918987,177.067885 L290.04858,177.318292 L290.083695,177.659414 L289.09628,179.53475 L289.179888,179.85288 L289.475026,180.038491 L289.841649,180.495829 L290.151,181.066038 L290.283937,181.587754 L289.586225,182.076445 L288.221318,181.969427 L287.28365,181.292617 L287.871417,180.070262 L287.207566,179.289778 L287.156565,178.413562 L287.656543,176.837125 L287.68079,176.619326 L287.656543,175.921614 L287.701692,175.608918 L287.807457,175.526146 L287.944992,175.511932 L288.072495,175.411184 L288.371395,174.824671 L288.659844,174.022449 L288.307853,174.027465 L288.020658,173.912922 L287.801604,173.69763 L287.656543,173.402075 L288.207105,172.420512 L288.659844,171.372899 L287.787391,172.733208 L287.656543,173.098576 L287.52486,173.660007 L287.187082,174.327202 L286.734343,174.913714 L286.243144,175.2285 L286.398655,175.756905 L286.554585,177.495124 L286.443804,178.044013 L286.384442,177.943265 L286.384442,177.911493 L286.361867,177.896026 L286.243144,177.84168 L286.247324,178.783947 L286.98684,182.104454 L287.470097,183.306325 L287.770669,184.82967 L288.115554,185.552882 L288.878898,189.237504 L288.873464,190.320651 L288.959162,190.859089 L289.179888,191.265008 L289.344179,191.709386 L289.272276,192.276669 L289.125125,192.864018 L289.079976,193.376538 L288.866357,193.233149 L288.778986,193.247363 L288.659844,193.376538 L288.834168,193.755284 L290.283937,204.265695 L290.224575,204.474716 L290.112122,204.694606 L290.060703,204.927037 L290.184025,205.179535 L290.361693,205.294496 L290.74671,205.378104 L290.888426,205.473836 L291.033486,205.797819 L291.097029,206.192868 L291.10748,207.100019 L291.088668,207.082044 L291.015093,207.102528 L290.928976,207.22167 L290.888426,207.502176 L290.705742,207.502176 L290.564443,207.2664 L290.283937,206.276895 L290.144729,206.021471 L289.982947,205.801999 L289.874256,205.521075 L289.883035,205.070844 L289.692408,205.799909 L291.101209,210.772936 L291.10748,211.120747 L291.027216,211.458525 L290.705742,212.237337 L290.705742,214.35472 L291.142177,216.797757 L294.28,224.804097 L294.523301,226.471248 L294.452234,226.472502 L294.298394,226.459125 L294.154588,226.500511 L294.12198,226.671908 L294.202245,226.834108 L294.333092,226.946144 L294.459758,227.026408 L294.523301,227.073646 L294.990254,228.961524 L295.52911,229.926783 L295.774918,231.300887 L296.024907,231.808808 L296.072146,231.958049 L296.061695,232.447158 L296.114787,232.722229 L297.475095,235.579546 L297.8413,236.056114 L297.917383,236.185707 L297.90526,236.43486 L297.942048,236.559855 L298.031509,236.666455 L298.230915,236.820295 L300.629222,239.353629 L301.175184,239.793409 L301.399255,239.574773 L301.820641,239.782122 L302.466098,240.293805 L303.346494,240.473982 L304.813404,240.998206 L304.925857,241.0722 L305.109795,241.335566 L305.214306,241.42001 L305.369818,241.423773 L305.482689,241.345599 L305.591798,241.247777 L305.728498,241.201793 L305.960511,241.261573 L306.084669,241.401199 L306.181237,241.540825 L306.318773,241.602695 L307.30577,241.743993 L307.754329,241.709296 L308.247618,241.42001 L308.46709,241.749846 L308.624274,242.06923 L308.874263,242.310858 L309.353757,242.407008 L311.063967,242.206347 L311.565617,242.354334 L312.081899,242.622717 L312.569336,242.81 L312.983198,242.718031 L313.703902,242.181683 L314.10564,241.953432 L314.498182,241.803355 L315.004431,241.733542 L316.20881,241.803355 L316.728436,241.201793 L318.995895,239.530043 L319.768437,239.234487 L320.564389,239.390417 L321.011276,238.76419 L321.750792,238.480757 L323.379065,238.184366 L324.865623,237.678535 L327.931542,237.020119 L328.57031,236.742539 L329.209915,236.358776 L329.549365,236.205773 L329.809387,236.136378 L329.973677,235.949513 L330.031367,235.454552 L330.14173,235.22003 L330.373325,235.156906 L330.586109,235.322868 L330.63711,235.77519 L334.184614,234.518138 L335.278212,233.925772 L340.742856,229.652129 L341.494078,229.250809 L342.042967,229.084846 L343.757775,227.878795 L344.682902,226.954922 L347.452012,222.591818 L347.783519,221.741939 L347.577006,221.024997 L348.414763,219.720288 L348.582815,219.217384 L348.676875,218.849925 L349.10495,218.029726 L349.202772,217.498395 L349.229526,216.861299 L349.307282,216.380551 L350.665082,211.70726 L350.831463,210.534652 L350.783806,209.920967 Z M291.654279,133.727384 L292.113289,134.055547 L292.481584,134.011653 L293.012079,133.701883 L293.21901,133.752885 L293.51582,133.936823 L293.933862,134.064744 L294.316788,134.0614 L294.523301,133.853633 L294.392872,133.575635 L294.007437,133.359089 L293.552607,133.168462 L293.21901,132.958187 L293.149197,132.775502 L293.106138,132.333632 L293.007899,132.244589 L292.436435,132.277196 L292.315621,132.244589 L292.078173,131.97328 L291.949416,131.675634 L291.904268,131.33284 L291.894235,130.930265 L291.971573,130.531035 L292.084444,130.183642 L292.055599,129.935325 L291.70946,129.834159 L291.064422,129.968769 L290.882155,130.492575 L290.808162,131.138032 L290.487106,131.642609 L291.197777,133.054754 L291.654279,133.727384 Z M345.983848,190.238715 L345.967127,190.541795 L346.064949,190.832334 L346.317446,191.367846 L346.370537,191.676361 L347.351682,193.113589 L347.476258,193.376538 L347.800241,193.648683 L347.880087,194.287033 L347.763453,196.202919 L347.800241,196.491368 L347.982507,196.685758 L348.395951,197.014339 L348.838239,196.656913 L348.854543,196.065384 L348.355401,193.49777 L347.308623,191.846086 L346.970846,190.944788 L346.706225,190.552246 L346.34002,189.704039 L345.967127,189.336998 L346.110515,189.681465 L346.073728,189.966987 L345.983848,190.238715 Z M281.944,149.489656 L281.9996,149.74508 L282.026354,149.718325 L282.017993,149.553199 L281.944,149.489656 Z M286.378171,149.314497 L286.284112,149.596675 L286.42541,149.88178 L286.756917,150.008864 L287.400702,150.078677 L288.076258,150.260944 L289.280636,150.795619 L290.495048,151.864135 L290.800219,152.01881 L291.035577,152.201494 L291.35078,152.584839 L291.811881,152.93683 L292.512519,153.023783 L292.254169,152.557248 L290.888426,151.014673 L291.383806,151.099118 L292.232013,151.516324 L292.712761,151.617072 L291.70946,150.653067 L290.513442,149.961626 L289.259734,149.487984 L288.072495,149.187412 L286.756917,149.187412 L286.378171,149.314497 Z M290.693618,135.603974 L290.959911,135.568023 L291.05188,135.421708 L291.132144,134.808441 L291.015093,134.404194 L290.720373,134.185976 L290.470384,134.183886 L290.458261,134.348176 L290.625896,134.644986 L290.501319,134.74448 L290.263871,134.767472 L290.05067,134.586878 L289.841649,134.052621 L289.687809,133.895437 L289.579118,134.049276 L289.53815,135.150817 L289.728777,135.415437 L290.693618,135.603974 Z M294.564269,144.056783 L294.712256,143.957289 L294.894104,143.744924 L294.93549,143.543845 L294.855226,143.4084 L294.665017,143.258741 L294.491112,143.509148 L294.314698,143.609478 L294.564269,144.056783 Z M292.673883,153.797161 L292.528823,153.614476 L292.418041,154.125324 L292.673883,153.797161 Z M284.657928,150.028094 L284.292978,150.256763 L284.586443,150.238369 L284.676322,150.16563 L285.278721,150.16563 L285.184243,150.055685 L284.657928,150.028094 Z" id="Fill-3"></path>
        </g>
    </g>
</svg>