
<svg width="152px" height="116px" viewBox="0 0 152 116" version="1.1" xmlns="http://www.w3.org/2000/svg" xmlns:xlink="http://www.w3.org/1999/xlink">
    <!-- Generator: Sketch 51.2 (57519) - http://www.bohemiancoding.com/sketch -->
    <desc>Created with Sketch.</desc>
    <defs></defs>
    <g id="Page-1" stroke="none" stroke-width="1" fill="none" fill-rule="evenodd">
        <g id="LT-EPS-01-0001" transform="translate(-233.000000, -173.000000)" fill="#7F807C">
            <path d="M384.221649,225.997886 L383.636837,225.542436 L379.367288,224.799051 L377.816134,225.219329 L377.364857,225.187733 L375.84053,224.607094 L375.454231,224.313197 L375.324869,223.830921 L375.581805,222.987384 L376.197021,221.855912 L376.392554,221.433846 L376.747257,219.75333 L376.973194,219.267476 L377.879325,218.330942 L377.943112,217.8433 L377.460239,216.875766 L377.588409,215.772909 L378.107647,214.933545 L378.719881,214.188967 L379.206331,213.41339 L379.466247,212.410684 L379.530034,211.214233 L379.431075,209.983206 L379.206331,208.916117 L377.943112,208.883925 L376.489129,208.496435 L372.929582,206.749747 L371.311065,205.521701 L369.952464,203.060243 L369.341421,201.66945 L368.692822,200.668533 L366.138366,198.437184 L364.55204,196.623729 L360.800536,194.100868 L358.083334,191.026579 L356.596564,189.994066 L356.271668,189.667978 L356.044539,189.186298 L355.559878,187.631567 L355.364344,187.212481 L355.04064,187.083715 L353.520486,187.212481 L353.068612,187.11531 L351.774991,186.500691 L350.028303,186.821414 L341.132715,185.269068 L340.194393,184.590065 L339.450411,183.199273 L338.998537,181.711906 L338.738025,181.259436 L337.865873,180.320517 L337.605957,179.836452 L337.315041,178.96132 L336.666441,176.147543 L335.987439,174.207707 L335.536162,173.431534 L334.987714,173.236 L334.631223,173.5603 L334.532263,174.044365 L334.500668,174.563006 L334.340307,174.983284 L334.113178,175.01786 L333.529557,174.78775 L333.272622,174.78775 L330.002799,176.245906 L329.003073,177.054271 L326.898702,179.900835 L326.413445,180.417092 L324.925482,181.291628 L324.05333,181.679118 L323.211582,181.45497 L321.562661,180.25673 L320.719721,179.93243 L319.944144,180.062985 L316.837663,181.679118 L316.126469,181.80848 L315.350892,181.647523 L314.47874,181.160477 L312.052454,179.255216 L308.882187,178.24953 L308.039246,178.217338 L306.260963,178.640597 L305.452002,178.510043 L305.420407,178.346104 L305.452002,178.057573 L305.420407,177.701678 L305.192682,177.377378 L304.968534,177.312995 L304.256147,177.441761 L302.477864,177.345783 L301.634328,177.569931 L300.081981,178.510043 L299.143658,178.445063 L294.74594,176.56961 L294.16232,176.44144 L291.187586,177.152634 L290.700541,177.441761 L290.928266,177.928807 L289.633452,179.319599 L288.341022,179.640918 L287.174974,178.736575 L286.270631,176.44144 L285.655415,175.114434 L284.815455,174.627389 L283.908132,174.78775 L282.193636,175.986586 L278.539303,177.506144 L278.151216,177.569931 L277.695766,177.377378 L276.564294,176.179139 L275.820909,175.794033 L274.17318,175.403562 L266.537831,175.662882 L266.018594,175.467349 L265.049868,174.756155 L264.563418,174.499219 L263.400351,174.435432 L252.853458,179.416174 L250.590514,179.512152 L249.619403,179.999794 L246.029454,182.778995 L245.641367,182.909549 L244.4783,182.973932 L243.699146,183.39421 L242.731016,184.202575 L241.823692,185.205281 L241.176285,186.209179 L240.724412,187.696546 L240.528878,188.956188 L240.140792,189.830724 L239.105298,190.122236 L237.58574,190.122236 L236.615225,190.34698 L236.746376,191.966094 L236.746376,195.911939 L236.681397,196.334601 L236.454864,196.982008 L236.390481,197.46667 L236.390481,199.470293 L236.778567,203.322544 L237.002716,204.226291 L237.134462,205.358359 L237.294824,205.649871 L237.521953,205.810232 L237.781273,206.070149 L238.848958,207.94441 L239.00932,208.39986 L239.073107,209.272608 L239.237045,210.146548 L240.207559,212.733792 L240.30473,213.188646 L240.30473,213.509965 L240.271942,213.865264 L240.239751,214.416692 L240.367921,214.836374 L240.627837,215.192269 L240.887158,215.452186 L240.983733,215.612547 L241.015328,215.968442 L241.339031,217.32764 L241.63114,219.171498 L241.63114,220.273163 L241.243053,220.754247 L241.015328,221.113123 L240.012622,223.376067 L239.948239,223.408258 L239.948239,223.504237 L240.077005,223.863709 L241.567353,222.439532 L241.823692,222.47232 L241.823692,223.504237 L241.888076,223.991282 L242.115205,224.184431 L242.278547,224.379965 L242.503291,224.862838 L242.666037,225.382671 L242.731016,225.73797 L242.567078,226.190439 L242.374525,226.190439 L242.179588,226.126653 L242.019226,226.287014 L242.019226,226.644697 L242.147396,227.677806 L242.115205,227.905532 L244.217787,226.126653 L244.865194,226.030078 L245.641367,226.805059 L247.227693,229.555048 L248.164228,230.299626 L250.818239,230.523774 L251.853733,231.043608 L253.664207,232.466592 L254.116081,233.049616 L254.569146,233.435318 L256.347429,233.826385 L257.222561,234.60077 L257.706626,234.922089 L258.613354,235.152795 L259.226185,235.569496 L259.486102,235.668455 L259.713827,235.569496 L260.392829,235.053835 L261.071832,234.989452 L261.395535,235.216581 L261.49211,235.701242 L261.49211,236.445224 L261.716854,237.189206 L262.300474,237.672078 L262.979477,237.9004 L263.563097,237.836613 L264.047162,237.480122 L264.338674,237.059843 L264.662973,236.704545 L267.444558,235.960563 L272.198768,236.542991 L274.884374,235.732242 L275.497205,236.089925 L275.885292,236.542991 L276.176804,237.447334 L276.599466,239.487322 L276.955361,240.487643 L277.243893,241.038476 L277.667152,241.26322 L279.122327,241.26322 L279.379263,241.329392 L279.542009,241.526118 L279.735158,241.846244 L279.994479,242.13716 L280.350374,242.268907 L280.058862,242.850142 L280.253799,243.204845 L281.805549,243.916635 L282.129253,244.27253 L282.324786,244.856151 L282.712277,246.666625 L282.808851,247.47499 L282.744468,248.251163 L282.420765,249.02674 L282.033274,249.449402 L281.22491,250.033022 L280.869611,250.61247 L280.641886,250.840791 L280.189416,251.097131 L279.929499,251.32426 L279.702967,251.388047 L279.606988,251.45541 L279.574797,251.649155 L279.606988,251.873304 L279.670775,252.068241 L279.670775,252.263775 L279.122327,253.104331 L279.023368,253.426842 L279.023368,253.879908 L279.186114,254.882018 L279.218305,255.366679 L279.090136,256.178024 L278.507112,258.277626 L278.343769,261.70781 L278.507112,263.424691 L279.186114,264.94425 L280.737864,267.694835 L281.22491,267.304364 L281.904508,266.041145 L282.548935,265.752614 L283.100363,265.816401 L284.652113,266.624766 L284.943625,266.656957 L285.526649,266.527595 L285.783585,266.591978 L286.042906,266.884086 L286.206248,267.239385 L286.334418,267.595876 L286.494779,267.887984 L286.786887,268.078749 L287.661423,268.1789 L287.822381,268.406029 L287.725806,268.82273 L287.564849,269.310372 L287.564849,269.762246 L288.017915,270.410845 L288.597958,270.410845 L289.21377,270.150332 L289.732411,270.02097 L290.184284,270.246907 L291.771206,271.6067 L292.739336,272.220127 L294.810323,272.996896 L295.813626,273.839837 L296.07235,274.227924 L296.524819,275.131074 L296.752545,275.491142 L297.008884,275.650311 L297.560313,275.811269 L297.784461,275.94242 L298.20772,276.555251 L298.563615,277.429787 L298.855127,278.401493 L299.04768,279.336836 L299.435171,281.375631 L299.435171,282.347934 L299.04768,283.02634 L298.724573,283.286257 L298.595211,283.446619 L298.464656,283.639171 L298.464656,284.094026 L298.563615,284.48092 L298.787763,284.805816 L299.04768,285.03056 L299.208638,285.224901 L299.275405,285.453223 L299.275405,285.676775 L299.17585,285.936095 L300.050982,286.164417 L302.346118,287.555805 L302.800972,287.716167 L303.187866,287.683975 L304.449296,287.13195 L306.06841,286.908398 L306.519091,286.584695 L306.907774,286.421949 L307.102712,286.452948 L307.554585,286.712865 L307.78231,286.779036 L307.974863,286.747441 L309.949872,285.613584 L310.49832,285.549797 L310.888195,285.710159 L311.632176,286.197204 L312.052454,286.293779 L313.702567,286.293779 L314.446549,286.067842 L316.029894,285.224901 L316.870451,285.061559 L317.680604,285.356052 L318.392394,286.228204 L318.844267,287.492018 L319.136375,287.90872 L319.62044,288.008871 L320.494976,287.974891 L321.303341,288.236 L322.242856,288.236 L323.178794,287.747762 L326.124914,285.094347 L327.416151,284.351558 L329.06686,284.029046 L329.682672,283.542597 L329.778054,283.542597 L329.875225,283.574788 L329.974184,283.639171 L330.295503,284.48092 L330.685378,284.869603 L331.138444,284.901198 L332.820748,284.61207 L333.272622,284.383153 L333.596325,283.639171 L333.660112,282.443316 L333.432983,281.603953 L333.077088,280.857586 L332.754577,279.91986 L332.625214,279.241453 L332.65681,279.113283 L332.820748,279.113283 L333.045493,278.819983 L333.531942,278.529663 L333.531942,278.36811 L333.499751,278.077194 L333.499751,277.75349 L333.596325,277.494766 L334.468477,276.945126 L335.66612,276.814571 L336.83038,276.977913 L338.869175,277.75349 L340.032839,277.560937 L341.164311,276.849743 L342.231996,275.650311 L342.652274,274.747161 L343.171511,272.675577 L343.494022,272.091957 L343.947088,272.02817 L345.565606,272.611791 L347.668188,272.480044 L348.281019,272.060958 L349.315917,270.541399 L349.963324,270.214119 L350.287027,270.278502 L350.447389,270.44244 L350.577943,270.700569 L352.38961,273.19243 L352.162481,273.355772 L351.546669,273.322984 L351.031009,273.612708 L350.966626,274.035371 L351.581841,274.35669 L351.743395,274.711989 L351.550246,275.035692 L350.80388,275.295609 L350.609539,275.61812 L350.80388,276.394293 L351.386904,276.945126 L352.065906,277.29804 L354.362234,277.689107 L354.945258,277.657512 L355.203983,277.494766 L355.624261,276.912338 L355.916369,276.78238 L356.887479,276.912338 L357.174818,276.881339 L357.792419,276.425888 L357.98676,275.746886 L358.018355,273.740878 L358.11493,273.548921 L358.407038,273.127451 L358.469633,272.931917 L358.407038,272.675577 L358.277676,272.576618 L358.147121,272.514024 L358.050547,272.381085 L357.890185,271.9 L357.695248,271.510125 L357.46633,271.188807 L357.209991,270.894314 L357.079436,270.862718 L356.78852,270.958101 L356.691946,270.925313 L356.596564,270.764952 L356.335455,269.989375 L356.271668,269.567904 L356.11071,269.213798 L355.754815,269.018264 L355.364344,269.117223 L353.812594,269.925588 L352.681718,269.989375 L352.130289,269.76463 L351.774991,269.182798 L351.806586,268.078749 L352.293035,267.110023 L353.457295,265.688231 L353.910361,264.715928 L354.008128,263.87418 L354.008128,262.969837 L354.104702,261.805577 L354.395618,260.899446 L354.783705,260.380209 L356.368242,259.44427 L356.854692,258.925033 L357.242778,258.181052 L357.370948,257.3089 L357.209991,256.437941 L356.562584,254.851019 L356.399838,253.976483 L356.430837,253.426842 L356.562584,252.974969 L356.691946,252.583902 L356.78852,252.100433 L356.820116,251.649155 L356.723541,249.384423 L356.78852,248.801995 L357.079436,248.413313 L357.631461,247.897652 L357.887801,247.767098 L358.050547,247.767098 L358.178717,247.666946 L358.310463,247.314032 L358.310463,246.956349 L358.083334,246.083601 L358.050547,245.696707 L358.310463,244.856151 L358.794528,244.339298 L359.376956,243.88504 L359.925404,243.237633 L360.089342,242.785759 L360.120938,242.397077 L360.217512,242.073373 L360.509621,241.814649 L361.480731,241.394371 L361.9642,241.394371 L362.903715,241.6215 L363.38778,241.6215 L366.525856,240.974093 L367.465371,240.422068 L367.853458,240.00179 L368.725013,238.643189 L369.663932,236.576375 L369.792698,236.185307 L369.760507,235.668455 L369.727719,234.569174 L369.792698,234.049937 L370.601063,232.755123 L371.766515,232.563166 L374.613079,233.307148 L374.837824,233.307148 L375.09774,233.243361 L375.260486,233.049616 L375.421444,232.787911 L375.649765,232.563166 L376.004468,232.530379 L378.719881,233.762598 L379.303502,233.662447 L379.690992,233.018617 L379.981908,231.689823 L380.142865,230.459988 L380.338399,229.973538 L380.758677,229.392302 L381.502659,228.648917 L381.888957,228.421788 L383.540262,227.969915 L384.156074,227.518041 L384.44699,226.77406 L384.221649,225.997886 Z M238.233743,207.460941 L237.393783,206.393256 L237.617931,207.623687 L237.554144,210.470848 L237.781273,211.375191 L237.617931,211.797257 L237.781273,212.022598 L237.617931,212.797579 L237.328804,216.615849 L236.293906,220.304758 L235.226221,222.987384 L233.284,226.319205 L234.934709,226.740676 L234.966901,226.030078 L236.227139,224.346581 L236.550842,223.441046 L236.714184,222.503915 L237.134462,221.498229 L237.58574,220.626077 L237.941635,220.141416 L237.941635,219.849904 L237.45757,219.235285 L237.617931,218.523495 L238.008402,217.779513 L238.298126,217.035531 L238.298126,215.321035 L238.361913,214.773184 L238.589042,214.028606 L238.653425,213.445582 L238.589042,209.464565 L238.233743,207.460941 Z" id="Fill-3"></path>
        </g>
    </g>
</svg>