
<svg width="154px" height="109px" viewBox="0 0 154 109" version="1.1" xmlns="http://www.w3.org/2000/svg" xmlns:xlink="http://www.w3.org/1999/xlink">
    <!-- Generator: Sketch 51.2 (57519) - http://www.bohemiancoding.com/sketch -->
    <desc>Created with Sketch.</desc>
    <defs></defs>
    <g id="Page-1" stroke="none" stroke-width="1" fill="none" fill-rule="evenodd">
        <g id="MV-EPS-01-0001" transform="translate(-307.000000, -311.000000)" fill="#D8D8D8">
            <g id="Group" transform="translate(306.000000, 311.000000)">
                <polygon id="Path" points="20.6768952 39.1529335 14.2479133 28.381754 7.18657258 21.5311996 8.24050403 16.6409577 7.39735887 12.361996 8.24050403 9.7693246 14.2479133 9.09480847 14.2479133 1.82268145 0.968377016 8.69431452 4.61497984 26.6743851 20.4661089 62.0021673 27.5485282 62.0021673 25.3985081 50.8937298"></polygon>
                <polygon id="Path" points="99.5742036 96.9505343 98.7099798 102.599607 103.410514 100.618216 106.424758 98.0677016 108.132127 95.0745363 111.125292 91.1960685 102.145796 94.4000202"></polygon>
                <polygon id="Path" points="144.998649 7.36636089 142.427056 14.9125101 144.555998 22.2057157 150.542329 29.0351915 152.692349 11.0761996 152.692349 8.08303427 153.556573 6.10164315 154.21001 3.55112903 153.135 0.536885081"></polygon>
                <polygon id="Path" points="71.4763911 106.182974 73.6264113 107.489849 80.2451008 108.164365 70.8440323 101.31381"></polygon>
                <polygon id="Path" points="32.6917137 80.087631 32.2701411 82.6381452 32.6917137 84.977873 35.684879 86.2636694 33.1132863 76.4199496"></polygon>
                <polygon id="Path" points="135.998075 44.7176915 132.983831 53.8868952 133.637268 63.9835585 146.073659 47.0152621 141.14126 40.8392238"></polygon>
            </g>
        </g>
    </g>
</svg>