
<svg width="71px" height="116px" viewBox="0 0 71 116" version="1.1" xmlns="http://www.w3.org/2000/svg" xmlns:xlink="http://www.w3.org/1999/xlink">
    <!-- Generator: Sketch 51.2 (57519) - http://www.bohemiancoding.com/sketch -->
    <desc>Created with Sketch.</desc>
    <defs></defs>
    <g id="Page-1" stroke="none" stroke-width="1" fill="none" fill-rule="evenodd">
        <g id="MZ-EPS-01-0001" transform="translate(-246.000000, -84.000000)" >
            <path d="M264.118002,193.548988 L263.964871,193.748711 L264.04035,193.965829 L264.086941,193.79375 L264.086941,193.762689 L264.173602,193.748711 L264.197519,193.779151 L264.199693,193.831334 L264.227959,193.863948 L264.303127,193.906502 L264.324559,193.936942 L264.340401,193.930108 L264.405008,193.863948 L264.425819,193.820462 L264.496017,193.608004 L264.540745,193.393682 L264.545715,193.311991 L264.357795,193.396167 L264.118002,193.548988 Z M281.182707,161.184165 L281.106918,161.323008 L280.893527,162.205146 L280.820844,162.747474 L280.823018,162.888492 L280.874891,162.990994 L281.010939,162.97888 L281.245761,161.984301 L281.288936,161.469306 L281.279307,161.297538 L281.241723,161.189134 L281.182707,161.184165 Z M262.679248,119.814083 L262.577989,119.823712 L262.460578,119.741089 L262.280112,119.529873 L262.18258,119.503781 L261.929121,119.57926 L261.802081,119.57926 L261.675351,119.562798 L261.574091,119.532047 L261.621304,119.649458 L261.590243,119.729907 L261.506067,119.781468 L261.392694,119.814083 L261.266586,119.818742 L261.176508,119.776809 L260.97958,119.623678 L260.866207,119.729907 L260.727674,119.80756 L260.636044,119.898259 L260.661824,120.048905 L260.479185,120.063504 L260.341894,120.095808 L260.260203,120.143021 L260.208331,120.18837 L260.142792,120.199552 L260.020411,120.143021 L259.96388,120.223159 L259.872249,120.282175 L259.768505,120.301122 L259.676874,120.261053 L259.60388,120.239932 L259.510076,120.257947 L259.091371,120.418533 L259.016513,120.428162 L258.973649,120.471959 L258.969611,120.565763 L258.945383,120.662985 L258.856238,120.704917 L258.759948,120.695289 L258.515186,120.612976 L258.151459,120.56421 L258.066662,120.528801 L257.91819,120.445867 L257.737414,120.413564 L257.565645,120.34554 L257.394188,120.317274 L257.146941,120.236825 L257.032014,120.227818 L256.973619,120.248939 L256.921747,120.291183 L256.825457,120.354858 L256.651204,120.425056 L256.470428,120.471959 L255.722785,120.543089 L255.527411,120.518861 L255.386703,120.449284 L255.292899,120.324107 L255.238231,120.287145 L255.139456,120.283728 L255.087584,120.334047 L255.043167,120.416048 L254.977628,120.455496 L254.862701,120.377843 L254.893452,120.34554 L254.92824,120.270061 L254.954021,120.236825 L254.888482,120.209181 L254.813003,120.197378 L254.751502,120.218189 L254.726343,120.283728 L254.706774,120.354858 L254.659872,120.360138 L254.601477,120.34088 L254.54743,120.33063 L254.391814,120.34554 L254.234644,120.329388 L254.086482,120.279069 L253.957578,120.194893 L253.908191,120.348024 L253.869986,120.418533 L253.811901,120.408594 L253.703187,120.308266 L253.585776,120.24428 L253.531419,120.329388 L253.494145,120.56421 L253.392886,120.486247 L253.299081,120.445867 L253.197511,120.449284 L253.08507,120.496186 L253.047796,120.543089 L253.056804,120.599931 L253.094698,120.643727 L253.153094,120.662985 L253.186329,120.689076 L253.150919,120.749646 L253.061774,120.846246 L252.98878,120.968627 L252.915786,121.027643 L252.720411,121.127971 L252.629091,121.212457 L252.398928,121.555683 L252.342397,121.466538 L252.304191,121.297254 L252.297668,121.123312 L252.329972,121.01056 L252.405451,120.977324 L252.593682,120.980741 L252.675994,120.940051 L252.730351,120.867057 L252.761101,120.79251 L252.767624,120.707402 L252.762654,120.612976 L252.615424,120.68566 L252.553613,120.703054 L252.469437,120.704917 L251.933321,120.62509 L251.578291,120.465436 L251.294082,120.418533 L251.072615,120.33063 L250.715722,120.283728 L250.621607,120.256705 L250.348579,120.143021 L250.249805,120.138051 L250.167803,120.14768 L250.085491,120.129043 L249.983921,120.048905 L250.073066,119.98554 L250.127423,119.96007 L250.19141,119.966283 L251.349992,120.314789 L251.61308,120.360138 L251.980223,120.49277 L252.170628,120.522278 L252.280585,120.522278 L252.391784,120.507368 L252.488074,120.465436 L252.561067,120.38126 L252.654872,120.309819 L252.850247,120.382813 L252.903672,120.283728 L253.023258,120.314789 L253.148124,120.120346 L253.270815,120.120346 L253.390712,120.131839 L253.482031,120.06133 L253.536389,119.941123 L253.543533,119.814083 L253.642618,119.86844 L253.768726,119.877137 L254.211037,119.835204 L254.251106,119.860985 L254.312297,119.933979 L254.368207,119.929009 L254.427223,119.887076 L254.503013,119.860985 L254.561097,119.86844 L254.678508,119.902918 L254.726343,119.907887 L254.779768,119.889251 L254.895005,119.828681 L254.956506,119.814083 L255.090069,119.811598 L255.21245,119.823712 L255.311535,119.877137 L255.365582,120.002003 L255.402855,119.927456 L255.464356,119.870614 L255.522441,119.860985 L255.548843,119.929009 L255.534865,120.108232 L255.565616,120.150165 L255.663769,120.073444 L255.736452,119.99051 L255.790809,119.948578 L255.856348,119.927456 L256.87236,119.797931 L257.044128,119.755688 L257.237018,119.679898 L257.333308,119.673065 L257.419969,119.720278 L257.563161,119.870614 L257.643609,119.896705 L257.859795,119.675239 L258.024419,119.743574 L258.203332,119.880554 L258.379138,119.950131 L258.468284,119.936464 L258.524815,119.901365 L258.626385,119.790476 L258.704038,119.738915 L258.783244,119.717482 L259.162501,119.701331 L259.834044,119.54354 L259.900515,119.515895 L260.088435,119.324869 L260.158944,119.272686 L260.241567,119.230754 L260.341894,119.195965 L260.328227,119.237898 L260.313939,119.302194 L260.292507,119.341642 L260.555906,119.428303 L260.636044,119.438242 L260.727674,119.418674 L260.845085,119.324869 L260.936405,119.293808 L260.974921,119.306232 L261.042635,119.370218 L261.073385,119.388855 L261.129295,119.38637 L261.207569,119.35065 L261.254161,119.341642 L261.329329,119.349097 L261.503893,119.405007 L261.574091,119.438242 L261.621304,119.35562 L261.675351,119.35065 L261.733746,119.371771 L261.802081,119.365249 L261.822581,119.344127 L261.886878,119.263989 L261.895575,119.246905 L261.949932,119.261504 L261.980993,119.292565 L262.004599,119.324869 L262.032865,119.341642 L262.277317,119.383885 L262.413365,119.371771 L262.533261,119.293808 L262.533261,119.48297 L262.544443,119.517759 L262.530776,119.54851 L262.530776,119.567768 L262.577989,119.576775 L262.69012,119.571805 L262.709688,119.576775 L262.733295,119.729907 L262.679248,119.814083 Z M316.859584,114.148212 L316.819826,114.09634 L316.815167,114.064036 L316.828834,114.026452 L316.921085,113.626384 L316.904002,113.51798 L316.89282,113.469214 L316.890335,113.375099 L316.883191,113.33006 L316.848092,113.27415 L316.807712,113.236256 L316.767954,113.208611 L316.746832,113.187489 L316.687816,113.068836 L316.676323,112.996153 L316.815167,112.60385 L316.82697,112.488923 L316.79156,112.392013 L316.707074,112.341072 L316.643088,112.37555 L316.582208,112.443885 L316.514184,112.490787 L316.413235,112.495446 L316.342415,112.463143 L316.335271,112.401641 L316.424728,112.323678 L316.523192,112.286404 L316.728195,112.239502 L316.815167,112.18266 L316.885365,111.978899 L316.79156,111.774516 L316.610784,111.61424 L316.424728,111.548391 L316.340241,111.564853 L315.93862,111.757433 L315.886437,111.81179 L315.705351,112.387975 L315.604091,112.544834 L315.464937,112.677154 L315.460588,112.568751 L315.509665,112.250995 L315.493513,112.255965 L315.462452,112.234843 L315.432944,112.197569 L315.418345,112.160296 L315.555014,112.018657 L315.472702,111.957777 L315.467733,111.879814 L315.526749,111.837881 L315.646334,111.875154 L315.509665,111.129686 L315.61372,111.153292 L315.74076,111.286856 L315.83208,111.316053 L315.902278,111.285613 L316.060691,111.158262 L316.149836,111.129686 L316.135237,111.017244 L316.135237,110.885234 L316.168783,110.756331 L316.241467,110.657556 L316.131199,110.591706 L316.09579,110.516538 L316.109146,110.309981 L316.071873,110.206237 L315.992045,110.109947 L315.910044,110.05559 L315.582659,110.191638 L315.418345,110.318989 L315.418345,110.518712 L315.350011,110.570895 L315.281676,110.603199 L315.211788,110.605684 L315.140969,110.565925 L315.183523,110.546668 L315.281676,110.472121 L315.204334,110.412794 L315.214273,110.342285 L315.235395,110.274572 L315.190356,110.215866 L315.128855,110.219904 L315.056172,110.34974 L314.964541,110.378005 L315.002747,110.186979 L314.906146,110.045651 L314.859244,109.930724 L315.056172,109.815798 L315.246577,109.785047 L315.333859,109.754297 L315.397224,109.677265 L315.413686,109.58315 L315.378587,109.503012 L315.312737,109.437473 L315.237569,109.39026 L315.498483,109.291796 L315.573651,109.209794 L315.604091,109.028397 L315.592288,108.887379 L315.526749,108.58826 L315.509665,108.417734 L315.495998,108.362445 L315.458725,108.299391 L315.413686,108.240996 L315.310563,108.141911 L315.295654,108.066742 L315.293479,107.991264 L315.206508,107.810177 L315.101521,106.999791 L315.068286,106.876788 L314.886888,106.484796 L314.866077,106.332286 L314.938761,106.197791 L315.157742,105.995272 L315.244092,105.891528 L315.237569,105.847731 L315.101521,105.802693 L314.995603,105.69491 L314.899002,105.572529 L314.784076,105.47624 L314.861729,105.373117 L314.901487,105.231478 L314.915465,104.939192 L314.964541,104.825508 L315.164575,104.609322 L315.192841,104.453705 L315.159916,104.465819 L315.086922,104.483835 L315.056172,104.495949 L315.056172,103.9384 L314.889373,104.078797 L314.800228,104.112654 L314.784076,104.031895 L314.839986,103.936226 L314.931927,103.868823 L315.016414,103.79117 L315.056172,103.658228 L315.101521,103.147272 L315.086922,103.027065 L315.025732,102.798765 L315.008959,102.677937 L315.04002,102.453365 L315.199674,102.05982 L315.237569,101.839907 L315.19719,101.7197 L315.103074,101.7197 L314.990633,101.749829 L314.893722,101.723738 L314.816069,101.676835 L314.706112,101.648259 L314.602368,101.651676 L314.550806,101.700131 L314.579072,101.807914 L314.649581,101.901718 L314.685301,101.998319 L314.597398,102.116351 L314.492101,102.153935 L314.391152,102.119768 L314.054759,101.813505 L314.019971,101.738958 L314.010342,101.610986 L314.057244,101.508173 L314.169686,101.397285 L314.304491,101.300063 L314.497381,101.198804 L314.539314,101.188243 L314.597398,101.194766 L314.672566,101.231418 L314.693998,101.275836 L314.687476,101.333299 L314.731893,101.36964 L314.748045,101.395421 L314.766682,101.388898 L314.823524,101.333299 L314.863282,101.278942 L314.938761,101.097544 L314.967026,100.965224 L314.906146,100.88695 L314.823524,100.833214 L314.784076,100.775129 L314.816069,100.72481 L315.002747,100.742826 L315.101521,100.681014 L315.082263,100.669832 L315.060831,100.61796 L315.049649,100.549936 L315.056172,100.494647 L315.162401,100.59777 L315.305904,100.636596 L315.448785,100.604293 L315.555014,100.494647 L315.582659,100.418547 L315.580795,100.344 L315.545696,100.287469 L315.464937,100.264173 L315.432944,100.228142 L315.376102,100.052646 L315.326715,99.9812054 L315.251547,99.9746825 L315.178242,100.013509 L315.122643,100.011956 L315.060831,99.7128367 L315.056172,99.6271079 L315.101521,99.5606369 L315.173894,99.5615688 L315.289752,99.6914045 L315.352496,99.6805331 L315.399398,99.5963573 L315.36492,99.5404472 L315.169235,99.4416726 L315.094066,99.422104 L315.03474,99.3798608 L315.008959,99.2801544 L315.016414,98.817964 L314.983178,98.7847285 L314.701142,98.7716828 L314.621626,98.7586371 L314.550806,98.7272653 L314.456691,98.6201042 L314.473464,98.5067309 L314.644611,98.2607263 L314.701142,98.1162918 L314.743386,98.0547907 L314.896517,98.0150324 L314.950564,97.975274 L314.990633,97.9187427 L315.008959,97.8479232 L314.816069,97.8724615 L314.724749,97.8569309 L314.666665,97.8028845 L314.644611,97.6941703 L314.672566,97.6090627 L314.715741,97.5264399 L314.737173,97.4326351 L314.693998,97.2633517 L314.588701,97.0844393 L314.443024,96.974172 L314.27871,97.0114455 L314.294862,96.868564 L314.360401,96.851791 L314.456691,96.8912387 L314.550806,96.9191938 L314.643058,96.868564 L314.717605,96.7505315 L314.769477,96.6110668 L314.784076,96.4992465 L314.745871,96.390843 L314.621626,96.2050971 L314.597398,96.0830266 L314.609823,95.9892219 L314.687476,95.66339 L314.706112,95.4462724 L314.748045,95.3751422 L314.849615,95.268913 L314.849615,95.20648 L314.644611,94.9204065 L314.55764,94.7203725 L314.513533,94.5197172 L314.55764,94.3218575 L314.737173,94.1395283 L314.644611,94.09977 L314.607648,94.1072247 L314.550806,94.1395283 L314.46632,94.0336097 L314.429046,93.9183727 L314.416622,93.5897453 L314.407304,93.5465703 L314.386182,93.5102287 L314.263801,93.3918856 L314.233982,93.2589437 L314.214414,93.040273 L314.193603,92.9607563 L314.120298,92.8629136 L314.132723,92.8045186 L314.28337,92.6343033 L314.322817,92.5582034 L314.27343,92.4765124 L314.169686,92.3792909 L314.092654,92.2755466 L314.120298,92.1683855 L314.200747,92.0770656 L314.254793,91.983882 L314.322817,91.7748403 L314.372515,91.5139263 L314.412273,91.2871797 L314.377174,91.0740999 L314.184284,91.1213129 L314.120298,91.0250233 L314.028978,90.9144454 L313.92337,90.8156709 L313.824596,90.7572758 L313.773034,90.8951875 L313.720851,90.8448684 L313.664009,90.7150326 L313.596607,90.614705 L313.67426,90.6016593 L313.833604,90.6016593 L313.919022,90.5727724 L313.973068,90.5038166 L314.071222,90.2686834 L314.120298,90.1804696 L314.565405,89.8565015 L314.644611,89.740022 L314.643058,89.6735511 L314.593671,89.5051995 L314.597398,89.4166751 L314.635293,89.3430601 L314.849615,89.1178665 L314.94839,88.9765381 L315.04002,88.7631478 L315.042505,88.5699472 L314.872911,88.4963322 L314.809857,88.5410603 L314.722575,88.7094119 L314.644611,88.7264956 L314.593671,88.6590928 L314.646785,88.4267551 L314.576587,88.177955 L314.65921,87.9884818 L314.793084,87.8151604 L314.915465,87.7064462 L315.279812,87.5331248 L315.404678,87.4035997 L315.281676,87.2666199 L314.816069,87.0324185 L314.687476,86.924015 L314.669149,86.98241 L314.640573,87.0308655 L314.602368,87.0715556 L314.550806,87.1075866 L314.506078,86.8736959 L315.068286,86.4329377 L315.281676,86.3723683 L315.538241,86.3965961 L315.634531,86.3673986 L315.580795,86.2549571 L315.477361,86.2055698 L315.216448,86.1714025 L315.122643,86.1170454 L315.073566,86.0101949 L315.056172,85.7809634 L315.008959,85.6787721 L314.906146,85.6272105 L314.766682,85.6001873 L314.646785,85.5548379 L314.597398,85.4495405 L314.646785,85.3734406 L314.745871,85.284295 L314.816069,85.1724748 L314.784076,85.0317676 L314.672566,84.9587738 L314.494586,85.1094206 L314.37003,85.0817761 L314.440539,84.9926305 L314.40047,84.9252277 L314.297036,84.901 L314.184284,84.9392053 L314.073707,85.1336483 L313.861869,85.3457962 L313.622388,85.5169433 L313.19219,85.6666582 L312.940905,85.854889 L312.545807,86.2443963 L312.420941,86.4077781 L312.343909,86.4832568 L312.157542,86.5531444 L311.325723,87.2026338 L311.198373,87.2691048 L310.512542,87.5623223 L309.844726,88.0207854 L309.675753,88.0922262 L308.558482,88.3366777 L308.046284,88.3745723 L307.931357,88.4121564 L307.825439,88.4696196 L306.519937,89.5148284 L306.365252,89.5990043 L306.198454,89.6493234 L306.019541,89.6474597 L305.881008,89.5958981 L305.607981,89.4480469 L305.453296,89.4166751 L305.245807,89.5098586 L305.015644,89.555208 L304.145931,89.5533443 L303.920426,89.6052165 L303.741514,89.7611436 L303.626588,89.8428346 L303.48557,89.8776231 L303.398909,89.9335332 L303.133025,90.1854394 L303.010955,90.2500467 L302.937961,90.2469406 L302.794458,90.2130839 L302.714321,90.205008 L302.641327,90.2186749 L302.507764,90.2807973 L302.309904,90.3345331 L302.2015,90.4255424 L302.051785,90.614705 L301.395152,91.05888 L301.230838,91.264505 L301.030804,91.1477149 L300.504317,91.0157049 L300.26732,90.8951875 L299.900798,90.5097182 L299.660074,90.3441621 L299.354743,90.2957066 L299.286408,90.3134115 L299.141042,90.3749127 L299.063389,90.3888902 L298.986357,90.3671474 L298.854347,90.2711683 L298.788497,90.2500467 L298.767376,90.2363798 L298.731966,90.1739468 L298.720473,90.1581056 L298.679783,90.1587268 L298.64779,90.1739468 L298.626358,90.1935153 L298.626358,90.205008 L298.423839,90.1997276 L298.043339,90.2646454 L297.979975,90.3311164 L297.920958,90.346647 L297.650416,90.3637306 L297.540148,90.3895114 L297.121444,90.6268189 L297.076715,90.6861457 L297.060564,90.7849203 L296.956819,91.0896305 L296.893765,91.1722533 L296.902773,91.2937025 L296.743118,91.5772911 L296.70833,91.7279379 L296.735664,91.8186365 L296.776043,91.9012593 L296.787536,91.9848139 L296.734111,92.0745807 L296.651488,92.1491276 L296.513266,92.2454172 L296.0284,92.458497 L295.732077,92.6958044 L295.607211,92.7666239 L295.463708,92.7914729 L295.252803,92.7942684 L295.1093,92.8212916 L294.867023,92.9486425 L294.72849,92.9781506 L294.648352,93.0141816 L294.597412,93.0983574 L294.559206,93.1915409 L294.521622,93.2589437 L294.465091,93.3067779 L294.420363,93.3303844 L294.295808,93.3511954 L294.143297,93.3511954 L293.813738,93.2589437 L293.757828,93.2316099 L293.640727,93.1067439 L293.562764,93.0700917 L293.500641,93.0741296 L293.44908,93.0992892 L293.398139,93.1325247 L293.331668,93.1620328 L293.091876,93.1878136 L292.802696,93.1567524 L292.23614,93.0281591 L292.004113,92.9157176 L291.770533,92.7203427 L291.590068,92.4942173 L291.509619,92.2861074 L291.404322,92.3476085 L291.345306,92.3923366 L291.281941,92.4196705 L290.666619,92.4746488 L290.570018,92.4553908 L290.40322,92.3485404 L290.270899,92.3389114 L290.208156,92.307229 L290.094782,92.3451236 L289.793799,92.7007742 L289.610849,92.972249 L289.549348,93.0281591 L289.473869,93.0685386 L289.227865,93.1620328 L289.163568,93.215458 L289.126294,93.2589437 L289.079392,93.2896943 L288.90048,93.3092628 L288.801394,93.3434301 L288.383622,93.4105223 L288.268385,93.3974766 L288.101897,93.313922 L288.063381,93.3002551 L288.021448,93.2654665 L287.98169,93.1067439 L287.930128,93.0700917 L287.151424,93.0700917 L287.120674,93.0850011 L287.085885,93.1163729 L287.040846,93.1471234 L286.832426,93.1788058 L286.590149,93.2483829 L286.491064,93.2589437 L286.42335,93.2393751 L286.319295,93.1763209 L286.239157,93.1620328 L285.964887,93.2086246 L285.889408,93.1561312 L285.827597,93.0337501 L285.80896,92.894596 L285.851203,92.7942684 L285.806786,92.6594628 L285.790323,92.5053993 L285.754913,92.3792909 L285.646821,92.3274188 L285.58563,92.3143731 L285.540902,92.2786527 L285.496484,92.2333034 L285.442127,92.1895071 L285.376588,92.1621732 L285.230601,92.123968 L285.165062,92.0972554 L284.922784,91.9481617 L284.781767,91.8866605 L284.687651,91.8925622 L284.558126,91.9304568 L284.434502,91.8639859 L284.375176,91.7369456 L284.43854,91.5862989 L284.322993,91.447766 L284.234158,91.4036591 L283.982562,91.4064546 L283.940319,91.3943408 L283.752399,91.3148241 L283.479371,91.264505 L283.390536,91.3244531 L283.183669,91.5862989 L283.066257,91.6785506 L282.730175,91.7394305 L282.607484,91.8121137 L282.659666,91.9593437 L282.578907,92.0115265 L282.506224,92.1019145 L282.449382,92.1954087 L282.40279,92.3339416 L282.337251,92.376806 L281.977563,92.471232 L281.969797,92.4699896 L281.812938,92.5582034 L281.704535,92.5299377 L281.596442,92.4880051 L281.523759,92.4932855 L281.516615,92.6091437 L281.438341,92.584916 L281.408832,92.5479532 L281.391749,92.5007402 L281.35696,92.448868 L281.297633,92.4038293 L281.267815,92.4001019 L281.239238,92.4156325 L281.196995,92.4286782 L281.19451,92.4352011 L281.106918,92.4699896 L281.077099,92.4730957 L280.914649,92.4650198 L280.851284,92.4457619 L280.809352,92.4019656 L280.796927,92.3646922 L280.517376,92.3730787 L277.741438,92.3451236 L277.738953,92.3451236 L277.755105,92.9998934 L277.694536,93.3018081 L277.679937,93.4655006 L277.700748,93.8000295 L277.682422,93.9662069 L277.361871,94.6427195 L277.226133,95.2664281 L277.105926,95.5158494 L276.817057,95.616177 L276.772329,95.652208 L276.714245,95.8245976 L276.675729,95.8935534 L276.624167,95.924304 L276.480665,95.9746231 L276.431277,96.0115859 L276.311692,96.1411111 L276.052952,96.3697214 L275.945481,96.4986253 L276.048293,96.6346733 L276.084013,96.8281845 L276.069104,97.0307034 L275.977784,97.380763 L276.034626,97.7938767 L276.039285,97.9817969 L276.015679,98.0190703 L275.923427,98.0830564 L275.902306,98.1212616 L275.916904,98.1715807 L275.977784,98.256999 L276.015679,98.4073351 L276.109794,98.565126 L276.130605,98.6275589 L276.159182,98.6750825 L276.334988,98.9117688 L276.415436,99.0642792 L276.438732,99.1419322 L276.469483,99.3444511 L276.521044,99.41496 L276.582235,99.478946 L276.636281,99.5600157 L276.725738,99.934303 L276.76767,99.9762356 L276.798731,100.013509 L276.812088,100.068798 L276.805565,100.104208 L276.7627,100.222551 L276.619508,100.499617 L276.566083,100.563603 L276.537507,100.63349 L276.495574,100.95808 L276.379405,101.202531 L276.358594,101.282358 L276.342132,101.474006 L276.354246,101.617509 L276.401459,101.75511 L276.687843,102.332848 L276.749033,102.579163 L276.70182,102.748446 L276.624167,102.930776 L276.650259,103.177712 L276.70679,103.42527 L276.725738,103.608531 L276.608326,103.911998 L276.589379,104.029099 L276.608326,104.148063 L276.657403,104.238141 L276.817057,104.404008 L277.040698,104.545957 L277.063994,104.605284 L277.059335,104.647217 L277.045668,104.682937 L277.040698,104.726733 L277.085115,105.201348 L277.073933,105.327767 L277.024546,105.496429 L277.063994,105.510718 L277.273036,105.638068 L277.952965,106.260845 L278.535052,106.792613 L279.116206,107.484035 L279.831856,108.336664 L280.440034,109.064117 L281.010939,109.742804 L281.45822,110.601646 L282.033783,111.330031 L282.733903,112.213721 L283.215972,112.822831 L283.540872,113.151769 L283.617593,113.250544 L283.655799,113.367955 L283.724133,114.799565 L283.76824,114.861066 L283.856143,114.872559 L283.997161,114.870074 L283.747429,115.460547 L283.564168,115.893229 L283.242064,116.64988 L283.197025,116.821648 L283.19951,116.980992 L283.382771,117.733605 L283.573176,118.504854 L283.517266,119.336983 L283.455765,120.194893 L283.413832,120.804003 L283.348293,121.793923 L283.235851,122.226605 L283.236783,122.334077 L283.274988,122.545603 L283.267844,122.654317 L283.20479,122.801547 L283.103531,122.915231 L282.621461,123.250382 L282.550642,123.286102 L282.490072,123.293557 L282.363032,123.26995 L282.295008,123.272435 L281.659807,123.465325 L281.497978,123.481166 L281.464432,123.521235 L281.446106,123.627154 L281.401378,123.69114 L281.318755,123.687723 L281.22992,123.64579 L281.172767,123.592365 L281.125865,123.477439 L281.015598,123.401028 L280.877376,123.363755 L280.74785,123.357232 L280.59534,123.396369 L280.470474,123.481166 L280.007041,123.901735 L279.821295,124.123822 L279.699535,124.38163 L279.654807,124.70125 L279.668474,124.774243 L279.748612,124.967133 L279.722831,125.037642 L279.565351,125.225562 L279.529941,125.355398 L279.532426,125.6306 L279.494842,125.752049 L279.402901,125.849271 L278.940089,126.15864 L278.855292,126.217657 L278.964007,126.523299 L279.071168,126.695067 L279.097259,126.765576 L279.137017,126.824903 L279.210011,126.847267 L279.271512,126.859381 L279.4175,126.916223 L279.461917,126.939519 L279.492668,126.972133 L279.524972,127.043574 L279.551063,127.080847 L279.572495,127.095135 L279.629027,127.11781 L279.647663,127.132409 L279.807007,127.30573 L279.829061,127.343935 L279.847697,127.799913 L279.875963,127.938446 L280.007041,128.206504 L280.042451,128.380758 L279.875963,128.521465 L279.858569,128.667763 L279.875963,128.928677 L279.85422,128.961602 L279.811977,128.992352 L279.779673,129.027141 L279.783401,129.071869 L279.814462,129.10293 L280.028473,129.232145 L280.068853,129.29085 L280.035617,129.379685 L279.964798,129.506726 L279.95548,129.619478 L280.014496,129.878839 L280.023193,130.019546 L280.007041,130.134783 L279.969768,130.230451 L279.920691,130.308104 L279.539881,130.350037 L278.867406,130.327362 L278.516415,130.273316 L278.415466,130.17423 L278.437209,129.995629 L278.220712,129.661721 L278.271963,129.446156 L278.415466,129.32626 L278.584749,129.243637 L278.730737,129.137408 L278.80839,128.949488 L278.829201,128.726779 L278.824231,128.474873 L278.763662,128.261172 L278.613015,128.149973 L278.394344,128.14345 L278.197727,128.162087 L278.007011,128.131336 L277.809462,127.976962 L277.686771,127.811406 L277.63055,127.748041 L277.538919,127.682502 L277.494191,127.665418 L277.392932,127.647714 L277.346029,127.621622 L277.315279,127.56975 L277.294157,127.435255 L277.265581,127.378724 L277.160594,127.299518 L277.043183,127.25013 L276.941923,127.18925 L276.876384,127.083021 L276.829171,126.934859 L276.774814,126.840744 L276.464824,126.577656 L276.3968,126.486025 L276.279078,126.252756 L276.191796,126.15864 L275.771227,125.933447 L275.719355,125.914189 L275.679597,125.884059 L275.597285,125.679056 L275.561875,125.616001 L275.516836,125.566614 L275.30065,125.404475 L275.218649,125.322784 L275.145966,125.21407 L274.959909,124.736038 L274.811747,124.583838 L274.515424,124.539421 L274.288056,124.532277 L274.156046,124.398403 L273.883639,123.793952 L273.908799,123.561615 L274.040809,123.11775 L274.010058,122.921754 L273.900102,122.766759 L273.342243,122.180945 L273.245953,122.122861 L273.024487,122.016942 L272.943417,121.943638 L272.870113,121.753232 L272.857999,121.506917 L272.891234,121.267436 L272.964228,121.095667 L273.152148,120.890663 L273.269559,120.799343 L273.382312,120.744676 L273.521466,120.703054 L273.594459,120.6605 L274.007884,120.082451 L274.087711,119.86347 L274.108833,119.590442 L274.047953,119.177328 L274.047953,118.943748 L274.132129,118.828822 L274.252335,118.767321 L274.38186,118.556726 L274.515424,118.474103 L274.560152,118.389617 L274.593077,118.214742 L274.624138,118.130566 L274.698374,118.030239 L274.781307,117.973397 L274.867968,117.926494 L274.957735,117.860024 L275.080427,117.681732 L275.105897,117.503441 L274.968917,116.4924 L274.983826,116.374367 L275.044396,116.29982 L275.028244,116.222167 L274.986311,116.134575 L274.971402,116.038906 L275.009607,115.941685 L275.145966,115.753765 L275.195353,115.653126 L275.206535,115.538511 L275.159633,115.432281 L275.086639,115.331022 L275.026069,115.220755 L274.986311,115.084707 L274.971402,114.968848 L274.968917,114.463172 L274.931643,114.249782 L274.861445,114.047884 L274.747761,113.826729 L274.684707,113.590664 L274.776648,113.184073 L274.76764,112.956705 L274.658926,112.740208 L274.311352,112.396672 L274.156046,112.207198 L273.939549,111.760228 L273.793872,111.552739 L273.608126,111.452101 L273.54911,111.463594 L273.499412,111.494655 L273.451267,111.535034 L273.401259,111.567338 L273.347834,111.578831 L273.241294,111.567338 L273.189422,111.571997 L272.531546,111.809615 L272.047302,111.821419 L271.83329,111.912428 L271.783903,111.983558 L271.708424,112.155326 L271.654378,112.190115 L270.954259,112.095999 L270.759194,112.093825 L270.577797,112.140728 L270.190464,112.378035 L270.001612,112.446991 L269.813692,112.427422 L269.456488,112.15191 L269.315471,112.197569 L269.214211,112.349769 L269.155505,112.550114 L269.155505,112.784626 L269.135005,112.907007 L269.068224,112.953909 L268.952987,112.9185 L268.874091,112.848923 L268.81756,112.75636 L268.680891,112.387975 L268.624049,112.301003 L268.548881,112.239502 L268.370279,112.156879 L268.292936,112.095999 L268.236405,112.009649 L268.20317,111.922057 L268.158441,111.84254 L268.071781,111.764887 L267.790056,111.637847 L267.702774,111.569823 L267.582567,111.407062 L267.246485,110.723095 L267.129074,110.560956 L267.018807,110.347255 L266.969419,110.302837 L266.910403,110.27892 L266.816288,110.215866 L266.760378,110.154365 L266.593579,109.878852 L266.565313,109.757403 L266.597617,109.418525 L266.524623,109.223772 L266.374598,109.10605 L266.007765,108.903531 L265.523521,109.068155 L264.945162,109.265704 L264.105578,109.552399 L262.960973,109.945323 L261.839975,110.327997 L260.833593,110.671223 L259.512561,111.123474 L258.978619,111.222248 L258.72516,111.298969 L258.221968,111.529754 L257.551979,111.750288 L256.676985,112.041953 L255.72527,112.356913 L255.266807,112.597016 L254.648379,112.923469 L254.077474,113.135617 L253.383257,113.30428 L252.525347,113.511458 L251.83672,113.678256 L251.716824,113.688196 L250.774117,113.90345 L250.113757,114.056892 L249.189376,114.395148 L248.62282,114.605122 L247.916178,114.862619 L247.294333,115.170746 L246.801081,115.418304 L246.217752,115.488191 L246.11028,115.517389 L246.105,115.565844 L246.152213,115.770227 L246.152213,116.07649 L246.185448,116.372814 L246.434249,117.228239 L246.598562,117.554692 L246.815059,117.696331 L246.911348,117.733605 L246.996456,117.823061 L247.06448,117.945131 L247.111693,118.072482 L247.139959,118.213189 L247.158595,118.659538 L247.177232,118.739987 L247.276007,118.876035 L247.296818,118.942506 L247.280666,119.010219 L247.158595,119.246905 L247.114178,119.397552 L247.127534,119.495084 L247.317939,119.696361 L247.35366,119.751028 L247.429138,119.953237 L247.41454,119.969699 L247.320735,120.006973 L247.330364,120.56421 L247.339993,121.217116 L247.35366,122.039927 L247.363289,122.519823 L248.11031,122.5133 L248.58741,122.510194 L249.67393,122.503671 L250.390822,122.498701 L250.687146,122.560513 L250.955515,122.748122 L251.062986,122.863359 L251.162072,122.938527 L251.27296,122.954679 L251.420501,122.88914 L251.498464,122.822669 L251.62302,122.681962 L251.719309,122.633196 L251.776151,122.646863 L251.829576,122.686621 L251.878964,122.689106 L251.933321,122.592816 L252.099809,122.489072 L252.396443,122.5133 L253.071403,122.672954 L253.197511,122.719857 L253.306225,122.796888 L253.402825,122.916784 L253.527381,123.150054 L253.611557,123.246654 L253.741082,123.316853 L253.806621,123.363755 L253.835508,123.42712 L253.856319,123.490485 L253.898562,123.535523 L253.921858,123.540493 L253.97373,123.528379 L254.001996,123.525584 L254.032125,123.542357 L254.029951,123.575282 L254.023117,123.608517 L254.034299,123.629639 L254.164135,123.64579 L254.307638,123.64579 L254.441201,123.667223 L254.539975,123.738042 L254.799336,123.864461 L255.908531,123.937455 L256.072845,124.012623 L256.256727,124.162649 L256.658659,124.603407 L256.787563,124.713363 L257.067424,124.859351 L257.146941,124.92489 L257.205957,125.047271 L257.239192,125.310359 L257.295103,125.416589 L257.401332,125.46784 L258.094928,125.578728 L259.408816,125.545493 L259.933129,125.62563 L260.622377,125.900211 L261.675351,126.32575 L262.47176,126.64568 L262.546928,126.716189 L262.580163,126.814653 L262.585133,126.975239 L262.650672,127.247646 L262.829895,127.383694 L262.869653,127.399845 L262.926185,127.360708 L263.0203,127.325298 L263.123113,127.30573 L263.330601,127.320329 L263.739677,127.411959 L263.948719,127.424073 L264.056191,127.395807 L264.256535,127.268767 L264.366492,127.221554 L264.449115,127.211925 L264.402212,127.409474 L264.214292,128.138791 L264.100608,128.362121 L263.995621,128.498479 L263.518522,128.963465 L263.527219,129.008504 L264.181367,130.171745 L264.352825,130.572124 L264.444456,130.996731 L264.454085,131.32629 L264.480176,131.476315 L264.550374,131.613295 L264.606284,131.662682 L264.756931,131.744995 L264.801659,131.806185 L264.808803,131.917073 L264.766871,132.027341 L264.642005,132.220231 L264.38078,132.730255 L264.336673,132.781196 L264.277346,132.819401 L264.235103,132.866303 L264.237588,132.944267 L264.305612,133.179089 L264.336673,133.235621 L264.454085,133.32663 L264.702574,133.440003 L264.795136,133.561453 L264.819985,133.705887 L264.795136,133.83945 L264.683937,134.097569 L264.660952,134.363452 L264.679278,134.66661 L264.651634,134.923175 L264.482661,135.035927 L264.371462,135.087799 L264.298779,135.202726 L264.256535,135.348403 L264.237588,135.482898 L264.249081,135.619256 L264.327044,135.81401 L264.339158,135.936701 L264.313377,136.028332 L264.261505,136.075234 L264.209633,136.10847 L264.173602,136.16438 L264.186026,136.229919 L264.268339,136.327141 L264.261505,136.385225 L264.225474,136.524068 L264.240384,136.681859 L264.472721,137.39813 L264.496017,137.628915 L264.491358,137.681098 L264.430789,137.830813 L264.38078,137.923064 L264.340401,137.974936 L264.329219,138.033331 L264.357795,138.137076 L264.458744,138.284616 L264.77153,138.538697 L264.891737,138.673502 L264.942366,138.80427 L264.912548,138.881923 L264.719968,139.0276 L264.580193,139.231983 L264.561556,139.227323 L264.571806,139.295347 L264.655672,139.394122 L264.679278,139.467116 L264.634861,139.607823 L264.514964,139.6979 L264.368977,139.765924 L264.240384,139.846062 L264.120177,139.906632 L263.995621,139.944837 L263.880695,139.99205 L263.797762,140.087408 L263.78192,140.205751 L263.802731,140.348322 L263.889392,140.597743 L264.089426,140.994705 L264.141298,141.186042 L264.12701,141.418379 L264.080108,141.604125 L264.009288,141.754461 L263.894362,141.848577 L263.718556,141.863176 L263.445528,141.842675 L263.242698,141.872183 L262.60408,142.172856 L262.59383,142.234357 L262.63949,142.612682 L262.681733,142.716116 L262.765909,142.770783 L262.695711,142.824209 L262.608739,142.871111 L262.544443,142.930438 L262.535746,143.016788 L262.585133,143.172405 L262.596315,143.250057 L262.585133,143.339514 L262.601285,143.433318 L262.653157,143.487676 L262.728636,143.512835 L262.819956,143.517494 L263.234312,143.456925 L263.348928,143.469039 L263.421921,143.499168 L263.459505,143.529608 L263.480006,143.578995 L263.494915,143.661308 L263.527219,143.746105 L263.579091,143.799219 L263.643077,143.85016 L263.698987,143.919737 L263.74123,144.159218 L263.549583,145.027689 L263.541817,145.201011 L263.518522,145.325876 L263.463854,145.442977 L263.367564,145.597972 L263.118454,145.880629 L263.101991,145.948343 L263.11659,146.15521 L263.073415,146.440352 L263.083665,146.586029 L263.153863,146.668341 L263.280904,146.675174 L263.403595,146.659333 L263.494915,146.691637 L263.541817,146.843837 L263.544302,146.973051 L263.494915,147.481523 L263.4974,147.545819 L263.513241,147.615086 L263.523491,147.707648 L263.494915,147.773187 L263.45671,147.834067 L263.435588,147.90675 L263.45671,148.062678 L263.532189,148.14002 L263.654259,148.165801 L263.807701,148.174808 L263.958348,148.132565 L264.155276,147.927872 L264.279831,147.885629 L264.397243,147.953653 L264.409356,148.094981 L264.352825,148.367698 L264.409356,148.492254 L264.519934,148.604385 L264.663437,148.694151 L264.808803,148.758448 L264.876827,148.834859 L264.855706,148.969664 L264.811288,149.136463 L264.798864,149.425332 L264.672755,149.839688 L264.646974,150.361205 L264.686733,150.52583 L264.707544,150.580187 L264.35034,150.568383 L264.25902,150.648211 L264.220815,150.861912 L264.169875,150.963171 L264.063335,150.996406 L263.955863,151.017217 L263.894362,151.080582 L263.844664,151.424119 L263.81236,151.531901 L263.720109,151.69901 L263.706442,151.767656 L263.716071,151.816111 L263.760488,151.913954 L263.762973,151.966447 L263.716071,152.183254 L263.678176,152.284514 L263.628478,152.376144 L263.332776,152.742977 L262.900715,153.275676 L262.69012,153.682888 L262.47176,154.106252 L262.304961,154.291998 L262.018266,154.341075 L261.70548,154.301627 L261.41599,154.33859 L261.207569,154.612239 L261.13675,154.910737 L261.123083,155.204265 L261.219373,155.964022 L261.311003,156.699861 L261.269071,156.970404 L261.113143,157.28288 L260.777061,157.712145 L260.262688,158.373438 L260.299962,158.434939 L260.396251,158.495508 L260.455268,158.576889 L260.485397,158.582169 L260.513663,158.582169 L260.535095,158.596768 L260.53261,158.64367 L260.509003,158.688398 L260.483223,158.728467 L260.473904,158.757044 L260.960944,159.583892 L260.976785,159.650053 L260.720841,159.483254 L260.483223,159.75007 L260.161118,160.108516 L259.812922,160.494606 L259.462863,160.879765 L259.113114,161.266787 L258.764607,161.655052 L258.414858,162.040211 L258.066662,162.428476 L257.716292,162.816119 L257.368096,163.205005 L257.018347,163.592028 L256.669841,163.980292 L256.320092,164.367315 L255.972207,164.758065 L255.624011,165.145708 L255.274262,165.533973 L254.92327,165.924101 L254.575696,166.312366 L254.229674,166.698146 L253.794818,167.003478 L253.26305,167.379939 L253.199996,167.506358 L253.837682,169.487751 L254.180287,170.555324 L254.4558,171.408264 L254.911778,172.833351 L254.951536,173.052333 L254.813003,174.697644 L254.852762,174.996142 L254.977628,175.252086 L255.616556,175.941334 L255.748566,176.201626 L256.007306,177.107992 L256.275364,177.741951 L256.369169,177.895393 L256.496519,178.012493 L256.924232,178.329007 L257.00437,178.421259 L257.039158,178.536496 L257.088546,179.804103 L257.130789,180.111608 L257.742384,181.43761 L257.909182,181.997022 L257.946456,182.558919 L257.890545,183.059936 L257.904523,185.302864 L257.909182,186.17382 L257.914152,187.337993 L257.925334,188.926462 L257.810408,189.286772 L257.784627,189.472828 L257.774687,189.712621 L257.800468,189.942473 L257.868803,190.09312 L257.909182,190.245941 L257.970062,190.70751 L257.970062,190.866544 L257.943971,190.965318 L257.897068,191.010357 L257.834014,191.049805 L257.748906,191.132117 L257.695481,191.219399 L257.412514,191.957723 L257.373066,192.162416 L257.398847,192.38264 L257.662246,193.228747 L257.834014,193.393682 L258.026593,193.497426 L258.468284,193.61111 L258.381623,193.842826 L258.417343,194.106536 L258.496549,194.381427 L258.541277,194.635197 L258.51736,194.832125 L258.297447,195.415765 L258.263901,195.631951 L258.348387,196.39326 L258.397775,196.600128 L258.712735,197.232844 L258.78107,197.84009 L258.757463,199.750353 L258.952838,199.792907 L259.291405,199.752838 L259.483984,199.760914 L259.968539,199.839499 L260.344379,199.901 L261.123083,199.880189 L261.983478,199.854098 L262.916556,199.825832 L263.951204,199.797877 L263.930082,199.727368 L263.871066,199.619275 L263.859573,199.544107 L263.93412,199.339103 L263.951204,199.263935 L263.990652,198.679053 L263.951204,198.376206 L263.967356,198.285818 L264.028857,198.11902 L264.118002,197.559918 L264.190686,195.503047 L264.362454,194.318373 L264.359969,194.120513 L264.096881,194.23575 L264.016743,194.294767 L263.959901,194.383912 L263.899332,194.724964 L263.823853,194.961961 L263.787822,195.157336 L263.797762,195.352711 L263.859573,195.587533 L263.758003,195.594056 L263.682525,195.639095 L263.612326,195.666429 L263.537158,195.631951 L263.407323,195.519509 L263.310722,195.371658 L263.226857,195.201753 L263.08118,195.028121 L262.98458,194.95109 L262.819956,194.853557 L262.650672,194.818769 L262.538541,194.926862 L262.495366,194.767207 L262.375159,194.454421 L262.335712,194.226743 L262.300923,194.186053 L262.249051,194.148469 L262.192209,194.094422 L262.142822,194.012731 L262.084427,193.845933 L262.035039,193.762689 L261.967326,193.704915 L261.822581,193.649936 L261.759837,193.608004 L261.728776,193.562965 L261.679078,193.441205 L261.6446,193.384053 L261.590243,193.356098 L261.488984,193.324105 L261.390209,193.307021 L261.345481,193.335597 L261.339269,193.572905 L261.345481,193.608004 L261.274972,193.643103 L261.204774,193.562965 L261.176508,193.424743 L261.235214,193.284036 L261.331814,193.205762 L261.441771,193.170041 L261.557629,193.173458 L261.668207,193.210731 L261.806429,193.294907 L261.863271,193.316029 L261.940924,193.311991 L262.002115,193.273786 L262.178542,193.126245 L262.21302,193.080896 L262.265203,193.001379 L262.577989,192.698532 L262.614952,192.61622 L262.643528,192.526764 L262.661854,192.428611 L262.669619,192.32176 L262.69012,192.244107 L262.744787,192.197515 L262.808152,192.157447 L262.854744,192.096256 L262.895124,192.096256 L262.921215,192.162416 L262.935193,192.216152 L262.929912,192.257464 L262.960973,192.190061 L262.911586,191.828509 L263.005701,191.668543 L263.128083,191.195792 L263.278729,190.890771 L263.628478,190.396277 L263.814224,190.185061 L265.681312,188.878317 L266.023917,188.727981 L266.174874,188.631381 L266.273338,188.46831 L266.174874,188.50403 L266.137601,188.527636 L266.092251,188.3773 L266.211837,188.330709 L266.377393,188.31114 L266.459084,188.250571 L266.515615,188.181304 L266.788022,188.048984 L266.875614,188.019475 L266.820947,188.112348 L266.727142,188.200873 L266.617185,188.274177 L266.508471,188.323254 L266.508471,188.374194 L266.776529,188.301511 L267.75682,187.761046 L268.559131,187.479321 L269.517679,186.969918 L270.879091,186.465795 L272.362262,185.916012 L272.733133,185.857306 L273.472078,185.543588 L273.647885,185.495754 L274.53406,185.115876 L275.641702,184.834462 L276.727912,184.315119 L278.688494,183.269288 L279.182677,182.780385 L279.21467,182.716399 L279.231133,182.643716 L279.233618,182.546805 L279.252876,182.476918 L280.007041,181.651311 L281.034235,180.132109 L281.114683,179.996371 L281.147608,179.853179 L281.168729,179.814974 L281.218117,179.776148 L281.267815,179.725828 L281.288936,179.660289 L281.274027,179.578288 L281.210973,179.429505 L281.196995,179.3357 L281.213768,179.187538 L281.596442,177.93484 L281.581843,177.896635 L281.542085,177.875824 L281.521274,177.819603 L281.490213,177.49812 L281.420014,177.41674 L281.147608,177.348716 L281.147608,177.402762 L281.175252,177.483521 L281.125865,177.990751 L281.083932,178.057222 L281.004416,178.055047 L280.87986,177.99541 L280.705297,177.83824 L280.609007,177.780156 L280.510232,177.798792 L280.441898,177.908749 L280.45339,178.042312 L280.559309,178.291423 L280.251803,178.661672 L280.192787,178.667574 L280.207386,178.588678 L280.268266,178.449214 L280.282554,178.367523 L280.277895,178.282415 L280.246833,178.141087 L280.242174,178.098533 L280.259258,178.026471 L280.310198,177.925833 L280.333805,177.852839 L280.345919,177.763072 L280.333805,177.52359 L280.348404,177.374807 L280.408973,177.090287 L280.423572,176.955171 L280.418912,176.874412 L280.378844,176.706992 L280.338464,176.693636 L280.268266,176.639589 L280.244659,176.580883 L280.357722,176.555413 L280.519861,176.592376 L280.545953,176.686181 L280.517376,176.816017 L280.510232,176.955171 L280.578567,177.100537 L280.640068,177.035619 L280.682001,176.876897 L280.695978,176.73122 L280.695978,176.109996 L280.804071,175.168531 L281.190162,173.990381 L281.239238,173.686292 L281.227435,173.53844 L281.16407,173.275663 L281.147608,173.122842 L281.165934,172.976544 L281.213768,172.860685 L281.333354,172.65009 L281.592093,172.007745 L281.739945,171.794044 L281.982222,171.298618 L282.014526,171.091751 L281.878478,171.028075 L281.878478,171.072182 L281.930039,171.143934 L281.876303,171.180896 L281.76821,171.178411 L281.65111,171.12685 L281.645829,171.190525 L281.624708,171.232458 L281.561032,171.324088 L281.448591,171.042053 L281.239238,169.479054 L281.260671,168.580143 L281.589609,167.468774 L281.60545,167.318127 L281.561032,166.845066 L281.561032,166.702495 L281.65111,165.817872 L281.60545,165.817872 L281.586813,165.938079 L281.528107,166.109226 L281.502637,166.509605 L281.476546,166.631365 L281.424674,166.754678 L281.288936,165.551057 L281.311922,165.378667 L281.314717,165.29387 L281.288936,165.228331 L281.234269,165.199755 L281.1591,165.190747 L281.090766,165.221497 L281.060326,165.305984 L281.046659,165.322136 L281.013113,165.345432 L280.973665,165.367174 L280.945089,165.373697 L280.916823,165.392645 L280.916823,165.435198 L280.926763,165.484275 L280.919308,165.526829 L280.775805,165.731211 L280.742881,165.817872 L280.802207,165.858562 L280.969006,166.159545 L280.882035,166.274782 L280.820844,166.225084 L280.742881,166.013247 L280.700327,166.051452 L280.672372,166.09587 L280.669887,166.14681 L280.695978,166.213592 L280.583226,166.479165 L280.583226,166.829224 L280.674546,167.179284 L280.830163,167.439577 L280.677342,167.53245 L280.627644,167.637436 L280.646591,167.950223 L280.604348,168.027875 L280.507747,167.920714 L280.378844,167.682786 L280.265781,167.621595 L280.148059,167.574072 L280.053944,167.491759 L280.014496,167.318127 L280.016981,167.011864 L280.216394,165.173663 L280.155203,164.579773 L280.0878,164.238722 L280.056739,163.784918 L280.028473,163.669059 L279.829061,163.230475 L279.767249,162.924212 L279.800795,162.304231 L279.783401,162.000763 L279.576844,161.513724 L279.490183,161.462162 L279.393893,161.33947 L278.989787,160.646806 L278.780124,160.101372 L278.723904,159.478284 L278.787268,159.270796 L278.834171,158.815749 L278.824231,158.690883 L278.627614,159.53171 L278.460505,159.708137 L278.476657,159.405601 L278.460505,159.325463 L278.394344,159.264273 L278.321351,159.244704 L278.295259,159.21737 L278.3667,159.130088 L278.443732,159.090019 L278.521385,159.072936 L278.568287,159.035973 L278.552135,158.937198 L278.495604,158.890296 L278.417951,158.863894 L278.375708,158.826621 L278.415466,158.743066 L278.349616,158.695232 L278.333464,158.645223 L278.335639,158.582169 L278.323836,158.499857 L278.338124,158.504516 L278.35676,158.479046 L278.368564,158.436803 L278.3667,158.398908 L278.340919,158.363188 L278.317313,158.358529 L278.291532,158.35418 L278.189962,158.285535 L278.128461,158.260065 L278.088702,158.211609 L278.096157,158.109728 L278.145544,158.024621 L278.201454,158.03456 L278.255812,158.079289 L278.300229,158.109728 L278.417951,158.088917 L278.502748,158.024621 L278.552135,157.919634 L278.549961,157.718979 L278.55959,157.66369 L278.552135,157.621447 L278.526044,157.611507 L278.479141,157.613371 L278.434724,157.599393 L278.415466,157.550317 L278.439694,157.463035 L278.498089,157.424208 L278.571083,157.43011 L278.643766,157.479186 L278.695638,157.413958 L278.732911,157.340964 L278.780124,157.183795 L278.697812,157.169196 L278.697812,157.133475 L278.728252,157.08999 L278.732911,157.038428 L278.704646,156.971647 L278.700297,156.945555 L278.688494,156.929093 L278.643766,156.890266 L278.510203,156.811992 L278.415466,156.833114 L278.22972,156.986245 L278.225061,156.877531 L278.244319,156.777514 L278.279107,156.684641 L278.323836,156.598602 L278.246804,156.499517 L278.044285,156.309112 L278.002042,156.184867 L278.023163,156.111252 L278.116968,156.014962 L278.1384,155.965575 L278.126908,155.876429 L278.086217,155.829216 L278.028133,155.824246 L277.957624,155.869906 L277.966632,155.67888 L277.961662,155.579795 L277.934018,155.510839 L277.717832,155.328821 L277.682422,155.270426 L277.364666,155.246198 L277.287634,155.26266 L277.221163,155.28813 L277.167738,155.328821 L277.129844,155.390632 L277.101267,155.258312 L277.176746,155.183144 L277.264338,155.11512 L277.270551,155.004852 L277.18389,154.953291 L276.993485,155.091513 L276.95559,155.025353 L276.946583,154.87688 L276.913347,154.766302 L276.86396,154.675293 L276.795936,154.588633 L276.67138,154.489237 L276.558318,154.440471 L276.469483,154.37431 L276.415436,154.226459 L276.311692,154.30815 L276.264479,154.237952 L276.248327,154.054691 L276.142098,154.019592 L276.003565,154.052206 L275.771227,154.174276 L275.803842,154.087616 L276.066619,153.861801 L276.09768,153.767685 L276.088673,153.650585 L276.065377,153.546219 L276.043634,153.497142 L275.973125,153.463907 L275.832107,153.437816 L275.745136,153.377557 L275.690779,153.306737 L275.644187,153.215728 L275.609088,153.112605 L275.585792,153.008861 L275.693264,153.078748 L275.782409,153.095521 L275.870002,153.062286 L275.973125,152.987739 L276.00605,152.911639 L275.84888,152.801372 L275.883669,152.697628 L276.019717,152.547913 L276.050778,152.474919 L276.121287,152.237611 L276.165704,152.138837 L276.215092,152.051555 L276.269449,151.995024 L276.269449,151.95247 L275.787379,151.685033 L275.683635,151.567311 L275.690779,151.515439 L275.690779,151.476302 L275.683635,151.421634 L275.740477,151.531901 L275.81813,151.536871 L275.90976,151.494628 L276.019717,151.466362 L276.22969,151.590918 L276.358594,151.626949 L276.415436,151.541841 L276.426618,151.494628 L276.480665,151.429089 L276.496817,151.370073 L276.495574,151.305776 L276.459543,151.202653 L276.438732,151.097045 L276.379405,150.99299 L276.361079,150.940186 L276.352071,150.87154 L276.361079,150.718719 L276.347102,150.662499 L276.318836,150.605967 L276.306722,150.544156 L276.337783,150.476132 L276.372882,150.436373 L276.394004,150.403759 L276.405497,150.366175 L276.415436,150.30778 L276.410466,150.215839 L276.365738,149.990024 L276.361079,149.875408 L276.412951,149.674753 L276.389034,149.618222 L276.269449,149.580638 L276.203599,149.609525 L276.123461,149.65798 L276.060407,149.65798 L276.043634,149.538084 L276.215092,149.559205 L276.365738,149.433097 L276.466998,149.237412 L276.496817,149.052287 L276.471968,148.990165 L276.31604,148.812495 L276.257024,148.699121 L276.215092,148.641969 L276.154522,148.619605 L276.034626,148.595377 L275.97064,148.572392 L275.925601,148.546611 L275.573678,148.029753 L275.516836,147.922592 L275.469934,147.705163 L275.406569,147.622541 L275.312764,147.575638 L275.195353,147.559176 L275.082601,147.587441 L274.95525,147.700193 L274.851816,147.707648 L274.851816,147.655776 L274.934439,147.613533 L275.004637,147.415984 L275.108071,147.37343 L275.206535,147.387407 L275.323946,147.420953 L275.427691,147.467545 L275.49323,147.512273 L275.53392,147.613533 L275.557526,147.739952 L275.601633,147.85053 L275.703514,147.895258 L275.756629,147.957069 L276.019717,148.354031 L276.094885,148.407146 L276.415436,148.522383 L276.694676,148.774289 L276.751518,148.812495 L276.800906,148.854427 L276.829171,148.950717 L276.866445,149.152304 L276.913347,149.259154 L276.9705,149.310716 L277.17892,149.392407 L277.543268,149.152304 L277.724044,148.93736 L277.799523,148.882382 L277.861024,148.955065 L278.062922,148.802555 L278.425095,148.426715 L278.591583,148.379812 L278.824231,148.278553 L279.461917,147.613533 L280.242174,146.983301 L280.919308,146.261129 L281.262845,145.802976 L281.300118,145.739922 L281.318755,145.669413 L281.344846,145.612261 L281.401378,145.589275 L281.479031,145.57654 L281.526244,145.542062 L281.82412,145.199147 L281.878478,145.102236 L281.74243,145.102236 L282.069193,144.775472 L282.24531,144.63228 L282.428571,144.528225 L282.428571,144.481633 L282.334456,144.493747 L282.295008,144.502444 L282.247795,144.528225 L282.388813,144.266069 L282.482928,144.171643 L282.564619,144.194939 L282.633575,144.131574 L282.736387,143.978753 L282.797578,143.910729 L283.754573,143.251921 L283.796816,143.141654 L283.749603,143.136684 L283.690587,143.172405 L283.642132,143.183897 L283.617593,143.115873 L283.634677,143.045054 L283.674435,142.994113 L283.730967,142.958704 L283.796816,142.942552 L283.881924,142.979515 L283.942804,143.061827 L284.022942,143.123328 L284.166444,143.089782 L284.243166,143.005606 L284.283545,142.88571 L284.312121,142.761154 L284.349084,142.659584 L284.432018,142.584416 L284.497557,142.589386 L284.523337,142.664554 L284.482647,142.808057 L284.701629,142.779791 L284.842646,142.673251 L285.160092,142.198636 L285.360126,141.975928 L285.397399,141.950147 L285.461696,141.937722 L285.52475,141.96195 L285.52475,142.018482 L285.496484,142.081846 L285.482507,142.133097 L285.51481,142.537203 L285.616691,142.635978 L285.851203,142.612682 L286.046267,142.552113 L286.264938,142.516703 L286.356569,142.558325 L286.415895,142.570439 L286.441987,142.537203 L286.432047,142.474149 L286.406577,142.425072 L286.364023,142.391526 L286.304696,142.37289 L286.397259,142.144901 L286.359053,141.893616 L286.213066,141.409993 L286.223316,141.192875 L286.450684,141.644505 L286.606301,141.797015 L286.726197,141.837084 L286.876533,141.915358 L287.029043,141.963814 L287.151424,141.915358 L287.240259,141.869698 L287.351458,141.828076 L287.409853,141.760052 L287.323503,141.599156 L287.321018,141.531442 L287.313253,141.51001 L287.294616,141.496032 L287.248025,141.477396 L287.224107,141.460623 L287.234358,141.517465 L287.172546,141.54573 L287.11881,141.526162 L287.175031,141.378932 L287.196152,141.226111 L287.224107,141.171443 L287.27598,141.140692 L287.313253,141.161814 L287.325678,141.223626 L287.313253,141.315256 L287.417308,141.157776 L287.677911,140.597743 L287.798118,140.454551 L287.830732,140.372549 L287.791595,140.287752 L287.786626,140.233706 L287.880741,140.207304 L288.000327,140.202645 L288.086987,140.212584 L288.063381,140.165371 L288.04257,140.026838 L288.178618,140.090824 L288.223346,140.120954 L288.26621,140.021869 L288.315598,139.740144 L288.533336,139.690756 L288.84457,139.403751 L289.46921,138.673502 L289.739753,138.444582 L290.203186,137.877715 L290.280839,137.732659 L290.188587,137.779562 L289.993833,137.923064 L289.868967,137.969967 L289.970537,137.756266 L290.041357,137.654696 L290.141374,137.589157 L290.268414,137.600649 L290.421857,137.650036 L290.548276,137.668673 L290.599837,137.584497 L290.621269,137.459631 L290.677801,137.360857 L290.849569,137.182566 L290.9412,137.062669 L291.146203,136.676889 L291.053641,136.620358 L290.980958,136.557304 L290.903926,136.507917 L290.68277,136.45356 L290.630588,136.364414 L290.599837,136.10847 L290.548276,135.884829 L290.45416,135.65156 L290.309104,135.538808 L290.094782,135.680757 L290.184549,135.501534 L290.35756,135.458359 L290.55076,135.525141 L290.68774,135.680757 L290.708551,135.785744 L290.708551,135.884829 L290.731847,135.969316 L290.825963,136.041999 L290.912623,136.088901 L290.980958,136.140773 L291.039974,136.207244 L291.100854,136.297943 L291.146203,136.249488 L291.188136,136.385225 L291.190621,136.438961 L291.388481,136.254147 L291.871793,135.442518 L292.340195,135.034063 L292.53029,134.794582 L292.558866,134.537706 L292.711066,134.579638 L292.9111,134.520622 L293.080694,134.408802 L293.153377,134.297603 L293.181953,134.201624 L293.249977,134.160934 L293.426405,134.156896 L293.52052,134.136085 L293.588544,134.081417 L293.698812,133.919277 L293.76932,133.977983 L293.865299,133.955308 L293.964385,133.882315 L294.143297,133.703092 L294.999033,133.195241 L295.163346,133.008874 L295.393199,133.044595 L295.659394,132.863818 L295.903845,132.649186 L296.073129,132.579609 L296.054492,132.670928 L296.120342,132.658815 L296.980426,132.071758 L297.350054,131.873898 L298.22132,131.685978 L298.654002,131.516695 L298.807134,131.396799 L298.675745,131.305168 L298.819248,131.18931 L298.74408,131.03711 L298.585978,130.876524 L298.494659,130.733953 L298.567342,130.776507 L298.649964,130.807257 L298.731966,130.81347 L298.811793,130.780855 L298.767376,130.640148 L298.863976,130.773711 L298.872673,131.241493 L298.992569,131.401458 L299.108117,131.406738 L299.202543,131.338404 L299.354743,131.163529 L299.43985,131.100475 L301.319984,130.350037 L301.291718,130.294127 L301.28768,130.23511 L301.313772,130.181685 L301.367197,130.139442 L301.40913,130.150935 L301.463487,130.20436 L301.53617,130.254679 L301.639914,130.256232 L301.950215,129.942203 L301.919775,130.068312 L302.150249,130.028553 L302.396875,129.936923 L302.516771,129.788761 L302.370784,129.591833 L302.479498,129.624447 L302.636357,129.788761 L302.739791,129.826966 L303.785931,129.729434 L304.033489,129.647743 L304.418958,129.38714 L304.640114,129.368503 L304.872452,129.38217 L305.112244,129.353904 L305.215988,129.301722 L305.314763,129.212887 L305.390242,129.100135 L305.43,128.978064 L305.43,128.841706 L305.368188,128.841706 L305.270035,128.872767 L305.152002,128.829592 L305.284012,128.794803 L305.401424,128.735787 L305.474107,128.639187 L305.474107,128.500964 L305.596798,128.561534 L305.690603,128.500964 L305.864857,128.243778 L305.975124,128.14842 L306.985855,127.50359 L308.161521,126.895101 L308.328319,126.723333 L308.391373,126.678915 L308.662227,126.591323 L308.859776,126.429494 L309.132183,126.276983 L309.263882,126.179762 L309.376634,126.062972 L309.40987,126.008304 L309.414839,125.952083 L309.407074,125.90984 L309.397756,125.898037 L309.470439,125.813861 L309.536599,125.771307 L309.715201,125.707632 L309.681966,125.674397 L309.618911,125.59985 L309.583812,125.566614 L309.654321,125.574069 L309.722345,125.566614 L309.788195,125.550462 L309.851249,125.519401 L309.858393,125.569099 L309.891939,125.660419 L309.900636,125.707632 L310.013699,125.665389 L310.314682,125.472499 L310.187331,125.408513 L310.079549,125.314708 L309.994752,125.193259 L309.947849,125.048824 L309.941016,124.967133 L309.950024,124.79785 L309.947849,124.714916 L309.872992,124.70653 L309.826089,124.680128 L309.813976,124.621112 L309.830438,124.591293 L310.032646,124.419525 L310.441722,124.198369 L310.566278,124.162649 L310.992126,124.156126 L311.221669,124.045859 L311.403376,123.786808 L311.677957,123.258768 L311.891969,123.060908 L311.969622,122.952505 L312.000683,122.782911 L312.042616,122.650901 L312.117784,122.53908 L312.169966,122.419184 L312.134246,122.261393 L311.896939,122.496216 L311.753436,122.579149 L311.677957,122.501186 L311.706844,122.4372 L311.782012,122.389987 L311.865877,122.364206 L311.929864,122.355198 L312.005342,122.32072 L312.032676,122.242757 L312.047275,122.155164 L312.087033,122.096769 L312.369069,121.931524 L313.695071,120.549612 L314.109116,119.86347 L314.207891,119.743574 L314.473464,119.54851 L314.576587,119.428303 L314.597398,119.246905 L314.764507,119.290081 L314.826319,119.285111 L314.915465,119.246905 L315.014239,119.183851 L315.091582,119.105888 L315.148734,119.019227 L315.192841,118.921384 L315.110529,118.927907 L315.086922,118.854603 L315.110529,118.751169 L315.16706,118.659538 L315.190356,118.608598 L315.180727,118.497399 L315.192841,118.448012 L315.225455,118.403594 L315.352496,118.283698 L315.389769,118.23897 L315.425489,118.180264 L315.446611,118.120937 L315.435429,118.01564 L315.464937,117.968427 L315.714669,117.696331 L315.728646,117.611223 L315.646334,117.505305 L315.785488,117.432622 L315.813444,117.239732 L315.764367,117.024167 L315.669941,116.871035 L315.503142,116.77195 L315.333859,116.750829 L315.199674,116.831277 L315.140969,117.037834 L315.042505,116.972295 L314.925094,116.930362 L314.687476,116.892157 L314.734689,116.790898 L314.788735,116.541476 L314.823524,116.471589 L314.91795,116.445808 L315.052134,116.454505 L315.186008,116.485255 L315.281676,116.523461 L315.41586,116.316283 L315.599743,116.245463 L315.80661,116.217197 L316.012856,116.144204 L315.764367,115.805637 L315.681744,115.608088 L315.74076,115.483222 L316.109146,115.582307 L316.197049,115.564291 L316.260103,115.538511 L316.328127,115.545033 L316.426902,115.629209 L316.429387,115.523912 L316.382174,115.372954 L316.311976,115.220755 L316.241467,115.109866 L316.163192,115.12695 L315.848543,115.128503 L315.74076,115.109866 L315.628008,115.018236 L315.590114,114.900824 L315.582659,114.771921 L315.555014,114.642085 L315.632357,114.721912 L315.707835,114.92909 L315.761571,114.971333 L315.879293,114.959841 L316.001674,114.92909 L316.109146,114.870074 L316.197049,114.783413 L316.434046,114.536166 L316.469145,114.47715 L316.518532,114.42621 L316.835667,114.288919 L316.869213,114.263449 L316.885365,114.225865 L316.883191,114.186417 L316.859584,114.148212 Z" id="Fill-3"></path>
        </g>
    </g>
</svg>