
<svg width="106px" height="116px" viewBox="0 0 106 116" version="1.1" xmlns="http://www.w3.org/2000/svg" xmlns:xlink="http://www.w3.org/1999/xlink">
    <!-- Generator: Sketch 51.2 (57519) - http://www.bohemiancoding.com/sketch -->
    <desc>Created with Sketch.</desc>
    <defs></defs>
    <g id="Page-1" stroke="none" stroke-width="1" fill="none" fill-rule="evenodd">
        <g id="MR-EPS-01-0001" transform="translate(-231.000000, -129.000000)" >
            <path d="M236.048847,198.008385 L236.050481,197.917284 L236.028012,197.783696 L235.85684,197.841707 L235.873998,197.966307 L235.862151,198.050055 L236.048847,198.008385 Z M236.567266,199.904353 L236.508847,200.074709 L236.571352,200.238528 L236.626911,200.32922 L236.625277,200.419504 L236.605668,200.504478 L236.603625,200.577604 L236.630996,200.635615 L236.778474,200.83089 L237.123679,200.313696 L237.341014,199.74462 L237.599202,198.523128 L237.521583,198.407924 L237.415774,198.546822 L237.24787,198.907959 L237.136343,198.793572 L237.011334,198.838101 L236.901849,198.977 L236.8324,199.147355 L236.821778,199.229877 L236.8324,199.492968 L236.814425,199.532187 L236.567266,199.904353 Z M236.38343,200.065313 L236.438581,199.937853 L236.459824,199.75565 L236.455739,199.662098 L236.390375,199.647799 L236.270677,199.707853 L236.220428,199.883519 L236.26414,200.07716 L236.329913,200.135171 L236.38343,200.065313 Z M237.071796,200.840694 L237.099167,200.840694 L237.406378,200.407657 L237.548137,200.146201 L237.653945,200.025686 L237.796112,199.892915 L237.896609,199.729096 L237.828385,199.655561 L237.730748,199.674762 L237.407604,200.138439 L237.114282,200.686272 L237.071796,200.840694 Z M326.907018,151.072044 L328.807071,151.069185 L330.707124,151.069185 L332.607995,151.065917 L336.407693,151.065917 L334.918208,150.057266 L333.428723,149.049025 L331.939238,148.03629 L330.449345,147.02478 L329.411281,146.351529 L327.972453,145.422133 L326.533625,144.48906 L325.095206,143.553536 L323.657195,142.620464 L321.958545,141.513767 L320.260712,140.408297 L318.562062,139.302826 L315.165579,137.08494 L313.468563,135.972524 L311.770321,134.861742 L310.071263,133.748918 L308.37343,132.638137 L306.675188,131.518776 L304.976538,130.405135 L303.278297,129.287 L303.279114,129.420588 L303.279114,130.374904 L303.280748,131.128634 L303.281565,132.015952 L303.28565,135.16446 L303.286059,136.258492 L303.290961,140.508385 L303.290961,140.878101 L303.291778,141.008421 L303.291778,141.438599 L303.23295,141.561565 L303.065455,141.610996 L274.677817,141.610996 L274.677817,165.102044 L274.643501,165.420286 L274.528705,165.568581 L273.65446,165.807568 L271.772382,166.707551 L271.463128,166.801512 L270.017764,167.007409 L269.493625,167.188794 L268.955188,167.562595 L268.030694,168.201529 L266.956272,168.940552 L266.097142,169.533323 L265.933323,169.746574 L265.199611,170.778918 L264.920996,171.370055 L264.807835,171.991014 L264.898119,172.581742 L265.315224,173.772187 L265.427568,174.369043 L265.710268,178.980481 L266.097142,185.054034 L264.840517,185.054034 L264.485508,185.057302 L249.046094,185.057302 L246.100623,185.060162 L232.256911,185.060162 L232.175206,185.136556 L232.026094,185.929913 L231.861867,186.80906 L231.496645,187.856929 L231.43986,188.147391 L231.238865,188.977107 L231.207,189.249185 L231.421476,190.235366 L231.506449,190.136911 L231.579984,189.934282 L231.661281,189.550268 L231.66986,189.437515 L231.664549,189.380321 L231.602044,189.231618 L231.518297,189.137657 L231.479078,189.068208 L231.484798,188.990179 L231.554655,188.916645 L231.754833,188.856183 L231.836947,188.801849 L231.871671,188.725455 L231.890055,188.429274 L231.943163,188.094691 L231.933767,187.938226 L231.836947,187.98684 L231.772808,187.82343 L231.82224,187.714353 L231.90803,187.642044 L232.27652,187.140783 L232.499575,186.72327 L232.616414,186.650144 L232.779416,186.856858 L232.888901,187.113821 L232.932204,187.261707 L232.950179,187.389575 L232.996343,187.516627 L233.201014,187.798918 L233.247995,187.890428 L233.278634,188.019931 L233.348901,188.105721 L233.427337,188.171494 L233.482488,188.234815 L233.525384,188.392506 L233.548261,188.541618 L233.597693,188.680517 L233.722293,188.801849 L233.747622,188.765082 L233.802364,188.723412 L233.83954,188.677657 L233.855472,188.817373 L233.891831,188.95954 L233.951067,189.093128 L234.040943,189.204655 L234.094052,189.308421 L234.190872,189.738599 L234.334265,189.895064 L234.365313,189.967782 L234.362861,190.136911 L234.395952,190.207995 L234.633306,190.397959 L234.731352,190.507036 L234.771387,190.643483 L234.783643,190.713341 L234.833075,190.786059 L234.834709,190.864904 L234.806112,190.889007 L234.752595,190.904123 L234.710925,190.947426 L234.718279,191.052826 L234.783643,191.116556 L235.052044,191.256272 L235.160304,191.3343 L235.239966,191.444194 L235.351085,191.654993 L235.420943,191.737107 L235.638279,191.873963 L235.748989,191.973234 L235.836822,192.116218 L235.955295,191.770606 L235.887888,190.889007 L235.948758,190.491512 L236.130552,190.567089 L236.187746,190.610801 L236.311121,190.864904 L236.246165,190.924957 L236.364638,191.074478 L236.503128,191.10144 L236.805845,191.052826 L236.983554,191.074478 L236.869575,191.128403 L236.481067,191.23748 L236.481067,191.307337 L236.656734,191.425401 L236.803803,191.355135 L236.840979,191.519362 L236.852417,191.746911 L236.923092,191.858439 L237.04851,191.909504 L237.133483,192.037373 L237.456627,192.882613 L237.492986,193.058279 L237.548954,193.166538 L237.573465,193.206165 L237.589806,193.253963 L237.555082,193.279291 L237.506467,193.298083 L237.482364,193.331991 L237.504833,193.419007 L237.561618,193.475792 L237.637604,193.530943 L237.716858,193.61224 L237.957888,194.212773 L238.095153,194.296929 L238.129469,194.333696 L238.15398,194.421938 L238.194833,194.506503 L238.27613,194.545721 L238.398687,194.552258 L238.450979,194.57922 L238.696911,194.958332 L238.754513,195.097231 L238.776982,195.260641 L238.74716,195.439575 L238.674034,195.621369 L238.483661,195.914282 L238.433821,195.960037 L238.378261,195.981281 L238.317391,195.987817 L238.249575,195.985366 L238.356609,196.229256 L238.616432,196.691298 L238.654425,196.912311 L238.581298,197.183572 L238.438723,197.404993 L237.93256,197.917284 L237.881494,197.99613 L237.834105,198.09581 L237.801831,198.217551 L237.805917,198.326218 L237.868012,198.365845 L238.010179,198.280872 L238.031423,198.208972 L238.094744,198.075384 L238.203004,197.998989 L238.360694,198.09581 L238.400321,198.226947 L238.277764,198.446734 L238.302684,198.592986 L238.34803,198.545188 L238.483661,198.468794 L238.490197,198.562755 L238.472222,198.644869 L238.429327,198.717586 L238.360694,198.778048 L238.422382,198.838101 L238.465277,198.907959 L238.48652,198.990073 L238.483661,199.086893 L238.444034,199.140819 L238.292879,199.305046 L238.27613,199.338545 L238.222613,199.368776 L238.194833,199.435366 L238.185437,199.616751 L238.166236,199.701316 L238.119256,199.749931 L238.061245,199.787515 L238.010179,199.835313 L237.189043,201.077639 L237.061991,201.186307 L236.948012,201.256165 L236.865082,201.350126 L236.8324,201.537231 L236.785828,201.691654 L236.561547,201.931458 L236.481067,202.071583 L236.469629,202.15002 L236.467178,202.370215 L236.481067,202.443341 L236.497,202.495224 L236.493732,202.519327 L236.499451,202.537302 L236.539487,202.564265 L236.584833,202.576929 L236.643252,202.573661 L236.693909,202.558545 L236.715561,202.530357 L236.735579,202.447426 L236.809522,202.273803 L236.805845,202.219469 L236.764176,202.113252 L236.781334,202.006627 L236.8324,201.904496 L236.891636,201.819114 L237.012151,201.683075 L237.360623,201.39343 L237.482364,201.326023 L237.131032,202.071583 L237.376556,201.874673 L237.853714,201.353394 L237.898243,201.355028 L237.923572,201.321529 L237.980357,201.326023 L238.037142,201.359522 L238.062879,201.419984 L238.045313,201.480854 L237.968918,201.602187 L237.919895,201.776627 L237.716858,202.127959 L237.407604,202.508297 L236.991316,202.749735 L236.51089,202.818776 L236.012488,202.683146 L235.895242,202.825721 L235.992471,202.959309 L236.158741,203.104336 L236.246165,203.276325 L236.274353,203.436876 L236.417746,203.818847 L236.481067,203.925472 L236.619966,204.006769 L236.955366,204.10359 L237.101618,204.201227 L237.174336,204.237178 L237.259309,204.245757 L237.330393,204.263732 L237.359806,204.328687 L237.395757,204.346663 L237.557124,204.497409 L238.064105,205.088545 L238.440357,205.712773 L238.734496,206.420748 L239.069487,207.669202 L239.083377,207.915544 L239.006165,208.130428 L239.154052,208.496059 L239.357089,209.610517 L239.799114,210.59057 L239.895117,210.91208 L240.187622,213.989504 L240.283217,215.615437 L240.134922,217.052222 L240.069558,218.239398 L239.813004,219.33629 L239.009025,221.859753 L238.88851,222.02684 L238.837444,222.244584 L238.103732,223.838243 L237.692346,224.422844 L237.546503,224.716982 L237.420268,225.319558 L237.236432,225.619007 L236.549291,227.373625 L236.481067,227.764176 L236.482293,228.718901 L236.390375,228.951352 L236.318883,229.08494 L236.246165,229.53105 L236.008812,229.984513 L235.948758,230.142204 L235.863785,230.723945 L235.948758,232.511245 L235.965508,233.29684 L235.836822,234.790002 L235.84295,234.807977 L236.024744,234.456645 L236.109309,233.968048 L236.129327,233.001476 L236.180393,232.899345 L236.298865,232.507977 L236.447568,232.150925 L236.48597,231.550393 L236.548066,231.371867 L236.673075,231.263607 L236.989682,231.187622 L237.123679,231.09938 L237.177604,231.008687 L237.214371,230.90533 L237.565703,229.399913 L237.610641,229.045721 L237.675597,228.879043 L237.794069,228.712364 L237.952577,228.557533 L238.135597,228.446414 L238.330464,228.406378 L238.614389,228.461121 L238.710393,228.467249 L238.808439,228.452133 L238.895863,228.409647 L239.147924,228.230712 L239.246787,228.184957 L239.350144,228.167391 L239.457995,228.188634 L239.53684,228.237249 L239.60057,228.300979 L239.703927,228.45581 L239.849771,228.610233 L240.023394,228.694389 L240.217036,228.715224 L240.422115,228.688261 L240.483394,228.642098 L240.544265,228.611867 L240.608403,228.600837 L240.679895,228.618403 L240.790197,228.66089 L240.844531,228.667426 L240.908261,228.654762 L241.247746,228.503199 L241.369487,228.487675 L241.669345,228.560801 L241.741245,228.560801 L241.952453,228.524442 L242.089718,228.530979 L242.477409,228.65803 L242.756432,228.673963 L242.829149,228.694389 L243.031369,228.791618 L243.166183,228.82716 L243.297728,228.818989 L243.42478,228.775686 L243.542844,228.700925 L243.7324,228.527302 L243.834531,228.463572 L243.964851,228.442737 L244.33375,228.517906 L244.459984,228.506467 L244.562115,228.45581 L244.645046,228.379007 L244.852986,228.079558 L244.959611,227.986005 L245.08462,227.927995 L245.214531,227.939433 L245.295011,228.00684 L245.344442,228.097533 L245.402861,228.178829 L245.50867,228.224584 L245.634904,228.221725 L245.755828,228.191085 L246.116964,228.04279 L246.250961,228.01256 L246.526716,228.003572 L246.93279,228.066893 L247.071281,228.060766 L247.992098,227.918599 L248.173483,227.848741 L248.229451,227.812382 L248.26581,227.761316 L248.269078,227.694318 L248.24089,227.639984 L248.101991,227.503128 L248.050925,227.385472 L248.067675,227.270677 L248.142844,227.183252 L248.264584,227.149345 L248.389185,227.186112 L248.466396,227.270677 L248.533803,227.373625 L248.62327,227.458599 L248.684957,227.479842 L248.748687,227.473306 L248.809558,227.448794 L248.863075,227.406307 L248.904744,227.351973 L248.924353,227.293963 L248.951316,227.170179 L249.006467,227.088883 L249.094709,227.031281 L249.286307,226.949167 L249.383945,227.00105 L249.49629,227.119522 L249.569007,227.26414 L249.658474,227.376485 L249.816574,227.400996 L250.07803,227.340535 L251.543821,227.445934 L251.643092,227.434496 L251.932737,227.358101 L252.01771,227.355242 L252.093288,227.376485 L252.334726,227.491689 L252.429096,227.506396 L252.524282,227.503128 L252.883377,227.404265 L252.975295,227.400996 L253.32295,227.473306 L253.415686,227.473306 L253.507604,227.464726 L253.597071,227.439806 L253.682044,227.400996 L253.906734,227.26414 L253.989664,227.233909 L254.157568,227.221654 L254.701316,227.437355 L254.767497,227.482293 L254.803448,227.549291 L254.799771,227.646112 L254.755242,227.81565 L254.769131,227.88224 L254.849611,227.918599 L255.178883,227.891636 L255.261813,227.931671 L255.290819,228.000304 L255.302258,228.157995 L255.346378,228.228261 L255.435845,228.270339 L255.642151,228.282187 L255.739789,228.300979 L255.809238,228.343057 L255.954673,228.533838 L256.015952,228.591032 L256.219398,228.734425 L256.510677,229.073501 L257.020517,229.537178 L257.304851,229.700179 L257.36327,229.754513 L257.513199,229.933448 L257.589593,229.984513 L257.757906,230.051512 L257.83716,230.093181 L257.888634,230.155277 L257.894353,230.215739 L257.840428,230.350961 L257.824496,230.427764 L257.842062,230.484549 L257.926627,230.596485 L257.964211,230.676147 L257.966663,230.750908 L257.92295,230.911867 L257.955632,231.0524 L258.101885,231.133288 L258.437693,231.230517 L258.508776,231.272187 L258.64359,231.375544 L258.700783,231.435597 L258.742861,231.509131 L258.815579,231.748119 L258.856432,231.832684 L258.910766,231.90867 L258.978581,231.975259 L259.056201,232.023874 L259.128918,232.041849 L259.198368,232.03613 L259.266183,232.010801 L259.406307,231.929913 L259.544798,231.824105 L259.603625,231.760783 L259.755597,231.539362 L259.820552,231.475632 L259.89327,231.432737 L259.968847,231.411902 L260.04851,231.409043 L260.130623,231.41803 L260.112648,231.533234 L260.026041,231.799185 L260.053821,231.889877 L260.093856,231.918474 L260.182506,231.950748 L260.221725,231.978936 L260.231121,231.993643 L260.244194,232.026734 L260.255632,232.039398 L260.276876,232.050428 L260.328758,232.071671 L260.352861,232.084336 L260.408829,232.134993 L260.42803,232.144389 L260.487675,232.157462 L260.544052,232.141529 L260.778954,232.014478 L260.828385,232.005899 L260.989345,232.005899 L261.019575,231.999771 L261.084531,231.98057 L261.344762,231.869043 L261.796591,231.771813 L261.91343,231.723607 L261.960819,231.708083 L262.009842,231.708083 L262.067036,231.717888 L262.08256,231.841671 L261.938758,232.111298 L261.923234,232.251423 L262.009842,232.308616 L262.322773,232.187693 L262.452275,232.190961 L262.494353,232.238758 L262.563803,232.356822 L262.605881,232.408705 L262.842417,232.568847 L262.893892,232.632577 L262.915544,232.699167 L262.924123,232.856858 L262.935561,232.923856 L263.055259,233.223306 L263.11041,233.313998 L263.174957,233.399789 L263.250535,233.477409 L263.467053,233.644904 L263.516893,233.710268 L263.535686,233.783803 L263.530783,233.860197 L263.497693,234.011352 L263.497693,234.083661 L263.516076,234.144123 L263.553252,234.196005 L263.708083,234.377799 L263.784069,234.513021 L263.826147,234.66581 L263.82819,234.838208 L263.809398,234.911334 L263.780393,234.986503 L263.7616,235.062488 L263.772631,235.137657 L263.81716,235.198119 L263.877213,235.244282 L264.008758,235.322719 L264.076982,235.374602 L264.135401,235.438332 L264.232631,235.580908 L264.269398,235.653625 L264.279202,235.719398 L264.264087,235.783128 L264.134176,235.986574 L264.102311,236.058474 L264.093732,236.137728 L264.105988,236.212488 L264.187284,236.431458 L264.31597,236.428599 L264.57375,236.383252 L264.698758,236.38938 L264.760446,236.416343 L264.918954,236.528279 L264.981867,236.555242 L265.179593,236.607533 L265.286627,236.671671 L265.378545,236.756236 L265.439824,236.859185 L265.46025,236.985419 L265.412453,237.316734 L265.41327,237.394762 L265.429202,237.471156 L265.459433,237.552861 L265.509274,237.58922 L265.771547,237.65581 L265.894513,237.640286 L266.024425,237.561849 L266.137586,237.471156 L266.263821,237.39803 L266.398634,237.380464 L266.533856,237.444194 L266.58819,237.509558 L266.615153,237.585952 L266.649469,237.831067 L266.677657,237.891529 L266.763856,238.004691 L266.802666,238.070055 L266.818599,238.139913 L266.820233,238.436503 L266.852506,238.579487 L266.92359,238.715526 L267.027764,238.828279 L267.538421,239.176751 L267.647906,239.291956 L267.703874,239.436982 L267.657302,239.557906 L267.515135,239.582009 L267.222222,239.551369 L267.134389,239.618776 L267.185863,239.728261 L267.382364,239.924353 L267.456716,239.981956 L267.53311,240.010144 L267.615632,240.012595 L267.798652,239.973377 L267.889345,239.973377 L267.975544,239.997071 L268.05398,240.051813 L268.098918,240.111867 L268.120162,240.182133 L268.122613,240.255259 L268.076041,240.478314 L268.08176,240.548989 L268.107906,240.627835 L268.118119,240.651938 L268.333821,240.721796 L268.655739,241.03105 L268.885739,241.127053 L268.980108,241.115615 L269.251369,241.032684 L269.383732,241.012258 L269.464211,241.042488 L269.53121,241.109487 L269.642737,241.249611 L270.114993,241.527 L270.264513,241.642204 L270.356023,241.693679 L270.557018,241.74311 L270.648119,241.790908 L270.722471,241.875472 L270.762915,241.963306 L270.963092,242.666787 L270.967995,242.761156 L271.086059,242.833057 L271.376112,243.174993 L271.526858,243.302453 L272.06652,243.557373 L272.542453,243.929948 L272.691156,243.998989 L272.880304,244.032488 L273.064957,244.007977 L273.434673,243.877657 L273.617284,243.844158 L273.747604,243.914425 L274.109966,244.238794 L274.204744,244.287 L274.274194,244.18446 L274.319131,244.044744 L274.38327,243.998989 L274.543004,244.035348 L274.714176,244.039025 L274.882488,243.990819 L275.032417,243.887053 L275.235455,243.608439 L275.358421,243.499771 L275.704034,243.426645 L275.860908,243.34208 L275.988368,243.232595 L276.055774,243.114531 L276.089274,243.036503 L276.134211,242.975632 L276.178332,242.929877 L276.207337,242.886574 L276.241245,242.872275 L276.301707,242.856343 L276.350321,242.82652 L276.350321,242.768918 L276.290677,242.691298 L276.266982,242.647586 L276.260037,242.593661 L276.304158,242.275419 L276.349096,242.117728 L276.412009,241.982506 L276.412009,241.978829 L276.430393,241.81787 L276.407515,241.693679 L276.343785,241.593181 L276.243288,241.512293 L276.188954,241.512293 L276.143607,241.55192 L276.087231,241.572755 L276.002666,241.512293 L276.017782,241.46613 L276.038208,241.200179 L276.137888,240.845988 L276.14565,240.754478 L276.119913,240.631103 L276.111742,240.548989 L276.133803,240.363927 L276.295579,239.891263 L276.344602,239.470481 L276.380144,239.327906 L276.667337,238.713483 L276.802968,238.07986 L276.912453,237.797568 L277.130606,237.558581 L277.15144,237.461352 L277.15144,237.162311 L277.404318,237.19867 L277.633909,237.273838 L277.863092,237.292222 L278.113927,237.162311 L278.419913,236.834673 L278.562897,236.75256 L278.791263,236.686378 L278.891352,236.637764 L278.967746,236.550339 L278.987355,236.507444 L278.9943,236.461689 L278.987355,236.416343 L278.967746,236.370588 L278.931796,236.349753 L278.902382,236.329327 L278.879913,236.301547 L278.865206,236.26192 L278.890535,236.255792 L278.967746,236.246396 L279.457977,236.346485 L279.65938,236.431458 L279.875899,236.618972 L280.67089,237.777142 L280.83144,237.958528 L283.000712,239.557906 L283.280961,239.827533 L283.517089,240.288758 L283.836556,240.602915 L284.118439,241.036361 L284.195242,240.888066 L284.326378,240.382719 L284.40073,240.239735 L284.631956,240.021583 L284.728776,239.872879 L284.811298,239.546467 L284.872986,239.403075 L285.011476,239.267853 L285.105437,239.234353 L285.191636,239.234353 L285.263128,239.218829 L285.358314,239.076254 L285.497213,238.997 L285.562577,238.931636 L285.630801,238.743714 L285.620179,238.376041 L285.652453,238.210179 L285.746822,238.116218 L285.885721,238.109682 L286.403323,238.188119 L286.7616,238.194247 L286.93073,238.167693 L287.238758,238.065153 L287.380925,238.039824 L287.547604,238.076591 L287.677107,238.05208 L288.552577,238.067195 L288.789931,238.113359 L289.20295,238.083128 L289.32224,238.097835 L290.056361,238.391565 L290.130304,238.391565 L290.288812,238.361334 L290.354993,238.367462 L290.529842,238.452027 L290.842364,238.651796 L291.042133,238.713483 L291.391014,238.722062 L292.388634,238.576627 L293.38176,238.664052 L293.710215,238.582755 L294.196361,238.297604 L294.367124,238.224478 L294.785455,238.137053 L296.915508,238.05208 L296.812151,237.561849 L296.674886,237.001352 L296.67652,236.743572 L296.802346,236.507444 L297.326893,235.879948 L297.493572,235.774549 L297.700286,235.865242 L297.72684,236.150801 L297.609593,236.756236 L297.555668,237.564709 L303.95073,237.564709 L305.098687,237.568385 L311.81771,237.568385 L313.276556,237.571245 L320.513181,237.571245 L321.867853,237.573696 L327.949575,237.573696 L329.100801,237.576147 L330.455064,237.576147 L330.457515,237.579416 L330.465686,237.579416 L330.468545,237.583092 L330.486929,237.583092 L330.487337,237.579416 L330.48938,237.579416 L330.489789,237.576147 L330.49224,237.576147 L330.49224,237.561849 L330.501636,237.519362 L330.508989,237.474016 L330.51716,237.431121 L330.525739,237.386591 L331.169984,233.947622 L331.326041,233.10851 L331.48414,232.268581 L331.640197,231.426609 L331.797071,230.588314 L331.845277,230.323998 L331.837107,230.266805 L331.828119,230.212062 L331.786858,230.166716 L331.746005,230.121369 L331.402027,229.881156 L330.711618,229.406449 L330.331281,229.142133 L330.015899,228.92398 L329.678456,228.688261 L329.603288,228.549362 L329.528119,228.406378 L329.490943,228.046059 L329.40597,227.243306 L329.320179,226.440961 L329.150641,224.831778 L329.064851,224.028616 L328.811156,221.610961 L328.724957,220.805757 L328.555828,219.192897 L328.470037,218.384425 L328.385881,217.57922 L328.215117,215.961458 L328.130961,215.152577 L328.043536,214.322044 L327.95652,213.48906 L327.86787,212.656076 L327.780854,211.823092 L327.694655,210.990108 L327.606005,210.153856 L327.431156,208.48462 L327.34414,207.648368 L327.168883,205.976272 L327.082275,205.14002 L327.027124,204.612613 L326.97279,204.085206 L326.917231,203.558616 L326.73176,201.785615 L326.608385,200.65359 L326.486645,199.520339 L326.239487,197.254655 L325.746396,192.708989 L325.636911,191.726076 L325.578901,191.191316 L325.320304,188.84025 L325.140961,187.201654 L324.897888,184.993163 L324.171121,178.344815 L324.050606,177.231583 L323.928865,176.120801 L323.807533,175.007977 L323.443945,171.661334 L323.202098,169.425064 L323.080357,168.306929 L322.959842,167.186751 L322.838101,166.065348 L322.717178,164.944353 L322.595437,163.820908 L322.474922,162.693377 L322.353181,161.569522 L322.292311,160.99105 L322.155046,159.721352 L321.869895,157.05613 L321.703217,155.565419 L321.538172,154.068172 L321.454425,153.319753 L321.372719,152.571334 L321.28938,151.823732 L321.206858,151.075313 L323.106503,151.072044 L326.907018,151.072044 Z" id="Fill-3"></path>
        </g>
    </g>
</svg>