
<svg width="121px" height="116px" viewBox="0 0 121 116" version="1.1" xmlns="http://www.w3.org/2000/svg" xmlns:xlink="http://www.w3.org/1999/xlink">
    <!-- Generator: Sketch 51.2 (57519) - http://www.bohemiancoding.com/sketch -->
    <desc>Created with Sketch.</desc>
    <defs></defs>
    <g id="Page-1" stroke="none" stroke-width="1" fill="none" fill-rule="evenodd">
        <g id="NA-EPS-01-0001" transform="translate(-228.000000, -144.000000)" fill="#7F807C">
            <polyline id="Fill-3" points="332.120736 151.136957 332.480632 151.065799 332.792176 151.006045 332.958211 150.999659 333.220949 150.947659 333.598633 150.868746 333.979967 150.790746 334.35674 150.712746 334.734425 150.63429 335.113934 150.55629 335.494356 150.478746 335.872953 150.401202 336.249725 150.322289 336.631059 150.243833 337.008744 150.16857 337.386885 150.091026 337.76457 150.009376 338.144991 149.935025 338.523588 149.856569 338.902185 149.779025 339.27987 149.701481 339.540783 149.647657 339.704081 149.634428 339.866011 149.660885 340.33538 149.675937 340.434363 149.731586 340.50324 149.697376 340.875451 149.594744 341.032364 149.572393 341.190645 149.600218 341.566049 149.735692 341.831523 149.785411 341.99619 149.865692 342.224261 149.907201 342.292682 149.959657 342.348787 150.022148 342.424506 150.077798 342.568191 150.132078 342.642998 150.14485 342.726928 150.138464 342.821349 150.097868 342.954998 149.976078 343.0517 149.918604 343.102788 149.856569 343.16163 149.794078 343.248753 149.765797 343.646052 149.765797 344.401422 149.883938 344.447948 149.907201 344.49265 149.946885 344.551492 149.992499 344.645001 150.009376 344.929177 150.00071 345.538581 150.122043 345.772582 150.231973 345.88388 150.394359 346.066793 150.31271 346.18174 150.394359 346.284828 150.541237 346.424863 150.646605 346.509706 150.652991 346.674373 150.596886 346.766057 150.583658 346.797075 150.616044 346.738688 150.7725 346.738688 150.834536 346.791145 150.906606 346.836303 150.941273 346.902443 150.956325 347.005531 150.956325 347.030619 150.990992 347.190268 151.134676 347.221286 151.153378 347.293356 151.425694 347.312058 151.465379 347.393251 151.483624 347.455742 151.534256 347.499988 151.596291 347.521427 151.662432 347.599883 151.555695 347.662374 151.552502 347.792374 151.690256 347.822023 151.744081 347.811988 151.858116 347.823392 151.911941 347.860795 151.952993 347.961603 152.005906 348.012234 152.040116 348.123989 152.189731 348.189673 152.222117 348.339287 152.227134 348.460621 152.258608 348.583323 152.330678 348.680481 152.432854 348.736586 152.54917 348.155006 152.43924 347.799673 152.436959 347.505462 152.727521 347.215812 152.852504 346.939847 152.859346 346.856829 152.670503 346.611881 152.824679 346.499671 152.842925 346.424863 152.733451 346.291214 152.792293 346.219144 152.755802 346.160302 152.673696 346.066793 152.611661 346.121986 152.479836 346.024828 152.494889 345.981038 152.542784 345.95367 152.602538 345.88388 152.670503 345.827775 152.701977 345.175949 152.914995 345.004896 152.926855 344.851633 152.967907 344.645001 153.13896 344.463913 153.179557 344.407808 153.207837 344.354439 153.339206 344.280544 153.367487 344.198439 153.383452 344.120895 153.414469 344.055211 153.450961 344.007772 153.490189 343.771035 153.795347 343.464508 153.989207 343.332683 154.107804 342.886121 154.644682 342.855104 154.662927 342.826367 154.713559 342.70184 154.862717 342.674016 154.916542 342.584156 154.938437 342.177734 154.981314 342.064611 155.010507 341.762646 154.729524 341.746681 154.585383 341.70654 154.532927 341.646786 154.503734 341.581102 154.440787 341.427838 154.1484 341.32247 154.048049 341.125873 154.010646 340.822083 153.997418 340.69117 154.044856 340.547486 154.188997 340.297977 154.632366 340.212679 154.695313 340.135135 154.678892 339.979134 154.598155 339.885625 154.565769 339.698608 154.54205 339.522993 154.565769 339.211449 154.722682 338.786325 155.24177 338.489834 155.457069 338.167798 155.515911 338.095728 155.553771 337.840289 155.800087 337.770499 155.852999 337.517797 155.962929 337.411516 156.040473 337.368183 156.087912 337.337622 156.15314 337.295657 156.122579 337.255516 156.096123 337.205797 156.084263 337.155165 156.094298 336.846814 156.312333 336.821726 156.631176 336.681235 156.765738 336.418497 156.943176 336.30948 157.043527 336.150286 157.280265 336.046742 157.386546 335.910356 157.427142 335.07653 158.330758 334.944706 158.414231 334.761337 158.445705 334.551056 158.692021 334.49495 158.741741 334.45481 158.764092 334.138248 158.872653 333.982704 158.879495 333.867757 158.782337 333.797967 158.395073 333.657476 157.999143 333.579932 157.871423 333.704458 157.677564 333.622809 157.483704 333.332247 157.16851 333.407966 157.021633 333.36144 156.933141 333.267019 156.858334 333.218212 156.759352 333.183545 156.649422 333.092773 156.608369 332.971439 156.587386 332.85193 156.537667 332.802211 156.465597 332.674035 156.30914 332.542667 156.193281 332.449158 156.287702 332.373438 156.278123 332.295895 156.250298 332.247087 156.221105 332.233859 156.175035 332.252561 156.019035 332.247087 155.962929 332.192807 155.868964 331.924596 155.553771 331.824701 155.325244 331.721613 155.184297 331.696525 155.135489 331.68649 155.072542 331.696525 154.851314 331.668701 154.822121 331.606665 154.812998 331.540525 154.79384 331.513156 154.729524 331.513156 154.604997 331.499472 154.54205 331.448841 154.501453 331.333893 154.440787 331.00091 154.42619 330.387857 154.480015 329.626101 154.544331 328.58017 154.634647 327.808835 154.785629 327.06122 154.931594 326.315429 155.075735 325.568726 155.218963 324.823392 155.366753 324.075777 155.509981 323.329074 155.657315 322.583283 155.800087 321.837036 155.947877 321.090334 156.091105 320.343631 156.234333 319.597384 156.380298 318.850681 156.524439 318.103978 156.671316 317.358188 156.815457 316.611941 156.961422 315.86615 157.105563 315.714711 157.133843 315.56236 157.165317 315.412746 157.192686 315.259483 157.224159 315.094359 157.230545 314.925131 157.237387 314.509131 157.255633 314.094042 157.271598 313.678954 157.2903 313.262953 157.306265 312.763935 157.327703 312.264917 157.346861 311.76453 157.3683 311.264599 157.389739 310.830809 157.404791 310.830809 163.732836 310.837651 166.060068 310.843125 167.222315 310.846774 168.389124 310.849511 169.554564 310.85316 170.721829 310.85909 173.058183 310.865476 174.230922 310.872318 176.572294 310.876879 178.920964 310.887371 182.450584 310.893757 183.536656 310.893757 184.620447 310.896493 185.16736 310.899686 185.710168 310.899686 186.253888 310.902879 186.797608 310.902879 187.343153 310.90516 187.887329 310.908809 188.434242 310.908809 188.981155 310.912002 189.5267 310.912002 190.069964 310.914739 190.617333 310.918844 191.16379 310.918844 191.553335 310.806634 191.900002 302.015427 191.900002 302.015427 192.718775 302.017252 194.14604 302.020445 195.576499 302.020445 198.443345 302.023182 200.083628 302.026831 201.725736 302.026831 205.017706 302.029568 206.6662 302.033217 208.318343 302.033217 209.974135 302.035954 211.629014 302.035954 213.287543 302.042796 216.610531 302.042796 218.275445 302.045533 218.397235 302.045533 224.387279 302.048269 224.932824 302.048269 235.358384 302.051919 235.908946 302.051919 241.992043 302.054655 242.548535 302.054655 250.902302 302.057848 251.461987 302.057848 254.09757 302.042796 254.394518 301.767743 254.463395 301.676514 254.472062 301.389602 254.434659 301.292444 254.44743 301.059356 254.578343 300.662057 254.938238 300.405249 255.012133 299.977389 255.039958 299.774862 255.112028 299.60016 255.250239 299.45009 255.330976 298.560159 255.39666 298.482159 255.421292 298.390931 255.485151 298.334825 255.552204 298.282369 255.634766 298.203913 255.731011 298.157842 255.811748 298.082579 255.996029 298.02693 256.03024 297.941175 256.06445 297.885526 256.151573 297.632824 256.958031 297.538403 257.102171 297.386052 257.227154 297.20542 257.311084 296.486085 257.494909 296.358366 257.552383 296.264401 257.536418 296.052295 257.361716 295.92412 257.373119 295.810997 257.470277 295.711102 257.601646 295.558295 257.895857 295.527277 258.104769 295.583839 258.322805 295.914541 258.891613 295.911804 259.013402 295.805979 259.079087 295.515873 259.100525 295.461137 259.138385 295.364891 259.301227 295.293733 259.372385 294.786504 259.641509 294.422047 259.762842 294.081766 259.782 293.931239 259.585403 293.891555 259.544351 293.794397 259.509684 293.481484 259.469087 293.418993 259.447649 293.329133 259.341368 293.1038 258.988771 292.957378 258.848279 291.108639 258.579156 289.41225 258.830034 289.093864 259.007016 288.904109 259.066315 288.862144 259.048069 288.753582 258.944981 288.715723 258.923543 288.66646 258.932209 288.588459 258.982841 288.541933 258.997437 288.366319 259.025262 288.269617 259.057192 288.20074 259.100525 288.029687 259.173052 287.81302 259.135192 287.441721 258.997437 287.245124 258.982841 286.46786 259.094595 286.15221 259.207262 285.986631 259.204069 285.243121 258.941788 284.90284 258.766174 284.365506 258.317787 284.065365 258.12712 283.747434 257.992103 282.269537 257.664137 281.985362 257.688769 281.88866 257.733014 281.714414 257.854804 281.626835 257.895857 281.513712 257.901787 281.229536 257.820593 281.038869 257.733014 280.998272 257.529576 281.004658 257.282803 280.959044 257.071154 280.824483 256.977645 280.674412 257.011855 280.505184 257.089399 280.32364 257.133645 279.958727 257.176522 279.56827 257.270487 279.237568 257.217575 279.221603 256.918347 279.331077 256.499609 279.387182 256.105959 279.290024 255.887012 278.965708 255.765678 278.896374 255.596906 278.847111 255.368835 278.605813 255.056379 278.534655 254.875747 278.569321 254.731606 278.684269 254.596589 278.837532 254.49715 278.987147 254.460202 279.128094 254.357115 279.203357 254.122202 279.225252 253.848061 279.20655 253.632763 279.159112 253.51964 279.019533 253.332622 278.958866 253.229078 278.922374 253.107744 278.912796 253.0042 278.888164 252.903849 278.809252 252.778867 278.775041 252.682165 278.763181 252.557638 278.725322 252.445427 278.625427 252.398445 278.3969 252.411217 277.83539 252.545322 277.553951 252.491954 277.366477 252.25841 277.323144 251.79269 277.344583 251.565531 277.348232 251.340654 277.267039 251.168232 277.044442 251.098899 276.873389 251.021811 276.757529 250.836162 276.654897 250.634547 276.532652 250.487214 276.433213 250.44388 276.342897 250.44388 276.167739 250.487214 276.067388 250.537846 275.773177 250.755881 275.536896 250.696583 275.436545 250.724863 275.308825 250.859425 275.201632 250.899109 275.114509 250.884057 275.024649 250.774127 274.955316 250.755881 274.902403 250.799671 274.751877 250.97118 274.720859 250.99946 274.655175 251.79269 274.590859 251.892584 274.549806 251.886198 274.505561 251.849707 274.359139 251.854725 274.321736 251.823251 274.283876 251.811847 274.23142 251.8529 274.211806 251.914479 274.23735 251.964655 274.393806 252.164901 274.396543 252.236059 274.262438 252.270725 274.071771 252.267989 274.024332 252.304936 273.986928 252.398445 274.015665 252.470515 274.081806 252.570866 274.134262 252.689007 274.115104 252.813533 274.031174 252.879218 273.944051 252.847744 273.856472 252.782972 273.778016 252.74648 273.622016 252.823568 273.580963 253.001007 273.618823 253.207639 273.681314 253.35999 273.868788 253.647815 273.930823 253.832096 273.837314 253.913745 273.709138 254.001325 273.662612 254.197921 273.650296 254.429185 273.628858 254.596589 273.528507 254.765817 273.37205 254.981115 273.193699 255.132098 273.047278 255.115677 273.009418 255.021712 272.985243 254.893993 272.94419 254.782238 272.866646 254.731606 272.774962 254.76901 272.104434 255.43452 271.76689 255.541257 271.523311 255.668976 271.292047 255.824976 271.132854 255.90252 270.970468 256.024766 270.883345 256.17803 270.770222 256.281574 270.536677 256.243258 270.433133 256.17803 269.893062 255.73466 269.621659 255.415818 269.49029 255.215572 268.534674 254.256764 268.380955 254.191079 268.309797 254.129044 267.778393 253.404692 267.210041 252.742375 266.039127 251.886198 265.801021 251.648549 265.348985 251.068338 264.715405 250.559284 264.592704 250.421073 264.3213 249.980897 264.033931 249.678476 263.984667 249.606862 263.977825 249.491458 264.033931 249.288019 264.047159 249.19451 263.934036 248.88251 263.694106 248.550439 262.812385 247.66735 262.70063 247.489455 262.656385 247.252262 262.659578 246.73591 262.641332 246.655629 262.584314 246.534296 261.738629 245.171346 261.597681 244.85296 261.488664 244.696959 261.34133 244.628082 261.266979 244.540503 261.007891 244.019134 260.648452 243.550677 260.592347 243.44394 260.471013 242.660746 260.423574 242.563588 260.364276 242.491517 260.311364 242.413974 260.288557 242.289447 260.352416 241.885762 260.226065 241.243059 260.288557 241.101656 260.114767 240.736743 260.061854 240.546076 260.042697 240.323935 260.052276 239.915233 260.002556 239.71818 259.861609 239.546671 259.799117 239.522039 259.636731 239.509267 259.559187 239.478706 259.540029 239.434004 259.480731 239.328635 259.415046 239.240144 259.383573 239.23832 259.358941 239.022109 259.29645 238.837372 259.014555 238.2453 258.968484 238.076072 259.007713 237.810142 258.915572 237.616282 258.790589 237.417404 258.712133 237.251825 258.693887 237.023755 258.718519 236.826246 258.790589 236.687123 258.924239 236.632842 259.014555 236.611403 259.103046 236.57628 259.171467 236.57993 259.196555 236.673438 259.196555 237.048386 259.259046 237.048386 259.293257 236.854526 259.46431 236.339999 259.471152 236.236455 259.415046 236.105543 259.233958 235.506173 259.118099 234.911822 258.911467 234.550558 258.621817 234.244487 258.285185 234.015961 257.759711 233.797013 257.682167 233.709434 257.61557 232.941749 257.647956 232.202344 257.469149 231.929572 257.440868 231.863887 257.475535 231.748027 257.528447 231.745747 257.600517 231.769922 257.682167 231.732519 257.800763 231.417325 257.793921 230.999044 257.700412 230.577113 257.559465 230.256446 257.163534 229.593217 257.112903 229.274831 257.256131 228.913567 257.191815 228.913567 256.738411 228.372584 256.588797 228.113496 256.567358 227.998548 256.567358 227.91325 256.588797 227.778232 256.588797 227.003704 256.625288 226.807564 256.891218 226.298966 256.916306 226.138861 256.913569 225.91444 256.875253 225.721036 256.681393 225.527632 256.625288 225.279947 256.588797 224.836578 256.369393 224.243139 256.319673 223.78791 256.23255 223.425278 256.219778 223.228681 256.493919 222.504329 256.470656 222.388925 256.648095 221.695591 256.681393 221.298748 256.591077 220.927906 256.285007 220.298887 256.175533 219.918009 256.147708 219.140745 256.04234 218.768078 255.53283 217.800146 255.320724 217.507304 254.883285 217.078987 254.761496 216.788426 254.457706 216.435372 254.402056 216.192249 254.436267 216.088705 254.56125 215.945933 254.589074 215.888459 254.589074 215.492985 254.548478 215.308704 254.352337 214.946072 254.158933 214.459369 253.677704 213.527473 253.493423 212.860139 253.321458 212.541752 253.26216 212.098383 253.196476 211.954243 253.240721 211.760383 253.237528 211.438347 253.199669 211.108101 253.127598 210.895539 253.196476 210.763715 253.252581 210.499153 253.315072 210.370977 253.370721 210.346346 253.452827 210.329925 253.524897 210.295714 253.559564 210.205398 253.677704 209.971398 253.608827 209.852345 253.618406 209.315011 253.462406 208.852484 253.437774 208.684624 253.559564 207.300236 253.515318 206.957218 253.084721 205.823707 252.974791 205.389005 252.981177 205.298689 253.052335 205.214759 253.268546 204.823846 253.377564 204.715741 253.375283 204.914162 253.418616 205.001741 253.471985 204.955671 253.495704 204.745846 253.483844 204.374547 253.321458 203.259282 253.227949 202.922194 253.075142 202.672229 252.950159 202.403562 252.853458 202.094298 252.794159 201.763596 252.763142 201.135489 252.772721 201.04563 252.812405 200.955314 252.931914 200.770121 252.953352 200.682998 252.953352 200.285699 252.98437 200.267453 253.034089 200.267453 253.058721 200.304857 253.009458 200.38605 253.050054 200.447629 253.097493 200.540225 253.127598 200.576717 253.077879 200.770121 253.062826 200.96398 253.127598 201.063875 253.315072 200.973559 253.303213 201.082121 253.196476 201.373139 253.327844 201.245876 253.52809 200.860893 253.649424 200.779699 253.749775 200.686191 253.814091 200.46405 253.861529 200.022961 253.799494 198.355766 253.631178 197.104115 253.424546 196.763378 253.327844 196.340991 253.009458 195.685972 252.837036 195.124007 252.551036 194.521444 252.497211 194.446181 251.922018 193.79618 251.735 193.48418 251.728614 193.255653 251.709912 193.172179 250.344682 191.387755 249.679172 190.766491 249.610751 190.61414 248.883206 189.932665 248.712153 189.848279 248.70896 189.748384 248.746364 189.648489 248.771451 189.605612 248.82482 189.36705 248.830293 189.305471 248.802013 189.186875 248.764609 189.099296 248.052117 188.034206 247.918468 187.424802 247.643414 186.751082 246.738431 185.557817 246.185132 184.632763 245.619973 183.933954 244.826744 182.518549 244.461831 182.019074 244.349164 181.66967 244.220988 181.541039 243.984251 181.347179 243.805444 181.022406 243.715128 180.710406 243.621619 179.935422 243.377127 179.099316 242.60853 177.599068 242.399617 176.774821 242.352634 176.375241 242.172003 175.613486 241.859546 174.826642 241.657019 174.498677 241.416177 174.232747 240.841439 173.761097 240.695018 173.477377 240.335579 172.449691 239.649087 171.135093 239.564244 170.86004 239.189752 170.360109 238.540664 169.17323 238.4654 168.957932 238.368242 168.820177 238.142453 168.352632 238.068102 168.252281 237.675364 167.549368 237.552662 167.25242 237.509785 167.074525 237.45368 166.647577 237.352416 166.447331 237.06824 166.07512 236.88624 165.749892 236.459292 164.679329 236.277292 164.389679 236.009537 164.073573 235.690695 163.826801 235.602659 163.702274 235.497291 163.033572 235.42294 162.836975 233.979709 160.915709 232.645041 159.816865 232.553813 159.775812 232.499076 159.725181 232.343532 159.507601 232.251391 159.457426 232.167461 159.401321 231.661601 158.789179 231.584057 158.644583 231.551671 158.473986 231.436723 158.186161 231.424863 158.080792 231.428056 157.985915 231.418477 157.895599 231.436723 157.802546 231.229179 157.501949 230.886617 156.600158 230.831424 156.537667 230.040475 155.583876 229.831107 155.384999 229.72437 155.25363 229.679212 155.106296 229.644545 154.900577 229.371316 154.313979 229.326158 154.129242 229.291948 153.304539 229.130474 152.795486 229.073456 151.555695 228.943 151.219062 229.027842 151.015624 229.022825 150.756079 228.943 150.263447 228.978579 149.537727 229.274615 147.686706 229.371316 147.557618 229.485352 147.577232 229.638159 147.658882 229.733949 147.677127 229.863949 147.665268 229.909563 147.624671 229.928721 147.564004 229.980265 147.489653 230.144019 147.381092 230.506652 147.205934 230.923108 146.892565 231.284828 146.721056 231.691706 146.602003 232.100408 146.546354 232.1629 146.531301 232.214444 146.511687 232.278303 146.518073 232.369532 146.573722 232.673321 146.668143 232.774129 146.647161 232.821567 146.602003 232.864901 146.578283 232.94655 146.606108 233.002655 146.655827 233.024094 146.717863 233.037778 146.790389 233.073813 146.862003 233.121708 146.911723 233.208831 146.974214 233.309182 147.028495 233.402691 147.049477 233.486621 147.09053 233.527674 147.17674 233.553674 147.261583 233.581498 147.301267 234.218271 147.239232 234.793465 147.25839 234.920272 147.209127 235.040694 147.108775 235.13329 147.10239 235.343571 147.227372 235.510063 147.28439 236.028695 147.327267 236.340695 147.398425 236.452906 147.389758 236.668205 147.279828 237.061854 146.93681 237.281714 146.862003 237.502943 146.827793 237.668978 146.74295 237.980979 146.477476 238.375085 146.289546 238.674313 146.197406 238.733155 146.118493 238.805226 145.984388 238.887331 145.91323 238.95484 145.884037 239.11084 145.834317 239.189752 145.781861 239.223963 145.700212 239.240384 145.596668 239.283261 145.506352 239.496279 145.447054 239.667332 145.362211 239.941929 145.29972 240.406737 145.028772 241.360528 144.862737 241.560317 144.79386 241.754177 144.782 241.918844 144.90379 242.034248 144.841298 242.100845 144.891018 242.158775 144.981334 242.253652 145.028772 242.453898 145.05979 242.556073 145.062983 242.647302 145.028772 242.647302 145.09765 242.87446 144.992281 243.009021 144.957614 243.071513 144.997299 243.127618 145.000492 243.499829 144.90379 243.661303 144.959895 243.973304 145.175194 244.130216 145.222632 244.342322 145.250001 244.526603 145.325264 244.657971 145.453896 244.773831 145.816072 244.901095 145.941054 244.979551 146.090669 244.892428 146.352494 245.647797 146.772143 246.422781 147.408916 247.275309 147.882391 248.105942 148.349023 248.215872 148.445269 248.621381 148.988989 248.749557 149.092533 248.956188 149.133129 249.065206 149.110779 249.207978 149.020463 249.286435 148.997199 249.386786 149.010428 249.54826 149.060147 249.739839 149.085691 249.882611 149.133129 249.989348 149.133129 250.08605 149.100743 250.224261 149.020463 250.286296 148.997199 250.67584 149.064252 250.873349 149.031866 250.95363 148.851234 250.963665 148.803796 253.940442 148.803796 256.210199 148.808357 263.019017 148.808357 265.288775 148.810638 281.173887 148.810638 283.444557 148.814743 288.456635 148.814743 288.525056 148.819761 288.53874 148.876778 288.569301 148.962989 288.6286 148.997199 288.684705 149.045094 288.83067 149.394954 288.847091 149.488463 288.872179 149.507621 289.084285 149.572393 289.387162 150.159903 289.415443 150.263447 289.533584 150.325482 289.996567 150.709553 290.024848 150.777518 290.069093 150.941273 290.115163 151.025203 290.198181 151.109132 290.365129 151.187589 290.449515 151.247343 290.955831 151.780572 291.13327 152.015485 291.254604 152.120853 291.599446 152.202503 292.385377 152.596608 293.541695 152.808258 294.290679 152.770854 294.594469 152.652258 294.781486 152.611661 294.881837 152.614854 295.145943 152.670503 295.540049 152.639486 295.680084 152.733451 297.085455 153.151732 298.603948 153.132118 299.107072 153.018539 299.310055 152.998925 299.49023 153.045907 299.571424 153.21103 299.653529 153.276259 299.834161 153.360189 300.041249 153.427241 300.180828 153.439101 300.225074 153.388469 300.328162 153.217416 300.383811 153.179557 301.780058 153.179557 302.113498 153.367487 302.423217 153.476961 302.50806 153.490189 303.02578 153.439101 303.266166 153.44275 303.382938 153.423136 303.507465 153.367487 303.573605 153.439101 303.704518 153.325978 303.91343 153.270329 304.150624 153.279908 304.359536 153.367487 304.665607 153.111136 304.762309 153.173627 304.885011 153.164504 305.18059 153.111136 305.280941 153.148539 305.628064 153.439101 305.856135 153.379803 306.077819 153.476961 306.277153 153.655312 306.448206 153.845066 306.53761 153.917137 306.839575 154.066295 307.09547 154.25833 307.209049 154.313979 307.432558 154.253769 307.780138 154.238716 308.100805 154.27019 308.241753 154.344541 308.307893 154.422541 308.453858 154.485488 308.597999 154.509664 308.664139 154.473173 308.729367 154.39198 308.878982 154.432576 309.147649 154.565769 309.338316 154.740927 309.566386 154.722682 309.828667 154.626436 310.118773 154.565769 310.240106 154.322646 311.877653 153.879733 312.019969 153.941768 312.167759 153.907102 312.316917 153.838224 312.479759 153.8104 312.607935 153.835944 312.96783 153.8104 313.110602 153.845066 313.514287 154.066295 314.016498 154.246927 314.279235 154.378751 314.425657 154.565769 314.474464 154.585383 314.640955 154.537945 315.278184 154.412962 317.496398 153.989207 319.716437 153.560891 321.936475 153.137136 324.15697 152.708363 325.966025 152.352117 327.770519 151.995871 329.575469 151.636888 331.382244 151.281554 332.120736 151.136957"></polyline>
        </g>
    </g>
</svg>