
<svg width="98px" height="115px" viewBox="0 0 98 115" version="1.1" xmlns="http://www.w3.org/2000/svg" xmlns:xlink="http://www.w3.org/1999/xlink">
    <!-- Generator: Sketch 51.2 (57519) - http://www.bohemiancoding.com/sketch -->
    <desc>Created with Sketch.</desc>
    <defs></defs>
    <g id="Page-1" stroke="none" stroke-width="1" fill="none" fill-rule="evenodd">
        <g id="NL-EPS-01-0001" transform="translate(-239.000000, -127.000000)" fill="#7F807C">
            <path d="M274.977742,150.674317 L275.831897,150.422621 L276.402139,149.314757 L277.572826,148.337372 L278.268312,147.258906 L278.615853,146.59604 L278.773314,146.062042 L278.271534,146.062042 L278.271534,145.807124 L278.703645,145.42495 L278.703645,144.760875 L278.451949,144.002164 L278.104408,143.435143 L278.23247,143.243855 L278.263479,143.054982 L278.198642,142.836309 L278.104408,142.578975 L277.314687,142.548369 L276.684441,143.594618 L276.083995,144.85954 L274.879883,145.86874 L274.279035,146.883577 L273.777254,148.115074 L273.618182,149.221327 L274.090565,150.292947 L274.977742,150.674317 Z M260.283139,216.869499 L260.125678,217.025349 L259.683901,217.658415 L258.829344,217.595189 L258.671883,217.533574 L258.421395,217.341882 L257.818936,217.24805 L257.531399,217.151801 L257.312323,216.900106 L257.028008,216.268249 L256.870547,216.016553 L256.523005,215.793852 L255.952763,215.570749 L255.415141,215.540546 L255.163445,215.88849 L255.038201,216.68103 L254.687438,217.088575 L252.22525,218.134422 L251.623999,218.229059 L250.675609,217.94273 L249.663591,217.94273 L249.124358,217.721641 L248.366049,216.930309 L245.900235,216.235629 L244.319989,215.224013 L243.943049,215.255828 L243.561277,215.570749 L239.483,216.900106 L239.611063,217.911721 L239.673081,218.448135 L239.578846,219.463375 L239.546226,220.408543 L239.770135,221.072618 L239.895378,221.420562 L240.496629,222.084636 L240.904175,222.274717 L241.254938,222.432177 L241.760343,222.495403 L242.01365,222.526412 L243.025668,222.368549 L243.215346,222.337942 L243.247966,222.178871 L243.278975,221.956573 L243.215346,221.450765 L243.247966,221.292499 L243.278975,220.978383 L243.561277,220.694067 L243.592286,220.694067 L243.943049,220.597013 L244.350595,220.566004 L245.364224,220.346928 L245.42745,220.346928 L245.997692,220.314308 L246.627938,220.408543 L249.6946,221.420562 L250.170204,221.737094 L250.295448,222.274717 L250.264439,222.716493 L250.295448,223.127663 L250.675609,223.56944 L250.959925,223.697502 L250.990933,223.728109 L253.961749,223.697502 L254.343118,223.56944 L254.531588,223.507422 L254.687438,223.379359 L255.670059,222.620244 L258.796724,221.041609 L260.031443,220.061002 L261.012452,218.701442 L261.106687,218.416724 L261.136891,218.322489 L261.327374,217.406719 L261.327374,217.24805 L260.789752,216.930309 L260.283139,216.869499 Z M248.747418,204.73132 L249.883069,204.664067 L250.042141,204.539226 L250.675609,203.813536 L251.023151,203.844143 L251.242629,204.034223 L251.401701,204.256924 L251.560773,204.413982 L252.53856,204.825555 L252.950939,205.140476 L253.1084,205.648701 L253.358887,206.185115 L253.89812,206.563262 L254.84651,206.911207 L255.288286,206.941813 L257.218088,206.563262 L257.659865,206.406204 L258.070632,206.121889 L258.324341,205.710316 L258.261116,205.046644 L257.787927,204.697492 L256.742081,204.413982 L256.491996,204.192489 L256.334535,203.969386 L256.20607,203.75031 L255.227074,202.579623 L254.815501,202.265507 L254.245662,202.140666 L251.843477,202.073412 L251.497144,201.883332 L251.084766,201.851517 L250.990933,201.883332 L248.872662,202.202281 L247.956489,202.801115 L247.893263,204.097449 L248.240805,204.570637 L248.747418,204.73132 Z M298.059654,167.269324 L297.364571,166.543634 L296.922794,166.891176 L295.469402,167.363961 L295.024001,167.682105 L293.918151,168.78715 L293.667663,168.822589 L293.160647,168.756946 L292.97258,168.916421 L292.368108,170.46888 L292.020566,170.720576 L291.07419,171.103154 L289.933706,172.142154 L288.041357,172.900463 L286.964501,173.977721 L285.385463,174.830265 L284.658163,175.52575 L284.215984,175.779057 L284.469693,176.408901 L284.563928,177.010554 L284.721389,177.486158 L285.259011,177.76846 L286.399092,177.706845 L286.807041,177.76846 L288.545956,178.43334 L289.335677,178.877935 L290.849476,180.080437 L291.512342,180.359517 L293.191656,180.299513 L294.075209,179.949555 L294.613234,179.22588 L294.770695,178.181644 L294.582225,176.913903 L295.277308,176.534144 L295.628071,176.404471 L296.035617,176.373059 L296.417792,176.184992 L296.953401,175.396077 L297.270739,175.207607 L297.934813,175.081155 L299.136106,174.511719 L299.861393,174.385267 L300.559295,174.130349 L301.222161,173.497284 L301.758172,172.676957 L302.172161,171.887236 L302.550712,170.875621 L302.550712,170.051669 L302.044099,168.216102 L298.059654,167.269324 Z M302.927651,171.065701 L302.641725,172.043086 L302.169342,172.866635 L301.156921,174.32043 L300.619702,174.921278 L299.797764,175.52575 L298.943609,175.970346 L297.489412,176.408901 L296.729492,177.039147 L295.590619,178.43334 L294.770695,180.362739 L294.485977,180.679272 L292.308103,181.215686 L291.232859,181.121048 L290.124995,180.585037 L287.784828,178.877935 L287.278215,178.814709 L286.20579,178.939953 L285.604942,178.877935 L285.128935,178.690674 L283.866831,177.802691 L283.361829,177.617443 L282.221748,177.523611 L281.814202,177.398367 L280.26134,176.414539 L280.389805,176.226069 L280.545252,176.164051 L280.579483,176.133042 L280.579483,175.816509 L280.959644,175.878125 L281.118716,175.975581 L281.307186,176.133042 L281.307186,175.816509 L281.688958,176.100825 L281.908437,175.656632 L282.098115,175.023567 L282.414647,174.710256 L282.697755,174.616021 L282.981668,174.359493 L283.204368,174.015173 L283.396059,173.570578 L282.984889,173.350696 L282.796822,173.003155 L282.63775,172.655613 L282.353032,172.399085 L282.860048,172.179203 L283.048518,172.149 L282.923274,171.734608 L282.861659,171.575134 L283.367064,171.039525 L283.178594,170.031131 L282.357865,168.164555 L282.007504,166.965678 L281.976495,165.92104 L282.357865,165.223138 L283.24182,165.065274 L283.905894,165.31697 L284.095975,165.445435 L284.540973,165.92104 L284.888515,165.857814 L285.270287,165.701158 L286.818317,164.718135 L287.227876,164.246558 L287.544006,163.264341 L287.926181,162.920021 L288.747716,162.505629 L288.653481,162.096069 L288.590255,161.529049 L288.495617,161.020825 L288.336948,160.802152 L287.042225,160.231104 L286.631458,160.200901 L286.283916,160.262919 L285.999601,160.419977 L285.747905,160.676908 L285.399961,160.895984 L285.085039,160.707514 L284.799515,160.390982 L284.549027,160.231104 L284.201486,159.661265 L284.135038,157.006177 L284.010197,156.091212 L282.744872,153.528345 L282.205236,153.089791 L283.251485,152.645195 L284.323508,151.980316 L288.307953,148.441272 L290.425822,147.081712 L290.708526,147.965265 L290.867598,148.350661 L291.120905,148.792438 L291.372601,148.947885 L291.468044,149.487521 L291.43784,150.023935 L291.278768,150.527326 L291.528853,151.002125 L291.627921,151.667005 L291.502677,152.331482 L291.02667,152.896891 L291.377836,153.560562 L291.151914,153.879511 L290.743562,154.098587 L290.45965,154.574594 L290.334809,154.63782 L290.207954,154.762661 L290.207954,155.175845 L290.305813,155.427541 L290.462871,155.552382 L290.653355,155.646617 L290.812024,155.836295 L291.348035,156.278071 L292.137353,156.500772 L293.719613,156.567219 L294.032924,156.660246 L294.634175,157.037186 L295.014336,157.131018 L295.423896,157.070611 L295.67841,156.942548 L296.212811,156.567219 L296.627203,156.404926 L297.008572,156.404926 L298.84132,156.94134 L299.126844,157.163638 L298.210671,157.349691 L297.450751,157.889327 L296.851514,158.713278 L296.344901,159.722075 L296.1222,160.767921 L295.931717,162.504018 L295.962323,164.116884 L296.407724,164.811967 L296.721438,165.068093 L297.322286,166.205758 L297.546597,166.522693 L297.954143,166.647534 L301.275722,166.459065 L301.719109,166.5533 L302.067053,166.809828 L302.32036,167.248785 L302.508427,167.943868 L302.864425,169.48183 L302.959063,170.245777 L302.927651,171.065701 Z M336.025042,143.402926 L336.247742,142.70583 L336.309357,142.046588 L336.278348,141.382111 L336.213511,140.208202 L335.934028,140.208202 L334.09524,139.733403 L333.336125,139.293238 L333.276926,138.595336 L333.151683,138.245781 L333.151683,138.058922 L333.245917,137.932067 L333.431166,137.744 L333.431166,137.461295 L333.275316,137.461295 L333.052615,137.680371 L332.767897,137.775009 L332.452975,137.714602 L332.234302,137.461295 L331.792123,137.586539 L330.778493,137.015894 L329.985551,136.762588 L329.801108,136.578145 L329.674254,136.386051 L329.543775,136.290205 L329.513571,136.19597 L328.910709,135.754194 L328.785466,135.693787 L327.930908,132.216358 L327.624443,131.824921 L327.121052,131.568795 L324.621008,131.160444 L318.679377,132.075006 L314.916022,133.184481 L314.285776,133.686261 L314.065089,133.748682 L313.80856,133.653642 L313.367992,133.275494 L313.113075,133.181662 L308.181851,133.341136 L305.748658,133.465575 L304.041959,134.34953 L303.473328,134.381747 L302.555947,135.045821 L298.540896,136.660299 L297.652108,137.418608 L296.45162,137.60748 L295.946617,137.79595 L295.50323,138.271554 L295.121861,138.841394 L294.710288,139.317803 L293.796129,139.726155 L293.256896,140.200953 L292.370524,141.245592 L291.86673,142.506084 L291.168022,145.353669 L290.662617,146.395891 L290.159226,146.747057 L288.988135,147.029762 L288.512128,147.411534 L288.135592,147.850089 L283.074292,152.370545 L282.093282,152.812321 L281.081264,152.940384 L280.543642,153.132075 L279.472022,154.046637 L278.90178,154.36317 L277.919159,154.423577 L276.878146,154.109863 L276.306293,153.351554 L276.684441,152.085827 L276.496374,151.772516 L276.245886,152.022601 L274.694635,151.772516 L274.410722,152.117238 L274.222252,152.969782 L274.128017,153.948778 L274.097411,154.708295 L273.871489,156.067452 L272.799466,158.848993 L272.544146,160.145327 L272.482933,160.775573 L272.040754,162.833437 L270.963899,170.825282 L270.460508,171.901734 L270.460508,172.215045 L270.23821,173.386538 L268.719578,177.879207 L266.156309,182.493495 L263.09005,187.013548 L259.486975,191.373724 L258.635639,191.946383 L257.654629,192.103038 L256.487164,191.852953 L256.326078,192.132033 L256.167007,192.450177 L256.452933,193.146871 L256.925718,194.760543 L257.024786,195.391997 L256.959949,195.517241 L256.831886,195.677118 L256.70624,195.897 L256.643014,196.213532 L256.70624,196.466839 L256.831886,196.626313 L256.990958,196.754376 L257.620801,197.637929 L257.814104,198.019298 L257.495558,198.269786 L257.243862,198.396238 L257.055392,198.430468 L256.956325,198.396238 L256.261242,198.019298 L255.408295,197.826399 L254.932691,197.86224 L254.713212,198.144542 L253.134576,198.620549 L252.408887,199.122733 L252.629574,200.232208 L252.884894,200.232208 L253.074572,200.19999 L253.168807,200.037294 L253.673809,199.910842 L254.305666,199.910842 L254.939134,199.723983 L255.411919,199.374428 L256.141233,199.87782 L256.74047,200.448062 L257.15003,201.302217 L257.307491,202.625935 L257.654629,203.16396 L259.39274,203.703193 L260.023389,204.144567 L260.276695,204.429285 L259.422138,204.490497 L258.980361,204.677356 L258.663829,205.028522 L258.603422,205.374453 L258.603422,205.818243 L258.663829,206.291431 L258.790281,206.641389 L258.980361,206.860867 L259.232057,207.052156 L259.486975,207.146391 L260.591617,207.180622 L260.906941,207.491114 L261.033393,208.252644 L260.430934,207.750461 L259.768068,207.558769 L257.524956,207.430707 L256.860479,207.619176 L255.531928,208.252644 L257.524956,210.113985 L258.122985,210.466359 L258.504354,210.526766 L259.294075,210.432128 L259.673834,210.466359 L260.716861,210.937131 L261.856942,211.127614 L262.552025,211.53516 L263.09005,212.199637 L263.308723,213.087619 L262.964806,214.004195 L262.206094,214.222868 L261.385768,214.192665 L260.879154,214.348112 L260.37093,214.097624 L259.074596,214.286094 L258.478178,214.097624 L258.096809,213.592622 L257.589793,212.199637 L257.242654,211.569391 L256.198016,210.65201 L254.966921,210.148216 L252.564737,209.89652 L252.564737,209.643213 L252.722198,209.480517 L253.165182,209.19741 L253.420502,209.10398 L253.197802,208.502729 L252.85026,207.999338 L252.439493,207.619176 L252.060943,207.394865 L251.492311,207.334458 L244.727534,208.059342 L242.13688,209.673819 L241.881963,210.021361 L241.976198,210.685435 L242.261721,211.127614 L243.08527,211.854914 L243.398984,212.324881 L243.746525,212.957946 L244.126284,213.527785 L244.570074,213.785119 L245.992859,214.097624 L246.562699,214.06581 L247.605726,213.68444 L247.984276,213.716255 L248.965286,214.668269 L250.483917,215.42537 L251.179001,216.149448 L251.431099,216.274692 L251.71179,216.242072 L252.031947,216.021385 L252.946106,215.92715 L253.326268,215.737473 L253.610583,215.330732 L254.368892,213.90996 L254.713212,213.68444 L255.759461,213.77787 L256.172242,213.969561 L257.564019,215.170452 L258.070632,215.485777 L258.608657,215.642835 L260.914593,215.677066 L261.481613,215.517591 L261.76754,215.13743 L262.017625,215.326302 L262.080851,215.639613 L262.080851,216.054005 L262.144077,216.556189 L262.33456,217.030987 L262.431614,217.156231 L263.156095,217.190865 L263.44041,217.349936 L264.072268,217.694256 L264.354972,217.788894 L264.543442,217.852522 L265.526062,217.915748 L265.714532,217.915748 L266.190136,217.66365 L266.222756,217.504176 L266.316991,216.96454 L266.284371,216.904536 L266.156309,216.586392 L265.589691,215.92554 L265.526062,215.831305 L265.401221,215.577998 L265.401221,215.166828 L265.560293,214.849893 L265.620297,214.567591 L265.306584,214.218438 L266.635537,213.460129 L267.488081,213.146416 L267.964088,212.954724 L268.625343,212.89472 L268.719578,212.89472 L269.0345,212.954724 L269.22297,213.308709 L269.191961,213.810892 L269.191961,213.969561 L268.972482,214.473356 L268.938654,214.661825 L268.907645,214.849893 L269.063898,214.975136 L269.380431,215.19824 L269.536281,215.231665 L269.696963,215.231665 L269.887044,215.19824 L270.426277,215.101588 L271.183378,215.295696 L271.277613,215.295696 L271.626765,215.261466 L271.974307,215.133403 L272.229224,214.944933 L274.188424,212.545567 L275.01157,212.100569 L275.35589,212.133995 L275.549595,212.194401 L275.801291,212.289039 L275.926132,212.350654 L276.239443,212.576576 L276.494763,212.920493 L276.5596,213.523355 L276.460129,213.905127 L276.400528,214.124606 L276.333677,214.536582 L276.302669,214.725051 L276.400528,215.101588 L276.494763,215.419732 L275.388509,214.913521 L275.105805,214.947752 L274.946733,215.42537 L275.483953,215.642835 L277.254683,215.706061 L277.478994,215.766468 L277.73069,215.831305 L278.203072,216.054005 L278.708477,216.273081 L279.2461,216.11562 L279.531623,215.796671 L279.879567,215.451546 L280.26134,214.913521 L280.449407,214.661825 L280.605659,214.403686 L280.831582,214.026747 L280.925816,213.773843 L281.019649,213.549532 L281.084888,213.297433 L281.118716,213.16937 L281.274566,212.94667 L281.65513,213.203198 L281.688958,213.266424 L281.731243,213.292198 L282.487941,213.793978 L282.676411,214.142325 L282.992944,214.746395 L282.899111,215.410872 L282.614796,216.040716 L282.582176,216.354832 L282.520561,216.890038 L282.676411,217.272213 L283.528955,218.217783 L283.65742,218.567741 L283.907505,219.452099 L284.005365,219.670773 L284.005365,219.705406 L284.035971,219.705406 L284.450363,219.927301 L285.42654,219.83065 L285.527218,219.83065 L285.871135,219.862464 L286.316536,220.43472 L286.316536,221.853478 L286.75952,221.982347 L287.706702,221.760049 L290.679128,221.888112 L291.214737,221.699642 L292.260986,220.973953 L292.38623,220.909921 L292.768002,220.721854 L293.307235,220.785886 L293.587926,220.973953 L293.903251,221.161617 L294.28462,221.637624 L294.380868,221.762868 L294.572157,222.521177 L294.666392,223.43896 L295.236634,223.942755 L296.657809,224.388156 L296.846682,224.513399 L297.00374,224.638241 L297.258657,224.924972 L297.416521,225.051424 L297.541362,225.146465 L297.986763,225.146465 L298.556602,225.01961 L299.026166,224.924972 L299.376929,224.924972 L299.784475,225.177071 L300.32411,225.903163 L300.640643,226.155261 L300.673263,226.189492 L301.053021,226.091633 L301.431572,225.9978 L301.556816,225.9978 L301.873348,226.029615 L302.096049,226.536228 L302.159677,226.7251 L301.967986,226.91357 L301.808511,227.075864 L301.714679,227.51764 L302.284116,228.115669 L302.126655,228.21232 L302.061818,228.246954 L301.967986,228.277963 L301.808511,228.337967 L301.525807,228.372198 L301.243505,228.337967 L301.275722,228.435424 L301.306328,228.622283 L301.337337,228.748735 L301.400563,228.873978 L301.400563,228.908612 L301.209274,229.443818 L301.08403,229.700749 L301.08403,229.731758 L300.894352,229.984661 L300.611245,229.731758 L300.419956,229.85982 L300.32411,230.079299 L300.291491,230.236357 L300.260482,230.457849 L300.229473,230.774382 L300.574195,231.253611 L300.165039,232.198779 L299.183626,233.781039 L299.72286,233.621565 L299.972944,233.621565 L300.229473,233.746808 L300.165039,233.874871 L299.941936,234.222816 L299.49734,235.140599 L299.180405,235.612982 L299.055564,235.707217 L298.770845,235.801451 L298.551769,235.898908 L298.484919,235.929514 L296.652977,237.95637 L296.683583,238.554802 L296.683583,238.840728 L296.74399,238.93456 L297.091934,239.436341 L297.66137,239.817711 L297.756008,239.849525 L298.201006,240.072628 L298.231612,240.072628 L298.582376,240.167668 L298.551769,240.480979 L298.551769,240.607431 L298.451091,240.957389 L298.295241,241.527228 L298.32625,241.527228 L298.551769,241.65368 L298.738628,241.778924 L298.93032,241.813155 L299.026166,241.813155 L299.152618,241.778924 L299.30887,241.745902 L299.659634,241.209085 L299.69024,241.148275 L299.909316,240.963027 L300.070804,241.023434 L300.165039,241.05404 L300.66843,241.626296 L300.924959,241.813155 L303.104845,241.752748 L303.640857,241.937996 L303.674684,241.937996 L305.506627,241.998 L305.698319,241.966991 L306.012435,241.906987 L306.075661,241.401984 L305.917797,241.148275 L305.66288,240.963027 L305.47441,240.643273 L305.373732,240.139881 L305.755504,240.235324 L306.104253,239.884561 L306.231108,239.408957 L306.169493,239.064234 L306.136873,238.713068 L306.358366,238.33492 L306.707115,238.146451 L307.272122,238.180681 L307.55684,237.829918 L307.717523,237.422372 L307.717523,237.104229 L307.491601,236.281888 L307.525428,236.028582 L307.650672,235.80427 L307.710677,235.647212 L306.890752,235.364105 L306.291515,234.984346 L306.101434,234.763659 L306.038208,234.448335 L306.038208,233.845876 L306.16466,233.402891 L306.32051,233.051725 L306.257687,232.832247 L305.342723,232.926482 L304.678649,232.7066 L304.329094,232.674786 L303.981955,232.769021 L303.317478,233.085553 L302.969936,233.145558 L302.937317,232.133942 L302.555947,230.997083 L302.399694,230.079299 L303.094777,229.700749 L303.445943,229.887205 L303.759657,230.264144 L304.108407,230.584704 L304.579178,230.523894 L304.899335,230.16991 L305.368899,229.161918 L305.719662,228.779341 L308.026001,226.944579 L309.447176,226.155261 L309.828948,225.653078 L309.291326,225.146465 L309.858346,224.670055 L310.048427,224.543603 L309.478185,224.356744 L308.216082,225.20808 L307.615234,224.894769 L307.423139,224.168274 L307.487171,223.281902 L307.710677,222.492182 L307.962372,222.050405 L308.501605,221.41734 L309.797939,219.047373 L310.048427,218.792455 L310.67827,218.348665 L310.93198,218.00354 L311.058834,217.499746 L311.123269,216.612166 L311.282743,216.26543 L310.900568,215.822445 L310.93198,215.097561 L311.123269,214.244615 L311.217503,213.454894 L311.092662,212.727594 L310.900568,211.400251 L309.892174,210.229161 L308.216082,207.922822 L308.118625,207.416209 L308.245077,206.8508 L308.529393,205.930197 L306.822291,205.206924 L306.252452,204.482846 L306.602812,203.342362 L306.346687,203.088653 L305.779667,202.677885 L305.49374,202.549419 L304.771273,202.58365 L304.516355,202.489415 L304.548572,202.046028 L305.118814,201.480619 L305.149823,200.654251 L304.798657,199.863725 L304.234859,199.423157 L304.325872,199.072393 L304.73825,198.79291 L305.782888,198.600011 L306.257687,198.380129 L306.761079,198.001982 L307.10862,197.81029 L308.118625,197.527585 L308.940563,197.747064 L309.541411,197.909358 L309.954595,198.00319 L309.604637,197.465165 L308.658261,196.488183 L308.341325,196.26226 L309.193869,195.790683 L310.014196,196.17165 L310.837745,196.8321 L311.690289,197.183266 L312.480009,197.020972 L312.705932,197.051981 L312.893596,197.245283 L313.17469,197.747064 L313.301142,197.875127 L314.250337,198.035004 L314.661104,198.254886 L314.722317,198.887145 L315.671512,198.633436 L315.768566,198.223071 L315.578485,197.305288 L317.191352,197.779281 L317.694743,197.779281 L318.106316,197.590811 L319.33741,196.64363 L321.83383,195.790683 L324.076942,195.725846 L324.741419,195.347699 L325.345489,194.652616 L325.915328,193.606367 L326.134404,193.387693 L326.322874,193.354671 L326.451742,193.22983 L326.482349,192.723217 L326.419123,192.440109 L326.293879,192.247209 L325.663633,191.552126 L324.02016,190.635954 L323.483746,190.480506 L323.103987,190.192567 L323.039553,189.563931 L323.230439,189.154372 L323.453542,189.06054 L323.702822,189.06054 L324.02016,188.901065 L324.210643,188.644537 L324.427706,188.105304 L324.557379,187.886228 L324.999156,187.442438 L325.378914,187.221751 L327.023193,187.036503 L327.340128,186.75259 L327.906745,185.613717 L328.38235,185.110325 L329.457594,184.633916 L329.959375,184.19375 L330.563847,183.244152 L330.845344,182.929231 L331.951194,182.233745 L332.014018,182.011044 L331.795344,181.632897 L331.572644,180.749344 L331.572644,179.985397 L331.760711,179.358775 L332.264505,178.187282 L332.54721,176.639655 L332.199668,175.593406 L330.684661,173.094168 L330.523576,173.157394 L330.367726,173.439696 L330.145026,173.662396 L329.513571,173.85288 L328.849094,173.883889 L328.153609,173.75502 L326.856067,173.251629 L324.866663,172.968924 L324.205005,172.652392 L323.698795,172.081747 L323.540528,171.479691 L323.506701,170.754807 L323.410855,170.031131 L323.097141,169.396858 L323.506701,169.366654 L324.900088,168.667947 L324.075332,167.972864 L323.88807,167.722376 L323.88807,167.368391 L324.014925,167.024474 L324.046336,166.641896 L323.826858,166.200523 L324.710008,165.570277 L325.564162,165.314151 L327.965542,165.282739 L329.290468,165.69552 L330.523576,165.50544 L330.906556,165.664914 L331.790512,165.947216 L332.264505,165.063663 L332.452975,163.610271 L332.674065,159.117602 L332.894349,157.725423 L333.336125,156.461709 L335.394393,153.204967 L335.934028,151.813592 L336.153104,150.485847 L336.184113,148.999835 L335.964635,145.993178 L335.866775,145.649261 L335.74274,145.42656 L335.647699,145.173254 L335.617496,144.667849 L335.677097,144.321113 L336.025042,143.402926 Z M279.346778,140.96933 L279.915006,140.143365 L281.908437,138.213966 L282.634126,137.932067 L282.94945,137.744 L283.611914,137.744 L283.611914,137.461295 L282.353032,137.273228 L280.642709,138.281622 L278.999236,139.79824 L277.923992,141.192031 L278.712907,141.539975 L279.346778,140.96933 Z M317.724141,127.600862 L318.612929,127.910548 L318.673336,127.751879 L318.739381,127.691875 L318.832005,127.628246 L318.959263,127.628246 L317.565472,126.998 L317.247329,127.032633 L317.279546,127.311714 L317.724141,127.600862 Z M321.010281,127.850141 L321.104516,127.567839 L321.296208,127.503405 L321.356212,127.412392 L320.787983,127.412392 L320.533066,127.631065 L320.473062,127.850141 L320.851209,128.042638 L321.010281,127.850141 Z M309.314281,131.015065 L309.314281,131.139906 L309.47295,131.389991 L309.978758,130.757731 L314.310341,129.398171 L314.657883,129.398171 L314.657883,129.115869 L313.959578,128.897196 L311.46638,129.115869 L310.801501,129.273733 L309.853514,129.686111 L309.219643,130.252728 L309.47295,130.823373 L309.314281,131.015065 Z M286.204179,135.656335 L289.6804,134.10911 L290.566771,133.889229 L291.704034,133.383018 L292.741826,133.351607 L293.092589,133.165553 L293.029363,133.006079 L292.965734,132.687935 L292.904522,132.530072 L294.38852,132.468054 L295.084006,132.216358 L295.684854,131.389991 L291.95734,132.117291 L291.606577,132.374624 L291.194199,132.718542 L287.813824,133.413625 L287.247206,133.413625 L286.801805,133.827614 L285.442245,134.300802 L285.159943,135.02488 L285.473254,135.656335 L286.204179,135.656335 Z M298.028645,132.404828 L299.230744,131.834989 L299.895221,131.677125 L302.485472,131.677125 L304.982294,131.108897 L303.970276,130.569261 L297.902193,130.789142 L297.525253,130.633292 L297.112875,130.982445 L296.953401,131.612288 L297.39558,132.242534 L298.028645,132.404828 Z" id="Fill-3"></path>
        </g>
    </g>
</svg>