
<svg width="87px" height="116px" viewBox="0 0 87 116" version="1.1" xmlns="http://www.w3.org/2000/svg" xmlns:xlink="http://www.w3.org/1999/xlink">
    <!-- Generator: Sketch 51.2 (57519) - http://www.bohemiancoding.com/sketch -->
    <desc>Created with Sketch.</desc>
    <defs></defs>
    <g id="Page-1" stroke="none" stroke-width="1" fill="none" fill-rule="evenodd">
        <g id="OM-EPS-01-0001" transform="translate(-221.000000, -86.000000)" fill="#7F807C">
            <path d="M307.820538,133.283608 L307.658567,132.88855 L307.421094,132.580587 L307.123469,132.502578 L306.90354,132.536413 L306.788563,132.539859 L306.741256,132.698383 L306.901034,132.881344 L306.970584,133.009793 L306.930796,133.068065 L306.865632,133.060859 L306.792323,133.043628 L306.721519,133.020445 L306.666694,132.986296 L306.592757,132.901395 L306.582419,132.830278 L306.595264,132.776706 L306.595264,132.742557 L306.568634,132.682092 L306.548897,132.55615 L306.514748,132.502578 L306.45303,132.48284 L306.284168,132.50947 L306.213051,132.502578 L305.769747,132.167985 L305.476195,132.045489 L304.626241,132.336848 L304.467404,132.353452 L304.332689,132.336848 L304.250607,132.262285 L304.250607,132.096868 L304.318591,132.136343 L304.414144,132.161092 L304.481815,132.130703 L304.471476,132.008207 L304.407252,131.947429 L304.152548,131.805509 L303.900037,131.582761 L303.554792,131.403246 L303.090811,130.965894 L302.945131,130.783873 L302.880907,130.590574 L302.444809,129.890999 L302.045052,129.674203 L301.8458,129.515679 L301.758392,129.284785 L301.720797,129.115608 L301.320727,128.098045 L301.124921,127.728364 L300.854553,127.400663 L300.479546,127.119643 L299.894321,126.778158 L299.586045,126.530973 L299.531219,126.473954 L299.487045,126.388739 L299.423134,126.033156 L299.378334,125.938856 L298.679386,125.221737 L298.584773,124.517463 L298.414657,124.27717 L298.083197,123.956675 L297.975112,123.770268 L297.785885,123.256161 L297.629867,123.042498 L297.231363,122.859537 L296.585361,122.258021 L296.443128,122.024621 L296.331283,121.479185 L296.242309,121.313455 L296.279904,121.134253 L296.205028,120.938447 L295.941552,120.579105 L295.803078,120.646775 L295.769556,120.63393 L295.708465,120.579105 L295.653639,120.690949 L295.640794,120.742328 L295.566231,120.742328 L295.552447,120.650221 L295.532709,120.603541 L295.509213,120.562814 L295.48227,120.498589 L295.413659,120.66056 L295.333144,120.66056 L295.282078,120.569706 L295.19467,120.4682 L295.038026,120.335366 L294.967222,120.315629 L294.890153,120.319075 L294.828435,120.32628 L294.804939,120.335366 L294.767344,120.295891 L294.719724,120.237306 L294.673357,120.187493 L294.619785,120.163057 L294.520159,120.061238 L294.30117,119.584725 L294.20217,119.436539 L293.979735,119.324695 L293.72879,119.273315 L293.25541,119.263917 L293.04582,119.205645 L292.950893,119.209091 L292.869751,119.429647 L292.775138,119.510162 L292.531399,119.59851 L292.081516,119.693123 L291.546418,119.700015 L291.035443,119.635791 L290.652917,119.510162 L290.450219,119.347878 L290.044509,118.938723 L289.858102,118.856954 L289.669189,118.81748 L288.989665,118.529567 L288.494981,118.424615 L288.011576,118.397672 L286.577338,118.474741 L286.299764,118.440906 L285.984908,118.282382 L285.716733,118.211265 L285.598936,118.120411 L285.28408,117.70405 L285.081696,117.659876 L284.339827,117.70405 L284.083869,117.689952 L283.626467,117.60599 L282.977332,117.402039 L282.130511,117.024212 L280.111363,116.482222 L278.540844,115.880707 L278.183068,115.649813 L277.154853,114.817403 L275.841858,113.701781 L274.758504,112.40163 L274.660757,112.060145 L274.562698,111.837397 L274.322718,111.451424 L273.118435,109.980218 L272.495929,109.42507 L272.224307,109.123059 L270.925411,106.664366 L270.850534,106.163103 L270.783177,105.882083 L270.665381,105.757393 L269.954214,104.285874 L269.710475,103.307785 L269.10896,103.37201 L269.000249,103.494192 L268.939784,104.186875 L268.878066,104.309371 L268.570102,104.529613 L268.144969,104.945975 L267.947597,105.040275 L267.534682,105.093847 L267.365819,105.16841 L267.186304,105.618606 L266.949458,105.906519 L266.8821,106.112663 L266.784041,106.237666 L266.574137,106.298444 L266.34105,106.305336 L266.164668,106.28184 L265.826629,106.011471 L265.501435,105.179062 L265.092593,104.805934 L265.01427,104.627673 L265.047792,104.474788 L265.241405,104.417769 L265.396796,104.45505 L265.538716,104.529613 L265.803759,104.718527 L265.667478,103.926845 L265.542476,103.571262 L265.241405,103.382348 L264.768025,103.307785 L264.345085,103.41963 L263.959112,103.663369 L263.600083,103.994515 L263.26549,104.417769 L263.149886,104.789643 L263.241993,105.719799 L263.241993,105.946307 L263.194373,106.39619 L263.21787,106.616432 L263.438112,107.114249 L263.47508,107.347336 L263.167431,107.632116 L263.100073,108.037825 L262.943742,108.203242 L262.832838,108.372418 L262.845683,108.626496 L262.98447,109.133711 L262.961286,109.786606 L262.994808,109.969567 L263.066238,110.053528 L263.285541,110.202967 L263.370755,110.311365 L263.393939,110.412557 L263.356657,110.994335 L263.285541,111.170404 L262.856021,111.931697 L262.767674,112.1416 L262.785218,112.324875 L262.916799,112.388786 L263.610735,112.540418 L263.793696,112.551069 L264.413068,112.300125 L264.743588,112.438912 L264.916211,112.869058 L265.047792,113.379719 L265.458514,114.114382 L265.336332,114.306742 L264.635504,114.475605 L263.352898,115.000364 L263.147693,114.977181 L262.860094,114.753179 L262.662722,114.787014 L262.481014,114.854685 L262.311838,114.858131 L261.952808,114.797666 L261.587826,114.79046 L261.272971,114.848732 L260.972213,114.969975 L260.647019,115.146044 L260.433669,115.26384 L259.963735,115.443355 L259.489416,115.532016 L259.445868,115.708085 L259.544241,115.923627 L259.727202,116.090611 L260.129465,116.33059 L260.305221,116.594066 L260.355347,116.939311 L260.389495,117.849729 L260.342502,118.008567 L259.828394,118.7661 L259.727202,118.969112 L259.364413,120.454416 L259.212781,120.684057 L258.799239,121.134253 L258.796733,121.137386 L258.593722,121.445349 L258.467779,121.84542 L258.238452,123.035605 L257.9944,123.766509 L256.945194,125.600504 L256.600263,126.747769 L256.562981,127.099906 L256.562981,127.102099 L256.634098,128.838034 L256.512855,130.574283 L257.215876,131.737839 L258.106557,133.219697 L258.996298,134.701241 L259.888859,136.183412 L260.7786,137.658064 L261.363825,138.632707 L261.479428,138.890544 L261.482875,139.160913 L261.015447,140.672846 L260.944017,140.905933 L260.737873,141.566034 L260.419571,142.592056 L260.010415,143.917582 L258.974995,147.233435 L258.396976,149.104711 L257.192379,152.954409 L256.610601,154.818793 L255.166025,159.431036 L254.847723,160.441394 L254.641579,161.094602 L254.570462,161.325496 L254.214879,162.45177 L250.669385,163.703987 L246.896757,165.029514 L245.00919,165.696506 L243.121309,166.35974 L239.348681,167.685266 L237.461113,168.348813 L235.575739,169.012046 L233.684725,169.675279 L231.800604,170.337572 L229.91335,171.001432 L228.02453,171.660906 L226.140409,172.324452 L224.252841,172.987686 L221.14,174.076992 L221.529418,174.996496 L221.999039,176.117131 L222.472732,177.234007 L222.943293,178.34963 L223.413226,179.466506 L223.886606,180.583382 L224.361239,181.699318 L225.301107,183.925864 L225.774487,185.038354 L226.245361,186.151784 L226.71874,187.265527 L227.189614,188.375197 L227.662994,189.485181 L228.602862,191.703895 L229.077495,192.813565 L229.425872,193.635636 L229.404882,193.642528 L229.34755,193.64942 L229.330319,193.656626 L229.493543,193.757818 L229.909591,193.781315 L230.095058,193.848672 L230.214108,194.008763 L231.330671,196.521969 L232.017714,198.071497 L232.707576,199.624785 L233.401512,201.174 L234.33762,200.690282 L236.13778,200.115396 L237.071695,199.976922 L238.830814,199.942774 L239.193602,199.850666 L239.578322,199.674911 L239.788225,199.549909 L239.876886,199.42522 L239.981838,199.21187 L240.229023,198.954033 L240.506284,198.724705 L240.712742,198.593124 L240.911994,198.649829 L241.138188,198.562421 L241.365636,198.429273 L241.568648,198.365362 L241.781684,198.345625 L242.441785,198.206525 L242.94524,198.179895 L243.226574,198.121937 L243.344058,198.000381 L243.381339,197.93271 L243.53767,197.794236 L243.571505,197.696177 L243.557407,197.607516 L243.534224,197.523554 L243.530778,197.435207 L243.571505,197.333388 L243.689302,197.246294 L244.176467,196.999108 L244.37008,196.951488 L245.242277,196.951488 L247.296514,196.714642 L247.404912,196.738138 L247.506418,196.792964 L247.732299,196.623788 L248.002981,196.643212 L248.523981,196.792964 L248.591965,196.77166 L248.819099,196.670155 L248.936896,196.636633 L249.082575,196.636633 L249.471994,196.714642 L249.603889,196.700857 L249.82977,196.650417 L249.959159,196.636633 L250.097946,196.660756 L250.411861,196.769467 L250.865191,196.849669 L250.987687,196.999108 L251.037813,197.19836 L251.126161,197.418916 L251.210436,197.333388 L251.587009,197.573994 L251.708252,197.529507 L251.91095,197.560836 L252.036892,197.489719 L252.165028,197.634459 L252.347049,197.631953 L252.71297,197.489719 L253.170059,197.431447 L253.373071,197.36409 L253.541934,197.184576 L253.700458,197.225303 L253.853343,197.191468 L254.011867,197.134449 L254.187936,197.10782 L254.316385,197.015399 L254.449219,196.849669 L254.577354,196.775107 L254.685752,196.951488 L254.753423,196.951488 L255.249986,196.593399 L255.700183,196.081484 L255.83521,196.01726 L255.923871,195.872834 L255.988096,195.713056 L256.041668,195.611551 L256.210531,195.520697 L256.546377,195.419504 L256.651642,195.290116 L256.614047,195.232784 L256.719313,195.056715 L256.765679,194.857464 L256.806407,194.759404 L256.877524,194.665104 L256.979029,194.599627 L257.266942,194.4552 L257.327407,194.390036 L257.382232,194.245296 L257.3791,194.153189 L257.290125,194.115908 L257.222455,194.051684 L257.209923,193.90945 L257.229661,193.750926 L257.253157,193.646288 L257.703354,193.037253 L257.781363,192.820771 L257.777603,192.296011 L257.693642,192.056032 L257.476846,191.829524 L257.108418,191.626512 L256.989681,191.470494 L256.945194,191.162531 L256.975583,190.892162 L257.050146,190.664714 L257.357796,190.100481 L258.384131,189.250527 L258.532004,189.081351 L258.576491,189.001462 L258.745354,188.530275 L258.792974,188.439421 L258.95839,188.248941 L259.060209,188.060341 L259.215287,187.606385 L259.367859,187.418099 L259.465919,187.366406 L259.824948,187.268346 L259.841239,187.272106 L260.044251,187.268346 L260.115367,187.227932 L260.162987,187.17436 L260.21656,187.122667 L260.308667,187.103243 L260.555852,187.078493 L261.664582,186.791834 L264.487631,186.662445 L264.889581,186.557493 L265.602941,186.27428 L265.826629,186.236685 L266.76775,186.3172 L267.011489,186.27052 L267.338876,186.114502 L267.561625,186.080354 L269.288161,186.300909 L269.413477,186.277726 L269.399066,186.019889 L269.429455,185.934674 L269.941056,185.363548 L270.018125,185.319374 L270.177903,185.269248 L270.249332,185.214422 L270.583612,184.612907 L270.824218,184.473807 L271.30449,184.263903 L271.520973,184.091907 L271.672919,183.864459 L271.700488,183.624167 L271.537578,183.397972 L272.106511,182.06148 L272.207703,181.577762 L272.207703,181.097803 L272.238092,180.974993 L272.336152,180.745666 L272.39411,180.555812 L272.552948,180.336197 L272.590229,180.19083 L272.579577,180.05549 L272.508461,179.67641 L272.552948,179.131913 L272.759092,178.712419 L273.936746,177.541344 L274.027913,177.419474 L274.136311,177.172289 L274.390076,176.97617 L274.860323,176.743083 L275.573995,176.225529 L277.43462,175.46079 L278.798681,175.071372 L282.039344,174.56729 L284.339827,174.67976 L284.444779,174.645299 L284.58012,174.564157 L284.702616,174.469543 L284.752742,174.402186 L284.807567,174.340155 L285.301625,174.269978 L285.344858,174.252747 L285.504949,174.124299 L285.775004,173.850484 L285.771245,173.681621 L285.35551,172.929414 L285.366162,172.692567 L285.463908,172.208849 L285.396238,172.023381 L285.118664,171.694741 L285.010266,171.51178 L284.790337,170.917157 L284.76308,170.652428 L284.804121,170.412448 L284.989275,169.878604 L285.044101,169.583172 L285.044101,169.272076 L284.97643,168.951581 L284.894975,168.757655 L284.360817,167.882325 L284.279675,167.65519 L284.302859,167.422103 L284.384314,167.117586 L284.439139,166.968147 L284.458877,166.795838 L284.452298,166.444014 L284.41439,166.281731 L284.334501,166.166127 L284.235188,166.058982 L284.158119,165.925834 L284.110186,165.568058 L284.218584,165.263854 L284.915966,164.23094 L285.040655,163.940207 L285.227062,163.287626 L285.483646,162.668566 L285.504949,162.323322 L285.514035,162.157905 L285.679451,161.521301 L285.862725,161.094602 L285.795055,160.813581 L285.585151,160.336755 L285.59549,160.052289 L285.700755,159.853037 L285.825131,159.701405 L285.889355,159.569823 L285.951386,159.359606 L286.109911,159.165993 L286.305716,159.007469 L286.488677,158.888732 L286.972396,158.692927 L287.168201,158.543488 L287.24997,158.286904 L287.216448,158.175373 L287.060117,157.999305 L287.024088,157.887147 L287.050405,157.735828 L287.121835,157.603934 L287.216448,157.481437 L287.476165,157.234252 L287.67667,157.102671 L287.875922,157.004925 L288.15005,156.944147 L288.285391,156.882115 L288.376245,156.791261 L288.345856,156.68631 L288.271606,156.56162 L288.281631,156.430039 L288.471798,155.878337 L288.539155,155.775891 L288.680448,155.677832 L289.128139,155.563481 L289.482469,155.3329 L289.80453,155.231708 L290.130037,155.204765 L290.349027,155.279328 L290.450219,155.533405 L290.423589,155.878337 L290.311745,156.216376 L290.163559,156.449463 L290.054848,156.690069 L290.165752,157.214515 L290.126278,157.451362 L290.017567,157.357062 L289.932979,157.244904 L289.889745,157.113009 L289.891938,156.963884 L289.750957,157.444156 L289.774141,157.673797 L290.010988,157.772796 L290.230917,157.796293 L290.619395,157.908451 L290.67798,157.938526 L290.613756,157.992099 L290.576161,158.097051 L290.738445,158.063529 L290.998162,157.954817 L291.136949,157.931634 L291.496292,157.945732 L291.645104,157.992099 L291.857514,158.097051 L292.141667,158.202003 L292.45339,158.212341 L292.689923,158.084519 L292.764799,157.772796 L292.869751,157.677557 L293.018564,157.603934 L293.164556,157.552867 L293.25541,157.532817 L293.289246,157.444156 L293.346264,157.054738 L293.411742,156.963884 L293.397644,156.777477 L293.549276,156.368008 L293.82685,155.80722 L293.856926,155.498317 L293.94214,155.17093 L294.064323,154.873618 L294.20217,154.645857 L294.320907,154.541219 L294.568405,154.398672 L294.655813,154.321916 L294.740714,154.15556 L294.824676,153.838198 L294.886394,153.671214 L294.957824,153.671214 L295.05557,153.79747 L295.254822,153.739198 L295.4547,153.587566 L295.566231,153.431235 L295.580016,153.197834 L295.4547,153.269264 L295.272679,153.441887 L295.105696,153.519896 L294.997298,153.462877 L294.899239,153.37077 L294.831568,153.258613 L294.804939,153.151781 L294.828435,153.08599 L294.879815,153.025525 L294.957824,152.950963 L294.967222,152.947516 L295.052124,152.73542 L295.038026,152.71067 L295.502007,152.481029 L295.685281,152.315299 L295.640794,152.072186 L296.279904,151.55056 L296.344128,151.449368 L296.377964,151.326871 L296.409606,150.913956 L296.445321,150.807125 L296.784613,150.177413 L296.957235,149.926469 L297.108554,149.818071 L297.220398,149.713432 L297.674041,149.010098 L299.163104,147.439579 L300.397464,146.431415 L300.716079,146.242188 L302.272186,145.552325 L302.359907,145.467111 L302.397189,145.362472 L302.478957,144.986838 L303.510618,143.346143 L303.720209,142.855845 L304.054802,141.793482 L304.928252,140.615828 L305.107453,140.182235 L305.243108,139.975778 L305.678893,139.79407 L305.787604,139.55597 L305.837417,138.984844 L306.040429,138.419357 L306.071757,138.145229 L306.152273,137.935639 L306.338993,137.739833 L306.666694,137.458813 L307.292959,136.572517 L307.516334,136.106343 L307.658567,135.58503 L307.878183,133.642637 L307.820538,133.283608 Z M267.149023,89.9770174 L267.274965,89.9911154 L267.447587,90.4607359 L267.504919,90.7116805 L267.477663,90.935369 L267.40686,91.2969047 L267.358613,92.3927903 L267.289063,92.5654126 L267.075713,92.8674234 L267.020887,93.0491311 L267.068507,93.2555887 L267.325091,93.6005201 L267.376471,93.749959 L267.298462,93.9119295 L267.156228,94.0203276 L267.038432,94.1487761 L267.02778,94.3549204 L267.081666,94.9006702 L267.14307,95.0450965 L267.203848,95.0823779 L267.463878,95.1303111 L267.561625,95.2117663 L267.670023,95.4555053 L267.748032,95.5463592 L267.920967,95.5930393 L268.100482,95.559204 L268.561017,95.4310688 L268.502745,95.2853893 L268.424423,94.883126 L268.502745,94.4366889 L268.658763,94.0413179 L268.814155,93.7837942 L268.814155,94.0413179 L268.973619,93.9457647 L269.094862,93.7872404 L269.277823,93.4582868 L269.496812,93.24619 L269.48428,92.9582772 L269.496812,92.8674234 L269.632466,92.6095864 L269.811667,92.3495564 L269.88999,92.0851403 L269.713921,91.7947212 L269.822006,91.6756713 L269.980844,91.6559341 L270.160358,91.7095066 L270.326402,91.7947212 L270.36337,91.6349437 L270.396892,91.5942161 L270.48242,91.5368842 L270.238681,91.469527 L270.140934,91.4215938 L270.096134,91.3307399 L269.950455,91.131488 L269.900328,91.0086787 L270.153779,90.8363696 L270.147513,90.6101748 L269.991495,90.4748339 L269.713921,90.6208267 L269.67664,90.4272139 L269.778146,90.3150564 L270.096134,90.197573 L270.437933,89.9945616 L270.603349,89.8523283 L270.702662,89.6903578 L269.710475,89.7032026 L269.496812,89.6120355 L269.545058,89.4898527 L269.575134,89.3313284 L269.568242,89.1887818 L269.496812,89.1145323 L269.379328,89.1518137 L269.288161,89.2833951 L269.189475,89.5305803 L269.142795,89.3755022 L269.121805,89.2191709 L269.135589,89.0678522 L269.189475,88.9384637 L269.112719,88.7833856 L269.274377,88.5559377 L269.548191,88.3939671 L269.799136,88.4381409 L269.713921,88.4719762 L269.663795,88.5430928 L269.639358,88.640839 L269.646251,88.7689743 L269.710475,88.7320062 L269.877145,88.6514909 L269.941056,88.6107633 L269.950455,88.8100152 L270.032536,88.9591408 L270.167564,89.0127133 L270.326402,88.9384637 L270.421642,89.0233651 L270.53004,89.0803837 L270.647836,89.1073266 L270.775972,89.1145323 L270.698902,88.8917837 L270.556982,88.7658414 L270.387806,88.6643357 L270.249332,88.5199094 L270.286614,88.4487928 L270.302592,88.3867615 L270.292253,88.3100056 L270.249332,88.1875096 L270.370262,88.2016076 L270.48242,88.1875096 L270.553536,88.4240429 L270.654729,88.3833153 L270.85774,88.0217796 L270.736497,87.8491573 L270.614001,87.8726539 L270.502157,87.9707135 L270.400964,88.0217796 L270.252465,87.966954 L270.126836,87.8692078 L269.879651,87.6091777 L269.975204,87.4810425 L269.977711,87.413372 L269.964553,87.413372 L270.147513,87.2943221 L270.478973,87.0029632 L270.665381,86.9352927 L270.942641,86.9493907 L271.098033,86.9352927 L271.121216,86.817496 L271.010625,86.509846 L270.775972,86.5938075 L270.800408,86.6486331 L270.834557,86.7871069 L270.85774,86.8444389 L270.71582,86.8513312 L270.580166,86.8375465 L270.326402,86.7664298 L270.249332,86.7018923 L270.190747,86.6204371 L270.126836,86.590048 L270.021885,86.6752627 L269.991495,86.587855 L269.968312,86.5562128 L269.971758,86.526137 L270.021885,86.431837 L269.941056,86.3444293 L269.88623,86.3976885 L269.713921,86.509846 L269.564796,86.174 L269.496812,86.174 L269.459844,86.3535147 L269.473628,86.6204371 L269.413477,86.7664298 L269.277823,86.9352927 L269.213598,86.9725741 L269.146241,86.9725741 L269.08421,86.9970107 L269.03753,87.1079151 L269.169425,87.1520888 L269.32231,87.2570407 L269.443553,87.3817298 L269.496812,87.477283 L269.43666,87.6558578 L269.290668,87.6019721 L268.970486,87.3457015 L268.970486,87.5380611 L268.881512,88.0521686 L268.884958,88.1875096 L269.007454,88.2316833 L269.139036,88.1640129 L269.247434,88.0559281 L269.308525,87.9776058 L269.406271,87.9205872 L269.541612,87.9099354 L269.754649,87.9368782 L269.836417,87.9707135 L269.923825,88.059061 L269.971758,88.1677724 L269.941056,88.2727242 L269.866806,88.2818096 L269.53096,88.1875096 L269.413477,88.2178986 L269.112719,88.4381409 L268.983018,88.4415871 L268.888404,88.3902077 L268.814155,88.3833153 L268.736772,88.5199094 L268.705757,88.3062462 L268.570102,88.1677724 L268.428182,88.1129467 L268.360199,88.1499149 L268.30318,88.2282372 L268.015581,88.2445282 L267.906869,88.3529263 L267.826354,88.3529263 L267.874287,88.1768577 L267.906869,88.1129467 L267.78218,87.9099354 L267.789073,87.7479649 L267.78218,87.6802944 L267.602665,87.7780406 L267.488315,87.886752 L267.223586,88.4381409 L266.493622,89.5910451 L266.388983,90.0283968 L266.34105,90.1427474 L266.588235,90.1230101 L267.149023,89.9770174 Z M297.554991,155.3329 L297.528675,155.083522 L297.572535,154.848868 L297.650544,154.635519 L297.663389,154.43282 L297.528675,154.240461 L297.366391,154.284635 L297.268645,154.423422 L297.145835,154.809394 L296.943451,155.231708 L296.412739,155.935669 L296.30998,156.108291 L296.242309,156.327593 L296.195943,156.774657 L296.14425,156.947593 L296.016428,157.125854 L295.820309,157.259002 L295.633902,157.289078 L295.450628,157.29503 L295.26516,157.362701 L295.237591,157.427865 L295.187151,157.643721 L295.143291,157.691341 L295.062776,157.72173 L294.865403,157.870856 L294.804939,157.931634 L294.687142,158.093291 L294.62887,158.243043 L294.550548,159.165993 L294.58219,159.288803 L294.557753,159.484609 L294.568405,159.84959 L294.621664,160.215825 L294.730376,160.411631 L294.852559,160.400979 L294.977561,160.306366 L295.068415,160.171025 L295.105696,160.049782 L295.160522,159.975219 L295.285211,159.94483 L295.423998,159.924153 L295.522058,159.890318 L295.62325,159.77816 L295.824068,159.504346 L296.195943,159.135918 L296.242309,159.054462 L296.239803,158.977393 L296.222572,158.858343 L296.222572,158.726762 L296.320318,158.527197 L296.448767,157.965469 L296.581602,157.695101 L296.845391,157.292837 L297.04433,157.113009 L297.494526,156.862691 L297.918093,156.547836 L298.015839,156.453222 L298.056567,156.327593 L297.620468,155.529959 L297.554991,155.3329 Z M263.972897,191.121803 L263.816879,191.162531 L263.688744,191.222996 L263.630785,191.31197 L263.678092,191.443551 L263.783357,191.383086 L264.11419,191.386533 L264.281174,191.28722 L264.195959,191.257144 L263.972897,191.121803 Z M266.232652,190.970171 L266.131146,190.831384 L266.094178,190.65187 L265.803759,190.790657 L265.380505,190.933203 L265.088833,191.108958 L265.18376,191.35865 L265.339464,191.420055 L265.826629,191.443551 L266.003011,191.416922 L266.188478,191.345805 L266.540615,191.121803 L266.378331,191.068231 L266.232652,190.970171 Z M267.836692,100.269507 L267.904363,100.431477 L268.079805,100.482857 L268.262452,100.404848 L268.587647,100.171761 L268.600805,100.006031 L268.580754,99.7519532 L268.529375,99.5082142 L268.46891,99.3728732 L268.388395,99.353136 L268.283443,99.3694271 L268.079805,99.4508823 L267.961695,99.5454956 L268.005869,99.6131661 L268.103928,99.6736309 L268.14121,99.7378551 L267.910315,100.082787 L267.836692,100.269507 Z" id="Fill-3"></path>
        </g>
    </g>
</svg>