
<svg width="171px" height="71px" viewBox="0 0 171 71" version="1.1" xmlns="http://www.w3.org/2000/svg" xmlns:xlink="http://www.w3.org/1999/xlink">
    <!-- Generator: Sketch 51.2 (57519) - http://www.bohemiancoding.com/sketch -->
    <desc>Created with Sketch.</desc>
    <defs></defs>
    <g id="Page-1" stroke="none" stroke-width="1" fill="none" fill-rule="evenodd">
        <g id="PA-EPS-01-0001" transform="translate(-101.000000, -164.000000)" fill="#7F807C">
            <path d="M124.713499,172.34765 L125.110977,173.01275 L125.233253,172.78303 L125.276758,172.672619 L125.237538,172.595167 L125.110977,172.45806 L125.110977,172.243172 L125.519661,171.765934 L125.318286,171.031951 L124.519704,169.859621 L123.967651,169.874782 L123.50162,170.062645 L122.728416,170.648645 L124.105747,171.727043 L124.713499,172.34765 Z M127.177468,173.003851 L127.609223,173.215444 L127.869594,173.819571 L127.475741,173.640937 L127.475741,173.819571 L127.762809,173.991284 L127.87322,174.252315 L127.869594,174.912801 L127.830703,175.038372 L127.764457,175.062102 L127.752262,175.085832 L128.064049,175.408165 L128.201485,175.461887 L128.450321,174.799753 L128.912068,174.36701 L129.496749,174.134324 L130.055394,174.215072 L129.747563,173.806058 L129.387987,173.560189 L128.657629,173.227639 L127.974072,172.595167 L127.69063,172.45806 L127.417735,172.584621 L127.176809,172.610328 L126.941156,172.559572 L126.687377,172.45806 L126.549611,172.29986 L126.408549,172.260969 L126.258918,172.317658 L126.096103,172.45806 L126.096103,172.637024 L126.649475,172.905306 L127.177468,173.003851 Z M271.561224,212.700246 L271.27943,212.403621 L270.968962,212.1828 L270.690463,211.920121 L270.500953,211.497265 L270.448219,210.801843 L269.82959,208.549468 L268.9908,206.953952 L268.727132,206.565702 L267.978318,205.468188 L267.35145,204.158752 L267.13755,203.860149 L266.766768,203.702937 L266.381155,203.681185 L266.013669,203.546715 L265.692654,203.049043 L265.444807,202.019753 L265.20454,200.040272 L264.787617,199.032405 L264.307743,198.224924 L264.00914,197.9751 L263.521356,197.813604 L262.652902,197.897318 L262.39352,197.730549 L262.394838,197.067756 L262.634116,196.211826 L262.837799,195.996279 L262.961722,195.865763 L263.765248,195.015437 L263.766566,195.014778 L264.114936,194.292989 L264.08,193.778838 L263.942894,193.486827 L263.972556,193.265676 L263.975852,193.263699 L264.443202,192.970699 L264.909893,192.867869 L265.376583,192.821397 L265.675845,192.611782 L265.677164,192.609805 L265.740114,192.2176 L265.550933,192.163548 L265.3868,192.077197 L265.245738,191.965468 L265.130714,191.823747 L264.59514,192.16223 L263.70032,192.229794 L262.754085,192.068298 L262.067891,191.724542 L261.440034,191.105914 L261.266343,190.812254 L261.171753,190.445428 L261.2057,190.06377 L261.281834,189.74638 L261.206359,189.47744 L260.777241,189.243106 L260.777241,189.656733 L260.308573,189.315285 L259.625345,188.125157 L259.093727,187.864786 L258.990237,187.674616 L258.683724,187.298232 L258.363698,187.029621 L258.215056,187.166728 L258.286576,187.452477 L258.452686,187.64759 L258.642526,187.826554 L258.789191,188.061548 L258.237468,187.809746 L257.501178,187.230008 L256.872332,186.517118 L256.639316,185.875089 L256.538134,185.934743 L256.322586,186.009559 L256.227336,186.07185 L255.31307,184.750549 L255.039516,184.133238 L255.24188,183.511643 L254.944266,183.333997 L254.626877,183.074615 L254.376723,182.764147 L254.274222,182.427312 L253.647354,181.935243 L253.608792,181.824833 L253.530022,181.47844 L253.469049,181.3443 L252.048213,179.945216 L251.694899,179.354602 L251.48001,179.354602 L251.467157,179.849637 L251.548894,180.224374 L251.873863,180.950777 L250.396998,179.405358 L250.011055,179.175638 L249.542387,178.7864 L248.561875,177.329309 L247.933688,177.3682 L247.681227,177.033673 L247.058314,176.374505 L246.946914,176.004712 L246.587009,175.845193 L246.052094,175.727532 L245.049171,175.628986 L244.367262,175.217336 L243.66393,175.020575 L243.472771,175.002448 L243.215696,174.939827 L242.800091,174.669897 L242.486986,174.608924 L241.901975,174.659351 L241.591177,174.608924 L241.254343,174.45369 L240.486412,173.946461 L240.229666,173.819571 L239.950179,173.794193 L239.612356,173.841983 L239.424163,173.819571 L238.733685,173.426048 L238.46079,173.335083 L237.695826,172.926399 L237.148717,172.833786 L236.405835,172.380279 L236.270705,172.350616 L235.464214,171.831521 L234.543027,171.515121 L234.190372,171.309461 L234.282985,171.061943 L234.282985,170.865182 L233.930331,170.744224 L232.884891,170.648645 L232.463683,170.495059 L231.815062,170.12988 L231.415936,170.058031 L231.098546,170.138779 L230.69151,170.523403 L230.341492,170.648645 L229.974665,170.614368 L229.354059,170.324994 L229.032715,170.255122 L227.654066,170.255122 L227.463237,170.174374 L226.93821,169.788102 L226.560836,169.66286 L226.395385,169.750859 L226.16962,169.925538 L225.86838,169.991125 L225.477494,169.761405 L225.249752,169.812161 L224.195742,170.469681 L223.961408,170.034301 L223.575466,170.184921 L222.816434,170.865182 L222.501022,170.641394 L222.108818,170.554714 L221.774949,170.545815 L221.633887,170.559328 L221.585439,170.33554 L221.448332,170.107468 L221.228829,169.931471 L220.936158,169.859621 L220.553841,169.822378 L219.850839,169.67044 L219.448417,169.66286 L219.291535,169.750859 L218.827811,170.132846 L218.641925,170.255122 L218.46362,170.255122 L218.088884,169.997058 L217.63241,170.032653 L217.246797,170.007605 L217.084642,169.564314 L217.084642,167.998462 L217.259651,167.694256 L217.682177,167.497165 L218.641925,167.298755 L218.720366,167.354125 L218.930311,167.431577 L219.151132,167.416746 L219.251326,167.200209 L220.04002,166.923029 L219.3591,166.685729 L218.356835,166.606959 L217.354571,166.685729 L216.672003,166.923029 L216.644977,166.917097 L216.300562,166.854476 L215.780479,166.93061 L215.263032,166.948407 L214.898512,166.706822 L214.682964,166.706822 L214.114103,167.145169 L212.993847,167.264478 L211.757249,167.082548 L210.840676,166.608277 L209.84797,166.301105 L206.984875,166.071385 L206.389317,165.525264 L206.175746,165.665667 L205.963824,165.692363 L205.772665,165.588215 L205.618091,165.328503 L205.418033,165.867043 L205.403861,166.115879 L204.829726,165.943177 L204.595392,165.838699 L204.419065,165.704228 L204.221973,165.704228 L204.1376,165.87726 L204.055204,165.960974 L203.951715,166.017663 L203.809994,166.115879 L203.706175,165.895387 L203.699913,165.826834 L203.414823,165.704228 L203.414823,165.525264 L203.716721,165.360143 L203.710789,165.143606 L203.556873,164.866097 L203.414823,164.523 L202.250733,165.158438 L201.838753,165.328503 L201.711533,165.273462 L201.298235,165.221059 L200.859889,165.248084 L200.656206,165.427048 L200.503279,165.62381 L199.824666,165.978772 L199.67141,166.205525 L199.586377,166.293524 L199.413345,166.328131 L199.270306,166.426347 L199.277557,166.706822 L199.412027,166.733519 L199.679979,166.664965 L200.083389,166.509731 L199.936725,166.832064 L198.865577,168.28487 L198.273315,168.875484 L198.176747,168.939423 L197.976689,168.99776 L197.880121,169.072246 L197.824092,169.167825 L197.744333,169.382714 L197.68303,169.466098 L197.197553,169.770304 L196.33701,170.085057 L195.90888,170.469681 L195.627086,170.981525 L195.644225,171.38131 L195.793856,171.825589 L195.90888,172.45806 L195.69531,172.128477 L195.45768,171.938966 L194.924084,171.652557 L194.504853,171.562911 L193.996306,171.383947 L193.654527,171.339453 L193.740878,171.652557 L193.543787,171.831521 L193.417227,171.70628 L193.347025,171.652557 L193.409976,171.897109 L193.481496,172.392473 L193.543787,172.637024 L192.972289,172.253718 L192.813429,172.530898 L192.774538,173.111296 L192.55899,173.640937 L192.26665,173.791557 L191.970024,173.763212 L191.718222,173.618195 L191.556067,173.426048 L191.494435,173.136673 L191.556067,172.04641 L190.750234,172.446195 L189.896612,173.173916 L189.178119,173.979419 L188.600029,174.823484 L187.022971,176.125669 L186.190442,176.591042 L185.232012,176.9727 L184.162513,177.254494 L183.154645,177.3682 L182.866919,177.48718 L181.925627,178.027368 L181.488929,178.173374 L179.073738,178.550747 L175.370205,179.655842 L174.14646,180.206247 L171.440247,181.429332 L171.079023,181.523264 L170.679568,181.68443 L169.592271,182.704492 L168.633182,183.059783 L168.527715,183.11779 L168.267344,183.208755 L168.118701,183.413097 L168.022463,183.617439 L167.926554,183.710052 L167.634543,183.885721 L167.319131,184.297371 L166.833654,185.088372 L166.580534,185.37478 L166.196239,185.696784 L165.762177,185.963747 L165.356459,186.07185 L165.05489,186.093603 L164.244114,186.144029 L160.186937,187.757671 L159.524144,187.668025 L159.296731,187.933999 L159.029768,188.115929 L158.764783,188.173606 L158.539677,188.061548 L157.492589,188.440569 L156.437262,188.642274 L154.83911,188.651503 L154.382966,188.652492 L151.448681,188.98669 L151.015937,188.956697 L150.738427,188.744775 L150.129027,188.5668 L149.517979,188.484404 L148.974495,188.664686 L147.342396,188.258639 L146.759362,188.464958 L146.465044,188.473198 L146.256087,188.385529 L146.020105,188.118566 L145.765996,188.061548 L145.514853,187.94125 L145.174393,187.656819 L144.862607,187.322621 L144.690894,187.059283 L144.119725,186.68982 L142.958931,185.455199 L141.227627,182.996833 L140.82158,182.704492 L140.682495,182.567385 L140.122532,181.720355 L139.803495,181.475474 L138.934712,181.028229 L138.636109,180.950777 L137.858621,180.920784 L137.561007,180.862778 L137.364904,180.753685 L137.201431,180.476176 L137.007306,179.834806 L136.772972,179.551693 L136.772972,179.354602 L136.98786,179.453148 L137.282838,179.496323 L137.51882,179.423155 L137.561007,179.175638 L137.438402,179.044464 L136.772972,178.549429 L136.091392,177.732061 L135.591743,177.36062 L134.999811,177.3682 L134.796128,177.690204 L135.24568,178.012207 L136.182358,178.450883 L135.878152,178.802879 L135.191299,178.73861 L134.457645,178.555361 L134.014685,178.549429 L134.130698,178.811777 L134.58058,179.223428 L135.117472,179.60212 L135.492539,179.7679 L135.757194,180.022998 L136.772972,181.523264 L138.725426,182.615175 L138.830234,183.769377 L138.686535,184.26639 L138.170407,184.515226 L136.471073,183.745647 L136.182358,183.817167 L136.036352,184.00503 L135.72885,183.863638 L135.450022,183.620406 L135.393334,183.511643 L134.987616,183.372888 L134.735814,183.377173 L134.408208,183.511643 L134.495547,183.835294 L134.245064,184.16323 L133.825174,184.414043 L133.405284,184.515226 L132.938264,184.410748 L132.635047,184.208054 L132.273164,184.058752 L132.013781,184.082812 L131.631794,184.121703 L130.25644,184.540604 L129.707024,184.512259 L129.384032,184.545218 L129.26703,184.515226 L129.166506,184.410748 L129.120035,184.219919 L129.05247,184.121703 L128.905476,183.963502 L128.478665,183.314552 L128.485586,183.077251 L128.117112,182.859726 L127.08123,182.525528 L126.58982,182.803038 L125.893409,182.734484 L125.194692,182.412151 L124.698668,181.935243 L124.812704,182.024561 L124.892463,182.07235 L124.979144,182.102013 L125.110977,182.132005 L125.308069,180.25107 L125.151187,179.945216 L124.460709,179.58597 L124.304815,179.175638 L124.734593,179.286049 L124.896418,179.354602 L124.896418,179.175638 L124.684496,178.850668 L124.594849,178.31048 L124.682848,177.806547 L125.003533,177.582759 L125.740483,177.64538 L126.202889,177.814127 L127.08123,178.352338 L127.254261,177.997376 L127.202187,177.21 L127.277991,176.775938 L127.08123,176.775938 L127.08123,176.9727 L126.884468,176.9727 L126.735167,176.819114 L126.625415,176.650696 L126.545985,176.446354 L126.490615,176.183676 L126.355156,176.171811 L126.319891,176.213668 L126.321209,176.29112 L126.293195,176.380438 L126.074351,176.191256 L125.950757,176.264094 L125.894728,176.52084 L125.881215,176.874484 L125.770145,176.977314 L125.539766,176.950288 L125.334765,176.761107 L125.308069,176.380438 L125.110977,176.380438 L125.153494,176.838559 L125.05363,177.144083 L124.834127,177.269655 L124.519704,177.187588 L124.327227,176.929524 L124.244502,176.583461 L124.097507,176.289802 L123.713542,176.183676 L124.054991,176.707385 L123.88954,176.811863 L123.536555,176.854709 L123.319689,177.187588 L123.121939,177.187588 L122.090671,176.559402 L121.940051,176.282222 L121.870839,175.921327 L121.689568,175.530441 L121.435788,175.196243 L121.151687,175.002448 L120.986236,175.035076 L120.846163,174.978718 L120.810238,174.832382 L120.954925,174.608924 L121.020512,174.286591 L121.746256,174.341632 L122.137142,174.036108 L122.160543,173.722674 L121.920606,173.496249 L121.59234,173.283009 L121.348778,173.01275 L121.256824,172.617579 L121.334606,172.290961 L122.119015,170.936701 L122.248212,170.551747 L122.316107,170.058031 L121.560371,170.566579 L120.473074,169.978931 L118.769125,168.28487 L115.992052,166.115879 L115.632476,165.897694 L115.626543,165.894069 L115.940307,166.984332 L115.941296,166.987298 L115.715861,167.00213 L115.275866,166.77241 L114.83752,166.70089 L114.835872,166.70089 L114.630871,167.012347 L114.510902,168.120408 L114.325676,168.484927 L114.324358,168.487564 L113.941052,168.548867 L113.403501,168.457572 L112.899896,168.302667 L112.615136,168.169845 L112.308623,167.831363 L111.939489,167.137918 L111.645171,166.806686 L111.413144,166.912483 L111.133986,166.809653 L109.929028,165.799808 L108.258367,165.14064 L107.726419,165.200295 L107.726089,165.200295 L107.675993,165.242152 L107.191175,165.649518 L107.189857,165.650836 L106.861921,166.108628 L106.808528,166.375591 L107.157557,166.989935 L107.357615,167.780607 L107.480549,167.947706 L107.67006,168.005712 L107.803542,168.084812 L107.756411,168.317828 L107.755752,168.320465 L107.326304,168.565346 L105.787807,168.773972 L105.251904,168.961176 L105.249267,168.961835 L105.006364,169.366234 L104.930889,169.919276 L105.07261,180.816306 L105.338584,180.706225 L105.93612,180.458378 L106.201764,180.455412 L106.336564,180.554946 L106.403799,180.604384 L106.507288,180.822239 L106.588036,181.05064 L106.716245,181.227957 L106.88631,181.326502 L107.534272,181.61291 L108.860187,182.585183 L110.173579,183.026825 L110.564465,183.286208 L111.308666,184.530387 L111.423361,184.801964 L111.406222,184.82899 L111.006437,185.476622 L111.00413,185.480247 L110.142268,186.00099 L107.163819,187.211551 L106.831269,187.448522 L106.827973,187.450499 L106.546838,187.819963 L106.683616,187.951467 L106.913006,188.09154 L106.908722,188.483745 L106.908722,188.484404 L106.638792,188.794542 L105.779567,189.32715 L105.549847,189.570712 L105.546222,189.574667 L105.512604,190.005763 L105.654325,190.414776 L105.910742,190.794457 L106.817756,191.799358 L107.300267,192.474346 L107.658854,193.219864 L107.886926,194.097216 L108.056992,196.108337 L107.972289,197.121807 L107.70203,197.973122 L107.064615,198.75127 L107.062967,198.753247 L106.310527,199.12304 L105.494807,199.370887 L104.664915,199.793084 L103.864685,200.551457 L103.391073,201.000679 L103.388766,201.002657 L102.074056,201.737958 L101.821925,201.939334 L101.818299,201.94263 L101.786,202.303524 L102.051645,202.586307 L102.858466,203.057283 L103.012711,203.219767 L103.291209,203.627792 L103.453035,203.756 L103.634965,203.766217 L103.983006,203.627792 L104.247002,203.665035 L104.751266,203.929032 L104.948686,204.22368 L105.081509,205.139923 L106.60122,208.447956 L106.45818,209.739924 L106.301628,210.395796 L106.29998,210.402388 L106.898175,210.715163 L107.150306,210.470612 L107.326304,209.993374 L107.697745,209.615012 L107.697745,209.433411 L107.016166,207.480957 L106.813142,206.270725 L106.891583,205.079939 L107.315758,204.072071 L107.992393,203.364455 L108.867109,202.870079 L110.908221,202.239915 L112.045615,202.084681 L113.189271,202.087976 L114.236359,202.303524 L116.256708,203.111334 L117.438595,203.424439 L118.177852,203.290957 L118.418448,203.398072 L118.617517,203.406312 L119.162978,203.290957 L119.100027,203.079365 L119.005437,202.859862 L118.891401,202.660793 L118.769125,202.501275 L118.769125,202.303524 L119.307665,202.064906 L119.434225,201.697749 L119.479049,201.339492 L119.772049,201.121637 L119.74766,201.411341 L119.789517,201.643697 L119.92135,201.812444 L120.166561,201.909672 L120.166561,202.087976 L119.642522,202.279135 L119.702836,202.618936 L120.117453,202.947202 L120.658959,203.092218 L121.033366,202.992355 L121.855678,202.56818 L122.316107,202.501275 L122.250849,202.312093 L122.190535,201.90308 L122.137142,201.71258 L122.635144,201.885282 L123.146658,201.85562 L123.652239,201.700386 L124.125192,201.498351 L123.99995,202.104785 L124.210884,202.478204 L124.648571,202.66343 L125.209523,202.716163 L125.239186,202.553349 L125.701592,201.605136 L125.854519,201.506591 L126.207832,201.476598 L126.884468,201.498351 L126.420414,201.611069 L126.18575,201.818377 L126.152133,202.115002 L126.293195,202.501275 L126.152133,202.513469 L126.1228,202.461395 L126.129721,202.380977 L126.096103,202.303524 L125.961963,202.464032 L125.893409,202.618936 L125.926038,202.765271 L126.096103,202.895127 L126.096103,203.092218 L125.929004,203.374013 L125.959656,203.77973 L126.293195,204.668618 L126.158724,204.732887 L126.029857,204.840001 L125.881215,204.882847 L125.881215,205.079939 L126.167623,205.184417 L126.536098,205.5697 L126.785922,205.654733 L127.183401,205.580906 L127.679424,205.291861 L128.067015,205.258903 L128.067015,205.473791 L127.868935,205.536412 L127.768741,205.652755 L127.724248,205.829412 L127.69063,206.066053 L127.949353,205.969485 L127.960559,206.182067 L127.69063,206.854747 L127.869594,206.854747 L127.869594,206.658315 L127.909803,206.667873 L128.036034,206.733131 L128.099314,206.783228 L128.822421,205.193975 L128.872518,204.668618 L129.05247,204.668618 L129.51982,205.044673 L130.468692,205.333718 L131.403722,205.393373 L131.828555,205.079939 L132.435649,205.598703 L132.831808,205.84721 L133.011431,205.762177 L133.141947,205.368984 L133.457358,205.024568 L133.846926,204.775403 L134.193649,204.668618 L133.713445,205.450061 L133.599079,205.879509 L133.90724,206.066053 L134.314276,206.117139 L135.517257,206.40157 L135.770048,206.55977 L138.029345,207.445691 L138.546462,207.839544 L138.725426,207.839544 L138.919881,207.573899 L139.353613,207.104572 L139.531918,206.854747 L139.207278,206.752906 L139.115654,206.509014 L139.186514,206.191625 L139.353613,205.869292 L139.531918,205.869292 L139.612996,206.407832 L139.897756,206.854747 L140.535171,207.642782 L141.520627,209.433411 L141.287281,209.336184 L141.225979,209.304214 L141.126774,209.219182 L140.929024,209.219182 L140.785325,209.385292 L140.594167,209.423194 L140.37005,209.360573 L140.122532,209.219182 L140.122532,209.433411 L140.568789,209.677303 L140.621193,210.079725 L140.625807,210.499945 L140.929024,210.795581 L140.914852,210.509832 L140.950447,210.273521 L141.126774,209.829242 L141.306068,210.11565 L141.717718,211.207561 L141.917446,211.482434 L142.426982,212.180163 L142.52388,212.497552 L142.552883,212.711782 L142.64253,212.868993 L142.79348,212.96622 L143.00738,213.000168 L143.10164,212.906236 L143.057806,212.692007 L142.917733,212.291562 L142.920699,211.92902 L142.970137,211.899687 L143.138883,211.943851 L143.490879,211.797846 L143.380798,212.148523 L143.428258,212.57039 L143.294117,212.783961 L143.693243,213.135956 L143.809916,213.315579 L143.885391,213.572655 L143.378821,213.383144 L143.214688,213.657028 L143.188321,214.136573 L143.097026,214.574919 L143.522519,214.584477 L143.755864,214.721584 L143.75949,214.93087 L143.490879,215.147736 L143.490879,215.364602 L143.706427,215.561693 L143.885391,215.561693 L144.071276,215.413051 L144.275618,215.374819 L144.486552,215.427223 L144.690894,215.561693 L144.690894,215.758784 L144.279573,216.266014 L144.149717,216.574834 L144.10028,217.048116 L144.241341,217.367153 L144.507975,217.629173 L144.664857,217.86878 L144.476335,218.12223 L144.476335,218.319321 L144.816136,218.437642 L145.479588,218.910924 L145.511557,218.40699 L145.830265,218.314707 L146.962715,218.641324 L146.639393,218.94619 L146.101183,219.228313 L145.856632,219.306754 L145.895193,219.732906 L146.53887,220.005802 L147.391833,220.082595 L148.059241,219.915166 L148.286653,220.048318 L148.517362,220.275731 L148.711816,220.564776 L148.830137,220.898644 L149.613228,220.824158 L152.000404,221.489588 L152.666822,221.486292 L153.025739,221.619114 L153.182951,221.983305 L153.387952,222.012967 L154.31573,222.509979 L154.562259,222.69158 L154.776818,222.69158 L154.911288,222.502069 L155.25834,222.220275 L155.368421,222.082509 L155.436645,221.826423 L155.429065,221.629331 L155.368421,221.292826 L155.492674,220.041397 L155.368421,219.718075 L154.947543,219.886163 L154.562259,220.093471 L154.382966,220.093471 L154.182249,219.846283 L153.971645,219.502527 L154.218833,219.626121 L154.38758,219.647873 L154.776818,219.502527 L154.447564,218.972556 L154.27651,218.798206 L153.971645,218.713833 L153.971645,218.497626 L154.374396,218.474555 L154.776818,218.497626 L154.776818,218.713833 L154.678932,218.830506 L154.628505,218.930369 L154.650917,219.070443 L154.776818,219.306754 L155.394788,218.85885 L156.035828,218.244506 L156.316634,217.492066 L155.782049,216.493097 L155.827531,216.320066 L155.913553,216.113416 L155.960354,215.856341 L155.870377,215.825031 L155.368421,215.561693 L154.858885,215.127631 L154.789013,214.896593 L155.17166,214.771681 L155.14727,214.5825 L155.062238,214.479669 L154.776818,214.36036 L155.300527,214.474396 L155.374024,214.895934 L155.516075,215.349771 L156.245773,215.561693 L156.601394,215.622007 L156.961629,215.893914 L157.232218,215.954227 L158.539677,215.954227 L158.539677,215.758784 L158.290511,215.646726 L158.121435,215.4849 L158.013331,215.261113 L157.948074,214.951304 L158.127367,214.951304 L158.461565,215.507641 L158.900242,215.120051 L159.524144,213.966507 L159.457238,215.750874 L159.660591,216.520123 L160.313167,216.153296 L160.492131,216.153296 L160.456536,216.520123 L160.274936,216.693154 L159.985561,216.74424 L159.623348,216.74424 L159.315188,216.804554 L159.122051,216.940342 L158.978353,217.075142 L158.817846,217.137433 L158.605923,217.340128 L158.585489,217.780452 L158.858055,218.19309 L159.524144,218.319321 L159.533702,218.448848 L159.488878,218.479499 L159.407801,218.477192 L159.309914,218.497626 L159.487889,218.618583 L159.719257,218.700979 L159.998415,218.736574 L160.313167,218.713833 L159.776275,219.580968 L159.82044,219.718075 L160.075867,219.795527 L160.440057,219.986027 L160.763709,220.23684 L160.903782,220.487324 L160.554752,220.398006 L160.269003,220.460957 L160.053785,220.641898 L159.918985,220.898644 L159.878776,221.167914 L159.988198,221.26613 L160.206712,221.332047 L160.492131,221.489588 L161.889237,222.871203 L161.889237,223.067965 L161.674678,223.067965 L161.674678,223.264397 L161.966689,223.467091 L162.348677,223.825678 L162.620913,224.2281 L162.579056,224.561968 L162.466998,224.808168 L162.436017,225.102156 L162.37801,225.346708 L162.027333,225.549731 L162.161803,225.765279 L162.381965,225.964677 L162.48084,226.024661 L163.521336,227.145247 L163.663387,227.518665 L163.356215,228.410848 L163.345998,228.952355 L164.081299,229.398282 L164.19929,229.869586 L164.176549,230.403183 L164.075037,230.787477 L163.959024,230.929858 L163.635372,231.175727 L163.483434,231.378421 L163.462671,231.61737 L163.494311,232.237976 L163.37599,232.365854 L163.220097,232.45682 L163.086615,232.660832 L163.09881,232.864185 L163.37599,232.956798 L163.65317,232.998655 L163.904972,233.1061 L164.117883,233.239581 L164.271799,233.368119 L164.733875,234.131765 L165.059504,234.328526 L165.454346,233.940936 L165.651107,233.940936 L165.797772,234.109023 L165.946414,234.164393 L166.093738,234.109023 L166.242051,233.940936 L166.440131,233.940936 L167.03437,234.102102 L169.350686,234.019047 L172.498541,233.435024 L172.707497,233.395145 L176.238988,232.956798 L176.548137,233.00261 L177.093928,233.171357 L177.313431,233.153889 L177.547765,232.983824 L177.576769,232.805519 L177.567211,232.604803 L177.690145,232.365854 L177.973258,232.174696 L178.233629,232.104494 L178.42281,231.992436 L178.496967,231.675047 L178.5731,231.539917 L178.758986,231.375785 L178.986728,231.239337 L179.185467,231.18133 L179.901323,231.081796 L179.992948,230.817799 L179.499231,230.000102 L179.612937,229.2414 L180.37922,228.687699 L182.455598,228.010404 L182.257848,227.832099 L182.01066,227.980412 L181.750289,228.091482 L181.447731,228.166297 L181.07629,228.207495 L181.07629,228.010404 L182.001102,227.745419 L182.257848,227.616551 L182.455598,227.616551 L182.726516,227.865717 L183.500708,228.046658 L183.852704,228.207495 L184.204699,228.007438 L186.020706,228.010404 L188.056875,227.249725 L188.296483,227.205231 L189.064413,227.164692 L189.419045,227.082955 L189.642833,226.838404 L190.087112,225.736276 L190.120729,225.179609 L189.766427,224.328294 L188.421065,221.877838 L185.783736,218.539483 L184.031009,216.958469 L181.273051,214.771681 L180.888427,213.960575 L180.473481,212.749354 L179.863092,211.714791 L179.094832,211.485071 L178.89049,211.42245 L178.552996,211.183831 L177.454493,210.704946 L177.027023,210.617276 L176.768299,210.358553 L176.630204,209.794635 L176.420259,209.24423 L175.951591,209.022091 L176.125281,208.764686 L176.190869,208.665481 L176.2291,208.331283 L176.131873,205.563438 L176.360275,205.034786 L178.184851,203.236906 L178.711196,202.895127 L178.82721,202.700014 L178.784364,202.54445 L178.798206,202.416242 L179.087581,202.303524 L178.943553,202.446564 L179.118232,202.648599 L179.499231,202.895127 L180.287596,203.092218 L180.515338,203.026631 L181.02026,202.783069 L181.273051,202.716163 L181.434877,202.732972 L181.80434,202.863817 L182.060757,202.895127 L183.441383,202.716163 L184.289402,202.371748 L186.301512,201.34114 L187.598424,200.673732 L188.7579,199.917337 L190.79341,198.586148 L191.406765,198.060792 L191.46609,197.950711 L191.614074,197.828435 L191.892901,197.284951 L192.048465,197.162676 L192.309166,197.106646 L192.514497,196.958663 L192.953502,196.553605 L193.072812,196.504167 L193.396463,196.434955 L193.543787,196.374311 L193.635411,196.275436 L193.69144,196.055274 L193.740878,195.980458 L195.415164,195.309426 L195.730576,195.280422 L195.937884,195.027632 L196.412485,194.768249 L197.306316,194.404389 L197.296099,194.255087 L197.266436,194.222129 L197.202167,194.228061 L197.092086,194.1895 L197.257538,194.017787 L197.293462,193.93572 L197.306316,193.795647 L196.550251,193.721161 L194.709855,193.203056 L194.709855,193.006294 L195.614892,192.738342 L195.90888,192.611782 L195.977764,192.497746 L195.945135,192.367561 L195.966228,192.262423 L196.330418,192.184971 L196.689665,192.012928 L196.80436,191.931192 L196.973766,191.731464 L197.125704,191.501744 L197.241388,191.259829 L197.306316,191.035712 L197.396622,190.881467 L197.457595,190.724256 L197.485939,190.543973 L197.424307,190.452019 L197.289178,190.392035 L197.15273,190.305354 L197.092086,190.140233 L196.967174,188.422112 L197.092086,187.864786 L197.333342,187.444896 L197.718955,187.036212 L198.19026,186.794298 L198.685954,186.879331 L198.615093,186.731677 L198.568952,186.585342 L198.488204,186.485478 L198.488204,186.288716 L198.679362,186.31739 L198.747586,186.343427 L198.780544,186.391217 L198.865577,186.485478 L199.14869,186.361225 L199.341167,186.420879 L199.548475,186.558316 L199.868501,186.664771 L199.868501,186.485478 L199.712607,186.141063 L200.125906,185.927492 L201.4449,185.696784 L202.098794,185.938369 L202.520662,185.637129 L202.65645,185.016523 L202.447824,184.300337 L202.627447,184.300337 L202.627447,184.121703 L202.538459,183.984266 L202.489022,183.877151 L202.447824,183.710052 L202.627447,183.710052 L202.785647,184.213986 L203.177852,184.755163 L203.643883,185.217898 L204.024223,185.482225 L203.91612,185.138798 L203.414823,184.300337 L203.723643,184.208054 L203.779013,184.017225 L203.750669,183.772673 L203.809994,183.511643 L204.621759,183.019245 L204.713713,182.919381 L204.806985,182.859726 L204.825112,182.722619 L204.883778,182.588149 L205.099326,182.525528 L205.318828,182.495866 L205.680712,182.361395 L206.180031,182.264498 L206.4582,182.155735 L206.726151,182.132005 L206.980261,182.328767 L207.630529,181.997535 L209.262958,182.152769 L209.972223,181.935243 L209.972223,182.132005 L210.151187,182.132005 L210.906263,181.98567 L213.224226,182.391387 L213.715965,182.230551 L213.786826,181.89009 L213.940082,181.967872 L214.080485,182.201877 L214.110148,182.328767 L214.809195,182.519596 L214.997717,182.615175 L215.445951,182.710754 L215.850021,182.370624 L216.145657,181.878225 L216.27815,181.523264 L216.19905,180.911886 L215.859579,180.665687 L215.490115,180.556924 L215.310492,180.358514 L215.358941,180.142307 L215.500003,180.016736 L215.714232,179.960048 L215.981854,179.946864 L216.261341,179.885562 L216.423497,179.750103 L216.515121,179.614314 L216.582686,179.551693 L216.750773,179.439635 L217.103428,178.916256 L217.281733,178.763988 L217.564845,178.758055 L217.654492,178.907357 L217.730296,179.087639 L217.961335,179.175638 L218.081962,179.09522 L218.452085,178.698401 L218.641925,178.549429 L218.876259,178.474613 L219.265498,178.444951 L219.448417,178.352338 L219.309992,178.603151 L219.048632,178.755089 L218.46362,178.961079 L217.996271,179.336805 L217.717443,179.351636 L217.460697,178.961079 L217.281733,178.961079 L217.106065,179.448533 L216.779447,179.848319 L216.306494,180.10045 L215.687206,180.143626 L215.687206,180.358514 L216.231679,180.410589 L216.462387,180.729626 L216.506552,181.229275 L216.49238,181.82747 L216.435691,182.099047 L216.321985,182.258565 L216.240907,182.42138 L216.27815,182.704492 L216.400426,182.862692 L217.13375,183.378821 L218.641925,183.710052 L222.436094,185.681952 L222.58968,186.153257 L222.704376,186.709265 L222.90707,187.166728 L223.471647,187.823918 L223.763988,187.935647 L224.195742,187.864786 L224.671002,187.635066 L224.853592,187.343055 L224.801518,186.967 L224.573116,186.485478 L224.868423,186.759032 L225.093858,187.07807 L225.363458,187.346021 L225.790928,187.471922 L225.790928,187.668025 L225.57538,187.668025 L225.57538,187.864786 L226.030536,188.262264 L226.605989,189.487657 L227.170566,189.836027 L227.968159,189.821855 L228.853092,190.970784 L229.33725,190.445428 L229.770983,190.521891 L229.787791,190.108263 L229.673426,189.512705 L229.714624,189.046344 L229.928853,189.046344 L230.067938,189.586862 L230.099907,190.180442 L229.945662,190.701844 L229.535001,191.035712 L229.795042,191.736078 L229.979609,192.073901 L230.233389,192.2176 L230.441356,192.167174 L230.65229,192.080493 L230.87377,192.062695 L231.1114,192.2176 L231.235653,192.05874 L231.334858,192.014247 L231.52338,192.038306 L231.459441,192.167174 L231.308162,192.611782 L233.09912,193.105169 L233.057263,194.111059 L233.217441,194.412628 L233.690723,194.779455 L233.34499,194.931723 L233.059241,194.893161 L232.744488,194.800878 L232.311744,194.779455 L232.649238,195.140349 L233.492314,196.266867 L233.690723,196.769153 L233.474516,197.740766 L233.494291,198.147472 L233.619863,198.478704 L233.933297,198.875852 L234.067437,199.150066 L234.093145,198.907492 L234.149174,198.701173 L234.266836,198.523527 L234.479747,198.362031 L234.672883,198.728858 L234.80999,199.24993 L234.832731,199.768036 L234.676179,200.119372 L234.995546,200.309542 L235.660975,201.121637 L235.834996,201.216227 L235.885751,201.243912 L236.129643,201.333559 L236.335633,201.464074 L236.449669,201.71258 L237.237704,200.030055 L237.115429,199.549192 L236.572604,199.110187 L236.293117,197.725605 L235.765453,196.293893 L235.875534,195.584958 L236.055817,195.584958 L236.055817,196.17722 L236.270705,196.17722 L236.270705,195.980458 L236.449669,195.980458 L236.379468,196.179198 L236.270705,196.374311 L236.491527,196.958663 L236.792107,198.666567 L237.059399,199.150066 L237.468743,199.025154 L237.994758,198.526494 L238.393555,197.948074 L238.42091,197.574655 L238.635799,197.359767 L238.903421,198.291171 L239.157201,198.610537 L239.619936,198.541654 L240.014448,197.75362 L240.151225,197.596078 L240.304152,197.494237 L240.367432,197.326149 L240.229666,196.965914 L240.68614,197.124774 L240.720087,197.396351 L240.40863,197.950711 L240.299868,198.087818 L240.183854,198.079248 L240.134417,198.10924 L240.229666,198.362031 L240.339747,198.478704 L240.504539,198.573954 L240.676252,198.705787 L240.803142,198.935178 L241.023963,198.866295 L241.124486,198.821801 L241.215122,198.756214 L241.215122,198.541654 L241.005177,198.231186 L241.146898,197.88809 L241.371674,197.479406 L241.412872,196.965914 L241.211826,196.6683 L240.937612,196.442535 L240.79688,196.179198 L241.000233,195.763922 L241.215122,195.763922 L241.69203,197.326149 L241.84199,198.204161 L241.806725,199.150066 L241.601394,199.077887 L241.524601,199.032405 L241.412872,198.935178 L240.577707,199.349464 L240.40863,199.545896 L240.355897,199.749909 L240.360841,200.011928 L240.466637,200.237363 L240.713166,200.33459 L241.234567,200.254831 L241.777062,200.034669 L242.205851,199.69322 L242.379542,199.24993 L242.478746,198.645803 L242.746698,198.195262 L243.130993,197.948074 L243.580216,197.950711 L243.866624,198.183067 L244.21796,198.630972 L244.762762,199.545896 L244.941726,199.545896 L245.072901,199.269046 L245.03368,198.967806 L244.634554,198.027833 L244.584458,197.778009 L244.602914,196.828478 L244.594675,196.73916 L244.449658,196.713123 L244.063715,196.463958 L243.918698,196.1848 L243.896287,195.458727 L243.776977,195.191764 L244.104254,195.355238 L244.196867,195.579025 L244.22653,195.853239 L244.367262,196.17722 L244.687947,196.451763 L244.948648,196.513066 L245.116076,196.604031 L245.155956,196.965914 L245.060047,197.20684 L244.899869,197.398987 L244.813518,197.671553 L244.941726,198.147472 L245.178368,198.52155 L245.499712,198.86234 L245.848741,199.145452 L246.159539,199.348805 L245.721851,199.778912 L245.906418,200.555412 L246.535594,201.810467 L246.65721,202.466339 L246.989431,203.02004 L247.489409,203.438611 L248.112652,203.683821 L250.676485,204.14392 L251.103955,204.38155 L251.393,204.598417 L252.878105,206.461554 L253.376106,206.371248 L254.439673,207.65234 L255.24188,207.642782 L254.977884,208.046852 L254.508556,208.176379 L254.062629,208.063661 L253.862902,207.740339 L253.76106,207.2486 L253.510247,206.852111 L253.188903,206.675783 L252.878105,206.854747 L252.585105,206.705446 L252.404823,206.493524 L252.31221,206.189647 L252.286502,205.762177 L252.129291,205.557505 L251.439801,205.184417 L250.948721,204.630057 L250.180132,204.351888 L248.738862,204.077674 L248.931998,204.430329 L249.253342,204.749696 L249.658071,204.984689 L250.100373,205.079939 L250.100373,205.258903 L249.707179,205.258903 L249.456036,205.214409 L249.19995,205.101361 L248.999563,204.945468 L248.776105,204.534148 L248.465307,204.522612 L248.157476,204.610611 L248.023006,204.668618 L247.584659,204.56381 L247.220469,204.288278 L246.940323,203.907609 L246.433752,202.532915 L246.185246,202.094568 L245.855003,201.909672 L245.44566,201.825298 L244.928873,201.619967 L244.45559,201.360585 L244.1705,201.121637 L244.09964,200.883018 L243.954952,199.830986 L243.832347,199.705085 L243.562088,199.742328 L243.29183,199.874821 L243.168236,200.030055 L243.161644,200.598917 L243.111547,200.853355 L242.989272,201.121637 L242.460619,201.660506 L242.379542,201.71258 L242.336366,202.01382 L242.379542,202.80581 L242.292861,202.885569 L241.939877,203.371046 L241.895383,203.48673 L241.475164,203.55067 L241.254343,203.555613 L241.000233,203.48673 L240.803142,203.364455 L240.472899,203.056623 L240.229666,202.895127 L240.11629,203.18615 L240.047407,203.197685 L239.817687,203.290957 L239.91788,203.418506 L239.979183,203.516393 L240.062238,203.600766 L240.229666,203.683821 L240.229666,203.899369 L239.863169,204.119531 L239.615981,204.161388 L238.832231,204.077674 L238.832231,204.293222 L239.171373,204.50053 L240.014448,205.473791 L240.347987,205.752619 L240.595175,206.011342 L240.748431,206.371248 L240.803142,206.962192 L240.378968,208.012246 L239.391535,209.076142 L238.273257,209.645334 L237.453252,209.219182 L237.119054,209.49768 L236.651045,209.567882 L236.23544,209.387599 L235.901901,208.455536 L235.563418,208.65065 L235.223288,209.178643 L235.070361,209.721797 L235.142869,210.083021 L235.660975,211.01047 L235.718982,211.298197 L235.651417,211.630417 L235.660975,211.97681 L235.893661,212.898656 L236.270705,213.787543 L236.808257,214.458906 L237.524772,215.151032 L238.152299,215.927861 L238.42091,216.851025 L238.557358,217.17995 L239.424163,218.497626 L239.630813,218.983762 L239.646962,219.359488 L239.503593,219.756636 L239.227402,220.3077 L239.51381,220.39471 L239.760998,220.558843 L239.887229,220.796473 L239.817687,221.113862 L240.374354,221.191644 L240.79688,221.507056 L241.412872,222.296739 L241.757287,222.599297 L241.877586,222.763429 L241.98503,223.067965 L241.982393,223.384036 L241.877586,223.636497 L241.827159,223.906097 L241.98503,224.284788 L242.045673,223.775581 L242.324831,223.544543 L242.630025,223.656272 L242.773724,224.177015 L242.80075,225.189166 L242.865019,225.468983 L242.989272,225.037228 L243.168236,225.037228 L243.356099,225.60609 L243.49716,225.898431 L243.678102,226.024661 L243.966488,226.149574 L244.104254,226.426424 L244.175444,226.703934 L244.269705,226.829835 L244.608188,227.00814 L245.068946,227.417153 L245.765686,228.207495 L245.94465,228.207495 L246.216227,227.973161 L246.402772,228.07731 L246.750482,228.602666 L246.614694,228.587835 L246.558006,228.738455 L246.621615,228.923351 L246.849028,229.016624 L246.940323,228.950377 L246.99833,228.837 L247.078748,228.782949 L247.244199,228.907202 L247.376033,229.197565 L247.325936,229.496168 L247.209922,229.79543 L247.143676,230.098647 L247.242222,230.423946 L247.471282,230.668498 L247.933688,231.002366 L249.168969,232.542182 L250.000509,233.290996 L250.643197,233.475563 L252.826031,226.506843 L252.827679,226.508161 L253.514531,226.658781 L254.151287,226.558917 L254.702352,226.231311 L254.705647,226.228674 L255.133777,225.697714 L255.3925,224.952855 L255.30549,224.336204 L254.653903,223.073238 L254.39452,222.182373 L254.259391,220.952696 L254.44231,219.893743 L254.446265,219.892095 L255.133777,219.514722 L255.43238,219.673581 L256.87365,220.896007 L257.154126,221.214056 L257.141931,221.29019 L257.023611,221.548254 L257.020974,221.656357 L257.106007,221.731173 L257.351217,221.790828 L257.42768,221.848175 L258.226592,222.925255 L258.446094,223.306913 L258.795783,224.748842 L259.102625,225.077767 L259.758168,225.010202 L259.761793,225.006907 L260.481604,224.431453 L261.797303,223.115755 L265.845251,220.612895 L266.692282,219.84892 L266.691623,219.84826 L266.51134,219.315323 L265.920397,218.757008 L265.534124,217.910637 L265.627397,217.557982 L266.477723,216.484857 L267.215661,214.834302 L267.218627,214.831665 L267.829017,214.22589 L268.71296,213.761177 L269.682266,213.44181 L270.550061,213.262846 L271.620549,213.275041 L271.786,213.153424 L271.786,213.152765 L271.561224,212.700246 Z M143.117461,228.899621 L142.23846,228.98004 L141.896682,228.799757 L141.717718,228.799757 L141.504807,228.965208 L141.315296,228.864026 L141.179178,228.611235 L141.126774,228.316258 L141.019659,228.031827 L140.501554,227.565136 L140.319623,227.205231 L140.383233,227.062191 L140.597792,226.221093 L140.624818,226.024661 L141.54963,225.678269 L141.717718,225.539185 L141.681134,225.074471 L141.571053,224.908361 L141.386157,224.83816 L141.126774,224.660514 L141.044708,224.64008 L140.803782,224.676004 L140.714465,224.660514 L140.696667,224.591631 L140.728307,224.359274 L140.714465,224.284788 L140.482108,223.931145 L140.427727,223.873468 L140.399712,223.535974 L139.747466,221.668552 L139.641999,221.695578 L139.558944,221.698874 L139.516098,221.740731 L139.531918,221.885418 L139.353613,221.885418 L139.353613,221.668552 L139.138065,221.668552 L139.212881,221.897283 L139.272536,222.256859 L139.353613,222.475703 L139.138065,222.475703 L139.125212,222.36694 L138.842099,222.520856 L138.028357,223.114436 L137.494431,223.225836 L137.275258,223.371841 L137.11475,223.636497 L137.075859,223.867535 L137.063994,224.124281 L136.98786,224.463752 L136.935786,224.488142 L136.56863,225.139399 L136.57621,225.252776 L136.303974,225.32891 L135.70512,225.331876 L135.591084,225.351322 L135.812564,226.113979 L135.877492,226.238891 L136.115452,226.456746 L136.772972,227.832099 L137.978919,228.850513 L138.536904,229.176801 L139.231338,229.942425 L139.531918,230.197193 L140.085289,230.32606 L141.320899,230.4134 L142.327118,230.986546 L142.940144,230.984569 L143.560751,230.811867 L144.10028,230.590386 L143.294117,229.104952 L143.117461,228.899621 Z M158.906504,223.601561 L158.539677,223.479286 L157.663643,223.683298 L157.158391,223.867535 L156.765527,224.070229 L156.521965,224.34708 L156.334431,224.666447 L156.037476,224.927806 L154.997969,225.087325 L154.642678,225.227069 L154.349348,225.448549 L154.07019,225.736276 L153.798613,226.113979 L153.981862,226.122548 L154.776818,225.845038 L154.841087,225.8836 L155.051362,225.961711 L155.322609,226.024661 L155.566171,226.024661 L155.73327,225.92282 L156.138659,225.449208 L156.944821,225.037228 L157.092145,224.873096 L157.192009,224.683255 L157.340321,224.52868 L157.63464,224.463752 L157.900284,224.475947 L158.088147,224.52077 L158.249643,224.606462 L158.431573,224.75082 L158.682387,224.857605 L158.906504,224.815748 L159.219938,224.660514 L159.544907,224.546148 L159.771661,224.272594 L160.116076,223.65825 L159.293765,223.653965 L158.906504,223.601561 Z M138.27093,231.894879 L138.038574,231.864557 L137.758757,231.970024 L137.7726,231.853022 L137.741948,231.795674 L137.670099,231.778206 L137.561007,231.774251 L137.427525,231.9341 L137.43939,232.022098 L137.561007,232.185572 L137.513217,232.434078 L137.955519,233.744174 L138.170407,233.744174 L138.067577,233.515113 L137.955519,233.368119 L138.20007,233.00261 L138.585683,232.25841 L138.941304,231.970024 L138.543496,231.959807 L138.27093,231.894879 Z M223.370135,200.76272 L223.38991,200.33459 L223.604799,200.531352 L223.606117,200.027418 L223.386614,199.785504 L223.123277,199.595993 L222.996057,199.24993 L222.969691,198.952975 L222.888613,198.620755 L222.757109,198.309298 L222.573201,198.079248 L222.357983,197.965542 L222.190554,197.992568 L222.078826,198.13297 L222.029058,198.362031 L221.813511,198.362031 L221.768358,198.222288 L221.689257,198.080237 L221.633887,197.950711 L220.35675,198.3472 L219.830075,198.708424 L220.04002,199.150066 L219.82579,199.348805 L220.033428,200.04225 L220.129337,200.227146 L220.17449,200.424567 L220.04826,200.60419 L219.888082,200.763709 L219.82579,200.907407 L219.994208,201.220182 L220.225905,201.441003 L220.408824,201.746198 L220.434532,202.303524 L220.240737,202.283749 L220.146146,202.200035 L220.04002,201.909672 L219.987287,202.198717 L219.803049,202.685512 L219.82579,202.895127 L220.00838,203.022017 L220.650409,203.200981 L220.846512,203.290957 L221.028771,203.754682 L221.167856,204.373311 L221.440751,204.899656 L222.029058,205.079939 L222.029058,204.882847 L221.704089,204.638296 L221.515567,204.171605 L221.221908,203.092218 L221.446684,203.042451 L221.625648,202.930722 L221.75089,202.753736 L221.813511,202.501275 L221.877779,202.611356 L221.9404,202.687819 L221.993793,202.770215 L222.029058,202.895127 L222.208022,202.895127 L222.487509,202.834813 L222.894216,202.863817 L223.20765,202.812072 L223.211605,202.501275 L223.68291,201.90308 L223.601832,201.303897 L223.370135,200.76272 Z M216.116654,200.515862 L216.524679,200.775574 L216.638715,200.505645 L216.680572,200.221214 L216.655853,199.937442 L216.576753,199.654 L216.255738,199.840874 L216.058647,199.670809 L215.906709,199.409449 L215.717528,199.316836 L215.338177,199.678059 L215.597559,200.11311 L216.116654,200.515862 Z M216.081059,202.501275 L216.056011,202.404047 L216.054033,202.329232 L216.016131,202.289352 L215.884297,202.303524 L215.568886,202.75044 L215.371795,203.141656 L215.332574,203.555613 L215.490115,204.077674 L214.989477,204.192369 L215.042211,204.530193 L215.31972,204.989303 L215.490115,205.473791 L215.969,205.083894 L216.129508,204.563151 L216.368786,204.149194 L217.084642,204.077674 L217.084642,203.899369 L216.819986,203.704915 L216.081059,202.501275 Z M123.121939,204.471527 L122.316107,203.899369 L122.316107,203.683821 L122.768625,203.814996 L123.054045,203.681185 L123.072831,203.398072 L122.728416,203.092218 L122.105502,202.928086 L120.608862,203.982424 L119.952002,203.899369 L119.772049,203.899369 L119.949035,204.28696 L120.30169,204.737501 L120.710374,205.104987 L121.053471,205.258903 L121.538948,205.146185 L122.543519,204.617862 L123.121939,204.471527 Z M125.31466,205.034786 L124.716466,204.850219 L124.304815,204.668618 L123.362865,204.937229 L123.098868,205.198918 L123.319689,205.654733 L123.510518,205.742402 L124.087949,205.816888 L124.304815,205.869292 L125.110977,206.461554 L124.9185,205.967508 L124.897078,205.825457 L124.896418,205.563438 L125.078349,205.438526 L125.482418,205.478405 L126.096103,205.654733 L125.855178,205.283292 L125.31466,205.034786 Z M128.126999,206.807617 L128.099314,206.783228 L128.067015,206.854747 L128.126999,206.807617 Z M123.020757,207.82669 L122.951874,207.642782 L122.616357,207.66058 L122.304571,207.844158 L122.035631,208.169128 L121.841506,208.545842 L121.75878,208.897178 L122.179329,208.85664 L122.494082,208.752491 L123.023723,208.520135 L122.989446,208.140784 L123.020757,207.82669 Z" id="Fill-3"></path>
        </g>
    </g>
</svg>