
<svg width="79px" height="116px" viewBox="0 0 79 116" version="1.1" xmlns="http://www.w3.org/2000/svg" xmlns:xlink="http://www.w3.org/1999/xlink">
    <!-- Generator: Sketch 51.2 (57519) - http://www.bohemiancoding.com/sketch -->
    <desc>Created with Sketch.</desc>
    <defs></defs>
    <g id="Page-1" stroke="none" stroke-width="1" fill="none" fill-rule="evenodd">
        <g id="PE-EPS-01-0001" transform="translate(-227.000000, -76.000000)" fill="#7F807C">
            <polyline id="Fill-3" points="305.846572 153.698618 305.196254 152.554771 304.551875 151.412408 303.903042 150.269749 301.957135 146.848601 301.310975 145.708911 300.662735 144.569815 300.485754 144.260691 300.36935 144.256533 299.599658 144.339976 299.391497 144.298403 299.157501 144.147553 299.052084 144.101823 298.885496 144.090836 298.632198 144.106277 298.512825 144.09826 298.391967 144.064704 298.131543 144.05253 296.626605 144.818064 296.373308 144.905664 296.063887 144.966538 295.743776 144.980495 295.430792 144.931201 295.143643 144.788369 294.990417 144.64524 294.709206 144.316814 294.5444 144.169527 294.407506 144.199222 293.876859 144.625938 293.876859 144.117858 293.879828 143.316987 293.883985 142.521164 293.883985 141.722074 293.887846 140.922985 293.887846 140.121817 293.892003 139.326291 293.892003 138.526904 293.895566 137.731675 293.895566 137.353065 293.952877 137.10541 293.989402 137.037705 294.038102 136.984255 294.098382 136.938524 294.163414 136.900812 294.196969 136.900812 294.262595 136.942385 294.295556 136.934961 294.324657 136.900812 294.339802 136.825387 294.363558 136.783517 294.434826 136.682554 294.482931 136.57298 294.496294 136.456576 294.454721 136.3277 294.381375 136.236537 294.196969 136.094002 294.129859 135.999869 294.087989 135.883465 294.042259 135.679164 293.981385 135.566027 294.016721 135.558009 294.179153 135.550585 294.213302 135.562166 294.295556 135.577904 294.356134 135.562166 294.269128 135.415473 294.280709 135.335891 294.332081 135.275017 294.413445 135.253042 294.40127 135.233147 294.381375 135.185041 294.371575 135.165442 294.488276 135.113179 294.517377 135.034785 294.532225 134.931744 294.59785 134.818606 294.60765 134.804056 294.600226 134.721207 294.339802 134.747338 294.215677 134.772876 294.09571 134.834344 293.967428 134.943325 293.747686 135.210579 293.630391 135.328467 293.219117 135.558009 293.092319 135.653033 292.858621 135.889701 292.733308 135.988288 292.424184 136.157846 292.322628 136.27128 292.14624 136.531704 292.073191 136.591688 291.914323 136.690275 291.843055 136.746398 291.787229 136.821823 291.71418 136.980097 291.666074 137.051365 291.55353 137.138965 291.168387 137.244085 290.752659 137.426115 290.648727 137.503915 290.568254 137.640215 290.511833 137.787501 290.428985 137.908063 290.127285 138.009619 289.907542 138.180068 289.788169 138.243318 289.705023 138.247475 289.651869 138.21778 289.605842 138.180068 289.538732 138.156312 289.452914 138.16433 289.419358 138.202042 289.392039 138.247475 289.330571 138.296769 289.219215 138.326761 288.987001 138.326761 287.878787 138.323494 286.77384 138.323494 285.665033 138.318743 284.224831 138.318743 284.292832 138.188382 284.299662 138.078511 284.286893 137.967749 284.295208 137.840952 284.328763 137.772951 284.427944 137.658626 284.443088 137.57934 284.427944 137.515496 284.375681 137.388402 284.359943 137.315353 284.227207 137.067103 283.790395 136.795692 283.717939 136.557242 283.793364 136.319683 283.812666 136.198825 283.774953 136.089844 283.608959 135.889701 283.549272 135.784284 283.53294 135.653033 283.541255 135.471003 283.53294 135.411316 283.495821 135.357865 283.431384 135.354005 283.358928 135.365586 283.299241 135.357865 283.186104 135.283034 283.016249 135.131887 282.896282 135.068043 282.768 135.041912 282.390578 135.068043 282.111446 135.038348 281.994448 135.003011 281.738478 134.875917 281.48518 134.796632 281.364916 134.772876 281.341754 134.776736 281.29246 134.810588 281.263063 134.818606 281.228913 134.808213 281.172493 134.762186 281.141907 134.747338 280.387657 134.596488 277.894474 134.584907 278.02721 134.373777 278.355042 134.045351 278.497577 133.852928 278.599134 133.654269 278.666541 133.555088 278.743451 133.505795 278.830457 133.495105 278.932014 133.468082 279.014862 133.41968 279.051387 133.344552 279.056732 133.17054 279.338537 132.948422 279.401787 132.86884 279.451674 132.747981 279.483151 132.563279 279.413962 132.039461 279.376249 131.937014 279.207582 131.680747 279.124139 131.594038 278.894301 131.43903 278.803435 131.363605 278.323565 130.665776 278.214585 130.401491 278.143911 130.284493 278.037603 130.179373 277.917042 130.115826 277.559219 130.040698 277.426483 129.971509 277.313345 129.862232 277.049951 129.519256 277.012239 129.417699 277.008378 129.300701 277.065096 129.021272 277.059751 128.892694 277.015802 128.779556 276.928796 128.689877 276.873267 128.670279 276.740234 128.652462 276.680547 128.628409 276.619672 128.57288 276.516928 128.440143 276.449224 128.38402 275.958961 128.112312 275.869282 128.025306 275.827413 127.908902 275.796827 127.652635 275.740407 127.490204 275.560159 127.252348 275.479389 127.109218 275.464838 126.99222 275.499284 126.758225 275.495127 126.637367 275.427126 126.490377 275.223716 126.215105 275.183034 126.075539 275.080289 125.875396 274.84273 125.750677 274.578742 125.645557 274.39018 125.50124 274.352467 125.419579 274.283575 125.116691 274.290999 125.003554 274.38632 125.007117 274.593293 125.082245 274.798485 124.955448 274.865892 124.717592 274.805018 124.468155 274.620612 124.321165 274.38632 124.2496 274.189442 124.166158 274.021369 124.049457 273.210105 123.20048 272.956511 123.057944 272.90306 122.94837 273.194367 122.823652 273.273652 122.688243 273.280185 122.55224 273.329478 122.458404 273.363628 122.355957 273.327103 122.197089 273.145073 121.895389 273.123099 121.782549 273.259398 121.782549 273.511508 121.881136 273.624646 121.887669 273.763915 121.836 273.989596 121.699106 274.09917 121.665254 274.257444 121.653376 274.503317 121.665254 274.623879 121.647437 274.725435 121.585969 274.80086 121.46125 274.782746 121.34544 274.729593 121.229036 274.665748 120.963267 274.23933 120.35274 274.182613 120.205453 274.221513 120.05104 274.306737 119.878215 274.462042 119.311637 274.473326 118.968364 274.50985 118.867104 274.578742 118.791679 274.838573 118.632812 274.900041 118.553526 274.975466 118.394956 275.053267 118.327548 275.227279 118.222131 275.540263 117.976851 276.042701 117.686732 276.460805 117.327721 276.706084 117.177168 276.924639 116.980588 277.059751 116.935155 277.498344 116.927137 277.777773 116.856166 277.991873 116.742732 278.162322 116.566344 278.309015 116.31275 278.411759 116.056483 278.437891 115.921371 278.440266 115.785072 278.396615 115.642239 278.260909 115.358653 278.225572 115.21582 278.158462 114.717837 278.124016 114.612717 277.826473 114.272117 277.765598 114.12483 277.769756 113.839165 277.868343 113.60517 278.003454 113.385724 278.357417 112.601779 278.573002 112.405496 279.217975 111.548798 279.308545 111.379834 279.373874 111.197508 279.474836 110.624693 279.474836 110.451869 279.422276 110.251725 279.391987 110.047128 279.451674 109.843421 279.633704 109.462435 279.659835 109.365036 279.701111 109.101048 279.750405 109.010182 279.814843 108.927036 279.870372 108.841218 279.881953 108.742334 279.847804 108.365506 279.814843 108.266622 279.758422 108.176943 279.711504 108.067963 279.739418 107.9768 279.885517 107.939087 279.968959 107.935227 280.018253 107.923646 280.104071 107.879401 280.112385 107.852081 280.115652 107.7627 280.134954 107.731223 280.165539 107.727066 280.244528 107.754682 280.278083 107.758542 280.53049 107.708952 280.637094 107.659658 280.720834 107.558102 280.795962 107.497524 280.912663 107.512669 281.040351 107.550381 281.375606 107.550381 281.432917 107.532267 281.492604 107.479113 281.511906 107.421802 281.515766 107.362116 281.541898 107.298568 281.624746 107.219283 281.794304 107.139404 281.945154 106.973409 282.043741 106.897984 282.156879 106.848691 282.273877 106.83414 282.363258 106.83028 282.402159 106.792568 282.420569 106.739117 282.454125 106.68329 282.458282 106.660128 282.458282 106.625979 282.462439 106.588564 282.480256 106.554711 282.507575 106.54313 282.594581 106.53927 282.628137 106.532737 282.761764 106.463548 282.862429 106.39228 282.929837 106.291021 282.974379 105.955469 283.039411 105.882716 283.299241 105.811151 283.330718 105.777299 283.348535 105.731866 283.378824 105.690293 283.454249 105.672179 283.684384 105.706031 283.767233 105.701874 283.88037 105.664459 283.991132 105.600615 284.306789 105.366619 284.649468 105.178056 284.766763 105.079469 284.838624 104.989791 284.95295 104.763516 284.996898 104.714222 285.050349 104.718082 285.105878 104.743917 285.166753 104.766188 285.220798 104.755795 285.276327 104.718082 285.379071 104.630779 285.564071 104.57139 285.853596 104.291664 286.016027 104.178823 286.12085 104.147347 286.634868 104.09152 286.676441 104.076079 286.698415 104.049947 286.706136 104.008671 286.724547 103.966505 286.77384 103.940967 286.841248 103.948391 286.980517 104.012235 287.052972 104.034209 287.16997 104.020252 287.241535 103.966505 287.305676 103.948391 287.404263 104.024113 287.468107 104.0838 287.515619 104.109634 287.573227 104.103398 287.652512 104.076079 287.777231 103.952548 287.841075 103.932949 287.814943 104.065686 288.100905 103.944827 288.187911 103.93681 288.342919 103.966505 288.392212 103.970662 288.425767 103.932949 288.46348 103.797838 288.505053 103.744387 288.592059 103.706971 288.686191 103.695093 288.875645 103.690936 289.161607 103.64966 289.244752 103.661241 289.305033 103.706971 289.342152 103.774379 289.395306 103.808231 289.479045 103.774379 289.501019 103.755968 289.556549 103.68084 289.596043 103.661241 289.637319 103.668962 289.670874 103.687373 289.692848 103.690936 289.754317 103.611948 289.754317 103.548104 289.742736 103.484557 289.756692 103.412992 289.859437 103.325986 290.006129 103.292431 290.149556 103.322126 290.320004 103.510688 290.401665 103.417149 290.492235 103.272832 290.593791 103.212848 290.635364 103.254421 290.704553 103.393393 290.752659 103.439123 290.851246 103.454862 290.908557 103.419525 290.992 103.280256 291.142256 103.220569 291.46593 103.355681 291.587085 103.258282 291.617374 103.118122 291.71418 103.23512 291.843055 103.35182 291.971634 103.224429 292.029242 103.103571 292.10734 103.004687 292.291745 102.823845 292.352026 102.722883 292.386472 102.612418 292.435765 102.522739 292.530789 102.473446 292.628188 102.443454 292.642739 102.381985 292.590476 102.235589 292.61245 102.152147 292.692032 102.080285 292.985418 101.93775 293.05045 101.930029 293.439156 102.030992 293.54873 102.035446 293.616434 101.983183 293.687405 101.794323 293.744716 101.725728 293.842115 101.68564 293.939515 101.703754 293.947829 101.794323 293.929122 101.907758 293.933279 102.001297 294.223101 102.171745 294.280709 102.107901 294.306841 101.993279 294.347819 101.888159 294.447 101.838866 294.5444 101.877766 294.571125 101.967742 294.589833 102.058608 294.656943 102.096024 294.748701 102.066329 295.004967 101.862325 295.101773 101.820752 295.188779 101.798481 295.279942 101.808874 295.385359 101.850447 295.539772 101.98734 295.615197 102.009314 295.728929 101.832036 295.80762 101.854901 295.878888 101.93775 295.928776 102.028913 295.939466 102.152147 295.883045 102.38644 295.894626 102.495123 295.954313 102.578565 296.261358 102.820282 296.321639 102.839881 296.373308 102.83602 296.422602 102.846413 296.464174 102.907288 296.513468 103.004687 296.584736 103.09199 296.70203 102.98687 296.804775 102.752875 296.882872 102.63944 296.997198 102.578565 297.134685 102.568172 297.259404 102.612418 297.326514 102.725258 297.358585 102.879969 297.39214 102.925699 297.467565 103.000827 297.54299 103.054278 297.629996 103.076549 297.717002 103.066156 297.927539 102.915306 298.034143 102.767128 298.094424 102.605885 298.078389 102.431576 297.904377 102.0886 297.795396 101.930029 297.670084 101.783039 297.483303 101.632189 296.856741 101.315048 296.690449 101.148756 296.626605 100.94594 296.588893 100.723823 296.513468 100.503783 296.365587 100.293247 296.162771 100.081819 295.928776 99.9125581 295.691216 99.8291155 295.513641 99.8475263 295.381499 99.930969 295.135625 100.149226 294.978242 100.221979 294.811951 100.218119 294.480556 100.134676 294.413445 100.089243 293.570704 99.65154 293.300481 99.6212513 293.511017 99.2975769 293.997123 98.5424358 294.482931 97.7849192 294.970224 97.0294811 295.457815 96.2716675 295.94392 95.5177142 296.430025 94.7599006 296.920585 94.0050564 297.407878 93.2508062 297.547147 93.0286884 297.547147 93.0248281 297.513295 93.0129501 297.441433 92.9559359 297.387982 92.8802139 297.350567 92.7911293 297.271579 92.5188271 297.204171 92.4733939 297.074998 92.5568366 297.041443 92.612663 297.011154 92.6815551 296.981459 92.7296608 296.924148 92.7451022 296.866837 92.7154073 296.856741 92.6583931 296.860898 92.5981125 296.840706 92.5333776 296.715987 92.4398387 296.612055 92.4695336 296.509311 92.5152637 296.392313 92.4733939 296.323718 92.3644137 296.237899 92.1001291 296.158614 91.9875855 296.022314 91.9186934 295.902347 91.9599693 295.777629 92.031534 295.627372 92.0731068 295.595896 92.0549929 295.555511 92.0095597 295.525816 91.9522486 295.520471 91.9002825 295.551353 91.874151 295.65677 91.8328751 295.686465 91.8129795 295.717645 91.6820251 295.637172 91.6208536 295.506217 91.6063031 295.374966 91.6063031 295.306074 91.624417 295.159381 91.6844007 295.094349 91.6921213 295.024269 91.6547058 294.984775 91.6027397 294.966661 91.5415682 294.928949 91.4738639 294.849663 91.4064565 294.744543 91.3533026 294.623388 91.3191535 294.521832 91.3037122 294.423245 91.2553095 294.347819 91.1683035 294.264971 91.1151496 294.159257 91.182854 294.145597 91.2437285 294.147676 91.3111359 294.139658 91.3726043 294.09571 91.3945785 293.837958 91.3945785 293.796979 91.3648836 293.786586 91.2894586 293.786586 91.2024526 293.775005 91.1386086 293.737293 91.0735768 293.540415 90.9123335 293.519035 90.9007525 293.519035 90.7199106 293.502703 90.6706171 293.473305 90.6409222 293.310874 90.6213236 293.197142 90.5916287 292.967601 90.5117494 292.751719 90.3730743 292.432202 90.0286135 292.243639 89.9157729 292.115061 89.9724902 291.95649 89.9427953 291.696363 89.8335181 291.515818 89.8296577 291.451974 89.9157729 291.46593 90.0559328 291.522351 90.2106432 291.46593 90.2441984 291.390505 90.2519191 291.315674 90.2367747 291.156806 90.1429389 291.077818 90.1390785 290.903509 90.1690704 290.760083 90.2367747 290.643679 90.5277846 290.466697 90.6171663 290.349402 90.7083296 290.284667 90.7228801 290.21726 90.700312 290.141835 90.6447825 290.074131 90.6290442 289.983561 90.6667567 289.855279 90.7344611 289.738875 90.7602956 289.689582 90.6744774 289.244752 90.8891715 289.036294 90.9346047 288.96562 90.8057288 288.99294 90.7576231 289.074007 90.6810103 289.093902 90.6290442 289.07074 90.5654972 288.924048 90.3799041 288.814176 90.1871842 288.751223 90.1649131 288.663623 90.2560764 288.602749 90.4862118 288.553455 90.5574795 288.455759 90.5117494 288.415374 90.4173197 288.407653 90.1568955 288.376474 90.0440549 288.305206 89.990901 287.947383 89.9157729 287.819101 89.8480686 287.705963 89.7580931 287.581245 89.6856375 287.433958 89.6592091 287.226391 89.7649229 287.105235 89.7842246 287.052972 89.6814802 287.063366 89.4629258 287.014072 89.4293706 286.87896 89.4902451 286.517574 89.7203805 286.456699 89.7230531 286.42641 89.787788 286.200432 90.1272006 285.909125 90.3534756 285.859832 90.4030661 285.8337 90.5378809 285.758275 90.6136029 285.649295 90.6409222 285.256728 90.5874714 285.056585 90.5874714 284.883761 90.6548788 284.710936 90.8057288 284.435368 91.1190099 284.344501 91.1451414 283.941839 91.0551659 283.88037 91.0596202 283.72269 91.0928784 283.687947 91.1190099 283.691808 91.2437285 283.676366 91.2894586 283.624103 91.3037122 283.476223 91.3191535 283.231537 91.3829975 283.091674 91.3945785 282.974379 91.3726043 282.864805 91.3111359 282.781956 91.2360078 282.753449 91.1644431 282.696138 91.1151496 282.059183 91.01389 281.942185 90.9800378 281.658598 90.7537628 281.550212 90.6925913 281.437075 90.6744774 281.359868 90.7760339 281.195061 91.1109923 281.115776 91.182854 281.014219 91.2217543 280.974725 91.2063129 280.957205 91.0435849 280.938794 90.9800378 280.912663 90.926587 280.882077 90.8811539 280.806652 90.9191633 280.754389 90.9642996 280.722912 91.0216107 280.707471 91.0970357 280.546228 90.9800378 280.439326 90.9458887 280.286398 91.0216107 280.108228 91.0854547 280.036367 91.1567224 279.951142 91.1867143 279.685373 91.2401651 279.628656 91.2401651 279.58055 91.2024526 279.519675 91.0970357 279.413962 90.8098861 279.323986 90.7344611 279.304981 90.6967486 278.878563 90.4627528 278.864309 90.5301602 278.788884 90.6706171 278.708114 90.7457452 278.666541 90.6136029 278.614872 90.5574795 278.342867 90.4900721 278.241904 90.42118 278.225572 90.3754499 278.196174 90.1913415 278.17806 90.1568955 278.089273 90.0936453 278.071456 90.0636535 278.061062 90.025941 277.999891 89.9309173 277.987716 89.8712306 277.996031 89.8100591 278.014441 89.7681893 278.071456 89.7010789 278.297434 89.5006384 278.355042 89.3658235 278.539447 89.066796 278.456004 88.9886984 278.406711 88.8598226 278.372265 88.7169902 278.331286 88.6038526 278.222306 88.4452819 278.180436 88.3624332 278.158462 88.2632522 278.166479 88.177434 278.225572 88.0227236 278.241904 87.9657094 278.204192 87.8644498 278.061062 87.6898439 278.02721 87.6069951 278.071456 87.3768597 278.029586 87.3091554 277.977917 87.2756001 277.920606 87.253329 277.860919 87.2078958 277.69433 87.0231936 277.629299 87.0231936 277.603464 87.1844368 277.566642 87.2078958 277.359075 87.1547419 277.260488 87.1663229 277.162495 87.2637222 277.113201 87.3329113 277.049951 87.3210333 276.901477 87.1844368 276.823379 87.1363311 276.747954 87.1286104 276.680547 87.1324708 276.591759 87.1205928 276.524649 87.1286104 276.49436 87.1247501 276.488718 87.1024789 276.464962 87.0193332 276.456647 86.9958743 276.054282 86.7517823 275.929563 86.6006353 275.945301 86.3630761 276.015381 86.1549149 276.068238 86.0652364 276.220573 85.97437 276.222949 85.8573721 276.159105 85.6014022 276.151681 85.5179595 276.151681 85.4532246 276.1401 85.393241 276.090806 85.3258336 275.963118 85.230513 275.891257 85.1218297 275.661418 85.0164128 275.604107 84.9216861 275.702694 84.8046882 275.732983 84.7369839 275.635584 84.6951141 275.601731 84.6538382 275.570552 84.6042477 275.560159 84.5600023 275.551844 84.4275631 275.540263 84.3741123 275.518289 84.3298669 275.495127 84.3263035 275.412278 84.3366967 275.389413 84.3298669 275.377832 84.3028446 275.367439 84.2351402 275.320521 84.1416013 275.306564 84.0727091 275.276572 84.0165858 275.128692 83.9753099 275.008428 83.8880069 274.941317 83.869893 274.798485 83.8425737 274.681487 83.7790267 274.593293 83.684003 274.54103 83.5747258 274.447194 83.608578 274.348607 83.7632884 274.241705 83.8205995 274.171626 83.8205995 274.068881 83.7974375 273.903778 83.7413142 273.821226 83.684003 273.7556 83.620159 273.646026 83.4473347 273.553378 83.2020549 273.514478 83.1444468 273.412327 83.1067343 273.217529 83.1486041 273.13468 83.1043587 273.126365 83.0547683 273.182786 82.945788 273.176253 82.8961975 273.123099 82.8507644 273.09281 82.8665027 273.069648 82.9080755 273.047674 82.9339101 272.978485 82.9641988 272.949681 82.9977541 272.914641 83.0054747 272.835949 82.9757799 272.786062 82.9339101 272.757555 82.8807562 272.609674 82.4504772 272.54197 82.3869302 272.443383 82.5674751 272.273825 82.5713354 271.896997 82.4282061 271.527592 82.3607987 271.361598 82.2696353 271.221141 82.0890904 271.135323 81.8096615 271.070588 81.7303761 270.915581 81.6252562 270.878462 81.5679451 270.919738 81.4966773 270.999023 81.4821268 271.096423 81.5002407 271.183429 81.5002407 271.221141 81.4325363 271.186992 81.3535479 271.123742 81.2897039 271.088405 81.2178423 271.137698 81.1195522 271.088405 81.097281 270.979425 81.0931237 270.919738 81.0776824 270.878462 81.0479875 270.667331 80.8178521 270.625462 80.7266888 270.628431 80.6096909 270.65575 80.5577248 270.735333 80.4888327 270.750774 80.4448843 270.455607 79.8064441 270.441056 79.754478 270.436008 79.6817255 270.421458 79.6217419 270.391763 79.5959073 270.304757 79.592047 270.274765 79.5766056 270.217751 79.4893027 270.139653 79.3996241 270.064822 79.3345923 269.685915 79.1086141 269.523781 78.9850834 269.263951 78.7095148 269.086969 78.4146445 269.029361 78.3703991 268.962251 78.3807924 268.909988 78.4104872 268.870493 78.4416669 268.836938 78.4562174 268.75409 78.4520601 268.717565 78.4300859 268.697669 78.400094 268.662926 78.3703991 268.622838 78.3350622 268.595222 78.3092277 268.558994 78.2908168 268.403096 78.2753755 268.278377 78.2453836 268.215721 78.237663 268.105553 78.1999505 268.154253 78.1168048 268.327671 77.9882259 268.113274 77.562995 268.026268 77.4382765 267.893235 77.325139 267.823155 77.3393925 267.667256 77.5891265 267.597473 77.6410926 267.536005 77.6449529 267.431182 77.6111008 267.218864 77.5656676 267.087612 77.5056839 267.004467 77.4421368 266.752357 77.1707255 266.710784 77.1392489 266.65377 77.1211351 266.544493 77.1211351 266.490745 77.1015364 266.419774 77.034129 266.175088 76.6985768 266.05809 76.6077104 265.925651 76.540006 265.645925 76.464878 265.522691 76.453 265.427965 76.4723017 265.366793 76.5361457 265.348382 76.6528466 265.31453 76.7324289 265.239105 76.8271556 265.140518 76.9025807 265.046979 76.9325725 264.971554 77.0261114 264.831097 77.1249954 264.753297 77.1665682 264.669557 77.1924028 264.570673 77.1962631 264.360433 77.1665682 264.30728 77.1745859 264.140988 77.2835661 263.978557 77.2678278 263.541745 77.034129 263.4586 77.0118579 263.372781 77.0118579 263.258159 77.0237358 263.16462 77.0041372 263.049998 76.958704 262.938345 76.9287122 262.847479 76.958704 262.813626 77.0673873 262.843618 77.2042808 262.904493 77.325139 262.960616 77.388983 263.01674 77.400564 263.149179 77.3925464 263.208865 77.400564 263.283994 77.4459972 263.417027 77.5656676 263.492155 77.6033801 263.624891 77.6488133 263.72615 77.7099848 263.798012 77.7996633 263.993998 78.4974933 264.110996 78.7576205 264.287681 79.0031973 264.402006 79.1086141 264.472086 79.1537504 264.537415 79.1656283 264.61284 79.1576107 264.650552 79.1775063 264.672824 79.2152188 264.9184 79.3996241 264.945423 79.4296159 264.974227 79.5008837 265.001546 79.5308755 265.031241 79.5347358 265.088255 79.5050409 265.118247 79.516325 265.186248 79.6258992 265.207926 79.7390367 265.189812 79.9807531 265.198126 80.0327192 265.212974 80.0784493 265.219804 80.1238825 265.20555 80.1794119 265.152099 80.2367231 265.076674 80.2744356 265.008079 80.3201657 264.981947 80.3914335 264.987589 80.4552775 265.013127 80.568415 265.0158 80.6295865 265.005406 80.6931335 264.963834 80.8024108 264.963834 80.8816961 265.239105 81.8132249 265.239105 81.8669726 265.231385 81.9759529 265.241778 82.0317793 265.288399 82.1009684 265.348382 82.1526375 265.392331 82.213512 265.392331 82.2556787 265.340662 82.2580543 265.046979 82.2580543 264.781804 82.2933912 264.638971 82.289234 264.578988 82.2399404 264.544839 82.1760964 264.457833 82.0775094 264.285008 81.9186417 264.243732 81.9720925 264.168307 82.277356 263.978557 83.0054747 263.793855 83.7332965 263.605589 84.4611183 263.42059 85.1853767 263.331208 85.544091 263.247766 85.7584881 263.099588 85.9327971 262.760473 86.2496416 262.512223 86.5359004 262.202506 86.8946147 261.889818 87.2571893 261.580101 87.6147158 261.270977 87.9734301 260.961259 88.3324413 260.647978 88.6896709 260.338854 89.0483852 260.029433 89.4109598 259.660326 89.6892009 259.291218 89.9724902 258.916766 90.2560764 258.547658 90.5378809 258.178254 90.8214671 257.804098 91.1008961 257.434991 91.3829975 257.064695 91.6665837 256.71489 91.9341347 256.344594 92.1562525 255.771483 92.3528327 254.99021 92.624244 253.428853 93.1676605 252.64758 93.4393688 251.866605 93.7107801 251.086817 93.9827853 250.305247 94.2541966 249.524272 94.5262018 249.113591 94.6690342 248.996297 94.7287209 248.540183 95.1254447 247.910057 95.9619498 247.611921 96.2119808 247.521054 96.3055197 247.332492 96.6719546 247.253206 96.7812318 247.027228 96.9475232 246.955664 97.0333415 246.955664 97.169641 247.027228 97.2827786 247.124331 97.3504829 247.199756 97.4416462 247.215791 97.6106102 247.15848 97.739189 247.06108 97.7769015 246.951803 97.8030331 246.854404 97.8823184 246.770961 97.9200309 246.711275 97.8104568 246.623081 97.4116544 246.578538 97.3204911 246.49955 97.256944 246.231702 97.181222 246.098966 97.1660776 245.997706 97.1960695 245.929111 97.3127704 245.933862 97.3504829 245.970387 97.4754984 245.967715 97.5429058 245.922281 97.8068934 245.831118 98.0863223 245.718574 98.3357594 245.676408 98.4589932 245.660966 98.5801484 245.666311 98.8022661 245.688286 98.931142 245.684425 98.9920165 245.638695 99.0261656 245.559707 99.0401222 245.530012 99.0478429 245.525558 99.081992 245.525558 99.1574171 245.60514 99.5580011 245.567724 99.6785624 245.416577 99.8255521 245.367284 99.8555439 245.291859 99.8929595 245.254443 99.919388 245.190599 100.039949 245.144869 100.156947 245.083995 100.612764 245.083995 100.658494 245.057566 100.681953 244.972045 100.730059 244.891275 100.757675 244.816147 100.761238 244.748739 100.779649 244.684598 100.843493 244.654903 100.94594 244.657576 101.315048 244.595217 101.587053 244.213043 102.375749 244.156029 102.647458 244.103766 102.767128 243.986768 102.861558 243.937475 102.990731 243.945492 103.224429 243.994786 103.454862 244.069914 103.570375 244.216904 103.661241 244.20265 103.760422 244.103766 103.877123 244.0129 104.024113 243.998646 104.13725 244.004882 104.257812 243.998646 104.378967 243.942523 104.476069 243.703182 104.63464 243.134228 104.860915 242.878258 105.004044 242.59586 105.264468 242.478862 105.422445 242.406109 105.592894 242.410267 105.763343 242.554584 106.041584 242.583091 106.18798 242.520732 106.313292 242.372554 106.342987 242.211311 106.346847 242.086592 106.378027 242.02156 106.479286 241.949996 106.780987 241.904266 106.909565 241.745992 107.078529 241.565447 107.229676 241.452012 107.116242 241.384605 107.068433 241.317198 107.033096 241.252166 107.026266 241.154173 107.052695 241.090923 107.052695 240.981942 107.030424 240.773781 106.957374 240.664207 106.939557 240.222347 106.954999 240.079515 106.917286 239.996072 106.814839 239.928664 106.68329 239.845519 106.566292 239.792365 106.52858 239.67121 106.483147 239.615383 106.445731 239.580343 106.39228 239.544116 106.267562 239.510263 106.215299 239.401283 106.13631 239.270923 106.068606 239.166991 105.9816 239.120073 105.852724 239.101959 105.728303 238.940715 105.422445 238.86826 105.057198 238.687418 104.79321 238.690981 104.660771 238.834408 104.408662 238.849849 104.317795 238.815997 104.257812 238.687418 104.186247 238.536568 104.186247 238.498855 104.166648 238.411849 104.099241 238.363744 104.076079 238.049275 103.766361 237.876451 103.6847 237.653739 103.714395 237.438154 103.839411 237.023316 103.966505 236.789618 103.932949 236.63461 103.774379 236.507219 103.578096 236.348945 103.434966 236.186217 103.393393 236.027944 103.393393 235.865512 103.375279 235.696549 103.280256 235.57183 103.19325 235.371389 102.974695 235.258252 102.879969 235.153132 102.842256 235.024256 102.820282 234.921809 102.78643 234.881127 102.722883 234.865982 102.725258 234.613576 102.760595 234.544684 102.782569 234.48084 102.812264 234.427983 102.854134 234.37572 102.94114 234.310985 103.159695 234.26674 103.258282 234.168152 103.363698 233.689471 103.725085 233.437361 103.861385 233.37619 103.914539 233.326896 103.921665 233.217619 103.921665 233.112499 103.887516 232.832773 103.728946 232.749924 103.653224 232.696177 103.526129 232.719933 103.419525 233.541293 102.334177 233.610185 102.197877 233.322739 102.231432 233.052812 102.310718 232.836931 102.288743 232.703897 102.012878 232.703897 101.955864 232.730326 101.838866 232.727356 101.783039 232.693801 101.703754 232.592245 101.560625 232.561065 101.485497 232.572943 101.368499 232.626394 101.209928 232.696177 101.063235 232.765069 100.960194 232.860093 100.896647 232.972042 100.863092 233.096761 100.854777 233.225637 100.863092 233.353919 100.900507 233.614046 101.039479 233.731044 101.066799 233.86378 101.001767 233.965039 100.874376 234.055906 100.730059 234.145584 100.620781 234.627829 100.39896 234.726713 100.289386 234.726713 100.224355 234.693158 100.186642 234.635847 100.153087 234.578833 100.089243 234.564282 100.036089 234.564282 99.9232483 234.556562 99.866828 234.500438 99.7421095 234.37572 99.5422628 234.349885 99.4172474 234.360278 99.373002 234.385816 99.3275688 234.405712 99.2824325 234.401851 99.2224489 234.360278 99.105154 234.357606 99.0561575 234.357606 98.994986 234.367999 98.9388626 234.405712 98.8218648 234.41759 98.7583177 234.409572 98.6897225 234.37572 98.5721307 234.371859 98.5047233 234.357606 98.4450366 234.300295 98.4215776 234.240608 98.4037607 234.201411 98.3580306 234.201411 98.3087371 234.250704 98.1433365 234.262582 98.0266356 234.262582 97.9654641 234.248626 97.9096377 234.206756 97.8639076 234.104012 97.8226317 234.066596 97.7887795 234.050858 97.6599037 234.089758 97.5313248 234.104012 97.4223445 234.017005 97.3543432 233.780337 97.2946565 233.677593 97.2415027 233.63988 97.2233888 233.63988 97.2827786 233.614046 97.3466226 233.531197 97.4867825 233.512786 97.5544868 233.470916 97.6676243 233.368469 97.7472067 233.244938 97.8003605 233.122892 97.8261951 232.693801 97.8104568 232.595214 97.8481693 232.537903 97.8823184 232.477919 97.890336 232.428626 97.9132011 232.392101 98.0405922 232.126926 98.4215776 231.950241 98.5958867 230.964668 99.1770157 230.743738 99.3575606 230.577743 99.5695821 230.463418 99.7836823 230.421548 99.9149337 230.407294 100.055688 230.369582 100.183969 230.276043 100.269788 230.018588 100.414402 229.78489 100.594947 229.59217 100.798951 229.256914 101.300794 229.158327 101.499453 229.090623 101.568642 228.981346 101.594477 228.861972 101.63605 228.773185 101.733746 228.661829 101.93775 228.517512 102.080285 227.977955 102.447314 227.906688 102.530757 227.823245 102.665868 227.75168 102.812264 227.721985 102.933122 227.811664 103.280256 227.811664 103.423385 227.721985 103.635407 227.676255 103.703111 227.638543 103.736666 227.593407 103.766361 227.529563 103.82783 227.502243 103.917211 227.543519 104.038366 227.60083 104.163085 227.638543 104.275925 227.634979 104.374809 227.583013 104.690466 227.529563 104.801228 227.509964 104.853194 227.48799 105.000184 227.450277 105.031364 227.400687 105.053338 227.367132 105.106789 227.343376 105.174196 227.341 105.246058 227.393263 105.34316 227.593407 105.49401 227.672692 105.618728 228.181959 106.140171 228.230065 106.24143 228.276983 106.380699 228.378243 106.501261 228.619959 106.689823 228.820103 106.890264 228.977485 107.157815 228.985206 107.403391 228.739629 107.54266 228.48752 107.569683 228.453668 107.625806 228.445947 107.772796 228.435554 107.837828 228.374679 107.954826 228.362504 108.030251 228.370522 108.059946 228.396653 108.115772 228.400217 108.149327 228.385963 108.195354 228.302818 108.263949 228.279656 108.301662 228.313211 108.448652 228.442087 108.637214 228.600657 108.817759 228.739629 108.938914 229.116458 109.135198 229.205245 109.263776 229.747177 109.82501 229.863878 109.997834 230.181019 110.699821 230.312568 111.231657 230.317616 111.756663 230.147464 112.208916 229.920001 112.43133 229.667595 112.514476 229.397371 112.461025 229.129523 112.292358 229.046378 112.171203 228.993224 112.12191 228.913938 112.12191 228.765761 112.393618 228.721516 112.41292 228.596797 112.419453 228.48752 112.635334 228.422488 112.845871 228.415955 113.095308 228.464061 113.355732 228.574823 113.608733 228.747647 113.856982 228.937397 114.035152 229.147637 114.17056 229.445477 114.31369 229.574056 114.351105 229.6379 114.378425 229.842201 114.529275 230.016213 114.589258 230.276043 114.842556 230.490737 114.932234 230.611298 115.011223 230.697117 115.195925 230.78828 115.245515 231.222419 115.404383 231.845121 115.750922 232.840494 116.218914 233.94158 116.818157 234.911416 117.264174 235.020693 117.335442 235.730104 117.958441 235.767816 118.014267 235.798105 118.033866 235.907085 118.176698 235.914806 118.210253 235.944501 118.240245 235.979838 118.458503 236.069516 118.658646 236.182654 118.843942 236.491778 119.188106 236.900083 119.455657 236.960066 119.549196 237.004015 119.666491 237.438154 120.160317 237.503186 120.285035 237.539414 120.421632 237.552776 120.572482 237.594349 120.718878 237.695312 120.836173 237.943858 121.062151 238.080157 121.272687 238.200125 121.540832 238.287131 121.816104 238.321874 122.080092 238.31445 122.125822 238.282974 122.224112 238.280301 122.291816 238.298712 122.3518 238.350975 122.450684 238.389578 122.563821 239.052665 123.454074 239.173523 123.706184 239.185401 123.789626 239.169366 123.849313 239.147392 123.898607 239.133435 123.962451 239.12809 124.045299 239.133435 124.087169 239.200843 124.13676 239.780784 125.052847 240.109506 125.407701 240.82545 125.951118 240.932055 126.052377 241.132198 126.34606 241.244148 126.411388 241.854972 126.980343 241.983551 127.154949 242.066994 127.335493 242.11213 127.474466 242.439961 128.081429 242.478862 128.247721 242.437289 128.372736 242.27367 128.402728 242.27367 128.444301 242.417987 128.598714 242.507963 128.674139 242.700089 128.749564 242.844109 128.851418 243.089686 129.085116 243.276763 129.322973 243.425238 129.578942 243.511056 129.840554 243.516401 130.108105 243.4095 130.375656 243.367927 130.522646 243.405936 130.643504 243.722781 131.008752 243.809787 131.182764 243.919064 131.300058 243.937475 131.329753 243.968358 131.416759 244.028341 131.496045 244.073774 131.594038 244.062193 131.740731 244.024481 131.811701 243.976672 131.861292 243.942523 131.910882 243.937475 131.994325 244.066351 131.960176 244.122177 132.045994 244.149199 132.295431 244.20265 132.408272 244.270355 132.46202 244.356173 132.499732 244.45476 132.551401 244.522167 132.609009 244.589872 132.684137 244.631741 132.777676 244.617191 132.894971 244.589872 132.948422 244.545923 132.986134 244.492472 133.011672 244.363597 133.035428 244.30391 133.065123 244.273027 133.094818 244.300049 133.106696 244.371317 133.136094 244.431598 133.211816 244.477922 133.313669 244.492472 133.426213 244.519792 133.47996 244.575618 133.411959 244.635602 133.286944 244.662624 133.17054 244.71459 133.091254 244.831588 133.065123 244.948883 133.102538 245.002037 133.211816 245.008273 133.396221 245.002037 133.453829 244.964621 133.509952 244.86544 133.596661 244.831588 133.664663 244.90731 133.713956 244.948883 133.800962 244.966997 133.884108 244.982438 133.92182 245.01629 133.943795 245.175158 134.090784 245.228015 134.060792 245.315021 134.049211 245.393415 134.078609 245.426971 134.158489 245.420438 134.403768 245.426971 134.479193 245.518134 134.616087 245.642852 134.705469 245.702539 134.788911 245.597419 134.913036 245.658294 135.014592 245.700164 135.165442 245.744112 135.562166 245.853389 135.935134 245.994143 136.169427 246.581211 136.878541 246.649806 137.040972 246.628129 137.157079 246.566957 137.267247 246.537263 137.418097 246.560425 137.485801 246.672374 137.696338 246.703554 137.825214 246.698506 137.850751 246.680095 137.882525 246.664654 137.916377 246.664654 137.95409 246.683955 137.988239 246.70593 138.009619 246.732061 138.025357 246.747799 138.040799 246.786997 138.093062 246.827976 138.134338 246.862125 138.191649 246.872518 138.277467 246.914091 138.409906 247.072958 138.666173 247.091072 138.812866 247.064941 138.874334 247.027228 138.899872 247.001394 138.937584 247.001394 139.028748 247.020695 139.096452 247.054548 139.160296 247.098793 139.213153 247.275478 139.387165 247.370501 139.518714 247.516897 139.8023 247.556391 139.861986 247.683782 140.0164 247.701896 140.082026 247.721198 140.234954 247.748517 140.292562 248.01102 140.530122 248.068331 140.617128 248.086445 140.672954 248.098323 140.812223 248.110201 140.873098 248.253033 141.087495 248.276492 141.156684 248.306187 141.291795 248.373595 141.382662 248.540183 141.517774 249.048263 142.427328 249.121312 142.509583 249.252563 142.630441 249.302154 142.683595 249.339569 142.751596 249.385003 142.880175 249.430436 142.936002 249.466961 142.894132 249.535853 142.993313 249.640973 143.328568 249.825972 143.506737 249.908821 143.615718 249.898427 143.713117 250.078972 143.973541 250.146974 144.120234 250.113121 144.230996 250.222102 144.353933 250.241403 144.381252 250.225962 144.456677 250.166275 144.574269 250.150537 144.641676 250.200127 144.704926 250.293963 144.769958 250.361371 144.852213 250.324846 144.962381 250.392253 145.041963 250.418385 145.301794 250.519644 145.498374 250.576956 145.641503 250.607244 145.799777 250.573095 145.912321 250.467678 145.958348 250.358995 145.954784 250.275552 145.976165 250.241403 146.108901 250.259814 146.226196 250.316828 146.323595 250.45194 146.467912 250.610808 146.587582 251.572625 147.10071 251.775144 147.271159 252.042992 147.392017 252.150191 147.459127 252.229179 147.568702 252.277285 147.617995 252.346177 147.636109 252.399628 147.666398 252.447734 147.734696 252.53474 147.896533 252.63986 148.017094 252.661834 148.066388 252.667179 148.119839 252.620261 148.179526 252.64372 148.225256 252.750325 148.363931 252.818029 148.428963 252.901175 148.458954 252.990853 148.507357 253.080532 148.627918 253.149127 148.775205 253.176743 148.911505 253.286021 149.179353 253.286021 149.304071 253.129825 149.363758 253.18684 149.484616 253.229006 149.756621 253.262265 149.8852 253.3561 150.03605 253.38342 150.095737 253.431526 150.287863 253.484976 150.428023 253.514671 150.853847 253.488837 151.001728 253.428853 151.103285 253.3561 151.193557 253.304134 151.310852 253.563965 151.336983 253.835673 151.419832 254.055415 151.5787 254.152814 151.826949 254.141233 151.89495 254.115399 151.944244 254.099661 151.997398 254.115399 152.086779 254.152814 152.148248 254.262092 152.24921 254.284363 152.28336 254.35177 152.286923 254.707812 152.43421 255.148484 152.751648 255.472158 153.084528 255.578763 153.257352 255.672302 153.502632 255.688337 153.7393 255.560946 153.905591 255.628354 154.013978 255.740006 154.094154 255.850768 154.151465 255.898577 154.185317 255.929757 154.256585 256.152171 154.595701 256.322323 154.708244 256.366569 154.769713 256.374289 154.829696 256.366569 154.995988 256.423583 155.079431 256.68757 155.599091 256.804568 155.749941 257.234847 156.116673 257.298691 156.191801 257.33195 156.289497 257.354518 156.57249 257.460825 157.1165 257.544268 157.334461 257.559412 157.481153 257.622366 157.597854 258.298221 158.278164 258.649215 158.814157 258.732064 158.899975 258.811646 158.937094 258.898652 158.998562 259.147198 159.378954 259.384757 159.892675 259.434051 160.125483 259.475624 160.596741 259.369019 161.12531 259.297751 161.325454 259.226187 161.533021 259.203025 161.705846 259.147198 161.830564 259.117206 162.000419 259.007929 162.241838 258.950618 162.51028 258.924487 162.592535 258.857079 162.550962 258.789375 162.490978 258.732064 162.423274 258.708902 162.352006 258.736221 162.256686 258.732064 162.218973 258.686927 162.201156 258.57765 162.197593 258.521527 162.204126 258.498365 162.218973 258.370677 162.282817 258.282483 162.358242 258.215076 162.592535 258.17083 162.687262 258.159249 162.773971 258.218936 162.875527 258.301785 162.928978 258.389088 162.950952 258.482627 162.950952 258.581511 162.939371 258.615363 162.91324 258.645058 162.86751 258.686927 162.837815 258.750474 162.853553 258.784327 162.891266 258.776309 162.935808 258.758195 162.985101 258.750474 163.030535 258.837481 163.464971 258.833917 163.472395 258.837481 163.637201 258.852922 163.694512 258.871333 163.736382 258.875193 163.774095 258.837481 163.815668 258.857079 163.891093 258.837481 163.972457 258.789375 164.041943 258.7285 164.06748 258.706229 164.11321 258.795908 164.591892 258.887071 164.656627 258.954478 164.607333 258.924487 164.464204 259.263899 164.550022 259.343185 164.595158 259.392775 164.678304 259.422173 164.777485 259.475624 164.863303 259.57718 164.901016 259.676064 164.950309 259.751192 165.06315 259.799001 165.203607 259.82929 165.388012 259.86047 165.429882 259.87502 165.463437 259.852749 165.5157 259.818897 165.543019 259.641024 165.598549 259.77376 165.815025 259.813849 165.862536 259.87502 165.886292 260.029433 165.900843 260.094168 165.931429 260.177611 166.017247 260.297578 166.187992 260.370034 166.25926 260.580571 166.387839 260.671437 166.485535 260.708259 166.628665 260.644415 166.753383 260.618283 166.832372 260.644415 166.866521 260.685691 166.881962 260.72756 166.919675 260.870393 167.078245 260.919686 167.165251 260.953538 167.262651 260.980561 167.537922 261.033121 167.663235 261.123987 167.752616 261.384114 167.885352 261.429251 167.918611 261.469933 167.960777 261.516257 168.020464 261.552781 168.092029 261.599699 168.152903 261.667107 168.174878 261.71937 168.190616 261.779056 168.220608 261.833992 168.255054 261.854481 168.284452 261.87794 168.356907 261.934955 168.39462 262.070066 168.442726 262.431453 168.658607 262.556469 168.768182 262.647335 168.835589 262.881331 168.914874 263.390598 169.164311 263.666167 169.379005 263.688438 169.424142 263.676857 169.624285 263.688438 169.668828 263.756439 169.737423 263.978557 169.888273 264.027851 169.95182 264.073581 170.076538 264.363106 170.499394 264.42012 170.646087 264.472086 170.755067 264.563249 170.826631 264.888409 170.872362 265.013127 170.929673 265.31453 171.211774 265.356103 171.272649 265.386392 171.328772 265.392331 171.408354 265.366793 171.472495 265.295229 171.506348 265.179418 171.502784 265.344522 171.668185 265.592771 171.778353 265.774801 171.89149 265.729665 172.071738 265.681559 172.102027 265.620388 172.129049 265.570797 172.159338 265.558919 172.20685 265.597819 172.244563 265.743621 172.290293 265.774801 172.314049 265.812514 172.415011 265.90724 172.456881 266.030771 172.475292 266.151926 172.513004 266.223194 172.570612 266.411756 172.777586 266.510937 172.845587 266.552213 172.857762 266.596459 172.837866 266.687028 172.822128 266.770768 172.849447 266.939435 172.984559 267.984398 173.565688 268.389139 173.706145 268.497526 173.810968 268.79299 174.007251 269.934164 174.460098 269.988803 174.493654 270.029485 174.535523 270.100753 174.686373 270.131932 174.708348 270.184195 174.73151 270.217751 174.781397 270.233489 174.848804 270.249227 174.97382 270.278922 175.007078 270.681288 175.237214 270.773045 175.301058 270.896576 175.354509 271.199167 175.330753 271.34586 175.368465 271.458997 175.455471 271.548379 175.542774 271.651717 175.606024 271.918971 175.643737 272.01637 175.669868 272.621255 175.957612 272.734393 176.048775 272.752507 176.100147 272.75993 176.175572 272.752507 176.316029 272.772105 176.357899 272.817242 176.38403 272.922361 176.425009 273.420642 176.78016 273.817365 177.129669 274.001771 177.24637 274.473326 177.420976 274.668718 177.526393 274.709697 177.564105 274.770571 177.628543 274.818974 177.706938 274.838573 177.79038 275.197584 177.710798 275.554814 177.806119 276.241656 178.095347 276.623236 178.190668 276.966509 178.360522 277.147351 178.400907 277.208225 178.432384 277.260488 178.492071 277.339477 178.759622 277.392927 178.846925 277.494187 178.801195 277.581193 178.835344 277.678592 178.896218 277.792918 178.926507 278.037603 178.921756 278.143911 178.959468 278.376422 179.126057 278.648427 179.265326 278.768989 179.360349 279.92798 179.872586 280.590176 180.352159 280.824469 180.435601 281.794304 180.548739 282.152721 180.702855 282.413146 180.744725 282.47402 180.77828 282.609132 180.864099 282.646844 180.887558 282.711876 180.901811 282.753449 180.939524 282.817293 181.030687 282.87312 181.071963 282.926273 181.079981 282.9821 181.079981 283.050992 181.101955 283.193824 181.201136 283.541255 181.607659 283.598566 181.732377 283.593221 181.857096 283.619946 181.974391 283.774953 182.067633 284.068933 182.135634 284.219783 182.204526 284.280657 182.313506 284.334108 182.369927 284.586218 182.517807 284.672036 182.599468 284.684805 182.668657 284.677381 182.803175 284.710936 182.867613 284.76023 182.890775 285.151609 182.920767 285.290284 182.962043 285.423317 183.018166 285.762432 183.21831 285.915064 183.362627 286.200432 183.705603 286.400873 183.870113 286.637541 183.977608 287.671814 184.237438 287.697946 184.251395 287.802768 184.320287 287.91353 184.41828 287.969951 184.459556 288.116643 184.50885 288.35836 184.550422 288.459916 184.580711 288.561473 184.66356 288.648479 184.862516 288.663623 184.882411 288.885741 185.037122 289.055002 185.258646 289.104889 185.288934 289.14379 185.301109 289.169327 185.330507 289.195459 185.550546 289.282465 185.806219 289.308299 185.923514 289.36472 186.579771 289.40362 186.708053 289.421437 186.835741 289.395306 186.986591 289.302064 187.111607 289.263163 187.186438 289.267321 187.255033 289.29464 187.239889 289.501019 187.210491 289.629895 187.239889 289.765007 187.307296 289.990985 187.474181 290.292091 187.60187 290.391272 187.676701 290.579835 187.892286 290.662683 187.971868 290.794232 188.050856 291.115531 188.36681 291.243812 188.382548 291.610841 188.503703 291.733778 188.571408 291.997766 188.771551 292.096947 188.812827 292.187516 188.868951 292.243639 188.997232 292.325597 189.249639 292.406071 189.322095 292.628188 189.389799 292.733308 189.453643 293.094398 189.785929 293.130032 189.801073 293.189719 189.81206 293.219117 189.826611 293.253563 189.868481 293.287118 189.937373 293.310874 189.963504 293.786586 190.397347 293.962677 190.517908 294.151833 190.60046 294.351977 190.631639 294.488276 190.690732 294.841942 191.083299 295.208674 191.347286 295.325078 191.453 295.567092 191.325906 295.887203 191.30215 296.55118 191.365994 296.871885 191.331548 297.025705 191.287599 297.467565 191.038756 297.614258 190.988275 297.800445 190.984712 297.935556 190.933339 298.044537 190.841582 298.338813 190.490589 298.584093 190.276191 298.69723 190.152067 298.832342 189.947766 299.206795 189.096413 299.225502 188.971695 299.20917 188.85054 299.161064 188.725821 299.021795 188.487965 298.988834 188.378985 298.976659 188.21596 298.923208 187.942173 298.818385 187.714413 298.746524 187.488138 298.790472 187.21257 298.99121 187.005596 299.25104 186.990452 299.54205 187.031728 299.825636 186.982434 300.108925 186.790308 300.904452 186.01735 300.904452 186.010223 300.914845 185.545795 300.896434 185.320114 300.825166 185.127691 300.734003 185.010396 300.612848 184.882411 300.361035 184.681674 300.261854 184.648119 299.930756 184.602685 300.036173 184.440254 300.13476 184.082431 300.202761 183.939896 300.228299 183.932175 300.337873 183.912576 300.376179 183.902183 300.712029 183.595435 300.904452 183.467747 301.073415 183.399745 301.2501 183.365002 301.416688 183.301158 301.549425 183.146448 301.579713 183.045485 301.549425 183.007773 301.503694 182.984017 301.484393 182.946304 301.503694 182.886618 301.541407 182.840888 301.809255 182.686474 301.88171 182.599468 302.047111 182.242832 302.677533 181.569946 302.763352 181.434834 302.880053 181.084138 302.937364 180.992974 303.03892 180.92913 303.262226 180.910126 303.374176 180.879837 303.736453 180.694838 303.842167 180.616443 303.943724 180.47955 304.02004 180.381557 303.853748 180.152015 303.823459 180.042441 303.839792 179.842891 303.831774 179.465172 303.842167 179.337187 303.898884 179.22405 304.060128 179.023906 304.268289 178.914332 304.966119 178.638763 305.105388 178.416646 305.041544 178.243821 304.898711 178.148798 304.575334 178.016656 304.32174 177.738117 304.182471 177.655269 304.008459 177.710798 303.805642 177.646954 303.736453 177.643094 303.669343 177.66685 303.548188 177.760092 303.48078 177.79038 303.321913 177.79038 303.171063 177.741681 303.03892 177.655269 302.921626 177.556088 302.707228 177.284676 302.567959 176.934871 302.302784 176.274159 302.039093 175.610182 301.511712 174.28965 301.436287 174.097524 301.402138 173.905101 301.455589 173.716538 301.858548 173.105714 301.888243 172.980699 301.907842 172.853605 301.937537 172.728292 302.019792 172.611591 302.080666 172.577442 302.251115 172.520725 302.29536 172.490436 302.300408 172.437579 302.227359 172.244563 302.261805 172.1436 302.360392 172.012645 302.479766 171.901883 302.687927 171.830616 302.770775 171.586227 302.891634 171.578209 303.03892 171.586227 303.137507 171.506348 303.152058 171.389647 303.004771 171.245329 302.850358 171.027072 302.748801 170.929673 302.378209 170.653807 302.276652 170.552845 301.922392 170.005271 301.816976 169.906684 301.684536 169.781371 301.64237 169.672985 301.674143 169.55183 301.775106 169.315161 301.786687 169.265868 301.759961 168.74205 301.767682 168.631288 301.827369 168.54547 301.964262 168.462621 302.311099 168.36344 302.409686 168.307614 302.495504 168.123209 302.534404 167.304223 302.612502 167.183068 302.73722 167.167924 302.877677 167.1994 303.012789 167.202964 303.050501 167.129617 303.030606 166.836232 303.050501 166.727252 303.088214 166.696963 303.193631 166.669941 303.239064 166.647669 303.483156 166.364677 303.605499 166.278265 304.008459 166.051099 304.133177 165.938555 304.101404 165.810867 304.02004 165.681992 303.970746 165.569151 303.962728 165.32298 303.974309 165.19945 304.008459 165.089281 304.162872 164.976441 304.37519 164.924178 304.793295 164.871321 304.912668 164.742445 304.88327 164.515873 304.73242 164.090048 304.691738 163.871494 304.656995 163.774095 304.593151 163.682931 304.257896 163.464971 304.177422 163.347676 304.141492 163.143078 304.136147 162.91324 304.11536 162.695279 304.008459 162.537006 303.929173 162.291132 303.92264 162.204126 303.940754 162.102569 303.970746 162.02655 303.970746 161.955877 303.903042 161.860556 303.566599 161.588551 303.438911 161.404145 303.524729 161.26161 303.608468 161.253295 303.797922 161.287741 303.867705 161.273191 303.92264 161.204002 303.925016 161.128577 303.914623 161.049291 303.925016 160.964067 303.974309 160.892206 304.107046 160.747591 304.159309 160.664743 304.216323 160.513893 304.252847 160.356807 304.230576 160.212489 304.302141 158.974806 304.211572 158.47712 304.197021 158.22115 304.242454 157.47076 304.155448 156.756895 304.155448 156.485484 304.190785 156.342651 304.38499 156.187941 304.450615 156.037091 304.52604 155.91653 304.664419 155.934346 304.739844 155.757662 304.837837 155.625223 304.962555 155.539404 305.476574 155.402511 305.524086 155.346981 305.668403 155.063989 305.604559 154.991831 305.404712 154.935113 305.347104 154.87899 305.355419 154.77387 305.412136 154.682707 305.497954 154.611439 305.68236 154.508398 305.773523 154.430597 305.846572 154.33587 305.894678 154.240847 305.931797 154.117316 305.969509 154.056442 306.030978 154.03031 305.846572 153.698618"></polyline>
        </g>
    </g>
</svg>