
<svg width="138px" height="116px" viewBox="0 0 138 116" version="1.1" xmlns="http://www.w3.org/2000/svg" xmlns:xlink="http://www.w3.org/1999/xlink">
    <!-- Generator: Sketch 51.2 (57519) - http://www.bohemiancoding.com/sketch -->
    <desc>Created with Sketch.</desc>
    <defs></defs>
    <g id="Page-1" stroke="none" stroke-width="1" fill="none" fill-rule="evenodd">
        <g id="SD-EPS-01-0001" transform="translate(-235.000000, -165.000000)" fill="#7F807C">
            <path d="M372.918231,202.180539 L372.799374,202.203758 L372.780025,202.119729 L372.780025,201.983734 L372.726954,201.852715 L372.384756,201.496144 L372.245445,201.412115 L372.362091,201.580173 L372.3737,201.778084 L372.295199,201.907998 L372.133222,201.882015 L372.081256,201.772003 L372.050851,201.432569 L371.963505,201.299339 L371.830827,201.39553 L371.62573,201.377287 L371.489735,201.293811 L371.567131,201.177718 L371.30067,200.753702 L371.140904,200.589513 L371.011543,200.707818 L371.111604,200.768075 L371.1011,200.837731 L371.015413,200.879193 L370.892686,200.855974 L370.781568,200.81783 L370.549382,200.789083 L370.439923,200.7631 L370.355894,200.713899 L370.285686,200.656405 L370.211055,200.609415 L370.103254,200.592278 L369.819103,200.644243 L369.712408,200.644243 L369.772665,200.568506 L369.863329,200.562425 L369.976105,200.568506 L370.097726,200.534231 L370.196128,200.435276 L370.216583,200.334662 L370.211055,200.238471 L370.222111,200.168262 L370.30614,200.108004 L370.422786,200.043877 L370.491889,199.970351 L370.439923,199.880794 L370.153008,200.052722 L370.097726,200.113532 L369.90866,200.496086 L369.468613,200.371701 L368.645458,199.880794 L368.740544,199.612122 L368.809647,199.473363 L368.976047,199.35727 L368.909155,199.235096 L368.778689,199.113475 L368.442572,198.953709 L368.227524,198.703833 L367.883115,198.20021 L367.668619,197.985715 L367.436433,197.808811 L366.388833,197.219502 L366.253944,197.083507 L366.232384,196.970731 L366.235701,196.854638 L366.168809,196.698189 L366.116844,196.935903 L366.06709,197.039281 L365.93994,197.10949 L365.922803,196.947512 L366.006832,196.610843 L365.93994,196.464345 L365.798417,196.417355 L365.629806,196.427858 L365.476674,196.400217 L365.377166,196.226631 L365.229562,196.338301 L365.038285,196.388055 L364.650756,196.401876 L364.554565,196.37921 L364.489884,196.338301 L364.429074,196.321163 L364.339516,196.376446 L364.23835,196.407957 L364.148792,196.359308 L364.073055,196.263117 L364.026618,196.162503 L363.780612,195.677677 L363.689396,195.515147 L363.391424,195.257531 L363.281412,195.101082 L363.211204,194.653848 L363.09898,194.291748 L363.049226,193.644945 L362.966303,193.50895 L362.789399,193.62449 L362.777237,193.482968 L362.631292,193.031311 L362.634609,192.969395 L362.677729,192.856619 L362.675518,192.798572 L362.62908,192.73555 L362.551685,192.691324 L362.481477,192.630514 L362.452177,192.5299 L362.388602,191.636537 L362.060225,189.798399 L361.89272,189.303069 L361.762253,189.079176 L361.730742,188.997911 L361.715816,188.924938 L361.730742,188.760197 L361.669379,188.237778 L361.695362,188.107865 L361.831356,187.914377 L361.875582,187.818185 L361.89272,187.661183 L361.89272,187.095645 L361.843518,186.803201 L361.323864,185.428329 L361.266923,185.133122 L361.269135,184.899277 L361.310044,184.816907 L361.408446,184.693074 L361.437193,184.597436 L361.434982,184.539389 L361.284061,183.939023 L361.25255,183.68583 L361.170732,183.42545 L361.153595,183.320413 L361.214958,182.692406 L361.211641,182.561387 L361.153595,182.210344 L361.214958,181.590076 L361.182341,181.33246 L361.211641,181.219684 L361.460964,181.256171 L361.538913,181.172694 L361.583138,181.033936 L361.605804,180.895177 L361.588667,180.329638 L361.223803,179.288119 L361.101629,178.746905 L361.028104,177.595926 L360.924726,177.047525 L360.704149,176.533952 L360.465329,176.253118 L360.425526,176.17517 L360.425526,176.032541 L360.484125,175.986657 L360.568154,175.959569 L360.648867,175.87554 L360.680378,175.77769 L360.683695,175.67597 L360.648867,175.453182 L360.678166,175.377998 L360.704149,175.272962 L360.683695,175.215468 L360.581975,175.209387 L360.542172,175.160186 L360.520612,174.948455 L360.577,174.716822 L360.712994,174.568665 L360.933018,174.614549 L361.023681,174.724561 L361.008755,174.826833 L360.953472,174.928553 L360.933018,175.035248 L360.967846,175.151341 L361.020364,175.23537 L361.08615,175.252507 L361.153595,175.160186 L361.382463,175.334325 L361.509613,175.290099 L361.600276,175.412273 L361.730742,175.751707 L361.930864,175.98334 L361.948002,176.055207 L361.878899,176.096116 L361.767781,176.049126 L361.579821,175.905392 L361.530067,175.826891 L361.493581,175.739545 L361.431665,175.667678 L361.327181,175.637825 L361.269135,175.681499 L361.292906,175.77769 L361.353164,175.887702 L361.41121,175.963438 L361.635104,176.35539 L361.786025,176.479223 L361.948002,176.35539 L362.107768,176.421176 L362.211699,176.349309 L362.266428,176.197283 L362.283566,176.027566 L362.223308,175.879409 L361.347636,174.762706 L360.646103,174.095448 L359.58247,172.453009 L359.144081,171.396564 L359.083271,171.313087 L358.990396,171.220213 L358.941195,171.124022 L358.935667,171.014563 L358.909684,170.91229 L358.794144,170.834342 L358.868775,170.590547 L358.680815,169.381522 L358.674181,168.31789 L358.59568,168.201797 L358.398875,168.054193 L358.547032,168.002227 L358.677498,167.98509 L358.713432,167.966847 L358.73278,167.927043 L358.758763,167.79326 L330.08602,167.79326 L328.174909,167.796024 L314.015442,167.796024 L314.275821,167.013226 L314.467651,166.448793 L314.476496,166.227664 L314.404076,166.03307 L314.223856,165.85672 L314.072935,165.778219 L313.913722,165.755 L313.757273,165.780983 L313.604141,165.865012 L313.389093,166.097198 L312.991612,166.91206 L312.58584,167.737425 L312.479145,167.805422 L310.565823,167.805422 L309.765335,167.801553 L292.982166,167.801553 L292.184442,167.799341 L272.199873,167.799341 L271.402149,167.796024 L261.012937,167.796024 L261.012937,173.270082 L261.00962,174.36025 L261.00962,181.721095 L261.006303,182.547013 L261.006303,185.227102 L260.997458,185.240369 L260.991377,185.254743 L260.974239,185.280726 L260.957655,185.284595 L260.939411,185.284595 L260.922274,185.286807 L260.901267,185.289571 L258.878486,185.289571 L257.875664,185.286807 L254.825184,185.286807 L254.124204,185.284595 L252.801297,185.284595 L252.801297,191.624375 L252.804061,193.633888 L252.804061,195.636768 L252.807378,197.636883 L252.807378,199.638104 L252.812906,203.627279 L252.812906,205.616337 L252.816223,207.605396 L252.816223,209.590585 L252.818987,211.573563 L252.818987,213.553777 L252.822304,215.530674 L252.822304,217.509229 L252.825068,219.482809 L252.825068,221.946743 L252.72943,222.2027 L252.505536,222.193855 L251.549152,221.866031 L250.551305,221.712346 L249.609294,221.712346 L249.069738,221.83065 L247.991733,222.225366 L247.374229,222.28673 L246.110474,222.019716 L245.518953,222.092689 L245.303905,222.240845 L244.779828,222.878251 L244.132472,223.280706 L243.976576,223.472536 L243.915765,223.736233 L243.976576,223.980028 L244.115334,224.200052 L244.289474,224.388565 L244.465824,224.629596 L244.547089,224.89274 L244.565333,225.173574 L244.460296,226.159811 L244.397274,226.348324 L244.028541,227.023874 L243.964414,227.102375 L243.686896,227.20907 L243.501147,227.313554 L243.338065,227.446784 L242.59894,228.224054 L242.50109,228.39764 L242.456864,228.603291 L242.450783,228.763057 L242.404898,228.901815 L242.242368,229.053289 L241.941632,229.256175 L241.874741,229.386642 L241.874741,229.604454 L241.941632,230.068273 L241.987517,230.215877 L242.112455,230.486208 L242.126275,230.560286 L242.086472,230.676379 L242.002443,230.737742 L240.351712,231.181107 L240.001222,231.351929 L239.670634,231.60457 L239.514737,231.903647 L239.702697,232.216545 L239.955338,232.404505 L240.019465,232.520598 L240.135005,233.425017 L240.164305,233.476983 L240.204108,233.521209 L240.233408,233.569857 L240.225115,233.633985 L240.184207,233.674893 L240.071431,233.726859 L240.036603,233.761687 L239.964183,233.906527 L239.955338,233.973418 L239.978556,234.071268 L240.053187,234.254252 L240.152143,234.379191 L240.288137,234.452163 L240.752509,234.532876 L240.897349,234.62575 L240.972533,234.787727 L241.027262,235.060269 L241.016206,235.306828 L240.894585,235.448904 L240.702755,235.524088 L240.482731,235.567761 L240.296983,235.672245 L239.992377,235.959713 L239.833164,236.066408 L238.529053,236.686676 L238.294103,236.846995 L238.093981,237.046564 L237.346011,238.000184 L237.145889,238.328009 L237.134279,238.403193 L237.328873,238.586177 L237.456023,238.750919 L237.484769,238.875857 L237.467632,239.006876 L237.467632,239.191519 L237.615789,239.516579 L238.137101,240.006381 L238.258722,240.331441 L238.264803,240.814609 L238.300184,240.974928 L238.406879,241.17505 L238.696559,241.528304 L238.795514,241.720134 L238.728622,242.071177 L238.435626,242.450413 L237.679363,243.250902 L237.542816,243.34654 L236.661615,243.69703 L236.516776,243.778296 L236.235941,244.050837 L235.998227,244.378662 L235.321571,245.662318 L235.115921,246.285903 L234.986007,246.546283 L234.965,246.599354 L234.999828,246.695545 L235.223721,246.973062 L235.545465,247.582274 L235.716287,247.747015 L236.003203,247.889091 L236.343189,247.953218 L236.690362,247.955983 L237.012105,247.91231 L237.397976,247.799534 L237.714191,247.625947 L237.978441,247.371095 L238.212838,247.022264 L239.242195,247.706659 L240.082487,248.02011 L240.190288,248.127358 L239.781751,249.090376 L239.592685,249.364577 L239.607612,249.466849 L239.879601,249.892523 L240.482731,251.756644 L240.50595,251.855599 L240.512031,251.957872 L240.502633,252.06125 L240.290901,252.977278 L240.343973,252.957377 L240.393174,252.931394 L240.482731,252.861185 L241.016206,252.694233 L241.337949,252.635633 L241.447961,252.701419 L241.517617,252.582562 L241.559079,252.624024 L241.566818,252.75449 L241.544152,252.899883 L241.399313,253.32224 L240.940469,255.891764 L240.978614,256.290902 L241.144461,256.682854 L241.393231,257.033344 L241.688439,257.314179 L241.970379,257.45736 L242.631003,257.680148 L242.842735,257.876953 L242.8654,257.95269 L242.868717,258.204224 L242.94943,258.239605 L243.73278,258.15834 L243.92461,258.161657 L244.043467,258.262824 L244.153479,258.853792 L244.361894,259.471296 L244.385112,259.822892 L244.34752,259.971048 L244.208209,260.260728 L244.15956,260.411649 L244.132472,260.575837 L244.127496,260.743895 L244.103725,260.834006 L243.973812,260.976634 L243.921846,261.060663 L243.601761,262.228779 L243.620004,262.457648 L244.787568,264.159792 L245.641127,264.760711 L247.133751,266.210214 L249.868016,270.618429 L250.036074,270.990479 L250.276552,272.42008 L250.235643,272.73519 L250.125631,272.982855 L249.821026,273.449438 L249.719859,273.686599 L249.725387,273.776709 L249.803888,273.982359 L249.821026,274.092924 L249.809969,274.347223 L249.833188,274.426277 L249.896762,274.530208 L249.95702,274.530208 L250.00401,274.547898 L250.049894,274.614237 L250.052659,274.668966 L249.847008,275.313558 L249.839269,275.461162 L249.922745,275.712697 L249.933802,275.834871 L249.861934,275.933826 L249.750817,276.017856 L249.435708,276.41423 L249.255487,276.597215 L249.159849,276.654708 L249.026618,276.679032 L248.760157,276.66687 L248.635219,276.716072 L248.502542,276.918958 L248.319557,277.971534 L248.342776,278.171103 L248.44947,278.339161 L248.66673,278.467416 L248.892835,278.450279 L249.197441,278.151201 L249.34228,278.15673 L249.400327,278.336397 L249.38927,278.624418 L249.287551,279.093213 L249.148792,279.31987 L248.808806,279.701871 L248.702111,279.91692 L248.699347,280.113725 L248.766238,280.334854 L248.891176,280.517286 L249.058682,280.591917 L249.180856,280.566487 L249.374344,280.41833 L249.48712,280.351439 L249.638041,280.322692 L249.777905,280.337065 L249.907819,280.392348 L250.029993,280.479141 L250.136688,280.523367 L250.400385,280.517286 L250.665187,280.586389 L250.797865,280.54935 L251.056033,280.42994 L251.340737,280.421647 L251.859286,280.540504 L252.314812,280.49462 L252.642084,280.630615 L252.801297,280.65328 L253.034036,280.612372 L253.891465,280.755 L254.35252,280.694189 L254.390664,280.642224 L254.407802,280.523367 L254.45645,280.456475 L254.929667,280.096587 L255.178991,279.981047 L256.075118,279.414956 L256.263078,279.374047 L257.007731,279.296652 L257.410739,279.163421 L257.492557,279.116431 L257.538441,279.061702 L257.538441,278.183818 L257.547839,278.128536 L257.596488,278.003598 L258.341694,276.744818 L258.373758,276.664106 L258.383156,276.61988 L258.539052,275.043228 L258.596546,274.89286 L258.660673,274.796668 L258.898387,274.579962 L259.402562,274.014423 L259.461161,273.825358 L259.477746,273.726402 L259.463926,271.526718 L259.492672,271.355895 L259.521419,271.303377 L259.554036,271.271313 L259.582783,271.263021 L259.660731,271.257493 L259.750288,271.242013 L259.820497,271.208291 L259.893469,271.167382 L260.174304,270.932432 L260.457902,270.76161 L260.565703,270.639436 L260.791808,270.335383 L260.901267,270.21929 L260.971475,270.126416 L261.044448,269.974942 L261.090332,269.830655 L261.305381,269.383974 L261.394938,269.140179 L261.40323,269.094294 L261.405995,269.042329 L261.401019,268.995339 L261.377248,268.908546 L261.308145,268.752096 L261.295983,268.711188 L261.279398,268.62163 L261.284373,268.551422 L261.305381,268.461864 L261.716681,267.577347 L261.797394,267.476733 L261.85544,267.424767 L261.907958,267.40376 L262.035108,267.366168 L262.157282,267.316967 L262.244075,267.299829 L262.453042,267.316967 L262.549233,267.302593 L262.745486,267.224092 L262.794687,267.224092 L262.890878,267.235702 L262.945608,267.227409 L263.018028,267.19811 L263.076627,267.183736 L263.134121,267.178208 L263.233076,267.194793 L263.276196,267.209719 L263.360226,267.247311 L263.407216,267.261684 L263.4531,267.271082 L263.505065,267.271082 L263.548738,267.25892 L263.626686,267.230173 L263.673676,267.227409 L263.763787,267.239019 L263.809671,267.239019 L263.855555,267.230173 L264.007029,267.160518 L264.050702,267.146144 L264.146341,267.133982 L264.198306,267.133982 L264.297261,267.126243 L264.381291,267.099154 L264.459239,267.062115 L264.581413,267.021206 L264.674287,267.004069 L264.77269,266.995223 L265.102725,267.006833 L265.1956,266.989142 L265.300083,266.959843 L265.326066,266.957079 L265.93196,266.743689 L266.285767,266.655237 L266.332757,266.650814 L266.595901,266.647497 L266.783861,266.615434 L266.914881,266.580606 L266.960765,266.571761 L267.291353,266.586134 L267.358245,266.577842 L267.431218,266.55794 L267.60204,266.473358 L267.969668,266.37772 L268.059778,266.368874 L268.088525,266.39154 L268.445649,266.835457 L268.489322,266.905666 L268.503142,266.943258 L268.515305,266.989142 L268.564506,268.270587 L268.579432,268.317024 L268.602098,268.351852 L268.654063,268.412663 L268.718191,268.464628 L269.013951,268.638215 L269.138889,268.694603 L269.361677,268.757625 L269.384343,268.769787 L269.437414,268.810696 L269.466714,268.839443 L269.515362,268.902464 L270.005717,269.708481 L270.100802,269.830655 L270.219659,269.95504 L270.852089,270.196071 L273.951218,273.825358 L274.31387,274.060308 L274.516203,274.153182 L274.992184,274.194091 L275.078978,274.185799 L278.251079,273.109451 L280.376132,273.06025 L280.753158,273.127142 L281.926802,273.124377 L282.59406,273.208407 L282.639945,273.202326 L282.810767,273.156441 L282.857757,273.149807 L283.909227,273.304045 L284.721878,273.263689 L284.854555,273.237153 L284.93969,273.20509 L285.776665,274.947589 L286.171381,275.38819 L292.73229,275.446236 L292.630571,275.240586 L292.596296,274.947589 L292.607352,274.594335 L292.77541,274.278673 L293.306121,273.752385 L293.927495,273.275298 L294.091683,273.141515 L295.101139,272.60804 L296.087376,272.248152 L297.979691,271.828559 L298.672931,271.170146 L299.055485,270.563699 L299.067094,269.372917 L299.319182,269.178323 L299.771944,268.902464 L301.960573,267.838279 L302.331517,267.612727 L306.204599,270.088271 L308.379406,272.042502 L308.509872,272.13814 L308.623201,272.176285 L308.738741,272.106629 L308.833827,272.016519 L308.993593,271.958473 L309.098077,271.93249 L310.029031,271.906507 L311.788116,271.810869 L312.365816,271.575919 L315.897253,268.07931 L316.795591,266.96316 L317.02446,266.737608 L317.534163,265.939883 L318.074272,264.574409 L318.180967,264.41796 L322.051837,261.135847 L322.187831,260.874915 L322.227082,260.669264 L321.63943,259.560853 L321.516151,258.998632 L321.489615,258.132357 L321.605155,256.786785 L321.564799,255.934884 L321.549873,255.835929 L321.51007,255.706015 L321.487404,255.655708 L319.326417,253.23213 L324.782785,253.208911 L324.794394,253.006578 L324.788866,252.902647 L324.773939,252.803692 L324.670009,252.513459 L324.608645,252.128141 L324.606434,252.018682 L324.615279,251.913093 L324.647343,251.713524 L324.647343,251.605723 L324.644579,251.553758 L324.632417,251.504557 L324.634628,251.460883 L324.658399,251.426056 L328.581235,251.47581 L328.528164,252.163522 L328.053288,253.775003 L328.061581,254.742997 L327.949357,255.848091 L327.923375,255.937648 L327.815574,256.175362 L327.720489,256.311357 L327.612688,256.442376 L327.583388,256.491024 L327.546902,256.572842 L327.543585,256.693911 L328.357341,262.861209 L328.325277,263.014894 L328.297083,263.116061 L328.079824,263.501379 L328.023989,263.629634 L328.012932,263.725273 L328.099725,263.791059 L329.9058,264.458869 L329.993146,264.498673 L330.062249,264.554508 L330.714581,265.345598 L334.269236,268.265059 L334.394174,268.409899 L334.759037,269.325927 L334.80271,269.463027 L334.81432,269.682498 L334.805474,269.853874 L334.7126,270.402275 L334.744111,270.647728 L334.805474,270.813575 L334.854123,270.999324 L334.854123,271.05737 L334.846936,271.106019 L334.820953,271.192812 L334.291901,272.251469 L334.121079,273.002756 L334.069113,273.633528 L334.100624,273.999497 L334.158671,274.237211 L334.187971,274.289177 L334.210636,274.330085 L334.233302,274.353304 L334.26039,274.365466 L335.654611,274.370994 L335.6231,273.7358 L335.881269,272.506874 L336.895147,269.639931 L337.379973,269.192697 L337.565722,268.914074 L337.579543,268.821199 L337.550243,268.62163 L337.55356,268.525439 L337.574014,268.482871 L337.656385,268.401054 L337.682368,268.351852 L337.750365,268.004126 L337.742626,267.630418 L337.341829,265.803336 L337.305342,265.461691 L337.367811,265.165931 L338.074872,264.168637 L338.394957,263.553344 L338.522107,263.379758 L338.664735,263.25482 L339.655948,262.573741 L339.795259,262.521223 L339.896426,262.559368 L340.887638,263.434487 L341.128669,263.588725 L341.238681,263.683811 L341.291752,263.812066 L341.255819,264.060836 L341.270192,264.18301 L341.355327,264.214521 L341.421113,264.14763 L341.532231,263.892778 L341.632844,263.803221 L341.769945,263.788294 L341.870559,263.820358 L341.961222,263.809302 L342.065705,263.669437 L342.114354,263.521281 L342.114354,263.420667 L342.149182,263.321711 L342.300102,263.179636 L342.74402,262.842966 L342.880014,262.643397 L342.943589,262.359799 L342.899363,262.234308 L342.656674,262.057957 L342.575408,261.947945 L342.580937,261.858388 L343.123809,260.266809 L343.15532,260.007535 L343.050284,259.836712 L342.909314,259.676946 L342.828049,259.451394 L342.850715,259.271727 L343.886153,256.989671 L343.917664,256.827694 L343.898315,256.671245 L343.726387,256.332364 L343.666129,256.160436 L343.67995,255.818791 L343.619692,255.503129 L343.62522,255.334518 L343.683267,255.13716 L343.772824,254.934273 L343.882836,254.73968 L344.007221,254.581019 L344.326753,254.375369 L345.05648,254.093429 L345.304145,253.815912 L345.320177,253.733541 L345.326811,253.54337 L345.350582,253.468186 L345.424661,253.395213 L345.732583,253.218309 L345.892349,253.032561 L345.964769,252.835203 L346.045481,252.376912 L346.190321,252.012048 L346.253896,251.919174 L346.33295,251.849518 L346.512065,251.756644 L346.599411,251.687541 L346.675147,251.574765 L346.697813,251.470281 L346.721585,251.235332 L346.807825,251.003146 L348.350755,248.429199 L348.425387,248.344617 L348.495595,248.315871 L348.655361,248.303709 L348.726675,248.272198 L348.808493,248.184852 L348.837793,248.098058 L348.848849,248.007948 L348.903579,247.796217 L348.903579,247.750332 L348.932879,247.72435 L349.058369,247.66962 L349.266784,247.599964 L351.745644,247.239523 L351.814747,247.236759 L351.914256,247.255002 L351.968985,247.283749 L352.015422,247.318024 L352.090053,247.358933 L352.313394,247.419744 L352.444413,247.367778 L352.513516,247.205248 L352.673282,246.274846 L352.673282,246.07196 L352.638454,245.947022 L352.444413,245.613669 L352.438885,245.427368 L352.533971,245.282528 L352.655592,245.160907 L352.728012,245.039286 L352.724695,244.966866 L352.699265,244.893893 L352.635137,244.761216 L352.623528,244.60145 L353.415724,241.842308 L354.636358,240.084882 L354.711542,239.846615 L354.740842,239.371187 L354.770142,239.203681 L355.258838,237.994656 L355.238383,237.573958 L355.094096,237.153259 L355.050976,236.947609 L355.048765,236.73256 L355.081934,236.556209 L355.821612,234.26365 L355.63918,232.714639 L355.514795,231.671461 L355.071431,227.911156 L354.978556,227.110667 L354.98906,226.924919 L355.055951,226.777315 L355.659635,226.188558 L355.811108,225.956925 L356.225726,224.725234 L356.384386,224.463196 L356.654164,224.283528 L356.540835,223.913136 L356.563501,223.556565 L357.007418,221.932923 L357.109691,221.743857 L357.51491,221.324264 L357.73604,220.961612 L358.500595,218.787357 L358.773689,218.013404 L358.906367,217.790063 L359.250776,217.436256 L359.335911,217.218444 L359.312139,217.038223 L359.164536,216.693814 L359.121415,216.514147 L359.131919,216.331162 L359.161219,216.180241 L359.164536,216.030426 L359.103172,215.858498 L358.987632,215.702602 L358.861036,215.56329 L358.753235,215.415134 L358.694636,215.218329 L358.703481,215.099472 L358.802989,214.759485 L358.828419,214.594744 L358.813493,214.319438 L358.825655,214.166305 L358.900839,214.006539 L359.025224,213.893764 L359.295002,213.698617 L359.384559,213.57976 L359.587998,213.070057 L359.616745,212.5598 L359.634436,212.522208 L359.692482,212.453105 L359.706303,212.418278 L359.69801,212.367971 L359.649362,212.290023 L359.636094,212.257959 L359.65489,211.916314 L359.634436,211.808513 L359.562016,211.701818 L359.477434,211.617789 L359.449793,211.527679 L359.649362,211.241316 L359.686954,211.074917 L359.657654,210.913492 L359.491807,210.683518 L359.475222,210.608886 L359.491807,210.535914 L359.546537,210.472892 L359.712937,210.451884 L359.845614,210.509931 L359.967788,210.593407 L360.115945,210.654771 L360.327123,210.689599 L360.411705,210.721662 L360.730132,210.916256 L360.81195,210.93063 L361.254761,210.857657 L361.379147,210.875347 L361.626259,210.860421 L362.017105,210.620496 L362.255925,210.600041 L363.023244,210.814537 L363.484298,210.263924 L363.554507,210.091996 L363.592652,209.901272 L363.770661,209.579529 L363.823732,209.405942 L363.861324,209.048818 L363.855796,208.892369 L363.762921,208.50097 L363.78227,208.404779 L363.872933,208.35005 L364.959231,208.013933 L365.290925,207.966943 L365.626489,207.790039 L365.984166,207.147106 L366.269976,206.993421 L366.438587,207.040411 L366.684594,207.277572 L366.870342,207.335618 L367.068253,207.288628 L367.228019,207.16369 L367.485082,206.834208 L368.047303,206.456629 L368.241897,206.384762 L368.430963,206.387526 L368.505041,206.471555 L368.514992,206.613631 L368.502277,206.784453 L368.549267,206.970202 L368.674758,206.970202 L368.809647,206.851345 L368.894229,206.686051 L368.896993,206.596493 L368.876539,206.538447 L368.864929,206.482612 L368.902521,206.407981 L368.952275,206.398583 L369.241402,206.305708 L369.375738,206.390843 L369.500676,206.51744 L369.645516,206.60755 L369.839004,206.578803 L369.976105,206.439492 L369.99877,206.271433 L369.986608,206.089002 L370.030834,205.92039 L370.170146,205.789924 L370.578129,205.593119 L370.744529,205.462653 L370.973398,205.093919 L371.465964,203.78428 L371.695938,203.450375 L372.866266,202.473536 L372.88672,202.395588 L372.965774,202.282812 L372.979595,202.180539 L372.918231,202.180539 Z M361.901565,177.908824 L361.799845,177.943652 L361.776627,178.009438 L361.771098,178.070249 L361.753961,178.117239 L361.735165,178.410235 L361.815324,178.764042 L361.83799,178.710971 L361.88111,178.662876 L361.930864,178.578294 L362.049721,177.986772 L362.040876,177.925962 L361.98283,177.908824 L361.901565,177.908824 Z" id="Fill-3"></path>
        </g>
    </g>
</svg>