
<svg width="158px" height="115px" viewBox="0 0 158 115" version="1.1" xmlns="http://www.w3.org/2000/svg" xmlns:xlink="http://www.w3.org/1999/xlink">
    <!-- Generator: Sketch 51.2 (57519) - http://www.bohemiancoding.com/sketch -->
    <desc>Created with Sketch.</desc>
    <defs></defs>
    <g id="Page-1" stroke="none" stroke-width="1" fill="none" fill-rule="evenodd">
        <g id="SN-EPS-01-0001" transform="translate(-203.000000, -152.000000)" fill="#7F807C">
            <polyline id="Fill-3" points="316.684469 183.665346 316.662048 183.655597 316.730286 183.702389 316.684469 183.665346 317.464819 183.863723 317.831355 183.817419 318.215437 183.584435 318.554677 183.31392 318.929011 183.096533 319.329666 183.043893 319.733732 183.232522 319.894579 183.428462 319.975489 183.655597 320.077846 184.386231 320.161194 184.5656 320.417574 184.901915 320.534553 185.097856 320.580858 185.305007 320.584757 186.187714 320.681265 186.613714 320.892315 187.01778 321.203286 187.352146 322.723043 188.390338 323.049123 188.732015 323.215331 189.163377 323.077393 189.525526 322.653343 189.596201 321.780871 189.506029 321.520105 189.704894 321.67364 190.031462 322.25805 190.614896 322.480311 190.785979 322.706958 190.869326 322.952615 190.879075 323.497544 190.76112 323.766596 190.76112 324.024439 190.832283 324.256935 190.993617 324.391461 191.17396 324.454825 191.383548 324.461162 191.600448 324.322249 192.264793 324.339795 192.471944 324.417294 192.709315 324.448489 192.780477 325.090413 192.98909 326.048669 193.908841 326.732999 194.193978 327.013749 194.160347 327.82042 193.914202 328.21425 193.852788 328.453571 193.942472 328.652923 194.142312 328.984365 194.558076 330.390554 195.383756 330.836538 195.728358 331.108028 195.880918 331.706085 196.027143 331.977575 196.169955 332.198861 196.422435 332.319739 196.68174 332.913897 198.777133 332.92852 199.056421 333.28092 199.270884 334.143643 200.289579 334.592551 200.668787 336.199068 201.427691 337.615494 202.535583 337.811434 203.300824 338.31737 203.750219 338.474318 204.120654 338.669771 204.419439 339.05824 204.589546 339.473029 204.673869 339.756217 204.689466 339.614867 205.006286 339.500812 205.195402 339.452558 205.375745 339.513484 205.655521 339.692853 205.807107 339.954107 205.870471 340.145661 206.024981 340.122265 206.465603 339.980915 206.692251 339.481802 207.177228 339.294148 207.44823 339.242482 207.71777 339.216649 208.035077 339.147436 208.323626 338.960757 208.495683 338.477242 208.783745 338.323707 209.234116 338.379272 209.784406 338.680981 210.92788 338.746295 211.462086 338.698041 212.595811 339.027045 212.661124 341.408551 213.543344 341.585969 213.885509 341.474351 214.212076 341.096605 214.354888 341.306194 214.715087 341.551363 215.041655 341.863795 215.301934 342.870793 215.662133 343.22953 215.904865 343.480548 216.292847 344.421745 218.493034 344.478285 219.07062 344.290143 220.132695 343.716944 222.136455 343.714507 223.227775 343.970399 223.901381 344.385676 224.317633 344.86188 224.678319 345.308351 225.219349 345.463349 225.707251 345.460424 226.238045 345.308351 227.301095 344.900873 228.466015 344.046923 229.338973 341.867695 230.565795 342.219608 230.863605 342.563235 231.375877 343.087205 232.396035 343.407923 233.334307 343.973811 234.216526 344.442703 234.74732 345.916644 235.823043 346.078465 236.003874 346.306575 236.391368 346.451337 236.56245 346.717465 236.696002 346.952886 236.723785 347.159062 236.814444 347.336481 237.112741 347.280916 237.581633 346.915355 238.976613 346.976769 239.265649 347.200005 239.321214 347.877998 239.653631 348.074913 239.799855 348.172396 239.995308 348.330806 240.502219 348.445836 240.682075 348.750469 240.93358 348.893282 240.942841 349.032682 240.800029 350.103044 239.98556 350.170307 239.482548 350.32238 238.951267 350.57876 238.516494 350.969666 238.311292 351.334739 238.363933 351.517032 238.562798 351.664231 238.824052 351.920611 239.022917 352.163343 239.05996 352.66148 238.951267 353.304867 238.923972 353.419897 239.041926 353.38529 239.411873 353.453041 239.67264 353.736716 239.700423 354.055972 239.617075 354.241677 239.535677 354.243627 240.104001 354.427869 240.610912 355.057121 241.483871 355.635681 241.989807 355.743887 242.242287 355.704894 242.530349 355.378814 242.998754 355.282306 243.279017 355.35883 243.747909 355.603512 244.070578 355.908146 244.350841 356.145516 244.693005 356.158677 245.603008 356.286379 246.02852 356.736262 246.127465 357.090612 246.342415 357.393297 246.569062 357.71499 246.76744 358.130267 246.876133 358.398832 246.982877 358.370562 247.162733 358.229212 247.36111 358.178033 247.517083 358.530921 248.021069 358.673733 248.337888 358.773653 248.499222 358.874548 248.588419 359.095834 248.688339 359.056354 248.806293 358.914029 248.912062 358.830193 249.011007 358.827756 249.238629 358.765855 249.751389 358.69518 250.002895 359.092422 250.086243 359.389745 249.959515 359.576424 249.661218 359.636864 249.210847 359.851326 249.43652 359.96928 249.707522 360.026308 250.002895 360.080898 250.679913 359.996088 250.831499 359.832317 250.931419 359.610543 251.112249 359.496976 251.112249 359.336129 251.031339 359.155299 250.967975 358.988116 251.058146 358.970081 251.211194 359.092422 251.357419 359.240109 251.491458 359.296649 251.627446 359.189418 251.887725 359.049042 252.159702 358.953509 252.42973 359.031495 252.854755 358.993965 252.970272 358.917928 253.078478 358.853589 253.223727 358.8648 253.376288 358.96472 253.438677 359.084136 253.456711 359.1475 253.476208 359.181619 253.501066 359.274715 253.61902 359.384871 253.808624 359.466756 254.025524 359.521347 254.296038 359.54523 254.603597 359.49064 254.87996 359.312246 255.070052 359.312246 255.188494 359.580811 255.675908 359.627603 255.919127 359.41899 256.253006 359.066589 256.315395 358.729299 256.425063 358.459759 257.107443 358.258457 257.253667 358.101509 257.442784 358.125393 257.828816 358.224825 257.893155 358.419303 257.965292 358.617681 258.098843 358.741484 258.372283 358.74782 258.643285 358.616219 259.463115 358.637665 259.741916 358.697129 259.923234 358.729299 260.102603 358.665447 260.407237 358.136116 260.651919 357.951873 260.814227 358.235548 260.914147 358.420278 261.032102 358.717601 261.543886 358.922315 261.724717 358.907692 261.534138 359.052454 261.25485 359.250344 261.1832 359.406317 261.596527 359.463344 261.814889 359.622729 262.237477 359.67147 262.473385 359.87326 262.156566 359.927363 262.012779 360.250518 262.454376 360.198852 263.067055 360.026308 263.753335 359.980003 264.440101 359.274715 264.412318 357.598498 263.806463 356.736262 263.716291 354.53705 263.889811 353.475462 264.085751 351.510696 264.815897 350.545616 264.980643 348.456559 264.890472 347.931614 264.772517 346.387973 264.123282 346.353854 264.085751 346.303651 264.061868 346.126719 264.061868 346.016076 264.104273 345.733376 264.30265 344.760497 264.825158 344.421745 264.90022 343.879253 264.843193 342.339511 264.331895 341.705386 264.349929 341.247216 264.573653 340.403015 265.349616 339.456457 265.873099 335.144304 267 334.73049 266.783101 334.005217 265.673259 333.54851 265.349616 332.441106 264.9436 331.904463 264.815897 331.462378 264.801275 331.031991 264.881211 330.534342 265.079588 329.787623 265.485117 329.563413 265.554817 329.200289 265.540682 329.107193 265.439787 329.087209 265.260419 328.952195 265.014275 328.233259 264.212966 327.813108 263.871289 327.314484 263.672911 326.789539 263.610522 325.139642 263.700694 324.613235 263.63538 324.462624 263.420918 324.351981 263.166001 323.944503 262.971035 323.189011 262.914007 322.944329 262.815062 322.676251 262.573305 322.622148 262.355431 322.662116 262.175088 322.673814 262.075168 322.039201 261.516104 321.041464 261.004319 320.11294 261.013092 319.685478 262.051284 319.60213 262.544548 319.307732 262.805801 318.889043 262.833584 318.433799 262.652753 317.939561 262.706856 317.495526 262.663964 317.11973 262.465099 316.824845 262.042024 316.711277 261.534138 316.802911 261.113012 317.183094 260.227868 317.279602 259.77701 317.307872 259.254015 317.198691 258.767088 316.871149 258.415663 316.481218 258.354248 316.040595 258.424923 315.57219 258.443445 315.112071 258.197788 314.874213 258.486338 314.669499 258.354248 314.502316 258.334752 314.321973 258.363022 314.093376 258.363022 313.77022 258.462942 313.667376 258.478052 313.551859 258.415663 313.307177 258.154409 313.166802 258.092994 312.973298 258.098843 312.539987 258.225084 312.319188 258.263589 312.096928 258.225084 311.781571 258.01842 311.567596 257.957006 311.342411 257.97504 310.577658 258.135399 310.453367 258.182191 310.39439 258.253354 310.325177 258.315743 310.176029 258.325978 310.052225 258.279187 309.832402 258.126626 309.71396 258.073985 308.487626 257.737669 300.224494 257.43401 291.172239 257.39648 282.118035 257.362361 273.067242 257.32483 264.013037 257.287786 262.765257 257.278525 262.032674 257.388194 261.370278 257.69429 259.886589 258.75734 258.333201 259.472864 256.904102 260.516905 250.457563 263.521325 249.577781 263.710442 244.919077 263.429692 242.892896 263.573966 242.401095 263.483307 240.805789 262.952026 239.898224 262.87209 237.969526 263.204019 237.796981 263.28493 237.685364 263.364378 237.56546 263.420918 237.355384 263.383875 236.804119 263.166001 236.531654 263.114335 236.263577 263.166001 234.499625 264.123282 232.45346 265.222888 231.681396 265.540682 230.394623 265.545556 229.061058 265.881385 228.590216 265.900394 225.128601 265.664485 224.190329 265.892108 223.624928 266.303973 223.455796 265.971556 223.333942 265.629879 223.22135 265.09616 223.06099 264.923616 222.676908 264.654563 222.088599 264.076003 221.82832 263.744074 221.718652 263.411657 221.718652 262.331548 221.776654 262.094177 222.02621 261.860706 222.086162 261.624797 222.269917 261.35477 223.540606 260.597328 224.097233 260.580756 224.889281 260.643145 225.74518 260.111376 226.015695 259.885704 226.163869 259.667342 226.274999 259.453855 226.444619 259.208685 227.419447 258.496086 227.891264 259.046376 228.252926 260.030466 228.605813 260.255163 228.621898 259.848173 228.883152 259.534278 229.33596 259.398289 229.838484 259.516244 230.691946 260.004145 231.465472 260.211296 232.306749 260.605614 232.75127 260.643145 233.255257 260.398463 233.869886 259.642971 234.322206 259.398289 234.913927 259.425585 235.421325 259.604953 235.926286 259.659056 236.510208 259.298857 236.807531 259.182852 237.005908 259.417299 237.155057 259.741916 237.300794 259.93152 239.290906 259.192601 239.747125 259.083907 240.359805 259.046376 240.75461 258.928422 241.08459 258.686665 241.466235 258.496086 242.025299 258.514608 242.47372 258.75734 243.553342 259.615189 243.769754 259.848173 244.065127 259.904225 245.702838 259.93152 245.859786 260.047038 246.19074 260.392127 246.312594 260.463777 246.538266 260.435019 247.193838 260.273198 247.484337 260.093829 247.768499 259.752152 248.131136 259.543539 248.664367 259.767262 248.804742 259.652232 248.966076 259.577658 249.132284 259.571809 249.482248 259.823315 249.628959 259.795532 249.761048 259.733143 249.902886 259.767262 250.101751 260.004145 250.272346 260.444768 250.409309 260.643145 250.575517 260.796193 250.757323 260.905374 250.988845 260.976536 251.297378 260.984822 251.589826 260.922921 252.755233 260.444768 253.223638 259.966614 254.006913 258.947919 254.300824 258.733457 254.56159 258.596006 254.74632 258.415663 254.816508 258.064237 254.666872 257.903878 254.390508 257.7752 254.23551 257.638724 254.451434 257.43401 254.202853 256.846676 253.966945 256.055116 253.887009 255.244059 254.102933 254.594823 254.399281 254.41448 254.764842 254.394983 255.148924 254.430565 255.497425 254.394983 255.851775 254.239498 256.093533 254.054281 256.255354 253.817885 256.369896 253.509839 256.896304 254.01675 257.376407 254.16005 257.699562 253.879299 257.764388 253.14964 257.37007 253.566379 256.992812 253.556631 256.609217 253.386036 256.195402 253.329984 255.810345 253.501066 255.178169 253.960697 254.720487 254.060617 254.462158 254.060617 254.078563 254.11667 253.731524 254.296038 253.579938 254.675247 253.579938 256.189155 253.868487 257.163496 253.912354 257.43401 253.927464 257.856599 253.91138 258.064237 253.834856 258.236294 253.21584 258.767088 253.018437 259.027367 251.733126 260.192774 251.393886 260.398463 251.091689 260.417472 250.824099 260.301468 250.599888 260.111376 250.7427 259.335413 249.970149 258.983987 248.157943 258.694951 246.92966 259.472864 246.480264 259.577658 246.392042 259.496747 246.280424 259.30763 246.095207 259.127287 245.79106 259.046376 245.478141 259.102916 245.046779 259.346136 244.734834 259.398289 244.440436 259.316404 244.053916 259.117539 243.420766 258.694951 243.389084 258.558475 243.422228 258.378132 243.434413 258.208024 243.340342 258.145635 242.99964 258.098843 242.822221 258.045715 242.705242 257.983326 242.54537 257.766427 242.199306 257.083072 242.10621 256.992413 241.989718 256.936848 241.890285 256.846676 241.793777 256.297361 241.660226 255.989802 241.500841 255.989802 241.500841 256.189155 241.46526 256.297361 241.192796 256.828155 241.074354 256.992413 240.979796 257.884381 240.264759 258.334752 239.220231 258.514608 238.949716 258.632562 238.425258 258.975214 238.268311 259.046376 237.997309 259.018594 237.381217 258.847024 236.412238 258.847024 236.126126 258.921598 235.640661 259.136548 235.366735 259.208685 235.059664 259.208685 234.235446 259.046376 233.955183 259.102916 233.601321 259.346136 233.369799 259.398289 233.281577 259.52453 233.157286 259.80528 232.980843 260.102603 232.75127 260.273198 231.705767 259.93152 230.858154 259.453855 230.463836 259.117539 230.295678 258.767088 230.192834 258.71396 229.961312 258.643285 229.725404 258.525331 229.596726 258.334752 229.641568 258.083246 229.802902 257.847338 230.035886 257.686004 230.295678 257.624589 230.295678 257.43401 229.900873 257.42475 229.655216 257.225885 229.509479 256.909065 229.422719 256.539118 229.248225 258.694951 229.059596 258.694951 228.721818 258.236294 227.780134 257.42475 227.665592 256.918814 227.365344 257.153747 227.167942 257.442784 226.935933 257.686004 226.529429 257.784461 226.226258 257.723047 226.015695 257.549528 225.9148 257.271702 225.935271 256.918814 226.298395 256.234484 226.805306 255.727574 227.140159 255.134878 226.982724 254.215615 226.869157 254.92724 226.807255 255.125617 226.670779 255.34934 226.553313 255.466807 226.430972 255.539919 225.921624 256.008324 225.704725 256.278839 225.599443 256.613205 225.571173 257.163496 225.752491 258.092994 225.700825 258.514608 224.930711 258.838251 223.811121 259.767262 222.957659 260.07482 222.482917 259.795532 222.28454 259.117539 222.242135 258.236294 222.382022 257.32483 222.786089 256.406054 223.442148 255.892807 224.336553 256.189155 224.377008 255.799224 224.011448 255.52091 223.483578 255.415141 223.033208 255.567214 222.508263 256.207189 222.216302 256.425063 221.894608 256.353413 222.045219 256.135052 222.096398 255.919127 222.045219 255.694429 221.894608 255.47753 222.447823 254.708878 222.557979 254.323821 222.433201 253.864189 222.242135 253.864189 222.123206 254.150302 221.945787 254.277029 221.788839 254.178084 221.718652 253.780354 221.783965 253.476208 221.933114 253.14038 222.84799 251.78878 222.939624 251.456851 222.913304 251.120535 222.792425 250.508831 222.766105 250.210533 222.82167 249.669991 223.073663 248.588419 223.131178 247.892392 223.08926 247.46103 222.978617 247.247055 223.001526 246.6412 223.095597 246.352163 223.256443 246.138188 223.66051 245.740458 223.740933 245.497726 224.119166 244.857264 225.010647 244.657912 226.121464 244.669122 230.32931 244.702266 234.208639 244.739797 239.859718 244.79195 243.187294 244.82022 245.509822 244.84849 246.466616 244.84849 246.638674 244.720301 246.685465 242.872026 246.738593 240.610912 246.840463 240.249738 247.135349 240.076219 248.91636 239.914885 250.063245 239.544937 250.384451 239.535677 252.10746 239.706272 252.523712 239.662892 253.292364 239.411873 253.882622 239.085306 254.47873 238.861583 255.275652 238.894727 258.063173 239.492297 259.003882 239.492297 259.835411 239.340224 260.671326 239.022917 261.405859 238.53599 261.930804 237.851173 262.086777 237.130775 262.182797 235.514998 262.53861 234.937899 263.648452 233.784677 264.231399 233.549256 264.935225 234.0084 266.08211 235.082661 267.349387 236.003874 267.354261 236.003874 267.35816 236.01216 267.363035 236.01216 269.031453 236.867084 269.895151 237.093732 270.873878 237.174155 271.257961 237.282849 272.110448 237.805356 272.579828 237.960354 273.101361 238.056375 273.3748 238.230382 273.890484 238.942006 274.602109 239.582468 275.456546 239.942667 276.388482 240.051848 277.335527 239.942667 278.164131 239.734054 278.45463 239.833974 279.422147 240.73569 279.7609 240.93358 280.13036 241.0335 280.934106 241.070056 281.274321 241.169489 281.559458 241.456088 281.755886 241.719779 281.996669 241.943502 282.268646 242.123358 283.198632 242.602486 283.866389 242.791603 284.557055 242.844731 286.008574 242.72044 287.39673 242.98072 288.136137 242.952937 288.693739 242.683397 289.919098 241.753411 290.30318 241.582816 290.743802 241.593052 291.840972 241.194834 292.869415 241.179724 293.89591 240.905798 295.824607 240.73569 297.089447 240.184912 297.817156 239.076532 297.914639 237.74248 297.301959 236.506885 297.044605 236.301196 296.465069 235.956595 296.232085 235.757242 296.099509 235.534494 295.936225 235.046593 295.805598 234.814096 295.378136 234.468032 294.763994 234.154625 294.115246 233.928952 293.578116 233.837318 293.237413 233.892883 292.716855 234.198005 292.416608 234.333993 292.15048 234.372499 291.704983 234.333993 291.432031 234.344229 290.913423 234.468032 289.732906 235.082661 288.258478 235.406304 287.77545 235.624178 286.35805 236.506885 284.859739 237.040604 284.41668 237.146373 283.950224 237.083984 283.336083 236.794947 281.275783 235.317107 281.017941 235.036844 280.851733 234.684931 280.512005 233.549256 280.267811 233.055018 279.922234 232.622682 279.428484 232.22544 278.331314 231.709268 277.281912 231.628845 276.247619 231.907158 274.678146 232.784016 274.362789 232.893684 274.005027 232.755746 272.957086 232.126007 272.779668 231.926167 272.284455 230.233866 272.055858 229.755225 271.73319 229.304854 270.830499 228.57422 269.898075 228.266662 267.319655 228.147733 265.798923 227.571122 265.252531 227.545777 263.389147 228.229619 261.466298 229.457902 260.922344 229.589991 260.706907 229.428657 260.21072 228.770161 259.972374 228.537664 258.867406 228.367069 257.684452 228.816953 256.604343 229.59974 255.808883 230.466849 255.525695 230.907472 255.261517 231.457762 255.060215 232.026087 254.966631 232.557369 254.91594 233.596536 254.513823 233.729112 253.264094 233.729112 251.679998 233.723263 250.092003 233.723263 248.506444 233.713515 246.920399 233.703767 245.331916 233.694993 243.747333 233.694993 242.160313 233.685732 240.574754 233.675984 238.989684 233.675984 237.403638 233.667698 235.81808 233.667698 234.230572 233.656975 232.644527 233.648201 231.059456 233.648201 229.474385 233.638453 227.88639 233.632604 227.634884 233.253396 227.50572 232.983369 227.521804 232.244449 227.959502 231.837458 228.601914 231.504067 229.248225 230.998131 229.114674 230.925994 228.850495 230.727129 228.711095 230.655966 229.035225 230.34792 229.272108 229.95409 229.227754 229.637271 228.711095 229.574882 228.777383 229.988696 228.65358 230.494632 228.383065 230.854831 228.011656 230.8173 227.8318 231.367591 227.43212 231.746799 226.932521 231.883275 226.444619 231.728765 225.994736 231.257923 225.880681 230.784156 226.095631 229.755225 226.143397 229.105989 226.211148 228.845223 226.444619 228.499159 227.350722 227.427822 227.50572 227.057875 227.657793 227.157795 228.053573 227.337163 228.20126 227.427822 228.147644 227.309868 228.011656 226.878507 228.900699 226.716198 228.943591 227.238706 229.127834 227.72612 229.418333 228.024905 229.788767 227.95033 229.594777 227.35666 229.551397 226.698164 229.444166 226.176143 229.059596 225.986539 229.192173 225.636088 229.74685 223.199018 229.788767 222.777404 229.227754 223.597235 228.996232 224.101708 228.795905 225.181818 228.531726 225.830566 228.195411 226.265827 227.853246 226.166882 227.665592 226.166882 227.406287 226.518795 226.956891 226.651859 226.429022 226.725459 225.935271 226.878507 225.66037 227.110516 225.570198 227.328877 225.526331 227.545777 225.396679 227.788996 225.255329 227.916699 224.965317 228.086319 224.793748 228.229619 224.541267 228.708747 224.348738 228.878367 224.088459 228.763337 224.009011 228.509394 224.009011 228.185264 223.955395 227.906951 223.725823 227.788996 223.400231 227.565273 223.267654 227.039841 223.299823 226.48955 223.478704 226.166882 223.323707 225.806196 223.215013 225.399692 223.131178 224.560365 223.156036 224.118768 223.241821 223.868237 223.400231 223.687894 223.987077 223.218027 224.285375 223.109333 224.612429 223.091299 225.364997 223.181471 225.721784 223.289189 225.964516 223.497315 225.935271 223.848741 226.292059 223.52656 226.574759 223.137603 226.932521 222.92899 227.50572 223.137603 227.495971 222.560018 227.699711 222.298764 228.021404 222.14669 228.377216 221.866427 228.057472 221.981457 227.712383 222.046771 227.389715 221.981457 227.140159 221.702169 228.294356 220.991519 228.711095 220.611823 229.371541 219.800279 229.737589 219.484922 230.554982 219.250963 230.954175 218.744052 231.261245 218.638771 231.474245 218.738691 231.677985 218.927808 231.890497 219.043325 232.14249 218.909286 232.296026 218.790357 232.710815 218.591492 232.910167 218.45794 231.302188 218.394089 230.612497 218.132348 230.658314 217.564023 230.256685 217.772636 230.107049 218.15087 230.185035 218.548599 230.469685 218.809366 230.152378 218.990197 229.888687 218.9707 229.63377 218.872242 229.33596 218.809366 229.122472 218.891252 229.029864 219.088654 228.978198 219.331874 228.900699 219.539512 228.243177 220.702482 228.011656 220.972022 227.750402 221.090464 227.199136 221.223528 226.89499 221.422393 226.669804 221.71143 226.351523 222.327034 226.095631 222.577565 225.520482 222.777404 224.97799 222.65945 224.424775 222.468871 223.811121 222.417205 224.41259 221.341482 224.431599 221.152853 224.859548 221.027588 225.571173 220.242363 225.227546 220.342283 224.897079 220.853581 224.612429 220.972022 224.049466 220.991519 223.826718 221.043185 223.637601 221.152853 223.936874 221.503791 223.912503 221.739212 223.478704 222.233938 223.406567 222.441089 223.337842 222.811036 223.208677 223.038658 222.701279 223.612832 222.592098 223.848741 222.475606 224.579862 222.592098 227.057875 222.433201 227.057875 222.281615 222.037997 222.151963 221.279581 221.731325 220.027901 221.263894 219.088654 221.038709 218.809366 220.702881 218.655343 220.040485 218.512043 219.78703 218.278572 219.654453 217.899364 219.436092 216.492687 219.269396 216.041829 219.065657 215.715261 218.580192 215.221511 218.360369 215.103069 218.192211 215.066513 218.079618 214.960257 218.041112 214.606394 218.072794 214.345627 218.203421 213.83238 218.231204 213.535058 218.108375 213.101747 217.799842 212.633342 216.996584 211.821797 215.171218 210.95615 214.887056 210.657365 214.745705 210.3152 213.84204 208.964576 213.166971 207.159194 212.135603 205.735944 211.403019 205.057951 210.967759 204.764041 210.461823 204.527157 209.911532 204.437961 209.495281 204.319519 208.413709 203.750219 208.2475 203.555254 207.403299 203.564027 206.671203 203.47483 206.027329 203.516748 205.455592 203.933487 205.673954 204.185968 205.979563 204.275652 205.788009 204.65486 205.455592 204.807421 205.543327 204.897592 205.701736 205.085734 205.788009 205.16762 205.632036 205.546828 205.543327 205.57461 205.455592 205.71791 205.122201 205.500036 203.404066 203.37491 203 203.004963 207.21467 201.877574 208.461475 200.857904 212.273054 199.237252 213.146987 198.531476 217.206172 193.690479 218.018691 192.482667 219.80019 190.509615 223.350027 184.205888 225.123727 181.854115 228.465438 176.245928 228.582417 175.985161 228.536601 175.711235 228.39525 175.388079 228.937742 174.341114 229.187786 172.890569 229.248225 170.013851 229.400786 169.70873 229.753186 168.54381 230.195758 167.481247 230.310301 165.694875 230.494056 165.164081 230.866927 164.840925 231.808612 164.614277 232.207316 164.352536 232.367676 164.082509 232.478319 163.77495 233.523822 159.295127 233.656886 158.238901 233.849902 157.744175 234.202302 157.2475 234.674607 156.787869 235.218073 156.454965 235.799071 156.337011 236.64376 156.498832 236.930847 156.517354 237.22232 156.473974 237.481137 156.346759 238.232242 155.815478 238.526153 155.678514 238.833224 155.625386 239.154917 155.688263 239.389363 155.833512 239.579455 156.023116 239.885551 156.483235 240.319837 156.943354 240.836983 157.19486 241.413107 157.256761 242.023349 157.175851 242.205642 157.039375 242.38696 156.949203 242.578514 156.915084 242.791514 156.967725 243.118569 157.09494 243.28039 157.113949 243.469994 157.076418 244.481379 156.626047 244.84304 156.579256 245.735008 156.79713 245.94947 156.79713 246.579209 156.688436 246.987175 156.706958 248.141859 157.085679 248.97095 157.132471 249.186387 157.19486 249.788831 157.483896 250.189973 157.589665 250.581366 157.56432 250.9596 157.437105 251.311025 157.212894 251.875451 156.697697 252.178622 156.507606 252.566604 156.446192 253.665236 156.669427 254.041032 156.635308 254.345666 156.483235 254.590835 156.256588 255.210826 155.36462 255.527645 155.084844 255.898567 154.914249 256.285574 154.948368 256.524894 155.14772 256.672581 155.41726 256.8461 155.659993 257.161457 155.796469 257.538228 155.787208 257.896965 155.697036 258.971713 155.256414 259.370905 155.166242 260.191223 155.137485 261.399523 155.327089 261.811388 155.309054 264.553092 154.885979 265.092172 154.678341 265.25838 154.569647 265.367074 154.417087 265.376822 154.218222 265.292987 154.056888 264.879172 153.650384 264.727099 153.298959 264.778277 152.957281 265.000051 152.696027 265.364149 152.596107 265.733122 152.705288 265.963669 152.957281 266.164483 153.264352 266.430611 153.516345 266.614854 153.578247 266.803971 153.559725 266.985776 153.488563 267.143698 153.36086 267.268476 153.199039 267.326478 153.028931 267.406902 152.658496 267.57116 152.416252 267.833877 152.245657 268.404638 152 268.69465 152.155485 269.028041 152.506423 269.245428 152.938272 269.511556 153.270689 269.982398 153.34575 270.761286 153.165407 275.122667 153.478327 275.41804 153.444695 276.279788 153.21756 276.533244 153.208787 276.758429 153.270689 277.475415 153.61529 277.757141 153.659158 278.039841 153.650384 279.109227 153.354524 279.381692 153.34575 280.416472 153.559725 280.693323 153.559725 280.965788 153.534867 281.232403 153.46078 281.485371 153.34575 282.155566 152.938272 282.400735 152.848101 282.900334 152.81057 284.519037 153.453956 284.716927 153.587508 284.822696 153.78686 284.812947 154.075409 284.679396 154.578908 284.721314 154.777773 284.960146 154.885979 285.940336 154.805068 286.187455 154.92351 286.272753 155.128224 286.306872 155.597604 286.438961 155.805729 286.705576 155.933432 287.318743 155.967064 287.609242 156.023116 287.816393 156.147894 288.249704 156.716219 288.431022 156.886814 289.036391 157.312814 289.9035 158.322249 291.421308 159.701631 292.267946 160.186608 292.441466 160.348429 292.886475 160.882635 293.11361 161.034221 293.616134 161.233573 293.851067 161.357864 294.004603 161.541131 294.021662 161.721475 293.860816 162.125054 293.813049 162.352188 293.866177 162.522783 294.117683 162.8552 294.229788 163.091596 294.237587 163.314831 294.10696 163.793959 294.203468 164.210211 294.638729 164.452456 295.63939 164.741005 295.849953 164.865783 296.252069 165.172854 296.42169 165.353197 296.547442 165.571071 296.762879 166.282696 296.884733 166.534202 297.046554 166.760362 297.248344 166.959227 297.479378 167.102527 297.695303 167.155655 297.901966 167.140057 298.103756 167.064996 298.522444 166.822751 298.933822 166.508856 299.109778 166.319739 299.561124 165.660756 299.753652 165.471151 299.970552 165.343449 300.196224 165.282035 300.43262 165.272286 300.676815 165.300069 300.623687 165.642234 300.365845 166.434282 300.448218 166.704797 300.568121 166.788632 300.831812 166.884652 300.948304 166.968488 300.976574 167.011867 301.01508 167.111787 301.049199 167.148831 301.110613 167.183437 301.267073 167.245826 301.337748 167.28287 301.503957 167.434943 301.562446 167.462726 301.738403 167.500256 301.906073 167.453465 302.606 167.074744 302.753686 167.049398 303.232814 167.049398 303.322011 167.031364 303.515515 166.974824 304.29099 166.642408 305.635279 166.353858 305.982805 166.211046 306.12513 166.163767 306.270379 166.163767 306.439024 166.192524 306.486304 166.561984 306.057379 167.363293 306.0101 167.779545 306.270379 167.950627 307.20134 167.589941 307.58591 167.599689 307.711175 167.742501 307.917839 168.093439 308.045054 168.248925 308.745956 168.724153 308.901441 168.91327 308.965779 169.112622 308.99015 169.581515 309.024756 169.78038 309.380081 170.67186 309.545315 170.942862 309.737843 171.197293 309.961566 171.430276 310.606415 171.927439 310.755564 172.122892 310.811129 172.340279 310.796019 172.566926 310.696587 173.017784 310.696587 173.232246 310.751665 173.41259 310.862308 173.567587 311.323401 174.10813 311.550536 174.512196 311.674827 174.965978 311.681163 175.477763 311.625111 175.696125 311.539326 175.919848 311.482298 176.146495 311.516417 176.370219 311.648507 176.550074 311.827388 176.687038 312.218294 176.920022 312.421545 177.075019 312.59409 177.265598 312.885076 177.687212 312.994257 177.904598 313.023014 178.100539 312.97866 178.29063 312.591166 178.896486 312.498557 179.110461 312.471262 179.346857 312.506843 179.569605 312.749575 180.219328 313.13317 180.210554 313.899872 180.076028 314.272257 180.09455 314.455037 180.176435 314.927829 180.508852 315.114021 180.589275 315.702817 180.744273 316.021099 180.933877 316.295025 181.185383 316.478293 181.493428 316.53922 181.869225 316.39592 182.854776 316.398357 183.086785 316.445149 183.31392 316.535321 183.556165 316.684469 183.665346"></polyline>
        </g>
    </g>
</svg>