
<svg width="89px" height="116px" viewBox="0 0 89 116" version="1.1" xmlns="http://www.w3.org/2000/svg" xmlns:xlink="http://www.w3.org/1999/xlink">
    <!-- Generator: Sketch 51.2 (57519) - http://www.bohemiancoding.com/sketch -->
    <desc>Created with Sketch.</desc>
    <defs></defs>
    <g id="Page-1" stroke="none" stroke-width="1" fill="none" fill-rule="evenodd">
        <g id="SO-EPS-01-0001" transform="translate(-255.000000, -132.000000)" fill="#7F807C">
            <path d="M343.037015,145.614031 L342.938541,145.499215 L342.825401,145.400741 L342.649824,145.359675 L342.572721,145.377275 L342.502322,145.415826 L342.421867,145.47533 L342.323812,145.463178 L342.264728,145.433426 L342.208157,145.398646 L341.842756,145.24444 L341.781157,145.19625 L341.706988,145.099034 L341.668436,145.063415 L341.549848,145.007264 L341.419108,144.962008 L341.285016,144.896638 L341.152181,144.77805 L341.24437,144.959075 L341.294235,145.13088 L341.317282,145.310229 L341.323568,145.505082 L341.362538,145.555366 L341.439222,145.590565 L341.520516,145.643783 L341.555715,145.739324 L341.525125,145.804694 L341.454727,145.807627 L341.362538,145.781228 L341.274121,145.769076 L339.991445,146.024689 L339.828859,145.99787 L339.757622,145.872997 L339.825925,145.718791 L339.974265,145.587632 L340.139785,145.534833 L340.317457,145.517234 L340.448616,145.463178 L340.531586,145.356742 L340.57307,145.184936 L340.529071,144.814088 L340.576423,144.662396 L340.77798,144.599959 L340.971157,144.567693 L341.024375,144.475505 L340.833712,143.81091 L340.718896,142.301116 L340.641793,141.119428 L340.668611,140.921223 L340.71261,140.734332 L340.77798,140.612392 L340.869749,140.481652 L341.05664,140.069737 L341.089325,139.938578 L340.959005,139.683384 L340.674897,139.594129 L340.395398,139.464227 L340.283515,139.072845 L340.338828,138.712892 L340.353494,138.155571 L340.398751,138.021898 L340.668611,137.434825 L340.724343,137.250867 L340.745295,137.054758 L340.737333,136.987292 L340.697944,136.855714 L340.688725,136.761012 L340.72141,136.704861 L340.917939,136.50037 L341.178581,135.984115 L341.299683,135.823623 L341.534763,135.580162 L341.616894,135.46786 L341.668436,135.330835 L341.72794,134.716944 L341.784091,134.533405 L342.004086,134.241754 L342.014981,134.043549 L341.919859,133.91239 L341.751825,133.841154 L341.546915,133.814335 L341.349967,133.809307 L341.195761,133.776622 L340.912072,133.621997 L340.745295,133.57716 L340.083634,133.57716 L339.918114,133.523942 L339.428258,133.168178 L337.84597,132.636 L337.757553,132.662818 L337.668298,132.722322 L337.359886,132.787692 L337.010408,132.938965 L336.828545,132.990087 L336.781194,132.980868 L336.707443,132.932679 L336.656321,132.931003 L336.618607,132.954469 L336.579637,132.995535 L336.541085,133.052524 L336.326957,133.155607 L336.226806,133.168178 L336.110733,133.215111 L335.986698,133.327832 L335.796873,133.57716 L335.718932,133.740585 L335.662362,133.924542 L335.629677,134.116462 L335.618363,134.310477 L335.576459,134.494434 L335.475471,134.633136 L335.224048,134.865283 L334.942035,135.182076 L334.784896,135.289769 L334.398962,135.366034 L333.695397,135.932573 L333.526524,136.046552 L333.164056,136.140416 L333.072706,136.188187 L333.004403,136.235538 L332.930652,136.271156 L332.629783,136.26529 L332.538013,136.313479 L332.372074,136.467685 L331.879285,136.73126 L331.722146,136.707794 L330.954049,136.73126 L330.941897,136.722041 L330.904183,136.698575 L330.843423,136.678042 L330.782662,136.675109 L330.716873,136.695642 L330.612114,136.773164 L330.579429,136.790764 L330.481793,136.817582 L330.330101,136.915218 L330.265988,136.905999 L330.019594,137.105461 L329.627793,137.161612 L328.882324,137.081576 L328.636349,137.024587 L328.539132,137.027939 L328.461191,137.051405 L328.327937,137.128927 L328.280166,137.143175 L327.904289,137.131861 L327.711112,137.146527 L327.55984,137.202678 L327.440833,137.345989 L327.251009,137.710971 L327.129068,137.784722 L326.97151,137.814474 L326.521044,138.076373 L326.38779,138.128752 L326.227298,138.16479 L325.687577,138.215074 L325.598322,138.211722 L325.517867,138.16479 L325.413945,138.122467 L325.331395,138.185323 L325.200655,138.366347 L324.877576,138.508401 L323.776344,138.710796 L322.670083,138.924506 L322.3491,138.942106 L322.200341,138.951324 L322.058706,138.953839 L321.9309,138.929534 L321.188364,138.689426 L320.868638,138.50002 L320.54556,138.380175 L319.963097,138.250693 L319.812662,138.259073 L319.384824,138.366347 L318.847617,138.346233 L318.717296,138.39568 L318.483473,138.541505 L318.194755,138.60017 L317.595531,138.662607 L317.341175,138.719177 L317.246053,138.775328 L317.135008,138.888469 L317.105675,138.94462 L317.094361,139.004123 L317.071314,139.066979 L317.016839,139.125644 L316.934289,139.170062 L316.759131,139.188081 L316.604506,139.23208 L316.533269,139.238366 L316.387863,139.238366 L316.308665,139.265184 L316.284779,139.330554 L316.272627,139.392572 L316.106688,139.472608 L315.916864,139.724869 L315.80959,139.823343 L315.558167,139.899608 L314.023649,139.998082 L313.561031,139.935645 L312.503798,139.956178 L312.026513,140.202572 L311.750367,140.143069 L310.447159,139.472608 L310.169336,139.422323 L309.730184,139.532111 L309.466609,139.491046 L309.302765,139.528759 L309.139759,139.591615 L308.266484,140.037052 L308.062412,140.202572 L307.962262,140.265009 L307.572976,140.377311 L307.462769,140.448967 L307.16609,140.757798 L306.751242,141.104343 L306.121427,141.583303 L305.331959,141.866992 L305.276227,141.88543 L305.160573,141.899677 L305.101908,141.926495 L305.060423,141.971333 L304.979967,142.101234 L304.929264,142.152357 L304.558834,142.314944 L304.226118,142.580195 L303.484839,142.91794 L303.196122,143.152182 L303.08382,143.208752 L302.938413,143.229285 L302.60025,143.247723 L302.362655,143.344102 L302.087347,143.392291 L301.851847,143.54105 L301.706441,143.603067 L301.413114,143.67179 L301.087522,143.686037 L300.759415,143.639105 L300.466088,143.531831 L300.231846,143.350806 L299.86393,142.959006 L299.647288,142.829523 L299.395446,142.796838 L298.805021,142.965291 L298.508342,143.012223 L298.188616,142.944758 L298.051171,142.888607 L297.757844,142.808152 L297.463261,142.772115 L296.680078,142.412999 L296.54431,142.412999 L296.580347,142.564691 L296.436617,142.558405 L296.363285,142.49094 L296.306715,142.383247 L296.232545,142.274297 L296.113958,142.175823 L295.992017,142.122605 L295.861697,142.101234 L295.712519,142.099139 L295.580103,142.15529 L295.448944,142.392466 L295.337061,142.449036 L295.182436,142.484654 L295.083962,142.573909 L295.004344,142.689145 L294.902937,142.796838 L294.81452,142.843351 L294.173392,143.054546 L294.064023,143.119497 L293.811343,143.431262 L293.588414,143.596782 L293.339925,143.742188 L292.988771,143.888432 L292.683292,143.95925 L292.544171,143.968469 L292.38368,143.932431 L292.229474,143.879213 L292.081553,143.860776 L291.938661,143.935365 L291.366674,144.458324 L290.567987,144.96536 L290.310279,145.042044 L290.182053,145.0961 L289.260169,145.647135 L289.143257,145.647135 L289.197732,145.798827 L288.939186,145.890178 L288.337028,145.944653 L288.055015,145.902749 L287.488476,145.709572 L287.188444,145.647135 L286.909365,145.647135 L286.589639,145.682754 L286.287093,145.769076 L286.064165,145.911968 L285.806456,146.041869 L285.47374,146.045222 L284.823812,145.944653 L284.67212,145.944653 L284.049848,146.009184 L283.960593,145.99787 L283.886004,145.971052 L283.753169,145.896463 L283.396149,145.823132 L283.147659,145.67982 L282.099645,144.811154 L281.664264,144.555541 L281.079287,144.021686 L280.185897,143.406957 L279.408582,142.737334 L278.789243,141.962114 L277.975471,141.164684 L277.625574,140.461119 L277.408931,140.149355 L277.337276,139.912179 L277.21366,139.740373 L277.168403,139.6155 L277.135718,139.564796 L277.073701,139.532111 L276.940447,139.500264 L276.88681,139.475541 L276.694052,139.283622 L276.539846,139.030942 L276.461905,138.748929 L276.593064,137.959042 L276.551998,137.82034 L276.456877,137.829559 L276.355888,137.929709 L276.30309,138.076373 L276.162293,138.004298 L275.915898,137.82034 L275.750378,137.784722 L275.599105,137.728571 L275.400481,137.488043 L275.293627,137.434825 L275.127687,137.265115 L274.934511,136.957541 L274.81299,136.81423 L274.860341,137.143175 L274.681831,137.125994 L274.56031,137.037158 L274.46016,136.908932 L271.792563,141.072915 L271.688222,141.253939 L271.602738,141.600065 L271.539883,141.745471 L271.398248,141.86364 L271.04416,142.010303 L270.916773,142.146071 L270.852241,142.314944 L270.816204,142.454903 L270.762567,142.586062 L270.632246,142.724763 L270.332634,142.968224 L270.231226,143.103993 L270.151609,143.31016 L270.071992,143.656704 L270.009136,143.823062 L269.908148,143.965116 L269.744723,144.057724 L269.579203,144.10717 L269.469415,144.188045 L269.480729,144.369069 L269.647925,144.748718 L269.87253,145.101129 L270.335567,145.553271 L270.466307,145.718791 L270.558914,145.949681 L270.66535,146.727835 L270.822489,147.270908 L271.059665,147.790516 L271.276308,148.051158 L272.082956,148.573698 L272.282418,148.778189 L272.433691,149.027516 L272.540127,149.305758 L272.60843,149.584418 L272.768922,149.976219 L273.003164,150.211718 L273.311576,150.334916 L273.694158,150.400705 L274.008856,150.544016 L274.168509,150.81681 L274.411551,152.166531 L274.524692,152.501762 L274.708649,152.703319 L274.934511,152.759471 L275.006166,152.795508 L275.086203,152.877639 L275.165401,153.062435 L275.221971,153.154204 L275.302845,153.228793 L275.471299,153.341096 L275.54924,153.415684 L275.738226,153.798266 L275.792282,153.952472 L275.813234,154.234904 L275.848852,154.394138 L275.954869,154.525297 L276.394859,154.789291 L277.041016,155.177321 L277.198155,155.192825 L277.402646,155.112789 L277.536738,155.10357 L277.65784,155.169359 L278.305673,155.759365 L279.053237,156.442397 L280.125137,157.414566 L280.711371,157.949258 L281.037383,158.141597 L281.714549,158.364525 L282.453313,158.607567 L283.195011,158.853962 L283.936289,159.097423 L284.675472,159.340884 L285.417589,159.587279 L286.159287,159.83074 L286.898051,160.077134 L287.639329,160.319338 L288.378513,160.56238 L289.120629,160.80668 L289.862327,161.053074 L290.601091,161.296116 L291.343208,161.539577 L292.084486,161.785972 L292.82367,162.029433 L293.564948,162.272475 L294.977526,162.746826 L295.683186,162.984002 L296.386751,163.222435 L297.093669,163.45961 L297.79891,163.696786 L298.502475,163.933962 L299.208555,164.171137 L299.915053,164.408313 L300.620294,164.646327 L301.327212,164.883921 L302.030777,165.117745 L302.736018,165.35492 L303.442935,165.592096 L304.149015,165.829271 L304.852161,166.067285 L305.382663,166.245795 L305.875871,166.49219 L314.282196,166.49219 L313.871539,166.886924 L313.462976,167.281658 L313.052738,167.675135 L312.236871,168.467536 L311.831242,168.858917 L311.421422,169.257004 L311.012022,169.651319 L310.604717,170.045634 L310.196155,170.440787 L309.786335,170.835101 L309.380287,171.230254 L308.970049,171.624569 L308.56442,172.019722 L308.154182,172.414037 L306.929333,173.594887 L306.519095,173.99004 L306.110113,174.384355 L305.703646,174.779508 L305.294665,175.173823 L304.88736,175.568138 L304.478379,175.963291 L304.068978,176.357606 L303.662511,176.749406 L303.252692,177.14414 L302.84413,177.538455 L302.674,177.704394 L302.297704,178.066024 L301.920151,178.428492 L301.748764,178.59485 L301.211557,179.113201 L300.698235,179.638675 L300.184914,180.164567 L299.672011,180.689203 L299.158689,181.214677 L298.64411,181.740151 L298.134141,182.264787 L297.107497,183.315735 L296.20866,184.296703 L295.307309,185.2827 L293.502512,187.247151 L292.601161,188.231891 L289.895012,191.178148 L289.41647,191.701108 L288.751876,192.415568 L288.508834,192.516975 L288.05292,192.490995 L287.616282,192.466271 L287.182578,192.439453 L286.746778,192.415568 L286.310559,192.389168 L285.874341,192.365702 L285.438122,192.340979 L285.001484,192.31416 L284.569456,192.290275 L284.133237,192.264295 L283.69618,192.241248 L283.26038,192.21401 L282.826676,192.189706 L282.391295,192.163307 L281.954657,192.139841 L281.51802,192.112603 L281.082639,192.089137 L280.578536,192.059385 L280.269705,192.133136 L279.536807,192.391683 L279.284127,192.448253 L278.456527,192.638077 L277.81917,192.786416 L276.875496,193.000545 L276.293452,193.276691 L275.350197,193.72171 L274.391856,194.175109 L273.435611,194.625994 L272.732884,195.201334 L272.101394,195.718008 L272.035605,195.798044 L271.979454,195.889813 L271.866732,196.172245 L271.717974,196.755546 L271.590167,197.026664 L271.332459,197.314543 L271.017342,197.517777 L270.667864,197.658573 L270.069059,197.759143 L268.803982,197.972852 L267.516278,198.192009 L266.528605,198.359205 L265.894181,198.367167 L265.16715,198.373872 L264.894356,198.442594 L264.602705,198.586324 L264.128354,198.964715 L263.534996,199.326345 L263.387076,199.456666 L263.329668,199.619253 L263.335953,199.877381 L263.291954,199.98214 L263.1763,200.07349 L263.06274,200.239011 L262.360432,201.242188 L260.24387,204.257587 L259.811423,204.874411 L259.375204,205.494168 L258.941081,206.111412 L258.5057,206.731588 L257.817639,207.410849 L257.125388,208.09011 L256.433556,208.771047 L255.742981,209.450308 L255.455521,209.735254 L255.334,209.966982 L255.339028,210.414515 L255.348247,211.490605 L255.360399,212.615303 L255.360399,233.492623 L255.36878,234.174398 L255.377999,234.738424 L255.384285,235.303287 L255.396437,236.210924 L255.407751,237.115208 L255.420322,238.020331 L255.431217,238.928806 L255.440017,239.515459 L255.446302,240.10337 L255.455521,240.738213 L255.66965,241.013521 L255.882102,241.290086 L256.095811,241.562461 L256.309521,241.839026 L256.725207,242.373719 L257.15514,242.925173 L257.618177,243.517693 L258.003692,244.010482 L258.416864,244.541403 L258.849311,245.099562 L259.273378,245.642216 L259.697445,246.185709 L260.018847,246.600976 L260.122349,246.781581 L260.152101,246.942073 L260.122349,247.636 L260.345278,247.411815 L260.29206,247.411815 L260.463446,247.268504 L260.760125,246.773619 L260.953302,246.662993 L261.111279,246.537701 L261.427653,245.906629 L261.585212,245.65814 L261.783836,245.418031 L262.660044,244.007129 L262.712843,243.856695 L262.703624,243.696203 L262.605989,243.396591 L262.597608,243.227299 L262.650826,243.227299 L262.703624,243.461123 L262.882135,243.592282 L263.071959,243.569234 L263.173366,243.350077 L263.11093,243.399943 L263.032988,243.443942 L262.964266,243.449809 L262.934934,243.372706 L262.973485,243.286803 L263.291954,242.909668 L263.345172,242.827118 L263.387076,242.738701 L263.401323,242.631427 L263.44616,242.56899 L263.644784,242.391737 L263.689202,242.284463 L263.709735,242.185151 L263.795638,242.016698 L263.808209,241.913615 L263.775524,241.84573 L263.716021,241.809693 L263.659032,241.75899 L263.635565,241.655068 L263.627185,241.562461 L263.582348,241.438006 L263.573129,241.340789 L263.5945,241.243154 L263.632632,241.155575 L263.659032,241.064224 L263.635565,240.936418 L263.689202,240.936418 L263.736554,241.079729 L263.727335,241.409512 L263.763372,241.75899 L263.79899,241.818493 L263.891179,241.770304 L264.17361,241.551147 L264.207972,241.483262 L264.246523,241.332409 L264.344997,241.150965 L264.466518,240.999273 L264.585525,240.936418 L264.638743,240.853867 L264.716265,240.672843 L264.721293,240.512351 L264.558706,240.476314 L264.63539,240.388735 L264.759845,240.361916 L265.012525,240.366945 L265.172597,240.329231 L265.309204,240.263442 L265.433658,240.171254 L265.651139,239.948745 L265.989303,239.424947 L266.020731,239.394357 L266.092386,239.376338 L266.107472,239.329825 L266.107472,239.266969 L266.137223,239.192381 L266.973204,238.192137 L267.24977,237.936942 L267.377576,237.789441 L267.433308,237.651996 L267.501612,237.569446 L267.949982,237.221644 L267.987696,237.257681 L268.0032,237.299166 L268.009486,237.34107 L268.006134,237.395126 L268.038819,237.362441 L268.122207,237.221644 L268.023733,237.129875 L268.065637,236.993268 L268.397934,236.552021 L268.460371,236.497127 L268.661928,236.45648 L268.687909,236.403263 L268.684975,236.32616 L268.706765,236.243609 L268.910837,235.954473 L269.477796,235.379133 L270.017517,234.942914 L270.506953,234.5486 L271.522702,233.444434 L273.195083,231.605275 L274.836456,230.006226 L276.36804,228.289007 L277.975471,226.748204 L278.349672,226.454039 L278.464908,226.41423 L278.610314,226.332099 L279.007981,225.775616 L279.329383,225.543469 L280.274733,225.038109 L280.66402,224.545739 L280.767522,224.46277 L280.948547,224.417094 L281.118676,224.30563 L281.714549,223.716463 L281.774052,223.632236 L281.80967,223.599551 L281.96681,223.555133 L282.002009,223.519096 L282.017094,223.357347 L282.034694,223.27312 L282.064445,223.205655 L282.168367,223.110114 L282.509883,222.903948 L282.701803,222.819721 L283.640029,221.864314 L285.46494,220.452574 L286.524269,219.79636 L287.6695,218.976303 L287.767555,218.939427 L287.832925,218.861486 L289.260169,217.885127 L290.924589,217.107811 L291.01552,217.07806 L291.197802,217.039089 L295.23272,214.728513 L296.19148,214.187534 L297.879365,213.110606 L298.051171,212.969809 L298.178978,212.725929 L298.532227,212.502163 L298.612682,212.399918 L298.751384,212.140533 L298.846925,212.01524 L299.638488,211.192249 L299.965337,211.040558 L300.084344,210.954655 L300.169828,210.787878 L300.23855,210.618167 L300.32152,210.488265 L300.460222,210.434209 L300.502544,210.406553 L300.549058,210.334478 L300.588447,210.251509 L300.606885,210.179853 L301.131102,209.805652 L301.751697,209.176257 L302.908662,208.21205 L303.534705,207.469095 L304.662755,206.471365 L306.163331,204.725652 L307.792133,203.022262 L308.874927,201.901335 L310.166822,200.580108 L310.910615,199.547178 L314.026164,196.222111 L314.927934,194.91974 L316.159906,192.439453 L317.22552,191.008857 L318.224507,189.926062 L319.06845,188.531084 L319.673122,187.952811 L319.895212,187.649427 L320.308803,186.751429 L321.607402,184.760578 L323.16832,182.077896 L323.46458,181.440539 L323.583167,180.707222 L323.565987,180.523683 L323.488884,180.173786 L323.467513,179.986476 L323.490979,179.799166 L324.526841,177.629806 L324.942946,176.476612 L325.328042,175.88535 L325.948638,174.668463 L327.239695,172.867856 L327.794082,172.236365 L329.119919,169.927465 L329.152604,169.779544 L329.18487,169.41121 L329.259878,169.269156 L329.51172,168.996362 L329.749733,168.654427 L329.800018,168.506506 L329.820132,168.292797 L329.782418,168.105487 L329.660897,168.022936 L329.615641,167.921529 L329.693163,167.328171 L329.791218,167.019759 L329.941653,166.776298 L330.67497,166.0258 L331.757764,165.364139 L332.03391,165.105592 L332.218287,164.782933 L332.457977,164.035369 L332.58285,163.759223 L333.202608,162.940003 L333.277616,162.782864 L333.335862,162.613572 L333.422184,162.476966 L333.579742,162.420396 L333.707549,162.357959 L333.819851,162.207105 L333.953943,161.893246 L333.980762,161.741973 L333.953943,161.227394 L334.013447,161.053074 L334.41279,160.565733 L334.547301,160.272825 L334.695222,159.571774 L334.81381,159.228582 L334.965501,158.966683 L335.169154,158.693889 L335.42812,158.426962 L336.348327,157.699931 L336.593884,157.403252 L336.718757,157.088135 L336.724624,156.901244 L336.656321,156.361104 L336.707443,156.234973 L336.956771,155.830601 L337.062788,155.696928 L337.20568,155.60474 L337.559767,155.453467 L337.724868,155.320213 L338.247408,154.47208 L338.306493,154.32374 L338.32954,154.163248 L338.300207,153.985157 L338.102002,153.442503 L338.039985,152.996646 L338.045013,152.736004 L338.199219,152.513076 L338.258723,151.997659 L338.303141,151.836748 L338.315712,151.751265 L338.270875,151.514089 L338.332892,151.421901 L338.446033,151.11307 L338.523555,150.691936 L338.576353,150.534797 L338.674408,150.356287 L338.644657,150.261584 L338.754445,149.673673 L338.832386,149.549219 L338.849566,149.457031 L338.834062,149.350176 L338.737264,149.083249 L338.697875,148.698152 L338.828614,147.968188 L338.849566,147.567587 L338.790482,146.840137 L338.872613,146.736216 L339.748403,146.255579 L340.395398,146.057374 L341.698188,145.944653 L341.827671,145.988652 L341.885079,146.08964 L341.902679,146.186857 L341.93243,146.235046 L342.26808,146.306702 L342.362782,146.344415 L342.418934,146.306702 L342.484723,146.297483 L342.557635,146.300835 L342.649824,146.291616 L342.644376,146.306702 L342.674547,146.327653 L342.721479,146.344415 L342.766316,146.344415 L342.80403,146.320949 L342.860181,146.249712 L342.90837,146.235046 L342.958655,146.15501 L343.115794,145.801761 L343.172783,145.706639 L343.037015,145.614031 Z M276.276271,137.324618 L276.365107,137.250867 L276.408687,137.169993 L276.299318,137.054758 L276.233948,137.108394 L276.189949,137.17586 L276.2461,137.274334 L276.276271,137.324618 Z M275.293627,137.102109 L275.421014,137.040091 L275.477584,137.022073 L275.497698,136.905999 L275.536669,136.725394 L275.521164,136.654576 L275.54924,136.571188 L275.530802,136.523836 L275.494765,136.564902 L275.473813,136.770231 L275.465013,136.841048 L275.435681,136.876247 L275.421014,136.935751 L275.368634,137.004473 L275.240409,137.08409 L275.246694,137.128927 L275.293627,137.102109 Z" id="Fill-3"></path>
        </g>
    </g>
</svg>