
<svg width="70px" height="116px" viewBox="0 0 70 116" version="1.1" xmlns="http://www.w3.org/2000/svg" xmlns:xlink="http://www.w3.org/1999/xlink">
    <!-- Generator: Sketch 51.2 (57519) - http://www.bohemiancoding.com/sketch -->
    <desc>Created with Sketch.</desc>
    <defs></defs>
    <g id="Page-1" stroke="none" stroke-width="1" fill="none" fill-rule="evenodd">
        <g id="ST-EPS-01-0001" transform="translate(-295.000000, -163.000000)" fill="#7F807C">
            <path d="M363.234659,167.386876 L362.218159,167.185083 L362.621746,166.470467 L363.436452,166.067957 L364.251158,165.765536 L364.654744,165.454506 L364.452951,164.546706 L363.738872,164.235676 L361.814573,164.034959 L360.596819,163.732 L359.377989,164.235676 L358.462117,165.253251 L358.050998,166.571632 L358.050998,167.689297 L357.849205,168.505079 L357.244901,169.117454 L356.126699,169.622206 L355.513786,169.52104 L355.513786,170.739871 L355.715579,172.873496 L356.529747,173.285154 L357.546246,173.385782 L358.462117,173.688202 L359.067497,174.805867 L359.579782,174.503446 L359.983368,174.293581 L360.084534,174.503446 L360.286327,175.00766 L360.495654,175.31008 L360.596819,174.604612 L360.596819,173.991161 L360.798612,173.587575 L361.61278,173.486409 L362.116994,173.175917 L362.419953,172.470448 L362.730445,171.15099 L362.621746,169.622206 L362.932238,168.915661 L363.949275,168.706872 L364.554116,168.505079 L364.151068,167.8997 L363.234659,167.386876 Z M315.082522,256.995924 L313.754454,255.063554 L312.133652,253.34051 L310.612401,252.324011 L307.865325,252.114146 L305.629995,253.542303 L303.495831,255.365436 L300.958082,256.18068 L300.445796,256.483101 L298.009212,258.928295 L297.807957,259.331881 L297.706791,259.734391 L297.404371,260.347842 L296.084913,261.969182 L295.875048,262.482006 L295.875048,263.902629 L295.774421,264.515004 L295.472,265.120383 L295.875048,265.835 L298.320242,273.657038 L298.521497,273.858831 L298.824456,274.060624 L299.126876,274.363045 L299.32867,275.076585 L299.32867,275.589947 L298.925083,276.807163 L298.824456,276.908329 L299.227504,278.126621 L299.941582,278.732 L300.655661,278.530207 L301.159875,277.311915 L302.075746,278.429579 L302.789825,277.513708 L303.495831,275.076585 L306.142281,275.076585 L306.243446,274.672999 L307.360573,273.455245 L307.865325,273.24538 L308.578865,273.144753 L309.083617,272.841794 L308.578865,271.623502 L308.982451,271.321081 L309.595902,271.219916 L309.99895,271.018661 L311.931859,267.766832 L312.847192,266.750333 L314.569698,265.120383 L315.183687,264.305139 L315.78799,262.986758 L316.099021,261.768465 L316.099021,260.650801 L315.78799,258.819058 L315.082522,256.995924 Z" id="Fill-3"></path>
        </g>
    </g>
</svg>