
<svg width="45px" height="116px" viewBox="0 0 45 116" version="1.1" xmlns="http://www.w3.org/2000/svg" xmlns:xlink="http://www.w3.org/1999/xlink">
    <!-- Generator: Sketch 51.2 (57519) - http://www.bohemiancoding.com/sketch -->
    <desc>Created with Sketch.</desc>
    <defs></defs>
    <g id="Page-1" stroke="none" stroke-width="1" fill="none" fill-rule="evenodd">
        <g id="TG-EPS-01-0001" transform="translate(-321.000000, -170.000000)" fill="#7F807C">
            <polyline id="Fill-3" points="345.973307 173.854365 345.387395 175.27292 345.323834 175.731711 345.379305 175.979597 345.564208 176.444744 345.604656 176.693208 345.244095 177.367527 345.203069 177.616569 345.163777 178.139498 345.098483 178.379295 344.802638 178.802839 343.567253 179.974663 343.237894 180.746056 343.42222 182.814084 343.406618 183.712598 343.06917 184.989586 342.757146 187.35577 342.772169 187.884477 342.957072 188.229438 344.673784 189.376993 346.840041 190.814038 350.081626 192.969895 353.337657 195.138463 355.729265 196.732676 356.02511 197.512737 356.049956 199.373326 356.097338 201.87472 356.122184 203.657881 356.29842 204.725119 356.265484 205.00363 356.210013 205.236492 356.21868 205.695283 356.194412 205.927568 356.049956 206.214746 355.648947 206.834172 355.551873 207.138684 355.624101 207.602098 355.856963 208.157963 356.194412 208.501768 356.579242 208.310509 356.843307 208.959981 356.995274 211.27705 357.324055 212.191743 357.870098 213.035365 359.691972 214.937557 361.103015 216.413316 361.56874 217.231513 361.744398 217.784489 361.873253 218.409115 361.905033 221.264137 361.938547 223.760909 361.970327 225.878629 362.018864 229.616564 362.050067 229.889874 362.162164 230.147005 362.748076 230.884884 362.844573 231.109657 362.764833 231.510089 362.018864 232.746051 361.977839 232.939044 361.977839 233.333119 361.866319 233.892451 361.938547 233.982014 362.067401 234.02824 362.187011 234.239145 362.427385 236.195075 362.330889 242.44596 362.347068 246.048685 362.363247 250.562635 362.387515 255.16846 362.395605 258.563168 362.427385 265.203506 362.018864 265.333516 360.301575 265.317337 360.742454 266.936974 360.999585 267.316026 361.368814 267.585869 361.577408 267.835488 361.6167 268.14809 361.448553 269.103809 361.464155 269.496728 361.561229 269.88907 361.737465 270.354217 361.866319 270.90026 361.777912 271.255043 361.26365 271.943229 361.071813 272.448824 361.215113 272.705955 361.512692 272.94633 361.761155 273.403387 361.769245 273.579623 361.729953 273.764527 361.713196 273.972543 361.784846 274.204827 361.92179 274.398976 362.098604 274.575212 362.291019 274.726023 362.467255 274.832343 362.684516 274.854878 362.908711 274.840432 363.068768 274.895325 363.101126 275.153034 363.157753 275.313091 363.534493 275.625693 363.678949 275.819842 363.710729 276.043459 363.655258 276.531719 363.703795 276.733957 363.847095 276.853566 364.336511 277.10203 364.536438 277.24533 365.12235 278.185448 365.563806 279.894069 365.989662 281.563977 365.515269 281.585356 362.596687 282.277588 362.130384 282.525474 362.291019 283.006222 357.981617 283.727345 354.379471 284.820008 352.759834 285.533041 352.576086 285.54113 352.422385 285.581 352.47959 284.770315 352.214369 284.419576 350.33009 284.200582 350.016332 284.040525 349.775958 283.761436 349.478957 283.302067 349.303299 283.102141 349.133997 283.006222 348.96585 282.933994 348.780947 282.804562 348.427897 282.302434 347.833896 280.487493 346.101583 280.479404 345.636436 280.349971 345.347525 280.134444 344.602134 279.244019 344.031245 278.881724 342.909113 278.328748 342.434721 277.83991 342.074159 277.295023 341.802005 276.755337 341.656971 276.195426 341.696841 275.591602 341.841875 275.305002 342.002509 275.089474 342.018688 274.878569 341.729777 274.591969 341.521183 274.550365 340.886734 274.575212 340.670628 274.550365 340.469546 274.190382 340.148854 273.956364 339.853009 273.684787 339.724732 273.21155 339.924659 272.06515 339.899813 271.69361 339.707398 271.327271 339.378617 271.012357 338.978186 270.796829 338.5922 270.708422 338.440233 270.509074 337.782093 269.288712 337.501271 269.078963 337.285165 268.952419 337.212937 268.733425 337.364905 268.252676 337.847387 267.459326 337.90228 267.074496 337.630125 266.591436 336.988742 266.096242 336.723522 265.742614 337.06097 265.646118 337.389751 265.621272 338.351248 265.371652 338.640737 265.203506 339.074682 264.426912 339.089705 263.431324 338.994942 262.413778 339.066592 261.521042 339.619569 260.158536 339.828163 259.098809 340.133253 258.265011 340.156944 257.775018 339.796382 256.281924 339.644415 256.083731 338.809461 256.387088 338.359915 256.467405 337.942727 256.411934 337.229116 255.77864 336.860465 254.784785 336.746634 253.661498 336.835041 252.337707 336.915359 252.055729 337.06097 251.815355 337.292677 251.591737 337.590256 251.45306 337.950817 251.359453 338.256485 251.19824 338.391696 250.891994 338.383606 250.276035 338.448322 249.570514 338.745901 249.103633 339.403463 249.216308 339.338747 248.766185 339.387284 247.579915 339.178112 246.280969 339.201803 244.908641 338.961429 243.294782 338.978186 242.44596 338.969518 242.004504 338.752835 241.152793 338.672517 240.084977 338.55233 239.523911 338.665583 239.363854 338.841242 239.228644 338.969518 238.932799 338.929648 238.617885 338.769014 238.417959 338.5922 238.249812 338.503793 238.009438 338.52864 237.710704 338.640737 237.622297 338.817551 237.609007 339.009388 237.511933 339.764602 236.837036 340.140765 236.588572 341.143865 236.140759 341.513094 235.913675 341.681818 235.572182 341.593411 235.007649 341.513094 234.927332 341.240939 234.88804 341.143865 234.807723 341.135775 234.703137 341.151954 234.470274 341.095328 234.142071 341.103995 233.875695 341.055458 233.636476 340.18179 232.923443 339.892879 232.057864 339.490714 231.214821 338.007443 230.515078 337.413442 230.091534 336.860465 229.585939 336.475058 229.135815 335.567876 228.519278 334.66185 227.257892 333.996199 225.831825 333.802628 224.698137 333.956329 224.482609 334.244662 224.427716 334.508727 224.528835 334.749679 225.043675 334.990054 224.778455 335.143754 224.40287 335.023567 224.305796 335.263941 224.225478 335.472535 224.25957 335.70482 224.330642 335.993731 224.378023 336.250863 224.25957 336.32309 223.954479 336.36296 223.600852 336.475058 223.310785 336.980653 222.597752 336.691741 221.475042 335.60139 219.619654 335.5933 219.619654 335.287632 218.906621 335.519339 218.210344 335.905325 217.501934 336.024934 216.764054 336.024934 216.404649 336.170545 216.186232 336.683652 215.730329 336.955806 215.257671 336.948872 214.895376 336.666895 214.076601 336.691741 213.629944 336.875489 213.405171 337.13262 213.258404 337.358549 213.01803 337.453312 212.730274 337.493181 212.0652 337.702353 210.900888 337.558475 210.364668 337.149377 210.010463 336.475058 209.778178 336.459457 209.75391 336.451367 209.728485 336.459457 209.707106 336.611424 209.449975 336.659961 209.217112 336.620091 208.991184 336.475058 208.791257 335.272031 208.349223 334.838086 208.276995 333.922815 208.332466 333.418954 208.421451 333.073416 208.575729 332.961318 208.750232 332.88909 209.217112 332.800683 209.408372 332.62387 209.554561 331.589567 209.922634 331.16429 210.002951 330.746524 209.95557 330.643094 209.648746 330.826841 209.393926 330.666784 209.023542 330.666784 208.703428 331.613836 208.50928 331.974397 208.36598 332.263308 208.172409 332.351715 207.931457 332.151211 207.683571 331.830519 207.669703 331.244607 207.77949 331.012322 207.677215 330.786971 207.514269 330.618247 207.370969 330.562776 207.306831 330.554687 207.163531 330.658117 206.51348 330.715321 206.366713 331.862299 206.496723 332.408342 206.464365 332.81744 206.200878 333.130042 206.408316 333.54723 206.471877 333.916459 206.366713 334.068426 206.054689 333.876011 205.581452 333.427043 205.493045 332.503683 205.725908 331.797005 205.65368 331.436444 205.173509 331.421421 204.506124 331.742112 203.856652 332.351715 204.489945 332.728456 204.700273 333.138132 204.650002 333.370417 204.370914 333.433977 203.970483 333.387173 203.553295 333.281432 203.215846 333.130042 202.983562 332.969408 202.80617 332.848643 202.558284 332.81744 202.131851 333.298767 200.351579 333.306856 200.094448 333.201692 199.171665 333.250229 198.850396 333.433977 198.507747 333.722888 198.192256 333.882945 198.048956 333.899702 197.863475 333.747735 197.406995 333.47558 196.870776 333.433977 196.717075 333.482514 196.500969 333.555898 196.365181 333.570343 196.213213 333.433977 195.986707 333.836142 195.914479 334.180524 195.972839 334.437077 195.90639 334.533574 195.458577 334.468857 194.994008 334.28511 194.839151 334.036646 194.776168 333.747735 194.590109 333.522384 193.998419 333.642571 192.378782 333.602701 191.606811 333.771426 191.295365 333.836142 190.916891 333.94015 190.573664 334.500638 190.156476 334.036646 189.769335 333.819385 189.66706 332.824374 189.835785 332.503683 189.835785 332.704187 189.368904 332.463813 189.00892 332.079561 188.654715 331.82243 188.237527 331.853632 188.044534 331.933949 187.80416 331.918926 187.547029 331.693575 187.322256 331.461291 187.267363 331.260786 187.331501 331.044103 187.436087 330.786971 187.507737 330.56971 187.474801 329.968775 187.234427 329.905214 187.306077 329.83992 187.452844 329.744579 187.588632 329.575855 187.612901 329.511139 187.524494 328.34856 185.374416 327.987998 184.989586 326.791906 184.234372 326.600068 184.011332 326.33427 183.49707 326.158034 183.281542 325.94944 183.159622 325.235829 182.919247 325.035325 182.783459 324.890291 182.645359 324.730234 182.534417 324.200371 182.471435 323.936306 182.396318 323.687264 182.277286 323.487338 182.116652 323.25332 181.635903 323.270076 181.163822 323.487338 180.256641 323.607525 179.292254 323.776249 178.890668 324.096363 178.482147 324.560932 178.169545 324.761437 177.984642 324.801884 177.7356 324.681697 177.287788 324.666674 177.06417 325.155512 174.752302 325.267609 174.542552 325.45309 174.351871 325.653017 174.222438 325.813652 174.061226 325.862189 173.774048 325.925172 172.964518 325.853522 172.248018 325.516651 171.712377 324.755081 171.424621 324.329225 171.429821 323.558988 171.632059 323.1418 171.673663 322.724034 171.567921 322.260042 171.31079 321.882724 170.965252 321.714 170.581 324.056493 171.062326 326.840443 171.632059 332.022356 172.690053 336.546708 173.613991 336.595245 173.644038 336.626447 173.702398 336.635115 173.774048 336.603334 173.879212 336.586578 173.973397 336.554797 174.061226 336.475058 174.1583 336.843709 174.246707 336.571554 175.225539 339.410397 174.22995 340.831841 173.95144 343.021211 173.909836 345.973307 173.854365"></polyline>
        </g>
    </g>
</svg>