
<svg width="64px" height="116px" viewBox="0 0 64 116" version="1.1" xmlns="http://www.w3.org/2000/svg" xmlns:xlink="http://www.w3.org/1999/xlink">
    <!-- Generator: Sketch 51.2 (57519) - http://www.bohemiancoding.com/sketch -->
    <desc>Created with Sketch.</desc>
    <defs></defs>
    <g id="Page-1" stroke="none" stroke-width="1" fill="none" fill-rule="evenodd">
        <g id="TH-EPS-01-0001" transform="translate(-264.000000, -95.000000)" fill="#7F807C">
            <path d="M327.767251,133.104186 L327.553827,132.794589 L327.217882,132.576225 L326.889841,132.46589 L326.722198,132.444811 L326.411943,132.47083 L326.302596,132.454692 L326.210375,132.401665 L326.114203,132.305822 L326.031534,132.180995 L325.730501,131.536112 L325.640915,131.243642 L325.654419,130.966322 L325.835566,130.76212 L325.994316,130.698884 L326.076656,130.653103 L326.12079,130.594806 L326.106628,130.533875 L326.049319,130.492376 L325.976202,130.464051 L325.091875,130.239758 L324.782279,130.226255 L324.703891,130.21308 L323.505686,129.784256 L323.34463,129.660747 L323.224744,129.501996 L323.151626,129.314921 L323.121984,129.109072 L323.128901,128.759294 L323.10354,128.589015 L323.021201,128.439158 L322.961257,128.385802 L322.747504,128.267233 L322.687561,128.222769 L322.541655,128.064677 L322.479077,128.014286 L322.276851,127.89901 L322.20571,127.83742 L322.157953,127.76595 L322.12337,127.685257 L322.052229,127.440214 L321.99031,127.299249 L321.909946,127.169153 L321.808504,127.045973 L321.68236,126.938273 L321.255512,126.707722 L321.121792,126.595411 L321.041429,126.45708 L321.003553,126.296683 L320.995319,126.11883 L321.029901,125.781567 L321.110594,125.451221 L321.216318,125.158092 L321.228175,125.072788 L321.222905,124.986496 L321.059214,124.335685 L321.055591,124.246099 L321.07173,124.150915 L321.121792,123.971744 L321.135955,123.8815 L321.131673,123.786645 L321.105983,123.700353 L321.029901,123.536991 L321.00487,123.450699 L320.934388,122.7271 L320.971605,122.551881 L321.462019,121.393529 L321.496273,121.216663 L321.525915,120.852064 L321.510106,120.379435 L321.537772,119.993757 L321.532831,119.897584 L321.510106,119.805034 L321.330935,119.404205 L321.303598,119.361389 L321.248266,119.311656 L321.117511,119.239197 L321.059214,119.195722 L321.00487,119.130509 L320.88696,118.903252 L320.737761,118.67863 L320.647517,118.583774 L320.286869,118.356188 L320.145246,118.305796 L318.96812,117.688908 L318.746791,117.487012 L318.52151,117.219244 L318.486927,117.157324 L318.4395,117.00055 L318.419409,116.951146 L318.388779,116.901084 L318.278444,116.765059 L318.107177,116.421209 L317.992231,116.272668 L317.499182,115.975917 L317.42837,115.913339 L317.367768,115.839892 L317.322317,115.754917 L317.252493,115.514815 L316.916877,114.772442 L316.820046,114.638064 L316.346429,114.208581 L316.245316,114.085072 L316.158695,113.932579 L315.836253,113.13158 L315.45815,112.466935 L315.317185,112.313454 L315.130439,112.216294 L314.947316,112.19785 L314.780331,112.240666 L314.634755,112.338486 L314.510916,112.481756 L314.47831,112.530172 L314.451961,112.563108 L314.41672,112.583528 L314.360399,112.593409 L314.238537,112.56739 L314.171348,112.489332 L314.120297,112.38756 L314.043557,112.295669 L313.930258,112.218929 L313.810042,112.156021 L313.682251,112.111229 L313.551167,112.089162 L313.110156,112.065118 L313.008055,112.037452 L312.574949,111.840826 L312.509736,111.798997 L312.444523,111.739054 L312.336494,111.662313 L311.893836,111.542756 L311.699186,111.524971 L311.506511,111.476885 L311.440969,111.471286 L311.332281,111.4894 L311.295063,111.490718 L311.156074,111.464369 L310.740424,111.336249 L310.663354,111.33592 L310.058324,111.461405 L309.873883,111.541768 L309.708545,111.66396 L309.581742,111.823699 L309.50599,112.016703 L309.503355,112.068741 L309.515541,112.10036 L309.536291,112.130002 L309.552759,112.174465 L309.616654,112.201143 L309.933826,112.419508 L309.979607,112.48505 L309.971044,112.557179 L309.902867,112.616135 L309.805047,112.650058 L309.52674,112.698474 L309.361072,112.759405 L309.135462,112.795635 L309.070908,112.81869 L309.006024,112.858871 L308.923356,112.959984 L308.87494,113.083494 L308.831135,113.349286 L308.781732,113.517917 L308.691487,113.636486 L308.565014,113.715861 L308.406263,113.771523 L308.41812,113.755055 L308.4336,113.720802 L308.337098,113.771523 L308.271556,113.84497 L308.23368,113.950364 L308.221493,114.094953 L308.285059,114.559347 L308.247513,114.636417 L308.172419,114.688127 L308.104901,114.801096 L308.018279,114.914725 L307.884889,114.966105 L307.759075,114.931522 L307.524572,114.779029 L307.388217,114.744447 L307.264379,114.770137 L306.613238,115.062607 L306.501256,115.12782 L306.455146,115.212465 L306.015453,115.453555 L305.737804,115.709466 L305.622858,115.777314 L305.353443,115.843185 L305.249036,115.908069 L305.208525,116.028943 L305.252,116.173861 L305.324459,116.288148 L305.324459,116.345786 L305.156816,116.323719 L304.766856,116.132691 L304.659815,116.10239 L304.661791,116.028943 L304.788923,115.512181 L304.69308,115.196326 L304.449025,115.072158 L303.800519,115.069523 L303.523529,115.017155 L303.271241,114.886729 L303.065392,114.713816 L302.923109,114.533328 L302.696511,114.546832 L302.470242,114.432874 L302.089504,114.094953 L301.91198,113.856168 L301.854671,113.823891 L301.826347,113.796883 L301.596784,113.63451 L301.524984,113.498485 L301.496989,113.365095 L301.447585,113.252125 L301.307937,113.173738 L300.739135,113.144754 L300.684791,113.186253 L299.417421,114.546173 L299.261635,114.595906 L298.969165,114.427604 L298.671755,114.346253 L298.600284,114.257326 L298.553515,114.257326 L298.42803,114.376224 L298.36644,114.520813 L298.29925,114.857746 L298.114151,115.379449 L298.088461,115.536882 L297.383306,115.674554 L297.259138,115.754917 L297.192937,115.906422 L297.111914,115.99502 L296.938343,115.886002 L296.938343,116.006547 L296.919899,116.110624 L296.884657,116.196916 L296.835254,116.264764 L296.608326,116.349738 L296.777287,116.487739 L296.62677,116.591158 L296.370859,116.699846 L296.220671,116.854974 L296.1907,116.916893 L296.154141,116.975189 L296.126146,117.038755 L296.109678,117.055882 L296.039195,116.905036 L296.026679,116.854974 L296.016469,116.820391 L295.997037,116.813474 L295.968712,116.827637 L295.935118,116.854974 L295.834005,116.951476 L295.720376,116.961356 L295.60543,116.950487 L295.500365,116.985729 L295.454255,117.053577 L295.503,117.076632 L295.581387,117.081243 L295.621898,117.094417 L295.614323,117.142833 L295.603454,117.16457 L295.468088,117.337154 L295.420331,117.355269 L295.362693,117.350987 L295.267509,117.383593 L294.43061,118.070964 L294.290962,118.25771 L294.138799,118.552156 L294.090383,118.616381 L294.000468,118.651622 L293.899355,118.669737 L293.821627,118.716176 L293.802524,118.833098 L293.802524,118.833428 L293.673086,119.017539 L293.632575,119.059368 L293.560775,119.103172 L293.534427,119.106466 L293.502479,119.084728 L293.285102,118.995472 L293.058504,118.861094 L292.930713,118.833428 L292.825648,118.699708 L292.700821,118.589044 L292.562491,118.497483 L292.415926,118.423377 L291.812542,118.309748 L291.691668,118.216211 L291.689033,118.041651 L291.79311,117.874666 L292.047704,117.577256 L292.206125,117.219244 L292.258493,117.014712 L292.243672,116.854974 L292.225887,116.77494 L292.242025,116.709727 L292.289782,116.658347 L292.361253,116.619483 L292.368828,116.603015 L292.370475,116.585888 L292.368828,116.569091 L292.361253,116.552623 L292.311849,116.496961 L292.292417,116.444593 L292.306579,116.395519 L292.361253,116.352702 L292.517039,116.285513 L292.558538,116.1844 L292.534825,115.913997 L292.562491,115.7536 L292.618811,115.671261 L292.858584,115.5382 L293.058504,115.363969 L293.17872,115.171295 L293.276539,114.964787 L293.408612,114.751034 L293.508078,114.671659 L293.752132,114.520154 L293.810099,114.417065 L293.786056,114.305742 L293.656618,114.009649 L293.631258,113.857815 L293.661229,113.714544 L293.774199,113.417134 L293.791655,113.291648 L293.765307,113.221824 L293.715903,113.182301 L293.660571,113.151012 L293.616437,113.105561 L293.555835,112.945822 L293.530804,112.891149 L293.527181,112.611524 L293.543978,112.530172 L293.58416,112.472864 L293.712939,112.330252 L293.735664,112.278213 L293.660571,112.17183 L293.180696,111.949843 L292.943887,111.72555 L292.837175,111.582279 L292.786454,111.444937 L292.826965,111.285528 L293.047635,111.057941 L293.102309,110.905119 L293.116471,110.824756 L293.14776,110.787538 L293.634222,110.518123 L293.735335,110.419316 L293.763989,110.331707 L293.755755,110.154841 L293.777163,110.076783 L293.829202,110.024415 L293.962263,109.97567 L294.029452,109.941417 L294.239912,109.740509 L294.337402,109.610083 L294.377913,109.489209 L294.33806,109.363064 L294.159548,109.184223 L294.118049,109.039964 L294.143739,108.910197 L294.25638,108.653627 L294.290962,108.517602 L294.25078,108.040691 L294.262967,107.887211 L294.323569,107.74361 L294.508338,107.530516 L294.58442,107.411617 L294.658196,107.151095 L294.710564,107.036149 L295.032677,106.724906 L294.968122,106.488756 L294.765897,106.258205 L294.433904,105.965077 L294.344648,105.866599 L294.294914,105.743089 L294.277129,105.555026 L294.300184,105.086678 L294.146374,104.418411 L294.144068,104.369007 L294.156913,104.328496 L294.159548,104.283045 L294.132541,104.216185 L294.088736,104.184567 L293.960287,104.157889 L293.910224,104.121 L293.864114,103.883204 L293.905284,103.55681 L294.0199,103.271915 L294.190179,103.163556 L294.36408,103.116129 L294.46651,102.938605 L294.506033,102.712336 L294.490224,102.517026 L294.460911,102.411961 L294.424352,102.331927 L294.36408,102.269349 L294.263296,102.21237 L294.134188,102.177788 L294.053824,102.199525 L293.985647,102.24827 L293.898038,102.296356 L293.714585,102.347736 L293.502479,102.373426 L293.283785,102.3563 L293.073984,102.277583 L292.741003,102.071405 L292.575665,102.009156 L292.361253,101.986101 L291.689033,101.994664 L291.64457,101.985442 L291.605047,101.991041 L291.532588,102.036822 L291.503604,102.073381 L291.411055,102.234108 L291.103105,102.60233 L290.755303,102.930371 L290.682515,103.034777 L290.625865,103.014357 L290.569874,102.934652 L290.502356,102.857583 L290.393009,102.795005 L289.774474,102.557208 L289.574554,102.567089 L289.415474,102.686975 L289.26858,102.929383 L289.137166,102.937946 L288.91979,102.873721 L288.701096,102.778537 L288.568035,102.69488 L288.474168,102.597719 L288.452101,102.479809 L288.452101,102.350042 L288.426082,102.216981 L288.364492,102.111916 L288.210352,101.9199 L288.147445,101.819117 L288.102323,101.681115 L288.084208,101.419605 L288.059177,101.29412 L288.007797,101.200253 L287.881982,101.03722 L287.846412,100.927873 L287.879348,100.781638 L288.16029,100.408805 L288.242959,100.184842 L288.295986,100.113371 L288.354941,100.074177 L288.502164,100.012917 L288.568035,99.9684532 L288.641482,99.8449439 L288.671454,99.7145181 L288.707354,99.4358811 L288.903651,98.9247173 L288.903651,98.9237293 L289.091715,98.353281 L289.146718,98.0328155 L289.132555,97.6191417 L289.116087,97.5397664 L289.081834,97.5486591 L289.041323,97.6553711 L288.985003,97.6856721 L288.860505,97.6412087 L288.735679,97.5641389 L288.679029,97.4956324 L288.653998,97.4521572 L288.526207,97.3964956 L288.467581,97.3563139 L288.439256,97.3105332 L288.400063,97.1992101 L288.363175,97.1369614 L288.168524,96.878086 L287.73443,95.9232768 L287.582266,95.7539867 L287.295066,95.6759288 L287.019723,95.7391656 L286.793454,95.8919877 L286.643925,96.0836742 L286.556316,96.3735093 L286.541824,96.3883304 L286.499996,96.3945882 L286.331364,96.4574956 L286.30798,96.4726461 L286.236839,96.5372003 L286.242438,96.8507492 L286.126833,96.9670126 L285.991137,96.9670126 L285.854454,96.8955419 L285.751035,96.7707152 L285.707889,96.6129527 L285.72304,96.334645 L285.390718,96.1222091 L285.330774,96.0332824 L285.293228,95.9565419 L285.243824,95.8896822 L285.143699,95.8277629 L285.033693,95.8050372 L284.944767,95.8063546 L284.863086,95.7773711 L284.774818,95.6667068 L284.7017,95.6041287 L284.674364,95.5300232 L284.657237,95.4519653 L284.608492,95.3814826 L284.530105,95.319234 L284.492887,95.311 L284.457317,95.3294441 L284.043643,95.3907047 L283.875011,95.4476836 L283.738657,95.5379277 L283.652365,95.6620958 L283.550923,95.952919 L283.483075,96.0836742 L283.354955,96.2035605 L283.221894,96.2493413 L282.913944,96.2483532 L282.757499,96.276678 L282.475239,96.396235 L282.329004,96.4225837 L282.255558,96.4067745 L282.139953,96.3270698 L282.071776,96.2977569 L281.99273,96.2914991 L281.853741,96.3106019 L281.780953,96.306979 L281.198318,96.1139751 L280.828119,95.8574051 L280.720419,95.8168941 L280.574184,95.8702501 L280.642361,96.0059456 L280.921328,96.2990744 L280.98687,96.4476149 L281.071844,96.9162915 L281.319851,97.1840597 L281.372219,97.3125093 L281.332367,97.5150646 L281.254638,97.6527363 L281.171311,97.7083978 L281.081066,97.7538492 L280.982918,97.8595732 L280.731618,98.0720092 L279.819625,98.3562452 L279.626292,98.3862168 L279.471493,98.3081589 L279.176718,98.0631165 L279.044316,98.0008678 L278.731426,97.909965 L278.584861,97.8958026 L278.273947,97.9422421 L277.940307,98.0756321 L277.659694,98.2847745 L277.510495,98.5588005 L277.427497,99.1098166 L277.43606,99.1891919 L277.480194,99.3354269 L277.485464,99.4095325 L277.465702,99.4483968 L277.429802,99.4902252 L277.393902,99.5465455 L277.378093,99.6278969 L277.403124,99.8218889 L277.441001,99.9717468 L277.449564,100.12424 L277.38995,100.323501 L277.289166,100.497073 L277.184101,100.587976 L276.890314,100.704569 L276.618593,100.90383 L276.500683,100.929191 L276.354448,100.706874 L276.259264,100.619594 L276.15321,100.54483 L275.924965,100.439765 L275.480332,100.784273 L275.335414,100.834336 L274.661877,100.933143 L274.528487,100.992757 L274.46525,101.054676 L274.335483,101.220673 L274.277516,101.260196 L274.107567,101.293461 L273.956392,101.352416 L273.877346,101.422569 L273.866477,101.476584 L273.836835,101.487124 L273.706409,101.426522 L273.628351,101.361309 L273.570713,101.287862 L273.504183,101.239776 L273.396153,101.250644 L273.13102,101.39161 L272.788488,101.402808 L272.43311,101.368555 L272.127466,101.373824 L271.789544,101.53488 L271.598187,101.57638 L271.45854,101.477902 L271.439766,101.393915 L271.449318,101.229565 L271.414076,101.151178 L271.358085,101.121536 L271.100857,101.040514 L270.798835,100.764182 L270.640743,100.675256 L270.447739,100.707204 L270.349261,100.673938 L270.255724,100.540878 L270.142424,100.430872 L269.982027,100.468419 L269.931965,100.577107 L269.831181,101.101775 L269.838427,101.24801 L269.901664,101.538174 L269.899029,101.680127 L269.859176,101.780911 L269.796928,101.803637 L269.723152,101.801661 L269.640483,101.82735 L269.573952,101.886635 L269.463288,102.019037 L269.401698,102.075028 L268.929728,102.311836 L268.647139,102.353335 L268.580608,102.451813 L268.573692,102.597719 L268.589501,102.757128 L268.614532,102.858241 L268.643845,102.898094 L268.648785,102.942228 L268.597735,103.059479 L268.532851,103.144783 L268.281222,103.368088 L268.028933,103.713914 L268.033215,103.771222 L268.089865,103.925691 L268.101722,104.005396 L268.150467,104.197412 L268.256191,104.34694 L268.325356,104.484941 L268.265413,104.642045 L268.192954,104.671687 L268.106662,104.664441 L268.036179,104.676298 L268.005878,104.762261 L268.048366,104.835049 L268.250591,104.999728 L268.31811,105.073834 L268.374101,105.225009 L268.393203,105.36795 L268.360597,105.993401 L268.309876,106.10703 L268.202176,106.229881 L267.730535,106.592833 L267.648854,106.742691 L267.599121,107.048665 L267.545106,107.173162 L267.437077,107.289096 L267.277668,107.403384 L267.200268,107.480783 L267.230569,107.576297 L267.401506,107.745916 L267.584959,107.883258 L267.664993,107.967903 L267.69694,108.068687 L267.667298,108.276841 L267.674544,108.342384 L267.767752,108.638476 L267.791137,108.78043 L267.795089,108.955978 L267.832965,109.254376 L267.918928,109.57056 L267.973272,109.893331 L267.912999,110.214455 L267.86656,110.305358 L267.844493,110.31985 L267.807934,110.309969 L267.446299,110.410423 L267.044811,110.399225 L266.897259,110.44797 L266.369957,110.798078 L266.075181,110.940031 L265.720133,110.93048 L265.533387,110.964733 L265.452365,110.954193 L265.369696,110.901826 L265.336431,110.846493 L265.315022,110.780622 L265.159565,110.534921 L265.093364,110.490457 L264.875,110.46345 L264.921769,110.553365 L265.08546,110.705528 L265.171422,110.856045 L265.202711,110.973296 L265.378259,111.338884 L265.570604,111.638929 L265.596294,111.815136 L265.599259,111.996941 L265.642734,112.193239 L265.748787,112.369445 L265.899962,112.522267 L266.063983,112.646106 L266.217464,112.735362 L266.287946,112.678054 L266.321212,112.616793 L266.462506,112.235726 L266.47601,112.217941 L266.562302,112.19752 L266.94798,112.353965 L267.046458,112.410286 L267.093227,112.529184 L267.089604,112.674431 L267.031966,112.796952 L266.918338,112.848332 L266.897259,112.923426 L266.981245,113.088434 L267.371205,113.630228 L267.400847,113.681937 L267.408752,113.729036 L267.408752,113.796883 L267.424891,113.890421 L267.495703,114.035339 L267.513159,114.12196 L267.505254,114.169387 L267.471989,114.24481 L267.464743,114.284663 L267.475941,114.353169 L267.502948,114.359427 L267.536543,114.350534 L267.568491,114.370625 L267.672239,114.420029 L267.687718,114.452635 L267.711432,114.549796 L267.821767,114.817894 L267.854044,114.857746 L267.878417,114.900562 L267.912999,114.993441 L267.930126,115.08665 L267.905753,115.129137 L267.880393,115.150875 L267.672239,115.290852 L267.458156,115.668296 L267.410069,115.786206 L267.513159,116.161675 L267.338928,116.185059 L267.398542,116.294406 L267.493397,116.373781 L267.569479,116.467319 L267.60472,116.573702 L267.647537,116.665263 L267.831319,116.820391 L267.896531,116.901742 L267.911682,116.983423 L267.912999,117.074326 L267.92288,117.17478 L267.969978,117.285115 L268.042766,117.382276 L269.293669,118.548204 L269.40565,118.622639 L269.585151,118.707284 L269.665185,118.756687 L269.733032,118.833428 L269.766297,118.951338 L269.93427,119.215154 L270.012657,119.441752 L270.065025,119.55044 L270.16548,119.656823 L270.268239,119.710509 L270.378904,119.747726 L270.469148,119.805034 L270.514599,119.917016 L270.509659,120.014177 L270.482651,120.180503 L270.49879,120.283262 L270.559392,120.359344 L271.208557,120.978537 L271.326796,121.045726 L271.472702,121.163637 L271.740141,121.551291 L271.912395,121.66986 L271.850476,121.739684 L271.815564,121.829599 L271.832032,121.898105 L272.029317,121.899093 L272.036563,121.960025 L271.997369,122.031166 L271.967727,122.058173 L272.06917,122.237015 L272.172917,122.337469 L272.304661,122.377651 L272.677494,122.386543 L272.829987,122.430677 L272.96667,122.518616 L273.10566,122.656288 L273.185364,122.776503 L273.314143,123.034391 L273.396153,123.138139 L273.440946,123.242216 L273.443252,123.37363 L273.471247,123.489234 L273.589816,123.544566 L273.661287,123.593641 L273.71069,123.701341 L273.775574,123.925963 L273.68006,123.856469 L273.593768,123.833743 L273.532508,123.87096 L273.513734,123.982942 L273.546999,124.078127 L273.614847,124.118638 L273.689282,124.148939 L273.745273,124.212505 L273.722547,124.300114 L273.630656,124.397275 L273.507476,124.475333 L273.396153,124.50728 L273.305251,124.638035 L273.245637,124.788223 L273.260458,124.9282 L273.485739,125.103089 L273.523944,125.191686 L273.5773,125.406757 L273.682695,125.557603 L273.94684,125.739738 L274.056187,125.884327 L274.088464,125.964361 L274.103615,126.035502 L274.100321,126.107961 L274.07529,126.191288 L274.076607,126.275933 L274.123705,126.357944 L274.5881,126.974502 L274.64969,127.117114 L274.638492,127.200112 L274.562081,127.364133 L274.571303,127.450095 L274.669781,127.678011 L274.780446,128.243848 L274.827873,128.361758 L274.97312,128.465177 L275.094324,128.374603 L275.321252,128.034706 L275.779389,127.671094 L275.88149,127.484678 L275.944727,127.159601 L276.007305,127.033457 L276.165726,126.901384 L276.194709,127.169482 L276.336992,127.308471 L276.512211,127.4221 L276.643295,127.615104 L276.649224,127.758045 L276.57413,128.100577 L276.53823,128.456614 L276.500683,128.580452 L276.28693,128.830106 L276.192404,128.973376 L276.143659,129.127845 L276.128838,129.295489 L276.134766,129.477294 L276.098866,129.547448 L275.920025,129.744074 L275.853494,129.792161 L275.736572,129.80797 L275.683546,129.773058 L275.6404,129.718055 L275.550485,129.676885 L275.085102,129.616283 L274.952041,129.622212 L274.79362,129.699282 L274.729724,129.829708 L274.682626,129.986811 L274.577232,130.140951 L274.493245,130.211434 L274.436266,130.243711 L274.371383,130.251945 L274.272905,130.252274 L274.196164,130.22889 L274.102627,130.188049 L274.013371,130.176192 L273.945523,130.2391 L273.969566,130.342847 L274.173109,130.635318 L274.225148,130.792421 L274.201105,130.93174 L274.109872,131.237714 L274.115472,131.426106 L274.170804,131.754806 L274.153677,131.897747 L273.915881,132.685901 L273.895131,132.869024 L273.93663,133.28698 L273.920821,133.733919 L274.098674,134.899847 L274.113166,135.294418 L274.043671,135.660334 L273.84408,135.889568 L273.819049,135.719619 L273.706409,135.596439 L273.551281,135.507842 L273.396153,135.439994 L273.250906,135.517064 L273.129373,135.564491 L272.856994,135.623117 L272.807261,135.656711 L272.801991,135.720278 L272.83328,135.85268 L272.823729,135.922174 L272.78223,135.965649 L272.715699,136.004184 L272.707136,136.012418 L272.688363,136.040743 L272.670248,136.079937 L272.660038,136.120448 L272.678482,136.140539 L272.724922,136.167546 L272.770373,136.203446 L272.791123,136.248568 L272.791123,136.366478 L272.77202,136.419176 L272.718664,136.434326 L272.605035,136.389863 L272.345501,136.231771 L272.2075,136.178744 L272.034916,136.150419 L271.943025,136.17084 L271.674928,136.554542 L271.562946,136.664877 L271.430544,136.726796 L271.14038,136.713292 L271.145979,136.805513 L271.24281,137.037051 L271.205263,137.180652 L271.04783,137.454019 L271.013247,137.605523 L271.071214,137.790623 L271.305717,138.035006 L271.346228,138.204955 L271.321856,138.285648 L271.280357,138.352508 L271.24775,138.426613 L271.246104,138.528385 L271.276075,138.610724 L271.426592,138.879481 L271.477642,139.050418 L271.467762,139.331031 L271.481595,139.495051 L271.50432,139.536221 L271.586001,139.60341 L271.610044,139.653143 L271.607409,139.691348 L271.582049,139.804977 L271.641992,139.956482 L272.053031,140.610587 L272.968976,141.496231 L273.068442,141.649712 L273.134314,141.818014 L273.176142,142.006407 L273.231804,142.115754 L273.324683,142.151983 L273.423819,142.205339 L273.951451,143.286292 L274.296618,143.722692 L274.359197,143.784941 L274.458004,143.850812 L274.511031,143.871891 L274.628282,143.898569 L274.683944,143.924588 L274.733347,143.973333 L274.830508,144.101783 L274.881888,144.140318 L274.997493,144.14427 L275.086419,144.11364 L275.159866,144.124509 L275.342001,144.486144 L275.513926,144.66795 L276.414391,145.349392 L276.576435,145.421192 L276.75857,145.474548 L276.891631,145.559852 L276.968042,145.685996 L276.985169,145.862202 L277.026009,146.005144 L277.267099,146.296626 L277.359649,146.443519 L277.437048,146.614786 L277.505884,146.705359 L277.744339,146.883542 L277.777934,146.929981 L277.816139,147.046245 L277.84644,147.093014 L277.885634,147.113763 L277.991687,147.143405 L278.02627,147.16679 L278.065464,147.232332 L278.082261,147.283053 L278.079626,147.342338 L278.061511,147.435875 L278.063817,147.569924 L278.150767,147.941111 L278.208405,148.065938 L278.454765,148.303405 L278.539739,148.437124 L278.542374,148.640009 L278.517343,148.816545 L278.536446,149.468344 L278.808166,150.668855 L278.815083,150.817725 L278.775889,151.20505 L278.80092,151.35359 L278.80092,151.428355 L278.768972,151.509047 L278.725168,151.573931 L278.693879,151.647048 L278.69849,151.751455 L278.794333,152.041619 L278.825293,152.20037 L278.803884,152.33376 L278.693879,152.432238 L278.393504,152.465833 L278.248257,152.520506 L278.157354,152.650273 L278.158013,152.801449 L278.181727,152.973374 L278.160319,153.168683 L278.094776,153.351806 L278.052948,153.525048 L278.090165,153.679847 L278.257809,153.811261 L278.387905,153.890965 L278.5292,154.017109 L278.632948,154.165979 L278.65205,154.316825 L278.619773,154.404105 L278.580909,154.472612 L278.552255,154.544412 L278.545009,154.644866 L278.561477,154.715678 L278.660943,154.95051 L278.686633,155.188307 L278.712323,155.265047 L278.772925,155.348704 L278.923771,155.493293 L278.981738,155.582878 L279.010063,155.741958 L279.000182,155.88951 L279.007428,156.0285 L279.085815,156.160901 L279.153992,156.194496 L279.327564,156.22315 L279.40661,156.273871 L279.440534,156.344025 L279.45766,156.50014 L279.48335,156.56173 L279.554492,156.605206 L279.732674,156.655268 L279.789324,156.714223 L279.83774,156.795245 L279.912175,156.872315 L279.996161,156.939504 L280.369982,157.147988 L280.442441,157.255029 L280.472742,157.443093 L280.471425,157.607442 L280.449358,157.778379 L280.419715,157.860719 L280.337705,158.026715 L280.319261,158.104444 L280.351538,158.263194 L280.523793,158.572462 L280.574184,158.740434 L280.595263,159.170247 L280.620294,159.318128 L280.661794,159.412325 L280.778386,159.552961 L280.830425,159.636618 L280.850516,159.720933 L280.83273,159.861569 L280.839318,159.942921 L280.867972,160.023943 L280.949982,160.176436 L280.976989,160.254164 L280.963815,160.359888 L280.901566,160.428724 L280.828119,160.488338 L280.787938,160.563102 L280.814286,160.701433 L280.920669,160.726464 L281.348176,160.585828 L281.425575,160.583852 L281.492435,160.613823 L281.523394,160.681342 L281.506597,160.75413 L281.473991,160.832517 L281.461804,160.920785 L281.341259,161.284067 L281.315899,161.498479 L281.436444,161.608814 L281.580703,161.655254 L281.684121,161.749779 L281.737807,161.881193 L281.728914,162.037309 L281.611004,162.348223 L281.586631,162.506974 L281.641963,162.67824 L281.73616,162.793845 L281.872185,162.913402 L282.01842,163.006939 L282.146869,163.043498 L282.162679,163.117604 L282.051356,163.628109 L281.987131,163.810903 L281.499351,164.466984 L281.409107,164.540431 L281.093911,164.559534 L280.919022,164.594446 L280.795184,164.672174 L280.72536,164.799636 L280.71515,164.979136 L280.729641,165.291038 L280.701317,165.419817 L280.631493,165.571651 L280.537955,165.700101 L280.319261,165.920112 L280.24779,166.043621 L280.205633,166.233332 L280.193446,166.368039 L280.147007,166.49583 L279.858818,166.807403 L279.778126,166.925642 L279.66285,167.23458 L279.571289,167.406176 L279.326246,167.700951 L279.228427,167.871888 L278.998864,168.558929 L278.946826,168.622495 L278.78544,168.67651 L278.711335,168.718997 L278.654356,168.792444 L278.583544,168.950207 L278.53414,169.023983 L278.392516,169.133989 L278.090165,169.291092 L277.965997,169.417237 L277.933391,169.485743 L277.865543,169.717611 L277.80066,169.81082 L277.726225,169.808843 L277.646191,169.767015 L277.559899,169.741325 L277.463397,169.726504 L277.424862,169.706413 L277.39489,169.716294 L277.325066,169.79007 L277.281262,169.85693 L277.250961,169.936964 L277.232846,170.020621 L277.228565,170.099667 L277.244703,170.192875 L277.305305,170.349979 L277.305964,170.46229 L277.277639,170.6161 L277.245691,170.67802 L277.189042,170.740268 L277.152812,170.748173 L276.882738,170.867071 L276.800728,170.863119 L276.735845,170.8315 L276.665362,170.815691 L276.564249,170.860484 L276.499695,170.931955 L276.437117,171.090376 L276.383102,171.156577 L276.327111,171.173703 L276.165726,171.184243 L276.093596,171.205981 L275.948679,171.335418 L275.613392,171.779064 L275.53764,171.953624 L275.470451,172.282982 L275.497458,172.380801 L275.643364,172.505957 L275.693097,172.588955 L275.79915,173.070806 L275.792234,173.223958 L275.687498,173.517416 L275.610099,173.907705 L275.470451,174.374076 L275.459253,174.539414 L275.343319,174.824309 L275.314994,174.975155 L275.302149,175.131929 L275.265261,175.312747 L275.207623,175.485001 L275.032075,175.817653 L274.823591,176.404899 L274.714574,176.526432 L274.378299,177.107419 L274.347998,177.207215 L274.347669,177.257277 L274.429679,177.363331 L274.445488,177.319197 L274.529804,177.309316 L274.603251,177.341593 L274.585466,177.421298 L274.519265,177.457527 L274.349645,177.455551 L274.289373,177.496721 L274.2291,177.591905 L274.151372,177.664035 L274.137209,177.705204 L274.191224,177.737152 L274.247873,177.751315 L274.274552,177.781616 L274.240628,177.861979 L274.12634,177.944977 L274.170804,177.99504 L274.103615,178.028634 L274.046306,178.029293 L273.99822,178.001627 L273.962979,177.947612 L273.871417,178.03061 L273.749555,178.172234 L273.687965,178.305954 L273.822672,178.392575 L273.855608,178.450542 L273.896448,178.504557 L273.962979,178.517402 L274.035108,178.473268 L274.160923,178.316822 L274.222513,178.260832 L274.160923,178.399162 L274.094063,178.511802 L274.013371,178.602376 L273.906329,178.679116 L273.836835,178.700854 L273.775574,178.703489 L273.71596,178.718969 L273.652723,178.783194 L273.658981,178.811518 L273.661287,178.982455 L273.652723,179.044375 L273.699822,179.044375 L273.708385,179.010121 L273.717607,178.987725 L273.752519,178.935028 L273.819049,178.974221 L273.88558,178.99036 L274.041366,178.992336 L274.091099,179.026919 L274.058163,179.100365 L273.996244,179.16459 L273.962979,179.173154 L273.924773,179.304238 L273.830577,179.323012 L273.71069,179.275255 L273.596074,179.201478 L273.544365,179.248247 L273.642184,179.310167 L273.691917,179.392506 L273.668203,179.456072 L273.544365,179.462659 L273.68006,179.643806 L273.699822,179.699797 L273.683024,179.734709 L273.612542,179.824624 L273.596074,179.853607 L273.518345,179.850314 L273.377051,179.956038 L273.314143,180.083829 L273.467624,180.145748 L273.484092,180.166168 L273.513734,180.267281 L273.544365,180.301205 L273.605625,180.307792 L273.750543,180.289678 L273.80851,180.301205 L273.828271,180.376628 L273.743297,180.471813 L273.492985,180.666134 L273.266716,180.509689 L273.160004,180.723442 L273.026943,181.399285 L272.870498,181.669688 L272.811213,181.80736 L272.707136,182.283282 L272.652792,182.425565 L272.560242,182.549733 L272.538505,182.652493 L272.46934,182.780613 L272.471645,182.900829 L272.611952,182.9723 L272.498982,183.097785 L272.438051,183.153776 L272.375802,183.176172 L272.2793,183.145871 L272.244059,183.102067 L272.249987,183.256536 L272.290498,183.446905 L272.389306,183.616853 L272.611952,183.909982 L272.696926,184.151402 L272.574405,184.210686 L272.393917,184.220896 L272.300708,184.302577 L272.321787,184.499863 L272.396551,184.562441 L272.540481,184.523906 L272.767079,184.431685 L272.588897,184.624689 L272.515779,184.730413 L272.534553,184.826915 L272.560242,184.900033 L272.466046,184.900033 L272.352747,184.871049 L272.324422,184.851946 L272.26382,184.887846 L272.167648,185.072616 L272.020424,185.276489 L271.948624,185.577522 L271.783287,185.839362 L271.745081,186.00964 L271.717086,186.48194 L271.700947,186.532661 L271.674928,186.581735 L271.61729,186.639044 L271.553395,186.678237 L271.497733,186.719407 L271.467762,186.790219 L271.488182,186.892979 L271.609386,187.194012 L271.623548,187.361326 L271.605433,187.437737 L271.518812,187.673228 L271.514201,187.710116 L271.518812,187.834614 L271.507285,187.866232 L271.484559,187.899168 L271.464797,187.936385 L271.467762,187.986448 L271.544173,188.08295 L271.651543,188.155738 L271.718732,188.250263 L271.674928,188.401439 L271.490817,188.204153 L271.436802,188.10831 L271.416052,187.961416 L271.390362,187.891922 L271.339312,187.951865 L271.301106,188.087561 L271.312305,188.250263 L271.635734,189.225493 L271.789544,189.9402 L271.859039,190.052182 L271.903832,190.162846 L271.905808,190.488911 L271.933474,190.600892 L271.975632,190.647661 L272.024706,190.676645 L272.085967,190.695418 L272.169624,190.700688 L272.256904,190.726378 L272.288522,190.780393 L272.311906,190.835725 L272.506886,190.914112 L272.646534,191.173317 L272.767079,191.282664 L272.848431,191.186821 L272.869839,191.14071 L272.875768,191.06924 L272.923524,191.06924 L273.02332,191.191432 L273.184047,190.987559 L273.311838,190.675327 L273.308873,190.470796 L273.262105,190.35585 L273.26441,190.208298 L273.235756,190.083141 L273.001582,189.988286 L273.048022,189.907264 L273.179106,189.846333 L273.337198,189.864448 L273.337198,189.765311 L273.389237,189.765311 L273.439958,189.841063 L273.491009,189.848309 L273.530202,189.797917 L273.544365,189.708661 L273.596074,189.708661 L273.670838,189.799893 L273.789736,189.7607 L273.908305,189.664857 L273.987022,189.580541 L274.104932,189.520268 L274.238322,189.513023 L274.342729,189.467242 L274.378299,189.296964 L274.507408,189.349661 L274.67044,189.382597 L274.770894,189.430683 L274.714574,189.531137 L274.590406,189.623028 L274.549236,189.685606 L274.517947,190.091375 L274.533098,190.18129 L274.585466,190.18129 L274.585466,190.128593 L274.637504,190.128593 L274.716879,190.153624 L274.936232,190.013647 L275.08115,189.972477 L275.133517,190.048888 L275.159866,190.600892 L275.206964,190.600892 L275.314994,190.387798 L275.44509,190.686526 L275.470451,190.805424 L275.470451,190.93585 L275.443443,191.179904 L275.470451,191.282664 L275.452007,191.655168 L275.470451,191.801732 L275.507339,191.86431 L275.606146,191.963447 L275.626237,192.031624 L275.643035,192.142288 L275.682557,192.142288 L275.781694,192.056655 L275.807384,192.015486 L275.827475,191.950931 L275.870292,191.922936 L275.964817,191.979256 L276.003023,192.043152 L276.054403,192.211124 L276.09195,192.270079 L276.19932,192.30038 L276.308667,192.256576 L276.420649,192.19301 L276.537242,192.160733 L276.563261,192.132408 L276.619911,191.997371 L276.665691,191.953566 L276.763181,191.93117 L276.794141,191.950931 L276.806327,192.005605 L276.850132,192.085639 L276.910405,192.137019 L277.033255,192.203878 L277.085623,192.270079 L277.109666,192.334963 L277.107361,192.376133 L277.093198,192.424548 L277.085623,192.499642 L277.141614,192.653452 L277.265453,192.722947 L277.387315,192.757859 L277.442647,192.814508 L277.55924,193.009818 L277.599092,193.053622 L277.694936,193.067785 L277.767724,193.03946 L277.914617,192.892896 L277.918899,193.022004 L277.870483,193.248602 L277.857639,193.390885 L277.811528,193.482117 L277.495015,193.728477 L277.59514,193.928398 L277.636639,194.430998 L277.811528,194.612474 L278.079626,194.665172 L278.2364,194.562083 L278.309518,194.352281 L278.329279,194.093077 L278.376378,194.093077 L278.428746,194.26566 L278.546985,194.371714 L278.696184,194.454053 L278.846372,194.564717 L278.949461,194.711282 L279.012039,194.755086 L279.133572,194.77386 L279.233697,194.821287 L279.326246,194.929317 L279.374662,195.035041 L279.343702,195.083786 L279.257411,195.104535 L279.281783,195.155257 L279.355559,195.205319 L279.42209,195.239572 L279.487632,195.23068 L279.554492,195.197744 L279.607189,195.207295 L279.661533,195.552133 L279.718841,195.742502 L279.730369,195.909816 L279.628268,196.070543 L279.686235,196.088657 L279.851902,196.08734 L279.887473,196.098209 L279.903282,196.185159 L279.977717,196.309327 L279.996161,196.360049 L280.02218,196.706204 L280.008676,196.886363 L279.939182,197.009872 L280.16084,197.368214 L280.254707,197.485136 L280.362407,197.551337 L280.578137,197.588884 L280.617989,197.61128 L280.661135,197.661343 L280.763895,197.723262 L280.877523,197.773983 L280.956898,197.797697 L281.088971,197.753563 L281.118943,197.645863 L281.088642,197.376448 L281.110379,197.258208 L281.162418,197.106374 L281.241464,196.998345 L281.342906,197.009872 L281.372219,197.112632 L281.336319,197.439026 L281.366949,197.559242 L281.554354,197.630054 L281.701577,197.475585 L281.917307,197.065204 L281.964405,197.065204 L281.925211,197.319798 L281.826733,197.593165 L281.685439,197.8112 L281.523394,197.900786 L281.482883,198.0681 L281.618579,198.424465 L281.815535,198.735709 L281.964405,198.777537 L282.021055,198.777537 L282.04411,198.885567 L282.097795,198.882932 L282.22328,198.777537 L282.487755,198.626362 L282.483144,198.894789 L282.527607,198.98668 L282.641565,199.041353 L282.732468,199.002818 L282.874421,198.922784 L283.002542,198.882932 L283.060838,198.965271 L282.848402,199.250495 L282.82403,199.301217 L282.738397,199.349303 L282.661327,199.468531 L282.538806,199.722466 L282.592162,199.822261 L282.56219,199.978706 L282.552309,200.123295 L282.667914,200.187519 L282.750253,200.219796 L282.794387,200.290608 L282.801304,200.362079 L282.774297,200.394686 L282.663962,200.396003 L282.624439,200.4128 L282.591173,200.550472 L282.588539,200.856116 L282.776931,201.030347 L283.434001,201.278024 L283.473524,201.307666 L283.527539,201.378808 L283.58847,201.574446 L283.643143,201.673583 L283.710662,201.668313 L283.846028,201.620227 L283.967232,201.724963 L284.149367,202.009858 L284.345994,202.159386 L284.429651,202.256547 L284.464562,202.396524 L284.497169,202.467995 L284.571275,202.478205 L284.643404,202.474582 L284.675681,202.498955 L284.690173,202.581953 L284.755386,202.711061 L284.774818,202.787143 L284.760985,202.823043 L284.69182,202.915263 L284.675681,202.970925 L284.699724,203.007154 L284.755386,202.992992 L284.853205,202.942271 L284.905902,202.975536 L284.935545,203.053264 L284.956624,203.139556 L284.982643,203.206416 L285.199031,203.454752 L285.452637,203.669164 L285.525096,203.500533 L285.583063,203.438613 L285.682199,203.413582 L285.758611,203.465621 L285.749059,203.588142 L285.65651,203.833184 L285.792205,203.873037 L285.883108,203.999181 L285.93844,204.157273 L285.998054,204.037716 L286.064914,203.873037 L286.096203,203.682009 L286.093238,203.615479 L286.068207,203.484394 L286.074794,203.418193 L286.125845,203.33783 L286.192375,203.28118 L286.238156,203.215638 L286.223006,203.107938 L286.162074,202.931073 L286.153511,202.802623 L286.204561,202.495002 L286.214442,202.323407 L286.235521,202.235798 L286.284595,202.17289 L286.392954,202.138637 L286.46179,202.181124 L286.515476,202.247325 L286.581018,202.281578 L286.695634,202.283554 L286.695634,202.270051 L286.81091,202.197263 L286.879746,202.191993 L286.967355,202.19858 L287.048048,202.228881 L287.099757,202.283554 L287.381358,203.135275 L287.46765,203.277887 L287.615861,203.409301 L287.90866,203.549278 L288.077621,203.601975 L288.205741,203.610538 L288.40171,203.588142 L288.51435,203.615479 L288.757087,203.790039 L288.895417,203.854263 L289.357836,203.987324 L289.618029,204.101941 L289.754713,204.136853 L289.889091,204.118079 L290.378188,203.769289 L290.507955,203.769289 L290.519482,203.815728 L290.516847,203.985019 L290.537597,204.046608 L290.601492,204.095683 L290.671975,204.104576 L290.750362,204.104576 L290.836654,204.116103 L291.010885,204.217875 L291.081697,204.36378 L291.103105,204.724098 L291.120561,204.811378 L291.154155,204.895035 L291.244729,205.048845 L291.259221,205.110106 L291.243411,205.178942 L291.216733,205.250083 L291.202571,205.318919 L291.207182,205.537613 L291.225955,205.601508 L291.289522,205.714807 L291.322457,205.709538 L291.363956,205.659475 L291.457494,205.629174 L291.558607,205.643337 L291.874791,205.721065 L292.017403,205.684506 L292.216665,205.470753 L292.361253,205.441111 L292.605637,205.640702 L292.731122,205.68253 L293.079583,205.606449 L293.176085,205.640702 L293.226477,205.736545 L293.247226,205.893649 L293.233064,206.076772 L293.163899,206.140997 L293.064103,206.186778 L292.962002,206.31358 L292.955086,206.48847 L293.076289,206.602428 L293.217913,206.708481 L293.271599,206.857021 L293.232076,207.153773 L293.220219,207.584573 L293.166533,207.833568 L293.154347,207.975851 L293.09638,208.116157 L292.958379,208.16622 L292.798311,208.199156 L292.672826,208.27886 L292.361253,208.907934 L292.311849,208.993568 L292.293076,209.080189 L292.307897,209.167798 L292.404728,209.319632 L292.493984,209.495839 L292.546023,209.558087 L292.620458,209.585095 L292.764387,209.580813 L292.83981,209.594317 L293.010418,209.709263 L293.154347,209.872954 L293.269623,210.063323 L293.356573,210.253033 L293.483705,210.311 L293.694495,210.243811 L294.049872,210.033022 L294.167453,209.920381 L294.263296,209.787979 L294.329168,209.63351 L294.351564,209.465538 L294.44576,209.121358 L294.678287,208.999825 L294.977015,208.947787 L295.269485,208.806163 L295.535277,208.637861 L296.612608,208.219576 L296.789802,208.180382 L296.951846,208.216282 L297.071733,208.377668 L297.106974,208.462642 L297.148144,208.521927 L297.20644,208.559144 L297.295367,208.571989 L297.367167,208.602949 L297.369473,208.664209 L297.346088,208.739962 L297.341477,208.806163 L297.490676,209.153636 L297.609245,209.28472 L297.76602,209.31568 L297.841772,209.277145 L297.979114,209.153636 L298.070347,209.126628 L298.17113,209.15627 L298.230415,209.231364 L298.278172,209.323584 L298.344373,209.406583 L298.505429,209.490569 L298.629267,209.477724 L298.719182,209.382539 L298.779784,209.222471 L298.819307,209.176691 L299.040965,209.040995 L299.087734,208.974794 L299.113094,208.9053 L299.150641,208.841733 L299.234628,208.788377 L299.482964,208.574624 L299.53105,208.282483 L299.534343,207.960371 L299.647972,207.64781 L299.835047,207.420553 L300.396932,206.988435 L300.5985,206.788844 L300.684791,206.547754 L300.649221,205.955239 L300.698295,205.555727 L300.297466,205.268198 L299.452004,204.462917 L298.691187,203.987324 L298.413867,203.711981 L297.629665,202.513117 L296.854686,201.197661 L296.788485,201.123555 L296.525986,200.980284 L296.317173,200.893334 L296.261512,200.846236 L296.13438,200.80309 L295.988145,200.771142 L295.874187,200.75698 L295.740467,200.724702 L295.491472,200.582749 L295.189451,200.465498 L294.993483,200.308394 L294.790928,200.219796 L294.551155,200.343964 L295.049474,200.547837 L295.27212,200.706258 L295.224692,200.86435 L295.192086,200.851505 L294.980638,200.84887 L294.965817,200.86435 L294.910814,200.832732 L294.798503,200.731948 L294.782035,200.711199 L294.626907,200.733595 L294.28701,200.917048 L294.011996,200.970404 L292.762082,201.014208 L292.492337,200.908814 L291.95219,200.550472 L291.639959,200.293902 L291.532588,200.2333 L291.420277,200.210904 L291.233531,200.2333 L291.118585,200.2333 L290.923605,200.174016 L290.777699,200.051824 L289.608807,198.460365 L289.507694,198.259128 L289.465866,198.359582 L289.43787,198.560161 L289.377927,198.651393 L289.067342,198.91455 L289.008387,198.934641 L288.915838,198.926736 L288.726457,198.885567 L288.596031,198.908622 L288.556837,198.872063 L288.569682,198.731098 L288.396769,198.780831 L288.247241,198.735709 L288.143163,198.617469 L288.105287,198.442251 L288.026571,198.380002 L287.972885,198.318412 L287.949171,198.233438 L287.97025,198.187657 L288.020972,198.149122 L288.087502,198.124091 L288.152385,198.106635 L288.105946,198.024954 L288.035793,197.987736 L287.96004,197.960729 L287.892851,197.900786 L287.864197,197.829315 L287.850364,197.738083 L287.845753,197.559242 L287.780211,197.39588 L287.625412,197.344829 L287.43702,197.342524 L287.271682,197.319798 L287.087241,197.172575 L286.949899,196.93379 L286.700245,196.316244 L286.679496,196.279685 L286.643925,196.231599 L286.483198,196.095574 L286.463437,196.070543 L286.378463,196.015869 L286.331364,195.88742 L286.281302,195.606807 L286.145936,195.244183 L286.057668,194.603252 L286.070513,194.456688 L286.159439,194.351293 L286.570478,193.988341 L286.724947,193.958699 L286.873488,193.904684 L287.017417,193.878335 L287.162335,193.933009 L287.300665,194.16323 L287.405072,194.544297 L287.453817,194.945455 L287.426151,195.239572 L287.321086,195.381196 L287.062539,195.539947 L287.011818,195.686511 L287.011818,195.778731 L287.017417,195.839004 L287.040143,195.889396 L287.087241,195.942093 L287.168922,195.985568 L287.216679,195.946375 L287.271682,195.815949 L287.49861,195.631838 L287.722244,195.581775 L287.913601,195.673666 L288.05259,195.914427 L288.084208,196.443047 L288.174782,196.686113 L288.307842,197.517413 L288.301585,197.689009 L288.199154,197.891235 L288.26305,197.928452 L288.556178,197.957435 L288.615463,197.994653 L288.658279,198.04735 L289.021891,198.334221 L289.20205,198.440604 L289.326218,198.442251 L289.39176,198.311825 L289.36113,198.17086 L289.280108,198.040434 L288.716905,197.385999 L288.311136,196.300435 L287.759791,193.648773 L287.270364,191.418359 L287.03158,189.905947 L286.643925,188.904369 L286.553681,188.743642 L286.342892,188.505187 L286.114976,188.338531 L285.967094,188.401439 L286.221359,188.502552 L286.300734,188.769332 L286.316543,189.076952 L286.386038,189.296964 L286.287889,189.356907 L286.168661,189.383914 L286.065572,189.361847 L286.023414,189.266663 L285.988173,189.246242 L285.821518,189.17543 L285.76421,189.141177 L285.719746,189.074976 L285.671001,188.920507 L285.546833,188.73936 L285.381166,188.409343 L285.349877,188.27793 L285.282029,188.165289 L284.853205,187.908719 L284.723109,187.70814 L284.661848,187.464744 L284.511002,185.979669 L284.412524,185.74286 L284.449412,185.623962 L284.361144,185.038363 L284.361144,184.851946 L284.379588,184.799908 L284.4145,184.741941 L284.449412,184.703406 L284.464562,184.69616 L284.450071,184.611186 L284.377283,184.485371 L284.361144,184.406654 L284.361144,184.042055 L284.33743,183.922498 L284.279793,183.830277 L284.209639,183.742998 L284.149367,183.644519 L284.111491,183.49532 L284.10688,182.918944 L284.045948,182.9723 L283.9063,182.732856 L283.856567,182.608688 L283.868754,182.523714 L283.86052,182.450596 L283.572002,182.323793 L283.48077,182.236843 L283.437295,182.26912 L283.355943,182.311607 L283.316091,182.346848 L283.096079,182.259569 L282.995625,182.252323 L282.953467,182.317206 L282.903076,182.305679 L282.616205,182.28954 L282.61324,182.303373 L282.487755,182.392629 L282.251276,182.450596 L282.195614,182.473651 L282.116568,182.52569 L282.015126,182.579046 L281.888982,182.601772 L281.544803,182.539852 L281.450936,182.549733 L281.342906,182.641624 L281.287245,182.767768 L281.250027,182.902146 L281.19206,183.019727 L280.98687,183.166621 L280.752696,183.20318 L280.503372,183.201203 L280.254707,183.228211 L280.046223,183.026973 L279.675695,183.001283 L279.320318,182.926519 L279.162885,182.576082 L279.132913,182.259569 L279.172766,182.132766 L279.318012,181.975003 L279.387507,181.922965 L279.576888,181.819546 L279.595661,181.78661 L279.586439,181.750052 L279.590392,181.722385 L279.654287,181.710858 L279.707643,181.71514 L279.743214,181.725679 L279.780431,181.725679 L279.840045,181.710858 L279.398046,181.140739 L279.078569,180.55547 L279.053538,180.429984 L279.03707,180.255095 L278.993924,180.135209 L278.762056,179.787407 L278.696843,179.618775 L278.654356,179.445203 L278.615162,179.146146 L278.508121,178.837867 L278.484407,178.679116 L278.493958,178.514437 L278.510097,178.441649 L278.536446,178.364909 L278.568393,178.322751 L278.663249,178.248645 L278.691573,178.204182 L278.693879,178.14885 L278.674776,178.115585 L278.651392,178.092859 L278.639535,178.071121 L278.639535,177.468396 L278.587825,177.129816 L278.612198,177.032985 L278.717922,176.954927 L278.743283,176.865012 L278.704089,176.729316 L278.623726,176.617335 L278.550279,176.478345 L278.536446,176.265251 L278.598694,176.07554 L278.803884,175.73729 L278.846372,175.555155 L278.913561,175.445808 L279.219864,175.416165 L279.318012,175.263343 L279.176718,175.301878 L279.089109,175.279811 L278.950778,175.110851 L278.668189,174.855269 L278.587825,174.740323 L278.53414,174.406353 L278.536446,174.32072 L278.605281,174.239698 L278.687621,174.222901 L278.787087,174.214667 L278.904009,174.159335 L279.00117,174.20808 L279.081204,174.259789 L279.136207,174.327966 L279.162885,174.426115 L279.331516,174.330272 L279.387507,174.322038 L279.496525,174.32072 L279.547246,174.267364 L279.580511,174.14122 L279.590392,174.000914 L279.576888,173.903424 L279.491914,173.813179 L279.257411,173.658052 L279.209324,173.557927 L279.235673,173.439358 L279.295945,173.350761 L279.366757,173.268421 L279.42209,173.165332 L279.343044,173.167308 L279.275525,173.15117 L279.22711,173.117246 L279.209324,173.061255 L279.240943,172.958166 L279.319659,172.922266 L279.413526,172.908762 L279.496525,172.875497 L279.571948,172.7454 L279.63222,172.377507 L279.680306,172.22238 L279.761987,172.098212 L279.867711,171.976679 L279.99122,171.88347 L280.125269,171.846582 L280.226712,171.837031 L280.243509,171.806071 L280.221112,171.751398 L280.202998,171.671034 L280.231323,171.602857 L280.685507,170.913181 L280.720419,170.773204 L280.720419,170.458667 L280.748085,170.386538 L280.812969,170.349979 L280.883781,170.33384 L280.993457,170.321654 L281.135411,170.327253 L281.147267,170.360189 L281.203917,170.414204 L281.266166,170.418815 L281.295479,170.301563 L281.266166,170.141495 L281.149573,169.820371 L281.135411,169.641529 L281.168346,169.504517 L281.273741,169.244653 L281.295479,169.090843 L281.271106,168.954488 L281.159783,168.67651 L281.135411,168.511831 L281.150561,168.371195 L281.189425,168.249662 L281.241464,168.146573 L281.295479,168.063575 L281.395603,167.956863 L281.529982,167.867277 L281.649868,167.864313 L281.705529,168.015488 L281.83332,167.893297 L281.83332,167.749038 L281.705529,167.429231 L281.682145,167.269163 L281.705529,166.825188 L281.738465,166.748118 L281.884371,166.592991 L281.917307,166.510651 L281.936739,166.439839 L282.132707,166.007063 L282.181123,165.851935 L282.211094,165.689232 L282.22328,165.507756 L282.255558,165.370084 L282.402451,165.15666 L282.435387,165.035785 L282.473263,164.950152 L283.089492,163.934412 L283.306539,163.723293 L283.584188,163.690687 L283.538737,163.60176 L283.543677,163.53029 L283.56805,163.473969 L283.584188,163.428188 L283.527539,163.136048 L283.529844,163.050415 L283.548618,162.993436 L283.602632,162.9605 L283.710662,162.949631 L283.734705,162.905168 L283.630957,162.634435 L283.6909,162.280046 L283.875011,161.942783 L284.632206,161.140796 L284.801167,160.864794 L284.831797,160.796617 L284.879554,160.520615 L284.928628,160.446509 L285.050161,160.351325 L285.089684,160.308838 L285.124596,160.213324 L285.121632,160.140865 L285.101541,160.079275 L285.077169,159.920854 L285.042257,159.839832 L284.985936,159.769678 L284.910184,159.699196 L284.841348,159.613563 L284.833114,159.540775 L285.000099,158.970326 L285.064653,158.856039 L285.055102,158.744387 L284.827515,158.192053 L284.798532,158.021446 L284.827515,157.531361 L284.805448,157.372939 L284.675681,156.873962 L284.671399,156.545262 L284.70697,156.218869 L284.776465,155.901367 L284.879554,155.598687 L285.152592,155.160641 L285.19442,155.047012 L285.298168,154.489738 L285.37392,154.240085 L285.427276,154.130738 L285.678247,153.791828 L285.746095,153.669637 L285.76421,153.533941 L285.638395,153.233896 L285.561325,152.942414 L285.556714,152.873578 L285.533,152.79552 L285.478656,152.738541 L285.424971,152.695725 L285.401586,152.659495 L284.961564,152.289955 L284.723109,151.972125 L284.673705,151.714237 L284.690173,151.578542 L284.801167,151.520575 L284.924676,151.487639 L285.018214,151.401018 L285.077169,151.280473 L285.089684,151.145107 L284.982643,151.09735 L285.136453,151.139178 L285.208582,151.019951 L285.266879,150.859882 L285.376226,150.779848 L285.498088,150.746254 L285.829752,150.597713 L286.114317,150.539088 L286.772046,150.280542 L286.894567,150.215329 L286.982176,150.124096 L287.058587,149.976544 L287.172216,150.066788 L287.530557,150.246288 L287.676463,150.185686 L287.86288,150.170865 L288.233737,150.188321 L289.190522,150.021337 L289.34038,149.953489 L289.403617,149.843813 L289.395712,149.516431 L289.424366,149.391275 L289.507694,149.235159 L289.515928,149.357351 L289.498801,149.464721 L289.459608,149.551013 L289.445116,149.62479 L289.464219,149.683086 L289.601561,149.737101 L289.900948,149.948549 L290.129852,150.033852 L290.661106,150.106311 L290.823809,150.17383 L291.147568,150.213352 L291.527647,150.326322 L291.717028,150.352012 L292.184388,150.352012 L292.281548,150.327969 L292.360265,150.269673 L292.437335,150.197873 L292.52692,150.134965 L292.52692,150.188321 L292.394518,150.423812 L292.337539,150.591785 L292.446886,150.74329 L292.461707,150.910274 L292.449191,151.090104 L292.418561,151.198792 L292.295711,151.279485 L292.158039,151.311762 L292.046057,151.360177 L291.982162,151.534737 L291.94725,151.571296 L291.912008,151.621358 L291.895211,151.703039 L291.916619,151.755407 L292.020367,151.921733 L292.055609,151.996497 L292.137289,152.274146 L292.142888,152.422687 L292.081298,152.55443 L291.919913,152.779711 L291.795745,153.005651 L291.636665,153.217428 L291.669271,153.298121 L291.741072,153.332045 L291.811554,153.353782 L291.843502,153.402198 L291.885989,153.537235 L291.974916,153.646911 L292.052644,153.772726 L292.055609,153.956508 L292.015756,154.036212 L291.943297,154.11427 L291.862605,154.152805 L291.795745,154.115588 L291.774666,154.179812 L291.758528,154.322095 L291.739425,154.379074 L291.679811,154.442311 L291.614269,154.482822 L291.558607,154.527285 L291.532588,154.600403 L291.561901,154.703492 L291.847454,155.113213 L291.900481,155.213009 L291.941321,155.321697 L291.95219,155.440595 L291.919254,155.573327 L291.860299,155.659289 L291.79311,155.729442 L291.739425,155.814417 L291.693644,155.814417 L291.557948,155.748216 L291.457494,155.893463 L291.32641,156.236324 L291.468363,156.286387 L291.532588,156.289022 L291.506569,156.334803 L291.455189,156.45436 L291.428511,156.50014 L291.584956,156.50014 L291.57277,156.560413 L291.548726,156.604218 L291.517767,156.637812 L291.480879,156.662843 L291.577381,156.647034 L291.648193,156.620685 L291.714064,156.615745 L291.795745,156.662843 L291.934405,156.586103 L292.063842,156.660867 L292.109623,156.789317 L291.998959,156.873962 L291.998959,156.922048 L292.366193,157.085739 L292.366193,156.899322 L292.389578,156.767579 L292.473564,156.689192 L292.803581,156.629578 L293.06575,156.480708 L293.226477,156.447443 L294.448066,156.605535 L295.014233,156.744524 L295.540217,156.980015 L295.730586,157.103524 L295.811938,157.093973 L295.845862,156.951361 L295.917662,156.878243 L296.088599,156.820276 L296.420921,156.768897 L296.64752,156.824887 L296.773005,156.819618 L296.856991,156.827852 L296.891903,156.821594 L296.903431,156.788329 L296.898161,156.735631 L296.909359,156.68524 L296.966668,156.662843 L297.279887,156.686228 L297.433039,156.672724 L297.565441,156.605535 L297.629665,156.508374 L297.686974,156.385853 L297.76602,156.281447 L297.90435,156.236324 L298.371709,156.252134 L298.497853,156.289022 L298.691187,156.390464 L298.857842,156.507716 L298.999137,156.648681 L299.122975,156.821594 L299.164145,156.903275 L299.186541,156.969805 L299.216842,157.027443 L299.279091,157.085739 L299.343316,157.097596 L299.407211,157.086727 L299.457932,157.114393 L299.486916,157.24416 L299.329812,157.195415 L299.383827,157.304433 L299.493503,157.416744 L299.750073,157.612383 L299.746779,157.528396 L299.646325,157.195415 L299.668392,157.154246 L299.735911,157.103524 L299.750073,157.056426 L299.764894,157.021514 L299.799477,157.05972 L299.834389,157.138107 L299.84888,157.219458 L299.84888,157.555074 L299.945712,157.522468 L300.084372,157.534984 L300.212492,157.579447 L300.31591,157.691429 L300.579067,158.086988 L300.581702,157.863683 L300.597841,157.761582 L300.635058,157.665739 L300.473343,157.661128 L300.385075,157.578788 L300.31591,157.474052 L300.215785,157.401264 L300.215785,157.343956 L300.313605,157.313326 L300.635058,157.296199 L300.473343,157.451985 L300.507267,157.515881 L300.894263,157.507317 L300.853093,157.522468 L300.815876,157.543547 L300.739135,157.612383 L300.794797,157.65487 L300.851117,157.662116 L300.90085,157.630168 L300.941361,157.555074 L300.998011,157.555074 L300.94696,157.665739 L300.845848,157.744126 L300.794797,157.808351 L300.894263,157.876199 L300.840907,157.860719 L300.79842,157.855449 L300.766472,157.833711 L300.739135,157.771133 L300.691708,157.931201 L300.807642,158.114654 L300.979238,158.298106 L301.101759,158.460809 L301.090561,158.533597 L301.183769,158.601116 L301.412343,158.723966 L301.878715,159.203182 L302.153729,159.338219 L302.2196,159.184409 L302.140554,158.946283 L301.987403,158.829361 L302.027255,158.744387 L302.021327,158.668634 L301.985427,158.592882 L301.935694,158.508237 L301.774967,158.618572 L301.728198,158.618572 L301.765086,158.537879 L301.772332,158.463444 L301.743019,158.400207 L301.67089,158.355415 L301.706131,158.337959 L301.831616,158.302388 L301.878056,158.400207 L301.985097,158.411076 L302.105642,158.368589 L302.195228,158.302388 L302.152082,158.387362 L302.145495,158.480241 L302.163609,158.577731 L302.195228,158.671598 L302.245949,158.671598 L302.35826,158.463444 L302.406676,158.403501 L302.454433,158.403501 L302.362871,158.561922 L302.316761,158.724625 L302.297987,159.066169 L302.359248,159.247646 L302.498567,159.26082 L302.655012,159.171564 L302.764688,159.04048 L302.743938,158.990417 L302.713637,158.945295 L302.668515,158.908078 L302.607913,158.882058 L302.705733,158.79906 L302.817385,158.867237 L302.875352,159.022694 L302.816397,159.203182 L302.698158,159.328997 L302.535784,159.453495 L302.347062,159.518378 L302.14253,159.466998 L302.158669,159.605658 L302.29667,159.838514 L302.349367,159.993642 L302.341463,160.029871 L302.323677,160.078946 L302.319066,160.13856 L302.349367,160.204102 L302.390866,160.234403 L302.561145,160.308838 L302.607913,160.308838 L302.696511,160.176436 L302.804211,160.191257 L302.923109,160.265033 L303.739917,160.550916 L303.971785,160.671132 L304.183563,160.824283 L304.322881,160.999172 L304.327822,161.061421 L304.321234,161.228076 L304.348901,161.261671 L304.420371,161.284067 L304.500405,161.319638 L304.563313,161.319638 L304.591308,161.235981 L304.576816,161.180649 L304.48262,160.999172 L304.37459,160.283148 L304.410161,160.140865 L304.498758,160.090144 L304.618315,160.063795 L304.741825,159.993642 L304.741825,160.045681 L304.732932,160.127361 L305.012557,160.346055 L305.104448,160.472199 L304.925936,160.455731 L304.940098,160.527202 L305.832659,161.389462 L305.965061,161.608485 L306.041472,161.950688 L306.041472,162.450324 L306.089888,162.52937 L306.409365,162.791869 L306.923822,163.473969 L307.025265,163.690687 L307.040086,163.871505 L307.019666,164.270357 L307.077633,164.427132 L307.189614,164.249608 L307.162607,163.810244 L307.075656,163.503941 L306.858939,163.179194 L306.539132,162.730937 L306.191001,162.061352 L306.115248,161.67765 L305.993386,161.410211 L305.84254,161.228076 L305.453568,160.628315 L305.395271,160.321683 L305.568514,159.059253 L305.60639,158.912359 L305.686753,158.767112 L305.882721,158.595187 L305.947934,158.486499 L305.925538,158.334336 L305.838258,158.23454 L305.593545,158.104444 L305.490456,157.992462 L305.470365,157.932848 L305.457849,157.80341 L305.429854,157.739515 L305.376169,157.689123 L305.187117,157.576812 L304.609093,156.993519 L304.381836,156.827522 L303.950707,156.684581 L303.833126,156.595984 L303.77944,156.473133 L303.759679,156.308125 L303.769889,156.144434 L303.80513,156.023888 L303.901303,155.939902 L303.979031,155.69486 L303.987265,155.620095 L303.969809,155.52524 L303.940826,155.473202 L303.90295,155.425115 L303.859145,155.344752 L303.8104,155.184684 L303.77944,154.887932 L303.740576,154.70942 L303.693148,154.623458 L303.669764,154.536837 L303.680962,154.456473 L303.766595,154.363594 L303.776476,154.335269 L303.766595,154.306615 L303.702041,154.245355 L303.688537,154.212419 L303.700065,154.182118 L303.740576,154.154781 L303.795579,154.126786 L303.835102,154.094179 L303.859145,154.053998 L303.862439,154.00657 L303.733001,153.928841 L303.657248,153.827399 L303.537033,153.583345 L303.192195,153.179552 L303.042337,152.919029 L302.633274,151.84631 L302.624711,151.301881 L302.674773,150.83057 L302.642496,150.244641 L302.648095,150.13233 L302.642496,150.07074 L302.613183,149.999928 L302.531502,149.868515 L302.521292,149.785846 L302.663904,149.603052 L302.960327,149.569787 L303.57425,149.621825 L304.037328,149.58329 L304.183563,149.531581 L304.540587,149.324744 L304.678259,149.28588 L304.411149,149.11132 L304.248446,148.951252 L304.257998,148.787561 L304.501064,148.600156 L305.264187,148.227323 L305.444016,148.073183 L305.474317,148.000066 L305.484857,147.840327 L305.503301,147.761611 L305.53953,147.695739 L305.674896,147.527108 L305.736157,147.391412 L305.866583,146.968187 L306.006889,146.72018 L306.192977,146.533764 L306.629706,146.19189 L306.742346,146.063111 L306.769024,145.963974 L306.76606,145.847381 L306.79175,145.668869 L306.844776,145.547336 L307.002539,145.322055 L307.057212,145.19657 L307.075327,145.043418 L307.077633,144.907064 L307.112215,144.781249 L307.230125,144.661033 L307.357916,144.601419 L307.637212,144.520727 L307.767638,144.444645 L308.374645,143.923271 L308.625616,143.788234 L308.778767,143.737184 L309.236904,143.669007 L309.806694,143.493788 L310.320163,143.494776 L310.483854,143.474356 L310.614939,143.41573 L310.826716,143.262249 L310.936063,143.230631 L310.964388,143.248416 L311.003581,143.28761 L311.062537,143.323839 L311.141912,143.33372 L311.197903,143.311653 L311.484774,143.11305 L311.777244,142.963851 L311.904705,142.942772 L312.04106,142.988553 L312.14349,143.054754 L312.252837,143.079126 L312.41027,142.999751 L312.455721,142.937832 L312.467908,142.874924 L312.489975,142.818275 L312.563421,142.775787 L312.640162,142.770518 L312.715914,142.792255 L312.778163,142.833096 L312.824602,142.882499 L312.842717,142.962533 L312.826579,143.146645 L312.850292,143.218115 L312.906283,143.239194 L313.166806,143.256321 L313.611768,143.369291 L313.755369,143.386417 L313.855164,143.377195 L313.917083,143.361715 L313.981967,143.361386 L314.091314,143.397615 L314.173324,143.44636 L314.248747,143.504657 L314.333721,143.554061 L314.445703,143.576128 L314.579423,143.560318 L314.618616,143.514867 L314.638707,143.453277 L314.70886,143.388393 L315.119899,143.367644 L315.327395,143.540228 L315.589235,143.481602 L315.876435,143.339978 L316.153754,143.265213 L316.198218,143.287939 L316.236753,143.334708 L316.290767,143.37456 L316.385623,143.377195 L316.44326,143.349529 L316.631653,143.14368 L316.64351,143.102181 L316.659648,143.079785 L316.725849,143.08209 L316.701806,143.109756 L316.709052,143.17958 L316.752198,143.250392 L316.844089,143.283987 L316.980114,143.246111 L317.079909,143.165747 L317.194526,143.104157 L317.374685,143.119637 L317.785395,143.286622 L318.64963,143.412766 L318.70101,143.434504 L318.751073,143.447678 L318.821885,143.44636 L318.863713,143.423305 L318.912458,143.37983 L318.973719,143.336684 L319.054741,143.314947 L319.192083,143.341625 L319.31164,143.396298 L319.435479,143.421 L319.586654,143.358092 L319.67064,143.263567 L319.744087,143.145327 L319.828732,143.034663 L319.948289,142.965168 L320.070152,142.962533 L320.258874,143.043226 L320.387982,143.037298 L320.436069,142.998433 L320.511162,142.874924 L320.57374,142.847917 L320.63566,142.878218 L320.674195,143.017207 L320.725245,143.059365 L320.840191,143.034992 L321.067448,142.855821 L321.172513,142.802136 L321.297011,142.814981 L321.399771,142.878218 L321.501213,142.957922 L321.625381,143.02083 L321.678078,143.023794 L321.822008,143.002715 L321.890844,143.005679 L321.950787,143.030381 L322.070014,143.110745 L322.132592,143.141704 L322.564052,143.219433 L322.706664,143.263237 L322.743222,143.358092 L322.745199,143.463158 L322.708969,143.8159 L322.722143,143.882101 L322.963892,144.327393 L323.096624,144.479228 L323.261632,144.558932 L323.673,144.431141 L323.907174,144.041511 L324.079428,143.653856 L324.302074,143.534958 L324.407469,143.539239 L324.805004,143.445702 L324.943005,143.39004 L324.995703,143.329768 L325.087594,143.164759 L325.14062,143.119637 L325.215714,143.126554 L325.349104,143.218774 L325.445935,143.224044 L325.489081,143.189132 L325.632022,143.048166 L325.693612,142.999751 L325.780892,142.970767 L325.982789,142.93355 L326.061176,142.893698 L326.092795,142.838695 L326.157019,142.659853 L326.196542,142.583772 L326.244958,142.526134 L326.421165,142.365407 L326.662913,142.044942 L326.754146,141.835141 L326.774566,141.605249 L326.66489,141.088815 L326.676417,140.850689 L326.736031,140.492677 L326.708365,140.417583 L326.625367,140.278594 L326.614498,140.103046 L326.650727,139.925851 L326.708365,139.78291 L326.745253,139.759196 L326.848671,139.735482 L326.883254,139.70617 L326.880619,139.66467 L326.825946,139.555324 L326.818041,139.437743 L326.832533,139.390645 L326.864481,139.382411 L326.981732,139.38768 L327.022572,139.371542 L327.082186,139.198299 L326.956372,138.950951 L327.029489,138.802082 L327.330852,138.610724 L327.403969,138.507635 L327.202073,138.467783 L327.199767,138.467783 L327.199767,138.467124 L327.103265,138.394336 L326.880619,138.077164 L326.871068,138.045217 L326.874032,137.958266 L326.855259,137.919402 L326.82364,137.911497 L326.724503,137.929283 L326.68531,137.919402 L326.499552,137.728374 L326.331909,137.696097 L326.26966,137.566659 L326.26966,137.391111 L326.299961,137.223139 L326.351999,137.065376 L326.416883,136.956688 L326.72648,136.631612 L326.935622,136.460345 L327.153986,136.320368 L327.183629,136.307523 L327.18824,136.097063 L327.162879,135.929091 L327.138177,135.895825 L326.990954,135.924809 L326.843402,135.928103 L326.69025,135.899778 L326.570693,135.823037 L326.526889,135.679767 L326.593748,135.507183 L326.745253,135.408046 L327.098654,135.295076 L327.36774,135.124469 L327.488614,135.003924 L327.535054,134.863288 L327.545923,134.532612 L327.578858,134.362334 L327.767251,133.876531 L327.842674,133.475373 L327.767251,133.104186 Z M273.074041,192.950863 L273.046704,192.98281 L272.999277,193.017064 L272.975234,193.053622 L272.901457,192.947569 L272.844479,192.809897 L272.813848,192.663333 L272.819118,192.529943 L272.850078,192.465718 L272.895858,192.431465 L272.942957,192.406434 L272.975234,192.373827 L272.985444,192.314543 L272.968976,192.176871 L272.975234,192.114622 L273.0747,191.942697 L273.125092,191.821164 L273.129373,191.694361 L273.076676,191.591602 L273.005864,191.565912 L272.9311,191.605105 L272.875768,191.694361 L272.750941,191.595883 L272.633031,191.476326 L272.531588,191.416383 L272.451884,191.490489 L272.404785,191.490489 L272.344513,191.132147 L272.302355,191.0228 L272.233519,190.957258 L272.162707,190.909501 L272.096177,190.889081 L272.041833,190.914112 L271.99177,190.876895 L271.969374,190.865367 L271.933474,190.860756 L271.990453,191.165742 L271.999675,191.332397 L271.985513,191.490489 L271.962787,191.567559 L271.905808,191.69008 L271.887034,191.744753 L271.881435,191.792839 L271.893622,192.064231 L271.926557,192.21343 L271.933474,192.297745 L271.903832,192.369216 L271.8485,192.442663 L271.815893,192.52105 L271.859039,192.610306 L271.878142,192.674202 L271.828079,192.730193 L271.761549,192.791783 L271.726637,192.867864 L271.754962,192.881368 L271.891975,192.922538 L271.933474,192.950863 L271.962787,193.053622 L271.922934,193.10632 L271.862662,193.131351 L271.830385,193.156053 L271.840595,193.242015 L271.871225,193.306569 L271.905808,193.361902 L271.933474,193.415916 L271.973326,193.904684 L272.013508,194.015348 L272.144263,194.089454 L272.251305,194.064093 L272.321128,193.949147 L272.347806,193.758778 L272.408408,193.59344 L272.547727,193.597722 L272.819118,193.728477 L272.79771,193.46038 L272.830975,193.351362 L273.0747,193.273634 L273.13596,193.185036 L273.133326,193.067785 L273.074041,192.950863 Z M304.761257,164.408029 L304.743801,164.130051 L304.619633,163.933094 L304.426629,163.947916 L304.469116,163.848779 L304.476691,163.758205 L304.458577,163.671255 L304.426629,163.585622 L304.359111,163.549063 L304.316623,163.607689 L304.167095,164.163975 L304.173682,164.23808 L304.248446,164.410993 L304.270184,164.483123 L304.274136,164.578966 L304.260633,164.620136 L304.227038,164.658012 L304.167095,164.741669 L304.411149,164.813139 L304.48262,164.846734 L304.52379,164.89482 L304.583074,165.019647 L304.633795,165.062134 L304.685505,165.062134 L304.65685,164.865178 L304.676282,164.791402 L304.741825,164.688971 L304.633795,164.688971 L304.633795,164.636933 L304.761257,164.408029 Z M303.310434,161.562704 L303.231388,161.419104 L303.178032,161.367065 L303.178032,161.318979 L303.079554,161.250143 L303.014341,161.145737 L302.923109,160.946475 L302.841099,160.840751 L302.745585,160.746555 L302.504824,160.572654 L302.370776,160.578582 L302.165915,160.524897 L302.038453,160.520615 L302.089504,160.551575 L302.131662,160.585828 L302.164268,160.628315 L302.195228,160.682659 L302.089504,160.682659 L302.306221,161.18493 L302.378351,161.261671 L302.377033,161.740228 L302.349367,161.844964 L302.349367,161.892721 L302.418862,161.911165 L302.469254,161.932573 L302.513717,161.960239 L302.561145,161.998774 L302.526233,161.919728 L302.504824,161.892721 L302.504824,161.844964 L302.794989,161.93949 L302.893467,161.950688 L302.999191,161.924339 L303.012036,161.855833 L302.997215,161.767894 L303.022575,161.67765 L303.263665,161.918411 L303.38981,161.996798 L303.493887,161.950688 L303.507061,161.824544 L303.424392,161.696423 L303.310434,161.562704 Z M282.548686,202.407064 L282.370504,202.019739 L282.3211,202.06519 L282.29047,202.205497 L282.279601,202.343827 L282.259839,202.41925 L282.212412,202.451856 L282.160044,202.476888 L282.120521,202.524645 L282.117886,202.57339 L282.135012,202.711061 L282.120521,202.787143 L282.04378,202.892538 L281.960782,202.981464 L281.939374,203.084224 L282.15181,203.35825 L282.293104,203.644462 L282.383019,203.776535 L282.440986,203.739647 L282.471946,203.707699 L282.484791,203.661259 L282.487755,203.592424 L282.513116,203.53281 L282.572071,203.515354 L282.641236,203.505144 L282.693933,203.465621 L282.720941,203.381634 L282.728845,203.27591 L282.719953,203.160306 L282.548686,202.407064 Z M284.965846,179.274596 L285.382813,179.44718 L285.568571,179.553892 L285.65651,179.618775 L285.572853,179.028236 L285.482608,178.77496 L285.241518,178.622467 L285.169389,178.60567 L285.031717,178.61588 L284.956624,178.609622 L284.879554,178.57471 L284.847277,178.650133 L284.750116,178.808225 L284.748799,178.858946 L284.895692,179.024942 L284.921712,179.110576 L284.879554,179.201478 L284.965846,179.274596 Z M284.491899,181.077832 L284.522859,181.359433 L284.56864,181.506985 L284.641098,181.480966 L284.998123,181.445066 L285.059713,181.450994 L285.11768,181.449677 L285.16873,181.424646 L285.190138,181.373595 L285.196726,181.313981 L285.214182,181.262931 L285.434193,181.160171 L285.493148,180.96058 L285.516862,180.717514 L285.580098,180.500796 L285.659474,180.416481 L285.624562,180.313062 L285.546833,180.233028 L285.504675,180.220842 L285.444403,180.367736 L285.30245,180.390791 L284.856499,180.278809 L284.664154,180.263988 L284.488935,180.287701 L284.412524,180.376628 L284.450071,180.509689 L284.513966,180.650654 L284.525823,180.792937 L284.412524,180.927974 L284.491899,181.077832 Z M279.200432,203.135275 L278.950778,203.149766 L279.007428,203.149766 L278.871073,203.179409 L278.797627,203.268994 L278.724509,203.33783 L278.587825,203.305553 L278.705406,203.422804 L278.864486,203.465621 L279.034106,203.438613 L279.262351,203.285132 L279.340738,203.25549 L279.36017,203.218602 L279.266303,203.149766 L279.200432,203.135275 Z M274.368748,191.839279 L274.252155,191.717087 L273.898425,191.516837 L273.899742,191.522107 L273.867465,191.446025 L273.842763,191.412101 L273.80851,191.382459 L273.806534,191.505969 L273.827283,191.648251 L273.871417,191.779995 L273.969566,191.939404 L273.979776,191.997371 L274.00843,192.041176 L274.093405,192.056655 L274.156971,192.080369 L274.196164,192.135043 L274.217243,192.203878 L274.222513,192.270079 L274.202751,192.351101 L274.158617,192.36724 L274.107567,192.371851 L274.072326,192.424548 L274.07002,192.488773 L274.104932,192.600755 L274.129305,192.783549 L274.179367,192.934065 L274.261707,193.044071 L274.378299,193.053622 L274.440548,192.884332 L274.429679,192.056655 L274.368748,191.839279 Z M271.623548,184.32695 L271.728284,184.418182 L271.87913,184.427404 L272.031623,184.383599 L272.146569,184.32695 L272.088931,184.28051 L272.249987,184.119125 L272.247352,183.951152 L272.2075,183.807881 L272.13537,183.685689 L272.041833,183.591163 L271.939073,183.504213 L271.873531,183.479182 L271.778346,183.492685 L271.702594,183.524633 L271.681844,183.554275 L271.682832,183.604667 L271.618608,184.222872 L271.623548,184.32695 Z M278.038785,195.848226 L277.961386,195.568272 L277.961386,195.296881 L277.883987,195.250441 L277.650802,195.028454 L277.599092,195.028454 L277.580978,195.053485 L277.571426,195.062707 L277.561546,195.066989 L277.542443,195.083786 L277.590529,195.191815 L277.606338,195.317959 L277.599092,195.57914 L277.622477,195.652587 L277.819433,196.093269 L277.970938,196.275074 L278.14418,196.373552 L278.276911,196.281661 L278.155708,196.098209 L278.038785,195.848226 Z M271.700288,185.320294 L271.716098,185.478386 L271.780981,185.625609 L271.8485,185.635489 L272.026024,185.198102 L272.12516,185.019919 L272.154803,184.866109 L272.064888,184.718556 L271.984524,184.665859 L271.91503,184.626665 L271.775382,184.599658 L271.709181,184.721191 L271.736847,184.955365 L271.736518,185.159238 L271.700288,185.320294 Z M269.00548,181.132505 L268.825651,181.0887 L268.686003,181.17631 L268.657678,181.325509 L268.813135,181.454617 L268.811488,181.334402 L268.867479,181.325509 L268.941585,181.353175 L269.000211,181.351199 L269.027877,181.302783 L269.04171,181.241193 L269.037428,181.177957 L269.00548,181.132505 Z M282.55692,180.783056 L282.723246,180.718831 L282.687017,180.559422 L282.45449,180.73497 L282.55692,180.783056 Z M282.548686,180.024215 L282.576682,179.965589 L282.559555,179.959002 L282.546051,179.945498 L282.531889,179.933971 L282.509163,179.930019 L282.520032,180.006759 L282.53123,180.038377 L282.548686,180.024215 Z M268.799631,181.490847 L268.715974,181.425634 L268.667229,181.428927 L268.612885,181.455935 L268.568751,181.497105 L268.549649,181.554413 L268.58489,181.615015 L268.825651,181.802749 L268.858587,181.720409 L268.848047,181.603487 L268.799631,181.490847 Z M280.564633,197.974233 L280.461544,197.900786 L280.30971,197.829315 L280.252731,198.006839 L280.254707,198.391529 L280.293242,198.450155 L280.377558,198.363863 L280.487893,198.18074 L280.552117,198.136936 L280.633798,198.106635 L280.727665,198.098401 L280.829437,198.106635 L280.768835,198.017708 L280.564633,197.974233 Z M274.623342,190.909501 L274.595346,190.876895 L274.533098,190.860756 L274.470849,190.980972 L274.364796,191.090319 L274.291349,191.202959 L274.326261,191.328445 L274.159276,191.370932 L274.124694,191.416383 L274.196823,191.512885 L274.257754,191.547138 L274.509713,191.637712 L274.513665,191.540551 L274.637504,191.017201 L274.632564,190.955282 L274.623342,190.909501 Z M272.848431,178.926135 L272.755552,179.028236 L272.718664,179.139559 L272.819118,179.305556 L272.959425,179.097072 L272.968976,178.994312 L272.923524,178.830951 L272.923524,178.783194 L272.848431,178.926135 Z M278.178763,194.837426 L277.893868,194.791645 L277.72359,194.881231 L277.914617,195.193133 L277.955787,195.218164 L278.007826,195.242207 L278.050972,195.272179 L278.070075,195.319936 L278.091483,195.354518 L278.14418,195.38943 L278.211369,195.40985 L278.276911,195.395359 L278.326315,195.313019 L278.352664,195.172713 L278.352664,195.028454 L278.329279,194.929317 L278.178763,194.837426 Z M279.820284,203.286779 L279.77582,203.25549 L279.766269,203.234741 L279.763305,203.213662 L279.576888,203.163929 L279.501794,203.160306 L279.459307,203.220578 L279.554492,203.599011 L279.631561,203.654343 L279.722464,203.636228 L279.77582,203.613173 L279.829176,203.528858 L279.846632,203.438613 L279.845974,203.326302 L279.820284,203.286779 Z M277.310575,193.561822 L277.254913,193.572691 L277.224612,193.56775 L277.212426,193.512418 L277.119218,193.446217 L277.011188,193.425468 L276.980887,193.43963 L276.960467,193.441606 L276.927531,193.473883 L276.903488,193.52197 L276.90744,193.552271 L276.934777,193.56775 L276.964749,193.577302 L277.275333,193.962651 L277.315844,193.934985 L277.306622,193.857915 L277.274016,193.801924 L277.274016,193.756143 L277.295424,193.731112 L277.330995,193.714973 L277.351744,193.685331 L277.357344,193.597722 L277.34911,193.574667 L277.310575,193.561822 Z M272.134712,182.94661 L272.208159,182.799716 L272.177528,182.732856 L272.114621,182.732856 L271.851464,183.157399 L271.809635,183.199227 L271.803377,183.359625 L271.839278,183.414957 L271.924581,183.355014 L272.027012,183.232822 L272.048091,183.194287 L272.027012,183.153776 L272.020754,183.111289 L272.044468,183.049369 L272.134712,182.94661 Z M272.640276,195.264603 L272.588897,195.264603 L272.568147,195.278766 L272.5306,195.321912 L272.516438,195.471111 L272.554643,195.471111 L272.616892,195.40985 L272.645546,195.365058 L272.679799,195.317959 L272.667943,195.248465 L272.640276,195.264603 Z M267.10212,187.29776 L267.076759,187.274375 L267.021427,187.31818 L266.975975,187.336295 L267.005618,187.448935 L267.119246,187.637328 L267.095862,187.428186 L267.10212,187.29776 Z M283.881599,201.923237 L283.790696,201.983509 L283.766982,202.110312 L283.842405,202.146541 L283.960315,202.123157 L283.922768,202.001624 L283.881599,201.923237 Z M282.057613,199.282443 L281.991742,199.195822 L281.928834,199.136538 L281.900839,199.131927 L281.88503,199.106237 L281.808948,199.073301 L281.745382,199.065067 L281.676546,199.0071 L281.610674,199.019286 L281.631095,199.085816 L281.684121,199.158275 L281.73616,199.234357 L281.839578,199.25346 L282.015126,199.31999 L282.057613,199.282443 Z M273.12575,178.381047 L273.106318,178.378083 L273.092815,178.408055 L273.087215,178.475573 L273.106977,178.571416 L273.149135,178.618515 L273.206443,178.609622 L273.258152,178.686692 L273.291418,178.471291 L273.326659,178.490394 L273.353007,178.44099 L273.355313,178.377424 L273.328306,178.289815 L273.391542,178.141275 L273.338516,178.146874 L273.298663,178.132711 L273.221264,178.051689 L273.19261,178.113609 L273.170214,178.119866 L273.13102,178.169599 L273.148476,178.205499 L273.171861,178.256221 L273.160004,178.354699 L273.12575,178.381047 Z M283.594728,176.485921 L283.613172,176.560685 L283.647425,176.572871 L283.678055,176.554757 L283.696499,176.626886 L283.710662,176.598561 L283.759736,176.5788 L283.781803,176.547181 L283.812104,176.507988 L283.830548,176.474393 L283.84504,176.422355 L283.863155,176.405557 L283.886868,176.395347 L283.890491,176.367022 L283.87073,176.335404 L283.880281,176.292917 L283.865789,176.282048 L283.833512,176.264263 L283.846028,176.212553 L283.81935,176.174019 L283.810128,176.154916 L283.81408,176.135484 L283.77324,176.10123 L283.743598,176.135484 L283.645119,176.107818 L283.628322,176.20893 L283.63985,176.247465 L283.671139,176.27579 L283.678055,176.316301 L283.636556,176.436517 L283.594728,176.485921 Z M303.830491,163.031312 L303.751116,162.967087 L303.714557,162.982896 L303.729378,163.046792 L303.624971,163.106406 L303.601587,163.111017 L303.562064,163.09883 L303.529128,163.143294 L303.530446,163.183146 L303.551854,163.198626 L303.567663,163.179194 L303.672728,163.16042 L303.732342,163.183146 L303.782075,163.238478 L303.838066,163.289199 L303.845641,163.321476 L303.860792,163.342555 L303.884835,163.275037 L303.860792,163.204225 L303.979361,163.156797 L304.009991,163.16042 L304.02053,163.133413 L304.031729,163.039546 L303.977714,163.034606 L303.830491,163.031312 Z M290.955882,156.168147 L290.89001,156.1721 L290.850817,156.201742 L290.820516,156.267284 L290.788238,156.220186 L290.771112,156.274201 L290.856086,156.414507 L290.879141,156.490918 L290.888693,156.539005 L290.979596,156.485978 L291.020107,156.399027 L291.092565,156.344354 L291.073463,156.288692 L291.066875,156.168147 L290.955882,156.168147 Z" id="Fill-3"></path>
        </g>
    </g>
</svg>