
<svg width="90px" height="110px" viewBox="0 0 90 110" version="1.1" xmlns="http://www.w3.org/2000/svg" xmlns:xlink="http://www.w3.org/1999/xlink">
    <!-- Generator: Sketch 51.2 (57519) - http://www.bohemiancoding.com/sketch -->
    <desc>Created with Sketch.</desc>
    <defs></defs>
    <g id="Page-1" stroke="none" stroke-width="1" fill="none" fill-rule="evenodd">
        <g id="TO-EPS-01-0001" transform="translate(-321.000000, -420.000000)" fill="#D8D8D8">
            <g id="Group" transform="translate(319.000000, 419.000000)">
                <polygon id="Path" points="51.2426471 17.3751471 50.6845588 16.8677941 50.2414706 16.9692647 50.7927941 17.4833824"></polygon>
                <polygon id="Path" points="24.6776471 12.7041176 24.5998529 12.6094118 24.4205882 12.6094118 24.1263235 12.9070588 24.0992647 13.1167647 24.1872059 13.2114706"></polygon>
                <polygon id="Path" points="25.7227941 17.5780882 25.7972059 17.6930882 25.9663235 17.6897059 26.1117647 17.8960294 26.3045588 17.8960294 26.5954412 17.5848529 26.6495588 17.1789706 26.3891176 17.0707353"></polygon>
                <polygon id="Path" points="16.9151471 10.58 17.2195588 10.2688235 17.2364706 10.0591176 17.1722059 9.96441176 16.8069118 9.96441176 16.5194118 10.2755882 16.7325 10.58"></polygon>
                <polygon id="Path" points="45.7463235 26.4195588 45.8342647 26.3248529 45.7632353 26.2098529 45.4182353 26.2166176 45.3066176 26.3180882 45.3945588 26.4127941"></polygon>
                <polygon id="Path" points="44.6876471 23.3652941 44.7722059 23.2638235 44.7925 23.0676471 44.5658824 22.7497059 44.4001471 22.7564706 44.2986765 22.8647059 44.2411765 23.2739706 44.3223529 23.3652941"></polygon>
                <polygon id="Path" points="43.8285294 18.4913235 43.9164706 18.3898529 43.9333824 18.1970588 43.8657353 18.0989706 43.3380882 18.0922059 43.2433824 18.1902941 43.4666176 18.4913235"></polygon>
                <polygon id="Path" points="24.6708824 9.66676471 24.9380882 9.76147059 25.4623529 8.86176471 26.4567647 7.84705882 26.3755882 7.01838235 26.1422059 6.71397059 25.6280882 6.72411765 25.2357353 6.92367647 24.7216176 7.62720588 24.6810294 8.04661765 24.9651471 8.65882353 24.8941176 9.26088235"></polygon>
                <polygon id="Path" points="43.0742647 26.6225 43.3752941 26.3113235 43.1520588 26.0069118 42.7901471 26.0136765 42.6852941 26.1083824 42.6480882 26.5142647 42.7292647 26.6157353"></polygon>
                <polygon id="Path" points="90.4576471 77.9023529 90.3325 77.4829412 90.4475 76.4716176 90.6470588 76.2619118 90.8094118 74.8345588 90.6639706 74.6451471 90.7045588 74.2392647 90.4475 73.4207353 89.6188235 71.3980882 89.9976471 69.5614706 89.7439706 68.7564706 89.8420588 67.9447059 90.275 67.1329412 90.8770588 66.5207353 90.6233824 65.7055882 90.8026471 64.0786765 90.5726471 63.7810294 89.7 63.7742647 89.0675 64.5927941 88.5229412 64.7957353 88.1982353 65.3064706 87.1835294 66.5173529 86.7167647 67.5286765 85.9523529 68.1544118 85.9083824 68.5467647 85.2623529 69.5614706 85.2217647 69.9808824 84.7651471 70.7791176 84.6501471 71.8005882 83.4257353 73.2245588 82.9251471 74.6451471 82.6173529 74.9563235 82.4380882 74.9427941 81.7480882 75.6666176 81.6905882 76.0522059 81.1832353 76.7760294 79.9148529 77.1852941 79.4142647 77.6926471 79.3905882 77.8854412 78.9644118 78.5111765 78.8933824 79.1064706 78.4875 79.5191176 78.4029412 80.3308824 77.9632353 81.1426471 77.9192647 81.5485294 77.1142647 82.3569118 76.9079412 82.7594118 76.8335294 83.3783824 76.4039706 83.9872059 76.3667647 84.3930882 75.7410294 85.2048529 75.4839706 85.8136765 75.3994118 86.6186765 75.1964706 86.8216176 74.8819118 89.6729412 75.0273529 89.8758824 74.6383824 93.3258824 74.9969118 94.0395588 76.3058824 94.8411765 76.7997059 95.9675 77.8414706 97.5842647 77.8245588 97.7872059 78.2845588 98.3960294 78.2473529 98.6057353 78.6363235 99.1198529 78.8088235 99.1130882 80.4526471 100.121029 81.3151471 100.340882 81.995 101.243971 81.9476471 101.653235 82.3332353 102.160588 82.8338235 102.363529 83.5204412 103.276765 83.4967647 103.472941 84.4066176 104.697353 84.755 105.607206 85.0729412 105.806765 85.6005882 105.813529 85.7595588 106.006324 86.2905882 106.013088 86.7675 106.425735 87.2951471 106.4325 88.0088235 105.5125 88.3267647 104.298235 88.7495588 103.689412 89.0302941 101.243971 88.7664706 100.442353 88.9288235 99.0116176 88.7867647 98.8120588 89.1351471 95.7577941 89.3211765 95.5616176 89.4869118 94.1410294 89.6932353 93.9347059 90.0517647 92.2976471 89.9029412 92.1082353 89.8792647 90.6876471 89.5951471 90.0788235 89.7270588 88.8577941 89.5883824 88.6480882 89.6797059 87.8464706 89.5139706 87.6333824 89.5883824 87.0313235 89.7947059 86.8216176 89.8352941 86.4157353 90.2919118 85.6039706 90.3798529 84.7888235 90.5760294 84.5960294 90.6910294 83.5711765 90.8973529 83.3783824 91.0292647 82.1573529 90.8736765 81.9476471 90.9447059 81.3523529 90.8026471 81.1426471 91.0360294 79.1064706"></polygon>
                <polygon id="Path" points="38.9444118 42.1475 39.1744118 42.4552941 39.3469118 42.4552941 39.4517647 42.3504412 39.4720588 42.1542647 39.2454412 41.8498529"></polygon>
                <polygon id="Path" points="70.2311765 19.0122059 70.9888235 19.3132353 71.2898529 18.9986765 71.3101471 18.8025 70.7013235 18.7044118"></polygon>
                <polygon id="Path" points="73.2279412 16.6716176 72.7239706 17.1789706 72.8119118 17.2736765 72.9742647 17.2736765 73.4816176 16.7663235 73.4004412 16.6716176"></polygon>
                <polygon id="Path" points="76.1164706 108.861029 75.6226471 109.375147 75.5854412 109.781029 75.7917647 110.078676 76.1570588 110.078676 76.4411765 109.781029 76.5189706 109.165441 76.2889706 108.861029"></polygon>
                <polygon id="Path" points="41.1057353 34.0264706 41.0854412 34.2260294 41.2951471 34.5405882 41.6604412 34.5405882 41.7585294 34.4391176 41.7788235 34.2294118 41.5522059 33.925 41.1869118 33.9317647"></polygon>
                <polygon id="Path" points="27.6845588 36.7763235 27.9517647 36.6748529 28.1479412 35.0411765 27.9179412 34.7502941 27.7386765 34.7367647 27.4477941 35.0479412 27.3497059 35.8597059 27.5019118 36.0626471 27.4579412 36.4685294"></polygon>
                <polygon id="Path" points="68.4351471 29.4636765 67.9244118 29.2607353 67.4982353 28.4422059 66.6391176 28.2460294 66.5105882 27.8401471 65.9795588 27.8333824 65.5060294 27.4342647 64.9783824 27.4275 64.8329412 27.2245588 64.4710294 27.2245588 64.1598529 26.8254412 63.8114706 26.8152941 61.8125 25.8107353 61.1157353 25.8039706 60.9161765 26.0204412 60.2058824 26.0136765 58.3895588 24.9922059 57.5067647 25.0023529 56.9385294 25.3980882 55.4807353 25.8107353 54.9091176 26.2098529 54.2089706 26.2166176 54.0127941 26.4127941 52.9507353 26.4127941 52.7545588 26.6225 52.3960294 26.6157353 51.6552941 27.0148529 51.1242647 27.0216176 50.8029412 27.5289706 50.7386765 28.1445588 50.5289706 28.3407353 50.4410294 29.1525 50.255 29.3622059 50.1569118 30.1739706 49.9505882 30.3701471 49.8592647 31.1852941 49.6630882 31.3916176 49.3552941 32.6126471 48.9122059 33.4176471 48.3202941 34.0332353 48.2627941 34.4391176 48.5029412 34.7435294 49.5717647 34.5338235 49.9505882 35.0479412 50.0452941 35.8563235 50.1873529 36.0626471 50.1027941 36.8777941 49.9066176 37.0705882 49.8288235 37.6895588 48.9189706 38.7989706 48.5672059 38.8057353 48.2627941 39.1033824 48.2222059 39.5227941 46.9673529 40.4292647 46.4532353 40.4225 45.9594118 40.0233824 45.6144118 40.0166176 45.3167647 40.3277941 45.7801471 40.9332353 45.6854412 41.7416176 45.1780882 42.2489706 44.4644118 42.4586765 43.5275 41.4372059 43.1757353 41.4372059 42.9694118 41.6401471 42.4552941 41.4372059 42.3064706 41.2410294 42.0358824 41.3425 42.0155882 41.5386765 42.4654412 42.1475 42.2422059 42.5567647 42.4045588 42.7664706 42.0832353 43.0776471 41.3458824 43.4767647 40.5375 42.8510294 39.5972059 43.4835294 39.0661765 43.4767647 38.4133824 43.0641176 37.7572059 41.7416176 38.2476471 40.5239706 38.7313235 40.2263235 38.9308824 40.0166176 39.4585294 40.0233824 40.1958824 39.6242647 40.5476471 39.6175 40.8554412 40.0166176 41.3932353 40.0233824 41.5961765 39.8136765 41.9445588 39.8272059 42.1407353 39.6107353 42.8408824 39.6175 43.7845588 39.0086765 44.39 38.3998529 44.735 38.3930882 45.2186765 38.0954412 45.0123529 37.5779412 44.1566176 37.3851471 42.8307353 36.5767647 42.4823529 36.5666176 42.3402941 36.3738235 41.6130882 36.3704412 41.4642647 36.1607353 40.1147059 35.7616176 39.6682353 34.9397059 39.1507353 34.9464706 38.1969118 35.5552941 37.8519118 35.5485294 37.5644118 34.9397059 37.3817647 34.9397059 36.7086765 35.4538235 36.6917647 35.6567647 35.7954412 36.5767647 35.4267647 36.7695588 34.7198529 36.7763235 34.5135294 36.9691176 33.9858824 36.9758824 33.8269118 36.7695588 33.3127941 36.7763235 32.9847059 36.57 32.1255882 35.6567647 32.0376471 34.8382353 31.8110294 34.5338235 31.1007353 34.5405882 30.5764706 35.2475 30.0927941 36.4685294 29.0341176 37.3919118 28.8447059 37.3783824 28.5470588 37.6895588 29.3385294 38.5013235 29.2911765 38.9072059 28.8007353 39.4145588 28.0464706 39.8136765 27.6980882 39.8204412 26.5379412 39.2048529 25.8986765 38.5960294 24.5119118 38.3930882 23.8726471 37.7842647 23.0202941 37.5847059 22.7970588 37.2836765 22.8714706 36.6680882 23.1792647 36.1607353 23.4464706 36.0558824 24.3191176 34.6352941 25.2391176 33.5258824 25.4116176 33.5258824 26.4060294 32.5044118 27.3395588 32.1052941 27.8705882 32.1120588 28.4286765 31.6994118 28.7905882 31.6994118 28.98 31.4829412 29.5144118 31.4964706 29.9101471 31.0838235 30.0860294 31.0838235 30.4885294 30.6711765 31.0094118 30.6779412 31.5708824 31.1920588 31.7805882 31.7061765 32.4401471 32.0985294 33.6645588 32.0985294 33.8235294 32.3082353 34.5202941 32.2947059 34.6792647 32.5044118 35.5586765 32.5044118 36.2080882 32.9170588 36.6613235 33.5258824 37.3952941 33.3229412 37.9669118 32.9069118 39.3705882 32.9035294 39.5363235 33.1132353 40.0470588 33.1064706 40.2094118 33.3161765 40.7370588 33.3229412 41.1158824 33.12 42.1339706 31.8955882 42.5635294 32.0038235 42.5872059 32.5179412 44.2005882 32.3014706 45.3269118 31.6994118 46.0439706 30.7827941 46.3213235 28.3407353 46.0913235 28.0363235 45.7429412 28.0430882 43.9435294 29.8627941 43.3888235 30.0826471 42.8239706 30.4817647 42.4755882 30.4817647 41.6536765 29.8627941 40.9501471 29.8695588 40.7438235 30.0657353 40.2297059 30.0758824 40.0301471 30.2754412 38.0988235 30.2686765 37.9466176 30.0758824 37.2566176 29.8627941 36.4989706 28.8548529 35.8022059 28.6519118 35.2069118 27.8333824 34.6995588 27.6304412 34.3985294 27.2313235 33.1775 27.0216176 33.0320588 26.8152941 32.6802941 26.8152941 32.5382353 26.6157353 32.1729412 26.6157353 30.4986765 25.8175 30.0285294 25.4048529 29.5008824 25.4116176 28.8413235 24.9989706 28.2730882 24.4882353 28.2933824 24.2920588 27.025 22.3505882 26.0339706 21.7485294 24.6336765 21.7417647 24.2514706 21.9514706 23.5547059 22.6617647 23.5107353 23.0608824 23.6663235 23.2739706 23.5614706 23.3754412 22.8647059 23.3788235 21.5455882 24.1905882 20.3482353 25.3913235 20.0032353 25.3980882 19.8341176 25.1985294 18.9614706 25.1985294 18.7652941 25.3980882 17.8825 25.4048529 17.6998529 25.6044118 16.9794118 25.6010294 16.7832353 25.8107353 14.3208824 25.8107353 14.1720588 25.6010294 13.6511765 25.5942647 12.8055882 25.1985294 12.0986765 25.1917647 11.9498529 24.9854412 10.2079412 24.7960294 10.0591176 24.5897059 9.18308824 24.5829412 8.19544118 23.9808824 7.50544118 23.0676471 6.99132353 21.4441176 6.82558824 21.2344118 6.92367647 20.4226471 6.77823529 20.2332353 6.96088235 18.5927941 7.14691176 18.3966176 7.56294118 16.3672059 8.21573529 15.1495588 8.23941176 14.9398529 11.0332353 12.0952941 11.0501471 11.8855882 11.7198529 10.6814706 11.7841176 10.0658824 11.4255882 9.36235294 10.9013235 9.36235294 9.80882353 10.4785294 8.95308824 11.6894118 7.17058824 13.5260294 7.15029412 13.7188235 5.86161765 15.0480882 5.68911765 15.0480882 4.69470588 16.0627941 4.50529412 16.0594118 3.42632353 17.1654412 2.96970588 17.9975 2.88514706 18.8025 3.05088235 18.9986765 2.99338235 21.0247059 3.13882353 21.2344118 3.01705882 22.2558824 3.18617647 22.4452941 3.08808824 23.2739706 3.24367647 23.4802941 3.12529412 24.4882353 3.26735294 24.6911765 3.09485294 26.3180882 2.89191176 26.5142647 2.85132353 26.9201471 3.30117647 27.5425 3.03397059 28.5504412 3.43308824 29.5685294 3.36882353 30.1807353 3.51426471 30.3701471 3.44661765 30.9891176 3.61235294 31.1988235 3.76455882 32.8155882 4.02838235 33.6205882 3.99117647 34.0264706 4.68794118 34.7435294 5.58088235 34.73 5.72632353 34.9397059 6.58544118 35.1358824 6.74102941 35.3455882 7.09279412 35.3422059 7.72529412 35.9611765 8.25970588 35.9544118 8.57764706 36.1641176 10.1166176 38.1969118 10.6916176 38.5013235 11.0467647 39.2048529 11.5507353 39.4077941 11.8551471 39.8136765 12.5147059 40.2195588 13.4042647 40.2263235 13.7357353 40.4292647 13.7763235 40.7370588 14.2701471 41.1327941 14.2498529 41.3289706 14.7741176 42.0561765 15.4370588 42.4485294 16.0222059 43.4767647 16.2082353 43.4767647 16.8272059 44.0788235 18.4270588 44.0855882 18.6130882 43.8725 21.1092647 43.6797059 21.2513235 43.8725 23.9808824 44.6944118 24.6167647 45.2964706 25.4961765 45.3032353 25.6416176 45.5061765 26.3519118 45.4994118 26.5007353 45.7091176 27.0283824 45.7023529 27.3327941 46.115 28.9529412 47.3394118 29.2573529 47.7419118 30.5832353 48.5435294 30.7117647 48.9494118 31.2022059 49.1557353 31.51 49.5683824 31.855 49.5683824 32.5822059 50.2854412 32.8460294 52.5110294 33.1876471 52.7004412 33.1605882 52.9101471 33.6375 53.3261765 33.5461765 54.1345588 33.6713235 54.5370588 34.4627941 55.3555882 34.5710294 55.9644118 34.73 56.1605882 34.6285294 56.9858824 34.8619118 57.2902941 36.3535294 58.0885294 36.8135294 58.6973529 36.9860294 58.7108824 37.1382353 58.9070588 37.5001471 58.9002941 37.6455882 59.11 38.5013235 59.3061765 39.1710294 59.7188235 39.6851471 59.7255882 40.3413235 60.1213235 40.6930882 60.1348529 41.1767647 60.5339706 42.3707353 60.9297059 42.5094118 61.1427941 42.8747059 61.1360294 43.0167647 61.3457353 43.3719118 61.3355882 43.5308824 61.5486765 44.3866176 61.7448529 44.5320588 61.9545588 45.9391176 61.9477941 46.1352941 61.7516176 47.0417647 61.5419118 47.4442647 61.1360294 47.9955882 60.9297059 49.7273529 59.5091176 50.4782353 59.11 51.1039706 58.2914706 51.3711765 58.19 51.4252941 57.7908824 51.8142647 57.3782353 51.865 56.9723529 52.2438235 56.7761765 52.5008824 55.9644118 52.7072059 55.7614706 52.8526471 52.9101471 53.0623529 52.7139706 53.1232353 52.0983824 52.8661765 51.2933824 52.5516176 50.8942647 52.3148529 49.8660294 52.0070588 49.4635294 52.1220588 48.6551471 52.5245588 48.0530882 52.8864706 46.4126471 53.0860294 46.2097059 53.13 45.8105882 53.82 45.1002941 54.1886765 45.0935294 54.6723529 44.5861765 54.7298529 44.1802941 55.1222059 43.7879412 55.1357353 43.5782353 55.6397059 43.0708824 55.8223529 43.0641176 57.1380882 41.5386765 57.8483824 39.9185294 58.4910294 38.9004412 59.1844118 38.1969118 59.5598529 37.9939706 60.26 37.9872059 60.4663235 37.7842647 61.7110294 37.5847059 61.9139706 37.3783824 62.4416176 37.3851471 63.1958824 36.9860294 63.7235294 36.9758824 64.2917647 36.5666176 64.6435294 36.57 66.1486765 35.7616176 66.4936765 35.7683824 66.8792647 35.3523529 67.0788235 35.3523529 68.0935294 34.1279412 68.2626471 34.1211765 68.9594118 33.4311765 69.2063235 32.8155882 69.6291176 32.2067647 69.6663235 31.7975 68.6583824 29.7613235"></polygon>
                <polygon id="Path" points="45.7463235 27.1298529 45.8207353 27.2313235 45.9898529 27.2245588 46.1014706 27.1298529 46.1251471 26.9201471 46.0439706 26.8254412 45.8680882 26.8254412 45.7598529 26.9269118"></polygon>
                <polygon id="Path" points="59.5767647 19.1170588 60.2058824 19.0088235 60.1652941 18.7044118 59.0051471 18.7991176 59.4347059 18.9039706"></polygon>
                <polygon id="Path" points="48.5672059 21.5455882 48.875 21.2344118 48.8986765 21.0382353 48.8242647 20.9367647 48.4657353 20.93 48.1647059 21.2411765 48.4285294 21.3494118"></polygon>
                <polygon id="Path" points="48.1139706 38.1969118 48.1985294 38.0988235 48.1308824 37.9872059 47.9482353 37.9872059 47.8061765 37.7842647 47.5051471 38.0954412 47.5694118 38.1901471"></polygon>
                <polygon id="Path" points="55.9102941 18.9107353 56.8539706 18.2951471 57.155 17.9839706 57.1989706 17.5780882 56.9655882 17.2736765 56.0929412 17.2736765 56.005 17.3751471 56.2147059 17.6930882 56.6273529 17.9907353 55.4875 18.8025"></polygon>
                <polygon id="Path" points="79.1538235 2.36426471 79.3736765 2.66191176 79.6510294 2.56044118 79.7288235 1.95161765 79.4988235 1.64720588 79.2011765 1.955"></polygon>
                <polygon id="Path" points="81.3252941 22.7666176 80.6352941 23.4735294 80.5608824 24.0823529 81.5316176 25.6044118 81.8529412 25.8107353 82.2148529 25.8107353 82.9420588 24.8907353 83.2126471 22.4588235 82.8304412 21.9514706"></polygon>
                <polygon id="Path" points="64.9580882 18.9986765 64.5522059 18.6976471 63.8994118 19.0122059 64.3052941 19.3166176"></polygon>
                <polygon id="Path" points="67.3426471 18.8972059 67.1972059 18.6908824 66.4835294 18.7044118 66.1825 18.9986765 67.7722059 19.0088235"></polygon>
                <polygon id="Path" points="77.6960294 10.4717647 77.6825 10.6814706 77.9023529 10.9858824 78.2608824 10.9791176 78.5551471 10.6679412 78.5788235 10.4717647 78.3623529 10.1673529 78.0038235 10.1741176"></polygon>
            </g>
        </g>
    </g>
</svg>