
<svg width="53px" height="116px" viewBox="0 0 53 116" version="1.1" xmlns="http://www.w3.org/2000/svg" xmlns:xlink="http://www.w3.org/1999/xlink">
    <!-- Generator: Sketch 51.2 (57519) - http://www.bohemiancoding.com/sketch -->
    <desc>Created with Sketch.</desc>
    <defs></defs>
    <g id="Page-1" stroke="none" stroke-width="1" fill="none" fill-rule="evenodd">
        <g id="VU-EPS-01-0001" transform="translate(-269.000000, -69.000000)" fill="#7F807C">
            <path d="M278.028484,109.131837 L278.151098,109.067228 L278.289792,108.96414 L278.870413,108.261193 L279.131721,108.054731 L279.357422,107.980358 L279.927993,107.980358 L280.09569,108.009648 L280.208828,108.054731 L280.302152,108.064207 L280.41529,107.980358 L280.479612,107.841951 L280.518377,107.664491 L280.489088,107.503112 L280.356998,107.43879 L279.983126,107.109714 L279.628207,106.380923 L279.347659,105.568283 L279.244285,105.042508 L279.347659,105.042508 L279.46051,105.258446 L279.563885,105.165122 L279.628207,104.903526 L279.666972,104.60374 L279.50588,104.245662 L279.450747,104.161813 L279.347659,104.088015 L279.102432,103.994117 L279.028346,103.955638 L278.879889,103.713569 L278.924972,103.665328 L279.057349,103.610482 L279.131721,103.358937 L278.850887,102.075368 L278.924972,101.785058 L278.644712,101.68197 L278.447725,101.730212 L278.073567,101.99152 L278.028484,101.691446 L277.764017,100.914126 L277.699695,100.372271 L277.59632,100.185335 L277.344775,100.156332 L277.521948,99.9498703 L277.577081,99.7821736 L277.541474,99.1274674 L277.570477,98.9307684 L277.699695,98.7920741 L277.980242,98.7435454 L277.980242,98.6309819 L276.819,98.5178441 L276.606221,98.5953751 L276.332278,98.7630718 L276.154818,98.9856144 L276.238666,99.2308421 L276.267669,99.4370171 L276.183533,101.18491 L276.13845,101.410899 L276.025887,101.542989 L275.883747,101.656126 L275.76142,101.785058 L275.564434,102.104083 L275.474268,102.226697 L275.303413,102.243065 L274.910015,102.233302 L274.219415,102.310545 L273.826017,102.301069 L273.648844,102.168692 L273.442095,100.204574 L273.384377,100.09201 L273.281003,100.017638 L273.206917,99.9142634 L273.226157,99.7175644 L273.161835,98.9307684 L273.010218,98.1919268 L272.729671,97.4246571 L272.655299,97.0602614 L272.803756,96.8985949 L272.178052,96.4213486 L271.868503,96.2731782 L271.774891,96.0859553 L271.64596,95.7023204 L271.278119,95.2443132 L271.22356,95.2153109 L271.204033,95.0476142 L271.15895,94.8411521 L271.081707,94.6832186 L270.952775,94.6056876 L270.904247,94.5123632 L270.755789,94.1025976 L270.69118,93.9702206 L270.520325,93.8220502 L270.44624,93.8768962 L270.352628,93.9995101 L269.865619,94.1476804 L269.810773,94.3349034 L269.846379,94.7283014 L269.417375,95.5894697 L269.520462,95.8249342 L269.539988,96.1990931 L269.481697,96.5827279 L269.369133,96.8342729 L269.343289,97.0955811 L269.6336,98.3050646 L269.762531,98.5663727 L270.09132,99.0631454 L270.155929,99.3339296 L270.175168,99.6337161 L270.259017,99.9435529 L270.426713,100.175859 L270.69118,100.259707 L270.549327,100.520728 L270.530088,100.736953 L270.69118,101.346577 L270.755789,102.010759 L270.849401,102.320309 L271.213796,102.852688 L271.297645,103.216797 L271.316884,103.955638 L271.252275,104.284427 L271.0461,104.92937 L270.962251,105.39714 L270.820398,105.726216 L270.791396,105.864911 L270.839638,106.01624 L271.065339,106.316313 L271.110422,106.513012 L271.178477,106.651707 L271.587668,107.064631 L271.681567,107.187245 L271.849263,107.664491 L272.197292,108.21611 L272.42328,108.438653 L272.945609,108.68388 L273.113306,109.02875 L273.10383,109.422148 L272.906844,109.722221 L273.187678,110.002769 L273.516467,110.179941 L273.861624,110.209231 L274.171173,110.060773 L274.284024,109.909157 L274.33887,109.77075 L274.416401,109.638373 L274.603337,109.515759 L274.93873,109.58324 L275.061344,109.564001 L274.910015,109.402621 L275.287045,109.067228 L275.873984,108.909582 L276.52869,108.899531 L277.119074,108.96414 L277.270403,109.009223 L277.521948,109.151076 L277.709171,109.180366 L277.877155,109.170603 L278.028484,109.131837 Z M289.503645,122.526321 L289.381031,122.329335 L289.219939,122.339098 L289.052242,122.487556 L288.948868,122.648648 L288.884546,122.845347 L288.865019,123.151738 L288.633001,122.974278 L288.658844,122.683968 L288.948868,122.151875 L288.819937,121.365079 L288.613474,121.01016 L288.220076,121.074769 L287.546131,120.532913 L287.27506,120.223364 L287.378434,119.997662 L287.378434,119.878207 L287.32043,119.858681 L287.171972,119.77512 L286.759048,119.952579 L286.542823,119.829966 L286.339806,119.549131 L286.001254,119.223501 L285.794792,119.120126 L285.44016,119.017039 L285.262413,118.904188 L285.140086,118.771811 L285.056238,118.604114 L284.991628,118.426942 L284.943387,118.240006 L284.879065,118.294565 L284.830536,118.323854 L284.785166,118.368937 L284.736925,118.462261 L284.633837,118.462261 L284.559465,118.407703 L284.204832,118.240006 L284.185593,118.117392 L284.30792,117.939932 L284.327446,117.798079 L284.101745,117.452923 L283.962763,117.285226 L283.895283,117.310783 L283.969368,117.594776 L283.99837,117.73347 L283.943524,117.798079 L283.782145,117.752996 L283.550126,117.527008 L283.240577,117.42392 L283.101595,117.304465 L282.969505,117.153136 L282.827652,117.039998 L282.93074,116.836982 L282.875894,116.67589 L282.71796,116.572228 L282.521261,116.48838 L282.782569,115.937048 L281.866555,114.756567 L281.882636,114.195472 L280.189588,113.531003 L279.721818,113.869842 L279.563885,113.905162 L279.50588,113.998773 L279.480036,114.121387 L279.402505,114.253477 L279.392742,114.447017 L279.450747,115.504885 L278.993027,116.385292 L278.924972,116.759738 L278.9735,116.965913 L279.096114,117.098003 L279.225045,117.211141 L279.347659,117.369074 L279.402505,117.546534 L279.422032,117.704468 L279.46051,117.86556 L279.563885,118.023781 L279.731581,117.939932 L279.927993,118.023781 L280.302152,118.352569 L281.005387,117.884799 L281.256932,117.5853 L281.350256,117.694705 L281.424628,117.630383 L281.679332,117.481925 L282.221475,118.343093 L282.305323,118.623641 L282.334038,118.668724 L282.408411,118.687963 L282.482496,118.726728 L282.521261,118.846183 L282.511498,119.126731 L282.521261,119.223501 L282.679195,119.997662 L282.595346,120.194074 L282.585583,121.177856 L282.634112,121.523013 L282.679195,121.542539 L282.772806,121.571254 L282.875894,121.626387 L282.950266,121.729475 L282.959742,121.813323 L282.950266,122.11311 L282.969505,122.348574 L283.034114,122.516271 L283.418036,123.032283 L283.550126,123.328911 L283.643738,123.658274 L283.679057,123.909819 L283.540363,123.864736 L283.418036,123.790364 L283.324138,123.697039 L283.259816,123.593378 L283.156728,123.593378 L283.195207,123.948584 L283.38243,124.174286 L283.588605,124.341982 L283.775828,124.716141 L284.195069,124.854548 L284.327446,125.025691 L284.420771,125.025691 L284.456377,124.809465 L284.543384,124.819229 L284.643313,124.893314 L284.736925,124.912553 L285.056238,124.583764 L285.468875,124.528918 L285.646335,124.454546 L285.794792,124.258134 L285.656098,124.228845 L285.597806,124.190079 L285.562486,124.13552 L285.459399,124.041909 L285.636571,123.874212 L285.946121,123.658274 L286.291565,123.525897 L286.581588,123.648511 L286.723441,123.658274 L286.946271,123.619221 L287.171972,123.619221 L287.265297,123.761361 L287.349145,123.800127 L287.762356,123.874212 L287.900764,123.909819 L288.003851,124.051672 L288.062143,124.228845 L288.171548,124.370698 L288.426539,124.361221 L288.603711,124.26761 L288.613474,124.154759 L288.594235,124.012906 L288.697323,123.864736 L288.855256,123.687276 L288.929629,123.525897 L289.026399,123.416205 L289.219939,123.377439 L289.352316,123.322593 L289.706949,122.945563 L289.603861,122.777866 L289.503645,122.526321 Z M295.07037,128.64725 L295.708709,128.785944 L296.15724,128.608771 L296.605484,128.347463 L297.250714,128.205323 L297.486179,128.244089 L297.776489,128.3377 L298.03751,128.460601 L298.289055,128.731385 L299.105141,129.189105 L299.253311,129.11502 L299.41469,129.189105 L299.450297,128.982643 L299.356686,128.731385 L299.321079,128.51516 L299.527541,128.421835 L299.263074,128.066916 L298.917918,127.944589 L298.095515,127.983355 L297.821572,127.889743 L297.673115,127.702233 L297.608793,127.515584 L297.560264,127.431449 L297.279717,127.354205 L297.141022,127.157219 L297.044252,126.905961 L296.876555,126.664179 L296.811946,126.606174 L296.708859,126.531802 L296.586245,126.476956 L296.457314,126.447954 L296.295934,126.483561 L296.044389,126.654416 L295.922063,126.664179 L295.802608,126.522326 L295.725077,126.260731 L295.699233,126.006027 L295.660467,125.896335 L295.512297,125.754482 L295.238067,125.154622 L295.128375,125.025691 L295.080134,124.986925 L295.044527,124.903077 L294.966996,124.828705 L294.818825,124.789939 L294.676972,124.828705 L294.583361,124.873788 L294.489749,124.883838 L294.341579,124.789939 L294.415377,125.035167 L294.435191,125.138541 L294.444667,125.296475 L294.415377,125.493461 L294.331816,125.596549 L294.228441,125.680397 L294.135117,125.793248 L294.070508,126.044506 L294.041505,126.63489 L293.976896,126.831876 L293.96742,126.960807 L294.096351,127.112136 L294.341579,127.318885 L294.370294,127.486295 L294.341579,127.925063 L294.425427,128.076392 L294.873671,128.51516 L295.07037,128.64725 Z M294.27697,121.419925 L294.489749,121.355316 L294.715451,121.252229 L294.931676,121.197383 L296.560401,121.132773 L297.083018,120.720136 L297.195581,120.532913 L297.176342,120.297449 L297.063491,120.158754 L295.960541,119.578421 L295.670231,119.278347 L295.611939,118.791337 L295.305835,117.791475 L295.060894,117.256224 L294.760821,116.930306 L294.425427,117.014155 L294.283574,117.078764 L294.051269,117.704468 L293.976896,117.798079 L293.760958,117.930169 L293.1901,118.51079 L292.861024,118.678487 L292.180474,118.678487 L292.029145,118.717252 L291.803444,118.86571 L291.34515,118.978273 L290.970991,119.155733 L290.774579,119.362195 L290.981041,119.549131 L290.897193,119.77512 L291.06489,119.913814 L291.325911,120.016901 L291.551612,120.158754 L291.793681,120.355453 L292.309693,120.661844 L292.451546,120.858831 L292.674088,120.755456 L292.890027,120.793934 L293.293188,121.074769 L293.490174,121.01016 L293.696636,121.065293 L293.899652,121.197383 L294.080271,121.345553 L294.27697,121.419925 Z M301.023889,142.667438 L300.891799,142.722284 L300.733579,142.741236 L300.58225,142.705916 L300.488638,142.609146 L300.359707,142.312231 L300.266096,142.151426 L299.975785,142.031971 L299.833932,141.777267 L299.750084,141.461113 L299.62747,141.161039 L299.469536,140.925862 L299.385688,140.86154 L299.253311,140.83225 L299.188989,140.777404 L299.134143,140.487381 L299.105141,140.383719 L298.879152,140.232103 L298.637658,140.187307 L297.570027,140.36448 L297.308719,140.532177 L297.224871,140.429089 L297.166866,140.261393 L297.092494,140.167781 L296.62501,140.241579 L296.221849,140.580418 L295.611939,141.486669 L295.454292,141.664129 L295.050844,141.95444 L294.873671,142.151426 L294.489749,142.947698 L294.444667,143.144684 L294.657446,143.283091 L294.705975,143.444758 L294.809349,143.50908 L294.977046,143.47376 L295.080134,143.376703 L295.286596,143.031833 L295.399159,142.918696 L295.605621,142.805845 L295.792844,142.750999 L295.989543,142.780001 L296.241088,142.918696 L296.363702,142.967511 L296.46679,142.976987 L296.531399,143.031833 L296.576482,143.370673 L296.653726,143.444758 L296.7571,143.435282 L296.876555,143.360622 L296.811946,143.68654 L296.541162,143.837869 L296.192847,143.947848 L295.922063,144.144547 L295.922063,144.247921 L296.476553,144.118703 L296.728098,144.005565 L296.876555,143.809153 L296.979643,143.809153 L296.876555,144.360485 L296.953799,144.266873 L297.053728,144.212027 L297.176342,144.212027 L297.308719,144.247921 L297.334563,144.192788 L297.327958,144.173262 L297.344326,144.173262 L297.411806,144.144547 L297.431046,144.276349 L297.486179,144.444046 L297.505418,144.576423 L297.663351,144.360485 L297.737724,144.408726 L297.766439,144.566947 L297.831048,144.689848 L298.095515,144.837731 L298.21497,144.837731 L299.311316,144.576423 L299.321079,144.615189 L299.395164,144.689848 L299.498539,144.763646 L299.572624,144.792936 L299.685475,144.763646 L299.759847,144.689848 L299.808088,144.615189 L299.833932,144.576423 L300.237093,144.492862 L300.433792,144.408726 L300.556406,144.212027 L300.675574,143.809153 L301.137027,142.873613 L301.107738,142.602829 L301.023889,142.667438 Z M291.129212,106.267785 L291.177453,105.977761 L291.242062,105.642368 L291.403154,105.294053 L291.606458,104.968136 L291.81292,104.723195 L292.170998,104.378039 L292.151759,104.229868 L291.758361,104.161813 L290.448662,104.387802 L289.697185,104.677825 L289.436164,104.723195 L289.100771,104.836046 L287.217055,106.622704 L287.068885,106.896934 L287.162209,107.074394 L287.687984,107.335415 L288.013901,107.43879 L289.6231,107.448553 L289.980891,107.325939 L291.009756,106.474247 L291.129212,106.267785 Z M294.977046,107.980358 L294.931676,107.822425 L294.838065,107.08387 L294.499513,107.109714 L294.405901,108.383807 L294.032029,109.618847 L293.957657,110.27384 L293.993264,110.902415 L294.135117,111.473273 L294.499513,112.360285 L294.676972,113.589295 L294.947757,114.550105 L295.005761,115.188731 L295.080134,115.421036 L295.257306,115.533887 L295.611939,115.504885 L296.044389,115.263103 L296.241088,114.840415 L296.279854,114.279321 L296.241088,113.653617 L296.186242,113.37307 L295.999307,113.008674 L295.922063,112.773209 L295.808925,111.96057 L295.444529,110.928259 L295.399159,110.715479 L295.399159,110.22847 L295.192984,109.722221 L295.163982,109.45115 L295.286596,108.477418 L295.24783,108.245112 L295.183221,108.157818 L295.080134,108.122211 L294.977046,107.980358 Z M293.667347,99.1564698 L293.667347,99.2403181 L293.628581,99.3241664 L293.602737,99.4467803 L293.976896,101.897908 L294.115878,102.252541 L294.125354,103.955638 L294.021979,104.510128 L294.199726,105.258446 L294.218965,105.661607 L294.135117,106.02629 L294.509276,105.951918 L294.676972,105.951918 L294.873671,106.02629 L294.966996,105.55852 L294.977046,105.090749 L295.080134,104.639347 L295.109136,104.33956 L295.025288,104.11673 L295.07037,103.029861 L295.025288,102.891454 L294.809349,102.636463 L294.760821,102.497768 L294.760821,101.942991 L294.734977,101.765818 L294.547754,101.243202 L294.538278,101.085269 L294.557804,100.746429 L294.547754,100.588496 L294.360818,99.6983253 L294.341579,99.3339296 L294.29305,99.1274674 L294.173882,98.8081546 L294.00274,98.5276073 L293.815804,98.4245197 L293.686586,98.5017636 L293.564259,98.6694603 L293.509413,98.8661593 L293.554496,99.0146168 L293.667347,99.1564698 Z M279.357422,111.576648 L279.573361,111.679735 L279.869988,111.68634 L280.311915,111.528406 L280.282913,111.173487 L280.170062,110.715479 L280.356998,110.22847 L280.302152,109.947923 L279.75082,109.7607 L278.663951,109.62861 L278.167465,109.751224 L277.867392,110.067378 L277.822022,110.489778 L278.073567,110.928259 L278.270553,111.05116 L278.692953,111.163723 L278.924972,111.257335 L279.357422,111.576648 Z M284.795217,86.2010407 L284.633837,86.1556707 L284.485093,86.2010407 L284.253074,86.417266 L284.111221,86.481588 L283.8502,86.4910641 L283.717823,86.4655075 L283.604972,86.481588 L283.240577,86.7911377 L283.082356,86.8749861 L282.989032,87.0168391 L282.950266,87.2976735 L283.04359,88.1683179 L282.885657,88.4778676 L282.821335,88.6748537 L282.885657,88.758702 L282.998508,88.7940217 L283.156728,88.8876332 L283.343664,88.9617184 L283.569365,88.9809576 L283.782145,88.9068724 L284.814456,88.9907207 L284.982152,88.9714816 L285.149849,88.8778701 L285.365787,88.6553274 L285.759185,87.9908581 L285.852797,87.8975337 L285.888116,87.7556807 L286.001254,86.9232276 L285.87864,86.7718985 L285.739946,86.6622065 L284.795217,86.2010407 Z M283.156728,81.7275024 L283.456515,81.963254 L283.614448,82.1211875 L283.672453,82.3273625 L283.679057,82.6564385 L283.8502,83.0466779 L284.175543,83.0308845 L284.382005,82.75005 L284.204832,82.3758912 L284.30792,82.279121 L284.317396,82.2340382 L284.259391,82.2050359 L284.204832,82.1596659 L284.59823,82.1309507 L284.924148,82.0471024 L285.207854,81.9147254 L285.459399,81.7275024 L285.543247,81.7180264 L285.656098,81.7375527 L285.759185,81.7375527 L285.794792,81.6729435 L285.778424,81.5500425 L285.730183,81.5308034 L285.656098,81.5500425 L285.572249,81.5147229 L285.430109,81.4211114 L285.291702,81.3823459 L285.159325,81.2984975 L285.056238,81.0727962 L285.178851,81.0084742 L285.365787,80.7537705 L285.178851,80.614789 L284.736925,79.7829102 L284.456377,79.4733605 L284.243598,79.3315075 L284.007846,79.3409835 L283.333901,79.631294 L283.053354,79.827993 L282.846891,80.089014 L282.724565,80.4278532 L282.698721,80.8470949 L282.792045,81.1761709 L283.156728,81.7275024 Z M321.220139,182.920668 L321.02344,182.762735 L320.781371,182.620595 L320.471821,182.3791 L320.181511,182.285201 L319.762269,182.30444 L319.368871,182.368762 L319.171885,182.433372 L318.984949,182.70473 L318.872098,183.117654 L318.901101,183.491813 L319.11388,183.652618 L319.58165,183.875448 L319.975048,183.978536 L320.162271,184.072147 L320.313888,184.214 L320.442819,184.136756 L320.781371,184.072147 L320.958831,183.988012 L321.107288,183.829791 L321.210376,183.633666 L321.381518,183.220742 L321.220139,182.920668 Z M314.698634,172.103084 L314.192672,171.829429 L313.882548,171.690447 L313.4992,171.58736 L313.173283,171.455557 L313.041193,171.222677 L312.824968,169.997113 L312.892736,169.639322 L312.976584,169.378014 L312.966821,169.152599 L312.71183,168.939533 L312.460285,169.058988 L311.860425,169.068464 L311.550875,169.152599 L311.383179,169.26545 L311.270615,169.378014 L311.206006,169.519867 L311.141397,169.716853 L311.206006,170.091012 L311.206006,170.294028 L311.083105,170.387639 L310.915408,170.568258 L310.83156,170.961943 L310.812321,171.371422 L310.822084,171.616362 L310.886693,171.784059 L311.412468,172.541852 L311.451234,172.664753 L311.496316,172.719599 L311.60888,172.803161 L311.712255,172.935538 L311.767101,173.122761 L311.815342,173.215798 L311.937956,173.261455 L312.244347,173.280407 L312.405726,173.403308 L313.041193,174.160814 L313.292738,174.283715 L313.947157,174.470651 L314.247231,174.506545 L314.389084,174.348325 L314.511698,174.002881 L314.611914,173.280407 L315.166404,172.596698 L315.259728,172.393682 L314.930939,172.270781 L314.698634,172.103084 Z M311.767101,163.817893 L311.944273,163.547109 L312.263873,163.398938 L312.573423,163.192476 L312.71183,162.779265 L312.647508,162.292255 L312.450809,161.918383 L312.124892,161.637836 L311.65425,161.386004 L311.505792,161.27344 L311.028546,161.031659 L310.925459,161.002369 L310.880089,160.84099 L310.506217,160.38327 L311.477077,160.121962 L311.65425,160.112486 L311.628406,159.989585 L311.550875,159.870129 L311.467027,159.757279 L311.338096,159.683194 L311.347859,159.531865 L311.280091,159.506021 L311.196243,159.521814 L311.093155,159.551104 L311.018783,159.589582 L311.028546,159.615426 L310.402842,159.541341 L310.177141,159.402933 L310.093293,159.112336 L310.093293,158.522526 L310.028971,158.202639 L309.867304,157.951381 L309.344975,157.680597 L308.725588,157.651307 L308.119411,157.838817 L307.648482,158.167319 L307.445178,158.48376 L307.351854,158.822312 L307.248767,159.989585 L307.27461,160.112486 L307.4067,160.270419 L307.500312,160.440987 L307.55487,160.618734 L307.55487,160.84099 L307.303325,161.563751 L307.332615,161.834822 L308.174257,162.115082 L308.435565,162.247459 L308.809437,162.518531 L308.970816,162.666414 L309.10951,162.734182 L309.586757,162.872876 L309.718847,162.882352 L309.90607,162.798791 L310.093293,162.853924 L311.451234,163.585587 L311.767101,163.817893 Z M295.399159,123.274352 L295.24783,123.545136 L295.350918,123.697039 L295.605621,123.706515 L295.876406,123.535373 L295.980067,123.303354 L295.989543,122.742259 L296.138001,122.506795 L295.725077,122.54556 L295.547617,122.674492 L295.399159,123.274352 Z M300.630491,129.686165 L300.340181,129.92766 L300.359707,130.275975 L300.275859,130.489329 L300.320942,130.631182 L300.482034,130.695504 L300.733579,130.714743 L300.901275,130.621131 L301.3142,129.947473 L301.023889,129.6474 L300.630491,129.686165 Z M296.670093,123.593378 L296.850712,124.012906 L296.979643,124.190079 L297.195581,124.258134 L297.514894,124.248371 L297.682591,124.090437 L297.682591,123.854973 L297.495655,123.593378 L297.318482,123.49029 L297.111733,123.500053 L296.670093,123.593378 Z M279.673577,108.251717 L279.63797,108.196584 L279.422032,108.196584 L279.131721,108.309721 L278.393167,109.086754 L278.747799,109.318773 L278.905733,109.377065 L279.131721,109.402621 L279.254335,109.386828 L279.299418,109.357538 L279.347659,109.299534 L279.712055,109.402621 L279.927993,109.225449 L279.918517,108.944901 L279.563885,108.757678 L279.647733,108.654591 L279.673577,108.551503 L279.608967,108.457892 L279.450747,108.422285 L279.450747,108.309721 L279.673577,108.251717 Z M286.620354,79.0894385 L286.733491,78.9217419 L286.994512,78.9217419 L287.294586,78.8637372 L287.555894,78.7704128 L287.687984,78.7055165 L287.752306,78.5185807 L287.74283,78.2670357 L287.678508,78.0413344 L287.536081,77.9477229 L287.246057,78.021808 L287.020356,78.209031 L286.469025,78.9573487 L286.488264,79.1086777 L286.620354,79.0894385 Z M269.491747,69.5818415 L269.530225,69.6912463 L269.510986,69.8621017 L269.417375,70.2911065 L269.407899,70.636263 L269.45614,70.8622515 L269.594834,71.0198978 L269.846379,71.1522748 L269.92391,71.107192 L269.978469,71.0586633 L270.026998,71.0041045 L270.052842,70.9360495 L270.052842,70.7330332 L270.072081,70.6557893 L270.155929,70.6201825 L270.072081,70.4783295 L270.052842,70.3654788 L270.081557,70.2718673 L270.155929,70.1782558 L270.155929,70.0748812 L270.09132,69.94595 L270.026998,69.5881588 L269.949467,69.4299382 L269.840062,69.355853 L269.314,69.214 L269.333526,69.3946185 L269.407899,69.4945473 L269.491747,69.5818415 Z M281.405389,76.6383105 L281.566481,76.8703292 L281.911638,76.9090947 L282.201948,76.8996187 L282.379121,76.741398 L282.417887,76.3287609 L282.230951,76.4611378 L282.053778,76.4964575 L281.892399,76.4223723 L281.779548,76.2253862 L282.127863,76.151301 L282.1181,75.9448389 L281.866555,75.7932227 L281.463394,75.8965974 L281.276458,76.1222987 L281.285934,76.3836069 L281.405389,76.6383105 Z M271.907268,74.848206 L271.681567,74.6067113 L271.439498,74.729038 L271.662041,75.3449787 L271.907268,74.848206 Z M297.998745,132.90485 L298.056749,132.791999 L298.140598,132.698388 L298.533996,132.475558 L298.666373,132.37247 L298.308294,132.278859 L298.095515,132.278859 L297.495655,132.578933 L297.344326,132.68202 L297.166866,132.86953 L297.083018,133.056179 L297.240951,133.130264 L297.40233,133.120788 L297.914896,132.988411 L297.998745,132.90485 Z M297.334563,138.267985 L297.156816,138.34207 L297.083018,138.793472 L297.26019,139.158155 L297.608793,139.380698 L297.850287,139.3069 L297.718197,138.735755 L297.540738,138.435681 L297.334563,138.267985 Z M295.802608,139.990321 L295.315311,140.448041 L295.276833,140.945101 L295.399159,140.767641 L295.566856,140.625788 L295.922063,140.383719 L296.128238,140.325715 L296.476553,140.129016 L296.670093,140.064406 L296.363702,139.793622 L295.802608,139.990321 Z M278.609105,99.1823134 L278.71851,99.2693204 L278.86065,99.2759249 L278.993027,99.2113158 L279.131721,99.0631454 L278.86065,99.0146168 L278.466965,98.7050671 L278.19618,98.6309819 L278.26079,98.7986786 L278.609105,99.1823134 Z M270.213934,72.0522087 L270.278543,72.1650593 L270.362391,72.2586708 L270.474955,72.3425192 L270.73655,72.4068412 L271.017097,72.3037537 L271.204033,72.0875283 L271.22356,71.8072682 L271.026574,71.6005188 L270.717024,71.5746752 L270.401157,71.6941303 L270.155929,71.9005925 L270.213934,72.0522087 Z" id="Fill-3"></path>
        </g>
    </g>
</svg>