
<svg width="132px" height="115px" viewBox="0 0 132 115" version="1.1" xmlns="http://www.w3.org/2000/svg" xmlns:xlink="http://www.w3.org/1999/xlink">
    <!-- Generator: Sketch 51.2 (57519) - http://www.bohemiancoding.com/sketch -->
    <desc>Created with Sketch.</desc>
    <defs></defs>
    <g id="Page-1" stroke="none" stroke-width="1" fill="none" fill-rule="evenodd">
        <g id="ZA-EPS-01-0001" transform="translate(-174.000000, -108.000000)" >
            <path d="M272.844132,165.806734 L272.725209,165.708569 L272.374069,165.69731 L272.288923,165.570999 L272.230517,165.201211 L272.181611,165.024586 L272.109483,164.87259 L272.004282,164.74487 L271.852989,164.635095 L271.73477,164.649873 L271.281244,164.956328 L271.120452,164.996087 L270.010738,165.06927 L269.847834,165.137176 L269.692671,165.291635 L269.47488,165.663182 L269.323588,165.804271 L269.162795,165.866195 L268.977022,165.888713 L268.793711,165.868658 L268.633623,165.798993 L268.100932,165.852121 L268.0281,165.824326 L267.949991,165.936916 L267.841975,166.068857 L267.622073,166.393257 L267.597444,166.443218 L267.244897,166.821098 L266.943719,167.223607 L266.909942,167.294679 L266.909942,167.364696 L266.901146,167.417824 L266.831833,167.439991 L266.614042,167.439991 L266.52397,167.392492 L266.448324,167.296087 L266.354733,167.209181 L266.203089,167.192645 L266.086981,167.258088 L266.023649,167.379122 L265.974743,167.522322 L265.898393,167.65743 L265.686935,167.753483 L264.777771,167.691207 L264.836881,167.846018 L264.753142,167.91709 L264.625071,167.958608 L264.561388,168.031791 L264.558573,168.156344 L264.55224,168.229175 L264.531833,168.276674 L264.516,168.307988 L264.506852,168.336136 L264.505093,168.400875 L264.49313,168.440633 L264.459705,168.437818 L264.42241,168.423041 L264.391447,168.435004 L264.237692,168.657369 L264.140583,168.763977 L264.040308,168.80655 L263.913292,168.843142 L263.950236,168.925121 L264.050863,169.0261 L264.118769,169.116524 L264.067752,169.127783 L263.99492,169.163671 L263.955865,169.178449 L263.901682,169.116524 L263.847849,169.178449 L263.885145,169.397647 L263.704297,169.735768 L263.247957,170.296255 L263.192365,170.327217 L263.110738,170.358179 L263.028758,170.40603 L262.975982,170.487306 L262.972463,170.574915 L263.020666,170.786724 L263.034388,170.892981 L262.954519,170.961591 L262.564325,171.087551 L262.432384,171.172697 L262.406347,171.245528 L262.392625,171.457338 L262.373274,171.538614 L262.293406,171.642056 L262.220574,171.685332 L262.147039,171.707499 L262.074207,171.766608 L262.057319,171.832051 L262.087929,171.882365 L262.136132,171.938308 L262.159001,172.011139 L262.147039,172.126544 L262.116076,172.180376 L262.0633,172.220134 L261.730808,172.582885 L261.642847,172.726789 L261.608367,172.890044 L261.567201,172.926284 L261.378261,172.918895 L261.336392,172.952672 L261.321966,173.056466 L261.28256,173.152519 L261.229783,173.234147 L261.172081,173.293608 L260.91418,173.444901 L260.743887,173.515973 L260.51906,173.562769 L260.378322,173.63947 L260.296695,173.670784 L260.063071,173.696117 L259.837539,173.785485 L259.794966,173.814688 L259.535657,174.087367 L259.500121,174.113052 L259.434678,174.0842 L259.415679,174.028609 L259.389994,173.980407 L259.311181,173.983925 L259.268608,174.021924 L259.207387,174.168643 L259.153907,174.239715 L259.076854,174.129588 L258.992411,174.129588 L258.933302,174.214031 L258.93119,174.36286 L258.831971,174.588744 L258.897413,174.619706 L259.010003,174.712241 L259.116612,174.77135 L259.221109,174.864589 L259.454733,175.216784 L259.521935,175.352244 L260.400488,177.444304 L260.552836,177.621985 L260.937049,177.946033 L261.05175,178.131806 L261.158359,178.564926 L261.211839,178.695459 L261.310707,178.847104 L261.383539,178.878066 L261.482758,178.852733 L261.660791,178.852733 L261.78077,178.886158 L261.85712,178.948083 L261.851842,179.041673 L261.730808,179.162004 L261.55559,179.593012 L261.57283,179.85795 L261.749808,180.350882 L261.736086,180.494786 L261.823343,180.506397 L261.986246,180.554248 L262.068226,180.565507 L262.124521,180.556711 L262.293406,180.485638 L262.423588,180.485638 L262.479883,180.547915 L262.538992,180.773446 L262.623435,180.911369 L262.75045,181.015866 L263.039313,181.150622 L263.097016,181.341673 L263.304251,181.547502 L263.49671,181.821236 L263.522394,181.902863 L263.527672,181.984491 L263.541394,182.068582 L263.588893,182.145987 L264.076196,182.517182 L264.506852,183.006948 L264.746809,183.158592 L265.025117,183.246553 L265.361128,183.291941 L265.440292,183.276812 L265.591937,183.201517 L265.662306,183.189906 L265.755544,183.224035 L265.823098,183.274349 L265.883967,183.339088 L265.961021,183.398901 L266.118295,183.480177 L266.286828,183.533305 L267.22836,183.614933 L267.42293,183.699376 L267.42293,183.519935 L267.402875,183.37005 L267.397245,183.22122 L267.441929,183.03404 L267.495058,182.950301 L267.560149,182.902099 L267.630869,182.865507 L267.692794,182.809564 L267.757533,182.727584 L267.782162,182.671641 L267.919029,182.240633 L267.929232,182.168153 L267.9039,182.074915 L267.811013,181.914826 L267.794476,181.840939 L267.856401,181.731164 L268.534755,181.198473 L268.639604,181.074976 L268.695547,180.875481 L268.672677,180.663319 L268.580143,180.582043 L268.464386,180.528563 L268.377129,180.404714 L268.394369,180.232311 L268.515403,180.095092 L268.684288,179.993058 L268.830655,179.933596 L269.064631,179.900875 L269.139925,179.866394 L269.196572,179.810099 L269.29544,179.666899 L269.368272,179.610604 L269.495991,179.486051 L269.697949,179.099727 L269.855575,178.961805 L270.047681,178.931546 L270.433302,178.987138 L270.629982,178.917473 L270.976899,178.711644 L271.10673,178.680682 L271.238671,178.695459 L271.62781,178.843585 L271.894155,178.847104 L272.612619,178.574073 L273.139681,178.461132 L273.652316,178.250026 L274.581886,177.63817 L275.522716,177.056221 L275.618769,177.012944 L275.829171,176.95102 L275.922058,176.903873 L275.972723,176.828227 L275.95302,176.737451 L275.866467,176.560474 L275.84993,176.433107 L275.8538,176.351479 L275.831986,176.284629 L275.731711,176.207927 L275.615602,176.041505 L275.618769,175.825473 L275.666268,175.582701 L275.677879,175.352244 L275.826356,175.080973 L275.928039,174.822016 L276.057518,174.594021 L276.288327,174.411767 L276.901942,174.218956 L276.993421,174.106367 L276.993421,173.955074 L277.003624,173.81117 L277.133454,173.723913 L277.020865,173.580361 L276.96457,173.363273 L276.967736,173.129649 L277.026142,172.938247 L277.195379,172.766899 L277.418096,172.667679 L277.657701,172.594496 L277.865289,172.501609 L277.958879,172.434407 L278.023266,172.352076 L278.063376,172.251097 L278.057043,172.118803 L278.070765,171.977714 L278.217132,171.766608 L278.248094,171.63326 L278.223465,171.580131 L278.116857,171.476337 L278.082376,171.420746 L278.07358,171.352137 L278.079913,171.214566 L278.07358,171.158271 L277.992656,170.964054 L277.770643,170.659357 L277.682682,170.340587 L277.620054,170.186832 L277.514149,170.062279 L277.38643,169.969744 L277.296358,169.859265 L277.258007,169.335723 L277.015235,169.234743 L276.697169,169.225596 L276.431879,169.147838 L275.776395,168.451892 L275.500198,168.327339 L275.31935,168.279489 L275.215556,168.207009 L275.170169,168.091956 L275.167354,167.913924 L275.094522,167.823852 L274.922823,167.741872 L274.733179,167.688392 L274.618478,167.696132 L274.179378,167.245773 L273.857793,166.683527 L273.75611,166.558623 L273.643168,166.462922 L273.522838,166.390442 L273.389489,166.339425 L273.142847,166.294037 L273.077756,166.243723 L272.844132,165.806734 M293.029034,110.338629 L292.952683,110.489922 L293.716887,112.863457 L294.127137,114.142759 L294.456814,115.164512 L295.00393,116.872008 L295.051429,117.134132 L294.885711,119.105158 L294.932506,119.463335 L295.082391,119.76979 L295.848002,120.595215 L296.00598,120.907652 L296.315954,121.992385 L296.637539,122.752718 L296.750129,122.936028 L296.902125,123.076414 L297.414761,123.455701 L297.51011,123.566532 L297.55198,123.704454 L297.611793,125.222658 L297.662107,125.591038 L298.394645,127.179963 L298.595195,127.850576 L298.639879,128.522949 L298.572677,129.123898 L298.595195,132.854844 L298.600825,134.249551 L298.613843,136.152672 L298.476272,136.582977 L298.444606,136.806397 L298.433699,137.093853 L298.464661,137.369698 L298.546289,137.549842 L298.595195,137.732449 L298.667323,138.285547 L298.667323,138.475894 L298.636361,138.594113 L298.580066,138.648649 L298.50442,138.696148 L298.402737,138.79396 L298.33835,138.899161 L297.999525,139.783344 L297.952729,140.028579 L297.983692,140.292461 L298.29824,141.306825 L297.839436,141.53482 L297.611793,141.589004 L297.383799,141.518283 L296.552745,140.983833 L295.820207,140.507437 L294.975783,139.963839 L294.129951,139.417427 L293.927993,139.349521 L293.693666,139.352336 L293.41782,139.425167 L293.193344,139.537405 L292.387271,140.25411 L291.680066,140.884613 L291.579087,141.06722 L291.454534,141.533061 L291.026341,142.55974 L290.486262,143.526605 L289.905016,144.256328 L289.164738,145.190824 L288.993038,145.855104 L289.004649,146.798748 L289.015908,148.027034 L289.094017,148.635371 L289.149257,148.844366 L289.289291,148.835218 L289.421935,148.809885 L289.556691,148.733887 L289.677374,148.629389 L289.77026,148.516799 L289.948293,149.043861 L290.055605,149.204301 L290.282896,149.44637 L290.367339,149.575848 L290.412726,149.753529 L290.404634,149.975542 L290.322654,150.325274 L290.357135,150.546936 L290.533057,150.854799 L291.353555,151.598244 L291.73425,152.172804 L291.857395,152.29419 L291.978429,152.375466 L292.959017,152.713587 L293.57052,152.925045 L294.389612,153.20652 L294.925117,153.316295 L295.806485,153.327905 L296.969327,153.34409 L297.735642,153.356053 L298.45094,153.363442 L298.444606,153.245926 L298.422792,153.144595 L298.383034,153.04819 L298.327091,152.953192 L298.282407,152.819844 L298.262,152.161193 L298.242648,151.439914 L298.380219,150.621175 L298.50442,149.8911 L298.639879,149.106137 L298.622639,148.838384 L299.157441,148.840847 L299.287975,148.866532 L299.481841,149.063564 L299.610967,149.119859 L299.844591,149.169821 L300.249915,149.122674 L300.481428,149.131118 L301.061617,149.226467 L301.511625,149.299651 L302.444362,149.275022 L303.475615,149.24406 L304.593773,149.209931 L305.832613,149.175802 L305.73093,149.536441 L305.610952,150.699636 L305.464585,151.265048 L305.446641,151.460673 L305.401957,151.645742 L305.120834,152.04227 L305.096909,152.119324 L305.063835,152.378632 L305.046595,152.454278 L304.973764,152.592553 L304.937524,152.826177 L304.102951,155.192323 L303.551261,157.819186 L303.537539,158.019033 L303.523113,158.112271 L303.450282,158.324081 L303.424949,158.418727 L303.424949,158.529909 L303.469633,158.698794 L303.478429,158.793792 L303.098438,161.032571 L303.047421,161.200049 L302.376808,162.252764 L302.332124,162.396316 L302.301161,162.601793 L302.210738,162.793547 L302.073167,162.931118 L301.895134,162.985302 L301.923282,163.069744 L301.951429,163.097892 L301.993298,163.080651 L302.058741,163.046523 L302.12348,163.358959 L302.035872,163.692155 L301.903578,164.018666 L301.836728,164.313862 L301.734342,164.472192 L301.044377,165.178693 L300.940583,165.260673 L300.684441,165.387336 L300.583462,165.457353 L300.506408,165.556573 L300.357227,165.81553 L300.249915,165.950286 L299.375232,166.702175 L299.154626,166.522383 L298.841838,166.573048 L298.659935,166.764451 L298.83656,167.012149 L298.898132,166.933688 L299.005445,166.843616 L299.132108,166.773599 L299.264753,166.759174 L299.116275,167.052259 L298.802783,167.311216 L297.814455,167.837925 L297.527351,167.899498 L297.220192,167.888591 L296.865533,167.817167 L296.876441,167.894572 L296.890162,167.948052 L296.918662,167.981477 L296.972142,168.009625 L296.972142,168.063105 L296.730074,168.214398 L295.17563,169.992614 L294.801268,170.330384 L294.673549,170.389493 L294.62605,170.42503 L294.606699,170.482028 L294.575737,170.643172 L294.544775,170.673783 L294.439925,170.746614 L294.135933,171.177622 L294.020528,171.27649 L293.749961,171.448542 L293.639834,171.544243 L293.601483,171.63326 L293.55891,171.82607 L293.45969,171.885179 L293.395302,171.944641 L293.336896,172.014306 L293.27075,172.178617 L292.221553,173.619767 L291.173412,175.717809 L291.091784,176.081615 L291.175523,176.435921 L290.854642,176.433107 L290.778995,176.507346 L290.739237,176.745544 L290.860975,176.68186 L291.130839,176.591788 L291.235336,176.491864 L291.235336,176.560474 L291.218799,176.625213 L291.192059,176.689249 L291.125561,176.804301 L290.920084,177.052703 L290.091845,177.810222 L289.858221,178.100492 L289.471897,178.77392 L289.024704,179.821358 L287.872417,181.863105 L287.709514,182.235004 L287.678552,182.375389 L287.616627,182.508386 L287.238747,182.916876 L285.880632,185.440296 L285.655452,185.765048 L285.529492,185.896637 L285.414088,185.949766 L285.306424,186.043356 L285.055559,186.586954 L283.734739,188.352152 L283.509912,188.51013 L283.25377,189.068505 L282.830502,189.566012 L281.66766,190.673615 L281.524108,190.749261 L281.03399,190.889998 L280.85068,190.974441 L280.693757,191.101456 L280.627963,191.264359 L280.137845,191.867771 L279.963331,191.943417 L279.891203,191.994434 L279.837723,192.17106 L279.781428,192.244595 L279.718799,192.298075 L279.673412,192.317778 L279.496786,192.365981 L279.356049,192.481386 L279.098851,192.763212 L278.969725,192.838858 L278.656936,192.954263 L278.45146,193.103797 L278.380739,193.118222 L278.307908,193.125963 L278.22065,193.151647 L278.183355,193.153758 L278.093635,193.143555 L278.057043,193.151647 L278.008841,193.21322 L278.020803,193.261774 L278.048951,193.303995 L278.057043,193.343402 L277.899769,193.69243 L277.664738,193.825075 L277.620054,193.881019 L277.589795,194.11218 L277.505353,194.233214 L277.240063,194.427431 L276.984273,194.712073 L276.857961,194.889753 L276.803777,195.038935 L276.784426,195.129007 L276.643689,195.385501 L276.55608,195.435462 L276.533562,195.452351 L276.519136,195.492461 L276.494507,195.604699 L276.477267,195.63918 L275.950909,195.880192 L275.875263,195.995949 L275.843597,196.151464 L275.761969,196.32633 L275.542067,196.66621 L274.56148,197.725259 L273.742036,198.855028 L273.314195,199.119966 L273.246641,199.211797 L272.174574,200.203995 L271.993375,200.4721 L271.922654,200.533321 L271.79388,200.597708 L271.719641,200.654355 L271.425148,200.961514 L271.28617,201.158898 L271.224949,201.333764 L271.17358,201.446002 L270.286231,202.13843 L270.083569,202.251724 L269.821798,202.468459 L269.695134,202.536365 L269.670505,202.684491 L269.483676,202.830858 L269.089964,203.045482 L268.718065,203.318513 L268.47846,203.448695 L268.036545,203.577821 L267.835642,203.772391 L267.681886,204.032051 L267.619258,204.313526 L267.546427,204.516188 L267.375431,204.710405 L266.558099,205.394037 L266.314975,205.481998 L266.245662,205.555181 L266.141164,205.709992 L266.030334,205.775083 L266.016612,205.80886 L266.014853,205.856359 L266.007816,205.909839 L265.974743,205.958393 L265.594752,206.132204 L265.440292,206.309885 L265.349517,206.349291 L265.194354,206.377439 L264.803104,206.524158 L264.665182,206.6086 L263.950236,207.367174 L263.684946,207.588484 L263.121645,207.802404 L263.028758,207.881569 L262.992518,207.895291 L262.806745,208.171136 L262.747635,208.204913 L262.688526,208.22532 L262.617101,208.216876 L262.536177,208.171136 L262.477068,208.413908 L262.285313,208.622199 L261.851842,208.968413 L261.660791,209.08417 L261.626311,209.08417 L261.592534,209.062004 L261.564386,209.035615 L261.549257,209.02506 L261.521813,209.056374 L261.490851,209.154538 L260.640094,209.743172 L260.564447,209.836763 L259.959277,210.128441 L259.837539,210.230124 L259.775615,210.295918 L259.747467,210.35925 L259.73093,210.433489 L259.688357,210.505969 L259.626433,210.568245 L259.553601,210.590763 L259.387531,210.618911 L258.697566,210.99292 L258.542052,211.03303 L258.351001,211.046752 L258.172968,211.103399 L257.725071,211.495352 L257.564983,211.540036 L257.179362,211.585424 L256.914073,211.745513 L256.14811,212.07519 L256.052408,212.088912 L255.990484,212.129022 L255.937004,212.308462 L255.88669,212.348221 L255.714287,212.376016 L254.95149,212.762692 L254.639053,212.847134 L254.309024,212.864023 L253.632781,212.762692 L253.422027,212.770433 L253.270031,212.841505 L253.12859,212.865782 L252.942817,212.784858 L252.641287,212.609992 L251.579424,212.396071 L250.484839,212.33661 L249.783263,212.441459 L249.129538,212.64975 L248.535275,212.94178 L248.281596,213.142331 L248.074008,213.404102 L247.92166,213.71478 L247.79183,214.252397 L247.769312,214.477577 L247.806255,214.581019 L247.960715,214.65772 L247.997658,214.742163 L248.03425,214.801624 L248.265411,214.973676 L248.414593,215.212225 L248.481795,215.299483 L248.470536,215.37337 L248.456462,215.404332 L248.427963,215.435646 L248.177802,215.356129 L248.003288,215.412424 L247.84531,215.513755 L247.637371,215.567235 L247.386155,215.535921 L246.963942,215.404332 L246.735948,215.364574 L246.339069,215.415239 L246.142036,215.415239 L245.924597,215.288927 L245.639956,215.240373 L245.370092,215.037359 L245.077358,214.919844 L244.403578,214.740052 L243.671392,214.72246 L242.956447,214.824142 L242.488495,214.958898 L242.297092,215.063748 L242.173243,215.209411 L242.285833,215.601716 L242.198576,215.792767 L242.061005,215.961652 L241.976211,216.023928 L241.598683,216.36979 L241.543092,216.516157 L241.576517,216.632265 L241.6497,216.697356 L241.724995,216.74204 L241.758772,216.809594 L241.730976,216.894037 L241.59622,217.000645 L241.543092,217.074532 L241.486093,217.074532 L241.387225,216.93098 L241.217989,216.871519 L240.671928,216.857093 L240.232475,216.738874 L240.049869,216.713541 L239.545325,216.809594 L239.394033,216.797632 L238.706883,216.615729 L238.359965,216.432066 L238.077435,216.181554 L237.926494,216.119629 L236.955406,216.003873 L236.813965,215.925764 L236.703135,215.845895 L236.188388,215.626697 L234.763071,215.494756 L234.588908,215.454997 L234.245157,215.324815 L233.394048,215.240373 L231.981045,214.90577 L231.603517,214.921955 L230.3214,215.217855 L230.149349,215.29702 L229.995241,215.398351 L229.868226,215.530644 L229.789413,215.739287 L229.84606,215.930338 L229.986797,216.060872 L230.166941,216.088667 L230.166941,216.156573 L227.412711,215.894802 L227.366971,215.829007 L227.319473,215.555625 L227.300121,215.494756 L227.060516,215.477164 L226.961296,215.435646 L226.894446,215.364574 L226.922593,215.508126 L226.981703,215.567235 L227.057349,215.595383 L227.138977,215.660826 L227.218493,215.795934 L227.220605,215.86595 L227.167124,215.925764 L227.119274,215.877209 L227.007036,215.842729 L226.784671,215.823729 L226.682636,215.842729 L226.60699,215.880024 L226.522899,215.905005 L226.398347,215.894802 L225.761862,215.694603 L225.50572,215.533458 L225.404741,215.502496 L225.314317,215.440572 L225.249226,215.299483 L225.23269,215.209411 L225.237615,215.142209 L225.291799,215.105617 L225.412482,215.108432 L225.288985,215.001471 L225.111304,214.945528 L224.759108,214.90577 L224.832996,215.049322 L224.939604,215.192522 L225.065916,215.305816 L225.195746,215.364574 L225.049379,215.415239 L224.855162,215.375833 L223.956554,215.060933 L223.796465,215.037359 L223.587822,215.043341 L223.429492,215.074655 L223.303533,215.136931 L222.889061,215.477164 L222.565013,215.649215 L222.207892,215.730491 L221.461281,215.646048 L221.126326,215.654493 L220.441287,215.823729 L220.281198,215.899727 L220.152072,215.998244 L219.918096,216.257552 L219.816413,216.457399 L219.853357,216.612914 L219.968761,216.727967 L220.109499,216.809594 L220.00289,216.904592 L219.841746,216.959128 L218.805215,217.116754 L218.510019,217.246584 L218.307005,217.465782 L218.284839,217.623408 L218.323894,217.938308 L218.25071,218.045972 L218.089918,218.324632 L218.042067,218.361575 L217.571301,218.637421 L217.245494,218.761269 L216.906669,218.828471 L216.561158,218.851341 L215.718845,218.677179 L215.419778,218.493868 L215.242098,218.451295 L215.068639,218.482609 L214.735443,218.620532 L214.457135,218.677179 L214.40084,218.729955 L214.363897,218.792232 L214.321324,218.851341 L214.267843,218.893562 L213.739023,219.127186 L213.395272,219.1775 L213.048706,219.149704 L211.738441,218.659587 L211.420727,218.586755 L210.645968,218.516035 L210.266681,218.561422 L209.945448,218.718696 L210.004206,218.718696 L209.548217,218.848527 L209.40185,218.921358 L209.615419,218.958302 L209.807525,219.10502 L209.902875,219.304867 L209.835321,219.507177 L209.685787,219.566991 L208.27771,219.310849 L207.159904,219.464956 L206.82706,219.620823 L206.551215,219.839669 L206.114225,220.43147 L205.965044,220.577837 L205.813751,220.639409 L205.70081,220.662631 L205.644866,220.726666 L205.599479,220.811461 L205.517499,220.901181 L205.449593,220.938124 L205.190637,221.039455 L205.06151,221.129527 L204.917958,221.26569 L204.799739,221.426131 L204.751888,221.59396 L204.664631,221.562998 L204.472173,221.616478 L204.146366,221.758271 L203.554213,222.191038 L203.3322,222.496087 L203.438809,222.755395 L203.438809,222.814505 L203.309682,222.850041 L203.101039,222.98339 L202.971912,223.014 L202.844897,222.993945 L202.720696,222.946446 L202.60494,222.884522 L202.104267,222.506642 L201.988862,222.389126 L201.848125,222.312776 L200.568822,222.351831 L200.453418,222.38033 L200.318662,222.515086 L200.212053,222.552382 L200.124444,222.529864 L200.070964,222.470402 L200.034372,222.402848 L199.997429,222.351831 L199.594568,222.104133 L198.986231,221.490518 L198.578796,221.253376 L198.454244,221.157674 L198.327228,221.003567 L198.177695,220.887811 L197.989107,220.862478 L197.798056,220.915606 L197.645708,221.039455 L197.574635,220.98879 L197.50497,220.975068 L197.437065,220.991604 L197.367048,221.039455 L197.398362,220.932495 L197.870888,220.276659 L197.913461,220.172513 L197.870888,219.907575 L197.746687,219.600768 L197.583432,219.313663 L197.426509,219.113816 L197.315679,219.029374 L197.2147,219.002986 L196.656676,219.118742 L196.16691,219.086021 L196.05995,219.054707 L195.950175,218.946691 L195.806623,218.677179 L195.679255,218.586755 L195.679255,218.521664 L195.885084,218.485072 L195.978322,218.343983 L196.031802,218.143784 L196.116245,217.924586 L195.978322,218.006565 L195.790086,218.321465 L195.705644,218.392538 L195.09414,218.349965 L194.989291,218.359112 L194.761296,218.442851 L193.986889,218.575144 L193.818004,218.684919 L193.784227,218.764436 L193.708229,218.786954 L193.617805,218.767251 L193.545325,218.718696 L193.468624,218.600125 L193.480234,218.508294 L193.545325,218.392538 L193.491845,218.074119 L193.485864,217.997417 L193.514011,217.890809 L193.550955,217.846829 L193.595639,217.808829 L193.655101,217.727905 L193.720192,217.54178 L193.708229,217.400691 L193.595639,217.074532 L193.584028,216.87363 L193.655101,216.787428 L193.764524,216.70756 L193.866558,216.541842 L193.533715,216.032372 L193.404236,215.958485 L192.931007,215.842729 L192.184747,215.770249 L191.449746,215.806841 L191.331527,215.857506 L191.263621,215.905005 L190.976165,216.023928 L190.838243,216.125611 L190.770689,216.195276 L190.697857,216.291329 L190.579638,216.414474 L190.545157,216.483084 L190.534954,216.615729 L190.553953,216.713541 L190.593711,216.764207 L190.647192,216.80678 L190.697857,216.868704 L190.80728,217.26875 L190.818891,217.363748 L190.823817,217.451357 L190.750985,218.087841 L190.785114,218.284873 L190.91987,218.392538 L190.770689,218.434759 L190.573656,218.330261 L190.385068,218.155747 L190.264034,217.997417 L190.069817,217.615316 L190.044484,217.502726 L190.052225,217.440449 L190.089168,217.310267 L190.100779,217.234621 L190.083187,217.197678 L190.04941,217.175511 L190.013522,217.158975 L189.989948,217.13892 L189.911487,216.885241 L189.849563,216.781447 L189.616642,216.702282 L189.54557,216.609747 L189.526219,216.485547 L189.548737,216.353957 L189.607846,216.277255 L189.680326,216.248756 L189.745769,216.201257 L189.773916,216.057353 L189.776731,215.925764 L189.793268,215.823729 L189.82423,215.730491 L189.880525,215.626697 L189.76512,215.642882 L189.717622,215.660826 L189.65816,215.696362 L189.54557,215.517274 L189.531145,215.378999 L189.59905,215.252336 L189.717622,215.108432 L189.830211,214.931103 L189.914302,214.587 L189.989948,214.384338 L190.250312,214.175695 L190.55712,214.181324 L190.813262,214.142974 L190.91987,213.790426 L190.886093,213.607116 L190.734801,213.359418 L190.697857,213.235218 L190.678154,213.046981 L190.466696,212.201502 L190.258405,211.782105 L190.213721,211.595628 L190.142648,211.560091 L189.773916,211.111843 L189.63916,211.024234 L189.576884,210.968291 L189.548737,210.883849 L189.548737,210.489784 L189.529385,210.2924 L189.47485,210.128441 L189.277817,209.805449 L189.049823,209.556695 L188.187807,208.95434 L188.26486,208.797066 L188.219121,208.604607 L188.018922,208.235875 L187.915128,207.983252 L187.723022,207.720425 L187.698041,207.619446 L187.622043,207.495597 L187.256477,207.143754 L187.120666,207.067756 L186.954244,207.002313 L186.844821,206.848205 L186.754749,206.676858 L186.66151,206.546676 L186.866987,206.44253 L186.985558,206.414382 L187.067186,206.447104 L187.131925,206.555472 L187.174498,206.659265 L187.227978,206.749337 L187.320513,206.811262 L187.284273,206.912241 L187.343383,206.992109 L187.560118,207.16592 L187.7093,207.373859 L187.813445,207.484338 L187.915128,207.524096 L188.038625,207.448098 L188.008367,207.342897 L187.833852,207.16592 L187.791279,207.087107 L187.777557,206.927018 L187.751521,206.861575 L187.718096,206.839409 L187.628024,206.830613 L187.588266,206.811262 L187.413399,206.633581 L187.34866,206.540694 L187.320513,206.447104 L187.346549,206.039669 L187.320513,205.899284 L187.207923,205.712807 L187.01652,205.619568 L186.788526,205.599865 L186.548568,205.639623 L186.619641,205.788453 L186.66151,205.840174 L186.566161,205.861988 L186.481718,205.903506 L186.326555,206.027707 L186.238946,205.930246 L186.191447,205.828563 L186.171041,205.740954 L186.166467,205.675863 L186.138319,205.594236 L186.081672,205.509793 L186.053877,205.403185 L186.110172,205.256818 L186.070413,205.183986 L185.97436,204.9099 L185.923695,204.698442 L185.917713,204.622796 L185.946213,204.543983 L186.025729,204.4423 L186.073228,204.327248 L186.02784,204.213954 L185.842067,203.969775 L185.799494,203.944442 L185.768532,203.90785 L185.774161,203.825871 L185.80829,203.81426 L185.864585,203.829037 L185.92088,203.831852 L185.943398,203.791742 L185.968379,203.763595 L186.092579,203.656986 L186.138319,203.632005 L186.202355,203.620043 L186.21678,203.586617 L186.219947,203.5356 L186.247742,203.470861 L186.253724,203.398029 L186.244928,203.104944 L186.27026,202.986373 L186.380035,202.899115 L186.572142,202.823469 L186.763193,202.775267 L186.881764,202.789692 L186.822303,202.859357 L186.915893,202.998687 L187.320513,203.374456 L187.663912,203.510971 L187.968608,203.431103 L188.236361,203.225978 L189.199004,202.249261 L189.385481,201.880529 L189.500886,201.544167 L189.686659,200.775741 L189.717622,200.404194 L189.680326,199.747655 L189.633179,199.598473 L189.536774,199.386663 L189.582514,199.235723 L189.773916,198.984155 L189.81086,198.604516 L189.500886,197.375527 L189.410814,196.376292 L189.269725,195.970968 L189.221874,195.767954 L189.241929,195.357001 L189.230318,195.162432 L189.140247,194.971029 L189.042082,194.838736 L188.95201,194.680758 L188.900289,194.556558 L188.895715,194.472115 L188.903104,194.399636 L188.895715,194.297601 L188.726479,193.647043 L188.593834,193.334606 L188.399616,193.019002 L188.027718,192.543662 L187.968608,192.410665 L187.952072,192.341 L187.588266,191.811124 L187.207923,191.408263 L187.148461,191.264359 L187.094981,191.093012 L186.973947,190.951923 L186.712527,190.718299 L186.402202,190.230644 L186.174207,190.053667 L186.095394,189.824968 L185.999693,189.383053 L185.901529,189.268 L185.574314,189.006229 L185.504649,188.910176 L185.461724,188.78879 L185.027901,188.075955 L184.989199,188.048159 L184.906867,187.820165 L184.878368,187.760703 L184.774574,187.600615 L184.606041,187.186143 L184.524414,187.028166 L183.969205,186.242851 L183.524475,185.356206 L183.485068,185.223209 L183.416811,184.885439 L183.321813,184.561392 L182.851047,183.916815 L182.637478,183.516769 L182.667736,183.170555 L182.470704,182.942209 L182.023159,182.119599 L181.952439,181.905678 L181.80572,181.725182 L181.293436,180.832556 L181.257548,180.738966 L181.231512,180.503231 L181.16431,180.209793 L181.133347,180.134499 L181.113996,179.892079 L180.693543,179.159189 L180.586935,178.852733 L180.555621,178.495612 L180.37231,177.759908 L179.871637,176.58827 L179.821324,176.275481 L179.800917,176.230093 L179.765029,176.182594 L179.727733,176.12067 L179.710493,176.022505 L179.705567,175.929267 L179.491294,175.174563 L179.541608,175.174563 L179.502905,175.055992 L179.50572,174.811109 L179.491294,174.680927 L179.297077,174.155273 L179.300244,174.056405 L179.195042,173.971962 L179.139099,173.77493 L179.10497,173.428364 L178.87205,172.777806 L178.812589,172.676123 L178.516688,171.772941 L178.48256,171.716295 L178.328452,171.546354 L178.294675,171.457338 L178.271102,171.414413 L178.12755,171.239899 L177.958665,170.690319 L177.911166,170.606229 L177.829538,170.51862 L177.79541,170.442622 L177.801391,170.231516 L177.773243,170.146721 L177.696542,170.009503 L177.632506,169.798045 L177.601544,169.587291 L177.640247,169.440572 L177.519916,169.231929 L177.009391,168.784032 L176.936912,168.668628 L176.815526,168.319247 L176.75325,168.195398 L176.393314,167.691207 L175.855697,167.229588 L175.771255,167.034667 L175.688572,166.711323 L175.646702,166.393257 L175.66922,166.203261 L175.635443,166.145207 L175.568241,165.987229 L175.556278,165.919324 L175.525668,165.871825 L175.457762,165.858103 L175.384931,165.852121 L175.334617,165.832066 L175.165732,165.449613 L175.032736,165.345115 L174.82937,165.128732 L174.816,165.080529 L174.897628,165.021771 L174.947941,164.888423 L174.965533,164.74487 L174.951108,164.654799 L175.09466,164.585134 L175.303303,164.444044 L175.522501,164.328992 L175.82755,164.232587 L176.432017,163.633397 L176.5147,163.598917 L176.584365,163.644304 L176.621308,163.745635 L176.643474,163.860688 L176.677251,163.94513 L176.809544,163.959556 L176.970689,163.823745 L177.111426,163.629879 L177.20185,163.477531 L177.221201,163.326238 L177.232812,163.117595 L177.27433,162.939562 L177.390086,162.861101 L177.474528,162.787214 L177.417882,162.621496 L177.248997,162.362539 L177.193054,162.224968 L177.158925,162.03814 L177.195868,161.878051 L177.336606,161.808034 L177.407678,161.841459 L177.486139,161.900569 L177.5646,161.928364 L177.640247,161.869607 L177.657839,161.757017 L177.61034,161.650056 L177.550878,161.559633 L177.524842,161.494893 L177.558971,161.410451 L177.601544,161.377378 L177.773243,161.379489 L177.894629,161.348527 L177.891815,161.284139 L177.751077,161.103292 L177.727856,161.058608 L177.745096,161.002665 L177.792595,160.966073 L177.826724,160.976628 L177.860501,161.004424 L177.992442,160.999498 L178.032552,161.032571 L178.069495,161.038904 L178.12755,160.948481 L178.186659,160.233183 L178.214807,160.20785 L178.350618,160.053391 L178.398469,160.014337 L178.460393,160.030169 L178.542021,160.129389 L178.620482,160.142759 L178.716535,160.106871 L178.83194,159.985485 L178.922364,159.960505 L179.135581,160.014337 L179.400871,159.816601 L179.491294,159.770861 L179.649272,159.73251 L179.7309,159.73251 L179.821324,159.770861 L179.931099,159.903858 L180.02293,160.086816 L180.127779,160.253238 L180.282238,160.323255 L180.483141,160.385179 L180.555621,160.541046 L180.553158,160.743356 L180.533454,160.948481 L180.572157,161.368582 L180.741394,161.579336 L180.995425,161.62789 L181.502079,161.506504 L181.707556,161.494893 L181.79798,161.537466 L181.831756,161.638094 L181.842664,161.750683 L181.873626,161.838292 L181.944698,161.950882 L181.966864,162.040954 L181.97566,162.134193 L182.008734,162.243968 L182.062918,162.337206 L182.188877,162.506443 L182.231802,162.608126 L182.248339,162.80164 L182.228988,163.050041 L182.161082,163.261147 L182.034066,163.354034 L181.898959,163.387459 L181.761036,163.477531 L181.657594,163.598917 L181.62628,163.728747 L181.690315,163.892002 L181.907755,164.173477 L181.952439,164.379305 L182.014363,164.531302 L182.307449,164.641077 L182.395058,164.838461 L182.344392,165.193471 L182.245524,165.570999 L182.25995,165.840511 L182.557961,165.888713 L182.910508,165.804271 L183.23913,165.764864 L183.403441,165.725458 L183.555437,165.655441 L183.690545,165.624127 L183.811931,165.708569 L183.853448,165.89962 L183.847467,166.122337 L183.884762,166.305648 L184.056462,166.384109 L184.312604,166.457996 L184.414639,166.451663 L184.4931,166.415423 L184.650725,166.305648 L184.737983,166.265537 L184.994125,166.243723 L186.326555,166.539623 L186.613659,166.661009 L186.884579,166.832709 L187.369067,167.237329 L187.675523,167.395658 L188.346136,167.632449 L188.49567,167.635264 L188.779959,167.533581 L189.480831,167.432602 L189.65816,167.446324 L189.993467,167.570173 L190.188036,167.60395 L190.342495,167.538858 L190.404772,167.499452 L190.492029,167.471305 L190.650358,167.446324 L190.691876,167.432602 L190.762596,167.387214 L190.80728,167.379122 L190.841409,167.398121 L190.939574,167.491711 L190.976165,167.508248 L191.148217,167.454768 L191.435321,167.294679 L192.964784,167.068444 L194.632169,167.311216 L194.764111,167.437879 L194.967124,167.755594 L195.0484,167.851647 L195.104695,167.870999 L195.387225,167.908294 L195.474482,167.939256 L195.510371,167.9762 L195.646534,168.153177 L195.953341,168.135937 L196.281963,168.026162 L196.739359,167.784093 L196.803395,167.719706 L196.890652,167.572987 L196.938855,167.538858 L197.20133,167.519859 L197.296327,167.460397 L197.299494,167.350974 L197.000427,166.837283 L196.949762,166.640251 L196.978261,166.451663 L197.115832,166.187428 L197.205904,166.068857 L197.30829,165.9816 L197.423343,165.970693 L197.614394,166.127967 L197.699188,166.142744 L197.814593,166.091023 L198.462688,165.924953 L198.625943,165.849659 L198.763866,165.737069 L198.848308,165.606535 L199.076303,164.879626 L199.126968,164.801517 L199.203318,164.770203 L199.253632,164.739241 L199.32189,164.573523 L199.363407,164.500691 L199.434479,164.413434 L199.481978,164.339547 L199.532644,164.277974 L199.61392,164.220624 L199.68464,164.198106 L200.487547,164.138996 L200.622303,164.066516 L200.780632,163.942316 L200.963239,163.877225 L201.349211,163.852244 L201.580372,163.785042 L201.938197,163.460994 L202.148951,163.342775 L202.23656,163.330812 L202.495165,163.364941 L202.577144,163.357552 L202.825194,163.294924 L202.838916,163.027523 L202.838916,160.650117 L202.836101,160.145926 L202.836101,152.612608 L202.833286,152.110879 L202.833286,146.624586 L202.83012,146.128487 L202.83012,136.727232 L202.828712,136.234652 L202.828712,130.832801 L202.825194,130.723377 L202.864248,130.866929 L202.915969,130.924984 L203.056355,131.033 L203.204481,131.272605 L203.619304,131.598412 L203.833929,131.841536 L203.921186,131.89959 L203.996832,131.923163 L204.162902,131.934422 L204.24453,131.955885 L204.852867,132.328487 L205.883416,133.178892 L205.967859,133.29113 L206.219427,133.832617 L206.432996,134.17285 L206.520253,134.36179 L206.508642,134.490916 L206.438625,134.638338 L206.514271,134.755502 L206.66099,134.846278 L206.816153,134.908202 L206.829875,135.136549 L206.847115,135.192492 L206.894966,135.245972 L207.041333,135.319859 L207.091646,135.373339 L207.109238,135.454615 L207.081443,135.508095 L207.044499,135.558409 L207.044499,135.6235 L207.078276,135.685776 L207.162367,135.798014 L207.193681,135.869086 L207.247161,136.141765 L207.297475,136.237818 L207.429416,136.325075 L207.663392,136.429221 L207.709131,136.510497 L207.734464,136.682548 L207.855498,136.66566 L207.849869,136.741658 L207.806944,136.849322 L207.812925,136.93869 L207.891386,136.975282 L207.965273,136.94432 L208.032475,136.901747 L208.106363,136.899636 L208.210156,136.989004 L207.973014,137.138537 L207.9227,137.27646 L207.906164,137.524861 L208.263285,137.843279 L208.328024,138.074441 L208.280877,138.161346 L208.106363,138.267954 L208.060271,138.330231 L208.086659,138.42558 L208.167935,138.456542 L208.26047,138.470968 L208.322394,138.524448 L208.328024,138.623316 L208.26047,138.811552 L208.26047,138.901624 L208.325561,138.9924 L208.528223,139.095842 L208.612665,139.163748 L208.689367,139.318207 L208.858252,139.904378 L208.773809,140.073263 L208.767828,140.15489 L208.877603,140.117947 L208.956064,140.076429 L209.001804,140.082059 L209.092228,140.183741 L209.092228,140.217167 L209.308611,140.741061 L209.376517,141.507024 L209.359277,142.140694 L209.387072,142.307116 L209.685787,142.836289 L209.657992,142.974563 L209.311074,143.461514 L209.165059,143.802099 L208.981397,144.118406 L208.519427,144.700706 L208.286506,145.143677 L208.173916,145.283711 L207.939941,145.457873 L207.902997,145.565537 L207.801314,146.04123 L207.775982,146.297372 L207.801314,146.523255 L207.849869,146.632678 L207.978995,146.818452 L208.018402,146.945467 L208.004328,147.151295 L207.829462,147.754003 L207.832628,148.018941 L207.875201,148.347915 L207.956477,148.669148 L208.066252,148.914031 L208.116566,148.981936 L208.162306,149.029083 L208.283692,149.110711 L208.362153,149.209931 L208.44378,149.491054 L208.483539,149.581126 L208.506057,149.556848 L208.674941,149.431944 L209.19004,149.193394 L209.561939,148.931271 L209.767767,148.821848 L210.212849,148.765201 L210.553785,148.90629 L210.873962,149.108952 L211.927733,149.344335 L212.175431,149.336946 L212.868562,149.137451 L212.983615,149.137451 L213.20598,149.165247 L213.31857,149.159617 L213.989183,148.97877 L214.352286,148.965048 L214.535596,148.998121 L214.926846,149.175802 L215.60907,149.196209 L216.081948,149.322169 L216.250832,149.325335 L216.431328,149.254615 L216.884502,148.944993 L217.030869,148.804255 L217.118478,148.646981 L217.152255,148.482671 L217.143459,148.310971 L217.073794,147.914092 L217.081183,147.776169 L217.177588,147.680468 L217.392212,147.604821 L217.642373,147.560137 L218.41678,147.554508 L218.92062,147.433122 L219.388572,147.145666 L219.79108,146.739639 L220.092962,146.272039 L220.349104,145.568352 L220.503563,145.250286 L220.824796,144.920257 L220.909238,144.745039 L220.979959,144.692966 L221.346228,144.627171 L221.470429,144.58495 L221.664294,144.483619 L222.07771,144.08111 L222.34863,143.677898 L222.523144,143.534346 L222.776471,143.487551 L223.139574,143.565308 L223.275385,143.509013 L223.424918,143.277852 L223.55686,142.971045 L223.646932,142.853177 L223.801743,142.74305 L223.900259,142.641367 L224.232047,142.132602 L224.238028,142.028104 L224.210233,141.940495 L224.204251,141.862386 L224.291509,141.791314 L224.517744,141.706871 L224.596205,141.650576 L224.666222,141.537635 L224.705628,141.391268 L224.728146,141.18368 L224.725331,140.985592 L224.683462,140.873003 L224.581779,140.715729 L224.666222,140.569362 L224.827366,140.428624 L224.9484,140.296331 L225.035657,140.14715 L225.024047,140.092966 L224.974085,139.966302 L224.917438,139.879397 L224.871698,139.861805 L224.841088,139.834713 L224.835107,139.710512 L224.883661,139.518406 L224.987455,139.337558 L225.345279,138.918513 L225.389964,138.833719 L225.412482,138.741887 L225.429722,138.617687 L225.415296,138.521633 L225.387149,138.445635 L225.395945,138.374915 L225.502553,138.290472 L225.576441,138.205678 L225.539497,138.112791 L225.463851,138.019905 L225.415296,137.932296 L225.421278,137.859816 L225.443444,137.786633 L225.50572,137.651173 L225.666512,137.107575 L225.719993,137.019966 L225.922654,136.93869 L226.010263,136.834896 L226.136575,136.49396 L226.201314,136.387 L226.271331,136.31065 L226.353663,136.25717 L226.463438,136.206856 L226.556676,136.150209 L226.586583,136.082655 L226.60699,136.007009 L226.648859,135.927141 L226.961296,135.612944 L227.150588,135.511262 L227.338824,135.539057 L227.392304,135.609074 L227.426081,135.700202 L227.477802,135.744886 L227.575966,135.688591 L227.649502,135.626666 L228.249395,135.342377 L228.628682,135.229787 L229.023802,135.201288 L229.459384,135.282915 L229.823542,135.423653 L229.946687,135.451448 L230.091294,135.440189 L230.352714,135.345192 L230.454397,135.325488 L230.56945,135.358562 L230.639818,135.432097 L230.760852,135.61787 L230.865702,135.731164 L230.947681,135.787459 L231.181305,135.896178 L231.381152,136.020379 L232.222762,136.682548 L232.284686,136.769805 L232.383554,136.870433 L232.830747,137.009411 L232.904986,137.076261 L232.986262,137.259923 L233.03939,137.338384 L233.115388,137.384124 L233.276532,137.437604 L233.346197,137.480177 L233.648431,137.879871 L234.011181,138.141994 L234.129752,138.316861 L234.282101,138.409044 L234.695517,138.307009 L234.78594,138.324601 L234.867216,138.374915 L234.951307,138.445635 L234.960455,138.516708 L234.915771,138.592354 L234.929492,138.633872 L235.098025,138.608891 L235.925913,138.383711 L236.346366,138.380896 L236.697505,138.583558 L237.250251,139.239746 L237.585558,139.487092 L237.988067,139.554997 L238.207969,139.498702 L238.368058,139.430797 L238.526387,139.411445 L239.484105,139.766455 L239.905965,140.05567 L240.187791,140.117947 L240.770796,140.053911 L241.030104,140.113021 L241.254932,140.172482 L241.494889,140.143279 L241.970582,140.01732 L242.127856,139.949062 L242.6039,139.586311 L242.967354,139.411445 L243.27205,139.366761 L243.58132,139.417427 L243.944775,139.529665 L244.280081,139.589126 L245.944652,139.417427 L246.51675,139.130322 L247.544132,138.324601 L247.718998,137.794373 L248.153173,136.744121 L248.408611,135.603093 L249.104909,134.037742 L249.281535,133.454385 L249.523955,133.029007 L249.53838,132.704959 L249.768134,132.170157 L249.853984,131.888683 L249.85891,131.536839 L249.774115,130.897892 L249.789245,130.683619 L249.833929,130.643861 L249.893038,130.632954 L250.157625,130.54253 L250.566467,130.556252 L250.686797,130.493976 L250.947161,130.302925 L253.06174,129.638292 L253.436453,129.587979 L253.585986,129.601349 L253.736575,129.636181 L253.880831,129.649903 L254.064493,129.678051 L254.582407,129.142897 L254.641516,129.041214 L254.875844,128.422322 L255.075339,128.160199 L255.291723,127.979351 L255.810692,127.641581 L256.294476,127.138094 L256.365197,127.007912 L256.534082,126.914673 L257.237768,126.686679 L257.404894,126.590977 L257.531206,126.478035 L257.615648,126.326743 L257.770459,125.563243 L257.784181,125.174808 L258.345019,122.867419 L258.375982,122.633795 L258.322853,122.460336 L258.548385,122.045161 L258.510386,121.890702 L258.553663,121.730613 L258.708474,121.454768 L258.848507,121.096591 L258.925561,121.034667 L259.010003,121.068796 L259.051873,121.175404 L259.113797,121.268643 L259.251368,121.276032 L259.373106,121.186663 L259.370291,121.062814 L259.319977,120.910114 L259.304848,120.738767 L259.361847,120.763396 L259.415679,120.797876 L259.441011,120.719063 L259.485696,120.665583 L259.632062,120.56179 L259.578582,120.56179 L259.643673,120.457292 L259.720023,120.392905 L259.806577,120.381646 L259.905445,120.443922 L259.941333,120.338721 L259.896649,120.285241 L259.831909,120.226483 L259.797781,120.121282 L259.831909,120.051617 L259.913889,120.037895 L260.003961,120.074838 L260.068348,120.152244 L260.102829,120.09419 L260.164753,120.023117 L260.184456,119.969637 L260.240048,120.039654 L260.305491,120.070616 L260.375507,120.069209 L260.453968,120.034024 L260.341379,119.86901 L260.431099,119.766975 L260.728054,119.674089 L261.03451,119.521741 L261.172081,119.417243 L261.305429,119.290579 L261.490851,118.992568 L261.606255,118.896515 L261.696327,119.16462 L261.777603,119.116065 L261.854305,119.017901 L261.877175,118.967235 L261.973228,118.920088 L262.091447,118.877164 L262.151965,118.894404 L262.092855,119.020716 L262.206852,119.080177 L262.285313,119.026697 L262.350404,118.927829 L262.426754,118.843387 L262.529844,118.801165 L262.863392,118.789906 L263.034388,118.739241 L263.19518,118.632281 L263.313399,118.477118 L263.358084,118.283252 L263.344362,118.226957 L263.322196,118.155533 L263.309881,118.099942 L263.329936,118.077424 L263.358084,118.064054 L263.386231,118.02324 L263.403471,117.976445 L263.412267,117.92789 L263.445341,117.795949 L263.595226,117.628823 L263.665946,117.387459 L263.756018,117.390625 L263.868608,117.446217 L263.97768,117.479642 L264.07127,117.446217 L264.386873,117.18726 L264.606072,117.428976 L264.713032,117.479642 L264.828085,117.423347 L264.873825,117.341719 L264.992044,117.009931 L265.003303,117.007116 L265.064876,116.959265 L265.074024,116.945895 L265.112374,116.93147 L265.095838,116.897341 L265.062413,116.858286 L265.045876,116.83225 L265.031451,116.792492 L264.994155,116.730567 L264.971637,116.66618 L264.992044,116.598274 L265.076838,116.6127 L265.248538,116.623607 L265.374146,116.578923 L265.324184,116.421649 L265.62501,116.342484 L265.961021,116.20421 L266.233347,116.010344 L266.363178,115.767924 L266.298438,115.40447 L266.293161,115.207437 L266.385696,115.119828 L266.54121,115.097662 L266.70728,115.032923 L266.859277,114.956221 L266.966589,114.886204 L267.090086,114.756374 L267.18825,114.58186 L267.222731,114.390457 L267.154825,114.207147 L267.169251,114.114964 L267.318432,114.043891 L267.501039,113.990411 L267.619258,113.940098 L267.653739,113.888728 L267.695608,113.756435 L267.728682,113.706122 L267.794476,113.672345 L267.875752,113.652993 L267.95738,113.621679 L268.0281,113.554829 L268.090025,113.443998 L268.090025,113.374685 L268.066803,113.309242 L268.050266,113.201578 L268.066803,113.092859 L268.106561,113.010176 L268.356722,112.693165 L268.433776,112.64461 L268.518218,112.618926 L268.712084,112.599926 L268.790897,112.554187 L269.081519,112.213602 L269.199035,112.108753 L269.492472,111.945498 L269.799632,111.861055 L270.457931,111.816371 L270.959659,111.945498 L271.088786,111.906795 L271.258022,111.760428 L271.39876,111.73404 L271.557089,111.757261 L271.771362,111.757261 L272.050374,111.664375 L272.627045,111.338216 L272.973962,111.230552 L273.148477,111.202053 L273.308565,111.157369 L273.42397,111.067297 L273.468654,110.901227 L273.545708,110.788989 L273.727611,110.780192 L274.071362,110.819951 L274.214914,110.709472 L274.398576,110.365721 L274.476685,110.292538 L274.513981,110.191207 L274.452056,109.589555 L274.640996,109.348894 L274.792993,109.189509 L274.914027,109.115622 L274.914027,109.075511 L275.080097,108.850683 L275.150114,108.819721 L276.116275,108.766241 L276.260179,108.709946 L276.387195,108.597356 L276.541302,108.492859 L276.749945,108.467174 L277.186935,108.560413 L277.415281,108.583634 L277.564463,108.532265 L277.617943,108.566042 L277.668256,108.579764 L277.786476,108.583634 L277.958879,108.492859 L278.248094,108.329603 L278.414516,108.29266 L278.81421,108.388713 L279.012298,108.40912 L279.098851,108.323974 L279.166757,108.18394 L279.318754,108.146997 L279.588969,108.174089 L279.88487,108.040388 L280.04531,108.014 L280.191677,108.118146 L280.284915,108.081906 L280.824995,108.053758 L280.986491,108.101609 L281.45198,108.40912 L281.72114,108.467174 L281.918524,108.572024 L282.205628,108.597356 L282.321033,108.63043 L282.540935,108.766241 L282.6201,108.797203 L282.788281,108.836258 L282.87026,108.876016 L283.022609,109.039623 L283.033868,109.078678 L283.053571,109.106825 L283.290009,109.134973 L283.40471,109.183527 L283.634464,109.348894 L283.824811,109.447762 L283.966252,109.459021 L284.318096,109.408707 L284.51548,109.425244 L284.66431,109.470631 L284.785344,109.543463 L284.896174,109.641627 L285.146335,109.820012 L285.419014,109.884399 L285.714562,109.876659 L286.038962,109.820012 L286.19131,109.768643 L286.492488,109.63072 L286.644836,109.589555 L286.796128,109.585332 L287.312283,109.645498 L287.542388,109.641627 L287.616627,109.662034 L287.737661,109.746477 L287.793956,109.765828 L287.912176,109.728885 L288.125745,109.574425 L288.284074,109.527278 L289.171071,109.456558 L289.432843,109.348894 L289.663652,109.414337 L290.145677,109.465002 L291.012619,109.67083 L291.28565,109.791161 L291.423572,109.820012 L291.559032,109.78905 L291.823618,109.662034 L291.941838,109.641627 L292.029095,109.696163 L292.189887,109.892844 L292.246886,109.934713 L292.302477,109.951953 L292.428437,110.033581 L292.491065,110.058914 L292.556156,110.051173 L292.685283,109.996637 L292.764447,109.999804 L292.843612,110.064543 L293.029034,110.338629" id="Fill-3"></path>
        </g>
    </g>
</svg>