<svg width="52" height="115"><path d="M13.2 0l-.7.3-.8.8-.8.8-.4.8-.2.6-.2 1-.1.5-.4.4-.4.2-.3.3-.2.6-.4.7-.4.7-.4.5-.6.4-.4.6L5 11l-.1.2-.3.7v.8l-2.8 4.5-.9 1v.3l.3.7.4.4 1.7 1.3.5.6v.4l-.5 1.1-.1.7V25l.3.6.2.2-.1.7-.2.1h-.2L3 27l.2.9-.2.5v.4l.3.6.2.4V31l2-.6.5.2.5.3 3.4 1.4h.2l.2.7v.9l-.3.5-.5-.2v.7l.1 1.2v1.3l-.5 1 .9.8v.3l.3-.3.2.3.2 1-.3.1h-.2l-.1-.6h-.2l-.6 1.3-1 .3-2.6-.3.4.4.4.8.4.4.4.2h.4l.2.3v.6l-.2 1-.6.8-.7.6-.7.4.2 1-.5.5h-.6l-.4-.4v.4l.5.4V50.7l.2.7.4.4h1.1l.5.2.4.5.3.7.1.8-.2.7-1.2 1.9v.9l-.1.5-.6.2v.6l.2.3.2.6-.3 2.9-.2.3.2.5.2.1.5.2.1.2v.8l-.1.7-.3.5-.4.3.2.3.8-1 .3-.9.1-1 .2.8.4.7.3.7v1l-.6.5-1.5.8-.4.5v-.4l-.1.4h-.2v-.8l.2-.8-.3-.9.4-.4-.4.3-.6.8-.4.2-.3.2.3.5.5.6.2.4-.3.3-.2.3-.1.3.3.6v.3l-.2.2-.6.1-.2.4-.1.6v2.3l-.2.6-.2.6-.4.4-.5.4-.3.3-.2.5.2.3 2 3 .2.5.1-1 .7-.2.8.4.3.7v1l-.2.6-.4.2-.5-.6h-.5v-.3l-.1-.2-.2-.3.1.8.8 1.2 1 1 .7.4.1.6-.2 3.4-.2.2-.6.3-.6.2-.3-.2v-.5l-.2-.6-.4-.9-.3-.4-1-1.2-.5-.3h-.4l-.8.4.2.3.4.7 1 1 .2.5.4 1.6.1.4.3.5 2.8 3 1 .8 1.5.5 1 .8 1.6 1 1.9.6.2.3.4.3.2.4.2.4h.2l.1.2.1.4.2-.6.8.6-.2.2.3.2h1.4l.2.3.2.4.2.4 1.4 2.6.4.5-.2.2-.3.3-.4.5.2.4h.5l.2.1.4.3.2.3.7.4h.4l.3.3.2.7v.5l-.6 1.9-.4 1 .6.3-.4 1-.1.7.1.6h.2l.1-.3.5-.3 1 .3 1.1.4 1.3.7.8.7.6.3.5-.1v-.5l.3-.5.3-.1h.5l.2.2.1-.8.4-.4.6-.3.4-.5v-.4l-.2-.4-.1-.3-.3-.4.2-.7v-.4l-.2-.2.1-.4.2-.1h.3l1.1.4.5.3.5.1.5-.5.3-.8-.2-.6-1.3-2.2-.7-.7-.1-.2-.4-2.3-.2-.3h.4l1.4-.1.5-.1.1-.7.2-.7.4-.6.3-.4.6-.2h1l.4-.2.5-.1 1.6.2h.7l1.8-1h.2l.1-.3.4-1.3v-.8l-.2-.6.2-.5.4-.1.2-.1.3-1V91l.3-.4.3-.2.3-.2.2-.2.6-1.3.3-.6.1-.3.1-.4V87l-.1-1v-.4l.3-.3.6-.1.2-.2.3-.3v-.4l.2-.3.4-.3h.8l.6.3.7.2.7-.5.3-.4.2-.4v-.5l.1-.3.3-.2.4-.1.2-.4.3-.2.2-.2.2-.2.2-.4v-1l.4-1.3v-1.5l-.1-.6-.3-.6-.8-.9-.8-.8-.1-.3-.2-.5-.3-.3.5-.6.2-.8v-2.8l-.3-.7-.5-.5-1.4-.4-1.6-.2-.5.1-1 .9-.5.2-.7-.2-.7-.6-.4-.9-.6-2.1-.5-2.5-.3-.6-.4-.3h-1l-.9-.4-.2-.6v-1.5l-.5-.9-1.1-1.5-.4-1-.5-2-.1-1.2.1-.8.4.1.4-.2.4-.5.3-.5.2-.6v-.6l-.2-.4-.3-.5-.3-.2h-.4L36 47l-.2-.8V46l-.4-.7-.2-.3-.4-.1-.2-.6.1-1v-.6l1.3-.3.4-.1.4-.3.3-.2.1-.4-.6-2.1-.1-.9-.3-2.7.1-.4.3-.6.2-.3.7-.7.2-.3v-.8l-.3-1v-.8l.8-.5-.2-.8.2-.7.1-.2.2-.2.3-.3.3-.7V27l-.2-.5v-.7l-1-2.4-.2-.7v-2l-.4-1-1-2.4-.6-.7-.7-.8-3.6-2.6H28.7l-.3-.3-.2-.7v-.8l-.2-.5-.5-.4-.1-.2.3-.7-.1-.7-.4-.3-.2-.3-.8-2-.5-.5-1.4-.8-.6-.7-.7-.4-.7.4-1 1.4-.7.2h-1.4l-.7.5-.3.2-1.1.7-.5.1h-.5l-.5-.3-1-.7-.4-1.2-.1-.4V4l.3-.8.1-.2v-.7l-.2-1-.5-.9-.6-.3zM.6 82.2v.5l.2.2.2.4v.3h.3v-.4l.1-.3v-.2l-.2-.1-.2-.1v-.1l-.2-.2H.6z" fill="none" fill-rule="evenodd"/></svg>