<svg width="54" height="115"><path d="M22.7 113l-.2.2h-1.2l-.1-.1H21l-1-.5-.2-.2h-.1l-.1-.1-.2-.1v-.1l-.5-.5v-.1l-.5-.3h-.1l-.2-.2-.7-.5-.7-.6V109.6h-.1v-.1l-.2-.2h-.1v-.1l-.7-.7v-.1l-.2-.2v-.4l-.1-.2-.2-.4v-.1H14.3l-.1-.1-.1-.1v-.5l.3-.3.1-.2h.2l.2.3v.1-.5l-.1-.2v-.1l-.2-.1-.2-.2-.2-.4-.1-.2-.1-.2-.1-.1V113.9l.1.2h.7v-.2h.5l.1.2h.4l.7.1h.3l.6.1h.8l.2.2h.3l.3.2.1.1.1.1.5.1h.1v-.2l.2-.1h.7l.2-.1v-.2h.7v.2h.2l.1-.1h.3v-.1l.1-.1h.2v.1h.1l.1-.3h.1V113.7h.2v-.4l.1-.2-.4-.1zM53.3 13v-.4l-.1-.1v-.1l-.1-.1v-.1L53 12l-.1-.1v-.6h-.1V11h-.2V11l-.1-.1h-.1l-.1-.1v.1h-.1v-.2H51.8v.1l-.1.1-.1-.1H51.4v.2h-.1v.1-.1H51v-.1h-.2v.1h-.1v.5h.1v.4h-.2V13.4h-.1v.2h-.2v.5H50l-.1.1v.2h-.1v.1h-.2l-.2.2v.2H49l-.2.1-.1.1V15.4H48.3v.1l-.2.1.1.2V16H48v.1l-.2.1v.1h-.2l-.1-.1V16H47v-.1h-.2l-.1.2h-.2V16.5h-.1v.2h-.1v.1H46v-.1l-.1-.1-.1-.2h-.4l-.1.2H45l-.2-.2h-.2l-.3.1H43.8v-.1h-.1v-.1H43l-.4-.2h-.3v-.1H42l-.2-.1h-1.3l-.2.1v-.2h-.2v-.2l.1-.1h.1v-.2h.2V15h.1v-.2h.2v-.1h.2v-.1H41v-.2h.2V14h.1V14h.1v-.1h.1v-.1l-.1-.1V13h.1v-.2h.1v-.4h.1l.2-.1.4-.3-.1-.1v-.1h.1v-.2h.1V11.3h.1l.1-.1V11h.1l.1-.1h.1v-.1h.1v-.5l-.1-.1-.1-.3-.1-.1-.1-.2h-.1v-.1l-.2-.1H42v-.1h-.1l-.3-.2-.3-.2-.1.1H41l-.3-.2v-.1h-.1l-.6-.2H39.7l-.5-.4h-.1V8H39l-.1-.1-.1-.1h-.2v-.1h-.2v-.1l-.1-.1-.1-.2H38v-.1h-.2v-.1h-.2V7l-.2-.1-1-.7h-1.1v-.1h-.2V6H35V6H34.4l-.1-.1h-.1v-.1H34v-.2l-.1-.1h-.1V5.2h-.1l-.1-.1h-.1l-.1-.1h-.1v-.1l-.2-.1H33v-.1h-.2l-.1-.1v-.1h-.1l-.2-.2h-.1l-.1-.1H32V4H32v-.1h-.1v-.1l-.4-.2v-.1l-.1-.1V3h-.1l-.1-.1v-.1H31l-.1-.2v-.1h-.1v-.2h-.1V2h-.1V2h-.2l-.2-.2h-.1l-.1-.1-.1-.1h-.2V1.2h-.1v-.1l-.2-.1h-.1V.7l-.1-.1H26.3v.1h-.1V1l-.1.2v.2H26l-.3.6-.2.2-.1.5v.2l-.1.3v-.2h-.1v-.2H25v-.2H25V2.1L25 2v-.1h-.1v-.2h-.1v-.4h-.1v-.1H24L24 1l-.5-.1h-2.1l-.3-.4-.3-.1V.2h-.2V0h-.3l-.2.4v.3H20V1h-.1l-.4.2h-.3v.1H18.9v.6h-.1l-.3.1-.1.1v.1h-.2v.3l-.2.2-.1.1-.2.3.5.5-.2.8-.4 1.2-.2.6v.2l-.1.1h-.1l-.1.1H17l-.4.2-.3.2-.4.1-.3.2H15.3l-.1.1h-.1l-.1.1-.1.2-.1.1h-.2l-.1.3v.1h-.2v.2l-.2.2V8.9h.2V9h.1V9.3l.1.1.1.1v.2h-.2l-.1.1-.3.8v.1l.1.2V11.2h.1v.2h.1v.3l.2.8v.2l-.3.3-.1.2v.7l.2.1.5.7v.5H14.4v.1H14.2v.2H14v.1h-.2v-.1h-.4l-.2.2v.2l-.1.4H13v.1H13V16.7l-.1.2h-.1V17.2h-.1l-.2.6v.1l-.2.1h-.1v.2l-.2.2V18.6H11.6v.1l-.2.2-.1.1-.1.1v.5h-.1v.1H11V20.4l-.1.2v.1l-.1.1v.6H10.5v.1l-.1.1h-.1v.2h-.1V22.5l.1.3V23h.1V24.3h.2v.1l.1.1v.1h-.1V24.9l-.1.1v.1h-.1l-.1.1H10v.2h-.1v.1l-.1.1v.2l-.1.1V26.1l-.1.1v.2l-.1.4v.1l.1.1v.1h-.1v.1h-.1v.2h-.1l-.1-.1H9l-.1.2v.2l-.1.2v1.2h.2v.4l.1.2h.4v.1h.1v.4H9.3v.5h.1v.2h.1l.1.2V31.4h.2V31.8l.1.1h-.1v.5l.1.1.1.2h.1v.1h.1v.4H10v.6l.1.2.1.2h.1l.1-.2h.2l.2.2v.4l-.1.1v.2h-.1V35.6h-.1V36.2h.1V37h.1l-.2.1v.1h-.4v.4l-.1.1-.1.2v.1l-.2.1v.2l-.1.2v.1h-.1v.2l-.2.5v.7l-.5.1V40.4h.2l.1.1V41.5l.2.4v.2l-.1.2v.8h-.1v.1h-.4v.1l-.2.2h-.1v.5l-.3.1L8 44H8v.2h-.4v.7h-.2v.2l-.1.2v.5h-.1v.1h.1v.3h.2v.1h-.1v.4l-.2.2V47.3l.2.1v.6h-.1v.8l.2.2v.2l.1.1v.1l.1.2v.6l.1.6.2.2.1.1v.5l-.1.1v.1h-.5l-.1.2H7v.1H7l-.2.2-.1.1-.1.3V53.9h-.1v.4h-.1v.4h-.1l-.1.1H6l-.1-.2h-.1v1h.2V55.9L6 56V56.4h-.4v.5l.1.1v.1H6v.4h-.2l-.2.4v.4l-.3.2.1.4v.1l.1.2V61.5l-.1.1v.1l.1.2v.2l.1.2.1.2.1.2V63l.1.2v.1h-.1v.1h-.3v.1h-.1l-.1-.1H5v.2l-.1.1-.1.2v.1l.1.2v.4H5l-.1.1-.1.1v2H5v.1h.5l.2.2v.5H5.3v.2h-.1V68.2h.1V68.5h.2v.1h.1l.1.1v.4h-.1v.1h-.1v.2h.1v.2h.1l.2.3v.2l-.3.3v.1h-.2v.2l.1.2v.5h-.1V71.7h1.6l.1.1.1.1v.2h.1v.2h-.1l-.1.1v.1l-.1.1v.5h-.4l-.2-.1H5.5v.1H5l-.1-.1h-.1v.5h.2l.2.1h.4l.1.1.2.1h.2v.1l.2.2v.2l.2.2.2.2.1.2v.2l-.2.1-.3.2v.4h-.5l-.1.1v.2l-.1.2v.7l.2.1.1.2.1.2-.3.3v.2h-.2v.1h-.2v.1l.1.2h.2V79l.2.5v.7l-.2.1-.1.2H5.2V80.9l-.1.3.1.2-.2.2v.1l.2.1v.1h.1v.4h-.2l-.1-.1H5v.4l-.3.3v.1h-.5v.8l-.3.5v.2l-.1.2v.2h-.1V85.2h.1l.1.1H4v.2h.2V86.4l.1.2h-.1l-.1.1v.2H3.7l-.1.1h-.1l-.1.3v1.3l-.2.1-.2.2v.1h-.4l-.1.1-.2.1-.1.3v.2l-.1.1-.2.2V90.2h.2l-.1.1-.8.1V90.7h-.1l-.1.1v.4l-.2.1v.1l.2.2v.5l.1.1v.2l-.1.2v.2H1v.1l.2.2v.2l-.1.3v.2l.3.3h.1v.1l.1.1v.1l.1.2V95.5l.1.1.1.2v.4H2l.1.2h.2l.1-.2.2-.2h.1l.4-.2.2.1h.2l.2-.2h.4l.1.1h.1v.4h-.1V96.6h.2V97.4h-.1l-.1.1v.1l-.1.1v.4l.3.1v.2l-.1.2v.5h-.1v.2l-.2.2v.2h.1l.1.1v.4h.1l.3.2h.1l.2.2.2.2.1.2v.4l.1.1h5.2l.3.2.4.2.5.2h.7l.6.2.4.2.6.2h.1l.3.1v.4h.1v-.1l.1-.1v-.2l-.3-.6-.4-.4-.3-.6-.2-.5v-.2l-.4-.5v-.1h-.2v.1l-.3.2v-.2l-.4-.2H12l-.5.2.2-.1v-.1H12v-.1H12.3l.3.1H12.8v-.1H13.2v-.2l-.3-.8v-.4l-.1-.2v-.5l-.1-.2v-.2h-.2l-.2.1v.1l-.2.2v-.2l.3-.2.2-.2.1-.1V96l.2-.5v-.2l.1-.2h.1l.1-.3.2-.1v-.1l.7-.4.5-.2.1-.1v-.2l-.3-.2v-.2h-.1v-.1H13l.3-.1H14l.2-.1v-.4l-.2-.1v-.2l-.2-.2h.1l.1.1.1.3v.1l.2.2V93.2h.1v.1h.1v.2h.1l.1.2h.1v.1h.4l.5-.3.4-.4.1-.1v-.1l.1-.1v-.1l.2-.9V91.1l.1-.2v-.2l.2-.4v-.1h-.1l-.2.4v.1H16v-.2h.2l.1-.1v-.1l.1-.2V90h.1v-.5l.6-.8h.1l.3-.2v-.2h.1l.3-.5.5-.3h.2v-.2h.2l.2-.3.2-.1h.1l.3-.1v-.2H20V86.3l.1-.1.3-.2h.1v-.2l.1-.1h.1l.3-.1h.2l-.1-.1v-.2l-.1-.1V85l.1-.1h.2v.1h.2-.1V85l-.1-.2-.1-.2v-.2H20.8l-.4.2h-.2l-.2.1h-.2.2l.2-.2h.3l.2-.2h.4V84l.2-.3v-.3l.1-.1v-.6l.1-.2v-.2l-.1-.3V82h-.1l-.2-.2-.2-.1v-.1h-1.3l-.1-.1H19l-.3-.1v-.1l-.2-.3-.3-.3h-.1v-.1l-.2-.2v-.1h-.1l-.2-.1V80l-.1-.1h-.1l-.1-.1-.2-.2-.3-.5V79l-.2-.3v-1.2l.2-.1V77l.3-.3h.1v-.6l.1-.1V76l.2-.1h.1v-.1l.2-.3v-.2h.1l.1-.1.1-.3.1-.1.1-.1.2-.1h.8l.1-.1v-.1h-.1v-.1h.3-.2V74h.2l.2-.2H20.3l.1-.2h.5l.2.1h.5l.2.1h.2v-.4h.2v-.1l-.1-.1h-.2l-.1-.1v-.5l.2-.3.2-.1h.1v-.1h.1V72h.2v-.2h.2V71.5l.2-.1V71.2h-.1V70.8h-.1V70.5h.2v-.7h-.1V69.6h-.1v-1h.1l.2-.1v-.1l.1-.2.2-.2h.1v-.4h.1v-.1l.2-.1.4-.4.6-.1.3-.2.3-.2v-.2l-.2.1h-.2v-.1h-.5v-.1l-.1-.1-.4-.2h-.2v-.1h-.2v-.4h.1v-.1h.1l.2-.1h.1V65l.2-.2h.2v-.1h.9v.2h.2v.1h.1v.4l-.1.1v.1l.1.1.1.1v.1H26.4l.5-.1.2-.1.1-.2V65.3l.1-.1V63.9l-.1-.1-.1-.1v-.3h-.1l-.1-.1h-.4l-.2.2-.5.2h-.4v.1h.6v.1h.1v.4h-.1v.2h-1.3v-.2l.2-.3h.1v-.2H24v-.1h-.2l-.2-.2-.1-.1v-.1l-.3-.4V62.6l.2-.2v-1.2l-.1-.2v-.2l-.2-.2V60l-.1-.6v-.6h.1l.2-.2h.4l-.1-.1v-.1h-.1.5v.2H23.8v.1h.4l.3.1.2.1.4.1.6.4H26v.1h.2l.3.3h.2l.4.1h1.5l.4-.2h.1v-.1h.1v-.1H29.6l.1-.1.2-.1.3-.2.4-.2v-.1l.2-.2v-.4h.1l.1-.1h-.1l-.2.1v-.1h-.1V58h.2v-.2h-.1v-.2h-.2v-.1l-.1-.1v-.3l-.2-.1V57l.1-.2h.2v-.2l.1-.1v-.9h.1v-.2h.1l.3.1.1-.1v-.8h.1v-.4L31 54H31l-.1-.2v-.1h-.2v-.1H31l.2.2h.1v-.2h-.1l-.2-.1H30.7l-.1-.1h.1v-.1h-.1v-.1l-.1-.1v-.5h.1v-.4h-.1v-.1l-.1-.1v-.2h.6v.1l.1.2.1.1h.1l.5.2h.4l.5.1H34v-.1h1l.4-.1.5-.1L37 52h.2l.4-.2 1.5-.3h.2l.2-.2.5-.2h.4l.2-.2h.2l.3-.1h.1l.3-.2h.1l.2-.2.5-.3.2-.1.3-.2.2-.1v-.1l.2-.2V48.7l.2-.1.2-.3.1-.2.3-.3h.1l.3-.5.1-.2.4-.6.2-.4.3-.4V44l-.1-.1v-.1l-.1-.1v.1h-.4v.1h-.1v-.1h-.2l-.2-.2-.4-.4V43h-.1V43l-.1-.3h-.1V41.7h.1l.3-.5.1-.2.1-.1v-.4l-.3-.3-.2-.3-.4-.3-.1-.1-.3-.2-.4-.3-.5-.2-.2-.1-.4-.2h-.1l-.2-.2-.1-.2h-.2V38h-.1v-.1l-.1-.1v-.5h-.2v-.1H40.8l.1-.1V37l.1-.1v-.5h-.1v-.5l-.1-.1-.1-.2v-.1l-.1-.1v-.8l.1-.2.1-.2h.1v-.7l.1-.1h.6v-1.1l-.1-.2v-.7l.1-.1.2-.3v-.2l-.2-.2v-.8h-.1v-.2h.1l.2-.1h.1l.2-.5V28.7l-.1-.1h-.1V28.2h.1V28h.1v-.1h.1v-.5l.2-.1V27l-.1-.1v-.1h.2V25.8h-.1v-.4l.5-.6h.1v-.4h.2l.1-.1.3-.3.2-.2v-.5h.2v-.1H44.3l.1-.1.2-.2.1-.2v-.1h.2v-.1l.2-.2v-.1h.1V22h.1l.1-.1.1-.1V21.6h.1v-.2h.2v-.1h.1l.2-.1.1-.1V20.7l.2-.1.1-.1v-.3h.2l.1-.1.2-.3.2-.1V19.5h.1l.1-.1h.1V19l.2-.1h.2l.1.1h.1V18.8h-.2v-.2h.2l.1-.2H48.5v-.2h.2l.2-.2v-.1h.1v-.1l.1-.1h.2v-.1H49.6v-.1h.2v-.2h.1l.2-.1v-.4h.2v-.1l.1-.1H50.7l.1-.1h.1v-.1h.4v-.1H51.6v-.1H51.9V16l.2-.2h.2l.2-.2h.1v-.1h.2v-.1h.2v-.2h.1V15l.2-.3v-.4H53V13.5h.1V13l.1-.2zM14.1 114l-.1-.2v.2l-.1.2h.2v-.1zm17.3-61.3h.1l-.1-.2H31.1v.1h.2v.1zm.3.3l-.1-.1h-.3l-.1-.1V53.2h.2l.2.1.1.1V53zm-5.1 60.4H26v.1H26l-.1-.1h-.2v.1H25.3v-.1h-.2V113.9v-.1h-.4v-.2h-.2v.1l.2.1v.1h-.5l-.1.1v.1l.2.2v.1h.2v-.1h.2v-.2H25.1l.2-.2h.1v.2h.4v-.1h.1v-.1h.2l.1-.1v.2h.2v-.1h.1v-.1l.1-.1v-.1z" fill="none" fill-rule="evenodd"/></svg>