<svg width="126" height="116"><path d="M14.6 8l.2-.2.9-.4.2-.1h.2l1.7-1.9.2-.4.1-.5L18 4l-.6-.5-.1-.3-.3-.1-1-.3-.3-.3v-1l-.2-.4-.5-.4-.6-.2H13l-.6-.3-.5-.2-.7.2-2.9 1.4-1 .3-1.1.6-1 .4-1 1.1-.5.4H2l-.7.5L.3 6.3 0 7l.3.8.3.2.8.1.2.2.6 1v3.3l.1.6.6.4h.4l.4-.1.6-.1H6l2-.3 1.2-.8 1-1.2 1.2-1.3 2.8-1.4.4-.5zm74.1 97v-.1l-.2-.3-.2-.3-.1-.1h-.1l-.2-.2-2-3.6v-.2l.1-.4v-.1h-.8l-.3-.3-.3-.3-.2-.2-.1-.1v-.2l-.2-.2h-.7l-.8-.4-1.4-1.6-.7-1.1-.4-.4-.8-.1.3-.4-1.5-.8-.8-.6-.6-.8.6-.6-.2-.8-.8-.5-.9.5v-.2l-.1-.2-.1-.2v-.4h-.4l-1.3 1 .3.1.7.3-1 .5-.3.1.6.3.5.8.4.9.1.8v.3l-.3.2-.2.3-.1.5v.6l-.2.5-.3.3-.5.1.6 1.7v.6l-.1.4-.7 1.2v.8l.2.2.2.2.1.2.3 1v.3l.7.3.8.2.5.4v1.6l.7.8 1.8 1.6 1.3.4 1.1.4 1.3.2H84l.4.2h.7l.8-.2h.3l.7-.2.3-.6.3-.8.5-.7-.4-.4 1.1-.8.3-.4.3-.7-.3-.1-.2-.2zM22.3 16.3l-.2-.3-.7-.2-.6-.4-.4-.5.1-.2.2-.2-.1-.4-.5-.5-.4-.2-.8.6h-.5l-.3-.6h-.3l-.3.3-1.3.7.3.7-.6.2h-1.4l-.7.3-.7.6-.5.8-.2 1 .6-.3.2.5.4.4.5.2L17 20h.5l.5-.5.3-.1 1.1-.1 1.3-.3 1.1-.4.8-.6V17l-.3-.6zm9 95.4l-.3-.7-.5-.5-.7.3-.8.1-.6.3.2 1H28l.2.4v.8l-.2.4.3-.3.4.6.8.6.4.4h.3l.3-.4.4-.3.4-.3.2-.8v-.8l-.2-.8zm93.8-58.8l-.4-.5h-.2l.2-1.9-.2-.8-.8-.3-.2-.2-.3-1-.1-.3-.5-.3-.5-.2-2.8-.7-.8.1-.3.8-.5.4-1-.1-1.3-.4-.8-.4-.5-.4-.2-.3-.2-.3-.4 1.5.5 4.2-1 .9-.6.2-.5.6-.2 1v.8l.2 1 .6.6 1.7.7.5.2.7.6.4.2h.5l2.7-.1.8-.3 1.7-.9 2.6-2 .7-.5.2-.5V54l.2-.2.3-.3-.2-.5zm-75.7 57.9l-.1-.6.2-.5v-.6l-.5-2.4-.6-1.6-.4-.7-.7-.6-1-.2h-1l-.8.3-2.8 1.5-1.2.8-.8 1-.6 1.2-.3 1 .3 1 .6.9 2.7 2.2 1.6.8 1.8.3 2-.8 1.5-1.5.4-.4v-.6l-.3-.5zM61 29l-.9-.7-1-.4-3.8-.4h-.4l-1.7-.9h-.5l-2.6.4h-.4l-.6-.4-1.1-1-.6-.3-.6-.3h-.3l-2.9 1-.4 1 .3 1.1.8.8 1 .4h.5l.2.3.1.3v.5l.2.7.2.4.3.3.3.4.7 1.8.4.6.4-1.8 1.4-2.5.6-.7 1.8-.8 2 .5 3.5 1.6h3.3l.5-.1V29l-.2.2-.5-.3zm51.5-3.4l.5 3.7.6-.3.4-.2.3-.1.3-.4v-.1l-.2-.3V27l.5-.3v-.2l.1-.5.2-1v-.8l-.7-.6-.2-.3-.1-1 .1-2.8v-.1l-.3-.1V19l.3-.4.3-.6v-.2l-.1-.4-.9-.8-.2-.3-2.3 1.4-1 .7v1.6l.2.6.3.5.5.1v.4l-.4.4-.2 1 .1.9.2.7 1-.5.7 1.4zm-8.3 66.6l-.1-.7-.3-.7-.5-.2-1 .2-.7-.3.3-.3-.3-.4-.2.3-.5.4v-.7l-.6.4-.6.3v.2l.3.1-.7 1.2-1 .8-.2.7h.7l.2.6-.3.6-.6.4.3.6-.1.5-.4.6-.1.6.2.6.6.6 1 .8 1 .5.7.2h.6l.2-.2.3-.6.1-.2.3-.2h.8l.2-.1.8-1.3v-1.3l-.5-2.7v-1.3z" fill="none" fill-rule="evenodd"/></svg>