<svg width="170" height="111"><path d="M41.3 57.2l-.2-.3-.5-.6-.2-.4v-2l-.4-.4-1.1-.7-2.5-.7H36l-.6.2-.6.7v.4l-.3 1v.3l-.4.2-.9-.3-.3.3-.1 1 .6.8 1.4.5 2.4 2.3h.3l.8-.4.4-.2h1l.4.3.4.3.4.1.3-.3.2-.4.5-.4V58l-.5-.9zm16.2 21.6l-.8.2-.4.8.1 1.2.8.7.8-.5.5-1-.2-1.3-.8-.1zm57.8-6v1.6l-.1.6-.3.7-.3.5-.5.6-.4.6-.2.8v1l.3.6.2.6-.2.8-.4.4-.1-.3-.2-.8-.4-1.3v-1.4l-.3-.6-.5-.7-.5-.4-.2-.5.1-1.2-1.4-2-.2-.6-.1-.4-.2-.3-.2-.4v-1.1l.8-1 .4-1 .2-1 .4-.6.8-.3h.7l.9.2.8.4.5.7.8 1.2v1.3l-.2 3.3zm54.4-57.2l-.7-.6-.3-.3-.3-.5-.6-1.6-.6-.6-1.1-.6-.6-1-1 1.9-.8 1-1 .7-1.2.3-4.2-1-4-.2-4.2-1-3.6.2-4.3.2-4.7-.4-.6-.2-1-.7-1.4-.5-2.3-2.6-1-.8-1-.5-1-.3-1.2-.1-.4.1-.9.8-.4.1h-.6l-1-.3-1.6-1-1.6-.3-1.2-.8-.5-.1h-5.2v-.4l-.1-.3-.1-.2-1-1-1-.5-.3-.1-.3.1-.3.6v1.2l-.6.2-.4-.6-.7-1-.5-.4-.4 1.3.2.3-.4.8-.4.5h-.5l-.5-.2-.4-.6-.2-1.2-.3-.7.2-.4L104 .7l-.8-.3-.6.8v.1l.3.2h.2l-.1 1.2.2.6.4.6.2 1-.3 1h-.8l-.9-.2-.6-.5-.8-1.3-.4-.6-.6-.2-.5-.4-.9-1.8-.4-.4-.2 1 .1 2.1.4 2.1.8 1 .3.2.2.3v.4l-.3.2h-2.5l-.6.2-.4.7.2 1.2-5.8-1.6-1.3-.9h-.7l-.3.5.2 1.4-.5.3-.6-.2-1-.8-.7-.1-2.1.5-.7-.2-1.8-2.2-1-.8-.8.5v.4l.1.4v.8l.2.5.2.3.2.2.2.3.2.8v.3l-.7 1.3-.1.2-.3.3-.8.1-.4-.6-.4-.9-.4-.8-.3-.2H76l-.3.2v.5l-.2.5-.2.1h-.7v.4l.5.2.4.5.1.4-.5.3-.4-.2-1.6-1-.5-.2-.4.3-.4.4-.5.3-.6-.3-1-1.1-.5-.4h-.6l-1.7.4-.1.3-.4 1.8-.3.6-.9.4-2.4.1-.5.4.6.6.8 1 .2.9-.8.4-.7-.4-1.5-1.6-.8-.6h-.9l-.4.4-.3.5v.6l.2.5 1.7 2.4.2 1-.5 1.2-1.1-1.2-1.4.2-1.4.5-1.2.1-1.2-.3h-2.4l-.6.4-.3.6.4.3.2.5v.6l-.4.5h-.4L49 22.1h-.6l-.3.4-.4.5-.6.3-.3.5H46l-.6-.2h-.3l-1.4.9.4 2L45 29v2.7l-.5-.6-.2-.1-.3.2-1.2 1.4-.2.7.2 1-.2-.1h-.5l.7 1.1.7.6 1.7.4.2.2.1.3.2.2h.3v-1.2l.6-.7.2-.1h.5l.2-.2-.3-.7-.8-.8-.3-.6.6.4.6.6.5 1 .1 1.2v1l-.2.2-.9.8-.5.2H46l-.5-.4-.6.8-1.8-.1-.5.8v1l.8 1.3.3 1 1.6 2.2-.2.4-.9.2-.5.4-1 1.9 1.5-.7h.5l.9.2h.2l.2-.3.2-.3.6-.3.6-.1 2 .1 1.2-.4h.5l.5.7.7-.8h.9l.8.6.8.9h-.5l-1-.7h-.5l-.4.3-.2.6.1.6.5.2.1.2V49.4h-.9l-.4-.1-1-.7-.6-.2h-1l-1 .5-1 .1-1-.5h-.4l-.2.6v.7l.5.4v.5h-.3l-.6-.1h-.2l-.2.5-.2 1.2.2 1.3.3 1.3.2 1-.1.5-.3.5-.1.5v.5l.5.4.2-.2.2-.5.4-.5.4-.2v.3l.1.6.2.7.3.4.5.4.6.4h.3l.8-.4.4.6.1 1.2v1.6l-.2 1.2v.5l.2.7.3.5.4.3.3.4.1.8v.5l.1.6.2.5.1.5.2.2h.2l.2-.3.2-.3.2-.2h.3l.2.3.3.1h.2l.2-.3h.4l.4.5.1.2.5.2 1.1.1 1.8.8.7.9 1.2 1.1.9 1.4.3.3.4.2.3-.2.4-1.1.5-.5h.4l1 .3.5-.1.4-.3.3-.5.8-1.5.1-.4v-.8l.1-.6.3-.7.3-.6.3-.4 1-.5 1 .1 1.1.5 2.3 1.8.6.9.2 1-.3 1.2-.7.7-.8.6-.6.7V75.7l-.4 1v.7l.1.5.2.5.2.5v.6l-.3 1.1V83l-.5 1-1.2 1.5-.5 2-1.2 3.1-.1.6-.1.6-.1.6-.2.4-.3.5 1.2.5h.7l.7-.4.3-.4.4-1.2.3-.4 1-.6 1.5-1.3.5-.1 2 .1 1.5-.1.4-.4.5-1.3.4-.6.9.2.7.5h.7l.8-.7.7-.4 2-.3.7-.5 2-2 .6-.4.6-.2h1.3l.7.4.4 1 .2 1.3.3 1.1.4.4h.4l.9-.5.5-.7-.2-.8-.7-1.4v-.9l.4-.3.4.1.5.4.2.3.3 1 .2.3.2.1h.2l.1-.1h.3l1 .5 1.7 2 1 .7 1 .2.3.2.2.3v.7l.2.4.6.7.6.4.7.1h.6l1.8-.7h.4l.4.8.2 1 .4 1 .7.6 5.6.5.3.2.2.2v.8l-.2.3v1.5l.2.6 3 2.5.9 1 2.5 4.2 1 1.1 1 .8 2.5 1 .4.5 1 1.3.4.6h.4l.3-.4.4-.2h.3l.5.4.3.1.2-.1.2-.3v-.4l.2-.3.8-.7.9-.5.9-.3h2.5l.6-.6.3-.7.3-.7.4-.6.5-.3.3.3.3.4h1.4l.9.2.6.5 1 1.5.5.7.7.3 2.1.1 4.2 1.5.8-.5-.2-.5-.2-.8-.2-.9v-.6l.2-.4.4-.1h.3l.4-.2.1-.3v-.2l.2-1v-.2l-.1-.2-.1-.7v-.2l-.1-.2v-.5l.2-.4.2-.3.4-.4 2.2-.8.5-.5v-.6l-.3-1.4.2-.9.2-.4.4-.3.8-.4-.6-.5-.2-.1.4-.2 4.3-.7 1.7-.7.7-.4.3-.7-.2-1-.5-.5-2.7-1.1-.2-.3-.2-.7v-.6l.3-.5.1-.6-.1-1.3-.5-.4h-.3l-.2.3-.4 1.5-.4-1-.2-1.3-.1-1.2v-2.8l-.9-.4-.2-.5-.4-1.4-1.4-2.8-.3-1v-.6l.5-.5-.7.5v-1.8l-.4-.3-1-1.5.2-.6-.1-.4-.2-.5v-2l.2-.2.1-.3-.2-.3-.4-.4-1.8-1h-1.2l-.6-.2-.7-.8-.2-1.1.1-2.5v-1.3l-1-4.6-.9-2.7-1.7-3.3-.6-1-2.5-1.7-.7-.9-.3-1.2.2-1.5.3-1.4.4-1 .8-1.4 1-1.1 1-.8 5.4-2.2 6.7-.8 4.8 1 .2-1 1.2-2 .5-1.2 1.5-4.3.4-1.7.4-2.2.5-1.1-.3-1 .6-.8 1.5-.8h3.2l.4-.6h-.5l-2-.8.8-.5 2.2-.1 1.2-1 .7.4v-1l-.2-.4zM38.8 62l-.9-.6-.6-.2-1.1-.3-1.1-.6-.4-.3-.2-.3-.4-1-.6-.9-1.4-.6-1.3-1-1.2-.4-.6-.3-.6-.2-1.4.4-1-.5-.5.4-.9 1.1-.6.2-.4-.1-.4-.3-.6-.2h-.1l-.5.6h-.5l-.2-.5-.2-.1-.3-.3-.5-1.2-.3-.3-.9.3-2.3 1.9-3.8.4-.9.8-.1 1v1.4l-.3 1h-.8l-.4-.4-.1-.3v-.8l-.2-.3V59L10 59h-.6l-.1.2-.2.4-.3.7-.3.4-.8.4-.4.4-.3.5-.1.6-.1 1.3V65.1l-.1.2H6.5l-.2-.2v-1l-.2-.6-1.2-2.2-.7-.6-.7-.3h-1l-.2.3v.4l-.5.2h-.4L0 60.6l.7 1 .8.8.3.4.6 1.1.6.8L4.2 67l.3 1.1.3.6-.6-.2-.6.1-.3.6.2.9-.5.4-.5-.4-.4-.7-.5-.4-.5.3.1.6.5.8.3.8L.6 71l-.3.2v.4l.2.6.4 1 .8.6.8.3h1.8l.6.6 1 2.4.5.5 1.8.3 1 .5.7.6-1 1.6-.2.5-.2 1-.1.4-.3.1h-.4l-.3-.3-.4-.2-.3.2-.2.5-.5 1-1 1.7-.2.4-.3 1-.2.5H3.4V88l.5.2.2.4.1.6v.6l.6 1h.9l3.8-3.4.3-.6v-1.6l.2-.4.3-.4.2-.5.8-2 .2-1.2.1-1v-2l.1-.2.2-.2.4-.5.7-.7.9-.5h.2l.5-.4.2-.1h.2l.3.1.3.2.3-.3.3-.4.4-.3.5-.2h.4v.2l.1.8v.1h.2l.2-.2.2-.1.2-1 .3-.2.3.3.3.5.2.1.1-.2.4-.4.5-.2h1l.4.3.4 1.2 1.4-.2 1-.9-1.3-.7.3-.7.5-.2 1.3.2.6-.1.4-.3.7-1 .5-.3.4-.1.4-.3 1.8-2.4-.6-.7.2-.4h.6l1.2 1 .6-.5.5-.7.6-.5v-.3l-.1-.3V65h.7l.4-.3.2-.2.2-.3.1-.3.2-.8v-.2l.2-.2v-.1h.7l.1.4.1.4.1.2.6.6.5.3 1.1.1-.2-.4-.2-.3-.3-.2h-.3l.6-.5 1.7 1.2.2-.8-.4-.8-.8-.8zm112.6 4.8h-.3l-.1.1-.2.2v.4l.7.4.4.1.5-.2-.2-.4-.3-.2-.5-.4zM71.7 7.1l.7-.2.2-.5-.5-1.4-.4-.7h-.4l-.3 1v1l.7.8zM35.1 36.9l.4.3h.3l1-.2.1-.3.1-.2.2-.1.5.1 1 .6h.5l.8-.6.3-.1.2.1.4.2.3.1.2-.2.3-.8-.1-.6-.7-1.1-.5-.6h-.6l-1.2.4-1.9-.6-1-.1h-.6l-.4.2-.4.4V34.7l.8 2.2zM9.6 41.3h.8l1.8-.4h.9l.8.2.7.5 1.3 1.6.2.5.1.8v1.2l.2.9.4 1 .5 1 .4.5-.4.7-.3.2-.2.2 1 1 1.5.5 1.5-.2 1.1-.6.7-1.1 1-3 .5-1.3.5-.4.6-.5.7-.3h.4l.2.6-.4.4-.6.5-.3.5.3.6.7.2h.8l.5-.3.3-.3h.2l.1-.1V45l-.2-.1h-.3l.4-.7.4-.1h.5l.4-.3.3.3.2-.1v-.4l.2-.1h.3l.3.1 1 .8h.5l.2-.6v-1h-.4l-.1-.2-.1-.3v-.8l-.1-.3-.2-.3-.4-.4-.2-.3-.2-.3-.6-.5-.2-.5v-1.8l-.4-.7-2.6-1.3-2.7.2-.4-.3-.5-.7-.3-.9.6-1.5-.5-.5-.8-.3h-.7l-1.1-.3-.3.2-.2.4v.9l-.2.4-.3.8-.4.4-.5.2h-.6l-.4.5v1.8h-.3l-.7-.3-.3.2v.3l.6.4-7.9 1-2-.2-1 .2-.3.8.4.6 3.6 2zM38 96.1l-.6-.5h-.4l-.1.3v.8l.2.5.6.3h.5l.2-.6-.2-.5-.2-.3zM18.4 78.9v-.3l-.1-.2h-.1l-.1-.2V78l-.1-.1-.3-.1-.1.6-.5 1 .6.7v.5l.8-1.2v-.2h-.1v-.3z" fill="none" fill-rule="evenodd"/></svg>