<svg width="81" height="116"><path d="M55.9.6l.1.3.3.3.4.2h.6l.6-.1h.4l.6.2.2.4v1.4l-.1.2h-.2l-.1.2-.1.2-.4 1.8v.2l.1.3v.2l-.2.2-.3.2-.3.3-.1.4-.1.7-.2.7v.4l.2.4h.1l.2.2h.2l.5.1.2.2.2.1.5.2h.2l.1.3.2.4.2.1 1 .6.2.3 1 1.7h.2v-.2l.5.2h.4l.2-.1H63.7l.2.1V14.5l.1.3.3.3.2.3-.1.3h.2l.8-.1h.2l.3.4-.4.3-.1.3v.3l-.2.2V19l.1.5.3.1h.2l.1.2v.7H65v.7l.2.5.2.3v.2h-.2l-.2.3-.2.3V24l-.3 1.4v.3l.1.2.1.1.2.2V27.1l-.1.2h-.7l-.4-.6-.3.5v.6l.3.3H65.4l.2.4-.1.2h-.7l-.2-.1-.3.2h-.4l-1-.1v.7l.1.2.2.1.2.1h.7l.1.1v.2l-.3.2h-.2l-.8.2v.3l.1.3-.1.2v.2h.7l.8-.3.2-.1v-.2l.1-.3.1-.2h.3l.4-.2h1l1 .4v.2l.1.1v.2l-.1.2.5.3.3.2.1.5-.1.9v.5l-.1.2-.2.2-.2.1-.2.2v.3l.2.7v.3l-.2.3-.4.4v.5l-.2.5-.3.6-.2.5.3.6.8 1.5.3.8-.4.6-.1.2v.3l-.1.2-.2.1h-.8.1v.3l-.3.3-.2-.5h-.4l-.1.2.1.9.5 1 .8 1 .7.6.3.3.4.4.5.3 1.1.6.4.7.2.6.7.6v.9h.1l.2.1.2.5-.2.3-.3.2-.8.3-.2.2-.6.5-.2.1h-.2v.5l.2.1.1.2v.5h-.2l-.1.2.1.5v.8l.2.7v1l.2 1.2V60l.2 1v1.3h-.5l-.3.3v1l-.1.3-.3.1h-.3l-.2.2-.2.2v.1l-.1.3-.1 1v.9l.4.8.5.5h.7l.7-.3v.2l.4 1.1v.4l-.3.7-.2.8-.4 1V74.4l-.3.6-.3.1-.7.2h-.5l.2.4.5.4.2.3v.3l-.4.7-.1.3v.2l.2.1.2.2.5 1h.1l.3.2.4.1.2.3.2.3v.3l-.2.8.1.4.3.2.2.2.2.3h.8l.2.3v.1l-.1.2-.1.2v.9l.3.5.2.4.4.4.9.4.4.3.6.7.3.2h1.7l.5 1.5.2.4h.2l.1.1.1.1.2.2.2.3.2.2.2.2 1.5.1.2.3v.7h-.1l-.8.4-.6.5-1 1-.2.3-.4.9v.3l-.1.4-.2.8-.1.3-.6.6-.7.2-3.4.4-6.4-.5h-.8l-.4.2H64l-.1.2h-.7l-.3.3-1.2.3-.3.2-.5.5-.7.2-.2.2-.2.4-.3.3-1.4.4H58l-.3.3v.1h-.5l-3.8 1.3-.8.1-.4.2-1.3 1-.1.3-.1.2-.2.3-.7.4-1.2.3h-.2l-.2.1-.3.2-.3.1-.1-.2-1 .6-.2.1-1 .9-.4.5-.3.1-1.3.2h-.4l-.3-.2-.1.1h-.2l-.4.1-.5.1h-.2v-.2l-.1-.1h-.2l-.2.2h-.3l-.3.1-1.8.8-.2.3-.2.1-.3.2-.7.3-.4.1h-1.2l-.2.1-.4.3H33.8l-.3.1-.7.4-1.2.1-.4.2-.3.2-.3-.1H30l-.2.2V110.8l-.2.2-1.2.6-.2.1-.5.6V112.6H27.4l-1.3.4-1.3.6-.3.3-.5.6-.2.2-.3.1-1.2.2h-.2l-.5.1h-.1l-.2-.1V114.4h-.4l-.3-.1h-.2v-.1l-.1-.2-.8-.6-.4-.2H19l-.1-.2v-.2l-.1-.1-.1-.1-1.9-.7-3-.7-3-1-2.2-.1-2.6-.5-2.5-.7h-.3l.1-.4H3.6l.2-.1h1.3l.4.1v.1l.3.3v.1h.3l.4-.2h.2v-.5l.4-.2.7-.1.4-.2h1.1l.2-.2.2-.4h-.1l-.2-.3h-.1V106l-.3-.4v-.2l.1-1.1h.8l.2-.2v-.6l-.5-1.2-.3-1.2v-1l-.1-.2-.2-.3-.2-.2-1.3-.3-.2.1-.6.4h-.4l-.4-.2-.1-.5.2-1H4.8l.2-2v-.7l-.3-.6-.6-1.3-.3-.6-.5-3-.4-1-.6-.4-.2-.4-1.4-6.3v-.3l.1-.1.4-.2v-.1l.4-1v-.1l-.3-.5-.2-.3v-.8l.2-.7L3.4 74l.3-.2.8-.3h.1l.2-1v-.2l.9-1 .1-.3v-.4l-.1-.2-.2-.2V70l.9-5.5.2-.7L8 61l.3-.3v-.5l.2-.2.4-.2.1-.2v-.2l.1-1.3V58H9.4l.1.1.3-.2.8-.9.4-.2 1-.4.4-.2.2-.2v-.3l-.1-.4-.3-.6v-.5l.2-.2.1-.1h.2l.2.1h.4l.8-.5.2-.3-1.7-10v-.3H12.1v-.3l.2-.1.1-.1V42l-.3-1.2v-.5H12l-.2-.1-.3-.9v-.6l-.5-.3h-.5l-.5-.1h-.2l-.1-.1-.2-.2h-.1l.1-.3.1-.3v-.9l.1-.1.4-.4.3-.7.2-.3.6-.3.2-.3V34l-.3-.1h-.3l-.2-.3-.2-.3v-.3l.3-.2.2-.1.2-.2.1-.3v-.8l-.1-.1v-.8l-.2-.3-.6-.8-.7-.6v-.2l-.1-.3V28l.1-.3.2-.3.2-.2-.2-.1V26.9l-.2-.2H9.3l-.2-.2v-.8l.3-.6.6-.7.1-.1V24l-.5-.7v-.5l.1-.8v-.8l-.5-.6V18.8l-.3-.8v-.3l.3-.4.3-.3.2-.2v-.5h-.2l-.1-.2H9l-.1-.3v-.1h-.4l-.2-.1-.1-.3v-.8l.2-.2.1-.2.2-.1h.1l.3-.1h.2l.1-.2.1-.2-.5-.1h-.3l-.2-.2-.6-.5-.2-.2V12l-.3-.3-.1-.1V11l-.1-.2-.6-.9v-.5l.2-.5.2-.3V8.4h-.2V8l.2-.2v-.2l.1-.4.3-.5.2-.8.2-.4.2-.3.3-.2.2-.3.1-.4V4l-.3-.3V3h1.5v.2h9.9l4-.1h6.6l.3-.2v-.3l.4-.1h2.2l1 .4.5.1H39l.2-.2h.5l2.4.1h.2l.1.1.1.3H43l-.1.3h.3l.4-.5h.4V3h.2l.2.1h2.1v.3h.5v.2l-.2.2.8 1 .3-.3.2-.4.2-.4.1-.3.3-.1h1.1l.1-.1.2-.3.5-.2.2-.2.1-.2V2l.1-.2.4-.5h.3l.4.3.3.4.9-.7.2-.2.1-.3V.1l2.4.5" fill="none" fill-rule="evenodd"/></svg>