<svg width="171" height="64"><path d="M161.6 53v-.2h.2v-.1h.4l.1-.2.2-.1h.1v-.7l.3-.1V51l.2-.2v-.2h.1v-.2h-.4l-.1-.1-.1-.1-.2-.3-.1-.2h-1l-.6.1-.5.2-.6.4-.2.2-.2.2v.2l-.2.2-.1.1-.3.6v.3l-.2.1v.1l-.1.2-.4.9v.1h.2l.3-.1H160.9l.1-.1.2-.2.3-.2V53zm-41.4-34.4h-.1v.2H120.4v.2h.1v.4h.4V19.8l-.1.1-.1.1V20.2l-.1.2V20.7l.1.2v.2h.1v.1l.2.2h.2V23.2l-.1.2V23.6h.1v.1h.1l.2.1.2.1.1.2.2.3.2.3.2.4v.1l.7.3h.1l.1.2h-.1v.1h.5l.1.1h.1-.2v-.1l-.1-.1-.3-.2-.2-.3-.3-.5-.1-.2v-.1l-.2-.2V24l-.1-.2v-.1l-.1-.1v-.2l-.1-.1v-.2l-.1-.2-.2-.2v-.6h.1v-.5l-.1-.2V21h.1l.2-.1H123v.1h.1v.1h.2v.1H124l.2.2H124.6l.1.1h.2l.6.2.2.2v-.2l-.2-.1v-.1h-.5V20.8h-.1V20.5H124.4l-.2-.1h-.2v-.1h-.1v-.1h-.4l-.1-.1h-.1l-.1-.2h-.1v-.1l-.1-.1v-.2H123.5v-.2l.4-.2h.1l.2-.1h.2V19l.4-.2h.1l.1-.1v-.8h.1v-.4l-.1-.1V17h.1v-.1h-.7v.1h-.5l-.1.1-.1.1-.3.1v.1l-.2.1h-.1v.2h-.1v.2h-.2v.2H123V18.5h-.1v.1h-.5v.1h-.1l-.2.3v.5l-.1.1-.2.1h-.1v.1H121.3v-.1h-.1v-.1h-.2v-.1h-.1V18.7l.4-.1.3-.3h.2l.1-.2V18h.1v-.2h.2v-.6l.1-.2V16.8l-.1-.1v-.4l-.1-.2h-.1l-.3-.1v-.5h.2v-.1l.1-.2V15h.2V15l.1-.1v-.2h.1v-.1h-.5v.2l-.2.1-.3.4h-.1l-.2.3-.2.2-.2.4v.1h-.1v.4l-.2.2v.2l.1.1v.2l-.2.2v.2l-.2.1v.2h-.1v.4zm27 26.8h.1v-.1l-.2.1v-.1h.1l.1-.2V45l-.1-.2-.2-.1v-.2H146.6 147l.2.1v-.1h-.1v-.1h.2v-.2h-.2V44l.1-.1v-.4h.1v-.2l-.2-.1-.1-.1h-.1.1V42.9h-.1v-.2l-.3-.1h-.2v.5h-.1l-.1-.1-.2.3v.1h-.1v.2h-.6v.2H145.7l.1.1v.1h.2-.1v.1l-.1.1v.1l-.1.1v.4H146l-.1.1h-.2v.5l.1.1h.1v.1l.3.1.3.1v.1l.1.1H147.2v-.2l.1-.2v-.1zm-1.1 1.7h.2V47h.1v-.1h-.1v-.5H146v-.1l-.2-.1-.1-.1-.1-.1v-.2h-.2l-.1-.2h-.2v-.1l-.1-.1h-.1v.9H145.2V46.7l-.2-.1v-.1h-.1v.7l-.2.3V47.7l.1.1h.2v.1l.2.2.2-.1.2-.1.2-.1v-.1l.2-.3v-.1h.1v-.1h-.1zm-13.4-10.3h.1V36l.1-.1v-.2l-.1-.2-.1-.2v-.2h-.5V35l-.1-.1v-.4l-.1-.2v-.1l-.1-.1-.3-.2-.5-.4H129.5v-.1h-.1v-.1h-.4l-.1-.2h-.1l-.5-.2h-.2v-.1h-.7v.2h-.2l-.2.2h-.1v.1h-.2v.1H126.3l-.1-.2V33l-.1-.2h-.1l-.3.2H123l-.1.1v.1l-.1.2h-.2.1v.4h-.4l-.1.1h-.1l-.1.2h-.2v.4l.2.2v.9-.1h.1V35.2l.1-.1V35h.2v-.2h.1v-.6l.1-.2h.1l.1-.2h.1l.1.1v.4H123.4l.5.8h.2v.1H124.9V35l.4-.3.3-.2h.4v.3h-.1v.2h.6l.3.1H127.3l.2.1.3.2h.2V35l-.1-.2v-.1H129.3l.2.1V35.2h.1v.1l.1.1h.1l.2.1.2.1.6.2.2.2H131.4l.1.2h.2l.1.1.2.2h.1l.4.2h.1l.2.1zM119.5 35h-.2l-.1-.1-.1.1h-.2v-.1l-.1-.1v-.1h.2V34.3h-.2v-.1h-.2v-.1h-.2l-.1-.1h-.2V34l-.5-.1h-1.1l-.5.2h-.1l-.2.1h-.2l-.1-.1H115l-.1.2V35.2h.1v.1l.2.1.1.1.1.3h.2l.1.1h.1l.2.2.2.1.2.1h.1l.7.3v.1H117.7l.2-.1h.5l.1-.1.1-.2h.1l.5-.2H119.4l.1-.2v-.7l.1-.1-.1-.1zm-7.8 21v-.1h-.1v-.1h-.1v.1h-.1l-.2.1v.1H110.8v-.4l-.2.1h-.1l-.2.1v.1h-.3v.1l-.1.1-.3.2h-.1l-.2.1h-.2v.4h-.1l-.1.2h-.1l-.1.1v.4H108.4v.1-.2l-.1-.2H108l-.1.1h-.2l-.2-.3h-.1l-.1.2-.2.1-.2.3h-.2v.1l-.2.2h-.2v.1l-.1.2v.4h-.1v.5l-.2.1v.5l.2-.1H106.6l.1.1v.1l-.3.2h-.2l-.3.2-.1.1v.4h-.1v.1h.1l.1-.1h.1l.1.1H107l.4-.2h.3v-.2h.2l.1-.2H108.3l.3-.1H109.1l.3-.2v-.1l.1-.2.3-.2v-.1l.2-.1.2-.1.1-.2.3-.4h.1l.4-.3V58l.1-.2h.1l.1-.2v-.2l-.1-.2V57h-.1V57h-.1v-.4h.6v-.2l.1-.3V56zm-8.4-1.8l-.2-.3v-.1H103.5V53.4h.1l.1-.1H103.9V53l-.2-.2v-.2l-.1-.2h-.2v-.1h-.2l-.1.1-.1.2-.1.2H103.6l-.2.3h-.3v.1l-.1.1h-.2v.1h-.4l-.2.3h-.3v.2h.1v.2l-.1.1h-.1l-.6.2h-.2l-.4-.4H100.2V54l-.1-.1v-.2h-.1l-.2.1-.2.2h-.1l-.1-.1H99.1l-.2.1-.2-.1h-.1v.2h-.1v.1l-.2.1H97.7l-.1-.2h-.1l-.1-.2h-.2v-.1H97l-.1-.1h-.3v-.1h-.1l-.1-.2H95.3l-.2-.2V53H95l-.2-.1v.1h-.5V53h-.1l-.1.1h-.5l-.2.1v.1l-.2.1v.1h-.1l-.1.1H92.7v.1h-.2l-.1.1h-.2v-.1.2l-.2.3H92V55h.1l.1.1h.1v.2h.2l.1-.2h.5l.1-.1h.1l.2.1h.1l.1.1h.2l.2-.1h.9v.2h.6v-.1h.2v.1h.1l.2.2h.2l.1.1h.2l.3-.1h.9V55h.8l.1.1v.3h.1l.1-.2h.2v.1h.4l.2-.2.4-.1h.2l.1-.2H101.8l.2-.1.2-.2h.3l.1-.1h.2l.3-.1.2-.1v-.1zm-7.6 5.3l-.2-.2h-.2l-.1-.2H95l-.1-.4-.1-.1-.3-.2v-.1h-.1v-.1H94l-.1.1h-.3V57.6h-.2l-.1-.1H93l-.1-.1-.2-.3-.2-.2-.5.2H89.6v.1H89.3v.1H89l-.2.2v.1l-.1.1v.2h.2v.1l.1.2.2.2h.2l.2.1h.6l.1.2h.1v-.1H91.4l.2.1v.2h.1l.2.1.2.1h.2v.1h.1v.1h.2v.1h.1l.2.2V60h.1l.1.2h.2v.2h.4l.6.1.1.2h.2v-.1l.2-.2H95.3l.1-.1v-.1l.2-.2h.1l.1-.2V59.5zm-6.9-4.3V55H88V55H88v-.2h.6v-.1h.1l.1.1.1.1h.7v-.1h.1v-.6.1h-.1v.1h-.1v.1H89.1v-.6l-.1-.2V53.4l-.1-.1h-.2l-.1-.1h-.5v.1l-.2.1V54h-.1v.1h-.1v-.9h-.5V53H87l-.1.1h-.1v.1l-.1.1h-.1l-.1.1-.2-.1-.2-.2V53H86v-.2l-.1-.2h-.5v-.1h-.8v.1h-.2v.1h-.1v.4l.2.1.1.2.3.2.2.1v.1h.5l.1.1h.1v.1l.2.2H86.4v.1l.1.1v.1h-.8v.1h-.1l-.2.2v.1H85v-.1h-.5v-.4l-.1-.1h-.2l-.2-.1v-.4h-.1v.2h-.1v-.3h-.5v.1h-.1v.1l-.3-.1-.1-.1h-.1v-.1h-.2l-.2-.1H82v.1l-.1.1-.3.2h-.1l-.4.2H81l-.1.2-.2.3V55h.1V55.3l-.1.1V55.7l-.1.1v.2h.2v.1h.6l.1.1.2.2.3-.1h.1l.2-.2.2-.1h.1l.1.1h.7l.2-.2.4-.2h.2v-.1h.5l.1.1.4-.2.1-.1h.5l.4-.3h.1v-.2l.2-.1h.1l.1-.1V54.3v.1h.1v.5h-.1v.4h.2l.8-.2H88l.2.2h.5zm81.5-1.5V48h-.1v-.1h-.1v-.1l-.2-.1V47l.1-.1v-.2l.1-.1h.1v-.2h-.1.1V46h.1V32.2H169.5l-.1.1h-.1l.1-.2V31.7l-.5-.2h-.4l-.4-.2v.2H167.7l-.3-.1-.2-.2v-.1H167l-.8.2h-.2l-.1-.1-.4-.2-.6-.3-.2-.1-.3-.1-.4-.2-.6-.4-.6-.2h-.3l-.2-.1-.3-.3-.3-.2h-.2l-.3-.1-.6-.2-.5-.2-.4-.1h-.2l-.2-.3h-.1l-.2-.2h-.5l-1 .4v.1h-.1l-.5.3-.8.3v.3h-.1l.2.2h.1V30l.1.1v.2h-.1l-.1.1h-.7v.1h-.1v.1h-.3l-.2.2h-.1l-.1.1H153.8v-.2h-.5l-.1.1v.1h-.1v.5l-.2.1v.4l-.1.1-.1.2h-.2l-.3.2h-.1v.1h-.2v.2h-.1l-.1.1V33.1l-.2.1v.4h-.1l-.2.1v.1H151V34.2l-.1.1-.3.1-.2.1v.2h-.1v.1l-.2.2h-.1v.1h-.5v.1h-.2l-.7-.1h-.2v-.1h-.2l-.1-.1v-.2H147.8v-.1h-.1v-.2l-.2-.1v-.4h.1v-.5l-.2.3H147l-.1-.6v-1h-.1v-.1h-.1v-.1h-.1l-.1-.1h-.1l-.1.2h-.1v.8l.1.1V33.2h-.1l-.2-.1v-.2h-.1v-.4h-.2V32l-.1-.2h-.1l-.1-.1-.2-.2v-.1h-.1v-.1l-.1-.1v-.6h-.1v-.8l-.1-.8v-.2l.1-.1.3-.3v-.5l.2-.3-.3-.5-.1-.1-.1-.1v-.2h-.1v-.1l-.1-.1-.2-.3h.1V26h.1l.3-.1v-.1h-.1l-.1-.2h-.2l-.2-.3H143v.1h-.1l-.7-.1-.2-.1V25h-.1l-.5-.4H141l-.1-.1-.2-.1v-.1h-.4l-.7-.3H138l-.1.1h-.2v.1h-.1l-.2.2-.1.2h-.3v.1l-.2.1-.1.2-.1.1h-.1l-.3.2-.7.1h-.2v.1-.2H135v.1h-.2v.1H134.5l-.3.1v.2l.2.2h-.1v.6l-.1.1-.2.2v.2h-.4v.1l-.1.1h-.1v.4h-.1l-.2.1v.1h.7l.1.1.1.1v.1H134.5l.1-.1h.1V28l-.1-.2v-.1H134.9V28h.1v.1h.8v.1H136v.2H136.4v-.2h.1V28.5l.2-.1h.2l.2-.1v.1h-.2v.1h-.1v.4H137l.1-.1V29.1h-.1v.1h-.2v.4h.2v.2l.1.1.1.2h.1l.2-.1-.1.1h-.1V30.5l.6.2.1.1v.1l.1.1h.4l.3-.1h.2l.1-.1h.2v.1l.1.1v.1h.2v.1l.3-.2H140.2l.2.1h.5l.1-.1H141.3l.1-.1H143v-.1h.1v.2h.2v-.1h.1l.1-.1h.2v-.1h.2l.1-.1v-.1H144.3v.2h.1-.1v.1h-.2v.1h-.2V31.2h.2l.1-.2h.1l.1-.2v.4h-.1l-.2.1H144.3l-.2.1.1.1H144.5h-.4l-.1.1.1.2h-.1v-.1h-.4v.1h.2v.6l-.1-.1V32l-.1-.2h-.2v.7l-.1-.1V32l-.1-.1h-.4v.1h-.1v-.2h-.1v.4h-.1v-.5l-.2.3V32.5h-.1v-.5h-.2v-.2l-.2-.2h-.4l-.2.1-.3.1v.1l-.3.3v.2h-.2l-.1.3h-.1l-.2.3h-.4l-.2-.2h-.2l-.2-.1h-.2v.1h-.1v-.1h-.2l-.2-.1h-.8v.1h.2l-.1.1h-.4l-.2.1v.1h.2v.1h-.1v.4h.2v.1h.4v-.1H138.4v.1l.2.1.4.2v.1h.1v.1h.1v.1h.1v.2h.2V34.7l.1.2.2.1h.1v-.2H140.1V35.4l.1.1h.1l.1.1v.1h.1v.2h-.1v.2h-.6v.2l.2.4v.2l.1.2v.2l.1.1v.1h.2v.2l.3.2h.1l.1-.2H141.8l.5-.5V37h.1v-.1h.1V36.5l-.1-.2.4-.4.2-.1v-.5h-.2V35l.1.1h.3l.1-.2V34h.2v-.2h.1l.3-.2V33.4h.2v.5h.1v.1h.1v.1l-.1-.1H143.8v.1h-.1v.2h-.2v.2h-.1v.7l-.2.1v.2l.1.2v.1l.1.1v.2H143.7v.2h.1v-.4h.1v.1l.2.2v.1l.2.4.1.1.2-.2h.1l.1.1h.1v-.2h.2l.1.2-.2.2h.1v.1l.1.1.2.1h.1v.1h.1v.1h.1v-.2l.1-.1v-.2h.2v.1h.1l.1.1v.2l.2.1h.3v-.2h.1l.1-.1H148v.1h-.9l-.1.2V37.8h-.1v.1h.2v.1l.1.1.2.2.1.1h.4v.1l.1.1.9.5h1.5l.2.1h1l.1.1.2.2.1.1h.2v.1h.2l.1.1.4.1h.3l.2.2h.2l.3.2.3.2h.3l.1.2h.2v.1H155.2l.3-.1h.1l-.1.1.2.1H156v-.2.2l.1.2.1-.2v.1l.1.1h.2l.2-.2V41.1H157v.2h.2v.1H157.5v.2h.1l.1-.1h.1v.2h.1l.2.1h.2v.2h.4l-.1.1v.2h.5v.2l.1.1.1.2h.2v-.2h.1V43h.1v.2l-.1.1v.5h.4l.2-.1h.4v-.1h.1l-.2.1h-.2l-.3.3v.1h.2l.4.2h.2-.3l-.1.1v.2l.2.4.1.2.1.3v.2l.1.2v.1l.2.3.5.5h.1l.2.2.1.1.5.3-.3-.1h-.2V47l-.1.1v.2h.2l.1.1.2.2h.4l.2.1.3.3.2.1h.2l.1.1h-.4v-.1h-.2V48l-.2-.2H162.1l-.1.1h-.6l-.1.1v.1l.3.2.4.4.2.1h.4v.1h.2l.2.1v.1h.5V49l.1-.1h.1v.1l-.1.1-.1.1h-.8v-.1h-1v.1h.2l.1.1.3.2.2.2.1.2v.3h.5l.1.2v.2h-.1v.2l-.2.3v.4l-.1.1h-.2v.7l-.2.1-.1.1v.2l.1.1.2.3h.1V53l.5-.4h.1l.3-.1.1-.1V52h.3H163.8v.1l.1.2v.4h.1l.2.1H165l.2-.2h1.2l.2-.1.1-.1h.1v-.5H167.2v-.2h.1v.2h-.2l-.1.1v.4h-.1l-.1.1-.1.2v.1l.2.2.8.6v.1l.2.2h.2v.1l.3.3.3.2.4.6.9 1h.2l.2.1v-2.5zM88.9 32.2l-.2.2h-.2v-.1h-.2v.2h-.1V33.1H88.5l.1.1V33.5h-.1v.4H88.1V34.3h.1v.1l.1.3v.5l.2.2.1.4H89v-.1h.4v-.1h.5l.2-.2h.4l.1.1h.2l.1.3v.2l-.1.2-.1.1.1.2v.2l.1.1.2.4V37.4h.1v-.1h.2V37.6h-.1V39l-.1.5-.2.3v.2h-.1V40.8l-.1.3V41.3h-.1l-.1.1-.1.2v.2l-.1.2v.6l.2.2v.4h.2-.1V43H91V43.5h.2v-.1h.2v.2l.1.1h.5l.1-.1v-.1l.2-.2h.1l.2-.1h.1l.3.1H93.4l.2-.1h.1l.1-.1H94l.1.1.2.2h.1V43l-.2-.6v-.1L94 42l-.1-.2-.2-.3v-.2l.2-.4V40.4h.2v-.2l.2-.3v-.4h-.1V39l-.1-.2v-2.1l.2-.3V35.8l-.1-.2v-1.1l-.2-.1-.1-.1h-.1l-.1-.1v-.4h-.1v-.1l-.1-.1v-.1h.2l.1-.2 1-.6v-.2h.2l.3-.2h.6l.5.1h.1v.1l.2.3h-.1l-.1.1h-.1v.2h.1V33v.1h.2v.7l-.1.1v.6h-.1v.1h-.1l-.1.1v.2h-.1l-.1.1-.1.2v.4l.8.7.2.3H97.4v.4H97.7v.1h.1v.1l.3.1.5.1h.1l.1.3v.3l-.1.2h-.2v.8l-.1.2-.1.3V39.8l.3.3.2.1h.1l.1.2H99.7l.4.1H100.5l.1-.2v-.1l-.2-.1v-.6l.1-.2H100.7v-.1h.1l.1-.1h.5l.2-.1.1-.1h.8v.1l.1.1H103v-.4h-.1l-.2-.1v-.1h.1l.2.2.3.2h.1v-.1h.1v-1.1l-.2-.1-.1-.1h-.1v.1l.2.2h-.6v-.4h-.1v-.1H102.1v-.1h.2V37h.1V37h-.3v-.1h-.1l-.2-.3-.1-.2h-.4v-.1l-.1-.1h-.1l-.2-.1V36l-.1-.2v-.1h.1l.1-.1V35h.2v.1h.2v.1-.2h-.2v-.4l.1-.1H101.7v-.1h.1V34h-.2l-.3-.2h-.1v-.6h-.1l-.2-.1-.1-.1V33h-.1v-.1h-.2v-.1h-.2l-.1-.3V32.2l-.2-.2V32l-.1-.2-.2-.2v-.2l-.1-.1-.1-.2-.2-.1-.2-.1v-.2H98.4v-.1l-.1-.3v-.1h-.2V30H98v-.3h-.1l-.1.1v.1h-.1v-.5h-.2v-.2h.5v.2h.1l.1.1h.1v.1l.1.1h.5l.2-.1v-.1l.1-.1.1-.3v-.2H99.7v-.1h.4l.1-.2h.5v-.1H101l.3-.3h.3V28l.1-.1.3-.3v-.1h.1v-.1l.2-.3h.2V27l.1-.2.2-.1v-.1l.1-.1.1-.2.2-.4h.7l.2-.1.2-.2.1.1v.2l.2.2.2.2h.1l.2.1h.1l.1-.2v-.4h.1l.1-.1v-.6h-.1V25h-.2l-.3-.2h-.1l-.6-.1h-.1v.1h-.7v.1h-.2l-.1.1h-.1v.1h.4v.1h.1l.3.1-.2.1h-.5l-.2.1H102.5v-.1h-1.6l-.2.2v.2l-.1.2h-.4l-.2.1H99V26l-.1-.1v-.3H98.5v.1H98.3l-.2.3H98l-.2.4-.2.2h-.1v.2h-.1v.1h-.2v.2l-.1.2v.2l-.2.2-.1.1h-1v-.2h-.4l-.2.2v-.2H95v-.2l-.3-.3v-.4l-.2-.3v-.2h-.2V26h-.1V26h-.6v-.1l-.7-.8V24.5h-.1V24h-.1l-.1-.5V23.1l.1-.2v-.1l.1-.1v-.1h.1v-.4h.1V22h.1l.1-.2.2-.2.2-.4.2-.1.1-.1.1-.1h.1l.3-.2H95.4l.1.1h.2v.1h.2v.1H96.5l.2.1H97V21H97.3l.2-.1H98.4v-.2h.8v.1l.2.2h.8v-.1H102.6v-.2l.1.1H104.2l.2.2.1.2h.1l.1.1v.1h.1l.2.1h1l.2.1H106.5v-.1h.8v-.1H107.9v-.2h.9l.1-.1h.2V21h.2l.1-.1.1-.1v-.1l.1-.2h.1V20h.2v-.2l.1-.1v-.1h.1l.1-.2.2-.1h.1l.1-.2h.2l.1-.1.1-.2.1-.1.2-.2.1-.3.3-.6v-.2h.1l.2-.2h.1l.1-.1V17h-.1l-.1-.1v-.4h-.5v-.2H111v.2h-.1l-.4.3v.4h-.2v.1l-.2.1h-.4l-.3.2V18h.2V18.3h-.8v.1l-.1.1v.3l-.1.1-.1.1h-.3v.1l-.2.1h-.1l-.5.2v.1h-.2v.1h-1l-.2-.1H105.4l-.1-.1h-.5v-.1H104.5l-.1-.1v.1h-.7V19h-.1v.1h-.1V19.6h-.2l-.1.1h-.2l-.1-.1-.1-.1-.2-.1h-.1v-.1h-.1V19h-.4l-.2-.1-.1-.1h-1.1l-.3-.2h-.1v.1H100l-.1-.2-1.2.1H98.4l-.2-.2-.1-.2v-.1H98V18h.1v-.2H98l-.1.1H97.5l-.2.1-.3-.1-.1-.1-.3-.2h-.5v.1H96v-.1H95.8v.6l-.1.1v.4h-.2v.2H95.1l-.2.3v.2l-.1.2h-.6l-.2-.1v-.1H94V19l-.1-.1h-.2v.2l-.1.4-.1.1h-.1l-.2.2H92.8v.8h-.1l-.2.1h-.1l-.1.1v.2h-.1l-.1.2V21.7l-.2.1v.2l.2.3.1.2-.1.4-.1.1h-.2l-.1-.1-.1-.2H91.4V22.9l.1.1h.4l.1.2V23.5l-.2.9v.2h.1V24.9l.1.1v.1l.1.1v.2l.1.1V25.8H92v-.1l-.2-.2v-.3h-.1V25h-.1l-.1.1h-.1v.2l-.1.2h-.2v.1l-.2.2-.1.2v.1h-.1v.4l-.1.2h-.1l-.1.1-.1.1v.1l-.2.1v2.1l.1.1v.5H90l-.1.1v.1l-.2.4v.1l-.2.2V31.7l-.2.2h-.1v.1l-.1.2h-.2zM72.8 54.7l-.1-.1h-.2v-.1h-.2l-.1-.1v-.1H72v-.5.2H72l-.1-.2v-.4l.1-.7.2-.5v-.8l-.2-.1h-.2v-.1h-.1l-.2-.2H71l-.2-.2-.1-.1h-.1l-.3.2H70l-.2.2H68.3l-.2.1-.1.1h-.2l-.1-.1h-.4l-.2-.1v-.2h-.4l-.5-.3-.4-.2V50l.2-.2v-.7h-.2l-.1.1h-.3l-.1-.2h.2V49l-.1-.1-.1-.1v-.1h.2v-.1h-.2l-.1-.2V48h-.1v.1H65l-.1-.1h-1.5l-.2-.3H63v-.1h-.2l-.1.1h-.5l-.1-.1H62l-.1-.2-.2-.2h-.1l-.2-.1h-.2l-.1.2H60l-.1-.2-.2-.4v-.2l-.1-.1-.1-.1H58.5l-.2.1v.1h-.1v.2l-.1.1v.5l-.4.5-.1.2-.2.2h-.2v.1H57l-.2-.1h-.1l-.2-.2v-.1h-.2v.1h-.1l-.5.1h-.4l-.6-.2H54l-.1-.2-.2.2H52.5l-.1-.1-.2-.1H52v.1H51.6l-.1-.1h-.7l-.1-.1h-.2l-.1-.4-.2-.7h-.2v-.1l-.5-.6-.2-.1H49v.2H48.4l-.2-.2H48l-.2-.1-.1-.2h-.1v.1H47.3v.1H47l-.1-.1-.2-.1-.1-.1h-.2l-.1-.2-.1-.2-.2-.2-.2-.1h-.7v-.1h-.2l-.1-.1v.2h-.1v.4l-.7.1H43.7v-.2h-.1v-.1H42.3l-.1-.1-.3-.2H42l-.1.1v.1h-.4v-.3l-.1-.1H41l-.2.1v.3h-.1l-.3.3v.1l-.2.3v.9l-.1.2H40l-.2.1h-.1v-.2h-.2v.6l-.1.1-.3.3-.1.2v.1h-.2v-.1l-.1-.1v-.2h-.1v-.1h-.2v.1l-.2.2H38V47.9h.8l.1.1H40.6v-.1H41.2l.7.4h.1v.1h.1l.1.1h.5v-.1H43v.4l-.2.2v.1h-.1l-.1.1-.1.2v.5H42.8l.3.1h.2l1.3.1h.6l.2.1h.4l.3.1h.1l.1.1H46.6l.2.1.1.1h.2v.1l.2.2h.3l.1.1.2.2H48.1l.7.2h1.4V51l.1-.1h.5l.1-.1h.4v-.1h.1l.1-.1.1.2.1.1h.2l.2.1.3-.1h1l.1.1v.1H53.9l.7.1.3.1h.2l.2.1H55.5l.4.2.9.5h.2l.1.2h.1l.3.1h.2v.1h.3l.1.1h.2v.1h.6l.3.1.2.2H59.8v-.2h.1v.1h.2v.1h1v.1l.3.1h.4v.1h.2l.1.1V53.1h.1v.1h.1v-.1l.1-.1H62.7l.2.1h.4l.7.1h.1v.1h.5v.1H65.1l.1.1h.2l.2.1H66v-.1H66.6l.3-.3H67l.5-.1h.4l.1.1.2.2H68.7v.1l.2.1h.2l.1.1h.1v.1h.2l.1.1H69.9v.1h.1l.2.1H70.5v.2H71.3v.1h.1l.2-.1H71.8l.2.2v.1l-.1.1v.1h.3l.4.1h.1l.1-.1v-.2zm-35-10.8h.2l-.1-.1v-.1l.1-.1v-.4h-.1.2v-.4l.2-.1.3.4h.1l.2.2.1.2H39.4v.2l.1.2v.1h.4v.1h.1v.2l.2-.1V44l.1-.3v-.1l.1-.2v-1.1l.1-.3V41l.2-.2v-.2l-.1-.2V39.5l.1-.1V39l-.1-.2h-.1v-.4h-.1V37.8l.1-.3v-.2l.3-.4V36.7l-.3-.3-.1-.1V36l.2-.8v-.1l.2-.2.1-.1.1-.1.3-.2v-.8l-.2-.2h-.1v-.1H40.2v-.2l-.1-.1v-.6l-.1-.1H39.7l-.1-.1-.1-.1v-.1l-.1-.1V31.4H39l-.4-.1h-.2l-.2-.1h-.9l-.1-.1H37v.2l-.1-.2V31h-.2v.2h-.1l-.2.1V32l-.2.2-.3.1-.1.1h-.1V32.8h-.1l-.1.1V32.5l.1-.1.2-.1.1-.1h.2V31.8l.1-.2v-.4H36l-.2.2.2-.2h.2l.1-.1.3-.3.1-.2v-.1l.1-.2v-.1l-.1-.2h-.1l-.2-.1h-.2v.1H36v-.2l-.2.1v-.2l.1-.1h-.1v-.2H35.4v.2h-.1v-.4l.1-.1v-.4l-.2-.2v-.9l-.1-.2-.1-.2v-.5l-.1-.3h-1.2l-.1-.1-.3-.2h-.2l-.1.1-.2.1v.2-.2h-.1l-.1-.1h-.1l-.2-.1-.2-.1V26H32v-.1H32l-.1-.1v-.1h-.1v-.1H31.4v-.2h-.2l-.1-.1V25l.1-.1v-.7.2H32v-.1h.1v-.2H32l-.1-.1H31.1V24h.2v-.1l.1-.1v-.1l.2-.1v-.1H31v.1h-.2l.5-.2h.2V23H32l.1-.1V22.6h.1v.1h.2v-.1h.5v-.1l-.1-.8-.1-.2-.1-.1h-.2v-.1h-.1l-.1.1v-.2l-.3-.3-.2-.1-.2-.2H31l-.1.1h-.2l-.1.1v.2H30.2v.1H30l-.2.2h-.2l-.2.3h-.3l-.2.1h-.5v.2H28l-.1-.2h-.2.2l.1.1H28.4v-.1h.1l.3-.1h.1l.4-.3h.2l.2-.2.3-.1h.1v-.5l-.4-.4-.2-.2H29l-.4-.1H28l-.1-.1-.2-.1-.4-.4-.3-.3V19l-.1-.2v-.5h-.1V18h-.1v-.5h-.1l-.4-.2-.9-.8-.2-.1H24.3l-.3-.1v-.1l-.2-.2v-.3l-.1-.2v-.4h-.1l-.5-.4-.4-.3v-.2l-.6-.1h-.2l-.1.2v.5l.2.3.1.1v.2l.1.1V16H22v-.4l-.1-.1v-.1h-.1l-.1-.2h-.1l-.5-.3h-.4l-.2-.2-.2-.3-.2-.2V14l-.3-.7v-.1h-.1V13h-.1v-.2h-.1v-.2H19.2l-.1.1v.5l-.1-.1v-.4l-.2-.2h-.2v.1l.1.1v.2l-.1-.1v-.1h-.1V12.4h.1v-.7h-.1l-.1-.1-.2-.2h-.1v-.2l-.3-.1v-.3H17.5l-.4-.1-.2-.2-.1-.1v-.1l-.2-.1v-.1h-.2l-.7-.6-.4-.2v-.1H15v-.1h-.2l-.6-.3-.2-.2H14v-.2l-.1-.2-.3-.1-.1-.1v-.2H13.1v-.1H13l-.1-.2h-.4l-.2-.3-.1.1H12v.1-.2h.1l.1-.1v-.9l-.1-.2H12l-.1-.1h-.2l-.1-.1H11.2V5h-.1l-.2-.3v-.1h-.1l-.2-.1-.6-.5-.5-.6h-.1l-1 .2h-.2v-.1L8 3.4 8 3.3H6.9l-.4.1H5v-.1h-.7l-.1-.1-.1-.1-.5-.4-.1-.1v-.2h-.1l-.1-.1L3 2 2.5 2H2.2V2H2l-.2-.2h-.1l-.2.2h-.2v.1H1l-.1.1v.2l.1.1v.6H1l.1.1v.1l.1.1.1.1V3.8l.1.1.1.1v.1l.2.3v.2l.1.2V5H2v.2l.2.2.1.1v.1h.2v.1l.2.2.2.2.2.1.1.2.4.4.4.4h.1l.3.3h.2l.1.1.3.3.5.8.2.1.2.1h.9L7 9H7V9h.2V9.4h.2l.2.3h.1l.6 1v.1h.2l.2.1v.5h.1v.2l.3.3h.1v.1h.2l.2.1h.2v.1h.1l.1.7.1.5v.6l.2.1.1.3H11.4l.4.3.2.1.2.2h.2v.2H12.6v.1H13v.1l.4.2.2.2.3.5h.1v.1h.1V16h.2V16.5h.1l.1.1v.1l-.1.2-.1.1H14v.1h.1v.1l.1.1v.2l.1.1.2.2v.2l.2.6.3.8V19.7l.2.2V20.4h.2V20.7h.1v.7h.1V21.8h.2v.1h.5l.1.1.1.1h.4l.1.1.3.2.3.3.2.1v.6h.1v.1h.1V23.8h.1v.2h.2l.1.1v.1l.4.2v.1l.3.3.1.3h.1l.6.6v.2l.1.2v.2l.2.2v.4H20v.1l.2.1V27.4h.2l.2.2h.1v.1l.1.2v.2l.2.1v.4l.1.2.2.2.2.2v.2l.3.2V29.9l.1.2V30.3l-.1.1v.2l.3.6.3.5.3.4.2.2h.1l.3.2h.2v.2l.4.5v.2l.5.9h.1l.1.2h.1l.9.7.7.5.6.3V36.4l.1.1v.2l.2.2v.2h-.1v.2l.1.1h.1l.1.1.6.5.6.4.7.6v.2h.1l.5.2.5.3.4.4.1.2h.2v.1h.1v.2h.4l.1.1.1.1h.2l.2.3v-.1h.2v.2H32.9l.1.2.2.1h.1v.4h.2l.1.1v.2l.2.2.2.4h.1l.2.1v.1h.2v.1l.3.2v.2l.2.2.3.2v.1h.1l.2.2v.1h.1v.2h.5V44l-.6-1V43l.1-.1h.2v-.1h.1l.2.1.3.3.2.1.3.2.6.3.2.1zm14-25.5l.2.6v.1l-.1.2-.1.1h-.2v.1h-.1v.2h.1V20l.1.2V20.9l.1.1v.6h.4l.2.2.2.5.3.2.2.1v.1h-.4v.7l.1.2h-.1l-.1-.1H52.3l-.1.1v.1h.2v.2l.1.2v.5l.1.2H53v.1h.7v.1h-.2v.1h.2v.1l.1.2h.2-.4v-.1h-.3L53 25H53v.7h.2v.1h.4v-.1h.5v.1l.1.2h.2l.1.2.1-.1V26l.1-.1h.2-.1v.4h.1v.1h.1v.2h.4v.1h.1v.5h.1v.1h.2v.1l.2.2V27.9l-.1.5v.2l-.2.3v.1l-.3.1v.2l.2.2.3.2h.1v.1l.2.3v.5l-.1.1v.2h.1v.2l.1.3v.1l.2.4H56.8v.1H56.4v.1h-.1v.2h.1v.4l.1.2V33.3h-.1v.2l.1.2h.2l.4-.2.4-.2H58l.1.1V33.6l.1.1V34l.2-.1.3-.4h.2l.2-.1.2-.2h.1v.1l-.3.1h-.2v.1l-.2.1v.1h.1v.1l.4.2H59.4l.3-.1.8-.5H61.2l.1.1v.2h.2l.3-.2h.2V32.8l.1-.1.1-.1v.6l.3.4v1.9l.1.1H63l.1-.1.6-.5.3-.2h.7l.5.4h.1v-.1h.2l.2-.1 1.3-.8h-.1v-.1h-.1V33.8h.1v-.1h.1v-.4l.3.4h.1l.1.1h.1v.1h.1v.2l.1.1.2.1.2.3v-.1l-.2-.3h.1v.1h.1v.1h.3l.1-.1h.1l.1-.1h.4l.1.3v.7l.3.1h.3l.3-.2h.2l.2-.1.2-.1.1-.3v-.1l.1-.2v.6h.5l.2-.2.1-.2.2-.2v.1l-.2.2v.2l-.2.1v.2l.4.2h.2l.1.1h.1V35h.1V35h.2l-.1.4V35.7l.2.3v1.1l.2.3-.1.3V38h.4l.6-.4.6-.3 1-.4 1-.4.6-.3h.2l.1-.2h.4l.1-.1.1-.2v-.4l.1-.1.2-.4v-.2h.1l.2-.1v.1h-.1.2V34.2l.1-.1h.2V34l-.3-.2v-.2h-.2V33l.1.2v.1h.1l.1.1v.2l.1.1h.1l.3-.3v-1l.2-.2V32h-.2l-.1.1V32h.5v.1h.2l.1-.1.3-1v-.2H79.8v-.1h-.1l-.3.1h-.1v-.2h-.2l-.2.1v-.1l.2-.1.3-.1.1-.2v-.5l-.1-.2v-.2h-.8.2V29l.2-.2H79.4l.1-.2h.3l.1-.1.1-.1V28l.2-.1.4-.2h.1V27.4h.1v-.2h-.2V27h.1V27l-.1-.2v-.4h.1V26.7l.1.2v.2h.1v.1h.8V26.8l.2-.1.3-.6h.1l.2-.2v-.2l.1-.1h.2v.2h.1l.1-.1h.2l.1-.1h.1v-.1h.5v-.2h-.2l-.2-.1v-.1h.1V25h.1V25l-.1-.1h.1l.1-.2v-.1l-.1-.1.2-.1v-.2l-.5.3h-.1V24.2l.1-.1V23.7l-.1-.1v-.5l.1-.2.1-.1v-.4h-.1V22.1h.1V22h-.1V22l.1-.1V21.5l.2-.2v-.2h.1V21h.1V20.7l.2-.2v-.2l.2-.1V20l.2-.3H84.8v-.1H85.2l.1.1h.2V19.3h-.1V19l-.2-.3-.1-.1v-.2l.2.1.1.2.1.2v.1l.2.1v.1h.2l.2.1h.5v.1h.1v.1h1.8v-.1h.1l.3-.2.1-.1.1-.1V18.7l-.2-.1H88.5l-.1-.2h-.1l-.2-.1h.1V18H88V18h-.2l-.2-.3h-.1l-.2-.1H87v-.1H87v-.1h-.1l-.1-.1v-.1l-.1-.2h-.2l-.2-.1-.3-.3h-.2l-.3-.3V16h-.2l-.1-.1H85v-.2h-.1l-.1-.1v-.4h-.2l-.2-.1h.4l.1-.1-.2-.1v-.1H85v-.1l.1-.1.1-.1h.3v-.1l.2-.2V14h-.1l-.1-.1-.2-.2v-.1l-.4-.3v-.1l-.2-.1V13l-.1-.1v-.4l-.2-.1H84.1l-.1-.1V12H84.4V12H84l-.3-.1h.2l.2-.1v-.1H83.7v-.2h.1v-.2h-.5l-.1-.2V11H83l-.3-.2-.1-.1H83v-.2h.1l.1-.2h.1V10h-.4v-.1h-.2v-.1h-.1l-.1-.1V9.4H81.8v-.1H83.5V9l-.1-.3v-.1.2h.1V9l.1.2H84l.1.1h.4l.1-.2h.1V9l-.1-.1h-.2v-.1h.2v-.1l-.2-.2-.1-.1H83.8l-.1-.2h-.2.2l.1.1h.2v-.1h-.2V8l-.4-.4h-.2v-.1H83v-.2H83v-.1l.5.2.2-.1v-.1h-.4l-.2-.1L83 7l-.3-.2h-.1v-.1H80.7l-.2-.1h-.2v.1H80l-.2-.2h-.2v.2h-.1l-.1.2h-.1l-.1-.2h-.1l-.1-.2h-.2l-.1.1h-.5v.1L78 7h-.1v-.2h-.4v-.1l-.1-.1h-.1V7L77 7v.1H76.7v.1h-.2V7.9l-.1.1v.2h-.1l-.2.1v.1l.1.1h.1v.2l-.1.4v.8l.1.1v.1h-.1l-.1.1v.2l-.2.6.1.1v.2H76V11.6H75.6l-.2.1h-.2l-.1-.1H75l-.1.2-.3.2v.1h-.1v.2h-.1v.2h.1v.2h-.1v.5H74.8l.1.2v.2h-.2l-.2.2h-.1l-.2.2H74V14.3h-.2l-.3.1h-.1V15.3h.2v.4l-.3.2h-.2v.4l-.1.2v.2l-.2.2-.2.1v.4h-.2l-.3-.1H72V17h-.2l-.5.3H71v-.1h-.9l-.2.1-.2.3-.6.4H69l-.2-.2h-.5l-.3-.2h-.2l-.2-.1h-.1l-.2-.2H66.7v-.1h.2v-.4h-2.2l-.1.1h-.3v.1l-.5.2-.1.2h.1v.1l-.1.2-.2.6H63l-.2.1-.3.4h-1.1v.2h-.1V19l-.1-.1h-.5l-.5-.2-.9.2H59l-.2.2v.2h-.4v.1H58l-.2.1h-.2l-.2-.1-.1-.1-.2-.2-.3-.1h-.1v-.2l-.2-.2v-.2h-.1l-.1-.1H56l-.2-.1V18H55.5v-.2l-.1-.2-.1-.1H55v-.2h-.2v-.1l-.4-.3v-.2l-.1-.2V16H54v-.2l-.1-.2v-.1l.2-.1v-.2l.1-.1.1-.2-.1.2-.1.1-.6.2H53.3v.4h-.1v.1H53v.1l.2-.1v.1l-.1.1-.2.2v.1l-.6.4-.1.1v.6l-.1.2-.1.2H52v.2h.3V18h.2V18l.1-.1.1-.2h.1v-.2h.2l-.1.1v.1l-.3.3-.2.1-.2.1H51.9l-.1.1v.1zM136 49v-.1l-.1.1V49h-.5V49.3h-.1l-.1.1v.2h-.1v.1h-.2v.2h-.1v.2h-.2l-.3.2v.2l-.2.2v.4h.2-.4V51.3h.1v.1h-.2V52.2H134.4v-.2h.1V52.3h.1V52h.1v-.2h.1v-.2l.2-.2h.1v-.2h.1l.1-.1h.2V51l.1-.2h.1v-.2l.1-.1v-.2l.1-.1V50h.1v-.1h-.1v-.2l-.1-.1V49.2h.2l.1-.1V49zm13.8-23.6v.1h.2l.6.4h.1v-.2H151v.1l.1.4.1.1v.4l.1.2h.2v.1h.5l.3.1h.4l.3-.1.2-.1.1-.1v-.1h-.2v-.1h-.1l-.1-.1H152.6l-.1-.2h-.1v-.1h-.1V26h-.1v-.2h-.1l-.3-.2-.3-.3-.2-.1h-.1v.1h-.4v-.1h-.4V25h-.6l-.1-.1h-.1v.3l.2.1zM153 29h-.2l-.1-.1h-.5l-.2-.1h-1l-.8-.1-.3-.1h-.2v.1h.1v.1l.1.1h.4v.1h.7l.1.1H151.6v.1l.2.1h.1v.1H152.2v.1h.5v.1l.2.1h.2l.1-.1h.4v.1h.4v-.1h.6v-.1H155.2v-.1h.1l-.2-.2h-.4l-.1-.1h-1.4zm-19.4-2.7l-.1-.1V26h-1l-.4.2h-.1l.1.2h.1v.4h.1V27.2h.1v.1h.2v.1l.2.2H133.3v.1h.1l.1-.1v-.2l.1-.2.2-.5V26.3zm-3-2.7h.1l.2.1h.6v.2h.1v.4l.1-.2V24l.2-.1h.2l.1.3v.1h.8V24h.1v-.1h-.1v-.1h-.4l-.2-.1v-.1l-.1-.2-.2-.1v-.1h-.2V23h.1V23h-.1H132.3l.1.1.2.2v.2H133l.1.1v.1l.1.1.1.1H134.2l.1.1h.2v-.1h.1v-.1h.2v-.1l-.2-.1v-.4H134.1V23h-.1l-.1-.1h-.1l-.2-.1h-.1v-.1H133.3l-.5-.1H132.5l.1.1H131.7v.1h-.1l-.1-.1-.1.1h-.2v.1H131v.1-.1h-.2V23.4h.2v-.1h.1l.1-.1V23.5h-.7.2zm-7.5-9.1v.5l.2.2v.1l-.1.1h.2v-.1l.6-.1.3-.2v-.2l.3-.4V14l.1-.2V13.5l-.1-.2h-.1V13H124.2v.1H124l-.1.1v.1h-.1l-.2.2-.1.1-.2.3v.2l-.2.1v.1zm-.6 14.5h.2v-.5H122.4v-.1h-.1v-.1l-.4-.2v-.1h-.4v-.1h-.1v-.1h-.2v-.1h-.3l-.5.2v.1H120.1v.2h-.1v.5l.1.2.2.1.2.1h.4l.1-.1h1.5zm-19.2 13.8l.3-.2H104.5v-.2l.2-.1V41.8h-.2l-.2-.1v-.1h-.1v-.1h-.2l-.1.1h-.1v-.8l.2-.1V40H104.3V40h.2v.2l.1.2h.1v-1l-.2-.1-.3-.3v-.2h-.2l-.4.2v.2l-.2.2v1h-.1v.5l-.3.2h.1v.5h-.1v.2h.2l-.1.1h-.1l-.1.1v.1l-.1.1h-.1v.1l-.1.2v.1l-.3.3.3.6h.1l.2-.2v.2h.1v-.1h.1v.2h.1l.2-.2.1-.3.1-.1v-.1h-.2v-.2zm-1.2-.1h.1v-.2l.1-.1h.1V42l-.1-.1V41.2h.2l.2-.3v-.1h.1l.1-.1V40.4h-.1v-.8h-.1l-.1-.1h-.2l-.2.2-.2.2h-.5l-.1.2-.1.1V41h.1V41.3h.1v.2h-.2v.2l-.1.2v.2l-.1.2v.2h.3v-.1l.1-.1h.1V42.6h.2V42.1l.1-.1h.1v.5h.1zM115 30.2V30l-.2-.1h-.1l-.1.2h-.1v.4l.1.1v.2l.2.1V31.6h.1l.2.2h.2V31.3l-.4-.8v-.2l.1-.2zm-.5-.6l.2.1h.4v-.1h.6l.1-.1h.2l.2-.1-.1-.1h-.7l-.4-.1h-.9l-.1.1H113v-.1h-.5V29.6H112.9V29.9h.4l.2-.1h1zm-2-.4h-.1V29h-.2v.2h-.1V29l-.1-.1h-.2l-.1.1v.1h-.2l-.1-.1h-.2v-.1h-.4l-.2-.1h-.2v-.1h-1.4v.5h-.1V29.6l.2.4v.1h.6l.4-.1h.1l.3-.3h.4v.1h.5v-.1h1.1v-.4zM118 51v-.2h-.4l-.1-.1-.2-.1v-.2h-.1l-.4.1h-.1l-.1.1-.2.1-.2.2H115l-.1-.1h-.1l-.2.2-.1.1v.2h-.1l-.1.1-.1.1v.4h-.1v.2h.1l.3-.3h.1v-.1H115l.2-.1H115.5l.1.1h1v.2h.1l.1-.1v-.1l.3-.3v-.1h.2v-.1l.3-.1h.5V51zm-8.5 2h-.2l-.3.2v.2h-.1l-.1.1v.2H109.8v-.1h.6l.7-.2h.7v-.6l-.1-.1h-.4l-.1-.1H109.8l-.2.2v-.2h-.5v.1h-.1v.1h-.1v.2l.3-.1h.2zm-28.9.3v-.1l-.2-.1H80V53H80l-.2-.1h-.3l-.1-.1-.4.1-.4.4h-.2v.2h-.2V55v-.1H77.8v.1h-.4v-.1h-.1v.2l.3.2h.1l.1.1v.1h.1v-.1h.1v-.1h.1v.1H78.6l.1.1h.7v.1h.1l.1-.2v-.1h.2v.2H80l.2-.2h-.4V55l.2-.2v-.1l.2-.2v-.1l.2-.2v-.4h.1l.1-.3v-.2zm-4 0v-.2l-.3-.3h-.1l-.1-.1-.6-.3h-.3l-.1-.1h-.4l-.2.3H73.8l-.1.1-.6-.2h-.6v-.1H72.1v.4l.4.5.2.2h.7l.5.3.3.3h.1l.1.1v.1h.1l.1.1h.1v.2l.1.1v.2l-.3.1v.1h.4l.1-.2H75v-.2h.2l.1-.2.1-.2h.2l.5-.2V54h.4v-.1h.2v-.2h.1V53.4h-.2zM48.3 7.8v.2h.1v.1l.1.2h.1l.1.1.3.1H49.3V9v-.1h-.1v-.1H49v.1h-.2V9l-.1.1.2.1v.1h.5l.1-.1v-.2h.1l.1-.3.1-.2h-.1v-.1l.1-.1V8l-.1-.1-.2-.3h-.2V7H49l-.1.2-.3.2-.1.1h-.1v.1l-.2.1zm-1.4 25v.2l-.1.1h-.1v.2h.1v.5l.1.2h.1l-.1.2v.2h.2l.6-.2v-.4h.2l.2.3h.1V34.5h.4v-.2H49l.1-.1h.1v-.6l.2-.2v-.1l.1-.1v-.4l-.3-.3h-.2v-.1h-.1v-.1h-.1l-.1-.1-.1.1-.1-.1-.1-.1h-.5v-.2h-.1l-.1.1H47v.1l-.1.4V32.8h-.1v.2zm-9.1-2.6h.4l.1.1h.8l.1-.1h.2v.1H40v.1h.1V30.9h.1v.5l.1.1.1.1h.2v.2l.1.1V32.1l-.1.2V32.6l.3.4h.3l.9.3.1.2H42.5l.1.2h.1v.1h.1v.2h.9V33.6h-.1l-.1-.1h-.1l-.2-.1V33.2l.2-.6.2-.3h.1l.2-.2h.1-.2l-.3-.2H43l-.4-.2h-.4v-.1l-.2-.2v-.1l-.3-.7-.2-.6v-.4h.1l-.2-.3v-.1h-.1V29h-.1v-.1H41v-.4l-.2-.2h-.2v-.1h-.8V28.6l.1.2V29h.2v.2H39.8l-.1-.1h-.1V29l.1-.2v-.1h-.2V28.3l-.1-.1H39l-.2.2h-.1v.1h-.1v.2h-.1v.1l.2.1V29.3l-.4.2-.4.2-.2.2V30.2zM11 18.9l-.1-.1H10.6V18.4h-.1v-.1H10.2v-.1l-.4-.4v-.1l-.3-.3v-.1l-.1-.1h-.1l-.1-.1V17H9l-.2-.1v.2l-.2.2H7.9v.1h.2l.2.2v.1l.1.1h.1v.1l.1.1v.1h.1v.1h.1v.1l.2.3v.4h.4v.1l.4.3.1.1v.2l.1.1v.2l.1.1.1.1v.2h.5l.2-.1v-1l.1-.2.1-.1V19zm5 9.7v-.1h-.2v-.2h-.1v-.1l-.2-.2V27.7h-.1l-.1-.2v-.1h-.1V27h-.1V27l-.1-.1v-.2H15l-.1-.1-.1-.1v-.1l-.1-.1h.1V26h-.2V26h-.1l-.2.1h-.5V26.8l-.1.1-.1.2V27.3h.1v.1l.7.9v.2l.2.3.3.1.1.1.4.2h.5v-.5h-.1v-.1l.2.1v.3h.1v-.4zm131 17.8h-.2l-.1.1v.2h.1v.1h.2l.1-.1v-.1l-.1-.1zM100.5 24h-.1V23.5h-.1v.5h.2v-.2zM71 48.3v-.1h-.2l-.1-.1-.1-.1h-4.4v.1l-.1.3H66l-.2.1h-.1v.2h.1V49h.4l1.1.3V49h.1v.2h1.3l.1.1V49h.2v-.2h.3v-.1H70l.2.1v-.1l-.1-.1.1-.1h.2l.2-.1h.3l.2-.2zm76.6-21.7v.1h.1v.1H148l.2-.2v-.2l-.1.2h-.1v-.4l-.3-.1h-.1v.2l-.1.1v.2zm15 26.8l-.1-.2h-.1v-.5h-.4l-.2.1v.2h-.1l-.3.3v.2h.5l.7.1v-.2zm-33.8-23.7h.2v.1h.1l.1.1h.1l.1.1h.6l.1.1v.1h.5l.1-.1V30h.1l.1-.2v.1h.1v.1h.2l.1-.1-.3-.2.1-.1h.1v-.1h.1v-.2l-.1-.1-.2-.2v-.2h-.2l-.1.1-.1.1H129.6l-.2.2h-.2v.1l-.5.2h-.2l.1.1zm-9.8-5.4v.2h.5v-.1h.1v-.6l.1-.1h-.1l-.1-.1h-.4v.5l-.1.1zm.8-.1l-.1.1v.2l.2.1v.2h.1v.1H120.4V25.7h.3l.2-.1h.1v-.1h.1V25.8h.1l.2.1.1.1h.2v-.1l.2-.2h.1v-.2l-.1-.1-.2-.1h-.5V25h-.2V24.6l.2-.2V24.2h-.1V24h-.1V24h-.1v-.1l-.1-.1H120.4V24.2h-.2V24h-.1v-.1H119.7v.2zm21.7 18l-.1-.1h-.2v.2l-.1.2-.2.4v.5h-.2l-.2.2v.4l-.3.7.4-.4v-.5h.1v-.2h.2v-.1l.1-.1.2-.1.1-.3.1-.6v-.2zm-1.4 1.7h-.1v-.2h-.1v-.2h-.2v-.2H139.3v.2h.1v.1l.1.2v.6h.2v.1h.1l.1-.1v-.1l.1-.2V44zm-16.7-8.4h-.2l-.3.3h-.4l-.3.1v.1l-.2.2v.2l.1.1h.2v-.1h.2v-.1h.2l.1-.1.2-.2h.1v.1l-.2.2h-.1v.1h-.1v.1h.1l.1-.1h.2l.1-.1.1-.1V36h.2V35.6h.1v-.2h-.2zm-23 6.4v-.2h-.1v-.1h-.2v-.3h-.4l-.1.1v.2l-.1.1v.2h-.1v.2l.2.3.1.1h.1l.2.3h.2v-.1h.1V41.8zm3.5-4.7v.2h-.2v.4l.1.2.2.1.1.1H104.4l.1-.2.2-.2v-.4h-.5l-.2-.1zm.7-10h.1l-.1-.3h-.7l-.1.1H103.4l-.3.3V27.6l-.1.2v.1l.2.6h.2l.3-.3V28l.1-.1v-.1h.1v-.1l.2-.2.1-.1h.1v.7l-.1.1v.2h.1v.1l.2-.1v.1h.1V28l.1-.1H105.2V28.3h.4l.2-.2V27.7h.1v-.4h-.1l-.2-.1h-.4v.1h-.1v.1l-.2.2v.1h-.1v-.1l-.1-.1v-.2zm-4.6-3h.2V24h.1v-.2H100v-.1H99.7v.1h-.1v.1l.1.1h.2zm-.4.3h.1l.1-.1v-.2H99v.1l-.2.2v.1h.2l.1-.2h.2l.1.1h.1v-.1l.1.1zm18-16.6h.3V7.6l.1-.3.1-.1.2-.3v-.2l-.2-.2V6h-.1V6l-.1-.1h-.2v.2l-.2.4v.2h.1v.1l.1.1h.2v.2l-.2.4-.2.1V8zm-4.8 1.3l.2.2h.1v.5l.2.1h.1v.1h.2v-.4h-.1v-.1l-.1-.1v-.2l-.2-.2-.2-.2h-.2V9.2zm-18 36V44.4l-.2-.2v-.4h-.1l-.1.2v1.3h-.1v.2h.1v.7l.1.2V46h.1v-.7l.2-.3zm39.1 7.4h-.2l-.1-.1h-.1l-.2.2h-.2v.2h-.1l-.1.1-.1.1-.2.3h.1l.3-.1V53l.2-.1h.1l.3-.1.2-.1.2-.1v-.1zm-4.8-.7v-.4h-.2l-.2-.1h-.4l-.1.1v.3l.3.4.3.1h.1l.1-.2.1-.2zm-6.3.8h-.7l-.3-.2H121.5v.2l.2.2h.4l.2.2h.1l.1-.1.2-.2zm-17.5 9h-.1v-.5.1l-.1.1h-.3v.1h-.2v.2h-.1v.2h-.2l-.1.1-.2.2h-.2v.1h-.5l-.1.2v.5h.5v-.2l.6-.2h.4V62.2h.1l.2-.2H105.3V61.7zm3.3-8.8v-.1h-.1l-.1.1-.1.2h-.1l-.1.2-.1.1v.2h-.1v-.2h-.1v-.1H107.4l-.1.2-.1.2h-.1v.1h.4l.1.1v.2h.4l.1-.2v-.2h.1v-.2h.1l.2-.1v-.5zm-2.6 1v-.1h.1v-.1h.2l.2-.1v-.2h.1v-.1h.1l.1-.1h.4V53h-.2v-.1h-.1v-.1H106.5v.1h-.2v.1h-.2v.2h-.2V53.6h-.2V53.1h.1V53h-.6l-.1.2h.4v.1l-.4.2-.2.2-.3.2v.2h.5v.1h.2l.3-.2v.1H106V53.8zm-1.1-.3h.1v-.4h.1V53H104.7l-.1-.1h-.4l-.4.4v.2h1zm-28.6-5.4V48l-.3-.2H75.1l-.1.1v.2h.1v.2h.1v-.1h.4-.1v-.1h-.1l.1-.1h.5l.2.1zm2.8-11.6V35.9l-.1-.2v-.1l.1-.1v-.1l-.1-.1-.1-.1V34.5h-.1l-.2.3h-.2v.1l-.1.2-.2.3v.3l-.1.3v.5h.2v1h.2l.2-.1v-.2h.2V37h.2v-.5zM54.8 26.4v-.1h-.5v-.1h-.5v.1l-.1.6-.1.3v.1h.2v.1l.2-.1h.1l.2-.1.2-.2h.1l.2-.1h.1v-.5zM24 15.8v.2l.1.1.2.2h.6l.2-.2v-.4l.2-.1V15.3L25 15V15l-.1-.1h-.2l-.3.1H24l-.1.1v.1l-.1.3v.1l.1.2zm3 2.7v.2l.1.1.3.3.1.1H27.8v-.6l.1-.4V18l-.4-.2-.2-.2v-.1H27v.2l-.1.1v.2l.1.1v.4zm-.6-1.4l.1.1h.1l.6.2h.1l.2.2.3.3h.2v-.7l-.1-.1-.4-.1H27.1l-.2-.1h-.2l-.2-.1-.2-.1h-.2V17h.2zm1.5 1.5v.1l.1.4-.2.1-.1.2.1.2.3.1H29.5v.1l.3.2h.2v-.4l-.5-.4-.3-.1-.2-.1-.1-.1h-.5v-.1l-.2-.3H27.9zm.6.3h.6l.2.1h.2l.2.2.5.3H30.5v-.1l-.2-.2-.2-.2-.1-.2-.3-.2-.3-.1-.3-.1H28.8l-.1.2-.2.2v.1zm1.8 1.6v.2H31v-.5l-.1-.1H30.5l-.2.4zm1.4-.6v-.1l-.1-.1-.2-.1v-.2h-.2v.2H31v.2l.2.2v.2H31.7l.1-.3zm1.5-1.1l.2.1h.1l.2.1h.1l.1-.1v-.1h.1l.1-.3v-.2h-.2v.1h-.1l-.1-.1-.1.1h-.2v.2h-.2v.1zm1.2 0v.1h.5l.2-.1h.2v.2H35v.1h.2v.1h-.1v.1h.1v.1l.3.2h.2V19.3h.1V19l.1-.2v-.2l-.2-.1V18.1H35.4v.1h-.7v.1l-.1.1h-.2l-.1.1v.2zm2 4.5l-.1-.2-.1-.1H36v-.1l-.2-.2-.1-.1h-.2v.4l-.1.1-.2.2v.1h.1l.1.1v.1h.4l.1-.1h.5l.2.2h.2l.2.2v-.2h.2l-.2-.2-.2-.3h-.2v.1h-.2zm-1.2 1.5h.2v-.2h.1l.2-.1v-.2l-.1-.2h-.1V24h-.1l-.1-.1-.2.1-.1.1h-.1v.1h-.1V24h-.1l-.1.1v.2h-.1l.2.3.1.2v.3h.1l.1-.2v-.2l.2.1zm-2.6-1.1h-.1l-.2-.1-.1-.1h-.4l-.2.2v.2l.3.1h.7V23.6zm-5.1 18.7l-.2-.1h-.1v-.1H27l-.1-.1h-.2l-.2.2h.1l.5.4v.1h.4v-.1l.1-.1v-.2h-.1zm-7.2-7.9v-.2h-.1v-.1h.2V34l.1-.1v-.2l-.2-.3-.1-.2H20l-.3-.2V33l-.1-.1H19.3v.6l.1.1.1.2v.1h.2l.2.2v.4h.1v.2h.2l.1.2h.1v-.2l-.2-.2zm-.8-1.7V32.5l-.1-.1v-.1h-.2v-.1L19 32l-.2-.2h-.1v-.1h-.1l-.1.2v.2l.1.1v.7H19.4v-.2h.2zM18.1 31L18 31v-.1l-.3-.3V30.3l-.1-.1h-.1V30H17.1l-.1.1v.2l-.1.1.1.2v.1h.2v.1h.2v.1h.1v.1H18v.1h.2v.2h.1v-.1L18 31zm-4.9-7V23.8l-.2-.2h-.1v.1l-.1.1v.1h-.1V24.6H12.3l.1.1.3.2h.1v-.2h.2v.1h.1V24zm0-.7v-.2L13 23l-.1-.2-.1-.1-.2-.1h-.2v.1l.1.1v.1l.2.3.4.6.2.2v-.5l-.2-.1zm-7.5-9.6v-.1l-.1-.2h-.1v-.1.1h-.2v-.1l-.1-.1-.1-.1h-.2V13l-.4-.3v.1h-.1V12.6l-.1-.1H4l-.1-.1v-.2h-.4V12h.1l-.3-.1h-.1l-.1.2v.1h-.2V12.5H3v.1l.2.1v.1h.2v.1h.1v.1h.1l.1.1h.5l.6.5H5v.2h.2v.1H5h.2l.2.1h.2v-.2zm141 32.6V46H146.3v-.2h-.2v-.1h-.2v.1h-.1l-.1.1v.1l.2.1.1.1h.1v.1h.1v.2h.2v-.1l.2-.1zm-1.3-1.3l.1-.2-.1.1v-.2H145v.1-.2l-.1.1v.5h.2v.1h-.1.2v.2l.2.1h.1l.1.2h.2v-.1h.2-.1v-.1h-.2v-.1l-.2-.2h-.1v-.1h-.1V45zM98.7 61.8h-.2l-.1.1H98.8zM57.3 44.1v.1h.1V44zm88-.3h-.1v.2h.1v-.1zm-21.6-17.4h.1v-.1h-.1l-.1-.1-.1-.1V26.5h.1zM119 5.2V5v.1zM36 19.6v-.1h-.1v.1zM77.5 49V49v.1H77.1v-.1H77v.1l.2.1H77.5zm65.2-17.3l.2.1h.1v-.1h-.1l-.1-.1h-.1zm-36.8-3.4v-.2h-.2v.1l-.1.1V29h.4V28.5l-.1-.2zm23.3-3.8l.1-.1v-.2h-.1v.2zm-93-4.6v.1h.1v-.1zm75.5-3.8v.1l.2-.1-.1-.1h-.1v.1zm25.4 26v.1l-.1.1v.1h.1v-.2zm-10.6 6.2v.1-.1zm1.4-.8v-.1h-.1v.1h.1zm1.9-1.6h-.1.1zm.1 5.3h-.1v.1h.2zm-.2-.1v.1-.1zm-1.2-.5h.1v-.1h-.1v-.1.1zM145.7 20v-.1h-.1zm-11.4-1.2zm0 0h.1v-.1.1zm-18-1v.1-.2h-.1v.1zm-3.8-2.8h.1v-.1h.1-.2v.1zm4.6-12.8zm3.5 40.7zm0 0zm1-.4zm-.1-.2zm7.4-3h-.1zm-23.7-10.5h-.2l-.2.3v.1h.1l.2-.2h.1v-.2zm-6 21.2h.2l.1-.1v-.2h-.2l-.1.1v.2zm2.3 3.7h-.1v.2h.2v-.1zm-2.5-.5v.2h.1v-.2H99zM72.6 49h-.2v.1h.4v-.1h-.2zm-.7-.2h-.2V49h.4V49l-.1-.1v-.1zm77-20.5h.4l.1-.1h-.8v.1h.3zm-2.4 3.4h.1V31v.2l-.2.1.1.1zm-.8-1.3v.2h.2v-.2l.2-.1V30h-.1V30h-.1l-.1.1v.2zm-.3-1V29l-.3.3v.4l.1-.1v-.1l.1-.2v-.1zm-2.5 8.9H142.6V38h-.2V38h-.1l-.3-.3v.2h.1v.1l.1.1h.2v.1h.4l.1.2h.2l-.2-.2zm-7.2-6v.1h-.2v.1h.2v-.1h.1zm-6.6-5.1h.1-.1.4v-.2H128.8v.1h.3zm3.6-1.3h.2v-.1h.1v-.1h.1v-.1h-.4v.1h-.7l-.1.1-.1-.1v.1h-.2v-.1h-.2V26h-.1l-.1.2.1-.1h.7l.5-.1h.2zm-.9-1.2H132.1l.1-.2v-.1l-.1-.1h-.2l-.1.1h-.4v.1h.1v.1h.2v-.1h.2v.2zm-4.7-2h.1l.1.2v.1l.4.2.2.2v.1h.2v-.1l-.1-.2h-.1l-.2-.2-.6-.4zm-1.4-.7zm-5.7-.7l-.1.1v.2l.2.1V21.3zm.3 1l-.2-.1v.5h.1v.1h.1v-.5zm-.4-2v.1H120.3v-.4h-.1l-.1.2zm-.2-.4h.2l.1-.1v-.1l-.2-.1h-.1V19.9zm0 5.7V25.2l-.1-.1v-.2h-.2v.2h-.1v.1l-.1.1v.2h.4v.1h.2v-.1zm1.5 1.7V27H120.9l-.3-.2-.1.1-.1.1v.1h.4l.2.1h.1v-.1zm15 13V39.8h-.1v.2zm-.5-1.3l.1.4h.1V39h-.1v-.2zm-.8-1.4h.1V37.2h-.2v.3zm-.3.2l-.1-.1v.1l.2.1.1.1v-.1l-.2-.1zm-.3-.3v-.1h-.1v.2h.1v-.1zm-9-1.3h-.2v.1h.2V36zm-.3-.5h-.4v-.1h-.2v.2h.1v.2h.2v-.1h.2l.1.1V35.6zm-.7.3v-.2l-.1-.1H123.9v.1l-.1.1v.2H124l.2-.1zm-20.3-.1h.1v.1H104.5v-.2h-.3v.1zm3-6l-.3-.3v.4h.1v.1h.2v-.2zm-2.9-.2h.1v-.1l.1-.1V29h-.1l-.1.2V29.6zm-3.3-6.2h-.1v.1l.2.1h.1-.1v-.1h-.1v-.1zm.3.1h.2l.1.3.1.1V23.5h-.1v-.1h-.2v-.1h-.2v.1zm-2.3-.4h-.2v.2h.1l.1-.1V23zM117.3 8l.2.2V8.6h.1V8h-.1l-.2-.3V8zm.8.6l-.2-.2-.1.1v.2l.2.1h.1v-.2zm-5.5 4.1v.2h.1V12.5h.1v-.2h-.1l-.2.1v.2zm.2 1.2h-.2v.1l.2.1.1-.2zm-1 3.5v.1h.4v-.2h.1v-.4l-.2.4h-.1l-.1.1zM137 49.1V49l-.1-.1-.1-.1H136.1v.2h.5v.2h.1l.1.1h.1V49zm-12.2-.3h-.1v-.1H124.3l-.1.1v.2h.2l.1.2.2-.1V49l.1-.1v-.1zm-4.5 1.6l-.1-.1h-.2V50.6l-.1.1v.1h.2v-.1h.2v-.1h.1v-.2zm-14.6 9.9v-.1h-.1l-.1-.1h-.2v.1l-.1.2-.2.1V60.9h.1v-.1h.1v.1h.1v-.4h.2l.1-.1zm-5.7.9h-.4l-.1.2-.5.2v.1l.1.1h.7v-.1h.1l.2-.2V61.2zm-8-6.7H91.6l-.1.1h-.1v-.2h-.1v.4h-.1v.2h.2l.1.1v-.4h.1l.1-.1h.1zm-1.2-.2H91.2V54l-.1-.1h-.2v-.2h-.2v.4h-.1v.7h-.1l.3.1v-.4l.1-.1zm-1.5-1.7h-.1l-.1.2v.2h.1l.1.1.1-.1.1-.2v-.1h-.2zm-12.9 2H76l-.1.2v.1l.3.2h.1l.1-.2v-.2zM65.8 44.2V43.7h-.4v.1h-.1v.2h.4zM52 51.2l-.2-.1H51.6l-.2-.2-.1.1v.1H51.6l.2.1h.2l.1.1h.1zM84.4 7.6h.2l.1.2h.4v-.2l-.1-.2v-.1h-.8l.2.1v.2zm-.3.4h.1l.2-.2v-.2h-.2v-.2H84l-.2.1V8h.2zm.5 1.4l-.1.2.1.1.3.2V9.5l-.1-.1h-.2zm-1 .5v-.1h-.2l-.1-.1-.2-.1-.3-.1H82.4v.2h.5l.3.2h.2zm.5.3V10L84 10h-.3l-.1.1v.2l.1.2h.2v.2h.1v-.3l.1-.1zm.6-1.6v-.1h-.2v-.1h-.2l.2.2h.2zm-1.5 1.8v.1H83.5v-.1H83.1zm4.2 4h.1v.1l.2.1v-.1l-.2-.1v-.1h.1l-.1-.1h-.1v.1zm-8 21.6v-.4l.1-.3v-.2h-.1l-.1.1v.2l-.2.1v.2l.2.2v.1zm-2 4l-.2.2-.1.1H77.4V40zm-26-11.4v.1h.4v-.1h.1v-.2h-.1v-.1h-.4l-.1.1h.1v.2zM46.7 19v.1h.2v-.1H46.5zm5.2-5.6h.2v.2h.2l.1-.1h-.2v-.1H52zm-.7-1.3l.2.1h.2v-.5h-.1v.2h-.1v.1h-.2v.1zm-3.7-.3h.1v-.1h-.2zm.6-6.3h.2V5v.1h-.1v.1H48zM42 10.8v-.5h-.1V10.6h-.1l.2.2zm0 .5v-.4h-.1v-.1h-.2V11.2h.1v.1h.2zm-.2 1h-.1v.2h.1v-.1zm-2-.7h.1v.6h.1V12l.1-.1h.1l.1-.3H40v-.2h-.1v-.1h-.1v.1zm-8.6 7.3h.1l.1.1v-.2l-.1-.1v-.2H31v.4zm.2.5v.1h.2v.1l.2.2v-.2h-.1l-.3-.2zm1.2.2l.2.2h.1V19.4l-.2-.1h-.1v.2zm.4 0h.1l.1.2h.1v-.2l-.1-.1H33l-.1-.1v.1zm0-.6l.2.2h.2V19h-.2l-.1-.2v.1H33v.1zm3.6 0v.1-.2h-.1zm-2.4.4v-.1l-.2-.1h-.1v.2h.1l.1.1v.2H34.5v-.1l.1-.1-.1-.1h-.2zm.3.9h.1v-.1l-.2-.1.1.2zm0-.4v-.2h-.2v.2l.1.1h.2v-.1zm.4 1.4h-.1l.1.1.1.1h.1v-.1h-.2v-.1zm.2.7V22.4l.1.2h.1v-.1l-.1-.3zm.3-.3v.2h.1v.1h.1v.1l.1.2h.2v.1l.2.1v-.1l-.5-.6h-.2zM46 33.3l.2.1h.1l.1-.1.1-.2V33h-.2l-.2.1H46v.1zm-1.2 0h.2V33h-.1l-.1.1v.1zm-.8 0H43.6v.2l.2.2H44.3l.1-.2v-.1H44zM38 47.1l.1-.2v-.2H38l-.3.2v.2l.2-.2V47.3h.2V47zm-1.5-3.3h-.2v.1l.2.1v-.1zm-16-9.6v.1h.1v-.1zm-7-17.6l-.1-.1H13.2v-.1H13v.2h.5zm-5-2.2l-.1.1H8l.3.1v.1h.1l.2.2v.1h.1v.1H9v-.4h-.1l-.1-.2zM8 15v.3h.1V15h.1v-.2H8zm-1.6 0h-.1v.1h.1v-.1zM1 1l.1.1v.1l.1.1h.2v-.1h.1V1H1.2L1.1.8H1l.1.1zm-.4.7v-.1H.5l-.1-.2H.4v.1H.2h.1V1.9H.8zm.1.1L.6 2V2H1v-.2zm160.9 45.9l.1.2H162.2l.1-.1-.1-.2H161.8v-.1h-.1v-.1h-.1v.2zm-22.2-12.4v.1h.1v.1h.1V35.2H139.3v.1h.1zm-16.7-21.1h.1l.1-.2v-.2h-.1v.1h-.1V14.3zm-1.3.3h.1v-.2h-.2v.2h.1zm-1.6 13.3h.1v-.1H119.6v.2h.2zm27.8 18h-.1v.2h-.2V46.4l.1.1.2-.2v-.4zm-.5 1.2v-.1h-.2v.2l-.2.2v.1l.1.2h.1v-.1l.1-.2v-.1l.1-.1V47zm-7.1-3.6V43h-.1V43l-.1.1v.4h.2v-.1zm-1.7-.4h-.1v.1h.1l.1-.1h-.1zm-9-3.8v.1h-.2l.1.1h.2v-.2zm-7.4-5.7h-.1v.1h-.2v.1h.4v-.1l.1-.1v-.1h-.2v.1zm-.4 1v-.2h-.4l-.2.1v.2h.5v-.2zm-.6.5v-.2h-.1l-.1-.2H120.5l-.1.1v.1h.1l.2.1h.2zm-1.5 1.7H119.2v.2H119.6v-.2zm-12 7.5l-.1.1V44.6h.2v.2h.1v-.4l-.2-.1zm-1.6-2.2h-.2l.2.3v.1h.2V42h-.2zm.5.8v.1h.1l.1.1v.1l.1.1h.1V43h-.1v-.1h-.1v-.1h-.2zm-5-7.2h-.2v.2h.2v-.2zm.3-.4V35l-.1.1v.2h.2v-.2zm7.1-5.4h-.1v.2l.1.1V30zm-1.9.3h.1v.1h.1V30h-.1zm-.7-.5v.2-.1zm.4.2v-.1h-.1v.1zm-11.4-11v-.1H95l.2.1zm-1 0v-.1H94v.1zm1 30.1H95.5l.1-.2h-.1l-.4-.3v.5zm.5.6H96.3v.1H96.7v-.1H95.9l-.1-.1h-.1v.1zm39.7-2v.1h.2l-.1-.1v-.1h.2v-.1h-.2l-.1.1zm-1 2l-.1.1v.1h-.1H134.5v-.1h-.1zm-.3.5v-.1h-.6l-.1.1v.2h.2v.1h.1v-.1h.1l.2-.2zm-.8.3h-.4v.1h.4zm.4.7h.1V50.6h-.1l-.1.1h-.2v.1l-.1.1h.4zm-7.7 1.8h-.6v.2h.5l.1.1h.1v-.2h-.1zm-2.9.2V53h-.4v.2h.4zm-1.8-.3h-.1l-.4.2h.1l.1.1h.4v-.2zm-1.8-.4l-.1-.1h-.2v.2l.2.1v-.1zm-15.2 1.4h-.2l-.1.1h-.1l-.4.2-.1.3h.2l.2-.3h.5l.1-.1v-.2zm-20.9-.3l.2.1h.1l.2-.4V53l.2-.1v-.2h-.7v.4h.1V53.5zM51.1 28.9h.1H50.8h.2zm1.4-1.5h.2v-.1h-.2v.1zm.5-.5l-.1.1v.1l.1-.1zm-23.6-5.4h-.1v.1h.2v-.1zm.8-1.5v-.2.1zm0 .3H30v.1l.1.1v-.2zm1.2-1v.1h.2v-.1h-.3zm.3 1V20v.1h-.1v.1zm.7-.5h.1v-.1l-.2-.1v.1h.1zm3.2-.1h-.1v.2l.2-.1h.1l-.2-.1zm-.6 4v.1H35.4v-.1h-.2zm33.3 30.1h-.4v.1h.4zm22.8.8h.1v-.1H91v.1zm-1-.8h.1v-.1H90v-.1.2zm-12-.4zM125 53zm4.4-.4l-.3.2v.2h-.1.1l.1-.2h.1v-.1h.1v-.1zM114 52h-.1v.2l.1-.1V52zm14-.4v-.1h-.1V52h.2v-.1zm-58.4-2.5h.2-.2zm.6-.1H70v.1h.2v-.1zm76.1-.5l-.1.1h.2zm-75.6.2v-.1h-.4l.2.1h.2zm66.3-.4l-.1.1-.1.1v.1h.1l.1-.3h.1zm-60.4 0h.1l-.3-.2h-.1v.1l.2.1zm58.6-.3v-.2.1h-.1v.1zm11.7-.2h-.2v.1h-.1.2l.1-.1zm-51.2 0v-.2.1zm50.7-.4V47.1h-.1v.4h.1v-.1zm1-1v.1h-.1v.2h.1v-.1l.1-.1zm-.2-.2V46v.2zM39 44.6h.1v-.1H39v.1zm-1-.5H38.4V44H38v.1zm19.5 0v-.2.1h-.1.1v.1zm50-.3l-.3-.1v.2h.3v-.1zm-5.7-.2H102.2v-.2h-.1v.1h-.1zm43.5-.3h.1v.1h.1l.2-.2V43h-.1l-.1.1h-.1v.1zm-43.3-.2v-.2h-.1v.2h.1zm43.4 0v-.2.2zM90 43h.1v-.2l-.1.1zm56.4-.7l-.1.1v.1h.1l.1-.1h.1v-.1h-.1zm-37.6 0zm-4.6-1.9v-.1h-.2v.1h.1zm-2.7-.5h-.1zm1.3-.6h-.1v.1h.1v-.1zm-4.7-1.5H98v-.1h-.1v.2h.2v-.1zM145 37H144.7l.1.2h.4v.1-.2h-.1l-.1-.1zm-11.8-.2h-.1.1zm11-.2v-.1l-.1-.2h-.1v.2l.1.2h.1zm-11.6-2v.1zm-86-.3v.2-.2zm104.4-.9h.1-.2.1zm-72.4-.1h-.1.1zm-22.1-.1v-.1H56.1v.1h.2zm91-.6h.1v-.1h-.1zm-91.3-.1v-.1H56v.2h-.1H56.3v-.1zm86-.8v-.1l-.1-.1h-.1v.2h.1zm1.9-.7h.1V31h-.1v.1zm-.8-.1h.2v-.1h.1v-.1h-.1l-.2.1zm0-.1l.2-.1.1-.1h-.2v.1h-.1zm.5-.2l.1-.1h-.2v.1h.1zm9.4-1h-.1v.1h.1zm2.3-.3h.1l.2.1v-.1H155.4zm-34.7 0h-.1v.1h.2v-.1zm-13.3-.1v.2h.1v-.2zm-91.4 0l-.1-.1v.2h.1zm107.3-.6h.2v-.1h-.2v.1zm-2.2-1.3zm32.8-.2h.1V27h-.1zm-49 .2V27h-.1V27.4zM120 27h.1V26.7h-.1v.2zm3.5-.4H124l-.2-.1h-.1v.1zm-89.3-.2zm99.6 0v-.2h-.1v.1h-.1v.2h.1v-.1h.1zm-31.6-2.1h-.2v.1h.2v-.1zm-68-.2V24v.1zm-.1-.2h.1-.1zm-23.3-1.2h-.1v.1h.1zm117.3 0v.1h.1l-.1-.2v.1zM34.4 22l-.1.1h.1zm94.8-.4v.1h.2v-.1h-.2zm-94.4 0v.1h.2l-.2-.1zm-.1-.1v.1-.1zm-.5-1v.2h.1v-.2zm-1.6-.4h-.2l.1.1V20zm3.6-.1H36zm-.1-.1h.2-.2zm-.1-.3h.1v-.1H36zm0-.1h-.1zm-2.2-.2V19v.1zm12.4 0h.1V19zm-13.5-.3v.1h.1v.1V18.7h-.1v.1zm77.5-2.5h.1v-.1h-.1v.1zm-89.1-1.9l.2.2v-.2H21zm20.5-4v-.1h.2v-.2h-.1v.1h-.1v.2zm7-1h-.1zm0 0v-.1h.1v-.1h-.1v.1zm0-.3zm-9.4 35H39v.1h.1zm17.5-.5h-.1v.1zM46.3 33.5v-.1l-.1.1v.1h.1zm-.2-.4h.1v-.2H46v.1zm30.4 15.6v-.1h-.1.1zm-.3-.3H76v.1h.1v-.1zm-.3 0h-.1.1zm27.5 14.8h-.1v.1zm-22-9.5H81v.1H81.5v-.1zm.2 0zm1.5-1H83h.1zm1.3-.2zM72 43.2h.1V43H72V43H72v.1zm0-.6v.1zm13-.2v.1-.1zm-1-.6v-.1.1zm-11.4-.4zm0 0h.1v-.2.2zm4-.8l-.1.1v.1-.1h.1v-.1zm.3-.7h-.1zm-8.8-5.1l.1-.1v-.1h-.1v.2zM32.4 20.3v.1zm1.5.1v-.1.1zm.8-.3v.1zm0 0h-.1zm-2.4-.1v-.1zm3.5 0h.1v-.1h-.1v.1zm-1-.1h-.1.1zm-3 0v-.1zm3-.4v.1h.1zm.5-.1h-.1.1zm-1.6 0v-.1zm.5-.3H34v.1h.1V19zm.2-.1h.1zm-.2 0v-.1zm0-.1v-.1zm-1.4-.3zm-1.8 0v-.1zm2.1-.2zm0 0zm-1.8 0zm8 30h-.1.1zm.9-.2H40v.1h.1zm-1.3-3h-.1v.1h.1zm-.2-.3v.1h-.1v.1h.1V45zm1.6-.4v.1h.1-.1zm1.2 0zm.4-.5zm-3.8-.5zm8.5-9.8v-.1zm-3-.4v-.1.1zm.5-.1V33zm-.2-.1zm1-1.6zm-4.8 0zM22.4 14.2h.2V14h-.2zm.2 23.2zm-1.4-2H21h.1zM12 23.1h.1zM9 19.6zm-2.6-4.9v-.1.1zm32.3-2.2zm2.2-1v-.2.1zm-1.2-.3h.1-.1zm2.9-.1zm3 11.1h-.1zm6-1.4zm-7-.4zm6.4-.6v.1h.1v-.2zm-4.8-1.3v.1zm6.3-3.5zm-.6-1.5zm-1.3-.7zm1.1-.2h.1v-.1zm-.1-1.1v-.1zm-3-2.7v-.2h-.1v.1zm-.5-.5zm-.3-.8h.1v-.1zm1.4-.5zm53.5 55.6h-.1.1zm-9.1-1.9h-.1zm.2-5.2h.1v-.2l-.1.1zm-1.8-.3V55zm-2-.6h-.1.1zm1.8-.6zm.5-.5v.1zm7-4h.1v-.1h-.1v.1zm-25.8-.6zm-2.3-.5h.1v-.1.1zm6.5-.1zm1.2-.1zm-20.9-4zm-1.5-.1zm.8-.3zm89.1 4.4zm1-4.4h.1zm-9.5-.1l-.1.1h.1v-.1zm-7.1-13h-.2.1-.1.2zm16.5-.5V30zm-18.9-.9h.1zm22.9 0zm-22.8 0v-.1zm2.1-1.2h.1-.1zm22.1-.8h.1v-.1h-.1v.1zm-25.3-.3l-.1-.1h-.1v.1h.1zm4.5 4h.1v-.1h-.1zm-.2-.2zm-.2 0zm0 0h-.2.1zm1.6-.3h.1-.1zm-1.5 0h-.1zm-.2 0zm-.1-.1zm0 0zm0-.1h.2v-.1h-.2zm.8-.3h-.1.1zm-.1 0h-.2.1zM112.8 5.5zm0 0zm.2-.3zM35 25.8zm-2.5-7.3zm1.8 8h.1-.1zm.1-1.5zm-.7-.4zm.4-.7zm.3 0zM37 23zM36 23h.1zm.5-.1h.1v.1-.1zm-.3-.3h.1v-.1h-.1zm-1-.4h.1v.1-.1zm-.7 0h.1v.1-.1zm.5-1v.1h.1zm.5 0h-.1v.2-.1h.1zm-3.7-.1v.1h.1l-.1-.1zm3.1-.1h.1zm.2 0zm-.6-.2v.1zm-2.6 0v.1h.1v-.1H32v-.1.1zm2.4 0v-.1z" fill="none" fill-rule="evenodd"/></svg>