<svg width="124" height="156"><path d="M122.6 23.9l-.7-.2-.6-.3-.8-.2-.6.3h-.4l-.5-.1h-.2l-1.2.3h-.4l-.8.2h-1.7l-1.6.2-.8-.1-.7-.3-.7-.5-1-1.4-.4-.4-.2-.1-.8-.3-.2-.1-.2-.2-.3-.4-.3-.5-1-.6-.3-.4-1 .6-1.2.5-1.7.6-2 .8-.1.3h-.1l-1.2.5-1.6.5H97v.1l-.1.1-.7.4-1.5.7-1.3.6-1.3.6-.3.4-.3.8-.5 1.1-.2.5-.3.4-1.2 1-1 1-.4.5-.4 1-.2.4h-.5l-.2-.2-.2-.1v-.3l-.2-.1-.4-.2h-2l.2-.3v-.2h-.3l-.7.4h-.6l-.6-.1-1.5-.7h-.2l-.9.1H79l-.3-.1-.6.1h-.4l-1.2-.3-1.5-.4-.3-.1-.2-.3-.4-.5v.4h-1V29h-.8v-.2l-.2-.2-.3-.2h-.2V28.8l-.8.4h-.9l-1.6-.1-1.6-.2H66l-.5.1h-.2l-.3-.3-.5-.1-.2-.1-.2-.3-.4-.6-.3-.3-.5-.3-1.5-1-1.5-1-1.6-1-1.4-.8-1.2-.8-1.7-1.2-1.5-1-1.5-.9-.9-.5H50v-.1l-.2-.4v-.1l-.1-.1h-.4l-.1-.1-.3-.4-.1-.1-.7-.2-1-.5-1-.3h-3l-.3-.1H37.2l-.2-.1H33.5l-.3-.3-.6-.5-.3-.1-.1-.3v-.8l-.2-.4v-.2l-1.4-1.5-.7-.8-.4-.6-.1-.7V6.9l.1-.2.6-.8.1-.3V5l-.4-.5v-.7l.5-.6-.1-.1-.8-.3-1-.7h-.7l-.3.1-.4.1h-.3l-.7-.6-.3-.2-.3-.1H24.5l-.4.2-.6.7-.3.3h-.4l-.3-.1-.2-.3-.5-.8V.8l.2-.1V.3l-.8.9-.9.8-.8.8-.9.9-.8.8-.9.8-.8.9-.9.8-.9.8-.8.8-.9.9-.8.8-.9.9-.8.8-.9.8-.8.8-1.6 1.6-1.5 1.5-1.6 1.5-1.5 1.6.4.2.4.2.2.4v.7l.1.1.2.2.1.2V22.7l-.1.1v.2l.1.2.2.2.2.1.2.2v.3l-.1.4-.2.3v.3l.3.1h.2l.7-.3h.3l.3.2v.2l-.1.2-.8.4v.1h.3l.2.3-.3.2-.1.1.2.1h.7l.3-.2h.1l.4.5.2.6.2.1.1-.2.2-.1.4-.1H8l.5.6.3.2H9l.2.2v2.1l-.4.5H8.6l-.1.2h-.1v.3l.2.3V31.9l-.1.4V32.6l.1.2.1.1.2.2.1.6.2 1.9.2.3.3.2.7.2.3.3.2.3.5 2.3.1.2.5.6.2.3.2.2h.2l.2-.1h.1l.1-.2h.1v.1h.1l.5.3.1.1.1.2.3 1 .3 1.3.6 1.3.1.1h.3l.2-.2h.1l.2.2v.7l.1.3.5.5.1.2v.4l-.3.2-.3.2-.2.2-.2.4.1.6.9 2 .7 1.7v.3l-.2.7V54l.2.3.1.2.4.3V55l-.3.4v3.2l-.1.3-.5 1-.1.2-.2.1h-.1l-.4.1-.1.1-.4.5-.3 1.3-1 .7.1.5.3.7.2.6-.2.6-.5.2-1.3.1-.3.2-.5.5-.8.2v.6l-.3.3h-.5l-.3-.1-.3.3-.1.2-.2.3v1.1l-.1.3-.4 1-.5.5-.2.6-.3.3-1 .5-.2.6-.2.7-.4.4-.5.2-.6.3-.5.3-.2.4-.4 1.6v.1l-.2.2-.2.3v.4l.1.6v.3l-.2.2-.5.4-1.4 1.8-.9 1.2v.3l1 3.1v.6l-.3 2.4-.4 3.1-.3 2.2.1 2.1v3.1h1.6v.4l.2.1h.6l1.1.7 3.3 1.8 3.3 1.9 6.6 3.6 3.3 1.8 3.2 1.9 3.3 1.8 3.3 1.8 3.3 1.8 3.3 1.9 3.3 1.8 3.3 1.8 3.3 1.9 6.6 3.6 3.2 1.8 1.3.7.2.4.3 1.7.4 2H59l-.2.2v.5h-.3l-.4.2-.3.2-.2.3-.1.1v.2l-.1.2v.1l.1.1h.3v.5l-.1.2v.3H59.1l.3.2.2.2.1.2.3 1 .1.3.2.2.9.6 1.3 1 1.3.9 1.3 1 1.3.9 1.3 1 1.3.8 1.3 1 1.3 1 1.3.9 1.3.9 1.4 1 1.3.9 1.3 1 1.3.8 1.3 1 1.3 1v-.1h.2l.3-.3.3-.4.3-.4.5.2V154l.5.4.5.2.5-.1.2-.2-.2-.4v-.3h.2l.2-.2v-.2l.2-.2.2-.2v1l.6-1.6.3-.3V151.6l.2-.2v-.1h.2l.2.2.1-.5.5-1.8.5-1.3.8-1.3v-.4l-.3-.2-.5-.2h-.5l-.2.3v-.1l-.1-.2v-.4h.5l.5-.1.1-.2.1-.2-.4-.1-.2-.1-.1-.1.2-.2h.1l.4.3.3-.3V145.1l.1.2h.1l.1.4.2.1h.1l.1-.2.1-.2v-.2h.1l.4-.4v-.3h-.5l-.2-.2V144l-.2-.1V143.6l.4-.2v.5l.3.3.4-.1.4-.4 1.3-3.4v-.7l-.1-.2-.2-.1-.5.2h-.3v-.3l.2-.2h-.3l-.2-.1v-.5l.2.1v.2h.4l.2.3.4.2h.1l.2-.2.2-.4.2-.9.4-.6.3-.8.3-.5-.1-.2v-1l.2-.1h.3v.1l-.2.6-.1.3h.2l.2-.2.4-.5.2-.1.8-.3.2-.2.1-.2.2-.2v-1.3l.5-.7v-.3l.1-.7.1-.2.3-.5.6-.5V129.3l-.3.2h-.3l-.2-.1.1-.4-.3-.3v-.5l.3-1v-.4l-.2-.3v-.4l.5-.6.3-.6.2-.2.1-.2.8-.6.5-.3.3-.1.7-.5 1.5-.5h.5l.5.1.5.2.4.1.6-.2 1-1 .6-.4.5-.3.4-.4.2-.4-.1-.2-.4-.3-.1-.2V119.2h-.1v-.2l-.1-.1v-.1l.3.1.3-.3.3-.4.4-.2h.5v.2l.4.4.2.2h.3l-.5.3v.2h.4l.4-.6.1-.3v-.2l-.1-.2-.2-.2h-.5l-.2-.4-.1-.6v-1.2H108v-.2l.1-.2v-.3l-.1-.2h-.5v-.5l.1-.3.1.1.2.2h.1l.3.3.3.9.3.2.3-.4v-1.8l.6-.4-.2.3V114l-.2.5v.4l.2.1.1.1.2.1h.3l.1-.1.2-.2.4-.2.3-.3.2-.1h.1l.6.1h.5l.1-.3v-.4l.4-.3v.3l.2.2h.5l.3.2.3-.2.5-.6.9-.8.3-.2.1-.3.6-.8 1.1-1.2v-1.6l-.2-.3-.6-.8-.7-1-.8-1-1.5-2-1.6-2-.8-1-.7-.9-.4-.5-.4-.5-.4-.5-.4-.5v-6.6l-.1-1.7V44l-.1-2v-.8l.2-.4.5-.5 1.3-1.3 1.3-1.2 1.2-1.3 1.3-1.2.8-1.1.8-1.2.7-1 .8-1.2 1.3-1.8 1.3-1.9 1.3-1.8 1.3-1.8-.8.4zm-10.9 91.3l-.5-.1h-.4l-.1.2-.2.3-.3.1-.4.1-.2.2-.2.3-.2.5v.4l.3-.1v.2l.1.1.1.1h.2v-.2l-.2-.2v-.4H110l.6-.2.3-.1h.2l.1.1H111.5l.2-.1v-.5l.2.4.3-.1.1-.3-.3-.5-.3-.2z" fill="none" fill-rule="evenodd"/></svg>