<svg width="106" height="116"><path d="M5 69v-.2H5v.2H5zm.6 1.9v.7l.2.2.3-.5.2-.6.3-1.2h-.2l-.2.4v-.1H6L6 70v.5l-.3.4zm-.2.2v-.4h-.1v.4zm.7.7l.3-.4.1-.3h.2l.1-.2.1-.2h-.2l-.3.4-.3.6v.1zm89.8-49.7h9.5l-1.5-1-1.5-1-1.5-1-1.5-1-1-.7-1.4-1-1.5-1-1.4-.8-1.4-1-1.7-1-1.7-1.2-1.7-1.1-3.4-2.2L82.5 7l-1.7-1.1L79 4.7l-1.7-1-1.7-1.2-1.7-1L72.3.2V12.6H43.6v23.8l-.2.2-.8.2-2 1h-.2L39 38l-.5.2-.5.4-1 .6-1 .7-.9.6-.2.2-.7 1-.3.7v1.2l.4 1.2.1.6.3 4.6.4 6H1.3l-.1.1-.2.8-.1 1-.4 1v.2l-.3.9v.2l.2 1h.1v-.3l.2-.3v-.2l-.1-.2-.1-.1V60l.3-.1v-.5l.1-.3v-.2H.7v-.2H1l.4-.6.2-.4h.1l.2.2v.2l.1.2.1.2.2.3v.2l.1.1h.1v.1l.1.2v.1l.1.2.1.1h.1v-.1V60H3V60.4l.2.4.1.2v.2l.1.1.2.2.1.1v.2h.1v.4l.3.2.1.1.2.3.2.2h.1l.1.2.2-.3-.1-1v-.3h.2v.1l.2.3v.2H6h-.1l-.4.1v.1l.2.1h.1V62.7l.1.2H6l.1.1.4.9v.5l.1.1.1.1.3.6.1.1v.2H7.5l.3.5V66.6l-.2.3H7.1l.2.3.2.5v.5l-.2.2-.5.5v.2l-.1.1v.1H7V69l.2-.1.2.1v.1l-.1.2v.2l.2-.1v.2h-.1v.4l-.1.2-.1.1V70.7H7v.1l-1 1.3-.2.2v.2l-.1.2-.2.2-.1.2v.4h.2l.1-.2v-.4l.2-.2.4-.3-.3.7.3-.2.5-.5H7v.4l-.3.3-.3.4-.4.2-.5.1-.5-.1-.1.1v.2l.3.1V74.4l.2.4v.1l.2.1.4.1.1.1h.2v.1h.1l.2.2.5.6.3.6.3.7.4 1.3v.8l.3 1.1.4 1 .1.3.3 3v3.2L9 89.2l-.3 1.1L8 93 8 93v.2L7 94.8l-.4.6-.2.3v.6l-.3.3-.7 1.8v1.4l-.1.2-.2.5-.2.5v.1l-.1.6v4.1l.1-.3.1-.5v-1.1l.2-.4.1-.3v-.6l.1-.2.2-.1.3-.1.1-.1.1-.2.4-1.5v-.5l.2-.2.2-.1.1-.2H8l.2-.2h.4l.1.1.1.2.1.1H9l.2.1H9.5l.1-.1H10l.3-.1h.8l.5.2h.5l.2.1h.2l.1-.1.2-.2h.8l.1-.1.3-.3V99h.4v.1h.1l.1.1H14.8l.3-.2H17l.2-.2v-.1l-.1-.2V98.2h.4v.2h.4v-.2l.1-.1.3-.2v.1l.2.1v.2h.2l.1.1h2.5l.1.1h.1l.4-.1h.7l.3-.1h.3l.5.1.1.1v.4h.4v.1l.1.2H24.6l.1.1h.1l.2.2.2.2.3.4.5.4.3.2.2.2.3.2V101.5l.1.2v.5h.2l.3.1h.1l.1.2h.1v.1l.1.2v.1l.1.1.2.1H28.4l.1-.2h.1l.2-.3H29.2v.4h.1v.1h.1l.1.1H30v-.1l.3-.1.5-.1h.2v.5l.3-.1h.2v.2h.1l.2.2.1.1v.2l.2.3v.2h.2l.2.2v.6l.2.2v.1l.1.2v.5l.2.1.1.1.1.2v.4H33v.4h.6l.2.1.3.1.2.2v.7h.1l.3.2.2-.1.1-.1.2-.1h.2v.1h.1v.3l.2.2V109.7l.1.1.1.1.5.4h.1l.1.2v.2h-.5v.1l.2.2.1.1h.5l.1.1v.5l.2.1.4.3.2.1H38.6l.1.1.5.3.2.1.3.1.1.2.3.8v.1l.4.4.1.1.6.3.4.3.2.1h.4l.3-.1H42.7l.4.3h.1l.1-.2H44l.1-.1.2-.3.2-.1h.3l.2-.2.2-.2v-.1l.1-.1h.1v-.8l.1-.1v-.4H45v-.4l.1-.4v-.4l.2-.5V110.3l.4-.6.1-.6.1-.3.2-.2v-.4h1l.3-.4h.2l.2-.1.2-.1v-.2h-.1v-.1h.6l.2.1.2.2.8 1.2.1.2 2.2 1.6.3.2.2.5.3.3.3.4.1-.1.1-.5.1-.2.2-.2.1-.1.1-.4v-.1l.2-.1H54.3v-.2l.2-.1.1-.3v-.5H56l.3-.1h2.1l.8.3h.4l.3.3H60.4l1-.1h1.3l.5-.3h.2l.4-.2h2.1v-.5l-.2-.6v-.3l.1-.2.5-.6.2-.1h.2v1l-.1.8h32.9v-.2l.7-3.5.1-.8.2-.8.1-.9.2-.8v-.4l-.4-.3-.7-.5-.4-.3-.3-.2-.3-.2-.1-.2-.1-.5v-.8l-.2-.8-.1-1.6-.1-.8-.3-2.4v-.8l-.2-1.6-.1-.8-.1-.8-.2-1.6v-.8l-.2-.9v-.8l-.1-.8-.1-.9-.1-.8v-.8l-.3-1.7v-.9l-.2-1.6-.1-.9v-.5l-.1-.5v-.5l-.3-1.8v-1.1l-.2-1.2-.3-2.2-.5-4.6v-1l-.1-.5-.3-2.4-.2-1.6L94 56l-.7-6.7-.1-1-.2-1.2v-1l-.5-3.4-.2-2.3-.1-1-.1-1.2-.2-1.1v-1.2l-.2-1-.1-1.2-.1-1.1-.1-.6-.1-1.3-.3-2.6-.2-1.5-.2-1.5v-.8l-.1-.7-.1-.8v-.7h5.6z" fill="none" fill-rule="evenodd"/></svg>