<svg width="104" height="106"><path d="M103 52.6l-.3-.1-.3-.2-1-.3h-.1l-1 .2-.6.1-.4.3-.4.4-.3.5-.9 1.6-.4.6-2 2-1.2.7-.6.2h-.4l-1-.7-.4-.2h-1.2l-1 .3-.6.7-.2 1.1-.7-.6.3-1 .8-1.2.6-.8.5-.8.5-3h.4V51.8l.2-.5.2-.4.5-.5.6-1 .5-.7.6-.6.7-.1h.8l.7-.5.4-.7.3-.7-1.5-2-.2-.3-.5-.3-1.4-1.9-.3-.2-.1-.2v-.6l-.3-1v-.3l-.1-2.5.1-1.2.6-2-.1-.5-.4-.4-.8-.2-1.4-.1h-1.4l-1.2-.4-.2-1.2.3-1.5.6-1 .4-.3.3-.1.4-.3.3-.4V27l-.1-.6V26l.1-.4.2-.4.2-.3v-.5l-1.5-1.2-.4-.2-.4-.3-.4-.4-.4-.6H85l-.4-.2.3-.3.4-.2v-.2l-.6-.4-.5-.5-.4-.6-.1-.6.2-.8v-.5l-.3-.2-.3-.2-.3-.3-.1-1-.2-.2-.3-.4-.9-.6-.2-.3-.2-.9-.2-.3-.2-.1-.6-.2-.1-.2-.3-.3-.4-1.2-.8-1.5L77.5 8 76 6.6 73.5 5l-.2-.3-.5-2.3-.2-.8-.4-.3h-.5L70.6.9H48L47.9 3l-.2.4L40.2 5h-.6l-.5-.2-.7-.2-.8-.5-.6-.6-.6-.4h-.8l-5.1 1.1-1.5.6-1.3.7-.2.3v.8L27.2 9v.1l.1.4v.2h-.4V10.4l-.1.2h-.1l-1 .6-.4.3-.5 1-.1.1v1.5l-.2.3H23.5l-.2.3L23 16v.1l-.1.1h-.2l-.1.1-.3.2v.4l-1.1 3.7-.2.3-.2.2h-.1l-.1.3-.2.2h-.1l-.2-.2H20l-.6.3-.2.2-.3.4v.2l.2.4v.2l-.5.2-.6.3-.8 1.3-.6.5h-2l-.8.5-.6-.7-.7.5-.6 1-.1 1 .1.4.5.6v.2h-.1l-.5.1-.2.1-.4.5-.2.5-.5 1-.4.6-.7.4-1.3.7-1 .7-.5.1-.8-.3-1.3-.8-.5-.1-.9.1-1.5.5-.8.6v.2l.6.6-.1 1.7.7.6v-.2l.1-.2.1-.1h.2l.5.5v-.3H3l.1-.2.3.8.7.5.8.2.8-.1 1.4-.6H8l.6.1v.2h-.8l-.8.2-.7.4-.3.6h-.1l-.1.2v.3H6.3l.1.3.2.4h1.1l.3-.3.4.2.7.2h.6l.2-.2.2-.1 1.4.4H8.6l-.7.4H4.8l-.3-.2-.1-.2H3.8l-.9 1 .2 3.7h-.2v1.6l.1.4.3.4.4.6.3.6.2 1 .2.5 1 1.5.1.3.3.1.4-.1.1-.2v-.3l-.1-.3.7-.6.5-.8v-.7l-1-.7.5-.3-.6-.2-.5-.2-.3-.4.2-.5.1.3.2.3h.3l.3-.2.6.8.5.4.6.2.4-.2.2-.4.3-1h.2l.1.2.2.1h.1l.3.1v.3l-.5.3-.4.5-.4.4-.8.2.4.5.6.1h.6l.8-.5H12l1.2-.3.7-.7.5-.9.9-1-1.3 2.6-.6.9.1.3h1.4l.6.1-.3.2-.7.5h-.7l-.6-.2-2.3-.1-.3-.1-.2.3-.2.3v.8l-.5-.2-.3.2-.2.3-.2.4-.5.2-1 .4-.4.3-.3.8.5.5 1 .4 1 .2v.2h-.5v.4l.3.3.4.2h.4v.3l-.9.1-.9-.6-.8-.7-1.1-.7-.7-1.1-.5-.5-.5-.3-.6-.2h-.6l-.6.2-.1-.2-.1-.1-.3.1-.2-.1-.7-.1.2.3.4.6v.8l-.1.3-.5.6h.4l.3.4.1.3.2.2 1 1.1v.4l.2.3H3.8v.2H4l1.2 1.9.4.3-.2.4v.4l.2.7v2h.2l.5-.6.9-.7.9-.5.8-.3 1.5-.2h.8l.2-.2.2-.1.2-.2h.3l-.2.4-.2.4v.9l.1.6.4.3.4.2.4.2.6.9.2.7.5.4 1 .1-.3.4-.3.4-.2.5v.5l-.3.4v.3l.1.1v.1l.6 1.7.8.7.8.6.7.7-1.1-.5-.6-.2h-1.1L13 72l-.7.2.8.8.4.4.4.2.5.1.3.4.5.9 1.6 1 1.7-.7h.6l-.6.2-.3.3-.1.4v.6l.4.7.4.3.5.2 1.4 1h.3l.2.1h.2l2.2.4h.3l.5.4 1-.4 1.8-1 1-1.6.6-.5.7.4-.5.2-.2.3v.5l.2.4-.2.3-.2-.2-.5-.3-1.3 1.8-.4 1.1.8.8v-.4h.2l.2.2h.2l.3-.2.2-.3v.8l-.2.2v.2l.5.5.2.7.3.7.7.2h.4l.7.2H31.7l.8-.3.7-.2.7-.3.3-.1h.7l.4-.2.6-.2.2-.1v-.3l.2-.2h.7l.4-.1.2.4.3-.1h.4l.2-.1h.3l-.2.6-.4.3h-.6l-.7.3h.1v.3l.1.1h-.9l-.6.4-.6.3-.7.2h-.1l-.4-.3-.3-.1h-.2l-.4.2h-1.4l-.4.2-.6-.2-.5.4-.3.5-.7.6-.4.6-.3.6.1.3.3.2.3.2.3.2.6-.4h.3l.7.3.2.2.3.5h.6l.3.2.1.2v.3l-1-.5L30 89h-1.2l-1 1 6.4 2 8.2 3.2 8 3 4.8 2.7 1.8 1.5.5.5.3.8h.2l.3-.2h1.4l-.2.1-.1.2H59l.5.6.7.4.7.4 1.4.3.5.4 1-.5.3-.1v-.9l.1-.6 1-.5.3-.6.2-.6v-1.4l.8-.1.2-.1.2-.2v-.7l-.5-.8-.1-.3.1-.2.6-.5 1.2-1.9.6-.1 2.8-1.3.3-.2 2.8-3.6 5-4 1.4-.8 1.3-.3.5-.2.3-.3 5-6 1.2-1L91 77h.3l.8-.2-.1-8.2v-.4l.2-.3.3-.3.8-.5.4-.3.8-1.5.5-.6.8-.4.7-.1h2.7l.7-.1.7-.2.6-.4.9-.8v-.6l-.2-.7-.3-1 .1-.7.6-1.3 1-4.2v-1.8h-.3zM28 85.4l-.1-1V84l.4-.2-.4-.5-.4-.5-.5-.3-.6-.1h-1.3l-.3-.2.5-.6-.7-.2H22l-1.3.4H20l-3.7.1-1.3.2-.5.2-.4.4-.1.5-1.3.3v.3l3.5.9 2.9.4 1 .6 3.2.8h.5l.7.3.6.6.6.9.5.8h-.7l.3.5.6.2h.5l.5-.5V89l-.3-1.1v-.6l.3-.5.3-.3.3-.4v-.6z" fill="none" fill-rule="evenodd"/></svg>