<svg width="70" height="116"><path d="M68.2 4.4l-1-.2.4-.7.8-.4.9-.3.4-.3-.2-1-.8-.3-1.9-.2-1.2-.3-1.2.5-1 1-.3 1.4v1l-.3 1-.6.5-1 .5h-.7v1.1l.2 2.2.8.4h1l1 .4.6 1.1.5-.3.4-.2v.2l.3.5.2.3.1-.7V11l.2-.4.8-.1.5-.3.3-.7.3-1.3V6.6l.2-.7 1-.2.7-.2-.4-.6-1-.5zM20.1 94l-1.3-2-1.7-1.7-1.5-1-2.7-.2-2.3 1.4-2.1 1.9-2.5.8-.6.3L3 95.9l-.2.4v.4l-.4.6L1.1 99l-.2.5v1.4l-.1.6-.3.6.4.7 2.4 7.9.2.2.3.2.3.3.2.7v.5l-.4 1.2v.1l.3 1.2.7.6.8-.2.5-1.2.9 1.1.7-.9.7-2.4h2.6l.1-.4 1.2-1.2.5-.3h.7l.5-.4-.5-1.2.4-.3h.6l.4-.3 2-3.2.8-1 1.8-1.7.6-.8.6-1.3.3-1.2v-1.1l-.3-1.9L20 94z" fill="none" fill-rule="evenodd"/></svg>