<svg width="90" height="110"><g fill="none" fill-rule="evenodd"><path d="M49.2 16.4l-.5-.5h-.5l.6.6zM22.7 11.7H22.4l-.3.2V12.2zM23.7 16.6H24l.1.3h.2l.3-.3v-.4l-.2-.1zM15 9.6l.2-.3V9h-.4l-.3.3.2.3zM43.7 25.4h.1v-.2h-.4v.2zM42.7 22.4V22l-.1-.4h-.2l-.1.2v.4zM41.8 17.5l.1-.1V17h-.6l.2.4zM22.7 8.7h.2l.6-.8 1-1-.1-.9-.3-.3h-.5l-.4.2-.5.7V7l.3.7-.1.6zM41 25.6l.4-.3-.2-.3h-.4l-.1.1v.5zM88.5 76.9l-.2-.4.1-1 .2-.2.2-1.5-.1-.2v-.4l-.3-.8-.8-2 .4-1.8-.3-.8.1-.9.5-.8.6-.6-.3-.8.2-1.6-.2-.3h-.9l-.6.8-.6.2-.3.5-1 1.2-.5 1-.7.7v.3l-.7 1v.5l-.5.8-.1 1-1.3 1.4-.5 1.4-.3.4h-.2l-.7.7v.4l-.5.7-1.3.4-.5.5v.2l-.4.6-.1.6-.4.4-.1.8-.4.8v.4l-.9.9-.2.4v.6l-.5.6v.4l-.7.8-.2.6-.1.8-.2.2-.3 2.9.1.2-.4 3.4.4.7 1.3.8.5 1.2 1 1.6v.2l.5.6v.2l.3.5h.2l1.7 1 .8.2.7 1v.4l.3.5.5.2.7.9v.2l1 1.2.3 1 .3.1h.5l.2.2h.5l.5.4h.5l.7-.9.3-1.2.4-.6.3-2.5-.2-.8.1-1.4-.1-.2.3-3 .2-.2.2-1.5.2-.2.4-1.6-.2-.2v-1.4l-.3-.6.1-1.2-.1-.3V86l.2-.2v-.4l.5-.8v-.8l.3-.2v-1l.3-.2.1-1.2-.1-.3v-.5l-.1-.3.2-2zM37 41.1l.2.4h.1l.2-.1v-.2l-.3-.4zM68.2 18l.8.3.3-.3v-.2l-.6-.1zM71.2 15.7l-.5.5H71l.5-.4-.1-.1zM74.1 107.9l-.5.5v.4l.2.3h.4l.2-.3.1-.6-.2-.3zM39.1 33v.2l.2.3h.4v-.3l-.1-.3h-.4zM25.7 35.8l.3-.1.1-1.7-.2-.2h-.2l-.3.2v.9l.1.2v.4z"/><path d="M66.4 28.5l-.5-.2-.4-.9-.9-.2v-.4H64l-.5-.4H63l-.2-.2h-.3l-.3-.4h-.4l-2-1h-.7l-.2.2h-.7l-1.8-1h-.9l-.6.4-1.4.4-.6.4h-.7l-.2.2h-1l-.2.2h-.4l-.7.4H49l-.3.5v.6l-.3.2v.9l-.2.2-.1.8-.2.2-.1.8-.2.2-.3 1.2-.5.8-.6.6v.4l.2.3 1-.2.5.5v.9l.2.2-.1.8-.2.2v.6l-1 1.1h-.3l-.3.3v.4l-1.3 1h-.5L44 39h-.4l-.3.3.5.6-.1.8-.5.5-.7.3-1-1h-.3l-.2.1-.5-.2-.2-.2-.3.1v.2l.5.6-.3.5.2.2-.3.3-.8.4-.8-.6-.9.6h-.5l-.7-.4-.6-1.4.4-1.2.5-.3.2-.2h.6l.7-.4h.3l.4.4h.5l.2-.2h.3l.2-.2h.7l1-.6.6-.6h.3l.5-.3-.2-.5-.8-.2-1.4-.8h-.3l-.2-.2h-.7l-.1-.2-1.4-.4-.4-.9h-.5l-1 .7h-.3l-.3-.7h-.2l-.7.6v.2l-.9.9-.4.2h-.7l-.2.2H32l-.2-.2h-.5l-.3-.2-.9-1v-.8l-.3-.3h-.7l-.5.7-.5 1.3-1 .9h-.3l-.3.3.8.8v.4l-.5.5-.8.4h-.3l-1.2-.6-.6-.6-1.4-.2-.6-.6-.9-.2-.2-.3v-.6l.4-.5.2-.1 1-1.5.8-1h.2l1-1.1 1-.4h.5l.5-.4h.4l.2-.2h.5l.4-.4h.2l.4-.4h.5l.6.5.2.5.6.4h1.3l.1.2h.7l.2.2h.9l.6.4.5.6.7-.2.6-.4h1.4l.1.2h.5l.2.2h.5l.4-.2 1-1.2.5.1v.5l1.6-.2 1.1-.6.7-1 .3-2.4-.2-.3h-.4L42 29l-.5.2-.6.4h-.3l-.8-.6H39l-.3.2h-.5l-.2.2h-1.9l-.2-.2-.6-.2-.8-1-.7-.2-.6-.9-.5-.2-.3-.4-1.2-.2-.2-.2h-.3l-.2-.2h-.3l-1.7-.8-.5-.4h-.5l-.7-.4-.5-.5v-.2l-1.3-2-1-.6h-1.4l-.3.3-.7.7V22.3h-.7l-1.4.9-1.2 1.2H18l-.2-.2H17l-.2.2h-1l-.1.2H15l-.2.2h-2.5l-.1-.2h-.5l-.9-.4h-.7l-.2-.2-1.7-.2-.1-.2H7l-.9-.6-.7-1-.5-1.6-.2-.2.1-.8-.1-.2.2-1.6.1-.2.5-2 .6-1.3V14L9 11.1v-.2l.7-1.2V9l-.3-.7H9l-1 1-1 1.3-1.7 1.8v.2L3.9 14h-.2l-1 1h-.2l-1 1.2-.5.8-.1.8.2.2-.1 2 .1.2v2.1l.1.2v1.2l-.1 1.6-.2.2v.4l.4.6-.3 1 .4 1v.7l.1.2v.6l.1.2.2 1.6.2.8v.4l.7.7h.9l.1.2.9.2.1.2h.4l.6.7h.6l.3.2 1.5 2 .6.3.3.7.6.2.3.4.6.4h.9l.3.2v.3l.6.4v.2l.5.8.6.3.6 1h.2l.6.7h1.6l.2-.2 2.5-.2.2.2 2.7.8.6.6h.9l.1.2h.8l.1.2h.5l.3.4 1.7 1.2.3.4 1.3.8.1.4.5.3.3.4h.4l.7.7.2 2.2.4.2v.2l.4.4V53.5l.9.9v.6l.2.2v.8l.2.3 1.5.8.4.6h.2l.1.2h.4l.1.2.9.2.7.4h.5l.6.4h.4l.5.4 1.2.4.1.2h.4l.1.2h.4l.1.2.9.2.1.3H44l.2-.2 1-.3.3-.4.6-.2 1.7-1.4.8-.4.6-.8.3-.1v-.4l.4-.4V56l.4-.2.3-.8.2-.2.2-2.9.2-.2v-.6l-.2-.8-.3-.4-.3-1-.3-.4.1-.8.4-.6.4-1.7.2-.2v-.4l.7-.7h.4l.5-.5v-.4l.4-.4v-.2l.5-.5h.2l1.3-1.6.7-1.6.7-1 .7-.7.4-.2h.7l.2-.2 1.2-.2.2-.2h.5l.8-.4h.5l.6-.4h.3l1.5-.8h.4l.4-.4h.2l1-1.3h.2l.7-.7.2-.6.4-.6v-.4l-1-2z"/><path d="M43.7 26.1l.1.1H44.1v-.3H43.7zM57.6 18.1h.6v-.4l-1.2.1.4.1zM46.6 20.5l.3-.3V20h-.4l-.3.2.2.1zM46.1 37.2l.1-.1V37h-.3v-.2l-.4.3zM54 18l.9-.7.3-.3v-.4l-.2-.3h-1l.2.4.4.3-1.1.8zM77.2 1.4l.2.3.3-.1V1l-.2-.4-.3.4zM79.3 21.8l-.7.7v.6l1 1.5.3.2h.3l.7-1 .3-2.3-.4-.5zM63 18l-.4-.3-.7.3.4.3zM65.3 17.9l-.1-.2h-.7l-.3.3h1.6zM75.7 9.5v.2l.2.3h.4l.3-.3v-.2l-.2-.3H76z"/></g></svg>